# Blender 4.5.2 LTS
# www.blender.org
mtllib bar_1L_trans_clear.mtl
o bar_1L_trans_clear
v -14.791000 3.049457 -9.165846
v -14.787001 -4.937046 -8.701321
v -13.000000 -4.999996 -9.751437
v -13.000000 2.986565 -10.214961
v -16.787001 3.131211 -7.757215
v -16.782000 -4.855291 -7.292690
v -18.382999 3.210113 -6.380476
v -18.379000 -4.776389 -5.915949
v -19.961000 3.303501 -4.754153
v -19.955999 -4.683002 -4.289628
v -20.304001 3.345740 -4.026379
v -20.299999 -4.640763 -3.561853
v -20.304001 3.345740 -4.026379
v -20.000000 3.368975 -3.626052
v -20.000000 -4.617587 -3.162524
v -20.299999 -4.640763 -3.561853
v -20.000000 3.368975 -3.626052
v -15.100000 3.368975 -3.626052
v -15.100000 -4.617587 -3.162524
v -20.000000 -4.617587 -3.162524
v -13.000000 3.334210 -4.225043
v -13.000000 -4.652351 -3.761517
v -13.000000 3.334210 -4.225043
v -11.000000 3.365499 -3.685951
v -11.000000 -4.621063 -3.222423
v -13.000000 -4.652351 -3.761517
v -11.000000 3.365499 -3.685951
v -9.540001 3.450091 -2.228404
v -9.540001 -4.536469 -1.764876
v -11.000000 -4.621063 -3.222423
v -9.200001 3.481959 -1.679328
v -9.200001 -4.504602 -1.215800
v -9.200001 3.481959 -1.679328
v -8.400000 3.502238 -1.329916
v -8.400000 -4.484323 -0.866388
v -9.200001 -4.504602 -1.215800
v -7.400000 3.502238 -1.329916
v -7.400000 -4.484323 -0.866388
v -7.400000 3.502238 -1.329916
v -6.600000 3.531209 -0.830756
v -6.600000 -4.455352 -0.367228
v -7.400000 -4.484323 -0.866388
v -6.550000 -4.420588 0.231764
v -6.600000 -4.455352 -0.367228
v -6.600000 3.531209 -0.830756
v -6.550000 3.565973 -0.231764
v -6.600000 -4.455352 -0.367228
v -6.550000 -4.420588 0.231764
v -6.000000 -4.420588 0.231764
v -7.000000 -4.779821 -5.957820
v -7.400000 -4.484323 -0.866388
v -8.400000 -4.484323 -0.866388
v -9.200001 -4.504602 -1.215800
v -9.540001 -4.536469 -1.764876
v -7.000000 -4.999996 -9.751437
v -11.000000 -4.621063 -3.222423
v -13.000000 -4.999996 -9.751437
v -14.787001 -4.937046 -8.701321
v -13.000000 -4.652351 -3.761517
v -16.782000 -4.855291 -7.292690
v -15.100000 -4.617587 -3.162524
v -18.379000 -4.776389 -5.915949
v -19.955999 -4.683002 -4.289628
v -20.000000 -4.617587 -3.162524
v -20.299999 -4.640763 -3.561853
v -6.000000 3.565973 -0.231764
v -6.565000 3.565973 -0.231764
v -6.600000 3.531209 -0.830756
v -7.000000 3.206739 -6.421348
v -7.400000 3.502238 -1.329916
v -8.400000 3.502238 -1.329916
v -9.200001 3.481959 -1.679328
v -9.540001 3.450091 -2.228404
v -11.000000 3.365499 -3.685951
v -7.000000 2.986565 -10.214961
v -14.787001 3.049515 -9.164848
v -13.000000 2.986565 -10.214961
v -13.000000 3.334210 -4.225043
v -15.100000 3.368975 -3.626052
v -16.782000 3.131269 -7.756217
v -18.379000 3.210172 -6.379478
v -20.000000 3.368975 -3.626052
v -19.955999 3.303559 -4.753156
v -20.299999 3.345798 -4.025381
v -7.000000 2.986565 -10.214961
v -7.000000 0.964084 -7.092535
v -7.000000 1.010436 -6.293879
v -7.000000 3.206739 -6.421348
v -7.000000 -4.999996 -9.751437
v -7.000000 -2.629869 -6.883946
v -7.000000 -4.779821 -5.957820
v -7.000000 -2.583516 -6.085290
v -6.247000 3.173777 -1.742578
v -6.000000 3.565973 -0.231764
v -6.456000 2.232085 -2.987105
v -6.565000 1.166875 -3.598413
v -6.000000 -4.420588 0.231764
v -6.247000 -4.205806 -1.314278
v -6.456000 -3.414413 -2.659392
v -6.565000 -2.427076 -3.389826
v -3.018000 1.165948 -3.614387
v -6.565000 1.166875 -3.598413
v -7.000000 1.010436 -6.293879
v -7.000000 0.964084 -7.092535
v -3.018000 -2.428003 -3.405799
v -7.000000 -2.629869 -6.883946
v -7.000000 -2.583516 -6.085290
v -6.565000 -2.427076 -3.389826
v -7.000000 0.964084 -7.092535
v -3.224000 0.886971 -3.778498
v -3.018000 1.165948 -3.614387
v -3.571000 -0.659070 -3.993280
v -7.000000 -2.629869 -6.883946
v -3.224000 -2.169884 -3.601083
v -3.018000 -2.428003 -3.405799
v -6.550000 3.565973 -0.231764
v -14.791000 4.086483 8.702086
v -13.000000 4.145382 9.751437
v -13.000000 -3.841179 10.214960
v -14.787001 -3.900136 9.164617
v -16.782000 -3.981890 7.755986
v -16.787001 4.004728 7.293458
v -18.379000 -4.062789 6.379361
v -18.382999 3.923829 5.916831
v -19.955999 -4.158174 4.753155
v -19.961000 3.828445 4.290627
v -20.299999 -4.200412 4.025380
v -20.304001 3.786206 3.562850
v -20.304001 3.786206 3.562850
v -20.299999 -4.200412 4.025380
v -20.000000 -4.223588 3.626052
v -20.000000 3.762972 3.162524
v -20.000000 3.762972 3.162524
v -20.000000 -4.223588 3.626052
v -15.100000 -4.223588 3.626052
v -15.100000 3.762972 3.162524
v -13.000000 -4.188824 4.225044
v -13.000000 3.797736 3.761516
v -13.000000 3.797736 3.761516
v -13.000000 -4.188824 4.225044
v -11.000000 -4.220112 3.685951
v -11.000000 3.766448 3.222423
v -11.000000 3.766448 3.222423
v -11.000000 -4.220112 3.685951
v -9.540001 -4.304706 2.228404
v -9.540001 3.681855 1.764876
v -9.200001 -4.336573 1.679328
v -9.200001 3.649987 1.215800
v -9.200001 3.649987 1.215800
v -9.200001 -4.336573 1.679328
v -8.400000 -4.356853 1.329916
v -8.400000 3.629708 0.866389
v -7.400000 -4.356853 1.329916
v -7.400000 3.629708 0.866389
v -7.400000 3.629708 0.866389
v -7.400000 -4.356853 1.329916
v -6.600000 -4.385823 0.830756
v -6.600000 3.600738 0.367228
v -6.600000 3.600738 0.367228
v -6.600000 -4.385823 0.830756
v -6.600000 -4.385823 0.830756
v -7.000000 -4.061354 6.421349
v -7.400000 -4.356853 1.329916
v -8.400000 -4.356853 1.329916
v -9.200001 -4.336573 1.679328
v -9.540001 -4.304706 2.228404
v -11.000000 -4.220112 3.685951
v -7.000000 -3.841179 10.214960
v -14.787001 -3.900136 9.164617
v -13.000000 -3.841179 10.214960
v -13.000000 -4.188824 4.225044
v -15.100000 -4.223588 3.626052
v -16.782000 -3.981890 7.755986
v -18.379000 -4.062789 6.379361
v -20.000000 -4.223588 3.626052
v -19.955999 -4.158174 4.753155
v -20.299999 -4.200412 4.025380
v -7.000000 3.925206 5.957820
v -6.600000 3.600738 0.367228
v -7.400000 3.629708 0.866389
v -8.400000 3.629708 0.866389
v -9.200001 3.649987 1.215800
v -9.540001 3.681855 1.764876
v -7.000000 4.145382 9.751437
v -11.000000 3.766448 3.222423
v -13.000000 4.145382 9.751437
v -14.787001 4.086425 8.701088
v -13.000000 3.797736 3.761516
v -16.782000 4.004670 7.292459
v -15.100000 3.762972 3.162524
v -18.379000 3.923771 5.915833
v -19.955999 3.828387 4.289628
v -20.000000 3.762972 3.162524
v -20.299999 3.786148 3.561852
v -7.000000 4.145382 9.751437
v -7.000000 3.925206 5.957820
v -7.000000 1.728902 6.085290
v -7.000000 1.775256 6.883947
v -7.000000 -3.841179 10.214960
v -7.000000 -1.818697 7.092535
v -7.000000 -1.865050 6.293879
v -7.000000 -4.061354 6.421349
v -6.247000 3.351192 1.314278
v -6.456000 2.559799 2.659393
v -6.565000 1.572463 3.389827
v -6.247000 -4.027392 1.742520
v -6.456000 -3.086700 2.987107
v -6.565000 -2.021491 3.598414
v -3.018000 1.573390 3.405800
v -7.000000 1.775256 6.883947
v -7.000000 1.728902 6.085290
v -6.565000 1.572463 3.389827
v -3.018000 -2.020563 3.614388
v -6.565000 -2.021491 3.598414
v -7.000000 -1.865050 6.293879
v -7.000000 -1.818697 7.092535
v -7.000000 1.775256 6.883947
v -3.018000 1.573390 3.405800
v -3.224000 1.315270 3.601084
v -3.571000 -0.195543 3.993280
v -7.000000 -1.818697 7.092535
v -3.224000 -1.741586 3.778499
v -3.018000 -2.020563 3.614388
v -1.414000 0.489085 -1.469565
v -1.240000 -4.205806 -1.314278
v -1.414000 -4.221988 -1.196142
v -0.764999 0.463938 -1.902836
v -0.764999 -4.012529 -1.643029
v 0.000001 0.455132 -2.054580
v 0.000001 -3.919507 -1.800683
v 1.414001 0.489085 -1.469565
v 1.848001 0.526688 -0.821655
v 1.848001 -4.313168 -0.540758
v 1.414001 -4.221988 -1.196142
v 2.000002 -4.420588 0.231764
v 2.000002 0.571013 -0.057940
v 1.240001 -4.028391 1.742578
v 1.414001 -4.058131 1.627108
v 1.414001 0.652941 1.353685
v 0.765001 -3.798380 2.046762
v 0.765001 0.678088 1.786955
v -0.764999 0.678088 1.786955
v -1.240000 -4.028391 1.742578
v -0.764999 -3.798380 2.046762
v -1.414000 0.652941 1.353683
v -1.414000 -4.058131 1.627107
v -1.848000 0.526688 -0.821655
v -1.848000 -4.313168 -0.540758
v -1.848000 0.615338 0.705774
v -1.999999 0.571013 -0.057941
v -1.999999 -4.420588 0.231764
v -1.848000 -4.224518 0.986672
v 1.240001 -4.205806 -1.314278
v 0.765001 -4.012529 -1.643029
v 0.765001 0.463938 -1.902835
v 1.848001 0.615338 0.705774
v 1.848001 -4.224518 0.986672
v 0.000001 -3.687744 2.192597
v 0.000001 0.686894 1.938699
v 1.848001 -4.313168 -0.540758
v 2.000002 -4.420588 0.231764
v 16.000004 -4.420588 0.231765
v 16.000004 -4.205806 -1.314277
v 1.414001 -4.221988 -1.196142
v 1.240001 -4.205806 -1.314278
v 16.000004 -3.414413 -2.659391
v 0.765001 -4.012529 -1.643029
v 0.000001 -3.919507 -1.800683
v -6.456000 -3.414413 -2.659392
v -0.764999 -4.012529 -1.643029
v -6.247000 -4.205806 -1.314278
v -1.240000 -4.205806 -1.314278
v -1.414000 -4.221988 -1.196142
v -1.848000 -4.313168 -0.540758
v -1.999999 -4.420588 0.231764
v -6.247000 -4.027392 1.742520
v -1.848000 -4.224518 0.986672
v -1.414000 -4.058131 1.627107
v -1.240000 -4.028391 1.742578
v -6.456000 -3.086700 2.987107
v -0.764999 -3.798380 2.046762
v 0.000001 -3.687744 2.192597
v 16.000004 -3.086700 2.987107
v 0.765001 -3.798380 2.046762
v 16.000004 -4.028391 1.742579
v 1.240001 -4.028391 1.742578
v 1.414001 -4.058131 1.627108
v 1.848001 -4.224518 0.986672
v -13.000000 2.986565 -10.214961
v -13.000000 -4.999996 -9.751437
v -7.000000 -4.999996 -9.751437
v -7.000000 2.986565 -10.214961
v -7.000000 -3.841179 10.214960
v -13.000000 -3.841179 10.214960
v -13.000000 4.145382 9.751437
v -7.000000 4.145382 9.751437
v 16.000004 -2.674329 3.308937
v -6.565000 -3.087076 2.987529
v -6.565000 -2.674329 3.308936
v 16.000004 -2.223206 3.574003
v -6.565000 -2.223206 3.574003
v 16.000004 -1.741341 3.778072
v -6.565000 -1.741341 3.778071
v 16.000004 -1.236903 3.917085
v -6.565000 -1.236903 3.917084
v 16.000004 -0.718760 3.989573
v -6.565000 -0.718760 3.989573
v 16.000004 -0.195549 3.993205
v -6.565000 -0.195549 3.993204
v 16.000004 0.323730 3.929069
v -6.565000 0.323730 3.929068
v 16.000004 0.830009 3.797125
v -6.565000 0.830009 3.797123
v 16.000004 1.314978 3.600688
v -6.565000 1.314978 3.600688
v 16.000004 1.769999 3.342243
v -6.565000 1.769999 3.342242
v 16.000004 2.187428 3.026767
v -6.565000 2.187428 3.026767
v 16.000004 2.560221 2.659770
v -6.565000 2.560221 2.659769
v 16.000004 2.881629 2.247023
v -6.565000 2.881629 2.247023
v 16.000004 3.146694 1.795898
v -6.565000 3.146694 1.795898
v 16.000004 3.350763 1.314033
v -6.565000 3.350763 1.314033
v 16.000004 3.489777 0.809596
v -6.565000 3.489777 0.809595
v 16.000004 3.562264 0.291454
v -6.565000 3.562264 0.291453
v 16.000004 3.565896 -0.231758
v 16.000004 3.501760 -0.751037
v -6.565000 3.501760 -0.751038
v 16.000004 3.369817 -1.257315
v -6.565000 3.369817 -1.257316
v 16.000004 3.173380 -1.742284
v -6.565000 3.173380 -1.742285
v 16.000004 2.914936 -2.197305
v -6.565000 2.914936 -2.197306
v 16.000004 2.599460 -2.614735
v -6.565000 2.599460 -2.614735
v 16.000004 2.232461 -2.987527
v -6.565000 2.232461 -2.987529
v 16.000004 1.819715 -3.308934
v -6.565000 1.819715 -3.308935
v 16.000004 1.368590 -3.574002
v -6.565000 1.368590 -3.574002
v 16.000004 0.886725 -3.778069
v -6.565000 0.886725 -3.778070
v 16.000004 0.382288 -3.917083
v -6.565000 0.382288 -3.917084
v 16.000004 -0.135854 -3.989572
v -6.565000 -0.135854 -3.989572
v 16.000004 -0.659067 -3.993202
v -6.565000 -0.659067 -3.993203
v 16.000004 -1.178345 -3.929066
v -6.565000 -1.178345 -3.929067
v 16.000004 -1.684622 -3.797122
v -6.565000 -1.684622 -3.797123
v 16.000004 -2.169591 -3.600686
v -6.565000 -2.169591 -3.600687
v 16.000004 -2.624613 -3.342242
v -6.565000 -2.624613 -3.342242
v 16.000004 -3.042043 -3.026766
v -6.565000 -3.042043 -3.026767
v -6.565000 -3.414835 -2.659768
v 0.261001 0.685898 1.921529
v 0.000001 0.686894 1.938699
v 0.000001 0.571013 -0.057941
v 0.517601 0.682943 1.870615
v 0.765402 0.678076 1.786756
v 1.000002 0.671366 1.671149
v 1.217602 0.662953 1.526193
v 1.414202 0.652953 1.353884
v 1.586802 0.641562 1.157614
v 1.732002 0.628954 0.940380
v 1.847802 0.615361 0.706174
v 1.931802 0.601003 0.458790
v 1.982801 0.586135 0.202621
v 2.000002 0.571013 -0.057940
v 1.982801 0.555891 -0.318502
v 1.931802 0.541023 -0.574671
v 1.847802 0.526665 -0.822055
v 1.732002 0.513072 -1.056260
v 1.586802 0.500464 -1.273495
v 1.414202 0.489073 -1.469764
v 1.217602 0.479073 -1.642074
v 1.000002 0.470660 -1.787030
v 0.765402 0.463950 -1.902636
v 0.517601 0.459083 -1.986495
v 0.261001 0.456128 -2.037410
v 0.000001 0.455132 -2.054580
v -0.260998 0.456128 -2.037410
v -0.517599 0.459083 -1.986495
v -0.765399 0.463950 -1.902636
v -0.999999 0.470660 -1.787031
v -1.217598 0.479073 -1.642074
v -1.414199 0.489073 -1.469764
v -1.586799 0.500464 -1.273495
v -1.731999 0.513072 -1.056260
v -1.847799 0.526665 -0.822055
v -1.931799 0.541023 -0.574671
v -1.982799 0.555891 -0.318502
v -1.999999 0.571013 -0.057941
v -1.982799 0.586135 0.202621
v -1.931799 0.601003 0.458790
v -1.847799 0.615361 0.706174
v -1.731999 0.628954 0.940380
v -1.586799 0.641562 1.157614
v -1.414199 0.652953 1.353884
v -1.217598 0.662953 1.526193
v -0.999999 0.671366 1.671149
v -0.765399 0.678076 1.786756
v -0.517599 0.682943 1.870615
v -0.260998 0.685898 1.921529
v 16.261002 -0.197536 3.958940
v 16.274204 0.347531 3.885633
v 16.286604 0.884110 3.735091
v 16.296804 1.400620 3.507982
v 16.304203 1.885571 3.206578
v 16.000004 2.187683 3.027172
v 16.308004 2.325265 2.836479
v 16.308004 2.708564 2.405947
v 16.000004 2.882059 2.247229
v 16.304203 3.025310 1.926389
v 16.296804 3.268588 1.409825
v 16.286604 3.434419 0.870511
v 16.274204 3.521875 0.320119
v 16.261002 3.531631 -0.229770
v 16.517603 -0.203446 3.857111
v 16.546404 0.365384 3.765198
v 16.572205 0.927118 3.585549
v 16.592804 1.468064 3.316953
v 16.606005 1.970814 2.963229
v 16.610403 2.417837 2.533006
v 16.606005 2.793458 2.039212
v 16.592804 3.086645 1.498917
v 16.572205 3.290855 0.930530
v 16.546404 3.404313 0.351784
v 16.517603 3.429803 -0.223860
v 16.765404 -0.213181 3.689393
v 16.810804 0.374346 3.567545
v 16.850004 0.954528 3.346759
v 16.878603 1.508551 3.027322
v 16.893805 2.015104 2.614878
v 16.893805 2.452569 2.123506
v 16.878603 2.803641 1.572638
v 16.850004 3.056840 0.985382
v 16.810804 3.209025 0.383553
v 16.765404 3.262084 -0.214126
v 17.000000 -0.226600 3.458182
v 17.061600 0.373315 3.294347
v 17.111200 0.962111 3.021774
v 17.143400 1.516743 2.643802
v 17.154800 2.012233 2.171901
v 17.143400 2.423645 1.625144
v 17.111200 2.734914 1.030510
v 17.061600 2.937541 0.414134
v 17.000000 3.030873 -0.200707
v 17.217600 -0.243425 3.168270
v 17.291800 0.360970 2.950485
v 17.346800 0.947511 2.618341
v 17.375999 1.489789 2.179384
v 17.375999 1.959226 1.652099
v 17.346800 2.332502 1.062680
v 17.291800 2.594560 0.441653
v 17.217600 2.740962 -0.183880
v 17.414200 -0.263427 2.823650
v 17.495600 0.337354 2.543570
v 17.548599 0.911425 2.148443
v 17.567200 1.428754 1.652436
v 17.548599 1.861584 1.081198
v 17.495600 2.187644 0.465270
v 17.414200 2.396341 -0.163879
v 17.586800 -0.286210 2.431110
v 17.667599 0.303091 2.084383
v 17.710600 0.854800 1.628451
v 17.710600 1.338531 1.085109
v 17.667599 1.727577 0.484359
v 17.586800 2.003802 -0.141097
v 17.732000 -0.311426 1.996642
v 17.804001 0.259253 1.584483
v 17.829000 0.781478 1.076171
v 17.804001 1.225962 0.498647
v 17.732000 1.569333 -0.115881
v 17.847801 -0.338612 1.528230
v 17.902401 0.208248 1.057754
v 17.902401 0.696869 0.508920
v 17.847801 1.100921 -0.088695
v 17.931801 -0.367327 1.033462
v 17.962000 0.151947 0.515705
v 17.931801 0.606154 -0.059979
v 17.982800 -0.397062 0.521124
v 17.982800 0.093816 -0.030244
v 18.000000 -0.427307 0.000001
v 16.274204 3.458326 -0.774838
v 16.286604 3.307783 -1.311417
v 16.296804 3.080675 -1.827926
v 16.304203 2.779270 -2.312876
v 16.000004 2.599864 -2.614990
v 16.308004 2.409172 -2.752572
v 16.308004 1.978640 -3.135870
v 16.000004 1.819921 -3.309366
v 16.304203 1.499082 -3.452616
v 16.296804 0.982518 -3.695894
v 16.286604 0.443203 -3.861726
v 16.274204 -0.107189 -3.949182
v 16.261002 -0.657077 -3.958937
v 16.546404 3.337890 -0.792690
v 16.572205 3.158240 -1.354425
v 16.592804 2.889646 -1.895371
v 16.606005 2.535922 -2.398120
v 16.610403 2.105699 -2.845144
v 16.606005 1.611905 -3.220763
v 16.592804 1.071609 -3.513952
v 16.572205 0.503222 -3.718162
v 16.546404 -0.075523 -3.831620
v 16.517603 -0.651167 -3.857108
v 16.810804 3.140238 -0.801653
v 16.850004 2.919451 -1.381835
v 16.878603 2.600014 -1.935858
v 16.893805 2.187571 -2.442410
v 16.893805 1.696198 -2.879875
v 16.878603 1.145330 -3.230947
v 16.850004 0.558074 -3.484147
v 16.810804 -0.043756 -3.636332
v 16.765404 -0.641433 -3.689390
v 17.061600 2.867039 -0.800622
v 17.111200 2.594466 -1.389418
v 17.143400 2.216495 -1.944050
v 17.154800 1.744593 -2.439539
v 17.143400 1.197837 -2.850950
v 17.111200 0.603202 -3.162220
v 17.061600 -0.013174 -3.364847
v 17.000000 -0.628015 -3.458179
v 17.291800 2.523176 -0.788277
v 17.346800 2.191034 -1.374818
v 17.375999 1.752076 -1.917095
v 17.375999 1.224791 -2.386533
v 17.346800 0.635373 -2.759809
v 17.291800 0.014346 -3.021865
v 17.217600 -0.611188 -3.168267
v 17.495600 2.116261 -0.764660
v 17.548599 1.721135 -1.338730
v 17.567200 1.225127 -1.856061
v 17.548599 0.653889 -2.288890
v 17.495600 0.037962 -2.614950
v 17.414200 -0.591187 -2.823647
v 17.667599 1.657075 -0.730397
v 17.710600 1.201142 -1.282107
v 17.710600 0.657802 -1.765837
v 17.667599 0.057051 -2.154883
v 17.586800 -0.568405 -2.431108
v 17.804001 1.157175 -0.686559
v 17.829000 0.648863 -1.208784
v 17.804001 0.071339 -1.653268
v 17.732000 -0.543189 -1.996639
v 17.902401 0.630445 -0.635554
v 17.902401 0.081612 -1.124175
v 17.847801 -0.516003 -1.528227
v 17.962000 0.088397 -0.579253
v 17.931801 -0.487288 -1.033460
v 17.982800 -0.457552 -0.521122
v 16.274204 -1.202146 -3.885632
v 16.286604 -1.738724 -3.735089
v 16.296804 -2.255233 -3.507981
v 16.304203 -2.740184 -3.206576
v 16.000004 -3.042297 -3.027170
v 16.308004 -3.179879 -2.836478
v 16.308004 -3.563178 -2.405946
v 16.000004 -3.736673 -2.247227
v 16.304203 -3.879924 -1.926388
v 16.000004 -4.001369 -1.795932
v 16.296804 -4.123203 -1.409824
v 16.286604 -4.289033 -0.870510
v 16.000004 -4.344397 -0.809599
v 16.274204 -4.376490 -0.320118
v 16.000004 -4.416491 -0.291352
v 16.261002 -4.386245 0.229772
v 16.546404 -1.219997 -3.765195
v 16.572205 -1.781732 -3.585546
v 16.592804 -2.322678 -3.316952
v 16.606005 -2.825428 -2.963228
v 16.610403 -3.272451 -2.533004
v 16.606005 -3.648072 -2.039211
v 16.592804 -3.941259 -1.498916
v 16.572205 -4.145470 -0.930529
v 16.546404 -4.258927 -0.351782
v 16.517603 -4.284417 0.223862
v 16.810804 -1.228960 -3.567544
v 16.850004 -1.809142 -3.346756
v 16.878603 -2.363165 -3.027319
v 16.893805 -2.869719 -2.614876
v 16.893805 -3.307183 -2.123504
v 16.878603 -3.658255 -1.572637
v 16.850004 -3.911454 -0.985380
v 16.810804 -4.063640 -0.383551
v 16.765404 -4.116699 0.214128
v 17.061600 -1.227929 -3.294344
v 17.111200 -1.816725 -3.021771
v 17.143400 -2.371357 -2.643800
v 17.154800 -2.866847 -2.171898
v 17.143400 -3.278259 -1.625142
v 17.111200 -3.589528 -1.030508
v 17.061600 -3.792155 -0.414132
v 17.000000 -3.885488 0.200708
v 17.291800 -1.215585 -2.950482
v 17.346800 -1.802125 -2.618340
v 17.375999 -2.344403 -2.179382
v 17.375999 -2.813840 -1.652096
v 17.346800 -3.187116 -1.062678
v 17.291800 -3.449174 -0.441651
v 17.217600 -3.595576 0.183882
v 17.495600 -1.191968 -2.543567
v 17.548599 -1.766039 -2.148441
v 17.567200 -2.283369 -1.652433
v 17.548599 -2.716198 -1.081195
v 17.495600 -3.042259 -0.465268
v 17.414200 -3.250956 0.163881
v 17.667599 -1.157705 -2.084381
v 17.710600 -1.709415 -1.628448
v 17.710600 -2.193146 -1.085107
v 17.667599 -2.582191 -0.484357
v 17.586800 -2.858416 0.141099
v 17.804001 -1.113867 -1.584481
v 17.829000 -1.636092 -1.076169
v 17.804001 -2.080577 -0.498645
v 17.732000 -2.423947 0.115883
v 17.902401 -1.062862 -1.057751
v 17.902401 -1.551483 -0.508918
v 17.847801 -1.955535 0.088697
v 17.962000 -1.006561 -0.515703
v 17.931801 -1.460768 0.059981
v 17.982800 -0.948430 0.030246
v 16.000004 -4.356000 0.750895
v 16.274204 -4.312940 0.774840
v 16.000004 -4.224436 1.257323
v 16.286604 -4.162397 1.311419
v 16.296804 -3.935289 1.827928
v 16.000004 -3.769606 2.197349
v 16.304203 -3.633884 2.312879
v 16.000004 -3.454478 2.614991
v 16.308004 -3.263786 2.752574
v 16.308004 -2.833255 3.135872
v 16.000004 -2.674535 3.309367
v 16.304203 -2.353696 3.452618
v 16.296804 -1.837133 3.695897
v 16.286604 -1.297818 3.861727
v 16.274204 -0.747426 3.949184
v 16.546404 -4.192503 0.792692
v 16.572205 -4.012855 1.354427
v 16.592804 -3.744260 1.895373
v 16.606005 -3.390536 2.398122
v 16.610403 -2.960313 2.845146
v 16.606005 -2.466520 3.220766
v 16.592804 -1.926224 3.513953
v 16.572205 -1.357837 3.718164
v 16.546404 -0.779090 3.831621
v 16.810804 -3.994852 0.801655
v 16.850004 -3.774065 1.381837
v 16.878603 -3.454628 1.935859
v 16.893805 -3.042185 2.442413
v 16.893805 -2.550812 2.879877
v 16.878603 -1.999946 3.230949
v 16.850004 -1.412688 3.484149
v 16.810804 -0.810860 3.636334
v 17.061600 -3.721653 0.800624
v 17.111200 -3.449080 1.389420
v 17.143400 -3.071109 1.944052
v 17.154800 -2.599207 2.439542
v 17.143400 -2.052451 2.850953
v 17.111200 -1.457817 3.162223
v 17.061600 -0.841441 3.364850
v 17.291800 -3.377791 0.788279
v 17.346800 -3.045648 1.374820
v 17.375999 -2.606690 1.917097
v 17.375999 -2.079405 2.386535
v 17.346800 -1.489987 2.759810
v 17.291800 -0.868960 3.021868
v 17.495600 -2.970876 0.764662
v 17.548599 -2.575749 1.338733
v 17.567200 -2.079742 1.856063
v 17.548599 -1.508503 2.288892
v 17.495600 -0.892577 2.614953
v 17.667599 -2.511689 0.730399
v 17.710600 -2.055757 1.282109
v 17.710600 -1.512416 1.765840
v 17.667599 -0.911665 2.154886
v 17.804001 -2.011789 0.686561
v 17.829000 -1.503477 1.208786
v 17.804001 -0.925953 1.653271
v 17.902401 -1.485060 0.635556
v 17.902401 -0.936226 1.124177
v 17.962000 -0.943011 0.579255
vn -0.5067 -0.0501 -0.8607
vn -0.5457 -0.0489 -0.8365
vn -0.5454 -0.0489 -0.8368
vn -0.5061 -0.0500 -0.8610
vn -0.6009 -0.0468 -0.7980
vn -0.6263 -0.0456 -0.7782
vn -0.6770 -0.0431 -0.7348
vn -0.6985 -0.0419 -0.7144
vn -0.7516 -0.0388 -0.6585
vn -0.8063 -0.0348 -0.5905
vn -0.9045 -0.0253 -0.4256
vn -0.9048 -0.0252 -0.4250
vn -0.7985 0.0347 0.6010
vn -0.7969 0.0350 0.6031
vn -0.7984 0.0347 0.6011
vn -0.8000 0.0344 0.5990
vn 0.0504 0.0579 0.9971
vn 0.1308 0.0574 0.9897
vn -0.0000 0.0579 0.9983
vn 0.2747 0.0557 0.9599
vn -0.2607 0.0559 0.9638
vn -0.7288 0.0397 0.6835
vn -0.7672 0.0372 0.6403
vn -0.7071 0.0410 0.7059
vn -0.8506 0.0305 0.5249
vn -0.2600 0.0559 0.9640
vn -0.1240 0.0575 0.9906
vn -0.4008 0.0531 0.9146
vn -0.5300 0.0491 0.8466
vn -0.9965 0.0048 0.0829
vn -1.0000 -0.0000 -0.0000
vn -0.0000 -0.9983 0.0579
vn -0.0001 -0.9983 0.0579
vn -0.0002 -0.9983 0.0580
vn -0.0003 -0.9983 0.0577
vn -0.0000 -0.9983 0.0575
vn -0.0001 -0.9983 0.0575
vn 0.0001 -0.9984 0.0574
vn -0.0000 -0.9983 0.0578
vn -0.0000 0.9983 -0.0579
vn -0.0000 0.9969 -0.0791
vn 0.0001 0.9983 -0.0579
vn 0.0005 0.9983 -0.0581
vn 0.0003 0.9983 -0.0577
vn -0.0000 0.9983 -0.0575
vn 0.0001 0.9983 -0.0575
vn -0.0001 0.9984 -0.0574
vn -0.0000 0.9983 -0.0578
vn 0.9982 -0.0034 -0.0594
vn 1.0000 -0.0000 -0.0000
vn 0.9943 -0.0062 -0.1063
vn 0.9943 -0.0061 -0.1063
vn 1.0000 -0.0002 -0.0000
vn 0.9872 -0.0090 -0.1590
vn 0.9872 -0.0093 -0.1590
vn 0.9872 -0.0095 -0.1590
vn 0.9872 -0.0091 -0.1590
vn 1.0000 0.0003 0.0002
vn 0.9872 -0.0092 -0.1590
vn 0.9873 -0.0092 -0.1588
vn 0.6585 -0.0443 -0.7513
vn 0.6585 -0.0440 -0.7513
vn 0.6585 -0.0436 -0.7513
vn 0.6585 -0.0437 -0.7513
vn 0.6585 -0.0429 -0.7514
vn -0.5067 0.0498 0.8607
vn -0.5061 0.0500 0.8610
vn -0.5454 0.0483 0.8368
vn -0.5457 0.0482 0.8366
vn -0.6009 0.0459 0.7980
vn -0.6263 0.0447 0.7783
vn -0.6770 0.0422 0.7348
vn -0.6985 0.0410 0.7145
vn -0.7516 0.0377 0.6585
vn -0.8063 0.0337 0.5906
vn -0.9046 0.0241 0.4256
vn -0.9048 0.0242 0.4251
vn -0.7985 -0.0350 -0.6010
vn -0.8000 -0.0351 -0.5990
vn -0.7969 -0.0350 -0.6031
vn 0.0504 -0.0579 -0.9971
vn -0.0000 -0.0579 -0.9983
vn 0.1308 -0.0574 -0.9897
vn 0.2747 -0.0557 -0.9599
vn -0.2607 -0.0559 -0.9638
vn -0.7288 -0.0397 -0.6835
vn -0.7071 -0.0410 -0.7059
vn -0.7672 -0.0372 -0.6403
vn -0.8506 -0.0305 -0.5249
vn -0.2600 -0.0559 -0.9640
vn -0.4008 -0.0531 -0.9146
vn -0.1240 -0.0575 -0.9906
vn -0.5300 -0.0491 -0.8466
vn -0.9965 -0.0048 -0.0829
vn -0.0001 -0.9983 0.0580
vn -0.0005 -0.9983 0.0578
vn -0.0003 -0.9983 0.0582
vn -0.0000 -0.9983 0.0584
vn -0.0001 -0.9983 0.0584
vn 0.0001 -0.9983 0.0585
vn -0.0000 -0.9983 0.0581
vn 0.0001 0.9983 -0.0580
vn 0.0005 0.9983 -0.0578
vn 0.0006 0.9983 -0.0580
vn -0.0000 0.9983 -0.0584
vn 0.0001 0.9983 -0.0584
vn -0.0001 0.9983 -0.0585
vn -0.0000 0.9983 -0.0581
vn 0.9982 0.0034 0.0594
vn 0.9943 0.0061 0.1063
vn 0.9943 0.0062 0.1063
vn 1.0000 -0.0002 0.0001
vn 0.9872 0.0091 0.1590
vn 0.9872 0.0092 0.1590
vn 0.9872 0.0089 0.1591
vn 1.0000 0.0002 0.0003
vn 0.9872 0.0094 0.1590
vn 0.9872 0.0093 0.1590
vn 0.9872 0.0095 0.1590
vn 0.6585 0.0433 0.7513
vn 0.6585 0.0429 0.7514
vn 0.6585 0.0436 0.7513
vn 0.6585 0.0440 0.7513
vn 0.6585 0.0443 0.7513
vn 0.8055 0.0343 0.5915
vn 0.5560 0.0481 0.8298
vn 0.6603 0.0435 0.7498
vn 0.4335 0.0522 0.8996
vn 0.3218 0.0549 0.9452
vn 0.0671 0.0578 0.9961
vn -0.0671 0.0578 0.9961
vn -0.8970 0.0256 0.4414
vn -0.9476 0.0185 0.3190
vn -0.7530 0.0381 0.6569
vn -0.6908 0.0418 0.7218
vn -0.6603 -0.0435 -0.7498
vn -0.8055 -0.0343 -0.5916
vn -0.5560 -0.0483 -0.8298
vn -0.4335 -0.0523 -0.8996
vn -0.3218 -0.0549 -0.9452
vn 0.2967 -0.0553 -0.9534
vn 0.5560 -0.0483 -0.8298
vn 0.4456 -0.0519 -0.8937
vn 0.6908 -0.0419 -0.7218
vn 0.7530 -0.0381 -0.6569
vn 0.9249 0.0220 0.3795
vn 0.9238 0.0222 0.3822
vn 0.9476 -0.0185 -0.3190
vn 0.8970 -0.0256 -0.4414
vn -0.4456 0.0519 0.8937
vn -0.2967 0.0553 0.9534
vn -0.5560 0.0480 0.8298
vn -0.9249 -0.0220 -0.3795
vn -0.9238 -0.0222 -0.3822
vn -0.0671 -0.0578 -0.9961
vn 0.0671 -0.0578 -0.9961
vn 0.0006 -0.9983 0.0579
vn -0.0000 -0.9905 -0.1378
vn 0.0012 -0.9559 -0.2936
vn -0.0000 -0.9905 -0.1375
vn -0.0000 -0.8728 -0.4881
vn -0.0000 -0.8617 -0.5074
vn 0.0009 -0.8195 -0.5730
vn -0.0000 -0.8619 -0.5072
vn -0.0000 -0.8619 -0.5071
vn 0.0001 -0.8616 -0.5075
vn -0.0000 -0.8723 -0.4891
vn -0.0000 -0.9537 -0.3008
vn -0.0000 -0.9905 -0.1374
vn -0.0000 -0.9905 -0.1377
vn -0.0000 -0.9983 0.0582
vn -0.0001 -0.9679 0.2515
vn -0.0001 -0.9125 0.4090
vn -0.0002 -0.9679 0.2512
vn -0.0001 -0.8101 0.5864
vn 0.0001 -0.7971 0.6038
vn -0.0001 -0.7977 0.6030
vn -0.0000 -0.7974 0.6035
vn 0.0011 -0.7685 0.6398
vn -0.0000 -0.7973 0.6036
vn -0.0000 -0.8105 0.5858
vn 0.0012 -0.9155 0.4023
vn -0.0000 -0.9680 0.2511
vn -0.0000 -0.9679 0.2514
vn -0.0000 -0.6148 0.7887
vn -0.0000 -0.5798 0.8147
vn -0.0000 -0.5435 0.8394
vn 0.0020 -0.4682 0.8836
vn -0.0000 -0.4297 0.9030
vn 0.0019 -0.3488 0.9372
vn -0.0000 -0.3077 0.9515
vn 0.0018 -0.2232 0.9748
vn -0.0000 -0.1813 0.9834
vn 0.0016 -0.0944 0.9955
vn -0.0000 -0.0509 0.9987
vn 0.0010 0.0365 0.9993
vn -0.0000 0.0795 0.9968
vn 0.0017 0.1661 0.9861
vn -0.0000 0.2094 0.9778
vn 0.0018 0.2939 0.9558
vn -0.0000 0.3350 0.9422
vn 0.0019 0.4158 0.9094
vn -0.0000 0.4553 0.8904
vn 0.0020 0.5314 0.8471
vn -0.0000 0.5676 0.8233
vn -0.0000 0.6370 0.7708
vn -0.0000 0.6699 0.7424
vn 0.0021 0.7323 0.6810
vn -0.0000 0.7613 0.6484
vn -0.0000 0.8149 0.5795
vn -0.0000 0.8394 0.5436
vn 0.0020 0.8836 0.4682
vn -0.0000 0.9030 0.4297
vn 0.0019 0.9372 0.3488
vn -0.0000 0.9515 0.3077
vn 0.0018 0.9748 0.2232
vn -0.0000 0.9834 0.1813
vn 0.0016 0.9955 0.0944
vn -0.0000 0.9987 0.0509
vn 0.0010 0.9993 -0.0364
vn 0.0017 0.9861 -0.1662
vn -0.0000 0.9778 -0.2094
vn 0.0018 0.9558 -0.2939
vn -0.0000 0.9422 -0.3350
vn 0.0019 0.9094 -0.4158
vn -0.0000 0.8904 -0.4553
vn 0.0020 0.8471 -0.5314
vn -0.0000 0.8233 -0.5676
vn -0.0000 0.7709 -0.6370
vn -0.0000 0.7424 -0.6699
vn 0.0021 0.6809 -0.7323
vn -0.0000 0.6484 -0.7613
vn -0.0000 0.5795 -0.8149
vn -0.0000 0.5435 -0.8394
vn 0.0020 0.4682 -0.8836
vn -0.0000 0.4297 -0.9030
vn 0.0019 0.3488 -0.9372
vn -0.0000 0.3077 -0.9515
vn 0.0018 0.2232 -0.9748
vn -0.0000 0.1813 -0.9834
vn 0.0016 0.0944 -0.9955
vn -0.0000 0.0509 -0.9987
vn 0.0010 -0.0365 -0.9993
vn -0.0000 -0.0795 -0.9968
vn 0.0016 -0.1661 -0.9861
vn -0.0000 -0.2094 -0.9778
vn 0.0018 -0.2939 -0.9558
vn -0.0000 -0.3350 -0.9422
vn 0.0019 -0.4158 -0.9094
vn -0.0000 -0.4553 -0.8904
vn 0.0020 -0.5314 -0.8471
vn -0.0000 -0.5676 -0.8233
vn -0.0000 -0.6373 -0.7706
vn -0.0000 -0.6702 -0.7422
vn -0.0000 -0.7015 -0.7126
vn 0.2189 0.0565 0.9741
vn 0.2687 0.1893 0.9445
vn 0.2813 0.3184 0.9052
vn 0.2923 0.4423 0.8479
vn 0.3004 0.5579 0.7736
vn 0.1470 0.6430 0.7516
vn 0.3046 0.6634 0.6834
vn 0.3046 0.7556 0.5799
vn 0.1470 0.8210 0.5517
vn 0.3004 0.8330 0.4647
vn 0.2923 0.8934 0.3412
vn 0.2813 0.9360 0.2115
vn 0.2687 0.9600 0.0787
vn 0.2189 0.9741 -0.0565
vn 0.4473 0.0518 0.8929
vn 0.4945 0.1806 0.8502
vn 0.5146 0.3043 0.8016
vn 0.5302 0.4214 0.7357
vn 0.5403 0.5297 0.6538
vn 0.5438 0.6268 0.5581
vn 0.5403 0.7107 0.4505
vn 0.5302 0.7796 0.3335
vn 0.5146 0.8315 0.2095
vn 0.4945 0.8654 0.0811
vn 0.4473 0.8929 -0.0518
vn 0.6236 0.0453 0.7805
vn 0.6637 0.1662 0.7293
vn 0.6851 0.2797 0.6726
vn 0.7004 0.3856 0.6006
vn 0.7080 0.4823 0.5159
vn 0.7080 0.5682 0.4194
vn 0.7004 0.6412 0.3136
vn 0.6851 0.7004 0.2000
vn 0.6637 0.7436 0.0807
vn 0.6236 0.7805 -0.0453
vn 0.7488 0.0384 0.6617
vn 0.7812 0.1499 0.6060
vn 0.8006 0.2522 0.5436
vn 0.8124 0.3462 0.4691
vn 0.8165 0.4312 0.3839
vn 0.8124 0.5060 0.2896
vn 0.8006 0.5691 0.1876
vn 0.7812 0.6193 0.0788
vn 0.7488 0.6617 -0.0384
vn 0.8355 0.0318 0.5485
vn 0.8607 0.1339 0.4912
vn 0.8762 0.2258 0.4258
vn 0.8841 0.3091 0.3504
vn 0.8841 0.3838 0.2665
vn 0.8762 0.4490 0.1750
vn 0.8607 0.5034 0.0762
vn 0.8355 0.5485 -0.0318
vn 0.8944 0.0259 0.4465
vn 0.9137 0.1192 0.3885
vn 0.9253 0.2018 0.3212
vn 0.9290 0.2763 0.2460
vn 0.9253 0.3424 0.1633
vn 0.9137 0.3997 0.0735
vn 0.8944 0.4465 -0.0259
vn 0.9348 0.0206 0.3545
vn 0.9491 0.1059 0.2965
vn 0.9567 0.1807 0.2283
vn 0.9567 0.2476 0.1530
vn 0.9491 0.3067 0.0709
vn 0.9348 0.3545 -0.0206
vn 0.9624 0.0157 0.2714
vn 0.9724 0.0940 0.2137
vn 0.9761 0.1623 0.1445
vn 0.9724 0.2232 0.0686
vn 0.9624 0.2714 -0.0157
vn 0.9807 0.0113 0.1953
vn 0.9869 0.0832 0.1380
vn 0.9870 0.1462 0.0669
vn 0.9807 0.1953 -0.0113
vn 0.9923 0.0072 0.1239
vn 0.9951 0.0739 0.0658
vn 0.9923 0.1239 -0.0072
vn 0.9984 0.0032 0.0558
vn 0.9984 0.0558 -0.0032
vn 0.2687 0.9445 -0.1893
vn 0.2813 0.9052 -0.3184
vn 0.2923 0.8479 -0.4423
vn 0.3004 0.7736 -0.5579
vn 0.1470 0.7516 -0.6430
vn 0.3046 0.6835 -0.6634
vn 0.0021 0.6810 -0.7323
vn 0.3046 0.5799 -0.7556
vn 0.1470 0.5517 -0.8210
vn 0.3004 0.4647 -0.8330
vn 0.2923 0.3412 -0.8934
vn 0.2813 0.2115 -0.9360
vn 0.2687 0.0787 -0.9600
vn 0.2189 -0.0565 -0.9741
vn 0.4946 0.8502 -0.1806
vn 0.5146 0.8016 -0.3043
vn 0.5302 0.7357 -0.4214
vn 0.5403 0.6538 -0.5297
vn 0.5438 0.5581 -0.6268
vn 0.5403 0.4505 -0.7107
vn 0.5302 0.3335 -0.7796
vn 0.5146 0.2095 -0.8315
vn 0.4946 0.0811 -0.8654
vn 0.4473 -0.0518 -0.8929
vn 0.6637 0.7293 -0.1662
vn 0.6852 0.6726 -0.2797
vn 0.7004 0.6006 -0.3857
vn 0.7080 0.5159 -0.4823
vn 0.7080 0.4194 -0.5682
vn 0.7004 0.3136 -0.6412
vn 0.6852 0.2000 -0.7004
vn 0.6637 0.0807 -0.7436
vn 0.6236 -0.0453 -0.7805
vn 0.7812 0.6060 -0.1499
vn 0.8006 0.5435 -0.2522
vn 0.8124 0.4691 -0.3462
vn 0.8165 0.3839 -0.4312
vn 0.8124 0.2896 -0.5060
vn 0.8006 0.1876 -0.5691
vn 0.7812 0.0788 -0.6193
vn 0.7488 -0.0384 -0.6617
vn 0.8607 0.4912 -0.1339
vn 0.8762 0.4258 -0.2258
vn 0.8841 0.3504 -0.3091
vn 0.8841 0.2665 -0.3838
vn 0.8762 0.1750 -0.4490
vn 0.8607 0.0762 -0.5034
vn 0.8355 -0.0318 -0.5485
vn 0.9137 0.3885 -0.1192
vn 0.9253 0.3211 -0.2018
vn 0.9290 0.2460 -0.2763
vn 0.9253 0.1633 -0.3424
vn 0.9137 0.0735 -0.3997
vn 0.8944 -0.0259 -0.4465
vn 0.9491 0.2965 -0.1059
vn 0.9567 0.2284 -0.1807
vn 0.9567 0.1530 -0.2476
vn 0.9491 0.0709 -0.3067
vn 0.9348 -0.0206 -0.3545
vn 0.9724 0.2137 -0.0940
vn 0.9761 0.1444 -0.1622
vn 0.9724 0.0687 -0.2232
vn 0.9624 -0.0157 -0.2714
vn 0.9870 0.1375 -0.0834
vn 0.9869 0.0667 -0.1467
vn 0.9807 -0.0113 -0.1953
vn 0.9951 0.0658 -0.0739
vn 0.9923 -0.0072 -0.1239
vn 0.9984 -0.0032 -0.0558
vn 0.2687 -0.1893 -0.9445
vn 0.2813 -0.3184 -0.9052
vn 0.2923 -0.4423 -0.8479
vn 0.3004 -0.5579 -0.7736
vn 0.1468 -0.6433 -0.7514
vn 0.3042 -0.6636 -0.6834
vn 0.0010 -0.8195 -0.5730
vn 0.3042 -0.7556 -0.5801
vn 0.1468 -0.8208 -0.5521
vn 0.3004 -0.8330 -0.4647
vn 0.1456 -0.8880 -0.4361
vn 0.2928 -0.8932 -0.3413
vn 0.2816 -0.9360 -0.2114
vn 0.1388 -0.9731 -0.1839
vn 0.2683 -0.9601 -0.0786
vn 0.1345 -0.9895 -0.0530
vn 0.2185 -0.9742 0.0565
vn 0.4945 -0.1806 -0.8502
vn 0.5146 -0.3043 -0.8016
vn 0.5302 -0.4214 -0.7357
vn 0.5403 -0.5297 -0.6538
vn 0.5438 -0.6268 -0.5581
vn 0.5403 -0.7107 -0.4505
vn 0.5302 -0.7796 -0.3335
vn 0.5146 -0.8314 -0.2095
vn 0.4945 -0.8654 -0.0811
vn 0.4473 -0.8929 0.0518
vn 0.6637 -0.1662 -0.7293
vn 0.6851 -0.2797 -0.6726
vn 0.7004 -0.3857 -0.6006
vn 0.7080 -0.4823 -0.5159
vn 0.7080 -0.5682 -0.4194
vn 0.7004 -0.6412 -0.3136
vn 0.6851 -0.7004 -0.2000
vn 0.6637 -0.7436 -0.0807
vn 0.6236 -0.7805 0.0453
vn 0.7812 -0.1499 -0.6060
vn 0.8006 -0.2522 -0.5435
vn 0.8124 -0.3462 -0.4691
vn 0.8165 -0.4312 -0.3839
vn 0.8124 -0.5060 -0.2896
vn 0.8006 -0.5691 -0.1876
vn 0.7812 -0.6193 -0.0788
vn 0.7488 -0.6617 0.0384
vn 0.8607 -0.1339 -0.4912
vn 0.8762 -0.2258 -0.4258
vn 0.8841 -0.3091 -0.3504
vn 0.8841 -0.3838 -0.2665
vn 0.8762 -0.4490 -0.1750
vn 0.8607 -0.5034 -0.0762
vn 0.8355 -0.5485 0.0318
vn 0.9137 -0.1192 -0.3885
vn 0.9253 -0.2018 -0.3212
vn 0.9290 -0.2763 -0.2460
vn 0.9252 -0.3424 -0.1633
vn 0.9137 -0.3997 -0.0735
vn 0.8944 -0.4465 0.0259
vn 0.9491 -0.1059 -0.2965
vn 0.9567 -0.1806 -0.2282
vn 0.9567 -0.2477 -0.1530
vn 0.9491 -0.3068 -0.0709
vn 0.9348 -0.3545 0.0206
vn 0.9723 -0.0940 -0.2138
vn 0.9761 -0.1623 -0.1445
vn 0.9723 -0.2232 -0.0686
vn 0.9624 -0.2714 0.0157
vn 0.9870 -0.0833 -0.1377
vn 0.9870 -0.1462 -0.0669
vn 0.9807 -0.1953 0.0113
vn 0.9951 -0.0739 -0.0658
vn 0.9923 -0.1239 0.0072
vn 0.9984 -0.0558 0.0032
vn 0.1345 -0.9767 0.1671
vn 0.2682 -0.9446 0.1892
vn 0.1388 -0.9453 0.2953
vn 0.2816 -0.9052 0.3182
vn 0.2928 -0.8477 0.4423
vn 0.1455 -0.8317 0.5359
vn 0.3004 -0.7736 0.5579
vn 0.1468 -0.7514 0.6433
vn 0.3042 -0.6834 0.6636
vn 0.3042 -0.5801 0.7556
vn 0.1468 -0.5521 0.8208
vn 0.3004 -0.4647 0.8330
vn 0.2923 -0.3412 0.8934
vn 0.2813 -0.2115 0.9360
vn 0.2687 -0.0787 0.9600
vn 0.4945 -0.8502 0.1806
vn 0.5146 -0.8016 0.3043
vn 0.5302 -0.7357 0.4214
vn 0.5403 -0.6538 0.5297
vn 0.5438 -0.5581 0.6268
vn 0.5403 -0.4505 0.7107
vn 0.5302 -0.3335 0.7795
vn 0.5146 -0.2095 0.8315
vn 0.4945 -0.0811 0.8654
vn 0.6637 -0.7293 0.1662
vn 0.6851 -0.6726 0.2797
vn 0.7004 -0.6006 0.3856
vn 0.7080 -0.5159 0.4823
vn 0.7080 -0.4194 0.5682
vn 0.7004 -0.3136 0.6412
vn 0.6852 -0.2000 0.7004
vn 0.6637 -0.0807 0.7436
vn 0.7812 -0.6060 0.1499
vn 0.8006 -0.5436 0.2522
vn 0.8124 -0.4691 0.3462
vn 0.8165 -0.3839 0.4312
vn 0.8124 -0.2896 0.5060
vn 0.8006 -0.1876 0.5691
vn 0.7812 -0.0788 0.6193
vn 0.8607 -0.4912 0.1339
vn 0.8762 -0.4258 0.2258
vn 0.8841 -0.3504 0.3091
vn 0.8841 -0.2665 0.3838
vn 0.8762 -0.1750 0.4490
vn 0.8607 -0.0762 0.5034
vn 0.9137 -0.3885 0.1192
vn 0.9253 -0.3212 0.2018
vn 0.9290 -0.2460 0.2763
vn 0.9252 -0.1633 0.3424
vn 0.9137 -0.0735 0.3997
vn 0.9491 -0.2965 0.1059
vn 0.9567 -0.2283 0.1806
vn 0.9567 -0.1530 0.2476
vn 0.9491 -0.0709 0.3067
vn 0.9724 -0.2137 0.0940
vn 0.9761 -0.1444 0.1622
vn 0.9724 -0.0687 0.2232
vn 0.9870 -0.1377 0.0833
vn 0.9870 -0.0669 0.1462
vn 0.9951 -0.0658 0.0739
vt 4.000000 -6.000000
vt 2.211000 -4.950000
vt -5.793000 -12.951000
vt -4.000000 -14.000000
vt 0.216000 -3.539000
vt -7.789000 -11.540000
vt -1.380000 -2.159000
vt -9.384000 -10.160000
vt -2.956000 -0.529000
vt -10.961000 -8.530000
vt -3.300000 0.200000
vt -11.304000 -7.801000
vt -10.400000 0.600000
vt -10.400000 -7.400000
vt -11.105000 -7.801000
vt -11.100000 0.200000
vt -5.500000 0.600000
vt -5.500000 -7.400000
vt -4.000000 0.000000
vt -4.000000 -8.000000
vt -1.460000 0.540000
vt -1.460000 -7.460000
vt 1.460000 2.000000
vt 1.460000 -6.000000
vt 2.350000 2.550000
vt 2.350000 -5.450000
vt 3.500000 2.900000
vt 3.500000 -5.100000
vt 4.500000 2.900000
vt 4.500000 -5.100000
vt 5.800000 3.400000
vt 5.800000 -4.600000
vt 10.450000 6.450000
vt 2.450000 6.450000
vt 11.000000 4.000000
vt 10.450000 4.000000
vt 10.400000 3.400000
vt 10.000000 -2.200000
vt 9.600000 2.900000
vt 8.600000 2.900000
vt 7.800000 2.550000
vt 7.460000 2.000000
vt 6.000000 0.540000
vt 10.000000 -6.000000
vt 4.000000 0.000000
vt 1.900000 0.600000
vt -3.000000 0.600000
vt 2.400000 -4.600000
vt 2.435000 -4.000000
vt 3.000000 -4.000000
vt 2.000000 -10.200000
vt 1.600000 -5.100000
vt -0.200000 -5.450000
vt 0.600000 -5.100000
vt -0.540000 -6.000000
vt -2.000000 -7.460000
vt 2.000000 -14.000000
vt -5.789000 -12.950000
vt -11.319000 -11.539000
vt -11.537000 -10.159000
vt -11.485000 -8.528999
vt -11.000000 -7.400000
vt -11.300000 -7.800000
vt -0.200000 -8.000000
vt 4.200000 -1.000000
vt 2.000000 -4.000000
vt -0.200000 -10.200000
vt 7.800000 -1.000000
vt 10.000000 -4.000000
vt -0.200000 -4.400000
vt -0.200000 -2.200000
vt 7.000000 -4.000000
vt 5.222000 -5.227000
vt 3.716000 -5.656000
vt 2.935000 -5.300000
vt 5.222000 2.165000
vt 3.716000 0.000000
vt 2.935000 -1.700000
vt 4.200000 -8.000000
vt 4.635000 -5.300000
vt 8.181999 -5.316000
vt 4.200000 -8.800000
vt 7.800000 -4.400000
vt 7.800000 -5.200000
vt 11.782000 -1.716000
vt 8.235000 -1.700000
vt 6.466000 -5.316000
vt 6.080000 -5.227000
vt -1.000000 -8.800000
vt 5.429000 -4.000000
vt 6.080000 -2.165000
vt -1.000000 -5.200000
vt 6.466000 -1.716000
vt 2.450000 -4.000000
vt 10.000000 14.000000
vt 10.000000 6.000000
vt 7.158000 4.947000
vt 7.161000 12.946000
vt 3.755000 11.535000
vt 3.751000 3.536000
vt 0.779000 10.157000
vt 0.776000 2.158000
vt -2.427000 8.528999
vt -2.431000 0.530000
vt -3.500000 7.800000
vt -3.503000 -0.199000
vt -3.000000 7.400000
vt -3.300000 7.800000
vt -11.304000 -0.199000
vt -11.000000 -0.600000
vt 1.300000 7.400000
vt -3.600000 7.400000
vt -3.600000 -0.600000
vt 1.300000 -0.600000
vt 4.000000 8.000000
vt 6.000000 7.460000
vt -2.000000 -0.540000
vt 7.460000 6.000000
vt -0.540000 -2.000000
vt 7.800000 5.450000
vt -0.200000 -2.550000
vt 8.600000 5.100000
vt 0.600000 -2.900000
vt 6.700000 5.100000
vt 6.700000 -2.900000
vt 10.400000 4.600000
vt 9.600000 5.100000
vt 1.600000 -2.900000
vt 2.400000 -3.400000
vt 10.000000 10.200000
vt 4.000000 14.000000
vt 2.211000 12.946000
vt 0.216000 11.535000
vt 1.900000 7.400000
vt -1.380000 10.157000
vt -2.956000 8.528999
vt 2.000000 2.200000
vt 2.000000 6.000000
vt -4.000000 6.000000
vt -5.789000 4.946000
vt -7.783999 3.535000
vt -6.100000 -0.600000
vt -9.379999 2.157000
vt -10.956000 0.529000
vt -11.300000 -0.200000
vt 4.200000 4.400000
vt 2.000000 16.000000
vt 4.200000 13.000000
vt 10.000000 16.000000
vt 7.800000 13.000000
vt 7.800000 8.000000
vt 3.057000 -2.165000
vt 4.635000 1.700000
vt 10.448000 5.226000
vt 9.372000 5.656000
vt 8.235000 5.300000
vt 4.200000 5.200000
vt 8.181999 1.716000
vt 11.782000 5.316000
vt 7.800000 8.800000
vt 13.472000 2.165000
vt 13.498000 1.716000
vt 13.000000 5.200000
vt 13.429000 4.000000
vt 13.000000 8.800000
vt 13.472000 5.227000
vt 13.498000 5.316000
vt 15.305000 2.305000
vt 10.229000 2.165000
vt 10.172000 -2.414000
vt 10.387000 1.636000
vt 10.387000 -2.848000
vt 11.000000 1.382000
vt 11.000000 -3.000000
vt 14.083000 3.083000
vt 14.083000 -1.765000
vt 13.000000 -2.414000
vt 13.000000 2.305000
vt 15.000000 4.000000
vt 14.000000 15.000000
vt 13.414000 0.414000
vt 18.132999 5.133000
vt 17.936001 5.227000
vt 17.249001 5.332000
vt 12.765000 0.848000
vt 14.083000 5.332000
vt 13.291000 5.227000
vt 14.083000 0.848000
vt 13.000000 5.133000
vt 13.000000 0.414000
vt 10.152000 -1.765000
vt 15.000000 3.083000
vt 10.000000 11.000000
vt 11.917000 -0.235000
vt 11.917000 4.613000
vt 11.917000 -2.848000
vt 11.917000 1.636000
vt 12.709000 2.165000
vt 13.848000 -0.235000
vt 18.695999 4.613000
vt 16.382000 5.382000
vt 15.000000 1.000000
vt 33.000000 4.000000
vt 19.000000 4.000000
vt 18.695999 3.083000
vt 32.695999 2.165000
vt 18.132999 2.305000
vt 17.936001 2.165000
vt 17.249001 1.636000
vt 31.827999 0.000000
vt 16.382000 1.382000
vt 9.372000 0.000000
vt 15.719000 1.636000
vt 15.456000 2.165000
vt 10.449000 2.165000
vt 15.000000 4.613000
vt 15.305000 5.133000
vt 15.456000 5.227000
vt 15.719000 5.332000
vt 31.827999 5.656000
vt 32.695999 5.227000
vt -4.000000 -6.000000
vt -10.000000 -6.000000
vt -10.000000 -14.000000
vt 16.000000 14.000000
vt 16.000000 6.000000
vt 9.263400 5.656800
vt 32.173180 5.608151
vt 9.608182 5.608151
vt 32.463940 5.463903
vt 9.898941 5.463903
vt 32.695591 5.226317
vt 10.130590 5.226317
vt 32.863590 4.898788
vt 10.298590 4.898788
vt 32.965981 4.488105
vt 10.400980 4.488105
vt 32.999920 3.999923
vt 10.434920 3.999923
vt 32.965981 3.443860
vt 10.400980 3.443860
vt 32.863590 2.828400
vt 10.298590 2.828400
vt 32.695591 2.164857
vt 10.130590 2.164857
vt 32.463940 1.463980
vt 9.898941 1.463980
vt 32.173180 0.738213
vt 9.608182 0.738213
vt 31.828400 0.000000
vt 9.263400 0.000000
vt 31.434971 -0.738213
vt 8.869969 -0.738213
vt 30.999960 -1.463980
vt 8.434961 -1.463980
vt 30.530729 -2.164857
vt 7.965730 -2.164857
vt 30.035191 -2.828400
vt 7.470194 -2.828400
vt 29.522120 -3.443860
vt 6.957123 -3.443860
vt 29.000000 -3.999923
vt 25.034019 -4.488105
vt 2.469018 -4.488105
vt 25.136410 -4.898788
vt 2.571406 -4.898788
vt 25.304411 -5.226317
vt 2.739413 -5.226317
vt 25.536060 -5.463903
vt 2.971059 -5.463903
vt 25.826820 -5.608151
vt 3.261818 -5.608151
vt 26.171600 -5.656800
vt 3.606600 -5.656800
vt 25.000080 -3.999923
vt 6.435000 -3.999923
vt 12.261000 0.982800
vt 12.000000 1.000000
vt 12.000000 -1.000000
vt 12.517600 0.931800
vt 12.765400 0.847800
vt 13.000000 0.732000
vt 13.217600 0.586800
vt 13.414200 0.414200
vt 13.586800 0.217600
vt 13.732000 0.000000
vt 13.847800 -0.234600
vt 13.931800 -0.482400
vt 13.982800 -0.739000
vt 14.000000 -1.000000
vt 13.982800 -1.261000
vt 13.931800 -1.517600
vt 13.847800 -1.765400
vt 13.732000 -2.000000
vt 13.586800 -2.217600
vt 13.414200 -2.414200
vt 13.217600 -2.586800
vt 13.000000 -2.732000
vt 12.765400 -2.847800
vt 12.517600 -2.931800
vt 12.261000 -2.982800
vt 12.000000 -3.000000
vt 11.739000 -2.982800
vt 11.482400 -2.931800
vt 11.234600 -2.847800
vt 11.000000 -2.732000
vt 10.782400 -2.586800
vt 10.585800 -2.414200
vt 10.413200 -2.217600
vt 10.268000 -2.000000
vt 10.152200 -1.765400
vt 10.068200 -1.517600
vt 10.017200 -1.261000
vt 10.000000 -1.000000
vt 10.017200 -0.739000
vt 10.068200 -0.482400
vt 10.152200 -0.234600
vt 10.268000 0.000000
vt 10.413200 0.217600
vt 10.585800 0.414200
vt 10.782400 0.586800
vt 11.000000 0.732000
vt 11.234600 0.847800
vt 11.482400 0.931800
vt 11.739000 0.982800
vt 33.226601 3.965600
vt 33.198200 3.375600
vt 33.091400 2.712000
vt 32.904800 1.986400
vt 32.639400 1.212000
vt 32.173599 0.738400
vt 32.299198 0.407600
vt 31.891600 -0.407600
vt 31.435200 -0.738400
vt 31.427401 -1.212000
vt 30.918400 -1.986400
vt 25.481800 -2.712000
vt 25.350201 -3.375600
vt 25.295401 -3.965600
vt 33.381199 3.863600
vt 33.351200 3.231600
vt 33.230202 2.513600
vt 33.014000 1.721200
vt 32.703201 0.874800
vt 32.304001 0.000000
vt 26.508801 -0.874800
vt 26.171600 -1.721200
vt 25.914200 -2.513600
vt 25.741600 -3.231600
vt 25.653999 -3.863600
vt 33.460999 3.695600
vt 33.418800 3.014400
vt 33.271198 2.235600
vt 28.121401 1.377200
vt 27.607000 0.465200
vt 27.141800 -0.465200
vt 26.744200 -1.377200
vt 26.428801 -2.235600
vt 26.202801 -3.014400
vt 26.069799 -3.695600
vt 30.000000 3.464000
vt 29.453199 2.726800
vt 28.899200 1.885200
vt 28.355801 0.964400
vt 27.845200 0.000000
vt 27.391399 -0.964400
vt 27.014000 -1.885200
vt 26.726400 -2.726800
vt 26.535999 -3.464000
vt 30.217600 3.173600
vt 29.675800 2.375200
vt 29.125999 1.472800
vt 28.588400 0.499200
vt 28.089199 -0.499200
vt 27.653200 -1.472800
vt 27.300600 -2.375200
vt 27.044001 -3.173600
vt 30.414200 2.828400
vt 29.879601 1.967600
vt 29.336599 1.010400
vt 28.809999 0.000000
vt 28.326200 -1.010400
vt 27.912001 -1.967600
vt 27.585800 -2.828400
vt 30.586800 2.435200
vt 30.059200 1.514800
vt 29.525000 0.514400
vt 29.010599 -0.514400
vt 28.544399 -1.514800
vt 28.151600 -2.435200
vt 30.732000 2.000000
vt 30.210400 1.028000
vt 29.684601 0.000000
vt 29.182400 -1.028000
vt 28.732000 -2.000000
vt 30.847799 1.530800
vt 30.329201 0.519600
vt 29.809601 -0.519600
vt 29.316999 -1.530800
vt 30.931801 1.035200
vt 30.413601 0.000000
vt 29.896601 -1.035200
vt 30.982800 0.522000
vt 30.460800 -0.522000
vt 31.000000 31.000000
vt 25.350201 -4.472400
vt 25.481800 -4.897600
vt 25.688801 -5.229600
vt 25.969000 -5.458400
vt 25.826401 -5.608800
vt 26.316799 -5.574800
vt 25.741600 -4.378000
vt 25.914200 -4.802400
vt 26.171600 -5.121200
vt 26.508801 -5.319600
vt 26.916800 26.916800
vt 26.202801 -4.201600
vt 26.428801 -4.606800
vt 26.744200 -4.891600
vt 27.141800 -5.038800
vt 26.726400 -3.943600
vt 27.014000 -4.309200
vt 27.391399 -4.539600
vt 27.845200 -4.619200
vt 27.300600 -3.607200
vt 27.653200 -3.914400
vt 28.089199 -4.074400
vt 27.912001 -3.199600
vt 28.326200 -3.434400
vt 28.809999 28.809999
vt 28.544399 -2.731600
vt 29.010599 -2.885600
vt 29.182400 -2.215200
vt 29.684601 -2.288800
vt 29.809601 -1.666000
vt 30.413601 30.413601
vt 32.464001 1.464000
vt 32.863602 2.828400
vt 32.965599 3.443600
vt 32.965599 4.487600
vt 33.198200 4.472400
vt 32.863602 4.898800
vt 33.091400 4.897600
vt 32.904800 5.229600
vt 32.464001 5.464000
vt 32.639400 5.458400
vt 32.173599 5.608800
vt 32.299198 5.574800
vt 33.351200 4.378000
vt 33.230202 4.802400
vt 33.014000 5.121200
vt 32.703201 5.319600
vt 32.304001 32.304001
vt 33.418800 4.201600
vt 33.271198 4.606800
vt 31.635799 4.891600
vt 32.180599 5.038800
vt 30.670000 3.943600
vt 31.323200 4.309200
vt 31.931000 4.539600
vt 32.464401 4.619200
vt 30.907801 3.607200
vt 31.567600 3.914400
vt 32.163601 4.074400
vt 31.111601 3.199600
vt 31.760599 3.434400
vt 32.324402 32.324402
vt 31.275999 2.731600
vt 31.896200 2.885600
vt 31.397600 2.215200
vt 31.973400 2.288800
vt 31.475599 1.666000
vt 31.510401 31.510401
s 1
usemtl 47
f 3/1/1 2/2/2 1/3/3
f 1/3/3 4/4/4 3/1/1
f 6/5/5 5/6/6 1/3/3
f 1/3/3 2/2/2 6/5/5
f 8/7/7 7/8/8 5/6/6
f 5/6/6 6/5/5 8/7/7
f 10/9/9 9/10/10 7/8/8
f 7/8/8 8/7/7 10/9/9
f 12/11/11 11/12/12 9/10/10
f 9/10/10 10/9/9 12/11/11
f 15/13/13 14/14/14 13/15/15
f 13/15/15 16/16/16 15/13/13
f 19/17/17 18/18/18 17/14/19
f 17/14/19 20/13/19 19/17/17
f 22/19/20 21/20/20 18/18/18
f 18/18/18 19/17/17 22/19/20
f 25/21/21 24/22/21 23/20/21
f 23/20/21 26/19/21 25/21/21
f 29/23/22 28/24/23 27/22/24
f 27/22/24 30/21/24 29/23/22
f 32/25/25 31/26/25 28/24/23
f 28/24/23 29/23/22 32/25/25
f 35/27/26 34/28/27 33/26/28
f 33/26/28 36/25/28 35/27/26
f 38/29/19 37/30/19 34/28/27
f 34/28/27 35/27/26 38/29/19
f 41/31/29 40/32/29 39/30/29
f 39/30/29 42/29/29 41/31/29
f 45/32/30 44/31/30 43/33/31
f 43/33/31 46/34/31 45/32/30
f 49/35/32 48/36/32 47/37/32
f 49/35/32 47/37/32 50/38/32
f 50/38/32 47/37/32 51/39/32
f 50/38/32 51/39/32 52/40/32
f 52/40/32 53/41/32 50/38/32
f 50/38/32 53/41/32 54/42/32
f 56/43/33 55/44/32 50/38/32
f 50/38/32 54/42/32 56/43/33
f 57/1/34 55/44/32 56/43/33
f 56/43/33 58/2/35 57/1/34
f 58/2/35 56/43/33 59/45/36
f 60/5/37 58/2/35 59/45/36
f 59/45/36 61/46/36 60/5/37
f 60/5/37 61/46/36 62/7/38
f 63/9/39 62/7/38 61/46/36
f 61/46/36 64/47/32 63/9/39
f 63/9/39 64/47/32 65/11/32
f 68/48/40 67/49/41 66/50/40
f 68/48/40 66/50/40 69/51/40
f 68/48/40 69/51/40 70/52/40
f 69/51/40 72/53/40 71/54/40
f 71/54/40 70/52/40 69/51/40
f 72/53/40 69/51/40 73/55/40
f 74/56/42 73/55/40 69/51/40
f 69/51/40 75/57/40 74/56/42
f 77/4/43 76/58/44 74/56/42
f 74/56/42 75/57/40 77/4/43
f 74/56/42 76/58/44 78/20/45
f 80/59/46 79/18/45 78/20/45
f 78/20/45 76/58/44 80/59/46
f 79/18/45 80/59/46 81/60/47
f 83/61/48 82/62/40 79/18/45
f 79/18/45 81/60/47 83/61/48
f 82/62/40 83/61/48 84/63/40
f 87/64/49 86/65/50 85/66/50
f 85/66/50 88/67/51 87/64/49
f 86/65/50 90/68/50 89/69/50
f 89/69/50 85/66/50 86/65/50
f 92/70/49 91/71/52 89/69/50
f 89/69/50 90/68/50 92/70/49
f 88/67/51 94/72/53 93/73/54
f 88/67/51 93/73/54 95/74/55
f 96/75/56 87/64/49 88/67/51
f 88/67/51 95/74/55 96/75/56
f 98/76/57 97/35/58 91/71/52
f 91/71/52 99/77/59 98/76/57
f 100/78/60 99/77/59 91/71/52
f 91/71/52 92/70/49 100/78/60
f 103/79/40 102/80/40 101/81/40
f 101/81/40 104/82/40 103/79/40
f 107/83/32 106/84/32 105/85/32
f 105/85/32 108/86/32 107/83/32
f 111/87/61 110/88/62 109/89/63
f 109/89/63 110/88/62 112/90/63
f 112/90/63 114/91/64 113/92/63
f 113/92/63 109/89/63 112/90/63
f 113/92/63 114/91/64 115/93/65
f 67/49/41 116/94/40 68/48/40
f 119/95/66 118/96/67 117/97/68
f 117/97/68 120/98/69 119/95/66
f 121/99/70 120/98/69 117/97/68
f 117/97/68 122/100/71 121/99/70
f 123/101/72 121/99/70 122/100/71
f 122/100/71 124/102/73 123/101/72
f 125/103/74 123/101/72 124/102/73
f 124/102/73 126/104/75 125/103/74
f 127/105/76 125/103/74 126/104/75
f 126/104/75 128/106/77 127/105/76
f 131/107/78 130/108/79 129/109/78
f 129/109/78 132/110/80 131/107/78
f 135/111/81 134/112/82 133/113/82
f 133/113/82 136/114/83 135/111/81
f 137/115/84 135/111/81 136/114/83
f 136/114/83 138/45/84 137/115/84
f 141/116/85 140/115/85 139/19/85
f 139/19/85 142/117/85 141/116/85
f 145/118/86 144/116/87 143/117/87
f 143/117/87 146/119/88 145/118/86
f 147/120/89 145/118/86 146/119/88
f 146/119/88 148/121/89 147/120/89
f 151/122/90 150/120/91 149/121/91
f 149/121/91 152/123/92 151/122/90
f 153/124/82 151/122/90 152/123/92
f 152/123/92 154/125/82 153/124/82
f 157/126/93 156/127/93 155/128/93
f 155/128/93 158/129/93 157/126/93
f 159/129/94 46/34/31 43/33/31
f 43/33/31 160/126/94 159/129/94
f 161/126/32 48/36/32 49/35/32
f 161/126/32 49/35/32 162/130/32
f 161/126/32 162/130/32 163/127/32
f 162/130/32 165/120/32 164/122/32
f 164/122/32 163/127/32 162/130/32
f 165/120/32 162/130/32 166/118/32
f 167/116/95 166/118/32 162/130/32
f 162/130/32 168/95/32 167/116/95
f 170/131/96 169/132/97 167/116/95
f 167/116/95 168/95/32 170/131/96
f 167/116/95 169/132/97 171/115/98
f 173/133/99 172/134/98 171/115/98
f 171/115/98 169/132/97 173/133/99
f 172/134/98 173/133/99 174/135/100
f 176/136/101 175/107/32 172/134/98
f 172/134/98 174/135/100 176/136/101
f 175/107/32 176/136/101 177/108/32
f 116/94/40 179/129/40 178/137/40
f 178/137/40 179/129/40 180/128/40
f 66/50/40 179/129/40 178/137/40
f 66/50/40 67/49/41 179/129/40
f 178/137/40 180/128/40 181/123/40
f 181/123/40 182/121/40 178/137/40
f 178/137/40 182/121/40 183/119/40
f 185/117/102 184/138/40 178/137/40
f 178/137/40 183/119/40 185/117/102
f 186/139/103 184/138/40 185/117/102
f 185/117/102 187/140/104 186/139/103
f 187/140/104 185/117/102 188/19/105
f 189/141/106 187/140/104 188/19/105
f 188/19/105 190/142/105 189/141/106
f 189/141/106 190/142/105 191/143/107
f 192/144/108 191/143/107 190/142/105
f 190/142/105 193/110/40 192/144/108
f 192/144/108 193/110/40 194/145/40
f 197/146/109 196/137/110 195/147/50
f 195/147/50 198/148/50 197/146/109
f 198/148/50 195/147/50 199/149/50
f 199/149/50 200/150/50 198/148/50
f 201/151/109 200/150/50 199/149/50
f 199/149/50 202/130/111 201/151/109
f 94/72/112 196/137/110 203/152/113
f 203/152/113 196/137/110 204/77/114
f 205/153/115 204/77/114 196/137/110
f 196/137/110 197/146/109 205/153/115
f 97/35/116 206/154/117 202/130/111
f 202/130/111 206/154/117 207/155/118
f 208/156/119 201/151/109 202/130/111
f 202/130/111 207/155/118 208/156/119
f 211/146/40 210/157/40 209/158/40
f 209/158/40 212/153/40 211/146/40
f 215/151/32 214/156/32 213/159/32
f 213/159/32 216/160/32 215/151/32
f 219/161/120 218/162/121 217/163/122
f 219/161/120 217/163/122 220/164/122
f 220/164/122 217/163/122 221/165/122
f 221/165/122 222/166/123 220/164/122
f 222/166/123 221/165/122 223/167/124
f 226/168/125 225/169/126 224/170/127
f 228/171/128 227/172/129 224/170/127
f 224/170/127 225/169/126 228/171/128
f 230/173/130 229/174/131 227/172/129
f 227/172/129 228/171/128 230/173/130
f 233/175/132 232/176/133 231/177/134
f 231/177/134 234/178/135 233/175/132
f 232/176/133 233/175/132 235/179/31
f 235/179/31 236/180/31 232/176/133
f 239/181/136 238/182/137 237/183/138
f 239/181/136 237/183/138 240/184/139
f 240/184/139 241/185/140 239/181/136
f 244/186/141 243/187/142 242/188/143
f 246/189/144 245/190/145 242/188/143
f 242/188/143 243/187/142 246/189/144
f 226/168/125 224/170/127 247/191/146
f 247/191/146 248/192/147 226/168/125
f 251/35/50 250/193/50 249/194/148
f 249/194/148 252/195/149 251/35/50
f 255/196/150 254/197/151 253/198/152
f 255/196/150 253/198/152 234/178/135
f 234/178/135 231/177/134 255/196/150
f 238/182/137 239/181/136 256/199/153
f 256/199/153 257/200/154 238/182/137
f 241/185/140 240/184/139 258/201/155
f 258/201/155 259/202/156 241/185/140
f 254/197/151 255/196/150 229/174/131
f 229/174/131 230/173/130 254/197/151
f 244/186/141 242/188/143 259/202/156
f 259/202/156 258/201/155 244/186/141
f 252/195/149 249/194/148 245/190/145
f 245/190/145 246/189/144 252/195/149
f 235/179/31 257/200/154 256/199/153
f 256/199/153 236/180/31 235/179/31
f 251/35/50 248/192/147 247/191/146
f 247/191/146 250/193/50 251/35/50
f 262/203/157 261/204/32 260/205/158
f 260/205/158 263/206/159 262/203/157
f 263/206/159 260/205/158 264/207/160
f 263/206/159 264/207/160 265/208/161
f 265/208/161 267/209/162 266/210/163
f 266/210/163 263/206/159 265/208/161
f 266/210/163 267/209/162 268/211/164
f 266/210/163 268/211/164 269/212/165
f 269/212/165 268/211/164 270/213/166
f 272/214/167 271/215/168 269/212/165
f 269/212/165 270/213/166 272/214/167
f 272/214/167 273/168/169 271/215/168
f 271/215/168 273/168/169 274/192/170
f 49/35/171 271/215/168 274/192/170
f 274/192/170 275/179/32 49/35/171
f 277/216/172 276/154/173 49/35/171
f 49/35/171 275/179/32 277/216/172
f 276/154/173 277/216/172 278/217/174
f 276/154/173 278/217/174 279/218/175
f 279/218/175 281/219/176 280/155/177
f 280/155/177 276/154/173 279/218/175
f 280/155/177 281/219/176 282/201/178
f 280/155/177 282/201/178 283/220/179
f 283/220/179 282/201/178 284/184/180
f 286/183/181 285/221/182 283/220/179
f 283/220/179 284/184/180 286/183/181
f 285/221/182 286/183/181 287/182/183
f 285/221/182 287/182/183 288/200/184
f 288/200/184 261/204/32 262/203/157
f 262/203/157 285/221/182 288/200/184
f 291/222/82 290/223/82 289/224/82
f 289/224/82 292/4/82 291/222/82
f 295/96/19 294/95/19 293/225/19
f 293/225/19 296/226/19 295/96/19
f 298/227/185 283/220/179 297/228/186
f 297/228/186 299/229/187 298/227/185
f 299/229/187 297/228/186 300/230/188
f 300/230/188 301/231/189 299/229/187
f 301/231/189 300/230/188 302/232/190
f 302/232/190 303/233/191 301/231/189
f 303/233/191 302/232/190 304/234/192
f 304/234/192 305/235/193 303/233/191
f 305/235/193 304/234/192 306/236/194
f 306/236/194 307/237/195 305/235/193
f 307/237/195 306/236/194 308/238/196
f 308/238/196 309/239/197 307/237/195
f 309/239/197 308/238/196 310/240/198
f 310/240/198 311/241/199 309/239/197
f 311/241/199 310/240/198 312/242/200
f 312/242/200 313/243/201 311/241/199
f 313/243/201 312/242/200 314/244/202
f 314/244/202 315/245/203 313/243/201
f 315/245/203 314/244/202 316/246/204
f 316/246/204 317/247/205 315/245/203
f 317/247/205 316/246/204 318/248/206
f 318/248/206 319/249/207 317/247/205
f 319/249/207 318/248/206 320/250/208
f 320/250/208 321/251/209 319/249/207
f 321/251/209 320/250/208 322/252/210
f 322/252/210 323/253/211 321/251/209
f 323/253/211 322/252/210 324/254/212
f 324/254/212 325/255/213 323/253/211
f 325/255/213 324/254/212 326/256/214
f 326/256/214 327/257/215 325/255/213
f 327/257/215 326/256/214 328/258/216
f 328/258/216 329/259/217 327/257/215
f 329/259/217 328/258/216 330/260/218
f 330/260/218 331/261/219 329/259/217
f 331/261/219 330/260/218 332/262/220
f 332/262/220 67/49/41 331/261/219
f 67/49/41 332/262/220 333/263/221
f 333/263/221 334/264/222 67/49/41
f 334/264/222 333/263/221 335/265/223
f 335/265/223 336/266/224 334/264/222
f 336/266/224 335/265/223 337/267/225
f 337/267/225 338/268/226 336/266/224
f 338/268/226 337/267/225 339/269/227
f 339/269/227 340/270/228 338/268/226
f 340/270/228 339/269/227 341/271/229
f 341/271/229 342/272/230 340/270/228
f 342/272/230 341/271/229 343/273/231
f 343/273/231 344/274/232 342/272/230
f 344/274/232 343/273/231 345/271/233
f 345/271/233 346/272/234 344/274/232
f 346/272/234 345/271/233 347/269/235
f 347/269/235 348/270/236 346/272/234
f 348/270/236 347/269/235 349/267/237
f 349/267/237 350/268/238 348/270/236
f 350/268/238 349/267/237 351/265/239
f 351/265/239 352/266/240 350/268/238
f 352/266/240 351/265/239 353/263/241
f 353/263/241 354/264/242 352/266/240
f 354/264/242 353/263/241 355/275/243
f 355/275/243 356/276/244 354/264/242
f 356/276/244 355/275/243 357/260/245
f 357/260/245 358/261/246 356/276/244
f 358/261/246 357/260/245 359/258/247
f 359/258/247 360/259/248 358/261/246
f 360/259/248 359/258/247 361/256/249
f 361/256/249 362/257/250 360/259/248
f 362/257/250 361/256/249 363/254/251
f 363/254/251 364/255/252 362/257/250
f 364/255/252 363/254/251 365/252/253
f 365/252/253 366/253/254 364/255/252
f 366/253/254 365/252/253 266/210/163
f 266/210/163 367/251/255 366/253/254
f 368/277/32 369/278/32 370/279/32
f 371/280/32 368/277/32 370/279/32
f 372/281/32 371/280/32 370/279/32
f 373/282/32 372/281/32 370/279/32
f 374/283/32 373/282/32 370/279/32
f 375/284/32 374/283/32 370/279/32
f 376/285/32 375/284/32 370/279/32
f 377/286/32 376/285/32 370/279/32
f 378/287/32 377/286/32 370/279/32
f 379/288/32 378/287/32 370/279/32
f 380/289/32 379/288/32 370/279/32
f 381/290/32 380/289/32 370/279/32
f 382/291/32 381/290/32 370/279/32
f 383/292/32 382/291/32 370/279/32
f 384/293/32 383/292/32 370/279/32
f 385/294/32 384/293/32 370/279/32
f 386/295/32 385/294/32 370/279/32
f 387/296/32 386/295/32 370/279/32
f 388/297/32 387/296/32 370/279/32
f 389/298/32 388/297/32 370/279/32
f 390/299/32 389/298/32 370/279/32
f 391/300/32 390/299/32 370/279/32
f 392/301/32 391/300/32 370/279/32
f 393/302/32 392/301/32 370/279/32
f 394/303/32 393/302/32 370/279/32
f 395/304/32 394/303/32 370/279/32
f 396/305/32 395/304/32 370/279/32
f 397/306/32 396/305/32 370/279/32
f 398/307/32 397/306/32 370/279/32
f 399/308/32 398/307/32 370/279/32
f 400/309/32 399/308/32 370/279/32
f 401/310/32 400/309/32 370/279/32
f 402/311/32 401/310/32 370/279/32
f 403/312/32 402/311/32 370/279/32
f 404/313/32 403/312/32 370/279/32
f 405/314/32 404/313/32 370/279/32
f 406/315/32 405/314/32 370/279/32
f 407/316/32 406/315/32 370/279/32
f 408/317/32 407/316/32 370/279/32
f 409/318/32 408/317/32 370/279/32
f 410/319/32 409/318/32 370/279/32
f 411/320/32 410/319/32 370/279/32
f 412/321/32 411/320/32 370/279/32
f 413/322/32 412/321/32 370/279/32
f 414/323/32 413/322/32 370/279/32
f 415/324/32 414/323/32 370/279/32
f 416/325/32 415/324/32 370/279/32
f 369/278/32 416/325/32 370/279/32
f 417/326/256 310/240/198 308/238/196
f 417/326/256 418/327/257 310/240/198
f 418/327/257 312/242/200 310/240/198
f 418/327/257 419/328/258 312/242/200
f 419/328/258 314/244/202 312/242/200
f 419/328/258 420/329/259 314/244/202
f 420/329/259 316/246/204 314/244/202
f 420/329/259 421/330/260 316/246/204
f 421/330/260 422/331/261 316/246/204
f 421/330/260 423/332/262 422/331/261
f 423/332/262 320/250/208 422/331/261
f 423/332/262 424/333/263 320/250/208
f 424/333/263 425/334/264 320/250/208
f 424/333/263 426/335/265 425/334/264
f 426/335/265 324/254/212 425/334/264
f 426/335/265 427/336/266 324/254/212
f 427/336/266 326/256/214 324/254/212
f 427/336/266 428/337/267 326/256/214
f 428/337/267 328/258/216 326/256/214
f 428/337/267 429/338/268 328/258/216
f 429/338/268 330/260/218 328/258/216
f 429/338/268 430/339/269 330/260/218
f 430/339/269 332/262/220 330/260/218
f 431/340/270 418/327/257 417/326/256
f 431/340/270 432/341/271 418/327/257
f 432/341/271 419/328/258 418/327/257
f 432/341/271 433/342/272 419/328/258
f 433/342/272 420/329/259 419/328/258
f 433/342/272 434/343/273 420/329/259
f 434/343/273 421/330/260 420/329/259
f 434/343/273 435/344/274 421/330/260
f 435/344/274 423/332/262 421/330/260
f 435/344/274 436/345/275 423/332/262
f 436/345/275 424/333/263 423/332/262
f 436/345/275 437/346/276 424/333/263
f 437/346/276 426/335/265 424/333/263
f 437/346/276 438/347/277 426/335/265
f 438/347/277 427/336/266 426/335/265
f 438/347/277 439/348/278 427/336/266
f 439/348/278 428/337/267 427/336/266
f 439/348/278 440/349/279 428/337/267
f 440/349/279 429/338/268 428/337/267
f 440/349/279 441/350/280 429/338/268
f 441/350/280 430/339/269 429/338/268
f 442/351/281 432/341/271 431/340/270
f 442/351/281 443/352/282 432/341/271
f 443/352/282 433/342/272 432/341/271
f 443/352/282 444/353/283 433/342/272
f 444/353/283 434/343/273 433/342/272
f 444/353/283 445/354/284 434/343/273
f 445/354/284 435/344/274 434/343/273
f 445/354/284 446/355/285 435/344/274
f 446/355/285 436/345/275 435/344/274
f 446/355/285 447/356/286 436/345/275
f 447/356/286 437/346/276 436/345/275
f 447/356/286 448/357/287 437/346/276
f 448/357/287 438/347/277 437/346/276
f 448/357/287 449/358/288 438/347/277
f 449/358/288 439/348/278 438/347/277
f 449/358/288 450/359/289 439/348/278
f 450/359/289 440/349/279 439/348/278
f 450/359/289 451/360/290 440/349/279
f 451/360/290 441/350/280 440/349/279
f 452/361/291 443/352/282 442/351/281
f 452/361/291 453/362/292 443/352/282
f 453/362/292 444/353/283 443/352/282
f 453/362/292 454/363/293 444/353/283
f 454/363/293 445/354/284 444/353/283
f 454/363/293 455/364/294 445/354/284
f 455/364/294 446/355/285 445/354/284
f 455/364/294 456/365/295 446/355/285
f 456/365/295 447/356/286 446/355/285
f 456/365/295 457/366/296 447/356/286
f 457/366/296 448/357/287 447/356/286
f 457/366/296 458/367/297 448/357/287
f 458/367/297 449/358/288 448/357/287
f 458/367/297 459/368/298 449/358/288
f 459/368/298 450/359/289 449/358/288
f 459/368/298 460/369/299 450/359/289
f 460/369/299 451/360/290 450/359/289
f 461/370/300 453/362/292 452/361/291
f 461/370/300 462/371/301 453/362/292
f 462/371/301 454/363/293 453/362/292
f 462/371/301 463/372/302 454/363/293
f 463/372/302 455/364/294 454/363/293
f 463/372/302 464/373/303 455/364/294
f 464/373/303 456/365/295 455/364/294
f 464/373/303 465/374/304 456/365/295
f 465/374/304 457/366/296 456/365/295
f 465/374/304 466/375/305 457/366/296
f 466/375/305 458/367/297 457/366/296
f 466/375/305 467/376/306 458/367/297
f 467/376/306 459/368/298 458/367/297
f 467/376/306 468/377/307 459/368/298
f 468/377/307 460/369/299 459/368/298
f 469/378/308 462/371/301 461/370/300
f 469/378/308 470/379/309 462/371/301
f 470/379/309 463/372/302 462/371/301
f 470/379/309 471/380/310 463/372/302
f 471/380/310 464/373/303 463/372/302
f 471/380/310 472/381/311 464/373/303
f 472/381/311 465/374/304 464/373/303
f 472/381/311 473/382/312 465/374/304
f 473/382/312 466/375/305 465/374/304
f 473/382/312 474/383/313 466/375/305
f 474/383/313 467/376/306 466/375/305
f 474/383/313 475/384/314 467/376/306
f 475/384/314 468/377/307 467/376/306
f 476/385/315 470/379/309 469/378/308
f 476/385/315 477/386/316 470/379/309
f 477/386/316 471/380/310 470/379/309
f 477/386/316 478/387/317 471/380/310
f 478/387/317 472/381/311 471/380/310
f 478/387/317 479/388/318 472/381/311
f 479/388/318 473/382/312 472/381/311
f 479/388/318 480/389/319 473/382/312
f 480/389/319 474/383/313 473/382/312
f 480/389/319 481/390/320 474/383/313
f 481/390/320 475/384/314 474/383/313
f 482/391/321 477/386/316 476/385/315
f 482/391/321 483/392/322 477/386/316
f 483/392/322 478/387/317 477/386/316
f 483/392/322 484/393/323 478/387/317
f 484/393/323 479/388/318 478/387/317
f 484/393/323 485/394/324 479/388/318
f 485/394/324 480/389/319 479/388/318
f 485/394/324 486/395/325 480/389/319
f 486/395/325 481/390/320 480/389/319
f 487/396/326 483/392/322 482/391/321
f 487/396/326 488/397/327 483/392/322
f 488/397/327 484/393/323 483/392/322
f 488/397/327 489/398/328 484/393/323
f 489/398/328 485/394/324 484/393/323
f 489/398/328 490/399/329 485/394/324
f 490/399/329 486/395/325 485/394/324
f 491/400/330 488/397/327 487/396/326
f 491/400/330 492/401/331 488/397/327
f 492/401/331 489/398/328 488/397/327
f 492/401/331 493/402/332 489/398/328
f 493/402/332 490/399/329 489/398/328
f 494/403/333 492/401/331 491/400/330
f 494/403/333 495/404/334 492/401/331
f 495/404/334 493/402/332 492/401/331
f 496/405/50 495/404/334 494/403/333
f 430/339/269 333/263/221 332/262/220
f 430/339/269 497/406/335 333/263/221
f 497/406/335 335/265/223 333/263/221
f 497/406/335 498/407/336 335/265/223
f 498/407/336 337/267/225 335/265/223
f 498/407/336 499/408/337 337/267/225
f 499/408/337 339/269/227 337/267/225
f 499/408/337 500/409/338 339/269/227
f 500/409/338 501/410/339 339/269/227
f 500/409/338 502/411/340 501/410/339
f 502/411/340 343/273/341 501/410/339
f 502/411/340 503/411/342 343/273/341
f 503/411/342 504/410/343 343/273/341
f 503/411/342 505/409/344 504/410/343
f 505/409/344 347/269/235 504/410/343
f 505/409/344 506/408/345 347/269/235
f 506/408/345 349/267/237 347/269/235
f 506/408/345 507/407/346 349/267/237
f 507/407/346 351/265/239 349/267/237
f 507/407/346 508/406/347 351/265/239
f 508/406/347 353/263/241 351/265/239
f 508/406/347 509/339/348 353/263/241
f 509/339/348 355/275/243 353/263/241
f 441/350/280 497/406/335 430/339/269
f 441/350/280 510/412/349 497/406/335
f 510/412/349 498/407/336 497/406/335
f 510/412/349 511/413/350 498/407/336
f 511/413/350 499/408/337 498/407/336
f 511/413/350 512/414/351 499/408/337
f 512/414/351 500/409/338 499/408/337
f 512/414/351 513/415/352 500/409/338
f 513/415/352 502/411/340 500/409/338
f 513/415/352 514/416/353 502/411/340
f 514/416/353 503/411/342 502/411/340
f 514/416/353 515/415/354 503/411/342
f 515/415/354 505/409/344 503/411/342
f 515/415/354 516/414/355 505/409/344
f 516/414/355 506/408/345 505/409/344
f 516/414/355 517/413/356 506/408/345
f 517/413/356 507/407/346 506/408/345
f 517/413/356 518/412/357 507/407/346
f 518/412/357 508/406/347 507/407/346
f 518/412/357 519/350/358 508/406/347
f 519/350/358 509/339/348 508/406/347
f 451/360/290 510/412/349 441/350/280
f 451/360/290 520/417/359 510/412/349
f 520/417/359 511/413/350 510/412/349
f 520/417/359 521/418/360 511/413/350
f 521/418/360 512/414/351 511/413/350
f 521/418/360 522/419/361 512/414/351
f 522/419/361 513/415/352 512/414/351
f 522/419/361 523/420/362 513/415/352
f 523/420/362 514/416/353 513/415/352
f 523/420/362 524/420/363 514/416/353
f 524/420/363 515/415/354 514/416/353
f 524/420/363 525/419/364 515/415/354
f 525/419/364 516/414/355 515/415/354
f 525/419/364 526/418/365 516/414/355
f 526/418/365 517/413/356 516/414/355
f 526/418/365 527/417/366 517/413/356
f 527/417/366 518/412/357 517/413/356
f 527/417/366 528/360/367 518/412/357
f 528/360/367 519/350/358 518/412/357
f 460/369/299 520/417/359 451/360/290
f 460/369/299 529/421/368 520/417/359
f 529/421/368 521/418/360 520/417/359
f 529/421/368 530/422/369 521/418/360
f 530/422/369 522/419/361 521/418/360
f 530/422/369 531/423/370 522/419/361
f 531/423/370 523/420/362 522/419/361
f 531/423/370 532/424/371 523/420/362
f 532/424/371 524/420/363 523/420/362
f 532/424/371 533/423/372 524/420/363
f 533/423/372 525/419/364 524/420/363
f 533/423/372 534/422/373 525/419/364
f 534/422/373 526/418/365 525/419/364
f 534/422/373 535/421/374 526/418/365
f 535/421/374 527/417/366 526/418/365
f 535/421/374 536/369/375 527/417/366
f 536/369/375 528/360/367 527/417/366
f 468/377/307 529/421/368 460/369/299
f 468/377/307 537/425/376 529/421/368
f 537/425/376 530/422/369 529/421/368
f 537/425/376 538/426/377 530/422/369
f 538/426/377 531/423/370 530/422/369
f 538/426/377 539/427/378 531/423/370
f 539/427/378 532/424/371 531/423/370
f 539/427/378 540/427/379 532/424/371
f 540/427/379 533/423/372 532/424/371
f 540/427/379 541/426/380 533/423/372
f 541/426/380 534/422/373 533/423/372
f 541/426/380 542/425/381 534/422/373
f 542/425/381 535/421/374 534/422/373
f 542/425/381 543/377/382 535/421/374
f 543/377/382 536/369/375 535/421/374
f 475/384/314 537/425/376 468/377/307
f 475/384/314 544/428/383 537/425/376
f 544/428/383 538/426/377 537/425/376
f 544/428/383 545/429/384 538/426/377
f 545/429/384 539/427/378 538/426/377
f 545/429/384 546/430/385 539/427/378
f 546/430/385 540/427/379 539/427/378
f 546/430/385 547/429/386 540/427/379
f 547/429/386 541/426/380 540/427/379
f 547/429/386 548/428/387 541/426/380
f 548/428/387 542/425/381 541/426/380
f 548/428/387 549/384/388 542/425/381
f 549/384/388 543/377/382 542/425/381
f 481/390/320 544/428/383 475/384/314
f 481/390/320 550/431/389 544/428/383
f 550/431/389 545/429/384 544/428/383
f 550/431/389 551/432/390 545/429/384
f 551/432/390 546/430/385 545/429/384
f 551/432/390 552/432/391 546/430/385
f 552/432/391 547/429/386 546/430/385
f 552/432/391 553/431/392 547/429/386
f 553/431/392 548/428/387 547/429/386
f 553/431/392 554/390/393 548/428/387
f 554/390/393 549/384/388 548/428/387
f 486/395/325 550/431/389 481/390/320
f 486/395/325 555/433/394 550/431/389
f 555/433/394 551/432/390 550/431/389
f 555/433/394 556/434/395 551/432/390
f 556/434/395 552/432/391 551/432/390
f 556/434/395 557/433/396 552/432/391
f 557/433/396 553/431/392 552/432/391
f 557/433/396 558/395/397 553/431/392
f 558/395/397 554/390/393 553/431/392
f 490/399/329 555/433/394 486/395/325
f 490/399/329 559/435/398 555/433/394
f 559/435/398 556/434/395 555/433/394
f 559/435/398 560/435/399 556/434/395
f 560/435/399 557/433/396 556/434/395
f 560/435/399 561/399/400 557/433/396
f 561/399/400 558/395/397 557/433/396
f 493/402/332 559/435/398 490/399/329
f 493/402/332 562/436/401 559/435/398
f 562/436/401 560/435/399 559/435/398
f 562/436/401 563/402/402 560/435/399
f 563/402/402 561/399/400 560/435/399
f 495/404/334 562/436/401 493/402/332
f 495/404/334 564/404/403 562/436/401
f 564/404/403 563/402/402 562/436/401
f 496/405/50 564/404/403 495/404/334
f 509/339/348 357/260/245 355/275/243
f 509/339/348 565/338/404 357/260/245
f 565/338/404 359/258/247 357/260/245
f 565/338/404 566/337/405 359/258/247
f 566/337/405 361/256/249 359/258/247
f 566/337/405 567/336/406 361/256/249
f 567/336/406 363/254/251 361/256/249
f 567/336/406 568/335/407 363/254/251
f 568/335/407 569/334/408 363/254/251
f 568/335/407 570/333/409 569/334/408
f 570/333/409 266/210/410 569/334/408
f 570/333/409 571/332/411 266/210/410
f 571/332/411 572/331/412 266/210/410
f 571/332/411 573/330/413 572/331/412
f 573/330/413 574/437/414 572/331/412
f 573/330/413 575/329/415 574/437/414
f 575/329/415 263/206/159 574/437/414
f 575/329/415 576/328/416 263/206/159
f 576/328/416 577/438/417 263/206/159
f 576/328/416 578/327/418 577/438/417
f 578/327/418 579/439/419 577/438/417
f 578/327/418 580/326/420 579/439/419
f 580/326/420 262/203/157 579/439/419
f 519/350/358 565/338/404 509/339/348
f 519/350/358 581/349/421 565/338/404
f 581/349/421 566/337/405 565/338/404
f 581/349/421 582/348/422 566/337/405
f 582/348/422 567/336/406 566/337/405
f 582/348/422 583/347/423 567/336/406
f 583/347/423 568/335/407 567/336/406
f 583/347/423 584/346/424 568/335/407
f 584/346/424 570/333/409 568/335/407
f 584/346/424 585/345/425 570/333/409
f 585/345/425 571/332/411 570/333/409
f 585/345/425 586/344/426 571/332/411
f 586/344/426 573/330/413 571/332/411
f 586/344/426 587/343/427 573/330/413
f 587/343/427 575/329/415 573/330/413
f 587/343/427 588/342/428 575/329/415
f 588/342/428 576/328/416 575/329/415
f 588/342/428 589/341/429 576/328/416
f 589/341/429 578/327/418 576/328/416
f 589/341/429 590/340/430 578/327/418
f 590/340/430 580/326/420 578/327/418
f 528/360/367 581/349/421 519/350/358
f 528/360/367 591/359/431 581/349/421
f 591/359/431 582/348/422 581/349/421
f 591/359/431 592/358/432 582/348/422
f 592/358/432 583/347/423 582/348/422
f 592/358/432 593/357/433 583/347/423
f 593/357/433 584/346/424 583/347/423
f 593/357/433 594/356/434 584/346/424
f 594/356/434 585/345/425 584/346/424
f 594/356/434 595/355/435 585/345/425
f 595/355/435 586/344/426 585/345/425
f 595/355/435 596/354/436 586/344/426
f 596/354/436 587/343/427 586/344/426
f 596/354/436 597/353/437 587/343/427
f 597/353/437 588/342/428 587/343/427
f 597/353/437 598/352/438 588/342/428
f 598/352/438 589/341/429 588/342/428
f 598/352/438 599/351/439 589/341/429
f 599/351/439 590/340/430 589/341/429
f 536/369/375 591/359/431 528/360/367
f 536/369/375 600/368/440 591/359/431
f 600/368/440 592/358/432 591/359/431
f 600/368/440 601/367/441 592/358/432
f 601/367/441 593/357/433 592/358/432
f 601/367/441 602/366/442 593/357/433
f 602/366/442 594/356/434 593/357/433
f 602/366/442 603/365/443 594/356/434
f 603/365/443 595/355/435 594/356/434
f 603/365/443 604/364/444 595/355/435
f 604/364/444 596/354/436 595/355/435
f 604/364/444 605/363/445 596/354/436
f 605/363/445 597/353/437 596/354/436
f 605/363/445 606/362/446 597/353/437
f 606/362/446 598/352/438 597/353/437
f 606/362/446 607/361/447 598/352/438
f 607/361/447 599/351/439 598/352/438
f 543/377/382 600/368/440 536/369/375
f 543/377/382 608/376/448 600/368/440
f 608/376/448 601/367/441 600/368/440
f 608/376/448 609/375/449 601/367/441
f 609/375/449 602/366/442 601/367/441
f 609/375/449 610/374/450 602/366/442
f 610/374/450 603/365/443 602/366/442
f 610/374/450 611/373/451 603/365/443
f 611/373/451 604/364/444 603/365/443
f 611/373/451 612/372/452 604/364/444
f 612/372/452 605/363/445 604/364/444
f 612/372/452 613/371/453 605/363/445
f 613/371/453 606/362/446 605/363/445
f 613/371/453 614/370/454 606/362/446
f 614/370/454 607/361/447 606/362/446
f 549/384/388 608/376/448 543/377/382
f 549/384/388 615/383/455 608/376/448
f 615/383/455 609/375/449 608/376/448
f 615/383/455 616/382/456 609/375/449
f 616/382/456 610/374/450 609/375/449
f 616/382/456 617/381/457 610/374/450
f 617/381/457 611/373/451 610/374/450
f 617/381/457 618/380/458 611/373/451
f 618/380/458 612/372/452 611/373/451
f 618/380/458 619/379/459 612/372/452
f 619/379/459 613/371/453 612/372/452
f 619/379/459 620/378/460 613/371/453
f 620/378/460 614/370/454 613/371/453
f 554/390/393 615/383/455 549/384/388
f 554/390/393 621/389/461 615/383/455
f 621/389/461 616/382/456 615/383/455
f 621/389/461 622/388/462 616/382/456
f 622/388/462 617/381/457 616/382/456
f 622/388/462 623/387/463 617/381/457
f 623/387/463 618/380/458 617/381/457
f 623/387/463 624/386/464 618/380/458
f 624/386/464 619/379/459 618/380/458
f 624/386/464 625/385/465 619/379/459
f 625/385/465 620/378/460 619/379/459
f 558/395/397 621/389/461 554/390/393
f 558/395/397 626/394/466 621/389/461
f 626/394/466 622/388/462 621/389/461
f 626/394/466 627/393/467 622/388/462
f 627/393/467 623/387/463 622/388/462
f 627/393/467 628/392/468 623/387/463
f 628/392/468 624/386/464 623/387/463
f 628/392/468 629/391/469 624/386/464
f 629/391/469 625/385/465 624/386/464
f 561/399/400 626/394/466 558/395/397
f 561/399/400 630/398/470 626/394/466
f 630/398/470 627/393/467 626/394/466
f 630/398/470 631/397/471 627/393/467
f 631/397/471 628/392/468 627/393/467
f 631/397/471 632/396/472 628/392/468
f 632/396/472 629/391/469 628/392/468
f 563/402/402 630/398/470 561/399/400
f 563/402/402 633/401/473 630/398/470
f 633/401/473 631/397/471 630/398/470
f 633/401/473 634/400/474 631/397/471
f 634/400/474 632/396/472 631/397/471
f 564/404/403 633/401/473 563/402/402
f 564/404/403 635/403/475 633/401/473
f 635/403/475 634/400/474 633/401/473
f 496/405/50 635/403/475 564/404/403
f 580/326/420 636/440/476 262/203/157
f 580/326/420 637/441/477 636/440/476
f 637/441/477 638/442/478 636/440/476
f 637/441/477 639/443/479 638/442/478
f 639/443/479 285/221/182 638/442/478
f 639/443/479 640/444/480 285/221/182
f 640/444/480 641/445/481 285/221/182
f 640/444/480 642/446/482 641/445/481
f 642/446/482 643/447/483 641/445/481
f 642/446/482 644/448/484 643/447/483
f 644/448/484 283/220/179 643/447/483
f 644/448/484 645/448/485 283/220/179
f 645/448/485 646/447/486 283/220/179
f 645/448/485 647/446/487 646/447/486
f 647/446/487 300/230/188 646/447/486
f 647/446/487 648/444/488 300/230/188
f 648/444/488 302/232/190 300/230/188
f 648/444/488 649/443/489 302/232/190
f 649/443/489 304/234/192 302/232/190
f 649/443/489 650/441/490 304/234/192
f 650/441/490 306/236/194 304/234/192
f 650/441/490 417/326/256 306/236/194
f 417/326/256 308/238/196 306/236/194
f 590/340/430 637/441/477 580/326/420
f 590/340/430 651/449/491 637/441/477
f 651/449/491 639/443/479 637/441/477
f 651/449/491 652/450/492 639/443/479
f 652/450/492 640/444/480 639/443/479
f 652/450/492 653/451/493 640/444/480
f 653/451/493 642/446/482 640/444/480
f 653/451/493 654/452/494 642/446/482
f 654/452/494 644/448/484 642/446/482
f 654/452/494 655/453/495 644/448/484
f 655/453/495 645/448/485 644/448/484
f 655/453/495 656/452/496 645/448/485
f 656/452/496 647/446/487 645/448/485
f 656/452/496 657/451/497 647/446/487
f 657/451/497 648/444/488 647/446/487
f 657/451/497 658/450/498 648/444/488
f 658/450/498 649/443/489 648/444/488
f 658/450/498 659/449/499 649/443/489
f 659/449/499 650/441/490 649/443/489
f 659/449/499 431/340/270 650/441/490
f 431/340/270 417/326/256 650/441/490
f 599/351/439 651/449/491 590/340/430
f 599/351/439 660/454/500 651/449/491
f 660/454/500 652/450/492 651/449/491
f 660/454/500 661/455/501 652/450/492
f 661/455/501 653/451/493 652/450/492
f 661/455/501 662/456/502 653/451/493
f 662/456/502 654/452/494 653/451/493
f 662/456/502 663/457/503 654/452/494
f 663/457/503 655/453/495 654/452/494
f 663/457/503 664/457/504 655/453/495
f 664/457/504 656/452/496 655/453/495
f 664/457/504 665/456/505 656/452/496
f 665/456/505 657/451/497 656/452/496
f 665/456/505 666/455/506 657/451/497
f 666/455/506 658/450/498 657/451/497
f 666/455/506 667/454/507 658/450/498
f 667/454/507 659/449/499 658/450/498
f 667/454/507 442/351/281 659/449/499
f 442/351/281 431/340/270 659/449/499
f 607/361/447 660/454/500 599/351/439
f 607/361/447 668/458/508 660/454/500
f 668/458/508 661/455/501 660/454/500
f 668/458/508 669/459/509 661/455/501
f 669/459/509 662/456/502 661/455/501
f 669/459/509 670/460/510 662/456/502
f 670/460/510 663/457/503 662/456/502
f 670/460/510 671/461/511 663/457/503
f 671/461/511 664/457/504 663/457/503
f 671/461/511 672/460/512 664/457/504
f 672/460/512 665/456/505 664/457/504
f 672/460/512 673/459/513 665/456/505
f 673/459/513 666/455/506 665/456/505
f 673/459/513 674/458/514 666/455/506
f 674/458/514 667/454/507 666/455/506
f 674/458/514 452/361/291 667/454/507
f 452/361/291 442/351/281 667/454/507
f 614/370/454 668/458/508 607/361/447
f 614/370/454 675/462/515 668/458/508
f 675/462/515 669/459/509 668/458/508
f 675/462/515 676/463/516 669/459/509
f 676/463/516 670/460/510 669/459/509
f 676/463/516 677/464/517 670/460/510
f 677/464/517 671/461/511 670/460/510
f 677/464/517 678/464/518 671/461/511
f 678/464/518 672/460/512 671/461/511
f 678/464/518 679/463/519 672/460/512
f 679/463/519 673/459/513 672/460/512
f 679/463/519 680/462/520 673/459/513
f 680/462/520 674/458/514 673/459/513
f 680/462/520 461/370/300 674/458/514
f 461/370/300 452/361/291 674/458/514
f 620/378/460 675/462/515 614/370/454
f 620/378/460 681/465/521 675/462/515
f 681/465/521 676/463/516 675/462/515
f 681/465/521 682/466/522 676/463/516
f 682/466/522 677/464/517 676/463/516
f 682/466/522 683/467/523 677/464/517
f 683/467/523 678/464/518 677/464/517
f 683/467/523 684/466/524 678/464/518
f 684/466/524 679/463/519 678/464/518
f 684/466/524 685/465/525 679/463/519
f 685/465/525 680/462/520 679/463/519
f 685/465/525 469/378/308 680/462/520
f 469/378/308 461/370/300 680/462/520
f 625/385/465 681/465/521 620/378/460
f 625/385/465 686/468/526 681/465/521
f 686/468/526 682/466/522 681/465/521
f 686/468/526 687/469/527 682/466/522
f 687/469/527 683/467/523 682/466/522
f 687/469/527 688/469/528 683/467/523
f 688/469/528 684/466/524 683/467/523
f 688/469/528 689/468/529 684/466/524
f 689/468/529 685/465/525 684/466/524
f 689/468/529 476/385/315 685/465/525
f 476/385/315 469/378/308 685/465/525
f 629/391/469 686/468/526 625/385/465
f 629/391/469 690/470/530 686/468/526
f 690/470/530 687/469/527 686/468/526
f 690/470/530 691/471/531 687/469/527
f 691/471/531 688/469/528 687/469/527
f 691/471/531 692/470/532 688/469/528
f 692/470/532 689/468/529 688/469/528
f 692/470/532 482/391/321 689/468/529
f 482/391/321 476/385/315 689/468/529
f 632/396/472 690/470/530 629/391/469
f 632/396/472 693/472/533 690/470/530
f 693/472/533 691/471/531 690/470/530
f 693/472/533 694/472/534 691/471/531
f 694/472/534 692/470/532 691/471/531
f 694/472/534 487/396/326 692/470/532
f 487/396/326 482/391/321 692/470/532
f 634/400/474 693/472/533 632/396/472
f 634/400/474 695/473/535 693/472/533
f 695/473/535 694/472/534 693/472/533
f 695/473/535 491/400/330 694/472/534
f 491/400/330 487/396/326 694/472/534
f 635/403/475 695/473/535 634/400/474
f 635/403/475 494/403/333 695/473/535
f 494/403/333 491/400/330 695/473/535
f 496/405/50 494/403/333 635/403/475
