# Blender 4.5.2 LTS
# www.blender.org
mtllib bar_3L_white.mtl
o bar_3L_white
v 0.522005 30.000000 3.965600
v 0.000005 30.000000 4.000002
v 0.000000 30.000000 0.000001
v 1.035205 30.000000 3.863600
v 1.530805 30.000000 3.695600
v 2.000004 30.000000 3.463999
v 2.435204 30.000000 3.173599
v 2.828404 30.000000 2.828398
v 3.173603 30.000000 2.435197
v 3.464003 30.000000 1.999996
v 3.695602 30.000000 1.530797
v 3.863602 30.000000 1.035196
v 3.965601 30.000000 0.521996
v 4.000000 30.000000 -0.000004
v 3.965600 30.000000 -0.522004
v 3.863599 30.000000 -1.035205
v 3.695598 30.000000 -1.530804
v 3.463998 30.000000 -2.000004
v 3.173597 30.000000 -2.435204
v 2.828397 30.000000 -2.828403
v 2.435196 30.000000 -3.173603
v 1.999996 30.000000 -3.464003
v 1.530796 30.000000 -3.695601
v 1.035195 30.000000 -3.863600
v 0.521995 30.000000 -3.965600
v -0.000005 30.000000 -4.000000
v -0.522005 30.000000 -3.965600
v -1.035205 30.000000 -3.863599
v -1.530805 30.000000 -3.695598
v -2.000004 30.000000 -3.463998
v -2.435204 30.000000 -3.173597
v -2.828404 30.000000 -2.828397
v -3.173603 30.000000 -2.435195
v -3.464003 30.000000 -1.999996
v -3.695602 30.000000 -1.530796
v -3.863602 30.000000 -1.035195
v -3.965601 30.000000 -0.521995
v -4.000000 30.000000 0.000005
v -3.965600 30.000000 0.522005
v -3.863599 30.000000 1.035205
v -3.695598 30.000000 1.530805
v -3.463998 30.000000 2.000005
v -3.173597 30.000000 2.435205
v -2.828397 30.000000 2.828404
v -2.435196 30.000000 3.173604
v -1.999996 30.000000 3.464004
v -1.530796 30.000000 3.695602
v -1.035195 30.000000 3.863602
v -0.521995 30.000000 3.965601
v 0.522005 -29.999996 3.965660
v 0.000005 -29.999996 4.000061
v 0.000005 30.000000 4.000002
v 0.522005 30.000000 3.965600
v 1.035205 -29.999996 3.863659
v 1.035205 30.000000 3.863600
v 1.530805 -29.999996 3.695659
v 1.530805 30.000000 3.695600
v 2.000004 -29.999996 3.464058
v 2.000004 30.000000 3.463999
v 2.435204 -29.999996 3.173657
v 2.435204 30.000000 3.173599
v 2.828404 -29.999998 2.828457
v 2.828404 30.000000 2.828398
v 3.173603 -29.999998 2.435256
v 3.173603 30.000000 2.435197
v 3.464003 -29.999998 2.000056
v 3.464003 30.000000 1.999996
v 3.695602 -29.999998 1.530856
v 3.695602 30.000000 1.530797
v 3.863602 -29.999998 1.035256
v 3.863602 30.000000 1.035196
v 3.965601 -30.000000 0.522055
v 3.965601 30.000000 0.521996
v 4.000000 -30.000000 0.000055
v 4.000000 30.000000 -0.000004
v 3.965600 -30.000000 -0.521945
v 3.965600 30.000000 -0.522004
v 3.863599 -30.000002 -1.035145
v 3.863599 30.000000 -1.035205
v 3.695599 -30.000002 -1.530745
v 3.695599 30.000000 -1.530804
v 3.463998 -30.000002 -1.999944
v 3.463998 30.000000 -2.000004
v 3.173597 -30.000002 -2.435144
v 3.173597 30.000000 -2.435204
v 2.828397 -30.000002 -2.828344
v 2.828397 30.000000 -2.828403
v 2.435196 -30.000004 -3.173543
v 2.435196 30.000000 -3.173603
v 1.999996 -30.000004 -3.463943
v 1.999996 30.000000 -3.464003
v 1.530796 -30.000004 -3.695542
v 1.530796 30.000000 -3.695601
v 1.035195 -30.000004 -3.863542
v 1.035195 30.000000 -3.863600
v 0.521995 -30.000004 -3.965541
v 0.521995 30.000000 -3.965600
v -0.000005 -30.000004 -3.999940
v -0.000005 30.000000 -4.000000
v -0.522005 -30.000004 -3.965540
v -0.522005 30.000000 -3.965600
v -1.035205 -30.000004 -3.863539
v -1.035205 30.000000 -3.863599
v -1.530805 -30.000004 -3.695539
v -1.530805 30.000000 -3.695598
v -2.000004 -30.000004 -3.463938
v -2.000004 30.000000 -3.463998
v -2.435204 -30.000004 -3.173537
v -2.435204 30.000000 -3.173597
v -2.828404 -30.000002 -2.828337
v -2.828404 30.000000 -2.828397
v -3.173603 -30.000002 -2.435137
v -3.173603 30.000000 -2.435195
v -3.464003 -30.000002 -1.999936
v -3.464003 30.000000 -1.999996
v -3.695602 -30.000002 -1.530736
v -3.695602 30.000000 -1.530796
v -3.863602 -30.000002 -1.035136
v -3.863602 30.000000 -1.035195
v -3.965601 -30.000000 -0.521935
v -3.965601 30.000000 -0.521995
v -4.000000 -30.000000 0.000065
v -4.000000 30.000000 0.000005
v -3.965600 -30.000000 0.522065
v -3.965600 30.000000 0.522005
v -3.863599 -29.999998 1.035265
v -3.863599 30.000000 1.035205
v -3.695599 -29.999998 1.530865
v -3.695599 30.000000 1.530805
v -3.463998 -29.999998 2.000064
v -3.463998 30.000000 2.000005
v -3.173597 -29.999998 2.435264
v -3.173597 30.000000 2.435205
v -2.828397 -29.999998 2.828464
v -2.828397 30.000000 2.828404
v -2.435196 -29.999996 3.173663
v -2.435196 30.000000 3.173604
v -1.999996 -29.999996 3.464063
v -1.999996 30.000000 3.464004
v -1.530796 -29.999996 3.695662
v -1.530796 30.000000 3.695603
v -1.035195 -29.999996 3.863662
v -1.035195 30.000000 3.863602
v -0.521995 -29.999996 3.965661
v -0.521995 30.000000 3.965601
v 0.521995 -30.000004 -3.965541
v -0.000005 -30.000004 -3.999940
v 0.000000 -30.000000 0.000060
v 1.035195 -30.000004 -3.863542
v 1.530796 -30.000004 -3.695542
v 1.999996 -30.000004 -3.463943
v 2.435196 -30.000004 -3.173543
v 2.828397 -30.000002 -2.828344
v 3.173597 -30.000002 -2.435144
v 3.463998 -30.000002 -1.999944
v 3.695598 -30.000002 -1.530745
v 3.863599 -30.000002 -1.035145
v 3.965600 -30.000000 -0.521945
v 4.000000 -30.000000 0.000055
v 3.965601 -30.000000 0.522055
v 3.863602 -29.999998 1.035256
v 3.695602 -29.999998 1.530856
v 3.464003 -29.999998 2.000056
v 3.173603 -29.999998 2.435256
v 2.828404 -29.999998 2.828457
v 2.435204 -29.999996 3.173657
v 2.000004 -29.999996 3.464058
v 1.530805 -29.999996 3.695658
v 1.035205 -29.999996 3.863659
v 0.522005 -29.999996 3.965660
v 0.000005 -29.999996 4.000061
v -0.521995 -29.999996 3.965661
v -1.035195 -29.999996 3.863662
v -1.530796 -29.999996 3.695662
v -1.999996 -29.999996 3.464063
v -2.435196 -29.999996 3.173663
v -2.828397 -29.999998 2.828464
v -3.173597 -29.999998 2.435264
v -3.463998 -29.999998 2.000064
v -3.695598 -29.999998 1.530865
v -3.863599 -29.999998 1.035265
v -3.965600 -30.000000 0.522065
v -4.000000 -30.000000 0.000065
v -3.965601 -30.000000 -0.521935
v -3.863602 -30.000002 -1.035136
v -3.695602 -30.000002 -1.530736
v -3.464003 -30.000002 -1.999936
v -3.173603 -30.000002 -2.435137
v -2.828404 -30.000002 -2.828337
v -2.435204 -30.000004 -3.173537
v -2.000004 -30.000004 -3.463938
v -1.530805 -30.000004 -3.695539
v -1.035205 -30.000004 -3.863539
v -0.522005 -30.000004 -3.965540
vn -0.0000 1.0000 -0.0000
vn 0.0220 -0.0000 0.9998
vn -0.0220 -0.0000 0.9998
vn 0.1091 -0.0000 0.9940
vn 0.1522 -0.0000 0.9884
vn 0.2374 -0.0000 0.9714
vn 0.2795 -0.0000 0.9601
vn 0.3623 -0.0000 0.9321
vn 0.4029 -0.0000 0.9153
vn 0.4810 -0.0000 0.8767
vn 0.5185 -0.0000 0.8550
vn 0.5911 -0.0000 0.8066
vn 0.6261 -0.0000 0.7798
vn 0.6916 -0.0000 0.7223
vn 0.7223 -0.0000 0.6916
vn 0.7798 -0.0000 0.6261
vn 0.8066 -0.0000 0.5911
vn 0.8550 -0.0000 0.5185
vn 0.8767 -0.0000 0.4810
vn 0.9153 -0.0000 0.4029
vn 0.9321 -0.0000 0.3623
vn 0.9601 -0.0000 0.2795
vn 0.9714 -0.0000 0.2374
vn 0.9884 -0.0000 0.1522
vn 0.9940 -0.0000 0.1091
vn 0.9998 -0.0000 0.0220
vn 0.9998 -0.0000 -0.0220
vn 0.9940 -0.0000 -0.1091
vn 0.9884 -0.0000 -0.1522
vn 0.9714 -0.0000 -0.2374
vn 0.9601 -0.0000 -0.2795
vn 0.9321 -0.0000 -0.3623
vn 0.9153 -0.0000 -0.4029
vn 0.8767 -0.0000 -0.4810
vn 0.8550 -0.0000 -0.5185
vn 0.8066 -0.0000 -0.5911
vn 0.7798 -0.0000 -0.6261
vn 0.7223 -0.0000 -0.6916
vn 0.6916 -0.0000 -0.7223
vn 0.6261 -0.0000 -0.7798
vn 0.5911 -0.0000 -0.8066
vn 0.5185 -0.0000 -0.8550
vn 0.4810 -0.0000 -0.8767
vn 0.4029 -0.0000 -0.9153
vn 0.3623 -0.0000 -0.9321
vn 0.2795 -0.0000 -0.9601
vn 0.2374 -0.0000 -0.9714
vn 0.1522 -0.0000 -0.9884
vn 0.1091 -0.0000 -0.9940
vn 0.0220 -0.0000 -0.9998
vn -0.0220 -0.0000 -0.9998
vn -0.1091 -0.0000 -0.9940
vn -0.1522 -0.0000 -0.9884
vn -0.2374 -0.0000 -0.9714
vn -0.2795 -0.0000 -0.9601
vn -0.3623 -0.0000 -0.9321
vn -0.4029 -0.0000 -0.9153
vn -0.4810 -0.0000 -0.8767
vn -0.5185 -0.0000 -0.8550
vn -0.5911 -0.0000 -0.8066
vn -0.6261 -0.0000 -0.7798
vn -0.6916 -0.0000 -0.7223
vn -0.7223 -0.0000 -0.6916
vn -0.7798 -0.0000 -0.6261
vn -0.8066 -0.0000 -0.5911
vn -0.8551 -0.0000 -0.5185
vn -0.8767 -0.0000 -0.4810
vn -0.9153 -0.0000 -0.4029
vn -0.9321 -0.0000 -0.3623
vn -0.9601 -0.0000 -0.2795
vn -0.9714 -0.0000 -0.2374
vn -0.9884 -0.0000 -0.1522
vn -0.9940 -0.0000 -0.1091
vn -0.9998 -0.0000 -0.0220
vn -0.9998 -0.0000 0.0220
vn -0.9940 -0.0000 0.1091
vn -0.9884 -0.0000 0.1522
vn -0.9714 -0.0000 0.2374
vn -0.9601 -0.0000 0.2795
vn -0.9321 -0.0000 0.3623
vn -0.9153 -0.0000 0.4029
vn -0.8767 -0.0000 0.4810
vn -0.8550 -0.0000 0.5185
vn -0.8066 -0.0000 0.5911
vn -0.7798 -0.0000 0.6261
vn -0.7223 -0.0000 0.6916
vn -0.6916 -0.0000 0.7223
vn -0.6261 -0.0000 0.7798
vn -0.5911 -0.0000 0.8066
vn -0.5185 -0.0000 0.8550
vn -0.4810 -0.0000 0.8767
vn -0.4029 -0.0000 0.9153
vn -0.3623 -0.0000 0.9321
vn -0.2795 -0.0000 0.9601
vn -0.2374 -0.0000 0.9714
vn -0.1522 -0.0000 0.9884
vn -0.1091 -0.0000 0.9940
vn -0.0000 -1.0000 -0.0000
vt 0.000000 0.000000
vt 0.000000 4.000000
vt -0.522000 3.965600
vt -1.035200 3.863600
vt -1.530800 3.695600
vt -2.000000 3.464000
vt -2.435200 3.173600
vt -2.828400 2.828400
vt -3.173600 2.435200
vt -3.464000 2.000000
vt -3.695600 1.530800
vt -3.863600 1.035200
vt -3.965600 0.522000
vt -4.000000 0.000000
vt -3.965600 -0.522000
vt -3.863600 -1.035200
vt -3.695600 -1.530800
vt -3.464000 -2.000000
vt -3.173600 -2.435200
vt -2.828400 -2.828400
vt -2.435200 -3.173600
vt -2.000000 -3.464000
vt -1.530800 -3.695600
vt -1.035200 -3.863600
vt -0.522000 -3.965600
vt 0.000000 -4.000000
vt 0.522000 -3.965600
vt 1.035200 -3.863600
vt 1.530800 -3.695600
vt 2.000000 -3.464000
vt 2.435200 -3.173600
vt 2.828400 -2.828400
vt 3.173600 -2.435200
vt 3.464000 -2.000000
vt 3.695600 -1.530800
vt 3.863600 -1.035200
vt 3.965600 -0.522000
vt 4.000000 0.000000
vt 3.965600 0.522000
vt 3.863600 1.035200
vt 3.695600 1.530800
vt 3.464000 2.000000
vt 3.173600 2.435200
vt 2.828400 2.828400
vt 2.435200 3.173600
vt 2.000000 3.464000
vt 1.530800 3.695600
vt 1.035200 3.863600
vt 0.522000 3.965600
vt 4.000000 4.000000
vt 64.000000 4.000000
vt 63.965599 3.443600
vt 3.965600 3.443600
vt 63.863602 2.828400
vt 3.863600 2.828400
vt 63.695599 2.164800
vt 3.695600 2.164800
vt 63.464001 1.464000
vt 3.464000 1.464000
vt 63.173599 0.738400
vt 3.173600 0.738400
vt 62.828400 0.000000
vt 2.828400 0.000000
vt 62.435200 -0.738400
vt 2.435200 -0.738400
vt 62.000000 -1.464000
vt 2.000000 -1.464000
vt 61.530800 -2.164800
vt 1.530800 -2.164800
vt 61.035198 -2.828400
vt 1.035200 -2.828400
vt 60.521999 -3.443600
vt 0.522000 -3.443600
vt 60.000000 -4.000000
vt -4.000000 -4.000000
vt 56.034401 -4.487600
vt -3.965600 -4.487600
vt 56.136398 -4.898800
vt -3.863600 -4.898800
vt 56.304401 -5.226400
vt -3.695600 -5.226400
vt 56.535999 -5.464000
vt -3.464000 -5.464000
vt 56.826401 -5.608800
vt -3.173600 -5.608800
vt 57.171600 -5.656800
vt -2.828400 -5.656800
vt 56.000000 -4.000000
vt 63.965599 4.487600
vt 3.965600 4.487600
vt 63.863602 4.898800
vt 3.863600 4.898800
vt 63.695599 5.226400
vt 3.695600 5.226400
vt 63.464001 5.464000
vt 3.464000 5.464000
vt 63.173599 5.608800
vt 3.173600 5.608800
vt 62.828400 5.656800
vt 2.828400 5.656800
vt 60.000000 60.000000
vt 60.000000 56.000000
vt 59.478001 56.034401
vt 58.964802 56.136398
vt 58.469200 56.304401
vt 58.000000 56.535999
vt 57.564800 56.826401
vt 57.171600 57.171600
vt 56.826401 57.564800
vt 56.535999 58.000000
vt 56.304401 58.469200
vt 56.136398 58.964802
vt 56.034401 59.478001
vt 56.000000 60.000000
vt 56.034401 60.521999
vt 56.136398 61.035198
vt 56.304401 61.530800
vt 56.535999 62.000000
vt 56.826401 62.435200
vt 57.171600 62.828400
vt 57.564800 63.173599
vt 58.000000 63.464001
vt 58.469200 63.695599
vt 58.964802 63.863602
vt 59.478001 63.965599
vt 60.000000 64.000000
vt 60.521999 63.965599
vt 61.035198 63.863602
vt 61.530800 63.695599
vt 62.000000 63.464001
vt 62.435200 63.173599
vt 62.828400 62.828400
vt 63.173599 62.435200
vt 63.464001 62.000000
vt 63.695599 61.530800
vt 63.863602 61.035198
vt 63.965599 60.521999
vt 64.000000 60.000000
vt 63.965599 59.478001
vt 63.863602 58.964802
vt 63.695599 58.469200
vt 63.464001 58.000000
vt 63.173599 57.564800
vt 62.828400 57.171600
vt 62.435200 56.826401
vt 62.000000 56.535999
vt 61.530800 56.304401
vt 61.035198 56.136398
vt 60.521999 56.034401
s 1
usemtl 15
f 3/1/1 2/2/1 1/3/1
f 3/1/1 1/3/1 4/4/1
f 3/1/1 4/4/1 5/5/1
f 3/1/1 5/5/1 6/6/1
f 3/1/1 6/6/1 7/7/1
f 3/1/1 7/7/1 8/8/1
f 3/1/1 8/8/1 9/9/1
f 3/1/1 9/9/1 10/10/1
f 3/1/1 10/10/1 11/11/1
f 3/1/1 11/11/1 12/12/1
f 3/1/1 12/12/1 13/13/1
f 3/1/1 13/13/1 14/14/1
f 3/1/1 14/14/1 15/15/1
f 3/1/1 15/15/1 16/16/1
f 3/1/1 16/16/1 17/17/1
f 3/1/1 17/17/1 18/18/1
f 3/1/1 18/18/1 19/19/1
f 3/1/1 19/19/1 20/20/1
f 3/1/1 20/20/1 21/21/1
f 3/1/1 21/21/1 22/22/1
f 3/1/1 22/22/1 23/23/1
f 3/1/1 23/23/1 24/24/1
f 3/1/1 24/24/1 25/25/1
f 3/1/1 25/25/1 26/26/1
f 3/1/1 26/26/1 27/27/1
f 3/1/1 27/27/1 28/28/1
f 3/1/1 28/28/1 29/29/1
f 3/1/1 29/29/1 30/30/1
f 3/1/1 30/30/1 31/31/1
f 3/1/1 31/31/1 32/32/1
f 3/1/1 32/32/1 33/33/1
f 3/1/1 33/33/1 34/34/1
f 3/1/1 34/34/1 35/35/1
f 3/1/1 35/35/1 36/36/1
f 3/1/1 36/36/1 37/37/1
f 3/1/1 37/37/1 38/38/1
f 3/1/1 38/38/1 39/39/1
f 3/1/1 39/39/1 40/40/1
f 3/1/1 40/40/1 41/41/1
f 3/1/1 41/41/1 42/42/1
f 3/1/1 42/42/1 43/43/1
f 3/1/1 43/43/1 44/44/1
f 3/1/1 44/44/1 45/45/1
f 3/1/1 45/45/1 46/46/1
f 3/1/1 46/46/1 47/47/1
f 3/1/1 47/47/1 48/48/1
f 3/1/1 48/48/1 49/49/1
f 3/1/1 49/49/1 2/2/1
f 52/50/2 51/51/3 50/52/4
f 50/52/4 53/53/5 52/50/2
f 53/53/5 50/52/4 54/54/6
f 54/54/6 55/55/7 53/53/5
f 55/55/7 54/54/6 56/56/8
f 56/56/8 57/57/9 55/55/7
f 57/57/9 56/56/8 58/58/10
f 58/58/10 59/59/11 57/57/9
f 59/59/11 58/58/10 60/60/12
f 60/60/12 61/61/13 59/59/11
f 61/61/13 60/60/12 62/62/14
f 62/62/14 63/63/15 61/61/13
f 63/63/15 62/62/14 64/64/16
f 64/64/16 65/65/17 63/63/15
f 65/65/17 64/64/16 66/66/18
f 66/66/18 67/67/19 65/65/17
f 67/67/19 66/66/18 68/68/20
f 68/68/20 69/69/21 67/67/19
f 69/69/21 68/68/20 70/70/22
f 70/70/22 71/71/23 69/69/21
f 71/71/23 70/70/22 72/72/24
f 72/72/24 73/73/25 71/71/23
f 73/73/25 72/72/24 74/74/26
f 74/74/26 75/75/27 73/73/25
f 75/75/27 74/74/26 76/76/28
f 76/76/28 77/77/29 75/75/27
f 77/77/29 76/76/28 78/78/30
f 78/78/30 79/79/31 77/77/29
f 79/79/31 78/78/30 80/80/32
f 80/80/32 81/81/33 79/79/31
f 81/81/33 80/80/32 82/82/34
f 82/82/34 83/83/35 81/81/33
f 83/83/35 82/82/34 84/84/36
f 84/84/36 85/85/37 83/83/35
f 85/85/37 84/84/36 86/86/38
f 86/86/38 87/87/39 85/85/37
f 87/87/39 86/86/38 88/84/40
f 88/84/40 89/85/41 87/87/39
f 89/85/41 88/84/40 90/82/42
f 90/82/42 91/83/43 89/85/41
f 91/83/43 90/82/42 92/80/44
f 92/80/44 93/81/45 91/83/43
f 93/81/45 92/80/44 94/78/46
f 94/78/46 95/79/47 93/81/45
f 95/79/47 94/78/46 96/76/48
f 96/76/48 97/77/49 95/79/47
f 97/77/49 96/76/48 98/88/50
f 98/88/50 99/26/51 97/77/49
f 99/26/51 98/88/50 100/72/52
f 100/72/52 101/73/53 99/26/51
f 101/73/53 100/72/52 102/70/54
f 102/70/54 103/71/55 101/73/53
f 103/71/55 102/70/54 104/68/56
f 104/68/56 105/69/57 103/71/55
f 105/69/57 104/68/56 106/66/58
f 106/66/58 107/67/59 105/69/57
f 107/67/59 106/66/58 108/64/60
f 108/64/60 109/65/61 107/67/59
f 109/65/61 108/64/60 110/62/62
f 110/62/62 111/63/63 109/65/61
f 111/63/63 110/62/62 112/60/64
f 112/60/64 113/61/65 111/63/63
f 113/61/65 112/60/64 114/58/66
f 114/58/66 115/59/67 113/61/65
f 115/59/67 114/58/66 116/56/68
f 116/56/68 117/57/69 115/59/67
f 117/57/69 116/56/68 118/54/70
f 118/54/70 119/55/71 117/57/69
f 119/55/71 118/54/70 120/52/72
f 120/52/72 121/53/73 119/55/71
f 121/53/73 120/52/72 122/51/74
f 122/51/74 123/50/75 121/53/73
f 123/50/75 122/51/74 124/89/76
f 124/89/76 125/90/77 123/50/75
f 125/90/77 124/89/76 126/91/78
f 126/91/78 127/92/79 125/90/77
f 127/92/79 126/91/78 128/93/80
f 128/93/80 129/94/81 127/92/79
f 129/94/81 128/93/80 130/95/82
f 130/95/82 131/96/83 129/94/81
f 131/96/83 130/95/82 132/97/84
f 132/97/84 133/98/85 131/96/83
f 133/98/85 132/97/84 134/99/86
f 134/99/86 135/100/87 133/98/85
f 135/100/87 134/99/86 136/97/88
f 136/97/88 137/98/89 135/100/87
f 137/98/89 136/97/88 138/95/90
f 138/95/90 139/96/91 137/98/89
f 139/96/91 138/95/90 140/93/92
f 140/93/92 141/94/93 139/96/91
f 141/94/93 140/93/92 142/91/94
f 142/91/94 143/92/95 141/94/93
f 143/92/95 142/91/94 144/89/96
f 144/89/96 145/90/97 143/92/95
f 145/90/97 144/89/96 51/51/3
f 51/51/3 52/50/2 145/90/97
f 148/101/98 147/102/98 146/103/98
f 148/101/98 146/103/98 149/104/98
f 148/101/98 149/104/98 150/105/98
f 148/101/98 150/105/98 151/106/98
f 148/101/98 151/106/98 152/107/98
f 148/101/98 152/107/98 153/108/98
f 148/101/98 153/108/98 154/109/98
f 148/101/98 154/109/98 155/110/98
f 148/101/98 155/110/98 156/111/98
f 148/101/98 156/111/98 157/112/98
f 148/101/98 157/112/98 158/113/98
f 148/101/98 158/113/98 159/114/98
f 148/101/98 159/114/98 160/115/98
f 148/101/98 160/115/98 161/116/98
f 148/101/98 161/116/98 162/117/98
f 148/101/98 162/117/98 163/118/98
f 148/101/98 163/118/98 164/119/98
f 148/101/98 164/119/98 165/120/98
f 148/101/98 165/120/98 166/121/98
f 148/101/98 166/121/98 167/122/98
f 148/101/98 167/122/98 168/123/98
f 148/101/98 168/123/98 169/124/98
f 148/101/98 169/124/98 170/125/98
f 148/101/98 170/125/98 171/126/98
f 148/101/98 171/126/98 172/127/98
f 148/101/98 172/127/98 173/128/98
f 148/101/98 173/128/98 174/129/98
f 148/101/98 174/129/98 175/130/98
f 148/101/98 175/130/98 176/131/98
f 148/101/98 176/131/98 177/132/98
f 148/101/98 177/132/98 178/133/98
f 148/101/98 178/133/98 179/134/98
f 148/101/98 179/134/98 180/135/98
f 148/101/98 180/135/98 181/136/98
f 148/101/98 181/136/98 182/137/98
f 148/101/98 182/137/98 183/138/98
f 148/101/98 183/138/98 184/139/98
f 148/101/98 184/139/98 185/140/98
f 148/101/98 185/140/98 186/141/98
f 148/101/98 186/141/98 187/142/98
f 148/101/98 187/142/98 188/143/98
f 148/101/98 188/143/98 189/144/98
f 148/101/98 189/144/98 190/145/98
f 148/101/98 190/145/98 191/146/98
f 148/101/98 191/146/98 192/147/98
f 148/101/98 192/147/98 193/148/98
f 148/101/98 193/148/98 194/149/98
f 148/101/98 194/149/98 147/102/98
