# Blender 4.5.2 LTS
# www.blender.org
mtllib brick_modified1*1_with_headlight_light_bluish_gray.mtl
o brick_modified1*1_with_headlight_light_bluish_gray
v 14.000010 -9.999990 9.999990
v 14.000010 -5.999995 5.999980
v 13.999990 -6.000006 -6.000017
v 13.999990 -10.000010 -10.000013
v 14.000010 10.000011 9.999968
v 14.000010 6.000002 5.999969
v 13.999990 9.999990 -10.000032
v 13.999990 5.999990 -6.000028
v 9.999990 5.999990 -10.000025
v 9.999990 9.999990 -10.000029
v 10.000010 10.000011 9.999968
v 10.000010 6.000011 9.999979
v 10.000010 2.000001 5.999979
v 10.000010 6.000002 5.999979
v 9.999990 5.999990 -6.000024
v 9.999990 1.999990 -6.000021
v 5.999990 -10.000006 -6.000006
v 5.999990 -6.000006 -6.000010
v 6.000010 -5.999995 5.999990
v 6.000010 -9.999994 5.999990
v -5.999994 -9.999994 6.000010
v -5.999994 2.000001 5.999999
v -6.000006 1.999990 -6.000006
v -6.000006 -10.000006 -5.999994
v -10.000010 -10.000010 -9.999990
v -10.000010 5.999990 -10.000006
v -9.999990 6.000011 9.999998
v -9.999990 -9.999990 10.000010
v -4.000004 2.000000 -4.000008
v -0.000004 2.000000 -4.000011
v -0.522004 2.000000 -3.965611
v -1.035204 2.000000 -3.863610
v -1.530804 2.000000 -3.695610
v -2.000003 2.000001 -3.464009
v -2.435203 2.000001 -3.173609
v -2.828403 2.000001 -2.828408
v -3.173603 2.000001 -2.435208
v -3.464002 2.000001 -2.000008
v -3.695601 2.000001 -1.530807
v -3.863601 2.000001 -1.035208
v -3.965600 2.000001 -0.522008
v -4.000000 2.000001 -0.000008
v -3.999996 2.000001 3.999990
v -3.965600 2.000001 0.521989
v -3.863599 2.000001 1.035189
v -3.695598 2.000001 1.530789
v -3.463998 2.000001 1.999990
v -3.173598 2.000001 2.435189
v -2.828397 2.000001 2.828389
v -2.435197 2.000001 3.173589
v -1.999997 2.000001 3.463989
v -1.530796 2.000001 3.695589
v -1.035196 2.000001 3.863589
v -0.521996 2.000001 3.965589
v 0.000000 2.000001 3.999990
v 4.000000 2.000001 3.999990
v 0.522000 2.000001 3.965589
v 1.035200 2.000001 3.863589
v 1.530800 2.000001 3.695589
v 2.000000 2.000001 3.463989
v 2.435200 2.000001 3.173589
v 2.828400 2.000001 2.828389
v 3.173600 2.000001 2.435189
v 3.464000 2.000001 1.999990
v 3.695600 2.000001 1.530789
v 3.863600 2.000001 1.035189
v 3.965600 2.000001 0.521989
v 4.000000 2.000001 -0.000015
v 4.000000 2.000000 -4.000015
v 3.965600 2.000001 -0.522015
v 3.863600 2.000001 -1.035215
v 3.695600 2.000001 -1.530815
v 3.464000 2.000001 -2.000015
v 3.173600 2.000001 -2.435214
v 2.828400 2.000001 -2.828414
v 2.435200 2.000001 -3.173614
v 2.000000 2.000001 -3.464013
v 1.530800 2.000000 -3.695612
v 1.035200 2.000000 -3.863612
v 0.522000 2.000000 -3.965612
v 0.522000 6.000000 -3.965615
v -0.000004 6.000000 -4.000015
v -0.000004 2.000000 -4.000011
v 0.522000 2.000000 -3.965612
v 1.035200 6.000000 -3.863616
v 1.035200 2.000000 -3.863612
v 1.530800 6.000000 -3.695616
v 1.530800 2.000000 -3.695613
v 2.000000 6.000000 -3.464016
v 2.000000 2.000001 -3.464013
v 2.435200 6.000000 -3.173617
v 2.435200 2.000001 -3.173614
v 2.828400 6.000000 -2.828417
v 2.828400 2.000001 -2.828414
v 3.173600 6.000000 -2.435218
v 3.173600 2.000001 -2.435214
v 3.464000 6.000000 -2.000019
v 3.464000 2.000001 -2.000015
v 3.695600 6.000000 -1.530818
v 3.695600 2.000001 -1.530815
v 3.863600 6.000000 -1.035218
v 3.863600 2.000001 -1.035215
v 3.965600 6.000000 -0.522017
v 3.965600 2.000001 -0.522015
v 4.000000 6.000000 -0.000018
v 4.000000 2.000001 -0.000015
v 3.965600 6.000000 0.521979
v 3.965600 2.000001 0.521989
v 3.863600 6.000000 1.035179
v 3.863600 2.000001 1.035189
v 3.695600 6.000000 1.530779
v 3.695600 2.000001 1.530789
v 3.464000 6.000000 1.999979
v 3.464000 2.000001 1.999990
v 3.173600 6.000000 2.435179
v 3.173600 2.000001 2.435189
v 2.828400 6.000002 2.828379
v 2.828400 2.000001 2.828389
v 2.435200 6.000002 3.173579
v 2.435200 2.000001 3.173589
v 2.000000 6.000002 3.463979
v 2.000000 2.000001 3.463989
v 1.530800 6.000002 3.695589
v 1.530800 2.000001 3.695589
v 1.035200 6.000002 3.863589
v 1.035200 2.000001 3.863589
v 0.522000 6.000002 3.965589
v 0.522000 2.000001 3.965589
v 0.000000 6.000002 3.999990
v 0.000000 2.000001 3.999990
v -0.521996 6.000002 3.965589
v -0.521996 2.000001 3.965589
v -1.035196 6.000002 3.863589
v -1.035196 2.000001 3.863589
v -1.530796 6.000002 3.695589
v -1.530796 2.000001 3.695589
v -1.999997 6.000002 3.463989
v -1.999997 2.000001 3.463989
v -2.435197 6.000002 3.173589
v -2.435197 2.000001 3.173589
v -2.828397 6.000002 2.828389
v -2.828397 2.000001 2.828389
v -3.173598 6.000000 2.435189
v -3.173598 2.000001 2.435189
v -3.463998 6.000000 1.999990
v -3.463998 2.000001 1.999990
v -3.695599 6.000000 1.530789
v -3.695599 2.000001 1.530789
v -3.863599 6.000000 1.035189
v -3.863599 2.000001 1.035189
v -3.965600 6.000000 0.521989
v -3.965600 2.000001 0.521989
v -4.000000 6.000000 -0.000010
v -4.000000 2.000001 -0.000008
v -3.965600 6.000000 -0.522011
v -3.965600 2.000001 -0.522008
v -3.863601 6.000000 -1.035211
v -3.863601 2.000001 -1.035208
v -3.695601 6.000000 -1.530811
v -3.695601 2.000001 -1.530807
v -3.464002 6.000000 -2.000011
v -3.464002 2.000001 -2.000008
v -3.173603 6.000000 -2.435213
v -3.173603 2.000001 -2.435208
v -2.828403 6.000000 -2.828413
v -2.828403 2.000001 -2.828408
v -2.435203 6.000000 -3.173614
v -2.435203 2.000001 -3.173609
v -2.000003 6.000000 -3.464014
v -2.000003 2.000001 -3.464009
v -1.530804 6.000000 -3.695613
v -1.530804 2.000000 -3.695610
v -1.035204 6.000000 -3.863615
v -1.035204 2.000000 -3.863610
v -0.522004 6.000000 -3.965614
v -0.522004 2.000000 -3.965611
v 5.999990 5.999990 -6.000021
v -0.000006 5.999990 -6.000015
v 0.782990 5.999990 -5.948415
v 1.552790 5.999990 -5.795416
v 2.296190 5.999990 -5.543417
v 3.000000 5.999990 -5.196018
v 3.652790 6.000000 -4.760418
v 4.242600 6.000000 -4.242620
v 4.760400 6.000000 -3.652820
v 5.196000 6.000000 -3.000021
v 5.543400 6.000000 -2.296220
v 5.795400 6.000000 -1.552820
v 5.948400 6.000000 -0.783020
v 6.000000 6.000000 -0.000020
v 6.000010 6.000002 5.999979
v 5.948400 6.000000 0.782979
v 5.795400 6.000000 1.552779
v 5.543400 6.000000 2.296179
v 5.196000 6.000002 2.999979
v 4.760400 6.000002 3.652779
v 4.242600 6.000002 4.242579
v 3.652800 6.000002 4.760379
v 3.000000 6.000002 5.195979
v 2.296210 6.000002 5.543379
v 1.552810 6.000002 5.795379
v 0.783010 6.000002 5.948389
v 0.000010 6.000002 5.999990
v -5.999994 6.000002 5.999990
v -0.782994 6.000002 5.948389
v -1.552794 6.000002 5.795389
v -2.296195 6.000002 5.543389
v -2.999995 6.000002 5.195989
v -3.652796 6.000002 4.760389
v -4.242596 6.000002 4.242589
v -4.760396 6.000002 3.652789
v -5.195997 6.000002 2.999990
v -5.543397 6.000000 2.296189
v -5.795399 6.000000 1.552789
v -5.948399 6.000000 0.782990
v -6.000000 6.000000 -0.000009
v -6.000006 5.999990 -6.000010
v -5.948401 6.000000 -0.783010
v -5.795402 6.000000 -1.552809
v -5.543402 6.000000 -2.296209
v -5.196003 6.000000 -3.000010
v -4.760403 6.000000 -3.652811
v -4.242604 6.000000 -4.242611
v -3.652805 6.000000 -4.760411
v -3.000005 5.999990 -5.196012
v -2.296205 5.999990 -5.543412
v -1.552806 5.999990 -5.795414
v -0.783006 5.999990 -5.948414
v 14.000010 -9.999990 9.999990
v 13.999990 -10.000010 -10.000013
v 5.999990 -10.000006 -6.000006
v 6.000010 -9.999994 5.999990
v -9.999990 -9.999990 10.000010
v -5.999994 -9.999994 6.000010
v -10.000010 -10.000010 -9.999990
v -6.000006 -10.000006 -5.999994
v 14.000010 -5.999995 5.999980
v 6.000010 -5.999995 5.999990
v 5.999990 -6.000006 -6.000010
v 13.999990 -6.000006 -6.000017
v 10.000010 2.000001 5.999979
v 9.999990 1.999990 -6.000021
v -5.999994 2.000001 5.999999
v -6.000006 1.999990 -6.000006
v 10.000010 6.000011 9.999979
v 9.999990 5.999990 -10.000025
v -9.999990 6.000011 9.999998
v -10.000010 5.999990 -10.000006
v 14.000010 6.000002 5.999969
v 13.999990 5.999990 -6.000028
v 9.999990 5.999990 -6.000024
v 10.000010 6.000002 5.999979
v 14.000010 10.000011 9.999968
v 10.000010 10.000011 9.999968
v 9.999990 9.999990 -10.000029
v 13.999990 9.999990 -10.000032
v 13.999990 9.999990 -10.000032
v 9.999990 9.999990 -10.000029
v 9.999990 5.999990 -10.000025
v 13.999990 -10.000010 -10.000013
v -10.000010 5.999990 -10.000006
v -10.000010 -10.000010 -9.999990
v 13.999990 5.999990 -6.000028
v 13.999990 -6.000006 -6.000017
v 9.999990 1.999990 -6.000021
v 9.999990 5.999990 -6.000024
v 5.999990 -6.000006 -6.000010
v -6.000006 1.999990 -6.000006
v 5.999990 -10.000006 -6.000006
v -6.000006 -10.000006 -5.999994
v 14.000010 6.000002 5.999969
v 10.000010 6.000002 5.999979
v 10.000010 2.000001 5.999979
v 14.000010 -5.999995 5.999980
v 6.000010 -5.999995 5.999990
v -5.999994 2.000001 5.999999
v -5.999994 -9.999994 6.000010
v 6.000010 -9.999994 5.999990
v 14.000010 10.000011 9.999968
v 14.000010 -9.999990 9.999990
v 10.000010 6.000011 9.999979
v 10.000010 10.000011 9.999968
v -9.999990 -9.999990 10.000010
v -9.999990 6.000011 9.999998
v -14.000006 -0.783006 -5.948395
v -14.000006 -0.000006 -5.999996
v -10.000006 -0.000006 -6.000000
v -10.000006 -0.783006 -5.948400
v -14.000006 -1.552806 -5.795394
v -10.000006 -1.552806 -5.795399
v -14.000005 -2.296206 -5.543394
v -10.000006 -2.296206 -5.543397
v -14.000005 -3.000004 -5.195993
v -10.000005 -3.000004 -5.195998
v -14.000005 -3.652804 -4.760393
v -10.000005 -3.652804 -4.760396
v -14.000004 -4.242605 -4.242591
v -10.000004 -4.242605 -4.242596
v -14.000003 -4.760404 -3.652792
v -10.000004 -4.760404 -3.652795
v -14.000003 -5.196002 -2.999991
v -10.000003 -5.196002 -2.999996
v -14.000002 -5.543403 -2.296190
v -10.000002 -5.543403 -2.296195
v -14.000001 -5.795403 -1.552790
v -10.000002 -5.795403 -1.552794
v -14.000001 -5.948400 -0.782990
v -10.000001 -5.948400 -0.782994
v -14.000000 -6.000000 0.000010
v -10.000000 -6.000000 0.000010
v -13.999999 -5.948399 0.783010
v -9.999999 -5.948399 0.783010
v -13.999999 -5.795399 1.552810
v -9.999998 -5.795399 1.552810
v -13.999998 -5.543398 2.296210
v -9.999998 -5.543398 2.296210
v -13.999997 -5.195998 3.000010
v -9.999997 -5.195998 3.000010
v -13.999996 -4.760396 3.652810
v -9.999996 -4.760396 3.652810
v -13.999996 -4.242596 4.242610
v -9.999996 -4.242596 4.242600
v -13.999995 -3.652796 4.760409
v -9.999995 -3.652796 4.760399
v -13.999995 -2.999996 5.196009
v -9.999995 -2.999996 5.195999
v -13.999995 -2.296195 5.543409
v -9.999994 -2.296195 5.543399
v -13.999995 -1.552794 5.795409
v -9.999994 -1.552794 5.795399
v -13.999994 -0.782995 5.948409
v -9.999994 -0.782995 5.948399
v -13.999994 0.000001 5.999999
v -9.999994 0.000001 5.999999
v -13.999994 0.783001 5.948399
v -9.999994 0.783001 5.948399
v -13.999995 1.552801 5.795399
v -9.999994 1.552801 5.795399
v -13.999995 2.296201 5.543399
v -9.999994 2.296201 5.543399
v -13.999995 3.000001 5.195999
v -9.999995 3.000001 5.195999
v -13.999995 3.652801 4.760399
v -9.999995 3.652801 4.760399
v -13.999996 4.242601 4.242599
v -9.999996 4.242601 4.242599
v -13.999996 4.760401 3.652799
v -9.999996 4.760401 3.652799
v -13.999997 5.196001 2.999999
v -9.999997 5.196001 2.999999
v -13.999998 5.543401 2.296199
v -9.999998 5.543401 2.296199
v -13.999999 5.795401 1.552799
v -9.999998 5.795401 1.552799
v -13.999999 5.948400 0.782999
v -9.999999 5.948400 0.782999
v -14.000000 6.000000 -0.000001
v -10.000000 6.000000 -0.000005
v -14.000001 5.948400 -0.783001
v -10.000001 5.948400 -0.783005
v -14.000001 5.795401 -1.552801
v -10.000002 5.795401 -1.552805
v -14.000002 5.543401 -2.296201
v -10.000002 5.543401 -2.296205
v -14.000003 5.196001 -3.000001
v -10.000003 5.196001 -3.000004
v -14.000003 4.760401 -3.652801
v -10.000004 4.760401 -3.652804
v -14.000004 4.242600 -4.242600
v -10.000004 4.242600 -4.242604
v -14.000005 3.652790 -4.760399
v -10.000005 3.652790 -4.760403
v -14.000005 2.999990 -5.195999
v -10.000005 2.999990 -5.196003
v -14.000005 2.296190 -5.543398
v -10.000006 2.296190 -5.543402
v -14.000006 1.552790 -5.795398
v -10.000006 1.552790 -5.795402
v -14.000006 0.782990 -5.948397
v -10.000006 0.782990 -5.948401
v -14.000006 -0.783006 -5.948395
v -14.000006 -0.000006 -5.999996
v -14.000000 0.000000 -0.000001
v -14.000006 -1.552806 -5.795394
v -14.000005 -2.296206 -5.543394
v -14.000005 -3.000004 -5.195993
v -14.000005 -3.652804 -4.760393
v -14.000004 -4.242605 -4.242591
v -14.000003 -4.760404 -3.652792
v -14.000003 -5.196002 -2.999991
v -14.000002 -5.543403 -2.296190
v -14.000001 -5.795403 -1.552790
v -14.000001 -5.948400 -0.782990
v -14.000000 -6.000000 0.000010
v -13.999999 -5.948399 0.783010
v -13.999999 -5.795399 1.552810
v -13.999998 -5.543398 2.296210
v -13.999997 -5.195998 3.000010
v -13.999996 -4.760396 3.652810
v -13.999996 -4.242596 4.242610
v -13.999995 -3.652796 4.760409
v -13.999995 -2.999996 5.196009
v -13.999995 -2.296195 5.543409
v -13.999995 -1.552794 5.795409
v -13.999994 -0.782995 5.948409
v -13.999994 0.000001 5.999999
v -13.999994 0.783001 5.948399
v -13.999995 1.552801 5.795399
v -13.999995 2.296201 5.543399
v -13.999995 3.000001 5.195999
v -13.999995 3.652801 4.760399
v -13.999996 4.242601 4.242599
v -13.999996 4.760401 3.652799
v -13.999997 5.196001 2.999999
v -13.999998 5.543401 2.296199
v -13.999999 5.795401 1.552799
v -13.999999 5.948400 0.782999
v -14.000000 6.000000 -0.000001
v -14.000001 5.948400 -0.783001
v -14.000001 5.795401 -1.552801
v -14.000002 5.543401 -2.296201
v -14.000003 5.196001 -3.000001
v -14.000003 4.760401 -3.652801
v -14.000004 4.242600 -4.242600
v -14.000005 3.652790 -4.760399
v -14.000005 2.999990 -5.195999
v -14.000005 2.296190 -5.543398
v -14.000006 1.552790 -5.795398
v -14.000006 0.782990 -5.948397
v -0.000004 10.000000 -4.000019
v 0.522000 10.000000 -3.965620
v 1.035200 10.000000 -3.863619
v 1.530800 10.000000 -3.695621
v 2.000000 10.000000 -3.464020
v 2.435200 10.000000 -3.173622
v 2.828400 10.000000 -2.828422
v 3.173600 10.000000 -2.435221
v 3.464000 10.000000 -2.000022
v 3.695600 10.000000 -1.530823
v 3.863600 10.000000 -1.035223
v 3.965600 10.000000 -0.522023
v 4.000000 10.000000 -0.000023
v 3.965600 10.000000 0.521978
v 3.863600 10.000000 1.035178
v 3.695600 10.000000 1.530778
v 3.464000 10.000000 1.999978
v 3.173600 10.000000 2.435178
v 2.828400 10.000002 2.828378
v 2.435200 10.000002 3.173578
v 2.000000 10.000002 3.463978
v 1.530800 10.000002 3.695578
v 1.035200 10.000002 3.863578
v 0.522000 10.000002 3.965578
v 0.000000 10.000002 3.999978
v -0.521996 10.000002 3.965578
v -1.035196 10.000002 3.863578
v -1.530796 10.000002 3.695578
v -1.999997 10.000002 3.463978
v -2.435197 10.000002 3.173578
v -2.828397 10.000002 2.828388
v -3.173598 10.000000 2.435188
v -3.463998 10.000000 1.999989
v -3.695599 10.000000 1.530788
v -3.863599 10.000000 1.035188
v -3.965600 10.000000 0.521988
v -4.000000 10.000000 -0.000015
v -3.965600 10.000000 -0.522016
v -3.863601 10.000000 -1.035215
v -3.695601 10.000000 -1.530816
v -3.464002 10.000000 -2.000015
v -3.173603 10.000000 -2.435215
v -2.828403 10.000000 -2.828415
v -2.435203 10.000000 -3.173616
v -2.000003 10.000000 -3.464016
v -1.530804 10.000000 -3.695617
v -1.035204 10.000000 -3.863617
v -0.522004 10.000000 -3.965619
v 0.782990 5.999990 -5.948415
v -0.000006 5.999990 -6.000015
v -0.000006 9.999990 -6.000018
v 0.782990 9.999990 -5.948420
v 1.552790 5.999990 -5.795416
v 1.552790 9.999990 -5.795421
v 2.296190 5.999990 -5.543417
v 2.296190 9.999990 -5.543420
v 3.000000 5.999990 -5.196018
v 3.000000 9.999990 -5.196022
v 3.652790 6.000000 -4.760418
v 3.652790 9.999990 -4.760421
v 4.242600 6.000000 -4.242620
v 4.242600 10.000000 -4.242622
v 4.760400 6.000000 -3.652820
v 4.760400 10.000000 -3.652823
v 5.196000 6.000000 -3.000021
v 5.196000 10.000000 -3.000023
v 5.543400 6.000000 -2.296220
v 5.543400 10.000000 -2.296225
v 5.795400 6.000000 -1.552820
v 5.795400 10.000000 -1.552825
v 5.948400 6.000000 -0.783020
v 5.948400 10.000000 -0.783025
v 6.000000 6.000000 -0.000020
v 6.000000 10.000000 -0.000025
v 5.948400 6.000000 0.782979
v 5.948400 10.000000 0.782978
v 5.795400 6.000000 1.552779
v 5.795400 10.000000 1.552778
v 5.543400 6.000000 2.296179
v 5.543400 10.000000 2.296178
v 5.196000 6.000002 2.999979
v 5.196000 10.000002 2.999978
v 4.760400 6.000002 3.652779
v 4.760400 10.000002 3.652778
v 4.242600 6.000002 4.242579
v 4.242600 10.000002 4.242579
v 3.652800 6.000002 4.760379
v 3.652800 10.000002 4.760378
v 3.000000 6.000002 5.195979
v 3.000000 10.000002 5.195978
v 2.296210 6.000002 5.543379
v 2.296210 10.000002 5.543378
v 1.552810 6.000002 5.795379
v 1.552810 10.000002 5.795378
v 0.783010 6.000002 5.948389
v 0.783010 10.000002 5.948379
v 0.000010 6.000002 5.999990
v 0.000010 10.000002 5.999978
v -0.782994 6.000002 5.948389
v -0.782994 10.000002 5.948379
v -1.552794 6.000002 5.795389
v -1.552794 10.000002 5.795378
v -2.296195 6.000002 5.543389
v -2.296195 10.000002 5.543378
v -2.999995 6.000002 5.195989
v -2.999995 10.000002 5.195988
v -3.652796 6.000002 4.760389
v -3.652796 10.000002 4.760388
v -4.242596 6.000002 4.242589
v -4.242596 10.000002 4.242588
v -4.760396 6.000002 3.652789
v -4.760396 10.000002 3.652788
v -5.195997 6.000002 2.999990
v -5.195997 10.000002 2.999989
v -5.543397 6.000000 2.296189
v -5.543397 10.000000 2.296188
v -5.795399 6.000000 1.552789
v -5.795399 10.000000 1.552788
v -5.948399 6.000000 0.782990
v -5.948399 10.000000 0.782989
v -6.000000 6.000000 -0.000009
v -6.000000 10.000000 -0.000013
v -5.948401 6.000000 -0.783010
v -5.948401 10.000000 -0.783013
v -5.795402 6.000000 -1.552809
v -5.795402 10.000000 -1.552814
v -5.543402 6.000000 -2.296209
v -5.543402 10.000000 -2.296214
v -5.196003 6.000000 -3.000010
v -5.196003 10.000000 -3.000013
v -4.760403 6.000000 -3.652811
v -4.760403 10.000000 -3.652814
v -4.242604 6.000000 -4.242611
v -4.242604 10.000000 -4.242614
v -3.652805 6.000000 -4.760411
v -3.652805 9.999990 -4.760416
v -3.000005 5.999990 -5.196012
v -3.000005 9.999990 -5.196015
v -2.296205 5.999990 -5.543412
v -2.296205 9.999990 -5.543417
v -1.552806 5.999990 -5.795414
v -1.552806 9.999990 -5.795417
v -0.783006 5.999990 -5.948414
v -0.783006 9.999990 -5.948419
v -0.000004 10.000000 -4.000019
v 0.522000 10.000000 -3.965620
v 0.782990 9.999990 -5.948420
v -0.000006 9.999990 -6.000018
v 1.035200 10.000000 -3.863619
v 1.552790 9.999990 -5.795421
v 1.530800 10.000000 -3.695621
v 2.296190 9.999990 -5.543420
v 2.000000 10.000000 -3.464020
v 3.000000 9.999990 -5.196022
v 2.435200 10.000000 -3.173622
v 3.652790 9.999990 -4.760421
v 2.828400 10.000000 -2.828422
v 4.242600 10.000000 -4.242622
v 3.173600 10.000000 -2.435221
v 4.760400 10.000000 -3.652823
v 3.464000 10.000000 -2.000022
v 5.196000 10.000000 -3.000023
v 3.695600 10.000000 -1.530823
v 5.543400 10.000000 -2.296225
v 3.863600 10.000000 -1.035223
v 5.795400 10.000000 -1.552825
v 3.965600 10.000000 -0.522023
v 5.948400 10.000000 -0.783025
v 4.000000 10.000000 -0.000023
v 6.000000 10.000000 -0.000025
v 3.965600 10.000000 0.521978
v 5.948400 10.000000 0.782978
v 3.863600 10.000000 1.035178
v 5.795400 10.000000 1.552778
v 3.695600 10.000000 1.530778
v 5.543400 10.000000 2.296178
v 3.464000 10.000000 1.999978
v 5.196000 10.000002 2.999978
v 3.173600 10.000000 2.435178
v 4.760400 10.000002 3.652778
v 2.828400 10.000002 2.828378
v 4.242600 10.000002 4.242579
v 2.435200 10.000002 3.173578
v 3.652800 10.000002 4.760378
v 2.000000 10.000002 3.463978
v 3.000000 10.000002 5.195978
v 1.530800 10.000002 3.695578
v 2.296210 10.000002 5.543378
v 1.035200 10.000002 3.863578
v 1.552810 10.000002 5.795378
v 0.522000 10.000002 3.965578
v 0.783010 10.000002 5.948379
v 0.000000 10.000002 3.999978
v 0.000010 10.000002 5.999978
v -0.521996 10.000002 3.965578
v -0.782994 10.000002 5.948379
v -1.035196 10.000002 3.863578
v -1.552794 10.000002 5.795378
v -1.530796 10.000002 3.695578
v -2.296195 10.000002 5.543378
v -1.999997 10.000002 3.463978
v -2.999995 10.000002 5.195988
v -2.435197 10.000002 3.173578
v -3.652796 10.000002 4.760388
v -2.828397 10.000002 2.828388
v -4.242596 10.000002 4.242588
v -3.173598 10.000000 2.435188
v -4.760396 10.000002 3.652788
v -3.463998 10.000000 1.999989
v -5.195997 10.000002 2.999989
v -3.695599 10.000000 1.530788
v -5.543397 10.000000 2.296188
v -3.863599 10.000000 1.035188
v -5.795399 10.000000 1.552788
v -3.965600 10.000000 0.521988
v -5.948399 10.000000 0.782989
v -4.000000 10.000000 -0.000015
v -6.000000 10.000000 -0.000013
v -3.965600 10.000000 -0.522016
v -5.948401 10.000000 -0.783013
v -3.863601 10.000000 -1.035215
v -5.795402 10.000000 -1.552814
v -3.695601 10.000000 -1.530816
v -5.543402 10.000000 -2.296214
v -3.464002 10.000000 -2.000015
v -5.196003 10.000000 -3.000013
v -3.173603 10.000000 -2.435215
v -4.760403 10.000000 -3.652814
v -2.828403 10.000000 -2.828415
v -4.242604 10.000000 -4.242614
v -2.435203 10.000000 -3.173616
v -3.652805 9.999990 -4.760416
v -2.000003 10.000000 -3.464016
v -3.000005 9.999990 -5.196015
v -1.530804 10.000000 -3.695617
v -2.296205 9.999990 -5.543417
v -1.035204 10.000000 -3.863617
v -1.552806 9.999990 -5.795417
v -0.522004 10.000000 -3.965619
v -0.783006 9.999990 -5.948419
vn 1.0000 -0.0000 -0.0000
vn -1.0000 -0.0000 -0.0000
vn -0.0000 -1.0000 -0.0000
vn -0.1090 -0.0000 0.9940
vn 0.0219 -0.0000 0.9998
vn -0.0219 -0.0000 0.9998
vn -0.1522 -0.0000 0.9884
vn -0.2374 -0.0000 0.9714
vn -0.2795 -0.0000 0.9601
vn -0.3623 -0.0000 0.9321
vn -0.4029 -0.0000 0.9153
vn -0.4810 -0.0000 0.8767
vn -0.5185 -0.0000 0.8551
vn -0.5911 -0.0000 0.8066
vn -0.6261 -0.0000 0.7798
vn -0.6916 -0.0000 0.7223
vn -0.7223 -0.0000 0.6916
vn -0.7798 -0.0000 0.6261
vn -0.8066 -0.0000 0.5911
vn -0.8551 -0.0000 0.5185
vn -0.8767 -0.0000 0.4810
vn -0.9153 -0.0000 0.4029
vn -0.9321 -0.0000 0.3623
vn -0.9601 -0.0000 0.2795
vn -0.9714 -0.0000 0.2374
vn -0.9884 -0.0000 0.1522
vn -0.9940 -0.0000 0.1090
vn -0.9998 -0.0000 0.0219
vn -0.9998 -0.0000 -0.0219
vn -0.9940 -0.0000 -0.1090
vn -0.9884 -0.0000 -0.1522
vn -0.9714 -0.0000 -0.2374
vn -0.9601 -0.0000 -0.2795
vn -0.9321 -0.0000 -0.3623
vn -0.9153 -0.0000 -0.4029
vn -0.8767 -0.0000 -0.4810
vn -0.8551 -0.0000 -0.5185
vn -0.8066 -0.0000 -0.5911
vn -0.7798 -0.0000 -0.6261
vn -0.7223 -0.0000 -0.6916
vn -0.6916 -0.0000 -0.7223
vn -0.6261 -0.0000 -0.7798
vn -0.5911 -0.0000 -0.8066
vn -0.5185 -0.0000 -0.8551
vn -0.4810 -0.0000 -0.8767
vn -0.4028 -0.0000 -0.9153
vn -0.3623 -0.0000 -0.9321
vn -0.2795 -0.0000 -0.9601
vn -0.2374 -0.0000 -0.9714
vn -0.1522 -0.0000 -0.9884
vn -0.1090 -0.0000 -0.9940
vn -0.0219 -0.0000 -0.9998
vn 0.0219 -0.0000 -0.9998
vn 0.1090 -0.0000 -0.9940
vn 0.1522 -0.0000 -0.9884
vn 0.2374 -0.0000 -0.9714
vn 0.2795 -0.0000 -0.9601
vn 0.3623 -0.0000 -0.9321
vn 0.4029 -0.0000 -0.9153
vn 0.4810 -0.0000 -0.8767
vn 0.5185 -0.0000 -0.8551
vn 0.5911 -0.0000 -0.8066
vn 0.6261 -0.0000 -0.7798
vn 0.6916 -0.0000 -0.7223
vn 0.7223 -0.0000 -0.6916
vn 0.7798 -0.0000 -0.6261
vn 0.8066 -0.0000 -0.5911
vn 0.8551 -0.0000 -0.5185
vn 0.8767 -0.0000 -0.4810
vn 0.9153 -0.0000 -0.4029
vn 0.9321 -0.0000 -0.3623
vn 0.9601 -0.0000 -0.2795
vn 0.9714 -0.0000 -0.2374
vn 0.9884 -0.0000 -0.1522
vn 0.9940 -0.0000 -0.1090
vn 0.9998 -0.0000 -0.0219
vn 0.9998 -0.0000 0.0219
vn 0.9940 -0.0000 0.1090
vn 0.9884 -0.0000 0.1522
vn 0.9714 -0.0000 0.2374
vn 0.9601 -0.0000 0.2795
vn 0.9321 -0.0000 0.3623
vn 0.9153 -0.0000 0.4029
vn 0.8767 -0.0000 0.4810
vn 0.8551 -0.0000 0.5185
vn 0.8066 -0.0000 0.5911
vn 0.7798 -0.0000 0.6261
vn 0.7223 -0.0000 0.6916
vn 0.6916 -0.0000 0.7223
vn 0.6261 -0.0000 0.7798
vn 0.5911 -0.0000 0.8066
vn 0.5185 -0.0000 0.8551
vn 0.4810 -0.0000 0.8767
vn 0.4028 -0.0000 0.9153
vn 0.3623 -0.0000 0.9321
vn 0.2795 -0.0000 0.9601
vn 0.2374 -0.0000 0.9714
vn 0.1522 -0.0000 0.9884
vn 0.1090 -0.0000 0.9940
vn -0.0000 1.0000 -0.0000
vn -0.0000 -0.0000 -1.0000
vn -0.0000 -0.0000 1.0000
vn -0.0000 -0.1091 -0.9940
vn -0.0000 0.0220 -0.9998
vn -0.0000 -0.0220 -0.9998
vn -0.0000 -0.1522 -0.9884
vn -0.0000 -0.2375 -0.9714
vn -0.0000 -0.2796 -0.9601
vn -0.0000 -0.3623 -0.9321
vn -0.0000 -0.4029 -0.9153
vn -0.0000 -0.4810 -0.8767
vn -0.0000 -0.5185 -0.8551
vn -0.0000 -0.5911 -0.8066
vn -0.0000 -0.6260 -0.7798
vn -0.0000 -0.6916 -0.7223
vn -0.0000 -0.7223 -0.6916
vn -0.0000 -0.7798 -0.6260
vn -0.0000 -0.8066 -0.5911
vn -0.0000 -0.8551 -0.5185
vn -0.0000 -0.8767 -0.4810
vn -0.0000 -0.9153 -0.4029
vn -0.0000 -0.9321 -0.3623
vn -0.0000 -0.9601 -0.2795
vn -0.0000 -0.9714 -0.2375
vn -0.0000 -0.9884 -0.1522
vn -0.0000 -0.9940 -0.1090
vn -0.0000 -0.9998 -0.0220
vn -0.0000 -0.9998 0.0220
vn -0.0000 -0.9940 0.1091
vn -0.0000 -0.9884 0.1522
vn -0.0000 -0.9714 0.2375
vn -0.0000 -0.9601 0.2796
vn -0.0000 -0.9321 0.3623
vn -0.0000 -0.9153 0.4029
vn -0.0000 -0.8767 0.4810
vn -0.0000 -0.8551 0.5185
vn -0.0000 -0.8066 0.5911
vn -0.0000 -0.7798 0.6261
vn -0.0000 -0.7223 0.6916
vn -0.0000 -0.6916 0.7223
vn -0.0000 -0.6260 0.7798
vn -0.0000 -0.5911 0.8066
vn -0.0000 -0.5185 0.8551
vn -0.0000 -0.4810 0.8767
vn -0.0000 -0.4029 0.9153
vn -0.0000 -0.3623 0.9321
vn -0.0000 -0.2796 0.9601
vn -0.0000 -0.2375 0.9714
vn -0.0000 -0.1522 0.9884
vn -0.0000 -0.1090 0.9940
vn -0.0000 -0.0220 0.9998
vn -0.0000 0.0220 0.9998
vn -0.0000 0.1091 0.9940
vn -0.0000 0.1522 0.9884
vn -0.0000 0.2375 0.9714
vn -0.0000 0.2796 0.9601
vn -0.0000 0.3623 0.9321
vn -0.0000 0.4029 0.9153
vn -0.0000 0.4810 0.8767
vn -0.0000 0.5185 0.8551
vn -0.0000 0.5911 0.8066
vn -0.0000 0.6260 0.7798
vn -0.0000 0.6916 0.7223
vn -0.0000 0.7223 0.6916
vn -0.0000 0.7798 0.6260
vn -0.0000 0.8066 0.5911
vn -0.0000 0.8551 0.5185
vn -0.0000 0.8767 0.4810
vn -0.0000 0.9153 0.4029
vn -0.0000 0.9321 0.3623
vn -0.0000 0.9601 0.2795
vn -0.0000 0.9714 0.2375
vn -0.0000 0.9884 0.1522
vn -0.0000 0.9940 0.1090
vn -0.0000 0.9998 0.0220
vn -0.0000 0.9998 -0.0220
vn -0.0000 0.9940 -0.1090
vn -0.0000 0.9884 -0.1522
vn -0.0000 0.9714 -0.2375
vn -0.0000 0.9601 -0.2796
vn -0.0000 0.9321 -0.3623
vn -0.0000 0.9153 -0.4029
vn -0.0000 0.8767 -0.4810
vn -0.0000 0.8551 -0.5185
vn -0.0000 0.8066 -0.5911
vn -0.0000 0.7798 -0.6260
vn -0.0000 0.7223 -0.6916
vn -0.0000 0.6916 -0.7223
vn -0.0000 0.6260 -0.7798
vn -0.0000 0.5911 -0.8066
vn -0.0000 0.5185 -0.8551
vn -0.0000 0.4810 -0.8767
vn -0.0000 0.4029 -0.9153
vn -0.0000 0.3623 -0.9321
vn -0.0000 0.2795 -0.9601
vn -0.0000 0.2375 -0.9714
vn -0.0000 0.1522 -0.9884
vn -0.0000 0.1091 -0.9940
vn 0.6260 -0.0000 -0.7798
vn 0.1091 -0.0000 -0.9940
vn -0.0220 -0.0000 -0.9998
vn 0.0220 -0.0000 -0.9998
vn 0.2375 -0.0000 -0.9714
vn 0.7798 -0.0000 -0.6260
vn 0.9601 -0.0000 -0.2796
vn 0.9714 -0.0000 -0.2375
vn 0.9998 -0.0000 -0.0220
vn 0.9998 -0.0000 0.0220
vn 0.9714 -0.0000 0.2375
vn 0.9601 -0.0000 0.2796
vn 0.7798 -0.0000 0.6260
vn 0.6260 -0.0000 0.7798
vn 0.4029 -0.0000 0.9153
vn 0.2375 -0.0000 0.9714
vn 0.1091 -0.0000 0.9940
vn 0.0220 -0.0000 0.9998
vn -0.0220 -0.0000 0.9998
vn -0.1091 -0.0000 0.9940
vn -0.2375 -0.0000 0.9714
vn -0.6260 -0.0000 0.7798
vn -0.7798 -0.0000 0.6260
vn -0.9714 -0.0000 0.2375
vn -0.9940 -0.0000 0.1091
vn -0.9998 -0.0000 0.0220
vn -0.9998 -0.0000 -0.0220
vn -0.9940 -0.0000 -0.1091
vn -0.9714 -0.0000 -0.2375
vn -0.9601 -0.0000 -0.2796
vn -0.7798 -0.0000 -0.6260
vn -0.6260 -0.0000 -0.7798
vn -0.4029 -0.0000 -0.9153
vn -0.2796 -0.0000 -0.9601
vn -0.2375 -0.0000 -0.9714
vn -0.1091 -0.0000 -0.9940
vt 18.000000 30.000000
vt 18.000000 18.000000
vt 14.000000 14.000000
vt 14.000000 34.000000
vt 30.000000 18.000000
vt 34.000000 14.000000
vt 30.000000 30.000000
vt 34.000000 34.000000
vt 30.000000 10.000000
vt 26.000000 30.000000
vt 26.000000 10.000000
vt 26.000000 26.000000
vt 26.000000 14.000000
vt 22.000000 14.000000
vt 22.000000 26.000000
vt 10.000000 10.000000
vt 10.000000 22.000000
vt 6.000000 22.000000
vt 6.000000 10.000000
vt 6.000000 -2.000000
vt -6.000000 -2.000000
vt -6.000000 10.000000
vt 6.000000 -10.000000
vt -10.000000 10.000000
vt -10.000000 -10.000000
vt 8.000000 6.000000
vt 12.000000 6.000000
vt 11.478000 5.965600
vt 10.964800 5.863600
vt 10.469200 5.695600
vt 10.000000 5.464000
vt 9.564800 5.173600
vt 9.171600 4.828400
vt 8.826400 4.435200
vt 8.536000 4.000000
vt 8.304400 3.530800
vt 8.136400 3.035200
vt 8.034400 2.522000
vt 8.000000 2.000000
vt 8.000000 -2.000000
vt 8.034400 1.478000
vt 8.136400 0.964800
vt 8.304400 0.469200
vt 8.536000 0.000000
vt 8.826400 -0.435200
vt 9.171600 -0.828400
vt 9.564800 -1.173600
vt 10.000000 -1.464000
vt 10.469200 -1.695600
vt 10.964800 -1.863600
vt 11.478000 -1.965600
vt 12.000000 -2.000000
vt 16.000000 -2.000000
vt 12.522000 -1.965600
vt 13.035200 -1.863600
vt 13.530800 -1.695600
vt 14.000000 -1.464000
vt 14.435200 -1.173600
vt 14.828400 -0.828400
vt 15.173600 -0.435200
vt 15.464000 0.000000
vt 15.695600 0.469200
vt 15.863600 0.964800
vt 15.965600 1.478000
vt 16.000000 2.000000
vt 16.000000 6.000000
vt 15.965600 2.522000
vt 15.863600 3.035200
vt 15.695600 3.530800
vt 15.464000 4.000000
vt 15.173600 4.435200
vt 14.828400 4.828400
vt 14.435200 5.173600
vt 14.000000 5.464000
vt 13.530800 5.695600
vt 13.035200 5.863600
vt 12.522000 5.965600
vt 16.521999 9.965600
vt 14.000000 10.000000
vt 17.035200 9.863600
vt 17.530800 9.695601
vt 18.000000 9.464000
vt 18.435200 9.173600
vt 18.828400 8.828400
vt 19.173599 8.435200
vt 19.464001 8.000000
vt 19.695601 7.530800
vt 19.863600 7.035200
vt 19.965599 6.522000
vt 20.000000 6.000000
vt 14.000000 2.000000
vt 13.443600 5.478000
vt 13.443600 1.478000
vt 12.828400 4.964800
vt 12.828400 0.964800
vt 12.164800 4.469200
vt 12.164800 0.469200
vt 11.464000 4.000000
vt 11.464000 0.000000
vt 10.738400 3.564800
vt 10.738400 -0.435200
vt 10.000000 3.171600
vt 10.000000 -0.828400
vt 9.261600 2.826400
vt 9.261600 -1.173600
vt 8.536000 2.536000
vt 8.536000 -1.464000
vt 7.835200 2.304400
vt 7.835200 -1.695600
vt 7.171600 2.136400
vt 7.171600 -1.863600
vt 6.556400 2.034400
vt 6.556400 -1.965600
vt 6.000000 2.000000
vt 5.512400 2.034400
vt 5.512400 -1.965600
vt 5.101200 2.136400
vt 5.101200 -1.863600
vt 4.773600 2.304400
vt 4.773600 -1.695600
vt 4.536000 2.536000
vt 4.536000 -1.464000
vt 4.391200 2.826400
vt 4.391200 -1.173600
vt 4.343201 3.171600
vt 12.826400 3.564800
vt 12.536000 4.000000
vt 12.304400 4.469200
vt 8.304399 0.469200
vt 12.136400 4.964800
vt 12.034400 5.478000
vt 6.556400 6.522000
vt 6.556400 2.522000
vt 7.171600 7.035200
vt 7.171600 3.035200
vt 7.835200 7.530800
vt 7.835200 3.530800
vt 8.536000 8.000000
vt 9.261600 8.435200
vt 9.261600 4.435200
vt 10.000000 8.828400
vt 10.000000 4.828400
vt 10.738400 9.173600
vt 10.738400 5.173600
vt 11.464000 9.464000
vt 11.464000 5.464000
vt 12.164800 9.695601
vt 12.164800 5.695600
vt 12.828400 9.863600
vt 12.828400 5.863600
vt 13.443600 9.965600
vt 13.443600 5.965600
vt 22.000000 12.000000
vt 16.000000 12.000000
vt 16.783001 11.948400
vt 17.552799 11.795400
vt 18.296200 11.543400
vt 19.000000 11.196000
vt 19.652800 10.760400
vt 20.242599 10.242600
vt 20.760401 9.652800
vt 21.195999 9.000000
vt 21.543400 8.296200
vt 21.795401 7.552800
vt 21.948400 6.783000
vt 22.000000 6.000000
vt 22.000000 0.000000
vt 21.948400 5.217000
vt 21.795401 4.447200
vt 21.543400 3.703800
vt 21.195999 3.000000
vt 20.760401 2.347200
vt 20.242599 1.757400
vt 19.652800 1.239600
vt 19.000000 0.804000
vt 18.296200 0.456600
vt 17.552799 0.204600
vt 16.783001 0.051600
vt 16.000000 0.000000
vt 10.000000 0.000000
vt 15.217000 0.051600
vt 14.447200 0.204600
vt 13.703800 0.456600
vt 13.000000 0.804000
vt 12.347200 1.239600
vt 11.757400 1.757400
vt 11.239600 2.347200
vt 10.804000 3.000000
vt 10.456600 3.703800
vt 10.204600 4.447200
vt 10.051600 5.217000
vt 10.000000 6.000000
vt 10.000000 12.000000
vt 10.051600 6.783000
vt 10.204600 7.552800
vt 10.456600 8.296200
vt 10.804000 9.000000
vt 11.239600 9.652800
vt 11.757400 10.242600
vt 12.347200 10.760400
vt 13.000000 11.196000
vt 13.703800 11.543400
vt 14.447200 11.795400
vt 15.217000 11.948400
vt 6.000000 -4.000000
vt 14.000000 0.000000
vt 14.000000 -20.000000
vt 6.000000 -16.000000
vt -10.000000 -20.000000
vt -6.000000 -16.000000
vt -10.000000 0.000000
vt -6.000000 -4.000000
vt 10.000000 -12.000000
vt 18.000000 -12.000000
vt 18.000000 0.000000
vt 22.000000 8.000000
vt 22.000000 -4.000000
vt 6.000000 8.000000
vt 26.000000 -4.000000
vt 26.000000 16.000000
vt 6.000000 16.000000
vt 26.000000 12.000000
vt 30.000000 12.000000
vt 30.000000 0.000000
vt 26.000000 0.000000
vt 30.000000 20.000000
vt 34.000000 0.000000
vt 34.000000 20.000000
vt 30.000000 16.000000
vt 10.000000 16.000000
vt 26.000000 8.000000
vt 10.000000 8.000000
vt 10.000000 -4.000000
vt 14.000000 -4.000000
vt -2.000000 -4.000000
vt -2.000000 -16.000000
vt 10.000000 -16.000000
vt -10.000000 -4.000000
vt 1.948400 5.165400
vt 2.000000 6.000000
vt 6.000000 6.000000
vt 5.948400 5.165400
vt 1.795400 4.242600
vt 5.795400 4.242600
vt 1.543400 3.247200
vt 5.543400 3.247200
vt 1.196000 2.196000
vt 5.196000 2.196000
vt 0.760400 1.107600
vt 4.760400 1.107600
vt 0.242600 0.000000
vt 4.242600 0.000000
vt -0.347200 -1.107600
vt 3.652800 -1.107600
vt -1.000000 -2.196000
vt 3.000000 -2.196000
vt -1.703800 -3.247200
vt 2.296200 -3.247200
vt -2.447200 -4.242600
vt 1.552800 -4.242600
vt -3.217000 -5.165400
vt 0.783000 -5.165400
vt -4.000000 -6.000000
vt -6.000000 -6.000000
vt -9.948400 -6.731400
vt -5.948400 -6.731400
vt -9.795401 -7.348200
vt -5.795400 -7.348200
vt -9.543400 -7.839600
vt -5.543400 -7.839600
vt -9.196000 -8.196000
vt -5.196000 -8.196000
vt -8.760400 -8.413200
vt -4.760400 -8.413200
vt -8.242599 -8.485200
vt -4.242600 -8.485200
vt -10.000000 -6.000000
vt 0.000000 -6.000000
vt 1.948400 6.731400
vt 5.948400 6.731400
vt 1.795400 7.348200
vt 5.795400 7.348200
vt 1.543400 7.839600
vt 5.543400 7.839600
vt 1.196000 8.196000
vt 5.196000 8.196000
vt 0.760400 8.413200
vt 4.760400 8.413200
vt 0.242600 8.485200
vt 4.242600 8.485200
vt -4.000000 -4.000000
vt -4.000000 2.000000
vt -4.783000 1.948400
vt -5.552800 1.795400
vt -6.296200 1.543400
vt -7.000000 1.196000
vt -7.652800 0.760400
vt -8.242599 0.242600
vt -8.760400 -0.347200
vt -9.196000 -1.000000
vt -9.543400 -1.703800
vt -9.795401 -2.447200
vt -9.948400 -3.217000
vt -9.948400 -4.783000
vt -9.795401 -5.552800
vt -9.543400 -6.296200
vt -9.196000 -7.000000
vt -8.760400 -7.652800
vt -8.242599 -8.242599
vt -7.652800 -8.760400
vt -7.000000 -9.196000
vt -6.296200 -9.543400
vt -5.552800 -9.795401
vt -4.783000 -9.948400
vt -4.000000 -10.000000
vt -3.217000 -9.948400
vt -2.447200 -9.795401
vt -1.703800 -9.543400
vt -1.000000 -9.196000
vt -0.347200 -8.760400
vt 0.242600 -8.242599
vt 0.760400 -7.652800
vt 1.196000 -7.000000
vt 1.543400 -6.296200
vt 1.795400 -5.552800
vt 1.948400 -4.783000
vt 2.000000 -4.000000
vt 1.948400 -3.217000
vt 1.795400 -2.447200
vt 1.543400 -1.703800
vt 1.196000 -1.000000
vt 0.760400 -0.347200
vt 0.242600 0.242600
vt -0.347200 0.760400
vt -1.000000 1.196000
vt -1.703800 1.543400
vt -2.447200 1.795400
vt -3.217000 1.948400
vt 20.000000 14.000000
vt 20.521999 13.965600
vt 21.035200 13.863600
vt 21.530800 13.695600
vt 22.000000 13.464000
vt 22.435200 13.173600
vt 22.828400 12.828400
vt 23.173599 12.435200
vt 23.464001 12.000000
vt 23.695601 11.530800
vt 23.863600 11.035200
vt 23.965599 10.522000
vt 13.443600 9.478000
vt 12.828400 8.964800
vt 12.164800 8.469200
vt 11.464000 8.000000
vt 10.738400 7.564800
vt 10.000000 7.171600
vt 9.261600 6.826400
vt 8.536000 6.536000
vt 7.835200 6.304400
vt 7.171600 6.136400
vt 6.556400 6.034400
vt 5.512400 6.034400
vt 5.101200 6.136400
vt 4.773600 6.304400
vt 4.536000 6.536000
vt 4.391200 6.826400
vt 17.171600 7.171600
vt 16.826401 7.564800
vt 16.535999 8.000000
vt 16.304399 8.469200
vt 16.136400 8.964800
vt 16.034401 9.478000
vt 6.556400 10.522000
vt 7.171600 11.035200
vt 7.835200 11.530800
vt 8.536000 12.000000
vt 9.261600 12.435200
vt 10.000000 12.828400
vt 10.738400 13.173600
vt 11.464000 13.464000
vt 12.164800 13.695600
vt 12.828400 13.863600
vt 13.443600 13.965600
vt 16.731400 11.948400
vt 16.000000 16.000000
vt 16.731400 15.948400
vt 17.348200 11.795400
vt 17.348200 15.795400
vt 17.839600 11.543400
vt 17.839600 15.543400
vt 18.195999 11.196000
vt 18.195999 15.196000
vt 18.413200 10.760400
vt 18.413200 14.760400
vt 18.485201 10.242600
vt 24.242599 14.242600
vt 24.760401 13.652800
vt 25.195999 13.000000
vt 25.543400 12.296200
vt 25.795401 11.552800
vt 25.948400 10.783000
vt 16.000000 10.000000
vt 15.165400 5.217000
vt 15.165400 9.217000
vt 14.242600 4.447200
vt 14.242600 8.447200
vt 13.247200 3.703800
vt 13.247200 7.703800
vt 12.196000 3.000000
vt 12.196000 7.000000
vt 11.107600 2.347200
vt 11.107600 6.347200
vt 10.000000 1.757400
vt 10.000000 5.757400
vt 8.892400 1.239600
vt 8.892400 5.239600
vt 7.804000 0.804000
vt 7.804000 4.804000
vt 6.752800 0.456600
vt 6.752800 4.456600
vt 5.757400 0.204600
vt 5.757400 4.204600
vt 4.834600 0.051600
vt 4.834600 4.051600
vt 4.000000 0.000000
vt 20.000000 4.000000
vt 19.216999 4.051600
vt 18.447201 4.204600
vt 17.703800 4.456600
vt 17.000000 4.804000
vt 16.347200 5.239600
vt 15.757400 5.757400
vt 15.239600 6.347200
vt 14.804000 7.000000
vt 14.456600 7.703800
vt 14.204600 8.447200
vt 14.051600 9.217000
vt 4.000000 10.000000
vt 4.834600 6.783000
vt 4.834600 10.783000
vt 5.757400 7.552800
vt 5.757400 11.552800
vt 6.752800 8.296200
vt 6.752800 12.296200
vt 7.804000 9.000000
vt 7.804000 13.000000
vt 8.892401 9.652800
vt 8.892401 13.652800
vt 10.000000 10.242600
vt 10.000000 14.242600
vt 11.107600 10.760400
vt 11.107600 14.760400
vt 12.196000 11.196000
vt 12.196000 15.196000
vt 13.247200 11.543400
vt 13.247200 15.543400
vt 14.242600 11.795400
vt 14.242600 15.795400
vt 15.165400 11.948400
vt 15.165400 15.948400
vt 20.783001 15.948400
vt 20.000000 16.000000
vt 21.552799 15.795400
vt 22.296200 15.543400
vt 23.000000 15.196000
vt 23.652800 14.760400
vt 24.000000 10.000000
vt 23.965599 9.478000
vt 25.948400 9.217000
vt 23.863600 8.964800
vt 25.795401 8.447200
vt 23.695601 8.469200
vt 25.543400 7.703800
vt 23.464001 8.000000
vt 25.195999 7.000000
vt 23.173599 7.564800
vt 24.760401 6.347200
vt 22.828400 7.171600
vt 24.242599 5.757400
vt 22.435200 6.826400
vt 23.652800 5.239600
vt 22.000000 6.536000
vt 23.000000 4.804000
vt 21.530800 6.304400
vt 22.296200 4.456600
vt 21.035200 6.136400
vt 21.552799 4.204600
vt 20.521999 6.034400
vt 20.783001 4.051600
vt 19.478001 6.034400
vt 18.964800 6.136400
vt 18.469200 6.304400
vt 18.000000 6.536000
vt 17.564800 6.826400
vt 16.034401 10.522000
vt 14.051600 10.783000
vt 16.136400 11.035200
vt 14.204600 11.552800
vt 16.304399 11.530800
vt 14.456600 12.296200
vt 16.535999 12.000000
vt 14.804000 13.000000
vt 16.826401 12.435200
vt 15.239600 13.652800
vt 17.171600 12.828400
vt 15.757400 14.242600
vt 17.564800 13.173600
vt 16.347200 14.760400
vt 18.000000 13.464000
vt 17.000000 15.196000
vt 18.469200 13.695600
vt 17.703800 15.543400
vt 18.964800 13.863600
vt 18.447201 15.795400
vt 19.478001 13.965600
vt 19.216999 15.948400
s 1
usemtl 71
f 3/1/1 2/2/1 1/3/1
f 1/3/1 4/4/1 3/1/1
f 2/2/1 6/5/1 5/6/1
f 5/6/1 1/3/1 2/2/1
f 6/5/1 8/7/1 7/8/1
f 7/8/1 5/6/1 6/5/1
f 8/7/1 3/1/1 4/4/1
f 4/4/1 7/8/1 8/7/1
f 11/9/2 10/7/2 9/10/2
f 9/10/2 12/11/2 11/9/2
f 15/12/1 14/13/1 13/14/1
f 13/14/1 16/15/1 15/12/1
f 19/16/2 18/17/2 17/18/2
f 17/18/2 20/19/2 19/16/2
f 23/19/1 22/20/1 21/21/1
f 21/21/1 24/22/1 23/19/1
f 27/23/2 26/19/2 25/24/2
f 25/24/2 28/25/2 27/23/2
f 29/26/3 30/27/3 31/28/3
f 29/26/3 31/28/3 32/29/3
f 29/26/3 32/29/3 33/30/3
f 29/26/3 33/30/3 34/31/3
f 29/26/3 34/31/3 35/32/3
f 29/26/3 35/32/3 36/33/3
f 29/26/3 36/33/3 37/34/3
f 29/26/3 37/34/3 38/35/3
f 29/26/3 38/35/3 39/36/3
f 29/26/3 39/36/3 40/37/3
f 29/26/3 40/37/3 41/38/3
f 29/26/3 41/38/3 42/39/3
f 43/40/3 42/39/3 44/41/3
f 43/40/3 44/41/3 45/42/3
f 43/40/3 45/42/3 46/43/3
f 43/40/3 46/43/3 47/44/3
f 43/40/3 47/44/3 48/45/3
f 43/40/3 48/45/3 49/46/3
f 43/40/3 49/46/3 50/47/3
f 43/40/3 50/47/3 51/48/3
f 43/40/3 51/48/3 52/49/3
f 43/40/3 52/49/3 53/50/3
f 43/40/3 53/50/3 54/51/3
f 43/40/3 54/51/3 55/52/3
f 56/53/3 55/52/3 57/54/3
f 56/53/3 57/54/3 58/55/3
f 56/53/3 58/55/3 59/56/3
f 56/53/3 59/56/3 60/57/3
f 56/53/3 60/57/3 61/58/3
f 56/53/3 61/58/3 62/59/3
f 56/53/3 62/59/3 63/60/3
f 56/53/3 63/60/3 64/61/3
f 56/53/3 64/61/3 65/62/3
f 56/53/3 65/62/3 66/63/3
f 56/53/3 66/63/3 67/64/3
f 56/53/3 67/64/3 68/65/3
f 69/66/3 68/65/3 70/67/3
f 69/66/3 70/67/3 71/68/3
f 69/66/3 71/68/3 72/69/3
f 69/66/3 72/69/3 73/70/3
f 69/66/3 73/70/3 74/71/3
f 69/66/3 74/71/3 75/72/3
f 69/66/3 75/72/3 76/73/3
f 69/66/3 76/73/3 77/74/3
f 69/66/3 77/74/3 78/75/3
f 69/66/3 78/75/3 79/76/3
f 69/66/3 79/76/3 80/77/3
f 69/66/3 80/77/3 30/27/3
f 81/78/4 82/79/5 83/27/6
f 83/27/6 84/77/7 81/78/4
f 85/80/8 81/78/4 84/77/7
f 84/77/7 86/76/9 85/80/8
f 87/81/10 85/80/8 86/76/9
f 86/76/9 88/75/11 87/81/10
f 89/82/12 87/81/10 88/75/11
f 88/75/11 90/74/13 89/82/12
f 91/83/14 89/82/12 90/74/13
f 90/74/13 92/73/15 91/83/14
f 93/84/16 91/83/14 92/73/15
f 92/73/15 94/72/17 93/84/16
f 95/85/18 93/84/16 94/72/17
f 94/72/17 96/71/19 95/85/18
f 97/86/20 95/85/18 96/71/19
f 96/71/19 98/70/21 97/86/20
f 99/87/22 97/86/20 98/70/21
f 98/70/21 100/69/23 99/87/22
f 101/88/24 99/87/22 100/69/23
f 100/69/23 102/68/25 101/88/24
f 103/89/26 101/88/24 102/68/25
f 102/68/25 104/67/27 103/89/26
f 105/90/28 103/89/26 104/67/27
f 104/67/27 106/91/29 105/90/28
f 107/92/30 105/90/28 106/91/29
f 106/91/29 108/93/31 107/92/30
f 109/94/32 107/92/30 108/93/31
f 108/93/31 110/95/33 109/94/32
f 111/96/34 109/94/32 110/95/33
f 110/95/33 112/97/35 111/96/34
f 113/98/36 111/96/34 112/97/35
f 112/97/35 114/99/37 113/98/36
f 115/100/38 113/98/36 114/99/37
f 114/99/37 116/101/39 115/100/38
f 117/102/40 115/100/38 116/101/39
f 116/101/39 118/103/41 117/102/40
f 119/104/42 117/102/40 118/103/41
f 118/103/41 120/105/43 119/104/42
f 121/106/44 119/104/42 120/105/43
f 120/105/43 122/107/45 121/106/44
f 123/108/46 121/106/44 122/107/45
f 122/107/45 124/109/47 123/108/46
f 125/110/48 123/108/46 124/109/47
f 124/109/47 126/111/49 125/110/48
f 127/112/50 125/110/48 126/111/49
f 126/111/49 128/113/51 127/112/50
f 129/114/52 127/112/50 128/113/51
f 128/113/51 130/20/53 129/114/52
f 131/115/54 129/114/52 130/20/53
f 130/20/53 132/116/55 131/115/54
f 133/117/56 131/115/54 132/116/55
f 132/116/55 134/118/57 133/117/56
f 135/119/58 133/117/56 134/118/57
f 134/118/57 136/120/59 135/119/58
f 137/121/60 135/119/58 136/120/59
f 136/120/59 138/122/61 137/121/60
f 139/123/62 137/121/60 138/122/61
f 138/122/61 140/124/63 139/123/62
f 141/125/64 139/123/62 140/124/63
f 140/124/63 142/46/65 141/125/64
f 143/126/66 141/125/64 142/46/65
f 142/46/65 144/45/67 143/126/66
f 145/127/68 143/126/66 144/45/67
f 144/45/67 146/44/69 145/127/68
f 147/128/70 145/127/68 146/44/69
f 146/44/69 148/129/71 147/128/70
f 149/130/72 147/128/70 148/129/71
f 148/129/71 150/42/73 149/130/72
f 151/131/74 149/130/72 150/42/73
f 150/42/73 152/41/75 151/131/74
f 153/27/76 151/131/74 152/41/75
f 152/41/75 154/114/77 153/27/76
f 155/132/78 153/27/76 154/114/77
f 154/114/77 156/133/79 155/132/78
f 157/134/80 155/132/78 156/133/79
f 156/133/79 158/135/81 157/134/80
f 159/136/82 157/134/80 158/135/81
f 158/135/81 160/137/83 159/136/82
f 161/138/84 159/136/82 160/137/83
f 160/137/83 162/35/85 161/138/84
f 163/139/86 161/138/84 162/35/85
f 162/35/85 164/140/87 163/139/86
f 165/141/88 163/139/86 164/140/87
f 164/140/87 166/142/89 165/141/88
f 167/143/90 165/141/88 166/142/89
f 166/142/89 168/144/91 167/143/90
f 169/145/92 167/143/90 168/144/91
f 168/144/91 170/146/93 169/145/92
f 171/147/94 169/145/92 170/146/93
f 170/146/93 172/148/95 171/147/94
f 173/149/96 171/147/94 172/148/95
f 172/148/95 174/150/97 173/149/96
f 175/151/98 173/149/96 174/150/97
f 174/150/97 176/152/99 175/151/98
f 82/79/5 175/151/98 176/152/99
f 176/152/99 83/27/6 82/79/5
f 177/153/100 178/154/100 179/155/100
f 177/153/100 179/155/100 180/156/100
f 177/153/100 180/156/100 181/157/100
f 177/153/100 181/157/100 182/158/100
f 177/153/100 182/158/100 183/159/100
f 177/153/100 183/159/100 184/160/100
f 177/153/100 184/160/100 185/161/100
f 177/153/100 185/161/100 186/162/100
f 177/153/100 186/162/100 187/163/100
f 177/153/100 187/163/100 188/164/100
f 177/153/100 188/164/100 189/165/100
f 177/153/100 189/165/100 190/166/100
f 191/167/100 190/166/100 192/168/100
f 191/167/100 192/168/100 193/169/100
f 191/167/100 193/169/100 194/170/100
f 191/167/100 194/170/100 195/171/100
f 191/167/100 195/171/100 196/172/100
f 191/167/100 196/172/100 197/173/100
f 191/167/100 197/173/100 198/174/100
f 191/167/100 198/174/100 199/175/100
f 191/167/100 199/175/100 200/176/100
f 191/167/100 200/176/100 201/177/100
f 191/167/100 201/177/100 202/178/100
f 191/167/100 202/178/100 203/179/100
f 204/180/100 203/179/100 205/181/100
f 204/180/100 205/181/100 206/182/100
f 204/180/100 206/182/100 207/183/100
f 204/180/100 207/183/100 208/184/100
f 204/180/100 208/184/100 209/185/100
f 204/180/100 209/185/100 210/186/100
f 204/180/100 210/186/100 211/187/100
f 204/180/100 211/187/100 212/188/100
f 204/180/100 212/188/100 213/189/100
f 204/180/100 213/189/100 214/190/100
f 204/180/100 214/190/100 215/191/100
f 204/180/100 215/191/100 216/192/100
f 217/193/100 216/192/100 218/194/100
f 217/193/100 218/194/100 219/195/100
f 217/193/100 219/195/100 220/196/100
f 217/193/100 220/196/100 221/197/100
f 217/193/100 221/197/100 222/198/100
f 217/193/100 222/198/100 223/199/100
f 217/193/100 223/199/100 224/200/100
f 217/193/100 224/200/100 225/201/100
f 217/193/100 225/201/100 226/202/100
f 217/193/100 226/202/100 227/203/100
f 217/193/100 227/203/100 228/204/100
f 217/193/100 228/204/100 178/154/100
f 231/205/3 230/206/3 229/207/3
f 229/207/3 232/208/3 231/205/3
f 232/208/3 229/207/3 233/209/3
f 233/209/3 234/210/3 232/208/3
f 234/210/3 233/209/3 235/211/3
f 235/211/3 236/212/3 234/210/3
f 236/212/3 235/211/3 230/206/3
f 230/206/3 231/205/3 236/212/3
f 239/180/100 238/213/100 237/214/100
f 237/214/100 240/215/100 239/180/100
f 69/66/3 242/216/3 241/217/3
f 241/217/3 56/53/3 69/66/3
f 56/53/3 241/217/3 243/205/3
f 243/205/3 43/40/3 56/53/3
f 43/40/3 243/205/3 244/218/3
f 244/218/3 29/26/3 43/40/3
f 29/26/3 244/218/3 242/216/3
f 242/216/3 69/66/3 29/26/3
f 177/153/100 191/167/100 245/219/100
f 245/219/100 246/220/100 177/153/100
f 191/167/100 204/180/100 247/205/100
f 247/205/100 245/219/100 191/167/100
f 204/180/100 217/193/100 248/221/100
f 248/221/100 247/205/100 204/180/100
f 217/193/100 177/153/100 246/220/100
f 246/220/100 248/221/100 217/193/100
f 251/222/3 250/223/3 249/224/3
f 249/224/3 252/225/3 251/222/3
f 255/226/100 254/224/100 253/227/100
f 253/227/100 256/228/100 255/226/100
f 259/229/101 258/226/101 257/228/101
f 257/228/101 260/227/101 259/229/101
f 262/180/101 261/230/101 259/229/101
f 259/229/101 260/227/101 262/180/101
f 265/231/102 264/224/102 263/223/102
f 263/223/102 266/222/102 265/231/102
f 265/231/102 268/232/102 267/167/102
f 267/167/102 264/224/102 265/231/102
f 270/233/102 269/217/102 267/167/102
f 267/167/102 268/232/102 270/233/102
f 273/234/101 272/206/101 271/215/101
f 271/215/101 274/214/101 273/234/101
f 273/234/101 274/214/101 275/213/101
f 275/213/101 276/235/101 273/234/101
f 277/236/101 276/235/101 275/213/101
f 275/213/101 278/237/101 277/236/101
f 281/233/102 280/207/102 279/206/102
f 279/206/102 282/180/102 281/233/102
f 283/209/102 280/207/102 281/233/102
f 281/233/102 284/238/102 283/209/102
f 285/239/103 286/240/104 287/241/105
f 287/241/105 288/242/106 285/239/103
f 289/243/107 285/239/103 288/242/106
f 288/242/106 290/244/108 289/243/107
f 291/245/109 289/243/107 290/244/108
f 290/244/108 292/246/110 291/245/109
f 293/247/111 291/245/109 292/246/110
f 292/246/110 294/248/112 293/247/111
f 295/249/113 293/247/111 294/248/112
f 294/248/112 296/250/114 295/249/113
f 297/251/115 295/249/113 296/250/114
f 296/250/114 298/252/116 297/251/115
f 299/253/117 297/251/115 298/252/116
f 298/252/116 300/254/118 299/253/117
f 301/255/119 299/253/117 300/254/118
f 300/254/118 302/256/120 301/255/119
f 303/257/121 301/255/119 302/256/120
f 302/256/120 304/258/122 303/257/121
f 305/259/123 303/257/121 304/258/122
f 304/258/122 306/260/124 305/259/123
f 307/261/125 305/259/123 306/260/124
f 306/260/124 308/262/126 307/261/125
f 309/263/127 307/261/125 308/262/126
f 308/262/126 310/264/128 309/263/127
f 311/265/129 309/263/127 310/264/128
f 310/264/128 312/266/130 311/265/129
f 313/267/131 311/265/129 312/266/130
f 312/266/130 314/268/132 313/267/131
f 315/269/133 313/267/131 314/268/132
f 314/268/132 316/270/134 315/269/133
f 317/271/135 315/269/133 316/270/134
f 316/270/134 318/272/136 317/271/135
f 319/273/137 317/271/135 318/272/136
f 318/272/136 320/274/138 319/273/137
f 321/275/139 319/273/137 320/274/138
f 320/274/138 322/276/140 321/275/139
f 323/273/141 321/275/139 322/276/140
f 322/276/140 324/274/142 323/273/141
f 325/271/143 323/273/141 324/274/142
f 324/274/142 326/272/144 325/271/143
f 327/269/145 325/271/143 326/272/144
f 326/272/144 328/270/146 327/269/145
f 329/267/147 327/269/145 328/270/146
f 328/270/146 330/268/148 329/267/147
f 331/265/149 329/267/147 330/268/148
f 330/268/148 332/266/150 331/265/149
f 333/277/151 331/265/149 332/266/150
f 332/266/150 334/278/152 333/277/151
f 335/261/153 333/277/151 334/278/152
f 334/278/152 336/262/154 335/261/153
f 337/259/155 335/261/153 336/262/154
f 336/262/154 338/260/156 337/259/155
f 339/257/157 337/259/155 338/260/156
f 338/260/156 340/258/158 339/257/157
f 341/255/159 339/257/157 340/258/158
f 340/258/158 342/256/160 341/255/159
f 343/253/161 341/255/159 342/256/160
f 342/256/160 344/254/162 343/253/161
f 345/251/163 343/253/161 344/254/162
f 344/254/162 346/252/164 345/251/163
f 347/249/165 345/251/163 346/252/164
f 346/252/164 348/250/166 347/249/165
f 349/247/167 347/249/165 348/250/166
f 348/250/166 350/248/168 349/247/167
f 351/245/169 349/247/167 350/248/168
f 350/248/168 352/246/170 351/245/169
f 353/243/171 351/245/169 352/246/170
f 352/246/170 354/244/172 353/243/171
f 355/239/173 353/243/171 354/244/172
f 354/244/172 356/242/174 355/239/173
f 357/240/175 355/239/173 356/242/174
f 356/242/174 358/241/176 357/240/175
f 359/279/177 357/240/175 358/241/176
f 358/241/176 360/280/178 359/279/177
f 361/281/179 359/279/177 360/280/178
f 360/280/178 362/282/180 361/281/179
f 363/283/181 361/281/179 362/282/180
f 362/282/180 364/284/182 363/283/181
f 365/285/183 363/283/181 364/284/182
f 364/284/182 366/286/184 365/285/183
f 367/287/185 365/285/183 366/286/184
f 366/286/184 368/288/186 367/287/185
f 369/289/187 367/287/185 368/288/186
f 368/288/186 370/290/188 369/289/187
f 371/287/189 369/289/187 370/290/188
f 370/290/188 372/288/190 371/287/189
f 373/285/191 371/287/189 372/288/190
f 372/288/190 374/286/192 373/285/191
f 375/283/193 373/285/191 374/286/192
f 374/286/192 376/284/194 375/283/193
f 377/281/195 375/283/193 376/284/194
f 376/284/194 378/282/196 377/281/195
f 379/279/197 377/281/195 378/282/196
f 378/282/196 380/280/198 379/279/197
f 286/240/104 379/279/197 380/280/198
f 380/280/198 287/241/105 286/240/104
f 383/291/2 382/292/2 381/293/2
f 383/291/2 381/293/2 384/294/2
f 383/291/2 384/294/2 385/295/2
f 383/291/2 385/295/2 386/296/2
f 383/291/2 386/296/2 387/297/2
f 383/291/2 387/297/2 388/298/2
f 383/291/2 388/298/2 389/299/2
f 383/291/2 389/299/2 390/300/2
f 383/291/2 390/300/2 391/301/2
f 383/291/2 391/301/2 392/302/2
f 383/291/2 392/302/2 393/303/2
f 383/291/2 393/303/2 394/238/2
f 383/291/2 394/238/2 395/304/2
f 383/291/2 395/304/2 396/305/2
f 383/291/2 396/305/2 397/306/2
f 383/291/2 397/306/2 398/307/2
f 383/291/2 398/307/2 399/308/2
f 383/291/2 399/308/2 400/309/2
f 383/291/2 400/309/2 401/310/2
f 383/291/2 401/310/2 402/311/2
f 383/291/2 402/311/2 403/312/2
f 383/291/2 403/312/2 404/313/2
f 383/291/2 404/313/2 405/314/2
f 383/291/2 405/314/2 406/315/2
f 383/291/2 406/315/2 407/316/2
f 383/291/2 407/316/2 408/317/2
f 383/291/2 408/317/2 409/318/2
f 383/291/2 409/318/2 410/319/2
f 383/291/2 410/319/2 411/320/2
f 383/291/2 411/320/2 412/321/2
f 383/291/2 412/321/2 413/322/2
f 383/291/2 413/322/2 414/323/2
f 383/291/2 414/323/2 415/324/2
f 383/291/2 415/324/2 416/325/2
f 383/291/2 416/325/2 417/326/2
f 383/291/2 417/326/2 418/327/2
f 383/291/2 418/327/2 419/328/2
f 383/291/2 419/328/2 420/329/2
f 383/291/2 420/329/2 421/330/2
f 383/291/2 421/330/2 422/331/2
f 383/291/2 422/331/2 423/332/2
f 383/291/2 423/332/2 424/333/2
f 383/291/2 424/333/2 425/334/2
f 383/291/2 425/334/2 426/335/2
f 383/291/2 426/335/2 427/336/2
f 383/291/2 427/336/2 428/337/2
f 383/291/2 428/337/2 429/338/2
f 383/291/2 429/338/2 382/292/2
f 430/339/6 82/79/5 81/78/4
f 81/78/4 431/340/7 430/339/6
f 431/340/7 81/78/4 85/80/8
f 85/80/8 432/341/9 431/340/7
f 432/341/9 85/80/8 87/81/10
f 87/81/10 433/342/11 432/341/9
f 433/342/11 87/81/10 89/82/12
f 89/82/12 434/343/13 433/342/11
f 434/343/13 89/82/12 91/83/14
f 91/83/14 435/344/15 434/343/13
f 435/344/15 91/83/14 93/84/16
f 93/84/16 436/345/17 435/344/15
f 436/345/17 93/84/16 95/85/18
f 95/85/18 437/346/19 436/345/17
f 437/346/19 95/85/18 97/86/20
f 97/86/20 438/347/21 437/346/19
f 438/347/21 97/86/20 99/87/22
f 99/87/22 439/348/23 438/347/21
f 439/348/23 99/87/22 101/88/24
f 101/88/24 440/349/25 439/348/23
f 440/349/25 101/88/24 103/89/26
f 103/89/26 441/350/27 440/349/25
f 441/350/27 103/89/26 105/90/28
f 105/90/28 442/79/29 441/350/27
f 442/79/29 105/90/28 107/92/30
f 107/92/30 443/351/31 442/79/29
f 443/351/31 107/92/30 109/94/32
f 109/94/32 444/352/33 443/351/31
f 444/352/33 109/94/32 111/96/34
f 111/96/34 445/353/35 444/352/33
f 445/353/35 111/96/34 113/98/36
f 113/98/36 446/354/37 445/353/35
f 446/354/37 113/98/36 115/100/38
f 115/100/38 447/355/39 446/354/37
f 447/355/39 115/100/38 117/102/40
f 117/102/40 448/356/41 447/355/39
f 448/356/41 117/102/40 119/104/42
f 119/104/42 449/357/43 448/356/41
f 449/357/43 119/104/42 121/106/44
f 121/106/44 450/358/45 449/357/43
f 450/358/45 121/106/44 123/108/46
f 123/108/46 451/359/47 450/358/45
f 451/359/47 123/108/46 125/110/48
f 125/110/48 452/360/49 451/359/47
f 452/360/49 125/110/48 127/112/50
f 127/112/50 453/361/51 452/360/49
f 453/361/51 127/112/50 129/114/52
f 129/114/52 454/241/53 453/361/51
f 454/241/53 129/114/52 131/115/54
f 131/115/54 455/362/55 454/241/53
f 455/362/55 131/115/54 133/117/56
f 133/117/56 456/363/57 455/362/55
f 456/363/57 133/117/56 135/119/58
f 135/119/58 457/364/59 456/363/57
f 457/364/59 135/119/58 137/121/60
f 137/121/60 458/365/61 457/364/59
f 458/365/61 137/121/60 139/123/62
f 139/123/62 459/366/199 458/365/61
f 459/366/199 139/123/62 141/125/64
f 141/125/64 460/367/65 459/366/199
f 460/367/65 141/125/64 143/126/66
f 143/126/66 461/368/67 460/367/65
f 461/368/67 143/126/66 145/127/68
f 145/127/68 462/369/69 461/368/67
f 462/369/69 145/127/68 147/128/70
f 147/128/70 463/370/71 462/369/69
f 463/370/71 147/128/70 149/130/72
f 149/130/72 464/371/73 463/370/71
f 464/371/73 149/130/72 151/131/74
f 151/131/74 465/372/75 464/371/73
f 465/372/75 151/131/74 153/27/76
f 153/27/76 466/19/77 465/372/75
f 466/19/77 153/27/76 155/132/78
f 155/132/78 467/373/79 466/19/77
f 467/373/79 155/132/78 157/134/80
f 157/134/80 468/374/81 467/373/79
f 468/374/81 157/134/80 159/136/82
f 159/136/82 469/375/83 468/374/81
f 469/375/83 159/136/82 161/138/84
f 161/138/84 470/376/85 469/375/83
f 470/376/85 161/138/84 163/139/86
f 163/139/86 471/377/87 470/376/85
f 471/377/87 163/139/86 165/141/88
f 165/141/88 472/378/89 471/377/87
f 472/378/89 165/141/88 167/143/90
f 167/143/90 473/379/91 472/378/89
f 473/379/91 167/143/90 169/145/92
f 169/145/92 474/380/93 473/379/91
f 474/380/93 169/145/92 171/147/94
f 171/147/94 475/381/95 474/380/93
f 475/381/95 171/147/94 173/149/96
f 173/149/96 476/382/97 475/381/95
f 476/382/97 173/149/96 175/151/98
f 175/151/98 477/383/99 476/382/97
f 477/383/99 175/151/98 82/79/5
f 82/79/5 430/339/6 477/383/99
f 478/384/200 479/154/201 480/385/202
f 480/385/202 481/386/55 478/384/200
f 482/387/203 478/384/200 481/386/55
f 481/386/55 483/388/57 482/387/203
f 484/389/58 482/387/203 483/388/57
f 483/388/57 485/390/59 484/389/58
f 486/391/60 484/389/58 485/390/59
f 485/390/59 487/392/61 486/391/60
f 488/393/62 486/391/60 487/392/61
f 487/392/61 489/394/199 488/393/62
f 490/395/64 488/393/62 489/394/199
f 489/394/199 491/396/65 490/395/64
f 492/161/204 490/395/64 491/396/65
f 491/396/65 493/397/67 492/161/204
f 494/162/68 492/161/204 493/397/67
f 493/397/67 495/398/69 494/162/68
f 496/163/70 494/162/68 495/398/69
f 495/398/69 497/399/71 496/163/70
f 498/164/205 496/163/70 497/399/71
f 497/399/71 499/400/206 498/164/205
f 500/165/74 498/164/205 499/400/206
f 499/400/206 501/401/75 500/165/74
f 502/166/207 500/165/74 501/401/75
f 501/401/75 503/402/208 502/166/207
f 504/403/78 502/166/207 503/402/208
f 503/402/208 505/404/79 504/403/78
f 506/405/209 504/403/78 505/404/79
f 505/404/79 507/406/210 506/405/209
f 508/407/82 506/405/209 507/406/210
f 507/406/210 509/408/83 508/407/82
f 510/409/84 508/407/82 509/408/83
f 509/408/83 511/410/85 510/409/84
f 512/411/86 510/409/84 511/410/85
f 511/410/85 513/412/211 512/411/86
f 514/413/88 512/411/86 513/412/211
f 513/412/211 515/414/89 514/413/88
f 516/415/212 514/413/88 515/414/89
f 515/414/89 517/416/91 516/415/212
f 518/417/92 516/415/212 517/416/91
f 517/416/91 519/418/93 518/417/92
f 520/419/213 518/417/92 519/418/93
f 519/418/93 521/420/95 520/419/213
f 522/421/96 520/419/213 521/420/95
f 521/420/95 523/422/214 522/421/96
f 524/423/98 522/421/96 523/422/214
f 523/422/214 525/424/215 524/423/98
f 526/425/216 524/423/98 525/424/215
f 525/424/215 527/426/217 526/425/216
f 528/181/218 526/425/216 527/426/217
f 527/426/217 529/427/7 528/181/218
f 530/182/219 528/181/218 529/427/7
f 529/427/7 531/428/9 530/182/219
f 532/183/10 530/182/219 531/428/9
f 531/428/9 533/429/11 532/183/10
f 534/184/12 532/183/10 533/429/11
f 533/429/11 535/430/13 534/184/12
f 536/185/14 534/184/12 535/430/13
f 535/430/13 537/431/220 536/185/14
f 538/186/16 536/185/14 537/431/220
f 537/431/220 539/432/17 538/186/16
f 540/187/221 538/186/16 539/432/17
f 539/432/17 541/433/19 540/187/221
f 542/188/20 540/187/221 541/433/19
f 541/433/19 543/434/21 542/188/20
f 544/189/22 542/188/20 543/434/21
f 543/434/21 545/435/23 544/189/22
f 546/190/24 544/189/22 545/435/23
f 545/435/23 547/436/222 546/190/24
f 548/191/26 546/190/24 547/436/222
f 547/436/222 549/437/223 548/191/26
f 550/192/224 548/191/26 549/437/223
f 549/437/223 551/438/225 550/192/224
f 552/439/226 550/192/224 551/438/225
f 551/438/225 553/440/31 552/439/226
f 554/441/227 552/439/226 553/440/31
f 553/440/31 555/442/228 554/441/227
f 556/443/34 554/441/227 555/442/228
f 555/442/228 557/444/35 556/443/34
f 558/445/36 556/443/34 557/444/35
f 557/444/35 559/446/37 558/445/36
f 560/447/38 558/445/36 559/446/37
f 559/446/37 561/448/229 560/447/38
f 562/449/40 560/447/38 561/448/229
f 561/448/229 563/450/41 562/449/40
f 564/451/230 562/449/40 563/450/41
f 563/450/41 565/452/43 564/451/230
f 566/453/44 564/451/230 565/452/43
f 565/452/43 567/454/45 566/453/44
f 568/455/231 566/453/44 567/454/45
f 567/454/45 569/456/47 568/455/231
f 570/457/232 568/455/231 569/456/47
f 569/456/47 571/458/233 570/457/232
f 572/459/50 570/457/232 571/458/233
f 571/458/233 573/460/234 572/459/50
f 479/154/201 572/459/50 573/460/234
f 573/460/234 480/385/202 479/154/201
f 574/339/100 575/340/100 576/461/100
f 576/461/100 577/462/100 574/339/100
f 575/340/100 578/341/100 579/463/100
f 579/463/100 576/461/100 575/340/100
f 578/341/100 580/342/100 581/464/100
f 581/464/100 579/463/100 578/341/100
f 580/342/100 582/343/100 583/465/100
f 583/465/100 581/464/100 580/342/100
f 582/343/100 584/344/100 585/466/100
f 585/466/100 583/465/100 582/343/100
f 584/344/100 586/345/100 587/396/100
f 587/396/100 585/466/100 584/344/100
f 586/345/100 588/346/100 589/397/100
f 589/397/100 587/396/100 586/345/100
f 588/346/100 590/347/100 591/398/100
f 591/398/100 589/397/100 588/346/100
f 590/347/100 592/348/100 593/399/100
f 593/399/100 591/398/100 590/347/100
f 592/348/100 594/349/100 595/400/100
f 595/400/100 593/399/100 592/348/100
f 594/349/100 596/350/100 597/401/100
f 597/401/100 595/400/100 594/349/100
f 596/350/100 598/467/100 599/11/100
f 599/11/100 597/401/100 596/350/100
f 598/467/100 600/468/100 601/469/100
f 601/469/100 599/11/100 598/467/100
f 600/468/100 602/470/100 603/471/100
f 603/471/100 601/469/100 600/468/100
f 602/470/100 604/472/100 605/473/100
f 605/473/100 603/471/100 602/470/100
f 604/472/100 606/474/100 607/475/100
f 607/475/100 605/473/100 604/472/100
f 606/474/100 608/476/100 609/477/100
f 609/477/100 607/475/100 606/474/100
f 608/476/100 610/478/100 611/479/100
f 611/479/100 609/477/100 608/476/100
f 610/478/100 612/480/100 613/481/100
f 613/481/100 611/479/100 610/478/100
f 612/480/100 614/482/100 615/483/100
f 615/483/100 613/481/100 612/480/100
f 614/482/100 616/484/100 617/485/100
f 617/485/100 615/483/100 614/482/100
f 616/484/100 618/486/100 619/487/100
f 619/487/100 617/485/100 616/484/100
f 618/486/100 620/488/100 621/489/100
f 621/489/100 619/487/100 618/486/100
f 620/488/100 622/90/100 623/426/100
f 623/426/100 621/489/100 620/488/100
f 622/90/100 624/490/100 625/427/100
f 625/427/100 623/426/100 622/90/100
f 624/490/100 626/491/100 627/428/100
f 627/428/100 625/427/100 624/490/100
f 626/491/100 628/492/100 629/429/100
f 629/429/100 627/428/100 626/491/100
f 628/492/100 630/493/100 631/430/100
f 631/430/100 629/429/100 628/492/100
f 630/493/100 632/494/100 633/431/100
f 633/431/100 631/430/100 630/493/100
f 632/494/100 634/367/100 635/432/100
f 635/432/100 633/431/100 632/494/100
f 634/367/100 636/368/100 637/433/100
f 637/433/100 635/432/100 634/367/100
f 636/368/100 638/369/100 639/434/100
f 639/434/100 637/433/100 636/368/100
f 638/369/100 640/370/100 641/435/100
f 641/435/100 639/434/100 638/369/100
f 640/370/100 642/371/100 643/436/100
f 643/436/100 641/435/100 640/370/100
f 642/371/100 644/372/100 645/437/100
f 645/437/100 643/436/100 642/371/100
f 644/372/100 646/402/100 647/79/100
f 647/79/100 645/437/100 644/372/100
f 646/402/100 648/495/100 649/496/100
f 649/496/100 647/79/100 646/402/100
f 648/495/100 650/497/100 651/498/100
f 651/498/100 649/496/100 648/495/100
f 650/497/100 652/499/100 653/500/100
f 653/500/100 651/498/100 650/497/100
f 652/499/100 654/501/100 655/502/100
f 655/502/100 653/500/100 652/499/100
f 654/501/100 656/503/100 657/504/100
f 657/504/100 655/502/100 654/501/100
f 656/503/100 658/505/100 659/506/100
f 659/506/100 657/504/100 656/503/100
f 658/505/100 660/507/100 661/508/100
f 661/508/100 659/506/100 658/505/100
f 660/507/100 662/509/100 663/510/100
f 663/510/100 661/508/100 660/507/100
f 662/509/100 664/511/100 665/512/100
f 665/512/100 663/510/100 662/509/100
f 664/511/100 666/513/100 667/514/100
f 667/514/100 665/512/100 664/511/100
f 666/513/100 668/515/100 669/516/100
f 669/516/100 667/514/100 666/513/100
f 668/515/100 574/339/100 577/462/100
f 577/462/100 669/516/100 668/515/100
