# Blender 4.5.2 LTS
# www.blender.org
mtllib brick1*2*2_with_inside_stud_holder_magenta.mtl
o brick1*2*2_with_inside_stud_holder_magenta
v -20.000010 20.000031 9.999981
v -20.000031 20.000011 -10.000023
v -19.999990 -19.999998 -9.999980
v -19.999969 -19.999979 10.000020
v 28.000040 -19.999922 9.999972
v 27.999990 20.000080 9.999932
v -20.000010 20.000031 9.999981
v -19.999969 -19.999979 10.000020
v 27.999990 20.000080 9.999932
v 27.999969 20.000061 -10.000063
v -20.000031 20.000011 -10.000023
v -20.000010 20.000031 9.999981
v 28.000019 -19.999941 -10.000030
v 28.000040 -19.999922 9.999972
v -19.999969 -19.999979 10.000020
v -19.999990 -19.999998 -9.999980
v 28.000031 -15.999926 5.999969
v 28.000019 -15.999937 -6.000031
v -15.999990 -15.999990 -5.999989
v -15.999970 -15.999979 6.000011
v 28.000019 -15.999937 -6.000031
v 28.000010 -6.999940 -6.000041
v -16.000000 -6.999990 -5.999997
v -15.999990 -15.999990 -5.999989
v -15.999970 -15.999979 6.000011
v -15.999980 -6.999980 6.000003
v 28.000019 -6.999920 5.999959
v 28.000031 -15.999926 5.999969
v -16.000000 -4.999990 -3.999999
v -16.000000 -2.999990 -6.000001
v 28.000000 -2.999941 -6.000044
v 28.000010 -4.999930 -4.000042
v 28.000010 -6.999940 -6.000041
v -16.000000 -6.999990 -5.999997
v -16.000000 -4.999990 -3.999999
v 28.000010 -4.999930 -4.000042
v 28.000010 -4.999930 -4.000042
v 28.000000 -2.999941 -6.000044
v 28.000010 -6.999940 -6.000041
v 28.000000 3.000059 -6.000051
v -16.000010 3.000010 -6.000007
v -16.000000 -2.999990 -6.000001
v 28.000000 -2.999941 -6.000044
v -15.999990 -4.999980 4.000001
v -15.999980 -6.999980 6.000003
v 28.000019 -6.999920 5.999959
v 28.000019 -4.999930 3.999957
v 28.000019 -2.999920 5.999956
v -15.999990 -2.999981 5.999999
v -15.999990 -4.999980 4.000001
v 28.000019 -4.999930 3.999957
v 28.000019 -2.999920 5.999956
v 28.000019 -4.999930 3.999957
v 28.000019 -6.999920 5.999959
v -16.000010 16.000031 5.999980
v -16.000019 16.000019 -6.000020
v 27.999981 16.000069 -6.000064
v 27.999990 16.000080 5.999936
v -16.000019 16.000019 -6.000020
v -16.000010 7.000010 -6.000011
v 27.999990 7.000071 -6.000054
v 27.999981 16.000069 -6.000064
v 27.999990 16.000080 5.999936
v 28.000000 7.000080 5.999946
v -16.000000 7.000019 5.999989
v -16.000010 16.000031 5.999980
v -16.000010 5.000019 -4.000009
v -16.000010 7.000010 -6.000011
v 27.999990 7.000071 -6.000054
v 28.000000 5.000071 -4.000053
v 28.000000 3.000059 -6.000051
v -16.000010 3.000010 -6.000007
v -16.000010 5.000019 -4.000009
v 28.000000 5.000071 -4.000053
v 28.000000 3.000059 -6.000051
v 28.000000 5.000071 -4.000053
v 27.999990 7.000071 -6.000054
v 28.000019 -2.999920 5.999956
v -15.999990 -2.999981 5.999999
v -16.000000 3.000019 5.999993
v 28.000010 3.000080 5.999949
v -16.000000 5.000019 3.999991
v -16.000000 3.000019 5.999993
v 28.000010 3.000080 5.999949
v 28.000000 5.000071 3.999947
v 28.000000 7.000080 5.999946
v -16.000000 7.000019 5.999989
v -16.000000 5.000019 3.999991
v 28.000000 5.000071 3.999947
v 28.000000 5.000071 3.999947
v 28.000010 3.000080 5.999949
v 28.000000 7.000080 5.999946
v -16.000010 16.000031 5.999980
v -16.000019 16.000019 -6.000020
v -15.999990 -15.999990 -5.999989
v -15.999970 -15.999979 6.000011
v 27.999981 16.000069 -6.000064
v 27.999969 20.000061 -10.000063
v 28.000019 -19.999941 -10.000030
v 28.000019 -15.999937 -6.000031
v 28.000040 -19.999922 9.999972
v 28.000031 -15.999926 5.999969
v 27.999990 20.000080 9.999932
v 27.999990 16.000080 5.999936
v -24.000000 4.051611 0.783000
v -24.000010 4.000010 0.000000
v -20.000000 4.000010 -0.000004
v -20.000000 4.051611 0.782996
v -24.000000 4.204611 1.552800
v -20.000000 4.204611 1.552796
v -24.000000 4.456610 2.296200
v -20.000000 4.456619 2.296196
v -24.000000 4.804010 2.999999
v -20.000000 4.804020 2.999995
v -24.000000 5.239611 3.652799
v -20.000000 5.239620 3.652795
v -24.000000 5.757410 4.242598
v -20.000000 5.757420 4.242595
v -24.000000 6.347210 4.760398
v -20.000000 6.347219 4.760394
v -24.000000 7.000010 5.195998
v -20.000000 7.000019 5.195993
v -24.000000 7.703819 5.543396
v -20.000000 7.703819 5.543393
v -24.000000 8.447210 5.795396
v -20.000000 8.447220 5.795392
v -24.000010 9.217010 5.948395
v -20.000010 9.217020 5.948390
v -24.000010 10.000019 5.999995
v -20.000010 10.000019 5.999990
v -24.000010 10.783020 5.948394
v -20.000010 10.783020 5.948390
v -24.000010 11.552811 5.795393
v -20.000010 11.552820 5.795390
v -24.000010 12.296219 5.543393
v -20.000010 12.296219 5.543387
v -24.000010 13.000019 5.195992
v -20.000010 13.000019 5.195988
v -24.000010 13.652809 4.760391
v -20.000010 13.652821 4.760386
v -24.000010 14.242611 4.242590
v -20.000010 14.242619 4.242587
v -24.000019 14.760410 3.652789
v -20.000010 14.760422 3.652785
v -24.000019 15.196011 2.999989
v -20.000019 15.196018 2.999985
v -24.000019 15.543411 2.296189
v -20.000019 15.543419 2.296185
v -24.000019 15.795410 1.552788
v -20.000019 15.795422 1.552784
v -24.000019 15.948410 0.782988
v -20.000019 15.948421 0.782984
v -24.000019 16.000011 -0.000012
v -20.000019 16.000019 -0.000016
v -24.000019 15.948410 -0.783012
v -20.000019 15.948410 -0.783016
v -24.000019 15.795410 -1.552812
v -20.000019 15.795410 -1.552816
v -24.000019 15.543411 -2.296211
v -20.000019 15.543411 -2.296215
v -24.000019 15.196011 -3.000011
v -20.000019 15.196011 -3.000015
v -24.000019 14.760410 -3.652811
v -20.000019 14.760410 -3.652815
v -24.000019 14.242611 -4.242610
v -20.000019 14.242611 -4.242613
v -24.000019 13.652809 -4.760408
v -20.000019 13.652809 -4.760412
v -24.000019 13.000000 -5.196008
v -20.000019 13.000011 -5.196012
v -24.000019 12.296200 -5.543407
v -20.000019 12.296211 -5.543411
v -24.000019 11.552799 -5.795407
v -20.000019 11.552811 -5.795412
v -24.000019 10.783001 -5.948406
v -20.000019 10.783010 -5.948411
v -24.000019 10.000000 -6.000005
v -20.000019 10.000010 -6.000010
v -24.000019 9.216999 -5.948405
v -20.000019 9.217010 -5.948410
v -24.000019 8.447201 -5.795404
v -20.000019 8.447210 -5.795408
v -24.000019 7.703800 -5.543403
v -20.000019 7.703810 -5.543407
v -24.000010 7.000000 -5.196003
v -20.000010 7.000010 -5.196007
v -24.000010 6.347200 -4.760402
v -20.000010 6.347210 -4.760406
v -24.000010 5.757410 -4.242601
v -20.000010 5.757410 -4.242605
v -24.000010 5.239611 -3.652801
v -20.000010 5.239611 -3.652805
v -24.000010 4.804010 -3.000001
v -20.000010 4.804010 -3.000005
v -24.000010 4.456610 -2.296200
v -20.000010 4.456610 -2.296204
v -24.000010 4.204611 -1.552800
v -20.000010 4.204611 -1.552804
v -24.000010 4.051611 -0.783000
v -20.000010 4.051611 -0.783004
v -24.000000 4.051611 0.783000
v -24.000010 4.000010 0.000000
v -24.000010 10.000010 -0.000006
v -24.000000 4.204611 1.552800
v -24.000000 4.456610 2.296200
v -24.000000 4.804010 2.999999
v -24.000000 5.239611 3.652799
v -24.000000 5.757410 4.242598
v -24.000000 6.347210 4.760398
v -24.000000 7.000010 5.195998
v -24.000000 7.703819 5.543396
v -24.000000 8.447210 5.795396
v -24.000010 9.217010 5.948395
v -24.000010 10.000019 5.999995
v -24.000010 10.783020 5.948394
v -24.000010 11.552811 5.795393
v -24.000010 12.296219 5.543393
v -24.000010 13.000019 5.195992
v -24.000010 13.652809 4.760391
v -24.000010 14.242611 4.242590
v -24.000019 14.760410 3.652789
v -24.000019 15.196011 2.999989
v -24.000019 15.543411 2.296189
v -24.000019 15.795410 1.552788
v -24.000019 15.948410 0.782988
v -24.000019 16.000011 -0.000012
v -24.000019 15.948410 -0.783012
v -24.000019 15.795410 -1.552812
v -24.000019 15.543411 -2.296211
v -24.000019 15.196011 -3.000011
v -24.000019 14.760410 -3.652811
v -24.000019 14.242611 -4.242610
v -24.000019 13.652809 -4.760408
v -24.000019 13.000000 -5.196008
v -24.000019 12.296200 -5.543407
v -24.000019 11.552799 -5.795407
v -24.000019 10.783001 -5.948406
v -24.000019 10.000000 -6.000005
v -24.000019 9.216999 -5.948405
v -24.000019 8.447201 -5.795404
v -24.000019 7.703800 -5.543403
v -24.000010 7.000000 -5.196003
v -24.000010 6.347200 -4.760402
v -24.000010 5.757410 -4.242601
v -24.000010 5.239611 -3.652801
v -24.000010 4.804010 -3.000001
v -24.000010 4.456610 -2.296200
v -24.000010 4.204611 -1.552800
v -24.000010 4.051611 -0.783000
v -23.999981 -15.948393 0.783020
v -23.999981 -15.999992 0.000020
v -19.999981 -15.999989 0.000016
v -19.999981 -15.948388 0.783016
v -23.999981 -15.795393 1.552820
v -19.999981 -15.795388 1.552816
v -23.999981 -15.543391 2.296220
v -19.999981 -15.543386 2.296216
v -23.999981 -15.195992 3.000020
v -19.999981 -15.195986 3.000015
v -23.999981 -14.760389 3.652818
v -19.999981 -14.760385 3.652815
v -23.999981 -14.242588 4.242619
v -19.999981 -14.242584 4.242615
v -23.999981 -13.652788 4.760417
v -19.999981 -13.652782 4.760414
v -23.999981 -12.999988 5.196018
v -19.999981 -12.999983 5.196013
v -23.999981 -12.296186 5.543417
v -19.999981 -12.296183 5.543413
v -23.999981 -11.552788 5.795415
v -19.999981 -11.552783 5.795413
v -23.999981 -10.782988 5.948416
v -19.999981 -10.782983 5.948411
v -23.999981 -9.999990 6.000014
v -19.999981 -9.999980 6.000010
v -23.999981 -9.216990 5.948413
v -19.999981 -9.216980 5.948409
v -23.999981 -8.447190 5.795412
v -19.999981 -8.447180 5.795409
v -23.999990 -7.703790 5.543412
v -19.999981 -7.703780 5.543407
v -23.999990 -6.999990 5.196011
v -19.999990 -6.999980 5.196007
v -23.999990 -6.347190 4.760410
v -19.999990 -6.347180 4.760406
v -23.999990 -5.757390 4.242610
v -19.999990 -5.757380 4.242606
v -23.999990 -5.239590 3.652810
v -19.999990 -5.239580 3.652806
v -23.999990 -4.803990 3.000009
v -19.999990 -4.803980 3.000005
v -23.999990 -4.456590 2.296209
v -19.999990 -4.456580 2.296205
v -23.999990 -4.204590 1.552808
v -19.999990 -4.204590 1.552805
v -23.999990 -4.051590 0.783008
v -19.999990 -4.051590 0.783004
v -24.000000 -3.999990 0.000008
v -20.000000 -3.999990 0.000004
v -24.000000 -4.051590 -0.782992
v -20.000000 -4.051590 -0.782996
v -24.000000 -4.204590 -1.552791
v -20.000000 -4.204590 -1.552795
v -24.000000 -4.456590 -2.296191
v -20.000000 -4.456590 -2.296195
v -24.000000 -4.803990 -2.999991
v -20.000000 -4.803990 -2.999995
v -24.000000 -5.239600 -3.652791
v -20.000000 -5.239590 -3.652795
v -24.000000 -5.757400 -4.242590
v -20.000000 -5.757390 -4.242594
v -24.000000 -6.347200 -4.760389
v -20.000000 -6.347190 -4.760393
v -24.000000 -7.000000 -5.195989
v -20.000000 -6.999990 -5.195993
v -24.000000 -7.703800 -5.543388
v -20.000000 -7.703790 -5.543392
v -24.000000 -8.447200 -5.795388
v -20.000000 -8.447190 -5.795392
v -24.000000 -9.217000 -5.948387
v -19.999990 -9.216990 -5.948391
v -23.999990 -10.000000 -5.999986
v -19.999990 -9.999990 -5.999990
v -23.999990 -10.782998 -5.948384
v -19.999990 -10.782993 -5.948390
v -23.999990 -11.552798 -5.795384
v -19.999990 -11.552794 -5.795389
v -23.999990 -12.296198 -5.543384
v -19.999990 -12.296194 -5.543387
v -23.999990 -12.999998 -5.195982
v -19.999990 -12.999993 -5.195986
v -23.999990 -13.652798 -4.760383
v -19.999990 -13.652792 -4.760386
v -23.999990 -14.242598 -4.242581
v -19.999990 -14.242592 -4.242586
v -23.999990 -14.760397 -3.652781
v -19.999990 -14.760393 -3.652786
v -23.999981 -15.195995 -2.999980
v -19.999981 -15.195992 -2.999985
v -23.999981 -15.543395 -2.296180
v -19.999981 -15.543390 -2.296184
v -23.999981 -15.795395 -1.552780
v -19.999981 -15.795391 -1.552784
v -23.999981 -15.948394 -0.782980
v -19.999981 -15.948390 -0.782984
v -23.999981 -15.948393 0.783020
v -23.999981 -15.999992 0.000020
v -23.999990 -9.999990 0.000014
v -23.999981 -15.795393 1.552820
v -23.999981 -15.543391 2.296220
v -23.999981 -15.195992 3.000020
v -23.999981 -14.760389 3.652818
v -23.999981 -14.242588 4.242619
v -23.999981 -13.652788 4.760417
v -23.999981 -12.999988 5.196018
v -23.999981 -12.296186 5.543417
v -23.999981 -11.552788 5.795415
v -23.999981 -10.782988 5.948416
v -23.999981 -9.999990 6.000014
v -23.999981 -9.216990 5.948413
v -23.999981 -8.447190 5.795412
v -23.999990 -7.703790 5.543412
v -23.999990 -6.999990 5.196011
v -23.999990 -6.347190 4.760410
v -23.999990 -5.757390 4.242610
v -23.999990 -5.239590 3.652810
v -23.999990 -4.803990 3.000009
v -23.999990 -4.456590 2.296209
v -23.999990 -4.204590 1.552808
v -23.999990 -4.051590 0.783008
v -24.000000 -3.999990 0.000008
v -24.000000 -4.051590 -0.782992
v -24.000000 -4.204590 -1.552791
v -24.000000 -4.456590 -2.296191
v -24.000000 -4.803990 -2.999991
v -24.000000 -5.239600 -3.652791
v -24.000000 -5.757400 -4.242590
v -24.000000 -6.347200 -4.760389
v -24.000000 -7.000000 -5.195989
v -24.000000 -7.703800 -5.543388
v -24.000000 -8.447200 -5.795388
v -24.000000 -9.217000 -5.948387
v -23.999990 -10.000000 -5.999986
v -23.999990 -10.782998 -5.948384
v -23.999990 -11.552798 -5.795384
v -23.999990 -12.296198 -5.543384
v -23.999990 -12.999998 -5.195982
v -23.999990 -13.652798 -4.760383
v -23.999990 -14.242598 -4.242581
v -23.999990 -14.760397 -3.652781
v -23.999981 -15.195995 -2.999980
v -23.999981 -15.543395 -2.296180
v -23.999981 -15.795395 -1.552780
v -23.999981 -15.948394 -0.782980
v 28.000019 -19.999941 -10.000030
v 27.999969 20.000061 -10.000063
v -20.000031 20.000011 -10.000023
v -19.999990 -19.999998 -9.999980
vn -1.0000 -0.0000 -0.0000
vn -0.0000 -0.0000 1.0000
vn -0.0000 1.0000 -0.0000
vn -0.0000 -1.0000 -0.0000
vn -0.0000 -0.0000 -1.0000
vn -0.0000 0.7071 0.7071
vn -0.0000 -0.7071 0.7071
vn 1.0000 -0.0000 -0.0000
vn -0.0000 -0.7071 -0.7071
vn -0.0000 0.7071 -0.7071
vn -0.0000 -0.9940 0.1091
vn -0.0000 -0.9998 -0.0220
vn -0.0000 -0.9998 0.0220
vn -0.0000 -0.9884 0.1522
vn -0.0000 -0.9714 0.2375
vn -0.0000 -0.9601 0.2795
vn -0.0000 -0.9321 0.3623
vn -0.0000 -0.9153 0.4029
vn -0.0000 -0.8767 0.4810
vn -0.0000 -0.8551 0.5185
vn -0.0000 -0.8066 0.5911
vn -0.0000 -0.7798 0.6260
vn -0.0000 -0.7223 0.6916
vn -0.0000 -0.6916 0.7223
vn -0.0000 -0.6260 0.7798
vn -0.0000 -0.5911 0.8066
vn -0.0000 -0.5185 0.8551
vn -0.0000 -0.4810 0.8767
vn -0.0000 -0.4029 0.9153
vn -0.0000 -0.3623 0.9321
vn -0.0000 -0.2795 0.9601
vn -0.0000 -0.2375 0.9714
vn -0.0000 -0.1522 0.9884
vn -0.0000 -0.1091 0.9940
vn -0.0000 -0.0220 0.9998
vn -0.0000 0.0220 0.9998
vn -0.0000 0.1090 0.9940
vn -0.0000 0.1522 0.9884
vn -0.0000 0.2375 0.9714
vn -0.0000 0.2796 0.9601
vn -0.0000 0.3623 0.9321
vn -0.0000 0.4029 0.9153
vn -0.0000 0.4810 0.8767
vn -0.0000 0.5185 0.8551
vn -0.0000 0.5911 0.8066
vn -0.0000 0.6260 0.7798
vn -0.0000 0.6916 0.7223
vn -0.0000 0.7223 0.6916
vn -0.0000 0.7798 0.6260
vn -0.0000 0.8066 0.5911
vn -0.0000 0.8551 0.5185
vn -0.0000 0.8767 0.4810
vn -0.0000 0.9153 0.4029
vn -0.0000 0.9321 0.3623
vn -0.0000 0.9601 0.2795
vn -0.0000 0.9714 0.2374
vn -0.0000 0.9884 0.1522
vn -0.0000 0.9940 0.1091
vn -0.0000 0.9998 0.0220
vn -0.0000 0.9998 -0.0220
vn -0.0000 0.9940 -0.1090
vn -0.0000 0.9884 -0.1522
vn -0.0000 0.9714 -0.2375
vn -0.0000 0.9601 -0.2796
vn -0.0000 0.9321 -0.3623
vn -0.0000 0.9153 -0.4029
vn -0.0000 0.8767 -0.4810
vn -0.0000 0.8551 -0.5185
vn -0.0000 0.8066 -0.5911
vn -0.0000 0.7798 -0.6260
vn -0.0000 0.7223 -0.6916
vn -0.0000 0.6916 -0.7223
vn -0.0000 0.6260 -0.7798
vn -0.0000 0.5911 -0.8066
vn -0.0000 0.5185 -0.8551
vn -0.0000 0.4810 -0.8767
vn -0.0000 0.4029 -0.9153
vn -0.0000 0.3623 -0.9321
vn -0.0000 0.2796 -0.9601
vn -0.0000 0.2375 -0.9714
vn -0.0000 0.1522 -0.9884
vn -0.0000 0.1091 -0.9940
vn -0.0000 0.0220 -0.9998
vn -0.0000 -0.0220 -0.9998
vn -0.0000 -0.1091 -0.9940
vn -0.0000 -0.1522 -0.9884
vn -0.0000 -0.2375 -0.9714
vn -0.0000 -0.2796 -0.9601
vn -0.0000 -0.3623 -0.9321
vn -0.0000 -0.4029 -0.9153
vn -0.0000 -0.4810 -0.8767
vn -0.0000 -0.5185 -0.8551
vn -0.0000 -0.5911 -0.8066
vn -0.0000 -0.6260 -0.7798
vn -0.0000 -0.6916 -0.7223
vn -0.0000 -0.7223 -0.6916
vn -0.0000 -0.7798 -0.6260
vn -0.0000 -0.8066 -0.5911
vn -0.0000 -0.8551 -0.5185
vn -0.0000 -0.8767 -0.4810
vn -0.0000 -0.9153 -0.4029
vn -0.0000 -0.9321 -0.3623
vn -0.0000 -0.9601 -0.2796
vn -0.0000 -0.9714 -0.2375
vn -0.0000 -0.9884 -0.1522
vn -0.0000 -0.9940 -0.1090
vn -0.0000 -0.9940 0.1090
vn -0.0000 -0.2796 0.9601
vn -0.0000 0.1091 0.9940
vn -0.0000 0.9601 0.2796
vn -0.0000 0.9940 0.1090
vn -0.0000 0.9940 -0.1091
vn -0.0000 0.2795 -0.9601
vn -0.0000 -0.9940 -0.1091
vt -10.000000 -20.000000
vt 10.000000 -20.000000
vt 10.000000 20.000000
vt -10.000000 20.000000
vt 38.000000 10.000000
vt 38.000000 -30.000000
vt -10.000000 -30.000000
vt -10.000000 10.000000
vt 28.000000 -30.000000
vt 28.000000 -10.000000
vt -20.000000 -10.000000
vt -20.000000 -30.000000
vt 68.000000 30.000000
vt 68.000000 10.000000
vt 20.000000 10.000000
vt 20.000000 30.000000
vt 64.000000 10.000000
vt 64.000000 22.000000
vt 20.000000 22.000000
vt 54.000000 22.000000
vt 54.000000 13.000000
vt 10.000000 13.000000
vt 10.000000 22.000000
vt -2.000000 10.000000
vt -2.000000 1.000000
vt 42.000000 1.000000
vt 42.000000 10.000000
vt 54.000000 51.000000
vt 10.000000 7.000000
vt 8.000000 9.000000
vt 52.000000 53.000000
vt 9.000000 9.000000
vt 11.000000 13.000000
vt 55.000000 13.000000
vt 53.000000 9.000000
vt 54.000000 55.000000
vt 54.000000 3.000000
vt 10.000000 3.000000
vt 10.000000 9.000000
vt 54.000000 9.000000
vt 42.000000 55.000000
vt -2.000000 11.000000
vt 0.000000 9.000000
vt 44.000000 53.000000
vt 0.000000 1.000000
vt -2.000000 -3.000000
vt 42.000000 -3.000000
vt 44.000000 1.000000
vt 42.000000 51.000000
vt -12.000000 -22.000000
vt -12.000000 -10.000000
vt 32.000000 -10.000000
vt 32.000000 -22.000000
vt 10.000000 -10.000000
vt 10.000000 -1.000000
vt 54.000000 -1.000000
vt 54.000000 -10.000000
vt 42.000000 -22.000000
vt 42.000000 -13.000000
vt -2.000000 -13.000000
vt -2.000000 -22.000000
vt 54.000000 41.000000
vt 10.000000 -3.000000
vt 8.000000 -1.000000
vt 52.000000 43.000000
vt -1.000000 -1.000000
vt 1.000000 3.000000
vt 45.000000 3.000000
vt 43.000000 -1.000000
vt 54.000000 45.000000
vt -2.000000 -9.000000
vt 42.000000 -9.000000
vt 42.000000 45.000000
vt 0.000000 -1.000000
vt 44.000000 43.000000
vt 0.000000 -9.000000
vt 44.000000 -9.000000
vt 42.000000 41.000000
vt 10.000000 -12.000000
vt -2.000000 -12.000000
vt -2.000000 20.000000
vt 58.000000 68.000000
vt 58.000000 28.000000
vt 54.000000 32.000000
vt 54.000000 64.000000
vt 38.000000 68.000000
vt 42.000000 64.000000
vt 38.000000 28.000000
vt 42.000000 32.000000
vt -8.051600 -4.834600
vt -8.000000 -4.000000
vt -4.000000 -4.000000
vt -4.051600 -4.834600
vt -8.204599 -5.757400
vt -4.204600 -5.757400
vt -8.456600 -6.752800
vt -4.456600 -6.752800
vt -8.804000 -7.804000
vt -4.804000 -7.804000
vt -9.239600 -8.892401
vt -5.239600 -8.892401
vt -9.757401 -10.000000
vt -5.757400 -10.000000
vt -10.347200 -11.107600
vt -6.347200 -11.107600
vt -11.000000 -12.196000
vt -7.000000 -12.196000
vt -11.703800 -13.247200
vt -7.703800 -13.247200
vt -12.447200 -14.242600
vt -8.447200 -14.242600
vt -13.217000 -15.165400
vt -9.217000 -15.165400
vt -14.000000 -16.000000
vt -6.000000 -16.000000
vt -9.948400 -16.731400
vt -5.948400 -16.731400
vt -9.795401 -17.348200
vt -5.795400 -17.348200
vt -9.543400 -17.839600
vt -5.543400 -17.839600
vt -9.196000 -18.195999
vt -5.196000 -18.195999
vt -8.760400 -18.413200
vt -4.760400 -18.413200
vt -8.242599 -18.485201
vt -14.242600 -18.485201
vt -18.760401 -18.413200
vt -14.760400 -18.413200
vt -19.195999 -18.195999
vt -15.196000 -18.195999
vt -19.543400 -17.839600
vt -15.543400 -17.839600
vt -19.795401 -17.348200
vt -15.795400 -17.348200
vt -19.948400 -16.731400
vt -15.948400 -16.731400
vt -20.000000 -16.000000
vt 0.000000 -16.000000
vt -3.217000 -15.165400
vt 0.783000 -15.165400
vt -2.447200 -14.242600
vt 1.552800 -14.242600
vt -1.703800 -13.247200
vt 2.296200 -13.247200
vt -1.000000 -12.196000
vt 3.000000 -12.196000
vt -0.347200 -11.107600
vt 3.652800 -11.107600
vt 0.242600 -10.000000
vt 4.242600 -10.000000
vt 0.760400 -8.892400
vt 4.760400 -8.892400
vt 1.196000 -7.804000
vt 5.196000 -7.804000
vt 1.543400 -6.752800
vt 5.543400 -6.752800
vt 1.795400 -5.757400
vt 5.795400 -5.757400
vt 1.948400 -4.834600
vt 5.948400 -4.834600
vt 2.000000 -4.000000
vt 6.000000 -4.000000
vt 1.948400 -3.268600
vt 5.948400 -3.268600
vt 1.795400 -2.651800
vt 5.795400 -2.651800
vt 1.543400 -2.160400
vt 5.543400 -2.160400
vt 1.196000 -1.804000
vt 5.196000 -1.804000
vt 0.760400 -1.586800
vt 4.760400 -1.586800
vt 0.242600 -1.514800
vt -5.757400 -1.514800
vt -9.239600 -1.586800
vt -5.239600 -1.586800
vt -8.804000 -1.804000
vt -4.804000 -1.804000
vt -8.456600 -2.160400
vt -4.456600 -2.160400
vt -8.204599 -2.651800
vt -4.204600 -2.651800
vt -8.051600 -3.268600
vt -4.051600 -3.268600
vt -4.000000 -14.000000
vt -4.000000 -8.000000
vt -4.783000 -8.051600
vt -5.552800 -8.204599
vt -6.296200 -8.456600
vt -7.000000 -8.804000
vt -7.652800 -9.239600
vt -8.242599 -9.757401
vt -8.760400 -10.347200
vt -9.196000 -11.000000
vt -9.543400 -11.703800
vt -9.795401 -12.447200
vt -9.948400 -13.217000
vt -10.000000 -14.000000
vt -9.948400 -14.783000
vt -9.795401 -15.552800
vt -9.543400 -16.296200
vt -9.196000 -17.000000
vt -8.760400 -17.652800
vt -8.242599 -18.242599
vt -7.652800 -18.760401
vt -7.000000 -19.195999
vt -6.296200 -19.543400
vt -5.552800 -19.795401
vt -4.783000 -19.948400
vt -4.000000 -20.000000
vt -3.217000 -19.948400
vt -2.447200 -19.795401
vt -1.703800 -19.543400
vt -1.000000 -19.195999
vt -0.347200 -18.760401
vt 0.242600 -18.242599
vt 0.760400 -17.652800
vt 1.196000 -17.000000
vt 1.543400 -16.296200
vt 1.795400 -15.552800
vt 1.948400 -14.783000
vt 2.000000 -14.000000
vt 1.948400 -13.217000
vt 1.795400 -12.447200
vt 1.543400 -11.703800
vt 1.196000 -11.000000
vt 0.760400 -10.347200
vt 0.242600 -9.757401
vt -0.347200 -9.239600
vt -1.000000 -8.804000
vt -1.703800 -8.456600
vt -2.447200 -8.204599
vt -3.217000 -8.051600
vt 11.948400 15.165400
vt 12.000000 16.000000
vt 16.000000 16.000000
vt 15.948400 15.165400
vt 11.795400 14.242600
vt 15.795400 14.242600
vt 11.543400 13.247200
vt 15.543400 13.247200
vt 11.196000 12.196000
vt 15.196000 12.196000
vt 10.760400 11.107600
vt 14.760400 11.107600
vt 10.242600 10.000000
vt 14.242600 10.000000
vt 9.652800 8.892400
vt 13.652800 8.892400
vt 9.000000 7.804000
vt 13.000000 7.804000
vt 8.296200 6.752800
vt 12.296200 6.752800
vt 7.552800 5.757400
vt 11.552800 5.757400
vt 6.783000 4.834600
vt 10.783000 4.834600
vt 6.000000 4.000000
vt -6.000000 4.000000
vt -9.948400 3.268600
vt -5.948400 3.268600
vt -9.795401 2.651800
vt -5.795400 2.651800
vt -9.543400 2.160400
vt -5.543400 2.160400
vt -9.196000 1.804000
vt -5.196000 1.804000
vt -8.760400 1.586800
vt -4.760400 1.586800
vt -8.242599 1.514800
vt 5.757400 1.514800
vt 1.239600 1.586800
vt 5.239600 1.586800
vt 0.804000 1.804000
vt 4.804000 1.804000
vt 0.456600 2.160400
vt 4.456600 2.160400
vt 0.204600 2.651800
vt 4.204600 2.651800
vt 0.051600 3.268600
vt 4.051600 3.268600
vt 0.000000 4.000000
vt -3.217000 4.834600
vt 0.783000 4.834600
vt -2.447200 5.757400
vt 1.552800 5.757400
vt -1.703800 6.752800
vt 2.296200 6.752800
vt -1.000000 7.804000
vt 3.000000 7.804000
vt -0.347200 8.892401
vt 3.652800 8.892401
vt 0.242600 10.000000
vt 4.242600 10.000000
vt 0.760400 11.107600
vt 4.760400 11.107600
vt 1.196000 12.196000
vt 5.196000 12.196000
vt 1.543400 13.247200
vt 5.543400 13.247200
vt 1.795400 14.242600
vt 5.795400 14.242600
vt 1.948400 15.165400
vt 5.948400 15.165400
vt 2.000000 16.000000
vt 6.000000 16.000000
vt 1.948400 16.731400
vt 5.948400 16.731400
vt 1.795400 17.348200
vt 5.795400 17.348200
vt 1.543400 17.839600
vt 5.543400 17.839600
vt 1.196000 18.195999
vt 5.196000 18.195999
vt 0.760400 18.413200
vt 4.760400 18.413200
vt 0.242600 18.485201
vt 14.242600 18.485201
vt 10.760400 18.413200
vt 14.760400 18.413200
vt 11.196000 18.195999
vt 15.196000 18.195999
vt 11.543400 17.839600
vt 15.543400 17.839600
vt 11.795400 17.348200
vt 15.795400 17.348200
vt 11.948400 16.731400
vt 15.948400 16.731400
vt -4.000000 6.000000
vt -4.000000 12.000000
vt -4.783000 11.948400
vt -5.552800 11.795400
vt -6.296200 11.543400
vt -7.000000 11.196000
vt -7.652800 10.760400
vt -8.242599 10.242600
vt -8.760400 9.652800
vt -9.196000 9.000000
vt -9.543400 8.296200
vt -9.795401 7.552800
vt -9.948400 6.783000
vt -10.000000 6.000000
vt -9.948400 5.217000
vt -9.795401 4.447200
vt -9.543400 3.703800
vt -9.196000 3.000000
vt -8.760400 2.347200
vt -8.242599 1.757400
vt -7.652800 1.239600
vt -7.000000 0.804000
vt -6.296200 0.456600
vt -5.552800 0.204600
vt -4.783000 0.051600
vt -4.000000 0.000000
vt -3.217000 0.051600
vt -2.447200 0.204600
vt -1.703800 0.456600
vt -1.000000 0.804000
vt -0.347200 1.239600
vt 0.242600 1.757400
vt 0.760400 2.347200
vt 1.196000 3.000000
vt 1.543400 3.703800
vt 1.795400 4.447200
vt 1.948400 5.217000
vt 2.000000 6.000000
vt 1.948400 6.783000
vt 1.795400 7.552800
vt 1.543400 8.296200
vt 1.196000 9.000000
vt 0.760400 9.652800
vt 0.242600 10.242600
vt -0.347200 10.760400
vt -1.000000 11.196000
vt -1.703800 11.543400
vt -2.447200 11.795400
vt -3.217000 11.948400
vt 58.000000 -10.000000
vt 58.000000 30.000000
vt 10.000000 30.000000
s 1
usemtl 26.001
f 1/1/1 2/2/1 3/3/1
f 3/3/1 4/4/1 1/1/1
f 5/5/2 6/6/2 7/7/2
f 7/7/2 8/8/2 5/5/2
f 9/9/3 10/10/3 11/11/3
f 11/11/3 12/12/3 9/9/3
f 13/13/4 14/14/4 15/15/4
f 15/15/4 16/16/4 13/13/4
f 17/17/3 18/18/3 19/19/3
f 19/19/3 20/15/3 17/17/3
f 21/20/2 22/21/2 23/22/2
f 23/22/2 24/23/2 21/20/2
f 25/24/5 26/25/5 27/26/5
f 27/26/5 28/27/5 25/24/5
f 31/28/6 30/29/6 29/30/6
f 29/30/6 32/31/6 31/28/6
f 35/32/7 34/33/7 33/34/7
f 33/34/7 36/35/7 35/32/7
f 39/36/8 38/28/8 37/31/8
f 40/37/2 41/38/2 42/39/2
f 42/39/2 43/40/2 40/37/2
f 46/41/9 45/42/9 44/43/9
f 44/43/9 47/44/9 46/41/9
f 50/45/10 49/46/10 48/47/10
f 48/47/10 51/48/10 50/45/10
f 54/41/8 53/44/8 52/49/8
f 55/50/4 56/51/4 57/52/4
f 57/52/4 58/53/4 55/50/4
f 59/54/2 60/55/2 61/56/2
f 61/56/2 62/57/2 59/54/2
f 63/58/5 64/59/5 65/60/5
f 65/60/5 66/61/5 63/58/5
f 69/62/6 68/63/6 67/64/6
f 67/64/6 70/65/6 69/62/6
f 73/66/7 72/67/7 71/68/7
f 71/68/7 74/69/7 73/66/7
f 77/62/8 76/65/8 75/70/8
f 78/47/5 79/46/5 80/71/5
f 80/71/5 81/72/5 78/47/5
f 84/73/9 83/25/9 82/74/9
f 82/74/9 85/75/9 84/73/9
f 88/76/10 87/60/10 86/59/10
f 86/59/10 89/77/10 88/76/10
f 92/78/8 91/73/8 90/75/8
f 95/3/8 94/79/8 93/80/8
f 93/80/8 96/81/8 95/3/8
f 99/82/8 98/83/8 97/84/8
f 97/84/8 100/85/8 99/82/8
f 101/86/8 99/82/8 100/85/8
f 100/85/8 102/87/8 101/86/8
f 103/88/8 101/86/8 102/87/8
f 102/87/8 104/89/8 103/88/8
f 98/83/8 103/88/8 104/89/8
f 104/89/8 97/84/8 98/83/8
f 105/90/11 106/91/12 107/92/13
f 107/92/13 108/93/14 105/90/11
f 109/94/15 105/90/11 108/93/14
f 108/93/14 110/95/16 109/94/15
f 111/96/17 109/94/15 110/95/16
f 110/95/16 112/97/18 111/96/17
f 113/98/19 111/96/17 112/97/18
f 112/97/18 114/99/20 113/98/19
f 115/100/21 113/98/19 114/99/20
f 114/99/20 116/101/22 115/100/21
f 117/102/23 115/100/21 116/101/22
f 116/101/22 118/103/24 117/102/23
f 119/104/25 117/102/23 118/103/24
f 118/103/24 120/105/26 119/104/25
f 121/106/27 119/104/25 120/105/26
f 120/105/26 122/107/28 121/106/27
f 123/108/29 121/106/27 122/107/28
f 122/107/28 124/109/30 123/108/29
f 125/110/31 123/108/29 124/109/30
f 124/109/30 126/111/32 125/110/31
f 127/112/33 125/110/31 126/111/32
f 126/111/32 128/113/34 127/112/33
f 129/114/35 127/112/33 128/113/34
f 128/113/34 130/115/36 129/114/35
f 131/116/37 129/114/35 130/115/36
f 130/115/36 132/117/38 131/116/37
f 133/118/39 131/116/37 132/117/38
f 132/117/38 134/119/40 133/118/39
f 135/120/41 133/118/39 134/119/40
f 134/119/40 136/121/42 135/120/41
f 137/122/43 135/120/41 136/121/42
f 136/121/42 138/123/44 137/122/43
f 139/124/45 137/122/43 138/123/44
f 138/123/44 140/125/46 139/124/45
f 141/126/47 139/124/45 140/125/46
f 140/125/46 142/127/48 141/126/47
f 143/128/49 141/126/47 142/127/48
f 142/127/48 144/129/50 143/128/49
f 145/130/51 143/128/49 144/129/50
f 144/129/50 146/131/52 145/130/51
f 147/132/53 145/130/51 146/131/52
f 146/131/52 148/133/54 147/132/53
f 149/134/55 147/132/53 148/133/54
f 148/133/54 150/135/56 149/134/55
f 151/136/57 149/134/55 150/135/56
f 150/135/56 152/137/58 151/136/57
f 153/138/59 151/136/57 152/137/58
f 152/137/58 154/139/60 153/138/59
f 155/140/61 153/138/59 154/139/60
f 154/139/60 156/141/62 155/140/61
f 157/142/63 155/140/61 156/141/62
f 156/141/62 158/143/64 157/142/63
f 159/144/65 157/142/63 158/143/64
f 158/143/64 160/145/66 159/144/65
f 161/146/67 159/144/65 160/145/66
f 160/145/66 162/147/68 161/146/67
f 163/148/69 161/146/67 162/147/68
f 162/147/68 164/149/70 163/148/69
f 165/150/71 163/148/69 164/149/70
f 164/149/70 166/151/72 165/150/71
f 167/152/73 165/150/71 166/151/72
f 166/151/72 168/153/74 167/152/73
f 169/154/75 167/152/73 168/153/74
f 168/153/74 170/155/76 169/154/75
f 171/156/77 169/154/75 170/155/76
f 170/155/76 172/157/78 171/156/77
f 173/158/79 171/156/77 172/157/78
f 172/157/78 174/159/80 173/158/79
f 175/160/81 173/158/79 174/159/80
f 174/159/80 176/161/82 175/160/81
f 177/162/83 175/160/81 176/161/82
f 176/161/82 178/163/84 177/162/83
f 179/164/85 177/162/83 178/163/84
f 178/163/84 180/165/86 179/164/85
f 181/166/87 179/164/85 180/165/86
f 180/165/86 182/167/88 181/166/87
f 183/168/89 181/166/87 182/167/88
f 182/167/88 184/169/90 183/168/89
f 185/170/91 183/168/89 184/169/90
f 184/169/90 186/171/92 185/170/91
f 187/172/93 185/170/91 186/171/92
f 186/171/92 188/173/94 187/172/93
f 189/174/95 187/172/93 188/173/94
f 188/173/94 190/175/96 189/174/95
f 191/176/97 189/174/95 190/175/96
f 190/175/96 192/177/98 191/176/97
f 193/178/99 191/176/97 192/177/98
f 192/177/98 194/179/100 193/178/99
f 195/180/101 193/178/99 194/179/100
f 194/179/100 196/181/102 195/180/101
f 197/182/103 195/180/101 196/181/102
f 196/181/102 198/183/104 197/182/103
f 199/184/105 197/182/103 198/183/104
f 198/183/104 200/185/106 199/184/105
f 106/91/12 199/184/105 200/185/106
f 200/185/106 107/92/13 106/91/12
f 203/186/1 202/187/1 201/188/1
f 203/186/1 201/188/1 204/189/1
f 203/186/1 204/189/1 205/190/1
f 203/186/1 205/190/1 206/191/1
f 203/186/1 206/191/1 207/192/1
f 203/186/1 207/192/1 208/193/1
f 203/186/1 208/193/1 209/194/1
f 203/186/1 209/194/1 210/195/1
f 203/186/1 210/195/1 211/196/1
f 203/186/1 211/196/1 212/197/1
f 203/186/1 212/197/1 213/198/1
f 203/186/1 213/198/1 214/199/1
f 203/186/1 214/199/1 215/200/1
f 203/186/1 215/200/1 216/201/1
f 203/186/1 216/201/1 217/202/1
f 203/186/1 217/202/1 218/203/1
f 203/186/1 218/203/1 219/204/1
f 203/186/1 219/204/1 220/205/1
f 203/186/1 220/205/1 221/206/1
f 203/186/1 221/206/1 222/207/1
f 203/186/1 222/207/1 223/208/1
f 203/186/1 223/208/1 224/209/1
f 203/186/1 224/209/1 225/210/1
f 203/186/1 225/210/1 226/211/1
f 203/186/1 226/211/1 227/212/1
f 203/186/1 227/212/1 228/213/1
f 203/186/1 228/213/1 229/214/1
f 203/186/1 229/214/1 230/215/1
f 203/186/1 230/215/1 231/216/1
f 203/186/1 231/216/1 232/217/1
f 203/186/1 232/217/1 233/218/1
f 203/186/1 233/218/1 234/219/1
f 203/186/1 234/219/1 235/220/1
f 203/186/1 235/220/1 236/221/1
f 203/186/1 236/221/1 237/222/1
f 203/186/1 237/222/1 238/223/1
f 203/186/1 238/223/1 239/224/1
f 203/186/1 239/224/1 240/225/1
f 203/186/1 240/225/1 241/226/1
f 203/186/1 241/226/1 242/227/1
f 203/186/1 242/227/1 243/228/1
f 203/186/1 243/228/1 244/229/1
f 203/186/1 244/229/1 245/230/1
f 203/186/1 245/230/1 246/231/1
f 203/186/1 246/231/1 247/232/1
f 203/186/1 247/232/1 248/233/1
f 203/186/1 248/233/1 249/234/1
f 203/186/1 249/234/1 202/187/1
f 250/235/107 251/236/12 252/237/13
f 252/237/13 253/238/14 250/235/107
f 254/239/15 250/235/107 253/238/14
f 253/238/14 255/240/16 254/239/15
f 256/241/17 254/239/15 255/240/16
f 255/240/16 257/242/18 256/241/17
f 258/243/19 256/241/17 257/242/18
f 257/242/18 259/244/20 258/243/19
f 260/245/21 258/243/19 259/244/20
f 259/244/20 261/246/22 260/245/21
f 262/247/23 260/245/21 261/246/22
f 261/246/22 263/248/24 262/247/23
f 264/249/25 262/247/23 263/248/24
f 263/248/24 265/250/26 264/249/25
f 266/251/27 264/249/25 265/250/26
f 265/250/26 267/252/28 266/251/27
f 268/253/29 266/251/27 267/252/28
f 267/252/28 269/254/30 268/253/29
f 270/255/108 268/253/29 269/254/30
f 269/254/30 271/256/32 270/255/108
f 272/257/33 270/255/108 271/256/32
f 271/256/32 273/258/34 272/257/33
f 274/259/35 272/257/33 273/258/34
f 273/258/34 275/260/36 274/259/35
f 276/261/109 274/259/35 275/260/36
f 275/260/36 277/262/38 276/261/109
f 278/263/39 276/261/109 277/262/38
f 277/262/38 279/264/40 278/263/39
f 280/265/41 278/263/39 279/264/40
f 279/264/40 281/266/42 280/265/41
f 282/267/43 280/265/41 281/266/42
f 281/266/42 283/268/44 282/267/43
f 284/269/45 282/267/43 283/268/44
f 283/268/44 285/270/46 284/269/45
f 286/271/47 284/269/45 285/270/46
f 285/270/46 287/272/48 286/271/47
f 288/273/49 286/271/47 287/272/48
f 287/272/48 289/274/50 288/273/49
f 290/275/51 288/273/49 289/274/50
f 289/274/50 291/276/52 290/275/51
f 292/277/53 290/275/51 291/276/52
f 291/276/52 293/278/54 292/277/53
f 294/279/110 292/277/53 293/278/54
f 293/278/54 295/280/56 294/279/110
f 296/281/57 294/279/110 295/280/56
f 295/280/56 297/282/111 296/281/57
f 298/283/59 296/281/57 297/282/111
f 297/282/111 299/283/60 298/283/59
f 300/284/112 298/283/59 299/283/60
f 299/283/60 301/285/62 300/284/112
f 302/286/63 300/284/112 301/285/62
f 301/285/62 303/287/64 302/286/63
f 304/288/65 302/286/63 303/287/64
f 303/287/64 305/289/66 304/288/65
f 306/290/67 304/288/65 305/289/66
f 305/289/66 307/291/68 306/290/67
f 308/292/69 306/290/67 307/291/68
f 307/291/68 309/293/70 308/292/69
f 310/294/71 308/292/69 309/293/70
f 309/293/70 311/295/72 310/294/71
f 312/296/73 310/294/71 311/295/72
f 311/295/72 313/297/74 312/296/73
f 314/298/75 312/296/73 313/297/74
f 313/297/74 315/299/76 314/298/75
f 316/300/77 314/298/75 315/299/76
f 315/299/76 317/301/78 316/300/77
f 318/302/113 316/300/77 317/301/78
f 317/301/78 319/303/80 318/302/113
f 320/304/81 318/302/113 319/303/80
f 319/303/80 321/305/82 320/304/81
f 322/306/83 320/304/81 321/305/82
f 321/305/82 323/307/84 322/306/83
f 324/308/85 322/306/83 323/307/84
f 323/307/84 325/309/86 324/308/85
f 326/310/87 324/308/85 325/309/86
f 325/309/86 327/311/88 326/310/87
f 328/312/89 326/310/87 327/311/88
f 327/311/88 329/313/90 328/312/89
f 330/314/91 328/312/89 329/313/90
f 329/313/90 331/315/92 330/314/91
f 332/316/93 330/314/91 331/315/92
f 331/315/92 333/317/94 332/316/93
f 334/318/95 332/316/93 333/317/94
f 333/317/94 335/319/96 334/318/95
f 336/320/97 334/318/95 335/319/96
f 335/319/96 337/321/98 336/320/97
f 338/322/99 336/320/97 337/321/98
f 337/321/98 339/323/100 338/322/99
f 340/324/101 338/322/99 339/323/100
f 339/323/100 341/325/102 340/324/101
f 342/326/103 340/324/101 341/325/102
f 341/325/102 343/327/104 342/326/103
f 344/328/105 342/326/103 343/327/104
f 343/327/104 345/329/114 344/328/105
f 251/236/12 344/328/105 345/329/114
f 345/329/114 252/237/13 251/236/12
f 348/330/1 347/331/1 346/332/1
f 348/330/1 346/332/1 349/333/1
f 348/330/1 349/333/1 350/334/1
f 348/330/1 350/334/1 351/335/1
f 348/330/1 351/335/1 352/336/1
f 348/330/1 352/336/1 353/337/1
f 348/330/1 353/337/1 354/338/1
f 348/330/1 354/338/1 355/339/1
f 348/330/1 355/339/1 356/340/1
f 348/330/1 356/340/1 357/341/1
f 348/330/1 357/341/1 358/342/1
f 348/330/1 358/342/1 359/343/1
f 348/330/1 359/343/1 360/344/1
f 348/330/1 360/344/1 361/345/1
f 348/330/1 361/345/1 362/346/1
f 348/330/1 362/346/1 363/347/1
f 348/330/1 363/347/1 364/348/1
f 348/330/1 364/348/1 365/349/1
f 348/330/1 365/349/1 366/350/1
f 348/330/1 366/350/1 367/351/1
f 348/330/1 367/351/1 368/352/1
f 348/330/1 368/352/1 369/353/1
f 348/330/1 369/353/1 370/354/1
f 348/330/1 370/354/1 371/355/1
f 348/330/1 371/355/1 372/356/1
f 348/330/1 372/356/1 373/357/1
f 348/330/1 373/357/1 374/358/1
f 348/330/1 374/358/1 375/359/1
f 348/330/1 375/359/1 376/360/1
f 348/330/1 376/360/1 377/361/1
f 348/330/1 377/361/1 378/362/1
f 348/330/1 378/362/1 379/363/1
f 348/330/1 379/363/1 380/364/1
f 348/330/1 380/364/1 381/365/1
f 348/330/1 381/365/1 382/366/1
f 348/330/1 382/366/1 383/367/1
f 348/330/1 383/367/1 384/368/1
f 348/330/1 384/368/1 385/369/1
f 348/330/1 385/369/1 386/370/1
f 348/330/1 386/370/1 387/371/1
f 348/330/1 387/371/1 388/372/1
f 348/330/1 388/372/1 389/373/1
f 348/330/1 389/373/1 390/374/1
f 348/330/1 390/374/1 391/375/1
f 348/330/1 391/375/1 392/376/1
f 348/330/1 392/376/1 393/377/1
f 348/330/1 393/377/1 394/378/1
f 348/330/1 394/378/1 347/331/1
f 397/54/5 396/379/5 395/380/5
f 395/380/5 398/381/5 397/54/5
