# Blender 4.5.2 LTS
# www.blender.org
mtllib brick1*4_medium_lavender.mtl
o brick1*4_medium_lavender
v -10.000000 -10.000006 39.999989
v -10.000000 9.999998 40.000011
v -10.000000 10.000082 -39.999989
v -10.000000 -9.999918 -40.000011
v 14.000000 -9.999918 -40.000011
v 14.000000 -10.000006 39.999989
v -10.000000 -10.000006 39.999989
v -10.000000 -9.999918 -40.000011
v 14.000000 -10.000006 39.999989
v 14.000000 9.999998 40.000011
v -10.000000 9.999998 40.000011
v -10.000000 -10.000006 39.999989
v 14.000000 10.000082 -39.999989
v 14.000000 -9.999918 -40.000011
v -10.000000 -9.999918 -40.000011
v -10.000000 10.000082 -39.999989
v -6.000000 5.999998 36.000011
v -6.000000 6.000082 -35.999989
v -6.000000 -5.999923 -36.000000
v -6.000000 -6.000002 36.000000
v -6.000000 -5.999923 -36.000000
v 14.000000 -5.999923 -36.000000
v 14.000000 -6.000002 36.000000
v -6.000000 -6.000002 36.000000
v -6.000000 -6.000002 36.000000
v 14.000000 -6.000002 36.000000
v 14.000000 5.999998 36.000011
v -6.000000 5.999998 36.000011
v -6.000000 5.999998 36.000011
v 14.000000 5.999998 36.000011
v 14.000000 6.000082 -35.999989
v -6.000000 6.000082 -35.999989
v -6.000000 6.000082 -35.999989
v 14.000000 6.000082 -35.999989
v 14.000000 -5.999923 -36.000000
v -6.000000 -5.999923 -36.000000
v -14.000000 -0.782988 24.051600
v -14.000000 0.000009 24.000000
v -10.000000 0.000009 24.000000
v -10.000000 -0.782988 24.051600
v -14.000000 -1.552788 24.204599
v -10.000000 -1.552788 24.204599
v -14.000000 -2.296188 24.456600
v -10.000000 -2.296188 24.456600
v -14.000000 -2.999989 24.804001
v -10.000000 -2.999989 24.804001
v -14.000000 -3.652789 25.239599
v -10.000000 -3.652789 25.239599
v -14.000000 -4.242590 25.757401
v -10.000000 -4.242590 25.757401
v -14.000000 -4.760390 26.347200
v -10.000000 -4.760390 26.347200
v -14.000000 -5.195991 27.000000
v -10.000000 -5.195991 27.000000
v -14.000000 -5.543391 27.703791
v -10.000000 -5.543391 27.703791
v -14.000000 -5.795393 28.447201
v -10.000000 -5.795393 28.447201
v -14.000000 -5.948393 29.216990
v -10.000000 -5.948393 29.216990
v -14.000000 -5.999994 29.999990
v -10.000000 -5.999994 29.999990
v -14.000000 -5.948395 30.783001
v -10.000000 -5.948395 30.783001
v -14.000000 -5.795396 31.552790
v -10.000000 -5.795396 31.552790
v -14.000000 -5.543397 32.296200
v -10.000000 -5.543397 32.296200
v -14.000000 -5.195997 33.000000
v -10.000000 -5.195997 33.000000
v -14.000000 -4.760397 33.652802
v -10.000000 -4.760397 33.652802
v -14.000000 -4.242599 34.242599
v -10.000000 -4.242599 34.242599
v -14.000000 -3.652800 34.760399
v -10.000000 -3.652800 34.760399
v -14.000000 -3.000000 35.195999
v -10.000000 -3.000000 35.195999
v -14.000000 -2.296200 35.543400
v -10.000000 -2.296200 35.543400
v -14.000000 -1.552801 35.795399
v -10.000000 -1.552801 35.795399
v -14.000000 -0.783001 35.948399
v -10.000000 -0.783001 35.948399
v -14.000000 -0.000002 36.000000
v -10.000000 -0.000002 36.000000
v -14.000000 0.782998 35.948399
v -10.000000 0.782998 35.948399
v -14.000000 1.552798 35.795399
v -10.000000 1.552798 35.795399
v -14.000000 2.296198 35.543400
v -10.000000 2.296198 35.543400
v -14.000000 2.999998 35.195999
v -10.000000 2.999998 35.195999
v -14.000000 3.652798 34.760399
v -10.000000 3.652798 34.760399
v -14.000000 4.242599 34.242599
v -10.000000 4.242599 34.242599
v -14.000000 4.760398 33.652809
v -10.000000 4.760398 33.652809
v -14.000000 5.195998 33.000011
v -10.000000 5.195998 33.000011
v -14.000000 5.543399 32.296211
v -10.000000 5.543399 32.296211
v -14.000000 5.795409 31.552811
v -10.000000 5.795409 31.552811
v -14.000000 5.948409 30.783010
v -10.000000 5.948409 30.783010
v -14.000000 6.000008 30.000010
v -10.000000 6.000008 30.000010
v -14.000000 5.948409 29.217010
v -10.000000 5.948409 29.217010
v -14.000000 5.795409 28.447210
v -10.000000 5.795409 28.447210
v -14.000000 5.543409 27.703810
v -10.000000 5.543409 27.703810
v -14.000000 5.196009 27.000010
v -10.000000 5.196009 27.000010
v -14.000000 4.760409 26.347210
v -10.000000 4.760409 26.347210
v -14.000000 4.242609 25.757410
v -10.000000 4.242609 25.757410
v -14.000000 3.652809 25.239599
v -10.000000 3.652809 25.239599
v -14.000000 3.000009 24.804001
v -10.000000 3.000009 24.804001
v -14.000000 2.296209 24.456600
v -10.000000 2.296209 24.456600
v -14.000000 1.552809 24.204599
v -10.000000 1.552809 24.204599
v -14.000000 0.783009 24.051600
v -10.000000 0.783009 24.051600
v -14.000000 -0.782988 24.051600
v -14.000000 0.000009 24.000000
v -14.000000 0.000009 30.000000
v -14.000000 -1.552788 24.204599
v -14.000000 -2.296188 24.456600
v -14.000000 -2.999989 24.804001
v -14.000000 -3.652789 25.239599
v -14.000000 -4.242590 25.757401
v -14.000000 -4.760390 26.347200
v -14.000000 -5.195991 27.000000
v -14.000000 -5.543391 27.703791
v -14.000000 -5.795393 28.447201
v -14.000000 -5.948393 29.216990
v -14.000000 -5.999994 29.999990
v -14.000000 -5.948395 30.783001
v -14.000000 -5.795396 31.552790
v -14.000000 -5.543397 32.296200
v -14.000000 -5.195997 33.000000
v -14.000000 -4.760397 33.652802
v -14.000000 -4.242599 34.242599
v -14.000000 -3.652800 34.760399
v -14.000000 -3.000000 35.195999
v -14.000000 -2.296200 35.543400
v -14.000000 -1.552801 35.795399
v -14.000000 -0.783001 35.948399
v -14.000000 -0.000002 36.000000
v -14.000000 0.782998 35.948399
v -14.000000 1.552798 35.795399
v -14.000000 2.296198 35.543400
v -14.000000 2.999998 35.195999
v -14.000000 3.652798 34.760399
v -14.000000 4.242599 34.242599
v -14.000000 4.760398 33.652809
v -14.000000 5.195998 33.000011
v -14.000000 5.543399 32.296211
v -14.000000 5.795409 31.552811
v -14.000000 5.948409 30.783010
v -14.000000 6.000008 30.000010
v -14.000000 5.948409 29.217010
v -14.000000 5.795409 28.447210
v -14.000000 5.543409 27.703810
v -14.000000 5.196009 27.000010
v -14.000000 4.760409 26.347210
v -14.000000 4.242609 25.757410
v -14.000000 3.652809 25.239599
v -14.000000 3.000009 24.804001
v -14.000000 2.296209 24.456600
v -14.000000 1.552809 24.204599
v -14.000000 0.783009 24.051600
v -14.000000 -0.782966 4.051600
v -14.000000 0.000030 4.000001
v -10.000000 0.000030 4.000001
v -10.000000 -0.782966 4.051600
v -14.000000 -1.552766 4.204599
v -10.000000 -1.552766 4.204599
v -14.000000 -2.296166 4.456600
v -10.000000 -2.296166 4.456600
v -14.000000 -2.999967 4.803998
v -10.000000 -2.999967 4.803998
v -14.000000 -3.652767 5.239597
v -10.000000 -3.652767 5.239597
v -14.000000 -4.242568 5.757398
v -10.000000 -4.242568 5.757398
v -14.000000 -4.760368 6.347196
v -10.000000 -4.760368 6.347196
v -14.000000 -5.195970 6.999995
v -10.000000 -5.195970 6.999995
v -14.000000 -5.543370 7.703795
v -10.000000 -5.543370 7.703795
v -14.000000 -5.795372 8.447195
v -10.000000 -5.795372 8.447195
v -14.000000 -5.948371 9.216994
v -10.000000 -5.948371 9.216994
v -14.000000 -5.999972 9.999994
v -10.000000 -5.999972 9.999994
v -14.000000 -5.948373 10.782990
v -10.000000 -5.948373 10.782990
v -14.000000 -5.795374 11.552800
v -10.000000 -5.795374 11.552800
v -14.000000 -5.543375 12.296200
v -10.000000 -5.543375 12.296200
v -14.000000 -5.195975 13.000000
v -10.000000 -5.195975 13.000000
v -14.000000 -4.760376 13.652800
v -10.000000 -4.760376 13.652800
v -14.000000 -4.242578 14.242600
v -10.000000 -4.242578 14.242600
v -14.000000 -3.652778 14.760400
v -10.000000 -3.652778 14.760400
v -14.000000 -2.999979 15.196000
v -10.000000 -2.999979 15.196000
v -14.000000 -2.296178 15.543400
v -10.000000 -2.296178 15.543400
v -14.000000 -1.552779 15.795400
v -10.000000 -1.552779 15.795400
v -14.000000 -0.782979 15.948400
v -10.000000 -0.782979 15.948400
v -14.000000 0.000019 16.000000
v -10.000000 0.000019 16.000000
v -14.000000 0.783019 15.948400
v -10.000000 0.783019 15.948400
v -14.000000 1.552819 15.795401
v -10.000000 1.552819 15.795401
v -14.000000 2.296219 15.543401
v -10.000000 2.296219 15.543401
v -14.000000 3.000019 15.196001
v -10.000000 3.000019 15.196001
v -14.000000 3.652819 14.760401
v -10.000000 3.652819 14.760401
v -14.000000 4.242620 14.242611
v -10.000000 4.242620 14.242611
v -14.000000 4.760419 13.652811
v -10.000000 4.760419 13.652811
v -14.000000 5.196019 13.000010
v -10.000000 5.196019 13.000010
v -14.000000 5.543429 12.296211
v -10.000000 5.543429 12.296211
v -14.000000 5.795429 11.552811
v -10.000000 5.795429 11.552811
v -14.000000 5.948430 10.783010
v -10.000000 5.948430 10.783010
v -14.000000 6.000031 10.000010
v -10.000000 6.000031 10.000010
v -14.000000 5.948430 9.217008
v -10.000000 5.948430 9.217008
v -14.000000 5.795430 8.447206
v -10.000000 5.795430 8.447206
v -14.000000 5.543430 7.703807
v -10.000000 5.543430 7.703807
v -14.000000 5.196030 7.000007
v -10.000000 5.196030 7.000007
v -14.000000 4.760430 6.347207
v -10.000000 4.760430 6.347207
v -14.000000 4.242630 5.757405
v -10.000000 4.242630 5.757405
v -14.000000 3.652830 5.239605
v -10.000000 3.652830 5.239605
v -14.000000 3.000030 4.804005
v -10.000000 3.000030 4.804005
v -14.000000 2.296230 4.456604
v -10.000000 2.296230 4.456604
v -14.000000 1.552830 4.204602
v -10.000000 1.552830 4.204602
v -14.000000 0.783030 4.051602
v -10.000000 0.783030 4.051602
v -14.000000 -0.782966 4.051600
v -14.000000 0.000030 4.000001
v -14.000000 0.000030 10.000000
v -14.000000 -1.552766 4.204599
v -14.000000 -2.296166 4.456600
v -14.000000 -2.999967 4.803998
v -14.000000 -3.652767 5.239597
v -14.000000 -4.242568 5.757398
v -14.000000 -4.760368 6.347196
v -14.000000 -5.195970 6.999995
v -14.000000 -5.543370 7.703795
v -14.000000 -5.795372 8.447195
v -14.000000 -5.948371 9.216994
v -14.000000 -5.999972 9.999994
v -14.000000 -5.948373 10.782990
v -14.000000 -5.795374 11.552800
v -14.000000 -5.543375 12.296200
v -14.000000 -5.195975 13.000000
v -14.000000 -4.760376 13.652800
v -14.000000 -4.242578 14.242600
v -14.000000 -3.652778 14.760400
v -14.000000 -2.999979 15.196000
v -14.000000 -2.296178 15.543400
v -14.000000 -1.552779 15.795400
v -14.000000 -0.782979 15.948400
v -14.000000 0.000019 16.000000
v -14.000000 0.783019 15.948400
v -14.000000 1.552819 15.795401
v -14.000000 2.296219 15.543401
v -14.000000 3.000019 15.196001
v -14.000000 3.652819 14.760401
v -14.000000 4.242620 14.242611
v -14.000000 4.760419 13.652811
v -14.000000 5.196019 13.000010
v -14.000000 5.543429 12.296211
v -14.000000 5.795429 11.552811
v -14.000000 5.948430 10.783010
v -14.000000 6.000031 10.000010
v -14.000000 5.948430 9.217008
v -14.000000 5.795430 8.447206
v -14.000000 5.543430 7.703807
v -14.000000 5.196030 7.000007
v -14.000000 4.760430 6.347207
v -14.000000 4.242630 5.757405
v -14.000000 3.652830 5.239605
v -14.000000 3.000030 4.804005
v -14.000000 2.296230 4.456604
v -14.000000 1.552830 4.204602
v -14.000000 0.783030 4.051602
v -14.000000 -0.782945 -15.948400
v -14.000000 0.000051 -16.000000
v -10.000000 0.000051 -16.000000
v -10.000000 -0.782945 -15.948400
v -14.000000 -1.552745 -15.795400
v -10.000000 -1.552745 -15.795400
v -14.000000 -2.296145 -15.543400
v -10.000000 -2.296145 -15.543400
v -14.000000 -2.999946 -15.196000
v -10.000000 -2.999946 -15.196000
v -14.000000 -3.652747 -14.760400
v -10.000000 -3.652747 -14.760400
v -14.000000 -4.242547 -14.242600
v -10.000000 -4.242547 -14.242600
v -14.000000 -4.760346 -13.652800
v -10.000000 -4.760346 -13.652800
v -14.000000 -5.195949 -13.000000
v -10.000000 -5.195949 -13.000000
v -14.000000 -5.543348 -12.296200
v -10.000000 -5.543348 -12.296200
v -14.000000 -5.795350 -11.552800
v -10.000000 -5.795350 -11.552800
v -14.000000 -5.948349 -10.783010
v -10.000000 -5.948349 -10.783010
v -14.000000 -5.999950 -10.000010
v -10.000000 -5.999950 -10.000010
v -14.000000 -5.948351 -9.217006
v -10.000000 -5.948351 -9.217006
v -14.000000 -5.795352 -8.447205
v -10.000000 -5.795352 -8.447205
v -14.000000 -5.543354 -7.703805
v -10.000000 -5.543354 -7.703805
v -14.000000 -5.195954 -7.000005
v -10.000000 -5.195954 -7.000005
v -14.000000 -4.760355 -6.347204
v -10.000000 -4.760355 -6.347204
v -14.000000 -4.242556 -5.757402
v -10.000000 -4.242556 -5.757402
v -14.000000 -3.652757 -5.239603
v -10.000000 -3.652757 -5.239603
v -14.000000 -2.999957 -4.804001
v -10.000000 -2.999957 -4.804001
v -14.000000 -2.296157 -4.456602
v -10.000000 -2.296157 -4.456602
v -14.000000 -1.552757 -4.204600
v -10.000000 -1.552757 -4.204600
v -14.000000 -0.782958 -4.051600
v -10.000000 -0.782958 -4.051600
v -14.000000 0.000040 -3.999999
v -10.000000 0.000040 -3.999999
v -14.000000 0.783040 -4.051598
v -10.000000 0.783040 -4.051598
v -14.000000 1.552840 -4.204597
v -10.000000 1.552840 -4.204597
v -14.000000 2.296240 -4.456596
v -10.000000 2.296240 -4.456596
v -14.000000 3.000040 -4.803996
v -10.000000 3.000040 -4.803996
v -14.000000 3.652840 -5.239594
v -10.000000 3.652840 -5.239594
v -14.000000 4.242640 -5.757394
v -10.000000 4.242640 -5.757394
v -14.000000 4.760440 -6.347194
v -10.000000 4.760440 -6.347194
v -14.000000 5.196050 -6.999993
v -10.000000 5.196050 -6.999993
v -14.000000 5.543450 -7.703794
v -10.000000 5.543450 -7.703794
v -14.000000 5.795450 -8.447192
v -10.000000 5.795450 -8.447192
v -14.000000 5.948450 -9.216992
v -10.000000 5.948450 -9.216992
v -14.000000 6.000050 -9.999992
v -10.000000 6.000050 -9.999992
v -14.000000 5.948450 -10.782990
v -10.000000 5.948450 -10.782990
v -14.000000 5.795451 -11.552789
v -10.000000 5.795451 -11.552789
v -14.000000 5.543451 -12.296189
v -10.000000 5.543451 -12.296189
v -14.000000 5.196051 -12.999990
v -10.000000 5.196051 -12.999990
v -14.000000 4.760451 -13.652789
v -10.000000 4.760451 -13.652789
v -14.000000 4.242651 -14.242589
v -10.000000 4.242651 -14.242589
v -14.000000 3.652851 -14.760399
v -10.000000 3.652851 -14.760399
v -14.000000 3.000051 -15.195999
v -10.000000 3.000051 -15.195999
v -14.000000 2.296251 -15.543399
v -10.000000 2.296251 -15.543399
v -14.000000 1.552851 -15.795399
v -10.000000 1.552851 -15.795399
v -14.000000 0.783051 -15.948400
v -10.000000 0.783051 -15.948400
v -14.000000 -0.782945 -15.948400
v -14.000000 0.000051 -16.000000
v -14.000000 0.000050 -9.999999
v -14.000000 -1.552745 -15.795400
v -14.000000 -2.296145 -15.543400
v -14.000000 -2.999946 -15.196000
v -14.000000 -3.652747 -14.760400
v -14.000000 -4.242547 -14.242600
v -14.000000 -4.760346 -13.652800
v -14.000000 -5.195949 -13.000000
v -14.000000 -5.543348 -12.296200
v -14.000000 -5.795350 -11.552800
v -14.000000 -5.948349 -10.783010
v -14.000000 -5.999950 -10.000010
v -14.000000 -5.948351 -9.217006
v -14.000000 -5.795352 -8.447205
v -14.000000 -5.543354 -7.703805
v -14.000000 -5.195954 -7.000005
v -14.000000 -4.760355 -6.347204
v -14.000000 -4.242556 -5.757402
v -14.000000 -3.652757 -5.239603
v -14.000000 -2.999957 -4.804001
v -14.000000 -2.296157 -4.456602
v -14.000000 -1.552757 -4.204600
v -14.000000 -0.782958 -4.051600
v -14.000000 0.000040 -3.999999
v -14.000000 0.783040 -4.051598
v -14.000000 1.552840 -4.204597
v -14.000000 2.296240 -4.456596
v -14.000000 3.000040 -4.803996
v -14.000000 3.652840 -5.239594
v -14.000000 4.242640 -5.757394
v -14.000000 4.760440 -6.347194
v -14.000000 5.196050 -6.999993
v -14.000000 5.543450 -7.703794
v -14.000000 5.795450 -8.447192
v -14.000000 5.948450 -9.216992
v -14.000000 6.000050 -9.999992
v -14.000000 5.948450 -10.782990
v -14.000000 5.795451 -11.552789
v -14.000000 5.543451 -12.296189
v -14.000000 5.196051 -12.999990
v -14.000000 4.760451 -13.652789
v -14.000000 4.242651 -14.242589
v -14.000000 3.652851 -14.760399
v -14.000000 3.000051 -15.195999
v -14.000000 2.296251 -15.543399
v -14.000000 1.552851 -15.795399
v -14.000000 0.783051 -15.948400
v -14.000000 -0.782923 -35.948399
v -14.000000 0.000082 -36.000000
v -10.000000 0.000082 -36.000000
v -10.000000 -0.782923 -35.948399
v -14.000000 -1.552723 -35.795399
v -10.000000 -1.552723 -35.795399
v -14.000000 -2.296124 -35.543400
v -10.000000 -2.296124 -35.543400
v -14.000000 -2.999924 -35.195999
v -10.000000 -2.999924 -35.195999
v -14.000000 -3.652725 -34.760399
v -10.000000 -3.652725 -34.760399
v -14.000000 -4.242525 -34.242599
v -10.000000 -4.242525 -34.242599
v -14.000000 -4.760325 -33.652809
v -10.000000 -4.760325 -33.652809
v -14.000000 -5.195927 -33.000000
v -10.000000 -5.195927 -33.000000
v -14.000000 -5.543326 -32.296200
v -10.000000 -5.543326 -32.296200
v -14.000000 -5.795328 -31.552799
v -10.000000 -5.795328 -31.552799
v -14.000000 -5.948328 -30.783010
v -10.000000 -5.948328 -30.783010
v -14.000000 -5.999928 -30.000010
v -10.000000 -5.999928 -30.000010
v -14.000000 -5.948329 -29.216999
v -10.000000 -5.948329 -29.216999
v -14.000000 -5.795331 -28.447210
v -10.000000 -5.795331 -28.447210
v -14.000000 -5.543332 -27.703810
v -10.000000 -5.543332 -27.703810
v -14.000000 -5.195933 -27.000000
v -10.000000 -5.195933 -27.000000
v -14.000000 -4.760333 -26.347200
v -10.000000 -4.760333 -26.347200
v -14.000000 -4.242534 -25.757401
v -10.000000 -4.242534 -25.757401
v -14.000000 -3.652735 -25.239599
v -10.000000 -3.652735 -25.239599
v -14.000000 -2.999935 -24.804001
v -10.000000 -2.999935 -24.804001
v -14.000000 -2.296135 -24.456600
v -10.000000 -2.296135 -24.456600
v -14.000000 -1.552735 -24.204599
v -10.000000 -1.552735 -24.204599
v -14.000000 -0.782936 -24.051600
v -10.000000 -0.782936 -24.051600
v -14.000000 0.000061 -24.000000
v -10.000000 0.000061 -24.000000
v -14.000000 0.783061 -24.051600
v -10.000000 0.783061 -24.051600
v -14.000000 1.552861 -24.204599
v -10.000000 1.552861 -24.204599
v -14.000000 2.296261 -24.456600
v -10.000000 2.296261 -24.456600
v -14.000000 3.000061 -24.804001
v -10.000000 3.000061 -24.804001
v -14.000000 3.652861 -25.239599
v -10.000000 3.652861 -25.239599
v -14.000000 4.242671 -25.757389
v -10.000000 4.242671 -25.757389
v -14.000000 4.760471 -26.347191
v -10.000000 4.760471 -26.347191
v -14.000000 5.196071 -26.999990
v -10.000000 5.196071 -26.999990
v -14.000000 5.543471 -27.703791
v -10.000000 5.543471 -27.703791
v -14.000000 5.795471 -28.447189
v -10.000000 5.795471 -28.447189
v -14.000000 5.948471 -29.216990
v -10.000000 5.948471 -29.216990
v -14.000000 6.000072 -29.999990
v -10.000000 6.000072 -29.999990
v -14.000000 5.948471 -30.782990
v -10.000000 5.948471 -30.782990
v -14.000000 5.795471 -31.552790
v -10.000000 5.795471 -31.552790
v -14.000000 5.543471 -32.296188
v -10.000000 5.543471 -32.296188
v -14.000000 5.196072 -32.999989
v -10.000000 5.196072 -32.999989
v -14.000000 4.760472 -33.652790
v -10.000000 4.760472 -33.652790
v -14.000000 4.242672 -34.242599
v -10.000000 4.242672 -34.242599
v -14.000000 3.652872 -34.760399
v -10.000000 3.652872 -34.760399
v -14.000000 3.000072 -35.195999
v -10.000000 3.000072 -35.195999
v -14.000000 2.296282 -35.543400
v -10.000000 2.296282 -35.543400
v -14.000000 1.552882 -35.795391
v -10.000000 1.552882 -35.795391
v -14.000000 0.783082 -35.948399
v -10.000000 0.783082 -35.948399
v -14.000000 -0.782923 -35.948399
v -14.000000 0.000082 -36.000000
v -14.000000 0.000071 -30.000000
v -14.000000 -1.552723 -35.795399
v -14.000000 -2.296124 -35.543400
v -14.000000 -2.999924 -35.195999
v -14.000000 -3.652725 -34.760399
v -14.000000 -4.242525 -34.242599
v -14.000000 -4.760325 -33.652809
v -14.000000 -5.195927 -33.000000
v -14.000000 -5.543326 -32.296200
v -14.000000 -5.795328 -31.552799
v -14.000000 -5.948328 -30.783010
v -14.000000 -5.999928 -30.000010
v -14.000000 -5.948329 -29.216999
v -14.000000 -5.795331 -28.447210
v -14.000000 -5.543332 -27.703810
v -14.000000 -5.195933 -27.000000
v -14.000000 -4.760333 -26.347200
v -14.000000 -4.242534 -25.757401
v -14.000000 -3.652735 -25.239599
v -14.000000 -2.999935 -24.804001
v -14.000000 -2.296135 -24.456600
v -14.000000 -1.552735 -24.204599
v -14.000000 -0.782936 -24.051600
v -14.000000 0.000061 -24.000000
v -14.000000 0.783061 -24.051600
v -14.000000 1.552861 -24.204599
v -14.000000 2.296261 -24.456600
v -14.000000 3.000061 -24.804001
v -14.000000 3.652861 -25.239599
v -14.000000 4.242671 -25.757389
v -14.000000 4.760471 -26.347191
v -14.000000 5.196071 -26.999990
v -14.000000 5.543471 -27.703791
v -14.000000 5.795471 -28.447189
v -14.000000 5.948471 -29.216990
v -14.000000 6.000072 -29.999990
v -14.000000 5.948471 -30.782990
v -14.000000 5.795471 -31.552790
v -14.000000 5.543471 -32.296188
v -14.000000 5.196072 -32.999989
v -14.000000 4.760472 -33.652790
v -14.000000 4.242672 -34.242599
v -14.000000 3.652872 -34.760399
v -14.000000 3.000072 -35.195999
v -14.000000 2.296282 -35.543400
v -14.000000 1.552882 -35.795391
v -14.000000 0.783082 -35.948399
v 14.000000 -0.521979 16.034401
v 14.000000 0.000019 16.000000
v 14.000000 0.000019 20.000000
v 14.000000 -1.035179 16.136400
v 14.000000 -1.530780 16.304399
v 14.000000 -1.999980 16.535999
v 14.000000 -2.435180 16.826401
v 14.000000 -2.828381 17.171600
v 14.000000 -3.173581 17.564800
v 14.000000 -3.463982 18.000000
v 14.000000 -3.695582 18.469200
v 14.000000 -3.863583 18.964800
v 14.000000 -3.965583 19.478001
v 14.000000 -3.999984 20.000000
v 14.000000 -3.965584 20.521999
v 14.000000 -3.863585 21.035200
v 14.000000 -3.695585 21.530800
v 14.000000 -3.463986 22.000000
v 14.000000 -3.173586 22.435200
v 14.000000 -2.828386 22.828400
v 14.000000 -2.435187 23.173599
v 14.000000 -1.999988 23.464001
v 14.000000 -1.530788 23.695601
v 14.000000 -1.035188 23.863600
v 14.000000 -0.521988 23.965599
v 14.000000 0.000009 24.000000
v 14.000000 0.522009 23.965599
v 14.000000 1.035209 23.863600
v 14.000000 1.530809 23.695601
v 14.000000 2.000009 23.464001
v 14.000000 2.435209 23.173599
v 14.000000 2.828409 22.828400
v 14.000000 3.173609 22.435200
v 14.000000 3.464019 22.000000
v 14.000000 3.695619 21.530800
v 14.000000 3.863619 21.035210
v 14.000000 3.965619 20.522011
v 14.000000 4.000019 20.000010
v 14.000000 3.965619 19.478010
v 14.000000 3.863619 18.964809
v 14.000000 3.695619 18.469200
v 14.000000 3.464019 18.000000
v 14.000000 3.173619 17.564800
v 14.000000 2.828419 17.171600
v 14.000000 2.435219 16.826401
v 14.000000 2.000019 16.535999
v 14.000000 1.530819 16.304399
v 14.000000 1.035219 16.136400
v 14.000000 0.522019 16.034401
v -6.000000 -0.521979 16.034401
v -6.000000 0.000019 16.000000
v 14.000000 0.000019 16.000000
v 14.000000 -0.521979 16.034401
v -6.000000 -1.035179 16.136400
v 14.000000 -1.035179 16.136400
v -6.000000 -1.530780 16.304399
v 14.000000 -1.530780 16.304399
v -6.000000 -1.999980 16.535999
v 14.000000 -1.999980 16.535999
v -6.000000 -2.435180 16.826401
v 14.000000 -2.435180 16.826401
v -6.000000 -2.828381 17.171600
v 14.000000 -2.828381 17.171600
v -6.000000 -3.173581 17.564800
v 14.000000 -3.173581 17.564800
v -6.000000 -3.463982 18.000000
v 14.000000 -3.463982 18.000000
v -6.000000 -3.695582 18.469200
v 14.000000 -3.695582 18.469200
v -6.000000 -3.863583 18.964800
v 14.000000 -3.863583 18.964800
v -6.000000 -3.965583 19.478001
v 14.000000 -3.965583 19.478001
v -6.000000 -3.999984 20.000000
v 14.000000 -3.999984 20.000000
v -6.000000 -3.965584 20.521999
v 14.000000 -3.965584 20.521999
v -6.000000 -3.863585 21.035200
v 14.000000 -3.863585 21.035200
v -6.000000 -3.695585 21.530800
v 14.000000 -3.695585 21.530800
v -6.000000 -3.463986 22.000000
v 14.000000 -3.463986 22.000000
v -6.000000 -3.173586 22.435200
v 14.000000 -3.173586 22.435200
v -6.000000 -2.828386 22.828400
v 14.000000 -2.828386 22.828400
v -6.000000 -2.435187 23.173599
v 14.000000 -2.435187 23.173599
v -6.000000 -1.999988 23.464001
v 14.000000 -1.999988 23.464001
v -6.000000 -1.530788 23.695601
v 14.000000 -1.530788 23.695601
v -6.000000 -1.035188 23.863600
v 14.000000 -1.035188 23.863600
v -6.000000 -0.521988 23.965599
v 14.000000 -0.521988 23.965599
v -6.000000 0.000009 24.000000
v 14.000000 0.000009 24.000000
v -6.000000 0.522009 23.965599
v 14.000000 0.522009 23.965599
v -6.000000 1.035209 23.863600
v 14.000000 1.035209 23.863600
v -6.000000 1.530809 23.695601
v 14.000000 1.530809 23.695601
v -6.000000 2.000009 23.464001
v 14.000000 2.000009 23.464001
v -6.000000 2.435209 23.173599
v 14.000000 2.435209 23.173599
v -6.000000 2.828409 22.828400
v 14.000000 2.828409 22.828400
v -6.000000 3.173609 22.435200
v 14.000000 3.173609 22.435200
v -6.000000 3.464019 22.000000
v 14.000000 3.464019 22.000000
v -6.000000 3.695619 21.530800
v 14.000000 3.695619 21.530800
v -6.000000 3.863619 21.035210
v 14.000000 3.863619 21.035210
v -6.000000 3.965619 20.522011
v 14.000000 3.965619 20.522011
v -6.000000 4.000019 20.000010
v 14.000000 4.000019 20.000010
v -6.000000 3.965619 19.478010
v 14.000000 3.965619 19.478010
v -6.000000 3.863619 18.964809
v 14.000000 3.863619 18.964809
v -6.000000 3.695619 18.469200
v 14.000000 3.695619 18.469200
v -6.000000 3.464019 18.000000
v 14.000000 3.464019 18.000000
v -6.000000 3.173619 17.564800
v 14.000000 3.173619 17.564800
v -6.000000 2.828419 17.171600
v 14.000000 2.828419 17.171600
v -6.000000 2.435219 16.826401
v 14.000000 2.435219 16.826401
v -6.000000 2.000019 16.535999
v 14.000000 2.000019 16.535999
v -6.000000 1.530819 16.304399
v 14.000000 1.530819 16.304399
v -6.000000 1.035219 16.136400
v 14.000000 1.035219 16.136400
v -6.000000 0.522019 16.034401
v 14.000000 0.522019 16.034401
v 14.000000 -0.521957 -3.965600
v 14.000000 0.000040 -3.999999
v 14.000000 0.000040 0.000001
v 14.000000 -1.035158 -3.863600
v 14.000000 -1.530758 -3.695601
v 14.000000 -1.999958 -3.464001
v 14.000000 -2.435159 -3.173602
v 14.000000 -2.828359 -2.828402
v 14.000000 -3.173559 -2.435202
v 14.000000 -3.463960 -2.000003
v 14.000000 -3.695560 -1.530803
v 14.000000 -3.863561 -1.035203
v 14.000000 -3.965561 -0.522003
v 14.000000 -3.999962 -0.000003
v 14.000000 -3.965562 0.521997
v 14.000000 -3.863563 1.035197
v 14.000000 -3.695563 1.530797
v 14.000000 -3.463964 1.999997
v 14.000000 -3.173564 2.435198
v 14.000000 -2.828365 2.828398
v 14.000000 -2.435165 3.173598
v 14.000000 -1.999966 3.463999
v 14.000000 -1.530766 3.695600
v 14.000000 -1.035166 3.863600
v 14.000000 -0.521966 3.965600
v 14.000000 0.000030 4.000001
v 14.000000 0.522030 3.965601
v 14.000000 1.035230 3.863602
v 14.000000 1.530830 3.695602
v 14.000000 2.000030 3.464004
v 14.000000 2.435240 3.173604
v 14.000000 2.828430 2.828404
v 14.000000 3.173640 2.435205
v 14.000000 3.464040 2.000005
v 14.000000 3.695640 1.530806
v 14.000000 3.863640 1.035206
v 14.000000 3.965640 0.522006
v 14.000000 4.000040 0.000006
v 14.000000 3.965640 -0.521994
v 14.000000 3.863640 -1.035194
v 14.000000 3.695640 -1.530794
v 14.000000 3.464040 -1.999994
v 14.000000 3.173640 -2.435195
v 14.000000 2.828440 -2.828396
v 14.000000 2.435240 -3.173597
v 14.000000 2.000040 -3.463996
v 14.000000 1.530840 -3.695596
v 14.000000 1.035240 -3.863598
v 14.000000 0.522040 -3.965599
v -6.000000 -0.521957 -3.965600
v -6.000000 0.000040 -3.999999
v 14.000000 0.000040 -3.999999
v 14.000000 -0.521957 -3.965600
v -6.000000 -1.035158 -3.863600
v 14.000000 -1.035158 -3.863600
v -6.000000 -1.530758 -3.695601
v 14.000000 -1.530758 -3.695601
v -6.000000 -1.999958 -3.464001
v 14.000000 -1.999958 -3.464001
v -6.000000 -2.435159 -3.173602
v 14.000000 -2.435159 -3.173602
v -6.000000 -2.828359 -2.828402
v 14.000000 -2.828359 -2.828402
v -6.000000 -3.173559 -2.435202
v 14.000000 -3.173559 -2.435202
v -6.000000 -3.463960 -2.000003
v 14.000000 -3.463960 -2.000003
v -6.000000 -3.695560 -1.530803
v 14.000000 -3.695560 -1.530803
v -6.000000 -3.863561 -1.035203
v 14.000000 -3.863561 -1.035203
v -6.000000 -3.965561 -0.522003
v 14.000000 -3.965561 -0.522003
v -6.000000 -3.999962 -0.000003
v 14.000000 -3.999962 -0.000003
v -6.000000 -3.965562 0.521997
v 14.000000 -3.965562 0.521997
v -6.000000 -3.863563 1.035197
v 14.000000 -3.863563 1.035197
v -6.000000 -3.695563 1.530797
v 14.000000 -3.695563 1.530797
v -6.000000 -3.463964 1.999997
v 14.000000 -3.463964 1.999997
v -6.000000 -3.173564 2.435198
v 14.000000 -3.173564 2.435198
v -6.000000 -2.828365 2.828398
v 14.000000 -2.828365 2.828398
v -6.000000 -2.435165 3.173598
v 14.000000 -2.435165 3.173598
v -6.000000 -1.999966 3.463999
v 14.000000 -1.999966 3.463999
v -6.000000 -1.530766 3.695600
v 14.000000 -1.530766 3.695600
v -6.000000 -1.035166 3.863600
v 14.000000 -1.035166 3.863600
v -6.000000 -0.521966 3.965600
v 14.000000 -0.521966 3.965600
v -6.000000 0.000030 4.000001
v 14.000000 0.000030 4.000001
v -6.000000 0.522030 3.965601
v 14.000000 0.522030 3.965601
v -6.000000 1.035230 3.863602
v 14.000000 1.035230 3.863602
v -6.000000 1.530830 3.695602
v 14.000000 1.530830 3.695602
v -6.000000 2.000030 3.464004
v 14.000000 2.000030 3.464004
v -6.000000 2.435240 3.173604
v 14.000000 2.435240 3.173604
v -6.000000 2.828430 2.828404
v 14.000000 2.828430 2.828404
v -6.000000 3.173640 2.435205
v 14.000000 3.173640 2.435205
v -6.000000 3.464040 2.000005
v 14.000000 3.464040 2.000005
v -6.000000 3.695640 1.530806
v 14.000000 3.695640 1.530806
v -6.000000 3.863640 1.035206
v 14.000000 3.863640 1.035206
v -6.000000 3.965640 0.522006
v 14.000000 3.965640 0.522006
v -6.000000 4.000040 0.000006
v 14.000000 4.000040 0.000006
v -6.000000 3.965640 -0.521994
v 14.000000 3.965640 -0.521994
v -6.000000 3.863640 -1.035194
v 14.000000 3.863640 -1.035194
v -6.000000 3.695640 -1.530794
v 14.000000 3.695640 -1.530794
v -6.000000 3.464040 -1.999994
v 14.000000 3.464040 -1.999994
v -6.000000 3.173640 -2.435195
v 14.000000 3.173640 -2.435195
v -6.000000 2.828440 -2.828396
v 14.000000 2.828440 -2.828396
v -6.000000 2.435240 -3.173597
v 14.000000 2.435240 -3.173597
v -6.000000 2.000040 -3.463996
v 14.000000 2.000040 -3.463996
v -6.000000 1.530840 -3.695597
v 14.000000 1.530840 -3.695597
v -6.000000 1.035240 -3.863598
v 14.000000 1.035240 -3.863598
v -6.000000 0.522040 -3.965599
v 14.000000 0.522040 -3.965599
v 14.000000 -0.521936 -23.965599
v 14.000000 0.000061 -24.000000
v 14.000000 0.000061 -20.000000
v 14.000000 -1.035136 -23.863600
v 14.000000 -1.530736 -23.695601
v 14.000000 -1.999936 -23.464001
v 14.000000 -2.435137 -23.173599
v 14.000000 -2.828337 -22.828400
v 14.000000 -3.173538 -22.435200
v 14.000000 -3.463938 -22.000000
v 14.000000 -3.695538 -21.530800
v 14.000000 -3.863539 -21.035200
v 14.000000 -3.965539 -20.521999
v 14.000000 -3.999940 -20.000000
v 14.000000 -3.965540 -19.478001
v 14.000000 -3.863541 -18.964800
v 14.000000 -3.695541 -18.469200
v 14.000000 -3.463942 -18.000000
v 14.000000 -3.173542 -17.564800
v 14.000000 -2.828343 -17.171600
v 14.000000 -2.435143 -16.826401
v 14.000000 -1.999944 -16.535999
v 14.000000 -1.530744 -16.304399
v 14.000000 -1.035144 -16.136400
v 14.000000 -0.521944 -16.034401
v 14.000000 0.000051 -16.000000
v 14.000000 0.522051 -16.034401
v 14.000000 1.035251 -16.136400
v 14.000000 1.530861 -16.304399
v 14.000000 2.000061 -16.535999
v 14.000000 2.435261 -16.826401
v 14.000000 2.828461 -17.171600
v 14.000000 3.173661 -17.564800
v 14.000000 3.464061 -18.000000
v 14.000000 3.695661 -18.469200
v 14.000000 3.863661 -18.964790
v 14.000000 3.965661 -19.477989
v 14.000000 4.000061 -19.999990
v 14.000000 3.965661 -20.521990
v 14.000000 3.863661 -21.035191
v 14.000000 3.695661 -21.530800
v 14.000000 3.464061 -22.000000
v 14.000000 3.173661 -22.435200
v 14.000000 2.828461 -22.828400
v 14.000000 2.435261 -23.173599
v 14.000000 2.000061 -23.464001
v 14.000000 1.530861 -23.695601
v 14.000000 1.035261 -23.863600
v 14.000000 0.522061 -23.965599
v -6.000000 -0.521936 -23.965599
v -6.000000 0.000061 -24.000000
v 14.000000 0.000061 -24.000000
v 14.000000 -0.521936 -23.965599
v -6.000000 -1.035136 -23.863600
v 14.000000 -1.035136 -23.863600
v -6.000000 -1.530736 -23.695601
v 14.000000 -1.530736 -23.695601
v -6.000000 -1.999936 -23.464001
v 14.000000 -1.999936 -23.464001
v -6.000000 -2.435137 -23.173599
v 14.000000 -2.435137 -23.173599
v -6.000000 -2.828337 -22.828400
v 14.000000 -2.828337 -22.828400
v -6.000000 -3.173538 -22.435200
v 14.000000 -3.173538 -22.435200
v -6.000000 -3.463938 -22.000000
v 14.000000 -3.463938 -22.000000
v -6.000000 -3.695538 -21.530800
v 14.000000 -3.695538 -21.530800
v -6.000000 -3.863539 -21.035200
v 14.000000 -3.863539 -21.035200
v -6.000000 -3.965539 -20.521999
v 14.000000 -3.965539 -20.521999
v -6.000000 -3.999940 -20.000000
v 14.000000 -3.999940 -20.000000
v -6.000000 -3.965540 -19.478001
v 14.000000 -3.965540 -19.478001
v -6.000000 -3.863541 -18.964800
v 14.000000 -3.863541 -18.964800
v -6.000000 -3.695542 -18.469200
v 14.000000 -3.695542 -18.469200
v -6.000000 -3.463942 -18.000000
v 14.000000 -3.463942 -18.000000
v -6.000000 -3.173542 -17.564800
v 14.000000 -3.173542 -17.564800
v -6.000000 -2.828343 -17.171600
v 14.000000 -2.828343 -17.171600
v -6.000000 -2.435143 -16.826401
v 14.000000 -2.435143 -16.826401
v -6.000000 -1.999944 -16.535999
v 14.000000 -1.999944 -16.535999
v -6.000000 -1.530744 -16.304399
v 14.000000 -1.530744 -16.304399
v -6.000000 -1.035144 -16.136400
v 14.000000 -1.035144 -16.136400
v -6.000000 -0.521944 -16.034401
v 14.000000 -0.521944 -16.034401
v -6.000000 0.000051 -16.000000
v 14.000000 0.000051 -16.000000
v -6.000000 0.522051 -16.034401
v 14.000000 0.522051 -16.034401
v -6.000000 1.035251 -16.136400
v 14.000000 1.035251 -16.136400
v -6.000000 1.530861 -16.304399
v 14.000000 1.530861 -16.304399
v -6.000000 2.000061 -16.535999
v 14.000000 2.000061 -16.535999
v -6.000000 2.435261 -16.826401
v 14.000000 2.435261 -16.826401
v -6.000000 2.828461 -17.171600
v 14.000000 2.828461 -17.171600
v -6.000000 3.173661 -17.564800
v 14.000000 3.173661 -17.564800
v -6.000000 3.464061 -18.000000
v 14.000000 3.464061 -18.000000
v -6.000000 3.695661 -18.469200
v 14.000000 3.695661 -18.469200
v -6.000000 3.863661 -18.964790
v 14.000000 3.863661 -18.964790
v -6.000000 3.965661 -19.477989
v 14.000000 3.965661 -19.477989
v -6.000000 4.000061 -19.999990
v 14.000000 4.000061 -19.999990
v -6.000000 3.965661 -20.521990
v 14.000000 3.965661 -20.521990
v -6.000000 3.863661 -21.035191
v 14.000000 3.863661 -21.035191
v -6.000000 3.695661 -21.530800
v 14.000000 3.695661 -21.530800
v -6.000000 3.464061 -22.000000
v 14.000000 3.464061 -22.000000
v -6.000000 3.173661 -22.435200
v 14.000000 3.173661 -22.435200
v -6.000000 2.828461 -22.828400
v 14.000000 2.828461 -22.828400
v -6.000000 2.435261 -23.173599
v 14.000000 2.435261 -23.173599
v -6.000000 2.000061 -23.464001
v 14.000000 2.000061 -23.464001
v -6.000000 1.530861 -23.695601
v 14.000000 1.530861 -23.695601
v -6.000000 1.035261 -23.863600
v 14.000000 1.035261 -23.863600
v -6.000000 0.522061 -23.965599
v 14.000000 0.522061 -23.965599
v 14.000000 9.999998 40.000011
v 14.000000 10.000082 -39.999989
v 14.000000 6.000082 -35.999989
v 14.000000 5.999998 36.000011
v 14.000000 -6.000002 36.000000
v 14.000000 -10.000006 39.999989
v 14.000000 -9.999918 -40.000011
v 14.000000 -5.999923 -36.000000
v -10.000000 9.999998 40.000011
v -10.000000 10.000082 -39.999989
v 14.000000 10.000082 -39.999989
v 14.000000 9.999998 40.000011
vn -1.0000 -0.0000 -0.0000
vn -0.0000 -1.0000 -0.0000
vn -0.0000 -0.0000 1.0000
vn -0.0000 -0.0000 -1.0000
vn 1.0000 -0.0000 -0.0000
vn -0.0000 1.0000 -0.0000
vn -0.0000 -0.1090 -0.9940
vn -0.0000 0.0220 -0.9998
vn -0.0000 -0.0220 -0.9998
vn -0.0000 -0.1522 -0.9884
vn -0.0000 -0.2375 -0.9714
vn -0.0000 -0.2796 -0.9601
vn -0.0000 -0.3623 -0.9321
vn -0.0000 -0.4029 -0.9153
vn -0.0000 -0.4810 -0.8767
vn -0.0000 -0.5185 -0.8551
vn -0.0000 -0.5911 -0.8066
vn -0.0000 -0.6260 -0.7798
vn -0.0000 -0.6916 -0.7223
vn -0.0000 -0.7223 -0.6916
vn -0.0000 -0.7798 -0.6260
vn -0.0000 -0.8066 -0.5911
vn -0.0000 -0.8551 -0.5185
vn -0.0000 -0.8767 -0.4810
vn -0.0000 -0.9153 -0.4029
vn -0.0000 -0.9321 -0.3623
vn -0.0000 -0.9601 -0.2796
vn -0.0000 -0.9714 -0.2375
vn -0.0000 -0.9884 -0.1522
vn -0.0000 -0.9940 -0.1091
vn -0.0000 -0.9998 -0.0220
vn -0.0000 -0.9998 0.0220
vn -0.0000 -0.9940 0.1091
vn -0.0000 -0.9884 0.1522
vn -0.0000 -0.9714 0.2375
vn -0.0000 -0.9601 0.2796
vn -0.0000 -0.9321 0.3623
vn -0.0000 -0.9153 0.4029
vn -0.0000 -0.8767 0.4810
vn -0.0000 -0.8551 0.5185
vn -0.0000 -0.8066 0.5911
vn -0.0000 -0.7798 0.6260
vn -0.0000 -0.7223 0.6916
vn -0.0000 -0.6916 0.7223
vn -0.0000 -0.6260 0.7798
vn -0.0000 -0.5911 0.8066
vn -0.0000 -0.5185 0.8551
vn -0.0000 -0.4810 0.8767
vn -0.0000 -0.4029 0.9153
vn -0.0000 -0.3623 0.9321
vn -0.0000 -0.2795 0.9601
vn -0.0000 -0.2375 0.9714
vn -0.0000 -0.1522 0.9884
vn -0.0000 -0.1091 0.9940
vn -0.0000 -0.0220 0.9998
vn -0.0000 0.0220 0.9998
vn -0.0000 0.1091 0.9940
vn -0.0000 0.1522 0.9884
vn -0.0000 0.2375 0.9714
vn -0.0000 0.2795 0.9601
vn -0.0000 0.3623 0.9321
vn -0.0000 0.4029 0.9153
vn -0.0000 0.4810 0.8767
vn -0.0000 0.5185 0.8551
vn -0.0000 0.5911 0.8066
vn -0.0000 0.6260 0.7798
vn -0.0000 0.6916 0.7223
vn -0.0000 0.7223 0.6916
vn -0.0000 0.7798 0.6261
vn -0.0000 0.8066 0.5911
vn -0.0000 0.8551 0.5185
vn -0.0000 0.8767 0.4810
vn -0.0000 0.9153 0.4029
vn -0.0000 0.9321 0.3623
vn -0.0000 0.9601 0.2796
vn -0.0000 0.9714 0.2374
vn -0.0000 0.9884 0.1522
vn -0.0000 0.9940 0.1091
vn -0.0000 0.9998 0.0220
vn -0.0000 0.9998 -0.0220
vn -0.0000 0.9940 -0.1091
vn -0.0000 0.9884 -0.1522
vn -0.0000 0.9714 -0.2375
vn -0.0000 0.9601 -0.2796
vn -0.0000 0.9321 -0.3623
vn -0.0000 0.9153 -0.4029
vn -0.0000 0.8767 -0.4810
vn -0.0000 0.8551 -0.5185
vn -0.0000 0.8066 -0.5911
vn -0.0000 0.7798 -0.6260
vn -0.0000 0.7223 -0.6916
vn -0.0000 0.6916 -0.7223
vn -0.0000 0.6261 -0.7798
vn -0.0000 0.5911 -0.8066
vn -0.0000 0.5185 -0.8551
vn -0.0000 0.4810 -0.8767
vn -0.0000 0.4029 -0.9153
vn -0.0000 0.3623 -0.9321
vn -0.0000 0.2796 -0.9601
vn -0.0000 0.2375 -0.9714
vn -0.0000 0.1522 -0.9884
vn -0.0000 0.1091 -0.9940
vn -0.0000 -0.2796 0.9601
vn -0.0000 0.1090 0.9940
vn -0.0000 0.2796 0.9601
vn -0.0000 0.7798 0.6260
vn -0.0000 0.9714 0.2375
vn -0.0000 0.9601 -0.2795
vn -0.0000 0.6260 -0.7798
vn -0.0000 -0.9601 0.2795
vn -0.0000 -0.1090 0.9940
vn -0.0000 0.2795 -0.9601
vn -0.0000 0.1090 -0.9940
vn -0.0000 -0.1091 -0.9940
vn -0.0000 0.0219 -0.9998
vn -0.0000 -0.0219 -0.9998
vn -0.0000 -0.2374 -0.9714
vn -0.0000 -0.2795 -0.9601
vn -0.0000 -0.5186 -0.8550
vn -0.0000 -0.6261 -0.7798
vn -0.0000 -0.6916 -0.7222
vn -0.0000 -0.7222 -0.6916
vn -0.0000 -0.7798 -0.6261
vn -0.0000 -0.8550 -0.5186
vn -0.0000 -0.9601 -0.2795
vn -0.0000 -0.9714 -0.2374
vn -0.0000 -0.9998 0.0219
vn -0.0000 -0.9714 0.2374
vn -0.0000 -0.8550 0.5186
vn -0.0000 -0.7798 0.6261
vn -0.0000 -0.7222 0.6916
vn -0.0000 -0.6916 0.7222
vn -0.0000 -0.6261 0.7798
vn -0.0000 -0.5186 0.8550
vn -0.0000 -0.2374 0.9714
vn -0.0000 -0.1521 0.9884
vn -0.0000 -0.0219 0.9998
vn -0.0000 0.0219 0.9998
vn -0.0000 0.2374 0.9714
vn -0.0000 0.5186 0.8550
vn -0.0000 0.6261 0.7798
vn -0.0000 0.7222 0.6916
vn -0.0000 0.9601 0.2795
vn -0.0000 0.9998 -0.0219
vn -0.0000 0.9714 -0.2374
vn -0.0000 0.8550 -0.5186
vn -0.0000 0.7798 -0.6261
vn -0.0000 0.6916 -0.7222
vn -0.0000 0.5186 -0.8550
vn -0.0000 0.2374 -0.9714
vn -0.0000 -0.5185 -0.8550
vn -0.0000 -0.8550 0.5185
vn -0.0000 0.6916 0.7222
vn -0.0000 0.8550 0.5186
vn -0.0000 0.9884 0.1521
vn -0.0000 0.9940 0.1090
vn -0.0000 0.9940 -0.1090
vn -0.0000 0.9884 -0.1521
vn -0.0000 0.7222 -0.6916
vn -0.0000 0.9998 0.0219
vt -10.000000 -40.000000
vt 10.000000 -40.000000
vt 10.000000 40.000000
vt -10.000000 40.000000
vt 14.000000 30.000000
vt 14.000000 -50.000000
vt -10.000000 -50.000000
vt -10.000000 30.000000
vt -16.000000 -50.000000
vt -16.000000 -30.000000
vt -40.000000 -30.000000
vt -40.000000 -50.000000
vt 64.000000 50.000000
vt 64.000000 30.000000
vt 40.000000 30.000000
vt 40.000000 50.000000
vt -2.000000 40.000000
vt 10.000000 -32.000000
vt -2.000000 -32.000000
vt 18.000000 -42.000000
vt 18.000000 30.000000
vt -2.000000 30.000000
vt -2.000000 -42.000000
vt -12.000000 -30.000000
vt -12.000000 -42.000000
vt -32.000000 -42.000000
vt -32.000000 -30.000000
vt 30.000000 42.000000
vt 30.000000 -30.000000
vt 10.000000 -30.000000
vt 10.000000 42.000000
vt 60.000000 30.000000
vt 60.000000 42.000000
vt 40.000000 42.000000
vt -28.051600 -24.834600
vt -28.000000 -24.000000
vt -24.000000 -24.000000
vt -24.051600 -24.834600
vt -28.204599 -25.757401
vt -24.204599 -25.757401
vt -28.456600 -26.752800
vt -24.456600 -26.752800
vt -28.804001 -27.804001
vt -24.804001 -27.804001
vt -29.239599 -28.892401
vt -25.239599 -28.892401
vt -29.757401 -30.000000
vt -25.757401 -30.000000
vt -30.347200 -31.107599
vt -26.347200 -31.107599
vt -31.000000 -32.195999
vt -27.000000 -32.195999
vt -31.703800 -33.247200
vt -27.703800 -33.247200
vt -32.447201 -34.242599
vt -28.447201 -34.242599
vt -33.216999 -35.165401
vt -29.216999 -35.165401
vt -34.000000 -36.000000
vt -6.000000 -36.000000
vt -9.948400 -36.731400
vt -5.948400 -36.731400
vt -9.795401 -37.348202
vt -5.795400 -37.348202
vt -9.543400 -37.839600
vt -5.543400 -37.839600
vt -9.196000 -38.195999
vt -5.196000 -38.195999
vt -8.760400 -38.413200
vt -4.760400 -38.413200
vt -8.242599 -38.485199
vt -34.242599 -38.485199
vt -38.760399 -38.413200
vt -34.760399 -38.413200
vt -39.195999 -38.195999
vt -35.195999 -38.195999
vt -39.543400 -37.839600
vt -35.543400 -37.839600
vt -39.795399 -37.348202
vt -35.795399 -37.348202
vt -39.948399 -36.731400
vt -35.948399 -36.731400
vt -40.000000 -36.000000
vt 0.000000 -36.000000
vt -3.217000 -35.165401
vt 0.783000 -35.165401
vt -2.447200 -34.242599
vt 1.552800 -34.242599
vt -1.703800 -33.247200
vt 2.296200 -33.247200
vt -1.000000 -32.195999
vt 3.000000 -32.195999
vt -0.347200 -31.107599
vt 3.652800 -31.107599
vt 0.242600 -30.000000
vt 4.242600 -30.000000
vt 0.760400 -28.892401
vt 4.760400 -28.892401
vt 1.196000 -27.804001
vt 5.196000 -27.804001
vt 1.543400 -26.752800
vt 5.543400 -26.752800
vt 1.795400 -25.757401
vt 5.795400 -25.757401
vt 1.948400 -24.834600
vt 5.948400 -24.834600
vt 2.000000 -24.000000
vt 6.000000 -24.000000
vt 1.948400 -23.268600
vt 5.948400 -23.268600
vt 1.795400 -22.651800
vt 5.795400 -22.651800
vt 1.543400 -22.160400
vt 5.543400 -22.160400
vt 1.196000 -21.804001
vt 5.196000 -21.804001
vt 0.760400 -21.586800
vt 4.760400 -21.586800
vt 0.242600 -21.514799
vt -25.757401 -21.514799
vt -29.239599 -21.586800
vt -25.239599 -21.586800
vt -28.804001 -21.804001
vt -24.804001 -21.804001
vt -28.456600 -22.160400
vt -24.456600 -22.160400
vt -28.204599 -22.651800
vt -24.204599 -22.651800
vt -28.051600 -23.268600
vt -24.051600 -23.268600
vt -4.000000 -34.000000
vt -4.000000 -28.000000
vt -4.783000 -28.051600
vt -5.552800 -28.204599
vt -6.296200 -28.456600
vt -7.000000 -28.804001
vt -7.652800 -29.239599
vt -8.242599 -29.757401
vt -8.760400 -30.347200
vt -9.196000 -31.000000
vt -9.543400 -31.703800
vt -9.795401 -32.447201
vt -9.948400 -33.216999
vt -10.000000 -34.000000
vt -9.948400 -34.783001
vt -9.795401 -35.552799
vt -9.543400 -36.296200
vt -9.196000 -37.000000
vt -8.760400 -37.652802
vt -8.242599 -38.242599
vt -7.652800 -38.760399
vt -7.000000 -39.195999
vt -6.296200 -39.543400
vt -5.552800 -39.795399
vt -4.783000 -39.948399
vt -4.000000 -40.000000
vt -3.217000 -39.948399
vt -2.447200 -39.795399
vt -1.703800 -39.543400
vt -1.000000 -39.195999
vt -0.347200 -38.760399
vt 0.242600 -38.242599
vt 0.760400 -37.652802
vt 1.196000 -37.000000
vt 1.543400 -36.296200
vt 1.795400 -35.552799
vt 1.948400 -34.783001
vt 2.000000 -34.000000
vt 1.948400 -33.216999
vt 1.795400 -32.447201
vt 1.543400 -31.703800
vt 1.196000 -31.000000
vt 0.760400 -30.347200
vt 0.242600 -29.757401
vt -0.347200 -29.239599
vt -1.000000 -28.804001
vt -1.703800 -28.456600
vt -2.447200 -28.204599
vt -3.217000 -28.051600
vt -8.051600 -4.834600
vt -8.000000 -4.000000
vt -4.000000 -4.000000
vt -4.051600 -4.834600
vt -8.204599 -5.757400
vt -4.204600 -5.757400
vt -8.456600 -6.752800
vt -4.456600 -6.752800
vt -8.804000 -7.804000
vt -4.804000 -7.804000
vt -9.239600 -8.892401
vt -5.239600 -8.892401
vt -9.757401 -10.000000
vt -5.757400 -10.000000
vt -10.347200 -11.107600
vt -6.347200 -11.107600
vt -11.000000 -12.196000
vt -7.000000 -12.196000
vt -11.703800 -13.247200
vt -7.703800 -13.247200
vt -12.447200 -14.242600
vt -8.447200 -14.242600
vt -13.217000 -15.165400
vt -9.217000 -15.165400
vt -14.000000 -16.000000
vt -6.000000 -16.000000
vt -9.948400 -16.731400
vt -5.948400 -16.731400
vt -9.795401 -17.348200
vt -5.795400 -17.348200
vt -9.543400 -17.839600
vt -5.543400 -17.839600
vt -9.196000 -18.195999
vt -5.196000 -18.195999
vt -8.760400 -18.413200
vt -4.760400 -18.413200
vt -8.242599 -18.485201
vt -14.242600 -18.485201
vt -18.760401 -18.413200
vt -14.760400 -18.413200
vt -19.195999 -18.195999
vt -15.196000 -18.195999
vt -19.543400 -17.839600
vt -15.543400 -17.839600
vt -19.795401 -17.348200
vt -15.795400 -17.348200
vt -19.948400 -16.731400
vt -15.948400 -16.731400
vt -20.000000 -16.000000
vt 0.000000 -16.000000
vt -3.217000 -15.165400
vt 0.783000 -15.165400
vt -2.447200 -14.242600
vt 1.552800 -14.242600
vt -1.703800 -13.247200
vt 2.296200 -13.247200
vt -1.000000 -12.196000
vt 3.000000 -12.196000
vt -0.347200 -11.107600
vt 3.652800 -11.107600
vt 0.242600 -10.000000
vt 4.242600 -10.000000
vt 0.760400 -8.892400
vt 4.760400 -8.892400
vt 1.196000 -7.804000
vt 5.196000 -7.804000
vt 1.543400 -6.752800
vt 5.543400 -6.752800
vt 1.795400 -5.757400
vt 5.795400 -5.757400
vt 1.948400 -4.834600
vt 5.948400 -4.834600
vt 2.000000 -4.000000
vt 6.000000 -4.000000
vt 1.948400 -3.268600
vt 5.948400 -3.268600
vt 1.795400 -2.651800
vt 5.795400 -2.651800
vt 1.543400 -2.160400
vt 5.543400 -2.160400
vt 1.196000 -1.804000
vt 5.196000 -1.804000
vt 0.760400 -1.586800
vt 4.760400 -1.586800
vt 0.242600 -1.514800
vt -5.757400 -1.514800
vt -9.239600 -1.586800
vt -5.239600 -1.586800
vt -8.804000 -1.804000
vt -4.804000 -1.804000
vt -8.456600 -2.160400
vt -4.456600 -2.160400
vt -8.204599 -2.651800
vt -4.204600 -2.651800
vt -8.051600 -3.268600
vt -4.051600 -3.268600
vt -4.000000 -14.000000
vt -4.000000 -8.000000
vt -4.783000 -8.051600
vt -5.552800 -8.204599
vt -6.296200 -8.456600
vt -7.000000 -8.804000
vt -7.652800 -9.239600
vt -8.242599 -9.757401
vt -8.760400 -10.347200
vt -9.196000 -11.000000
vt -9.543400 -11.703800
vt -9.795401 -12.447200
vt -9.948400 -13.217000
vt -10.000000 -14.000000
vt -9.948400 -14.783000
vt -9.795401 -15.552800
vt -9.543400 -16.296200
vt -9.196000 -17.000000
vt -8.760400 -17.652800
vt -8.242599 -18.242599
vt -7.652800 -18.760401
vt -7.000000 -19.195999
vt -6.296200 -19.543400
vt -5.552800 -19.795401
vt -4.783000 -19.948400
vt -4.000000 -20.000000
vt -3.217000 -19.948400
vt -2.447200 -19.795401
vt -1.703800 -19.543400
vt -1.000000 -19.195999
vt -0.347200 -18.760401
vt 0.242600 -18.242599
vt 0.760400 -17.652800
vt 1.196000 -17.000000
vt 1.543400 -16.296200
vt 1.795400 -15.552800
vt 1.948400 -14.783000
vt 2.000000 -14.000000
vt 1.948400 -13.217000
vt 1.795400 -12.447200
vt 1.543400 -11.703800
vt 1.196000 -11.000000
vt 0.760400 -10.347200
vt 0.242600 -9.757401
vt -0.347200 -9.239600
vt -1.000000 -8.804000
vt -1.703800 -8.456600
vt -2.447200 -8.204599
vt -3.217000 -8.051600
vt 11.948400 15.165400
vt 12.000000 16.000000
vt 16.000000 16.000000
vt 15.948400 15.165400
vt 11.795400 14.242600
vt 15.795400 14.242600
vt 11.543400 13.247200
vt 15.543400 13.247200
vt 11.196000 12.196000
vt 15.196000 12.196000
vt 10.760400 11.107600
vt 14.760400 11.107600
vt 10.242600 10.000000
vt 14.242600 10.000000
vt 9.652800 8.892400
vt 13.652800 8.892400
vt 9.000000 7.804000
vt 13.000000 7.804000
vt 8.296200 6.752800
vt 12.296200 6.752800
vt 7.552800 5.757400
vt 11.552800 5.757400
vt 6.783000 4.834600
vt 10.783000 4.834600
vt 6.000000 4.000000
vt -6.000000 4.000000
vt -9.948400 3.268600
vt -5.948400 3.268600
vt -9.795401 2.651800
vt -5.795400 2.651800
vt -9.543400 2.160400
vt -5.543400 2.160400
vt -9.196000 1.804000
vt -5.196000 1.804000
vt -8.760400 1.586800
vt -4.760400 1.586800
vt -8.242599 1.514800
vt 5.757400 1.514800
vt 1.239600 1.586800
vt 5.239600 1.586800
vt 0.804000 1.804000
vt 4.804000 1.804000
vt 0.456600 2.160400
vt 4.456600 2.160400
vt 0.204600 2.651800
vt 4.204600 2.651800
vt 0.051600 3.268600
vt 4.051600 3.268600
vt 0.000000 4.000000
vt -3.217000 4.834600
vt 0.783000 4.834600
vt -2.447200 5.757400
vt 1.552800 5.757400
vt -1.703800 6.752800
vt 2.296200 6.752800
vt -1.000000 7.804000
vt 3.000000 7.804000
vt -0.347200 8.892401
vt 3.652800 8.892401
vt 0.242600 10.000000
vt 4.242600 10.000000
vt 0.760400 11.107600
vt 4.760400 11.107600
vt 1.196000 12.196000
vt 5.196000 12.196000
vt 1.543400 13.247200
vt 5.543400 13.247200
vt 1.795400 14.242600
vt 5.795400 14.242600
vt 1.948400 15.165400
vt 5.948400 15.165400
vt 2.000000 16.000000
vt 6.000000 16.000000
vt 1.948400 16.731400
vt 5.948400 16.731400
vt 1.795400 17.348200
vt 5.795400 17.348200
vt 1.543400 17.839600
vt 5.543400 17.839600
vt 1.196000 18.195999
vt 5.196000 18.195999
vt 0.760400 18.413200
vt 4.760400 18.413200
vt 0.242600 18.485201
vt 14.242600 18.485201
vt 10.760400 18.413200
vt 14.760400 18.413200
vt 11.196000 18.195999
vt 15.196000 18.195999
vt 11.543400 17.839600
vt 15.543400 17.839600
vt 11.795400 17.348200
vt 15.795400 17.348200
vt 11.948400 16.731400
vt 15.948400 16.731400
vt -4.000000 6.000000
vt -4.000000 12.000000
vt -4.783000 11.948400
vt -5.552800 11.795400
vt -6.296200 11.543400
vt -7.000000 11.196000
vt -7.652800 10.760400
vt -8.242599 10.242600
vt -8.760400 9.652800
vt -9.196000 9.000000
vt -9.543400 8.296200
vt -9.795401 7.552800
vt -9.948400 6.783000
vt -10.000000 6.000000
vt -9.948400 5.217000
vt -9.795401 4.447200
vt -9.543400 3.703800
vt -9.196000 3.000000
vt -8.760400 2.347200
vt -8.242599 1.757400
vt -7.652800 1.239600
vt -7.000000 0.804000
vt -6.296200 0.456600
vt -5.552800 0.204600
vt -4.783000 0.051600
vt -4.000000 0.000000
vt -3.217000 0.051600
vt -2.447200 0.204600
vt -1.703800 0.456600
vt -1.000000 0.804000
vt -0.347200 1.239600
vt 0.242600 1.757400
vt 0.760400 2.347200
vt 1.196000 3.000000
vt 1.543400 3.703800
vt 1.795400 4.447200
vt 1.948400 5.217000
vt 2.000000 6.000000
vt 1.948400 6.783000
vt 1.795400 7.552800
vt 1.543400 8.296200
vt 1.196000 9.000000
vt 0.760400 9.652800
vt 0.242600 10.242600
vt -0.347200 10.760400
vt -1.000000 11.196000
vt -1.703800 11.543400
vt -2.447200 11.795400
vt -3.217000 11.948400
vt 31.948400 35.165401
vt 32.000000 36.000000
vt 36.000000 36.000000
vt 35.948399 35.165401
vt 31.795401 34.242599
vt 35.795399 34.242599
vt 31.543400 33.247200
vt 35.543400 33.247200
vt 31.195999 32.195999
vt 35.195999 32.195999
vt 30.760401 31.107599
vt 34.760399 31.107599
vt 30.242599 30.000000
vt 34.242599 30.000000
vt 29.652800 28.892401
vt 33.652802 28.892401
vt 29.000000 27.804001
vt 33.000000 27.804001
vt 28.296200 26.752800
vt 32.296200 26.752800
vt 27.552799 25.757401
vt 31.552799 25.757401
vt 26.783001 24.834600
vt 30.783001 24.834600
vt 26.000000 24.000000
vt -6.000000 24.000000
vt -9.948400 23.268600
vt -5.948400 23.268600
vt -9.795401 22.651800
vt -5.795400 22.651800
vt -9.543400 22.160400
vt -5.543400 22.160400
vt -9.196000 21.804001
vt -5.196000 21.804001
vt -8.760400 21.586800
vt -4.760400 21.586800
vt -8.242599 21.514799
vt 25.757401 21.514799
vt 21.239599 21.586800
vt 25.239599 21.586800
vt 20.804001 21.804001
vt 24.804001 21.804001
vt 20.456600 22.160400
vt 24.456600 22.160400
vt 20.204599 22.651800
vt 24.204599 22.651800
vt 20.051600 23.268600
vt 24.051600 23.268600
vt 20.000000 24.000000
vt 0.000000 24.000000
vt -3.217000 24.834600
vt 0.783000 24.834600
vt -2.447200 25.757401
vt 1.552800 25.757401
vt -1.703800 26.752800
vt 2.296200 26.752800
vt -1.000000 27.804001
vt 3.000000 27.804001
vt -0.347200 28.892401
vt 3.652800 28.892401
vt 0.242600 30.000000
vt 4.242600 30.000000
vt 0.760400 31.107599
vt 4.760400 31.107599
vt 1.196000 32.195999
vt 5.196000 32.195999
vt 1.543400 33.247200
vt 5.543400 33.247200
vt 1.795400 34.242599
vt 5.795400 34.242599
vt 1.948400 35.165401
vt 5.948400 35.165401
vt 2.000000 36.000000
vt 6.000000 36.000000
vt 1.948400 36.731400
vt 5.948400 36.731400
vt 1.795400 37.348202
vt 5.795400 37.348202
vt 1.543400 37.839600
vt 5.543400 37.839600
vt 1.196000 38.195999
vt 5.196000 38.195999
vt 0.760400 38.413200
vt 4.760400 38.413200
vt 0.242600 38.485199
vt 34.242599 38.485199
vt 30.760401 38.413200
vt 34.760399 38.413200
vt 31.195999 38.195999
vt 35.195999 38.195999
vt 31.543400 37.839600
vt 35.543400 37.839600
vt 31.795401 37.348202
vt 35.795399 37.348202
vt 31.948400 36.731400
vt 35.948399 36.731400
vt -4.000000 26.000000
vt -4.000000 32.000000
vt -4.783000 31.948400
vt -5.552800 31.795401
vt -6.296200 31.543400
vt -7.000000 31.195999
vt -7.652800 30.760401
vt -8.242599 30.242599
vt -8.760400 29.652800
vt -9.196000 29.000000
vt -9.543400 28.296200
vt -9.795401 27.552799
vt -9.948400 26.783001
vt -10.000000 26.000000
vt -9.948400 25.216999
vt -9.795401 24.447201
vt -9.543400 23.703800
vt -9.196000 23.000000
vt -8.760400 22.347200
vt -8.242599 21.757401
vt -7.652800 21.239599
vt -7.000000 20.804001
vt -6.296200 20.456600
vt -5.552800 20.204599
vt -4.783000 20.051600
vt -4.000000 20.000000
vt -3.217000 20.051600
vt -2.447200 20.204599
vt -1.703800 20.456600
vt -1.000000 20.804001
vt -0.347200 21.239599
vt 0.242600 21.757401
vt 0.760400 22.347200
vt 1.196000 23.000000
vt 1.543400 23.703800
vt 1.795400 24.447201
vt 1.948400 25.216999
vt 2.000000 26.000000
vt 1.948400 26.783001
vt 1.795400 27.552799
vt 1.543400 28.296200
vt 1.196000 29.000000
vt 0.760400 29.652800
vt 0.242600 30.242599
vt -0.347200 30.760401
vt -1.000000 31.195999
vt -1.703800 31.543400
vt -2.447200 31.795401
vt -3.217000 31.948400
vt 23.478001 7.965599
vt 24.000000 8.000000
vt 24.000000 4.000000
vt 22.964800 7.863600
vt 22.469200 7.695601
vt 22.000000 7.464001
vt 21.564800 7.173599
vt 21.171600 6.828400
vt 20.826401 6.435200
vt 20.535999 6.000000
vt 20.304399 5.530800
vt 20.136400 5.035200
vt 20.034401 4.521999
vt 20.000000 4.000000
vt 20.034401 3.478001
vt 20.136400 2.964800
vt 20.304399 2.469200
vt 20.535999 2.000000
vt 20.826401 1.564800
vt 21.171600 1.171600
vt 21.564800 0.826401
vt 22.000000 0.535999
vt 22.469200 0.304399
vt 22.964800 0.136400
vt 23.478001 0.034401
vt 24.000000 0.000000
vt 24.521999 0.034401
vt 25.035200 0.136400
vt 25.530800 0.304399
vt 26.000000 0.535999
vt 26.435200 0.826401
vt 26.828400 1.171600
vt 27.173599 1.564800
vt 27.464001 2.000000
vt 27.695601 2.469200
vt 27.863600 2.964800
vt 27.965599 3.478001
vt 28.000000 4.000000
vt 27.965599 4.521999
vt 27.863600 5.035200
vt 27.695601 5.530800
vt 27.464001 6.000000
vt 27.173599 6.435200
vt 26.828400 6.828400
vt 26.435200 7.173599
vt 26.000000 7.464001
vt 25.530800 7.695601
vt 25.035200 7.863600
vt 24.521999 7.965599
vt -12.034400 -16.556400
vt -12.000000 -16.000000
vt 8.000000 -16.000000
vt 7.965599 -16.556400
vt -12.136400 -17.171600
vt 7.863600 -17.171600
vt -12.304400 -17.835199
vt 7.695601 -17.835199
vt -12.536000 -18.535999
vt 7.464001 -18.535999
vt -12.826400 -19.261600
vt 7.173599 -19.261600
vt -13.171600 -20.000000
vt 6.828400 -20.000000
vt -13.564800 -20.738400
vt 6.435200 -20.738400
vt -14.000000 -21.464001
vt 6.000000 -21.464001
vt -14.469200 -22.164801
vt 5.530800 -22.164801
vt -14.964800 -22.828400
vt 5.035200 -22.828400
vt -15.478000 -23.443600
vt 4.521999 -23.443600
vt -16.000000 -24.000000
vt 20.000000 -24.000000
vt 0.034400 -24.487600
vt 20.034401 -24.487600
vt 0.136400 -24.898800
vt 20.136400 -24.898800
vt 0.304400 -25.226400
vt 20.304399 -25.226400
vt 0.536000 -25.464001
vt 20.535999 -25.464001
vt 0.826400 -25.608801
vt 20.826401 -25.608801
vt 1.171600 -25.656799
vt -19.173599 -25.608801
vt 0.826401 -25.608801
vt -19.464001 -25.464001
vt 0.535999 -25.464001
vt -19.695601 -25.226400
vt 0.304399 -25.226400
vt -19.863600 -24.898800
vt 0.136400 -24.898800
vt -19.965599 -24.487600
vt 0.034401 -24.487600
vt -20.000000 -24.000000
vt 24.000000 -24.000000
vt 4.522000 -23.443600
vt 24.521999 -23.443600
vt 25.035200 -22.828400
vt 25.530800 -22.164801
vt 26.000000 -21.464001
vt 26.435200 -20.738400
vt 26.828400 -20.000000
vt 7.173600 -19.261600
vt 27.173599 -19.261600
vt 7.464000 -18.535999
vt 27.464001 -18.535999
vt 7.695600 -17.835199
vt 27.695601 -17.835199
vt 27.863600 -17.171600
vt 7.965600 -16.556400
vt 27.965599 -16.556400
vt 28.000000 -16.000000
vt 7.965600 -15.512400
vt 27.965599 -15.512400
vt 7.863600 -15.101200
vt 27.863600 -15.101200
vt 7.695600 -14.773600
vt 27.695601 -14.773600
vt 7.464000 -14.536000
vt 27.464001 -14.536000
vt 7.173600 -14.391200
vt 27.173599 -14.391200
vt 6.828400 -14.343200
vt -12.826400 -14.391200
vt 7.173599 -14.391200
vt -12.536000 -14.536000
vt 7.464001 -14.536000
vt -12.304400 -14.773600
vt 7.695601 -14.773600
vt -12.136400 -15.101200
vt -12.034400 -15.512400
vt 7.965599 -15.512400
vt 23.478001 27.965599
vt 24.000000 28.000000
vt 24.000000 24.000000
vt 22.964800 27.863600
vt 22.469200 27.695601
vt 22.000000 27.464001
vt 21.564800 27.173599
vt 21.171600 26.828400
vt 20.826401 26.435200
vt 20.535999 26.000000
vt 20.304399 25.530800
vt 20.136400 25.035200
vt 20.034401 24.521999
vt 20.034401 23.478001
vt 20.136400 22.964800
vt 20.304399 22.469200
vt 20.535999 22.000000
vt 20.826401 21.564800
vt 21.171600 21.171600
vt 21.564800 20.826401
vt 22.000000 20.535999
vt 22.469200 20.304399
vt 22.964800 20.136400
vt 23.478001 20.034401
vt 24.000000 20.000000
vt 24.521999 20.034401
vt 25.035200 20.136400
vt 25.530800 20.304399
vt 26.000000 20.535999
vt 26.435200 20.826401
vt 26.828400 21.171600
vt 27.173599 21.564800
vt 27.464001 22.000000
vt 27.695601 22.469200
vt 27.863600 22.964800
vt 27.965599 23.478001
vt 28.000000 24.000000
vt 27.965599 24.521999
vt 27.863600 25.035200
vt 27.695601 25.530800
vt 27.464001 26.000000
vt 27.173599 26.435200
vt 26.828400 26.828400
vt 26.435200 27.173599
vt 26.000000 27.464001
vt 25.530800 27.695601
vt 25.035200 27.863600
vt 24.521999 27.965599
vt 7.965600 3.443600
vt 8.000000 4.000000
vt 27.965599 3.443600
vt 7.863600 2.828400
vt 27.863600 2.828400
vt 7.695600 2.164800
vt 27.695601 2.164800
vt 7.464000 1.464000
vt 27.464001 1.464000
vt 7.173600 0.738400
vt 27.173599 0.738400
vt 6.828400 0.000000
vt 26.828400 0.000000
vt 6.435200 -0.738400
vt 26.435200 -0.738400
vt 6.000000 -1.464000
vt 26.000000 -1.464000
vt 5.530800 -2.164800
vt 25.530800 -2.164800
vt 5.035200 -2.828400
vt 25.035200 -2.828400
vt 4.522000 -3.443600
vt 24.521999 -3.443600
vt 4.000000 -4.000000
vt 20.000000 -4.000000
vt 0.034400 -4.487600
vt 20.034401 -4.487600
vt 0.136400 -4.898800
vt 20.136400 -4.898800
vt 0.304400 -5.226400
vt 20.304399 -5.226400
vt 0.536000 -5.464000
vt 20.535999 -5.464000
vt 0.826400 -5.608800
vt 20.826401 -5.608800
vt 1.171600 -5.656800
vt 21.171600 -5.656800
vt 0.000000 -4.000000
vt 24.000000 -4.000000
vt 7.965600 4.487600
vt 27.965599 4.487600
vt 7.863600 4.898800
vt 27.863600 4.898800
vt 7.695600 5.226400
vt 27.695601 5.226400
vt 7.464000 5.464000
vt 27.464001 5.464000
vt 7.173600 5.608800
vt 27.173599 5.608800
vt 6.828400 5.656800
vt 26.828400 5.656800
vt 23.478001 47.965599
vt 24.000000 48.000000
vt 24.000000 44.000000
vt 22.964800 47.863602
vt 22.469200 47.695599
vt 22.000000 47.464001
vt 21.564800 47.173599
vt 21.171600 46.828400
vt 20.826401 46.435200
vt 20.535999 46.000000
vt 20.304399 45.530800
vt 20.136400 45.035198
vt 20.034401 44.521999
vt 20.000000 44.000000
vt 20.034401 43.478001
vt 20.136400 42.964802
vt 20.304399 42.469200
vt 20.535999 42.000000
vt 20.826401 41.564800
vt 21.171600 41.171600
vt 21.564800 40.826401
vt 22.000000 40.535999
vt 22.469200 40.304401
vt 22.964800 40.136398
vt 23.478001 40.034401
vt 24.000000 40.000000
vt 24.521999 40.034401
vt 25.035200 40.136398
vt 25.530800 40.304401
vt 26.000000 40.535999
vt 26.435200 40.826401
vt 26.828400 41.171600
vt 27.173599 41.564800
vt 27.464001 42.000000
vt 27.695601 42.469200
vt 27.863600 42.964802
vt 27.965599 43.478001
vt 28.000000 44.000000
vt 27.965599 44.521999
vt 27.863600 45.035198
vt 27.695601 45.530800
vt 27.464001 46.000000
vt 27.173599 46.435200
vt 26.828400 46.828400
vt 26.435200 47.173599
vt 26.000000 47.464001
vt 25.530800 47.695599
vt 25.035200 47.863602
vt 24.521999 47.965599
vt 27.965599 23.443600
vt 48.000000 24.000000
vt 47.965599 23.443600
vt 27.863600 22.828400
vt 47.863602 22.828400
vt 27.695601 22.164801
vt 47.695599 22.164801
vt 27.464001 21.464001
vt 47.464001 21.464001
vt 27.173599 20.738400
vt 47.173599 20.738400
vt 26.828400 20.000000
vt 46.828400 20.000000
vt 26.435200 19.261600
vt 46.435200 19.261600
vt 26.000000 18.535999
vt 46.000000 18.535999
vt 25.530800 17.835199
vt 45.530800 17.835199
vt 25.035200 17.171600
vt 45.035198 17.171600
vt 24.521999 16.556400
vt 44.521999 16.556400
vt 24.000000 16.000000
vt 20.000000 16.000000
vt 0.034400 15.512400
vt 20.034401 15.512400
vt 0.136400 15.101200
vt 20.136400 15.101200
vt 0.304400 14.773600
vt 20.304399 14.773600
vt 0.536000 14.536000
vt 20.535999 14.536000
vt 0.826400 14.391200
vt 20.826401 14.391200
vt 1.171600 14.343200
vt 41.171600 14.343200
vt 40.826401 14.391200
vt 40.535999 14.536000
vt 40.304401 14.773600
vt 40.136398 15.101200
vt 40.034401 15.512400
vt 4.522000 16.556400
vt 5.035200 17.171600
vt 5.530800 17.835199
vt 6.000000 18.535999
vt 6.435200 19.261600
vt 6.828400 20.000000
vt 7.173600 20.738400
vt 7.464000 21.464001
vt 7.695600 22.164801
vt 7.863600 22.828400
vt 7.965600 23.443600
vt 8.000000 24.000000
vt 7.965600 24.487600
vt 27.965599 24.487600
vt 7.863600 24.898800
vt 27.863600 24.898800
vt 7.695600 25.226400
vt 27.695601 25.226400
vt 7.464000 25.464001
vt 27.464001 25.464001
vt 7.173600 25.608801
vt 27.173599 25.608801
vt 6.828400 25.656799
vt 46.828400 25.656799
vt 47.173599 25.608801
vt 47.464001 25.464001
vt 47.695599 25.226400
vt 47.863602 24.898800
vt 47.965599 24.487600
vt 30.000000 60.000000
vt 34.000000 64.000000
vt 34.000000 -16.000000
vt 30.000000 -12.000000
vt 18.000000 -12.000000
vt 14.000000 -16.000000
vt 18.000000 60.000000
vt 14.000000 64.000000
vt 34.000000 50.000000
vt 10.000000 50.000000
vt 34.000000 -30.000000
s 1
usemtl 30
f 1/1/1 2/2/1 3/3/1
f 3/3/1 4/4/1 1/1/1
f 5/5/2 6/6/2 7/7/2
f 7/7/2 8/8/2 5/5/2
f 9/9/3 10/10/3 11/11/3
f 11/11/3 12/12/3 9/9/3
f 13/13/4 14/14/4 15/15/4
f 15/15/4 16/16/4 13/13/4
f 19/17/5 18/3/5 17/18/5
f 17/18/5 20/19/5 19/17/5
f 23/20/6 22/21/6 21/22/6
f 21/22/6 24/23/6 23/20/6
f 27/24/4 26/25/4 25/26/4
f 25/26/4 28/27/4 27/24/4
f 31/28/2 30/29/2 29/30/2
f 29/30/2 32/31/2 31/28/2
f 35/32/3 34/33/3 33/34/3
f 33/34/3 36/15/3 35/32/3
f 37/35/7 38/36/8 39/37/9
f 39/37/9 40/38/10 37/35/7
f 41/39/11 37/35/7 40/38/10
f 40/38/10 42/40/12 41/39/11
f 43/41/13 41/39/11 42/40/12
f 42/40/12 44/42/14 43/41/13
f 45/43/15 43/41/13 44/42/14
f 44/42/14 46/44/16 45/43/15
f 47/45/17 45/43/15 46/44/16
f 46/44/16 48/46/18 47/45/17
f 49/47/19 47/45/17 48/46/18
f 48/46/18 50/48/20 49/47/19
f 51/49/21 49/47/19 50/48/20
f 50/48/20 52/50/22 51/49/21
f 53/51/23 51/49/21 52/50/22
f 52/50/22 54/52/24 53/51/23
f 55/53/25 53/51/23 54/52/24
f 54/52/24 56/54/26 55/53/25
f 57/55/27 55/53/25 56/54/26
f 56/54/26 58/56/28 57/55/27
f 59/57/29 57/55/27 58/56/28
f 58/56/28 60/58/30 59/57/29
f 61/59/31 59/57/29 60/58/30
f 60/58/30 62/60/32 61/59/31
f 63/61/33 61/59/31 62/60/32
f 62/60/32 64/62/34 63/61/33
f 65/63/35 63/61/33 64/62/34
f 64/62/34 66/64/36 65/63/35
f 67/65/37 65/63/35 66/64/36
f 66/64/36 68/66/38 67/65/37
f 69/67/39 67/65/37 68/66/38
f 68/66/38 70/68/40 69/67/39
f 71/69/41 69/67/39 70/68/40
f 70/68/40 72/70/42 71/69/41
f 73/71/43 71/69/41 72/70/42
f 72/70/42 74/72/44 73/71/43
f 75/73/45 73/71/43 74/72/44
f 74/72/44 76/74/46 75/73/45
f 77/75/47 75/73/45 76/74/46
f 76/74/46 78/76/48 77/75/47
f 79/77/49 77/75/47 78/76/48
f 78/76/48 80/78/50 79/77/49
f 81/79/51 79/77/49 80/78/50
f 80/78/50 82/80/52 81/79/51
f 83/81/53 81/79/51 82/80/52
f 82/80/52 84/82/54 83/81/53
f 85/83/55 83/81/53 84/82/54
f 84/82/54 86/84/56 85/83/55
f 87/85/57 85/83/55 86/84/56
f 86/84/56 88/86/58 87/85/57
f 89/87/59 87/85/57 88/86/58
f 88/86/58 90/88/60 89/87/59
f 91/89/61 89/87/59 90/88/60
f 90/88/60 92/90/62 91/89/61
f 93/91/63 91/89/61 92/90/62
f 92/90/62 94/92/64 93/91/63
f 95/93/65 93/91/63 94/92/64
f 94/92/64 96/94/66 95/93/65
f 97/95/67 95/93/65 96/94/66
f 96/94/66 98/96/68 97/95/67
f 99/97/69 97/95/67 98/96/68
f 98/96/68 100/98/70 99/97/69
f 101/99/71 99/97/69 100/98/70
f 100/98/70 102/100/72 101/99/71
f 103/101/73 101/99/71 102/100/72
f 102/100/72 104/102/74 103/101/73
f 105/103/75 103/101/73 104/102/74
f 104/102/74 106/104/76 105/103/75
f 107/105/77 105/103/75 106/104/76
f 106/104/76 108/106/78 107/105/77
f 109/107/79 107/105/77 108/106/78
f 108/106/78 110/108/80 109/107/79
f 111/109/81 109/107/79 110/108/80
f 110/108/80 112/110/82 111/109/81
f 113/111/83 111/109/81 112/110/82
f 112/110/82 114/112/84 113/111/83
f 115/113/85 113/111/83 114/112/84
f 114/112/84 116/114/86 115/113/85
f 117/115/87 115/113/85 116/114/86
f 116/114/86 118/116/88 117/115/87
f 119/117/89 117/115/87 118/116/88
f 118/116/88 120/118/90 119/117/89
f 121/119/91 119/117/89 120/118/90
f 120/118/90 122/120/92 121/119/91
f 123/121/93 121/119/91 122/120/92
f 122/120/92 124/122/94 123/121/93
f 125/123/95 123/121/93 124/122/94
f 124/122/94 126/124/96 125/123/95
f 127/125/97 125/123/95 126/124/96
f 126/124/96 128/126/98 127/125/97
f 129/127/99 127/125/97 128/126/98
f 128/126/98 130/128/100 129/127/99
f 131/129/101 129/127/99 130/128/100
f 130/128/100 132/130/102 131/129/101
f 38/36/8 131/129/101 132/130/102
f 132/130/102 39/37/9 38/36/8
f 135/131/1 134/132/1 133/133/1
f 135/131/1 133/133/1 136/134/1
f 135/131/1 136/134/1 137/135/1
f 135/131/1 137/135/1 138/136/1
f 135/131/1 138/136/1 139/137/1
f 135/131/1 139/137/1 140/138/1
f 135/131/1 140/138/1 141/139/1
f 135/131/1 141/139/1 142/140/1
f 135/131/1 142/140/1 143/141/1
f 135/131/1 143/141/1 144/142/1
f 135/131/1 144/142/1 145/143/1
f 135/131/1 145/143/1 146/144/1
f 135/131/1 146/144/1 147/145/1
f 135/131/1 147/145/1 148/146/1
f 135/131/1 148/146/1 149/147/1
f 135/131/1 149/147/1 150/148/1
f 135/131/1 150/148/1 151/149/1
f 135/131/1 151/149/1 152/150/1
f 135/131/1 152/150/1 153/151/1
f 135/131/1 153/151/1 154/152/1
f 135/131/1 154/152/1 155/153/1
f 135/131/1 155/153/1 156/154/1
f 135/131/1 156/154/1 157/155/1
f 135/131/1 157/155/1 158/156/1
f 135/131/1 158/156/1 159/157/1
f 135/131/1 159/157/1 160/158/1
f 135/131/1 160/158/1 161/159/1
f 135/131/1 161/159/1 162/160/1
f 135/131/1 162/160/1 163/161/1
f 135/131/1 163/161/1 164/162/1
f 135/131/1 164/162/1 165/163/1
f 135/131/1 165/163/1 166/164/1
f 135/131/1 166/164/1 167/165/1
f 135/131/1 167/165/1 168/166/1
f 135/131/1 168/166/1 169/167/1
f 135/131/1 169/167/1 170/168/1
f 135/131/1 170/168/1 171/169/1
f 135/131/1 171/169/1 172/170/1
f 135/131/1 172/170/1 173/171/1
f 135/131/1 173/171/1 174/172/1
f 135/131/1 174/172/1 175/173/1
f 135/131/1 175/173/1 176/174/1
f 135/131/1 176/174/1 177/175/1
f 135/131/1 177/175/1 178/176/1
f 135/131/1 178/176/1 179/177/1
f 135/131/1 179/177/1 180/178/1
f 135/131/1 180/178/1 181/179/1
f 135/131/1 181/179/1 134/132/1
f 182/180/7 183/181/8 184/182/9
f 184/182/9 185/183/10 182/180/7
f 186/184/11 182/180/7 185/183/10
f 185/183/10 187/185/12 186/184/11
f 188/186/13 186/184/11 187/185/12
f 187/185/12 189/187/14 188/186/13
f 190/188/15 188/186/13 189/187/14
f 189/187/14 191/189/16 190/188/15
f 192/190/17 190/188/15 191/189/16
f 191/189/16 193/191/18 192/190/17
f 194/192/19 192/190/17 193/191/18
f 193/191/18 195/193/20 194/192/19
f 196/194/21 194/192/19 195/193/20
f 195/193/20 197/195/22 196/194/21
f 198/196/23 196/194/21 197/195/22
f 197/195/22 199/197/24 198/196/23
f 200/198/25 198/196/23 199/197/24
f 199/197/24 201/199/26 200/198/25
f 202/200/27 200/198/25 201/199/26
f 201/199/26 203/201/28 202/200/27
f 204/202/29 202/200/27 203/201/28
f 203/201/28 205/203/30 204/202/29
f 206/204/31 204/202/29 205/203/30
f 205/203/30 207/205/32 206/204/31
f 208/206/33 206/204/31 207/205/32
f 207/205/32 209/207/34 208/206/33
f 210/208/35 208/206/33 209/207/34
f 209/207/34 211/209/36 210/208/35
f 212/210/37 210/208/35 211/209/36
f 211/209/36 213/211/38 212/210/37
f 214/212/39 212/210/37 213/211/38
f 213/211/38 215/213/40 214/212/39
f 216/214/41 214/212/39 215/213/40
f 215/213/40 217/215/42 216/214/41
f 218/216/43 216/214/41 217/215/42
f 217/215/42 219/217/44 218/216/43
f 220/218/45 218/216/43 219/217/44
f 219/217/44 221/219/46 220/218/45
f 222/220/47 220/218/45 221/219/46
f 221/219/46 223/221/48 222/220/47
f 224/222/49 222/220/47 223/221/48
f 223/221/48 225/223/50 224/222/49
f 226/224/103 224/222/49 225/223/50
f 225/223/50 227/225/52 226/224/103
f 228/226/53 226/224/103 227/225/52
f 227/225/52 229/227/54 228/226/53
f 230/228/55 228/226/53 229/227/54
f 229/227/54 231/229/56 230/228/55
f 232/230/104 230/228/55 231/229/56
f 231/229/56 233/231/58 232/230/104
f 234/232/59 232/230/104 233/231/58
f 233/231/58 235/233/105 234/232/59
f 236/234/61 234/232/59 235/233/105
f 235/233/105 237/235/62 236/234/61
f 238/236/63 236/234/61 237/235/62
f 237/235/62 239/237/64 238/236/63
f 240/238/65 238/236/63 239/237/64
f 239/237/64 241/239/66 240/238/65
f 242/240/67 240/238/65 241/239/66
f 241/239/66 243/241/68 242/240/67
f 244/242/106 242/240/67 243/241/68
f 243/241/68 245/243/70 244/242/106
f 246/244/71 244/242/106 245/243/70
f 245/243/70 247/245/72 246/244/71
f 248/246/73 246/244/71 247/245/72
f 247/245/72 249/247/74 248/246/73
f 250/248/75 248/246/73 249/247/74
f 249/247/74 251/249/107 250/248/75
f 252/250/77 250/248/75 251/249/107
f 251/249/107 253/251/78 252/250/77
f 254/252/79 252/250/77 253/251/78
f 253/251/78 255/253/80 254/252/79
f 256/254/81 254/252/79 255/253/80
f 255/253/80 257/255/82 256/254/81
f 258/256/83 256/254/81 257/255/82
f 257/255/82 259/257/108 258/256/83
f 260/258/85 258/256/83 259/257/108
f 259/257/108 261/259/86 260/258/85
f 262/260/87 260/258/85 261/259/86
f 261/259/86 263/261/88 262/260/87
f 264/262/89 262/260/87 263/261/88
f 263/261/88 265/263/90 264/262/89
f 266/264/91 264/262/89 265/263/90
f 265/263/90 267/265/92 266/264/91
f 268/266/109 266/264/91 267/265/92
f 267/265/92 269/267/94 268/266/109
f 270/268/95 268/266/109 269/267/94
f 269/267/94 271/269/96 270/268/95
f 272/270/97 270/268/95 271/269/96
f 271/269/96 273/271/98 272/270/97
f 274/272/99 272/270/97 273/271/98
f 273/271/98 275/273/100 274/272/99
f 276/274/101 274/272/99 275/273/100
f 275/273/100 277/275/102 276/274/101
f 183/181/8 276/274/101 277/275/102
f 277/275/102 184/182/9 183/181/8
f 280/276/1 279/277/1 278/278/1
f 280/276/1 278/278/1 281/279/1
f 280/276/1 281/279/1 282/280/1
f 280/276/1 282/280/1 283/281/1
f 280/276/1 283/281/1 284/282/1
f 280/276/1 284/282/1 285/283/1
f 280/276/1 285/283/1 286/284/1
f 280/276/1 286/284/1 287/285/1
f 280/276/1 287/285/1 288/286/1
f 280/276/1 288/286/1 289/287/1
f 280/276/1 289/287/1 290/288/1
f 280/276/1 290/288/1 291/289/1
f 280/276/1 291/289/1 292/290/1
f 280/276/1 292/290/1 293/291/1
f 280/276/1 293/291/1 294/292/1
f 280/276/1 294/292/1 295/293/1
f 280/276/1 295/293/1 296/294/1
f 280/276/1 296/294/1 297/295/1
f 280/276/1 297/295/1 298/296/1
f 280/276/1 298/296/1 299/297/1
f 280/276/1 299/297/1 300/298/1
f 280/276/1 300/298/1 301/299/1
f 280/276/1 301/299/1 302/300/1
f 280/276/1 302/300/1 303/301/1
f 280/276/1 303/301/1 304/302/1
f 280/276/1 304/302/1 305/303/1
f 280/276/1 305/303/1 306/304/1
f 280/276/1 306/304/1 307/305/1
f 280/276/1 307/305/1 308/306/1
f 280/276/1 308/306/1 309/307/1
f 280/276/1 309/307/1 310/308/1
f 280/276/1 310/308/1 311/309/1
f 280/276/1 311/309/1 312/310/1
f 280/276/1 312/310/1 313/311/1
f 280/276/1 313/311/1 314/312/1
f 280/276/1 314/312/1 315/313/1
f 280/276/1 315/313/1 316/314/1
f 280/276/1 316/314/1 317/315/1
f 280/276/1 317/315/1 318/316/1
f 280/276/1 318/316/1 319/317/1
f 280/276/1 319/317/1 320/318/1
f 280/276/1 320/318/1 321/319/1
f 280/276/1 321/319/1 322/320/1
f 280/276/1 322/320/1 323/321/1
f 280/276/1 323/321/1 324/322/1
f 280/276/1 324/322/1 325/323/1
f 280/276/1 325/323/1 326/324/1
f 280/276/1 326/324/1 279/277/1
f 327/325/7 328/326/8 329/327/9
f 329/327/9 330/328/10 327/325/7
f 331/329/11 327/325/7 330/328/10
f 330/328/10 332/330/12 331/329/11
f 333/331/13 331/329/11 332/330/12
f 332/330/12 334/332/14 333/331/13
f 335/333/15 333/331/13 334/332/14
f 334/332/14 336/334/16 335/333/15
f 337/335/17 335/333/15 336/334/16
f 336/334/16 338/336/18 337/335/17
f 339/337/19 337/335/17 338/336/18
f 338/336/18 340/338/20 339/337/19
f 341/339/21 339/337/19 340/338/20
f 340/338/20 342/340/22 341/339/21
f 343/341/23 341/339/21 342/340/22
f 342/340/22 344/342/24 343/341/23
f 345/343/25 343/341/23 344/342/24
f 344/342/24 346/344/26 345/343/25
f 347/345/27 345/343/25 346/344/26
f 346/344/26 348/346/28 347/345/27
f 349/347/29 347/345/27 348/346/28
f 348/346/28 350/348/30 349/347/29
f 351/349/31 349/347/29 350/348/30
f 350/348/30 352/350/32 351/349/31
f 353/351/33 351/349/31 352/350/32
f 352/350/32 354/352/34 353/351/33
f 355/353/35 353/351/33 354/352/34
f 354/352/34 356/354/110 355/353/35
f 357/355/37 355/353/35 356/354/110
f 356/354/110 358/356/38 357/355/37
f 359/357/39 357/355/37 358/356/38
f 358/356/38 360/358/40 359/357/39
f 361/359/41 359/357/39 360/358/40
f 360/358/40 362/360/42 361/359/41
f 363/361/43 361/359/41 362/360/42
f 362/360/42 364/362/44 363/361/43
f 365/363/45 363/361/43 364/362/44
f 364/362/44 366/364/46 365/363/45
f 367/365/47 365/363/45 366/364/46
f 366/364/46 368/366/48 367/365/47
f 369/367/49 367/365/47 368/366/48
f 368/366/48 370/368/50 369/367/49
f 371/369/103 369/367/49 370/368/50
f 370/368/50 372/370/52 371/369/103
f 373/371/53 371/369/103 372/370/52
f 372/370/52 374/372/111 373/371/53
f 375/373/55 373/371/53 374/372/111
f 374/372/111 376/373/56 375/373/55
f 377/374/104 375/373/55 376/373/56
f 376/373/56 378/375/58 377/374/104
f 379/376/59 377/374/104 378/375/58
f 378/375/58 380/377/105 379/376/59
f 381/378/61 379/376/59 380/377/105
f 380/377/105 382/379/62 381/378/61
f 383/380/63 381/378/61 382/379/62
f 382/379/62 384/381/64 383/380/63
f 385/382/65 383/380/63 384/381/64
f 384/381/64 386/383/66 385/382/65
f 387/384/67 385/382/65 386/383/66
f 386/383/66 388/385/68 387/384/67
f 389/386/69 387/384/67 388/385/68
f 388/385/68 390/387/70 389/386/69
f 391/388/71 389/386/69 390/387/70
f 390/387/70 392/389/72 391/388/71
f 393/390/73 391/388/71 392/389/72
f 392/389/72 394/391/74 393/390/73
f 395/392/75 393/390/73 394/391/74
f 394/391/74 396/393/107 395/392/75
f 397/394/77 395/392/75 396/393/107
f 396/393/107 398/395/78 397/394/77
f 399/396/79 397/394/77 398/395/78
f 398/395/78 400/397/80 399/396/79
f 401/398/81 399/396/79 400/397/80
f 400/397/80 402/399/82 401/398/81
f 403/400/83 401/398/81 402/399/82
f 402/399/82 404/401/84 403/400/83
f 405/402/85 403/400/83 404/401/84
f 404/401/84 406/403/86 405/402/85
f 407/404/87 405/402/85 406/403/86
f 406/403/86 408/405/88 407/404/87
f 409/406/89 407/404/87 408/405/88
f 408/405/88 410/407/90 409/406/89
f 411/408/91 409/406/89 410/407/90
f 410/407/90 412/409/92 411/408/91
f 413/410/93 411/408/91 412/409/92
f 412/409/92 414/411/94 413/410/93
f 415/412/95 413/410/93 414/411/94
f 414/411/94 416/413/96 415/412/95
f 417/414/97 415/412/95 416/413/96
f 416/413/96 418/415/98 417/414/97
f 419/416/112 417/414/97 418/415/98
f 418/415/98 420/417/100 419/416/112
f 421/418/101 419/416/112 420/417/100
f 420/417/100 422/419/113 421/418/101
f 328/326/8 421/418/101 422/419/113
f 422/419/113 329/327/9 328/326/8
f 425/420/1 424/421/1 423/422/1
f 425/420/1 423/422/1 426/423/1
f 425/420/1 426/423/1 427/424/1
f 425/420/1 427/424/1 428/425/1
f 425/420/1 428/425/1 429/426/1
f 425/420/1 429/426/1 430/427/1
f 425/420/1 430/427/1 431/428/1
f 425/420/1 431/428/1 432/429/1
f 425/420/1 432/429/1 433/430/1
f 425/420/1 433/430/1 434/431/1
f 425/420/1 434/431/1 435/432/1
f 425/420/1 435/432/1 436/433/1
f 425/420/1 436/433/1 437/434/1
f 425/420/1 437/434/1 438/435/1
f 425/420/1 438/435/1 439/436/1
f 425/420/1 439/436/1 440/437/1
f 425/420/1 440/437/1 441/438/1
f 425/420/1 441/438/1 442/439/1
f 425/420/1 442/439/1 443/440/1
f 425/420/1 443/440/1 444/441/1
f 425/420/1 444/441/1 445/442/1
f 425/420/1 445/442/1 446/443/1
f 425/420/1 446/443/1 447/444/1
f 425/420/1 447/444/1 448/445/1
f 425/420/1 448/445/1 449/446/1
f 425/420/1 449/446/1 450/447/1
f 425/420/1 450/447/1 451/448/1
f 425/420/1 451/448/1 452/449/1
f 425/420/1 452/449/1 453/450/1
f 425/420/1 453/450/1 454/451/1
f 425/420/1 454/451/1 455/452/1
f 425/420/1 455/452/1 456/453/1
f 425/420/1 456/453/1 457/454/1
f 425/420/1 457/454/1 458/455/1
f 425/420/1 458/455/1 459/456/1
f 425/420/1 459/456/1 460/457/1
f 425/420/1 460/457/1 461/458/1
f 425/420/1 461/458/1 462/459/1
f 425/420/1 462/459/1 463/460/1
f 425/420/1 463/460/1 464/461/1
f 425/420/1 464/461/1 465/462/1
f 425/420/1 465/462/1 466/463/1
f 425/420/1 466/463/1 467/464/1
f 425/420/1 467/464/1 468/465/1
f 425/420/1 468/465/1 469/466/1
f 425/420/1 469/466/1 470/467/1
f 425/420/1 470/467/1 471/468/1
f 425/420/1 471/468/1 424/421/1
f 472/469/114 473/470/8 474/471/9
f 474/471/9 475/472/10 472/469/114
f 476/473/11 472/469/114 475/472/10
f 475/472/10 477/474/12 476/473/11
f 478/475/13 476/473/11 477/474/12
f 477/474/12 479/476/14 478/475/13
f 480/477/15 478/475/13 479/476/14
f 479/476/14 481/478/16 480/477/15
f 482/479/17 480/477/15 481/478/16
f 481/478/16 483/480/18 482/479/17
f 484/481/19 482/479/17 483/480/18
f 483/480/18 485/482/20 484/481/19
f 486/483/21 484/481/19 485/482/20
f 485/482/20 487/484/22 486/483/21
f 488/485/23 486/483/21 487/484/22
f 487/484/22 489/486/24 488/485/23
f 490/487/25 488/485/23 489/486/24
f 489/486/24 491/488/26 490/487/25
f 492/489/27 490/487/25 491/488/26
f 491/488/26 493/490/28 492/489/27
f 494/491/29 492/489/27 493/490/28
f 493/490/28 495/492/30 494/491/29
f 496/493/31 494/491/29 495/492/30
f 495/492/30 497/494/32 496/493/31
f 498/495/33 496/493/31 497/494/32
f 497/494/32 499/496/34 498/495/33
f 500/497/35 498/495/33 499/496/34
f 499/496/34 501/498/36 500/497/35
f 502/499/37 500/497/35 501/498/36
f 501/498/36 503/500/38 502/499/37
f 504/501/39 502/499/37 503/500/38
f 503/500/38 505/502/40 504/501/39
f 506/503/41 504/501/39 505/502/40
f 505/502/40 507/504/42 506/503/41
f 508/505/43 506/503/41 507/504/42
f 507/504/42 509/506/44 508/505/43
f 510/507/45 508/505/43 509/506/44
f 509/506/44 511/508/46 510/507/45
f 512/509/47 510/507/45 511/508/46
f 511/508/46 513/510/48 512/509/47
f 514/511/49 512/509/47 513/510/48
f 513/510/48 515/512/50 514/511/49
f 516/513/51 514/511/49 515/512/50
f 515/512/50 517/514/52 516/513/51
f 518/515/53 516/513/51 517/514/52
f 517/514/52 519/516/54 518/515/53
f 520/517/55 518/515/53 519/516/54
f 519/516/54 521/518/56 520/517/55
f 522/519/104 520/517/55 521/518/56
f 521/518/56 523/520/58 522/519/104
f 524/521/59 522/519/104 523/520/58
f 523/520/58 525/522/105 524/521/59
f 526/523/61 524/521/59 525/522/105
f 525/522/105 527/524/62 526/523/61
f 528/525/63 526/523/61 527/524/62
f 527/524/62 529/526/64 528/525/63
f 530/527/65 528/525/63 529/526/64
f 529/526/64 531/528/66 530/527/65
f 532/529/67 530/527/65 531/528/66
f 531/528/66 533/530/68 532/529/67
f 534/531/106 532/529/67 533/530/68
f 533/530/68 535/532/70 534/531/106
f 536/533/71 534/531/106 535/532/70
f 535/532/70 537/534/72 536/533/71
f 538/535/73 536/533/71 537/534/72
f 537/534/72 539/536/74 538/535/73
f 540/537/75 538/535/73 539/536/74
f 539/536/74 541/538/107 540/537/75
f 542/539/77 540/537/75 541/538/107
f 541/538/107 543/540/78 542/539/77
f 544/541/79 542/539/77 543/540/78
f 543/540/78 545/542/80 544/541/79
f 546/543/81 544/541/79 545/542/80
f 545/542/80 547/544/82 546/543/81
f 548/545/83 546/543/81 547/544/82
f 547/544/82 549/546/84 548/545/83
f 550/547/85 548/545/83 549/546/84
f 549/546/84 551/548/86 550/547/85
f 552/549/87 550/547/85 551/548/86
f 551/548/86 553/550/88 552/549/87
f 554/551/89 552/549/87 553/550/88
f 553/550/88 555/552/90 554/551/89
f 556/553/91 554/551/89 555/552/90
f 555/552/90 557/554/92 556/553/91
f 558/555/109 556/553/91 557/554/92
f 557/554/92 559/556/94 558/555/109
f 560/557/95 558/555/109 559/556/94
f 559/556/94 561/558/96 560/557/95
f 562/559/97 560/557/95 561/558/96
f 561/558/96 563/560/98 562/559/97
f 564/561/112 562/559/97 563/560/98
f 563/560/98 565/562/100 564/561/112
f 566/563/101 564/561/112 565/562/100
f 565/562/100 567/564/102 566/563/101
f 473/470/8 566/563/101 567/564/102
f 567/564/102 474/471/9 473/470/8
f 570/565/1 569/566/1 568/567/1
f 570/565/1 568/567/1 571/568/1
f 570/565/1 571/568/1 572/569/1
f 570/565/1 572/569/1 573/570/1
f 570/565/1 573/570/1 574/571/1
f 570/565/1 574/571/1 575/572/1
f 570/565/1 575/572/1 576/573/1
f 570/565/1 576/573/1 577/574/1
f 570/565/1 577/574/1 578/575/1
f 570/565/1 578/575/1 579/576/1
f 570/565/1 579/576/1 580/577/1
f 570/565/1 580/577/1 581/578/1
f 570/565/1 581/578/1 582/579/1
f 570/565/1 582/579/1 583/580/1
f 570/565/1 583/580/1 584/581/1
f 570/565/1 584/581/1 585/582/1
f 570/565/1 585/582/1 586/583/1
f 570/565/1 586/583/1 587/584/1
f 570/565/1 587/584/1 588/585/1
f 570/565/1 588/585/1 589/586/1
f 570/565/1 589/586/1 590/587/1
f 570/565/1 590/587/1 591/588/1
f 570/565/1 591/588/1 592/589/1
f 570/565/1 592/589/1 593/590/1
f 570/565/1 593/590/1 594/591/1
f 570/565/1 594/591/1 595/592/1
f 570/565/1 595/592/1 596/593/1
f 570/565/1 596/593/1 597/594/1
f 570/565/1 597/594/1 598/595/1
f 570/565/1 598/595/1 599/596/1
f 570/565/1 599/596/1 600/597/1
f 570/565/1 600/597/1 601/598/1
f 570/565/1 601/598/1 602/599/1
f 570/565/1 602/599/1 603/600/1
f 570/565/1 603/600/1 604/601/1
f 570/565/1 604/601/1 605/602/1
f 570/565/1 605/602/1 606/603/1
f 570/565/1 606/603/1 607/604/1
f 570/565/1 607/604/1 608/605/1
f 570/565/1 608/605/1 609/606/1
f 570/565/1 609/606/1 610/607/1
f 570/565/1 610/607/1 611/608/1
f 570/565/1 611/608/1 612/609/1
f 570/565/1 612/609/1 613/610/1
f 570/565/1 613/610/1 614/611/1
f 570/565/1 614/611/1 615/612/1
f 570/565/1 615/612/1 616/613/1
f 570/565/1 616/613/1 569/566/1
f 617/614/5 618/615/5 619/616/5
f 620/617/5 617/614/5 619/616/5
f 621/618/5 620/617/5 619/616/5
f 622/619/5 621/618/5 619/616/5
f 623/620/5 622/619/5 619/616/5
f 624/621/5 623/620/5 619/616/5
f 625/622/5 624/621/5 619/616/5
f 626/623/5 625/622/5 619/616/5
f 627/624/5 626/623/5 619/616/5
f 628/625/5 627/624/5 619/616/5
f 629/626/5 628/625/5 619/616/5
f 630/627/5 629/626/5 619/616/5
f 631/628/5 630/627/5 619/616/5
f 632/629/5 631/628/5 619/616/5
f 633/630/5 632/629/5 619/616/5
f 634/631/5 633/630/5 619/616/5
f 635/632/5 634/631/5 619/616/5
f 636/633/5 635/632/5 619/616/5
f 637/634/5 636/633/5 619/616/5
f 638/635/5 637/634/5 619/616/5
f 639/636/5 638/635/5 619/616/5
f 640/637/5 639/636/5 619/616/5
f 641/638/5 640/637/5 619/616/5
f 642/639/5 641/638/5 619/616/5
f 643/640/5 642/639/5 619/616/5
f 644/641/5 643/640/5 619/616/5
f 645/642/5 644/641/5 619/616/5
f 646/643/5 645/642/5 619/616/5
f 647/644/5 646/643/5 619/616/5
f 648/645/5 647/644/5 619/616/5
f 649/646/5 648/645/5 619/616/5
f 650/647/5 649/646/5 619/616/5
f 651/648/5 650/647/5 619/616/5
f 652/649/5 651/648/5 619/616/5
f 653/650/5 652/649/5 619/616/5
f 654/651/5 653/650/5 619/616/5
f 655/652/5 654/651/5 619/616/5
f 656/653/5 655/652/5 619/616/5
f 657/654/5 656/653/5 619/616/5
f 658/655/5 657/654/5 619/616/5
f 659/656/5 658/655/5 619/616/5
f 660/657/5 659/656/5 619/616/5
f 661/658/5 660/657/5 619/616/5
f 662/659/5 661/658/5 619/616/5
f 663/660/5 662/659/5 619/616/5
f 664/661/5 663/660/5 619/616/5
f 665/662/5 664/661/5 619/616/5
f 618/615/5 665/662/5 619/616/5
f 666/663/114 667/664/115 668/665/116
f 668/665/116 669/666/10 666/663/114
f 670/667/117 666/663/114 669/666/10
f 669/666/10 671/668/118 670/667/117
f 672/669/13 670/667/117 671/668/118
f 671/668/118 673/670/14 672/669/13
f 674/671/15 672/669/13 673/670/14
f 673/670/14 675/672/119 674/671/15
f 676/673/17 674/671/15 675/672/119
f 675/672/119 677/674/120 676/673/17
f 678/675/121 676/673/17 677/674/120
f 677/674/120 679/676/122 678/675/121
f 680/677/123 678/675/121 679/676/122
f 679/676/122 681/678/22 680/677/123
f 682/679/124 680/677/123 681/678/22
f 681/678/22 683/680/24 682/679/124
f 684/681/25 682/679/124 683/680/24
f 683/680/24 685/682/26 684/681/25
f 686/683/125 684/681/25 685/682/26
f 685/682/26 687/684/126 686/683/125
f 688/685/29 686/683/125 687/684/126
f 687/684/126 689/686/30 688/685/29
f 690/687/31 688/685/29 689/686/30
f 689/686/30 691/688/127 690/687/31
f 692/689/33 690/687/31 691/688/127
f 691/688/127 693/690/34 692/689/33
f 694/691/128 692/689/33 693/690/34
f 693/690/34 695/692/110 694/691/128
f 696/693/37 694/691/128 695/692/110
f 695/692/110 697/694/38 696/693/37
f 698/695/39 696/693/37 697/694/38
f 697/694/38 699/696/129 698/695/39
f 700/697/41 698/695/39 699/696/129
f 699/696/129 701/698/130 700/697/41
f 702/699/131 700/697/41 701/698/130
f 701/698/130 703/699/132 702/699/131
f 704/700/133 702/699/131 703/699/132
f 703/699/132 705/701/46 704/700/133
f 706/702/134 704/700/133 705/701/46
f 705/701/46 707/703/48 706/702/134
f 708/704/49 706/702/134 707/703/48
f 707/703/48 709/705/50 708/704/49
f 710/706/51 708/704/49 709/705/50
f 709/705/50 711/707/135 710/706/51
f 712/708/136 710/706/51 711/707/135
f 711/707/135 713/709/54 712/708/136
f 714/710/137 712/708/136 713/709/54
f 713/709/54 715/711/138 714/710/137
f 716/712/57 714/710/137 715/711/138
f 715/711/138 717/713/58 716/712/57
f 718/684/139 716/712/57 717/713/58
f 717/713/58 719/714/60 718/684/139
f 720/682/61 718/684/139 719/714/60
f 719/714/60 721/715/62 720/682/61
f 722/680/63 720/682/61 721/715/62
f 721/715/62 723/716/140 722/680/63
f 724/678/65 722/680/63 723/716/140
f 723/716/140 725/717/141 724/678/65
f 726/676/67 724/678/65 725/717/141
f 725/717/141 727/718/142 726/676/67
f 728/719/69 726/676/67 727/718/142
f 727/718/142 729/720/70 728/719/69
f 730/721/71 728/719/69 729/720/70
f 729/720/70 731/722/72 730/721/71
f 732/723/73 730/721/71 731/722/72
f 731/722/72 733/724/74 732/723/73
f 734/668/143 732/723/73 733/724/74
f 733/724/74 735/725/76 734/668/143
f 736/726/77 734/668/143 735/725/76
f 735/725/76 737/727/78 736/726/77
f 738/665/79 736/726/77 737/727/78
f 737/727/78 739/728/144 738/665/79
f 740/729/81 738/665/79 739/728/144
f 739/728/144 741/730/82 740/729/81
f 742/731/145 740/729/81 741/730/82
f 741/730/82 743/732/108 742/731/145
f 744/733/85 742/731/145 743/732/108
f 743/732/108 745/734/86 744/733/85
f 746/735/87 744/733/85 745/734/86
f 745/734/86 747/736/146 746/735/87
f 748/737/89 746/735/87 747/736/146
f 747/736/146 749/738/147 748/737/89
f 750/739/91 748/737/89 749/738/147
f 749/738/147 751/739/148 750/739/91
f 752/740/93 750/739/91 751/739/148
f 751/739/148 753/741/94 752/740/93
f 754/742/149 752/740/93 753/741/94
f 753/741/94 755/743/96 754/742/149
f 756/744/97 754/742/149 755/743/96
f 755/743/96 757/745/98 756/744/97
f 758/746/112 756/744/97 757/745/98
f 757/745/98 759/731/150 758/746/112
f 760/747/101 758/746/112 759/731/150
f 759/731/150 761/748/102 760/747/101
f 667/664/115 760/747/101 761/748/102
f 761/748/102 668/665/116 667/664/115
f 762/749/5 763/750/5 764/751/5
f 765/752/5 762/749/5 764/751/5
f 766/753/5 765/752/5 764/751/5
f 767/754/5 766/753/5 764/751/5
f 768/755/5 767/754/5 764/751/5
f 769/756/5 768/755/5 764/751/5
f 770/757/5 769/756/5 764/751/5
f 771/758/5 770/757/5 764/751/5
f 772/759/5 771/758/5 764/751/5
f 773/760/5 772/759/5 764/751/5
f 774/761/5 773/760/5 764/751/5
f 775/517/5 774/761/5 764/751/5
f 776/762/5 775/517/5 764/751/5
f 777/763/5 776/762/5 764/751/5
f 778/764/5 777/763/5 764/751/5
f 779/765/5 778/764/5 764/751/5
f 780/766/5 779/765/5 764/751/5
f 781/767/5 780/766/5 764/751/5
f 782/768/5 781/767/5 764/751/5
f 783/769/5 782/768/5 764/751/5
f 784/770/5 783/769/5 764/751/5
f 785/771/5 784/770/5 764/751/5
f 786/772/5 785/771/5 764/751/5
f 787/773/5 786/772/5 764/751/5
f 788/774/5 787/773/5 764/751/5
f 789/775/5 788/774/5 764/751/5
f 790/776/5 789/775/5 764/751/5
f 791/777/5 790/776/5 764/751/5
f 792/778/5 791/777/5 764/751/5
f 793/779/5 792/778/5 764/751/5
f 794/780/5 793/779/5 764/751/5
f 795/781/5 794/780/5 764/751/5
f 796/782/5 795/781/5 764/751/5
f 797/783/5 796/782/5 764/751/5
f 798/784/5 797/783/5 764/751/5
f 799/785/5 798/784/5 764/751/5
f 800/786/5 799/785/5 764/751/5
f 801/787/5 800/786/5 764/751/5
f 802/788/5 801/787/5 764/751/5
f 803/789/5 802/788/5 764/751/5
f 804/790/5 803/789/5 764/751/5
f 805/791/5 804/790/5 764/751/5
f 806/792/5 805/791/5 764/751/5
f 807/793/5 806/792/5 764/751/5
f 808/794/5 807/793/5 764/751/5
f 809/795/5 808/794/5 764/751/5
f 810/796/5 809/795/5 764/751/5
f 763/750/5 810/796/5 764/751/5
f 811/797/114 812/798/8 813/651/116
f 813/651/116 814/799/10 811/797/114
f 815/800/117 811/797/114 814/799/10
f 814/799/10 816/801/118 815/800/117
f 817/802/13 815/800/117 816/801/118
f 816/801/118 818/803/14 817/802/13
f 819/804/15 817/802/13 818/803/14
f 818/803/14 820/805/151 819/804/15
f 821/806/17 819/804/15 820/805/151
f 820/805/151 822/807/120 821/806/17
f 823/808/121 821/806/17 822/807/120
f 822/807/120 824/809/122 823/808/121
f 825/810/123 823/808/121 824/809/122
f 824/809/122 826/811/22 825/810/123
f 827/812/124 825/810/123 826/811/22
f 826/811/22 828/813/24 827/812/124
f 829/814/25 827/812/124 828/813/24
f 828/813/24 830/815/26 829/814/25
f 831/816/125 829/814/25 830/815/26
f 830/815/26 832/817/126 831/816/125
f 833/818/29 831/816/125 832/817/126
f 832/817/126 834/819/30 833/818/29
f 835/820/31 833/818/29 834/819/30
f 834/819/30 836/821/127 835/820/31
f 837/822/33 835/820/31 836/821/127
f 836/821/127 838/823/34 837/822/33
f 839/824/128 837/822/33 838/823/34
f 838/823/34 840/825/110 839/824/128
f 841/826/37 839/824/128 840/825/110
f 840/825/110 842/827/38 841/826/37
f 843/828/39 841/826/37 842/827/38
f 842/827/38 844/829/152 843/828/39
f 845/830/41 843/828/39 844/829/152
f 844/829/152 846/831/130 845/830/41
f 847/832/131 845/830/41 846/831/130
f 846/831/130 848/833/132 847/832/131
f 849/830/133 847/832/131 848/833/132
f 848/833/132 850/831/46 849/830/133
f 851/828/134 849/830/133 850/831/46
f 850/831/46 852/829/48 851/828/134
f 853/826/49 851/828/134 852/829/48
f 852/829/48 854/827/50 853/826/49
f 855/824/51 853/826/49 854/827/50
f 854/827/50 856/825/135 855/824/51
f 857/822/53 855/824/51 856/825/135
f 856/825/135 858/823/54 857/822/53
f 859/834/137 857/822/53 858/823/54
f 858/823/54 860/835/138 859/834/137
f 861/818/57 859/834/137 860/835/138
f 860/835/138 862/819/58 861/818/57
f 863/816/139 861/818/57 862/819/58
f 862/819/58 864/817/60 863/816/139
f 865/814/61 863/816/139 864/817/60
f 864/817/60 866/815/62 865/814/61
f 867/812/63 865/814/61 866/815/62
f 866/815/62 868/813/64 867/812/63
f 869/810/65 867/812/63 868/813/64
f 868/813/64 870/811/141 869/810/65
f 871/808/153 869/810/65 870/811/141
f 870/811/141 872/809/142 871/808/153
f 873/806/69 871/808/153 872/809/142
f 872/809/142 874/807/70 873/806/69
f 875/804/154 873/806/69 874/807/70
f 874/807/70 876/805/72 875/804/154
f 877/802/73 875/804/154 876/805/72
f 876/805/72 878/803/74 877/802/73
f 879/800/143 877/802/73 878/803/74
f 878/803/74 880/801/76 879/800/143
f 881/797/155 879/800/143 880/801/76
f 880/801/76 882/799/156 881/797/155
f 883/798/79 881/797/155 882/799/156
f 882/799/156 884/651/144 883/798/79
f 885/836/157 883/798/79 884/651/144
f 884/651/144 886/837/158 885/836/157
f 887/838/145 885/836/157 886/837/158
f 886/837/158 888/839/108 887/838/145
f 889/840/85 887/838/145 888/839/108
f 888/839/108 890/841/86 889/840/85
f 891/842/87 889/840/85 890/841/86
f 890/841/86 892/843/146 891/842/87
f 893/844/89 891/842/87 892/843/146
f 892/843/146 894/845/147 893/844/89
f 895/846/159 893/844/89 894/845/147
f 894/845/147 896/847/148 895/846/159
f 897/844/93 895/846/159 896/847/148
f 896/847/148 898/845/94 897/844/93
f 899/842/149 897/844/93 898/845/94
f 898/845/94 900/843/96 899/842/149
f 901/840/97 899/842/149 900/843/96
f 900/843/96 902/841/98 901/840/97
f 903/838/112 901/840/97 902/841/98
f 902/841/98 904/839/150 903/838/112
f 905/836/101 903/838/112 904/839/150
f 904/839/150 906/837/102 905/836/101
f 812/798/8 905/836/101 906/837/102
f 906/837/102 813/651/116 812/798/8
f 907/848/5 908/849/5 909/850/5
f 910/851/5 907/848/5 909/850/5
f 911/852/5 910/851/5 909/850/5
f 912/853/5 911/852/5 909/850/5
f 913/854/5 912/853/5 909/850/5
f 914/855/5 913/854/5 909/850/5
f 915/856/5 914/855/5 909/850/5
f 916/857/5 915/856/5 909/850/5
f 917/858/5 916/857/5 909/850/5
f 918/859/5 917/858/5 909/850/5
f 919/860/5 918/859/5 909/850/5
f 920/861/5 919/860/5 909/850/5
f 921/862/5 920/861/5 909/850/5
f 922/863/5 921/862/5 909/850/5
f 923/864/5 922/863/5 909/850/5
f 924/865/5 923/864/5 909/850/5
f 925/866/5 924/865/5 909/850/5
f 926/867/5 925/866/5 909/850/5
f 927/868/5 926/867/5 909/850/5
f 928/869/5 927/868/5 909/850/5
f 929/870/5 928/869/5 909/850/5
f 930/871/5 929/870/5 909/850/5
f 931/872/5 930/871/5 909/850/5
f 932/873/5 931/872/5 909/850/5
f 933/874/5 932/873/5 909/850/5
f 934/875/5 933/874/5 909/850/5
f 935/876/5 934/875/5 909/850/5
f 936/877/5 935/876/5 909/850/5
f 937/878/5 936/877/5 909/850/5
f 938/879/5 937/878/5 909/850/5
f 939/880/5 938/879/5 909/850/5
f 940/881/5 939/880/5 909/850/5
f 941/882/5 940/881/5 909/850/5
f 942/883/5 941/882/5 909/850/5
f 943/884/5 942/883/5 909/850/5
f 944/885/5 943/884/5 909/850/5
f 945/886/5 944/885/5 909/850/5
f 946/887/5 945/886/5 909/850/5
f 947/888/5 946/887/5 909/850/5
f 948/889/5 947/888/5 909/850/5
f 949/890/5 948/889/5 909/850/5
f 950/891/5 949/890/5 909/850/5
f 951/892/5 950/891/5 909/850/5
f 952/893/5 951/892/5 909/850/5
f 953/894/5 952/893/5 909/850/5
f 954/895/5 953/894/5 909/850/5
f 955/896/5 954/895/5 909/850/5
f 908/849/5 955/896/5 909/850/5
f 956/897/114 957/785/115 958/898/116
f 958/898/116 959/899/10 956/897/114
f 960/900/117 956/897/114 959/899/10
f 959/899/10 961/901/118 960/900/117
f 962/902/13 960/900/117 961/901/118
f 961/901/118 963/903/14 962/902/13
f 964/904/15 962/902/13 963/903/14
f 963/903/14 965/905/119 964/904/15
f 966/906/17 964/904/15 965/905/119
f 965/905/119 967/907/120 966/906/17
f 968/908/19 966/906/17 967/907/120
f 967/907/120 969/909/122 968/908/19
f 970/910/123 968/908/19 969/909/122
f 969/909/122 971/911/22 970/910/123
f 972/912/124 970/910/123 971/911/22
f 971/911/22 973/913/24 972/912/124
f 974/914/25 972/912/124 973/913/24
f 973/913/24 975/915/26 974/914/25
f 976/916/125 974/914/25 975/915/26
f 975/915/26 977/917/126 976/916/125
f 978/918/29 976/916/125 977/917/126
f 977/917/126 979/919/30 978/918/29
f 980/920/31 978/918/29 979/919/30
f 979/919/30 981/921/127 980/920/31
f 982/922/33 980/920/31 981/921/127
f 981/921/127 983/923/34 982/922/33
f 984/924/128 982/922/33 983/923/34
f 983/923/34 985/925/110 984/924/128
f 986/926/37 984/924/128 985/925/110
f 985/925/110 987/927/38 986/926/37
f 988/928/39 986/926/37 987/927/38
f 987/927/38 989/929/129 988/928/39
f 990/930/41 988/928/39 989/929/129
f 989/929/129 991/931/130 990/930/41
f 992/932/131 990/930/41 991/931/130
f 991/931/130 993/933/132 992/932/131
f 994/931/133 992/932/131 993/933/132
f 993/933/132 995/934/46 994/931/133
f 996/929/134 994/931/133 995/934/46
f 995/934/46 997/935/48 996/929/134
f 998/927/49 996/929/134 997/935/48
f 997/935/48 999/936/50 998/927/49
f 1000/925/51 998/927/49 999/936/50
f 999/936/50 1001/937/135 1000/925/51
f 1002/923/53 1000/925/51 1001/937/135
f 1001/937/135 1003/938/54 1002/923/53
f 1004/921/137 1002/923/53 1003/938/54
f 1003/938/54 1005/920/138 1004/921/137
f 1006/939/57 1004/921/137 1005/920/138
f 1005/920/138 1007/918/58 1006/939/57
f 1008/940/139 1006/939/57 1007/918/58
f 1007/918/58 1009/916/60 1008/940/139
f 1010/941/61 1008/940/139 1009/916/60
f 1009/916/60 1011/914/62 1010/941/61
f 1012/942/63 1010/941/61 1011/914/62
f 1011/914/62 1013/912/140 1012/942/63
f 1014/943/65 1012/942/63 1013/912/140
f 1013/912/140 1015/910/141 1014/943/65
f 1016/944/67 1014/943/65 1015/910/141
f 1015/910/141 1017/908/68 1016/944/67
f 1018/945/69 1016/944/67 1017/908/68
f 1017/908/68 1019/906/70 1018/945/69
f 1020/946/154 1018/945/69 1019/906/70
f 1019/906/70 1021/904/72 1020/946/154
f 1022/947/73 1020/946/154 1021/904/72
f 1021/904/72 1023/902/74 1022/947/73
f 1024/948/143 1022/947/73 1023/902/74
f 1023/902/74 1025/900/76 1024/948/143
f 1026/949/155 1024/948/143 1025/900/76
f 1025/900/76 1027/897/156 1026/949/155
f 1028/950/160 1026/949/155 1027/897/156
f 1027/897/156 1029/785/144 1028/950/160
f 1030/951/157 1028/950/160 1029/785/144
f 1029/785/144 1031/952/158 1030/951/157
f 1032/953/145 1030/951/157 1031/952/158
f 1031/952/158 1033/954/108 1032/953/145
f 1034/955/85 1032/953/145 1033/954/108
f 1033/954/108 1035/956/86 1034/955/85
f 1036/957/87 1034/955/85 1035/956/86
f 1035/956/86 1037/958/146 1036/957/87
f 1038/959/89 1036/957/87 1037/958/146
f 1037/958/146 1039/960/147 1038/959/89
f 1040/961/91 1038/959/89 1039/960/147
f 1039/960/147 1041/962/148 1040/961/91
f 1042/960/93 1040/961/91 1041/962/148
f 1041/962/148 1043/963/94 1042/960/93
f 1044/958/149 1042/960/93 1043/963/94
f 1043/963/94 1045/964/96 1044/958/149
f 1046/956/97 1044/958/149 1045/964/96
f 1045/964/96 1047/965/98 1046/956/97
f 1048/954/112 1046/956/97 1047/965/98
f 1047/965/98 1049/966/150 1048/954/112
f 1050/952/101 1048/954/112 1049/966/150
f 1049/966/150 1051/967/102 1050/952/101
f 957/785/115 1050/952/101 1051/967/102
f 1051/967/102 958/898/116 957/785/115
f 1054/968/5 1053/969/5 1052/970/5
f 1052/970/5 1055/971/5 1054/968/5
f 1056/972/5 1055/971/5 1052/970/5
f 1052/970/5 1057/973/5 1056/972/5
f 1059/974/5 1058/975/5 1053/969/5
f 1053/969/5 1054/968/5 1059/974/5
f 1059/974/5 1056/972/5 1057/973/5
f 1057/973/5 1058/975/5 1059/974/5
f 1062/976/6 1061/977/6 1060/30/6
f 1060/30/6 1063/978/6 1062/976/6
