# Blender 4.5.2 LTS
# www.blender.org
mtllib friends_assessories_flower_with_7_thin_petals_and_pin_medium_la.mtl
o friends_assessories_flower_with_7_thin_petals_and_pin_medium_la
v -2.860993 1.000020 7.068003
v 2.859007 1.000020 6.935997
v 2.746006 1.000019 5.702998
v -2.745994 1.000019 5.703002
v 1.682003 1.000017 3.493999
v -1.681997 1.000017 3.494002
v -2.617990 1.000022 9.506002
v 2.659009 1.000021 9.274998
v -1.753988 1.000024 12.132000
v 1.710012 1.000024 12.187000
v -0.213987 1.000026 13.349000
v 0.362013 1.000026 13.338000
v -0.823987 1.000025 13.165000
v 2.860007 2.000020 6.983996
v 2.746006 2.000019 5.702997
v 2.746006 1.000019 5.702998
v 2.859007 1.000020 6.935997
v 2.218006 3.612018 6.059996
v 1.903004 3.142016 3.950996
v 2.860007 2.000020 6.983995
v 2.746006 2.000019 5.702997
v -0.126987 2.000026 13.365999
v -0.213987 1.000026 13.349000
v -0.823987 1.000025 13.165000
v -0.725987 2.000025 13.214999
v -2.222994 3.609018 6.073999
v -2.859993 2.000020 6.984002
v -2.745994 2.000019 5.703001
v -1.902996 3.142016 3.950999
v -2.138991 3.548021 9.374999
v -2.632991 2.000021 9.416000
v -1.419988 3.028025 12.113999
v -1.709988 2.000024 12.181999
v -1.419988 3.028025 12.113999
v -0.442987 2.321025 13.286999
v -0.725987 2.000025 13.214999
v -0.001994 4.607018 6.053996
v -2.222994 3.609018 6.073999
v -1.902996 3.142016 3.950999
v -0.001996 3.951015 3.537997
v -0.001991 4.514022 9.356996
v -2.138991 3.548022 9.374999
v -0.001988 3.671024 12.106999
v -1.419988 3.028025 12.113999
v 0.000013 2.522026 13.285999
v -0.442987 2.321025 13.286999
v 0.000013 2.522026 13.285999
v 0.444013 2.322025 13.286999
v 0.495013 2.000025 13.302999
v 0.495013 2.000025 13.302999
v 1.421012 3.032024 12.108999
v 1.710012 2.000024 12.181999
v 0.444013 2.322025 13.286999
v 0.000013 2.522026 13.285999
v -0.001988 3.671024 12.106999
v 1.421012 3.032024 12.108999
v 0.444013 2.322025 13.286999
v 2.138009 3.553020 9.361995
v 1.710012 2.000024 12.181999
v 2.637009 2.000021 9.376996
v 2.138009 3.553020 9.361996
v -0.001991 4.514022 9.356996
v 2.218006 3.612018 6.059996
v -0.001994 4.607018 6.053996
v -0.001996 3.951015 3.537997
v 1.903004 3.142016 3.950996
v 0.000002 3.216014 2.034997
v 0.890002 2.802014 1.850997
v 0.000002 3.216014 2.034997
v -0.891998 2.802014 1.849999
v 2.659009 1.000021 9.274998
v 1.710012 1.000024 12.187000
v 1.710012 1.000024 12.187000
v 0.362013 1.000026 13.338000
v 0.362013 1.000026 13.338000
v -1.753988 1.000024 12.132000
v -0.823987 1.000025 13.165000
v -2.617990 1.000022 9.506002
v -2.860993 1.000020 7.068003
v -2.745994 1.000019 5.703002
v -7.309777 1.000014 2.170018
v -3.640208 1.000020 6.559783
v -2.746667 1.000019 5.702672
v -6.170878 1.000014 1.408864
v -1.683000 1.000017 3.493514
v -3.780423 1.000013 0.863440
v -9.064369 1.000017 3.880074
v -5.593606 1.000021 7.861762
v -10.578760 1.000019 6.192862
v -8.461987 1.000021 8.935410
v -10.570070 1.000021 8.155667
v -10.202340 1.000021 8.599143
v -10.806540 1.000020 7.564029
v -3.677113 2.000020 6.590490
v -2.746667 2.000019 5.702671
v -2.746667 1.000019 5.702672
v -3.640208 1.000020 6.559783
v -3.354984 3.612018 5.512450
v -1.902505 3.142016 3.951231
v -3.677113 2.000020 6.590490
v -2.746667 2.000019 5.702671
v -10.529110 2.000021 8.234283
v -10.570070 1.000021 8.155667
v -10.806540 1.000020 7.564029
v -10.784530 2.000021 7.671822
v -6.134852 3.609015 2.049073
v -7.243480 2.000014 2.118427
v -6.170878 2.000014 1.408864
v -4.275511 3.142014 0.975589
v -8.663298 3.548016 4.172891
v -9.003356 2.000017 3.812232
v -10.356440 3.028019 6.442768
v -10.590410 2.000019 6.258436
v -10.356440 3.028019 6.442768
v -10.664370 2.321021 7.937971
v -10.784530 2.000021 7.671822
v -4.734442 4.607016 3.773045
v -6.134852 3.609015 2.049073
v -4.275511 3.142014 0.975589
v -2.767359 3.951015 2.204344
v -7.316825 4.514018 5.832436
v -8.663298 3.548017 4.172891
v -9.466856 3.671021 7.547038
v -10.356440 3.028019 6.442768
v -10.387390 2.522020 8.283696
v -10.664370 2.321021 7.937971
v -10.387380 2.522020 8.283696
v -10.111340 2.322021 8.631454
v -10.092050 2.000021 8.681301
v -10.092050 2.000021 8.681301
v -8.581191 3.032022 8.660827
v -8.458076 2.000021 8.932291
v -10.111340 2.322021 8.631454
v -10.387390 2.522020 8.283696
v -9.466856 3.671021 7.547038
v -8.581192 3.032022 8.660828
v -10.111340 2.322021 8.631454
v -5.986463 3.553020 7.508669
v -8.458076 2.000021 8.932291
v -5.687069 2.000021 7.908155
v -5.986464 3.553020 7.508669
v -7.316825 4.514018 5.832436
v -3.354984 3.612018 5.512450
v -4.734442 4.607016 3.773045
v -2.767359 3.951015 2.204344
v -1.902505 3.142016 3.951231
v -1.591023 3.216013 1.268801
v -0.892259 2.802014 1.849907
v -1.591023 3.216013 1.268801
v -2.002538 2.802013 0.456064
v -5.593606 1.000021 7.861762
v -8.461987 1.000021 8.935410
v -8.461986 1.000021 8.935410
v -10.202340 1.000021 8.599142
v -10.202340 1.000021 8.599142
v -10.578760 1.000019 6.192862
v -10.806540 1.000020 7.564029
v -9.064369 1.000017 3.880074
v -7.309777 1.000014 2.170018
v -6.170878 1.000014 1.408864
v 3.742176 1.000020 6.643639
v 7.205333 1.000014 2.089267
v 6.170881 1.000014 1.408853
v 2.746679 1.000019 5.702665
v 3.780425 1.000013 0.863432
v 1.683007 1.000017 3.493510
v 5.799787 1.000021 7.973721
v 8.909336 1.000017 3.703974
v 8.391569 1.000021 8.935503
v 10.594340 1.000019 6.261532
v 10.303230 1.000021 8.490270
v 10.653760 1.000021 8.033076
v 9.779045 1.000021 8.852464
v 7.243484 2.000014 2.118412
v 6.170881 2.000014 1.408852
v 6.170881 1.000014 1.408853
v 7.205333 1.000014 2.089267
v 6.120792 3.612014 2.044241
v 4.275513 3.142014 0.975580
v 7.243484 2.000014 2.118412
v 6.170881 2.000014 1.408852
v 10.370760 2.000021 8.432848
v 10.303230 1.000021 8.490270
v 9.779045 1.000021 8.852464
v 9.879238 2.000021 8.807017
v 3.362823 3.609017 5.525081
v 3.677126 2.000020 6.590483
v 2.746679 2.000019 5.702664
v 1.902513 3.142016 3.951227
v 5.996019 3.548020 7.517545
v 5.720070 2.000021 7.929333
v 8.585741 3.028021 8.663145
v 8.458094 2.000021 8.932275
v 8.585741 3.028021 8.663145
v 10.111980 2.321021 8.630651
v 9.879238 2.000021 8.807017
v 4.731956 4.607016 3.776163
v 3.362823 3.609017 5.525081
v 1.902513 3.142016 3.951227
v 2.764870 3.951015 2.207465
v 7.314342 4.514018 5.835548
v 5.996019 3.548020 7.517545
v 9.464376 3.671021 7.550146
v 8.585742 3.028022 8.663146
v 10.387400 2.522020 8.283675
v 10.111980 2.321021 8.630651
v 10.387400 2.522020 8.283675
v 10.665010 2.322021 7.937167
v 10.709320 2.000021 7.907269
v 10.709320 2.000021 7.907269
v 10.353170 3.032020 6.438847
v 10.590430 2.000019 6.258415
v 10.665010 2.322021 7.937167
v 10.387400 2.522020 8.283675
v 9.464376 3.671021 7.550146
v 10.353170 3.032020 6.438848
v 10.665010 2.322021 7.937167
v 8.652517 3.553016 4.165550
v 10.590430 2.000019 6.258415
v 8.975367 2.000017 3.784770
v 8.652518 3.553016 4.165550
v 7.314342 4.514018 5.835548
v 6.120792 3.612014 2.044241
v 4.731956 4.607016 3.776163
v 2.764870 3.951015 2.207465
v 4.275513 3.142014 0.975580
v 1.591025 3.216013 1.268798
v 2.002074 2.802013 0.458248
v 1.591025 3.216013 1.268798
v 0.890234 2.802014 1.850846
v 8.909336 1.000017 3.703974
v 10.594340 1.000019 6.261532
v 10.594340 1.000019 6.261532
v 10.653760 1.000021 8.033075
v 10.653760 1.000021 8.033075
v 8.391569 1.000021 8.935503
v 9.779045 1.000021 8.852464
v 5.799787 1.000021 7.973721
v 3.742176 1.000020 6.643639
v 2.746679 1.000019 5.702665
v 7.527436 1.000013 1.216496
v 6.125925 1.000009 -4.330729
v 4.948982 1.000009 -3.946194
v 6.171067 1.000014 1.408121
v 3.032125 1.000010 -2.417320
v 3.780685 1.000013 0.862344
v 9.850242 1.000013 0.437082
v 8.450790 1.000008 -4.656220
v 12.218150 1.000011 -0.989598
v 11.500960 1.000009 -4.378994
v 13.061960 1.000010 -2.761797
v 12.923060 1.000010 -3.320910
v 13.018310 1.000010 -2.126147
v 6.172500 2.000009 -4.342386
v 4.948982 2.000009 -3.946195
v 4.948982 1.000009 -3.946194
v 6.125925 1.000009 -4.330729
v 5.414523 3.612009 -3.510874
v 3.428490 3.142010 -2.734474
v 6.172499 2.000009 -4.342386
v 4.948982 2.000009 -3.946194
v 13.059170 2.000010 -2.850399
v 13.061960 1.000010 -2.761797
v 13.018310 1.000010 -2.126147
v 13.045250 2.000010 -2.232816
v 6.416388 3.609014 0.815674
v 7.445320 2.000013 1.234212
v 6.171067 2.000014 1.408120
v 4.275405 3.142014 0.976109
v 9.615939 3.548012 -0.000762
v 9.765836 2.000013 0.471732
v 12.126280 3.028011 -1.311221
v 12.257110 2.000011 -1.043621
v 12.126280 3.028011 -1.311221
v 13.052470 2.321010 -2.524744
v 13.045250 2.000010 -2.232816
v 5.902669 4.607011 -1.345196
v 6.416388 3.609014 0.815674
v 4.275405 3.142014 0.976109
v 3.449747 3.951012 -0.785332
v 9.122864 4.514010 -2.080183
v 9.615939 3.548013 -0.000762
v 11.803920 3.671010 -2.692115
v 12.126280 3.028011 -1.311221
v 12.952920 2.522010 -2.956414
v 13.052470 2.321010 -2.524744
v 12.952920 2.522010 -2.956414
v 12.855090 2.322009 -3.389507
v 12.859340 2.000009 -3.442787
v 12.859340 2.000009 -3.442787
v 11.489220 3.032009 -4.079884
v 11.496080 2.000009 -4.377882
v 12.855090 2.322009 -3.389507
v 12.952920 2.522010 -2.956414
v 11.803920 3.671010 -2.692115
v 11.489220 3.032009 -4.079884
v 12.855090 2.322010 -3.389507
v 8.651543 3.553009 -4.167644
v 11.496080 2.000009 -4.377882
v 8.555128 2.000008 -4.657469
v 8.651543 3.553009 -4.167645
v 9.122864 4.514010 -2.080183
v 5.414523 3.612009 -3.510874
v 5.902669 4.607011 -1.345196
v 3.449747 3.951012 -0.785332
v 3.428490 3.142010 -2.734474
v 1.983982 3.216012 -0.452832
v 1.606551 2.802011 -1.279576
v 1.983982 3.216012 -0.452832
v 2.002109 2.802013 0.457972
v 8.450790 1.000008 -4.656220
v 11.500960 1.000009 -4.378994
v 11.500960 1.000009 -4.378994
v 12.923060 1.000010 -3.320910
v 12.923060 1.000010 -3.320910
v 12.218150 1.000011 -0.989598
v 13.018310 1.000010 -2.126147
v 9.850242 1.000013 0.437082
v 7.527436 1.000013 1.216496
v 6.171067 1.000014 1.408121
v -6.254179 1.000009 -4.362041
v -7.398297 1.000013 1.243934
v -6.171064 1.000014 1.408133
v -4.948989 1.000009 -3.946184
v -3.780683 1.000013 0.862351
v -3.032129 1.000010 -2.417315
v -8.685131 1.000008 -4.667634
v -9.634155 1.000013 0.528476
v -11.437560 1.000009 -4.409628
v -12.261980 1.000011 -1.044708
v -12.966720 1.000010 -3.179041
v -13.084170 1.000010 -2.615035
v -12.651600 1.000009 -3.732805
v -7.445317 2.000013 1.234226
v -6.171064 2.000014 1.408131
v -6.171064 1.000014 1.408133
v -7.398297 1.000013 1.243934
v -6.401624 3.612013 0.813927
v -4.275403 3.142014 0.976117
v -7.445317 2.000013 1.234226
v -6.171064 2.000014 1.408131
v -13.002660 2.000010 -3.098006
v -12.966720 1.000010 -3.179041
v -12.651600 1.000009 -3.732805
v -12.722150 2.000009 -3.648388
v -5.427066 3.609009 -3.518853
v -6.172508 2.000009 -4.342373
v -4.948990 2.000009 -3.946186
v -3.428495 3.142010 -2.734467
v -8.664002 3.548009 -4.171494
v -8.594049 2.000008 -4.662231
v -11.494330 3.028008 -4.079998
v -11.496090 2.000009 -4.377859
v -11.494330 3.028008 -4.079998
v -12.855320 2.321009 -3.388505
v -12.722150 2.000009 -3.648388
v -5.901783 4.607011 -1.349084
v -5.427066 3.609009 -3.518853
v -3.428495 3.142010 -2.734467
v -3.448858 3.951012 -0.789225
v -9.121977 4.514010 -2.084064
v -8.664002 3.548009 -4.171494
v -11.803030 3.671010 -2.695991
v -11.494330 3.028008 -4.079998
v -12.952920 2.522010 -2.956388
v -12.855320 2.321009 -3.388505
v -12.952920 2.522010 -2.956388
v -13.052700 2.322010 -2.523742
v -13.079640 2.000010 -2.477581
v -13.079640 2.000010 -2.477581
v -12.121630 3.032011 -1.309109
v -12.257110 2.000011 -1.043597
v -13.052700 2.322010 -2.523742
v -12.952920 2.522010 -2.956388
v -11.803030 3.671010 -2.695991
v -12.121630 3.032011 -1.309109
v -13.052700 2.322010 -2.523742
v -9.603043 3.553013 0.001175
v -12.257110 2.000011 -1.043597
v -9.728703 2.000013 0.484329
v -9.603043 3.553013 0.001175
v -9.121977 4.514010 -2.084064
v -6.401624 3.612013 0.813927
v -5.901783 4.607011 -1.349084
v -3.448858 3.951012 -0.789225
v -4.275403 3.142014 0.976117
v -1.983983 3.216012 -0.452828
v -2.002638 2.802013 0.455804
v -1.983983 3.216012 -0.452828
v -1.605134 2.802011 -1.281300
v -9.634155 1.000013 0.528476
v -12.261980 1.000011 -1.044708
v -12.261980 1.000011 -1.044708
v -13.084170 1.000010 -2.615033
v -13.084170 1.000010 -2.615033
v -11.437560 1.000009 -4.409628
v -12.651600 1.000009 -3.732805
v -8.685131 1.000008 -4.667634
v -6.254179 1.000009 -4.362040
v -4.948989 1.000009 -3.946184
v -0.488996 1.000004 -7.609385
v -5.585270 1.000008 -5.008659
v -4.948485 1.000009 -3.946792
v -0.000360 1.000007 -6.329667
v -3.031411 1.000010 -2.418200
v -0.000549 1.000009 -3.877775
v -1.765733 1.000002 -9.700516
v -6.419923 1.000006 -7.202803
v -3.683542 1.000001 -11.691590
v -6.828365 1.000002 -10.238180
v -5.599068 1.000000 -12.119890
v -6.113255 1.000000 -11.860070
v -4.969644 1.000000 -12.218780
v -5.606997 2.000008 -5.051474
v -4.948485 2.000009 -3.946794
v -4.948485 1.000009 -3.946792
v -5.585270 1.000008 -5.008659
v -4.627668 3.612008 -4.497530
v -3.428808 3.142010 -2.734058
v -5.606997 2.000008 -5.051473
v -4.948485 2.000009 -3.946794
v -5.684828 2.000000 -12.097461
v -5.599068 1.000000 -12.119890
v -4.969644 1.000000 -12.218780
v -5.079632 2.000000 -12.221311
v -0.632537 3.609006 -6.437008
v -0.453451 2.000006 -7.533271
v -0.000361 2.000007 -6.329668
v 0.000282 3.142009 -4.385407
v -2.140460 3.548003 -9.374663
v -1.713170 2.000003 -9.625938
v -3.976656 3.028001 -11.530461
v -3.744879 2.000001 -11.717551
v -3.976656 3.028001 -11.530461
v -5.365846 2.321000 -12.163391
v -5.079632 2.000000 -12.221311
v -2.624913 4.607007 -5.455341
v -0.632537 3.609006 -6.437008
v 0.000282 3.142009 -4.385407
v -1.533269 3.951010 -3.188501
v -4.058022 4.514004 -8.431244
v -2.140460 3.548003 -9.374663
v -5.251194 3.671001 -10.908911
v -3.976656 3.028001 -11.530461
v -5.764542 2.522000 -11.970281
v -5.365846 2.321000 -12.163391
v -5.764541 2.522000 -11.970281
v -6.165006 2.322000 -11.778541
v -6.217897 2.000000 -11.770831
v -6.217897 2.000000 -11.770831
v -6.534142 3.032002 -10.293301
v -6.826195 2.000002 -10.233681
v -6.165006 2.322000 -11.778541
v -5.764542 2.522000 -11.970281
v -5.251194 3.671001 -10.908911
v -6.534142 3.032002 -10.293301
v -6.165006 2.322000 -11.778541
v -5.988266 3.553004 -7.507241
v -6.826195 2.000002 -10.233681
v -6.444357 2.000006 -7.304248
v -5.988266 3.553004 -7.507243
v -4.058022 4.514004 -8.431244
v -4.627668 3.612008 -4.497530
v -2.624913 4.607008 -5.455341
v -1.533269 3.951010 -3.188501
v -3.428808 3.142010 -2.734058
v -0.882948 3.216010 -1.833475
v -1.604976 2.802011 -1.281543
v -0.882948 3.216010 -1.833475
v 0.000985 2.802011 -2.053818
v -6.419923 1.000006 -7.202803
v -6.828365 1.000002 -10.238180
v -6.828364 1.000002 -10.238180
v -6.113254 1.000000 -11.860070
v -6.113254 1.000000 -11.860070
v -3.683542 1.000001 -11.691590
v -4.969644 1.000000 -12.218780
v -1.765733 1.000002 -9.700516
v -0.488997 1.000004 -7.609385
v -0.000360 1.000007 -6.329667
v 5.644333 1.000008 -5.126730
v 0.433511 1.000006 -7.489592
v 4.948478 1.000009 -3.946802
v 0.000541 1.000009 -3.877775
v 3.031406 1.000010 -2.418205
v 6.483195 1.000006 -7.428729
v 1.628548 1.000003 -9.510183
v 6.844123 1.000002 -10.169550
v 3.747025 1.000001 -11.722060
v 5.984660 1.000000 -11.934200
v 5.460928 1.000000 -12.174210
v 6.454418 1.000001 -11.503760
v 0.453436 2.000006 -7.533272
v 0.000348 2.000007 -6.329668
v 0.000348 1.000007 -6.329667
v 0.433511 1.000006 -7.489592
v 0.630955 3.612005 -6.422226
v -0.000290 3.142009 -4.385407
v 0.453436 2.000006 -7.533272
v 0.000348 2.000007 -6.329668
v 5.913651 2.000000 -11.987271
v 5.984660 1.000000 -11.934200
v 6.454418 1.000001 -11.503760
v 6.387816 2.000001 -11.591331
v 4.638239 3.609008 -4.507984
v 5.606987 2.000008 -5.051485
v 4.948477 2.000009 -3.946804
v 3.428803 3.142010 -2.734065
v 5.994792 3.548004 -7.518532
v 6.457661 2.000006 -7.341135
v 6.535389 3.028002 -10.298251
v 6.826175 2.000002 -10.233691
v 6.535389 3.028002 -10.298251
v 6.164082 2.321001 -11.778991
v 6.387816 2.000001 -11.591331
v 2.628506 4.607007 -5.453610
v 4.638239 3.609008 -4.507984
v 3.428803 3.142010 -2.734065
v 1.536866 3.951010 -3.186769
v 4.061609 4.514004 -8.429516
v 5.994792 3.548005 -7.518532
v 5.254776 3.671001 -10.907181
v 6.535389 3.028002 -10.298251
v 5.764518 2.522000 -11.970291
v 6.164082 2.321001 -11.778991
v 5.764517 2.522000 -11.970291
v 5.364921 2.322000 -12.163841
v 5.325913 2.000000 -12.200381
v 5.325913 2.000000 -12.200381
v 3.973563 3.032000 -11.526391
v 3.744856 2.000001 -11.717561
v 5.364921 2.322000 -12.163841
v 5.764518 2.522000 -11.970291
v 5.254776 3.671001 -10.907181
v 3.973563 3.032000 -11.526391
v 5.364921 2.322000 -12.163841
v 2.135701 3.553003 -9.362520
v 3.744856 2.000001 -11.717561
v 1.692626 2.000003 -9.592540
v 2.135701 3.553003 -9.362521
v 4.061609 4.514004 -8.429516
v 0.630955 3.612005 -6.422226
v 2.628506 4.607008 -5.453610
v 1.536866 3.951010 -3.186769
v -0.000290 3.142009 -4.385407
v 0.882944 3.216010 -1.833477
v 0.001247 2.802011 -2.053850
v 0.882944 3.216010 -1.833477
v 1.606342 2.802011 -1.279777
v 1.628548 1.000003 -9.510183
v 3.747025 1.000001 -11.722060
v 3.747025 1.000001 -11.722060
v 5.460928 1.000000 -12.174210
v 5.460928 1.000000 -12.174210
v 6.844123 1.000002 -10.169550
v 6.454418 1.000001 -11.503760
v 6.483195 1.000006 -7.428729
v 5.644333 1.000008 -5.126730
v 4.948478 1.000009 -3.946802
v -3.965600 -4.999987 0.522010
v -4.000000 -4.999988 0.000010
v -4.000000 1.000012 0.000004
v -3.965600 1.000013 0.522004
v -3.863599 -4.999987 1.035210
v -3.863599 1.000013 1.035204
v -3.695599 -4.999986 1.530810
v -3.695599 1.000014 1.530804
v -3.463998 -4.999986 2.000010
v -3.463998 1.000014 2.000004
v -3.173598 -4.999985 2.435209
v -3.173598 1.000015 2.435204
v -2.828397 -4.999985 2.828409
v -2.828397 1.000015 2.828403
v -2.435197 -4.999984 3.173608
v -2.435197 1.000015 3.173603
v -1.999997 -4.999984 3.464008
v -1.999997 1.000017 3.464003
v -1.530796 -4.999984 3.695608
v -1.530796 1.000017 3.695601
v -1.035196 -4.999984 3.863607
v -1.035196 1.000017 3.863601
v -0.521996 -4.999984 3.965606
v -0.521996 1.000017 3.965600
v 0.000004 -4.999984 4.000006
v 0.000004 1.000017 4.000000
v 0.522004 -4.999984 3.965605
v 0.522004 1.000017 3.965600
v 1.035204 -4.999984 3.863605
v 1.035204 1.000017 3.863600
v 1.530804 -4.999984 3.695605
v 1.530804 1.000017 3.695599
v 2.000004 -4.999984 3.464004
v 2.000004 1.000017 3.463999
v 2.435203 -4.999984 3.173604
v 2.435203 1.000015 3.173598
v 2.828403 -4.999985 2.828403
v 2.828403 1.000015 2.828398
v 3.173602 -4.999985 2.435203
v 3.173602 1.000015 2.435197
v 3.464002 -4.999986 2.000003
v 3.464002 1.000014 1.999997
v 3.695601 -4.999986 1.530802
v 3.695601 1.000014 1.530797
v 3.863601 -4.999987 1.035202
v 3.863601 1.000013 1.035197
v 3.965600 -4.999987 0.522002
v 3.965600 1.000013 0.521996
v 4.000000 -4.999988 0.000002
v 4.000000 1.000012 -0.000004
v 3.965600 -4.999988 -0.521998
v 3.965600 1.000012 -0.522004
v 3.863599 -4.999989 -1.035198
v 3.863599 1.000011 -1.035203
v 3.695599 -4.999989 -1.530798
v 3.695599 1.000011 -1.530803
v 3.463998 -4.999990 -1.999997
v 3.463998 1.000010 -2.000004
v 3.173598 -4.999990 -2.435197
v 3.173598 1.000010 -2.435204
v 2.828397 -4.999990 -2.828397
v 2.828397 1.000010 -2.828403
v 2.435197 -4.999991 -3.173596
v 2.435197 1.000010 -3.173603
v 1.999997 -4.999991 -3.463996
v 1.999997 1.000009 -3.464001
v 1.530796 -4.999991 -3.695596
v 1.530796 1.000009 -3.695601
v 1.035196 -4.999991 -3.863595
v 1.035196 1.000009 -3.863600
v 0.521996 -4.999991 -3.965595
v 0.521996 1.000009 -3.965600
v -0.000004 -4.999991 -3.999994
v -0.000004 1.000009 -4.000000
v -0.522004 -4.999991 -3.965594
v -0.522004 1.000009 -3.965600
v -1.035204 -4.999991 -3.863593
v -1.035204 1.000009 -3.863599
v -1.530804 -4.999991 -3.695592
v -1.530804 1.000009 -3.695598
v -2.000004 -4.999991 -3.463992
v -2.000004 1.000009 -3.463997
v -2.435203 -4.999991 -3.173592
v -2.435203 1.000010 -3.173598
v -2.828403 -4.999990 -2.828391
v -2.828403 1.000010 -2.828398
v -3.173602 -4.999990 -2.435191
v -3.173602 1.000010 -2.435196
v -3.464002 -4.999990 -1.999991
v -3.464002 1.000010 -1.999996
v -3.695601 -4.999989 -1.530790
v -3.695601 1.000011 -1.530797
v -3.863601 -4.999989 -1.035190
v -3.863601 1.000011 -1.035196
v -3.965600 -4.999988 -0.521990
v -3.965600 1.000012 -0.521996
v -2.000000 -4.999988 0.000008
v -1.982800 -4.999987 0.261008
v -3.965600 -4.999987 0.522010
v -4.000000 -4.999988 0.000010
v -1.931800 -4.999987 0.517608
v -3.863599 -4.999987 1.035210
v -1.847799 -4.999987 0.765408
v -3.695599 -4.999986 1.530810
v -1.731999 -4.999987 1.000008
v -3.463998 -4.999986 2.000010
v -1.586799 -4.999986 1.217608
v -3.173598 -4.999985 2.435209
v -1.414199 -4.999986 1.414207
v -2.828397 -4.999985 2.828409
v -1.217598 -4.999986 1.586807
v -2.435197 -4.999984 3.173608
v -0.999998 -4.999986 1.732007
v -1.999997 -4.999984 3.464008
v -0.765398 -4.999986 1.847807
v -1.530796 -4.999984 3.695608
v -0.517598 -4.999986 1.931807
v -1.035196 -4.999984 3.863607
v -0.260998 -4.999986 1.982806
v -0.521996 -4.999984 3.965606
v 0.000002 -4.999986 2.000006
v 0.000004 -4.999984 4.000006
v 0.261002 -4.999986 1.982806
v 0.522004 -4.999984 3.965605
v 0.517602 -4.999986 1.931805
v 1.035204 -4.999984 3.863605
v 0.765402 -4.999986 1.847805
v 1.530804 -4.999984 3.695605
v 1.000002 -4.999986 1.732005
v 2.000004 -4.999984 3.464004
v 1.217602 -4.999986 1.586805
v 2.435203 -4.999984 3.173604
v 1.414201 -4.999986 1.414204
v 2.828403 -4.999985 2.828403
v 1.586801 -4.999986 1.217604
v 3.173602 -4.999985 2.435203
v 1.732001 -4.999987 1.000004
v 3.464002 -4.999986 2.000003
v 1.847801 -4.999987 0.765404
v 3.695601 -4.999986 1.530802
v 1.931800 -4.999987 0.517604
v 3.863601 -4.999987 1.035202
v 1.982800 -4.999987 0.261004
v 3.965600 -4.999987 0.522002
v 2.000000 -4.999988 0.000004
v 4.000000 -4.999988 0.000002
v 1.982800 -4.999988 -0.260996
v 3.965600 -4.999988 -0.521998
v 1.931800 -4.999988 -0.517596
v 3.863599 -4.999989 -1.035198
v 1.847799 -4.999989 -0.765396
v 3.695599 -4.999989 -1.530798
v 1.731999 -4.999989 -0.999996
v 3.463998 -4.999990 -1.999997
v 1.586799 -4.999989 -1.217596
v 3.173598 -4.999990 -2.435197
v 1.414199 -4.999989 -1.414195
v 2.828397 -4.999990 -2.828397
v 1.217598 -4.999989 -1.586795
v 2.435197 -4.999991 -3.173596
v 0.999998 -4.999990 -1.731995
v 1.999997 -4.999991 -3.463996
v 0.765398 -4.999990 -1.847795
v 1.530796 -4.999991 -3.695596
v 0.517598 -4.999990 -1.931795
v 1.035196 -4.999991 -3.863595
v 0.260998 -4.999990 -1.982794
v 0.521996 -4.999991 -3.965595
v -0.000002 -4.999990 -1.999994
v -0.000004 -4.999991 -3.999994
v -0.261002 -4.999990 -1.982794
v -0.522004 -4.999991 -3.965594
v -0.517602 -4.999990 -1.931793
v -1.035204 -4.999991 -3.863593
v -0.765402 -4.999990 -1.847793
v -1.530804 -4.999991 -3.695592
v -1.000002 -4.999990 -1.731993
v -2.000004 -4.999991 -3.463992
v -1.217602 -4.999989 -1.586793
v -2.435203 -4.999991 -3.173592
v -1.414201 -4.999989 -1.414193
v -2.828403 -4.999990 -2.828391
v -1.586801 -4.999989 -1.217592
v -3.173602 -4.999990 -2.435191
v -1.732001 -4.999989 -0.999992
v -3.464002 -4.999990 -1.999991
v -1.847801 -4.999989 -0.765392
v -3.695601 -4.999989 -1.530790
v -1.931800 -4.999988 -0.517592
v -3.863601 -4.999989 -1.035190
v -1.982800 -4.999988 -0.260992
v -3.965600 -4.999988 -0.521990
v -1.984000 3.216012 -0.453000
v -2.000000 -4.999988 0.000008
v -2.003000 2.802013 0.456000
v -1.847999 -4.999987 0.765008
v -2.003000 2.802013 0.456000
v -1.590999 3.216013 1.268999
v -1.413998 -4.999986 1.414007
v -0.891998 2.802014 1.849999
v -0.764998 -4.999986 1.848007
v -0.891998 2.802014 1.849999
v 0.000002 -4.999986 2.000006
v 0.000002 3.216014 2.034998
v 0.890002 2.802014 1.850997
v 0.765002 -4.999986 1.848005
v 1.414001 -4.999986 1.414004
v 0.890002 2.802014 1.850997
v 1.591001 3.216013 1.268996
v 1.848001 -4.999987 0.765004
v 2.002000 2.802013 0.457996
v 2.000000 -4.999988 0.000004
v 2.002000 2.802013 0.457996
v 1.983999 3.216012 -0.453004
v 1.847999 -4.999989 -0.764996
v 1.605999 2.802011 -1.280004
v 1.413998 -4.999989 -1.413995
v 1.605999 2.802011 -1.280004
v 0.882998 3.216010 -1.833003
v 0.764998 -4.999990 -1.847995
v 0.000998 2.802011 -2.054002
v -0.000002 -4.999990 -1.999994
v -0.765002 -4.999990 -1.847993
v 0.000998 2.802011 -2.054002
v -0.883002 3.216010 -1.833002
v -1.414001 -4.999989 -1.413993
v -1.605001 2.802011 -1.281001
v -1.848001 -4.999989 -0.764992
v -1.605001 2.802011 -1.281001
vn -0.0000 -1.0000 -0.0000
vn 0.9959 0.0017 -0.0900
vn 0.9961 -0.0000 -0.0886
vn 0.9824 0.1860 -0.0167
vn 0.9997 -0.0022 0.0244
vn 0.9261 0.3397 -0.1643
vn 0.9444 0.3281 -0.0219
vn 0.8544 0.5140 -0.0760
vn -0.2670 -0.0076 0.9637
vn -0.0608 0.0046 0.9981
vn -0.1110 0.0215 0.9936
vn -0.2444 -0.0190 0.9695
vn -0.9619 0.2339 -0.1417
vn -0.9630 0.2679 0.0296
vn -0.9295 0.3627 -0.0677
vn -0.9135 0.3462 -0.2138
vn -0.9607 0.1630 0.2245
vn -0.9323 0.3361 0.1335
vn -0.8680 0.1670 0.4676
vn -0.9094 0.2894 0.2986
vn -0.4718 0.5377 0.6988
vn -0.6720 0.2360 0.7019
vn -0.7297 0.0830 0.6787
vn -0.4167 0.8679 -0.2702
vn -0.4088 0.9086 -0.0858
vn -0.4143 0.9064 -0.0830
vn -0.4113 0.8611 -0.2989
vn -0.4084 0.9073 0.0996
vn -0.4051 0.8982 0.1708
vn -0.3851 0.8554 0.3465
vn -0.3678 0.8156 0.4466
vn -0.4717 0.5378 0.6988
vn -0.3076 0.6812 0.6644
vn -0.0002 0.1515 0.9885
vn -0.1583 0.0863 0.9836
vn 0.0673 0.0113 0.9977
vn 0.0775 0.1058 0.9914
vn 0.6670 0.0609 0.7425
vn 0.8366 0.2584 0.4831
vn 0.6810 0.0983 0.7257
vn 0.7159 0.1473 0.6825
vn 0.3660 0.8164 0.4466
vn 0.3838 0.8561 0.3460
vn 0.3055 0.6820 0.6644
vn 0.3057 0.6819 0.6645
vn 0.9379 0.1626 0.3065
vn 0.9357 0.2978 0.1892
vn 0.8366 0.2584 0.4830
vn 0.9556 0.2475 0.1599
vn 0.4033 0.8989 0.1710
vn 0.4072 0.9079 0.0991
vn 0.4128 0.9070 -0.0835
vn 0.4078 0.9088 -0.0880
vn 0.4156 0.8651 -0.2809
vn 0.4103 0.8549 -0.3175
vn 0.3473 0.8848 -0.3108
vn 0.3983 0.8423 -0.3631
vn -0.3984 0.8422 -0.3632
vn -0.3097 0.8540 -0.4180
vn 0.9766 -0.0009 0.2149
vn 0.9508 0.0015 0.3099
vn 0.6631 -0.0291 0.7480
vn 0.6493 0.0038 0.7605
vn 0.0191 0.0324 0.9993
vn -0.8956 0.0198 0.4445
vn -0.7426 0.0393 0.6686
vn -0.9770 0.0045 0.2133
vn -0.9995 -0.0002 0.0321
vn -0.9965 -0.0000 -0.0840
vn 0.6913 0.0017 0.7226
vn 0.6903 -0.0000 0.7235
vn 0.6256 0.1860 0.7577
vn 0.6043 -0.0022 0.7968
vn 0.7059 0.3397 0.6216
vn 0.6059 0.3281 0.7247
vn 0.5921 0.5140 0.6206
vn 0.7058 0.3397 0.6216
vn -0.9199 -0.0076 0.3921
vn -0.8183 0.0046 0.5748
vn -0.8460 0.0215 0.5327
vn -0.9104 -0.0191 0.4134
vn -0.4889 0.2339 -0.8404
vn -0.6236 0.2679 -0.7344
vn -0.5266 0.3627 -0.7689
vn -0.4023 0.3462 -0.8475
vn -0.7745 0.1630 -0.6112
vn -0.6856 0.3361 -0.6457
vn -0.9068 0.1670 -0.3871
vn -0.8005 0.2894 -0.5249
vn -0.8405 0.5377 0.0668
vn -0.9678 0.2360 -0.0877
vn -0.9856 0.0829 -0.1474
vn -0.0486 0.8679 -0.4943
vn -0.1878 0.9086 -0.3731
vn -0.1934 0.9064 -0.3756
vn -0.0226 0.8611 -0.5079
vn -0.3325 0.9073 -0.2572
vn -0.3861 0.8982 -0.2102
vn -0.5110 0.8554 -0.0850
vn -0.5785 0.8156 -0.0092
vn -0.8404 0.5377 0.0669
vn -0.7112 0.6812 0.1737
vn -0.7729 0.1515 0.6161
vn -0.8677 0.0863 0.4896
vn -0.7381 0.0113 0.6746
vn -0.7268 0.1058 0.6787
vn -0.1646 0.0608 0.9845
vn 0.1439 0.2584 0.9553
vn -0.1428 0.0983 0.9849
vn -0.0873 0.1473 0.9852
vn -0.1210 0.8164 0.5646
vn -0.0312 0.8561 0.5158
vn -0.3290 0.6820 0.6531
vn -0.3289 0.6819 0.6533
vn 0.3451 0.1626 0.9244
vn 0.4354 0.2978 0.8495
vn 0.1440 0.2584 0.9553
vn 0.4708 0.2475 0.8468
vn 0.1178 0.8989 0.4219
vn 0.1764 0.9079 0.3802
vn 0.3227 0.9070 0.2707
vn 0.3230 0.9088 0.2640
vn 0.4787 0.8651 0.1498
vn 0.5040 0.8549 0.1228
vn 0.4595 0.8848 0.0778
vn 0.5322 0.8423 0.0850
vn 0.0356 0.8422 -0.5380
vn 0.1338 0.8540 -0.5028
vn 0.4409 -0.0009 0.8975
vn 0.3506 0.0015 0.9365
vn -0.1714 -0.0291 0.9848
vn -0.1897 0.0038 0.9818
vn -0.7694 0.0324 0.6380
vn -0.9059 0.0198 -0.4231
vn -0.9857 0.0393 -0.1637
vn -0.7761 0.0046 -0.6306
vn -0.6482 -0.0002 -0.7614
vn -0.5557 -0.0000 -0.8314
vn 0.5508 0.0014 -0.8346
vn 0.5517 -0.0000 -0.8340
vn 0.5995 0.1860 -0.7785
vn 0.6424 -0.0022 -0.7664
vn 0.4489 0.3397 -0.8265
vn 0.5717 0.3281 -0.7520
vn 0.4733 0.5140 -0.7154
vn 0.4490 0.3397 -0.8264
vn 0.5869 -0.0076 0.8096
vn 0.7425 0.0046 0.6698
vn 0.7076 0.0215 0.7063
vn 0.6056 -0.0191 0.7955
vn -0.7105 0.2339 0.6637
vn -0.5773 0.2679 0.7714
vn -0.6324 0.3627 0.6845
vn -0.7367 0.3462 0.5808
vn -0.4235 0.1630 0.8911
vn -0.4770 0.3361 0.8121
vn -0.1756 0.1670 0.9702
vn -0.3336 0.2894 0.8972
vn 0.2522 0.5377 0.8046
vn 0.1298 0.2360 0.9630
vn 0.0756 0.0830 0.9937
vn -0.4711 0.8679 0.1574
vn -0.3220 0.9086 0.2661
vn -0.3231 0.9064 0.2722
vn -0.4902 0.8611 0.1352
vn -0.1768 0.9073 0.3814
vn -0.1190 0.8982 0.4232
vn 0.0308 0.8554 0.5171
vn 0.1198 0.8156 0.5660
vn 0.2522 0.5378 0.8045
vn 0.3277 0.6812 0.6547
vn 0.7727 0.1515 0.6164
vn 0.6704 0.0863 0.7370
vn 0.8220 0.0113 0.5694
vn 0.8234 0.1058 0.5575
vn 0.9964 0.0609 -0.0586
vn 0.8993 0.2584 -0.3529
vn 0.9919 0.0983 -0.0799
vn 0.9800 0.1473 -0.1342
vn 0.5774 0.8164 -0.0077
vn 0.5099 0.8561 -0.0843
vn 0.7100 0.6820 0.1754
vn 0.7101 0.6819 0.1753
vn 0.8244 0.1626 -0.5421
vn 0.7313 0.2978 -0.6136
vn 0.8993 0.2584 -0.3530
vn 0.7209 0.2475 -0.6474
vn 0.3851 0.8989 -0.2088
vn 0.3314 0.9079 -0.2566
vn 0.1921 0.9070 -0.3748
vn 0.1855 0.9088 -0.3736
vn 0.0396 0.8651 -0.5001
vn 0.0076 0.8549 -0.5187
vn -0.0264 0.8848 -0.4653
vn -0.0355 0.8423 -0.5378
vn -0.5324 0.8422 0.0851
vn -0.5199 0.8540 -0.0185
vn 0.7769 -0.0009 -0.6296
vn 0.8351 0.0016 -0.5502
vn 0.9982 -0.0291 -0.0520
vn 0.9994 0.0038 -0.0335
vn 0.7932 0.0324 0.6081
vn -0.2109 0.0198 0.9773
vn 0.0597 0.0393 0.9974
vn -0.4420 0.0046 0.8970
vn -0.5981 -0.0002 0.8014
vn -0.6869 -0.0000 0.7267
vn -0.3093 0.0017 -0.9510
vn -0.3081 -0.0000 -0.9514
vn -0.2349 0.1860 -0.9541
vn -0.1987 -0.0022 -0.9801
vn -0.3662 0.3397 -0.8663
vn -0.2315 0.3281 -0.9158
vn -0.2642 0.5140 -0.8160
vn 0.9989 -0.0076 0.0459
vn 0.9866 0.0046 -0.1629
vn 0.9934 0.0215 -0.1128
vn 0.9996 -0.0190 0.0225
vn 0.0759 0.2339 0.9693
vn 0.2432 0.2679 0.9323
vn 0.1409 0.3627 0.9212
vn -0.0052 0.3462 0.9381
vn 0.4326 0.1630 0.8867
vn 0.3376 0.3361 0.8793
vn 0.6491 0.1670 0.7422
vn 0.4935 0.2894 0.8202
vn 0.7863 0.5377 0.3045
vn 0.8339 0.2360 0.4989
vn 0.8240 0.0830 0.5604
vn -0.1707 0.8679 0.4664
vn 0.0073 0.9086 0.4177
vn 0.0113 0.9064 0.4223
vn -0.1999 0.8611 0.4675
vn 0.1880 0.9073 0.3760
vn 0.2567 0.8982 0.3569
vn 0.4235 0.8554 0.2983
vn 0.5172 0.8156 0.2593
vn 0.7862 0.5378 0.3044
vn 0.7162 0.6812 0.1520
vn 0.9637 0.1515 -0.2198
vn 0.9942 0.0863 -0.0646
vn 0.9577 0.0113 -0.2876
vn 0.9493 0.1058 -0.2962
vn 0.5755 0.0609 -0.8155
vn 0.2848 0.2584 -0.9231
vn 0.5560 0.0983 -0.8254
vn 0.5061 0.1473 -0.8498
vn 0.3540 0.8164 -0.4562
vn 0.2520 0.8561 -0.4512
vn 0.5798 0.6820 -0.4457
vn 0.5798 0.6819 -0.4459
vn 0.0901 0.1626 -0.9826
vn -0.0237 0.2978 -0.9543
vn 0.2847 0.2584 -0.9231
vn -0.0567 0.2475 -0.9672
vn 0.0769 0.8989 -0.4313
vn 0.0060 0.9079 -0.4191
vn -0.1732 0.9070 -0.3839
vn -0.1765 0.9088 -0.3780
vn -0.3663 0.8651 -0.3427
vn -0.4008 0.8549 -0.3294
vn -0.3803 0.8848 -0.2694
vn -0.4426 0.8423 -0.3075
vn -0.2655 0.8422 0.4692
vn -0.3387 0.8540 0.3949
vn -0.0078 -0.0009 -1.0000
vn 0.0905 0.0015 -0.9959
vn 0.5817 -0.0291 -0.8129
vn 0.5969 0.0038 -0.8023
vn 0.9700 0.0324 -0.2410
vn 0.6326 0.0198 0.7742
vn 0.8170 0.0393 0.5752
vn 0.4258 0.0046 0.9048
vn 0.2537 -0.0002 0.9673
vn 0.1399 -0.0000 0.9902
vn -0.1339 0.0017 0.9910
vn -0.1352 -0.0000 0.9908
vn -0.2023 0.1860 0.9615
vn -0.2462 -0.0022 0.9692
vn -0.0459 0.3397 0.9394
vn -0.1888 0.3281 0.9256
vn -0.1160 0.5140 0.8499
vn -0.8801 -0.0076 -0.4748
vn -0.9596 0.0046 -0.2813
vn -0.9440 0.0215 -0.3294
vn -0.8908 -0.0190 -0.4540
vn 0.3522 0.2339 -0.9062
vn 0.1854 0.2679 -0.9454
vn 0.2728 0.3627 -0.8911
vn 0.4117 0.3462 -0.8430
vn -0.0051 0.1630 -0.9866
vn 0.0773 0.3361 -0.9387
vn -0.2628 0.1670 -0.9503
vn -0.0887 0.2894 -0.9531
vn -0.5763 0.5377 -0.6154
vn -0.5348 0.2360 -0.8113
vn -0.4993 0.0830 -0.8625
vn 0.3561 0.8679 -0.3462
vn 0.1746 0.9086 -0.3795
vn 0.1731 0.9064 -0.3854
vn 0.3831 0.8612 -0.3340
vn -0.0062 0.9073 -0.4203
vn -0.0764 0.8982 -0.4329
vn -0.2521 0.8554 -0.4525
vn -0.3535 0.8156 -0.4580
vn -0.5763 0.5378 -0.6154
vn -0.5793 0.6812 -0.4477
vn -0.9636 0.1515 -0.2201
vn -0.9237 0.0863 -0.3732
vn -0.9876 0.0113 -0.1564
vn -0.9838 0.1058 -0.1450
vn -0.8723 0.0608 0.4851
vn -0.6571 0.2584 0.7081
vn -0.8590 0.0983 0.5024
vn -0.8247 0.1473 0.5461
vn -0.5169 0.8164 0.2574
vn -0.4228 0.8561 0.2972
vn -0.7157 0.6821 0.1500
vn -0.7159 0.6819 0.1501
vn -0.5075 0.1626 0.8461
vn -0.3927 0.2978 0.8701
vn -0.6571 0.2584 0.7082
vn -0.3686 0.2475 0.8960
vn -0.2564 0.8989 0.3552
vn -0.1872 0.9079 0.3749
vn -0.0105 0.9070 0.4211
vn -0.0050 0.9088 0.4171
vn 0.1813 0.8651 0.4677
vn 0.2182 0.8549 0.4706
vn 0.2257 0.8848 0.4078
vn 0.2654 0.8423 0.4691
vn 0.4428 0.8422 -0.3076
vn 0.4765 0.8540 -0.2089
vn -0.4268 -0.0009 0.9043
vn -0.5137 0.0015 0.8580
vn -0.8768 -0.0291 0.4800
vn -0.8859 0.0038 0.4638
vn -0.9785 0.0324 -0.2038
vn -0.2340 0.0198 -0.9720
vn -0.4866 0.0393 -0.8728
vn 0.0091 0.0046 -0.9999
vn 0.1912 -0.0002 -0.9816
vn 0.3036 -0.0000 -0.9528
vn -0.8584 0.0014 0.5130
vn -0.8590 -0.0000 0.5120
vn -0.8779 0.1860 0.4413
vn -0.9113 -0.0022 0.4118
vn -0.7631 0.3397 0.5498
vn -0.8414 0.3281 0.4294
vn -0.7368 0.5140 0.4392
vn -0.1775 -0.0076 -0.9841
vn -0.3783 0.0046 -0.9257
vn -0.3310 0.0215 -0.9434
vn -0.2005 -0.0191 -0.9795
vn 0.9281 0.2339 -0.2896
vn 0.8548 0.2679 -0.4445
vn 0.8668 0.3627 -0.3423
vn 0.9158 0.3462 -0.2037
vn 0.7682 0.1630 -0.6191
vn 0.7821 0.3361 -0.5248
vn 0.5791 0.1670 -0.7979
vn 0.6898 0.2894 -0.6636
vn 0.1219 0.5377 -0.8343
vn 0.3009 0.2360 -0.9240
vn 0.3630 0.0830 -0.9281
vn 0.4927 0.8679 0.0626
vn 0.4056 0.9086 -0.1001
vn 0.4093 0.9064 -0.1050
vn 0.5002 0.8611 0.0910
vn 0.3248 0.9073 -0.2670
vn 0.2909 0.8982 -0.3297
vn 0.1966 0.8554 -0.4792
vn 0.1377 0.8156 -0.5620
vn 0.1218 0.5378 -0.8342
vn -0.0112 0.6812 -0.7320
vn -0.4287 0.1515 -0.8906
vn -0.2842 0.0863 -0.9549
vn -0.4935 0.0113 -0.8697
vn -0.5000 0.1058 -0.8596
vn -0.9232 0.0608 -0.3796
vn -0.9633 0.2584 -0.0723
vn -0.9284 0.0983 -0.3584
vn -0.9411 0.1473 -0.3043
vn -0.5236 0.8164 -0.2436
vn -0.4960 0.8561 -0.1452
vn -0.5636 0.6820 -0.4661
vn -0.5637 0.6819 -0.4661
vn -0.9780 0.1626 0.1308
vn -0.9251 0.2978 0.2355
vn -0.9633 0.2584 -0.0722
vn -0.9304 0.2475 0.2705
vn -0.4376 0.8989 0.0210
vn -0.4099 0.9079 0.0874
vn -0.3357 0.9070 0.2543
vn -0.3292 0.9088 0.2561
vn -0.2526 0.8651 0.4334
vn -0.2319 0.8549 0.4641
vn -0.1781 0.8848 0.4307
vn -0.2013 0.8423 0.5000
vn 0.5166 0.8422 0.1543
vn 0.4604 0.8540 0.2423
vn -0.9732 -0.0009 0.2301
vn -0.9911 0.0015 0.1334
vn -0.9219 -0.0291 -0.3862
vn -0.9150 0.0038 -0.4034
vn -0.4508 0.0324 -0.8921
vn 0.6140 0.0198 -0.7890
vn 0.3790 0.0393 -0.9246
vn 0.7877 0.0045 -0.6160
vn 0.8866 -0.0002 -0.4625
vn 0.9342 -0.0000 -0.3567
vn -0.9363 0.0014 -0.3513
vn -0.9359 -0.0000 -0.3523
vn -0.8924 0.1860 -0.4112
vn -0.8902 -0.0022 -0.4557
vn -0.9057 0.3397 -0.2538
vn -0.8603 0.3281 -0.3901
vn -0.8028 0.5140 -0.3022
vn -0.9056 0.3397 -0.2538
vn 0.6587 -0.0076 -0.7524
vn 0.4878 0.0046 -0.8729
vn 0.5311 0.0215 -0.8470
vn 0.6408 -0.0191 -0.7674
vn 0.8051 0.2339 0.5450
vn 0.8805 0.2679 0.3912
vn 0.8081 0.3627 0.4642
vn 0.7302 0.3462 0.5890
vn 0.9630 0.1630 0.2146
vn 0.8979 0.3361 0.2842
vn 0.9849 0.1670 -0.0447
vn 0.9489 0.2894 0.1256
vn 0.7283 0.5377 -0.4249
vn 0.9100 0.2360 -0.3409
vn 0.9519 0.0830 -0.2949
vn 0.2582 0.8679 0.4242
vn 0.3311 0.9086 0.2547
vn 0.3373 0.9064 0.2545
vn 0.2404 0.8612 0.4478
vn 0.4112 0.9073 0.0875
vn 0.4391 0.8982 0.0218
vn 0.4973 0.8554 -0.1451
vn 0.5252 0.8156 -0.2428
vn 0.7282 0.5378 -0.4249
vn 0.5654 0.6812 -0.4651
vn 0.4290 0.1515 -0.8905
vn 0.5694 0.0863 -0.8175
vn 0.3722 0.0113 -0.9281
vn 0.3603 0.1058 -0.9268
vn -0.2788 0.0608 -0.9584
vn -0.5441 0.2584 -0.7982
vn -0.2987 0.0983 -0.9493
vn -0.3489 0.1473 -0.9255
vn -0.1360 0.8164 -0.5612
vn -0.1957 0.8561 -0.4783
vn 0.0130 0.6821 -0.7312
vn 0.0129 0.6819 -0.7313
vn -0.7120 0.1626 -0.6831
vn -0.7609 0.2978 -0.5765
vn -0.5442 0.2584 -0.7982
vn -0.7916 0.2475 -0.5587
vn -0.2892 0.8989 -0.3290
vn -0.3239 0.9079 -0.2660
vn -0.4082 0.9070 -0.1039
vn -0.4055 0.9088 -0.0977
vn -0.4963 0.8651 0.0727
vn -0.5074 0.8549 0.1080
vn -0.4478 0.8848 0.1293
vn -0.5164 0.8423 0.1543
vn 0.2014 0.8422 0.5001
vn 0.0976 0.8540 0.5110
vn -0.7867 -0.0009 -0.6173
vn -0.7222 0.0015 -0.6917
vn -0.2729 -0.0291 -0.9616
vn -0.2551 0.0038 -0.9669
vn 0.4164 0.0324 -0.9086
vn 0.9997 0.0198 -0.0119
vn 0.9591 0.0393 -0.2802
vn 0.9728 0.0045 0.2318
vn 0.9144 -0.0002 0.4048
vn 0.8614 -0.0000 0.5080
vn -0.9998 -0.0000 0.0219
vn -0.9998 -0.0000 -0.0219
vn -0.9940 -0.0000 0.1090
vn -0.9884 -0.0000 0.1522
vn -0.9714 -0.0000 0.2374
vn -0.9601 -0.0000 0.2795
vn -0.9321 -0.0000 0.3623
vn -0.9153 -0.0000 0.4028
vn -0.8767 -0.0000 0.4810
vn -0.8551 -0.0000 0.5185
vn -0.8066 -0.0000 0.5911
vn -0.7798 -0.0000 0.6261
vn -0.7222 -0.0000 0.6916
vn -0.6916 -0.0000 0.7222
vn -0.6261 -0.0000 0.7798
vn -0.5911 -0.0000 0.8066
vn -0.5185 -0.0000 0.8551
vn -0.4810 -0.0000 0.8767
vn -0.4028 -0.0000 0.9153
vn -0.3622 -0.0000 0.9321
vn -0.2795 -0.0000 0.9601
vn -0.2374 -0.0000 0.9714
vn -0.1522 -0.0000 0.9884
vn -0.1090 -0.0000 0.9940
vn -0.0219 -0.0000 0.9998
vn 0.0219 -0.0000 0.9998
vn 0.1090 -0.0000 0.9940
vn 0.1522 -0.0000 0.9884
vn 0.2374 -0.0000 0.9714
vn 0.2795 -0.0000 0.9601
vn 0.3623 -0.0000 0.9321
vn 0.4028 -0.0000 0.9153
vn 0.4810 -0.0000 0.8767
vn 0.5185 -0.0000 0.8551
vn 0.5911 -0.0000 0.8066
vn 0.6261 -0.0000 0.7798
vn 0.6916 -0.0000 0.7222
vn 0.7222 -0.0000 0.6916
vn 0.7798 -0.0000 0.6261
vn 0.8066 -0.0000 0.5911
vn 0.8550 -0.0000 0.5186
vn 0.8767 -0.0000 0.4810
vn 0.9153 -0.0000 0.4028
vn 0.9321 -0.0000 0.3622
vn 0.9601 -0.0000 0.2795
vn 0.9714 -0.0000 0.2374
vn 0.9884 -0.0000 0.1522
vn 0.9940 -0.0000 0.1090
vn 0.9998 -0.0000 0.0219
vn 0.9998 -0.0000 -0.0219
vn 0.9940 -0.0000 -0.1090
vn 0.9884 -0.0000 -0.1522
vn 0.9714 -0.0000 -0.2374
vn 0.9601 -0.0000 -0.2795
vn 0.9321 -0.0000 -0.3623
vn 0.9153 -0.0000 -0.4028
vn 0.8767 -0.0000 -0.4810
vn 0.8551 -0.0000 -0.5185
vn 0.8066 -0.0000 -0.5911
vn 0.7798 -0.0000 -0.6261
vn 0.7222 -0.0000 -0.6916
vn 0.6916 -0.0000 -0.7222
vn 0.6261 -0.0000 -0.7798
vn 0.5911 -0.0000 -0.8066
vn 0.5185 -0.0000 -0.8551
vn 0.4810 -0.0000 -0.8767
vn 0.4028 -0.0000 -0.9153
vn 0.3622 -0.0000 -0.9321
vn 0.2795 -0.0000 -0.9601
vn 0.2374 -0.0000 -0.9714
vn 0.1522 -0.0000 -0.9884
vn 0.1090 -0.0000 -0.9940
vn 0.0219 -0.0000 -0.9998
vn -0.0219 -0.0000 -0.9998
vn -0.1090 -0.0000 -0.9940
vn -0.1522 -0.0000 -0.9884
vn -0.2374 -0.0000 -0.9714
vn -0.2795 -0.0000 -0.9601
vn -0.3623 -0.0000 -0.9321
vn -0.4028 -0.0000 -0.9153
vn -0.4810 -0.0000 -0.8767
vn -0.5185 -0.0000 -0.8551
vn -0.5911 -0.0000 -0.8066
vn -0.6261 -0.0000 -0.7798
vn -0.6916 -0.0000 -0.7222
vn -0.7222 -0.0000 -0.6916
vn -0.7798 -0.0000 -0.6261
vn -0.8066 -0.0000 -0.5911
vn -0.8551 -0.0000 -0.5185
vn -0.8767 -0.0000 -0.4810
vn -0.9153 -0.0000 -0.4029
vn -0.9321 -0.0000 -0.3623
vn -0.9601 -0.0000 -0.2795
vn -0.9714 -0.0000 -0.2374
vn -0.9884 -0.0000 -0.1522
vn -0.9940 -0.0000 -0.1090
vn 0.9969 0.0049 -0.0779
vn 0.9999 0.0063 0.0109
vn 0.9766 0.0022 0.2150
vn 0.9113 0.0063 -0.4117
vn 0.7971 0.0025 -0.6039
vn 0.9113 0.0063 -0.4118
vn 0.8920 -0.0002 -0.4520
vn 0.6847 0.0056 -0.7288
vn 0.6024 0.0043 -0.7982
vn 0.3829 0.0091 -0.9238
vn 0.0003 0.0039 -1.0000
vn 0.3828 0.0065 -0.9238
vn 0.1984 0.0038 -0.9801
vn 0.0004 0.0043 -1.0000
vn -0.3141 0.0056 -0.9494
vn -0.3828 0.0065 -0.9238
vn -0.6844 0.0056 -0.7291
vn -0.7967 0.0025 -0.6043
vn -0.6845 0.0056 -0.7290
vn -0.6388 0.0002 -0.7693
vn -0.9113 0.0063 -0.4117
vn -0.9412 0.0053 -0.3377
vn -0.9999 0.0062 0.0104
vn -0.9768 0.0022 0.2142
vn -0.9999 0.0062 0.0105
vn -0.9998 -0.0009 0.0194
vn -0.9198 0.0060 0.3923
vn -0.8767 0.0046 0.4810
vn -0.6691 0.0060 0.7431
vn -0.4710 0.0031 0.8821
vn -0.6691 0.0060 0.7432
vn -0.6071 0.0013 0.7947
vn -0.3343 0.0049 0.9425
vn -0.0942 0.0050 0.9955
vn -0.0000 0.0069 1.0000
vn 0.3340 0.0067 0.9426
vn 0.4705 0.0031 0.8824
vn 0.3341 0.0049 0.9425
vn 0.2433 0.0017 0.9700
vn 0.6691 0.0060 0.7432
vn 0.7194 0.0058 0.6945
vn 0.9197 0.0060 0.3926
vn 0.9197 0.0060 0.3925
vn 0.9091 -0.0008 0.4165
vt -5.703000 -2.746000
vt -6.936000 -2.859000
vt -7.068000 2.861000
vt -5.703000 2.746000
vt -3.494000 -1.682000
vt -3.494000 1.682000
vt -9.275000 -2.659000
vt -9.506000 2.618000
vt -12.132000 1.754000
vt -12.187000 -1.710000
vt -13.338000 -0.362000
vt -13.349000 0.214000
vt -13.165000 0.824000
vt -5.703000 -8.449000
vt -6.703000 -8.449000
vt -7.984000 -9.844000
vt -2.859000 -9.795000
vt -6.093000 -5.854000
vt -8.672000 -8.278000
vt -6.703000 -8.448999
vt 0.824000 -12.341000
vt 0.214000 -13.135000
vt -0.873000 -13.239000
vt -0.274000 -12.489000
vt 1.746000 -2.957000
vt 1.860000 -4.124000
vt -0.386000 -3.851000
vt -0.239000 -2.048000
vt 1.633000 -6.783000
vt -0.409000 -7.236000
vt 0.710000 -10.472000
vt -0.608000 -10.694000
vt -0.878000 -12.844000
vt -3.605000 -6.052000
vt -2.949000 -3.536000
vt -0.409000 -7.236000
vt -3.512000 -9.355000
vt -0.608000 -10.694000
vt -2.669000 -12.105000
vt -1.522000 -13.286000
vt -14.303000 -13.798000
vt -1.766000 -13.731000
vt -13.182000 -13.892000
vt -3.453000 -13.530000
vt -14.778000 -12.105000
vt -2.710000 -13.892000
vt -11.915000 -11.500000
vt -10.377000 -12.014000
vt -12.871000 -9.355000
vt -9.661000 -6.052000
vt -6.489000 -3.536000
vt -3.653000 -2.741000
vt -4.250999 -2.035000
vt -0.910000 -0.958000
vt -2.659000 -11.934000
vt -1.710000 -13.897000
vt -13.338000 -13.700000
vt -12.187000 -13.897000
vt -0.362000 -13.700000
vt 1.754000 -10.378000
vt 2.618000 -6.888000
vt 2.861000 -4.207000
vt 2.746000 -2.957000
vt -5.702669 2.746673
vt -6.559778 3.640215
vt -2.170011 7.309779
vt -1.408858 6.170880
vt -3.493512 1.683004
vt -0.863436 3.780424
vt -7.861755 5.593613
vt -3.880065 9.064373
vt -6.192851 10.578760
vt -8.935402 8.461995
vt -8.599133 10.202350
vt -8.155656 10.570080
vt -7.564017 10.806550
vt -5.702669 -2.955996
vt -6.702669 -2.955996
vt -7.590487 -2.913368
vt -6.559778 -2.919563
vt -0.239491 -2.048722
vt -8.124449 -2.157459
vt 10.806550 3.242531
vt 10.570080 2.414419
vt 9.529123 2.294849
vt 9.784537 3.112726
vt -2.408858 4.762022
vt -3.118420 5.125061
vt -4.658070 4.085784
vt -3.117586 3.299925
vt 8.003360 5.191136
vt 6.115302 4.490417
vt 9.590421 4.331995
vt 8.328444 3.913686
vt 9.343381 2.726420
vt -7.380044 0.961401
vt -5.155344 0.563018
vt 6.115301 4.490417
vt 3.802831 1.484398
vt 8.328445 3.913686
vt 6.795864 1.919834
vt 8.865394 2.103706
vt 8.865393 2.103705
vt 9.092057 1.410765
vt 8.789346 1.479901
vt 7.458085 -0.474199
vt 6.549200 -0.079620
vt 6.549201 -0.079620
vt 8.789345 1.479901
vt -9.932284 -0.474199
vt -10.061670 -1.522195
vt -8.908152 -2.221074
vt 3.433471 -1.522195
vt -7.380045 0.961401
vt -6.093231 -2.048722
vt -3.651908 -0.957647
vt -3.484802 0.322222
vt -2.258064 1.546475
vt -7.861755 -2.268142
vt -8.935402 -0.473407
vt 10.202340 1.603213
vt 8.461994 -0.473407
vt 10.578760 4.385912
vt 9.064373 5.184308
vt -2.170012 5.139768
vt -1.408858 4.762022
vt -1.408858 -6.170880
vt -2.089274 -7.205331
vt -6.643642 -3.742169
vt -5.702669 -2.746673
vt -0.863436 -3.780424
vt -3.493512 -1.683004
vt -3.703983 -8.909332
vt -7.973726 -5.799779
vt -8.935511 -8.391561
vt -6.261543 -10.594330
vt -8.033087 -10.653750
vt -8.490279 -10.303220
vt -8.852473 -9.779037
vt -1.408858 -7.579738
vt -2.408858 -7.579738
vt -3.118420 -9.361902
vt -2.089274 -9.294605
vt -3.117586 -5.251098
vt -4.656250 -8.165041
vt -8.852473 -18.631510
vt -10.303220 -18.793501
vt -11.370760 -18.803619
vt -9.807029 -18.686260
vt -3.746673 -8.449342
vt -4.677119 -10.267610
vt -5.971817 -8.887903
vt -4.044509 -5.853741
vt -6.720062 -13.649400
vt -8.544012 -13.513570
vt -9.458085 -17.390369
vt -10.613730 -17.248890
vt -11.432970 -18.742630
vt -10.879230 -18.686260
vt -8.338951 -8.508123
vt -5.715868 -4.972339
vt -10.828340 -13.149900
vt -12.135370 -17.014530
vt -11.909390 -18.671080
vt -9.951662 -18.742630
vt -11.709310 -18.616590
vt -11.987000 -18.602180
vt -7.258426 -16.848850
vt -8.470860 -16.792021
vt -8.907281 -18.616590
vt -9.259178 -18.602180
vt -10.221160 -17.014530
vt -9.805688 -18.671080
vt -6.718560 -12.818070
vt -4.784780 -12.760140
vt -6.718561 -12.818080
vt -9.349560 -13.149900
vt -7.383172 -8.508123
vt -5.158471 -4.972339
vt -2.260251 -2.460325
vt -3.484802 -2.859826
vt -2.692232 -2.741081
vt -3.807024 -2.859826
vt -3.703983 -12.613320
vt -6.261543 -16.855869
vt -8.033086 -18.686840
vt -10.653750 -18.686840
vt -8.391561 -17.327070
vt -5.799779 -13.773510
vt -3.742170 -10.385810
vt -2.746673 -8.449342
vt 3.946189 -4.948986
vt 4.330724 -6.125929
vt -1.216503 -7.527434
vt -1.408126 -6.171066
vt 2.417317 -3.032127
vt -0.862347 -3.780684
vt 4.656212 -8.450795
vt -0.437092 -9.850242
vt 0.989586 -12.218150
vt 4.378982 -11.500960
vt 3.320896 -12.923060
vt 2.761784 -13.061960
vt 2.126133 -13.018310
vt 3.946189 -1.002796
vt 2.946189 -1.002796
vt 3.342379 -1.830125
vt 4.330724 -1.795206
vt 0.592468 -0.694025
vt 0.898866 -1.903661
vt 2.946189 -1.002797
vt 3.342379 -1.830124
vt -13.018310 -10.892180
vt 2.761784 -10.300170
vt 1.850386 -10.208790
vt -14.045250 -10.812450
vt -7.171065 -7.579191
vt -8.445318 -8.679539
vt -9.025387 -7.232069
vt -6.417404 -5.251519
vt -1.471742 -10.237580
vt -2.547250 -9.615190
vt 0.043608 -11.213500
vt -0.716793 -10.815070
vt 1.203729 -10.527740
vt -14.154280 -10.815070
vt -9.509670 -4.557485
vt -6.400747 -2.664422
vt -12.163940 -9.615190
vt -12.636870 -7.042696
vt 0.021100 -9.111823
vt 1.434401 -9.996519
vt 1.434400 -9.996519
vt 2.442774 -9.416572
vt 2.067492 -9.465604
vt 3.377869 -7.118219
vt 2.047870 -7.409355
vt 2.047870 -7.409356
vt 1.614633 -4.483914
vt 3.657460 -3.897673
vt 1.614633 -4.483913
vt -1.433830 -7.042696
vt -2.261814 -4.557485
vt -5.570493 -0.694025
vt -3.408553 -0.326980
vt -4.199982 -1.531154
vt -3.804108 -2.460084
vt 4.656212 -3.794583
vt 4.378982 -7.121981
vt 3.320896 -9.602167
vt 4.378982 -7.121980
vt 0.989586 -11.228560
vt -0.437092 -10.287330
vt -1.216503 -8.743937
vt -1.408126 -7.579192
vt -1.408126 6.171066
vt -1.243926 7.398299
vt 4.362046 6.254175
vt 3.946189 4.948986
vt -0.862347 3.780684
vt 2.417317 3.032127
vt -0.528466 9.634156
vt 4.667642 8.685126
vt 4.409640 11.437550
vt 1.044721 12.261980
vt 2.615047 13.084170
vt 3.179054 12.966720
vt 3.732818 12.651600
vt 6.171066 4.762939
vt 5.171066 4.762939
vt 6.445318 6.211098
vt 7.398299 6.154372
vt 2.133404 3.299289
vt 3.789625 5.587702
vt 5.171065 4.762939
vt 12.651600 16.384411
vt 12.966720 16.145781
vt 12.002650 16.100670
vt 11.722150 16.370550
vt 2.946189 8.895175
vt 3.342379 10.514880
vt 0.909856 8.945919
vt 0.592468 6.162961
vt 3.662239 13.256280
vt 1.623500 12.835500
vt 3.377869 15.873960
vt 2.052008 15.574330
vt 2.067517 16.243839
vt 2.648401 16.370550
vt -2.257914 7.250867
vt -2.161774 4.238083
vt -1.429930 11.206040
vt 2.052007 15.574330
vt 0.024999 14.499030
vt 11.430920 15.909320
vt 11.534320 16.243839
vt 12.079640 15.557230
vt 11.730690 15.576450
vt 11.257110 13.300720
vt 10.089630 13.430750
vt 9.132032 14.499030
vt 7.050043 9.601874
vt 8.728703 9.244383
vt 5.607975 11.206040
vt 2.294781 7.250867
vt 0.497857 4.238083
vt 0.200638 1.546835
vt -0.232018 2.436810
vt -0.520701 2.886432
vt -1.763172 2.436810
vt 9.634156 9.105690
vt 12.261980 13.306700
vt 13.084170 15.699210
vt 4.409640 15.847190
vt 3.732818 16.384411
vt 4.667642 13.352770
vt 4.362046 10.616220
vt 3.946189 8.895175
vt 3.946797 4.948482
vt 5.008665 5.585265
vt 7.609386 0.488989
vt 6.329666 0.000354
vt 2.418203 3.031408
vt 3.877775 0.000545
vt 7.202809 6.419916
vt 9.700518 1.765724
vt 11.691590 3.683531
vt 10.238190 6.828355
vt 11.860070 6.113243
vt 12.119900 5.599056
vt 12.218790 4.969631
vt 4.948482 8.895279
vt 3.948482 8.895279
vt 4.606992 10.658470
vt 5.585265 10.593930
vt 1.286806 6.162865
vt 2.015664 9.125196
vt 3.948481 8.895279
vt 12.218790 17.188419
vt 12.119900 17.718960
vt 11.097470 17.782280
vt 11.221310 17.300930
vt 5.329666 6.330020
vt 6.533271 7.986714
vt 3.828007 7.069538
vt 2.243406 4.385120
vt 8.625938 11.339100
vt 6.826663 11.515110
vt 10.717550 15.462420
vt 9.502460 15.507100
vt 10.842400 17.529230
vt 1.848340 8.080248
vt 0.237500 4.721765
vt 6.826662 11.515110
vt 4.917244 12.489260
vt 8.237911 16.160101
vt 10.448290 17.734819
vt 10.770830 17.988720
vt 10.456540 17.943541
vt 5.826185 17.059870
vt 4.502131 16.827431
vt 5.217885 17.988720
vt 4.842994 17.943541
vt 2.580184 16.160101
vt 4.242530 17.734819
vt 3.435258 13.495500
vt 5.444350 13.748600
vt 0.544014 12.489260
vt -0.982093 8.080248
vt -1.417735 4.721765
vt -0.197025 2.886517
vt -1.333054 2.716419
vt 0.251815 2.052828
vt -0.382526 2.716419
vt 6.419916 13.622720
vt 6.828355 17.066540
vt 6.113242 17.973310
vt 6.828354 17.066540
vt 11.860070 17.973310
vt 11.691590 15.375120
vt 9.700518 11.466240
vt 7.609386 8.098375
vt 6.329666 6.330020
vt 7.489591 -0.433518
vt 5.126725 -5.644339
vt 3.946797 -4.948482
vt 3.877775 -0.000545
vt 2.418203 -3.031408
vt 9.510182 -1.628558
vt 7.428722 -6.483202
vt 10.169540 -6.844133
vt 11.722060 -3.747037
vt 12.174200 -5.460940
vt 11.934200 -5.984672
vt 11.503750 -6.454430
vt -0.000354 6.329312
vt -1.000354 6.329312
vt -1.453444 7.079827
vt -0.433518 7.056072
vt -2.141714 4.385692
vt -3.242961 5.791263
vt 11.503750 5.049323
vt 11.934200 5.949526
vt 10.987260 6.073599
vt 10.591320 5.203493
vt -5.948481 -1.001684
vt -6.606992 -0.555514
vt -7.247244 -0.130267
vt -5.570806 -0.694747
vt -7.457668 0.883459
vt 4.970524 1.523725
vt 9.233682 3.407497
vt 8.270240 3.762840
vt 10.457980 5.614885
vt 1.898977 -0.130267
vt 1.846604 2.825093
vt -4.487869 1.649894
vt 4.915508 4.367891
vt 8.270241 3.762841
vt 8.236176 5.652389
vt 10.448290 6.205758
vt 10.448290 6.205757
vt 11.200370 6.874448
vt 10.841830 6.798898
vt 10.717550 7.972683
vt 9.494389 7.552814
vt -4.744868 7.972683
vt -4.688711 7.226805
vt -2.692635 7.899901
vt 6.809516 7.226806
vt -7.575617 4.367891
vt -6.235512 2.825093
vt -1.803249 2.052600
vt -3.098946 0.950528
vt -3.408343 -0.326570
vt -1.628558 7.881625
vt -3.747037 7.975019
vt 12.174200 6.713261
vt 11.722060 7.975019
vt 10.169540 3.325409
vt -6.483202 0.945520
vt -5.644339 -0.517613
vt -4.948482 -1.001684
vt 4.000000 4.000000
vt 10.000000 4.000000
vt 9.965600 3.443600
vt 3.965600 3.443600
vt 9.863600 2.828400
vt 3.863600 2.828400
vt 9.695601 2.164800
vt 3.695600 2.164800
vt 9.464000 1.464000
vt 3.464000 1.464000
vt 9.173600 0.738400
vt 3.173600 0.738400
vt 8.828400 0.000000
vt 2.828400 0.000000
vt 8.435200 -0.738400
vt 2.435200 -0.738400
vt 8.000000 -1.464000
vt 2.000000 -1.464000
vt 7.530800 -2.164800
vt 1.530800 -2.164800
vt 7.035200 -2.828400
vt 1.035200 -2.828400
vt 6.522000 -3.443600
vt 0.522000 -3.443600
vt 6.000000 -4.000000
vt -4.000000 -4.000000
vt 2.034400 -4.487600
vt -3.965600 -4.487600
vt 2.136400 -4.898800
vt -3.863600 -4.898800
vt 2.304400 -5.226400
vt -3.695600 -5.226400
vt 2.536000 -5.464000
vt -3.464000 -5.464000
vt 2.826400 -5.608800
vt -3.173600 -5.608800
vt 3.171600 -5.656800
vt -2.828400 -5.656800
vt 2.000000 -4.000000
vt 0.000000 -4.000000
vt 9.965600 4.487600
vt 3.965600 4.487600
vt 9.863600 4.898800
vt 3.863600 4.898800
vt 9.695601 5.226400
vt 3.695600 5.226400
vt 9.464000 5.464000
vt 3.464000 5.464000
vt 9.173600 5.608800
vt 3.173600 5.608800
vt 8.828400 5.656800
vt 2.828400 5.656800
vt 6.000000 8.000000
vt 5.739000 7.982800
vt 5.478000 9.965600
vt 6.000000 10.000000
vt 5.482400 7.931800
vt 4.964800 9.863600
vt 5.234600 7.847800
vt 4.469200 9.695601
vt 5.000000 7.732000
vt 4.000000 9.464000
vt 4.782400 7.586800
vt 3.564800 9.173600
vt 4.585800 7.414200
vt 3.171600 8.828400
vt 4.413200 7.217600
vt 2.826400 8.435200
vt 4.268000 7.000000
vt 2.536000 8.000000
vt 4.152200 6.765400
vt 2.304400 7.530800
vt 4.068200 6.517600
vt 2.136400 7.035200
vt 4.017200 6.261000
vt 2.034400 6.522000
vt 4.000000 6.000000
vt 2.000000 6.000000
vt 4.017200 5.739000
vt 2.034400 5.478000
vt 4.068200 5.482400
vt 2.136400 4.964800
vt 4.152200 5.234600
vt 2.304400 4.469200
vt 4.268000 5.000000
vt 2.536000 4.000000
vt 4.413200 4.782400
vt 2.826400 3.564800
vt 4.585800 4.585800
vt 3.171600 3.171600
vt 4.782400 4.413200
vt 3.564800 2.826400
vt 5.000000 4.268000
vt 4.000000 2.536000
vt 5.234600 4.152200
vt 4.469200 2.304400
vt 5.482400 4.068200
vt 4.964800 2.136400
vt 5.739000 4.017200
vt 5.478000 2.034400
vt 6.000000 4.000000
vt 6.000000 2.000000
vt 6.261000 4.017200
vt 6.522000 2.034400
vt 6.517600 4.068200
vt 7.035200 2.136400
vt 6.765400 4.152200
vt 7.530800 2.304400
vt 7.000000 4.268000
vt 8.000000 2.536000
vt 7.217600 4.413200
vt 8.435200 2.826400
vt 7.414200 4.585800
vt 8.828400 3.171600
vt 7.586800 4.782400
vt 9.173600 3.564800
vt 7.732000 5.000000
vt 9.464000 4.000000
vt 7.847800 5.234600
vt 9.695601 4.469200
vt 7.931800 5.482400
vt 9.863600 4.964800
vt 7.982800 5.739000
vt 9.965600 5.478000
vt 8.000000 6.000000
vt 10.000000 6.000000
vt 7.982800 6.261000
vt 9.965600 6.522000
vt 7.931800 6.517600
vt 9.863600 7.035200
vt 7.847800 6.765400
vt 9.695601 7.530800
vt 7.732000 7.000000
vt 9.464000 8.000000
vt 7.586800 7.217600
vt 9.173600 8.435200
vt 7.414200 7.414200
vt 8.828400 8.828400
vt 7.217600 7.586800
vt 8.435200 9.173600
vt 7.000000 7.732000
vt 8.000000 9.464000
vt 6.765400 7.847800
vt 7.530800 9.695601
vt 6.517600 7.931800
vt 7.035200 9.863600
vt 6.261000 7.982800
vt 6.522000 9.965600
vt -2.258000 1.547000
vt 8.000000 2.000000
vt -0.232000 2.437000
vt 5.235000 1.083000
vt -3.485000 0.322000
vt 4.586000 0.000000
vt -3.652000 -0.958000
vt 4.152000 -1.083000
vt 4.000000 -2.000000
vt -3.652000 -0.958000
vt -4.251000 -2.035000
vt 4.152000 -2.613000
vt 4.586000 -2.828000
vt -3.807000 -2.860000
vt -3.804000 -2.460000
vt -4.200000 -1.531000
vt -3.408000 -0.326000
vt -3.099000 0.950000
vt -1.803000 2.053000
vt 7.848000 2.613000
vt -0.383000 2.716000
vt 0.252000 2.053000
vt 7.414000 2.828000
vt -0.197000 2.886000
s 1
usemtl 30.005
f 3/1/1 2/2/1 1/3/1
f 1/3/1 4/4/1 3/1/1
f 5/5/1 3/1/1 4/4/1
f 4/4/1 6/6/1 5/5/1
f 2/2/1 8/7/1 7/8/1
f 7/8/1 1/3/1 2/2/1
f 9/9/1 7/8/1 8/7/1
f 8/7/1 10/10/1 9/9/1
f 9/9/1 12/11/1 11/12/1
f 11/12/1 13/13/1 9/9/1
f 9/9/1 10/10/1 12/11/1
f 16/14/2 15/15/3 14/16/4
f 14/16/4 17/17/5 16/14/2
f 14/16/4 19/18/6 18/19/7
f 21/20/8 19/18/6 20/16/8
f 24/21/9 23/22/10 22/23/11
f 25/24/12 24/21/9 22/23/11
f 28/25/13 27/26/14 26/27/15
f 29/28/16 28/25/13 26/27/15
f 31/29/17 30/30/18 27/26/14
f 26/27/15 27/26/14 30/30/18
f 33/31/19 32/32/20 31/29/17
f 30/30/18 31/29/17 32/32/20
f 33/31/19 35/33/21 34/32/22
f 36/24/23 35/33/21 33/31/19
f 39/28/24 38/27/25 37/34/26
f 40/35/27 39/28/24 37/34/26
f 42/36/28 41/37/29 37/34/26
f 37/34/26 38/27/25 42/36/28
f 44/38/30 43/39/31 41/37/29
f 41/37/29 42/36/28 44/38/30
f 43/39/31 44/38/30 35/33/32
f 35/33/32 45/40/33 43/39/31
f 22/23/11 47/40/34 46/33/35
f 22/23/11 49/41/36 48/42/37
f 47/40/34 22/23/11 48/42/37
f 52/43/38 51/44/39 50/41/40
f 53/42/41 50/41/40 51/44/39
f 56/44/42 55/45/43 54/40/44
f 54/40/44 57/42/45 56/44/42
f 59/46/46 58/47/47 51/44/48
f 60/48/49 58/47/47 59/46/46
f 55/45/43 56/44/42 61/47/50
f 61/47/50 62/49/51 55/45/43
f 60/48/49 18/19/7 58/47/47
f 14/16/4 18/19/7 60/48/49
f 62/49/51 61/47/50 63/19/52
f 63/19/52 64/50/53 62/49/51
f 63/19/52 65/51/54 64/50/53
f 66/18/55 65/51/54 63/19/52
f 68/52/56 67/53/57 66/18/55
f 65/51/54 66/18/55 67/53/57
f 70/54/58 40/35/27 69/53/59
f 39/28/24 40/35/27 70/54/58
f 14/16/4 71/55/60 17/17/5
f 60/48/49 71/55/60 14/16/4
f 71/55/60 60/48/49 59/46/46
f 59/46/46 72/56/61 71/55/60
f 74/57/62 73/58/63 52/43/38
f 50/41/40 74/57/62 52/43/38
f 49/41/36 22/23/11 23/22/10
f 75/59/64 49/41/36 23/22/10
f 25/24/12 22/23/11 46/33/35
f 33/31/19 76/60/65 36/24/23
f 77/21/66 36/24/23 76/60/65
f 76/60/65 33/31/19 31/29/17
f 31/29/17 78/61/67 76/60/65
f 31/29/17 79/62/68 78/61/67
f 27/26/14 79/62/68 31/29/17
f 28/25/13 80/63/69 79/62/68
f 79/62/68 27/26/14 28/25/13
f 83/64/1 82/65/1 81/66/1
f 81/66/1 84/67/1 83/64/1
f 85/68/1 83/64/1 84/67/1
f 84/67/1 86/69/1 85/68/1
f 82/65/1 88/70/1 87/71/1
f 87/71/1 81/66/1 82/65/1
f 89/72/1 87/71/1 88/70/1
f 88/70/1 90/73/1 89/72/1
f 89/72/1 92/74/1 91/75/1
f 91/75/1 93/76/1 89/72/1
f 89/72/1 90/73/1 92/74/1
f 96/77/70 95/78/71 94/79/72
f 94/79/72 97/80/73 96/77/70
f 94/79/72 99/81/74 98/82/75
f 101/78/76 99/81/77 100/79/76
f 104/83/78 103/84/79 102/85/80
f 105/86/81 104/83/78 102/85/80
f 108/87/82 107/88/83 106/89/84
f 109/90/85 108/87/82 106/89/84
f 111/91/86 110/92/87 107/88/83
f 106/89/84 107/88/83 110/92/87
f 113/93/88 112/94/89 111/91/86
f 110/92/87 111/91/86 112/94/89
f 113/93/88 115/95/90 114/94/91
f 116/86/92 115/95/90 113/93/88
f 119/90/93 118/89/94 117/96/95
f 120/97/96 119/90/93 117/96/95
f 122/98/97 121/99/98 117/96/95
f 117/96/95 118/89/94 122/98/97
f 124/100/99 123/101/100 121/99/98
f 121/99/98 122/98/97 124/100/99
f 123/101/100 124/100/99 115/95/101
f 115/95/101 125/102/102 123/101/100
f 102/85/80 127/103/103 126/95/104
f 102/85/80 129/104/105 128/105/106
f 127/103/103 102/85/80 128/105/106
f 132/106/107 131/107/108 130/104/109
f 133/105/110 130/104/109 131/107/108
f 136/108/111 135/101/112 134/102/113
f 134/102/113 137/109/114 136/108/111
f 139/110/115 138/111/116 131/107/117
f 140/112/118 138/111/116 139/110/115
f 135/101/112 136/108/111 141/113/119
f 141/113/119 142/99/120 135/101/112
f 140/112/118 98/82/75 138/111/116
f 94/79/72 98/82/75 140/112/118
f 142/99/120 141/113/119 143/82/121
f 143/82/121 144/114/122 142/99/120
f 143/82/121 145/97/123 144/114/122
f 146/115/124 145/97/123 143/82/121
f 148/116/125 147/117/126 146/115/124
f 145/97/123 146/115/124 147/117/126
f 150/118/127 120/97/96 149/117/128
f 119/90/93 120/97/96 150/118/127
f 94/79/72 151/119/129 97/80/73
f 140/112/118 151/119/129 94/79/72
f 151/119/129 140/112/118 139/110/115
f 139/110/115 152/120/130 151/119/129
f 154/121/131 153/122/132 132/106/107
f 130/104/109 154/121/131 132/106/107
f 129/104/105 102/85/80 103/84/79
f 155/121/133 129/104/105 103/84/79
f 105/86/81 102/85/80 126/95/104
f 113/93/88 156/123/134 116/86/92
f 157/83/135 116/86/92 156/123/134
f 156/123/134 113/93/88 111/91/86
f 111/91/86 158/124/136 156/123/134
f 111/91/86 159/125/137 158/124/136
f 107/88/83 159/125/137 111/91/86
f 108/87/82 160/126/138 159/125/137
f 159/125/137 107/88/83 108/87/82
f 163/127/1 162/128/1 161/129/1
f 161/129/1 164/130/1 163/127/1
f 165/131/1 163/127/1 164/130/1
f 164/130/1 166/132/1 165/131/1
f 162/128/1 168/133/1 167/134/1
f 167/134/1 161/129/1 162/128/1
f 169/135/1 167/134/1 168/133/1
f 168/133/1 170/136/1 169/135/1
f 169/135/1 172/137/1 171/138/1
f 171/138/1 173/139/1 169/135/1
f 169/135/1 170/136/1 172/137/1
f 176/140/139 175/141/140 174/142/141
f 174/142/141 177/143/142 176/140/139
f 174/142/141 179/144/143 178/145/144
f 181/141/145 179/144/146 180/142/145
f 184/146/147 183/147/148 182/148/149
f 185/149/150 184/146/147 182/148/149
f 188/150/151 187/151/152 186/152/153
f 189/153/154 188/150/151 186/152/153
f 191/154/155 190/155/156 187/151/152
f 186/152/153 187/151/152 190/155/156
f 193/156/157 192/157/158 191/154/155
f 190/155/156 191/154/155 192/157/158
f 193/156/157 195/158/159 194/157/160
f 196/159/161 195/158/159 193/156/157
f 199/153/162 198/152/163 197/160/164
f 200/161/165 199/153/162 197/160/164
f 202/155/166 201/162/167 197/160/164
f 197/160/164 198/152/163 202/155/166
f 204/157/168 203/163/169 201/162/167
f 201/162/167 202/155/166 204/157/168
f 203/163/169 204/157/168 195/158/170
f 195/158/170 205/164/171 203/163/169
f 182/148/149 207/164/172 206/165/173
f 182/148/149 209/166/174 208/167/175
f 207/164/172 182/148/149 208/167/175
f 212/168/176 211/169/177 210/170/178
f 213/171/179 210/170/178 211/169/177
f 216/169/180 215/172/181 214/173/182
f 214/173/182 217/171/183 216/169/180
f 219/168/184 218/174/185 211/169/186
f 220/175/187 218/174/185 219/168/184
f 215/172/181 216/169/180 221/176/188
f 221/176/188 222/177/189 215/172/181
f 220/175/187 178/145/144 218/174/185
f 174/142/141 178/145/144 220/175/187
f 222/177/189 221/176/188 223/145/190
f 223/145/190 224/178/191 222/177/189
f 223/145/190 225/179/192 224/178/191
f 226/144/193 225/179/192 223/145/190
f 228/180/194 227/181/195 226/144/193
f 225/179/192 226/144/193 227/181/195
f 230/182/196 200/161/165 229/183/197
f 199/153/162 200/161/165 230/182/196
f 174/142/141 231/184/198 177/143/142
f 220/175/187 231/184/198 174/142/141
f 231/184/198 220/175/187 219/168/184
f 219/168/184 232/185/199 231/184/198
f 234/186/200 233/185/201 212/168/176
f 210/170/178 234/186/200 212/168/176
f 209/166/174 182/148/149 183/147/148
f 235/187/202 209/166/174 183/147/148
f 185/149/150 182/148/149 206/165/173
f 193/156/157 236/188/203 196/159/161
f 237/146/204 196/159/161 236/188/203
f 236/188/203 193/156/157 191/154/155
f 191/154/155 238/189/205 236/188/203
f 191/154/155 239/190/206 238/189/205
f 187/151/152 239/190/206 191/154/155
f 188/150/151 240/191/207 239/190/206
f 239/190/206 187/151/152 188/150/151
f 243/192/1 242/193/1 241/194/1
f 241/194/1 244/195/1 243/192/1
f 245/196/1 243/192/1 244/195/1
f 244/195/1 246/197/1 245/196/1
f 242/193/1 248/198/1 247/199/1
f 247/199/1 241/194/1 242/193/1
f 249/200/1 247/199/1 248/198/1
f 248/198/1 250/201/1 249/200/1
f 249/200/1 252/202/1 251/203/1
f 251/203/1 253/204/1 249/200/1
f 249/200/1 250/201/1 252/202/1
f 256/205/208 255/206/209 254/207/210
f 254/207/210 257/208/211 256/205/208
f 254/207/210 259/209/212 258/210/213
f 261/211/214 259/209/212 260/212/214
f 264/213/215 263/214/216 262/215/217
f 265/216/218 264/213/215 262/215/217
f 268/217/219 267/218/220 266/219/221
f 269/220/222 268/217/219 266/219/221
f 271/221/223 270/222/224 267/218/220
f 266/219/221 267/218/220 270/222/224
f 273/223/225 272/224/226 271/221/223
f 270/222/224 271/221/223 272/224/226
f 273/223/225 275/225/227 274/226/228
f 276/216/229 275/225/227 273/223/225
f 279/220/230 278/219/231 277/227/232
f 280/228/233 279/220/230 277/227/232
f 282/229/234 281/230/235 277/227/232
f 277/227/232 278/219/231 282/229/234
f 284/224/236 283/231/237 281/230/235
f 281/230/235 282/229/234 284/224/236
f 283/231/237 284/224/236 275/225/238
f 275/225/238 285/232/239 283/231/237
f 262/215/217 287/233/240 286/225/241
f 262/215/217 289/234/242 288/235/243
f 287/233/240 262/215/217 288/235/243
f 292/236/244 291/237/245 290/234/246
f 293/235/247 290/234/246 291/237/245
f 296/238/248 295/231/249 294/232/250
f 294/232/250 297/235/251 296/238/248
f 299/236/252 298/239/253 291/237/254
f 300/240/255 298/239/253 299/236/252
f 295/231/249 296/238/248 301/241/256
f 301/241/256 302/242/257 295/231/249
f 300/240/255 258/210/213 298/239/253
f 254/207/210 258/210/213 300/240/255
f 302/242/257 301/241/256 303/210/258
f 303/210/258 304/243/259 302/242/257
f 303/210/258 305/228/260 304/243/259
f 306/244/261 305/228/260 303/210/258
f 308/245/262 307/246/263 306/244/261
f 305/228/260 306/244/261 307/246/263
f 310/247/264 280/228/233 309/246/265
f 279/220/230 280/228/233 310/247/264
f 254/207/210 311/248/266 257/208/211
f 300/240/255 311/248/266 254/207/210
f 311/248/266 300/240/255 299/236/252
f 299/236/252 312/249/267 311/248/266
f 314/250/268 313/251/269 292/236/244
f 290/234/246 314/250/268 292/236/244
f 289/234/242 262/215/217 263/214/216
f 315/250/270 289/234/242 263/214/216
f 265/216/218 262/215/217 286/225/241
f 273/223/225 316/252/271 276/216/229
f 317/213/272 276/216/229 316/252/271
f 316/252/271 273/223/225 271/221/223
f 271/221/223 318/253/273 316/252/271
f 271/221/223 319/254/274 318/253/273
f 267/218/220 319/254/274 271/221/223
f 268/217/219 320/255/275 319/254/274
f 319/254/274 267/218/220 268/217/219
f 323/256/1 322/257/1 321/258/1
f 321/258/1 324/259/1 323/256/1
f 325/260/1 323/256/1 324/259/1
f 324/259/1 326/261/1 325/260/1
f 322/257/1 328/262/1 327/263/1
f 327/263/1 321/258/1 322/257/1
f 329/264/1 327/263/1 328/262/1
f 328/262/1 330/265/1 329/264/1
f 329/264/1 332/266/1 331/267/1
f 331/267/1 333/268/1 329/264/1
f 329/264/1 330/265/1 332/266/1
f 336/269/276 335/270/277 334/271/278
f 334/271/278 337/272/279 336/269/276
f 334/271/278 339/273/280 338/274/281
f 341/275/282 339/273/280 340/271/282
f 344/276/283 343/277/284 342/278/285
f 345/279/286 344/276/283 342/278/285
f 348/280/287 347/281/288 346/282/289
f 349/283/290 348/280/287 346/282/289
f 351/284/291 350/285/292 347/281/288
f 346/282/289 347/281/288 350/285/292
f 353/286/293 352/287/294 351/284/291
f 350/285/292 351/284/291 352/287/294
f 353/286/293 355/288/295 354/287/296
f 356/289/297 355/288/295 353/286/293
f 359/283/298 358/282/299 357/290/300
f 360/291/301 359/283/298 357/290/300
f 362/285/302 361/292/303 357/290/300
f 357/290/300 358/282/299 362/285/302
f 364/293/304 363/294/305 361/292/303
f 361/292/303 362/285/302 364/293/304
f 363/294/305 364/293/304 355/288/306
f 355/288/306 365/295/307 363/294/305
f 342/278/285 367/295/308 366/296/309
f 342/278/285 369/297/310 368/298/311
f 367/295/308 342/278/285 368/298/311
f 372/299/312 371/300/313 370/297/314
f 373/298/315 370/297/314 371/300/313
f 376/300/316 375/301/317 374/295/318
f 374/295/318 377/298/319 376/300/316
f 379/299/320 378/302/321 371/300/322
f 380/303/323 378/302/321 379/299/320
f 375/301/317 376/300/316 381/302/324
f 381/302/324 382/304/325 375/301/317
f 380/303/323 338/274/281 378/302/321
f 334/271/278 338/274/281 380/303/323
f 382/304/325 381/302/324 383/274/326
f 383/274/326 384/305/327 382/304/325
f 383/274/326 385/306/328 384/305/327
f 386/273/329 385/306/328 383/274/326
f 388/307/330 387/308/331 386/273/329
f 385/306/328 386/273/329 387/308/331
f 390/309/332 360/291/301 389/310/333
f 359/283/298 360/291/301 390/309/332
f 334/271/278 391/311/334 337/272/279
f 380/303/323 391/311/334 334/271/278
f 391/311/334 380/303/323 379/299/320
f 379/299/320 392/312/335 391/311/334
f 394/313/336 393/312/337 372/299/312
f 370/297/314 394/313/336 372/299/312
f 369/297/310 342/278/285 343/277/284
f 395/313/338 369/297/310 343/277/284
f 345/279/286 342/278/285 366/296/309
f 353/286/293 396/314/339 356/289/297
f 397/315/340 356/289/297 396/314/339
f 396/314/339 353/286/293 351/284/291
f 351/284/291 398/316/341 396/314/339
f 351/284/291 399/317/342 398/316/341
f 347/281/288 399/317/342 351/284/291
f 348/280/287 400/318/343 399/317/342
f 399/317/342 347/281/288 348/280/287
f 403/319/1 402/320/1 401/321/1
f 401/321/1 404/322/1 403/319/1
f 405/323/1 403/319/1 404/322/1
f 404/322/1 406/324/1 405/323/1
f 402/320/1 408/325/1 407/326/1
f 407/326/1 401/321/1 402/320/1
f 409/327/1 407/326/1 408/325/1
f 408/325/1 410/328/1 409/327/1
f 409/327/1 412/329/1 411/330/1
f 411/330/1 413/331/1 409/327/1
f 409/327/1 410/328/1 412/329/1
f 416/332/344 415/333/345 414/334/346
f 414/334/346 417/335/347 416/332/344
f 414/334/346 419/336/348 418/337/349
f 421/338/350 419/336/348 420/334/350
f 424/339/351 423/340/352 422/341/353
f 425/342/354 424/339/351 422/341/353
f 428/343/355 427/344/356 426/345/357
f 429/346/358 428/343/355 426/345/357
f 431/347/359 430/348/360 427/344/356
f 426/345/357 427/344/356 430/348/360
f 433/349/361 432/350/362 431/347/359
f 430/348/360 431/347/359 432/350/362
f 433/349/361 435/351/363 434/350/364
f 436/342/365 435/351/363 433/349/361
f 439/346/366 438/345/367 437/352/368
f 440/353/369 439/346/366 437/352/368
f 442/354/370 441/355/371 437/352/368
f 437/352/368 438/345/367 442/354/370
f 444/350/372 443/356/373 441/355/371
f 441/355/371 442/354/370 444/350/372
f 443/356/373 444/350/372 435/351/374
f 435/351/374 445/357/375 443/356/373
f 422/341/353 447/357/376 446/351/377
f 422/341/353 449/358/378 448/359/379
f 447/357/376 422/341/353 448/359/379
f 452/360/380 451/361/381 450/362/382
f 453/363/383 450/362/382 451/361/381
f 456/361/384 455/364/385 454/365/386
f 454/365/386 457/363/387 456/361/384
f 459/360/388 458/366/389 451/361/390
f 460/367/391 458/366/389 459/360/388
f 455/364/385 456/361/384 461/366/392
f 461/366/392 462/368/393 455/364/385
f 460/367/391 418/337/349 458/366/389
f 414/334/346 418/337/349 460/367/391
f 462/368/393 461/366/392 463/337/394
f 463/337/394 464/369/395 462/368/393
f 463/337/394 465/370/396 464/369/395
f 466/336/397 465/370/396 463/337/394
f 468/371/398 467/372/399 466/336/397
f 465/370/396 466/336/397 467/372/399
f 470/373/400 440/353/369 469/374/401
f 439/346/366 440/353/369 470/373/400
f 414/334/346 471/375/402 417/335/347
f 460/367/391 471/375/402 414/334/346
f 471/375/402 460/367/391 459/360/388
f 459/360/388 472/376/403 471/375/402
f 474/377/404 473/378/405 452/360/380
f 450/362/382 474/377/404 452/360/380
f 449/358/378 422/341/353 423/340/352
f 475/379/406 449/358/378 423/340/352
f 425/342/354 422/341/353 446/351/377
f 433/349/361 476/380/407 436/342/365
f 477/339/408 436/342/365 476/380/407
f 476/380/407 433/349/361 431/347/359
f 431/347/359 478/381/409 476/380/407
f 431/347/359 479/382/410 478/381/409
f 427/344/356 479/382/410 431/347/359
f 428/343/355 480/383/411 479/382/410
f 479/382/410 427/344/356 428/343/355
f 404/322/1 482/384/1 481/385/1
f 481/385/1 483/386/1 404/322/1
f 484/387/1 404/322/1 483/386/1
f 483/386/1 485/388/1 484/387/1
f 482/384/1 487/389/1 486/390/1
f 486/390/1 481/385/1 482/384/1
f 488/391/1 486/390/1 487/389/1
f 487/389/1 489/392/1 488/391/1
f 488/391/1 491/393/1 490/394/1
f 490/394/1 492/395/1 488/391/1
f 488/391/1 489/392/1 491/393/1
f 495/396/412 494/397/413 493/398/414
f 493/398/414 496/399/415 495/396/412
f 493/398/414 498/400/416 497/401/417
f 500/397/418 498/400/419 499/398/418
f 503/402/420 502/403/421 501/404/422
f 504/405/423 503/402/420 501/404/422
f 507/406/424 506/407/425 505/408/426
f 508/409/427 507/406/424 505/408/426
f 510/410/428 509/411/429 506/407/425
f 505/408/426 506/407/425 509/411/429
f 512/412/430 511/413/431 510/410/428
f 509/411/429 510/410/428 511/413/431
f 512/412/430 514/414/432 513/413/433
f 515/405/434 514/414/432 512/412/430
f 518/409/435 517/415/436 516/416/437
f 519/417/438 518/409/435 516/416/437
f 521/411/439 520/418/440 516/416/437
f 516/416/437 517/415/436 521/411/439
f 523/419/441 522/420/442 520/418/440
f 520/418/440 521/411/439 523/419/441
f 522/420/442 523/419/441 514/414/443
f 514/414/443 524/421/444 522/420/442
f 501/404/422 526/422/445 525/414/446
f 501/404/422 528/423/447 527/424/448
f 526/422/445 501/404/422 527/424/448
f 531/425/449 530/426/450 529/423/451
f 532/424/452 529/423/451 530/426/450
f 535/426/453 534/420/454 533/421/455
f 533/421/455 536/424/456 535/426/453
f 538/427/457 537/428/458 530/426/459
f 539/429/460 537/428/458 538/427/457
f 534/420/454 535/426/453 540/430/461
f 540/430/461 541/431/462 534/420/454
f 539/429/460 497/401/417 537/428/458
f 493/398/414 497/401/417 539/429/460
f 541/431/462 540/430/461 542/401/463
f 542/401/463 543/432/464 541/431/462
f 542/401/463 544/417/465 543/432/464
f 545/400/466 544/417/465 542/401/463
f 547/433/467 546/434/468 545/400/466
f 544/417/465 545/400/466 546/434/468
f 549/435/469 519/417/438 548/434/470
f 518/409/435 519/417/438 549/435/469
f 493/398/414 550/436/471 496/399/415
f 539/429/460 550/436/471 493/398/414
f 550/436/471 539/429/460 538/427/457
f 538/427/457 551/437/472 550/436/471
f 553/438/473 552/439/474 531/425/449
f 529/423/451 553/438/473 531/425/449
f 528/423/447 501/404/422 502/403/421
f 554/438/475 528/423/447 502/403/421
f 504/405/423 501/404/422 525/414/446
f 512/412/430 555/440/476 515/405/434
f 556/402/477 515/405/434 555/440/476
f 555/440/476 512/412/430 510/410/428
f 510/410/428 557/441/478 555/440/476
f 510/410/428 558/442/479 557/441/478
f 506/407/425 558/442/479 510/410/428
f 507/406/424 559/443/480 558/442/479
f 558/442/479 506/407/425 507/406/424
f 562/444/481 561/445/482 560/446/483
f 560/446/483 563/447/484 562/444/481
f 563/447/484 560/446/483 564/448/485
f 564/448/485 565/449/486 563/447/484
f 565/449/486 564/448/485 566/450/487
f 566/450/487 567/451/488 565/449/486
f 567/451/488 566/450/487 568/452/489
f 568/452/489 569/453/490 567/451/488
f 569/453/490 568/452/489 570/454/491
f 570/454/491 571/455/492 569/453/490
f 571/455/492 570/454/491 572/456/493
f 572/456/493 573/457/494 571/455/492
f 573/457/494 572/456/493 574/458/495
f 574/458/495 575/459/496 573/457/494
f 575/459/496 574/458/495 576/460/497
f 576/460/497 577/461/498 575/459/496
f 577/461/498 576/460/497 578/462/499
f 578/462/499 579/463/500 577/461/498
f 579/463/500 578/462/499 580/464/501
f 580/464/501 581/465/502 579/463/500
f 581/465/502 580/464/501 582/466/503
f 582/466/503 583/467/504 581/465/502
f 583/467/504 582/466/503 584/468/505
f 584/468/505 585/469/506 583/467/504
f 585/469/506 584/468/505 586/470/507
f 586/470/507 587/471/508 585/469/506
f 587/471/508 586/470/507 588/472/509
f 588/472/509 589/473/510 587/471/508
f 589/473/510 588/472/509 590/474/511
f 590/474/511 591/475/512 589/473/510
f 591/475/512 590/474/511 592/476/513
f 592/476/513 593/477/514 591/475/512
f 593/477/514 592/476/513 594/478/515
f 594/478/515 595/479/516 593/477/514
f 595/479/516 594/478/515 596/480/517
f 596/480/517 597/481/518 595/479/516
f 597/481/518 596/480/517 598/478/519
f 598/478/519 599/479/520 597/481/518
f 599/479/520 598/478/519 600/476/521
f 600/476/521 601/477/522 599/479/520
f 601/477/522 600/476/521 602/474/523
f 602/474/523 603/475/524 601/477/522
f 603/475/524 602/474/523 604/472/525
f 604/472/525 605/473/526 603/475/524
f 605/473/526 604/472/525 606/470/527
f 606/470/527 607/471/528 605/473/526
f 607/471/528 606/470/527 608/482/529
f 608/482/529 609/483/530 607/471/528
f 609/483/530 608/482/529 610/466/531
f 610/466/531 611/467/532 609/483/530
f 611/467/532 610/466/531 612/464/533
f 612/464/533 613/465/534 611/467/532
f 613/465/534 612/464/533 614/462/535
f 614/462/535 615/463/536 613/465/534
f 615/463/536 614/462/535 616/460/537
f 616/460/537 617/461/538 615/463/536
f 617/461/538 616/460/537 618/458/539
f 618/458/539 619/459/540 617/461/538
f 619/459/540 618/458/539 620/456/541
f 620/456/541 621/457/542 619/459/540
f 621/457/542 620/456/541 622/454/543
f 622/454/543 623/455/544 621/457/542
f 623/455/544 622/454/543 624/452/545
f 624/452/545 625/453/546 623/455/544
f 625/453/546 624/452/545 626/450/547
f 626/450/547 627/451/548 625/453/546
f 627/451/548 626/450/547 628/448/549
f 628/448/549 629/449/550 627/451/548
f 629/449/550 628/448/549 630/446/551
f 630/446/551 631/447/552 629/449/550
f 631/447/552 630/446/551 632/445/553
f 632/445/553 633/444/554 631/447/552
f 633/444/554 632/445/553 634/484/555
f 634/484/555 635/485/556 633/444/554
f 635/485/556 634/484/555 636/486/557
f 636/486/557 637/487/558 635/485/556
f 637/487/558 636/486/557 638/488/559
f 638/488/559 639/489/560 637/487/558
f 639/489/560 638/488/559 640/490/561
f 640/490/561 641/491/562 639/489/560
f 641/491/562 640/490/561 642/492/563
f 642/492/563 643/493/564 641/491/562
f 643/493/564 642/492/563 644/494/565
f 644/494/565 645/495/566 643/493/564
f 645/495/566 644/494/565 646/492/567
f 646/492/567 647/493/568 645/495/566
f 647/493/568 646/492/567 648/490/569
f 648/490/569 649/491/570 647/493/568
f 649/491/570 648/490/569 650/488/571
f 650/488/571 651/489/572 649/491/570
f 651/489/572 650/488/571 652/486/573
f 652/486/573 653/487/574 651/489/572
f 653/487/574 652/486/573 654/484/575
f 654/484/575 655/485/576 653/487/574
f 655/485/576 654/484/575 561/445/482
f 561/445/482 562/444/481 655/485/576
f 656/496/1 657/497/1 658/498/1
f 658/498/1 659/499/1 656/496/1
f 657/497/1 660/500/1 661/501/1
f 661/501/1 658/498/1 657/497/1
f 660/500/1 662/502/1 663/503/1
f 663/503/1 661/501/1 660/500/1
f 662/502/1 664/504/1 665/505/1
f 665/505/1 663/503/1 662/502/1
f 664/504/1 666/506/1 667/507/1
f 667/507/1 665/505/1 664/504/1
f 666/506/1 668/508/1 669/509/1
f 669/509/1 667/507/1 666/506/1
f 668/508/1 670/510/1 671/511/1
f 671/511/1 669/509/1 668/508/1
f 670/510/1 672/512/1 673/513/1
f 673/513/1 671/511/1 670/510/1
f 672/512/1 674/514/1 675/515/1
f 675/515/1 673/513/1 672/512/1
f 674/514/1 676/516/1 677/517/1
f 677/517/1 675/515/1 674/514/1
f 676/516/1 678/518/1 679/519/1
f 679/519/1 677/517/1 676/516/1
f 678/518/1 680/520/1 681/521/1
f 681/521/1 679/519/1 678/518/1
f 680/520/1 682/522/1 683/523/1
f 683/523/1 681/521/1 680/520/1
f 682/522/1 684/524/1 685/525/1
f 685/525/1 683/523/1 682/522/1
f 684/524/1 686/526/1 687/527/1
f 687/527/1 685/525/1 684/524/1
f 686/526/1 688/528/1 689/529/1
f 689/529/1 687/527/1 686/526/1
f 688/528/1 690/530/1 691/531/1
f 691/531/1 689/529/1 688/528/1
f 690/530/1 692/532/1 693/533/1
f 693/533/1 691/531/1 690/530/1
f 692/532/1 694/534/1 695/535/1
f 695/535/1 693/533/1 692/532/1
f 694/534/1 696/536/1 697/537/1
f 697/537/1 695/535/1 694/534/1
f 696/536/1 698/538/1 699/539/1
f 699/539/1 697/537/1 696/536/1
f 698/538/1 700/540/1 701/541/1
f 701/541/1 699/539/1 698/538/1
f 700/540/1 702/542/1 703/543/1
f 703/543/1 701/541/1 700/540/1
f 702/542/1 704/544/1 705/545/1
f 705/545/1 703/543/1 702/542/1
f 704/544/1 706/546/1 707/547/1
f 707/547/1 705/545/1 704/544/1
f 706/546/1 708/548/1 709/549/1
f 709/549/1 707/547/1 706/546/1
f 708/548/1 710/550/1 711/551/1
f 711/551/1 709/549/1 708/548/1
f 710/550/1 712/552/1 713/553/1
f 713/553/1 711/551/1 710/550/1
f 712/552/1 714/554/1 715/555/1
f 715/555/1 713/553/1 712/552/1
f 714/554/1 716/556/1 717/557/1
f 717/557/1 715/555/1 714/554/1
f 716/556/1 718/558/1 719/559/1
f 719/559/1 717/557/1 716/556/1
f 718/558/1 720/560/1 721/561/1
f 721/561/1 719/559/1 718/558/1
f 720/560/1 722/562/1 723/563/1
f 723/563/1 721/561/1 720/560/1
f 722/562/1 724/564/1 725/565/1
f 725/565/1 723/563/1 722/562/1
f 724/564/1 726/566/1 727/567/1
f 727/567/1 725/565/1 724/564/1
f 726/566/1 728/568/1 729/569/1
f 729/569/1 727/567/1 726/566/1
f 728/568/1 730/570/1 731/571/1
f 731/571/1 729/569/1 728/568/1
f 730/570/1 732/572/1 733/573/1
f 733/573/1 731/571/1 730/570/1
f 732/572/1 734/574/1 735/575/1
f 735/575/1 733/573/1 732/572/1
f 734/574/1 736/576/1 737/577/1
f 737/577/1 735/575/1 734/574/1
f 736/576/1 738/578/1 739/579/1
f 739/579/1 737/577/1 736/576/1
f 738/578/1 740/580/1 741/581/1
f 741/581/1 739/579/1 738/578/1
f 740/580/1 742/582/1 743/583/1
f 743/583/1 741/581/1 740/580/1
f 742/582/1 744/584/1 745/585/1
f 745/585/1 743/583/1 742/582/1
f 744/584/1 746/586/1 747/587/1
f 747/587/1 745/585/1 744/584/1
f 746/586/1 748/588/1 749/589/1
f 749/589/1 747/587/1 746/586/1
f 748/588/1 750/590/1 751/591/1
f 751/591/1 749/589/1 748/588/1
f 750/590/1 656/496/1 659/499/1
f 659/499/1 751/591/1 750/590/1
f 754/592/577 753/593/578 752/594/579
f 755/595/580 753/593/578 754/592/577
f 757/596/581 755/595/582 756/592/583
f 758/597/584 755/595/582 757/596/581
f 759/598/585 758/597/584 757/596/581
f 760/599/586 758/597/584 759/598/585
f 762/600/587 760/599/588 761/601/589
f 761/601/589 763/602/590 762/600/587
f 762/600/587 763/602/590 764/52/591
f 764/52/591 765/603/592 762/600/587
f 766/604/593 765/603/592 764/52/591
f 768/605/594 766/604/595 767/52/596
f 769/603/597 766/604/595 768/605/594
f 770/606/598 769/603/597 768/605/594
f 771/600/599 769/603/597 770/606/598
f 773/607/600 771/600/601 772/606/602
f 774/599/603 771/600/601 773/607/600
f 775/608/604 774/599/603 773/607/600
f 776/597/605 774/599/603 775/608/604
f 778/609/606 776/597/607 777/608/608
f 779/595/609 776/597/607 778/609/606
f 780/610/610 779/595/609 778/609/606
f 781/545/611 779/595/609 780/610/610
f 782/611/612 781/545/611 780/610/610
f 784/612/613 782/611/614 783/613/615
f 785/614/616 782/611/614 784/612/613
f 786/615/617 785/614/616 784/612/613
f 787/611/618 785/614/616 786/615/617
f 752/594/579 787/611/619 788/615/620
f 753/593/578 787/611/619 752/594/579
