mtllib friends_assessories_flower_with_7_thin_petals_and_pin_medium_lavender.mtl
v -2.860993 6.000019 7.068003
v 2.859007 6.000019 6.935997
v 2.746006 6.000018 5.702998
v -2.745994 6.000018 5.703003
v 1.682003 6.000016 3.493999
v -1.681997 6.000016 3.494002
v -2.61799 6.000021 9.506002
v 2.659009 6.000021 9.274998
v -1.753988 6.000023 12.132
v 1.710012 6.000023 12.187
v -0.2139867 6.000025 13.349
v 0.3620133 6.000025 13.338
v -0.8239868 6.000024 13.165
v 2.860007 7.000019 6.983997
v 2.746006 7.000018 5.702997
v 2.746006 6.000018 5.702998
v 2.859007 6.000019 6.935997
v 2.218006 8.612018 6.059996
v 1.903004 8.142016 3.950997
v 2.860007 7.000019 6.983996
v 2.746006 7.000018 5.702997
v -0.1269866 7.000025 13.366
v -0.2139867 6.000025 13.349
v -0.8239868 6.000024 13.165
v -0.7259868 7.000024 13.215
v -2.222994 8.609018 6.074
v -2.859993 7.000019 6.984002
v -2.745994 7.000018 5.703002
v -1.902996 8.142016 3.951
v -2.138991 8.54802 9.375
v -2.632991 7.000021 9.416001
v -1.419988 8.028024 12.114
v -1.709988 7.000023 12.182
v -1.419988 8.028024 12.114
v -0.4429867 7.321024 13.287
v -0.7259868 7.000024 13.215
v -0.001993946 9.607018 6.053997
v -2.222994 8.609018 6.074
v -1.902996 8.142016 3.951
v -0.001996462 8.951015 3.537998
v -0.001990643 9.514021 9.356997
v -2.138991 8.548021 9.375
v -0.001987893 8.671023 12.107
v -1.419988 8.028024 12.114
v 1.3286E-05 7.522025 13.286
v -0.4429867 7.321024 13.287
v 1.3286E-05 7.522025 13.286
v 0.4440133 7.322024 13.287
v 0.4950133 7.000024 13.303
v 0.4950133 7.000024 13.303
v 1.421012 8.032023 12.109
v 1.710012 7.000023 12.182
v 0.4440133 7.322024 13.287
v 1.3286E-05 7.522025 13.286
v -0.001987893 8.671023 12.107
v 1.421012 8.032023 12.109
v 0.4440133 7.322024 13.287
v 2.138009 8.55302 9.361996
v 1.710012 7.000023 12.182
v 2.637009 7.000021 9.376997
v 2.138009 8.55302 9.361997
v -0.001990643 9.514021 9.356997
v 2.218006 8.612018 6.059996
v -0.001993946 9.607018 6.053997
v -0.001996462 8.951015 3.537998
v 1.903004 8.142016 3.950997
v 2.034995E-06 8.216014 2.034998
v 0.8900018 7.802014 1.850998
v 2.034995E-06 8.216014 2.034998
v -0.8919981 7.802014 1.85
v 2.659009 6.000021 9.274998
v 1.710012 6.000023 12.187
v 1.710012 6.000023 12.187
v 0.3620133 6.000025 13.338
v 0.3620133 6.000025 13.338
v -1.753988 6.000023 12.132
v -0.8239868 6.000024 13.165
v -2.61799 6.000021 9.506002
v -2.860993 6.000019 7.068003
v -2.745994 6.000018 5.703003
v -7.309777 6.000014 2.170019
v -3.640208 6.000019 6.559783
v -2.746667 6.000018 5.702672
v -6.170878 6.000014 1.408865
v -1.683 6.000016 3.493514
v -3.780423 6.000013 0.8634402
v -9.064369 6.000016 3.880074
v -5.593606 6.00002 7.861762
v -10.57876 6.000018 6.192862
v -8.461987 6.000021 8.93541
v -10.57007 6.00002 8.155667
v -10.20234 6.00002 8.599143
v -10.80654 6.000019 7.564029
v -3.677113 7.000019 6.590491
v -2.746667 7.000018 5.702671
v -2.746667 6.000018 5.702672
v -3.640208 6.000019 6.559783
v -3.354984 8.612018 5.51245
v -1.902505 8.142016 3.951232
v -3.677113 7.000019 6.590491
v -2.746667 7.000018 5.702671
v -10.52911 7.00002 8.234284
v -10.57007 6.00002 8.155667
v -10.80654 6.000019 7.564029
v -10.78453 7.00002 7.671822
v -6.134852 8.609015 2.049074
v -7.24348 7.000014 2.118427
v -6.170878 7.000014 1.408864
v -4.275511 8.142014 0.9755893
v -8.663298 8.548016 4.172891
v -9.003356 7.000016 3.812232
v -10.35644 8.028018 6.442768
v -10.59041 7.000018 6.258436
v -10.35644 8.028018 6.442768
v -10.66437 7.32102 7.937971
v -10.78453 7.00002 7.671822
v -4.734442 9.607016 3.773046
v -6.134852 8.609015 2.049074
v -4.275511 8.142014 0.9755893
v -2.767359 8.951015 2.204345
v -7.316825 9.514018 5.832437
v -8.663298 8.548017 4.172891
v -9.466856 8.67102 7.547038
v -10.35644 8.028018 6.442768
v -10.38739 7.52202 8.283697
v -10.66437 7.32102 7.937971
v -10.38738 7.52202 8.283697
v -10.11134 7.32202 8.631454
v -10.09205 7.000021 8.681302
v -10.09205 7.000021 8.681302
v -8.581191 8.032021 8.660828
v -8.458076 7.000021 8.932292
v -10.11134 7.32202 8.631454
v -10.38739 7.52202 8.283697
v -9.466856 8.67102 7.547038
v -8.581192 8.032021 8.660829
v -10.11134 7.322021 8.631454
v -5.986463 8.55302 7.50867
v -8.458076 7.000021 8.932292
v -5.687069 7.00002 7.908156
v -5.986464 8.55302 7.50867
v -7.316825 9.514018 5.832437
v -3.354984 8.612018 5.51245
v -4.734442 9.607016 3.773046
v -2.767359 8.951015 2.204345
v -1.902505 8.142016 3.951232
v -1.591023 8.216013 1.268802
v -0.8922594 7.802014 1.849908
v -1.591023 8.216013 1.268802
v -2.002538 7.802013 0.456065
v -5.593606 6.00002 7.861762
v -8.461987 6.000021 8.93541
v -8.461986 6.000021 8.93541
v -10.20234 6.00002 8.599142
v -10.20234 6.00002 8.599142
v -10.57876 6.000018 6.192862
v -10.80654 6.000019 7.564029
v -9.064369 6.000016 3.880074
v -7.309777 6.000014 2.170019
v -6.170878 6.000014 1.408865
v 3.742176 6.000019 6.643639
v 7.205333 6.000014 2.089268
v 6.170881 6.000014 1.408853
v 2.746679 6.000018 5.702666
v 3.780425 6.000013 0.8634326
v 1.683007 6.000016 3.493511
v 5.799787 6.00002 7.973721
v 8.909336 6.000016 3.703975
v 8.391569 6.000021 8.935503
v 10.59434 6.000018 6.261533
v 10.30323 6.00002 8.49027
v 10.65376 6.00002 8.033076
v 9.779045 6.000021 8.852464
v 7.243484 7.000014 2.118413
v 6.170881 7.000014 1.408852
v 6.170881 6.000014 1.408853
v 7.205333 6.000014 2.089268
v 6.120792 8.612014 2.044242
v 4.275513 8.142014 0.9755807
v 7.243484 7.000014 2.118413
v 6.170881 7.000014 1.408852
v 10.37076 7.00002 8.432849
v 10.30323 6.00002 8.49027
v 9.779045 6.000021 8.852464
v 9.879238 7.000021 8.807018
v 3.362823 8.609017 5.525081
v 3.677126 7.000019 6.590483
v 2.746679 7.000018 5.702665
v 1.902513 8.142016 3.951228
v 5.996019 8.548019 7.517545
v 5.72007 7.00002 7.929333
v 8.585741 8.02802 8.663146
v 8.458094 7.000021 8.932276
v 8.585741 8.02802 8.663146
v 10.11198 7.32102 8.630651
v 9.879238 7.000021 8.807018
v 4.731956 9.607016 3.776164
v 3.362823 8.609017 5.525081
v 1.902513 8.142016 3.951228
v 2.76487 8.951015 2.207466
v 7.314342 9.514018 5.835549
v 5.996019 8.548019 7.517545
v 9.464376 8.67102 7.550146
v 8.585742 8.028021 8.663147
v 10.3874 7.52202 8.283676
v 10.11198 7.32102 8.630651
v 10.3874 7.52202 8.283676
v 10.66501 7.32202 7.937167
v 10.70932 7.00002 7.90727
v 10.70932 7.00002 7.90727
v 10.35317 8.032019 6.438847
v 10.59043 7.000018 6.258415
v 10.66501 7.32202 7.937167
v 10.3874 7.52202 8.283676
v 9.464376 8.67102 7.550146
v 10.35317 8.032019 6.438848
v 10.66501 7.32202 7.937167
v 8.652517 8.553016 4.16555
v 10.59043 7.000018 6.258415
v 8.975367 7.000016 3.784771
v 8.652518 8.553016 4.16555
v 7.314342 9.514018 5.835549
v 6.120792 8.612014 2.044242
v 4.731956 9.607016 3.776164
v 2.76487 8.951015 2.207466
v 4.275513 8.142014 0.9755807
v 1.591025 8.216013 1.268799
v 2.002074 7.802013 0.4582481
v 1.591025 8.216013 1.268799
v 0.8902343 7.802014 1.850847
v 8.909336 6.000016 3.703975
v 10.59434 6.000018 6.261533
v 10.59434 6.000018 6.261533
v 10.65376 6.00002 8.033075
v 10.65376 6.00002 8.033075
v 8.391569 6.000021 8.935503
v 9.779045 6.000021 8.852464
v 5.799787 6.00002 7.973721
v 3.742176 6.000019 6.643639
v 2.746679 6.000018 5.702666
v 7.527436 6.000013 1.216496
v 6.125925 6.000009 -4.330729
v 4.948982 6.000009 -3.946194
v 6.171067 6.000014 1.408121
v 3.032125 6.00001 -2.41732
v 3.780685 6.000013 0.8623441
v 9.850242 6.000013 0.4370825
v 8.45079 6.000008 -4.65622
v 12.21815 6.000011 -0.9895972
v 11.50096 6.000009 -4.378993
v 13.06196 6.00001 -2.761797
v 12.92306 6.00001 -3.320909
v 13.01831 6.00001 -2.126146
v 6.1725 7.000009 -4.342386
v 4.948982 7.000009 -3.946195
v 4.948982 6.000009 -3.946194
v 6.125925 6.000009 -4.330729
v 5.414523 8.612009 -3.510873
v 3.42849 8.14201 -2.734473
v 6.172499 7.000009 -4.342386
v 4.948982 7.000009 -3.946194
v 13.05917 7.00001 -2.850399
v 13.06196 6.00001 -2.761797
v 13.01831 6.00001 -2.126146
v 13.04525 7.00001 -2.232816
v 6.416388 8.609014 0.8156747
v 7.44532 7.000013 1.234212
v 6.171067 7.000014 1.40812
v 4.275405 8.142014 0.9761095
v 9.615939 8.548012 -0.0007612431
v 9.765836 7.000013 0.4717322
v 12.12628 8.028011 -1.31122
v 12.25711 7.000011 -1.043621
v 12.12628 8.028011 -1.31122
v 13.05247 7.32101 -2.524743
v 13.04525 7.00001 -2.232816
v 5.902669 9.607011 -1.345195
v 6.416388 8.609014 0.8156747
v 4.275405 8.142014 0.9761095
v 3.449747 8.951012 -0.7853315
v 9.122864 9.51401 -2.080182
v 9.615939 8.548013 -0.0007612431
v 11.80392 8.67101 -2.692114
v 12.12628 8.028011 -1.31122
v 12.95292 7.52201 -2.956414
v 13.05247 7.32101 -2.524743
v 12.95292 7.52201 -2.956414
v 12.85509 7.322009 -3.389506
v 12.85934 7.000009 -3.442787
v 12.85934 7.000009 -3.442787
v 11.48922 8.032009 -4.079883
v 11.49608 7.000009 -4.377881
v 12.85509 7.322009 -3.389506
v 12.95292 7.52201 -2.956414
v 11.80392 8.67101 -2.692114
v 11.48922 8.032009 -4.079883
v 12.85509 7.32201 -3.389506
v 8.651543 8.553009 -4.167643
v 11.49608 7.000009 -4.377881
v 8.555128 7.000008 -4.657469
v 8.651543 8.553009 -4.167644
v 9.122864 9.51401 -2.080182
v 5.414523 8.612009 -3.510873
v 5.902669 9.607011 -1.345195
v 3.449747 8.951012 -0.7853315
v 3.42849 8.14201 -2.734473
v 1.983982 8.216012 -0.4528316
v 1.606551 7.802011 -1.279575
v 1.983982 8.216012 -0.4528316
v 2.002109 7.802013 0.4579724
v 8.45079 6.000008 -4.65622
v 11.50096 6.000009 -4.378993
v 11.50096 6.000009 -4.378993
v 12.92306 6.00001 -3.320909
v 12.92306 6.00001 -3.320909
v 12.21815 6.000011 -0.9895972
v 13.01831 6.00001 -2.126146
v 9.850242 6.000013 0.4370825
v 7.527436 6.000013 1.216496
v 6.171067 6.000014 1.408121
v -6.254179 6.000009 -4.36204
v -7.398297 6.000013 1.243934
v -6.171064 6.000014 1.408133
v -4.948989 6.000009 -3.946184
v -3.780683 6.000013 0.8623517
v -3.032129 6.00001 -2.417314
v -8.685131 6.000008 -4.667633
v -9.634155 6.000013 0.5284761
v -11.43756 6.000009 -4.409628
v -12.26198 6.000011 -1.044708
v -12.96672 6.00001 -3.179041
v -13.08417 6.00001 -2.615034
v -12.6516 6.000009 -3.732805
v -7.445317 7.000013 1.234227
v -6.171064 7.000014 1.408132
v -6.171064 6.000014 1.408133
v -7.398297 6.000013 1.243934
v -6.401624 8.612013 0.8139281
v -4.275403 8.142014 0.9761181
v -7.445317 7.000013 1.234227
v -6.171064 7.000014 1.408132
v -13.00266 7.00001 -3.098006
v -12.96672 6.00001 -3.179041
v -12.6516 6.000009 -3.732805
v -12.72215 7.000009 -3.648388
v -5.427066 8.609009 -3.518852
v -6.172508 7.000009 -4.342373
v -4.94899 7.000009 -3.946185
v -3.428495 8.14201 -2.734466
v -8.664002 8.548009 -4.171494
v -8.594049 7.000008 -4.662231
v -11.49433 8.028008 -4.079998
v -11.49609 7.000009 -4.377858
v -11.49433 8.028008 -4.079998
v -12.85532 7.321009 -3.388505
v -12.72215 7.000009 -3.648388
v -5.901783 9.607011 -1.349083
v -5.427066 8.609009 -3.518852
v -3.428495 8.14201 -2.734466
v -3.448858 8.951012 -0.7892243
v -9.121977 9.51401 -2.084063
v -8.664002 8.548009 -4.171494
v -11.80303 8.67101 -2.69599
v -11.49433 8.028008 -4.079998
v -12.95292 7.52201 -2.956388
v -12.85532 7.321009 -3.388505
v -12.95292 7.52201 -2.956388
v -13.0527 7.32201 -2.523742
v -13.07964 7.00001 -2.47758
v -13.07964 7.00001 -2.47758
v -12.12163 8.032011 -1.309108
v -12.25711 7.000011 -1.043597
v -13.0527 7.32201 -2.523742
v -12.95292 7.52201 -2.956388
v -11.80303 8.67101 -2.69599
v -12.12163 8.032011 -1.309108
v -13.0527 7.32201 -2.523742
v -9.603043 8.553013 0.001176049
v -12.25711 7.000011 -1.043597
v -9.728703 7.000013 0.4843295
v -9.603043 8.553013 0.00117581
v -9.121977 9.51401 -2.084063
v -6.401624 8.612013 0.8139281
v -5.901783 9.607011 -1.349083
v -3.448858 8.951012 -0.7892243
v -4.275403 8.142014 0.9761181
v -1.983983 8.216012 -0.4528277
v -2.002638 7.802013 0.4558041
v -1.983983 8.216012 -0.4528277
v -1.605134 7.802011 -1.281299
v -9.634155 6.000013 0.5284761
v -12.26198 6.000011 -1.044708
v -12.26198 6.000011 -1.044708
v -13.08417 6.00001 -2.615033
v -13.08417 6.00001 -2.615033
v -11.43756 6.000009 -4.409628
v -12.6516 6.000009 -3.732805
v -8.685131 6.000008 -4.667633
v -6.254179 6.000009 -4.362039
v -4.948989 6.000009 -3.946184
v -0.4889962 6.000005 -7.609385
v -5.58527 6.000008 -5.008659
v -4.948485 6.000009 -3.946792
v -0.0003603813 6.000007 -6.329666
v -3.031411 6.00001 -2.418199
v -0.0005490219 6.000009 -3.877775
v -1.765733 6.000003 -9.700516
v -6.419923 6.000006 -7.202802
v -3.683542 6.000002 -11.69159
v -6.828365 6.000003 -10.23818
v -5.599068 6.000001 -12.11989
v -6.113255 6.000001 -11.86007
v -4.969644 6.000001 -12.21878
v -5.606997 7.000008 -5.051473
v -4.948485 7.000009 -3.946793
v -4.948485 6.000009 -3.946792
v -5.58527 6.000008 -5.008659
v -4.627668 8.612008 -4.497529
v -3.428808 8.14201 -2.734057
v -5.606997 7.000008 -5.051472
v -4.948485 7.000009 -3.946793
v -5.684828 7.000001 -12.09746
v -5.599068 6.000001 -12.11989
v -4.969644 6.000001 -12.21878
v -5.079632 7.000001 -12.22131
v -0.6325374 8.609007 -6.437008
v -0.4534513 7.000006 -7.533271
v -0.0003606197 7.000007 -6.329667
v 0.0002815977 8.142009 -4.385407
v -2.14046 8.548004 -9.374662
v -1.71317 7.000004 -9.625937
v -3.976656 8.028002 -11.53046
v -3.744879 7.000002 -11.71755
v -3.976656 8.028002 -11.53046
v -5.365846 7.321001 -12.16339
v -5.079632 7.000001 -12.22131
v -2.624913 9.607007 -5.45534
v -0.6325374 8.609007 -6.437008
v 0.0002815977 8.142009 -4.385407
v -1.533269 8.95101 -3.1885
v -4.058022 9.514005 -8.431243
v -2.14046 8.548004 -9.374662
v -5.251194 8.671002 -10.90891
v -3.976656 8.028002 -11.53046
v -5.764542 7.522001 -11.97028
v -5.365846 7.321001 -12.16339
v -5.764541 7.522001 -11.97028
v -6.165006 7.322001 -11.77854
v -6.217897 7.000001 -11.77083
v -6.217897 7.000001 -11.77083
v -6.534142 8.032003 -10.2933
v -6.826195 7.000003 -10.23368
v -6.165006 7.322001 -11.77854
v -5.764542 7.522001 -11.97028
v -5.251194 8.671002 -10.90891
v -6.534142 8.032003 -10.2933
v -6.165006 7.322001 -11.77854
v -5.988266 8.553005 -7.507241
v -6.826195 7.000003 -10.23368
v -6.444357 7.000006 -7.304248
v -5.988266 8.553005 -7.507242
v -4.058022 9.514005 -8.431243
v -4.627668 8.612008 -4.497529
v -2.624913 9.607008 -5.45534
v -1.533269 8.95101 -3.1885
v -3.428808 8.14201 -2.734057
v -0.8829476 8.21601 -1.833474
v -1.604976 7.802011 -1.281542
v -0.8829476 8.21601 -1.833474
v 0.0009851183 7.802011 -2.053817
v -6.419923 6.000006 -7.202802
v -6.828365 6.000003 -10.23818
v -6.828364 6.000003 -10.23818
v -6.113254 6.000001 -11.86007
v -6.113254 6.000001 -11.86007
v -3.683542 6.000002 -11.69159
v -4.969644 6.000001 -12.21878
v -1.765733 6.000003 -9.700516
v -0.4889965 6.000005 -7.609385
v -0.0003603813 6.000007 -6.329666
v 5.644333 6.000008 -5.12673
v 0.4335109 6.000006 -7.489591
v 4.948478 6.000009 -3.946802
v 0.0005412663 6.000009 -3.877775
v 3.031406 6.00001 -2.418205
v 6.483195 6.000006 -7.428728
v 1.628548 6.000004 -9.510183
v 6.844123 6.000003 -10.16955
v 3.747025 6.000002 -11.72206
v 5.98466 6.000001 -11.9342
v 5.460928 6.000001 -12.17421
v 6.454418 6.000002 -11.50376
v 0.4534365 7.000006 -7.533272
v 0.0003477219 7.000007 -6.329667
v 0.0003477219 6.000007 -6.329666
v 0.4335109 6.000006 -7.489591
v 0.630955 8.612006 -6.422226
v -0.0002903685 8.142009 -4.385407
v 0.4534362 7.000006 -7.533272
v 0.0003479603 7.000007 -6.329667
v 5.913651 7.000001 -11.98727
v 5.98466 6.000001 -11.9342
v 6.454418 6.000002 -11.50376
v 6.387816 7.000002 -11.59133
v 4.638239 8.609008 -4.507983
v 5.606987 7.000008 -5.051484
v 4.948477 7.000009 -3.946803
v 3.428803 8.14201 -2.734064
v 5.994792 8.548005 -7.518532
v 6.457661 7.000006 -7.341134
v 6.535389 8.028003 -10.29825
v 6.826175 7.000003 -10.23369
v 6.535389 8.028003 -10.29825
v 6.164082 7.321002 -11.77899
v 6.387816 7.000002 -11.59133
v 2.628506 9.607007 -5.453609
v 4.638239 8.609008 -4.507983
v 3.428803 8.14201 -2.734064
v 1.536866 8.95101 -3.186768
v 4.061609 9.514005 -8.429515
v 5.994792 8.548006 -7.518532
v 5.254776 8.671002 -10.90718
v 6.535389 8.028003 -10.29825
v 5.764518 7.522001 -11.97029
v 6.164082 7.321002 -11.77899
v 5.764517 7.522001 -11.97029
v 5.364921 7.322001 -12.16384
v 5.325913 7.000001 -12.20038
v 5.325913 7.000001 -12.20038
v 3.973563 8.032001 -11.52639
v 3.744856 7.000002 -11.71756
v 5.364921 7.322001 -12.16384
v 5.764518 7.522001 -11.97029
v 5.254776 8.671002 -10.90718
v 3.973563 8.032001 -11.52639
v 5.364921 7.322001 -12.16384
v 2.135701 8.553004 -9.362519
v 3.744856 7.000002 -11.71756
v 1.692626 7.000004 -9.592539
v 2.135701 8.553004 -9.36252
v 4.061609 9.514005 -8.429515
v 0.630955 8.612006 -6.422226
v 2.628506 9.607008 -5.453609
v 1.536866 8.95101 -3.186768
v -0.0002903685 8.142009 -4.385407
v 0.8829439 8.21601 -1.833476
v 0.001246544 7.802011 -2.05385
v 0.8829439 8.21601 -1.833476
v 1.606342 7.802011 -1.279776
v 1.628548 6.000004 -9.510183
v 3.747025 6.000002 -11.72206
v 3.747025 6.000002 -11.72206
v 5.460928 6.000001 -12.17421
v 5.460928 6.000001 -12.17421
v 6.844123 6.000003 -10.16955
v 6.454418 6.000002 -11.50376
v 6.483195 6.000006 -7.428728
v 5.644333 6.000008 -5.12673
v 4.948478 6.000009 -3.946802
v -3.9656 1.287413E-05 0.52201
v -4 1.239776E-05 1E-05
v -4 6.000012 4.524538E-06
v -3.9656 6.000013 0.5220045
v -3.863599 1.334246E-05 1.03521
v -3.863599 6.000013 1.035204
v -3.695599 1.379474E-05 1.53081
v -3.695599 6.000014 1.530804
v -3.463998 1.422292E-05 2.00001
v -3.463998 6.000014 2.000004
v -3.173598 1.462007E-05 2.435209
v -3.173598 6.000015 2.435204
v -2.828397 1.49789E-05 2.828409
v -2.828397 6.000015 2.828403
v -2.435197 1.529392E-05 3.173608
v -2.435197 6.000015 3.173603
v -1.999997 1.555893E-05 3.464008
v -1.999997 6.000016 3.464003
v -1.530796 1.577029E-05 3.695608
v -1.530796 6.000016 3.695602
v -1.035196 1.59236E-05 3.863607
v -1.035196 6.000016 3.863602
v -0.521996 1.601668E-05 3.965606
v -0.521996 6.000016 3.965601
v 4.000012E-06 1.604807E-05 4.000006
v 4E-06 6.000016 4
v 0.522004 1.601668E-05 3.965605
v 0.522004 6.000016 3.9656
v 1.035204 1.59236E-05 3.863605
v 1.035204 6.000016 3.8636
v 1.530804 1.577029E-05 3.695605
v 1.530804 6.000016 3.695599
v 2.000004 1.555894E-05 3.464004
v 2.000004 6.000016 3.463999
v 2.435203 1.529392E-05 3.173604
v 2.435203 6.000015 3.173598
v 2.828403 1.49789E-05 2.828403
v 2.828403 6.000015 2.828398
v 3.173602 1.462008E-05 2.435203
v 3.173602 6.000015 2.435197
v 3.464002 1.422292E-05 2.000003
v 3.464002 6.000014 1.999997
v 3.695601 1.379474E-05 1.530802
v 3.695601 6.000014 1.530797
v 3.863601 1.334247E-05 1.035202
v 3.863601 6.000013 1.035197
v 3.9656 1.287414E-05 0.522002
v 3.9656 6.000013 0.5219966
v 4 1.239777E-05 2.000001E-06
v 4 6.000012 -3.475462E-06
v 3.9656 1.192141E-05 -0.521998
v 3.9656 6.000012 -0.5220035
v 3.863599 1.145307E-05 -1.035198
v 3.863599 6.000011 -1.035203
v 3.695599 1.10008E-05 -1.530798
v 3.695599 6.000011 -1.530803
v 3.463998 1.057262E-05 -1.999997
v 3.463998 6.00001 -2.000003
v 3.173598 1.017546E-05 -2.435197
v 3.173598 6.00001 -2.435203
v 2.828397 9.816636E-06 -2.828397
v 2.828397 6.00001 -2.828402
v 2.435197 9.501614E-06 -3.173596
v 2.435197 6.00001 -3.173602
v 1.999997 9.236601E-06 -3.463996
v 1.999997 6.000009 -3.464001
v 1.530796 9.025247E-06 -3.695596
v 1.530796 6.000009 -3.695601
v 1.035196 8.871934E-06 -3.863595
v 1.035196 6.000009 -3.8636
v 0.521996 8.77885E-06 -3.965595
v 0.521996 6.000009 -3.9656
v -3.999988E-06 8.747457E-06 -3.999994
v -4E-06 6.000009 -4
v -0.522004 8.778849E-06 -3.965594
v -0.522004 6.000009 -3.965599
v -1.035204 8.871932E-06 -3.863593
v -1.035204 6.000009 -3.863598
v -1.530804 9.025244E-06 -3.695592
v -1.530804 6.000009 -3.695598
v -2.000004 9.236596E-06 -3.463992
v -2.000004 6.000009 -3.463997
v -2.435203 9.501608E-06 -3.173592
v -2.435203 6.00001 -3.173597
v -2.828403 9.81663E-06 -2.828391
v -2.828403 6.00001 -2.828397
v -3.173602 1.017545E-05 -2.435191
v -3.173602 6.00001 -2.435196
v -3.464002 1.057261E-05 -1.999991
v -3.464002 6.00001 -1.999996
v -3.695601 1.100079E-05 -1.53079
v -3.695601 6.000011 -1.530796
v -3.863601 1.145306E-05 -1.03519
v -3.863601 6.000011 -1.035196
v -3.9656 1.19214E-05 -0.5219901
v -3.9656 6.000012 -0.5219955
v -2 1.239776E-05 8.000001E-06
v -1.9828 1.263595E-05 0.261008
v -3.9656 1.287413E-05 0.52201
v -4 1.239776E-05 1E-05
v -1.9318 1.287011E-05 0.5176079
v -3.863599 1.334246E-05 1.03521
v -1.847799 1.309625E-05 0.7654079
v -3.695599 1.379474E-05 1.53081
v -1.731999 1.331034E-05 1.000008
v -3.463998 1.422292E-05 2.00001
v -1.586799 1.350892E-05 1.217608
v -3.173598 1.462007E-05 2.435209
v -1.414199 1.368833E-05 1.414207
v -2.828397 1.49789E-05 2.828409
v -1.217598 1.384584E-05 1.586807
v -2.435197 1.529392E-05 3.173608
v -0.9999983 1.397835E-05 1.732007
v -1.999997 1.555893E-05 3.464008
v -0.7653981 1.408403E-05 1.847807
v -1.530796 1.577029E-05 3.695608
v -0.5175981 1.416068E-05 1.931807
v -1.035196 1.59236E-05 3.863607
v -0.260998 1.420722E-05 1.982806
v -0.521996 1.601668E-05 3.965606
v 2.000012E-06 1.422292E-05 2.000006
v 4.000012E-06 1.604807E-05 4.000006
v 0.261002 1.420722E-05 1.982806
v 0.522004 1.601668E-05 3.965605
v 0.5176019 1.416068E-05 1.931805
v 1.035204 1.59236E-05 3.863605
v 0.7654018 1.408403E-05 1.847805
v 1.530804 1.577029E-05 3.695605
v 1.000002 1.397835E-05 1.732005
v 2.000004 1.555894E-05 3.464004
v 1.217602 1.384584E-05 1.586805
v 2.435203 1.529392E-05 3.173604
v 1.414201 1.368833E-05 1.414204
v 2.828403 1.49789E-05 2.828403
v 1.586801 1.350892E-05 1.217604
v 3.173602 1.462008E-05 2.435203
v 1.732001 1.331034E-05 1.000004
v 3.464002 1.422292E-05 2.000003
v 1.847801 1.309625E-05 0.7654042
v 3.695601 1.379474E-05 1.530802
v 1.9318 1.287012E-05 0.5176041
v 3.863601 1.334247E-05 1.035202
v 1.9828 1.263595E-05 0.261004
v 3.9656 1.287414E-05 0.522002
v 2 1.239777E-05 4.000001E-06
v 4 1.239777E-05 2.000001E-06
v 1.9828 1.215959E-05 -0.260996
v 3.9656 1.192141E-05 -0.521998
v 1.9318 1.192542E-05 -0.5175959
v 3.863599 1.145307E-05 -1.035198
v 1.847799 1.169928E-05 -0.7653958
v 3.695599 1.10008E-05 -1.530798
v 1.731999 1.148519E-05 -0.9999957
v 3.463998 1.057262E-05 -1.999997
v 1.586799 1.128661E-05 -1.217596
v 3.173598 1.017546E-05 -2.435197
v 1.414199 1.11072E-05 -1.414195
v 2.828397 9.816636E-06 -2.828397
v 1.217598 1.094969E-05 -1.586795
v 2.435197 9.501614E-06 -3.173596
v 0.9999983 1.081718E-05 -1.731995
v 1.999997 9.236601E-06 -3.463996
v 0.7653981 1.071151E-05 -1.847795
v 1.530796 9.025247E-06 -3.695596
v 0.5175981 1.063485E-05 -1.931795
v 1.035196 8.871934E-06 -3.863595
v 0.260998 1.058831E-05 -1.982794
v 0.521996 8.77885E-06 -3.965595
v -1.999988E-06 1.057261E-05 -1.999994
v -3.999988E-06 8.747457E-06 -3.999994
v -0.261002 1.058831E-05 -1.982794
v -0.522004 8.778849E-06 -3.965594
v -0.5176019 1.063485E-05 -1.931793
v -1.035204 8.871932E-06 -3.863593
v -0.7654018 1.07115E-05 -1.847793
v -1.530804 9.025244E-06 -3.695592
v -1.000002 1.081718E-05 -1.731993
v -2.000004 9.236596E-06 -3.463992
v -1.217602 1.094969E-05 -1.586793
v -2.435203 9.501608E-06 -3.173592
v -1.414201 1.11072E-05 -1.414193
v -2.828403 9.81663E-06 -2.828391
v -1.586801 1.128661E-05 -1.217592
v -3.173602 1.017545E-05 -2.435191
v -1.732001 1.148519E-05 -0.9999923
v -3.464002 1.057261E-05 -1.999991
v -1.847801 1.169928E-05 -0.7653921
v -3.695601 1.100079E-05 -1.53079
v -1.9318 1.192541E-05 -0.5175921
v -3.863601 1.145306E-05 -1.03519
v -1.9828 1.215958E-05 -0.260992
v -3.9656 1.19214E-05 -0.5219901
v -1.984 8.216012 -0.4529995
v -2 1.239776E-05 8.000001E-06
v -2.003 7.802013 0.4560009
v -1.847999 1.309589E-05 0.7650079
v -2.003 7.802013 0.4560009
v -1.590999 8.216013 1.269
v -1.413998 1.368815E-05 1.414007
v -0.8919981 7.802014 1.85
v -0.7649981 1.408421E-05 1.848007
v -0.8919982 7.802014 1.85
v 2.000012E-06 1.422292E-05 2.000006
v 2.034996E-06 8.216014 2.034999
v 0.8900018 7.802014 1.850998
v 0.7650018 1.408421E-05 1.848005
v 1.414001 1.368815E-05 1.414004
v 0.8900018 7.802014 1.850998
v 1.591001 8.216013 1.268997
v 1.848001 1.309589E-05 0.7650042
v 2.002 7.802013 0.4579968
v 2 1.239777E-05 4.000001E-06
v 2.002 7.802013 0.4579968
v 1.983999 8.216012 -0.4530035
v 1.847999 1.169965E-05 -0.7649958
v 1.605999 7.802011 -1.280003
v 1.413998 1.110738E-05 -1.413995
v 1.605999 7.802011 -1.280003
v 0.8829981 8.21601 -1.833002
v 0.7649981 1.071132E-05 -1.847995
v 0.0009979459 7.802011 -2.054001
v -1.999988E-06 1.057261E-05 -1.999994
v -0.7650018 1.071132E-05 -1.847993
v 0.0009979459 7.802011 -2.054001
v -0.8830018 8.21601 -1.833001
v -1.414001 1.110738E-05 -1.413993
v -1.605001 7.802011 -1.281
v -1.848001 1.169964E-05 -0.7649921
v -1.605001 7.802011 -1.281
vn 2.000003E-12 -1 9.125772E-07
vn 2.000003E-12 -1 9.125772E-07
vn 2.000003E-12 -1 9.125772E-07
vn 2.000003E-12 -0.9999999 9.125771E-07
vn 2.000003E-12 -1 9.125772E-07
vn 2.000003E-12 -1 9.125772E-07
vn 2.000003E-12 -0.9999999 9.125771E-07
vn 2.000003E-12 -1 9.125772E-07
vn 2.000003E-12 -1 9.125772E-07
vn 2.000003E-12 -1 9.125772E-07
vn 2.000003E-12 -1 9.125772E-07
vn 2.000003E-12 -1 9.125772E-07
vn 2.000003E-12 -1 9.125772E-07
vn 0.9824161 0.1859555 -0.01670919
vn 0.9960634 -8.089206E-08 -0.08864352
vn 0.9959468 0.001660271 -0.08992928
vn 0.9997011 -0.002168362 0.02434787
vn 0.944374 0.3281479 -0.0218349
vn 0.9260688 0.3397122 -0.1642928
vn 0.8543881 0.5140423 -0.07603595
vn 0.8543881 0.5140423 -0.07603595
vn -0.111052 0.02151206 0.9935818
vn -0.06072659 0.004572489 0.9981439
vn -0.2670186 -0.007581731 0.9636616
vn -0.2443944 -0.01904735 0.9694889
vn -0.9294536 0.3626845 -0.06764572
vn -0.9629992 0.2678724 0.02961601
vn -0.9618763 0.2338827 -0.1417495
vn -0.9134552 0.3462229 -0.2138439
vn -0.9323269 0.3360835 0.1334711
vn -0.9607452 0.1630439 0.2244665
vn -0.909436 0.2894201 0.2986006
vn -0.8679937 0.1670289 0.4676413
vn -0.6719887 0.2360027 0.7019501
vn -0.471747 0.5377244 0.6987899
vn -0.7297328 0.08293191 0.6786843
vn -0.4142814 0.9063618 -0.08294149
vn -0.4090007 0.9084916 -0.08579904
vn -0.41674 0.8679475 -0.2701755
vn -0.4112501 0.8611038 -0.2989542
vn -0.4050869 0.898177 0.17083
vn -0.408423 0.9073421 0.0996047
vn -0.3678486 0.8156305 0.4465807
vn -0.3850743 0.8553849 0.3464596
vn -0.3075699 0.6811836 0.6643716
vn -0.1582413 0.08629718 0.9836221
vn -0.0001698316 0.1515293 0.9884527
vn 0.07750604 0.1057833 0.9913641
vn 0.06727392 0.01127928 0.9976708
vn 0.6809567 0.09826613 0.7257007
vn 0.8366182 0.2583593 0.4830326
vn 0.6670457 0.06085902 0.7425268
vn 0.7158808 0.1472985 0.6825085
vn 0.3054719 0.6821313 0.6643672
vn 0.3838345 0.8561153 0.3460313
vn 0.366023 0.8164107 0.446655
vn 0.3056692 0.6819059 0.6645078
vn 0.9356743 0.2978213 0.1892513
vn 0.937871 0.1626315 0.3065108
vn 0.9555923 0.2475171 0.1599336
vn 0.4033399 0.8989395 0.1709522
vn 0.4072074 0.9079454 0.09908238
vn 0.412844 0.9069692 -0.08346684
vn 0.4076102 0.9089117 -0.08794027
vn 0.4156183 0.8650951 -0.2808417
vn 0.4102831 0.8549062 -0.3174951
vn 0.398321 0.8423228 -0.3630876
vn 0.3473085 0.8847548 -0.3107824
vn -0.309669 0.8540159 -0.4180453
vn -0.3984395 0.8422148 -0.363208
vn 0.97664 -0.0009473172 0.2148803
vn 0.9507834 0.00154963 0.3098524
vn 0.6493461 0.003802477 0.7604836
vn 0.6630675 -0.02913376 0.7479924
vn 0.01908579 0.03243769 0.9992915
vn -0.8955923 0.01980368 0.4444349
vn -0.7426107 0.03934865 0.6685666
vn -0.9769199 0.004566625 0.2135575
vn -0.9994862 -0.0001987204 0.03204945
vn -0.9964699 1.627042E-07 -0.08395052
vn 2.000003E-12 -1 9.125772E-07
vn 2.000003E-12 -1 9.125772E-07
vn 2.000003E-12 -1 9.125772E-07
vn 2.000003E-12 -0.9999999 9.125771E-07
vn 2.000003E-12 -1 9.125772E-07
vn 2.000003E-12 -1 9.125772E-07
vn 2.000003E-12 -1 9.125772E-07
vn 2.000003E-12 -1 9.125772E-07
vn 2.000003E-12 -1 9.125772E-07
vn 2.000003E-12 -1 9.125772E-07
vn 2.000003E-12 -1 9.125772E-07
vn 2.000003E-12 -1 9.125772E-07
vn 2.000003E-12 -1 9.125772E-07
vn 0.625591 0.1859559 0.7576652
vn 0.6903402 6.602372E-07 0.7234848
vn 0.6912729 0.001661151 0.7225919
vn 0.6042684 -0.002167369 0.7967778
vn 0.6058794 0.3281481 0.7247269
vn 0.7058442 0.3397126 0.6215942
vn 0.5921496 0.514043 0.6205791
vn 0.5921496 0.514043 0.6205791
vn -0.8460525 0.02151126 0.5326654
vn -0.8182421 0.004571297 0.5748555
vn -0.9199035 -0.007583172 0.3920712
vn -0.9103538 -0.01904768 0.4133922
vn -0.5266185 0.3626834 -0.7688522
vn -0.6235758 0.2678714 -0.7344372
vn -0.4888969 0.2338818 -0.840404
vn -0.4023413 0.346222 -0.8474975
vn -0.6856492 0.3360823 -0.6457041
vn -0.7745106 0.163043 -0.6111876
vn -0.8004802 0.2894188 -0.5248507
vn -0.9068024 0.1670279 -0.3870544
vn -0.9677852 0.236001 -0.08772237
vn -0.840466 0.5377233 0.06686242
vn -0.9855977 0.08293159 -0.1473748
vn -0.1934551 0.9063613 -0.3756118
vn -0.1879286 0.9084911 -0.3732649
vn -0.04860257 0.867947 -0.4942728
vn -0.02267963 0.8611034 -0.5079238
vn -0.3861288 0.8981764 -0.210199
vn -0.3325228 0.9073415 -0.2572156
vn -0.5785017 0.8156298 -0.00915674
vn -0.510964 0.8553845 -0.08504897
vn -0.7111942 0.6811826 0.1737615
vn -0.8676882 0.08629809 0.4895608
vn -0.7729088 0.1515294 0.6161582
vn -0.7267545 0.1057834 0.678703
vn -0.7380655 0.01127868 0.6746349
vn -0.1428051 0.0982663 0.9848607
vn 0.1439736 0.2583596 0.9552601
vn -0.1646335 0.06085928 0.9844755
vn -0.08726055 0.1472974 0.9852356
vn -0.3289647 0.6821308 0.6530542
vn -0.03122141 0.8561153 0.515841
vn -0.1209975 0.8164106 0.5646535
vn -0.3289517 0.6819059 0.6532958
vn 0.4354215 0.2978216 0.8495354
vn 0.3451142 0.1626319 0.9243631
vn 0.4707617 0.2475175 0.8468285
vn 0.1178223 0.8989395 0.4219307
vn 0.1764238 0.9079455 0.3801442
vn 0.322661 0.9069694 0.2707333
vn 0.3228952 0.9089118 0.2638522
vn 0.4787046 0.8650952 0.1498408
vn 0.5040349 0.8549064 0.1228166
vn 0.5322222 0.842323 0.08503769
vn 0.4595226 0.884755 0.07776637
vn 0.1337645 0.8540156 -0.5027568
vn 0.03554334 0.8422144 -0.5379698
vn 0.4409259 -0.0009466775 0.8975431
vn 0.3505523 0.001549891 0.9365419
vn -0.1897081 0.003802478 0.9818331
vn -0.1713871 -0.02913347 0.9847729
vn -0.769378 0.03243743 0.6379696
vn -0.9058661 0.0198032 -0.4231007
vn -0.9857167 0.03934775 -0.1637512
vn -0.7760662 0.004566362 -0.6306349
vn -0.6482276 -0.0001991259 -0.7614466
vn -0.5556543 -7.5873E-07 -0.8314134
vn 2.000003E-12 -1 9.125772E-07
vn 2.000003E-12 -1 9.125772E-07
vn 2.000003E-12 -1 9.125772E-07
vn 2.000003E-12 -1 9.125772E-07
vn 2.000003E-12 -1 9.125772E-07
vn 2.000003E-12 -1 9.125772E-07
vn 2.000003E-12 -1 9.125772E-07
vn 2.000003E-12 -1 9.125772E-07
vn 2.000003E-12 -0.9999999 9.125771E-07
vn 2.000003E-12 -1 9.125772E-07
vn 2.000003E-12 -1 9.125772E-07
vn 2.000003E-12 -1 9.125772E-07
vn 2.000003E-12 -1 9.125772E-07
vn 0.5994636 0.1859546 -0.7785013
vn 0.5517318 -7.61108E-07 -0.8340216
vn 0.5506538 0.001659682 -0.8347321
vn 0.6423402 -0.002168894 -0.7664165
vn 0.5717374 0.3281469 -0.7519548
vn 0.4489464 0.3397114 -0.8264644
vn 0.4732563 0.5140417 -0.7153948
vn 0.4732563 0.5140417 -0.7153948
vn 0.7075734 0.0215114 0.7063124
vn 0.7425177 0.004571638 0.6698108
vn 0.5869371 -0.00758259 0.8095971
vn 0.605599 -0.01904771 0.795542
vn -0.6323928 0.362685 0.684499
vn -0.5772659 0.2678728 0.7713677
vn -0.7105448 0.2338832 0.663645
vn -0.7367203 0.3462235 0.5808377
vn -0.476945 0.3360838 0.8121398
vn -0.4235208 0.1630444 0.8910929
vn -0.3335696 0.2894205 0.8971996
vn -0.1755696 0.1670296 0.9701939
vn 0.1298276 0.2360029 0.9630406
vn 0.2522061 0.5377244 0.8045152
vn 0.07563476 0.08293223 0.9936808
vn -0.3231464 0.9063619 0.2721846
vn -0.3220882 0.9084918 0.2662744
vn -0.4710649 0.8679476 0.1573681
vn -0.4901419 0.861104 0.1351327
vn -0.1190072 0.898177 0.4232202
vn -0.1767734 0.9073421 0.3814203
vn 0.1198012 0.8156303 0.5660343
vn 0.03078325 0.855385 0.5170773
vn 0.3276603 0.6811833 0.6546969
vn 0.6703641 0.08629785 0.736997
vn 0.772697 0.1515293 0.6164237
vn 0.8234037 0.1057826 0.5575091
vn 0.821955 0.01127835 0.569441
vn 0.9919456 0.09826478 -0.07992546
vn 0.8992738 0.2583574 -0.352928
vn 0.9964272 0.06085816 -0.05855848
vn 0.9799515 0.1472965 -0.1341602
vn 0.7098823 0.6821306 0.1753996
vn 0.509856 0.8561148 -0.08434653
vn 0.5774212 0.8164102 -0.007683006
vn 0.7101156 0.6819048 0.1753328
vn 0.731347 0.29782 -0.6135429
vn 0.8243935 0.1626304 -0.5421501
vn 0.7208441 0.2475161 -0.6473944
vn 0.3851353 0.898939 -0.2087569
vn 0.3313566 0.9079449 -0.2565909
vn 0.1921483 0.9069688 -0.3748156
vn 0.1853876 0.9089112 -0.3735128
vn 0.03956402 0.8650945 -0.500046
vn 0.007580832 0.8549058 -0.518728
vn -0.03552313 0.8423224 -0.537802
vn -0.02643505 0.8847545 -0.465307
vn -0.5199162 0.8540161 -0.0185388
vn -0.5323903 0.8422149 0.08505531
vn 0.7769259 -0.0009479814 -0.6295914
vn 0.8350565 0.001549391 -0.5501619
vn 0.9994306 0.003802361 -0.03352416
vn 0.9982198 -0.02913407 -0.0520402
vn 0.793177 0.032437 0.6081266
vn -0.2109206 0.0198042 0.9773025
vn 0.05969563 0.03934811 0.9974408
vn -0.4421345 0.004567462 0.8969371
vn -0.598113 -0.0001980128 0.8014118
vn -0.6869248 6.631946E-07 0.7267287
vn 2.000003E-12 -1 9.125772E-07
vn 2.000003E-12 -1 9.125772E-07
vn 2.000003E-12 -1 9.125772E-07
vn 2.000003E-12 -1 9.125772E-07
vn 2.000003E-12 -0.9999999 9.125771E-07
vn 2.000003E-12 -1 9.125772E-07
vn 2.000003E-12 -1 9.125772E-07
vn 2.000003E-12 -1 9.125772E-07
vn 2.000003E-12 -1 9.125772E-07
vn 2.000003E-12 -1 9.125772E-07
vn 2.000003E-12 -0.9999999 9.125771E-07
vn 2.000003E-12 -1 9.125772E-07
vn 2.000003E-12 -1 9.125772E-07
vn -0.234897 0.185955 -0.9540672
vn -0.3080643 -8.681951E-07 -0.9513655
vn -0.3092922 0.001659854 -0.9509656
vn -0.1987157 -0.002168606 -0.9800549
vn -0.2314289 0.3281475 -0.9158383
vn -0.3662418 0.339712 -0.8662925
vn -0.264247 0.5140425 -0.8160477
vn -0.264247 0.5140425 -0.8160477
vn 0.9933821 0.02151063 -0.1128242
vn 0.9866316 0.00457116 -0.1629027
vn 0.9989177 -0.007583173 0.04588982
vn 0.9995646 -0.01904882 0.0225361
vn 0.1408722 0.3626861 0.9212024
vn 0.2431599 0.2678736 0.9322645
vn 0.07584097 0.2338842 0.969302
vn -0.005220504 0.3462246 0.9381372
vn 0.337586 0.3360848 0.8792512
vn 0.4326235 0.1630447 0.8867093
vn 0.4934817 0.2894212 0.8201897
vn 0.6490623 0.1670295 0.7421719
vn 0.8338814 0.2360037 0.4989429
vn 0.7862427 0.5377251 0.3044243
vn 0.8240483 0.08293146 0.5604166
vn 0.0113245 0.9063625 0.4223491
vn 0.007363574 0.9084923 0.4178368
vn -0.170668 0.8679486 0.4664094
vn -0.1999466 0.8611049 0.4674609
vn 0.2566871 0.8981774 0.3569161
vn 0.18799 0.9073426 0.3760175
vn 0.5172377 0.8156308 0.2592519
vn 0.4234601 0.8553854 0.2983245
vn 0.7161551 0.6811839 0.1520212
vn 0.9941727 0.08629639 -0.06460214
vn 0.9637082 0.151529 -0.2197847
vn 0.9492623 0.105782 -0.2961608
vn 0.9576876 0.01127777 -0.2875886
vn 0.55598 0.09826472 -0.8253669
vn 0.2847584 0.2583581 -0.9231272
vn 0.5754796 0.06085765 -0.8155487
vn 0.5060992 0.1472966 -0.8498042
vn 0.579737 0.6821311 -0.4456482
vn 0.2519455 0.8561149 -0.4512102
vn 0.3540095 0.8164104 -0.456236
vn 0.5798299 0.6819059 -0.4458715
vn -0.02369916 0.2978206 -0.9543276
vn 0.0901315 0.1626306 -0.9825618
vn -0.05671399 0.2475165 -0.9672223
vn 0.07691585 0.8989393 -0.4312681
vn 0.005987377 0.9079452 -0.4190461
vn -0.173239 0.9069692 -0.3839207
vn -0.1764356 0.9089116 -0.3778227
vn -0.3662824 0.8650953 -0.3427056
vn -0.4008297 0.8549066 -0.3293482
vn -0.4426172 0.8423233 -0.3075408
vn -0.3802722 0.8847553 -0.2694463
vn -0.3386555 0.854017 0.3949269
vn -0.26544 0.8422161 0.4692693
vn -0.007828628 -0.0009481411 -0.9999689
vn 0.09051597 0.00154865 -0.9958938
vn 0.5969247 0.003801147 -0.8022883
vn 0.5816935 -0.02913518 -0.8128862
vn 0.9699907 0.03243694 -0.2409686
vn 0.6325789 0.01980366 0.7742427
vn 0.8170497 0.03934823 0.5752231
vn 0.425587 0.00456729 0.904906
vn 0.2536512 -0.0001979421 0.9672958
vn 0.1398885 1.20819E-06 0.9901673
vn 2.000003E-12 -1 9.125772E-07
vn 2.000003E-12 -1 9.125772E-07
vn 2.000003E-12 -1 9.125772E-07
vn 2.000003E-12 -0.9999999 9.125771E-07
vn 2.000003E-12 -1 9.125772E-07
vn 2.000003E-12 -0.9999999 9.125771E-07
vn 2.000003E-12 -1 9.125772E-07
vn 2.000003E-12 -1 9.125772E-07
vn 2.000003E-12 -0.9999999 9.125771E-07
vn 2.000003E-12 -1 9.125772E-07
vn 2.000003E-12 -1 9.125772E-07
vn 2.000003E-12 -1 9.125772E-07
vn 2.000003E-12 -1 9.125772E-07
vn -0.2023167 0.1859567 0.9615031
vn -0.1352227 9.041952E-07 0.9908153
vn -0.1339432 0.001661361 0.9909876
vn -0.2461905 -0.002167308 0.9692191
vn -0.1888545 0.3281491 0.925555
vn -0.04589503 0.3397138 0.9394085
vn -0.1159889 0.5140439 0.8498855
vn -0.1159889 0.5140439 0.8498855
vn -0.9439598 0.0215111 -0.3293589
vn -0.959606 0.004571744 -0.2813105
vn -0.8800842 -0.007582802 -0.4747572
vn -0.8908 -0.0190488 -0.4539963
vn 0.2727709 0.3626843 -0.8910982
vn 0.1854125 0.2678719 -0.9454452
vn 0.3522317 0.2338824 -0.9062184
vn 0.4117438 0.3462229 -0.842969
vn 0.07733595 0.3360831 -0.9386518
vn -0.005054203 0.1630431 -0.986606
vn -0.08874716 0.2894195 -0.9530793
vn -0.2627712 0.1670281 -0.950291
vn -0.5348204 0.2360016 -0.8113387
vn -0.576297 0.5377241 -0.6154141
vn -0.4992886 0.08293092 -0.8624579
vn 0.1730467 0.9063618 -0.385439
vn 0.1746575 0.9084916 -0.3796549
vn 0.3561333 0.8679479 -0.3461728
vn 0.3829688 0.8611042 -0.3344167
vn -0.0764079 0.8981767 -0.4329439
vn -0.006226133 0.907342 -0.4203475
vn -0.353531 0.8156302 -0.4579992
vn -0.2520872 0.8553846 -0.4525141
vn -0.5792744 0.6811835 -0.4476944
vn -0.9237496 0.086296 -0.3731486
vn -0.9636328 0.1515283 -0.2201159
vn -0.9837555 0.1057821 -0.1450355
vn -0.9876273 0.01127838 -0.1564137
vn -0.8590326 0.09826594 0.5024011
vn -0.6570863 0.2583599 0.708158
vn -0.8723412 0.06085865 0.4850948
vn -0.8246945 0.1472981 0.5460607
vn -0.7156837 0.6821316 0.1499772
vn -0.4227665 0.8561158 0.2972108
vn -0.5169038 0.8164112 0.2574552
vn -0.7158649 0.681906 0.1501385
vn -0.3927125 0.2978222 0.8701028
vn -0.5075208 0.1626322 0.8461521
vn -0.368562 0.2475182 0.8960451
vn -0.2564176 0.89894 0.3551857
vn -0.1872104 0.907946 0.3749487
vn -0.01049249 0.9069699 0.4210646
vn -0.004966608 0.9089124 0.4169575
vn 0.1813163 0.865096 0.4676891
vn 0.2182378 0.8549073 0.4706439
vn 0.265349 0.842324 0.4691269
vn 0.2257065 0.8847558 0.4077545
vn 0.4764702 0.8540165 -0.2088825
vn 0.4427611 0.8422153 -0.3076296
vn -0.4268144 -0.0009465509 0.9043387
vn -0.5136518 0.001550049 0.8579974
vn -0.8859091 0.003801698 0.4638432
vn -0.8767846 -0.02913443 0.4800001
vn -0.9784847 0.03243637 -0.2037535
vn -0.2340053 0.01980245 -0.9720337
vn -0.4865589 0.03934742 -0.8727612
vn 0.009180579 0.004565092 -0.9999475
vn 0.1911594 -0.00019973 -0.9815589
vn 0.3035797 -5.21411E-07 -0.952806
vn 2.000003E-12 -1 9.125772E-07
vn 2.000003E-12 -1 9.125772E-07
vn 2.000003E-12 -1 9.125772E-07
vn 2.000003E-12 -1 9.125772E-07
vn 2.000003E-12 -1 9.125772E-07
vn 2.000003E-12 -1 9.125772E-07
vn 2.000003E-12 -1 9.125772E-07
vn 2.000003E-12 -1 9.125772E-07
vn 2.000003E-12 -1 9.125772E-07
vn 2.000003E-12 -1 9.125772E-07
vn 2.000003E-12 -1 9.125772E-07
vn 2.000003E-12 -1 9.125772E-07
vn 2.000003E-12 -0.9999999 9.125771E-07
vn -0.8778783 0.1859557 0.4413051
vn -0.8589631 4.672719E-07 0.5120373
vn -0.8583003 0.001660652 0.513145
vn -0.9112654 -0.002168335 0.4118139
vn -0.8413796 0.328148 0.4294173
vn -0.7630775 0.3397127 0.5498254
vn -0.7367883 0.5140427 0.4392073
vn -0.7367883 0.5140427 0.4392073
vn -0.331041 0.02151063 -0.9433712
vn -0.3783621 0.004570865 -0.9256464
vn -0.1775383 -0.007583065 -0.9840847
vn -0.2004505 -0.01904911 -0.9795185
vn 0.8667603 0.3626841 -0.3423255
vn 0.8547839 0.2678718 -0.44451
vn 0.9281244 0.2338824 -0.2896274
vn 0.9157789 0.3462228 -0.2036638
vn 0.7820884 0.3360828 -0.5247723
vn 0.7682115 0.163043 -0.6190864
vn 0.6898181 0.289419 -0.6636171
vn 0.5791364 0.1670276 -0.7979366
vn 0.3008798 0.2360009 -0.9239994
vn 0.1218387 0.5377228 -0.8342718
vn 0.3630001 0.08293039 -0.9280913
vn 0.4092418 0.9063616 -0.1050223
vn 0.405724 0.9084914 -0.1001566
vn 0.4926943 0.8679478 0.06260347
vn 0.5002344 0.8611039 0.09091415
vn 0.2908514 0.8981764 -0.3296736
vn 0.3247604 0.9073416 -0.2669493
vn 0.1376579 0.8156294 -0.5619599
vn 0.1966184 0.8553842 -0.4792277
vn -0.01114691 0.6811821 -0.7320291
vn -0.2842042 0.08629449 -0.9548724
vn -0.4287179 0.151527 -0.8906404
vn -0.4999637 0.1057824 -0.8595616
vn -0.4934812 0.01127786 -0.8696834
vn -0.9283893 0.09826504 -0.3583815
vn -0.9633467 0.2583586 -0.07220649
vn -0.9231564 0.06085795 -0.3795769
vn -0.9411145 0.1472979 -0.3043139
vn -0.5634778 0.6821299 -0.4660383
vn -0.4959604 0.8561147 -0.1452273
vn -0.5235715 0.8164097 -0.2436143
vn -0.5637165 0.6819045 -0.4660793
vn -0.9251276 0.2978209 0.2354603
vn -0.9779832 0.1626312 0.1307664
vn -0.9303526 0.247517 0.2705167
vn -0.4375708 0.8989392 0.02097675
vn -0.4098724 0.9079452 0.08740744
vn -0.3357462 0.9069694 0.2543246
vn -0.3290897 0.9089119 0.2560842
vn -0.2526085 0.8650955 0.4333574
vn -0.2318986 0.8549068 0.4640663
vn -0.2013393 0.8423235 0.4999536
vn -0.1780728 0.8847554 0.4306948
vn 0.4603842 0.8540163 0.2422858
vn 0.516571 0.8422151 0.1543633
vn -0.9731561 -0.0009471963 0.230144
vn -0.9910667 0.001550053 0.1333585
vn -0.9150004 0.003801546 -0.403435
vn -0.9219434 -0.02913489 -0.3862273
vn -0.4507693 0.03243516 -0.8920511
vn 0.6140708 0.01980263 -0.7890025
vn 0.3789926 0.03934738 -0.9245628
vn 0.7875176 0.004565877 -0.6162753
vn 0.886602 -0.0001991711 -0.462533
vn 0.9342145 -1.079636E-07 -0.3567116
vn 2.000003E-12 -1 9.125772E-07
vn 2.000003E-12 -1 9.125772E-07
vn 2.000003E-12 -1 9.125772E-07
vn 2.000003E-12 -1 9.125772E-07
vn 2.000003E-12 -1 9.125772E-07
vn 2.000003E-12 -1 9.125772E-07
vn 2.000003E-12 -1 9.125772E-07
vn 2.000003E-12 -1 9.125772E-07
vn 2.000003E-12 -1 9.125772E-07
vn 2.000003E-12 -1 9.125772E-07
vn 2.000003E-12 -1 9.125772E-07
vn 2.000003E-12 -0.9999999 9.125771E-07
vn -0.8923777 0.185955 -0.4111969
vn -0.9358844 -3.215092E-07 -0.352307
vn -0.9363373 0.001660099 -0.351098
vn -0.8901373 -0.002168678 -0.4556874
vn -0.8603268 0.3281474 -0.3900733
vn -0.9056441 0.3397119 -0.2537806
vn -0.8027689 0.5140418 -0.3021969
vn -0.8027689 0.5140418 -0.3021969
vn 0.5311499 0.02151024 -0.8470048
vn 0.4877874 0.004570047 -0.8729505
vn 0.6586893 -0.007583685 -0.7523768
vn 0.6408345 -0.01904847 -0.7674427
vn 0.8080603 0.3626848 0.4642178
vn 0.8804839 0.2678725 0.3911427
vn 0.80512 0.2338832 0.5450508
vn 0.7302138 0.3462235 0.5889967
vn 0.8979098 0.3360835 0.2842642
vn 0.9629949 0.1630437 0.2146105
vn 0.9489321 0.2894198 0.1255555
vn 0.9849371 0.1670283 -0.04472599
vn 0.9100044 0.2360016 -0.340874
vn 0.7282216 0.5377231 -0.4249083
vn 0.9519355 0.08293105 -0.2948579
vn 0.3372692 0.9063619 0.2544749
vn 0.3312717 0.9084918 0.2547584
vn 0.2582471 0.867948 0.4242342
vn 0.2408144 0.8611044 0.447781
vn 0.4390917 0.8981767 0.02184494
vn 0.4111941 0.9073419 0.08746427
vn 0.5251839 0.8156297 -0.2427553
vn 0.4972632 0.8553844 -0.1450753
vn 0.5653697 0.6811823 -0.465132
vn 0.5693455 0.08629706 -0.8175565
vn 0.4290238 0.1515289 -0.8904929
vn 0.3603025 0.1057817 -0.9268184
vn 0.3722575 0.01127682 -0.928061
vn -0.2986547 0.09826436 -0.949289
vn -0.5441899 0.2583582 -0.7981907
vn -0.2788207 0.06085738 -0.9584129
vn -0.3488609 0.1472962 -0.9255267
vn 0.01303495 0.6821298 -0.7311149
vn -0.1956871 0.8561145 -0.4783039
vn -0.1359809 0.8164096 -0.5612347
vn 0.01291828 0.6819047 -0.7313269
vn -0.7609024 0.2978205 -0.576481
vn -0.7120051 0.1626306 -0.6830812
vn -0.7915683 0.2475163 -0.5587086
vn -0.2892243 0.898939 -0.3290259
vn -0.3238917 0.907945 -0.2659513
vn -0.4081747 0.9069691 -0.1039253
vn -0.4054002 0.9089116 -0.09762409
vn -0.4963114 0.8650953 0.07270011
vn -0.5074077 0.8549064 0.1080385
vn -0.5164119 0.8423232 0.1543062
vn -0.447757 0.8847551 0.129314
vn 0.0976214 0.8540165 0.5110046
vn 0.2013939 0.8422155 0.5001135
vn -0.7866915 -0.0009481654 -0.6173456
vn -0.7221892 0.001548794 -0.691694
vn -0.2550824 0.003800981 -0.9669119
vn -0.2728648 -0.02913549 -0.9616111
vn 0.4163773 0.03243568 -0.908613
vn 0.9997337 0.01980326 -0.01184293
vn 0.9591481 0.03934815 -0.2801545
vn 0.9728345 0.004566481 0.2314572
vn 0.9144133 -0.0001984252 0.4047817
vn 0.8613657 8.987005E-07 0.5079854
vn -0.9940383 9.949735E-08 0.1090311
vn -0.9997588 -2.004264E-08 -0.02196049
vn -0.9997588 2.004047E-08 0.02196249
vn -0.9883538 1.388679E-07 0.1521733
vn -0.9714053 2.166688E-07 0.2374273
vn -0.960134 2.551001E-07 0.2795402
vn -0.9320762 3.305906E-07 0.3622624
vn -0.9152581 3.676462E-07 0.4028679
vn -0.8767216 4.389462E-07 0.4809981
vn -0.8550497 4.732115E-07 0.5185459
vn -0.8065991 5.394218E-07 0.5910989
vn -0.7797709 5.713312E-07 0.6260651
vn -0.7222584 6.311582E-07 0.6916233
vn -0.6916218 6.591164E-07 0.7222598
vn -0.6260635 7.11601E-07 0.7797722
vn -0.5910972 7.360839E-07 0.8066003
vn -0.5185442 7.802988E-07 0.8550508
vn -0.4809964 8.000761E-07 0.8767226
vn -0.4028661 8.352436E-07 0.9152589
vn -0.3622606 8.505914E-07 0.9320769
vn -0.2795383 8.761964E-07 0.9601346
vn -0.2374253 8.864823E-07 0.9714058
vn -0.1521713 9.019491E-07 0.9883541
vn -0.1090292 9.071367E-07 0.9940386
vn -0.02196049 9.123571E-07 0.9997588
vn 0.02196249 9.123571E-07 0.9997588
vn 0.1090311 9.07137E-07 0.9940383
vn 0.1521733 9.019495E-07 0.9883538
vn 0.2374273 8.864828E-07 0.9714053
vn 0.2795402 8.76197E-07 0.960134
vn 0.3622624 8.505922E-07 0.9320762
vn 0.4028679 8.352445E-07 0.9152581
vn 0.4809981 8.000771E-07 0.8767216
vn 0.5185459 7.803E-07 0.8550497
vn 0.5910989 7.360852E-07 0.8065991
vn 0.6260651 7.116024E-07 0.7797709
vn 0.6916233 6.59118E-07 0.7222584
vn 0.7222598 6.311598E-07 0.6916218
vn 0.7797722 5.713329E-07 0.6260635
vn 0.8066003 5.394235E-07 0.5910972
vn 0.8550508 4.732133E-07 0.5185442
vn 0.8767226 4.389481E-07 0.4809964
vn 0.9152589 3.676482E-07 0.4028661
vn 0.9320769 3.305926E-07 0.3622606
vn 0.9601346 2.551022E-07 0.2795383
vn 0.9714058 2.166709E-07 0.2374253
vn 0.9883541 1.3887E-07 0.1521713
vn 0.9940386 9.949951E-08 0.1090292
vn 0.9997588 2.004264E-08 0.02196049
vn 0.9997588 -2.004047E-08 -0.02196249
vn 0.9940383 -9.949735E-08 -0.1090311
vn 0.9883538 -1.388679E-07 -0.1521733
vn 0.9714053 -2.166688E-07 -0.2374273
vn 0.960134 -2.551001E-07 -0.2795402
vn 0.9320762 -3.305906E-07 -0.3622624
vn 0.9152581 -3.676462E-07 -0.4028679
vn 0.8767216 -4.389462E-07 -0.4809981
vn 0.8550497 -4.732115E-07 -0.5185459
vn 0.8065991 -5.394218E-07 -0.5910989
vn 0.7797709 -5.713312E-07 -0.6260651
vn 0.7222584 -6.311582E-07 -0.6916233
vn 0.6916218 -6.591164E-07 -0.7222598
vn 0.6260635 -7.11601E-07 -0.7797722
vn 0.5910972 -7.360839E-07 -0.8066003
vn 0.5185442 -7.802988E-07 -0.8550508
vn 0.4809964 -8.000761E-07 -0.8767226
vn 0.4028661 -8.352436E-07 -0.9152589
vn 0.3622606 -8.505914E-07 -0.9320769
vn 0.2795383 -8.761964E-07 -0.9601346
vn 0.2374253 -8.864823E-07 -0.9714058
vn 0.1521713 -9.019491E-07 -0.9883541
vn 0.1090292 -9.071367E-07 -0.9940386
vn 0.02196049 -9.123571E-07 -0.9997588
vn -0.02196249 -9.123571E-07 -0.9997588
vn -0.1090311 -9.07137E-07 -0.9940383
vn -0.1521733 -9.019495E-07 -0.9883538
vn -0.2374273 -8.864828E-07 -0.9714053
vn -0.2795402 -8.76197E-07 -0.960134
vn -0.3622624 -8.505922E-07 -0.9320762
vn -0.4028679 -8.352445E-07 -0.9152581
vn -0.4809981 -8.000771E-07 -0.8767216
vn -0.5185459 -7.803E-07 -0.8550497
vn -0.5910989 -7.360852E-07 -0.8065991
vn -0.6260651 -7.116024E-07 -0.7797709
vn -0.6916233 -6.59118E-07 -0.7222584
vn -0.7222598 -6.311598E-07 -0.6916218
vn -0.7797722 -5.713329E-07 -0.6260635
vn -0.8066003 -5.394235E-07 -0.5910972
vn -0.8550508 -4.732133E-07 -0.5185442
vn -0.8767226 -4.389481E-07 -0.4809964
vn -0.9152589 -3.676482E-07 -0.4028661
vn -0.9320769 -3.305926E-07 -0.3622606
vn -0.9601346 -2.551022E-07 -0.2795383
vn -0.9714058 -2.166709E-07 -0.2374253
vn -0.9883541 -1.3887E-07 -0.1521713
vn -0.9940386 -9.949951E-08 -0.1090292
vn 2.000003E-12 -1 9.125772E-07
vn 2.000003E-12 -1 9.125772E-07
vn 2.000003E-12 -1 9.125772E-07
vn 2.000003E-12 -1 9.125772E-07
vn 2.000003E-12 -1 9.125772E-07
vn 2.000003E-12 -1 9.125772E-07
vn 2.000003E-12 -1 9.125772E-07
vn 2.000003E-12 -1 9.125772E-07
vn 2.000003E-12 -1 9.125772E-07
vn 2.000003E-12 -1 9.125772E-07
vn 2.000003E-12 -1 9.125772E-07
vn 2.000003E-12 -1 9.125772E-07
vn 2.000003E-12 -1 9.125772E-07
vn 2.000003E-12 -1 9.125772E-07
vn 2.000003E-12 -1 9.125772E-07
vn 2.000003E-12 -0.9999999 9.125771E-07
vn 2.000003E-12 -1 9.125772E-07
vn 2.000003E-12 -0.9999999 9.125771E-07
vn 2.000003E-12 -1 9.125772E-07
vn 2.000003E-12 -1 9.125772E-07
vn 2.000003E-12 -1 9.125772E-07
vn 2.000003E-12 -1 9.125772E-07
vn 2.000003E-12 -1 9.125772E-07
vn 2.000003E-12 -1 9.125772E-07
vn 2.000003E-12 -1 9.125772E-07
vn 2.000003E-12 -1 9.125772E-07
vn 2.000003E-12 -1 9.125772E-07
vn 2.000003E-12 -1 9.125772E-07
vn 2.000003E-12 -1 9.125772E-07
vn 2.000003E-12 -1 9.125772E-07
vn 2.000003E-12 -1 9.125772E-07
vn 2.000003E-12 -1 9.125772E-07
vn 2.000003E-12 -1 9.125772E-07
vn 2.000003E-12 -1 9.125772E-07
vn 2.000003E-12 -1 9.125772E-07
vn 2.000003E-12 -1 9.125772E-07
vn 2.000003E-12 -1 9.125772E-07
vn 2.000003E-12 -1 9.125772E-07
vn 2.000003E-12 -1 9.125772E-07
vn 2.000003E-12 -0.9999999 9.125771E-07
vn 2.000003E-12 -1 9.125772E-07
vn 2.000003E-12 -0.9999999 9.125771E-07
vn 2.000003E-12 -1 9.125772E-07
vn 2.000003E-12 -1 9.125772E-07
vn 2.000003E-12 -1 9.125772E-07
vn 2.000003E-12 -1 9.125772E-07
vn 2.000003E-12 -1 9.125772E-07
vn 2.000003E-12 -1 9.125772E-07
vn 2.000003E-12 -1 9.125772E-07
vn 2.000003E-12 -1 9.125772E-07
vn 2.000003E-12 -1 9.125772E-07
vn 2.000003E-12 -1 9.125772E-07
vn 2.000003E-12 -1 9.125772E-07
vn 2.000003E-12 -1 9.125772E-07
vn 2.000003E-12 -1 9.125772E-07
vn 2.000003E-12 -1 9.125772E-07
vn 2.000003E-12 -1 9.125772E-07
vn 2.000003E-12 -1 9.125772E-07
vn 2.000003E-12 -1 9.125772E-07
vn 2.000003E-12 -1 9.125772E-07
vn 2.000003E-12 -1 9.125772E-07
vn 2.000003E-12 -1 9.125772E-07
vn 2.000003E-12 -1 9.125772E-07
vn 2.000003E-12 -0.9999999 9.125771E-07
vn 2.000003E-12 -1 9.125772E-07
vn 2.000003E-12 -0.9999999 9.125771E-07
vn 2.000003E-12 -1 9.125772E-07
vn 2.000003E-12 -1 9.125772E-07
vn 2.000003E-12 -1 9.125772E-07
vn 2.000003E-12 -1 9.125772E-07
vn 2.000003E-12 -1 9.125772E-07
vn 2.000003E-12 -1 9.125772E-07
vn 2.000003E-12 -1 9.125772E-07
vn 2.000003E-12 -1 9.125772E-07
vn 2.000003E-12 -1 9.125772E-07
vn 2.000003E-12 -1 9.125772E-07
vn 2.000003E-12 -1 9.125772E-07
vn 2.000003E-12 -1 9.125772E-07
vn 2.000003E-12 -1 9.125772E-07
vn 2.000003E-12 -1 9.125772E-07
vn 2.000003E-12 -1 9.125772E-07
vn 2.000003E-12 -1 9.125772E-07
vn 2.000003E-12 -1 9.125772E-07
vn 2.000003E-12 -1 9.125772E-07
vn 2.000003E-12 -1 9.125772E-07
vn 2.000003E-12 -1 9.125772E-07
vn 2.000003E-12 -1 9.125772E-07
vn 2.000003E-12 -0.9999999 9.125771E-07
vn 2.000003E-12 -1 9.125772E-07
vn 2.000003E-12 -0.9999999 9.125771E-07
vn 2.000003E-12 -1 9.125772E-07
vn 2.000003E-12 -1 9.125772E-07
vn 2.000003E-12 -1 9.125772E-07
vn 2.000003E-12 -1 9.125772E-07
vn 2.000003E-12 -1 9.125772E-07
vn 2.000003E-12 -1 9.125772E-07
vn 0.9766107 0.002173425 0.2150046
vn 0.9999213 0.006259499 0.0108716
vn 0.9969423 0.004941254 -0.07798646
vn 0.911269 0.006268546 -0.411764
vn 0.8920364 -0.000178648 -0.4519634
vn 0.7970549 0.002515232 -0.6039015
vn 0.684647 0.005598203 -0.7288533
vn 0.6023533 0.004305087 -0.7982181
vn 0.382843 0.006467856 -0.9237908
vn 0.1983765 0.003835945 -0.9801184
vn 0.0003081267 0.003930852 -0.9999923
vn 0.0005601148 0.004259039 -0.9999908
vn -0.3141024 0.005621692 -0.9493725
vn -0.3828448 0.006488104 -0.9237899
vn -0.6844532 0.005576276 -0.7290354
vn -0.6388454 0.0001845319 -0.7693351
vn -0.7967205 0.00251045 -0.6043426
vn -0.9112852 0.006251295 -0.4117284
vn -0.9412608 0.005293011 -0.3376393
vn -0.9999262 0.006205875 0.01044424
vn -0.9998123 -0.0008798877 0.01935581
vn -0.9767947 0.002158044 0.2141671
vn -0.9197946 0.006005156 0.3923542
vn -0.8766956 0.004559068 0.4810239
vn -0.6690797 0.006034244 0.7431661
vn -0.6070639 0.001291827 0.794652
vn -0.47103 0.003075794 0.8821118
vn -0.3342798 0.004881043 0.9424613
vn -0.09414545 0.004967934 0.9955461
vn 9.99976E-07 0.006922036 0.999976
vn 0.3340182 0.004860192 0.9425541
vn 0.2432958 0.001724295 0.9699506
vn 0.4705577 0.003079255 0.8823638
vn 0.6690578 0.006032545 0.7431858
vn 0.7194691 0.005774775 0.6945005
vn 0.9197088 0.005981897 0.3925557
vn 0.9091275 -0.000767933 0.4165175
vt -7.068 2.861
vt -6.936 -2.859
vt -5.703 -2.746
vt -5.703 2.746
vt -3.494 -1.682
vt -3.494 1.682
vt -9.506 2.618
vt -9.275 -2.659
vt -12.132 1.754
vt -12.187 -1.71
vt -13.349 0.214
vt -13.338 -0.362
vt -13.165 0.824
vt -7.984 -9.844
vt -6.703 -8.449
vt -5.703 -8.449
vt -2.859 -9.795
vt -8.672 -8.278
vt -6.093 -5.854
vt -7.984 -9.844
vt -6.703 -8.448999
vt -0.873 -13.239
vt 0.214 -13.135
vt 0.824 -12.341
vt -0.274 -12.489
vt -0.3859999 -3.851
vt 1.86 -4.124
vt 1.746 -2.957
vt -0.239 -2.048
vt -0.4089999 -7.236
vt 1.633 -6.783
vt -0.6079999 -10.694
vt 0.7099999 -10.472
vt -0.6079999 -10.694
vt -0.878 -12.844
vt -0.274 -12.489
vt -3.605 -6.052
vt -0.3859999 -3.851
vt -0.239 -2.048
vt -2.949 -3.536
vt -3.512 -9.355
vt -0.4090002 -7.236
vt -2.669 -12.105
vt -0.6080002 -10.694
vt -1.522 -13.286
vt -0.878 -12.844
vt -1.522 -13.286
vt -1.766 -13.731
vt -14.303 -13.798
vt -14.303 -13.798
vt -3.453 -13.53
vt -13.182 -13.892
vt -1.766 -13.731
vt -1.522 -13.286
vt -14.778 -12.105
vt -3.453 -13.53
vt -1.766 -13.731
vt -11.915 -11.5
vt -2.71 -13.892
vt -10.377 -12.014
vt -11.915 -11.5
vt -12.871 -9.355
vt -8.672 -8.278
vt -9.661 -6.052
vt -6.489 -3.536
vt -6.093 -5.854
vt -4.250999 -2.035
vt -3.653 -2.741
vt -4.250999 -2.035
vt -0.91 -0.9579999
vt -2.659 -11.934
vt -1.71 -13.897
vt -12.187 -13.897
vt -13.338 -13.7
vt -0.362 -13.7
vt 1.754 -10.378
vt 0.824 -12.341
vt 2.618 -6.888
vt 2.861 -4.207
vt 2.746 -2.957
vt -2.170011 7.309779
vt -6.559778 3.640215
vt -5.702669 2.746673
vt -1.408858 6.17088
vt -3.493512 1.683004
vt -0.8634359 3.780424
vt -3.880065 9.064373
vt -7.861755 5.593613
vt -6.192851 10.57876
vt -8.935402 8.461995
vt -8.155656 10.57008
vt -8.599133 10.20235
vt -7.564017 10.80655
vt -7.590487 -2.913368
vt -6.702669 -2.955996
vt -5.702669 -2.955996
vt -6.559778 -2.919563
vt -8.124449 -2.157459
vt -0.2394909 -2.048722
vt -7.590487 -2.913368
vt -6.702669 -2.955996
vt 9.529123 2.294849
vt 10.57008 2.414419
vt 10.80655 3.242531
vt 9.784537 3.112726
vt -4.65807 4.085784
vt -3.11842 5.125061
vt -2.408858 4.762022
vt -3.117586 3.299925
vt 6.115302 4.490417
vt 8.00336 5.191136
vt 8.328444 3.913686
vt 9.590421 4.331995
vt 8.328444 3.913686
vt 9.343381 2.72642
vt 9.784537 3.112726
vt -7.380044 0.961401
vt -4.65807 4.085784
vt -3.117586 3.299925
vt -5.155344 0.5630176
vt 3.802831 1.484398
vt 6.115301 4.490417
vt 6.795864 1.919834
vt 8.328445 3.913686
vt 8.865394 2.103706
vt 9.343381 2.72642
vt 8.865393 2.103705
vt 8.789346 1.479901
vt 9.092057 1.410765
vt 9.092057 1.410765
vt 6.5492 -0.07962036
vt 7.458085 -0.4741993
vt 8.789346 1.479901
vt 8.865394 2.103706
vt 6.795864 1.919834
vt 6.549201 -0.07962036
vt 8.789345 1.479901
vt -10.06167 -1.522195
vt -9.932284 -0.4741993
vt -8.908152 -2.221074
vt 3.433471 -1.522195
vt 3.802831 1.484398
vt -8.124449 -2.157459
vt -7.380045 0.961401
vt -5.155344 0.5630176
vt -6.093231 -2.048722
vt -3.484802 0.3222219
vt -3.651908 -0.9576474
vt -3.484802 0.3222219
vt -2.258064 1.546475
vt -7.861755 -2.268142
vt -8.935402 -0.4734068
vt 8.461994 -0.4734068
vt 10.20234 1.603213
vt 10.20234 1.603213
vt 10.57876 4.385912
vt 10.80655 3.242531
vt 9.064373 5.184308
vt -2.170012 5.139768
vt -1.408858 4.762022
vt -6.643642 -3.742169
vt -2.089274 -7.205331
vt -1.408858 -6.17088
vt -5.702669 -2.746673
vt -0.8634359 -3.780424
vt -3.493512 -1.683004
vt -7.973726 -5.799779
vt -3.703983 -8.909332
vt -8.935511 -8.391561
vt -6.261543 -10.59433
vt -8.490279 -10.30322
vt -8.033087 -10.65375
vt -8.852473 -9.779037
vt -3.11842 -9.361902
vt -2.408858 -7.579738
vt -1.408858 -7.579738
vt -2.089274 -9.294605
vt -4.65625 -8.165041
vt -3.117586 -5.251098
vt -3.11842 -9.361902
vt -2.408858 -7.579738
vt -11.37076 -18.80362
vt -10.30322 -18.7935
vt -8.852473 -18.63151
vt -9.807029 -18.68626
vt -5.971817 -8.887903
vt -4.677119 -10.26761
vt -3.746673 -8.449342
vt -4.044509 -5.853741
vt -8.544012 -13.51357
vt -6.720062 -13.6494
vt -10.61373 -17.24889
vt -9.458085 -17.39037
vt -10.61373 -17.24889
vt -11.43297 -18.74263
vt -10.87923 -18.68626
vt -8.338951 -8.508123
vt -5.971817 -8.887903
vt -4.044509 -5.853741
vt -5.715868 -4.972339
vt -10.82834 -13.1499
vt -8.544012 -13.51357
vt -12.13537 -17.01453
vt -10.61373 -17.24889
vt -11.90939 -18.67108
vt -9.951662 -18.74263
vt -11.90939 -18.67108
vt -11.987 -18.60218
vt -11.70931 -18.61659
vt -8.907281 -18.61659
vt -8.47086 -16.79202
vt -7.258426 -16.84885
vt -9.259178 -18.60218
vt -9.805688 -18.67108
vt -10.22116 -17.01453
vt -8.47086 -16.79202
vt -9.259178 -18.60218
vt -6.71856 -12.81807
vt -7.258426 -16.84885
vt -4.78478 -12.76014
vt -6.718561 -12.81808
vt -9.34956 -13.1499
vt -4.65625 -8.165041
vt -7.383172 -8.508123
vt -5.158471 -4.972339
vt -3.117586 -5.251098
vt -3.484802 -2.859826
vt -2.260251 -2.460325
vt -3.807024 -2.859826
vt -2.692232 -2.741081
vt -3.703983 -12.61332
vt -6.261543 -16.85587
vt -6.261543 -16.85587
vt -8.033086 -18.68684
vt -10.65375 -18.68684
vt -8.391561 -17.32707
vt -8.852473 -18.63151
vt -5.799779 -13.77351
vt -3.74217 -10.38581
vt -2.746673 -8.449342
vt -1.216503 -7.527434
vt 4.330724 -6.125929
vt 3.946189 -4.948986
vt -1.408126 -6.171066
vt 2.417317 -3.032127
vt -0.8623474 -3.780684
vt -0.4370918 -9.850242
vt 4.656212 -8.450795
vt 0.9895855 -12.21815
vt 4.378982 -11.50096
vt 2.761784 -13.06196
vt 3.320896 -12.92306
vt 2.126133 -13.01831
vt 3.342379 -1.830125
vt 2.946189 -1.002796
vt 3.946189 -1.002796
vt 4.330724 -1.795206
vt 0.8988659 -1.903661
vt 0.5924683 -0.6940246
vt 3.342379 -1.830124
vt 2.946189 -1.002797
vt 1.850386 -10.20879
vt 2.761784 -10.30017
vt -13.01831 -10.89218
vt -14.04525 -10.81245
vt -9.025387 -7.232069
vt -8.445318 -8.679539
vt -7.171065 -7.579191
vt -6.417404 -5.251519
vt -2.54725 -9.61519
vt -1.471742 -10.23758
vt -0.7167934 -10.81507
vt 0.04360843 -11.2135
vt -14.15428 -10.81507
vt 1.203729 -10.52774
vt -14.04525 -10.81245
vt -9.50967 -4.557485
vt -9.025387 -7.232069
vt -6.417404 -5.251519
vt -6.400747 -2.664422
vt -12.63687 -7.042696
vt -12.16394 -9.61519
vt 0.02109981 -9.111823
vt -0.7167934 -10.81507
vt 1.434401 -9.996519
vt 1.203729 -10.52774
vt 1.4344 -9.996519
vt 2.067492 -9.465604
vt 2.442774 -9.416572
vt 2.442774 -9.416572
vt 2.04787 -7.409355
vt 3.377869 -7.118219
vt 2.067492 -9.465604
vt 1.434401 -9.996519
vt 0.02109981 -9.111823
vt 2.04787 -7.409356
vt 2.067492 -9.465604
vt 1.614633 -4.483914
vt 3.377869 -7.118219
vt 3.65746 -3.897673
vt 1.614633 -4.483913
vt -1.43383 -7.042696
vt 0.8988659 -1.903661
vt -2.261814 -4.557485
vt -6.400747 -2.664422
vt -5.570493 -0.6940246
vt -4.199982 -1.531154
vt -3.408553 -0.3269804
vt -4.199982 -1.531154
vt -3.804108 -2.460084
vt 4.656212 -3.794583
vt 4.378982 -7.121981
vt 4.378982 -7.12198
vt 3.320896 -9.602167
vt 3.320896 -9.602167
vt 0.9895855 -11.22856
vt -13.01831 -10.89218
vt -0.4370918 -10.28733
vt -1.216503 -8.743937
vt -1.408126 -7.579192
vt 4.362046 6.254175
vt -1.243926 7.398299
vt -1.408126 6.171066
vt 3.946189 4.948986
vt -0.8623474 3.780684
vt 2.417317 3.032127
vt 4.667642 8.685126
vt -0.528466 9.634156
vt 4.40964 11.43755
vt 1.044721 12.26198
vt 3.179054 12.96672
vt 2.615047 13.08417
vt 3.732818 12.6516
vt 6.445318 6.211098
vt 5.171066 4.762939
vt 6.171066 4.762939
vt 7.398299 6.154372
vt 3.789625 5.587702
vt 2.133404 3.299289
vt 6.445318 6.211098
vt 5.171065 4.762939
vt 12.00265 16.10067
vt 12.96672 16.14578
vt 12.6516 16.38441
vt 11.72215 16.37055
vt 0.9098561 8.945919
vt 3.342379 10.51488
vt 2.946189 8.895175
vt 0.5924683 6.162961
vt 1.6235 12.8355
vt 3.662239 13.25628
vt 2.052008 15.57433
vt 3.377869 15.87396
vt 2.052008 15.57433
vt 2.067517 16.24384
vt 2.648401 16.37055
vt -2.257914 7.250867
vt 0.9098561 8.945919
vt 0.5924683 6.162961
vt -2.161774 4.238083
vt -1.42993 11.20604
vt 1.6235 12.8355
vt 0.02499938 14.49903
vt 2.052007 15.57433
vt 11.43092 15.90932
vt 11.53432 16.24384
vt 11.43092 15.90932
vt 11.73069 15.57645
vt 12.07964 15.55723
vt 12.07964 15.55723
vt 10.08963 13.43075
vt 11.25711 13.30072
vt 11.73069 15.57645
vt 11.43092 15.90932
vt 9.132032 14.49903
vt 10.08963 13.43075
vt 11.73069 15.57645
vt 7.050043 9.601874
vt 11.25711 13.30072
vt 8.728703 9.244383
vt 7.050043 9.601874
vt 5.607975 11.20604
vt 3.789625 5.587702
vt 2.294781 7.250867
vt 0.4978571 4.238083
vt 2.133404 3.299289
vt -0.2320175 2.43681
vt 0.2006382 1.546835
vt -1.763172 2.43681
vt -0.5207005 2.886432
vt 9.634156 9.10569
vt 12.26198 13.3067
vt 12.26198 13.3067
vt 13.08417 15.69921
vt 13.08417 15.69921
vt 4.40964 15.84719
vt 3.732818 16.38441
vt 4.667642 13.35277
vt 4.362046 10.61622
vt 3.946189 8.895175
vt 7.609386 0.4889886
vt 5.008665 5.585265
vt 3.946797 4.948482
vt 6.329666 0.0003540516
vt 2.418203 3.031408
vt 3.877775 0.0005451441
vt 9.700518 1.765724
vt 7.202809 6.419916
vt 11.69159 3.683531
vt 10.23819 6.828355
vt 12.1199 5.599056
vt 11.86007 6.113243
vt 12.21879 4.969631
vt 4.606992 10.65847
vt 3.948482 8.895279
vt 4.948482 8.895279
vt 5.585265 10.59393
vt 2.015664 9.125196
vt 1.286806 6.162865
vt 4.606992 10.65847
vt 3.948481 8.895279
vt 11.09747 17.78228
vt 12.1199 17.71896
vt 12.21879 17.18842
vt 11.22131 17.30093
vt 3.828007 7.069538
vt 6.533271 7.986714
vt 5.329666 6.33002
vt 2.243406 4.38512
vt 6.826663 11.51511
vt 8.625938 11.3391
vt 9.50246 15.5071
vt 10.71755 15.46242
vt 9.50246 15.5071
vt 10.8424 17.52923
vt 11.22131 17.30093
vt 1.84834 8.080248
vt 3.828007 7.069538
vt 2.243406 4.38512
vt 0.2374995 4.721765
vt 4.917244 12.48926
vt 6.826662 11.51511
vt 8.237911 16.1601
vt 9.50246 15.5071
vt 10.44829 17.73482
vt 10.8424 17.52923
vt 10.44829 17.73482
vt 10.45654 17.94354
vt 10.77083 17.98872
vt 5.217885 17.98872
vt 4.502131 16.82743
vt 5.826185 17.05987
vt 4.842994 17.94354
vt 4.24253 17.73482
vt 2.580184 16.1601
vt 4.502131 16.82743
vt 4.842994 17.94354
vt 3.435258 13.4955
vt 5.826185 17.05987
vt 5.44435 13.7486
vt 3.435258 13.4955
vt 0.5440135 12.48926
vt 2.015664 9.125196
vt -0.9820926 8.080248
vt -1.417735 4.721765
vt 1.286806 6.162865
vt -1.333054 2.716419
vt -0.1970248 2.886517
vt -0.382526 2.716419
vt 0.2518154 2.052828
vt 6.419916 13.62272
vt 6.828355 17.06654
vt 6.828354 17.06654
vt 6.113242 17.97331
vt 11.86007 17.97331
vt 11.69159 15.37512
vt 12.21879 17.18842
vt 9.700518 11.46624
vt 7.609386 8.098375
vt 6.329666 6.33002
vt 5.126725 -5.644339
vt 7.489591 -0.4335184
vt 3.946797 -4.948482
vt 3.877775 -0.0005451441
vt 2.418203 -3.031408
vt 7.428722 -6.483202
vt 9.510182 -1.628558
vt 10.16954 -6.844133
vt 11.72206 -3.747037
vt 11.9342 -5.984672
vt 12.1742 -5.46094
vt 11.50375 -6.45443
vt -1.453444 7.079827
vt -1.000354 6.329312
vt -0.0003540516 6.329312
vt -0.4335184 7.056072
vt -3.242961 5.791263
vt -2.141714 4.385692
vt -1.453444 7.079827
vt -1.000354 6.329312
vt 10.98726 6.073599
vt 11.9342 5.949526
vt 11.50375 5.049323
vt 10.59132 5.203493
vt -7.247244 -0.1302671
vt -6.606992 -0.5555143
vt -5.948481 -1.001684
vt -5.570806 -0.694747
vt 4.970524 1.523725
vt -7.457668 0.8834591
vt 8.27024 3.76284
vt 9.233682 3.407497
vt 8.27024 3.76284
vt 10.45798 5.614885
vt 10.59132 5.203493
vt 1.846604 2.825093
vt 1.898977 -0.1302671
vt -5.570806 -0.694747
vt -4.487869 1.649894
vt 4.915508 4.367891
vt 4.970524 1.523725
vt 8.236176 5.652389
vt 8.270241 3.762841
vt 10.44829 6.205758
vt 10.45798 5.614885
vt 10.44829 6.205757
vt 10.84183 6.798898
vt 11.20037 6.874448
vt 11.20037 6.874448
vt 9.494389 7.552814
vt 10.71755 7.972683
vt 10.84183 6.798898
vt 10.44829 6.205758
vt 8.236176 5.652389
vt 9.494389 7.552814
vt 10.84183 6.798898
vt -4.688711 7.226805
vt -4.744868 7.972683
vt -2.692635 7.899901
vt 6.809516 7.226806
vt -7.575617 4.367891
vt -3.242961 5.791263
vt -6.235512 2.825093
vt -4.487869 1.649894
vt -2.141714 4.385692
vt -3.098946 0.9505281
vt -1.803249 2.0526
vt -3.098946 0.9505281
vt -3.408343 -0.3265697
vt -1.628558 7.881625
vt -3.747037 7.975019
vt 11.72206 7.975019
vt 12.1742 6.713261
vt 12.1742 6.713261
vt 10.16954 3.325409
vt 11.50375 5.049323
vt -6.483202 0.9455199
vt -5.644339 -0.5176134
vt -4.948482 -1.001684
vt 9.9656 3.4436
vt 10 4
vt 4 4
vt 3.9656 3.4436
vt 9.8636 2.8284
vt 3.8636 2.8284
vt 9.695601 2.1648
vt 3.6956 2.1648
vt 9.464 1.464
vt 3.464 1.464
vt 9.1736 0.7384
vt 3.1736 0.7384
vt 8.8284 0
vt 2.8284 0
vt 8.4352 -0.7384
vt 2.4352 -0.7384
vt 8 -1.464
vt 2 -1.464
vt 7.5308 -2.1648
vt 1.5308 -2.1648
vt 7.0352 -2.8284
vt 1.0352 -2.8284
vt 6.522 -3.4436
vt 0.522 -3.4436
vt 6 -4
vt -4 -4
vt 2.0344 -4.4876
vt -3.9656 -4.4876
vt 2.1364 -4.8988
vt -3.8636 -4.8988
vt 2.3044 -5.2264
vt -3.6956 -5.2264
vt 2.536 -5.464
vt -3.464 -5.464
vt 2.8264 -5.6088
vt -3.1736 -5.6088
vt 3.1716 -5.6568
vt -2.8284 -5.6568
vt 2.8264 -5.6088
vt -3.1736 -5.6088
vt 2.536 -5.464
vt -3.464 -5.464
vt 2.3044 -5.2264
vt -3.6956 -5.2264
vt 2.1364 -4.8988
vt -3.8636 -4.8988
vt 2.0344 -4.4876
vt -3.9656 -4.4876
vt 2 -4
vt 0 -4
vt 6.522 -3.4436
vt 0.522 -3.4436
vt 7.0352 -2.8284
vt 1.0352 -2.8284
vt 7.5308 -2.1648
vt 1.5308 -2.1648
vt 8 -1.464
vt 2 -1.464
vt 8.4352 -0.7384
vt 2.4352 -0.7384
vt 8.8284 0
vt 2.8284 0
vt 9.1736 0.7384
vt 3.1736 0.7384
vt 9.464 1.464
vt 3.464 1.464
vt 9.695601 2.1648
vt 3.6956 2.1648
vt 9.8636 2.8284
vt 3.8636 2.8284
vt 9.9656 3.4436
vt 3.9656 3.4436
vt 10 4
vt 4 4
vt 9.9656 4.4876
vt 3.9656 4.4876
vt 9.8636 4.8988
vt 3.8636 4.8988
vt 9.695601 5.2264
vt 3.6956 5.2264
vt 9.464 5.464
vt 3.464 5.464
vt 9.1736 5.6088
vt 3.1736 5.6088
vt 8.8284 5.6568
vt 2.8284 5.6568
vt 9.1736 5.6088
vt 3.1736 5.6088
vt 9.464 5.464
vt 3.464 5.464
vt 9.695601 5.2264
vt 3.6956 5.2264
vt 9.8636 4.8988
vt 3.8636 4.8988
vt 9.9656 4.4876
vt 3.9656 4.4876
vt 6 8
vt 5.739 7.9828
vt 5.478 9.9656
vt 6 10
vt 5.4824 7.9318
vt 4.9648 9.8636
vt 5.2346 7.8478
vt 4.4692 9.695601
vt 5 7.732
vt 4 9.464
vt 4.7824 7.5868
vt 3.5648 9.1736
vt 4.5858 7.4142
vt 3.1716 8.8284
vt 4.4132 7.2176
vt 2.8264 8.4352
vt 4.268 7
vt 2.536 8
vt 4.1522 6.7654
vt 2.3044 7.5308
vt 4.0682 6.5176
vt 2.1364 7.0352
vt 4.0172 6.261
vt 2.0344 6.522
vt 4 6
vt 2 6
vt 4.0172 5.739
vt 2.0344 5.478
vt 4.0682 5.4824
vt 2.1364 4.9648
vt 4.1522 5.2346
vt 2.3044 4.4692
vt 4.268 5
vt 2.536 4
vt 4.4132 4.7824
vt 2.8264 3.5648
vt 4.5858 4.5858
vt 3.1716 3.1716
vt 4.7824 4.4132
vt 3.5648 2.8264
vt 5 4.268
vt 4 2.536
vt 5.2346 4.1522
vt 4.4692 2.3044
vt 5.4824 4.0682
vt 4.9648 2.1364
vt 5.739 4.0172
vt 5.478 2.0344
vt 6 4
vt 6 2
vt 6.261 4.0172
vt 6.522 2.0344
vt 6.5176 4.0682
vt 7.0352 2.1364
vt 6.7654 4.1522
vt 7.5308 2.3044
vt 7 4.268
vt 8 2.536
vt 7.2176 4.4132
vt 8.4352 2.8264
vt 7.4142 4.5858
vt 8.8284 3.1716
vt 7.5868 4.7824
vt 9.1736 3.5648
vt 7.732 5
vt 9.464 4
vt 7.8478 5.2346
vt 9.695601 4.4692
vt 7.9318 5.4824
vt 9.8636 4.9648
vt 7.9828 5.739
vt 9.9656 5.478
vt 8 6
vt 10 6
vt 7.9828 6.261
vt 9.9656 6.522
vt 7.9318 6.5176
vt 9.8636 7.0352
vt 7.8478 6.7654
vt 9.695601 7.5308
vt 7.732 7
vt 9.464 8
vt 7.5868 7.2176
vt 9.1736 8.4352
vt 7.4142 7.4142
vt 8.8284 8.8284
vt 7.2176 7.5868
vt 8.4352 9.1736
vt 7 7.732
vt 8 9.464
vt 6.7654 7.8478
vt 7.5308 9.695601
vt 6.5176 7.9318
vt 7.0352 9.8636
vt 6.261 7.9828
vt 6.522 9.9656
vt -0.2319999 2.437
vt 8 2
vt -2.258 1.547
vt 5.235 1.083
vt -2.258 1.547
vt -3.485 0.322
vt 4.586 0
vt -3.652 -0.9579999
vt 4.152 -1.083
vt -3.652 -0.958
vt 4 -2
vt -4.251 -2.035
vt -3.653 -2.741
vt 4.152 -2.613
vt 4.586 -2.828
vt -3.653 -2.741
vt -3.807 -2.86
vt 4.152 -2.613
vt -3.804 -2.46
vt 4 -2
vt -3.804 -2.46
vt -4.2 -1.531
vt 4.152 -1.083
vt -3.408 -0.326
vt 4.586 0
vt -3.408 -0.326
vt -3.099 0.95
vt 5.235 1.083
vt -1.803 2.053
vt 6 2
vt 7.848 2.613
vt 0.252 2.053
vt -0.3829999 2.716
vt 7.414 2.828
vt -0.197 2.886
vt 7.848 2.613
vt -0.197 2.886
usemtl 30
f 3/3/3 2/2/2 1/1/1
f 1/1/1 4/4/4 3/3/3
f 5/5/5 3/3/3 4/4/4
f 4/4/4 6/6/6 5/5/5
f 2/2/2 8/8/8 7/7/7
f 7/7/7 1/1/1 2/2/2
f 9/9/9 7/7/7 8/8/8
f 8/8/8 10/10/10 9/9/9
f 9/9/9 12/12/12 11/11/11
f 11/11/11 13/13/13 9/9/9
f 9/9/9 10/10/10 12/12/12
f 16/16/16 15/15/15 14/14/14
f 14/14/14 17/17/17 16/16/16
f 14/14/14 19/19/19 18/18/18
f 21/21/21 19/19/19 20/20/20
f 24/24/24 23/23/23 22/22/22
f 25/25/25 24/24/24 22/22/22
f 28/28/28 27/27/27 26/26/26
f 29/29/29 28/28/28 26/26/26
f 31/31/31 30/30/30 27/27/27
f 26/26/26 27/27/27 30/30/30
f 33/33/33 32/32/32 31/31/31
f 30/30/30 31/31/31 32/32/32
f 33/33/33 35/35/35 34/34/34
f 36/36/36 35/35/35 33/33/33
f 39/39/39 38/38/38 37/37/37
f 40/40/40 39/39/39 37/37/37
f 42/42/42 41/41/41 37/37/37
f 37/37/37 38/38/38 42/42/42
f 44/44/44 43/43/43 41/41/41
f 41/41/41 42/42/42 44/44/44
f 43/43/43 44/44/44 35/35/35
f 35/35/35 45/45/45 43/43/43
f 22/22/22 47/47/47 46/46/46
f 22/22/22 49/49/49 48/48/48
f 47/47/47 22/22/22 48/48/48
f 52/52/52 51/51/51 50/50/50
f 53/53/53 50/50/50 51/51/51
f 56/56/56 55/55/55 54/54/54
f 54/54/54 57/57/57 56/56/56
f 59/59/59 58/58/58 51/51/51
f 60/60/60 58/58/58 59/59/59
f 55/55/55 56/56/56 61/61/61
f 61/61/61 62/62/62 55/55/55
f 60/60/60 18/18/18 58/58/58
f 14/14/14 18/18/18 60/60/60
f 62/62/62 61/61/61 63/63/63
f 63/63/63 64/64/64 62/62/62
f 63/63/63 65/65/65 64/64/64
f 66/66/66 65/65/65 63/63/63
f 68/68/68 67/67/67 66/66/66
f 65/65/65 66/66/66 67/67/67
f 70/70/70 40/40/40 69/69/69
f 39/39/39 40/40/40 70/70/70
f 14/14/14 71/71/71 17/17/17
f 60/60/60 71/71/71 14/14/14
f 71/71/71 60/60/60 59/59/59
f 59/59/59 72/72/72 71/71/71
f 74/74/74 73/73/73 52/52/52
f 50/50/50 74/74/74 52/52/52
f 49/49/49 22/22/22 23/23/23
f 75/75/75 49/49/49 23/23/23
f 25/25/25 22/22/22 46/46/46
f 33/33/33 76/76/76 36/36/36
f 77/77/77 36/36/36 76/76/76
f 76/76/76 33/33/33 31/31/31
f 31/31/31 78/78/78 76/76/76
f 31/31/31 79/79/79 78/78/78
f 27/27/27 79/79/79 31/31/31
f 28/28/28 80/80/80 79/79/79
f 79/79/79 27/27/27 28/28/28
f 83/83/83 82/82/82 81/81/81
f 81/81/81 84/84/84 83/83/83
f 85/85/85 83/83/83 84/84/84
f 84/84/84 86/86/86 85/85/85
f 82/82/82 88/88/88 87/87/87
f 87/87/87 81/81/81 82/82/82
f 89/89/89 87/87/87 88/88/88
f 88/88/88 90/90/90 89/89/89
f 89/89/89 92/92/92 91/91/91
f 91/91/91 93/93/93 89/89/89
f 89/89/89 90/90/90 92/92/92
f 96/96/96 95/95/95 94/94/94
f 94/94/94 97/97/97 96/96/96
f 94/94/94 99/99/99 98/98/98
f 101/101/101 99/99/99 100/100/100
f 104/104/104 103/103/103 102/102/102
f 105/105/105 104/104/104 102/102/102
f 108/108/108 107/107/107 106/106/106
f 109/109/109 108/108/108 106/106/106
f 111/111/111 110/110/110 107/107/107
f 106/106/106 107/107/107 110/110/110
f 113/113/113 112/112/112 111/111/111
f 110/110/110 111/111/111 112/112/112
f 113/113/113 115/115/115 114/114/114
f 116/116/116 115/115/115 113/113/113
f 119/119/119 118/118/118 117/117/117
f 120/120/120 119/119/119 117/117/117
f 122/122/122 121/121/121 117/117/117
f 117/117/117 118/118/118 122/122/122
f 124/124/124 123/123/123 121/121/121
f 121/121/121 122/122/122 124/124/124
f 123/123/123 124/124/124 115/115/115
f 115/115/115 125/125/125 123/123/123
f 102/102/102 127/127/127 126/126/126
f 102/102/102 129/129/129 128/128/128
f 127/127/127 102/102/102 128/128/128
f 132/132/132 131/131/131 130/130/130
f 133/133/133 130/130/130 131/131/131
f 136/136/136 135/135/135 134/134/134
f 134/134/134 137/137/137 136/136/136
f 139/139/139 138/138/138 131/131/131
f 140/140/140 138/138/138 139/139/139
f 135/135/135 136/136/136 141/141/141
f 141/141/141 142/142/142 135/135/135
f 140/140/140 98/98/98 138/138/138
f 94/94/94 98/98/98 140/140/140
f 142/142/142 141/141/141 143/143/143
f 143/143/143 144/144/144 142/142/142
f 143/143/143 145/145/145 144/144/144
f 146/146/146 145/145/145 143/143/143
f 148/148/148 147/147/147 146/146/146
f 145/145/145 146/146/146 147/147/147
f 150/150/150 120/120/120 149/149/149
f 119/119/119 120/120/120 150/150/150
f 94/94/94 151/151/151 97/97/97
f 140/140/140 151/151/151 94/94/94
f 151/151/151 140/140/140 139/139/139
f 139/139/139 152/152/152 151/151/151
f 154/154/154 153/153/153 132/132/132
f 130/130/130 154/154/154 132/132/132
f 129/129/129 102/102/102 103/103/103
f 155/155/155 129/129/129 103/103/103
f 105/105/105 102/102/102 126/126/126
f 113/113/113 156/156/156 116/116/116
f 157/157/157 116/116/116 156/156/156
f 156/156/156 113/113/113 111/111/111
f 111/111/111 158/158/158 156/156/156
f 111/111/111 159/159/159 158/158/158
f 107/107/107 159/159/159 111/111/111
f 108/108/108 160/160/160 159/159/159
f 159/159/159 107/107/107 108/108/108
f 163/163/163 162/162/162 161/161/161
f 161/161/161 164/164/164 163/163/163
f 165/165/165 163/163/163 164/164/164
f 164/164/164 166/166/166 165/165/165
f 162/162/162 168/168/168 167/167/167
f 167/167/167 161/161/161 162/162/162
f 169/169/169 167/167/167 168/168/168
f 168/168/168 170/170/170 169/169/169
f 169/169/169 172/172/172 171/171/171
f 171/171/171 173/173/173 169/169/169
f 169/169/169 170/170/170 172/172/172
f 176/176/176 175/175/175 174/174/174
f 174/174/174 177/177/177 176/176/176
f 174/174/174 179/179/179 178/178/178
f 181/181/181 179/179/179 180/180/180
f 184/184/184 183/183/183 182/182/182
f 185/185/185 184/184/184 182/182/182
f 188/188/188 187/187/187 186/186/186
f 189/189/189 188/188/188 186/186/186
f 191/191/191 190/190/190 187/187/187
f 186/186/186 187/187/187 190/190/190
f 193/193/193 192/192/192 191/191/191
f 190/190/190 191/191/191 192/192/192
f 193/193/193 195/195/195 194/194/194
f 196/196/196 195/195/195 193/193/193
f 199/199/199 198/198/198 197/197/197
f 200/200/200 199/199/199 197/197/197
f 202/202/202 201/201/201 197/197/197
f 197/197/197 198/198/198 202/202/202
f 204/204/204 203/203/203 201/201/201
f 201/201/201 202/202/202 204/204/204
f 203/203/203 204/204/204 195/195/195
f 195/195/195 205/205/205 203/203/203
f 182/182/182 207/207/207 206/206/206
f 182/182/182 209/209/209 208/208/208
f 207/207/207 182/182/182 208/208/208
f 212/212/212 211/211/211 210/210/210
f 213/213/213 210/210/210 211/211/211
f 216/216/216 215/215/215 214/214/214
f 214/214/214 217/217/217 216/216/216
f 219/219/219 218/218/218 211/211/211
f 220/220/220 218/218/218 219/219/219
f 215/215/215 216/216/216 221/221/221
f 221/221/221 222/222/222 215/215/215
f 220/220/220 178/178/178 218/218/218
f 174/174/174 178/178/178 220/220/220
f 222/222/222 221/221/221 223/223/223
f 223/223/223 224/224/224 222/222/222
f 223/223/223 225/225/225 224/224/224
f 226/226/226 225/225/225 223/223/223
f 228/228/228 227/227/227 226/226/226
f 225/225/225 226/226/226 227/227/227
f 230/230/230 200/200/200 229/229/229
f 199/199/199 200/200/200 230/230/230
f 174/174/174 231/231/231 177/177/177
f 220/220/220 231/231/231 174/174/174
f 231/231/231 220/220/220 219/219/219
f 219/219/219 232/232/232 231/231/231
f 234/234/234 233/233/233 212/212/212
f 210/210/210 234/234/234 212/212/212
f 209/209/209 182/182/182 183/183/183
f 235/235/235 209/209/209 183/183/183
f 185/185/185 182/182/182 206/206/206
f 193/193/193 236/236/236 196/196/196
f 237/237/237 196/196/196 236/236/236
f 236/236/236 193/193/193 191/191/191
f 191/191/191 238/238/238 236/236/236
f 191/191/191 239/239/239 238/238/238
f 187/187/187 239/239/239 191/191/191
f 188/188/188 240/240/240 239/239/239
f 239/239/239 187/187/187 188/188/188
f 243/243/243 242/242/242 241/241/241
f 241/241/241 244/244/244 243/243/243
f 245/245/245 243/243/243 244/244/244
f 244/244/244 246/246/246 245/245/245
f 242/242/242 248/248/248 247/247/247
f 247/247/247 241/241/241 242/242/242
f 249/249/249 247/247/247 248/248/248
f 248/248/248 250/250/250 249/249/249
f 249/249/249 252/252/252 251/251/251
f 251/251/251 253/253/253 249/249/249
f 249/249/249 250/250/250 252/252/252
f 256/256/256 255/255/255 254/254/254
f 254/254/254 257/257/257 256/256/256
f 254/254/254 259/259/259 258/258/258
f 261/261/261 259/259/259 260/260/260
f 264/264/264 263/263/263 262/262/262
f 265/265/265 264/264/264 262/262/262
f 268/268/268 267/267/267 266/266/266
f 269/269/269 268/268/268 266/266/266
f 271/271/271 270/270/270 267/267/267
f 266/266/266 267/267/267 270/270/270
f 273/273/273 272/272/272 271/271/271
f 270/270/270 271/271/271 272/272/272
f 273/273/273 275/275/275 274/274/274
f 276/276/276 275/275/275 273/273/273
f 279/279/279 278/278/278 277/277/277
f 280/280/280 279/279/279 277/277/277
f 282/282/282 281/281/281 277/277/277
f 277/277/277 278/278/278 282/282/282
f 284/284/284 283/283/283 281/281/281
f 281/281/281 282/282/282 284/284/284
f 283/283/283 284/284/284 275/275/275
f 275/275/275 285/285/285 283/283/283
f 262/262/262 287/287/287 286/286/286
f 262/262/262 289/289/289 288/288/288
f 287/287/287 262/262/262 288/288/288
f 292/292/292 291/291/291 290/290/290
f 293/293/293 290/290/290 291/291/291
f 296/296/296 295/295/295 294/294/294
f 294/294/294 297/297/297 296/296/296
f 299/299/299 298/298/298 291/291/291
f 300/300/300 298/298/298 299/299/299
f 295/295/295 296/296/296 301/301/301
f 301/301/301 302/302/302 295/295/295
f 300/300/300 258/258/258 298/298/298
f 254/254/254 258/258/258 300/300/300
f 302/302/302 301/301/301 303/303/303
f 303/303/303 304/304/304 302/302/302
f 303/303/303 305/305/305 304/304/304
f 306/306/306 305/305/305 303/303/303
f 308/308/308 307/307/307 306/306/306
f 305/305/305 306/306/306 307/307/307
f 310/310/310 280/280/280 309/309/309
f 279/279/279 280/280/280 310/310/310
f 254/254/254 311/311/311 257/257/257
f 300/300/300 311/311/311 254/254/254
f 311/311/311 300/300/300 299/299/299
f 299/299/299 312/312/312 311/311/311
f 314/314/314 313/313/313 292/292/292
f 290/290/290 314/314/314 292/292/292
f 289/289/289 262/262/262 263/263/263
f 315/315/315 289/289/289 263/263/263
f 265/265/265 262/262/262 286/286/286
f 273/273/273 316/316/316 276/276/276
f 317/317/317 276/276/276 316/316/316
f 316/316/316 273/273/273 271/271/271
f 271/271/271 318/318/318 316/316/316
f 271/271/271 319/319/319 318/318/318
f 267/267/267 319/319/319 271/271/271
f 268/268/268 320/320/320 319/319/319
f 319/319/319 267/267/267 268/268/268
f 323/323/323 322/322/322 321/321/321
f 321/321/321 324/324/324 323/323/323
f 325/325/325 323/323/323 324/324/324
f 324/324/324 326/326/326 325/325/325
f 322/322/322 328/328/328 327/327/327
f 327/327/327 321/321/321 322/322/322
f 329/329/329 327/327/327 328/328/328
f 328/328/328 330/330/330 329/329/329
f 329/329/329 332/332/332 331/331/331
f 331/331/331 333/333/333 329/329/329
f 329/329/329 330/330/330 332/332/332
f 336/336/336 335/335/335 334/334/334
f 334/334/334 337/337/337 336/336/336
f 334/334/334 339/339/339 338/338/338
f 341/341/341 339/339/339 340/340/340
f 344/344/344 343/343/343 342/342/342
f 345/345/345 344/344/344 342/342/342
f 348/348/348 347/347/347 346/346/346
f 349/349/349 348/348/348 346/346/346
f 351/351/351 350/350/350 347/347/347
f 346/346/346 347/347/347 350/350/350
f 353/353/353 352/352/352 351/351/351
f 350/350/350 351/351/351 352/352/352
f 353/353/353 355/355/355 354/354/354
f 356/356/356 355/355/355 353/353/353
f 359/359/359 358/358/358 357/357/357
f 360/360/360 359/359/359 357/357/357
f 362/362/362 361/361/361 357/357/357
f 357/357/357 358/358/358 362/362/362
f 364/364/364 363/363/363 361/361/361
f 361/361/361 362/362/362 364/364/364
f 363/363/363 364/364/364 355/355/355
f 355/355/355 365/365/365 363/363/363
f 342/342/342 367/367/367 366/366/366
f 342/342/342 369/369/369 368/368/368
f 367/367/367 342/342/342 368/368/368
f 372/372/372 371/371/371 370/370/370
f 373/373/373 370/370/370 371/371/371
f 376/376/376 375/375/375 374/374/374
f 374/374/374 377/377/377 376/376/376
f 379/379/379 378/378/378 371/371/371
f 380/380/380 378/378/378 379/379/379
f 375/375/375 376/376/376 381/381/381
f 381/381/381 382/382/382 375/375/375
f 380/380/380 338/338/338 378/378/378
f 334/334/334 338/338/338 380/380/380
f 382/382/382 381/381/381 383/383/383
f 383/383/383 384/384/384 382/382/382
f 383/383/383 385/385/385 384/384/384
f 386/386/386 385/385/385 383/383/383
f 388/388/388 387/387/387 386/386/386
f 385/385/385 386/386/386 387/387/387
f 390/390/390 360/360/360 389/389/389
f 359/359/359 360/360/360 390/390/390
f 334/334/334 391/391/391 337/337/337
f 380/380/380 391/391/391 334/334/334
f 391/391/391 380/380/380 379/379/379
f 379/379/379 392/392/392 391/391/391
f 394/394/394 393/393/393 372/372/372
f 370/370/370 394/394/394 372/372/372
f 369/369/369 342/342/342 343/343/343
f 395/395/395 369/369/369 343/343/343
f 345/345/345 342/342/342 366/366/366
f 353/353/353 396/396/396 356/356/356
f 397/397/397 356/356/356 396/396/396
f 396/396/396 353/353/353 351/351/351
f 351/351/351 398/398/398 396/396/396
f 351/351/351 399/399/399 398/398/398
f 347/347/347 399/399/399 351/351/351
f 348/348/348 400/400/400 399/399/399
f 399/399/399 347/347/347 348/348/348
f 403/403/403 402/402/402 401/401/401
f 401/401/401 404/404/404 403/403/403
f 405/405/405 403/403/403 404/404/404
f 404/404/404 406/406/406 405/405/405
f 402/402/402 408/408/408 407/407/407
f 407/407/407 401/401/401 402/402/402
f 409/409/409 407/407/407 408/408/408
f 408/408/408 410/410/410 409/409/409
f 409/409/409 412/412/412 411/411/411
f 411/411/411 413/413/413 409/409/409
f 409/409/409 410/410/410 412/412/412
f 416/416/416 415/415/415 414/414/414
f 414/414/414 417/417/417 416/416/416
f 414/414/414 419/419/419 418/418/418
f 421/421/421 419/419/419 420/420/420
f 424/424/424 423/423/423 422/422/422
f 425/425/425 424/424/424 422/422/422
f 428/428/428 427/427/427 426/426/426
f 429/429/429 428/428/428 426/426/426
f 431/431/431 430/430/430 427/427/427
f 426/426/426 427/427/427 430/430/430
f 433/433/433 432/432/432 431/431/431
f 430/430/430 431/431/431 432/432/432
f 433/433/433 435/435/435 434/434/434
f 436/436/436 435/435/435 433/433/433
f 439/439/439 438/438/438 437/437/437
f 440/440/440 439/439/439 437/437/437
f 442/442/442 441/441/441 437/437/437
f 437/437/437 438/438/438 442/442/442
f 444/444/444 443/443/443 441/441/441
f 441/441/441 442/442/442 444/444/444
f 443/443/443 444/444/444 435/435/435
f 435/435/435 445/445/445 443/443/443
f 422/422/422 447/447/447 446/446/446
f 422/422/422 449/449/449 448/448/448
f 447/447/447 422/422/422 448/448/448
f 452/452/452 451/451/451 450/450/450
f 453/453/453 450/450/450 451/451/451
f 456/456/456 455/455/455 454/454/454
f 454/454/454 457/457/457 456/456/456
f 459/459/459 458/458/458 451/451/451
f 460/460/460 458/458/458 459/459/459
f 455/455/455 456/456/456 461/461/461
f 461/461/461 462/462/462 455/455/455
f 460/460/460 418/418/418 458/458/458
f 414/414/414 418/418/418 460/460/460
f 462/462/462 461/461/461 463/463/463
f 463/463/463 464/464/464 462/462/462
f 463/463/463 465/465/465 464/464/464
f 466/466/466 465/465/465 463/463/463
f 468/468/468 467/467/467 466/466/466
f 465/465/465 466/466/466 467/467/467
f 470/470/470 440/440/440 469/469/469
f 439/439/439 440/440/440 470/470/470
f 414/414/414 471/471/471 417/417/417
f 460/460/460 471/471/471 414/414/414
f 471/471/471 460/460/460 459/459/459
f 459/459/459 472/472/472 471/471/471
f 474/474/474 473/473/473 452/452/452
f 450/450/450 474/474/474 452/452/452
f 449/449/449 422/422/422 423/423/423
f 475/475/475 449/449/449 423/423/423
f 425/425/425 422/422/422 446/446/446
f 433/433/433 476/476/476 436/436/436
f 477/477/477 436/436/436 476/476/476
f 476/476/476 433/433/433 431/431/431
f 431/431/431 478/478/478 476/476/476
f 431/431/431 479/479/479 478/478/478
f 427/427/427 479/479/479 431/431/431
f 428/428/428 480/480/480 479/479/479
f 479/479/479 427/427/427 428/428/428
f 404/404/404 482/482/482 481/481/481
f 481/481/481 483/483/483 404/404/404
f 484/484/484 404/404/404 483/483/483
f 483/483/483 485/485/485 484/484/484
f 482/482/482 487/487/487 486/486/486
f 486/486/486 481/481/481 482/482/482
f 488/488/488 486/486/486 487/487/487
f 487/487/487 489/489/489 488/488/488
f 488/488/488 491/491/491 490/490/490
f 490/490/490 492/492/492 488/488/488
f 488/488/488 489/489/489 491/491/491
f 495/495/495 494/494/494 493/493/493
f 493/493/493 496/496/496 495/495/495
f 493/493/493 498/498/498 497/497/497
f 500/500/500 498/498/498 499/499/499
f 503/503/503 502/502/502 501/501/501
f 504/504/504 503/503/503 501/501/501
f 507/507/507 506/506/506 505/505/505
f 508/508/508 507/507/507 505/505/505
f 510/510/510 509/509/509 506/506/506
f 505/505/505 506/506/506 509/509/509
f 512/512/512 511/511/511 510/510/510
f 509/509/509 510/510/510 511/511/511
f 512/512/512 514/514/514 513/513/513
f 515/515/515 514/514/514 512/512/512
f 518/518/518 517/517/517 516/516/516
f 519/519/519 518/518/518 516/516/516
f 521/521/521 520/520/520 516/516/516
f 516/516/516 517/517/517 521/521/521
f 523/523/523 522/522/522 520/520/520
f 520/520/520 521/521/521 523/523/523
f 522/522/522 523/523/523 514/514/514
f 514/514/514 524/524/524 522/522/522
f 501/501/501 526/526/526 525/525/525
f 501/501/501 528/528/528 527/527/527
f 526/526/526 501/501/501 527/527/527
f 531/531/531 530/530/530 529/529/529
f 532/532/532 529/529/529 530/530/530
f 535/535/535 534/534/534 533/533/533
f 533/533/533 536/536/536 535/535/535
f 538/538/538 537/537/537 530/530/530
f 539/539/539 537/537/537 538/538/538
f 534/534/534 535/535/535 540/540/540
f 540/540/540 541/541/541 534/534/534
f 539/539/539 497/497/497 537/537/537
f 493/493/493 497/497/497 539/539/539
f 541/541/541 540/540/540 542/542/542
f 542/542/542 543/543/543 541/541/541
f 542/542/542 544/544/544 543/543/543
f 545/545/545 544/544/544 542/542/542
f 547/547/547 546/546/546 545/545/545
f 544/544/544 545/545/545 546/546/546
f 549/549/549 519/519/519 548/548/548
f 518/518/518 519/519/519 549/549/549
f 493/493/493 550/550/550 496/496/496
f 539/539/539 550/550/550 493/493/493
f 550/550/550 539/539/539 538/538/538
f 538/538/538 551/551/551 550/550/550
f 553/553/553 552/552/552 531/531/531
f 529/529/529 553/553/553 531/531/531
f 528/528/528 501/501/501 502/502/502
f 554/554/554 528/528/528 502/502/502
f 504/504/504 501/501/501 525/525/525
f 512/512/512 555/555/555 515/515/515
f 556/556/556 515/515/515 555/555/555
f 555/555/555 512/512/512 510/510/510
f 510/510/510 557/557/557 555/555/555
f 510/510/510 558/558/558 557/557/557
f 506/506/506 558/558/558 510/510/510
f 507/507/507 559/559/559 558/558/558
f 558/558/558 506/506/506 507/507/507
f 562/562/562 561/561/561 560/560/560
f 560/560/560 563/563/563 562/562/562
f 563/563/563 560/560/560 564/564/564
f 564/564/564 565/565/565 563/563/563
f 565/565/565 564/564/564 566/566/566
f 566/566/566 567/567/567 565/565/565
f 567/567/567 566/566/566 568/568/568
f 568/568/568 569/569/569 567/567/567
f 569/569/569 568/568/568 570/570/570
f 570/570/570 571/571/571 569/569/569
f 571/571/571 570/570/570 572/572/572
f 572/572/572 573/573/573 571/571/571
f 573/573/573 572/572/572 574/574/574
f 574/574/574 575/575/575 573/573/573
f 575/575/575 574/574/574 576/576/576
f 576/576/576 577/577/577 575/575/575
f 577/577/577 576/576/576 578/578/578
f 578/578/578 579/579/579 577/577/577
f 579/579/579 578/578/578 580/580/580
f 580/580/580 581/581/581 579/579/579
f 581/581/581 580/580/580 582/582/582
f 582/582/582 583/583/583 581/581/581
f 583/583/583 582/582/582 584/584/584
f 584/584/584 585/585/585 583/583/583
f 585/585/585 584/584/584 586/586/586
f 586/586/586 587/587/587 585/585/585
f 587/587/587 586/586/586 588/588/588
f 588/588/588 589/589/589 587/587/587
f 589/589/589 588/588/588 590/590/590
f 590/590/590 591/591/591 589/589/589
f 591/591/591 590/590/590 592/592/592
f 592/592/592 593/593/593 591/591/591
f 593/593/593 592/592/592 594/594/594
f 594/594/594 595/595/595 593/593/593
f 595/595/595 594/594/594 596/596/596
f 596/596/596 597/597/597 595/595/595
f 597/597/597 596/596/596 598/598/598
f 598/598/598 599/599/599 597/597/597
f 599/599/599 598/598/598 600/600/600
f 600/600/600 601/601/601 599/599/599
f 601/601/601 600/600/600 602/602/602
f 602/602/602 603/603/603 601/601/601
f 603/603/603 602/602/602 604/604/604
f 604/604/604 605/605/605 603/603/603
f 605/605/605 604/604/604 606/606/606
f 606/606/606 607/607/607 605/605/605
f 607/607/607 606/606/606 608/608/608
f 608/608/608 609/609/609 607/607/607
f 609/609/609 608/608/608 610/610/610
f 610/610/610 611/611/611 609/609/609
f 611/611/611 610/610/610 612/612/612
f 612/612/612 613/613/613 611/611/611
f 613/613/613 612/612/612 614/614/614
f 614/614/614 615/615/615 613/613/613
f 615/615/615 614/614/614 616/616/616
f 616/616/616 617/617/617 615/615/615
f 617/617/617 616/616/616 618/618/618
f 618/618/618 619/619/619 617/617/617
f 619/619/619 618/618/618 620/620/620
f 620/620/620 621/621/621 619/619/619
f 621/621/621 620/620/620 622/622/622
f 622/622/622 623/623/623 621/621/621
f 623/623/623 622/622/622 624/624/624
f 624/624/624 625/625/625 623/623/623
f 625/625/625 624/624/624 626/626/626
f 626/626/626 627/627/627 625/625/625
f 627/627/627 626/626/626 628/628/628
f 628/628/628 629/629/629 627/627/627
f 629/629/629 628/628/628 630/630/630
f 630/630/630 631/631/631 629/629/629
f 631/631/631 630/630/630 632/632/632
f 632/632/632 633/633/633 631/631/631
f 633/633/633 632/632/632 634/634/634
f 634/634/634 635/635/635 633/633/633
f 635/635/635 634/634/634 636/636/636
f 636/636/636 637/637/637 635/635/635
f 637/637/637 636/636/636 638/638/638
f 638/638/638 639/639/639 637/637/637
f 639/639/639 638/638/638 640/640/640
f 640/640/640 641/641/641 639/639/639
f 641/641/641 640/640/640 642/642/642
f 642/642/642 643/643/643 641/641/641
f 643/643/643 642/642/642 644/644/644
f 644/644/644 645/645/645 643/643/643
f 645/645/645 644/644/644 646/646/646
f 646/646/646 647/647/647 645/645/645
f 647/647/647 646/646/646 648/648/648
f 648/648/648 649/649/649 647/647/647
f 649/649/649 648/648/648 650/650/650
f 650/650/650 651/651/651 649/649/649
f 651/651/651 650/650/650 652/652/652
f 652/652/652 653/653/653 651/651/651
f 653/653/653 652/652/652 654/654/654
f 654/654/654 655/655/655 653/653/653
f 655/655/655 654/654/654 561/561/561
f 561/561/561 562/562/562 655/655/655
f 656/656/656 657/657/657 658/658/658
f 658/658/658 659/659/659 656/656/656
f 657/657/657 660/660/660 661/661/661
f 661/661/661 658/658/658 657/657/657
f 660/660/660 662/662/662 663/663/663
f 663/663/663 661/661/661 660/660/660
f 662/662/662 664/664/664 665/665/665
f 665/665/665 663/663/663 662/662/662
f 664/664/664 666/666/666 667/667/667
f 667/667/667 665/665/665 664/664/664
f 666/666/666 668/668/668 669/669/669
f 669/669/669 667/667/667 666/666/666
f 668/668/668 670/670/670 671/671/671
f 671/671/671 669/669/669 668/668/668
f 670/670/670 672/672/672 673/673/673
f 673/673/673 671/671/671 670/670/670
f 672/672/672 674/674/674 675/675/675
f 675/675/675 673/673/673 672/672/672
f 674/674/674 676/676/676 677/677/677
f 677/677/677 675/675/675 674/674/674
f 676/676/676 678/678/678 679/679/679
f 679/679/679 677/677/677 676/676/676
f 678/678/678 680/680/680 681/681/681
f 681/681/681 679/679/679 678/678/678
f 680/680/680 682/682/682 683/683/683
f 683/683/683 681/681/681 680/680/680
f 682/682/682 684/684/684 685/685/685
f 685/685/685 683/683/683 682/682/682
f 684/684/684 686/686/686 687/687/687
f 687/687/687 685/685/685 684/684/684
f 686/686/686 688/688/688 689/689/689
f 689/689/689 687/687/687 686/686/686
f 688/688/688 690/690/690 691/691/691
f 691/691/691 689/689/689 688/688/688
f 690/690/690 692/692/692 693/693/693
f 693/693/693 691/691/691 690/690/690
f 692/692/692 694/694/694 695/695/695
f 695/695/695 693/693/693 692/692/692
f 694/694/694 696/696/696 697/697/697
f 697/697/697 695/695/695 694/694/694
f 696/696/696 698/698/698 699/699/699
f 699/699/699 697/697/697 696/696/696
f 698/698/698 700/700/700 701/701/701
f 701/701/701 699/699/699 698/698/698
f 700/700/700 702/702/702 703/703/703
f 703/703/703 701/701/701 700/700/700
f 702/702/702 704/704/704 705/705/705
f 705/705/705 703/703/703 702/702/702
f 704/704/704 706/706/706 707/707/707
f 707/707/707 705/705/705 704/704/704
f 706/706/706 708/708/708 709/709/709
f 709/709/709 707/707/707 706/706/706
f 708/708/708 710/710/710 711/711/711
f 711/711/711 709/709/709 708/708/708
f 710/710/710 712/712/712 713/713/713
f 713/713/713 711/711/711 710/710/710
f 712/712/712 714/714/714 715/715/715
f 715/715/715 713/713/713 712/712/712
f 714/714/714 716/716/716 717/717/717
f 717/717/717 715/715/715 714/714/714
f 716/716/716 718/718/718 719/719/719
f 719/719/719 717/717/717 716/716/716
f 718/718/718 720/720/720 721/721/721
f 721/721/721 719/719/719 718/718/718
f 720/720/720 722/722/722 723/723/723
f 723/723/723 721/721/721 720/720/720
f 722/722/722 724/724/724 725/725/725
f 725/725/725 723/723/723 722/722/722
f 724/724/724 726/726/726 727/727/727
f 727/727/727 725/725/725 724/724/724
f 726/726/726 728/728/728 729/729/729
f 729/729/729 727/727/727 726/726/726
f 728/728/728 730/730/730 731/731/731
f 731/731/731 729/729/729 728/728/728
f 730/730/730 732/732/732 733/733/733
f 733/733/733 731/731/731 730/730/730
f 732/732/732 734/734/734 735/735/735
f 735/735/735 733/733/733 732/732/732
f 734/734/734 736/736/736 737/737/737
f 737/737/737 735/735/735 734/734/734
f 736/736/736 738/738/738 739/739/739
f 739/739/739 737/737/737 736/736/736
f 738/738/738 740/740/740 741/741/741
f 741/741/741 739/739/739 738/738/738
f 740/740/740 742/742/742 743/743/743
f 743/743/743 741/741/741 740/740/740
f 742/742/742 744/744/744 745/745/745
f 745/745/745 743/743/743 742/742/742
f 744/744/744 746/746/746 747/747/747
f 747/747/747 745/745/745 744/744/744
f 746/746/746 748/748/748 749/749/749
f 749/749/749 747/747/747 746/746/746
f 748/748/748 750/750/750 751/751/751
f 751/751/751 749/749/749 748/748/748
f 750/750/750 656/656/656 659/659/659
f 659/659/659 751/751/751 750/750/750
f 754/754/754 753/753/753 752/752/752
f 755/755/755 753/753/753 754/754/754
f 757/757/757 755/755/755 756/756/756
f 758/758/758 755/755/755 757/757/757
f 759/759/759 758/758/758 757/757/757
f 760/760/760 758/758/758 759/759/759
f 762/762/762 760/760/760 761/761/761
f 761/761/761 763/763/763 762/762/762
f 762/762/762 763/763/763 764/764/764
f 764/764/764 765/765/765 762/762/762
f 766/766/766 765/765/765 764/764/764
f 768/768/768 766/766/766 767/767/767
f 769/769/769 766/766/766 768/768/768
f 770/770/770 769/769/769 768/768/768
f 771/771/771 769/769/769 770/770/770
f 773/773/773 771/771/771 772/772/772
f 774/774/774 771/771/771 773/773/773
f 775/775/775 774/774/774 773/773/773
f 776/776/776 774/774/774 775/775/775
f 778/778/778 776/776/776 777/777/777
f 779/779/779 776/776/776 778/778/778
f 780/780/780 779/779/779 778/778/778
f 781/781/781 779/779/779 780/780/780
f 782/782/782 781/781/781 780/780/780
f 784/784/784 782/782/782 783/783/783
f 785/785/785 782/782/782 784/784/784
f 786/786/786 785/785/785 784/784/784
f 787/787/787 785/785/785 786/786/786
f 752/752/752 787/787/787 788/788/788
f 753/753/753 787/787/787 752/752/752
