# Blender 4.5.2 LTS
# www.blender.org
mtllib hand.mtl
o hand
v 12.849060 1.837119 2.955384
v 12.870040 1.511570 2.977271
v 12.962150 1.514646 0.478970
v 12.829990 2.157231 2.891282
v 12.813180 2.466419 2.785970
v 12.798940 2.759193 2.640958
v 12.787470 3.030809 2.459245
v 12.779010 3.276277 2.243338
v 12.773660 3.491847 1.997490
v 12.771570 3.673277 1.725451
v 12.772710 3.818065 1.432221
v 12.777110 3.923212 1.122553
v 12.784670 3.987214 0.801942
v 12.795260 4.009068 0.475888
v 12.808710 3.988016 0.149886
v 12.824790 3.924804 -0.170568
v 12.843210 3.820418 -0.479978
v 12.863680 3.676353 -0.772850
v 12.885820 3.495592 -1.044442
v 12.909270 3.280626 -1.289758
v 12.933630 3.035690 -1.505059
v 12.958470 2.764520 -1.686100
v 12.983380 2.472103 -1.830390
v 13.007930 2.163173 -1.934937
v 13.031690 1.843217 -1.998248
v 13.054260 1.517722 -2.019331
v 13.075250 1.192173 -1.997443
v 13.094310 0.872061 -1.933342
v 13.111120 0.562873 -1.828030
v 13.125370 0.270099 -1.683017
v 13.136840 -0.001517 -1.501305
v 13.145300 -0.246984 -1.285398
v 13.150640 -0.462555 -1.039550
v 13.152740 -0.643985 -0.767511
v 13.151600 -0.788772 -0.474282
v 13.147190 -0.893919 -0.164613
v 13.139630 -0.957922 0.155998
v 13.129050 -0.979775 0.482052
v 13.115590 -0.958724 0.808054
v 13.099520 -0.895511 1.128508
v 13.081100 -0.791127 1.437918
v 13.060630 -0.647060 1.730790
v 13.038490 -0.466300 2.002381
v 13.015030 -0.251334 2.247698
v 12.990680 -0.006398 2.462999
v 12.965830 0.264772 2.644040
v 12.940920 0.557189 2.788330
v 12.916380 0.866119 2.892877
v 12.892620 1.186075 2.956187
v -0.113097 0.969265 2.476413
v -0.092110 0.643717 2.498301
v 12.870040 1.511570 2.977271
v 12.849060 1.837119 2.955384
v -0.132161 1.289378 2.412312
v 12.829990 2.157231 2.891282
v -0.148971 1.598566 2.307001
v 12.813180 2.466419 2.785970
v -0.163214 1.891339 2.161988
v 12.798940 2.759193 2.640958
v -0.174685 2.162956 1.980275
v 12.787470 3.030809 2.459245
v -0.183142 2.408422 1.764368
v 12.779010 3.276277 2.243338
v -0.188491 2.623994 1.518519
v 12.773660 3.491847 1.997490
v -0.190586 2.805423 1.246481
v 12.771570 3.673277 1.725451
v -0.189444 2.950211 0.953252
v 12.772710 3.818065 1.432221
v -0.185042 3.055358 0.643583
v 12.777110 3.923212 1.122553
v -0.177480 3.119360 0.322972
v 12.784670 3.987214 0.801942
v -0.166895 3.141213 -0.003082
v 12.795260 4.009068 0.475888
v -0.153439 3.120163 -0.329084
v 12.808710 3.988016 0.149886
v -0.137366 3.056950 -0.649538
v 12.824790 3.924804 -0.170568
v -0.118944 2.952565 -0.958947
v 12.843210 3.820419 -0.479978
v -0.098476 2.808499 -1.251820
v 12.863680 3.676353 -0.772850
v -0.076338 2.627738 -1.523411
v 12.885820 3.495592 -1.044442
v -0.052881 2.412772 -1.768728
v 12.909270 3.280626 -1.289758
v -0.028526 2.167836 -1.984029
v 12.933630 3.035690 -1.505059
v -0.003680 1.896667 -2.165070
v 12.958470 2.764520 -1.686100
v 0.021230 1.604249 -2.309360
v 12.983380 2.472103 -1.830390
v 0.045776 1.295320 -2.413907
v 13.007930 2.163173 -1.934937
v 0.069538 0.975364 -2.477217
v 13.031690 1.843217 -1.998248
v 0.092110 0.649868 -2.498301
v 13.054260 1.517722 -2.019331
v 0.113097 0.324320 -2.476413
v 13.075250 1.192173 -1.997443
v 0.132161 0.004207 -2.412312
v 13.094310 0.872061 -1.933342
v 0.148971 -0.304981 -2.307000
v 13.111120 0.562873 -1.828030
v 0.163214 -0.597754 -2.161987
v 13.125370 0.270099 -1.683017
v 0.174685 -0.869371 -1.980275
v 13.136840 -0.001517 -1.501305
v 0.183142 -1.114838 -1.764368
v 13.145300 -0.246984 -1.285398
v 0.188491 -1.330409 -1.518520
v 13.150640 -0.462555 -1.039550
v 0.190586 -1.511838 -1.246481
v 13.152740 -0.643985 -0.767511
v 0.189444 -1.656626 -0.953252
v 13.151600 -0.788773 -0.474282
v 0.185042 -1.761773 -0.643583
v 13.147190 -0.893919 -0.164613
v 0.177480 -1.825775 -0.322972
v 13.139630 -0.957922 0.155998
v 0.166895 -1.847629 0.003083
v 13.129050 -0.979775 0.482052
v 0.153439 -1.826578 0.329084
v 13.115590 -0.958724 0.808054
v 0.137366 -1.763365 0.649538
v 13.099520 -0.895511 1.128508
v 0.118944 -1.658980 0.958948
v 13.081100 -0.791127 1.437918
v 0.098476 -1.514914 1.251820
v 13.060630 -0.647060 1.730790
v 0.076338 -1.334154 1.523411
v 13.038490 -0.466300 2.002381
v 0.052881 -1.119188 1.768728
v 13.015030 -0.251334 2.247698
v 0.028526 -0.874251 1.984029
v 12.990680 -0.006398 2.462999
v 0.003680 -0.603082 2.165070
v 12.965830 0.264772 2.644040
v -0.021230 -0.310664 2.309360
v 12.940920 0.557189 2.788330
v -0.045776 -0.001735 2.413907
v 12.916380 0.866119 2.892877
v -0.069538 0.318221 2.477217
v 12.892620 1.186075 2.956187
v -1.679608 2.663008 2.063299
v -0.224172 3.139301 1.550461
v -0.219771 2.760749 2.117243
v -0.178765 1.788920 2.768400
v -4.747126 1.483055 2.599594
v -4.720352 1.651883 2.489213
v -0.110532 0.643102 2.997962
v -4.539899 0.346542 2.834290
v -0.025475 -0.502156 2.771232
v -4.001566 -0.768366 2.624310
v 0.039542 -1.211483 2.296932
v -3.425940 -1.443507 2.168878
v -3.298733 -1.697392 1.998237
v 0.063457 -1.472384 2.122474
v 0.142733 -2.120135 1.150737
v -2.852422 -2.320669 1.040062
v 0.200267 -2.346413 0.003699
v -2.501238 -2.527387 -0.096126
v -0.063457 2.765968 -2.122473
v -0.109617 3.143126 -1.556626
v -1.523294 2.668228 -2.176416
v -4.542886 1.489875 -2.940038
v 0.025475 1.795741 -2.771231
v -4.524328 1.658429 -2.827571
v -4.318835 0.353923 -3.161633
v 0.110532 0.650483 -2.997962
v -3.797326 -0.761546 -2.915322
v 0.178765 -0.495336 -2.768400
v -3.256738 -1.437857 -2.420401
v 0.208744 -1.205833 -2.292346
v -3.142419 -1.692172 -2.241480
v 0.219771 -1.467164 -2.117242
v -2.767822 -2.317844 -1.254577
v 0.227333 -2.117310 -1.143902
v -1.523294 2.668228 -2.176416
v -0.109617 3.143126 -1.556626
v -1.679608 2.663008 2.063299
v -0.224172 3.139301 1.550461
v -3.958894 1.876471 -0.144447
v -4.307117 1.734859 -2.455221
v -4.524328 1.658429 -2.827571
v -4.476318 1.729209 2.134058
v -4.720352 1.651883 2.489213
v -0.109617 3.143126 -1.556626
v -0.118949 2.952615 -0.958898
v -0.166895 3.141213 -0.003082
v -0.189446 2.950261 0.953202
v -0.224172 3.139301 1.550461
v -0.110532 0.643102 2.997962
v -0.178758 1.788821 2.768400
v -0.148969 1.598516 2.307050
v -0.092110 0.643717 2.498301
v -0.219771 2.760749 2.117243
v -0.183147 2.408473 1.764418
v -0.063457 2.765968 -2.122473
v -0.052882 2.412822 -1.768778
v 0.025482 1.795640 -2.771231
v 0.021235 1.604199 -2.309409
v 0.110532 0.650483 -2.997962
v 0.092110 0.649868 -2.498301
v 0.178758 -0.495236 -2.768400
v 0.148969 -0.304931 -2.307050
v 0.219771 -1.467164 -2.117242
v 0.183141 -1.114788 -1.764419
v 0.227330 -2.117310 -1.143802
v 0.189446 -1.656676 -0.953202
v 0.200267 -2.346413 0.003699
v 0.166895 -1.847629 0.003083
v 0.142736 -2.120135 1.150638
v 0.118949 -1.659030 0.958898
v 0.063457 -1.472384 2.122474
v 0.052875 -1.119138 1.768778
v -0.025482 -0.502056 2.771232
v -0.021235 -0.310615 2.309410
v -10.687880 6.281759 -6.339561
v -11.428750 6.035609 -6.418814
v -7.971594 -4.406424 -6.304207
v -7.230729 -4.160268 -6.224954
v -9.963271 6.523640 -6.159443
v -6.506120 -3.918387 -6.044837
v -9.267356 6.757100 -5.881327
v -5.810204 -3.684932 -5.766719
v -8.612517 6.977990 -5.509275
v -5.155367 -3.464044 -5.394669
v -8.009311 7.182730 -5.050887
v -4.552160 -3.259302 -4.936280
v -7.468895 7.367560 -4.512583
v -4.011744 -3.074473 -4.397976
v -6.999431 7.529660 -3.904874
v -3.542280 -2.912374 -3.790267
v -6.610266 7.665830 -3.237114
v -3.153115 -2.776200 -3.122507
v -6.306647 7.774210 -2.521507
v -2.849496 -2.667823 -2.406900
v -6.094985 7.852530 -1.769701
v -2.637835 -2.589495 -1.655094
v -5.978209 7.899700 -0.995014
v -2.521059 -2.542330 -0.880407
v -5.958110 7.914960 -0.210722
v -2.500959 -2.527067 -0.096115
v -6.035907 7.897770 0.569921
v -2.578756 -2.544257 0.684528
v -6.209408 7.848710 1.333788
v -2.752257 -2.593316 1.448395
v -6.475849 7.768560 2.067771
v -3.018698 -2.673473 2.182379
v -6.831329 7.658450 2.758808
v -3.374179 -2.783581 2.873415
v -7.268598 7.520670 3.395761
v -3.811447 -2.921362 3.510368
v -7.781523 7.357120 3.966850
v -4.324372 -3.084913 4.081457
v -8.360094 7.171010 4.463441
v -4.902943 -3.271016 4.578049
v -8.995399 6.965200 4.875662
v -5.538249 -3.476829 4.990269
v -9.675837 6.743460 5.197938
v -6.218685 -3.698571 5.312545
v -10.390320 6.509380 5.423479
v -6.933171 -3.932647 5.538086
v -11.126200 6.267120 5.549153
v -7.669053 -4.174904 5.663760
v -11.870870 6.020840 5.573030
v -8.413721 -4.421187 5.687637
v -11.008520 6.197240 -4.367338
v -11.502430 6.033140 -4.420173
v -8.045281 -4.408885 -4.305566
v -7.551372 -4.244785 -4.252731
v -10.525450 6.358490 -4.247260
v -7.068299 -4.083536 -4.132652
v -10.061510 6.514130 -4.061848
v -6.604354 -3.927902 -3.947241
v -9.624947 6.661380 -3.813814
v -6.167796 -3.780648 -3.699207
v -9.222809 6.797870 -3.508222
v -5.765657 -3.644157 -3.393615
v -8.862531 6.921090 -3.149352
v -5.405380 -3.520941 -3.034745
v -8.549555 7.029150 -2.744213
v -5.092404 -3.412877 -2.629606
v -8.290112 7.119930 -2.299040
v -4.832961 -3.322097 -2.184433
v -8.087699 7.192180 -1.821969
v -4.630548 -3.249848 -1.707362
v -7.946591 7.244400 -1.320765
v -4.489440 -3.197631 -1.206158
v -7.868741 7.275840 -0.804307
v -4.411590 -3.166188 -0.689700
v -7.855340 7.286020 -0.281445
v -4.398190 -3.156013 -0.166838
v -7.907206 7.274560 0.238984
v -4.450055 -3.167473 0.353591
v -8.022873 7.241850 0.748228
v -4.565722 -3.200178 0.862835
v -8.200500 7.188410 1.237550
v -4.743349 -3.253615 1.352157
v -8.437487 7.115010 1.698242
v -4.980336 -3.327018 1.812849
v -8.728999 7.023160 2.122877
v -5.271849 -3.418869 2.237484
v -9.070950 6.914130 2.503603
v -5.613798 -3.527901 2.618210
v -9.456665 6.790060 2.834664
v -5.999513 -3.651966 2.949271
v -9.880201 6.652860 3.109477
v -6.423050 -3.789171 3.224084
v -10.333830 6.505030 3.324328
v -6.876675 -3.936995 3.438935
v -10.810150 6.348990 3.474688
v -7.352999 -4.093042 3.589296
v -11.300740 6.187490 3.558472
v -7.843588 -4.254542 3.673079
v -11.797180 6.023300 3.574389
v -8.340033 -4.418726 3.688997
v -7.551374 -4.244772 -4.252731
v -7.230733 -4.160256 -6.224954
v -7.971594 -4.406424 -6.304207
v -8.045281 -4.408885 -4.305566
v -7.068305 -4.083510 -4.132653
v -6.506130 -3.918363 -6.044837
v -6.604364 -3.927864 -3.947242
v -5.810217 -3.684894 -5.766720
v -6.167809 -3.780598 -3.699208
v -5.155385 -3.463995 -5.394669
v -5.765674 -3.644097 -3.393615
v -4.552182 -3.259243 -4.936281
v -5.405399 -3.520871 -3.034746
v -4.011769 -3.074404 -4.397977
v -5.092425 -3.412799 -2.629606
v -3.542310 -2.912296 -3.790267
v -4.832983 -3.322012 -2.184433
v -3.153146 -2.776115 -3.122508
v -4.630572 -3.249757 -1.707363
v -2.849530 -2.667733 -2.406901
v -4.489466 -3.197536 -1.206159
v -2.637870 -2.589401 -1.655096
v -4.411616 -3.166091 -0.689701
v -2.521095 -2.542233 -0.880409
v -4.398216 -3.155915 -0.166839
v -4.450081 -3.167375 0.353590
v -2.578792 -2.544160 0.684527
v -4.565747 -3.200083 0.862834
v -2.752292 -2.593221 1.448394
v -4.743373 -3.253524 1.352157
v -3.018732 -2.673383 2.182377
v -4.980359 -3.326933 1.812848
v -3.374210 -2.783497 2.873414
v -5.271870 -3.418791 2.237483
v -3.811476 -2.921284 3.510367
v -5.613817 -3.527831 2.618209
v -4.324397 -3.084844 4.081456
v -5.999529 -3.651906 2.949270
v -4.902966 -3.270957 4.578048
v -6.423064 -3.789122 3.224084
v -5.538267 -3.476780 4.990268
v -6.876685 -3.936958 3.438935
v -6.218699 -3.698533 5.312544
v -7.353006 -4.093017 3.589295
v -6.933180 -3.932622 5.538085
v -7.843591 -4.254529 3.673079
v -7.669057 -4.174891 5.663760
v -8.340033 -4.418726 3.688997
v -8.413721 -4.421187 5.687637
v -11.007920 6.197440 -4.367315
v -10.687270 6.281949 -6.339538
v -11.428140 6.035789 -6.418791
v -11.501820 6.033330 -4.420150
v -10.524850 6.358700 -4.247237
v -9.962672 6.523850 -6.159421
v -10.060910 6.514350 -4.061826
v -9.266760 6.757320 -5.881304
v -9.624352 6.661610 -3.813792
v -8.611928 6.978220 -5.509254
v -9.222216 6.798110 -3.508200
v -8.008724 7.182970 -5.050865
v -8.861941 6.921340 -3.149330
v -7.468312 7.367810 -4.512561
v -8.548967 7.029410 -2.744191
v -6.998852 7.529910 -3.904852
v -8.289526 7.120200 -2.299018
v -6.609688 7.666090 -3.237092
v -8.087114 7.192450 -1.821947
v -6.306072 7.774480 -2.521486
v -7.946008 7.244670 -1.320743
v -6.094412 7.852810 -1.769680
v -7.868158 7.276120 -0.804285
v -5.977637 7.899980 -0.994993
v -7.854758 7.286290 -0.281423
v -5.957538 7.915240 -0.210700
v -7.906623 7.274830 0.239005
v -6.035335 7.898050 0.569943
v -8.022289 7.242130 0.748250
v -6.208834 7.848990 1.333809
v -8.199916 7.188690 1.237572
v -6.475274 7.768830 2.067793
v -8.436901 7.115280 1.698264
v -6.830752 7.658710 2.758830
v -8.728412 7.023420 2.122899
v -7.268018 7.520930 3.395783
v -9.070359 6.914380 2.503625
v -7.780940 7.357370 3.966872
v -9.456071 6.790300 2.834686
v -8.359508 7.171250 4.463463
v -9.879606 6.653090 3.109499
v -8.994809 6.965430 4.875684
v -10.333230 6.505250 3.324350
v -9.675241 6.743680 5.197960
v -10.809550 6.349190 3.474711
v -10.389720 6.509590 5.423501
v -11.300130 6.187680 3.558494
v -11.125600 6.267320 5.549176
v -11.796570 6.023480 3.574412
v -11.870260 6.021020 5.573053
v -15.594120 3.308352 -4.074043
v -14.774980 4.940263 -4.041834
v -14.593340 5.014060 -4.035046
v -15.544840 3.118476 -4.072461
v -15.618320 3.503068 -4.074697
v -14.945520 4.843436 -4.048241
v -15.616970 3.699301 -4.074404
v -15.102020 4.725192 -4.054156
v -15.589880 3.893635 -4.073166
v -15.241630 4.587420 -4.059474
v -15.537860 4.082800 -4.071015
v -15.362220 4.432725 -4.064109
v -15.461410 4.263475 -4.067975
v -10.366620 -4.525022 -5.935744
v -9.920345 -4.647476 -5.995593
v -13.623110 5.313200 -6.043696
v -15.391960 4.318422 -4.808452
v -14.541190 5.015790 -5.447483
v -15.064020 4.726486 -5.083254
v -12.853770 -3.348038 -4.724309
v -11.833050 -4.129580 -5.160560
v -15.610640 3.699537 -4.245088
v -13.409320 -2.932026 -4.179996
v -15.544810 3.118447 -4.072460
v -13.717840 -2.399727 -4.011894
v -15.610640 3.699537 -4.245088
v -15.391960 4.318422 -4.808452
v -15.461380 4.263578 -4.067974
v -15.616930 3.699327 -4.074403
v -15.544810 3.118447 -4.072460
v -15.101960 4.725220 -4.054154
v -15.064020 4.726486 -5.083254
v -14.541190 5.015790 -5.447483
v -14.593270 5.014050 -4.035044
v -13.250610 5.459030 -3.984993
v -13.623110 5.313200 -6.043696
v -12.965890 5.551120 -4.170516
v -13.415900 -2.932246 -4.001417
v -13.409320 -2.932026 -4.179996
v -13.717840 -2.399727 -4.011894
v -11.877830 -4.131074 -3.946186
v -11.833050 -4.129580 -5.160560
v -12.853770 -3.348038 -4.724309
v -9.604345 -4.601690 -4.058677
v -9.920345 -4.647476 -5.995593
v -9.907451 -4.638780 -3.874165
v -9.920346 -4.647476 -5.995594
v -10.366620 -4.525022 -5.935744
v -12.965890 5.551120 -4.170516
v -9.604345 -4.601690 -4.058678
v -13.250610 5.459030 -3.984993
v -9.907451 -4.638781 -3.874165
v -11.877830 -4.131074 -3.946186
v -13.250610 5.459030 -3.984993
v -9.907451 -4.638781 -3.874165
v -13.717840 -2.399727 -4.011894
v -13.415900 -2.932246 -4.001417
v -15.852030 3.299741 2.921198
v -15.032880 4.931650 2.953408
v -14.851250 5.005450 2.960196
v -15.802740 3.109864 2.922782
v -15.876230 3.494455 2.920546
v -15.203420 4.834825 2.947002
v -15.874870 3.690688 2.920837
v -15.359920 4.716579 2.941086
v -15.847780 3.885023 2.922075
v -15.499540 4.578807 2.935769
v -15.795770 4.074188 2.924226
v -15.620120 4.424113 2.931133
v -15.719310 4.254864 2.927267
v -10.334430 -4.661303 5.235768
v -10.775110 -4.538661 5.143520
v -14.031590 5.299560 5.035568
v -15.704590 4.307982 3.670981
v -15.397810 4.715341 3.970188
v -14.903250 5.003700 4.372638
v -12.180510 -4.141181 4.263430
v -13.166400 -3.358478 3.755123
v -13.680390 -2.941078 3.172403
v -15.881130 3.690505 3.091522
v -13.975750 -2.408339 2.983348
v -15.802720 3.109836 2.922782
v -15.719290 4.254966 2.927268
v -15.704590 4.307982 3.670981
v -15.881130 3.690505 3.091522
v -15.874840 3.690715 2.920839
v -15.802720 3.109836 2.922782
v -15.359870 4.716607 2.941088
v -15.397810 4.715341 3.970188
v -14.851180 5.005430 2.960199
v -14.903250 5.003700 4.372638
v -13.508520 5.450420 3.010249
v -14.031590 5.299560 5.035568
v -13.238240 5.542020 3.216460
v -13.673810 -2.940858 2.993825
v -13.975750 -2.408339 2.983348
v -13.680390 -2.941078 3.172403
v -12.135730 -4.139686 3.049056
v -13.166400 -3.358478 3.755123
v -12.180510 -4.141181 4.263430
v -9.876666 -4.610784 3.327499
v -10.165360 -4.647392 3.121077
v -10.334430 -4.661303 5.235768
v -10.334430 -4.661303 5.235768
v -10.775110 -4.538661 5.143520
v -13.238240 5.542020 3.216460
v -9.876666 -4.610784 3.327499
v -13.508520 5.450420 3.010249
v -10.165360 -4.647392 3.121077
v -12.135730 -4.139686 3.049056
v -10.165360 -4.647392 3.121077
v -13.508520 5.450420 3.010249
v -13.975750 -2.408339 2.983348
v -13.673810 -2.940858 2.993825
vn 0.9971 0.0668 0.0368
vn 0.9971 0.0668 0.0369
vn 0.9971 0.0667 0.0368
vn -0.0439 0.1076 0.9932
vn -0.0354 -0.0232 0.9991
vn -0.0383 0.0207 0.9991
vn -0.0466 0.1506 0.9875
vn -0.0516 0.2357 0.9704
vn -0.0540 0.2777 0.9591
vn -0.0585 0.3603 0.9310
vn -0.0606 0.4008 0.9141
vn -0.0644 0.4788 0.8755
vn -0.0661 0.5163 0.8538
vn -0.0692 0.5888 0.8053
vn -0.0705 0.6237 0.7785
vn -0.0728 0.6892 0.7209
vn -0.0737 0.7198 0.6903
vn -0.0751 0.7773 0.6247
vn -0.0756 0.8041 0.5897
vn -0.0762 0.8525 0.5171
vn -0.0763 0.8742 0.4796
vn -0.0759 0.9127 0.4015
vn -0.0756 0.9296 0.3609
vn -0.0744 0.9577 0.2781
vn -0.0736 0.9689 0.2361
vn -0.0716 0.9860 0.1508
vn -0.0704 0.9917 0.1078
vn -0.2256 0.9742 0.0011
vn -0.0659 0.9976 -0.0232
vn -0.0623 0.9920 -0.1102
vn -0.0604 0.9863 -0.1533
vn -0.0561 0.9695 -0.2385
vn -0.0538 0.9583 -0.2805
vn -0.0489 0.9304 -0.3632
vn -0.0463 0.9137 -0.4037
vn -0.0408 0.8754 -0.4818
vn -0.0380 0.8538 -0.5193
vn -0.0321 0.8055 -0.5917
vn -0.0290 0.7788 -0.6266
vn -0.0227 0.7215 -0.6921
vn -0.0196 0.6910 -0.7226
vn -0.0131 0.6256 -0.7800
vn -0.0097 0.5908 -0.8068
vn -0.0031 0.5184 -0.8551
vn 0.0002 0.4810 -0.8767
vn 0.0068 0.4031 -0.9151
vn 0.0102 0.3626 -0.9319
vn 0.0167 0.2801 -0.9598
vn 0.0199 0.2381 -0.9710
vn 0.0263 0.1530 -0.9879
vn 0.0293 0.1100 -0.9935
vn 0.0354 0.0232 -0.9991
vn 0.0383 -0.0207 -0.9991
vn 0.0439 -0.1076 -0.9932
vn 0.0466 -0.1506 -0.9875
vn 0.0516 -0.2357 -0.9704
vn 0.0540 -0.2777 -0.9591
vn 0.0585 -0.3603 -0.9310
vn 0.0606 -0.4008 -0.9141
vn 0.0644 -0.4788 -0.8755
vn 0.0661 -0.5163 -0.8538
vn 0.0692 -0.5888 -0.8053
vn 0.0705 -0.6237 -0.7785
vn 0.0728 -0.6892 -0.7209
vn 0.0737 -0.7198 -0.6903
vn 0.0751 -0.7773 -0.6247
vn 0.0756 -0.8041 -0.5897
vn 0.0762 -0.8525 -0.5171
vn 0.0762 -0.8742 -0.4796
vn 0.0759 -0.9127 -0.4015
vn 0.0756 -0.9296 -0.3609
vn 0.0744 -0.9577 -0.2781
vn 0.0736 -0.9689 -0.2361
vn 0.0716 -0.9860 -0.1508
vn 0.0704 -0.9917 -0.1078
vn 0.0676 -0.9975 -0.0207
vn 0.0659 -0.9976 0.0232
vn 0.0623 -0.9920 0.1102
vn 0.0604 -0.9863 0.1533
vn 0.0561 -0.9695 0.2385
vn 0.0538 -0.9583 0.2805
vn 0.0489 -0.9304 0.3632
vn 0.0463 -0.9137 0.4037
vn 0.0408 -0.8754 0.4818
vn 0.0380 -0.8538 0.5193
vn 0.0321 -0.8055 0.5917
vn 0.0290 -0.7788 0.6266
vn 0.0227 -0.7215 0.6920
vn 0.0196 -0.6910 0.7226
vn 0.0131 -0.6256 0.7800
vn 0.0097 -0.5908 0.8068
vn 0.0031 -0.5184 0.8551
vn -0.0002 -0.4810 0.8767
vn -0.0068 -0.4031 0.9151
vn -0.0102 -0.3626 0.9319
vn -0.0167 -0.2801 0.9598
vn -0.0199 -0.2381 0.9710
vn -0.0263 -0.1530 0.9879
vn -0.0293 -0.1100 0.9935
vn -0.0720 0.6667 0.7419
vn -0.0760 0.8289 0.5542
vn -0.0692 0.5897 0.8046
vn -0.0609 0.4058 0.9119
vn -0.0569 0.3290 0.9426
vn -0.0678 0.5535 0.8301
vn -0.0413 0.0661 0.9970
vn -0.0327 -0.0625 0.9975
vn -0.0157 -0.2925 0.9561
vn -0.0061 -0.4113 0.9115
vn 0.0065 -0.5554 0.8315
vn 0.0065 -0.5555 0.8315
vn 0.0290 -0.7790 0.6263
vn 0.0293 -0.7820 0.6226
vn 0.0432 -0.8928 0.4484
vn 0.0512 -0.9440 0.3259
vn 0.0668 -0.9978 0.0012
vn 0.1674 -0.9859 0.0050
vn -0.0098 0.5917 -0.8061
vn -0.0350 0.8303 -0.5563
vn -0.0173 0.6685 -0.7435
vn 0.0064 0.4081 -0.9129
vn 0.0127 0.3313 -0.9435
vn -0.0065 0.5555 -0.8315
vn 0.0323 0.0686 -0.9971
vn 0.0409 -0.0601 -0.9974
vn 0.0548 -0.2901 -0.9554
vn 0.0610 -0.4090 -0.9105
vn 0.0677 -0.5534 -0.8302
vn 0.0677 -0.5534 -0.8301
vn 0.0752 -0.7805 -0.6207
vn 0.0751 -0.7775 -0.6244
vn 0.0762 -0.8917 -0.4462
vn 0.0751 -0.9432 -0.3236
vn -0.3143 0.9493 -0.0104
vn -0.3160 0.9487 -0.0098
vn -0.3162 0.9486 -0.0112
vn -0.3169 0.9484 -0.0103
vn -0.3166 0.9485 -0.0105
vn -0.3170 0.9484 -0.0097
vn -0.3169 0.9484 -0.0107
vn -0.3169 0.9484 -0.0113
vn -0.0861 -0.0394 -0.9955
vn -0.0872 -0.0398 -0.9954
vn 0.1401 0.0355 -0.9895
vn 0.1807 0.0491 -0.9823
vn 0.2610 0.0759 -0.9623
vn 0.3005 0.0891 -0.9496
vn 0.3780 0.1151 -0.9186
vn 0.4159 0.1278 -0.9004
vn 0.4886 0.1523 -0.8591
vn 0.5234 0.1641 -0.8361
vn 0.5904 0.1869 -0.7852
vn 0.6226 0.1978 -0.7571
vn 0.6827 0.2184 -0.6973
vn 0.7106 0.2280 -0.6656
vn 0.7628 0.2460 -0.5981
vn 0.7869 0.2544 -0.5622
vn 0.8302 0.2695 -0.4880
vn 0.8494 0.2763 -0.4497
vn 0.8831 0.2883 -0.3702
vn 0.8975 0.2935 -0.3290
vn 0.9211 0.3023 -0.2454
vn 0.9302 0.3058 -0.2029
vn 0.9432 0.3110 -0.1171
vn 0.9470 0.3127 -0.0738
vn 0.9492 0.3144 0.0134
vn 0.9476 0.3143 0.0573
vn 0.9389 0.3124 0.1441
vn 0.9320 0.3106 0.1870
vn 0.9127 0.3052 0.2716
vn 0.9005 0.3016 0.3133
vn 0.8708 0.2927 0.3950
vn 0.8534 0.2873 0.4349
vn 0.8140 0.2751 0.5117
vn 0.7920 0.2682 0.5484
vn 0.7434 0.2529 0.6192
vn 0.7166 0.2444 0.6532
vn 0.6596 0.2263 0.7167
vn 0.6295 0.2166 0.7462
vn 0.5652 0.1959 0.8014
vn 0.5310 0.1849 0.8270
vn 0.4604 0.1620 0.8728
vn 0.4240 0.1502 0.8931
vn 0.3484 0.1255 0.9289
vn 0.3093 0.1128 0.9443
vn 0.2298 0.0867 0.9694
vn 0.1894 0.0735 0.9791
vn 0.1079 0.0466 0.9931
vn 0.0668 0.0331 0.9972
vn -0.1589 -0.0418 0.9864
vn -0.1608 -0.0424 0.9861
vn -0.1401 -0.0355 0.9895
vn 0.0870 0.0397 0.9954
vn 0.0864 0.0396 0.9955
vn -0.1808 -0.0491 0.9823
vn -0.2610 -0.0759 0.9623
vn -0.3006 -0.0891 0.9496
vn -0.3780 -0.1151 0.9186
vn -0.4159 -0.1278 0.9004
vn -0.4886 -0.1523 0.8591
vn -0.5234 -0.1641 0.8361
vn -0.5904 -0.1869 0.7852
vn -0.6226 -0.1978 0.7571
vn -0.6827 -0.2184 0.6973
vn -0.7106 -0.2280 0.6656
vn -0.7628 -0.2460 0.5981
vn -0.7869 -0.2544 0.5622
vn -0.8302 -0.2695 0.4880
vn -0.8494 -0.2763 0.4497
vn -0.8831 -0.2883 0.3702
vn -0.8975 -0.2935 0.3291
vn -0.9211 -0.3023 0.2454
vn -0.9302 -0.3058 0.2029
vn -0.9432 -0.3110 0.1171
vn -0.9470 -0.3127 0.0738
vn -0.9492 -0.3144 -0.0134
vn -0.9476 -0.3144 -0.0573
vn -0.9389 -0.3124 -0.1441
vn -0.9320 -0.3106 -0.1870
vn -0.9127 -0.3052 -0.2716
vn -0.9005 -0.3016 -0.3133
vn -0.8708 -0.2926 -0.3950
vn -0.8534 -0.2873 -0.4349
vn -0.8139 -0.2751 -0.5117
vn -0.7920 -0.2682 -0.5484
vn -0.7434 -0.2529 -0.6192
vn -0.7166 -0.2444 -0.6532
vn -0.6597 -0.2263 -0.7167
vn -0.6295 -0.2166 -0.7462
vn -0.5652 -0.1959 -0.8014
vn -0.5310 -0.1849 -0.8270
vn -0.4604 -0.1620 -0.8728
vn -0.4240 -0.1502 -0.8931
vn -0.3484 -0.1256 -0.9289
vn -0.3093 -0.1128 -0.9442
vn -0.2298 -0.0867 -0.9694
vn -0.1895 -0.0735 -0.9791
vn -0.1079 -0.0466 -0.9931
vn -0.0668 -0.0331 -0.9972
vn 0.1230 0.0298 -0.9920
vn 0.1860 0.0508 -0.9812
vn 0.2008 -0.9796 0.0062
vn 0.3143 -0.9493 0.0104
vn 0.1483 -0.9889 0.0043
vn 0.3142 -0.9493 0.0103
vn 0.1675 -0.9859 0.0049
vn 0.3142 -0.9493 0.0104
vn 0.3143 -0.9493 0.0106
vn 0.3142 -0.9493 0.0105
vn 0.1787 -0.9839 0.0054
vn 0.1757 -0.9844 0.0053
vn -0.3144 0.9492 -0.0104
vn -0.3143 0.9493 -0.0105
vn -0.0368 -0.0012 0.9993
vn -0.0369 -0.0012 0.9993
vn -0.1489 -0.0601 -0.9870
vn -0.3785 -0.1353 -0.9157
vn -0.2684 -0.0994 -0.9582
vn -0.4959 -0.1745 -0.8507
vn -0.5547 -0.1925 -0.8095
vn -0.4963 -0.1739 -0.8505
vn -0.5627 -0.1951 -0.8033
vn -0.4964 -0.1736 -0.8505
vn -0.7682 -0.2607 -0.5847
vn -0.7682 -0.2608 -0.5847
vn -0.7684 -0.2608 -0.5844
vn -0.7682 -0.2607 -0.5848
vn -0.9002 0.4328 -0.0487
vn -0.8557 0.5158 -0.0420
vn -0.9749 0.2145 -0.0597
vn -0.9967 0.0728 -0.0366
vn -0.9917 -0.1232 -0.0367
vn -0.6238 0.7813 -0.0221
vn -0.6440 0.7647 -0.0228
vn -0.3608 0.9326 -0.0121
vn -0.3681 0.9297 -0.0124
vn -0.3141 0.9493 -0.0104
vn -0.3142 0.9493 -0.0103
vn -0.8692 -0.4935 -0.0326
vn -0.7494 -0.6615 -0.0284
vn -0.6336 -0.7732 -0.0244
vn -0.6141 -0.7889 -0.0237
vn -0.4345 -0.9005 -0.0171
vn -0.3815 -0.9243 -0.0093
vn -0.2116 -0.9774 0.0029
vn -0.1117 -0.9937 0.0047
vn 0.1231 -0.9924 0.0034
vn 0.1233 -0.9924 0.0033
vn -0.2558 -0.9667 -0.0008
vn 0.1849 0.0721 0.9801
vn 0.2612 0.0971 0.9604
vn 0.4971 0.1739 0.8501
vn 0.4965 0.1737 0.8505
vn 0.0368 0.0012 -0.9993
vn 0.0369 0.0012 -0.9993
vn -0.3390 -0.1020 0.9352
vn -0.2211 -0.0626 0.9732
vn -0.4455 -0.1378 0.8846
vn -0.5573 -0.1763 0.8114
vn -0.6563 -0.2093 0.7249
vn -0.5570 -0.1772 0.8114
vn -0.5899 -0.1867 0.7856
vn -0.5577 -0.1756 0.8113
vn -0.8092 -0.2621 0.5259
vn -0.8093 -0.2622 0.5256
vn -0.8091 -0.2621 0.5260
vn -0.9767 0.2145 -0.0117
vn -0.8565 0.5157 -0.0199
vn -0.9013 0.4328 -0.0167
vn -0.6238 0.7813 -0.0220
vn -0.3608 0.9326 -0.0122
vn -0.3142 0.9493 -0.0105
vn -0.6336 -0.7732 -0.0243
vn -0.6141 -0.7889 -0.0235
vn -0.3811 -0.9243 -0.0211
vn -0.1109 -0.9937 -0.0154
vn -0.2107 -0.9773 -0.0209
vn 0.1234 -0.9923 0.0033
vn -0.2551 -0.9667 -0.0205
vn 0.3312 0.0994 -0.9383
vn 0.2566 0.0744 -0.9636
vn 0.5577 0.1758 -0.8112
vn 0.5583 0.1760 -0.8108
vt -13.326250 -10.521500
vt -13.000000 -10.500000
vt -13.000000 -13.000000
vt -13.647000 -10.585250
vt -13.956750 -10.690250
vt -14.250000 -10.835000
vt -14.522000 -11.016500
vt -14.767750 -11.232250
vt -14.983500 -11.478000
vt -15.165000 -11.750000
vt -15.309750 -12.043250
vt -15.414750 -12.353000
vt -15.478500 -12.673750
vt -15.500000 -13.000000
vt -15.478500 -13.326250
vt -15.414750 -13.647000
vt -15.309750 -13.956750
vt -15.165000 -14.250000
vt -14.983500 -14.522000
vt -14.767750 -14.767750
vt -14.522000 -14.983500
vt -14.250000 -15.165000
vt -13.956750 -15.309750
vt -13.647000 -15.414750
vt -13.326250 -15.478500
vt -13.000000 -15.500000
vt -12.673750 -15.478500
vt -12.353000 -15.414750
vt -12.043250 -15.309750
vt -11.750000 -15.165000
vt -11.478000 -14.983500
vt -11.232250 -14.767750
vt -11.016500 -14.522000
vt -10.835000 -14.250000
vt -10.690250 -13.956750
vt -10.585250 -13.647000
vt -10.521500 -13.326250
vt -10.500000 -13.000000
vt -10.521500 -12.673750
vt -10.585250 -12.353000
vt -10.690250 -12.043250
vt -10.835000 -11.750000
vt -11.016500 -11.478000
vt -11.232250 -11.232250
vt -11.478000 -11.016500
vt -11.750000 -10.835000
vt -12.043250 -10.690250
vt -12.353000 -10.585250
vt -12.673750 -10.521500
vt 2.152250 2.478500
vt 2.500000 2.500000
vt 2.500000 -10.500000
vt 2.152250 -10.521500
vt 1.767750 2.414750
vt 1.767750 -10.585250
vt 1.353000 2.309750
vt 1.353000 -10.690250
vt 0.915000 2.165000
vt 0.915000 -10.835000
vt 0.461500 1.983500
vt 0.461500 -11.016500
vt 0.000000 1.767750
vt 0.000000 -11.232250
vt -0.461500 1.522000
vt -0.461500 -11.478000
vt -0.915000 1.250000
vt -0.915000 -11.750000
vt -1.353000 0.956750
vt -1.353000 -12.043250
vt -1.767750 0.647000
vt -1.767750 -12.353000
vt -2.152250 0.326250
vt -2.152250 -12.673750
vt -2.500000 0.000000
vt -2.478500 -0.326250
vt -2.414750 -0.647000
vt -2.309750 -0.956750
vt -2.165000 -1.250000
vt -1.983500 -1.522000
vt -1.767750 -1.767750
vt -1.522000 -1.983500
vt -1.250000 -2.165000
vt -0.956750 -2.309750
vt -0.647000 -2.414750
vt -0.326250 -2.478500
vt 0.000000 -2.500000
vt -2.500000 -15.500000
vt -2.152250 -2.478500
vt -2.152250 -15.478500
vt -1.767750 -2.414750
vt -1.767750 -15.414750
vt -1.353000 -2.309750
vt -1.353000 -15.309750
vt -0.915000 -2.165000
vt -0.915000 -15.165000
vt -0.461500 -1.983500
vt -0.461500 -14.983500
vt 0.000000 -1.767750
vt 0.000000 -14.767750
vt 0.461500 -1.522000
vt 0.461500 -14.522000
vt 0.915000 -1.250000
vt 0.915000 -14.250000
vt 1.353000 -0.956750
vt 1.353000 -13.956750
vt 1.767750 -0.647000
vt 1.767750 -13.647000
vt 2.152250 -0.326250
vt 2.152250 -13.326250
vt 2.500000 0.000000
vt 2.478500 0.326250
vt 2.414750 0.647000
vt 2.309750 0.956750
vt 2.165000 1.250000
vt 1.983500 1.522000
vt 1.767750 1.767750
vt 3.535500 -11.232250
vt 3.505500 1.983500
vt 3.505500 -11.016500
vt 3.415000 2.165000
vt 3.415000 -10.835000
vt 3.266500 2.309750
vt 3.266500 -10.690250
vt 3.061750 2.414750
vt 3.061750 -10.585250
vt 2.804750 2.478500
vt 2.804750 -10.521500
vt 0.000000 2.121300
vt -0.945400 1.554600
vt 0.000000 3.585400
vt 1.623600 2.771700
vt 1.623600 7.353400
vt 1.345300 7.208000
vt 3.000000 3.000000
vt 3.000000 7.442300
vt 3.919800 2.771700
vt 3.919800 6.759400
vt 4.155800 2.296200
vt 4.155800 5.771800
vt 5.493200 5.493300
vt 2.121300 2.121300
vt 2.771700 1.148100
vt 5.775600 4.152000
vt 2.999900 0.000000
vt 5.709400 2.709400
vt -0.657200 -0.657200
vt -2.500000 -1.554600
vt -2.121300 -2.121300
vt -1.148100 -2.771700
vt 3.433600 1.810000
vt 3.232900 1.887600
vt 0.000000 -3.000000
vt -3.000000 1.442300
vt -1.623600 -2.771700
vt -1.623600 1.216000
vt -0.436600 -2.296200
vt -0.436600 1.179400
vt 0.000000 -2.121300
vt -0.000100 1.250700
vt 1.623600 -1.148100
vt 1.623600 1.855800
vt -2.500000 1.554600
vt -0.657200 3.585400
vt 2.936200 2.016200
vt 2.379200 3.870600
vt 2.936200 6.608600
vt 3.232900 7.208000
vt -2.309800 -0.956700
vt -2.309800 0.956700
vt -0.956700 2.309800
vt -1.148000 2.771700
vt 0.000000 3.000000
vt 0.000000 2.500000
vt -1.767800 1.767800
vt -2.121300 2.121300
vt -1.767800 -1.767800
vt -0.956700 -2.309800
vt -1.148000 -2.771700
vt 0.956700 -2.309800
vt 1.148000 -2.771700
vt 1.767700 -1.767800
vt 2.121300 -2.121300
vt 2.309800 -0.956700
vt 2.771700 -1.148000
vt 2.309800 0.956700
vt 2.771700 1.148000
vt 1.767700 1.767800
vt 0.956700 2.309800
vt 1.148000 2.771700
vt 13.020000 2.518000
vt 5.124559 5.272220
vt -12.292110 4.565758
vt -1.642450 1.811538
vt -12.331860 3.973476
vt -1.682196 1.219256
vt -12.265990 3.505754
vt -1.616330 0.751534
vt -12.094810 3.171769
vt -1.445150 0.417550
vt -11.822660 2.975362
vt -1.173000 0.221142
vt -11.452540 2.922147
vt 7.850250 0.167927
vt -0.676147 3.010638
vt 7.219294 0.256418
vt -1.206940 3.241713
vt 6.688500 0.487493
vt -1.630258 3.609177
vt 6.265182 0.854957
vt -1.937329 4.108603
vt 1.498128 1.354383
vt -8.420040 4.730276
vt 2.229620 1.976056
vt -7.649961 5.463320
vt 2.999700 2.709100
vt -6.854040 6.296276
vt 3.795619 3.542056
vt -6.045932 7.214203
vt 4.603728 4.459983
vt -5.239435 8.201577
vt 5.410225 5.447357
vt -4.448652 9.241713
vt 6.201008 6.487493
vt -3.686785 10.316240
vt 6.962875 7.562018
vt -2.967337 11.407350
vt 7.682323 8.653127
vt -2.301861 12.496160
vt 8.347799 9.741941
vt -1.702810 13.563770
vt 8.946850 10.809550
vt -1.179191 14.592550
vt 9.470469 11.838330
vt -0.741055 15.564280
vt 9.908605 12.810060
vt -0.395310 16.462561
vt 10.254350 13.708340
vt -0.147660 17.272221
vt 10.502000 14.518000
vt -10.243960 6.801246
vt -10.147660 7.272220
vt 0.502000 4.518000
vt 0.405704 4.047026
vt -10.270450 6.406391
vt 0.379212 3.652171
vt -10.226530 6.094575
vt 0.423126 3.340355
vt -10.112410 5.871920
vt 0.537250 3.117699
vt -9.930974 5.740981
vt 0.718687 2.986761
vt -9.684220 5.705504
vt 9.573524 2.951284
vt 1.257448 5.764499
vt 9.152888 3.010278
vt 0.903589 5.918548
vt 8.799028 3.164328
vt 0.621378 6.163525
vt 8.516819 3.409305
vt 0.416666 6.496475
vt 8.312106 3.742255
vt 0.292376 6.910924
vt 8.187817 4.156704
vt 0.250459 7.399620
vt 8.145899 4.645400
vt 0.292376 7.954924
vt 8.187817 5.200704
vt 0.416666 8.566875
vt 8.312106 5.812655
vt 0.621378 9.225124
vt 8.516819 6.470904
vt 0.903589 9.918549
vt 8.799028 7.164328
vt 1.257448 10.634900
vt 9.152888 7.880678
vt 1.678083 11.362300
vt 9.573524 8.608084
vt 2.157207 12.088180
vt 10.052650 9.333961
vt 2.687510 12.799920
vt 10.582950 10.045700
vt 3.259241 13.485770
vt 11.154680 10.731560
vt 3.863142 14.133590
vt 11.758580 11.379370
vt 4.488490 14.732450
vt 12.383930 11.978230
vt -2.147660 15.272220
vt 8.502000 12.518000
vt 12.065880 1.811542
vt 12.383920 4.047028
vt 13.020000 4.518000
vt 11.127840 1.219264
vt 11.758560 3.652176
vt 10.221980 0.751545
vt 11.154650 3.340363
vt 9.364365 0.417564
vt 10.582910 3.117710
vt 8.568898 0.221160
vt 10.052600 2.986773
vt 7.850201 0.167948
vt 9.573467 2.951298
vt 7.219238 0.256442
vt 9.152825 3.010295
vt 6.688439 0.487518
vt 8.798960 3.164345
vt 6.265117 0.854985
vt 8.516745 3.409323
vt 5.958044 1.354412
vt 8.312029 3.742274
vt 5.771606 1.976086
vt 8.187737 4.156724
vt 8.145820 4.645420
vt 5.771606 3.542086
vt 8.187737 5.200724
vt 5.958044 4.460012
vt 8.312029 5.812675
vt 6.265117 5.447385
vt 8.516745 6.470922
vt 6.688439 6.487518
vt 8.798960 7.164345
vt 7.219238 7.562042
vt 9.152825 7.880694
vt 7.850201 8.653148
vt 9.573467 8.608098
vt 8.568898 9.741960
vt 10.052600 9.333973
vt 9.364365 10.809560
vt 10.582910 10.045710
vt 10.221980 11.838340
vt 11.154650 10.731560
vt 11.127840 12.810060
vt 11.758560 11.379380
vt 12.065880 13.708340
vt 12.383920 11.978230
vt 13.020000 14.518000
vt 13.020000 12.518000
vt 4.487719 6.800628
vt 4.169679 4.565142
vt 5.123800 5.271600
vt 5.123800 7.271600
vt 3.862362 6.405776
vt 3.231643 3.972864
vt 3.258451 6.093963
vt 2.325777 3.505145
vt 2.686710 5.871310
vt 1.468164 3.171165
vt 2.156399 5.740373
vt 0.672699 2.974760
vt 1.677267 5.704899
vt -0.045999 2.921548
vt 1.256625 5.763895
vt -0.676962 3.010042
vt 0.902760 5.917945
vt -1.207760 3.241118
vt 0.620544 6.162923
vt -1.631083 3.608585
vt 0.415829 6.495874
vt -1.938156 4.108012
vt 0.291538 6.910324
vt -2.124594 4.729686
vt 0.249620 7.399020
vt -2.187470 5.462729
vt 0.291538 7.954324
vt -2.124594 6.295686
vt 0.415829 8.566275
vt -1.938156 7.213612
vt 0.620544 9.224523
vt -1.631083 8.200985
vt 0.902760 9.917946
vt -1.207760 9.241117
vt 1.256625 10.634290
vt -0.676962 10.315640
vt 1.677267 11.361700
vt -0.045999 11.406750
vt 2.156399 12.087570
vt 0.672699 12.495560
vt 2.686710 12.799310
vt 1.468164 13.563160
vt 3.258451 13.485160
vt 2.325777 14.591940
vt 3.862362 14.132980
vt 3.231643 15.563660
vt 4.487719 14.731830
vt 4.169679 16.461941
vt 5.123800 15.271600
vt 5.123800 17.271601
vt -8.836720 10.907970
vt -8.775219 11.094260
vt -7.201674 12.021140
vt -7.008930 11.984620
vt -8.690001 11.271000
vt -7.397572 12.032300
vt -8.582476 11.435150
vt -7.593276 12.017840
vt -8.454338 11.583750
vt -7.785367 11.977810
vt -8.308044 11.714490
vt -7.970634 11.913240
vt -8.145800 11.824830
vt 15.078600 4.846300
vt 15.361300 5.357000
vt 7.921700 7.951200
vt 9.071199 9.494499
vt 10.582300 11.036600
vt 9.852600 10.405300
vt 16.379101 9.014500
vt 16.277000 7.592400
vt 16.433701 10.084500
vt 11.424500 11.847000
vt 16.148100 10.529100
vt 11.975700 11.984600
vt 10.678900 11.824800
vt 11.424500 12.017800
vt 9.852600 11.435100
vt 9.071199 10.907900
vt 7.346600 9.537600
vt 6.990300 9.058400
vt -0.829500 10.263200
vt -1.120600 9.014500
vt -0.745800 7.592400
vt 0.469400 8.807600
vt 1.107600 6.874200
vt -1.006700 4.846300
vt 14.666900 6.380700
vt -1.082500 5.357000
vt -9.460100 9.058400
vt 0.895000 6.380700
vt -9.191000 9.537600
vt -1.381000 10.529100
vt -0.201675 19.021139
vt -1.775219 18.094259
vt -1.836720 17.907970
vt -0.008930 18.984619
vt -0.397572 19.032301
vt -1.690001 18.271000
vt -0.593275 19.017839
vt -1.582476 18.435150
vt -0.785366 18.977810
vt -1.454338 18.583750
vt -0.970635 18.913240
vt -1.308044 18.714491
vt -1.145799 18.824829
vt 10.004300 16.443800
vt 10.232300 16.085300
vt -0.029500 19.038000
vt -0.552700 19.464899
vt -0.454300 19.521799
vt -0.423300 19.321301
vt 7.364600 17.499701
vt 8.684600 17.022800
vt 16.433701 17.441900
vt 11.424500 19.188601
vt 16.148100 17.529100
vt 11.975700 18.984600
vt 10.582300 19.521799
vt 10.678900 18.824800
vt 11.424500 19.017799
vt 9.852600 19.464899
vt 9.852600 18.435101
vt 9.071199 19.321301
vt 9.071199 17.907900
vt 7.921700 19.038000
vt 7.346600 16.537600
vt 6.990300 16.450399
vt 6.170500 17.263201
vt 7.469400 15.807600
vt 8.107599 13.874200
vt 14.666900 13.771900
vt 15.078600 16.085300
vt 8.286200 13.771900
vt -2.068100 16.450399
vt 8.107600 13.874200
vt -2.191000 16.537600
vt 5.619000 17.529100
s 1
usemtl 78
f 1/1/1 2/2/1 3/3/1
f 4/4/1 1/1/1 3/3/1
f 5/5/1 4/4/1 3/3/1
f 6/6/1 5/5/1 3/3/1
f 7/7/1 6/6/1 3/3/1
f 8/8/1 7/7/1 3/3/1
f 9/9/1 8/8/1 3/3/1
f 10/10/1 9/9/1 3/3/1
f 11/11/1 10/10/1 3/3/1
f 12/12/1 11/11/1 3/3/1
f 13/13/1 12/12/1 3/3/1
f 14/14/1 13/13/1 3/3/1
f 15/15/1 14/14/1 3/3/1
f 16/16/2 15/15/1 3/3/1
f 17/17/1 16/16/2 3/3/1
f 18/18/2 17/17/1 3/3/1
f 19/19/1 18/18/2 3/3/1
f 20/20/1 19/19/1 3/3/1
f 21/21/1 20/20/1 3/3/1
f 22/22/1 21/21/1 3/3/1
f 23/23/1 22/22/1 3/3/1
f 24/24/1 23/23/1 3/3/1
f 25/25/1 24/24/1 3/3/1
f 26/26/1 25/25/1 3/3/1
f 27/27/1 26/26/1 3/3/1
f 28/28/3 27/27/1 3/3/1
f 29/29/1 28/28/3 3/3/1
f 30/30/1 29/29/1 3/3/1
f 31/31/1 30/30/1 3/3/1
f 32/32/2 31/31/1 3/3/1
f 33/33/1 32/32/2 3/3/1
f 34/34/1 33/33/1 3/3/1
f 35/35/2 34/34/1 3/3/1
f 36/36/2 35/35/2 3/3/1
f 37/37/1 36/36/2 3/3/1
f 38/38/1 37/37/1 3/3/1
f 39/39/1 38/38/1 3/3/1
f 40/40/1 39/39/1 3/3/1
f 41/41/1 40/40/1 3/3/1
f 42/42/1 41/41/1 3/3/1
f 43/43/1 42/42/1 3/3/1
f 44/44/1 43/43/1 3/3/1
f 45/45/1 44/44/1 3/3/1
f 46/46/1 45/45/1 3/3/1
f 47/47/3 46/46/1 3/3/1
f 48/48/3 47/47/3 3/3/1
f 49/49/1 48/48/3 3/3/1
f 2/2/1 49/49/1 3/3/1
f 50/50/4 51/51/5 52/52/6
f 52/52/6 53/53/7 50/50/4
f 54/54/8 50/50/4 53/53/7
f 53/53/7 55/55/9 54/54/8
f 56/56/10 54/54/8 55/55/9
f 55/55/9 57/57/11 56/56/10
f 58/58/12 56/56/10 57/57/11
f 57/57/11 59/59/13 58/58/12
f 60/60/14 58/58/12 59/59/13
f 59/59/13 61/61/15 60/60/14
f 62/62/16 60/60/14 61/61/15
f 61/61/15 63/63/17 62/62/16
f 64/64/18 62/62/16 63/63/17
f 63/63/17 65/65/19 64/64/18
f 66/66/20 64/64/18 65/65/19
f 65/65/19 67/67/21 66/66/20
f 68/68/22 66/66/20 67/67/21
f 67/67/21 69/69/23 68/68/22
f 70/70/24 68/68/22 69/69/23
f 69/69/23 71/71/25 70/70/24
f 72/72/26 70/70/24 71/71/25
f 71/71/25 73/73/27 72/72/26
f 74/74/28 72/72/26 73/73/27
f 73/73/27 75/14/29 74/74/28
f 76/75/30 74/74/28 75/14/29
f 75/14/29 77/15/31 76/75/30
f 78/76/32 76/75/30 77/15/31
f 77/15/31 79/16/33 78/76/32
f 80/77/34 78/76/32 79/16/33
f 79/16/33 81/17/35 80/77/34
f 82/78/36 80/77/34 81/17/35
f 81/17/35 83/18/37 82/78/36
f 84/79/38 82/78/36 83/18/37
f 83/18/37 85/19/39 84/79/38
f 86/80/40 84/79/38 85/19/39
f 85/19/39 87/20/41 86/80/40
f 88/81/42 86/80/40 87/20/41
f 87/20/41 89/21/43 88/81/42
f 90/82/44 88/81/42 89/21/43
f 89/21/43 91/22/45 90/82/44
f 92/83/46 90/82/44 91/22/45
f 91/22/45 93/23/47 92/83/46
f 94/84/48 92/83/46 93/23/47
f 93/23/47 95/24/49 94/84/48
f 96/85/50 94/84/48 95/24/49
f 95/24/49 97/25/51 96/85/50
f 98/86/52 96/85/50 97/25/51
f 97/25/51 99/87/53 98/86/52
f 100/88/54 98/86/52 99/87/53
f 99/87/53 101/89/55 100/88/54
f 102/90/56 100/88/54 101/89/55
f 101/89/55 103/91/57 102/90/56
f 104/92/58 102/90/56 103/91/57
f 103/91/57 105/93/59 104/92/58
f 106/94/60 104/92/58 105/93/59
f 105/93/59 107/95/61 106/94/60
f 108/96/62 106/94/60 107/95/61
f 107/95/61 109/97/63 108/96/62
f 110/98/64 108/96/62 109/97/63
f 109/97/63 111/99/65 110/98/64
f 112/100/66 110/98/64 111/99/65
f 111/99/65 113/101/67 112/100/66
f 114/102/68 112/100/66 113/101/67
f 113/101/67 115/103/69 114/102/68
f 116/104/70 114/102/68 115/103/69
f 115/103/69 117/105/71 116/104/70
f 118/106/72 116/104/70 117/105/71
f 117/105/71 119/107/73 118/106/72
f 120/108/74 118/106/72 119/107/73
f 119/107/73 121/109/75 120/108/74
f 122/110/76 120/108/74 121/109/75
f 121/109/75 123/38/77 122/110/76
f 124/111/78 122/110/76 123/38/77
f 123/38/77 125/39/79 124/111/78
f 126/112/80 124/111/78 125/39/79
f 125/39/79 127/40/81 126/112/80
f 128/113/82 126/112/80 127/40/81
f 127/40/81 129/41/83 128/113/82
f 130/114/84 128/113/82 129/41/83
f 129/41/83 131/42/85 130/114/84
f 132/115/86 130/114/84 131/42/85
f 131/42/85 133/43/87 132/115/86
f 134/116/88 132/115/86 133/43/87
f 133/43/87 135/117/89 134/116/88
f 136/118/90 134/116/88 135/117/89
f 135/117/89 137/119/91 136/118/90
f 138/120/92 136/118/90 137/119/91
f 137/119/91 139/121/93 138/120/92
f 140/122/94 138/120/92 139/121/93
f 139/121/93 141/123/95 140/122/94
f 142/124/96 140/122/94 141/123/95
f 141/123/95 143/125/97 142/124/96
f 144/126/98 142/124/96 143/125/97
f 143/125/97 145/127/99 144/126/98
f 51/51/5 144/126/98 145/127/99
f 145/127/99 52/52/6 51/51/5
f 148/128/100 147/129/101 146/130/102
f 149/131/103 148/128/100 146/130/102
f 146/130/102 150/132/104 149/131/103
f 151/133/105 150/132/104 146/130/102
f 152/134/106 149/131/103 150/132/104
f 150/132/104 153/135/107 152/134/106
f 154/136/108 152/134/106 153/135/107
f 153/135/107 155/137/109 154/136/108
f 156/138/110 154/136/108 155/137/109
f 155/137/109 157/139/111 156/138/110
f 156/138/110 157/139/111 158/140/112
f 158/140/112 159/141/113 156/138/110
f 160/142/114 159/141/113 158/140/112
f 158/140/112 161/143/115 160/142/114
f 162/144/116 160/142/114 161/143/115
f 161/143/115 163/145/117 162/144/116
f 166/146/118 165/147/119 164/148/120
f 168/149/121 167/150/122 166/146/118
f 166/146/118 164/148/120 168/149/121
f 166/146/118 167/150/122 169/151/123
f 171/152/124 170/153/125 167/150/122
f 167/150/122 168/149/121 171/152/124
f 173/154/126 172/155/127 170/153/125
f 170/153/125 171/152/124 173/154/126
f 175/156/128 174/157/129 172/155/127
f 172/155/127 173/154/126 175/156/128
f 175/156/128 177/158/130 176/159/131
f 176/159/131 174/157/129 175/156/128
f 179/160/132 178/161/133 176/159/131
f 176/159/131 177/158/130 179/160/132
f 162/144/116 163/145/117 178/161/133
f 178/161/133 179/160/132 162/144/116
f 181/147/134 180/146/135 74/74/28
f 183/162/134 74/74/28 182/163/136
f 180/146/135 185/164/137 184/165/138
f 184/165/138 74/74/28 180/146/135
f 180/146/135 186/151/139 185/164/137
f 182/163/136 74/74/28 184/165/138
f 184/165/138 187/166/140 182/163/136
f 187/166/140 188/167/141 182/163/136
f 191/74/1 190/168/1 189/147/1
f 193/162/1 192/169/1 191/74/1
f 196/170/1 195/171/1 194/172/1
f 194/172/1 197/173/1 196/170/1
f 199/174/1 198/175/1 195/171/1
f 195/171/1 196/170/1 199/174/1
f 192/169/1 193/162/1 198/175/1
f 198/175/1 199/174/1 192/169/1
f 201/176/1 200/148/1 189/147/1
f 189/147/1 190/168/1 201/176/1
f 203/177/1 202/178/1 200/148/1
f 200/148/1 201/176/1 203/177/1
f 205/86/1 204/152/1 202/178/1
f 202/178/1 203/177/1 205/86/1
f 207/179/1 206/180/1 204/152/1
f 204/152/1 205/86/1 207/179/1
f 209/181/1 208/182/1 206/180/1
f 206/180/1 207/179/1 209/181/1
f 211/183/1 210/184/1 208/182/1
f 208/182/1 209/181/1 211/183/1
f 213/110/1 212/144/1 210/184/1
f 210/184/1 211/183/1 213/110/1
f 215/185/1 214/186/1 212/144/1
f 212/144/1 213/110/1 215/185/1
f 217/187/1 216/141/1 214/186/1
f 214/186/1 215/185/1 217/187/1
f 219/188/1 218/189/1 216/141/1
f 216/141/1 217/187/1 219/188/1
f 197/173/1 194/172/1 218/189/1
f 218/189/1 219/188/1 197/173/1
f 222/190/142 221/191/143 220/192/144
f 220/192/144 223/193/145 222/190/142
f 223/193/145 220/192/144 224/194/146
f 224/194/146 225/195/147 223/193/145
f 225/195/147 224/194/146 226/196/148
f 226/196/148 227/197/149 225/195/147
f 227/197/149 226/196/148 228/198/150
f 228/198/150 229/199/151 227/197/149
f 229/199/151 228/198/150 230/200/152
f 230/200/152 231/201/153 229/199/151
f 231/201/153 230/200/152 232/202/154
f 232/202/154 233/203/155 231/201/153
f 233/203/155 232/202/154 234/204/156
f 234/204/156 235/205/157 233/203/155
f 235/205/157 234/204/156 236/206/158
f 236/206/158 237/207/159 235/205/157
f 237/207/159 236/206/158 238/208/160
f 238/208/160 239/209/161 237/207/159
f 239/209/161 238/208/160 240/210/162
f 240/210/162 241/211/163 239/209/161
f 241/211/163 240/210/162 242/212/164
f 242/212/164 243/213/165 241/211/163
f 243/213/165 242/212/164 244/214/166
f 244/214/166 245/215/167 243/213/165
f 245/215/167 244/214/166 246/216/168
f 246/216/168 247/217/169 245/215/167
f 247/217/169 246/216/168 248/218/170
f 248/218/170 249/219/171 247/217/169
f 249/219/171 248/218/170 250/220/172
f 250/220/172 251/221/173 249/219/171
f 251/221/173 250/220/172 252/222/174
f 252/222/174 253/223/175 251/221/173
f 253/223/175 252/222/174 254/224/176
f 254/224/176 255/225/177 253/223/175
f 255/225/177 254/224/176 256/226/178
f 256/226/178 257/227/179 255/225/177
f 257/227/179 256/226/178 258/228/180
f 258/228/180 259/229/181 257/227/179
f 259/229/181 258/228/180 260/230/182
f 260/230/182 261/231/183 259/229/181
f 261/231/183 260/230/182 262/232/184
f 262/232/184 263/233/185 261/231/183
f 263/233/185 262/232/184 264/234/186
f 264/234/186 265/235/187 263/233/185
f 265/235/187 264/234/186 266/236/188
f 266/236/188 267/237/189 265/235/187
f 267/237/189 266/236/188 268/238/190
f 268/238/190 269/239/191 267/237/189
f 270/240/192 271/241/193 272/242/194
f 272/242/194 273/243/195 270/240/192
f 274/244/196 270/240/192 273/243/195
f 273/243/195 275/245/197 274/244/196
f 276/246/198 274/244/196 275/245/197
f 275/245/197 277/247/199 276/246/198
f 278/248/200 276/246/198 277/247/199
f 277/247/199 279/249/201 278/248/200
f 280/250/202 278/248/200 279/249/201
f 279/249/201 281/251/203 280/250/202
f 282/252/204 280/250/202 281/251/203
f 281/251/203 283/253/205 282/252/204
f 284/254/206 282/252/204 283/253/205
f 283/253/205 285/255/207 284/254/206
f 286/256/208 284/254/206 285/255/207
f 285/255/207 287/257/209 286/256/208
f 288/258/210 286/256/208 287/257/209
f 287/257/209 289/259/211 288/258/210
f 290/260/212 288/258/210 289/259/211
f 289/259/211 291/261/213 290/260/212
f 292/262/214 290/260/212 291/261/213
f 291/261/213 293/263/215 292/262/214
f 294/264/216 292/262/214 293/263/215
f 293/263/215 295/265/217 294/264/216
f 296/266/218 294/264/216 295/265/217
f 295/265/217 297/267/219 296/266/218
f 298/268/220 296/266/218 297/267/219
f 297/267/219 299/269/221 298/268/220
f 300/270/222 298/268/220 299/269/221
f 299/269/221 301/271/223 300/270/222
f 302/272/224 300/270/222 301/271/223
f 301/271/223 303/273/225 302/272/224
f 304/274/226 302/272/224 303/273/225
f 303/273/225 305/275/227 304/274/226
f 306/276/228 304/274/226 305/275/227
f 305/275/227 307/277/229 306/276/228
f 308/278/230 306/276/228 307/277/229
f 307/277/229 309/279/231 308/278/230
f 310/280/232 308/278/230 309/279/231
f 309/279/231 311/281/233 310/280/232
f 312/282/234 310/280/232 311/281/233
f 311/281/233 313/283/235 312/282/234
f 314/284/236 312/282/234 313/283/235
f 313/283/235 315/285/237 314/284/236
f 316/286/238 314/284/236 315/285/237
f 315/285/237 317/287/239 316/286/238
f 318/288/240 316/286/238 317/287/239
f 317/287/239 319/289/241 318/288/240
f 322/190/242 321/290/243 320/291/243
f 320/291/243 323/292/244 322/190/242
f 321/290/243 325/293/243 324/294/243
f 324/294/243 320/291/243 321/290/243
f 325/293/243 327/295/243 326/296/243
f 326/296/243 324/294/243 325/293/243
f 327/295/243 329/297/243 328/298/243
f 328/298/243 326/296/243 327/295/243
f 329/297/243 331/299/243 330/300/243
f 330/300/243 328/298/243 329/297/243
f 331/299/243 333/301/243 332/302/243
f 332/302/243 330/300/243 331/299/243
f 333/301/243 335/303/243 334/304/243
f 334/304/243 332/302/243 333/301/243
f 335/303/243 337/305/243 336/306/243
f 336/306/243 334/304/243 335/303/243
f 337/305/243 339/307/243 338/308/243
f 338/308/243 336/306/243 337/305/243
f 339/307/243 341/309/243 340/310/243
f 340/310/243 338/308/243 339/307/243
f 341/309/243 343/311/245 342/312/243
f 342/312/243 340/310/243 341/309/243
f 343/311/245 163/145/246 344/313/247
f 344/313/247 342/312/243 343/311/245
f 163/145/246 346/314/248 345/315/249
f 345/315/249 344/313/247 163/145/246
f 346/314/248 348/316/243 347/317/243
f 347/317/243 345/315/249 346/314/248
f 348/316/243 350/318/243 349/319/243
f 349/319/243 347/317/243 348/316/243
f 350/318/243 352/320/243 351/321/243
f 351/321/243 349/319/243 350/318/243
f 352/320/243 354/322/243 353/323/243
f 353/323/243 351/321/243 352/320/243
f 354/322/243 356/324/243 355/325/243
f 355/325/243 353/323/243 354/322/243
f 356/324/243 358/326/243 357/327/243
f 357/327/243 355/325/243 356/324/243
f 358/326/243 360/328/243 359/329/243
f 359/329/243 357/327/243 358/326/243
f 360/328/243 362/330/243 361/331/243
f 361/331/243 359/329/243 360/328/243
f 362/330/243 364/332/243 363/333/243
f 363/333/243 361/331/243 362/330/243
f 364/332/243 366/334/243 365/335/243
f 365/335/243 363/333/243 364/332/243
f 366/334/243 368/336/250 367/337/251
f 367/337/251 365/335/243 366/334/243
f 369/338/134 370/339/134 371/340/134
f 371/340/134 372/341/252 369/338/134
f 373/342/134 374/343/134 370/339/134
f 370/339/134 369/338/134 373/342/134
f 375/344/134 376/345/134 374/343/134
f 374/343/134 373/342/134 375/344/134
f 377/346/134 378/347/134 376/345/134
f 376/345/134 375/344/134 377/346/134
f 379/348/134 380/349/134 378/347/134
f 378/347/134 377/346/134 379/348/134
f 381/350/134 382/351/134 380/349/134
f 380/349/134 379/348/134 381/350/134
f 383/352/134 384/353/134 382/351/134
f 382/351/134 381/350/134 383/352/134
f 385/354/134 386/355/134 384/353/134
f 384/353/134 383/352/134 385/354/134
f 387/356/134 388/357/134 386/355/134
f 386/355/134 385/354/134 387/356/134
f 389/358/134 390/359/134 388/357/134
f 388/357/134 387/356/134 389/358/134
f 391/360/134 392/361/134 390/359/134
f 390/359/134 389/358/134 391/360/134
f 393/362/134 394/363/134 392/361/134
f 392/361/134 391/360/134 393/362/134
f 395/364/134 396/365/134 394/363/134
f 394/363/134 393/362/134 395/364/134
f 397/366/134 398/367/134 396/365/134
f 396/365/134 395/364/134 397/366/134
f 399/368/134 400/369/134 398/367/134
f 398/367/134 397/366/134 399/368/134
f 401/370/134 402/371/134 400/369/134
f 400/369/134 399/368/134 401/370/134
f 403/372/134 404/373/134 402/371/134
f 402/371/134 401/370/134 403/372/134
f 405/374/134 406/375/134 404/373/134
f 404/373/134 403/372/134 405/374/134
f 407/376/134 408/377/134 406/375/134
f 406/375/134 405/374/134 407/376/134
f 409/378/134 410/379/134 408/377/134
f 408/377/134 407/376/134 409/378/134
f 411/380/134 412/381/134 410/379/134
f 410/379/134 409/378/134 411/380/134
f 413/382/134 414/383/134 412/381/134
f 412/381/134 411/380/134 413/382/134
f 415/384/134 416/385/134 414/383/134
f 414/383/134 413/382/134 415/384/134
f 417/386/252 418/387/253 416/385/134
f 416/385/134 415/384/134 417/386/252
f 421/388/254 420/389/254 419/390/254
f 419/390/254 422/391/254 421/388/254
f 420/389/254 424/392/254 423/393/255
f 423/393/255 419/390/254 420/389/254
f 424/392/254 426/394/254 425/395/254
f 425/395/254 423/393/255 424/392/254
f 426/394/254 428/396/255 427/397/255
f 427/397/255 425/395/254 426/394/254
f 428/396/255 430/398/255 429/399/254
f 429/399/254 427/397/255 428/396/255
f 429/399/254 430/398/255 431/400/254
f 433/401/256 432/402/257 222/190/142
f 222/190/142 432/402/257 434/403/258
f 434/403/258 221/191/143 222/190/142
f 436/404/259 434/403/258 435/405/260
f 435/405/260 437/406/261 436/404/259
f 435/405/260 434/403/258 432/402/257
f 432/402/257 438/407/262 435/405/260
f 439/408/263 438/407/262 432/402/257
f 441/409/264 440/410/265 435/405/260
f 435/405/260 438/407/262 441/409/264
f 443/411/266 442/412/267 440/410/265
f 440/410/265 441/409/264 443/411/266
f 446/413/268 445/405/269 444/410/270
f 444/410/270 447/414/271 446/413/268
f 444/410/270 448/412/272 447/414/271
f 445/405/269 446/413/268 449/415/273
f 449/415/273 450/406/274 445/405/269
f 451/404/275 450/406/274 449/415/273
f 449/415/273 452/416/276 451/404/275
f 451/404/275 452/416/276 453/417/277
f 453/417/277 454/403/278 451/404/275
f 371/340/134 454/403/278 455/418/277
f 455/418/277 372/341/252 371/340/134
f 453/417/277 455/418/277 454/403/278
f 458/411/279 457/409/280 456/419/281
f 461/420/282 460/421/283 459/422/284
f 461/420/282 459/422/284 456/419/281
f 456/419/281 457/409/280 461/420/282
f 464/423/285 463/424/286 462/425/287
f 323/292/244 462/425/288 465/401/288
f 465/401/288 322/190/242 323/292/244
f 466/426/289 464/423/285 459/422/284
f 459/422/284 460/421/283 466/426/289
f 463/424/286 464/423/285 466/426/289
f 272/242/194 271/241/193 467/427/290
f 467/427/290 468/428/291 272/242/194
f 468/428/291 467/427/290 469/429/292
f 469/429/292 470/423/293 468/428/291
f 472/429/254 421/388/254 471/422/254
f 471/422/254 473/423/254 472/429/254
f 475/419/254 471/422/254 474/430/254
f 422/391/254 474/430/254 471/422/254
f 471/422/254 421/388/254 422/391/254
f 476/431/294 477/432/294 478/433/294
f 478/433/294 479/434/294 476/431/294
f 480/435/294 481/436/294 477/432/294
f 477/432/294 476/431/294 480/435/294
f 482/437/295 483/438/294 481/436/294
f 481/436/294 480/435/294 482/437/295
f 484/439/294 485/440/294 483/438/294
f 483/438/294 482/437/295 484/439/294
f 486/441/294 487/442/294 485/440/294
f 485/440/294 484/439/294 486/441/294
f 488/443/294 487/442/294 486/441/294
f 490/444/296 489/445/297 269/239/191
f 268/238/190 491/446/298 490/444/296
f 490/444/296 269/239/191 268/238/190
f 493/447/299 492/448/300 491/446/298
f 491/446/298 494/449/301 493/447/299
f 496/450/302 495/451/303 490/444/296
f 496/450/302 490/444/296 491/446/298
f 491/446/298 492/448/300 496/450/302
f 497/452/304 496/450/302 492/448/300
f 492/448/300 498/453/304 497/452/304
f 499/454/305 497/452/304 498/453/304
f 498/453/304 500/455/306 499/454/305
f 503/453/307 502/456/308 501/457/309
f 501/457/309 504/458/271 503/453/307
f 505/455/272 503/453/307 504/458/271
f 502/456/308 507/459/274 506/460/310
f 506/460/310 501/457/309 502/456/308
f 509/461/311 508/462/276 506/460/310
f 506/460/310 507/459/274 509/461/311
f 509/461/311 511/463/312 510/464/277
f 510/464/277 508/462/276 509/461/311
f 418/387/253 417/386/252 512/465/277
f 512/465/277 511/463/312 418/387/253
f 512/465/277 510/464/277 511/463/312
f 515/452/280 514/454/279 513/466/313
f 518/451/283 517/450/314 516/467/315
f 517/450/314 515/452/280 513/466/313
f 513/466/313 516/467/315 517/450/314
f 521/445/316 520/468/317 519/469/318
f 367/337/251 368/336/250 522/470/288
f 522/470/288 519/469/288 367/337/251
f 523/444/319 518/451/283 516/467/315
f 516/467/315 520/468/317 523/444/319
f 520/468/317 521/445/316 523/444/319
f 319/289/241 525/471/320 524/472/321
f 524/472/321 318/288/240 319/289/241
f 525/471/320 527/473/322 526/474/323
f 526/474/323 524/472/321 525/471/320
f 530/474/294 529/473/294 528/467/294
f 528/467/294 478/433/294 530/474/294
f 528/467/294 532/466/294 531/475/294
f 479/434/294 478/433/294 528/467/294
f 528/467/294 531/475/294 479/434/294
