# Blender 4.5.2 LTS
# www.blender.org
mtllib head_light_nougat.mtl
o head_light_nougat
v -0.000002 7.500000 -13.000000
v -0.000002 7.500000 -13.000000
v -0.000002 -5.499999 -13.000000
v -0.000002 -5.499999 -13.000000
v -0.000002 9.031000 -12.618999
v -0.000002 9.031000 -12.618999
v -0.000002 -7.030999 -12.618999
v -0.000002 -7.030999 -12.618999
v 4.975000 7.500000 -12.009999
v -4.975001 7.500000 -12.009997
v 4.975000 -5.499999 -12.009999
v -4.975001 -5.499999 -12.009998
v 4.830000 9.031000 -11.658999
v 4.830000 9.031000 -11.658999
v -4.830001 9.031000 -11.658998
v 4.830000 -7.030999 -11.658999
v -4.830001 -7.030999 -11.658998
v -0.000001 10.327999 -11.534999
v -0.000001 10.327999 -11.534999
v -0.000001 -8.327998 -11.535000
v -0.000001 -8.327998 -11.535000
v 4.414000 10.327999 -10.658000
v -4.414001 10.327999 -10.657999
v 4.414000 -8.327998 -10.658000
v -4.414001 -8.327998 -10.657999
v -0.000001 11.195000 -9.913999
v -0.000001 11.195000 -9.913999
v -0.000001 -9.194999 -9.914000
v -0.000001 -9.194999 -9.914000
v 9.191999 7.500000 -9.191999
v -9.192000 7.500000 -9.191998
v 9.191999 -5.499999 -9.192000
v -9.192000 -5.499999 -9.191998
v 3.794000 11.195000 -9.158999
v -3.794001 11.195000 -9.158998
v 3.794000 -9.194999 -9.158999
v -3.794001 -9.194999 -9.158998
v 8.923000 9.031000 -8.922999
v -8.923000 9.031000 -8.922997
v -8.923000 9.031000 -8.922997
v 8.923000 -7.030999 -8.923000
v 8.923000 -7.030999 -8.923000
v -8.923000 -7.030999 -8.922997
v 8.157000 10.327999 -8.157000
v -8.157000 10.327999 -8.156998
v 8.157000 -8.327999 -8.157001
v -8.157000 -8.327999 -8.156999
v -0.000001 11.500000 -8.000000
v -0.000001 11.500000 -8.000000
v -0.000001 -9.499999 -8.000000
v -0.000001 -9.499999 -8.000000
v -0.000001 -9.499999 -8.000000
v -0.000001 -12.499999 -8.000000
v -0.000001 -12.499999 -8.000000
v 1.044000 -9.499999 -7.931200
v -1.044001 -9.499999 -7.931199
v 1.044000 -12.499999 -7.931200
v 1.044000 -12.499999 -7.931200
v -1.044001 -12.499999 -7.931200
v -1.044001 -12.499999 -7.931200
v 2.070400 -9.499999 -7.727201
v -2.070401 -9.499999 -7.727200
v 2.070400 -12.499999 -7.727200
v 2.070400 -12.499999 -7.727200
v -2.070401 -12.499999 -7.727200
v -2.070401 -12.499999 -7.727200
v 3.062000 11.500000 -7.391000
v -3.062001 11.500000 -7.390999
v 3.061600 -9.499999 -7.391200
v 3.062000 -9.499999 -7.391000
v -3.061601 -9.499999 -7.391199
v -3.062001 -9.499999 -7.390999
v 3.061600 -12.499999 -7.391200
v 3.061600 -12.499999 -7.391200
v -3.061601 -12.499999 -7.391199
v -3.061601 -12.499999 -7.391199
v 7.010000 11.195000 -7.010000
v -7.010000 11.195000 -7.009999
v 7.010000 -9.194999 -7.010000
v -7.010000 -9.194999 -7.009998
v 4.000000 -9.499999 -6.928000
v -4.000000 -9.499999 -6.927999
v 4.000000 -12.499999 -6.928000
v 4.000000 -12.499999 -6.928000
v -4.000000 -12.499999 -6.927999
v -4.000000 -12.499999 -6.927999
v 4.870400 -9.500000 -6.347200
v -4.870400 -9.500000 -6.347199
v 4.870400 -12.499999 -6.347200
v 4.870400 -12.499999 -6.347200
v -4.870400 -12.499999 -6.347199
v -4.870400 -12.499999 -6.347199
v -0.000001 15.500000 -6.000000
v -0.000001 15.500000 -6.000000
v -0.000001 11.500000 -6.000000
v -0.000001 11.500000 -6.000000
v -0.000001 11.500000 -6.000000
v -0.000001 7.500000 -6.000000
v -0.000001 7.500000 -6.000000
v -0.000001 -12.499999 -6.000000
v -0.000001 -12.499999 -6.000000
v 0.783000 15.500000 -5.948400
v 0.783000 15.500000 -5.948400
v -0.783001 15.500000 -5.948399
v -0.783001 15.500000 -5.948399
v 0.783000 11.500000 -5.948400
v -0.783001 11.500000 -5.948400
v 0.783000 7.500000 -5.948400
v 0.783000 7.500000 -5.948400
v -0.783001 7.500000 -5.948400
v -0.783001 7.500000 -5.948400
v 0.783000 -12.499999 -5.948400
v 0.783000 -12.499999 -5.948400
v -0.783001 -12.499999 -5.948400
v -0.783001 -12.499999 -5.948400
v 1.552800 15.500000 -5.795400
v 1.552800 15.500000 -5.795400
v -1.552800 15.500000 -5.795399
v -1.552801 15.500000 -5.795399
v 1.552800 11.500000 -5.795400
v -1.552800 11.500000 -5.795400
v 1.552800 7.500000 -5.795400
v 1.552800 7.500000 -5.795400
v -1.552801 7.500000 -5.795400
v -1.552800 7.500000 -5.795400
v 1.552800 -12.499999 -5.795400
v 1.552800 -12.499999 -5.795400
v -1.552801 -12.499999 -5.795400
v -1.552800 -12.499999 -5.795400
v 5.657000 11.500000 -5.657001
v -5.657001 11.500000 -5.656999
v 5.656800 -9.500000 -5.656800
v 5.657000 -9.500000 -5.657001
v -5.656800 -9.500000 -5.656799
v -5.657001 -9.500000 -5.656999
v 5.656800 -12.499999 -5.656800
v 5.656800 -12.499999 -5.656800
v -5.656800 -12.499999 -5.656799
v -5.656800 -12.499999 -5.656799
v 2.296200 15.500000 -5.543399
v 2.296200 15.500000 -5.543399
v -2.296201 15.500000 -5.543399
v -2.296201 15.500000 -5.543399
v 2.296200 11.500000 -5.543400
v 2.296000 11.500000 -5.543000
v -2.296201 11.500000 -5.543399
v -2.296000 11.500000 -5.542999
v 2.296200 7.500000 -5.543399
v 2.296200 7.500000 -5.543399
v -2.296201 7.500000 -5.543398
v -2.296201 7.500000 -5.543398
v 2.296200 -12.499999 -5.543400
v 2.296200 -12.499999 -5.543400
v -2.296201 -12.499999 -5.543399
v -2.296201 -12.499999 -5.543399
v 3.000000 15.500000 -5.196000
v 3.000000 15.500000 -5.196000
v -3.000000 15.500000 -5.195999
v -3.000000 15.500000 -5.195999
v 3.000000 11.500000 -5.196000
v -3.000000 11.500000 -5.196000
v 3.000000 7.500000 -5.196001
v 3.000000 7.500000 -5.196001
v -3.000000 7.500000 -5.196000
v -3.000000 7.500000 -5.196000
v 3.000000 -12.499999 -5.196001
v 3.000000 -12.499999 -5.196001
v -3.000000 -12.499999 -5.196000
v -3.000000 -12.499999 -5.196000
v 12.011000 7.500000 -4.975000
v -12.009999 7.500000 -4.974998
v 12.011000 -5.500000 -4.975000
v -12.009999 -5.500000 -4.974998
v 6.347200 -9.500000 -4.870400
v -6.347200 -9.500000 -4.870399
v 6.347200 -12.499999 -4.870400
v 6.347200 -12.499999 -4.870400
v -6.347200 -12.499999 -4.870399
v -6.347200 -12.499999 -4.870399
v 11.659000 9.031000 -4.830000
v 11.659000 9.031000 -4.830000
v -11.658998 9.031000 -4.829998
v 11.659000 -7.031000 -4.830001
v 11.659000 -7.031000 -4.830001
v -11.658998 -7.031000 -4.829998
v 3.652800 15.500000 -4.760400
v 3.652800 15.500000 -4.760400
v -3.652801 15.500000 -4.760399
v -3.652801 15.500000 -4.760399
v 3.652800 11.500000 -4.760400
v -3.652801 11.500000 -4.760399
v 3.652800 7.500000 -4.760399
v 3.652800 7.500000 -4.760399
v -3.652801 7.500000 -4.760398
v -3.652801 7.500000 -4.760398
v 3.652800 -12.499999 -4.760400
v 3.652800 -12.499999 -4.760400
v -3.652801 -12.499999 -4.760399
v -3.652801 -12.499999 -4.760399
v 10.658001 10.327999 -4.414001
v -10.658000 10.327999 -4.413999
v 10.658001 -8.327999 -4.414001
v -10.658000 -8.327999 -4.413999
v 4.242600 15.500000 -4.242600
v 4.242600 15.500000 -4.242600
v -4.242600 15.500000 -4.242599
v -4.242600 15.500000 -4.242599
v 4.242600 11.500000 -4.242601
v 4.243000 11.500000 -4.243001
v -4.242600 11.500000 -4.242599
v -4.243001 11.500000 -4.242999
v 4.242600 7.500000 -4.242600
v 4.242600 7.500000 -4.242600
v -4.242600 7.500000 -4.242599
v -4.242600 7.500000 -4.242599
v 4.242600 -12.499999 -4.242600
v 4.242600 -12.499999 -4.242600
v -4.242600 -12.499999 -4.242599
v -4.242600 -12.499999 -4.242599
v 0.000000 15.500000 -4.000000
v 0.000000 15.500000 -4.000000
v 0.000000 11.500000 -4.000000
v 0.000000 7.500000 -4.000000
v 0.000000 7.500000 -4.000000
v 6.927999 -9.500000 -4.000000
v -6.928000 -9.500000 -3.999999
v 6.927999 -12.499999 -4.000001
v 6.927999 -12.499999 -4.000001
v -6.928000 -12.499999 -3.999999
v -6.928000 -12.499999 -3.999999
v 0.522000 15.500000 -3.965600
v 0.522000 15.500000 -3.965600
v -0.522000 15.500000 -3.965600
v -0.522000 15.500000 -3.965600
v 0.522000 11.500000 -3.965600
v -0.522000 11.500000 -3.965600
v 0.522000 7.500000 -3.965600
v -0.522000 7.500000 -3.965600
v 1.035200 15.500000 -3.863600
v 1.035200 15.500000 -3.863600
v -1.035200 15.500000 -3.863599
v -1.035200 15.500000 -3.863599
v 1.035200 11.500000 -3.863600
v -1.035200 11.500000 -3.863600
v 1.035200 7.500000 -3.863599
v -1.035200 7.500000 -3.863599
v 9.159000 11.195000 -3.794001
v -9.158999 11.195000 -3.793999
v 9.159000 -9.194999 -3.794002
v -9.158999 -9.194999 -3.794000
v -1.040000 11.500000 -3.790000
v -1.040000 11.500000 -3.790000
v -1.040000 11.500000 -3.790000
v -1.040000 7.500000 -3.789999
v -1.040000 7.500000 -3.789999
v -1.040000 7.500000 -3.789999
v 1.530800 15.500000 -3.695600
v 1.530800 15.500000 -3.695600
v -1.530800 15.500000 -3.695599
v -1.530800 15.500000 -3.695599
v 1.530800 11.500000 -3.695600
v -1.530800 11.500000 -3.695600
v -1.530701 11.500000 -3.695500
v 1.530800 7.500000 -3.695601
v 1.530800 7.500000 -3.695601
v -1.530701 7.500000 -3.695499
v 4.760400 15.500000 -3.652800
v 4.760400 15.500000 -3.652800
v -4.760400 15.500000 -3.652799
v -4.760400 15.500000 -3.652799
v 4.760400 11.500000 -3.652801
v -4.760400 11.500000 -3.652799
v 4.760400 7.500000 -3.652801
v 4.760400 7.500000 -3.652801
v -4.760400 7.500000 -3.652800
v -4.760400 7.500000 -3.652800
v 4.760400 -12.499999 -3.652801
v 4.760400 -12.499999 -3.652801
v -4.760400 -12.499999 -3.652800
v -4.760400 -12.499999 -3.652800
v 2.000000 15.500000 -3.464000
v 2.000000 15.500000 -3.464000
v -2.000000 15.500000 -3.463999
v -2.000000 15.500000 -3.463999
v 2.000000 11.500000 -3.464000
v -2.000000 11.500000 -3.464000
v 2.000000 7.500000 -3.463999
v -2.000000 7.500000 -3.463999
v 2.435200 15.500000 -3.173600
v 2.435200 15.500000 -3.173600
v -2.435200 15.500000 -3.173599
v -2.435200 15.500000 -3.173599
v 2.435200 11.500000 -3.173600
v -2.435200 11.500000 -3.173599
v 2.435200 7.500000 -3.173599
v -2.435200 7.500000 -3.173599
v 7.391001 11.500000 -3.062001
v -7.391000 11.500000 -3.061999
v 7.391199 -9.500000 -3.061601
v 7.391001 -9.500000 -3.062001
v -7.391200 -9.500000 -3.061599
v -7.391000 -9.500000 -3.061999
v 7.391199 -12.499999 -3.061601
v 7.391199 -12.499999 -3.061601
v -7.391200 -12.499999 -3.061599
v -7.391200 -12.499999 -3.061599
v 5.196000 15.500000 -3.000000
v 5.196000 15.500000 -3.000000
v -5.196000 15.500000 -2.999999
v -5.196000 15.500000 -2.999999
v 5.196000 11.500000 -3.000001
v -5.196000 11.500000 -2.999999
v 5.196000 7.500000 -3.000000
v 5.196000 7.500000 -3.000000
v -5.196000 7.500000 -3.000000
v -5.196000 7.500000 -3.000000
v 5.196000 -12.499999 -3.000000
v 5.196000 -12.499999 -3.000000
v -5.196000 -12.499999 -3.000000
v -5.196000 -12.499999 -3.000000
v -2.800000 11.500000 -2.850000
v -2.800000 11.500000 -2.850000
v -2.800000 11.500000 -2.850000
v -2.800000 7.500000 -2.849999
v -2.800000 7.500000 -2.849999
v -2.800000 7.500000 -2.849999
v 2.828400 15.500000 -2.828400
v 2.828400 15.500000 -2.828400
v -2.828400 15.500000 -2.828399
v -2.828400 15.500000 -2.828399
v 2.828400 11.500000 -2.828400
v -2.828400 11.500000 -2.828399
v 2.828400 7.500000 -2.828401
v 2.828400 7.500000 -2.828401
v -2.828400 7.500000 -2.828400
v -2.828400 7.500000 -2.828400
v 3.173600 15.500000 -2.435200
v 3.173600 15.500000 -2.435200
v -3.173600 15.500000 -2.435199
v -3.173600 15.500000 -2.435199
v 3.173600 11.500000 -2.435200
v -3.173600 11.500000 -2.435199
v 3.173600 7.500000 -2.435200
v -3.173600 7.500000 -2.435199
v 5.543400 15.500000 -2.296200
v 5.543400 15.500000 -2.296200
v -5.543400 15.500000 -2.296199
v -5.543400 15.500000 -2.296199
v 5.543400 11.500000 -2.296201
v 5.543000 11.500000 -2.296001
v -5.543400 11.500000 -2.296199
v -5.543000 11.500000 -2.295999
v 5.543400 7.500000 -2.296200
v 5.543400 7.500000 -2.296200
v -5.543400 7.500000 -2.296199
v -5.543400 7.500000 -2.296199
v 5.543400 -12.499999 -2.296201
v 5.543400 -12.499999 -2.296201
v -5.543400 -12.499999 -2.296199
v -5.543400 -12.499999 -2.296199
v 7.727200 -9.499999 -2.070401
v -7.727200 -9.499999 -2.070399
v 7.727200 -12.499999 -2.070401
v 7.727200 -12.499999 -2.070401
v -7.727200 -12.499999 -2.070399
v -7.727200 -12.499999 -2.070399
v 3.464000 15.500000 -2.000000
v 3.464000 15.500000 -2.000000
v -3.464000 15.500000 -1.999999
v -3.464000 15.500000 -1.999999
v 3.464000 11.500000 -2.000000
v -3.464000 11.500000 -1.999999
v 3.464000 7.500000 -2.000000
v -3.464000 7.500000 -2.000000
v 5.795400 15.500000 -1.552800
v 5.795400 15.500000 -1.552800
v -5.795400 15.500000 -1.552799
v -5.795400 15.500000 -1.552799
v 5.795400 11.500000 -1.552800
v -5.795400 11.500000 -1.552799
v 5.795400 7.500000 -1.552801
v 5.795400 7.500000 -1.552801
v -5.795400 7.500000 -1.552799
v -5.795400 7.500000 -1.552799
v 5.795400 -12.499999 -1.552801
v 5.795400 -12.499999 -1.552801
v -5.795400 -12.499999 -1.552799
v -5.795400 -12.499999 -1.552799
v 3.695600 15.500000 -1.530800
v 3.695600 15.500000 -1.530800
v -3.695600 15.500000 -1.530799
v -3.695600 15.500000 -1.530799
v 3.695600 11.500000 -1.530800
v -3.695600 11.500000 -1.530800
v 3.695600 7.500000 -1.530801
v 3.695600 7.500000 -1.530801
v -3.695600 7.500000 -1.530800
v -3.695600 7.500000 -1.530800
v 7.931200 -9.499999 -1.044001
v -7.931200 -9.499999 -1.043999
v 7.931200 -12.499999 -1.044002
v 7.931200 -12.499999 -1.044002
v -7.931200 -12.499999 -1.044000
v -7.931200 -12.499999 -1.044000
v 3.863600 15.500000 -1.035200
v 3.863600 15.500000 -1.035200
v -3.863600 15.500000 -1.035199
v -3.863600 15.500000 -1.035199
v 3.863600 11.500000 -1.035200
v -3.863600 11.500000 -1.035199
v 3.863600 7.500000 -1.035201
v -3.863600 7.500000 -1.035200
v 3.801100 11.500000 -1.000000
v 3.801100 11.500000 -1.000000
v 3.801100 11.500000 -1.000000
v 0.580000 11.500000 -1.000000
v 0.580000 11.500000 -1.000000
v 0.580000 11.500000 -1.000000
v 3.801100 7.500000 -1.000001
v 3.801100 7.500000 -1.000001
v 3.801100 7.500000 -1.000001
v 0.580000 7.500000 -1.000000
v 0.580000 7.500000 -1.000000
v 0.580000 7.500000 -1.000000
v 5.948400 15.500000 -0.783000
v 5.948400 15.500000 -0.783000
v -5.948400 15.500000 -0.782999
v -5.948400 15.500000 -0.782999
v 5.948400 11.500000 -0.783001
v -5.948400 11.500000 -0.782999
v 5.948400 7.500000 -0.783001
v 5.948400 7.500000 -0.783001
v -5.948400 7.500000 -0.783000
v -5.948400 7.500000 -0.783000
v 5.948400 -12.499999 -0.783001
v 5.948400 -12.499999 -0.783001
v -5.948400 -12.499999 -0.782999
v -5.948400 -12.499999 -0.782999
v 3.965600 15.500000 -0.522000
v 3.965600 15.500000 -0.522000
v -3.965600 15.500000 -0.521999
v -3.965600 15.500000 -0.521999
v 3.965600 11.500000 -0.522000
v -3.965600 11.500000 -0.521999
v 3.965600 7.500000 -0.522001
v -3.965600 7.500000 -0.522000
v 6.000000 15.500000 -0.000002
v 6.000000 15.500000 -0.000002
v 4.000000 15.500000 -0.000002
v 4.000000 15.500000 -0.000002
v -4.000000 15.500000 -0.000002
v -4.000000 15.500000 -0.000002
v -6.000000 15.500000 -0.000002
v -6.000000 15.500000 -0.000002
v 8.000000 11.500000 -0.000002
v 6.000000 11.500000 -0.000002
v 6.000000 11.500000 -0.000002
v 4.000000 11.500000 -0.000002
v 4.000000 11.500000 -0.000002
v 0.000000 11.500000 -0.000002
v -1.150000 11.500000 -0.000002
v -1.150000 11.500000 -0.000002
v -1.150000 11.500000 -0.000002
v -4.000000 11.500000 -0.000002
v -6.000000 11.500000 -0.000002
v -6.000000 11.500000 -0.000002
v -8.000000 11.500000 -0.000002
v 9.914000 11.195000 -0.000002
v -9.913999 11.195000 -0.000002
v 11.535000 10.327999 -0.000002
v -11.534999 10.327999 -0.000002
v 12.618999 9.031000 -0.000002
v -12.618999 9.031000 -0.000002
v -12.618999 9.031000 -0.000002
v 13.000000 7.500000 -0.000002
v 6.000000 7.500000 -0.000002
v 6.000000 7.500000 -0.000002
v 4.000000 7.500000 -0.000002
v 0.000000 7.500000 -0.000002
v -1.150000 7.500000 -0.000002
v -1.150000 7.500000 -0.000002
v -1.150000 7.500000 -0.000002
v -4.000000 7.500000 -0.000002
v -4.000000 7.500000 -0.000002
v -6.000000 7.500000 -0.000002
v -6.000000 7.500000 -0.000002
v -12.999999 7.500000 -0.000002
v 13.000000 -5.499999 -0.000002
v -12.999999 -5.499999 -0.000001
v 12.618999 -7.030999 -0.000001
v -12.618999 -7.030999 0.000000
v -12.618999 -7.030999 0.000000
v 11.535000 -8.327998 -0.000001
v -11.534999 -8.327998 0.000000
v 9.914000 -9.195000 -0.000001
v -9.913999 -9.195000 0.000000
v 8.000000 -9.499999 -0.000001
v 8.000000 -9.499999 -0.000001
v -8.000000 -9.499999 0.000000
v -8.000000 -9.499999 0.000000
v 8.000000 -12.499999 -0.000001
v 8.000000 -12.499999 -0.000001
v 6.000000 -12.499999 -0.000001
v 6.000000 -12.499999 -0.000001
v -6.000000 -12.499999 0.000000
v -6.000000 -12.499999 0.000000
v -8.000000 -12.499999 0.000000
v -8.000000 -12.499999 0.000000
v 3.965600 15.500000 0.521998
v 3.965600 15.500000 0.521998
v -3.965600 15.500000 0.521998
v -3.965600 15.500000 0.521998
v 3.965600 11.500000 0.521998
v -3.965600 11.500000 0.521998
v 3.965600 7.500000 0.521998
v -3.965600 7.500000 0.521998
v 5.948400 15.500000 0.782998
v 5.948400 15.500000 0.782998
v -5.948400 15.500000 0.782998
v -5.948400 15.500000 0.782998
v 5.948400 11.500000 0.782998
v -5.948400 11.500000 0.782998
v 5.948400 7.500000 0.782998
v 5.948400 7.500000 0.782998
v -5.948400 7.500000 0.782998
v -5.948400 7.500000 0.782998
v 5.948400 -12.499999 0.783000
v 5.948400 -12.499999 0.783000
v -5.948400 -12.499999 0.783000
v -5.948400 -12.499999 0.783000
v 3.801100 11.500000 0.999998
v 3.801100 11.500000 0.999998
v 3.801100 11.500000 0.999998
v 0.580000 11.500000 0.999998
v 0.580000 11.500000 0.999998
v 0.580000 11.500000 0.999998
v 3.801100 7.500000 0.999998
v 3.801100 7.500000 0.999998
v 3.801100 7.500000 0.999998
v 0.580000 7.500000 0.999998
v 0.580000 7.500000 0.999998
v 0.580000 7.500000 0.999998
v 3.863600 15.500000 1.035198
v 3.863600 15.500000 1.035198
v -3.863600 15.500000 1.035198
v -3.863600 15.500000 1.035198
v 3.863600 11.500000 1.035198
v -3.863600 11.500000 1.035198
v 3.863600 7.500000 1.035198
v -3.863600 7.500000 1.035198
v 7.931200 -9.499999 1.044000
v -7.931199 -9.499999 1.044000
v 7.931200 -12.499999 1.044000
v 7.931200 -12.499999 1.044000
v -7.931199 -12.499999 1.044000
v -7.931199 -12.499999 1.044000
v 3.695600 15.500000 1.530798
v 3.695600 15.500000 1.530798
v -3.695600 15.500000 1.530798
v -3.695600 15.500000 1.530798
v 3.695600 11.500000 1.530798
v -3.695600 11.500000 1.530798
v 3.695600 7.500000 1.530798
v 3.695600 7.500000 1.530798
v -3.695600 7.500000 1.530798
v -3.695600 7.500000 1.530798
v 5.795400 15.500000 1.552798
v 5.795400 15.500000 1.552798
v -5.795400 15.500000 1.552798
v -5.795400 15.500000 1.552798
v 5.795400 11.500000 1.552798
v -5.795400 11.500000 1.552798
v 5.795400 7.500000 1.552798
v 5.795400 7.500000 1.552798
v -5.795400 7.500000 1.552798
v -5.795400 7.500000 1.552798
v 5.795400 -12.499999 1.552800
v 5.795400 -12.499999 1.552800
v -5.795400 -12.499999 1.552800
v -5.795400 -12.499999 1.552800
v 3.464000 15.500000 1.999998
v 3.464000 15.500000 1.999998
v -3.464000 15.500000 1.999998
v -3.464000 15.500000 1.999998
v 3.464000 11.500000 1.999998
v -3.464000 11.500000 1.999998
v 3.464000 7.500000 1.999998
v -3.464000 7.500000 1.999998
v 7.727200 -9.499999 2.070400
v -7.727199 -9.499999 2.070400
v 7.727200 -12.499999 2.070400
v 7.727200 -12.499999 2.070400
v -7.727199 -12.499999 2.070400
v -7.727199 -12.499999 2.070400
v 5.543400 15.500000 2.296198
v 5.543400 15.500000 2.296198
v -5.543399 15.500000 2.296198
v -5.543399 15.500000 2.296198
v 5.543400 11.500000 2.296198
v 5.543000 11.500000 2.295998
v -5.543399 11.500000 2.296198
v -5.542999 11.500000 2.295998
v 5.543400 7.500000 2.296198
v 5.543400 7.500000 2.296198
v -5.543399 7.500000 2.296198
v -5.543399 7.500000 2.296198
v 5.543400 -12.499999 2.296200
v 5.543400 -12.499999 2.296200
v -5.543399 -12.499999 2.296200
v -5.543399 -12.499999 2.296200
v 3.173600 15.500000 2.435198
v 3.173600 15.500000 2.435198
v -3.173599 15.500000 2.435198
v -3.173599 15.500000 2.435198
v 3.173600 11.500000 2.435198
v -3.173599 11.500000 2.435198
v 3.173600 7.500000 2.435198
v -3.173599 7.500000 2.435198
v 2.828400 15.500002 2.828398
v 2.828400 15.500002 2.828398
v -2.828399 15.500002 2.828398
v -2.828399 15.500002 2.828398
v 2.828400 11.500002 2.828398
v -2.828399 11.500002 2.828398
v 2.828400 7.500002 2.828398
v 2.828400 7.500002 2.828398
v -2.828399 7.500002 2.828398
v -2.828399 7.500002 2.828398
v -2.799999 11.500002 2.849998
v -2.799999 11.500002 2.849998
v -2.799999 11.500002 2.849998
v -2.799999 7.500002 2.849998
v -2.799999 7.500002 2.849998
v -2.799999 7.500002 2.849998
v 5.196000 15.500002 2.999998
v 5.196000 15.500002 2.999998
v -5.196000 15.500002 2.999998
v -5.196000 15.500002 2.999998
v 5.196000 11.500002 2.999998
v -5.196000 11.500002 2.999998
v 5.196000 7.500002 2.999998
v 5.196000 7.500002 2.999998
v -5.196000 7.500002 2.999998
v -5.196000 7.500002 2.999998
v 5.196000 -12.499999 3.000000
v 5.196000 -12.499999 3.000000
v -5.196000 -12.499999 3.000000
v -5.196000 -12.499999 3.000000
v 7.391001 11.500002 3.061998
v -7.390999 11.500002 3.061998
v 7.391199 -9.499999 3.061600
v 7.391001 -9.499999 3.062000
v -7.391199 -9.499999 3.061600
v -7.390999 -9.499999 3.062000
v 7.391199 -12.499999 3.061600
v 7.391199 -12.499999 3.061600
v -7.391199 -12.499999 3.061600
v -7.391199 -12.499999 3.061600
v 2.435200 15.500002 3.173598
v 2.435200 15.500002 3.173598
v -2.435199 15.500002 3.173598
v -2.435199 15.500002 3.173598
v 2.435200 11.500002 3.173598
v -2.435199 11.500002 3.173598
v 2.435200 7.500002 3.173598
v -2.435199 7.500002 3.173598
v 2.000000 15.500002 3.463998
v 2.000000 15.500002 3.463998
v -1.999999 15.500002 3.463998
v -1.999999 15.500002 3.463998
v 2.000000 11.500002 3.463998
v -1.999999 11.500002 3.463998
v 2.000000 7.500002 3.463998
v -1.999999 7.500002 3.463998
v 4.760400 15.500002 3.652798
v 4.760400 15.500002 3.652798
v -4.760399 15.500002 3.652798
v -4.760399 15.500002 3.652798
v 4.760400 11.500002 3.652798
v -4.760399 11.500002 3.652798
v 4.760400 7.500002 3.652798
v 4.760400 7.500002 3.652798
v -4.760399 7.500002 3.652798
v -4.760399 7.500002 3.652798
v 4.760400 -12.499999 3.652800
v 4.760400 -12.499999 3.652800
v -4.760399 -12.499999 3.652800
v -4.760399 -12.499999 3.652800
v 1.530800 15.500002 3.695598
v 1.530800 15.500002 3.695598
v -1.530800 15.500002 3.695598
v -1.530800 15.500002 3.695598
v 1.530800 11.500002 3.695598
v -1.530700 11.500002 3.695498
v -1.530800 11.500002 3.695598
v 1.530800 7.500002 3.695598
v 1.530800 7.500002 3.695598
v -1.530800 7.500002 3.695598
v -1.039999 11.500002 3.789998
v -1.039999 11.500002 3.789998
v -1.039999 11.500002 3.789998
v -1.039999 7.500002 3.789998
v -1.039999 7.500002 3.789998
v -1.039999 7.500002 3.789998
v 9.159000 11.195002 3.793998
v -9.158998 11.195002 3.793998
v 9.159000 -9.194999 3.794000
v -9.158998 -9.194999 3.794000
v 1.035200 15.500002 3.863598
v 1.035200 15.500002 3.863598
v -1.035199 15.500002 3.863598
v -1.035199 15.500002 3.863598
v 1.035200 11.500002 3.863598
v -1.035199 11.500002 3.863598
v 1.035200 7.500002 3.863598
v -1.035199 7.500002 3.863598
v 0.522000 15.500002 3.965598
v 0.522000 15.500002 3.965598
v -0.521999 15.500002 3.965598
v -0.521999 15.500002 3.965598
v 0.522000 11.500002 3.965598
v -0.521999 11.500002 3.965598
v 0.522000 7.500002 3.965598
v -0.521999 7.500002 3.965598
v 0.000000 15.500002 3.999998
v 0.000000 15.500002 3.999998
v 0.000000 11.500002 3.999998
v 0.000000 7.500002 3.999998
v 0.000000 7.500002 3.999998
v 6.927999 -9.499999 4.000000
v -6.927999 -9.499999 4.000000
v 6.927999 -12.499999 4.000000
v 6.927999 -12.499999 4.000000
v -6.927999 -12.499999 4.000000
v -6.927999 -12.499999 4.000000
v 4.242600 15.500002 4.242599
v 4.242600 15.500002 4.242599
v -4.242599 15.500002 4.242599
v -4.242599 15.500002 4.242599
v 4.242600 11.500002 4.242599
v 4.243000 11.500002 4.242998
v -4.242599 11.500002 4.242599
v -4.242999 11.500002 4.242998
v 4.242600 7.500002 4.242599
v 4.242600 7.500002 4.242599
v -4.242599 7.500002 4.242599
v -4.242599 7.500002 4.242599
v 4.242600 -12.499999 4.242600
v 4.242600 -12.499999 4.242600
v -4.242599 -12.499999 4.242600
v -4.242599 -12.499999 4.242600
v 10.658001 10.328001 4.413998
v -10.657999 10.328001 4.413998
v 10.658001 -8.327999 4.414000
v -10.657999 -8.327999 4.414000
v 3.652800 15.500002 4.760398
v 3.652800 15.500002 4.760398
v -3.652799 15.500002 4.760398
v -3.652799 15.500002 4.760398
v 3.652800 11.500002 4.760398
v -3.652799 11.500002 4.760398
v 3.652800 7.500002 4.760398
v 3.652800 7.500002 4.760398
v -3.652799 7.500002 4.760398
v -3.652799 7.500002 4.760398
v 3.652800 -12.499999 4.760400
v 3.652800 -12.499999 4.760400
v -3.652799 -12.499999 4.760400
v -3.652799 -12.499999 4.760400
v 11.659000 9.031002 4.829998
v 11.659000 9.031002 4.829998
v -11.658998 9.031002 4.829998
v -11.658998 9.031002 4.829998
v 11.659000 -7.031000 4.830000
v -11.658998 -7.031000 4.830000
v -11.658998 -7.031000 4.830000
v 6.347200 -9.499999 4.870400
v -6.347199 -9.499999 4.870400
v 6.347200 -12.499999 4.870400
v 6.347200 -12.499999 4.870400
v -6.347199 -12.499999 4.870400
v -6.347199 -12.499999 4.870400
v 12.011000 7.500002 4.974998
v -12.009998 7.500002 4.974998
v 12.011000 -5.499999 4.974999
v -12.009998 -5.499999 4.974999
v 3.000000 15.500002 5.195998
v 3.000000 15.500002 5.195998
v -2.999999 15.500002 5.195998
v -2.999999 15.500002 5.195998
v 3.000000 11.500002 5.195998
v -2.999999 11.500002 5.195998
v 3.000000 7.500002 5.195998
v 3.000000 7.500002 5.195998
v -2.999999 7.500002 5.195998
v -2.999999 7.500002 5.195998
v 3.000000 -12.499999 5.196000
v 3.000000 -12.499999 5.196000
v -2.999999 -12.499999 5.196000
v -2.999999 -12.499999 5.196000
v 2.296200 15.500002 5.543398
v 2.296200 15.500002 5.543398
v -2.296199 15.500002 5.543398
v -2.296199 15.500002 5.543398
v 2.296200 11.500002 5.543398
v 2.296000 11.500002 5.542998
v -2.296199 11.500002 5.543398
v -2.295999 11.500002 5.542998
v 2.296200 7.500002 5.543398
v 2.296200 7.500002 5.543398
v -2.296199 7.500002 5.543398
v -2.296199 7.500002 5.543398
v 2.296200 -12.499999 5.543400
v 2.296200 -12.499999 5.543400
v -2.296199 -12.499999 5.543400
v -2.296199 -12.499999 5.543400
v 5.657000 11.500002 5.656998
v -5.656999 11.500002 5.656998
v 5.656800 -9.499999 5.656800
v 5.657000 -9.499999 5.657000
v -5.656799 -9.499999 5.656800
v -5.656999 -9.499999 5.657000
v 5.656800 -12.499999 5.656800
v 5.656800 -12.499999 5.656800
v -5.656799 -12.499999 5.656800
v -5.656799 -12.499999 5.656800
v 1.552800 15.500002 5.795398
v 1.552800 15.500002 5.795398
v -1.552799 15.500002 5.795398
v -1.552799 15.500002 5.795398
v 1.552800 11.500002 5.795398
v -1.552799 11.500002 5.795398
v 1.552800 7.500002 5.795398
v 1.552800 7.500002 5.795398
v -1.552799 7.500002 5.795398
v -1.552799 7.500002 5.795398
v 1.552800 -12.499999 5.795400
v 1.552800 -12.499999 5.795400
v -1.552799 -12.499999 5.795400
v -1.552799 -12.499999 5.795400
v 0.783000 15.500002 5.948398
v 0.783000 15.500002 5.948398
v -0.782999 15.500002 5.948398
v -0.782999 15.500002 5.948398
v 0.783000 11.500002 5.948398
v -0.782999 11.500002 5.948398
v 0.783000 7.500002 5.948398
v 0.783000 7.500002 5.948398
v -0.782999 7.500002 5.948398
v -0.782999 7.500002 5.948398
v 0.783000 -12.499999 5.948400
v 0.783000 -12.499999 5.948400
v -0.782999 -12.499999 5.948400
v -0.782999 -12.499999 5.948400
v 0.000000 15.500002 5.999998
v 0.000000 15.500002 5.999998
v 0.000000 11.500002 5.999998
v 0.000000 11.500002 5.999998
v 0.000000 7.500002 5.999998
v 0.000000 7.500002 5.999998
v 0.000000 -12.499999 6.000000
v 0.000000 -12.499999 6.000000
v 4.870400 -9.499999 6.347200
v -4.870399 -9.499999 6.347200
v 4.870400 -12.499999 6.347200
v 4.870400 -12.499999 6.347200
v -4.870399 -12.499999 6.347200
v -4.870399 -12.499999 6.347200
v 4.000000 -9.500000 6.927999
v -3.999999 -9.500000 6.927999
v 4.000000 -12.499999 6.927999
v 4.000000 -12.499999 6.927999
v -3.999999 -12.499999 6.927999
v -3.999999 -12.499999 6.927999
v 7.010000 11.195002 7.009998
v -7.009999 11.195002 7.009998
v 7.010000 -9.194999 7.010000
v -7.009999 -9.194999 7.010000
v 3.062000 11.500002 7.390999
v -3.061999 11.500002 7.390999
v 3.061600 -9.500000 7.391199
v 3.062000 -9.500000 7.391001
v -3.061599 -9.500000 7.391199
v -3.061999 -9.500000 7.391001
v 3.061600 -12.499999 7.391199
v 3.061600 -12.499999 7.391199
v -3.061599 -12.499999 7.391199
v -3.061599 -12.499999 7.391199
v 2.070400 -9.500000 7.727200
v -2.070399 -9.500000 7.727200
v 2.070400 -12.499999 7.727200
v 2.070400 -12.499999 7.727200
v -2.070399 -12.499999 7.727200
v -2.070399 -12.499999 7.727200
v 1.044000 -9.500000 7.931200
v -1.043999 -9.500000 7.931200
v 1.044000 -12.499999 7.931200
v 1.044000 -12.499999 7.931200
v -1.043999 -12.499999 7.931200
v -1.043999 -12.499999 7.931200
v 0.000000 11.500002 7.999998
v 0.000000 -9.500000 8.000000
v 0.000000 -9.500000 8.000000
v 0.000000 -12.499999 8.000000
v 0.000000 -12.499999 8.000000
v 8.157000 10.328001 8.156998
v -8.156998 10.328001 8.156998
v 8.157000 -8.327999 8.157000
v -8.156998 -8.327999 8.157000
v 8.923000 9.031002 8.922998
v 8.923000 9.031002 8.922998
v -8.922998 9.031002 8.922998
v 8.923000 -7.031000 8.923000
v -8.922998 -7.031000 8.923000
v 3.794000 11.195002 9.158998
v -3.793999 11.195002 9.158998
v 3.794000 -9.194999 9.159000
v -3.793999 -9.194999 9.159000
v 9.191999 7.500002 9.191998
v -9.191998 7.500002 9.191998
v 9.191999 -5.500000 9.191999
v -9.191998 -5.500000 9.191999
v 0.000000 11.195002 9.913998
v 0.000000 -9.195000 9.914000
v 4.414000 10.328001 10.657999
v -4.413999 10.328001 10.657999
v 4.414000 -8.327999 10.658001
v -4.413999 -8.327999 10.658001
v 0.000000 10.328001 11.534998
v 0.000000 -8.327999 11.535000
v 4.830000 9.031002 11.658998
v 4.830000 9.031002 11.658998
v -4.829998 9.031002 11.658998
v 4.830000 -7.031000 11.659000
v -4.829998 -7.031000 11.659000
v 4.975000 7.500002 12.010998
v -4.974998 7.500002 12.010998
v 4.975000 -5.500000 12.011000
v -4.974998 -5.500000 12.011000
v 0.000000 9.031002 12.618998
v 0.000000 9.031002 12.618998
v 0.000000 -7.030999 12.618999
v 0.000000 -7.030999 12.618999
v 0.000000 7.500002 12.999998
v 0.000000 -5.499999 13.000000
vn -0.0000 1.0000 -0.0000
vn -0.0000 -1.0000 -0.0000
vn -0.0000 -0.0000 1.0000
vn -0.0000 -0.0000 -1.0000
vn 0.8648 -0.0000 -0.5021
vn -0.8654 -0.0000 0.5010
vn -0.8654 -0.0000 -0.5010
vn 0.8648 -0.0000 0.5021
vn -0.0641 -0.0000 -0.9979
vn -0.4228 -0.0000 -0.9062
vn -0.3207 -0.0000 -0.9472
vn 0.0320 -0.0000 -0.9995
vn -0.7374 -0.0000 -0.6754
vn -0.6588 -0.0000 -0.7523
vn -0.9117 -0.0000 -0.4109
vn -0.8618 -0.0000 -0.5072
vn -0.8854 -0.0000 0.4648
vn -0.6754 -0.0000 0.7374
vn -0.7523 -0.0000 0.6588
vn -0.9095 -0.0000 0.4156
vn -0.3418 -0.0000 0.9398
vn -0.4430 -0.0000 0.8965
vn 0.0157 -0.0000 0.9999
vn -0.0967 -0.0000 0.9953
vn 0.7876 -0.0000 0.6161
vn 0.9398 -0.0000 0.3418
vn 0.8965 -0.0000 0.4430
vn 0.8234 -0.0000 0.5675
vn 0.9990 -0.0000 -0.0438
vn 0.9978 -0.0000 0.0661
vn 0.9062 -0.0000 -0.4228
vn 0.9472 -0.0000 -0.3207
vn 0.7763 -0.0000 -0.6304
vn 0.8294 -0.0000 -0.5587
vn -0.9808 -0.0000 -0.1949
vn -0.9808 -0.0000 0.1949
vn 0.1979 -0.0000 0.9802
vn 0.6054 -0.0000 0.7959
vn 0.6054 -0.0000 -0.7959
vn 0.1979 -0.0000 -0.9802
vn -0.1090 -0.0000 -0.9940
vn -0.0219 -0.0000 -0.9998
vn -0.1522 -0.0000 -0.9884
vn -0.2374 -0.0000 -0.9714
vn -0.2795 -0.0000 -0.9601
vn -0.4029 -0.0000 -0.9153
vn -0.4810 -0.0000 -0.8767
vn -0.5185 -0.0000 -0.8551
vn -0.5911 -0.0000 -0.8066
vn -0.6261 -0.0000 -0.7798
vn -0.7223 -0.0000 -0.6916
vn -0.7798 -0.0000 -0.6261
vn -0.8066 -0.0000 -0.5911
vn -0.8551 -0.0000 -0.5185
vn -0.8767 -0.0000 -0.4810
vn -0.9117 -0.0000 -0.4108
vn -0.9321 -0.0000 -0.3623
vn -0.9601 -0.0000 -0.2795
vn -0.9714 -0.0000 -0.2374
vn -0.9884 -0.0000 -0.1522
vn -0.9940 -0.0000 -0.1090
vn -0.9998 -0.0000 -0.0219
vn -0.9998 -0.0000 0.0219
vn -0.9940 -0.0000 0.1090
vn -0.9884 -0.0000 0.1522
vn -0.9714 -0.0000 0.2374
vn -0.9601 -0.0000 0.2795
vn -0.9153 -0.0000 0.4029
vn -0.8767 -0.0000 0.4810
vn -0.8551 -0.0000 0.5185
vn -0.8066 -0.0000 0.5911
vn -0.7798 -0.0000 0.6261
vn -0.6916 -0.0000 0.7223
vn -0.6261 -0.0000 0.7798
vn -0.5911 -0.0000 0.8066
vn -0.5185 -0.0000 0.8551
vn -0.4810 -0.0000 0.8767
vn -0.3623 -0.0000 0.9321
vn -0.2795 -0.0000 0.9601
vn -0.2374 -0.0000 0.9714
vn -0.1522 -0.0000 0.9884
vn -0.1090 -0.0000 0.9940
vn 0.0219 -0.0000 0.9998
vn 0.1090 -0.0000 0.9940
vn 0.1522 -0.0000 0.9884
vn 0.2374 -0.0000 0.9714
vn 0.2795 -0.0000 0.9601
vn 0.3623 -0.0000 0.9321
vn 0.4029 -0.0000 0.9153
vn 0.4810 -0.0000 0.8767
vn 0.5185 -0.0000 0.8551
vn 0.5911 -0.0000 0.8066
vn 0.6261 -0.0000 0.7798
vn 0.7223 -0.0000 0.6916
vn 0.7798 -0.0000 0.6261
vn 0.8066 -0.0000 0.5911
vn 0.8551 -0.0000 0.5185
vn 0.8767 -0.0000 0.4810
vn 0.9321 -0.0000 0.3623
vn 0.9601 -0.0000 0.2795
vn 0.9714 -0.0000 0.2374
vn 0.9884 -0.0000 0.1522
vn 0.9940 -0.0000 0.1090
vn 0.9998 -0.0000 -0.0219
vn 0.9940 -0.0000 -0.1090
vn 0.9884 -0.0000 -0.1522
vn 0.9714 -0.0000 -0.2374
vn 0.9601 -0.0000 -0.2795
vn 0.9153 -0.0000 -0.4029
vn 0.8767 -0.0000 -0.4810
vn 0.8551 -0.0000 -0.5185
vn 0.8066 -0.0000 -0.5911
vn 0.7798 -0.0000 -0.6261
vn 0.6916 -0.0000 -0.7223
vn 0.6261 -0.0000 -0.7798
vn 0.5911 -0.0000 -0.8066
vn 0.5185 -0.0000 -0.8551
vn 0.4810 -0.0000 -0.8767
vn 0.4029 -0.0000 -0.9153
vn 0.3623 -0.0000 -0.9321
vn 0.2795 -0.0000 -0.9601
vn 0.2374 -0.0000 -0.9714
vn 0.1522 -0.0000 -0.9884
vn 0.1090 -0.0000 -0.9940
vn 0.0220 -0.0000 0.9998
vn -0.0220 -0.0000 0.9998
vn 0.1091 -0.0000 0.9940
vn 0.2375 -0.0000 0.9714
vn 0.2796 -0.0000 0.9601
vn 0.6260 -0.0000 0.7798
vn 0.6916 -0.0000 0.7223
vn 0.7798 -0.0000 0.6260
vn 0.9153 -0.0000 0.4029
vn 0.9601 -0.0000 0.2796
vn 0.9714 -0.0000 0.2375
vn 0.9998 -0.0000 0.0220
vn 0.9998 -0.0000 -0.0220
vn 0.9940 -0.0000 -0.1091
vn 0.9714 -0.0000 -0.2375
vn 0.9601 -0.0000 -0.2796
vn 0.9321 -0.0000 -0.3623
vn 0.7798 -0.0000 -0.6260
vn 0.7223 -0.0000 -0.6916
vn 0.6260 -0.0000 -0.7798
vn 0.2796 -0.0000 -0.9601
vn 0.2375 -0.0000 -0.9714
vn 0.0220 -0.0000 -0.9998
vn -0.0220 -0.0000 -0.9998
vn -0.1091 -0.0000 -0.9940
vn -0.2375 -0.0000 -0.9714
vn -0.3623 -0.0000 -0.9321
vn -0.6260 -0.0000 -0.7798
vn -0.6916 -0.0000 -0.7223
vn -0.7798 -0.0000 -0.6260
vn -0.9153 -0.0000 -0.4029
vn -0.9601 -0.0000 -0.2796
vn -0.9714 -0.0000 -0.2375
vn -0.9998 -0.0000 -0.0220
vn -0.9998 -0.0000 0.0220
vn -0.9940 -0.0000 0.1091
vn -0.9714 -0.0000 0.2375
vn -0.9601 -0.0000 0.2796
vn -0.9321 -0.0000 0.3623
vn -0.7798 -0.0000 0.6260
vn -0.7223 -0.0000 0.6916
vn -0.6260 -0.0000 0.7798
vn -0.4029 -0.0000 0.9153
vn -0.2796 -0.0000 0.9601
vn -0.2375 -0.0000 0.9714
vn -0.1091 -0.0000 0.9940
vn -0.2796 -0.0000 -0.9601
vn -0.5185 -0.0000 -0.8550
vn -0.7222 -0.0000 -0.6916
vn -0.8550 -0.0000 -0.5185
vn -0.9940 -0.0000 -0.1091
vn -0.8550 -0.0000 0.5186
vn -0.6916 -0.0000 0.7222
vn -0.5186 -0.0000 0.8550
vn 0.5185 -0.0000 0.8550
vn 0.6916 -0.0000 0.7222
vn 0.7222 -0.0000 0.6916
vn 0.8550 -0.0000 0.5186
vn 0.9940 -0.0000 0.1091
vn 0.8550 -0.0000 -0.5185
vn 0.5185 -0.0000 -0.8550
vn 0.1091 -0.0000 -0.9940
vn -0.0219 -0.0000 0.9998
vn 0.4028 -0.0000 0.9153
vn 0.9153 -0.0000 0.4028
vn 0.9998 -0.0000 0.0219
vn 0.9153 -0.0000 -0.4028
vn 0.7222 -0.0000 -0.6916
vn 0.6916 -0.0000 -0.7222
vn 0.4028 -0.0000 -0.9153
vn 0.0219 -0.0000 -0.9998
vn -0.4028 -0.0000 -0.9153
vn -0.6916 -0.0000 -0.7222
vn -0.9153 -0.0000 -0.4028
vn -0.9153 -0.0000 0.4028
vn -0.7222 -0.0000 0.6916
vn -0.4028 -0.0000 0.9153
vn 0.3241 -0.9459 0.0136
vn 0.2942 -0.9459 0.1367
vn 0.1574 -0.9875 0.0120
vn 0.1408 -0.9875 0.0713
vn 0.6306 -0.7760 0.0130
vn 0.5776 -0.7761 0.2533
vn 0.8900 -0.4559 0.0082
vn 0.8191 -0.4559 0.3482
vn 0.9998 -0.0201 -0.0052
vn 0.9022 -0.0260 0.4306
vn 0.2195 -0.9459 0.2389
vn 0.1028 -0.9875 0.1198
vn 0.4367 -0.7761 0.4550
vn 0.6236 -0.4557 0.6352
vn 0.6688 -0.0259 0.7430
vn 0.1114 -0.9459 0.3047
vn 0.0492 -0.9875 0.1500
vn 0.2292 -0.7761 0.5874
vn 0.3330 -0.4559 0.8254
vn 0.3335 -0.0259 0.9424
vn -0.0136 -0.9459 0.3241
vn -0.0120 -0.9875 0.1574
vn -0.0130 -0.7760 0.6306
vn 0.1507 -0.6339 0.7586
vn -0.0525 -0.0260 0.9983
vn -0.0897 -0.3514 0.9319
vn -0.1367 -0.9459 0.2942
vn -0.0713 -0.9875 0.1408
vn -0.2533 -0.7761 0.5776
vn -0.3482 -0.4559 0.8191
vn -0.4306 -0.0260 0.9022
vn -0.2389 -0.9459 0.2195
vn -0.1198 -0.9875 0.1028
vn -0.4550 -0.7761 0.4366
vn -0.6352 -0.4557 0.6236
vn -0.7430 -0.0259 0.6687
vn -0.3047 -0.9459 0.1114
vn -0.1500 -0.9875 0.0492
vn -0.5875 -0.7761 0.2292
vn -0.6430 -0.6340 0.4297
vn -0.9424 -0.0259 0.3336
vn -0.8955 -0.3510 0.2738
vn -0.3241 -0.9459 -0.0136
vn -0.1574 -0.9875 -0.0120
vn -0.6306 -0.7760 -0.0130
vn -0.8954 -0.3511 0.2737
vn -0.7586 -0.6339 0.1507
vn -0.9993 -0.0370 0.0097
vn -0.9320 -0.3513 -0.0897
vn -0.3241 0.9459 0.0136
vn -0.2942 0.9459 0.1367
vn -0.0841 0.9964 0.0064
vn -0.0753 0.9964 0.0381
vn -0.6306 0.7760 0.0130
vn -0.5776 0.7761 0.2533
vn -0.7585 0.6340 0.1508
vn -0.7586 0.6339 0.1507
vn -0.9998 0.0200 -0.0052
vn -0.9022 0.0259 0.4305
vn -0.9106 0.4127 -0.0230
vn -0.8267 0.3510 0.4397
vn -0.2195 0.9459 0.2389
vn -0.0550 0.9964 0.0640
vn -0.4367 0.7761 0.4550
vn -0.6236 0.4557 0.6352
vn -0.6688 0.0259 0.7430
vn -0.1114 0.9459 0.3047
vn -0.0263 0.9964 0.0802
vn -0.2292 0.7761 0.5874
vn -0.3330 0.4559 0.8254
vn -0.3335 0.0259 0.9424
vn 0.0136 0.9459 0.3241
vn 0.0064 0.9964 0.0841
vn 0.0130 0.7760 0.6306
vn -0.1507 0.6339 0.7586
vn 0.0525 0.0260 0.9983
vn 0.0897 0.3514 0.9319
vn 0.1367 0.9459 0.2942
vn 0.0381 0.9964 0.0753
vn 0.2533 0.7761 0.5776
vn 0.1507 0.6339 0.7586
vn 0.4306 0.0260 0.9022
vn 0.4396 0.3513 0.8266
vn 0.2389 0.9459 0.2195
vn 0.0640 0.9964 0.0550
vn 0.4550 0.7761 0.4367
vn 0.4298 0.6338 0.6431
vn 0.7430 0.0259 0.6688
vn 0.7224 0.3511 0.5957
vn 0.3047 0.9459 0.1114
vn 0.0802 0.9964 0.0263
vn 0.5875 0.7761 0.2292
vn 0.7224 0.3511 0.5956
vn 0.6430 0.6340 0.4297
vn 0.9424 0.0259 0.3335
vn 0.8954 0.3513 0.2737
vn 0.3241 0.9459 -0.0136
vn 0.0841 0.9964 -0.0064
vn 0.6306 0.7760 -0.0130
vn 0.8900 0.4559 -0.0082
vn 0.9993 0.0370 0.0097
vn -0.9468 -0.0259 -0.3208
vn -0.8963 0.0259 -0.4427
vn -0.7520 -0.0259 -0.6587
vn -0.6587 0.0259 -0.7520
vn -0.4427 -0.0259 -0.8963
vn -0.3208 0.0259 -0.9468
vn -0.1951 -0.0254 -0.9805
vn -0.1951 0.0257 -0.9804
vn 0.1951 -0.0257 -0.9804
vn 0.1951 0.0254 -0.9805
vn 0.3208 -0.0259 -0.9468
vn 0.4427 0.0259 -0.8963
vn 0.6586 -0.0259 -0.7520
vn 0.7519 0.0259 -0.6588
vn 0.8963 -0.0259 -0.4428
vn 0.9468 0.0259 -0.3207
vn -0.2942 -0.9459 -0.1367
vn -0.1408 -0.9875 -0.0713
vn -0.5776 -0.7761 -0.2533
vn -0.8192 -0.4557 -0.3482
vn -0.2195 -0.9459 -0.2389
vn -0.1028 -0.9875 -0.1198
vn -0.4367 -0.7761 -0.4550
vn -0.6236 -0.4557 -0.6352
vn -0.1114 -0.9459 -0.3047
vn -0.0492 -0.9875 -0.1500
vn -0.2292 -0.7761 -0.5874
vn -0.3330 -0.4557 -0.8255
vn -0.0534 -0.9618 -0.2685
vn -0.0313 -0.9871 -0.1573
vn -0.1143 -0.8102 -0.5749
vn -0.1671 -0.5145 -0.8410
vn 0.0740 -0.9252 -0.3721
vn 0.1367 -0.9459 -0.2942
vn 0.0313 -0.9871 -0.1573
vn 0.0713 -0.9875 -0.1408
vn 0.1334 -0.7290 -0.6714
vn 0.2533 -0.7761 -0.5776
vn 0.1802 -0.3820 -0.9064
vn 0.3482 -0.4557 -0.8192
vn 0.2389 -0.9459 -0.2195
vn 0.1198 -0.9875 -0.1028
vn 0.4550 -0.7761 -0.4367
vn 0.4298 -0.6338 -0.6431
vn 0.7224 -0.3511 -0.5957
vn 0.3047 -0.9459 -0.1114
vn 0.1500 -0.9875 -0.0492
vn 0.5875 -0.7761 -0.2292
vn 0.7225 -0.3511 -0.5956
vn 0.6430 -0.6340 -0.4297
vn 0.8954 -0.3513 -0.2737
vn 0.2942 0.9459 -0.1367
vn 0.0753 0.9964 -0.0381
vn 0.5776 0.7761 -0.2533
vn 0.7586 0.6339 -0.1507
vn 0.8266 0.3513 -0.4396
vn 0.2195 0.9459 -0.2389
vn 0.0550 0.9964 -0.0640
vn 0.4367 0.7761 -0.4550
vn 0.6236 0.4557 -0.6352
vn 0.1114 0.9459 -0.3047
vn 0.0263 0.9964 -0.0802
vn 0.2292 0.7761 -0.5875
vn 0.4297 0.6340 -0.6430
vn 0.2737 0.3511 -0.8955
vn 0.0534 0.9618 -0.2685
vn 0.0155 0.9969 -0.0777
vn 0.1143 0.8102 -0.5749
vn 0.1671 0.5145 -0.8410
vn -0.0740 0.9252 -0.3721
vn -0.1367 0.9459 -0.2942
vn -0.0174 0.9960 -0.0873
vn -0.0381 0.9964 -0.0753
vn -0.1334 0.7290 -0.6714
vn -0.2533 0.7761 -0.5776
vn -0.1802 0.3820 -0.9064
vn -0.3482 0.4557 -0.8192
vn -0.2389 0.9459 -0.2195
vn -0.0640 0.9964 -0.0550
vn -0.4550 0.7761 -0.4367
vn -0.4298 0.6338 -0.6431
vn -0.7225 0.3510 -0.5956
vn -0.3047 0.9459 -0.1114
vn -0.0802 0.9964 -0.0263
vn -0.5874 0.7761 -0.2292
vn -0.8255 0.4557 -0.3330
vt 0.000000 0.000000
vt -0.580000 1.000000
vt -3.801100 1.000000
vt -4.000000 0.000000
vt -3.801100 -1.000000
vt -0.580000 -1.000000
vt 1.040000 -3.790000
vt 1.530700 -3.695500
vt 2.800000 -2.850000
vt 1.150000 0.000000
vt 2.800000 2.850000
vt 1.530700 3.695500
vt 1.040000 3.790000
vt 0.198900 5.000000
vt 3.420000 5.000000
vt 4.000000 4.000000
vt 0.000000 4.000000
vt 3.420000 3.000000
vt 0.198900 3.000000
vt 5.040000 0.210000
vt 5.530700 0.304500
vt 5.150000 4.000000
vt 6.800000 1.150000
vt 6.800000 6.850000
vt 5.530800 7.695600
vt 5.040000 7.790000
vt 1.000000 -2.801100
vt 1.000000 0.420000
vt 5.000000 0.420000
vt 5.000000 -2.801100
vt 3.000000 -1.580000
vt -1.000000 -1.580000
vt -1.000000 -4.801100
vt 3.000000 -4.801100
vt 1.040000 -2.750000
vt -0.580000 -1.580000
vt 3.420000 -1.580000
vt 5.040000 -2.750000
vt 5.150000 1.150000
vt 1.150000 1.150000
vt 2.800000 -0.050000
vt 6.800000 -0.050000
vt 2.800000 5.650000
vt 6.800000 5.650000
vt 3.790000 4.830000
vt 7.790000 4.830000
vt -1.530800 2.164800
vt 2.469200 2.164800
vt 8.000000 4.000000
vt -2.828400 0.000000
vt 1.171600 0.000000
vt -3.695600 -2.164800
vt 0.304400 -2.164800
vt -3.695600 -5.226400
vt -2.828400 -5.656800
vt 1.171600 -5.656800
vt 0.304400 -5.226400
vt -4.000000 -4.000000
vt 0.000000 -4.000000
vt 3.695600 5.226400
vt 7.695600 5.226400
vt 2.828400 5.656800
vt 6.828400 5.656800
vt -3.801100 -2.801100
vt 0.198900 -2.801100
vt -3.801100 -4.801100
vt 0.198900 -4.801100
vt -3.790000 -2.750000
vt 0.210000 -2.750000
vt -2.850000 -0.050000
vt 1.150000 -0.050000
vt 2.850000 5.650000
vt 6.850000 5.650000
vt -0.522000 3.443600
vt -4.000000 4.000000
vt -4.522000 3.443600
vt -1.035200 2.828400
vt -5.035200 2.828400
vt -5.530800 2.164800
vt -2.000000 1.464000
vt -6.000000 1.464000
vt -2.435200 0.738400
vt -6.435200 0.738400
vt -6.828400 0.000000
vt -3.173600 -0.738400
vt -7.173600 -0.738400
vt -3.464000 -1.464000
vt -7.464000 -1.464000
vt -7.695600 -2.164800
vt -3.863600 -2.828400
vt -7.863600 -2.828400
vt -3.965600 -3.443600
vt -7.965600 -3.443600
vt -8.000000 -4.000000
vt -3.965600 -4.487600
vt -7.965600 -4.487600
vt -3.863600 -4.898800
vt -7.863600 -4.898800
vt -7.695600 -5.226400
vt -3.464000 -5.464000
vt -7.464000 -5.464000
vt -3.173600 -5.608800
vt -7.173600 -5.608800
vt -6.828400 -5.656800
vt 3.965600 4.487600
vt -0.034400 4.487600
vt 3.863600 4.898800
vt -0.136400 4.898800
vt -0.304400 5.226400
vt 3.464000 5.464000
vt -0.536000 5.464000
vt 3.173600 5.608800
vt -0.826400 5.608800
vt -1.171600 5.656800
vt 2.000000 6.000000
vt 6.000000 6.000000
vt 5.948400 5.165400
vt 1.948400 5.165400
vt 5.795400 4.242600
vt 1.795400 4.242600
vt 5.543400 3.247200
vt 1.543400 3.247200
vt 5.196000 2.196000
vt 1.196000 2.196000
vt 4.760400 1.107600
vt 0.760400 1.107600
vt 4.242600 0.000000
vt 0.242600 0.000000
vt 3.652800 -1.107600
vt -0.347200 -1.107600
vt 3.000000 -2.196000
vt -1.000000 -2.196000
vt 2.296200 -3.247200
vt -1.703800 -3.247200
vt 1.552800 -4.242600
vt -2.447200 -4.242600
vt 0.783000 -5.165400
vt -3.217000 -5.165400
vt 0.000000 -6.000000
vt -10.000000 -6.000000
vt -5.948400 -6.731400
vt -9.948400 -6.731400
vt -5.795400 -7.348200
vt -9.795401 -7.348200
vt -5.543400 -7.839600
vt -9.543400 -7.839600
vt -5.196000 -8.196000
vt -9.196000 -8.196000
vt -4.760400 -8.413200
vt -8.760400 -8.413200
vt -4.242600 -8.485200
vt -8.242599 -8.485200
vt -6.000000 -6.000000
vt -4.000000 -6.000000
vt 5.948400 6.731400
vt 1.948400 6.731400
vt 5.795400 7.348200
vt 1.795400 7.348200
vt 5.543400 7.839600
vt 1.543400 7.839600
vt 5.196000 8.196000
vt 1.196000 8.196000
vt 4.760400 8.413200
vt 0.760400 8.413200
vt 4.242600 8.485200
vt 0.242600 8.485200
vt -4.783000 1.948400
vt -4.522000 -0.034400
vt -4.000000 2.000000
vt -5.552800 1.795400
vt -5.035200 -0.136400
vt -6.296200 1.543400
vt -5.530800 -0.304400
vt -7.000000 1.196000
vt -6.000000 -0.536000
vt -7.652800 0.760400
vt -6.435200 -0.826400
vt -8.242599 0.242600
vt -6.828400 -1.171600
vt -8.760400 -0.347200
vt -7.173600 -1.564800
vt -9.196000 -1.000000
vt -7.464000 -2.000000
vt -9.543400 -1.703800
vt -7.695600 -2.469200
vt -9.795401 -2.447200
vt -7.863600 -2.964800
vt -9.948400 -3.217000
vt -7.965600 -3.478000
vt -10.000000 -4.000000
vt -9.948400 -4.783000
vt -7.965600 -4.522000
vt -9.795401 -5.552800
vt -7.863600 -5.035200
vt -9.543400 -6.296200
vt -7.695600 -5.530800
vt -9.196000 -7.000000
vt -7.464000 -6.000000
vt -8.760400 -7.652800
vt -7.173600 -6.435200
vt -8.242599 -8.242599
vt -6.828400 -6.828400
vt -7.652800 -8.760400
vt -6.435200 -7.173600
vt -7.000000 -9.196000
vt -6.000000 -7.464000
vt -6.296200 -9.543400
vt -5.530800 -7.695600
vt -5.552800 -9.795401
vt -5.035200 -7.863600
vt -4.783000 -9.948400
vt -4.522000 -7.965600
vt -4.000000 -10.000000
vt -4.000000 -8.000000
vt -3.217000 -9.948400
vt -3.478000 -7.965600
vt -2.447200 -9.795401
vt -2.964800 -7.863600
vt -1.703800 -9.543400
vt -2.469200 -7.695600
vt -1.000000 -9.196000
vt -2.000000 -7.464000
vt -0.347200 -8.760400
vt -1.564800 -7.173600
vt 0.242600 -8.242599
vt -1.171600 -6.828400
vt 0.760400 -7.652800
vt -0.826400 -6.435200
vt 1.196000 -7.000000
vt -0.536000 -6.000000
vt 1.543400 -6.296200
vt -0.304400 -5.530800
vt 1.795400 -5.552800
vt -0.136400 -5.035200
vt 1.948400 -4.783000
vt -0.034400 -4.522000
vt 2.000000 -4.000000
vt 1.948400 -3.217000
vt -0.034400 -3.478000
vt 1.795400 -2.447200
vt -0.136400 -2.964800
vt 1.543400 -1.703800
vt -0.304400 -2.469200
vt 1.196000 -1.000000
vt -0.536000 -2.000000
vt 0.760400 -0.347200
vt -0.826400 -1.564800
vt 0.242600 0.242600
vt -1.171600 -1.171600
vt -0.347200 0.760400
vt -1.564800 -0.826400
vt -1.000000 1.196000
vt -2.000000 -0.536000
vt -1.703800 1.543400
vt -2.469200 -0.304400
vt -2.447200 1.795400
vt -2.964800 -0.136400
vt -3.217000 1.948400
vt -3.478000 -0.034400
vt 4.783000 9.948400
vt 4.522000 7.965600
vt 4.000000 8.000000
vt 4.000000 10.000000
vt 5.552800 9.795401
vt 5.035200 7.863600
vt 6.296200 9.543400
vt 7.000000 9.196000
vt 6.000000 7.464000
vt 7.652800 8.760400
vt 6.435200 7.173600
vt 8.242599 8.242599
vt 6.828400 6.828400
vt 8.760400 7.652800
vt 7.173600 6.435200
vt 9.196000 7.000000
vt 7.464000 6.000000
vt 9.543400 6.296200
vt 7.695600 5.530800
vt 9.795401 5.552800
vt 7.863600 5.035200
vt 9.948400 4.783000
vt 7.965600 4.522000
vt 10.000000 4.000000
vt 9.948400 3.217000
vt 7.965600 3.478000
vt 9.795401 2.447200
vt 7.863600 2.964800
vt 9.543400 1.703800
vt 7.695600 2.469200
vt 9.196000 1.000000
vt 7.464000 2.000000
vt 8.760400 0.347200
vt 7.173600 1.564800
vt 8.242599 -0.242600
vt 6.828400 1.171600
vt 7.652800 -0.760400
vt 6.435200 0.826400
vt 7.000000 -1.196000
vt 6.000000 0.536000
vt 6.296200 -1.543400
vt 5.552800 -1.795400
vt 5.035200 0.136400
vt 4.783000 -1.948400
vt 4.522000 0.034400
vt 4.000000 -2.000000
vt 4.000000 0.000000
vt 3.217000 -1.948400
vt 3.478000 0.034400
vt 2.447200 -1.795400
vt 2.964800 0.136400
vt 1.703800 -1.543400
vt 2.469200 0.304400
vt 1.000000 -1.196000
vt 2.000000 0.536000
vt 0.347200 -0.760400
vt 1.564800 0.826400
vt -0.242600 -0.242600
vt 1.171600 1.171600
vt -0.760400 0.347200
vt 0.826400 1.564800
vt -1.196000 1.000000
vt 0.536000 2.000000
vt -1.543400 1.703800
vt 0.304400 2.469200
vt -1.795400 2.447200
vt 0.136400 2.964800
vt -1.948400 3.217000
vt 0.034400 3.478000
vt -2.000000 4.000000
vt -1.948400 4.783000
vt 0.034400 4.522000
vt -1.795400 5.552800
vt 0.136400 5.035200
vt -1.543400 6.296200
vt 0.304400 5.530800
vt -1.196000 7.000000
vt 0.536000 6.000000
vt -0.760400 7.652800
vt 0.826400 6.435200
vt -0.242600 8.242599
vt 1.171600 6.828400
vt 0.347200 8.760400
vt 1.564800 7.173600
vt 1.000000 9.196000
vt 2.000000 7.464000
vt 1.703800 9.543400
vt 2.469200 7.695600
vt 2.447200 9.795401
vt 2.964800 7.863600
vt 3.217000 9.948400
vt 3.478000 7.965600
vt 23.216999 5.165400
vt 30.000000 6.000000
vt 4.000000 6.000000
vt 3.217000 5.165400
vt 22.447201 4.242600
vt 2.447200 4.242600
vt 21.703800 3.247200
vt 1.703800 3.247200
vt 21.000000 2.196000
vt 1.000000 2.196000
vt 20.347200 1.107600
vt 0.347200 1.107600
vt 19.757401 0.000000
vt -0.242600 0.000000
vt 19.239599 -1.107600
vt -0.760400 -1.107600
vt 18.804001 -2.196000
vt -1.196000 -2.196000
vt 18.456600 -3.247200
vt -1.543400 -3.247200
vt 18.204599 -4.242600
vt -1.795400 -4.242600
vt 18.051600 -5.165400
vt -1.948400 -5.165400
vt 18.000000 -6.000000
vt -2.000000 -6.000000
vt 18.051600 -6.731400
vt -1.948400 -6.731400
vt 18.204599 -7.348200
vt -1.795400 -7.348200
vt 18.456600 -7.839600
vt -1.543400 -7.839600
vt 18.804001 -8.196000
vt -1.196000 -8.196000
vt 19.239599 -8.413200
vt -0.760400 -8.413200
vt 19.757401 -8.485200
vt -0.242600 -8.485200
vt 24.000000 6.000000
vt 10.000000 6.000000
vt 29.948400 6.731400
vt 9.948400 6.731400
vt 29.795401 7.348200
vt 9.795401 7.348200
vt 29.543400 7.839600
vt 9.543400 7.839600
vt 29.195999 8.196000
vt 9.196000 8.196000
vt 28.760401 8.413200
vt 8.760400 8.413200
vt 28.242599 8.485200
vt 8.242599 8.485200
vt 25.044001 31.931200
vt 24.783001 29.948400
vt 24.000000 30.000000
vt 24.000000 32.000000
vt 26.070400 31.727200
vt 25.552799 29.795401
vt 27.061600 31.391199
vt 26.296200 29.543400
vt 28.000000 30.927999
vt 27.000000 29.195999
vt 28.870399 30.347200
vt 27.652800 28.760401
vt 29.656799 29.656799
vt 28.242599 28.242599
vt 30.347200 28.870399
vt 28.760401 27.652800
vt 30.927999 28.000000
vt 29.195999 27.000000
vt 31.391199 27.061600
vt 29.543400 26.296200
vt 31.727200 26.070400
vt 29.795401 25.552799
vt 31.931200 25.044001
vt 29.948400 24.783001
vt 32.000000 24.000000
vt 30.000000 24.000000
vt 31.931200 22.955999
vt 29.948400 23.216999
vt 31.727200 21.929600
vt 29.795401 22.447201
vt 31.391199 20.938400
vt 29.543400 21.703800
vt 30.927999 20.000000
vt 29.195999 21.000000
vt 30.347200 19.129601
vt 28.760401 20.347200
vt 29.656799 18.343201
vt 28.242599 19.757401
vt 28.870399 17.652800
vt 27.652800 19.239599
vt 28.000000 17.072001
vt 27.000000 18.804001
vt 27.061600 16.608801
vt 26.296200 18.456600
vt 26.070400 16.272800
vt 25.552799 18.204599
vt 25.044001 16.068800
vt 24.783001 18.051600
vt 24.000000 16.000000
vt 24.000000 18.000000
vt 22.955999 16.068800
vt 23.216999 18.051600
vt 21.929600 16.272800
vt 22.447201 18.204599
vt 20.938400 16.608801
vt 21.703800 18.456600
vt 20.000000 17.072001
vt 21.000000 18.804001
vt 19.129601 17.652800
vt 20.347200 19.239599
vt 18.343201 18.343201
vt 19.757401 19.757401
vt 17.652800 19.129601
vt 19.239599 20.347200
vt 17.072001 20.000000
vt 18.804001 21.000000
vt 16.608801 20.938400
vt 18.456600 21.703800
vt 16.272800 21.929600
vt 18.204599 22.447201
vt 16.068800 22.955999
vt 18.051600 23.216999
vt 16.000000 24.000000
vt 18.000000 24.000000
vt 16.068800 25.044001
vt 18.051600 24.783001
vt 16.272800 26.070400
vt 18.204599 25.552799
vt 16.608801 27.061600
vt 18.456600 26.296200
vt 17.072001 28.000000
vt 18.804001 27.000000
vt 17.652800 28.870399
vt 19.239599 27.652800
vt 18.343201 29.656799
vt 19.757401 28.242599
vt 19.129601 30.347200
vt 20.347200 28.760401
vt 20.000000 30.927999
vt 21.000000 29.195999
vt 20.938400 31.391199
vt 21.703800 29.543400
vt 21.929600 31.727200
vt 22.447201 29.795401
vt 22.955999 31.931200
vt 23.216999 29.948400
vt 29.000000 8.000000
vt 32.000000 8.000000
vt 31.931200 6.887200
vt 28.931200 6.887200
vt 31.727200 5.656800
vt 28.727200 5.656800
vt 31.391199 4.329600
vt 28.391199 4.329600
vt 30.927999 2.928000
vt 27.927999 2.928000
vt 30.347200 1.476800
vt 27.347200 1.476800
vt 29.656799 0.000000
vt 26.656799 0.000000
vt 28.870399 -1.476800
vt 25.870399 -1.476800
vt 28.000000 -2.928000
vt 25.000000 -2.928000
vt 27.061600 -4.329600
vt 24.061600 -4.329600
vt 26.070400 -5.656800
vt 23.070400 -5.656800
vt 25.044001 -6.887200
vt 22.044001 -6.887200
vt 24.000000 -8.000000
vt 13.000000 -8.000000
vt 16.068800 -8.975200
vt 13.068800 -8.975200
vt 16.272800 -9.797600
vt 13.272800 -9.797600
vt 16.608801 -10.452800
vt 13.608800 -10.452800
vt 17.072001 -10.928000
vt 14.072000 -10.928000
vt 17.652800 -11.217600
vt 14.652800 -11.217600
vt 18.343201 -11.313600
vt 15.343200 -11.313600
vt 16.000000 -8.000000
vt 21.000000 -8.000000
vt 31.931200 8.975200
vt 28.931200 8.975200
vt 31.727200 9.797600
vt 28.727200 9.797600
vt 31.391199 10.452800
vt 28.391199 10.452800
vt 30.927999 10.928000
vt 27.927999 10.928000
vt 30.347200 11.217600
vt 27.347200 11.217600
vt 29.656799 11.313600
vt 26.656799 11.313600
vt 10.781000 -9.914000
vt 11.536000 -5.365000
vt 13.609000 -4.329000
vt 8.292999 -11.535000
vt 9.169999 -6.244000
vt 5.912001 -12.619000
vt 6.872001 -6.829000
vt 4.000000 -13.000000
vt 21.975000 -7.036000
vt 13.685000 0.000000
vt 15.343000 0.000000
vt 11.671000 0.000000
vt 27.454000 0.000000
vt 26.191999 0.000000
vt 16.900999 5.365000
vt 17.938000 4.329000
vt 15.414000 6.244000
vt 30.190001 6.829000
vt 29.011000 7.036000
vt 20.695000 9.914000
vt 21.000000 8.000000
vt 19.827999 11.535000
vt 31.150000 12.619000
vt 30.000000 13.000000
vt 24.489000 12.953000
vt 24.062000 10.453000
vt 24.242001 15.072000
vt 30.190001 16.489000
vt 29.011000 16.986000
vt 27.705000 14.020000
vt 26.657000 11.314000
vt 27.985001 16.313999
vt 27.454000 17.846001
vt 26.191999 18.384001
vt 29.010000 16.985001
vt 10.219000 9.914000
vt 9.464000 12.953000
vt 8.000000 8.000000
vt 7.391000 10.453000
vt 12.707000 11.535000
vt 11.830000 15.072000
vt 15.088000 12.619000
vt 14.128000 16.489000
vt 17.000000 13.000000
vt 16.010000 16.985001
vt 7.315000 14.020000
vt 5.657000 11.314000
vt 9.329000 16.313999
vt 11.392000 17.846001
vt 13.192000 18.384001
vt 16.011000 16.986000
vt 9.464000 5.365000
vt 7.391000 4.329000
vt 11.830000 6.244000
vt 14.128000 6.829000
vt 16.011000 7.036000
vt 7.315000 0.000000
vt 5.657000 0.000000
vt 9.329000 0.000000
vt 11.392000 0.000000
vt 13.192000 0.000000
vt 4.099000 -5.365000
vt 3.062000 -4.329000
vt 5.586001 -6.244000
vt 7.299000 -6.829000
vt 8.975000 -7.036000
vt 0.305000 -9.914000
vt 0.000000 -8.000000
vt 1.172001 -11.535000
vt 2.469000 -12.619000
vt 29.010000 7.034999
vt 16.010000 7.034999
vt 21.975000 -7.034999
vt 8.975000 -7.034999
vt 17.000000 -13.000000
vt -9.000000 -13.000000
vt 4.990001 -16.985001
vt -8.009999 -16.985001
vt 7.808001 -18.384001
vt -5.191999 -18.384001
vt 4.989000 -16.986000
vt -8.011000 -16.986000
vt 11.536000 -12.953000
vt 13.609000 -10.453000
vt 9.169999 -15.072000
vt 6.872001 -16.489000
vt 13.685000 -14.020000
vt 15.343000 -11.314000
vt 11.671000 -16.313999
vt 9.608001 -17.846001
vt -3.489000 -12.953000
vt -3.062000 -10.453000
vt -3.241999 -15.072000
vt -2.361000 -16.489000
vt -9.190000 -16.489000
vt -6.704999 -14.020000
vt -5.657000 -11.314000
vt -6.984999 -16.313999
vt -6.454000 -17.846001
vt -2.296000 -5.543000
vt -4.243000 -4.243000
vt -5.543000 -2.296000
vt -6.000000 0.000000
vt -5.543000 2.296000
vt -4.243000 4.243000
vt -2.296000 5.543000
vt 0.000000 6.000000
vt 2.296000 5.543000
vt 4.243000 4.243000
vt 5.543000 2.296000
vt 6.000000 0.000000
vt 5.543000 -2.296000
vt 4.243000 -4.243000
vt 2.296000 -5.543000
s 1
usemtl 78.001
f 460/1/1 536/2/1 531/3/1
f 531/3/1 458/4/1 460/1/1
f 415/5/1 417/6/1 460/1/1
f 460/1/1 458/4/1 415/5/1
f 460/1/1 417/6/1 253/7/1
f 253/7/1 263/8/1 460/1/1
f 323/9/1 461/10/1 460/1/1
f 460/1/1 263/8/1 323/9/1
f 460/1/1 461/10/1 631/11/1
f 631/11/1 694/12/1 460/1/1
f 700/13/1 536/2/1 460/1/1
f 460/1/1 694/12/1 700/13/1
f 537/14/2 542/15/2 479/16/2
f 479/16/2 478/17/2 537/14/2
f 479/16/2 423/18/2 421/19/2
f 421/19/2 478/17/2 479/16/2
f 254/20/2 423/18/2 479/16/2
f 479/16/2 266/21/2 254/20/2
f 479/16/2 480/22/2 324/23/2
f 324/23/2 266/21/2 479/16/2
f 632/24/2 480/22/2 479/16/2
f 479/16/2 698/25/2 632/24/2
f 479/16/2 542/15/2 703/26/2
f 703/26/2 698/25/2 479/16/2
f 533/27/3 535/28/3 540/29/3
f 540/29/3 538/30/3 533/27/3
f 422/31/4 416/32/4 414/33/4
f 414/33/4 420/34/4 422/31/4
f 252/35/5 418/36/5 424/37/5
f 424/37/5 255/38/5 252/35/5
f 482/39/6 463/40/6 321/41/6
f 321/41/6 325/42/6 482/39/6
f 629/43/7 462/40/7 481/39/7
f 481/39/7 634/44/7 629/43/7
f 541/29/8 534/28/8 699/45/8
f 699/45/8 704/46/8 541/29/8
f 727/17/9 693/47/10 696/48/11
f 696/48/11 728/49/12 727/17/9
f 693/47/10 623/50/13 625/51/14
f 625/51/14 696/48/11 693/47/10
f 623/50/13 561/52/15 563/53/16
f 563/53/16 625/51/14 623/50/13
f 393/54/17 331/55/18 334/56/19
f 334/56/19 396/57/20 393/54/17
f 331/55/18 261/54/21 264/57/22
f 264/57/22 334/56/19 331/55/18
f 261/54/21 222/58/23 223/59/24
f 223/59/24 264/57/22 261/54/21
f 332/50/25 394/47/26 397/48/27
f 397/48/27 335/51/28 332/50/25
f 394/47/26 464/16/29 484/16/30
f 484/16/30 397/48/27 394/47/26
f 464/16/29 562/60/31 565/61/32
f 565/61/32 484/16/30 464/16/29
f 562/60/31 624/62/33 628/63/34
f 628/63/34 565/61/32 562/60/31
f 561/52/15 532/64/35 539/65/35
f 539/65/35 563/53/16 561/52/15
f 413/66/36 393/54/17 396/57/20
f 396/57/20 419/67/36 413/66/36
f 222/58/23 251/68/37 256/69/37
f 256/69/37 223/59/24 222/58/23
f 322/70/38 332/50/25 335/51/28
f 335/51/28 326/71/38 322/70/38
f 624/62/33 630/72/39 633/73/39
f 633/73/39 628/63/34 624/62/33
f 701/45/40 727/17/9 728/49/12
f 728/49/12 702/46/40 701/45/40
f 721/74/41 727/17/9 725/75/42
f 725/75/42 718/76/43 721/74/41
f 713/77/44 721/74/41 718/76/43
f 718/76/43 709/78/45 713/77/44
f 693/47/10 713/77/44 709/78/45
f 709/78/45 690/79/46 693/47/10
f 671/80/47 693/47/10 690/79/46
f 690/79/46 667/81/48 671/80/47
f 663/82/49 671/80/47 667/81/48
f 667/81/48 660/83/50 663/82/49
f 623/50/13 663/82/49 660/83/50
f 660/83/50 620/84/51 623/50/13
f 615/85/52 623/50/13 620/84/51
f 620/84/51 612/86/53 615/85/52
f 585/87/54 615/85/52 612/86/53
f 612/86/53 582/88/55 585/87/54
f 561/52/56 585/87/54 582/88/55
f 582/88/55 558/89/57 561/52/56
f 547/90/58 561/52/56 558/89/57
f 558/89/57 543/91/59 547/90/58
f 513/92/60 547/90/58 543/91/59
f 543/91/59 509/93/61 513/92/60
f 459/58/62 513/92/60 509/93/61
f 509/93/61 449/94/63 459/58/62
f 443/95/64 459/58/62 449/94/63
f 449/94/63 440/96/65 443/95/64
f 409/97/66 443/95/64 440/96/65
f 440/96/65 406/98/67 409/97/66
f 393/54/17 409/97/66 406/98/67
f 406/98/67 389/99/68 393/54/17
f 371/100/69 393/54/17 389/99/68
f 389/99/68 367/101/70 371/100/69
f 341/102/71 371/100/69 367/101/70
f 367/101/70 338/103/72 341/102/71
f 331/55/18 341/102/71 338/103/72
f 338/103/72 327/104/73 331/55/18
f 293/102/74 331/55/18 327/104/73
f 327/104/73 290/103/75 293/102/74
f 285/100/76 293/102/74 290/103/75
f 290/103/75 281/101/77 285/100/76
f 261/54/21 285/100/76 281/101/77
f 281/101/77 258/99/78 261/54/21
f 243/97/79 261/54/21 258/99/78
f 258/99/78 240/98/80 243/97/79
f 235/95/81 243/97/79 240/98/80
f 240/98/80 231/96/82 235/95/81
f 222/58/23 235/95/81 231/96/82
f 231/96/82 221/94/83 222/58/23
f 236/92/84 222/58/23 221/94/83
f 221/94/83 233/93/85 236/92/84
f 244/90/86 236/92/84 233/93/85
f 233/93/85 241/91/87 244/90/86
f 262/52/88 244/90/86 241/91/87
f 241/91/87 260/89/89 262/52/88
f 286/87/90 262/52/88 260/89/89
f 260/89/89 284/88/91 286/87/90
f 294/85/92 286/87/90 284/88/91
f 284/88/91 291/86/93 294/85/92
f 332/50/25 294/85/92 291/86/93
f 291/86/93 330/84/94 332/50/25
f 342/82/95 332/50/25 330/84/94
f 330/84/94 339/83/96 342/82/95
f 372/80/97 342/82/95 339/83/96
f 339/83/96 369/81/98 372/80/97
f 394/47/26 372/80/97 369/81/98
f 369/81/98 392/79/99 394/47/26
f 410/77/100 394/47/26 392/79/99
f 392/79/99 407/78/101 410/77/100
f 444/74/102 410/77/100 407/78/101
f 407/78/101 441/76/103 444/74/102
f 464/16/29 444/74/102 441/76/103
f 441/76/103 451/17/104 464/16/29
f 514/105/105 464/16/29 451/17/104
f 451/17/104 511/106/106 514/105/105
f 548/107/107 514/105/105 511/106/106
f 511/106/106 546/108/108 548/107/107
f 562/60/31 548/107/107 546/108/108
f 546/108/108 560/109/109 562/60/31
f 586/110/110 562/60/31 560/109/109
f 560/109/109 584/111/111 586/110/110
f 616/112/112 586/110/110 584/111/111
f 584/111/111 614/113/113 616/112/112
f 624/62/33 616/112/112 614/113/113
f 614/113/113 622/114/114 624/62/33
f 664/112/115 624/62/33 622/114/114
f 622/114/114 661/113/116 664/112/115
f 672/110/117 664/112/115 661/113/116
f 661/113/116 670/111/118 672/110/117
f 695/60/119 672/110/117 670/111/118
f 670/111/118 691/109/120 695/60/119
f 714/107/121 695/60/119 691/109/120
f 691/109/120 712/108/122 714/107/121
f 722/105/123 714/107/121 712/108/122
f 712/108/122 719/106/124 722/105/123
f 727/17/9 722/105/123 719/106/124
f 719/106/124 725/75/42 727/17/9
f 855/115/125 857/116/126 845/117/127
f 845/117/127 841/118/85 855/115/125
f 841/118/85 845/117/127 831/119/128
f 831/119/128 827/120/129 841/118/85
f 827/120/129 831/119/128 805/121/88
f 805/121/88 801/122/89 827/120/129
f 801/122/89 805/121/88 791/123/90
f 791/123/90 787/124/91 801/122/89
f 787/124/91 791/123/90 760/125/92
f 760/125/92 756/126/130 787/124/91
f 756/126/130 760/125/92 740/127/131
f 740/127/131 737/128/94 756/126/130
f 737/128/94 740/127/131 679/129/132
f 679/129/132 675/130/96 737/128/94
f 675/130/96 679/129/132 639/131/97
f 639/131/97 635/132/98 675/130/96
f 635/132/98 639/131/97 599/133/133
f 599/133/133 595/134/99 635/132/98
f 595/134/99 599/133/133 571/135/134
f 571/135/134 567/136/135 595/134/99
f 567/136/135 571/135/134 521/137/102
f 521/137/102 518/138/103 567/136/135
f 518/138/103 521/137/102 456/139/136
f 456/139/136 448/140/137 518/138/103
f 448/140/137 456/139/136 429/141/138
f 429/141/138 426/142/106 448/140/137
f 426/142/106 429/141/138 379/143/139
f 379/143/139 376/144/140 426/142/106
f 376/144/140 379/143/139 349/145/141
f 349/145/141 346/146/109 376/144/140
f 346/146/109 349/145/141 311/147/110
f 311/147/110 308/148/111 346/146/109
f 308/148/111 311/147/110 271/149/112
f 271/149/112 268/150/142 308/148/111
f 268/150/142 271/149/112 208/151/143
f 208/151/143 205/152/114 268/150/142
f 205/152/114 208/151/143 190/149/144
f 190/149/144 186/150/116 205/152/114
f 186/150/116 190/149/144 160/147/117
f 160/147/117 157/148/118 186/150/116
f 157/148/118 160/147/117 144/145/119
f 144/145/119 140/146/120 157/148/118
f 140/146/120 144/145/119 120/143/145
f 120/143/145 116/144/146 140/146/120
f 116/144/146 120/143/145 106/141/123
f 106/141/123 102/142/124 116/144/146
f 102/142/124 106/141/123 95/153/147
f 95/153/147 94/154/148 102/142/124
f 94/154/148 95/153/147 107/137/149
f 107/137/149 104/138/43 94/154/148
f 104/138/43 107/137/149 121/135/150
f 121/135/150 118/136/45 104/138/43
f 118/136/45 121/135/150 146/133/151
f 146/133/151 142/134/46 118/136/45
f 142/134/46 146/133/151 161/131/47
f 161/131/47 158/132/48 142/134/46
f 158/132/48 161/131/47 191/129/49
f 191/129/49 189/130/152 158/132/48
f 189/130/152 191/129/49 210/127/153
f 210/127/153 207/128/51 189/130/152
f 207/128/51 210/127/153 272/125/154
f 272/125/154 269/126/53 207/128/51
f 269/126/53 272/125/154 312/123/54
f 312/123/54 309/124/55 269/126/53
f 309/124/55 312/123/54 351/121/155
f 351/121/155 348/122/57 309/124/55
f 348/122/57 351/121/155 380/119/156
f 380/119/156 378/120/157 348/122/57
f 378/120/157 380/119/156 430/117/60
f 430/117/60 428/118/61 378/120/157
f 428/118/61 430/117/60 465/116/158
f 465/116/158 454/115/159 428/118/61
f 454/115/159 465/116/158 522/155/160
f 522/155/160 519/156/65 454/115/159
f 519/156/65 522/155/160 572/157/161
f 572/157/161 570/158/162 519/156/65
f 570/158/162 572/157/161 601/159/163
f 601/159/163 597/160/68 570/158/162
f 597/160/68 601/159/163 640/161/69
f 640/161/69 637/162/70 597/160/68
f 637/162/70 640/161/69 680/163/71
f 680/163/71 678/164/164 637/162/70
f 678/164/164 680/163/71 742/165/165
f 742/165/165 738/166/73 678/164/164
f 738/166/73 742/165/165 761/163/166
f 761/163/166 758/164/75 738/166/73
f 758/164/75 761/163/166 792/161/76
f 792/161/76 790/162/77 758/164/75
f 790/162/77 792/161/76 807/159/167
f 807/159/167 803/160/78 790/162/77
f 803/160/78 807/159/167 832/157/168
f 832/157/168 829/158/169 803/160/78
f 829/158/169 832/157/168 846/155/81
f 846/155/81 843/156/170 829/158/169
f 843/156/170 846/155/81 857/116/126
f 857/116/126 855/115/125 843/156/170
f 842/167/1 717/168/1 726/4/1
f 726/4/1 856/169/1 842/167/1
f 828/170/1 710/171/1 717/168/1
f 717/168/1 842/167/1 828/170/1
f 802/172/1 689/173/1 710/171/1
f 710/171/1 828/170/1 802/172/1
f 788/174/1 668/175/1 689/173/1
f 689/173/1 802/172/1 788/174/1
f 757/176/1 659/177/1 668/175/1
f 668/175/1 788/174/1 757/176/1
f 736/178/1 619/179/1 659/177/1
f 659/177/1 757/176/1 736/178/1
f 676/180/1 611/181/1 619/179/1
f 619/179/1 736/178/1 676/180/1
f 636/182/1 581/183/1 611/181/1
f 611/181/1 676/180/1 636/182/1
f 596/184/1 557/185/1 581/183/1
f 581/183/1 636/182/1 596/184/1
f 568/186/1 544/187/1 557/185/1
f 557/185/1 596/184/1 568/186/1
f 517/188/1 510/189/1 544/187/1
f 544/187/1 568/186/1 517/188/1
f 447/190/1 450/94/1 510/189/1
f 510/189/1 517/188/1 447/190/1
f 425/191/1 439/192/1 450/94/1
f 450/94/1 447/190/1 425/191/1
f 375/193/1 405/194/1 439/192/1
f 439/192/1 425/191/1 375/193/1
f 345/195/1 390/196/1 405/194/1
f 405/194/1 375/193/1 345/195/1
f 307/197/1 368/198/1 390/196/1
f 390/196/1 345/195/1 307/197/1
f 267/199/1 337/200/1 368/198/1
f 368/198/1 307/197/1 267/199/1
f 204/201/1 328/202/1 337/200/1
f 337/200/1 267/199/1 204/201/1
f 187/203/1 289/204/1 328/202/1
f 328/202/1 204/201/1 187/203/1
f 156/205/1 282/206/1 289/204/1
f 289/204/1 187/203/1 156/205/1
f 141/207/1 257/208/1 282/206/1
f 282/206/1 156/205/1 141/207/1
f 117/209/1 239/210/1 257/208/1
f 257/208/1 141/207/1 117/209/1
f 103/211/1 232/212/1 239/210/1
f 239/210/1 117/209/1 103/211/1
f 93/213/1 220/214/1 232/212/1
f 232/212/1 103/211/1 93/213/1
f 105/215/1 234/216/1 220/214/1
f 220/214/1 93/213/1 105/215/1
f 119/217/1 242/218/1 234/216/1
f 234/216/1 105/215/1 119/217/1
f 143/219/1 259/220/1 242/218/1
f 242/218/1 119/217/1 143/219/1
f 159/221/1 283/222/1 259/220/1
f 259/220/1 143/219/1 159/221/1
f 188/223/1 292/224/1 283/222/1
f 283/222/1 159/221/1 188/223/1
f 206/225/1 329/226/1 292/224/1
f 292/224/1 188/223/1 206/225/1
f 270/227/1 340/228/1 329/226/1
f 329/226/1 206/225/1 270/227/1
f 310/229/1 370/230/1 340/228/1
f 340/228/1 270/227/1 310/229/1
f 347/231/1 391/232/1 370/230/1
f 370/230/1 310/229/1 347/231/1
f 377/233/1 408/234/1 391/232/1
f 391/232/1 347/231/1 377/233/1
f 427/235/1 442/236/1 408/234/1
f 408/234/1 377/233/1 427/235/1
f 453/237/1 452/59/1 442/236/1
f 442/236/1 427/235/1 453/237/1
f 520/238/1 512/239/1 452/59/1
f 452/59/1 453/237/1 520/238/1
f 569/240/1 545/241/1 512/239/1
f 512/239/1 520/238/1 569/240/1
f 598/242/1 559/243/1 545/241/1
f 545/241/1 569/240/1 598/242/1
f 638/244/1 583/245/1 559/243/1
f 559/243/1 598/242/1 638/244/1
f 677/246/1 613/247/1 583/245/1
f 583/245/1 638/244/1 677/246/1
f 739/248/1 621/249/1 613/247/1
f 613/247/1 677/246/1 739/248/1
f 759/250/1 662/251/1 621/249/1
f 621/249/1 739/248/1 759/250/1
f 789/252/1 669/253/1 662/251/1
f 662/251/1 759/250/1 789/252/1
f 804/254/1 692/255/1 669/253/1
f 669/253/1 789/252/1 804/254/1
f 830/256/1 711/257/1 692/255/1
f 692/255/1 804/254/1 830/256/1
f 844/258/1 720/259/1 711/257/1
f 711/257/1 830/256/1 844/258/1
f 856/169/1 726/4/1 720/259/1
f 720/259/1 844/258/1 856/169/1
f 849/260/2 724/261/2 729/262/2
f 729/262/2 860/263/2 849/260/2
f 836/264/2 716/265/2 724/261/2
f 724/261/2 849/260/2 836/264/2
f 811/266/2 698/25/2 716/265/2
f 716/265/2 836/264/2 811/266/2
f 796/267/2 674/268/2 698/25/2
f 698/25/2 811/266/2 796/267/2
f 765/269/2 666/270/2 674/268/2
f 674/268/2 796/267/2 765/269/2
f 747/271/2 627/272/2 666/270/2
f 666/270/2 765/269/2 747/271/2
f 684/273/2 618/274/2 627/272/2
f 627/272/2 747/271/2 684/273/2
f 644/275/2 588/276/2 618/274/2
f 618/274/2 684/273/2 644/275/2
f 606/277/2 566/278/2 588/276/2
f 588/276/2 644/275/2 606/277/2
f 575/279/2 550/280/2 566/278/2
f 566/278/2 606/277/2 575/279/2
f 525/281/2 516/282/2 550/280/2
f 550/280/2 575/279/2 525/281/2
f 485/283/2 483/49/2 516/282/2
f 516/282/2 525/281/2 485/283/2
f 433/284/2 446/285/2 483/49/2
f 483/49/2 485/283/2 433/284/2
f 383/286/2 412/287/2 446/285/2
f 446/285/2 433/284/2 383/286/2
f 356/288/2 398/289/2 412/287/2
f 412/287/2 383/286/2 356/288/2
f 315/290/2 374/291/2 398/289/2
f 398/289/2 356/288/2 315/290/2
f 276/292/2 344/293/2 374/291/2
f 374/291/2 315/290/2 276/292/2
f 214/294/2 336/295/2 344/293/2
f 344/293/2 276/292/2 214/294/2
f 195/296/2 296/297/2 336/295/2
f 336/295/2 214/294/2 195/296/2
f 165/298/2 288/299/2 296/297/2
f 296/297/2 195/296/2 165/298/2
f 151/300/2 266/21/2 288/299/2
f 288/299/2 165/298/2 151/300/2
f 124/301/2 246/302/2 266/21/2
f 266/21/2 151/300/2 124/301/2
f 110/303/2 238/304/2 246/302/2
f 246/302/2 124/301/2 110/303/2
f 99/305/2 224/306/2 238/304/2
f 238/304/2 110/303/2 99/305/2
f 109/307/2 237/308/2 224/306/2
f 224/306/2 99/305/2 109/307/2
f 122/309/2 245/310/2 237/308/2
f 237/308/2 109/307/2 122/309/2
f 148/311/2 265/312/2 245/310/2
f 245/310/2 122/309/2 148/311/2
f 163/313/2 287/314/2 265/312/2
f 265/312/2 148/311/2 163/313/2
f 192/315/2 295/316/2 287/314/2
f 287/314/2 163/313/2 192/315/2
f 212/317/2 333/318/2 295/316/2
f 295/316/2 192/315/2 212/317/2
f 274/319/2 343/320/2 333/318/2
f 333/318/2 212/317/2 274/319/2
f 314/321/2 373/322/2 343/320/2
f 343/320/2 274/319/2 314/321/2
f 353/323/2 395/324/2 373/322/2
f 373/322/2 314/321/2 353/323/2
f 381/325/2 411/326/2 395/324/2
f 395/324/2 353/323/2 381/325/2
f 431/327/2 445/328/2 411/326/2
f 411/326/2 381/325/2 431/327/2
f 476/329/2 478/17/2 445/328/2
f 445/328/2 431/327/2 476/329/2
f 523/330/2 515/331/2 478/17/2
f 478/17/2 476/329/2 523/330/2
f 573/332/2 549/333/2 515/331/2
f 515/331/2 523/330/2 573/332/2
f 604/334/2 564/335/2 549/333/2
f 549/333/2 573/332/2 604/334/2
f 642/336/2 587/337/2 564/335/2
f 564/335/2 604/334/2 642/336/2
f 681/338/2 617/339/2 587/337/2
f 587/337/2 642/336/2 681/338/2
f 744/340/2 626/341/2 617/339/2
f 617/339/2 681/338/2 744/340/2
f 763/342/2 665/343/2 626/341/2
f 626/341/2 744/340/2 763/342/2
f 794/344/2 673/345/2 665/343/2
f 665/343/2 763/342/2 794/344/2
f 810/346/2 697/347/2 673/345/2
f 673/345/2 794/344/2 810/346/2
f 833/348/2 715/349/2 697/347/2
f 697/347/2 810/346/2 833/348/2
f 848/350/2 723/351/2 715/349/2
f 715/349/2 833/348/2 848/350/2
f 860/263/2 729/262/2 723/351/2
f 723/351/2 848/350/2 860/263/2
f 851/352/149 862/353/147 859/354/148
f 859/354/148 847/355/43 851/352/149
f 837/356/44 851/352/149 847/355/43
f 847/355/43 834/357/171 837/356/44
f 814/358/151 837/356/44 834/357/171
f 834/357/171 809/359/46 814/358/151
f 797/360/47 814/358/151 809/359/46
f 809/359/46 793/361/172 797/360/47
f 766/362/49 797/360/47 793/361/172
f 793/361/172 762/363/50 766/362/49
f 748/364/153 766/362/49 762/363/50
f 762/363/50 745/365/173 748/364/153
f 685/366/52 748/364/153 745/365/173
f 745/365/173 682/367/53 685/366/52
f 646/368/174 685/366/52 682/367/53
f 682/367/53 641/369/55 646/368/174
f 607/370/155 646/368/174 641/369/55
f 641/369/55 603/371/57 607/370/155
f 578/372/156 607/370/155 603/371/57
f 603/371/57 574/373/59 578/372/156
f 527/374/60 578/372/156 574/373/59
f 574/373/59 524/375/175 527/374/60
f 504/376/158 527/374/60 524/375/175
f 524/375/175 477/377/159 504/376/158
f 436/378/160 504/376/158 477/377/159
f 477/377/159 432/379/65 436/378/160
f 385/380/66 436/378/160 432/379/65
f 432/379/65 382/381/162 385/380/66
f 358/382/163 385/380/66 382/381/162
f 382/381/162 354/383/68 358/382/163
f 317/384/69 358/382/163 354/383/68
f 354/383/68 313/385/176 317/384/69
f 278/386/71 317/384/69 313/385/176
f 313/385/176 273/387/72 278/386/71
f 216/388/165 278/386/71 273/387/72
f 273/387/72 213/389/177 216/388/165
f 197/386/74 216/388/165 213/389/177
f 213/389/177 193/387/75 197/386/74
f 166/384/178 197/386/74 193/387/75
f 193/387/75 162/385/77 166/384/178
f 152/382/167 166/384/178 162/385/77
f 162/385/77 149/383/78 152/382/167
f 127/380/168 152/382/167 149/383/78
f 149/383/78 123/381/80 127/380/168
f 113/378/81 127/380/168 123/381/80
f 123/381/80 108/379/170 113/378/81
f 101/376/126 113/378/81 108/379/170
f 108/379/170 98/377/125 101/376/126
f 114/374/127 101/376/126 98/377/125
f 98/377/125 111/375/85 114/374/127
f 129/372/86 114/374/127 111/375/85
f 111/375/85 125/373/129 129/372/86
f 155/370/88 129/372/86 125/373/129
f 125/373/129 150/371/89 155/370/88
f 169/368/90 155/370/88 150/371/89
f 150/371/89 164/369/179 169/368/90
f 198/366/92 169/368/90 164/369/179
f 164/369/179 194/367/93 198/366/92
f 219/364/180 198/366/92 194/367/93
f 194/367/93 215/365/181 219/364/180
f 279/362/95 219/364/180 215/365/181
f 215/365/181 275/363/96 279/362/95
f 320/360/182 279/362/95 275/363/96
f 275/363/96 316/361/98 320/360/182
f 360/358/133 320/360/182 316/361/98
f 316/361/98 355/359/99 360/358/133
f 388/356/134 360/358/133 355/359/99
f 355/359/99 384/357/101 388/356/134
f 438/352/102 388/356/134 384/357/101
f 384/357/101 434/355/183 438/352/102
f 506/390/136 438/352/102 434/355/183
f 434/355/183 486/391/137 506/390/136
f 529/392/138 506/390/136 486/391/137
f 486/391/137 526/393/106 529/392/138
f 579/394/107 529/392/138 526/393/106
f 526/393/106 576/395/140 579/394/107
f 610/396/141 579/394/107 576/395/140
f 576/395/140 605/397/109 610/396/141
f 647/398/110 610/396/141 605/397/109
f 605/397/109 643/399/184 647/398/110
f 687/400/112 647/398/110 643/399/184
f 643/399/184 683/401/113 687/400/112
f 750/402/143 687/400/112 683/401/113
f 683/401/113 746/403/114 750/402/143
f 769/400/115 750/402/143 746/403/114
f 746/403/114 764/401/116 769/400/115
f 800/398/185 769/400/115 764/401/116
f 764/401/116 795/399/118 800/398/185
f 815/396/119 800/398/185 795/399/118
f 795/399/118 812/397/120 815/396/119
f 839/394/145 815/396/119 812/397/120
f 812/397/120 835/395/122 839/394/145
f 854/392/123 839/394/145 835/395/122
f 835/395/122 850/393/186 854/392/123
f 862/353/147 854/392/123 850/393/186
f 850/393/186 859/354/148 862/353/147
f 900/404/2 853/405/2 861/406/2
f 861/406/2 905/407/2 900/404/2
f 893/408/2 840/409/2 853/405/2
f 853/405/2 900/404/2 893/408/2
f 888/410/2 816/411/2 840/409/2
f 840/409/2 893/408/2 888/410/2
f 874/412/2 799/413/2 816/411/2
f 816/411/2 888/410/2 874/412/2
f 868/414/2 768/415/2 799/413/2
f 799/413/2 874/412/2 868/414/2
f 826/416/2 751/417/2 768/415/2
f 768/415/2 868/414/2 826/416/2
f 781/418/2 688/419/2 751/417/2
f 751/417/2 826/416/2 781/418/2
f 735/420/2 648/421/2 688/419/2
f 688/419/2 781/418/2 735/420/2
f 657/422/2 609/423/2 648/421/2
f 648/421/2 735/420/2 657/422/2
f 593/424/2 580/425/2 609/423/2
f 609/423/2 657/422/2 593/424/2
f 556/426/2 530/427/2 580/425/2
f 580/425/2 593/424/2 556/426/2
f 507/428/2 505/429/2 530/427/2
f 530/427/2 556/426/2 507/428/2
f 404/430/2 437/431/2 505/429/2
f 505/429/2 507/428/2 404/430/2
f 365/432/2 387/433/2 437/431/2
f 437/431/2 404/430/2 365/432/2
f 305/434/2 359/435/2 387/433/2
f 387/433/2 365/432/2 305/434/2
f 230/436/2 319/437/2 359/435/2
f 359/435/2 305/434/2 230/436/2
f 179/438/2 280/439/2 319/437/2
f 319/437/2 230/436/2 179/438/2
f 138/440/2 218/441/2 280/439/2
f 280/439/2 179/438/2 138/440/2
f 92/442/2 199/443/2 218/441/2
f 218/441/2 138/440/2 92/442/2
f 86/444/2 168/445/2 199/443/2
f 199/443/2 92/442/2 86/444/2
f 76/446/2 154/447/2 168/445/2
f 168/445/2 86/444/2 76/446/2
f 66/448/2 128/449/2 154/447/2
f 154/447/2 76/446/2 66/448/2
f 59/450/2 115/451/2 128/449/2
f 128/449/2 66/448/2 59/450/2
f 54/452/2 100/453/2 115/451/2
f 115/451/2 59/450/2 54/452/2
f 58/454/2 112/455/2 100/453/2
f 100/453/2 54/452/2 58/454/2
f 63/456/2 126/457/2 112/455/2
f 112/455/2 58/454/2 63/456/2
f 74/458/2 153/459/2 126/457/2
f 126/457/2 63/456/2 74/458/2
f 84/460/2 167/461/2 153/459/2
f 153/459/2 74/458/2 84/460/2
f 90/462/2 196/463/2 167/461/2
f 167/461/2 84/460/2 90/462/2
f 137/464/2 217/465/2 196/463/2
f 196/463/2 90/462/2 137/464/2
f 177/466/2 277/467/2 217/465/2
f 217/465/2 137/464/2 177/466/2
f 227/468/2 318/469/2 277/467/2
f 277/467/2 177/466/2 227/468/2
f 303/470/2 357/471/2 318/469/2
f 318/469/2 227/468/2 303/470/2
f 363/472/2 386/473/2 357/471/2
f 357/471/2 303/470/2 363/472/2
f 402/474/2 435/475/2 386/473/2
f 386/473/2 363/472/2 402/474/2
f 501/476/2 503/477/2 435/475/2
f 435/475/2 402/474/2 501/476/2
f 554/478/2 528/479/2 503/477/2
f 503/477/2 501/476/2 554/478/2
f 592/480/2 577/481/2 528/479/2
f 528/479/2 554/478/2 592/480/2
f 656/482/2 608/483/2 577/481/2
f 577/481/2 592/480/2 656/482/2
f 732/484/2 645/485/2 608/483/2
f 608/483/2 656/482/2 732/484/2
f 780/486/2 686/487/2 645/485/2
f 645/485/2 732/484/2 780/486/2
f 823/488/2 749/489/2 686/487/2
f 686/487/2 780/486/2 823/488/2
f 866/490/2 767/491/2 749/489/2
f 749/489/2 823/488/2 866/490/2
f 871/492/2 798/493/2 767/491/2
f 767/491/2 866/490/2 871/492/2
f 886/494/2 813/495/2 798/493/2
f 798/493/2 871/492/2 886/494/2
f 891/496/2 838/497/2 813/495/2
f 813/495/2 886/494/2 891/496/2
f 898/498/2 852/499/2 838/497/2
f 838/497/2 891/496/2 898/498/2
f 905/407/2 861/406/2 852/499/2
f 852/499/2 898/498/2 905/407/2
f 902/500/83 904/501/187 897/502/84
f 897/502/84 895/503/85 902/500/83
f 895/503/85 897/502/84 892/504/86
f 892/504/86 889/505/87 895/503/85
f 889/505/87 892/504/86 885/506/88
f 885/506/88 881/507/188 889/505/87
f 881/507/188 885/506/88 872/508/90
f 872/508/90 869/509/91 881/507/188
f 869/509/91 872/508/90 865/510/92
f 865/510/92 863/511/93 869/509/91
f 863/511/93 865/510/92 824/512/180
f 824/512/180 819/513/181 863/511/93
f 819/513/181 824/512/180 779/514/95
f 779/514/95 777/515/96 819/513/181
f 777/515/96 779/514/95 733/516/182
f 733/516/182 730/517/98 777/515/96
f 730/517/98 733/516/182 655/518/189
f 655/518/189 651/519/99 730/517/98
f 651/519/99 655/518/189 591/520/100
f 591/520/100 589/521/101 651/519/99
f 589/521/101 591/520/100 553/522/102
f 553/522/102 551/523/103 589/521/101
f 551/523/103 553/522/102 502/524/190
f 502/524/190 497/525/104 551/523/103
f 497/525/104 502/524/190 401/526/105
f 401/526/105 399/527/106 497/525/104
f 399/527/106 401/526/105 364/528/107
f 364/528/107 361/529/108 399/527/106
f 361/529/108 364/528/107 304/530/141
f 304/530/141 299/531/191 361/529/108
f 299/531/191 304/530/141 228/532/110
f 228/532/110 225/533/111 299/531/191
f 225/533/111 228/532/110 176/534/112
f 176/534/112 174/535/113 225/533/111
f 174/535/113 176/534/112 136/536/192
f 136/536/192 132/537/193 174/535/113
f 132/537/193 136/536/192 89/534/115
f 89/534/115 87/535/116 132/537/193
f 87/535/116 89/534/115 83/532/117
f 83/532/117 81/533/118 87/535/116
f 81/533/118 83/532/117 73/530/194
f 73/530/194 69/531/120 81/533/118
f 69/531/120 73/530/194 64/528/121
f 64/528/121 61/529/122 69/531/120
f 61/529/122 64/528/121 57/526/123
f 57/526/123 55/527/124 61/529/122
f 55/527/124 57/526/123 53/538/195
f 53/538/195 50/539/42 55/527/124
f 50/539/42 53/538/195 60/522/41
f 60/522/41 56/523/43 50/539/42
f 56/523/43 60/522/41 65/520/44
f 65/520/44 62/521/45 56/523/43
f 62/521/45 65/520/44 75/518/151
f 75/518/151 71/519/196 62/521/45
f 71/519/196 75/518/151 85/516/47
f 85/516/47 82/517/48 71/519/196
f 82/517/48 85/516/47 91/514/49
f 91/514/49 88/515/50 82/517/48
f 88/515/50 91/514/49 139/512/197
f 139/512/197 134/513/173 88/515/50
f 134/513/173 139/512/197 178/510/52
f 178/510/52 175/511/53 134/513/173
f 175/511/53 178/510/52 229/508/54
f 229/508/54 226/509/55 175/511/53
f 226/509/55 229/508/54 306/506/198
f 306/506/198 301/507/57 226/509/55
f 301/507/57 306/506/198 366/504/58
f 366/504/58 362/505/59 301/507/57
f 362/505/59 366/504/58 403/502/60
f 403/502/60 400/503/61 362/505/59
f 400/503/61 403/502/60 508/501/62
f 508/501/62 499/500/63 400/503/61
f 499/500/63 508/501/62 555/540/64
f 555/540/64 552/541/65 499/500/63
f 552/541/65 555/540/64 594/542/66
f 594/542/66 590/543/67 552/541/65
f 590/543/67 594/542/66 658/544/163
f 658/544/163 653/545/199 590/543/67
f 653/545/199 658/544/163 734/546/69
f 734/546/69 731/547/70 653/545/199
f 731/547/70 734/546/69 782/548/71
f 782/548/71 778/549/72 731/547/70
f 778/549/72 782/548/71 825/550/200
f 825/550/200 821/551/177 778/549/72
f 821/551/177 825/550/200 867/548/74
f 867/548/74 864/549/75 821/551/177
f 864/549/75 867/548/74 873/546/178
f 873/546/178 870/547/77 864/549/75
f 870/547/77 873/546/178 887/544/201
f 887/544/201 883/545/78 870/547/77
f 883/545/78 887/544/201 894/542/79
f 894/542/79 890/543/80 883/545/78
f 890/543/80 894/542/79 899/540/81
f 899/540/81 896/541/82 890/543/80
f 896/541/82 899/540/81 904/501/187
f 904/501/187 902/500/83 896/541/82
f 495/552/202 707/553/203 498/525/204
f 707/553/203 652/554/205 498/525/204
f 493/555/206 754/556/207 495/552/202
f 754/556/207 707/553/203 495/552/202
f 490/557/208 774/558/209 493/555/206
f 774/558/209 754/556/207 493/555/206
f 488/559/210 785/560/211 490/557/208
f 785/560/211 774/558/209 490/557/208
f 707/553/203 877/561/212 652/554/205
f 877/561/212 820/562/213 652/554/205
f 754/556/207 908/563/214 707/553/203
f 908/563/214 877/561/212 707/553/203
f 774/558/209 913/564/215 754/556/207
f 913/564/215 908/563/214 754/556/207
f 785/560/211 921/565/216 774/558/209
f 921/565/216 913/564/215 774/558/209
f 877/561/212 917/566/217 820/562/213
f 917/566/217 882/567/218 820/562/213
f 908/563/214 927/568/219 877/561/212
f 927/568/219 917/566/217 877/561/212
f 913/564/215 934/569/220 908/563/214
f 934/569/220 927/568/219 908/563/214
f 921/565/216 938/570/221 913/564/215
f 938/570/221 934/569/220 913/564/215
f 917/566/217 924/571/222 882/567/218
f 924/571/222 903/572/223 882/567/218
f 927/568/219 930/573/224 917/566/217
f 930/573/224 924/571/222 917/566/217
f 934/569/220 943/574/225 927/568/219
f 943/574/225 930/573/224 927/568/219
f 938/570/221 945/575/226 934/569/220
f 945/575/226 942/574/227 934/569/220
f 924/571/222 918/576/228 903/572/223
f 918/576/228 884/577/229 903/572/223
f 930/573/224 928/578/230 924/571/222
f 928/578/230 918/576/228 924/571/222
f 942/574/227 935/579/231 930/573/224
f 935/579/231 928/578/230 930/573/224
f 945/575/226 939/580/232 942/574/227
f 939/580/232 935/579/231 942/574/227
f 918/576/228 878/581/233 884/577/229
f 878/581/233 822/582/234 884/577/229
f 928/578/230 909/583/235 918/576/228
f 909/583/235 878/581/233 918/576/228
f 935/579/231 914/584/236 928/578/230
f 914/584/236 909/583/235 928/578/230
f 939/580/232 922/585/237 935/579/231
f 922/585/237 914/584/236 935/579/231
f 878/581/233 708/576/238 822/582/234
f 708/576/238 654/577/239 822/582/234
f 909/583/235 755/578/240 878/581/233
f 755/578/240 708/576/238 878/581/233
f 914/584/236 776/579/241 909/583/235
f 776/579/241 755/578/240 909/583/235
f 922/585/237 786/586/242 914/584/236
f 786/586/242 775/579/243 914/584/236
f 708/576/238 496/571/244 654/577/239
f 496/571/244 500/572/245 654/577/239
f 755/578/240 494/573/246 708/576/238
f 494/573/246 496/571/244 708/576/238
f 775/579/247 492/574/248 755/578/240
f 492/574/248 494/573/246 755/578/240
f 786/586/242 489/575/249 775/579/243
f 489/575/249 491/574/250 775/579/243
f 469/587/251 706/588/252 467/589/253
f 706/588/252 650/590/254 467/589/253
f 471/591/255 753/592/256 469/587/251
f 753/592/256 706/588/252 469/587/251
f 474/593/257 772/594/258 471/591/255
f 772/594/258 753/592/256 471/591/255
f 487/595/259 784/596/260 473/593/261
f 784/596/260 773/594/262 473/593/261
f 706/588/252 876/597/263 650/590/254
f 876/597/263 818/598/264 650/590/254
f 753/592/256 907/599/265 706/588/252
f 907/599/265 876/597/263 706/588/252
f 773/594/262 912/600/266 753/592/256
f 912/600/266 907/599/265 753/592/256
f 784/596/260 920/601/267 773/594/262
f 920/601/267 912/600/266 773/594/262
f 876/597/263 916/588/268 818/598/264
f 916/588/268 880/590/269 818/598/264
f 907/599/265 926/592/270 876/597/263
f 926/592/270 916/588/268 876/597/263
f 912/600/266 933/594/271 907/599/265
f 933/594/271 926/592/270 907/599/265
f 920/601/267 937/602/272 912/600/266
f 937/602/272 933/594/271 912/600/266
f 916/588/268 923/587/273 880/590/269
f 923/587/273 901/589/274 880/590/269
f 926/592/270 929/591/275 916/588/268
f 929/591/275 923/587/273 916/588/268
f 933/594/271 941/593/276 926/592/270
f 941/593/276 929/591/275 926/592/270
f 937/602/272 944/595/277 933/594/271
f 944/595/277 940/593/278 933/594/271
f 923/587/273 915/603/279 901/589/274
f 915/603/279 879/604/280 901/589/274
f 929/591/275 925/605/281 923/587/273
f 925/605/281 915/603/279 923/587/273
f 940/593/278 932/606/282 929/591/275
f 932/606/282 925/605/281 929/591/275
f 944/595/277 936/607/283 940/593/278
f 936/607/283 931/606/284 940/593/278
f 915/603/279 875/608/285 879/604/280
f 875/608/285 817/609/286 879/604/280
f 925/605/281 906/610/287 915/603/279
f 906/610/287 875/608/285 915/603/279
f 931/606/284 910/611/288 925/605/281
f 910/611/288 906/610/287 925/605/281
f 936/607/283 919/612/289 931/606/284
f 919/612/289 911/611/290 931/606/284
f 875/608/285 705/613/291 817/609/286
f 705/613/291 649/614/292 817/609/286
f 906/610/287 752/615/293 875/608/285
f 752/615/293 705/613/291 875/608/285
f 911/611/294 771/616/295 906/610/287
f 771/616/295 752/615/293 906/610/287
f 919/612/289 783/617/296 911/611/290
f 783/617/296 770/616/297 911/611/290
f 705/613/291 468/618/298 649/614/292
f 468/618/298 455/619/299 649/614/292
f 752/615/293 470/620/300 705/613/291
f 470/620/300 468/618/298 705/613/291
f 770/616/297 472/621/301 752/615/293
f 472/621/301 470/620/300 752/615/293
f 783/617/296 475/559/302 770/616/297
f 475/559/302 472/621/301 770/616/297
f 784/596/260 487/595/259 786/586/242
f 487/595/259 489/575/249 786/586/242
f 920/601/267 784/596/260 922/585/237
f 784/596/260 786/586/242 922/585/237
f 937/602/272 920/601/267 939/580/232
f 920/601/267 922/585/237 939/580/232
f 944/595/277 937/602/272 945/575/226
f 937/602/272 939/580/232 945/575/226
f 936/607/283 944/595/277 938/570/221
f 944/595/277 945/575/226 938/570/221
f 919/612/289 936/607/283 921/565/216
f 936/607/283 938/570/221 921/565/216
f 783/617/296 919/612/289 785/560/211
f 919/612/289 921/565/216 785/560/211
f 475/559/302 783/617/296 488/559/210
f 783/617/296 785/560/211 488/559/210
f 489/575/249 487/595/259 173/622/303
f 487/595/259 171/623/304 173/622/303
f 173/622/303 171/623/304 33/565/305
f 171/623/304 31/612/306 33/565/305
f 33/565/305 31/612/306 12/624/307
f 31/612/306 10/625/308 12/624/307
f 12/624/307 10/625/308 3/626/309
f 10/625/308 1/559/310 3/626/309
f 4/559/311 2/627/312 11/628/313
f 2/627/312 9/629/314 11/628/313
f 11/628/313 9/629/314 32/630/315
f 9/629/314 30/631/316 32/630/315
f 32/630/315 30/631/316 172/632/317
f 30/631/316 170/633/318 172/632/317
f 172/632/317 170/633/318 488/559/210
f 170/633/318 475/559/302 488/559/210
f 496/571/244 250/566/319 500/572/245
f 250/566/319 302/567/320 500/572/245
f 494/573/246 203/568/321 496/571/244
f 203/568/321 250/566/319 496/571/244
f 491/574/250 185/569/322 494/573/246
f 185/569/322 203/568/321 494/573/246
f 489/575/249 173/622/303 491/574/250
f 173/622/303 185/569/322 491/574/250
f 250/566/319 80/561/323 302/567/320
f 80/561/323 135/562/324 302/567/320
f 203/568/321 47/563/325 250/566/319
f 47/563/325 80/561/323 250/566/319
f 185/569/322 43/564/326 203/568/321
f 43/564/326 47/563/325 203/568/321
f 173/622/303 33/565/305 185/569/322
f 33/565/305 43/564/326 185/569/322
f 80/561/323 37/553/327 135/562/324
f 37/553/327 72/554/328 135/562/324
f 47/563/325 25/556/329 80/561/323
f 25/556/329 37/553/327 80/561/323
f 43/564/326 17/558/330 47/563/325
f 17/558/330 25/556/329 47/563/325
f 33/565/305 12/624/307 43/564/326
f 12/624/307 17/558/330 43/564/326
f 37/553/327 28/552/331 72/554/328
f 28/552/331 51/525/332 72/554/328
f 25/556/329 20/555/333 37/553/327
f 20/555/333 28/552/331 37/553/327
f 17/558/330 7/557/334 25/556/329
f 7/557/334 20/555/333 25/556/329
f 12/624/307 3/626/309 17/558/330
f 3/626/309 7/557/334 17/558/330
f 29/552/335 36/634/336 52/525/337
f 36/634/336 70/635/338 52/525/337
f 21/555/339 24/636/340 29/552/335
f 24/636/340 36/634/336 29/552/335
f 8/557/341 16/637/342 21/555/339
f 16/637/342 24/636/340 21/555/339
f 4/559/311 11/628/313 8/557/341
f 11/628/313 16/637/342 8/557/341
f 36/634/336 79/638/343 70/635/338
f 79/638/343 133/639/344 70/635/338
f 24/636/340 46/640/345 36/634/336
f 46/640/345 79/638/343 36/634/336
f 16/637/342 42/641/346 24/636/340
f 42/641/346 46/640/345 24/636/340
f 11/628/313 32/630/315 16/637/342
f 32/630/315 41/641/347 16/637/342
f 79/638/343 249/634/348 133/639/344
f 249/634/348 300/635/349 133/639/344
f 46/640/345 202/636/350 79/638/343
f 202/636/350 249/634/348 79/638/343
f 41/641/351 184/637/352 46/640/345
f 184/637/352 202/636/350 46/640/345
f 32/630/315 172/632/317 41/641/347
f 172/632/317 183/637/353 41/641/347
f 249/634/348 495/552/202 300/635/349
f 495/552/202 498/525/204 300/635/349
f 202/636/350 493/555/206 249/634/348
f 493/555/206 495/552/202 249/634/348
f 183/637/353 490/557/208 202/636/350
f 490/557/208 493/555/206 202/636/350
f 172/632/317 488/559/210 183/637/353
f 488/559/210 490/557/208 183/637/353
f 468/618/298 247/642/354 455/619/299
f 247/642/354 297/643/355 455/619/299
f 470/620/300 200/644/356 468/618/298
f 200/644/356 247/642/354 468/618/298
f 472/621/301 180/645/357 470/620/300
f 180/645/357 200/644/356 470/620/300
f 475/559/302 170/633/318 472/621/301
f 170/633/318 181/646/358 472/621/301
f 247/642/354 77/647/359 297/643/355
f 77/647/359 130/648/360 297/643/355
f 200/644/356 44/649/361 247/642/354
f 44/649/361 77/647/359 247/642/354
f 181/646/358 38/650/362 200/644/356
f 38/650/362 44/649/361 200/644/356
f 170/633/318 30/631/316 181/646/358
f 30/631/316 38/650/362 181/646/358
f 77/647/359 34/642/363 130/648/360
f 34/642/363 67/643/364 130/648/360
f 44/649/361 22/644/365 77/647/359
f 22/644/365 34/642/363 77/647/359
f 38/650/362 13/645/366 44/649/361
f 13/645/366 22/644/365 44/649/361
f 30/631/316 9/629/314 38/650/362
f 9/629/314 14/645/367 38/650/362
f 34/642/363 27/618/368 67/643/364
f 27/618/368 49/619/369 67/643/364
f 22/644/365 19/620/370 34/642/363
f 19/620/370 27/618/368 34/642/363
f 14/645/367 6/621/371 22/644/365
f 6/621/371 19/620/370 22/644/365
f 9/629/314 2/627/312 14/645/367
f 2/627/312 6/621/371 14/645/367
f 26/618/372 35/613/373 48/619/374
f 35/613/373 68/614/375 48/619/374
f 18/620/376 23/615/377 26/618/372
f 23/615/377 35/613/373 26/618/372
f 5/621/378 15/616/379 18/620/376
f 15/616/379 23/615/377 18/620/376
f 1/559/310 10/625/308 5/621/378
f 10/625/308 15/616/379 5/621/378
f 35/613/373 78/608/380 68/614/375
f 78/608/380 131/609/381 68/614/375
f 23/615/377 45/610/382 35/613/373
f 45/610/382 78/608/380 35/613/373
f 15/616/379 39/611/383 23/615/377
f 39/611/383 45/610/382 23/615/377
f 10/625/308 31/612/306 15/616/379
f 31/612/306 40/611/384 15/616/379
f 78/608/380 248/603/385 131/609/381
f 248/603/385 298/604/386 131/609/381
f 45/610/382 201/605/387 78/608/380
f 201/605/387 248/603/385 78/608/380
f 40/611/384 182/606/388 45/610/382
f 182/606/388 201/605/387 45/610/382
f 31/612/306 171/623/304 40/611/384
f 171/623/304 182/606/388 40/611/384
f 248/603/385 469/587/251 298/604/386
f 469/587/251 467/589/253 298/604/386
f 201/605/387 471/591/255 248/603/385
f 471/591/255 469/587/251 248/603/385
f 182/606/388 473/593/261 201/605/387
f 473/593/261 471/591/255 201/605/387
f 171/623/304 487/595/259 182/606/388
f 487/595/259 473/593/261 182/606/388
f 49/619/369 97/139/1 67/643/364
f 97/139/1 145/651/1 67/643/364
f 67/643/364 145/651/1 130/648/360
f 145/651/1 209/652/1 130/648/360
f 130/648/360 209/652/1 297/643/355
f 209/652/1 350/653/1 297/643/355
f 297/643/355 350/653/1 455/619/299
f 350/653/1 457/654/1 455/619/299
f 455/619/299 457/654/1 649/614/292
f 457/654/1 600/655/1 649/614/292
f 649/614/292 600/655/1 817/609/286
f 600/655/1 741/656/1 817/609/286
f 817/609/286 741/656/1 879/604/280
f 741/656/1 806/657/1 879/604/280
f 879/604/280 806/657/1 901/589/274
f 806/657/1 858/658/1 901/589/274
f 901/589/274 858/658/1 880/590/269
f 858/658/1 808/659/1 880/590/269
f 880/590/269 808/659/1 818/598/264
f 808/659/1 743/660/1 818/598/264
f 818/598/264 743/660/1 650/590/254
f 743/660/1 602/661/1 650/590/254
f 650/590/254 602/661/1 467/589/253
f 602/661/1 466/662/1 467/589/253
f 467/589/253 466/662/1 298/604/386
f 466/662/1 352/663/1 298/604/386
f 298/604/386 352/663/1 131/609/381
f 352/663/1 211/664/1 131/609/381
f 131/609/381 211/664/1 68/614/375
f 211/664/1 147/665/1 68/614/375
f 68/614/375 147/665/1 48/619/374
f 147/665/1 96/139/1 48/619/374
