# Blender 4.5.2 LTS
# www.blender.org
mtllib hip_dark_purple.mtl
o hip_dark_purple
v 9.999997 5.999998 -18.000002
v 9.999997 5.999998 -18.000002
v 9.999997 5.999998 -18.000002
v -10.000000 5.999998 -18.000002
v -10.000000 5.999998 -18.000002
v -10.000000 5.999998 -18.000002
v -0.000002 2.999998 -18.000002
v -0.000002 2.999998 -18.000002
v 1.174998 2.923998 -18.000002
v -1.175002 2.923998 -18.000002
v 2.328998 2.692999 -18.000002
v -2.329002 2.692999 -18.000002
v 3.443998 2.314999 -18.000002
v 3.443998 2.314999 -18.000002
v -3.444002 2.314999 -18.000002
v -3.444002 2.314999 -18.000002
v 4.499998 1.793999 -18.000002
v -4.500002 1.793999 -18.000002
v 5.478998 1.139997 -18.000002
v -5.479002 1.139997 -18.000002
v 6.363997 0.363999 -18.000002
v 6.363997 0.363999 -18.000002
v 6.363997 0.363999 -18.000002
v -6.364002 0.363999 -18.000002
v -6.364002 0.363999 -18.000002
v -6.364002 0.363999 -18.000002
v 9.999997 -0.000001 -18.000002
v 9.999997 -0.000001 -18.000002
v 9.999997 -0.000001 -18.000002
v 6.606997 -0.000001 -18.000002
v 6.606997 -0.000001 -18.000002
v 6.606997 -0.000001 -18.000002
v -6.607002 -0.000001 -18.000002
v -6.607002 -0.000001 -18.000002
v -6.607002 -0.000001 -18.000002
v -10.000000 -0.000001 -18.000002
v -10.000000 -0.000001 -18.000002
v -10.000000 -0.000001 -18.000002
v 3.459998 9.999998 -16.000002
v 3.459998 9.999998 -16.000002
v 3.459998 9.999998 -16.000002
v -3.460001 9.999998 -16.000002
v -3.460001 9.999998 -16.000002
v -3.460001 9.999998 -16.000002
v 3.459998 5.999998 -16.000002
v 3.459998 5.999998 -16.000002
v -3.460001 5.999998 -16.000002
v -3.460001 5.999998 -16.000002
v 4.479998 16.999998 -14.480002
v 4.479998 16.999998 -14.480002
v 4.479998 16.999998 -14.480002
v -4.480001 16.999998 -14.480002
v -4.480001 16.999998 -14.480002
v -4.480001 16.999998 -14.480002
v 4.479998 5.999998 -14.480001
v -4.480001 5.999998 -14.480001
v 5.999998 16.999998 -13.460003
v 5.999998 16.999998 -13.460003
v 5.999998 16.999998 -13.460003
v -6.000001 16.999998 -13.460003
v -6.000001 16.999998 -13.460003
v -6.000001 16.999998 -13.460003
v 5.999998 5.999998 -13.460002
v 5.999998 5.999998 -13.460002
v -6.000001 5.999998 -13.460002
v -6.000001 5.999998 -13.460002
v 2.799998 16.999998 -12.800003
v 2.799998 16.999998 -12.800003
v 2.799998 16.999998 -12.800003
v -2.800001 16.999998 -12.800003
v -2.800001 16.999998 -12.800003
v -2.800001 16.999998 -12.800003
v 2.799998 5.999998 -12.800002
v 2.799998 5.999998 -12.800002
v -2.800001 5.999998 -12.800002
v -2.800001 5.999998 -12.800002
v 3.140998 17.000000 -12.411003
v -3.141001 17.000000 -12.411003
v 3.140998 6.000000 -12.411002
v -3.141001 6.000000 -12.411002
v 3.428998 17.000000 -11.980002
v -3.429001 17.000000 -11.980002
v 3.428998 6.000000 -11.980001
v -3.429001 6.000000 -11.980001
v 3.679998 17.000000 -11.520003
v -3.680001 17.000000 -11.520003
v 3.657998 17.000000 -11.515003
v -3.658001 17.000000 -11.515003
v 3.657998 6.000000 -11.515002
v -3.658001 6.000000 -11.515002
v 3.824998 17.000000 -11.025002
v -3.825001 17.000000 -11.025002
v 3.824998 6.000000 -11.025002
v -3.825001 6.000000 -11.025002
v 3.925998 17.000000 -10.517003
v -3.926001 17.000000 -10.517003
v 3.925998 6.000000 -10.517002
v -3.926001 6.000000 -10.517002
v 5.999999 17.000000 -10.000000
v 3.999999 17.000000 -10.000000
v 3.959998 17.000000 -10.000000
v -3.960001 17.000000 -9.999999
v -4.000001 17.000000 -9.999999
v -6.000001 17.000000 -9.999999
v 3.959998 6.000000 -10.000000
v -3.960001 6.000000 -9.999999
v -0.000001 -3.000001 -9.919999
v -0.000001 -3.000001 -9.919999
v -0.000001 -3.000001 -9.919999
v 0.391999 -3.026001 -9.919999
v 0.391999 -3.026001 -9.919999
v -0.392001 -3.026001 -9.919999
v -0.392001 -3.026001 -9.919999
v 0.775999 -3.102001 -9.919999
v 0.775999 -3.102001 -9.919999
v -0.776001 -3.102001 -9.919999
v -0.776001 -3.102001 -9.919999
v 1.147999 -3.228001 -9.919999
v 1.147999 -3.228001 -9.919999
v -1.148001 -3.228001 -9.919999
v -1.148001 -3.228001 -9.919999
v 1.499999 -3.402001 -9.920000
v 1.499999 -3.402001 -9.920000
v -1.500001 -3.402001 -9.919999
v -1.500001 -3.402001 -9.919999
v 1.825999 -3.620001 -9.920000
v 1.825999 -3.620001 -9.920000
v -1.826001 -3.620001 -9.919999
v -1.826001 -3.620001 -9.919999
v 2.120999 -3.879001 -9.920000
v 2.120999 -3.879001 -9.920000
v -2.121001 -3.879001 -9.919999
v -2.121001 -3.879001 -9.919999
v 2.379998 -4.173001 -9.920000
v 2.379998 -4.173001 -9.920000
v -2.380001 -4.173001 -9.919999
v -2.380001 -4.173001 -9.919999
v 2.597999 -4.500001 -9.920000
v 2.597999 -4.500001 -9.920000
v -2.598001 -4.500001 -9.919999
v -2.598001 -4.500001 -9.919999
v 2.771998 -4.852001 -9.920000
v 2.771998 -4.852001 -9.920000
v -2.772001 -4.852001 -9.919999
v -2.772001 -4.852001 -9.919999
v 2.897999 -5.223001 -9.920000
v 2.897999 -5.223001 -9.920000
v -2.898001 -5.223001 -9.919999
v -2.898001 -5.223001 -9.919999
v 2.973999 -5.608000 -9.920000
v 2.973999 -5.608000 -9.920000
v -2.974001 -5.608000 -9.919999
v -2.974001 -5.608000 -9.919999
v 2.999999 -6.000000 -9.920000
v 2.999999 -6.000000 -9.920000
v 2.999999 -6.000000 -9.920000
v -0.000001 -6.000000 -9.920000
v -3.000001 -6.000000 -9.919999
v -3.000001 -6.000000 -9.919999
v -3.000001 -6.000000 -9.919999
v 2.973999 -6.391000 -9.920000
v 2.973999 -6.391000 -9.920000
v -2.974001 -6.391000 -9.919999
v -2.974001 -6.391000 -9.919999
v 2.897999 -6.776000 -9.920000
v 2.897999 -6.776000 -9.920000
v -2.898001 -6.776000 -9.919999
v -2.898001 -6.776000 -9.919999
v 2.771998 -7.148000 -9.920000
v 2.771998 -7.148000 -9.920000
v -2.772001 -7.148000 -9.919999
v -2.772001 -7.148000 -9.919999
v 2.597999 -7.500000 -9.920000
v 2.597999 -7.500000 -9.920000
v -2.598001 -7.500000 -9.919999
v -2.598001 -7.500000 -9.919999
v 2.379998 -7.826000 -9.920000
v 2.379998 -7.826000 -9.920000
v -2.380001 -7.826000 -9.919999
v -2.380001 -7.826000 -9.919999
v 2.120999 -8.121000 -9.920000
v 2.120999 -8.121000 -9.920000
v -2.121001 -8.121000 -9.919999
v -2.121001 -8.121000 -9.919999
v 1.825999 -8.380000 -9.920000
v 1.825999 -8.380000 -9.920000
v -1.826001 -8.380000 -9.920000
v -1.826001 -8.380000 -9.920000
v 1.499999 -8.598000 -9.920000
v 1.499999 -8.598000 -9.920000
v -1.500001 -8.598000 -9.920000
v -1.500001 -8.598000 -9.920000
v 1.147999 -8.771999 -9.919999
v 1.147999 -8.771999 -9.919999
v -1.148001 -8.771999 -9.919999
v -1.148001 -8.771999 -9.919999
v 0.775999 -8.898000 -9.919999
v 0.775999 -8.898000 -9.919999
v -0.776001 -8.898000 -9.919999
v -0.776001 -8.898000 -9.919999
v 0.391999 -8.974000 -9.919999
v 0.391999 -8.974000 -9.919999
v -0.392001 -8.974000 -9.919999
v -0.392001 -8.974000 -9.919999
v -0.000001 -9.000000 -9.919999
v -0.000001 -9.000000 -9.919999
v 3.925998 17.000000 -9.483000
v -3.926001 17.000000 -9.482999
v 3.925998 6.000000 -9.483000
v -3.926001 6.000000 -9.482999
v 3.824999 17.000000 -8.974999
v -3.825001 17.000000 -8.974998
v 3.824999 6.000000 -8.975000
v -3.825001 6.000000 -8.974998
v 3.657999 17.000000 -8.485000
v -3.658001 17.000000 -8.484999
v 3.657999 6.000000 -8.485000
v -3.658001 6.000000 -8.484999
v 3.679999 17.000000 -8.480000
v -3.680001 17.000000 -8.479999
v 3.428999 17.000000 -8.020000
v -3.429001 17.000000 -8.019999
v 3.428999 6.000000 -8.020000
v -3.429001 6.000000 -8.019999
v 3.140999 17.000000 -7.588999
v -3.141001 17.000000 -7.588998
v 3.140999 6.000000 -7.588999
v -3.141001 6.000000 -7.588998
v 2.799999 17.000000 -7.199999
v 2.799999 17.000000 -7.199999
v -2.800001 17.000000 -7.199998
v -2.800001 17.000000 -7.199998
v 2.799999 6.000000 -7.199999
v -2.800001 6.000000 -7.199998
v 2.410999 17.000000 -6.858999
v -2.411001 17.000000 -6.858998
v 2.410999 6.000000 -6.858999
v -2.411001 6.000000 -6.858998
v 1.979999 17.000000 -6.571000
v -1.980001 17.000000 -6.570998
v 1.979999 6.000000 -6.571000
v -1.980001 6.000000 -6.570999
v 5.999999 17.000000 -6.540000
v 5.999999 17.000000 -6.540000
v 5.999999 17.000000 -6.540000
v -6.000000 17.000000 -6.539999
v -6.000000 17.000000 -6.539999
v -6.000000 17.000000 -6.539999
v 5.999999 6.000000 -6.540000
v 5.999999 6.000000 -6.540000
v -6.000000 6.000000 -6.539999
v -6.000000 6.000000 -6.539999
v 1.514999 17.000000 -6.342000
v -1.515001 17.000000 -6.342000
v 1.514999 6.000000 -6.342000
v -1.515001 6.000000 -6.342000
v 1.519999 17.000000 -6.319999
v -1.520001 17.000000 -6.319998
v 1.024999 17.000000 -6.174999
v -1.025001 17.000000 -6.174998
v 1.024999 6.000000 -6.174999
v -1.025001 6.000000 -6.174998
v 0.516999 17.000000 -6.073999
v -0.517001 17.000000 -6.073999
v 0.516999 6.000000 -6.073999
v -0.517001 6.000000 -6.073998
v -0.000001 17.000000 -6.039999
v -0.000001 6.000000 -6.039999
v -0.000001 17.000000 -6.000000
v 4.479999 17.000000 -5.520000
v 4.479999 17.000000 -5.520000
v -4.480000 17.000000 -5.519999
v -4.480000 17.000000 -5.519999
v 4.479999 6.000000 -5.520000
v -4.480000 6.000000 -5.519999
v 3.459999 17.000000 -3.999999
v 3.459999 17.000000 -3.999999
v 3.459999 17.000000 -3.999999
v -0.000000 17.000000 -3.999999
v -3.460000 17.000000 -3.999999
v -3.460000 17.000000 -3.999999
v -3.460000 17.000000 -3.999999
v 3.459999 6.000000 -4.000000
v 3.459999 6.000000 -4.000000
v -3.460000 6.000000 -4.000000
v -3.460000 6.000000 -4.000000
v -0.000000 3.000000 -1.999999
v 1.175000 2.923000 -1.999999
v -1.175000 2.923000 -1.999999
v 2.329000 2.693001 -2.000000
v -2.329000 2.693001 -1.999999
v 3.444000 2.315001 -2.000000
v -3.444000 2.315001 -1.999999
v 4.500000 1.794001 -2.000000
v -4.500000 1.794001 -1.999999
v 5.479000 1.141001 -2.000000
v -5.479000 1.141001 -1.999999
v 6.363999 0.364000 -2.000000
v 6.363999 0.364000 -2.000000
v -6.364000 0.364000 -1.999999
v -6.364000 0.364000 -1.999999
v 7.140999 -0.521000 -2.000001
v 7.139999 -0.521000 -2.000001
v -7.141000 -0.521000 -1.999999
v -7.140000 -0.521000 -1.999999
v 7.793999 -1.500000 -2.000001
v 7.794999 -1.500000 -2.000001
v -7.794000 -1.500000 -1.999999
v -7.794000 -1.500000 -1.999999
v 8.314999 -2.556000 -2.000001
v 8.314999 -2.556000 -2.000001
v -8.315000 -2.556000 -1.999999
v -8.315000 -2.556000 -1.999999
v 8.693999 -3.670000 -2.000001
v 8.692999 -3.671000 -2.000001
v -8.693000 -3.671000 -1.999999
v -8.693000 -3.671000 -1.999999
v 8.922998 -4.825000 -2.000001
v 8.922998 -4.825000 -2.000001
v -8.922999 -4.825000 -1.999999
v -8.924000 -4.825000 -1.999999
v 8.999999 -6.000000 -2.000001
v 8.999999 -6.000000 -2.000001
v -0.000000 -6.000000 -2.000000
v -9.000000 -6.000000 -1.999999
v -9.000000 -6.000000 -1.999999
v 8.922998 -7.174000 -2.000000
v 8.922998 -7.175000 -2.000000
v -8.922999 -7.174000 -1.999999
v -8.924000 -7.175000 -1.999999
v 8.692999 -8.329000 -2.000000
v 8.692999 -8.329000 -2.000000
v -8.693000 -8.329000 -1.999998
v -8.693000 -8.329000 -1.999998
v 8.314999 -9.444000 -2.000000
v 8.314999 -9.444000 -2.000000
v -8.315000 -9.444000 -1.999998
v -8.315000 -9.444000 -1.999998
v 7.793999 -10.500000 -2.000000
v 7.793999 -10.499001 -2.000000
v -7.794000 -10.500000 -1.999999
v -7.794000 -10.500000 -1.999999
v 7.140999 -11.479000 -2.000000
v 7.139999 -11.478001 -2.000000
v -7.141000 -11.479000 -1.999999
v -7.140000 -11.479000 -1.999999
v 6.363999 -12.364000 -2.000000
v 6.363999 -12.364000 -2.000000
v -6.364000 -12.364000 -1.999999
v -6.364000 -12.364000 -1.999999
v 5.479000 -13.140000 -2.000000
v 5.479000 -13.140000 -2.000000
v -5.479000 -13.140000 -1.999999
v -5.479000 -13.140000 -1.999999
v 4.500000 -13.794001 -2.000000
v 4.500000 -13.794001 -2.000000
v -4.500000 -13.794001 -1.999999
v -4.500000 -13.794001 -1.999999
v 3.444000 -14.315000 -2.000000
v 3.444000 -14.315000 -2.000000
v -3.444000 -14.315000 -1.999999
v -3.444000 -14.315000 -1.999999
v 2.329000 -14.693000 -2.000000
v 2.329999 -14.694000 -2.000000
v -2.329000 -14.693000 -2.000000
v -2.329000 -14.693000 -2.000000
v 1.175000 -14.922000 -2.000000
v -1.175000 -14.922000 -2.000000
v 1.175000 -14.923000 -2.000000
v -1.175000 -14.923000 -2.000000
v -0.000000 -15.000000 -2.000000
v -0.000000 -15.000000 -2.000000
v -0.000000 -15.000000 -2.000000
v 0.000000 3.000000 2.000000
v 1.175000 2.923000 2.000000
v -1.175000 2.923000 2.000000
v 2.329000 2.693001 2.000000
v -2.329000 2.693001 2.000000
v 3.444000 2.315001 2.000000
v -3.444000 2.315001 2.000001
v 4.500000 1.794001 2.000000
v -4.500000 1.794001 2.000001
v 5.479000 1.141001 2.000000
v -5.479000 1.141001 2.000001
v 6.364000 0.364000 1.999999
v 6.364000 0.364000 1.999999
v -6.363999 0.364000 2.000001
v -6.363999 0.364000 2.000001
v 7.141000 -0.521000 1.999999
v 7.140000 -0.521000 1.999999
v -7.140999 -0.521000 2.000001
v -7.139999 -0.521000 2.000001
v 7.794000 -1.500000 1.999999
v 7.795000 -1.500000 1.999999
v -7.793999 -1.500000 2.000001
v -7.793999 -1.500000 2.000001
v 8.315000 -2.556000 1.999999
v 8.315000 -2.556000 1.999999
v -8.314999 -2.556000 2.000001
v -8.314999 -2.556000 2.000001
v 8.694000 -3.670000 1.999999
v 8.693000 -3.671000 1.999999
v -8.692999 -3.671000 2.000001
v -8.692999 -3.671000 2.000001
v 8.922999 -4.825000 1.999999
v 8.922999 -4.825000 1.999999
v -8.922998 -4.825000 2.000001
v -8.923999 -4.825000 2.000001
v 9.000000 -6.000000 1.999999
v 9.000000 -6.000000 1.999999
v 0.000000 -6.000000 2.000000
v -8.999999 -6.000000 2.000001
v -8.999999 -6.000000 2.000001
v 8.922999 -7.174000 1.999999
v 8.922999 -7.175000 1.999999
v -8.922998 -7.174000 2.000001
v -8.923999 -7.175000 2.000001
v 8.693000 -8.329000 1.999999
v 8.693000 -8.329000 1.999999
v -8.692999 -8.329000 2.000000
v -8.692999 -8.329000 2.000000
v 8.315000 -9.444000 1.999999
v 8.315000 -9.444000 1.999999
v -8.314999 -9.444000 2.000000
v -8.314999 -9.444000 2.000000
v 7.794000 -10.500000 1.999999
v 7.794000 -10.499001 1.999999
v -7.793999 -10.500000 2.000001
v -7.793999 -10.500000 2.000001
v 7.141000 -11.479000 1.999999
v 7.140000 -11.478000 1.999999
v -7.140999 -11.479000 2.000001
v -7.139999 -11.479000 2.000001
v 6.364000 -12.364000 1.999999
v 6.364000 -12.364000 1.999999
v -6.363999 -12.364000 2.000001
v -6.363999 -12.364000 2.000001
v 5.479000 -13.139999 1.999999
v 5.479000 -13.139999 1.999999
v -5.479000 -13.139999 2.000001
v -5.479000 -13.139999 2.000001
v 4.500000 -13.794000 1.999999
v 4.500000 -13.794000 1.999999
v -4.500000 -13.794000 2.000000
v -4.500000 -13.794000 2.000000
v 3.444000 -14.315000 2.000000
v 3.444000 -14.315000 2.000000
v -3.444000 -14.315000 2.000000
v -3.444000 -14.315000 2.000000
v 2.329000 -14.693000 2.000000
v 2.330000 -14.694000 2.000000
v -2.329000 -14.693000 2.000000
v -2.329000 -14.693000 2.000000
v 1.175000 -14.922000 2.000000
v -1.175000 -14.922000 2.000000
v 1.175000 -14.923000 2.000000
v -1.175000 -14.923000 2.000000
v 0.000000 -15.000000 2.000000
v 0.000000 -15.000000 2.000000
v 0.000000 -15.000000 2.000000
v 3.460000 17.000000 4.000000
v 3.460000 17.000000 4.000000
v 3.460000 17.000000 4.000000
v 0.000000 17.000000 4.000000
v -3.459999 17.000000 4.000000
v -3.459999 17.000000 4.000000
v -3.459999 17.000000 4.000000
v 3.460000 6.000000 3.999999
v 3.460000 6.000000 3.999999
v -3.459999 6.000000 4.000000
v -3.459999 6.000000 4.000000
v 4.480000 17.000000 5.520000
v 4.480000 17.000000 5.520000
v -4.479999 17.000000 5.520000
v -4.479999 17.000000 5.520000
v 4.480000 6.000000 5.520000
v -4.479999 6.000000 5.520000
v 0.000001 17.000000 6.000000
v 0.000001 17.000000 6.039999
v 0.000001 6.000000 6.039999
v 0.517001 17.000000 6.073999
v -0.516999 17.000000 6.073999
v 0.517001 6.000000 6.073999
v -0.516999 6.000000 6.073999
v 1.025001 17.000000 6.175000
v -1.024999 17.000000 6.175000
v 1.025001 6.000000 6.175000
v -1.024999 6.000000 6.175000
v 1.520001 17.000000 6.320000
v -1.519999 17.000000 6.320000
v 1.515001 17.000000 6.342000
v -1.514999 17.000000 6.342000
v 1.515001 6.000000 6.342000
v -1.514999 6.000000 6.342000
v 6.000000 17.000000 6.539999
v 6.000000 17.000000 6.539999
v 6.000000 17.000000 6.539999
v -5.999999 17.000000 6.540000
v -5.999999 17.000000 6.540000
v -5.999999 17.000000 6.540000
v 6.000000 6.000000 6.539999
v 6.000000 6.000000 6.539999
v -5.999999 6.000000 6.540000
v -5.999999 6.000000 6.540000
v 1.980001 17.000000 6.571000
v -1.979999 17.000000 6.571000
v 1.980001 6.000000 6.571000
v -1.979999 6.000000 6.571001
v 2.411001 17.000000 6.859000
v -2.410999 17.000000 6.859001
v 2.411001 6.000000 6.859000
v -2.410999 6.000000 6.859001
v 2.800001 17.000000 7.200000
v 2.800001 17.000000 7.200000
v -2.799999 17.000000 7.200001
v -2.799999 17.000000 7.200001
v 2.800001 6.000000 7.199999
v -2.799999 6.000000 7.200001
v 3.141001 17.000000 7.589000
v -3.140999 17.000000 7.589001
v 3.141001 6.000000 7.589000
v -3.140999 6.000000 7.589001
v 3.429001 17.000000 8.019999
v -3.428999 17.000000 8.020000
v 3.429001 6.000000 8.019999
v -3.428999 6.000000 8.020000
v 3.680001 17.000000 8.479999
v -3.679999 17.000000 8.480000
v 3.658001 17.000000 8.484999
v -3.657999 17.000000 8.485001
v 3.658001 6.000000 8.484999
v -3.657999 6.000000 8.485000
v 3.825001 17.000000 8.974998
v -3.824999 17.000000 8.974999
v 3.825001 6.000000 8.974998
v -3.824999 6.000000 8.974999
v 3.926001 17.000000 9.482999
v -3.925998 17.000000 9.483000
v 3.926001 6.000000 9.482999
v -3.925998 6.000000 9.483000
v 0.000001 -2.999999 9.919999
v 0.000001 -2.999999 9.919999
v 0.000001 -2.999999 9.919999
v 0.392001 -3.025999 9.919999
v 0.392001 -3.025999 9.919999
v -0.391999 -3.025999 9.920000
v -0.391999 -3.025999 9.920000
v 0.776001 -3.101999 9.919999
v 0.776001 -3.101999 9.919999
v -0.775999 -3.101999 9.920000
v -0.775999 -3.101999 9.920000
v 1.148001 -3.227999 9.919999
v 1.148001 -3.227999 9.919999
v -1.147999 -3.227999 9.920000
v -1.147999 -3.227999 9.920000
v 1.500001 -3.401999 9.919999
v 1.500001 -3.401999 9.919999
v -1.499999 -3.401999 9.920000
v -1.499999 -3.401999 9.920000
v 1.826001 -3.619999 9.919999
v 1.826001 -3.619999 9.919999
v -1.825999 -3.619999 9.920000
v -1.825999 -3.619999 9.920000
v 2.121001 -3.878999 9.919999
v 2.121001 -3.878999 9.919999
v -2.120999 -3.878999 9.920000
v -2.120999 -3.878999 9.920000
v 2.380001 -4.172999 9.919999
v 2.380001 -4.172999 9.919999
v -2.379998 -4.172999 9.920000
v -2.379998 -4.172999 9.920000
v 2.598001 -4.499999 9.919999
v 2.598001 -4.499999 9.919999
v -2.597999 -4.499999 9.920000
v -2.597999 -4.499999 9.920000
v 2.772001 -4.851999 9.919999
v 2.772001 -4.851999 9.919999
v -2.771998 -4.851999 9.920000
v -2.771998 -4.851999 9.920000
v 2.898001 -5.223000 9.919999
v 2.898001 -5.223000 9.919999
v -2.897999 -5.223000 9.920000
v -2.897999 -5.223000 9.920000
v 2.974001 -5.608000 9.919999
v 2.974001 -5.608000 9.919999
v -2.973999 -5.608000 9.920000
v -2.973999 -5.608000 9.920000
v 3.000001 -6.000000 9.919999
v 3.000001 -6.000000 9.919999
v 3.000001 -6.000000 9.919999
v 0.000001 -6.000000 9.919999
v -2.999999 -6.000000 9.920000
v -2.999999 -6.000000 9.920000
v -2.999999 -6.000000 9.920000
v 2.974001 -6.391000 9.919999
v 2.974001 -6.391000 9.919999
v -2.973999 -6.391000 9.920000
v -2.973999 -6.391000 9.920000
v 2.898001 -6.776000 9.919999
v 2.898001 -6.776000 9.919999
v -2.897999 -6.776000 9.919999
v -2.897999 -6.776000 9.919999
v 2.772001 -7.148000 9.919999
v 2.772001 -7.148000 9.919999
v -2.771998 -7.148000 9.919999
v -2.771998 -7.148000 9.919999
v 2.598001 -7.500000 9.919999
v 2.598001 -7.500000 9.919999
v -2.597999 -7.500000 9.919999
v -2.597999 -7.500000 9.919999
v 2.380001 -7.826000 9.919999
v 2.380001 -7.826000 9.919999
v -2.379998 -7.826000 9.919999
v -2.379998 -7.826000 9.919999
v 2.121001 -8.121000 9.919999
v 2.121001 -8.121000 9.919999
v -2.120999 -8.121000 9.919999
v -2.120999 -8.121000 9.919999
v 1.826001 -8.380000 9.919999
v 1.826001 -8.380000 9.919999
v -1.825999 -8.380000 9.919999
v -1.825999 -8.380000 9.919999
v 1.500001 -8.598000 9.919999
v 1.500001 -8.598000 9.919999
v -1.499999 -8.598000 9.919999
v -1.499999 -8.598000 9.919999
v 1.148001 -8.771999 9.920000
v 1.148001 -8.771999 9.920000
v -1.147999 -8.771999 9.920000
v -1.147999 -8.771999 9.920000
v 0.776001 -8.898001 9.920000
v 0.776001 -8.898001 9.920000
v -0.775999 -8.898001 9.920000
v -0.775999 -8.898001 9.920000
v 0.392001 -8.974000 9.920000
v 0.392001 -8.974000 9.920000
v -0.391999 -8.974000 9.920000
v -0.391999 -8.974000 9.920000
v 0.000001 -9.000000 9.920000
v 0.000001 -9.000000 9.920000
v 6.000001 17.000000 9.999997
v 4.000001 17.000000 9.999997
v 3.960001 17.000000 9.999997
v -3.959998 17.000000 9.999997
v -3.999999 17.000000 9.999997
v -5.999999 17.000000 9.999997
v 3.960001 6.000000 9.999998
v -3.959998 6.000000 9.999998
v 3.926001 17.000000 10.516997
v -3.925998 17.000000 10.516997
v 3.926001 6.000000 10.516998
v -3.925998 6.000000 10.516998
v 3.825001 17.000000 11.024997
v -3.824998 17.000000 11.024997
v 3.825001 6.000000 11.024998
v -3.824998 6.000000 11.024998
v 3.658001 17.000000 11.514997
v -3.657998 17.000000 11.514997
v 3.658001 6.000000 11.514998
v -3.657998 6.000000 11.514998
v 3.680001 17.000000 11.519998
v -3.679998 17.000000 11.519998
v 3.429001 17.000000 11.979997
v -3.428998 17.000000 11.979997
v 3.429001 6.000000 11.979998
v -3.428998 6.000000 11.979998
v 3.141001 17.000000 12.410997
v -3.140998 17.000000 12.410997
v 3.141001 6.000000 12.410998
v -3.140998 6.000000 12.410998
v 2.800001 17.000000 12.799997
v 2.800001 17.000000 12.799997
v 2.800001 17.000000 12.799997
v -2.799998 17.000000 12.799997
v -2.799998 17.000000 12.799997
v -2.799998 17.000000 12.799997
v 2.800001 6.000002 12.799998
v 2.800001 6.000002 12.799998
v -2.799998 6.000002 12.799998
v -2.799998 6.000002 12.799998
v 6.000001 17.000000 13.459997
v 6.000001 17.000000 13.459997
v 6.000001 17.000000 13.459997
v -5.999998 17.000000 13.459997
v -5.999998 17.000000 13.459997
v -5.999998 17.000000 13.459997
v 6.000001 6.000002 13.459998
v 6.000001 6.000002 13.459998
v -5.999998 6.000002 13.459998
v -5.999998 6.000002 13.459998
v 4.480001 17.000000 14.479997
v 4.480001 17.000000 14.479997
v 4.480001 17.000000 14.479997
v 4.480001 17.000000 14.479997
v -4.479998 17.000000 14.479997
v -4.479998 17.000000 14.479997
v -4.479998 17.000000 14.479997
v -4.479998 17.000000 14.479997
v 4.480001 6.000002 14.479998
v 4.480001 6.000002 14.479998
v -4.479998 6.000002 14.479998
v -4.479998 6.000002 14.479998
v 3.460001 10.000002 15.999998
v 3.460001 10.000002 15.999998
v 3.460001 10.000002 15.999998
v -3.459998 10.000002 15.999998
v -3.459998 10.000002 15.999998
v -3.459998 10.000002 15.999998
v 3.460001 6.000002 15.999998
v 3.460001 6.000002 15.999998
v -3.459998 6.000002 15.999998
v -3.459998 6.000002 15.999998
v 10.000000 6.000002 17.999998
v 10.000000 6.000002 17.999998
v 10.000000 6.000002 17.999998
v -9.999997 6.000002 17.999998
v -9.999997 6.000002 17.999998
v -9.999997 6.000002 17.999998
v 0.000002 3.000002 17.999998
v 0.000002 3.000002 17.999998
v 1.175002 2.924002 17.999998
v -1.174998 2.924002 17.999998
v 2.329002 2.693003 17.999998
v -2.328998 2.693003 17.999998
v 3.444002 2.315002 17.999998
v 3.444002 2.315002 17.999998
v -3.443998 2.315002 17.999998
v -3.443998 2.315002 17.999998
v 4.500002 1.794003 17.999998
v -4.499998 1.794003 17.999998
v 5.479002 1.140001 17.999998
v -5.478998 1.140001 17.999998
v 6.364002 0.364001 17.999998
v 6.364002 0.364001 17.999998
v 6.364002 0.364001 17.999998
v -6.363997 0.364001 17.999998
v -6.363997 0.364001 17.999998
v -6.363997 0.364001 17.999998
v 10.000000 0.000001 17.999998
v 10.000000 0.000001 17.999998
v 10.000000 0.000001 17.999998
v 6.607002 0.000001 17.999998
v 6.607002 0.000001 17.999998
v 6.607002 0.000001 17.999998
v -6.606997 0.000001 17.999998
v -6.606997 0.000001 17.999998
v -6.606997 0.000001 17.999998
v -9.999997 0.000001 17.999998
v -9.999997 0.000001 17.999998
v -9.999997 0.000001 17.999998
vn -1.0000 -0.0000 -0.0000
vn -0.7519 0.6593 -0.0000
vn -0.7799 0.6259 -0.0000
vn -0.8065 0.5912 -0.0000
vn -0.8549 0.5188 -0.0000
vn -0.8767 0.4810 -0.0000
vn -0.9153 0.4028 -0.0000
vn -0.9321 0.3622 -0.0000
vn -0.9600 0.2800 -0.0000
vn -0.9712 0.2384 -0.0000
vn -0.9883 0.1527 -0.0000
vn -0.9941 0.1087 -0.0000
vn -0.9998 0.0215 -0.0000
vn -0.9998 -0.0215 -0.0000
vn -0.9941 -0.1087 -0.0000
vn -0.9883 -0.1527 -0.0000
vn -0.9712 -0.2384 -0.0000
vn -0.9600 -0.2800 -0.0000
vn -0.9321 -0.3622 -0.0000
vn -0.9153 -0.4028 -0.0000
vn -0.8767 -0.4810 -0.0000
vn -0.8549 -0.5188 -0.0000
vn -0.8065 -0.5912 -0.0000
vn -0.7799 -0.6259 -0.0000
vn -0.7224 -0.6915 -0.0000
vn -0.6915 -0.7224 -0.0000
vn -0.6259 -0.7799 -0.0000
vn -0.5912 -0.8065 -0.0000
vn -0.5188 -0.8549 -0.0000
vn -0.4810 -0.8767 -0.0000
vn -0.4028 -0.9153 -0.0000
vn -0.3622 -0.9321 -0.0000
vn 1.0000 -0.0000 -0.0000
vn -0.5572 -0.0000 0.8304
vn -0.7519 -0.0000 -0.6593
vn -0.5572 -0.0000 -0.8304
vn -0.6593 -0.0000 -0.7519
vn -0.8304 -0.0000 -0.5572
vn 0.6593 -0.0000 -0.7519
vn 0.8304 -0.0000 -0.5572
vn 0.7519 -0.0000 -0.6593
vn 0.5572 -0.0000 -0.8304
vn 0.5572 -0.0000 0.8304
vn 0.8304 -0.0000 0.5572
vn -0.0000 0.2122 0.9772
vn -0.8304 -0.0000 0.5572
vn -0.0000 1.0000 -0.0000
vn -0.7281 -0.0000 -0.6854
vn -0.7519 -0.0000 0.6593
vn -0.6593 -0.0000 0.7519
vn 0.6593 -0.0000 0.7519
vn 0.7519 -0.0000 0.6593
vn 0.7282 -0.0000 -0.6854
vn -0.0000 0.2122 -0.9772
vn -0.0000 -1.0000 -0.0000
vn 0.8317 -0.5552 -0.0000
vn -0.8317 -0.5552 -0.0000
vn -0.0000 -0.0000 1.0000
vn -0.0000 -0.0000 -1.0000
vn 0.7520 -0.0000 -0.6592
vn 0.7800 -0.0000 -0.6258
vn 0.8065 -0.0000 -0.5912
vn 0.8550 -0.0000 -0.5187
vn 0.8769 -0.0000 -0.4806
vn 0.9153 -0.0000 -0.4028
vn 0.9318 -0.0000 -0.3631
vn 0.9598 -0.0000 -0.2806
vn 0.9713 -0.0000 -0.2380
vn 0.9884 -0.0000 -0.1521
vn 0.9940 -0.0000 -0.1090
vn 0.9998 -0.0000 -0.0219
vn 0.9998 -0.0000 0.0219
vn 0.9940 -0.0000 0.1090
vn 0.9884 -0.0000 0.1521
vn 0.9713 -0.0000 0.2380
vn 0.9598 -0.0000 0.2806
vn 0.9318 -0.0000 0.3631
vn 0.9153 -0.0000 0.4028
vn 0.8769 -0.0000 0.4807
vn 0.8550 -0.0000 0.5187
vn 0.8065 -0.0000 0.5912
vn 0.7800 -0.0000 0.6258
vn 0.7224 -0.0000 0.6914
vn 0.6914 -0.0000 0.7224
vn 0.6258 -0.0000 0.7800
vn 0.5912 -0.0000 0.8065
vn 0.5187 -0.0000 0.8550
vn 0.4807 -0.0000 0.8769
vn 0.4029 -0.0000 0.9153
vn 0.3631 -0.0000 0.9318
vn 0.2806 -0.0000 0.9598
vn 0.2380 -0.0000 0.9713
vn 0.1521 -0.0000 0.9884
vn 0.1090 -0.0000 0.9940
vn 0.0219 -0.0000 0.9998
vn -0.0219 -0.0000 0.9998
vn -0.1090 -0.0000 0.9940
vn -0.1521 -0.0000 0.9884
vn -0.2380 -0.0000 0.9713
vn -0.2806 -0.0000 0.9598
vn -0.3631 -0.0000 0.9318
vn -0.4028 -0.0000 0.9153
vn -0.4806 -0.0000 0.8769
vn -0.5186 -0.0000 0.8550
vn -0.5912 -0.0000 0.8065
vn -0.6258 -0.0000 0.7800
vn -0.6914 -0.0000 0.7224
vn -0.7224 -0.0000 0.6914
vn -0.7800 -0.0000 0.6258
vn -0.8065 -0.0000 0.5912
vn -0.8550 -0.0000 0.5187
vn -0.8769 -0.0000 0.4806
vn -0.9153 -0.0000 0.4028
vn -0.9318 -0.0000 0.3631
vn -0.9598 -0.0000 0.2806
vn -0.9713 -0.0000 0.2380
vn -0.9884 -0.0000 0.1521
vn -0.9940 -0.0000 0.1090
vn -0.9998 -0.0000 0.0219
vn -0.9998 -0.0000 -0.0219
vn -0.9940 -0.0000 -0.1090
vn -0.9884 -0.0000 -0.1521
vn -0.9713 -0.0000 -0.2380
vn -0.9598 -0.0000 -0.2806
vn -0.9318 -0.0000 -0.3631
vn -0.9153 -0.0000 -0.4028
vn -0.8769 -0.0000 -0.4807
vn -0.8550 -0.0000 -0.5187
vn -0.8065 -0.0000 -0.5912
vn -0.7800 -0.0000 -0.6258
vn -0.7520 -0.0000 -0.6592
vn -0.7520 -0.0000 0.6592
vn -0.7224 -0.0000 -0.6914
vn -0.6914 -0.0000 -0.7224
vn -0.6258 -0.0000 -0.7800
vn -0.5912 -0.0000 -0.8065
vn -0.5187 -0.0000 -0.8550
vn -0.4807 -0.0000 -0.8769
vn -0.4028 -0.0000 -0.9153
vn -0.3631 -0.0000 -0.9318
vn -0.2806 -0.0000 -0.9598
vn -0.2380 -0.0000 -0.9713
vn -0.1521 -0.0000 -0.9884
vn -0.1090 -0.0000 -0.9940
vn -0.0219 -0.0000 -0.9998
vn 0.0219 -0.0000 -0.9998
vn 0.1090 -0.0000 -0.9940
vn 0.1521 -0.0000 -0.9884
vn 0.2380 -0.0000 -0.9713
vn 0.2806 -0.0000 -0.9598
vn 0.3631 -0.0000 -0.9318
vn 0.4028 -0.0000 -0.9153
vn 0.4806 -0.0000 -0.8769
vn 0.5186 -0.0000 -0.8550
vn 0.5912 -0.0000 -0.8065
vn 0.6258 -0.0000 -0.7800
vn 0.6914 -0.0000 -0.7224
vn 0.7224 -0.0000 -0.6914
vn 0.8769 -0.0000 -0.4807
vn 0.9940 -0.0000 -0.1089
vn 0.7520 -0.0000 0.6592
vn -0.2378 -0.9713 -0.0000
vn -0.2797 -0.9601 -0.0000
vn -0.1089 -0.9940 -0.0000
vn -0.1524 -0.9883 -0.0000
vn -0.0654 -0.9979 -0.0000
vn 0.1517 -0.9884 -0.0000
vn 0.1086 -0.9941 -0.0000
vn 0.0654 -0.9979 -0.0000
vn 0.2801 -0.9600 -0.0000
vn 0.2375 -0.9714 -0.0000
vn 0.4031 -0.9151 -0.0000
vn 0.3629 -0.9318 -0.0000
vn 0.5188 -0.8549 -0.0000
vn 0.4810 -0.8767 -0.0000
vn 0.6259 -0.7799 -0.0000
vn 0.5912 -0.8065 -0.0000
vn 0.7227 -0.6912 -0.0000
vn 0.6916 -0.7223 -0.0000
vn 0.8066 -0.5911 -0.0000
vn 0.7802 -0.6256 -0.0000
vn 0.8766 -0.4813 -0.0000
vn 0.8548 -0.5189 -0.0000
vn 0.9320 -0.3624 -0.0000
vn 0.9152 -0.4030 -0.0000
vn 0.9713 -0.2378 -0.0000
vn 0.9601 -0.2797 -0.0000
vn 0.9940 -0.1089 -0.0000
vn 0.9883 -0.1524 -0.0000
vn 0.9998 0.0218 -0.0000
vn 0.9998 -0.0218 -0.0000
vn 0.9884 0.1517 -0.0000
vn 0.9941 0.1086 -0.0000
vn 0.9600 0.2801 -0.0000
vn 0.9714 0.2375 -0.0000
vn 0.9154 0.4026 -0.0000
vn 0.9319 0.3627 -0.0000
vn 0.8548 0.5190 -0.0000
vn 0.8768 0.4808 -0.0000
vn 0.7798 0.6260 -0.0000
vn 0.8062 0.5916 -0.0000
vn 0.7519 0.6593 -0.0000
vn -0.6593 -0.7519 -0.0000
vn -0.4811 -0.8767 -0.0000
vn -0.2800 -0.9600 -0.0000
vn -0.2383 -0.9712 -0.0000
vn -0.1527 -0.9883 -0.0000
vn -0.1087 -0.9941 -0.0000
vn -0.0215 -0.9998 -0.0000
vn 0.0215 -0.9998 -0.0000
vn 0.1087 -0.9941 -0.0000
vn 0.1527 -0.9883 -0.0000
vn 0.2383 -0.9712 -0.0000
vn 0.2800 -0.9600 -0.0000
vn 0.3622 -0.9321 -0.0000
vn 0.4028 -0.9153 -0.0000
vn 0.4811 -0.8767 -0.0000
vn 0.6593 -0.7519 -0.0000
vn -0.0221 -0.9998 -0.0000
vn 0.0221 -0.9998 -0.0000
vn 0.1090 -0.9940 -0.0000
vn 0.2369 -0.9715 -0.0000
vn 0.2792 -0.9602 -0.0000
vn 0.3623 -0.9321 -0.0000
vn 0.4816 -0.8764 -0.0000
vn 0.5193 -0.8546 -0.0000
vn 0.5917 -0.8062 -0.0000
vn 0.6263 -0.7796 -0.0000
vn 0.6916 -0.7222 -0.0000
vn 0.7222 -0.6916 -0.0000
vn 0.7796 -0.6263 -0.0000
vn 0.8062 -0.5917 -0.0000
vn 0.8546 -0.5192 -0.0000
vn 0.8764 -0.4816 -0.0000
vn 0.9151 -0.4031 -0.0000
vn 0.9321 -0.3623 -0.0000
vn 0.9603 -0.2790 -0.0000
vn 0.9716 -0.2365 -0.0000
vn 0.9885 -0.1515 -0.0000
vn 0.9940 -0.1090 -0.0000
vn 0.9978 -0.0663 -0.0000
vn 0.9978 0.0662 -0.0000
vn 0.9941 0.1089 -0.0000
vn 0.9885 0.1514 -0.0000
vn 0.9716 0.2367 -0.0000
vn 0.9602 0.2794 -0.0000
vn 0.9318 0.3629 -0.0000
vn 0.9150 0.4034 -0.0000
vn 0.8766 0.4812 -0.0000
vn 0.8551 0.5185 -0.0000
vn 0.8065 0.5913 -0.0000
vn 0.7792 0.6268 -0.0000
vn 0.7214 0.6925 -0.0000
vn 0.6912 0.7227 -0.0000
vn 0.6263 0.7796 -0.0000
vn 0.5917 0.8062 -0.0000
vn 0.5192 0.8546 -0.0000
vn 0.4816 0.8764 -0.0000
vn 0.4031 0.9151 -0.0000
vn 0.3623 0.9321 -0.0000
vn 0.2792 0.9602 -0.0000
vn 0.2369 0.9715 -0.0000
vn 0.1517 0.9884 -0.0000
vn 0.1090 0.9940 -0.0000
vn 0.0662 0.9978 -0.0000
vn -0.0662 0.9978 -0.0000
vn -0.1090 0.9940 -0.0000
vn -0.1517 0.9884 -0.0000
vn -0.2369 0.9715 -0.0000
vn -0.2792 0.9602 -0.0000
vn -0.3623 0.9321 -0.0000
vn -0.4031 0.9151 -0.0000
vn -0.4816 0.8764 -0.0000
vn -0.5192 0.8546 -0.0000
vn -0.5917 0.8062 -0.0000
vn -0.6263 0.7796 -0.0000
vn -0.6912 0.7227 -0.0000
vn -0.7214 0.6925 -0.0000
vn -0.7792 0.6268 -0.0000
vn -0.8065 0.5913 -0.0000
vn -0.8551 0.5185 -0.0000
vn -0.8766 0.4812 -0.0000
vn -0.9150 0.4034 -0.0000
vn -0.9318 0.3629 -0.0000
vn -0.9602 0.2794 -0.0000
vn -0.9716 0.2368 -0.0000
vn -0.9885 0.1514 -0.0000
vn -0.9941 0.1089 -0.0000
vn -0.9978 0.0662 -0.0000
vn -0.9978 -0.0663 -0.0000
vn -0.9940 -0.1090 -0.0000
vn -0.9885 -0.1515 -0.0000
vn -0.9716 -0.2365 -0.0000
vn -0.9603 -0.2790 -0.0000
vn -0.9321 -0.3623 -0.0000
vn -0.9151 -0.4031 -0.0000
vn -0.8764 -0.4816 -0.0000
vn -0.8546 -0.5192 -0.0000
vn -0.8062 -0.5917 -0.0000
vn -0.7796 -0.6263 -0.0000
vn -0.7222 -0.6916 -0.0000
vn -0.6916 -0.7222 -0.0000
vn -0.6263 -0.7796 -0.0000
vn -0.5917 -0.8062 -0.0000
vn -0.5192 -0.8546 -0.0000
vn -0.4816 -0.8764 -0.0000
vn -0.4031 -0.9151 -0.0000
vn -0.3623 -0.9321 -0.0000
vn -0.2792 -0.9602 -0.0000
vn -0.2369 -0.9715 -0.0000
vn -0.1517 -0.9884 -0.0000
vn -0.1090 -0.9940 -0.0000
vt -5.000000 28.000000
vt -11.000000 28.000000
vt -5.000000 -8.000000
vt -11.000000 -8.000000
vt -9.000000 8.364000
vt -9.000000 4.364000
vt -7.339000 9.139999
vt -7.339000 5.140000
vt -5.706000 9.794000
vt -5.706000 5.794000
vt -4.129000 10.315000
vt -4.129000 6.315000
vt -2.636000 10.693000
vt -2.636000 6.693000
vt -1.251000 10.924000
vt -1.251000 6.924000
vt 0.000000 11.000000
vt 0.000000 7.000000
vt 1.099000 10.924000
vt 1.099000 6.924000
vt 2.022000 10.693000
vt 2.022000 6.693000
vt 2.759000 10.315000
vt 2.759000 6.315000
vt 3.294000 9.794000
vt 3.294000 5.794000
vt 3.619000 9.139999
vt 3.619000 5.140000
vt 3.728000 8.364000
vt -4.636000 4.364000
vt 0.140000 7.479000
vt -3.860000 3.479000
vt 0.794000 6.500000
vt -3.206000 2.500000
vt 1.315000 5.444000
vt -2.685000 1.444000
vt -25.000000 -28.000000
vt -31.000000 -28.000000
vt -25.000000 8.000000
vt -31.000000 8.000000
vt -7.540000 19.459999
vt -6.520000 18.959999
vt -18.540001 19.459999
vt -17.520000 18.959999
vt -16.520000 10.000000
vt -15.000000 12.540000
vt -27.520000 10.000000
vt -26.000000 12.540000
vt -17.540001 7.460000
vt -28.540001 7.460000
vt -15.480000 1.040000
vt -24.459999 0.540000
vt -36.480000 1.040000
vt -35.459999 0.540000
vt -14.460000 0.540000
vt -25.459999 0.540000
vt -6.520000 10.000000
vt -7.540000 7.460000
vt -17.520000 10.000000
vt -18.540001 7.460000
vt -5.000000 12.540000
vt -9.000000 12.540000
vt -9.000000 19.459999
vt -16.520000 18.959999
vt -17.540001 19.459999
vt -27.520000 18.959999
vt -21.540001 19.459999
vt -29.200001 -19.200001
vt -27.520000 -17.520000
vt -34.799999 -19.200001
vt -36.480000 -17.520000
vt -35.680000 -20.480000
vt -38.000000 -18.540001
vt -36.000000 -22.000000
vt -38.000000 -22.000000
vt -35.680000 -23.520000
vt -38.000000 -25.459999
vt -34.799999 -24.799999
vt -36.480000 -26.480000
vt -33.520000 -25.680000
vt -35.459999 -28.000000
vt -32.000000 -26.000000
vt -32.000000 -28.000000
vt -30.480000 -25.680000
vt -28.540001 -28.000000
vt -29.200001 -24.799999
vt -27.520000 -26.480000
vt -28.320000 -23.520000
vt -26.000000 -25.459999
vt -28.000000 -22.000000
vt -26.000000 -22.000000
vt -28.320000 -20.480000
vt -26.000000 -18.540001
vt -15.000000 -7.460000
vt -26.000000 -7.460000
vt -16.520000 -10.000000
vt -27.520000 -10.000000
vt -16.520000 -1.040000
vt -37.520000 -1.040000
vt -27.540001 -0.540000
vt -38.540001 -0.540000
vt -17.540001 -0.540000
vt -28.540001 -0.540000
vt -26.520000 -10.000000
vt -37.520000 -10.000000
vt -25.000000 -7.460000
vt -36.000000 -7.460000
vt -27.540001 -12.540000
vt -38.540001 -12.540000
vt -25.480000 -18.959999
vt -46.480000 -18.959999
vt -34.459999 -19.459999
vt -45.459999 -19.459999
vt -24.459999 -19.459999
vt -28.459999 -19.459999
vt -21.540001 -12.540000
vt -36.480000 -18.959999
vt -17.540001 -12.540000
vt -29.200001 -44.799999
vt -34.799999 -44.799999
vt -27.520000 -46.480000
vt -36.480000 -46.480000
vt -35.680000 -43.520000
vt -38.000000 -45.459999
vt -36.000000 -42.000000
vt -38.000000 -42.000000
vt -35.680000 -40.480000
vt -38.000000 -38.540001
vt -34.799999 -39.200001
vt -36.480000 -37.520000
vt -33.520000 -38.320000
vt -35.459999 -36.000000
vt -32.000000 -38.000000
vt -32.000000 -36.000000
vt -30.480000 -38.320000
vt -28.540001 -36.000000
vt -29.200001 -39.200001
vt -27.520000 -37.520000
vt -28.320000 -40.480000
vt -26.000000 -38.540001
vt -28.000000 -42.000000
vt -26.000000 -42.000000
vt -28.320000 -43.520000
vt -26.000000 -45.459999
vt -8.393000 -33.000000
vt -8.393000 3.000000
vt -5.000000 -33.000000
vt -5.000000 3.000000
vt -9.000000 -11.636000
vt -9.000000 24.364000
vt -8.393000 -11.393000
vt -8.393000 24.607000
vt -21.607000 3.000000
vt -21.607000 -33.000000
vt -25.000000 3.000000
vt -25.000000 -33.000000
vt -21.728001 11.636000
vt -21.728001 -24.364000
vt -21.607000 11.393000
vt -21.607000 -24.607000
vt 3.000000 28.000000
vt 3.000000 24.607000
vt 2.636001 24.364000
vt 0.685001 21.444000
vt -3.000000 28.000000
vt 0.000000 18.000000
vt 0.685001 14.556000
vt -3.000000 8.000000
vt 2.636001 11.636000
vt 3.000000 8.000000
vt 3.000000 11.393000
vt -33.000000 -28.000000
vt -33.000000 -24.607000
vt -33.363998 -24.364000
vt -35.314999 -21.444000
vt -39.000000 -28.000000
vt -36.000000 -18.000000
vt -35.314999 -14.556000
vt -39.000000 -8.000000
vt -33.363998 -11.636000
vt -33.000000 -8.000000
vt -33.000000 -11.393000
vt -11.000000 -3.000000
vt -31.000000 -3.000000
vt -11.000000 -39.000000
vt -31.000000 -39.000000
vt -38.000000 7.460000
vt -27.000000 7.460000
vt -38.000000 0.540000
vt -27.000000 0.540000
vt -28.000000 0.540000
vt -17.000000 0.540000
vt -28.000000 7.460000
vt -17.000000 7.460000
vt -15.000000 19.459999
vt -26.000000 19.459999
vt -5.000000 19.459999
vt -19.200001 9.999999
vt -8.200001 9.999999
vt -19.200001 15.600000
vt -8.200001 15.600000
vt -18.200001 15.600000
vt -17.858999 15.552000
vt -29.200001 15.600000
vt -28.858999 15.552000
vt -17.570999 15.409000
vt -28.570999 15.409000
vt -17.341999 15.173000
vt -28.341999 15.173000
vt -17.174999 14.850000
vt -28.174999 14.850000
vt -17.073999 14.443000
vt -28.073999 14.443000
vt -17.040001 13.960000
vt -22.000000 13.960000
vt -11.517000 13.409000
vt -22.517000 13.409000
vt -12.025000 12.800000
vt -23.025000 12.800000
vt -12.515000 12.143000
vt -23.514999 12.143000
vt -12.980000 11.449000
vt -23.980000 11.449000
vt -13.411000 10.730000
vt -24.410999 10.730000
vt -13.800000 10.000000
vt -24.799999 10.000000
vt -14.141000 9.270000
vt -25.141001 9.270000
vt -14.429000 8.551000
vt -25.429001 8.551000
vt -14.658000 7.857000
vt -25.658001 7.857000
vt -14.825000 7.200000
vt -25.825001 7.200000
vt -14.926000 6.591000
vt -25.926001 6.591000
vt -14.960000 6.040000
vt -25.959999 6.040000
vt -14.926000 5.557000
vt -25.926001 5.557000
vt -14.825000 5.150000
vt -25.825001 5.150000
vt -14.658000 4.827000
vt -25.658001 4.827000
vt -14.429000 4.591000
vt -25.429001 4.591000
vt -14.141000 4.448000
vt -25.141001 4.448000
vt -13.800000 4.400000
vt -34.799999 4.400000
vt -24.141001 4.448000
vt -35.140999 4.448000
vt -24.429001 4.591000
vt -35.429001 4.591000
vt -24.658001 4.827000
vt -35.658001 4.827000
vt -24.825001 5.150000
vt -35.825001 5.150000
vt -24.926001 5.557000
vt -35.925999 5.557000
vt -24.959999 6.040000
vt -35.959999 6.040000
vt -24.926001 6.591001
vt -35.925999 6.591001
vt -24.825001 7.200000
vt -35.825001 7.200000
vt -24.658001 7.856999
vt -35.658001 7.856999
vt -24.429001 8.551000
vt -35.429001 8.551000
vt -24.141001 9.270000
vt -35.140999 9.270000
vt -23.799999 9.999999
vt -34.799999 9.999999
vt -38.000000 -12.540000
vt -27.000000 -12.540000
vt -38.000000 -19.459999
vt -27.000000 -19.459999
vt -36.000000 -0.540000
vt -25.000000 -0.540000
vt -15.000000 -0.540000
vt -26.000000 -0.540000
vt -41.000000 -19.459999
vt -37.000000 -19.459999
vt -41.000000 -12.540000
vt -37.000000 -12.540000
vt -44.799999 -9.999999
vt -33.799999 -9.999999
vt -44.799999 -15.600000
vt -33.799999 -15.600000
vt -23.799999 -15.600000
vt -24.141001 -15.552000
vt -34.799999 -15.600000
vt -35.140999 -15.552000
vt -24.429001 -15.409000
vt -35.429001 -15.409000
vt -24.658001 -15.173000
vt -35.658001 -15.173000
vt -24.825001 -14.850000
vt -35.825001 -14.850000
vt -24.926001 -14.443000
vt -35.925999 -14.443000
vt -24.959999 -13.960000
vt -35.959999 -13.960000
vt -24.926001 -13.409000
vt -35.925999 -13.409000
vt -24.825001 -12.800000
vt -35.825001 -12.800000
vt -24.658001 -12.143000
vt -35.658001 -12.143000
vt -24.429001 -11.449000
vt -35.429001 -11.449000
vt -24.141001 -10.730000
vt -35.140999 -10.730000
vt -23.799999 -10.000000
vt -34.799999 -10.000000
vt -23.410999 -9.270000
vt -34.410999 -9.270000
vt -22.980000 -8.551000
vt -33.980000 -8.551000
vt -22.514999 -7.857000
vt -33.514999 -7.857000
vt -22.025000 -7.200000
vt -33.025002 -7.200000
vt -21.517000 -6.591000
vt -32.516998 -6.591000
vt -21.000000 -6.040000
vt -38.040001 -6.040000
vt -27.073999 -5.557000
vt -38.074001 -5.557000
vt -27.174999 -5.150000
vt -38.174999 -5.150000
vt -27.341999 -4.827000
vt -38.341999 -4.827000
vt -27.570999 -4.591000
vt -38.570999 -4.591000
vt -27.858999 -4.448000
vt -38.859001 -4.448000
vt -28.200001 -4.400000
vt -29.200001 -4.400000
vt -17.858999 -4.448000
vt -28.858999 -4.448000
vt -17.570999 -4.591000
vt -28.570999 -4.591000
vt -17.341999 -4.827000
vt -28.341999 -4.827000
vt -17.174999 -5.150000
vt -28.174999 -5.150000
vt -17.073999 -5.557000
vt -28.073999 -5.557000
vt -17.040001 -6.040000
vt -42.000000 -6.040000
vt -31.517000 -6.591001
vt -42.516998 -6.591001
vt -32.025002 -7.200000
vt -43.025002 -7.200000
vt -32.514999 -7.856999
vt -43.514999 -7.856999
vt -32.980000 -8.551000
vt -43.980000 -8.551000
vt -33.410999 -9.270000
vt -44.410999 -9.270000
vt -2.307000 0.329000
vt 1.693000 4.329000
vt -2.077000 -0.825000
vt 1.923000 3.175000
vt -2.000000 -2.000000
vt 2.000000 2.000000
vt -1.252000 -3.175000
vt -1.252000 0.825000
vt 0.000000 -2.000000
vt 0.000000 2.000000
vt -2.636000 -4.330000
vt -2.636000 -0.330000
vt -4.129000 -5.444000
vt -4.129000 -1.444000
vt -5.706000 -6.500000
vt -5.706000 -2.500000
vt -7.339000 -7.479000
vt -7.339000 -3.479000
vt -9.000000 -8.364000
vt -9.000000 -4.364000
vt -10.662000 -9.139999
vt -10.662000 -5.140000
vt -12.295000 -9.794000
vt -12.295000 -5.794000
vt -13.871000 -10.315000
vt -13.871000 -6.315000
vt -15.364000 -10.693000
vt -15.364000 -6.693000
vt -16.747999 -10.923000
vt -16.747999 -6.922999
vt -11.000000 -11.000000
vt -18.000000 -7.000000
vt -12.175000 -10.923000
vt -8.175000 -6.922999
vt -13.330000 -10.694000
vt -9.330000 -6.694000
vt -14.444000 -10.315000
vt -10.444000 -6.315000
vt -15.500000 -9.795000
vt -11.500000 -5.795000
vt -16.479000 -9.139999
vt -12.479000 -5.140000
vt -17.364000 -8.364000
vt -13.364000 -4.364000
vt 1.860001 12.521000
vt -34.139999 -23.479000
vt 1.206001 13.500000
vt -34.793999 -22.500000
vt 0.307001 15.671000
vt -35.693001 -20.329000
vt 0.076000 16.825001
vt -35.924000 -19.174999
vt -18.000000 -18.000000
vt -16.749001 19.174999
vt -16.749001 -16.825001
vt -15.364000 20.329000
vt -15.364000 -15.671000
vt -13.871000 21.444000
vt -13.871000 -14.556000
vt -12.294000 22.500000
vt -12.294000 -13.500000
vt -10.661000 23.479000
vt -10.661000 -12.521000
vt -2.078000 -0.825000
vt -11.000000 -2.000000
vt -5.521000 5.141000
vt -6.500000 5.794000
vt -7.556000 6.315000
vt -8.671000 6.693000
vt -9.826000 6.922999
vt -11.000000 7.000000
vt -12.175000 6.922999
vt -13.329000 6.693000
vt -14.444000 6.315000
vt -15.500000 5.794000
vt -16.479000 5.141000
vt -17.364000 4.364000
vt -18.141001 3.479000
vt -18.794001 2.500000
vt -19.315001 1.444000
vt -19.693001 0.329000
vt -19.923000 -0.825000
vt -20.000000 -2.000000
vt -19.923000 -3.175000
vt -19.693001 -4.329000
vt -19.315001 -5.444000
vt -18.794001 -6.500000
vt -18.141001 -7.479000
vt -16.479000 -9.141000
vt -15.500000 -9.794000
vt -13.329000 -10.693000
vt -9.826000 -10.923000
vt -8.671000 -10.693000
vt -7.556000 -10.315000
vt -6.500000 -9.794000
vt -5.521000 -9.141000
vt -4.636000 -8.364000
vt -3.860000 -7.479000
vt -3.206000 -6.500000
vt -2.685000 -5.444000
vt -2.307000 -4.329000
vt -2.078000 -3.175000
vt 1.922000 0.825000
vt -7.000000 2.000000
vt 1.693000 -0.329000
vt 1.315000 -1.444000
vt 0.794000 -2.500000
vt 0.140000 -3.479000
vt -0.636000 -4.364000
vt -1.521000 -5.141000
vt -2.500000 -5.794000
vt -3.556000 -6.315000
vt -4.671000 -6.693000
vt -5.826000 -6.922999
vt -7.000000 -7.000000
vt -9.329000 -6.693000
vt -11.500000 -5.794000
vt -12.479000 -5.141000
vt -14.141000 -3.479000
vt -14.794000 -2.500000
vt -15.315000 -1.444000
vt -15.693000 -0.329000
vt -15.923000 0.825000
vt -16.000000 2.000000
vt -15.923000 3.175000
vt -15.693000 4.329000
vt -15.315000 5.444000
vt -14.794000 6.500000
vt -14.141000 7.479000
vt -13.364000 8.364000
vt -12.479000 9.141000
vt -11.500000 9.794000
vt -10.444000 10.315000
vt -9.329000 10.693000
vt -8.175000 10.923000
vt -7.000000 11.000000
vt -5.826000 10.923000
vt -4.671000 10.693000
vt -3.556000 10.315000
vt -2.500000 9.794000
vt -1.521000 9.141000
vt -0.636000 8.364000
vt 1.922000 3.175000
vt -15.946000 -10.312000
vt -15.920000 -9.920000
vt -18.920000 -9.920000
vt -16.021999 -10.696000
vt -16.148001 -11.068000
vt -16.322001 -11.420000
vt -16.540001 -11.746000
vt -16.799000 -12.041000
vt -17.094000 -12.300000
vt -17.420000 -12.518000
vt -17.771999 -12.692000
vt -18.143999 -12.818000
vt -18.528999 -12.894000
vt -18.920000 -12.920000
vt -19.312000 -12.894000
vt -19.697001 -12.818000
vt -20.068001 -12.692000
vt -20.420000 -12.518000
vt -20.747000 -12.300000
vt -21.041000 -12.041000
vt -21.299999 -11.746000
vt -21.518000 -11.420000
vt -21.691999 -11.068000
vt -21.818001 -10.696000
vt -21.893999 -10.312000
vt -21.920000 -9.920000
vt -21.893999 -9.528000
vt -21.818001 -9.144000
vt -21.691999 -8.772000
vt -21.518000 -8.420000
vt -21.299999 -8.094000
vt -21.041000 -7.799000
vt -20.747000 -7.540000
vt -20.420000 -7.322000
vt -20.068001 -7.148000
vt -19.697001 -7.022000
vt -19.312000 -6.946000
vt -18.920000 -6.920000
vt -18.528999 -6.946000
vt -18.143999 -7.022000
vt -17.771999 -7.148000
vt -17.420000 -7.322000
vt -17.094000 -7.540000
vt -16.799000 -7.799000
vt -16.540001 -8.094000
vt -16.322001 -8.420000
vt -16.148001 -8.772000
vt -16.021999 -9.144000
vt -15.946000 -9.528000
vt 3.920000 9.920000
vt -6.000000 -9.920000
vt -6.418000 9.528000
vt -6.418000 -10.312000
vt -6.878000 9.144000
vt -6.878000 -10.696000
vt -7.375999 8.772000
vt -7.375999 -11.068000
vt -7.902000 8.420000
vt -7.902000 -11.420000
vt -8.446000 8.094000
vt -8.446000 -11.746000
vt -9.000000 7.799000
vt -9.000000 -12.041000
vt -9.554000 7.540000
vt -9.554000 -12.300000
vt -10.098000 7.322000
vt -10.098000 -12.518000
vt -10.624000 7.148000
vt -10.624000 -12.692000
vt -11.122000 7.022000
vt -11.122000 -12.818000
vt -11.583000 6.946000
vt -11.583000 -12.894000
vt -12.000000 6.920000
vt -12.000000 -12.920000
vt 0.920000 6.920000
vt 0.528000 6.946000
vt 0.143001 7.022000
vt -0.228000 7.148000
vt -0.580000 7.322000
vt -0.907000 7.540000
vt -1.200999 7.799000
vt -1.460000 8.094000
vt -1.677999 8.420000
vt -1.851999 8.772000
vt -1.978000 9.144000
vt -2.054000 9.528000
vt -2.080000 9.920000
vt -12.000000 9.920000
vt -12.000000 -9.920000
vt -11.582000 10.312000
vt -11.582000 -9.528000
vt -11.122000 10.696000
vt -11.122000 -9.144000
vt -10.624000 11.068000
vt -10.624000 -8.772000
vt -10.098000 11.420000
vt -10.098000 -8.420000
vt -9.554000 11.746000
vt -9.554000 -8.094000
vt -8.999999 12.041000
vt -8.999999 -7.799000
vt -8.447000 12.300000
vt -8.447000 -7.540000
vt -7.902000 12.518000
vt -7.902000 -7.322000
vt -7.376000 12.692000
vt -7.376000 -7.148000
vt -6.879000 12.818000
vt -6.879000 -7.022000
vt -6.418000 12.894000
vt -6.418000 -6.946000
vt -6.000000 12.920000
vt -6.000000 -6.920000
vt -5.635000 12.894000
vt -5.635000 -6.946000
vt -5.326000 12.818000
vt -5.326000 -7.022000
vt -5.080000 12.692000
vt -5.080000 -7.148000
vt -4.902000 12.518000
vt -4.902000 -7.322000
vt -4.794000 12.300000
vt -4.794000 -7.540000
vt -4.757999 12.041000
vt 3.300000 11.746000
vt 3.518000 11.420000
vt 3.692000 11.068000
vt 3.818000 10.696000
vt 3.894000 10.312000
vt 3.894000 9.528000
vt 0.920000 9.920000
vt 3.818000 9.144000
vt 3.692000 8.772000
vt 3.518000 8.420000
vt 3.300000 8.094000
vt 3.041000 7.799000
vt 2.746000 7.540000
vt 2.420000 7.322000
vt 2.068000 7.148000
vt 1.696000 7.022000
vt 1.311000 6.946000
vt -2.054000 10.312000
vt -1.978000 10.696000
vt -1.851999 11.068000
vt -1.677999 11.420000
vt -1.460000 11.746000
vt -1.200999 12.041000
vt -0.907000 12.300000
vt -0.580000 12.518000
vt -0.228000 12.692000
vt 0.143001 12.818000
vt 0.528000 12.894000
vt 0.920000 12.920000
vt 1.311000 12.894000
vt 1.696000 12.818000
vt 2.068000 12.692000
vt 2.420000 12.518000
vt 2.746000 12.300000
vt 3.041000 12.041000
s 1
usemtl 85.001
f 749/1/1 717/2/1 37/3/1
f 5/4/1 37/3/1 717/2/1
f 388/5/2 301/6/2 392/7/3
f 305/8/4 392/7/3 301/6/2
f 392/7/3 305/8/4 396/9/5
f 309/10/6 396/9/5 305/8/4
f 396/9/5 309/10/6 400/11/7
f 313/12/8 400/11/7 309/10/6
f 400/11/7 313/12/8 404/13/9
f 317/14/10 404/13/9 313/12/8
f 404/13/9 317/14/10 408/15/11
f 321/16/12 408/15/11 317/14/10
f 408/15/11 321/16/12 413/17/13
f 326/18/14 413/17/13 321/16/12
f 413/17/13 326/18/14 417/19/15
f 330/20/16 417/19/15 326/18/14
f 417/19/15 330/20/16 421/21/17
f 334/22/18 421/21/17 330/20/16
f 421/21/17 334/22/18 425/23/19
f 338/24/20 425/23/19 334/22/18
f 425/23/19 338/24/20 429/25/21
f 342/26/22 429/25/21 338/24/20
f 429/25/21 342/26/22 433/27/23
f 346/28/24 433/27/23 342/26/22
f 433/27/23 346/28/24 437/29/25
f 350/30/26 437/29/25 346/28/24
f 437/29/25 350/30/26 441/31/27
f 354/32/28 441/31/27 350/30/26
f 441/31/27 354/32/28 445/33/29
f 358/34/30 445/33/29 354/32/28
f 445/33/29 358/34/30 449/35/31
f 362/36/32 449/35/31 358/34/30
f 28/37/33 2/38/33 740/39/33
f 714/40/33 740/39/33 2/38/33
f 689/41/34 701/42/34 686/43/34
f 696/44/34 686/43/34 701/42/34
f 477/45/35 503/46/36 475/47/37
f 499/48/36 475/47/37 503/46/36
f 470/49/38 477/45/35 467/50/38
f 475/47/37 467/50/38 477/45/35
f 476/51/39 469/52/40 473/53/41
f 463/54/40 473/53/41 469/52/40
f 501/55/42 476/51/39 496/56/42
f 473/53/41 496/56/42 476/51/39
f 699/57/43 687/58/43 692/59/43
f 682/60/43 692/59/43 687/58/43
f 709/61/44 700/57/44 704/62/44
f 694/59/44 704/62/44 700/57/44
f 703/62/45 693/59/45 706/63/45
f 697/44/45 706/63/45 693/59/45
f 702/64/46 711/65/46 698/66/46
f 707/67/46 698/66/46 711/65/46
f 674/68/47 695/69/47 671/70/47
f 691/71/47 671/70/47 695/69/47
f 661/72/47 671/70/47 681/73/47
f 691/71/47 681/73/47 671/70/47
f 642/74/47 661/72/47 641/75/47
f 681/73/47 641/75/47 661/72/47
f 527/76/47 642/74/47 495/77/47
f 641/75/47 495/77/47 642/74/47
f 513/78/47 527/76/47 472/79/47
f 495/77/47 472/79/47 527/76/47
f 489/80/47 513/78/47 461/81/47
f 472/79/47 461/81/47 513/78/47
f 478/82/47 489/80/47 464/83/47
f 461/81/47 464/83/47 489/80/47
f 490/84/47 478/82/47 465/85/47
f 464/83/47 465/85/47 478/82/47
f 515/86/47 490/84/47 474/87/47
f 465/85/47 474/87/47 490/84/47
f 528/88/47 515/86/47 498/89/47
f 474/87/47 498/89/47 515/86/47
f 645/90/47 528/88/47 646/91/47
f 498/89/47 646/91/47 528/88/47
f 662/92/47 645/90/47 684/93/47
f 646/91/47 684/93/47 645/90/47
f 674/68/47 662/92/47 695/69/47
f 684/93/47 695/69/47 662/92/47
f 66/94/36 62/95/36 56/96/37
f 54/97/48 56/96/37 62/95/36
f 275/98/49 273/99/50 252/100/34
f 248/101/34 252/100/34 273/99/50
f 285/102/46 281/103/46 275/98/49
f 273/99/50 275/98/49 281/103/46
f 274/104/51 271/105/52 283/106/44
f 277/107/44 283/106/44 271/105/52
f 250/108/43 245/109/43 274/104/51
f 271/105/52 274/104/51 245/109/43
f 55/110/53 51/111/39 63/112/42
f 58/113/42 63/112/42 51/111/39
f 46/114/40 41/115/40 55/110/53
f 51/111/39 55/110/53 41/115/40
f 40/115/54 43/116/54 50/117/54
f 53/97/54 50/117/54 43/116/54
f 56/96/37 54/97/48 48/118/38
f 44/116/38 48/118/38 54/97/48
f 70/119/47 67/120/47 52/121/47
f 49/122/47 52/121/47 67/120/47
f 85/123/47 57/124/47 67/120/47
f 49/122/47 67/120/47 57/124/47
f 100/125/47 99/126/47 85/123/47
f 57/124/47 85/123/47 99/126/47
f 219/127/47 243/128/47 100/125/47
f 99/126/47 100/125/47 243/128/47
f 229/129/47 270/130/47 219/127/47
f 243/128/47 219/127/47 270/130/47
f 257/131/47 276/132/47 229/129/47
f 270/130/47 229/129/47 276/132/47
f 269/133/47 279/134/47 257/131/47
f 276/132/47 257/131/47 279/134/47
f 258/135/47 280/136/47 269/133/47
f 279/134/47 269/133/47 280/136/47
f 231/137/47 272/138/47 258/135/47
f 280/136/47 258/135/47 272/138/47
f 220/139/47 246/140/47 231/137/47
f 272/138/47 231/137/47 246/140/47
f 103/141/47 104/142/47 220/139/47
f 246/140/47 220/139/47 104/142/47
f 86/143/47 60/144/47 103/141/47
f 104/142/47 103/141/47 60/144/47
f 70/119/47 52/121/47 86/143/47
f 60/144/47 86/143/47 52/121/47
f 33/145/55 745/146/55 36/147/55
f 748/148/55 36/147/55 745/146/55
f 25/149/56 737/150/56 34/151/56
f 746/152/56 34/151/56 737/150/56
f 743/153/55 30/154/55 739/155/55
f 27/156/55 739/155/55 30/154/55
f 734/157/57 22/158/57 742/159/57
f 31/160/57 742/159/57 22/158/57
f 750/161/58 747/162/58 738/163/58
f 738/163/58 728/164/58 750/161/58
f 718/165/58 750/161/58 728/164/58
f 718/165/58 728/164/58 720/166/58
f 720/166/58 726/167/58 718/165/58
f 715/168/58 718/165/58 726/167/58
f 726/167/58 735/169/58 715/168/58
f 741/170/58 715/168/58 735/169/58
f 741/170/58 735/169/58 744/171/58
f 29/172/59 32/173/59 23/174/59
f 23/174/59 14/175/59 29/172/59
f 3/176/59 29/172/59 14/175/59
f 3/176/59 14/175/59 8/177/59
f 8/177/59 16/178/59 3/176/59
f 6/179/59 3/176/59 16/178/59
f 16/178/59 26/180/59 6/179/59
f 38/181/59 6/179/59 26/180/59
f 38/181/59 26/180/59 35/182/59
f 716/183/47 713/184/47 4/185/47
f 1/186/47 4/185/47 713/184/47
f 683/187/33 688/188/33 497/189/33
f 502/190/33 497/189/33 688/188/33
f 462/191/59 468/192/59 466/193/59
f 471/194/59 466/193/59 468/192/59
f 690/195/1 685/196/1 504/46/1
f 500/48/1 504/46/1 685/196/1
f 708/63/58 712/197/58 705/62/58
f 710/61/58 705/62/58 712/197/58
f 672/198/59 677/199/59 675/200/59
f 679/201/59 675/200/59 677/199/59
f 680/202/60 670/203/61 676/204/60
f 668/205/62 676/204/60 670/203/61
f 670/203/61 666/206/63 668/205/62
f 664/207/64 668/205/62 666/206/63
f 666/206/63 660/208/65 664/207/64
f 658/209/66 664/207/64 660/208/65
f 660/208/65 656/210/67 658/209/66
f 654/211/68 658/209/66 656/210/67
f 656/210/67 652/212/69 654/211/68
f 650/213/70 654/211/68 652/212/69
f 652/212/69 648/214/71 650/213/70
f 644/215/72 650/213/70 648/214/71
f 648/214/71 540/216/73 644/215/72
f 538/217/74 644/215/72 540/216/73
f 540/216/73 536/218/75 538/217/74
f 534/219/76 538/217/74 536/218/75
f 536/218/75 532/220/77 534/219/76
f 530/221/78 534/219/76 532/220/77
f 532/220/77 526/222/79 530/221/78
f 524/223/80 530/221/78 526/222/79
f 526/222/79 522/224/81 524/223/80
f 520/225/82 524/223/80 522/224/81
f 522/224/81 518/226/83 520/225/82
f 516/227/84 520/225/82 518/226/83
f 518/226/83 512/228/85 516/227/84
f 510/229/86 516/227/84 512/228/85
f 512/228/85 508/230/87 510/229/86
f 506/231/88 510/229/86 508/230/87
f 508/230/87 494/232/89 506/231/88
f 492/233/90 506/231/88 494/232/89
f 494/232/89 488/234/91 492/233/90
f 486/235/92 492/233/90 488/234/91
f 488/234/91 484/236/93 486/235/92
f 482/237/94 486/235/92 484/236/93
f 484/236/93 480/238/95 482/237/94
f 479/239/96 482/237/94 480/238/95
f 480/238/95 483/240/97 479/239/96
f 481/241/98 479/239/96 483/240/97
f 483/240/97 487/242/99 481/241/98
f 485/243/100 481/241/98 487/242/99
f 487/242/99 493/244/101 485/243/100
f 491/245/102 485/243/100 493/244/101
f 493/244/101 507/246/103 491/245/102
f 505/247/104 491/245/102 507/246/103
f 507/246/103 511/248/105 505/247/104
f 509/249/106 505/247/104 511/248/105
f 511/248/105 517/250/107 509/249/106
f 514/251/108 509/249/106 517/250/107
f 517/250/107 521/252/109 514/251/108
f 519/253/110 514/251/108 521/252/109
f 521/252/109 525/254/111 519/253/110
f 523/255/112 519/253/110 525/254/111
f 525/254/111 531/256/113 523/255/112
f 529/257/114 523/255/112 531/256/113
f 531/256/113 535/258/115 529/257/114
f 533/259/116 529/257/114 535/258/115
f 535/258/115 539/260/117 533/259/116
f 537/261/118 533/259/116 539/260/117
f 539/260/117 647/262/119 537/261/118
f 643/263/120 537/261/118 647/262/119
f 647/262/119 651/264/121 643/263/120
f 649/265/122 643/263/120 651/264/121
f 651/264/121 655/266/123 649/265/122
f 653/267/124 649/265/122 655/266/123
f 655/266/123 659/268/125 653/267/124
f 657/269/126 653/267/124 659/268/125
f 659/268/125 665/270/127 657/269/126
f 663/271/128 657/269/126 665/270/127
f 665/270/127 669/272/129 663/271/128
f 667/273/130 663/271/128 669/272/129
f 669/272/129 678/274/131 667/273/130
f 673/275/131 667/273/130 678/274/131
f 244/276/33 249/277/33 59/278/33
f 64/279/33 59/278/33 249/277/33
f 282/280/58 286/281/58 278/107/58
f 284/106/58 278/107/58 286/281/58
f 251/282/1 247/283/1 65/94/1
f 61/95/1 65/94/1 247/283/1
f 39/284/59 45/285/59 42/286/59
f 47/287/59 42/286/59 45/285/59
f 71/288/58 75/289/58 68/290/58
f 73/291/58 68/290/58 75/289/58
f 74/292/132 79/293/109 69/294/132
f 77/295/110 69/294/132 79/293/109
f 79/293/109 83/296/111 77/295/110
f 81/297/112 77/295/110 83/296/111
f 83/296/111 89/298/113 81/297/112
f 87/299/114 81/297/112 89/298/113
f 89/298/113 93/300/115 87/299/114
f 91/301/116 87/299/114 93/300/115
f 93/300/115 97/302/117 91/301/116
f 95/303/118 91/301/116 97/302/117
f 97/302/117 105/304/119 95/303/118
f 101/305/120 95/303/118 105/304/119
f 105/304/119 209/306/121 101/305/120
f 207/307/122 101/305/120 209/306/121
f 209/306/121 213/308/123 207/307/122
f 211/309/124 207/307/122 213/308/123
f 213/308/123 217/310/125 211/309/124
f 215/311/126 211/309/124 217/310/125
f 217/310/125 223/312/127 215/311/126
f 221/313/128 215/311/126 223/312/127
f 223/312/127 227/314/129 221/313/128
f 225/315/130 221/313/128 227/314/129
f 227/314/129 233/316/133 225/315/130
f 230/317/134 225/315/130 233/316/133
f 233/316/133 237/318/135 230/317/134
f 235/319/136 230/317/134 237/318/135
f 237/318/135 241/320/137 235/319/136
f 239/321/138 235/319/136 241/320/137
f 241/320/137 255/322/139 239/321/138
f 253/323/140 239/321/138 255/322/139
f 255/322/139 261/324/141 253/323/140
f 259/325/142 253/323/140 261/324/141
f 261/324/141 265/326/143 259/325/142
f 263/327/144 259/325/142 265/326/143
f 265/326/143 268/328/145 263/327/144
f 267/329/146 263/327/144 268/328/145
f 268/328/145 266/330/147 267/329/146
f 264/331/148 267/329/146 266/330/147
f 266/330/147 262/332/149 264/331/148
f 260/333/150 264/331/148 262/332/149
f 262/332/149 256/334/151 260/333/150
f 254/335/152 260/333/150 256/334/151
f 256/334/151 242/336/153 254/335/152
f 240/337/154 254/335/152 242/336/153
f 242/336/153 238/338/155 240/337/154
f 236/339/156 240/337/154 238/338/155
f 238/338/155 234/340/157 236/339/156
f 232/341/158 236/339/156 234/340/157
f 234/340/157 228/342/61 232/341/158
f 226/343/62 232/341/158 228/342/61
f 228/342/61 224/344/63 226/343/62
f 222/345/159 226/343/62 224/344/63
f 224/344/63 218/346/65 222/345/159
f 216/347/66 222/345/159 218/346/65
f 218/346/65 214/348/67 216/347/66
f 212/349/68 216/347/66 214/348/67
f 214/348/67 210/350/69 212/349/68
f 208/351/160 212/349/68 210/350/69
f 210/350/69 106/352/71 208/351/160
f 102/353/72 208/351/160 106/352/71
f 106/352/71 98/354/73 102/353/72
f 96/355/74 102/353/72 98/354/73
f 98/354/73 94/356/75 96/355/74
f 92/357/76 96/355/74 94/356/75
f 94/356/75 90/358/77 92/357/76
f 88/359/78 92/357/76 90/358/77
f 90/358/77 84/360/79 88/359/78
f 82/361/80 88/359/78 84/360/79
f 84/360/79 80/362/81 82/361/80
f 78/363/82 82/361/80 80/362/81
f 80/362/81 76/289/161 78/363/82
f 72/288/161 78/363/82 76/289/161
f 366/364/162 453/365/163 362/36/32
f 449/35/31 362/36/32 453/365/163
f 370/366/164 457/367/165 366/364/162
f 453/365/163 366/364/162 457/367/165
f 372/368/166 460/369/166 370/366/164
f 457/367/165 370/366/164 460/369/166
f 369/370/167 456/371/168 373/372/169
f 459/373/169 373/372/169 456/371/168
f 364/374/170 451/375/171 369/370/167
f 456/371/168 369/370/167 451/375/171
f 360/376/172 447/377/173 364/374/170
f 451/375/171 364/374/170 447/377/173
f 356/378/174 443/379/175 360/376/172
f 447/377/173 360/376/172 443/379/175
f 352/380/176 439/381/177 356/378/174
f 443/379/175 356/378/174 439/381/177
f 348/382/178 435/383/179 352/380/176
f 439/381/177 352/380/176 435/383/179
f 344/384/180 431/385/181 348/382/178
f 435/383/179 348/382/178 431/385/181
f 340/386/182 427/387/183 344/384/180
f 431/385/181 344/384/180 427/387/183
f 336/388/184 423/389/185 340/386/182
f 427/387/183 340/386/182 423/389/185
f 332/390/186 419/391/187 336/388/184
f 423/389/185 336/388/184 419/391/187
f 328/392/188 415/393/189 332/390/186
f 419/391/187 332/390/186 415/393/189
f 323/394/190 410/395/191 328/392/188
f 415/393/189 328/392/188 410/395/191
f 319/396/192 406/397/193 323/394/190
f 410/395/191 323/394/190 406/397/193
f 314/398/194 401/399/195 319/396/192
f 406/397/193 319/396/192 401/399/195
f 311/400/196 398/401/197 314/398/194
f 401/399/195 314/398/194 398/401/197
f 307/402/198 394/403/199 311/400/196
f 398/401/197 311/400/196 394/403/199
f 303/404/200 390/405/201 307/402/198
f 394/403/199 307/402/198 390/405/201
f 299/406/202 386/407/202 303/404/200
f 390/405/201 303/404/200 386/407/202
f 733/169/203 731/408/27 21/174/203
f 19/409/28 21/174/203 731/408/27
f 731/408/27 729/410/29 19/409/28
f 17/411/204 19/409/28 729/410/29
f 729/410/29 725/167/31 17/411/204
f 13/175/32 17/411/204 725/167/31
f 725/167/31 723/412/205 13/175/32
f 11/413/206 13/175/32 723/412/205
f 723/412/205 721/414/207 11/413/206
f 9/415/208 11/413/206 721/414/207
f 721/414/207 719/166/209 9/415/208
f 7/416/210 9/415/208 719/166/209
f 719/166/209 722/417/211 7/416/210
f 10/418/212 7/416/210 722/417/211
f 722/417/211 724/419/213 10/418/212
f 12/420/214 10/418/212 724/419/213
f 724/419/213 727/421/215 12/420/214
f 15/422/216 12/420/214 727/421/215
f 727/421/215 730/423/217 15/422/216
f 18/424/174 15/422/216 730/423/217
f 730/423/217 732/425/177 18/424/174
f 20/426/176 18/424/174 732/425/177
f 732/425/177 736/150/218 20/426/176
f 24/149/218 20/426/176 736/150/218
f 368/427/59 324/428/59 371/368/59
f 365/364/59 324/428/59 368/427/59
f 361/36/59 324/428/59 365/364/59
f 357/34/59 324/428/59 361/36/59
f 353/32/59 324/428/59 357/34/59
f 349/30/59 324/428/59 353/32/59
f 345/429/59 324/428/59 349/30/59
f 341/430/59 324/428/59 345/429/59
f 337/431/59 324/428/59 341/430/59
f 333/432/59 324/428/59 337/431/59
f 329/433/59 324/428/59 333/432/59
f 325/434/59 324/428/59 329/433/59
f 320/435/59 324/428/59 325/434/59
f 316/436/59 324/428/59 320/435/59
f 312/437/59 324/428/59 316/436/59
f 308/438/59 324/428/59 312/437/59
f 304/439/59 324/428/59 308/438/59
f 300/440/59 324/428/59 304/439/59
f 297/441/59 324/428/59 300/440/59
f 295/442/59 324/428/59 297/441/59
f 293/443/59 324/428/59 295/442/59
f 291/444/59 324/428/59 293/443/59
f 289/445/59 324/428/59 291/444/59
f 287/446/59 324/428/59 289/445/59
f 288/447/59 324/428/59 287/446/59
f 290/448/59 324/428/59 288/447/59
f 292/449/59 324/428/59 290/448/59
f 294/450/59 324/428/59 292/449/59
f 296/451/59 324/428/59 294/450/59
f 298/406/59 324/428/59 296/451/59
f 302/452/59 324/428/59 298/406/59
f 306/453/59 324/428/59 302/452/59
f 310/400/59 324/428/59 306/453/59
f 315/454/59 324/428/59 310/400/59
f 318/396/59 324/428/59 315/454/59
f 322/394/59 324/428/59 318/396/59
f 327/455/59 324/428/59 322/394/59
f 331/456/59 324/428/59 327/455/59
f 335/457/59 324/428/59 331/456/59
f 339/458/59 324/428/59 335/457/59
f 343/459/59 324/428/59 339/458/59
f 347/460/59 324/428/59 343/459/59
f 351/461/59 324/428/59 347/460/59
f 355/462/59 324/428/59 351/461/59
f 359/463/59 324/428/59 355/462/59
f 363/464/59 324/428/59 359/463/59
f 367/465/59 324/428/59 363/464/59
f 371/368/59 324/428/59 367/465/59
f 454/466/58 411/467/58 458/369/58
f 450/468/58 411/467/58 454/466/58
f 446/469/58 411/467/58 450/468/58
f 442/470/58 411/467/58 446/469/58
f 438/471/58 411/467/58 442/470/58
f 434/472/58 411/467/58 438/471/58
f 430/473/58 411/467/58 434/472/58
f 426/474/58 411/467/58 430/473/58
f 422/475/58 411/467/58 426/474/58
f 418/476/58 411/467/58 422/475/58
f 414/477/58 411/467/58 418/476/58
f 409/478/58 411/467/58 414/477/58
f 405/397/58 411/467/58 409/478/58
f 402/479/58 411/467/58 405/397/58
f 397/401/58 411/467/58 402/479/58
f 393/480/58 411/467/58 397/401/58
f 389/481/58 411/467/58 393/480/58
f 385/407/58 411/467/58 389/481/58
f 383/482/58 411/467/58 385/407/58
f 381/483/58 411/467/58 383/482/58
f 379/484/58 411/467/58 381/483/58
f 377/485/58 411/467/58 379/484/58
f 375/486/58 411/467/58 377/485/58
f 374/487/58 411/467/58 375/486/58
f 376/488/58 411/467/58 374/487/58
f 378/489/58 411/467/58 376/488/58
f 380/490/58 411/467/58 378/489/58
f 382/491/58 411/467/58 380/490/58
f 384/492/58 411/467/58 382/491/58
f 387/493/58 411/467/58 384/492/58
f 391/494/58 411/467/58 387/493/58
f 395/495/58 411/467/58 391/494/58
f 399/496/58 411/467/58 395/495/58
f 403/497/58 411/467/58 399/496/58
f 407/498/58 411/467/58 403/497/58
f 412/499/58 411/467/58 407/498/58
f 416/500/58 411/467/58 412/499/58
f 420/501/58 411/467/58 416/500/58
f 424/502/58 411/467/58 420/501/58
f 428/503/58 411/467/58 424/502/58
f 432/504/58 411/467/58 428/503/58
f 436/505/58 411/467/58 432/504/58
f 440/31/58 411/467/58 436/505/58
f 444/33/58 411/467/58 440/31/58
f 448/35/58 411/467/58 444/33/58
f 452/365/58 411/467/58 448/35/58
f 455/506/58 411/467/58 452/365/58
f 458/369/58 411/467/58 455/506/58
f 202/507/59 206/508/59 157/509/59
f 198/510/59 202/507/59 157/509/59
f 194/511/59 198/510/59 157/509/59
f 190/512/59 194/511/59 157/509/59
f 186/513/59 190/512/59 157/509/59
f 182/514/59 186/513/59 157/509/59
f 178/515/59 182/514/59 157/509/59
f 174/516/59 178/515/59 157/509/59
f 170/517/59 174/516/59 157/509/59
f 166/518/59 170/517/59 157/509/59
f 162/519/59 166/518/59 157/509/59
f 156/520/59 162/519/59 157/509/59
f 151/521/59 156/520/59 157/509/59
f 147/522/59 151/521/59 157/509/59
f 143/523/59 147/522/59 157/509/59
f 139/524/59 143/523/59 157/509/59
f 135/525/59 139/524/59 157/509/59
f 131/526/59 135/525/59 157/509/59
f 127/527/59 131/526/59 157/509/59
f 123/528/59 127/527/59 157/509/59
f 119/529/59 123/528/59 157/509/59
f 115/530/59 119/529/59 157/509/59
f 111/531/59 115/530/59 157/509/59
f 109/532/59 111/531/59 157/509/59
f 113/533/59 109/532/59 157/509/59
f 117/534/59 113/533/59 157/509/59
f 121/535/59 117/534/59 157/509/59
f 125/536/59 121/535/59 157/509/59
f 129/537/59 125/536/59 157/509/59
f 133/538/59 129/537/59 157/509/59
f 137/539/59 133/538/59 157/509/59
f 141/540/59 137/539/59 157/509/59
f 145/541/59 141/540/59 157/509/59
f 149/542/59 145/541/59 157/509/59
f 153/543/59 149/542/59 157/509/59
f 160/544/59 153/543/59 157/509/59
f 164/545/59 160/544/59 157/509/59
f 168/546/59 164/545/59 157/509/59
f 172/547/59 168/546/59 157/509/59
f 176/548/59 172/547/59 157/509/59
f 180/549/59 176/548/59 157/509/59
f 184/550/59 180/549/59 157/509/59
f 188/551/59 184/550/59 157/509/59
f 192/552/59 188/551/59 157/509/59
f 196/553/59 192/552/59 157/509/59
f 200/554/59 196/553/59 157/509/59
f 204/555/59 200/554/59 157/509/59
f 206/508/59 204/555/59 157/509/59
f 639/556/219 205/557/220 635/558/221
f 201/559/167 635/558/221 205/557/220
f 635/558/221 201/559/167 631/560/222
f 197/561/223 631/560/222 201/559/167
f 631/560/222 197/561/223 627/562/224
f 193/563/172 627/562/224 197/561/223
f 627/562/224 193/563/172 623/564/225
f 189/565/226 623/564/225 193/563/172
f 623/564/225 189/565/226 619/566/227
f 185/567/228 619/566/227 189/565/226
f 619/566/227 185/567/228 615/568/229
f 181/569/230 615/568/229 185/567/228
f 615/568/229 181/569/230 611/570/231
f 177/571/232 611/570/231 181/569/230
f 611/570/231 177/571/232 607/572/233
f 173/573/234 607/572/233 177/571/232
f 607/572/233 173/573/234 603/574/235
f 169/575/236 603/574/235 173/573/234
f 603/574/235 169/575/236 599/576/237
f 165/577/238 599/576/237 169/575/236
f 599/576/237 165/577/238 595/578/239
f 161/579/240 595/578/239 165/577/238
f 595/578/239 161/579/240 589/580/241
f 155/581/241 589/580/241 161/579/240
f 588/582/242 154/520/242 584/583/243
f 150/521/244 584/583/243 154/520/242
f 584/583/243 150/521/244 580/584/245
f 146/522/246 580/584/245 150/521/244
f 580/584/245 146/522/246 576/585/247
f 142/523/248 576/585/247 146/522/246
f 576/585/247 142/523/248 572/586/249
f 138/524/250 572/586/249 142/523/248
f 572/586/249 138/524/250 568/587/251
f 134/525/252 568/587/251 138/524/250
f 568/587/251 134/525/252 564/588/253
f 130/526/254 564/588/253 134/525/252
f 564/588/253 130/526/254 560/589/255
f 126/527/256 560/589/255 130/526/254
f 560/589/255 126/527/256 556/590/257
f 122/528/258 556/590/257 126/527/256
f 556/590/257 122/528/258 552/591/259
f 118/529/260 552/591/259 122/528/258
f 552/591/259 118/529/260 548/592/261
f 114/530/262 548/592/261 118/529/260
f 548/592/261 114/530/262 544/593/263
f 110/531/264 544/593/263 114/530/262
f 544/593/263 110/531/264 541/594/265
f 107/532/265 541/594/265 110/531/264
f 542/595/266 108/596/266 546/597/267
f 112/598/268 546/597/267 108/596/266
f 546/597/267 112/598/268 550/599/269
f 116/600/270 550/599/269 112/598/268
f 550/599/269 116/600/270 554/601/271
f 120/602/272 554/601/271 116/600/270
f 554/601/271 120/602/272 558/603/273
f 124/604/274 558/603/273 120/602/272
f 558/603/273 124/604/274 562/605/275
f 128/606/276 562/605/275 124/604/274
f 562/605/275 128/606/276 566/607/277
f 132/608/278 566/607/277 128/606/276
f 566/607/277 132/608/278 570/609/279
f 136/610/280 570/609/279 132/608/278
f 570/609/279 136/610/280 574/611/281
f 140/612/282 574/611/281 136/610/280
f 574/611/281 140/612/282 578/613/283
f 144/614/284 578/613/283 140/612/282
f 578/613/283 144/614/284 582/615/285
f 148/616/286 582/615/285 144/614/284
f 582/615/285 148/616/286 586/617/287
f 152/618/288 586/617/287 148/616/286
f 586/617/287 152/618/288 592/619/289
f 158/620/289 592/619/289 152/618/288
f 593/619/290 159/620/290 597/621/291
f 163/622/292 597/621/291 159/620/290
f 597/621/291 163/622/292 601/623/293
f 167/624/294 601/623/293 163/622/292
f 601/623/293 167/624/294 605/625/295
f 171/626/296 605/625/295 167/624/294
f 605/625/295 171/626/296 609/627/297
f 175/628/298 609/627/297 171/626/296
f 609/627/297 175/628/298 613/629/299
f 179/630/300 613/629/299 175/628/298
f 613/629/299 179/630/300 617/631/301
f 183/550/302 617/631/301 179/630/300
f 617/631/301 183/550/302 621/632/303
f 187/551/304 621/632/303 183/550/302
f 621/632/303 187/551/304 625/633/305
f 191/552/306 625/633/305 187/551/304
f 625/633/305 191/552/306 629/634/307
f 195/553/308 629/634/307 191/552/306
f 629/634/307 195/553/308 633/635/309
f 199/554/310 633/635/309 195/553/308
f 633/635/309 199/554/310 637/636/311
f 203/555/312 637/636/311 199/554/310
f 637/636/311 203/555/312 639/556/219
f 205/557/220 639/556/219 203/555/312
f 636/637/58 591/638/58 640/556/58
f 632/639/58 591/638/58 636/637/58
f 628/640/58 591/638/58 632/639/58
f 624/641/58 591/638/58 628/640/58
f 620/642/58 591/638/58 624/641/58
f 616/643/58 591/638/58 620/642/58
f 612/644/58 591/638/58 616/643/58
f 608/645/58 591/638/58 612/644/58
f 604/646/58 591/638/58 608/645/58
f 600/647/58 591/638/58 604/646/58
f 596/648/58 591/638/58 600/647/58
f 590/582/58 591/638/58 596/648/58
f 585/583/58 591/638/58 590/582/58
f 581/584/58 591/638/58 585/583/58
f 577/585/58 591/638/58 581/584/58
f 573/586/58 591/638/58 577/585/58
f 569/587/58 591/638/58 573/586/58
f 565/588/58 591/638/58 569/587/58
f 561/589/58 591/638/58 565/588/58
f 557/590/58 591/638/58 561/589/58
f 553/591/58 591/638/58 557/590/58
f 549/592/58 591/638/58 553/591/58
f 545/593/58 591/638/58 549/592/58
f 543/594/58 591/638/58 545/593/58
f 547/649/58 591/638/58 543/594/58
f 551/650/58 591/638/58 547/649/58
f 555/651/58 591/638/58 551/650/58
f 559/652/58 591/638/58 555/651/58
f 563/653/58 591/638/58 559/652/58
f 567/654/58 591/638/58 563/653/58
f 571/655/58 591/638/58 567/654/58
f 575/656/58 591/638/58 571/655/58
f 579/657/58 591/638/58 575/656/58
f 583/658/58 591/638/58 579/657/58
f 587/659/58 591/638/58 583/658/58
f 594/660/58 591/638/58 587/659/58
f 598/661/58 591/638/58 594/660/58
f 602/662/58 591/638/58 598/661/58
f 606/663/58 591/638/58 602/662/58
f 610/664/58 591/638/58 606/663/58
f 614/665/58 591/638/58 610/664/58
f 618/666/58 591/638/58 614/665/58
f 622/632/58 591/638/58 618/666/58
f 626/633/58 591/638/58 622/632/58
f 630/634/58 591/638/58 626/633/58
f 634/635/58 591/638/58 630/634/58
f 638/636/58 591/638/58 634/635/58
f 640/556/58 591/638/58 638/636/58
