# Blender 4.5.2 LTS
# www.blender.org
mtllib left_leg_dark_purple.mtl
o left_leg_dark_purple
v 10.000000 8.899998 -8.500002
v 10.000000 8.899998 -8.500002
v 10.000000 8.899998 -8.500002
v 8.000000 5.999998 -8.500002
v 8.000000 5.999998 -8.500002
v 8.000000 5.999998 -8.500002
v -5.000001 5.299997 -8.500002
v -5.000001 5.299997 -8.500002
v -5.000001 5.299997 -8.500002
v 4.800000 3.799997 -8.500002
v 4.800000 3.799997 -8.500002
v -2.800001 3.799997 -8.500002
v -2.800001 3.799997 -8.500002
v 1.000000 2.999998 -8.500002
v 1.000000 2.999998 -8.500002
v -5.000001 -6.999999 -8.500000
v -5.000001 -6.999999 -8.500000
v -5.000001 -6.999999 -8.500000
v -10.000001 -6.999999 -8.500000
v -10.000001 -6.999999 -8.500000
v -10.000001 -6.999999 -8.500000
v 10.000000 -15.000000 -8.500000
v 10.000000 -15.000000 -8.500000
v 10.000000 -15.000000 -8.500000
v -10.000001 -15.000000 -8.500000
v -10.000001 -15.000000 -8.500000
v -10.000001 -15.000000 -8.500000
v 1.000000 22.000000 -8.000002
v 1.000000 22.000000 -8.000002
v 1.000000 22.000000 -8.000002
v 4.420000 21.279999 -8.000002
v 4.420000 21.279999 -8.000002
v -2.420001 21.279999 -8.000002
v -2.420001 21.279999 -8.000002
v 7.299999 19.299999 -8.000002
v 7.299999 19.299999 -8.000002
v -5.300000 19.299999 -8.000002
v -5.300000 19.299999 -8.000002
v 9.280001 16.419998 -8.000002
v 9.280001 16.419998 -8.000002
v -7.280000 16.419998 -8.000002
v -7.280000 16.419998 -8.000002
v 1.000000 15.999998 -8.000002
v 1.000000 15.999998 -8.000002
v 1.000000 15.999998 -8.000002
v 1.392000 15.973999 -8.000002
v 0.609000 15.973999 -8.000002
v 1.776000 15.897999 -8.000002
v 0.224000 15.897999 -8.000002
v 2.148000 15.771997 -8.000002
v 2.148000 15.771997 -8.000002
v -0.148001 15.771997 -8.000002
v -0.148001 15.771997 -8.000002
v 2.500000 15.597998 -8.000002
v -0.500001 15.597998 -8.000002
v 2.826000 15.379997 -8.000002
v -0.826001 15.379997 -8.000002
v 3.121000 15.120998 -8.000002
v 3.121000 15.120998 -8.000002
v 3.121000 15.120998 -8.000002
v -1.121001 15.120998 -8.000002
v -1.121001 15.120998 -8.000002
v 3.380000 14.825998 -8.000002
v -1.380001 14.825998 -8.000002
v -1.380001 14.825998 -8.000002
v 3.598000 14.499998 -8.000002
v -1.598001 14.499998 -8.000002
v 3.772000 14.147999 -8.000002
v 3.772000 14.147999 -8.000002
v -1.772001 14.147999 -8.000002
v -1.772001 14.147999 -8.000002
v 3.898000 13.775997 -8.000002
v -1.898001 13.775997 -8.000002
v 3.974000 13.391998 -8.000002
v -1.974001 13.391998 -8.000002
v 10.000000 12.999998 -8.000002
v 10.000000 12.999998 -8.000002
v 4.000000 12.999998 -8.000002
v 4.000000 12.999998 -8.000002
v 4.000000 12.999998 -8.000002
v -2.000001 12.999998 -8.000002
v -2.000001 12.999998 -8.000002
v -2.000001 12.999998 -8.000002
v -8.000000 12.999998 -8.000002
v -8.000000 12.999998 -8.000002
v 3.974000 12.608997 -8.000002
v -1.974001 12.608997 -8.000002
v 3.898000 12.223999 -8.000002
v -1.898001 12.223999 -8.000002
v 3.772000 11.851997 -8.000002
v 3.772000 11.851997 -8.000002
v -1.772001 11.851997 -8.000002
v -1.772001 11.851997 -8.000002
v 3.598000 11.499998 -8.000002
v -1.598001 11.499998 -8.000002
v 3.380000 11.173998 -8.000002
v -1.380001 11.173998 -8.000002
v 3.121000 10.878998 -8.000002
v 3.121000 10.878998 -8.000002
v 3.121000 10.878998 -8.000002
v -1.121001 10.878998 -8.000002
v -1.121001 10.878998 -8.000002
v 2.826000 10.619999 -8.000002
v -0.826001 10.619999 -8.000002
v -0.826001 10.619999 -8.000002
v 2.500000 10.401999 -8.000002
v -0.500001 10.401999 -8.000002
v 2.148000 10.227999 -8.000002
v 2.148000 10.227999 -8.000002
v -0.148001 10.227999 -8.000002
v -0.148001 10.227999 -8.000002
v 1.776000 10.101997 -8.000002
v 0.224000 10.101997 -8.000002
v 1.392000 10.025997 -8.000002
v 0.609000 10.025997 -8.000002
v 1.000000 9.999998 -8.000002
v 1.000000 9.999998 -8.000002
v 1.000000 9.999998 -8.000002
v -7.280000 9.579998 -8.000002
v -7.280000 9.579998 -8.000002
v 10.000000 8.899998 -8.000002
v 10.000000 8.899998 -8.000002
v 10.000000 8.899998 -8.000002
v -5.000001 6.259998 -8.000002
v -5.000001 6.259998 -8.000002
v -5.000001 6.259998 -8.000002
v 8.000000 5.999998 -8.000002
v 8.000000 5.999998 -8.000002
v 8.000000 5.999998 -8.000002
v -5.000001 5.299997 -8.000002
v -5.000001 5.299997 -8.000002
v -5.000001 5.299997 -8.000002
v 4.800000 3.799997 -8.000002
v 4.800000 3.799997 -8.000002
v -2.800001 3.799997 -8.000002
v -2.800001 3.799997 -8.000002
v 1.000000 2.999998 -8.000002
v 1.000000 2.999998 -8.000002
v 9.579000 14.999998 -6.000002
v 9.579000 14.999998 -6.000002
v 6.000000 14.999998 -6.000002
v 6.000000 14.999998 -6.000002
v 6.000000 4.999998 -6.000002
v 6.000000 4.999998 -6.000002
v 6.000000 4.999998 -6.000002
v -2.000000 4.999998 -6.000002
v -2.000000 4.999998 -6.000002
v -2.000000 4.999998 -6.000002
v 10.000000 0.999999 -6.000002
v 6.000000 0.999999 -6.000002
v 6.000000 0.999999 -6.000002
v 10.000000 -5.000001 -6.000000
v 10.000000 -5.000001 -6.000000
v 10.000000 -5.000001 -6.000000
v 6.000000 -5.000001 -6.000000
v 6.000000 -5.000001 -6.000000
v 6.000000 -5.000001 -6.000000
v 6.000000 -5.000001 -6.000000
v 10.000000 -11.000000 -6.000000
v 6.000000 -11.000000 -6.000000
v 6.000000 -11.000000 -6.000000
v 6.000000 -11.000000 -6.000000
v 6.000000 -11.000000 -6.000000
v -2.000000 -11.000000 -6.000000
v -2.000000 -11.000000 -6.000000
v -2.000000 -11.000000 -6.000000
v -2.000000 -11.000000 -6.000000
v -6.000000 -11.000000 -6.000000
v -6.000000 -11.000000 -6.000000
v -6.000000 -11.000000 -6.000000
v 6.000000 -15.000000 -6.000000
v 6.000000 -15.000000 -6.000000
v 6.000000 -15.000000 -6.000000
v -6.000000 -15.000000 -6.000000
v -6.000000 -15.000000 -6.000000
v -6.000000 -15.000000 -6.000000
v 10.000000 -4.217001 -5.948001
v 10.000000 -4.217001 -5.948001
v 6.000000 -4.217001 -5.948001
v 6.000000 -4.217001 -5.948001
v 10.000000 -5.783000 -5.948001
v 10.000000 -5.783000 -5.948001
v 6.000000 -5.783000 -5.948001
v 6.000000 -5.783000 -5.948001
v 10.000000 -3.447001 -5.795001
v 10.000000 -3.447001 -5.795001
v 6.000000 -3.447001 -5.795001
v 6.000000 -3.447001 -5.795001
v 10.000000 -6.552999 -5.795001
v 10.000000 -6.552999 -5.795001
v 6.000000 -6.552999 -5.795001
v 6.000000 -6.552999 -5.795001
v 9.280001 16.419998 -5.718002
v 9.280001 16.419998 -5.718002
v 10.000000 12.999998 -5.602002
v 10.000000 12.999998 -5.602002
v 8.677999 17.296001 -5.543003
v 8.677999 17.296001 -5.543003
v 6.000000 17.296001 -5.543003
v 6.000000 17.296001 -5.543003
v 10.000000 12.703999 -5.543002
v 10.000000 12.703999 -5.543002
v 6.000000 12.703999 -5.543002
v 6.000000 12.703999 -5.543002
v 10.000000 -2.704001 -5.543001
v 10.000000 -2.704001 -5.543001
v 6.000000 -2.704001 -5.543001
v 6.000000 -2.704001 -5.543001
v 10.000000 -7.296000 -5.543001
v 10.000000 -7.296000 -5.543001
v 6.000000 -7.296000 -5.543001
v 6.000000 -7.296000 -5.543001
v 10.000000 -2.000001 -5.196001
v 10.000000 -2.000001 -5.196001
v 6.000000 -2.000001 -5.196001
v 6.000000 -2.000001 -5.196001
v 10.000000 -8.000000 -5.196001
v 10.000000 -8.000000 -5.196001
v 6.000000 -8.000000 -5.196001
v 6.000000 -8.000000 -5.196001
v 10.000000 -1.347001 -4.760001
v 10.000000 -1.347001 -4.760001
v 6.000000 -1.347001 -4.760001
v 6.000000 -1.347001 -4.760001
v 10.000000 -8.653000 -4.760001
v 10.000000 -8.653000 -4.760001
v 6.000000 -8.653000 -4.760001
v 6.000000 -8.653000 -4.760001
v 7.340000 19.243000 -4.243003
v 7.340000 19.243000 -4.243003
v 7.340000 19.243000 -4.243003
v 6.000000 19.243000 -4.243003
v 6.000000 19.243000 -4.243003
v 6.000000 19.243000 -4.243003
v 10.000000 10.756998 -4.243002
v 10.000000 10.756998 -4.243002
v 10.000000 10.756998 -4.243002
v 6.000000 10.756998 -4.243002
v 6.000000 10.756998 -4.243002
v 6.000000 10.756998 -4.243002
v 10.000000 -0.757001 -4.243001
v 10.000000 -0.757001 -4.243001
v 10.000000 -0.757001 -4.243001
v 6.000000 -0.757001 -4.243001
v 6.000000 -0.757001 -4.243001
v 6.000000 -0.757001 -4.243001
v 10.000000 -9.243000 -4.243000
v 10.000000 -9.243000 -4.243000
v 10.000000 -9.243000 -4.243000
v 6.000000 -9.243000 -4.243000
v 6.000000 -9.243000 -4.243000
v 6.000000 -9.243000 -4.243000
v 7.299999 19.299999 -4.157002
v 7.299999 19.299999 -4.157002
v 10.000000 -0.240001 -3.653001
v 10.000000 -0.240001 -3.653001
v 6.000000 -0.240001 -3.653001
v 6.000000 -0.240001 -3.653001
v 10.000000 -9.760000 -3.653000
v 10.000000 -9.760000 -3.653000
v 6.000000 -9.760000 -3.653000
v 6.000000 -9.760000 -3.653000
v 10.000000 0.195999 -3.000001
v 10.000000 0.195999 -3.000001
v 6.000000 0.195999 -3.000001
v 6.000000 0.195999 -3.000001
v 10.000000 -10.196000 -3.000000
v 10.000000 -10.196000 -3.000000
v 6.000000 -10.196000 -3.000000
v 6.000000 -10.196000 -3.000000
v 6.000000 20.194000 -2.819003
v 6.000000 20.194000 -2.819003
v 6.000000 20.194000 -2.819003
v 6.000000 20.194000 -2.819003
v 6.000000 20.542999 -2.296002
v 6.000000 20.542999 -2.296002
v 6.000000 20.542999 -2.296002
v 5.491000 20.542999 -2.296002
v 5.491000 20.542999 -2.296002
v 5.491000 20.542999 -2.296002
v 10.000000 9.457001 -2.296001
v 10.000000 9.457001 -2.296001
v 10.000000 9.457001 -2.296001
v 10.000000 0.542999 -2.296000
v 10.000000 0.542999 -2.296000
v 6.000000 0.542999 -2.296000
v 6.000000 0.542999 -2.296000
v 10.000000 -10.542999 -2.296000
v 10.000000 -10.542999 -2.296000
v 6.000000 -10.542999 -2.296000
v 6.000000 -10.542999 -2.296000
v 6.000000 19.000000 -2.280003
v 6.000000 19.000000 -2.280003
v 6.000000 19.000000 -2.280003
v 1.000000 19.000000 -2.280003
v 1.000000 19.000000 -2.280003
v 1.000000 19.000000 -2.280003
v 1.000000 19.000000 -2.280003
v 0.217000 18.948002 -2.280003
v 0.217000 18.948002 -2.280003
v -0.553000 18.794998 -2.280003
v -0.553000 18.794998 -2.280003
v -1.296000 18.542999 -2.280003
v -1.296000 18.542999 -2.280003
v -2.000000 18.195999 -2.280003
v -2.000000 18.195999 -2.280003
v -2.653000 17.759998 -2.280003
v -2.653000 17.759998 -2.280003
v -3.243000 17.243000 -2.280003
v -3.243000 17.243000 -2.280003
v -3.760000 16.653000 -2.280003
v -3.760000 16.653000 -2.280003
v -3.760000 16.653000 -2.280003
v 4.000000 16.000000 -2.280002
v 4.000000 16.000000 -2.280002
v 1.000000 16.000000 -2.280002
v 1.000000 16.000000 -2.280002
v 1.000000 16.000000 -2.280002
v 1.000000 16.000000 -2.280002
v 1.000000 16.000000 -2.280002
v -4.196000 16.000000 -2.280002
v -4.196000 16.000000 -2.280002
v 1.392000 15.974001 -2.280002
v 0.609000 15.974001 -2.280002
v 0.609000 15.974001 -2.280002
v 1.776000 15.898001 -2.280002
v 0.224000 15.898001 -2.280002
v 0.224000 15.898001 -2.280002
v 2.148000 15.771999 -2.280002
v 2.148000 15.771999 -2.280002
v -0.148001 15.771999 -2.280002
v -0.148001 15.771999 -2.280002
v 2.500000 15.598000 -2.280002
v -0.500000 15.598000 -2.280002
v -0.500000 15.598000 -2.280002
v 2.826000 15.379999 -2.280002
v -0.826000 15.379999 -2.280002
v -0.826000 15.379999 -2.280002
v -4.543000 15.296000 -2.280002
v -4.543000 15.296000 -2.280002
v 3.121000 15.121000 -2.280002
v 3.121000 15.121000 -2.280002
v 3.121000 15.121000 -2.280002
v -1.121000 15.121000 -2.280002
v -1.121000 15.121000 -2.280002
v 3.380000 14.826000 -2.280002
v -1.380000 14.826000 -2.280002
v -1.380000 14.826000 -2.280002
v -1.380000 14.826000 -2.280002
v -4.795000 14.552999 -2.280002
v -4.795000 14.552999 -2.280002
v 3.598000 14.500000 -2.280002
v -1.598001 14.500000 -2.280002
v -1.598001 14.500000 -2.280002
v 3.772000 14.148001 -2.280002
v 3.772000 14.148001 -2.280002
v -1.772000 14.148001 -2.280002
v -1.772000 14.148001 -2.280002
v -4.948000 13.783001 -2.280002
v -4.948000 13.783001 -2.280002
v 3.898000 13.775999 -2.280002
v -1.898000 13.775999 -2.280002
v -1.898000 13.775999 -2.280002
v 3.974000 13.392000 -2.280002
v -1.974000 13.392000 -2.280002
v -1.974000 13.392000 -2.280002
v 4.000000 13.000000 -2.280002
v 4.000000 13.000000 -2.280002
v 4.000000 13.000000 -2.280002
v 4.000000 13.000000 -2.280002
v -2.000000 13.000000 -2.280002
v -2.000000 13.000000 -2.280002
v -2.000000 13.000000 -2.280002
v -2.000000 13.000000 -2.280002
v -2.000000 13.000000 -2.280002
v -5.000000 13.000000 -2.280002
v -5.000000 13.000000 -2.280002
v -5.000000 13.000000 -2.280002
v -5.000000 13.000000 -2.280002
v 3.974000 12.608999 -2.280002
v -1.974000 12.608999 -2.280002
v 3.898000 12.224001 -2.280002
v -1.898000 12.224001 -2.280002
v 3.772000 11.851999 -2.280002
v 3.772000 11.851999 -2.280002
v -1.772000 11.851999 -2.280002
v -1.772000 11.851999 -2.280002
v 3.598000 11.500000 -2.280002
v -1.598001 11.500000 -2.280002
v 3.380000 11.174000 -2.280002
v -1.380000 11.174000 -2.280002
v 3.121000 10.879000 -2.280002
v 3.121000 10.879000 -2.280002
v 3.121000 10.879000 -2.280002
v -1.121000 10.879000 -2.280002
v -1.121000 10.879000 -2.280002
v -4.540000 10.700001 -2.280002
v -4.540000 10.700001 -2.280002
v 2.826000 10.620001 -2.280002
v -0.826000 10.620001 -2.280002
v -0.826000 10.620001 -2.280002
v 2.500000 10.402000 -2.280002
v -0.500000 10.402000 -2.280002
v 2.148000 10.228001 -2.280002
v 2.148000 10.228001 -2.280002
v -0.148001 10.228001 -2.280002
v -0.148001 10.228001 -2.280002
v 1.776000 10.101999 -2.280002
v 0.224000 10.101999 -2.280002
v 1.392000 10.025999 -2.280002
v 0.609000 10.025999 -2.280002
v 4.000000 10.000000 -2.280002
v 4.000000 10.000000 -2.280002
v 1.000000 10.000000 -2.280002
v 1.000000 10.000000 -2.280002
v 1.000000 10.000000 -2.280002
v 1.000000 10.000000 -2.280002
v 1.000000 10.000000 -2.280002
v -2.000000 10.000000 -2.280002
v -2.000000 10.000000 -2.280002
v 6.000000 9.450001 -2.280002
v 6.000000 9.450001 -2.280002
v 6.000000 9.450001 -2.280002
v 6.000000 9.450001 -2.280002
v -3.710000 9.450001 -2.280002
v -3.710000 9.450001 -2.280002
v -3.710000 9.450001 -2.280002
v 10.000000 0.794999 -1.553001
v 10.000000 0.794999 -1.553001
v 6.000000 0.794999 -1.553001
v 6.000000 0.794999 -1.553001
v 10.000000 -10.795000 -1.553000
v 10.000000 -10.795000 -1.553000
v 6.000000 -10.795000 -1.553000
v 6.000000 -10.795000 -1.553000
v 10.000000 0.947999 -0.783001
v 10.000000 0.947999 -0.783001
v 6.000000 0.947999 -0.783001
v 6.000000 0.947999 -0.783001
v 10.000000 -10.948000 -0.783000
v 10.000000 -10.948000 -0.783000
v 6.000000 -10.948000 -0.783000
v 6.000000 -10.948000 -0.783000
v 6.000000 21.000000 0.000000
v 6.000000 21.000000 0.000000
v 4.827000 21.000000 0.000000
v 4.827000 21.000000 0.000000
v 10.000000 9.000000 -0.000001
v 10.000000 9.000000 -0.000001
v -3.400000 9.000000 0.000001
v -3.400000 9.000000 0.000001
v 10.000000 0.999999 -0.000001
v 10.000000 0.999999 -0.000001
v 10.000000 0.999999 -0.000001
v 6.000000 0.999999 0.000000
v 6.000000 0.999999 0.000000
v 6.000000 0.999999 0.000000
v 6.000000 0.999999 0.000000
v 6.000000 0.999999 0.000000
v 10.000000 -11.000000 0.000000
v 10.000000 -11.000000 0.000000
v 10.000000 -11.000000 0.000000
v 6.000000 -11.000000 0.000000
v 6.000000 -11.000000 0.000000
v 6.000000 -11.000000 0.000000
v 6.000000 -11.000000 0.000000
v 6.000000 -11.000000 0.000000
v 10.000000 0.947999 0.782999
v 10.000000 0.947999 0.782999
v 6.000000 0.947999 0.783000
v 6.000000 0.947999 0.783000
v 10.000000 -10.948000 0.782999
v 10.000000 -10.948000 0.782999
v 6.000000 -10.948000 0.783000
v 6.000000 -10.948000 0.783000
v 10.000000 0.794999 1.552999
v 10.000000 0.794999 1.552999
v 6.000000 0.794999 1.552999
v 6.000000 0.794999 1.552999
v 10.000000 -10.795000 1.552999
v 10.000000 -10.795000 1.552999
v 6.000000 -10.795000 1.552999
v 6.000000 -10.795000 1.552999
v 6.000000 20.542999 2.295999
v 6.000000 20.542999 2.295999
v 6.000000 20.542999 2.295999
v 5.491000 20.542999 2.295999
v 5.491000 20.542999 2.295999
v 5.491000 20.542999 2.295999
v 10.000000 9.457001 2.295999
v 10.000000 9.457001 2.295999
v 10.000000 0.542999 2.295999
v 10.000000 0.542999 2.295999
v 6.000000 0.542999 2.295999
v 6.000000 0.542999 2.295999
v 10.000000 -10.543001 2.295999
v 10.000000 -10.543001 2.295999
v 6.000000 -10.543001 2.296000
v 6.000000 -10.543001 2.296000
v -3.710000 9.459999 2.300001
v -3.710000 9.459999 2.300001
v 6.000000 20.194000 2.818999
v 6.000000 20.194000 2.818999
v 6.000000 20.194000 2.818999
v 6.000000 20.194000 2.818999
v 10.000000 0.195999 2.999999
v 10.000000 0.195999 2.999999
v 6.000000 0.195999 2.999999
v 6.000000 0.195999 2.999999
v 10.000000 -10.196001 2.999999
v 10.000000 -10.196001 2.999999
v 6.000000 -10.196001 3.000000
v 6.000000 -10.196001 3.000000
v 10.000000 -0.240001 3.652999
v 10.000000 -0.240001 3.652999
v 6.000000 -0.240001 3.652999
v 6.000000 -0.240001 3.652999
v 10.000000 -9.760000 3.652998
v 10.000000 -9.760000 3.652998
v 6.000000 -9.760000 3.652998
v 6.000000 -9.760000 3.652998
v 7.299999 19.299999 4.157000
v 7.299999 19.299999 4.157000
v -4.549999 10.760000 4.240001
v -4.549999 10.760000 4.240001
v -4.549999 10.760000 4.240001
v 7.340000 19.243000 4.242999
v 7.340000 19.243000 4.242999
v 7.340000 19.243000 4.242999
v 6.000000 19.243000 4.243000
v 6.000000 19.243000 4.243000
v 6.000000 19.243000 4.243000
v 10.000000 10.757000 4.242999
v 10.000000 10.757000 4.242999
v 10.000000 10.757000 4.242999
v 10.000000 -0.757000 4.242999
v 10.000000 -0.757000 4.242999
v 10.000000 -0.757000 4.242999
v 6.000000 -0.757000 4.242999
v 6.000000 -0.757000 4.242999
v 6.000000 -0.757000 4.242999
v 10.000000 -9.243000 4.242999
v 10.000000 -9.243000 4.242999
v 10.000000 -9.243000 4.242999
v 6.000000 -9.243000 4.243000
v 6.000000 -9.243000 4.243000
v 6.000000 -9.243000 4.243000
v 6.000000 19.000000 4.340000
v 6.000000 19.000000 4.340000
v 6.000000 19.000000 4.340000
v 1.000000 19.000000 4.340001
v 1.000000 19.000000 4.340001
v 1.000000 19.000000 4.340001
v 1.000000 19.000000 4.340001
v 1.000000 19.000000 4.340001
v 0.217000 18.948002 4.340001
v 0.217000 18.948002 4.340001
v -0.552999 18.794998 4.340001
v -0.552999 18.794998 4.340001
v -0.552999 18.794998 4.340001
v -1.296000 18.542999 4.340001
v -1.296000 18.542999 4.340001
v -1.999999 18.195999 4.340001
v -1.999999 18.195999 4.340001
v -2.652999 17.759998 4.340001
v -2.652999 17.759998 4.340001
v -3.243000 17.243000 4.340001
v -3.243000 17.243000 4.340001
v -3.759999 16.653000 4.340001
v -3.759999 16.653000 4.340001
v -3.759999 16.653000 4.340001
v -4.196000 16.000000 4.340001
v -4.196000 16.000000 4.340001
v -4.542999 15.296000 4.340001
v -4.542999 15.296000 4.340001
v -4.794999 14.552999 4.340001
v -4.794999 14.552999 4.340001
v -4.947999 13.783001 4.340001
v -4.947999 13.783001 4.340001
v 1.000000 13.000000 4.340000
v 1.000000 13.000000 4.340000
v -4.999999 13.000000 4.340001
v -4.999999 13.000000 4.340001
v -4.999999 13.000000 4.340001
v -4.999999 13.000000 4.340001
v 6.000000 10.900000 4.339999
v 6.000000 10.900000 4.339999
v 6.000000 10.900000 4.339999
v -4.579999 10.900000 4.340001
v -4.579999 10.900000 4.340001
v -4.579999 10.900000 4.340001
v 10.000000 -1.347000 4.759998
v 10.000000 -1.347000 4.759998
v 6.000000 -1.347000 4.759999
v 6.000000 -1.347000 4.759999
v 10.000000 -8.653000 4.759998
v 10.000000 -8.653000 4.759998
v 6.000000 -8.653000 4.759998
v 6.000000 -8.653000 4.759998
v 10.000000 -2.000000 5.195999
v 10.000000 -2.000000 5.195999
v 6.000000 -2.000000 5.195999
v 6.000000 -2.000000 5.195999
v 10.000000 -8.000000 5.195999
v 10.000000 -8.000000 5.195999
v 6.000000 -8.000000 5.196000
v 6.000000 -8.000000 5.196000
v 8.677999 17.296001 5.542999
v 8.677999 17.296001 5.542999
v 6.000000 17.296001 5.543000
v 6.000000 17.296001 5.543000
v 10.000000 12.704000 5.542999
v 10.000000 12.704000 5.542999
v 6.000000 12.704000 5.542999
v 6.000000 12.704000 5.542999
v 10.000000 -2.704000 5.542998
v 10.000000 -2.704000 5.542998
v 6.000000 -2.704000 5.542999
v 6.000000 -2.704000 5.542999
v 10.000000 -7.296000 5.542998
v 10.000000 -7.296000 5.542998
v 6.000000 -7.296000 5.542998
v 6.000000 -7.296000 5.542998
v 10.000000 13.000000 5.601999
v 10.000000 13.000000 5.601999
v 9.280001 16.420000 5.717999
v 9.280001 16.420000 5.717999
v 10.000000 -3.447000 5.794999
v 10.000000 -3.447000 5.794999
v 6.000000 -3.447000 5.794999
v 6.000000 -3.447000 5.794999
v 10.000000 -6.553000 5.794999
v 10.000000 -6.553000 5.794999
v 6.000000 -6.553000 5.795000
v 6.000000 -6.553000 5.795000
v 10.000000 -4.217000 5.947998
v 10.000000 -4.217000 5.947998
v 6.000000 -4.217000 5.947999
v 6.000000 -4.217000 5.947999
v 10.000000 -5.783000 5.947999
v 10.000000 -5.783000 5.947999
v 6.000000 -5.783000 5.947999
v 6.000000 -5.783000 5.947999
v 9.579000 15.000000 5.999999
v 9.579000 15.000000 5.999999
v 6.000000 15.000000 6.000000
v 6.000000 15.000000 6.000000
v 6.000000 5.000000 6.000000
v 6.000000 5.000000 6.000000
v 6.000000 5.000000 6.000000
v -1.999999 5.000000 6.000000
v -1.999999 5.000000 6.000000
v -1.999999 5.000000 6.000000
v 10.000000 1.000000 5.999999
v 6.000000 1.000000 5.999999
v 6.000000 1.000000 5.999999
v 10.000000 -5.000000 5.999999
v 10.000000 -5.000000 5.999999
v 10.000000 -5.000000 5.999999
v 6.000000 -5.000000 5.999999
v 6.000000 -5.000000 5.999999
v 6.000000 -5.000000 5.999999
v 6.000000 -5.000000 5.999999
v 10.000000 -11.000000 5.999999
v 6.000000 -11.000000 6.000000
v 6.000000 -11.000000 6.000000
v 6.000000 -11.000000 6.000000
v 6.000000 -11.000000 6.000000
v -1.999999 -11.000000 6.000000
v -1.999999 -11.000000 6.000000
v -1.999999 -11.000000 6.000000
v -1.999999 -11.000000 6.000000
v -5.999999 -11.000000 6.000001
v -5.999999 -11.000000 6.000001
v -5.999999 -11.000000 6.000001
v 6.000000 -15.000000 5.999999
v 6.000000 -15.000000 5.999999
v 6.000000 -15.000000 5.999999
v -5.999999 -15.000000 6.000000
v -5.999999 -15.000000 6.000000
v -5.999999 -15.000000 6.000000
v 1.000000 22.000000 8.000000
v 1.000000 22.000000 8.000000
v 1.000000 22.000000 8.000000
v 4.420000 21.279999 8.029999
v 4.420000 21.279999 8.029999
v -2.419999 21.279999 8.030001
v -2.419999 21.279999 8.030001
v 7.299999 19.299999 8.109999
v 7.299999 19.299999 8.109999
v -5.299998 19.299999 8.110001
v -5.299998 19.299999 8.110001
v 9.280001 16.420000 8.229999
v 9.280001 16.420000 8.229999
v -7.279998 16.420000 8.230000
v -7.279998 16.420000 8.230000
v 10.000000 13.000000 8.359998
v 10.000000 13.000000 8.359998
v 1.000000 13.000000 8.360000
v -7.999999 13.000000 8.360001
v -7.999999 13.000000 8.360001
v -7.279998 9.580000 8.500001
v -7.279998 9.580000 8.500001
v -4.999999 6.260000 8.639999
v -4.999999 6.260000 8.639999
v -4.999999 6.260000 8.639999
v -4.999999 5.299999 8.679999
v -4.999999 -7.000000 9.179999
v -4.999999 -7.000000 9.179999
v -4.999999 -7.000000 9.179999
v -9.999998 -7.000000 9.180000
v -9.999998 -7.000000 9.180000
v -9.999998 -7.000000 9.180000
v 10.000000 -15.000000 9.499998
v 10.000000 -15.000000 9.499998
v 10.000000 -15.000000 9.499998
v -9.999998 -15.000000 9.500001
v -9.999998 -15.000000 9.500001
v -9.999998 -15.000000 9.500001
vn -0.0000 1.0000 -0.0000
vn -1.0000 -0.0000 -0.0000
vn -0.8243 -0.5661 -0.0000
vn -0.8853 -0.4650 -0.0000
vn -0.9389 -0.3442 -0.0000
vn -1.0000 -0.0008 -0.0000
vn -0.9195 0.3932 -0.0000
vn -0.9191 0.3939 -0.0000
vn -0.7495 0.6620 -0.0000
vn -0.6623 0.7492 -0.0000
vn 0.0003 0.0406 0.9992
vn -0.0000 0.0400 0.9992
vn 0.0003 0.0405 0.9992
vn 0.0001 0.0412 0.9992
vn -0.0000 0.0406 0.9992
vn -0.0006 0.0394 0.9992
vn -0.0007 0.0404 0.9992
vn -0.0003 0.0400 0.9992
vn 0.0003 0.0400 0.9992
vn 0.0007 0.0404 0.9992
vn 0.0006 0.0394 0.9992
vn -0.0000 0.0394 0.9992
vn -0.0002 0.0414 0.9991
vn -0.0000 -0.0000 -1.0000
vn -0.0000 -0.0000 1.0000
vn -0.0000 -1.0000 -0.0000
vn 0.4204 0.9073 -0.0000
vn 0.5633 0.8262 -0.0000
vn 0.3016 0.9534 -0.0000
vn 0.0700 0.9975 -0.0000
vn -0.0700 0.9975 -0.0000
vn -0.3319 0.9433 -0.0000
vn -0.4542 0.8909 -0.0000
vn -0.5665 0.8240 -0.0000
vn -0.8232 0.5677 -0.0000
vn 0.9449 0.3272 -0.0010
vn 0.9806 0.1961 -0.0000
vn 0.9804 0.1969 -0.0000
vn 0.8537 0.5207 -0.0035
vn 0.8344 0.5511 -0.0025
vn 0.8314 0.5557 -0.0012
vn 0.8264 0.5631 -0.0012
vn 1.0000 -0.0000 -0.0000
vn -0.0000 0.9998 -0.0176
vn 0.0001 0.9468 -0.3219
vn -0.0001 0.9997 0.0246
vn 0.0002 0.8952 -0.4457
vn 0.0002 0.8312 -0.5560
vn 0.0003 0.8308 -0.5566
vn 0.0002 0.5729 -0.8196
vn -0.0002 0.5609 -0.8279
vn 0.0003 0.5813 -0.8137
vn -0.0001 0.5557 -0.8314
vn -0.0002 0.5348 -0.8449
vn -0.0000 0.3181 -0.9481
vn -0.0000 0.1953 -0.9807
vn -0.0000 0.1041 -0.9946
vn 0.0001 -0.0418 -0.9991
vn -0.0000 -0.1952 -0.9808
vn 0.0001 -0.3764 -0.9265
vn -0.0000 -0.4631 -0.8863
vn -0.0000 -0.5553 -0.8317
vn -0.0003 -0.8317 -0.5552
vn -0.0000 -0.8335 -0.5525
vn -0.0003 -0.8316 -0.5554
vn -0.0000 0.8318 0.5551
vn -0.0000 0.9994 0.0355
vn -0.0000 0.9808 0.1952
vn -0.0000 0.9994 -0.0355
vn -0.0000 0.9808 -0.1952
vn -0.0000 0.8318 -0.5551
vn -0.0003 -0.8317 0.5552
vn -0.0003 -0.8316 0.5554
vn -0.0000 -0.8335 0.5525
vn -0.0000 -0.5553 0.8317
vn -0.0000 -0.4884 0.8726
vn 0.0001 -0.3396 0.9406
vn -0.0000 -0.1952 0.9808
vn 0.0001 -0.0418 0.9991
vn -0.0000 0.1041 0.9946
vn -0.0000 0.3246 0.9458
vn -0.0000 0.1953 0.9807
vn -0.0000 0.5358 0.8443
vn -0.0000 0.5553 0.8317
vn 0.0003 0.8321 0.5546
vn 0.0005 0.8319 0.5549
vn -0.0000 0.8324 0.5542
vn 0.0008 0.8317 0.5553
vn -0.0009 0.9808 0.1952
vn -0.0002 0.9810 0.1939
vn -0.0000 0.9811 0.1936
vn 0.3587 0.9335 -0.0000
vn 0.5668 0.8238 -0.0000
vn 0.3015 0.9535 -0.0000
vn 0.5666 0.8240 -0.0001
vn 0.5666 0.8240 0.0001
vn 0.5661 0.8244 0.0002
vn 0.5664 0.8241 -0.0000
vn 0.6693 0.7430 0.0001
vn 0.5788 0.8155 -0.0000
vn 0.6870 0.7266 -0.0001
vn 0.2060 0.9785 -0.0000
vn -0.3320 0.9433 -0.0006
vn -0.2060 0.9785 -0.0000
vn -0.4543 0.8908 -0.0000
vn 0.9785 0.2060 -0.0000
vn 0.9999 0.0171 -0.0000
vn 0.9836 0.1803 -0.0000
vn 0.8948 0.4465 0.0001
vn 0.9309 0.3653 -0.0000
vn 0.8242 0.5664 -0.0000
vn 0.8240 0.5666 0.0001
vn 0.9809 0.1946 -0.0000
vn 0.9313 0.3643 -0.0000
vn 0.9786 0.2060 -0.0000
vn 0.9989 0.0463 -0.0000
vn 0.8241 0.5665 -0.0001
vn 0.8239 0.5667 -0.0002
vn -0.0000 0.0663 0.9978
vn -0.0000 0.1094 0.9940
vn -0.0000 0.1523 0.9883
vn -0.0000 0.2374 0.9714
vn -0.0000 0.2796 0.9601
vn -0.0000 0.3622 0.9321
vn -0.0000 0.4026 0.9154
vn -0.0000 0.4808 0.8768
vn -0.0000 0.5186 0.8550
vn -0.0000 0.5910 0.8067
vn -0.0000 0.6256 0.7801
vn -0.0000 0.6590 0.7521
vn -0.0000 0.7521 0.6590
vn -0.0000 0.7801 0.6256
vn -0.0000 0.8067 0.5910
vn -0.0000 0.8550 0.5186
vn -0.0000 0.8768 0.4808
vn -0.0000 0.9154 0.4026
vn -0.0000 0.9321 0.3622
vn -0.0000 0.9601 0.2796
vn -0.0000 0.9714 0.2374
vn -0.0000 0.9883 0.1523
vn -0.0000 0.9940 0.1094
vn -0.0000 0.9978 0.0663
vn -0.0000 0.9978 -0.0663
vn -0.0000 0.9940 -0.1094
vn -0.0000 0.9883 -0.1523
vn -0.0000 0.9714 -0.2374
vn -0.0000 0.9601 -0.2796
vn -0.0000 0.9321 -0.3622
vn -0.0000 0.9154 -0.4026
vn -0.0000 0.8768 -0.4808
vn -0.0000 0.8550 -0.5186
vn -0.0000 0.8067 -0.5910
vn -0.0000 0.7801 -0.6256
vn -0.0000 0.7521 -0.6590
vn -0.0000 0.6590 -0.7521
vn -0.0000 0.6256 -0.7801
vn -0.0000 0.5910 -0.8067
vn -0.0000 0.5186 -0.8550
vn -0.0000 0.4808 -0.8768
vn -0.0000 0.4026 -0.9154
vn -0.0000 0.3622 -0.9321
vn -0.0000 0.2796 -0.9601
vn -0.0000 0.2375 -0.9714
vn -0.0000 0.1523 -0.9883
vn -0.0000 0.1094 -0.9940
vn -0.0000 0.0663 -0.9978
vn -0.0000 -0.0663 -0.9978
vn -0.0000 -0.1094 -0.9940
vn -0.0000 -0.1523 -0.9883
vn -0.0000 -0.2375 -0.9714
vn -0.0000 -0.2796 -0.9601
vn -0.0000 -0.3622 -0.9321
vn -0.0000 -0.4026 -0.9154
vn -0.0000 -0.4808 -0.8768
vn -0.0000 -0.5186 -0.8550
vn -0.0000 -0.5910 -0.8067
vn -0.0000 -0.6256 -0.7801
vn -0.0000 -0.6590 -0.7521
vn -0.0000 -0.7521 -0.6590
vn -0.0000 -0.7801 -0.6256
vn -0.0000 -0.8067 -0.5910
vn -0.0000 -0.8550 -0.5186
vn -0.0000 -0.8768 -0.4808
vn -0.0000 -0.9154 -0.4026
vn -0.0000 -0.9321 -0.3622
vn -0.0000 -0.9601 -0.2796
vn -0.0000 -0.9714 -0.2374
vn -0.0000 -0.9883 -0.1523
vn -0.0000 -0.9940 -0.1094
vn -0.0000 -0.9978 -0.0663
vn -0.0000 -0.9978 0.0663
vn -0.0000 -0.9940 0.1094
vn -0.0000 -0.9883 0.1523
vn -0.0000 -0.9714 0.2374
vn -0.0000 -0.9601 0.2796
vn -0.0000 -0.9321 0.3622
vn -0.0000 -0.9154 0.4026
vn -0.0000 -0.8768 0.4808
vn -0.0000 -0.8550 0.5186
vn -0.0000 -0.8067 0.5910
vn -0.0000 -0.7801 0.6256
vn -0.0000 -0.7521 0.6590
vn -0.0000 -0.6590 0.7521
vn -0.0000 -0.6256 0.7801
vn -0.0000 -0.5910 0.8067
vn -0.0000 -0.5186 0.8550
vn -0.0000 -0.4808 0.8768
vn -0.0000 -0.4026 0.9154
vn -0.0000 -0.3622 0.9321
vn -0.0000 -0.2796 0.9601
vn -0.0000 -0.2374 0.9714
vn -0.0000 -0.1523 0.9883
vn -0.0000 -0.1094 0.9940
vn -0.0000 -0.0663 0.9978
vn -0.0662 0.9978 -0.0000
vn -0.1090 0.9940 -0.0000
vn -0.1517 0.9884 -0.0000
vn -0.2369 0.9715 -0.0000
vn -0.2792 0.9602 -0.0000
vn -0.3623 0.9321 -0.0000
vn -0.4031 0.9151 -0.0000
vn -0.4816 0.8764 -0.0000
vn -0.5193 0.8546 -0.0000
vn -0.5917 0.8062 -0.0000
vn -0.6264 0.7795 -0.0000
vn -0.6598 0.7515 -0.0000
vn -0.7515 0.6598 -0.0000
vn -0.7795 0.6264 -0.0000
vn -0.8062 0.5916 -0.0000
vn -0.8546 0.5193 -0.0000
vn -0.8764 0.4816 -0.0000
vn -0.9151 0.4031 -0.0000
vn -0.9321 0.3623 -0.0000
vn -0.9603 0.2790 -0.0000
vn -0.9716 0.2365 -0.0000
vn -0.9884 0.1516 -0.0000
vn -0.9940 0.1090 -0.0000
vn -0.9978 0.0663 -0.0000
vn -0.9998 -0.0221 -0.0000
vn -0.9940 -0.1090 -0.0000
vn -0.9978 -0.0662 -0.0000
vn -0.9884 -0.1517 -0.0000
vn -0.9715 -0.2369 -0.0000
vn -0.9602 -0.2792 -0.0000
vn -0.9321 -0.3623 -0.0000
vn -0.9151 -0.4031 -0.0000
vn -0.8764 -0.4816 -0.0000
vn -0.8546 -0.5193 -0.0000
vn -0.8062 -0.5917 -0.0000
vn -0.7795 -0.6264 -0.0000
vn -0.7515 -0.6598 -0.0000
vn -0.6598 -0.7515 -0.0000
vn -0.6264 -0.7795 -0.0000
vn -0.5917 -0.8062 -0.0000
vn -0.5193 -0.8546 -0.0000
vn -0.4816 -0.8764 -0.0000
vn -0.4031 -0.9151 -0.0000
vn -0.3623 -0.9321 -0.0000
vn -0.2792 -0.9602 -0.0000
vn -0.2369 -0.9715 -0.0000
vn -0.1517 -0.9884 -0.0000
vn -0.1090 -0.9940 -0.0000
vn -0.0662 -0.9978 -0.0000
vn 0.0663 -0.9978 -0.0000
vn 0.1090 -0.9940 -0.0000
vn 0.1516 -0.9884 -0.0000
vn 0.2365 -0.9716 -0.0000
vn 0.2790 -0.9603 -0.0000
vn 0.3623 -0.9321 -0.0000
vn 0.4031 -0.9151 -0.0000
vn 0.4816 -0.8764 -0.0000
vn 0.5193 -0.8546 -0.0000
vn 0.5917 -0.8062 -0.0000
vn 0.6264 -0.7795 -0.0000
vn 0.6916 -0.7222 -0.0000
vn 0.7222 -0.6916 -0.0000
vn 0.7515 -0.6598 -0.0000
vn 0.8313 -0.5559 -0.0000
vn 0.8546 -0.5193 -0.0000
vn 0.8764 -0.4816 -0.0000
vn 0.9151 -0.4031 -0.0000
vn 0.9321 -0.3623 -0.0000
vn 0.9602 -0.2792 -0.0000
vn 0.9715 -0.2369 -0.0000
vn 0.9884 -0.1517 -0.0000
vn 0.9940 -0.1090 -0.0000
vn 0.9978 -0.0662 -0.0000
vn 0.9978 0.0663 -0.0000
vn 0.9940 0.1090 -0.0000
vn 0.9884 0.1516 -0.0000
vn 0.9716 0.2365 -0.0000
vn 0.9603 0.2790 -0.0000
vn 0.9321 0.3623 -0.0000
vn 0.9151 0.4031 -0.0000
vn 0.8764 0.4816 -0.0000
vn 0.8546 0.5193 -0.0000
vn 0.8062 0.5916 -0.0000
vn 0.7795 0.6264 -0.0000
vn 0.7222 0.6916 -0.0000
vn 0.6916 0.7222 -0.0000
vn 0.6598 0.7515 -0.0000
vn 0.5559 0.8313 -0.0000
vn 0.5193 0.8546 -0.0000
vn 0.4816 0.8764 -0.0000
vn 0.4031 0.9151 -0.0000
vn 0.3623 0.9321 -0.0000
vn 0.2790 0.9603 -0.0000
vn 0.2365 0.9716 -0.0000
vn 0.1516 0.9884 -0.0000
vn 0.1090 0.9940 -0.0000
vn 0.0663 0.9978 -0.0000
vn 0.1094 -0.9940 -0.0000
vn 0.1523 -0.9883 -0.0000
vn 0.2374 -0.9714 -0.0000
vn 0.2796 -0.9601 -0.0000
vn 0.3622 -0.9321 -0.0000
vn 0.4026 -0.9154 -0.0000
vn 0.4808 -0.8768 -0.0000
vn 0.5186 -0.8550 -0.0000
vn 0.5910 -0.8067 -0.0000
vn 0.6256 -0.7801 -0.0000
vn 0.6914 -0.7225 -0.0000
vn 0.7225 -0.6914 -0.0000
vn 0.7521 -0.6590 -0.0000
vn 0.8317 -0.5553 -0.0000
vn 0.8550 -0.5186 -0.0000
vn 0.8768 -0.4808 -0.0000
vn 0.9154 -0.4026 -0.0000
vn 0.9321 -0.3622 -0.0000
vn 0.9601 -0.2796 -0.0000
vn 0.9714 -0.2374 -0.0000
vn 0.9883 -0.1523 -0.0000
vn 0.9940 -0.1093 -0.0000
vn 0.9978 -0.0663 -0.0000
vt 2.000000 0.679999
vt -3.000000 -17.000000
vt 2.000000 -17.000000
vt -3.000000 0.679999
vt 10.000000 19.000000
vt 2.000000 1.000000
vt 10.000000 1.000000
vt 2.000000 18.680000
vt -3.000000 -4.000000
vt -15.300000 13.180000
vt -15.300000 -4.000000
vt -3.000000 13.680000
vt -15.300000 -3.500000
vt -16.260000 13.140000
vt -16.260000 -3.500000
vt -17.299999 -1.220000
vt -17.299999 15.280000
vt -20.000000 -0.500000
vt -20.000000 15.860000
vt -24.139999 15.010000
vt -24.139999 -1.220000
vt -29.000000 -3.200000
vt -29.000000 12.910000
vt 0.679999 13.680000
vt 9.000000 19.000000
vt 9.000000 -1.000000
vt 0.679999 18.680000
vt -20.139999 -2.140000
vt -13.120000 13.140000
vt -20.139999 6.860000
vt -23.690001 -1.550000
vt -26.690001 0.310000
vt -28.750000 3.110000
vt -29.500000 6.500000
vt -28.750000 9.950000
vt -26.690001 12.910000
vt -23.690001 15.010000
vt -20.139999 15.860000
vt -16.580000 15.280000
vt -10.000000 -0.500000
vt -6.000000 -12.500000
vt -6.000000 -0.500000
vt -10.000000 -6.500000
vt -10.000000 -12.500000
vt -26.000000 -0.500000
vt -22.000000 -6.500000
vt -22.000000 -0.500000
vt -26.000000 -12.500000
vt -22.000000 -12.500000
vt 5.500000 -0.500000
vt 1.500000 7.500000
vt 1.500000 -0.500000
vt 5.500000 11.500000
vt 1.500000 11.500000
vt -10.500000 -12.500000
vt -6.500000 -0.500000
vt -6.500000 -12.500000
vt -10.500000 -4.500000
vt -10.500000 -0.500000
vt -10.000000 9.000000
vt 6.000000 5.500000
vt -6.000000 5.500000
vt 10.000000 9.000000
vt -10.000000 -9.000000
vt -6.000000 -6.500000
vt 10.000000 -9.000000
vt 6.000000 -6.500000
vt -9.000000 -19.000000
vt -17.000000 1.000000
vt -17.000000 -4.000000
vt -9.000000 1.000000
vt -29.299999 -4.000000
vt -27.799999 -6.200000
vt -27.000000 -10.000000
vt -27.799999 -13.800000
vt -30.000000 -17.000000
vt -32.900002 -19.000000
vt -28.799999 -3.500000
vt -27.299999 -5.700000
vt -19.000000 -9.500000
vt -23.600000 -13.800000
vt -23.600000 -13.300000
vt -29.000000 -17.000000
vt -29.000000 -16.500000
vt -33.900002 -19.000000
vt -33.900002 -18.500000
vt -34.379002 -11.621000
vt -36.500000 -18.500000
vt -32.400002 -18.500000
vt -35.352001 -12.272000
vt -39.919998 -17.780001
vt -36.500000 -12.500000
vt -42.799999 -15.800000
vt -37.647999 -12.272000
vt -44.779999 -12.920000
vt -38.620998 -11.621000
vt -45.500000 -9.500000
vt -39.271999 -10.648000
vt -44.779999 -6.080000
vt -39.500000 -9.500000
vt -42.799999 -3.200000
vt -39.271999 -8.352000
vt -39.919998 -1.220000
vt -38.620998 -7.379000
vt -36.500000 -0.500000
vt -37.647999 -6.728000
vt -33.080002 -1.220000
vt -36.500000 -6.500000
vt -29.760000 -3.500000
vt -35.352001 -6.728000
vt -34.379002 -7.379000
vt -33.728001 -8.352000
vt -26.500000 -9.500000
vt -33.500000 -9.500000
vt -27.299999 -13.300000
vt -33.728001 -10.648000
vt -29.500000 -16.500000
vt -40.000000 -36.779999
vt -35.000000 -30.160000
vt -35.000000 -36.779999
vt -40.000000 -30.160000
vt -28.480000 1.760000
vt -24.160000 8.840000
vt -22.059999 8.420000
vt -30.780001 2.220000
vt -22.020000 8.290000
vt -22.660000 5.510000
vt -27.230000 0.930000
vt -24.500000 2.900000
vt -30.160000 -2.160000
vt -24.160000 2.840000
vt -30.160000 2.840000
vt -22.059999 -2.160000
vt -33.779999 -6.780000
vt -36.779999 -3.780000
vt -33.779999 -3.780000
vt -36.779999 -8.780000
vt -27.780001 -6.780000
vt -27.230000 -8.780000
vt -30.780001 -6.780000
vt -27.780001 -0.780000
vt -27.780001 -3.780000
vt -30.780001 -0.780000
vt -40.000000 -2.160000
vt -33.703999 -0.957000
vt -31.900000 -2.160000
vt -36.000000 -0.500000
vt -38.296001 -0.957000
vt -40.243000 -2.257000
vt -41.542999 -4.204000
vt -41.194000 -3.681000
vt -42.000000 -6.500000
vt -40.000000 -8.780000
vt -41.542999 -8.796000
vt -41.194000 -9.319000
vt -38.296001 -12.043000
vt -36.000000 -12.500000
vt -33.703999 -12.043000
vt -31.757000 -10.743000
vt -30.450001 -8.780000
vt -20.600000 2.900000
vt -34.457001 -8.204000
vt -24.500000 -10.500000
vt -20.750000 5.510000
vt -35.757000 -6.257000
vt -21.209999 8.290000
vt -21.320000 8.420000
vt -37.703999 -4.957000
vt -38.000000 -4.898000
vt -39.578999 -4.079000
vt -24.500000 -0.500000
vt -26.202000 -4.062000
vt -27.253000 -0.957000
vt -27.253000 -3.635000
vt -30.500000 -3.597000
vt -30.500000 -2.257000
vt -30.643000 -3.643000
vt -32.875000 -3.681000
vt -33.747002 -4.204000
vt -33.747002 -3.695000
vt -36.500000 -5.327000
vt -41.034000 -8.287000
vt -40.243000 -10.743000
vt -41.599998 -11.957000
vt -41.583000 -12.083000
vt -38.986000 -10.743000
vt -38.339001 -14.721000
vt -38.986000 -12.083000
vt -38.339001 -12.043000
vt -37.638000 -15.498000
vt -36.500000 -16.079000
vt -33.747002 -12.043000
vt -34.102001 -16.101999
vt -33.747002 -16.042999
vt -30.500000 -10.743000
vt -30.500000 -14.743000
vt -27.253000 -12.796000
vt -38.339001 -8.287000
vt -38.513000 -9.319000
vt -38.957001 -11.957000
vt -33.860001 9.950000
vt -38.000000 -9.500000
vt -33.860001 -6.080000
vt -38.000000 6.500000
vt -24.500000 -4.079000
vt -22.898001 -4.898000
vt -34.000000 -10.500000
vt -34.457001 -12.796000
vt -26.000000 -10.500000
vt -35.757000 -14.743000
vt -37.703999 -16.042999
vt -26.000000 -4.500000
vt -10.000000 -1.000000
vt -14.000000 -10.500000
vt -14.000000 -4.500000
vt -10.000000 -19.000000
vt -14.000000 -16.500000
vt -20.000000 -16.500000
vt -26.000000 -16.500000
vt -20.000000 -4.500000
vt -16.500000 -12.500000
vt -15.665000 -16.448000
vt -16.500000 -16.500000
vt -15.665000 -12.448000
vt -14.742000 -16.295000
vt -14.742000 -12.295000
vt -13.747000 -16.042999
vt -13.747000 -12.043000
vt -12.696000 -15.696000
vt -12.696000 -11.696000
vt -11.607000 -15.260000
vt -11.607000 -11.260000
vt -10.500000 -14.743000
vt -10.500000 -10.743000
vt -9.393000 -14.153000
vt -9.393000 -10.153000
vt -8.304000 -13.500000
vt -8.304000 -9.500000
vt -7.253000 -12.796000
vt -7.253000 -8.796000
vt -6.258000 -12.053000
vt -6.258000 -8.052999
vt -5.335000 -11.283000
vt -5.335000 -7.283000
vt -4.500000 -10.500000
vt -4.500000 -6.500000
vt -14.052000 -9.717000
vt -10.052000 -5.717000
vt -14.205000 -8.947001
vt -10.205000 -4.947000
vt -14.457000 -8.204000
vt -10.457000 -4.204000
vt -14.804000 -7.500000
vt -10.804000 -3.500000
vt -15.240000 -6.847000
vt -11.240000 -2.847000
vt -15.757000 -6.257000
vt -11.757000 -2.257000
vt -16.347000 -5.740000
vt -12.347000 -1.740000
vt -17.000000 -5.304000
vt -13.000000 -1.304000
vt -17.704000 -4.957000
vt -13.704000 -0.957000
vt -18.447001 -4.705000
vt -14.447000 -0.705000
vt -19.216999 -4.552000
vt -15.217000 -0.552000
vt -16.000000 -0.500000
vt -4.500000 -0.500000
vt -5.335000 -4.552000
vt -4.500000 -4.500000
vt -5.335000 -0.552000
vt -6.257999 -4.705000
vt -6.257999 -0.705000
vt -7.253000 -4.957000
vt -7.253000 -0.957000
vt -8.304000 -5.304000
vt -8.304000 -1.304000
vt -9.393000 -5.740000
vt -9.393000 -1.740000
vt -10.500000 -6.257000
vt -10.500000 -2.257000
vt -11.607000 -6.847000
vt -11.607000 -2.847000
vt -12.696000 -7.500000
vt -12.696000 -3.500000
vt -13.747000 -8.204000
vt -13.747000 -4.204000
vt -14.742000 -8.947001
vt -14.742000 -4.947000
vt -15.665000 -9.717000
vt -15.665000 -5.717000
vt -16.500000 -10.500000
vt -16.500000 -6.500000
vt -25.948000 -11.283000
vt -21.948000 -7.283000
vt -25.795000 -12.053000
vt -21.795000 -8.052999
vt -25.542999 -12.796000
vt -21.542999 -8.796000
vt -25.195999 -13.500000
vt -21.195999 -9.500000
vt -24.760000 -14.153000
vt -20.760000 -10.153000
vt -24.243000 -14.743000
vt -20.243000 -10.743000
vt -18.986000 -10.743000
vt -18.913000 -15.260000
vt -18.986000 -14.743000
vt -18.913000 -11.260000
vt -18.695999 -15.696000
vt -18.695999 -11.696000
vt -18.339001 -16.042999
vt -18.339001 -12.043000
vt -17.848000 -16.295000
vt -17.848000 -12.295000
vt -17.231001 -16.448000
vt -17.231001 -12.448000
vt -15.217000 -12.448000
vt -16.000000 -12.500000
vt -14.447000 -12.295000
vt -13.704000 -12.043000
vt -13.000000 -11.696000
vt -12.347000 -11.260000
vt -11.757000 -10.743000
vt -11.240000 -10.153000
vt -10.804000 -9.500000
vt -10.457000 -8.796000
vt -10.205000 -8.052999
vt -10.052000 -7.283000
vt -16.783001 -0.552000
vt -17.552999 -0.705000
vt -18.296000 -0.957000
vt -19.000000 -1.304000
vt -19.653000 -1.740000
vt -20.243000 -2.257000
vt -20.760000 -2.847000
vt -21.195999 -3.500000
vt -21.542999 -4.204000
vt -21.795000 -4.947000
vt -21.948000 -5.717000
vt -19.653000 -11.260000
vt -19.000000 -11.696000
vt -18.296000 -12.043000
vt -17.552999 -12.295000
vt -16.783001 -12.448000
vt -18.000000 7.500000
vt -2.000000 -4.500000
vt -18.000000 -4.500000
vt -2.000000 7.500000
vt -18.000000 -14.500000
vt -26.000000 -26.500000
vt -26.000000 -14.500000
vt -18.000000 -26.500000
vt -26.500000 -4.500000
vt -26.500000 -12.500000
vt -14.500000 -0.500000
vt -14.500000 7.500000
vt 2.000000 -0.500000
vt 6.000000 11.500000
vt 6.000000 -0.500000
vt 2.000000 11.500000
vt -2.000000 1.500000
vt 2.000000 -10.500000
vt -2.000000 -10.500000
vt 2.000000 1.500000
vt -26.000000 -3.780000
vt -26.417999 -9.892000
vt -26.000000 -9.500000
vt -26.417999 -4.172000
vt -26.878000 -10.276000
vt -26.878000 -4.556000
vt -27.375999 -10.648000
vt -27.375999 -4.928000
vt -27.902000 -11.000000
vt -27.902000 -5.280000
vt -28.445999 -11.326000
vt -28.445999 -5.606000
vt -29.000000 -11.621000
vt -29.000000 -5.901000
vt -29.554001 -11.880000
vt -29.554001 -6.160000
vt -30.098000 -12.098000
vt -30.098000 -6.378000
vt -30.624001 -12.272000
vt -30.624001 -6.552000
vt -31.122000 -12.398000
vt -31.122000 -6.678000
vt -31.583000 -12.474000
vt -31.583000 -6.754000
vt -32.000000 -12.500000
vt -32.000000 -6.780000
vt -32.366001 -12.474000
vt -32.366001 -6.754000
vt -32.674000 -12.398000
vt -32.674000 -6.678000
vt -32.919998 -12.272000
vt -32.919998 -6.552000
vt -33.098000 -12.098000
vt -33.098000 -6.378000
vt -33.206001 -11.880000
vt -33.206001 -6.160000
vt -33.242001 -11.621000
vt -33.242001 -5.901000
vt -32.901001 -5.901000
vt -38.880001 -11.326000
vt -33.160000 -5.606000
vt -39.098000 -11.000000
vt -33.377998 -5.280000
vt -33.551998 -4.928000
vt -39.397999 -10.276000
vt -33.678001 -4.556000
vt -39.473999 -9.892000
vt -33.754002 -4.172000
vt -32.000000 -3.780000
vt -31.583000 -9.109000
vt -32.000000 -9.500000
vt -31.583000 -3.389000
vt -31.122000 -8.724000
vt -31.122000 -3.004000
vt -30.624001 -8.352000
vt -30.624001 -2.632000
vt -30.098000 -8.000000
vt -30.098000 -2.280000
vt -29.554001 -7.674000
vt -29.554001 -1.954000
vt -29.000000 -7.379000
vt -29.000000 -1.659000
vt -28.445999 -7.120000
vt -28.445999 -1.400000
vt -27.902000 -6.902000
vt -27.902000 -1.182000
vt -27.375999 -6.728000
vt -27.375999 -1.008000
vt -26.878000 -6.602000
vt -26.878000 -0.882000
vt -26.417999 -6.526000
vt -26.417999 -0.806000
vt -26.000000 -6.500000
vt -26.000000 -0.780000
vt -36.109001 -6.526000
vt -30.389000 -0.806000
vt -35.723999 -6.602000
vt -30.004000 -0.882000
vt -29.632000 -1.008000
vt -35.000000 -6.902000
vt -29.280001 -1.182000
vt -34.674000 -7.120000
vt -28.954000 -1.400000
vt -28.659000 -1.659000
vt -34.119999 -7.674000
vt -28.400000 -1.954000
vt -33.902000 -8.000000
vt -28.181999 -2.280000
vt -28.007999 -2.632000
vt -33.602001 -8.724000
vt -27.882000 -3.004000
vt -33.526001 -9.109000
vt -27.806000 -3.389000
vt -29.955000 4.393000
vt -30.108000 3.623000
vt -29.356001 5.840000
vt -29.702999 5.136000
vt -28.403000 7.083000
vt -28.920000 6.493000
vt -27.160000 8.036000
vt -27.813000 7.600000
vt -25.712999 8.635000
vt -26.455999 8.382999
vt -24.943001 8.788000
vt -35.000000 2.840000
vt -34.165001 -2.997000
vt -35.000000 -3.780000
vt -34.165001 3.623000
vt -33.242001 -2.227000
vt -33.242001 4.393000
vt -32.247002 -1.484000
vt -32.247002 5.136000
vt -31.195999 -0.780000
vt -31.195999 5.840000
vt -30.107000 -0.127000
vt -30.107000 6.493000
vt -29.000000 0.463000
vt -29.000000 7.083000
vt -27.893000 0.980000
vt -27.893000 7.600000
vt -26.804001 1.416000
vt -26.804001 8.036000
vt -25.753000 1.763000
vt -25.753000 8.382999
vt -24.757999 2.015000
vt -24.757999 8.635000
vt -23.834999 2.168000
vt -23.834999 8.788000
vt -23.000000 2.220000
vt -23.000000 8.840000
vt -33.754002 -3.389000
vt -36.728001 -2.997000
vt -33.678001 -3.004000
vt -36.575001 -2.227000
vt -33.551998 -2.632000
vt -36.323002 -1.484000
vt -33.377998 -2.280000
vt -35.976002 -0.780000
vt -33.160000 -1.954000
vt -35.540001 -0.127000
vt -32.901001 -1.659000
vt -35.022999 0.463000
vt -32.605999 -1.400000
vt -34.432999 0.980000
vt -32.279999 -1.182000
vt -33.779999 1.416000
vt -31.927999 -1.008000
vt -33.076000 1.763000
vt -31.556000 -0.882000
vt -32.333000 2.015000
vt -31.172001 -0.806000
vt -31.563000 2.168000
vt -28.007999 -4.928000
vt -28.659000 -5.901000
vt -29.632000 -6.552000
vt -31.927999 -6.552000
vt -19.216999 -16.448000
vt -18.447001 -16.295000
vt -17.704000 -16.042999
vt -17.000000 -15.696000
vt -16.347000 -15.260000
vt -15.757000 -14.743000
vt -15.240000 -14.153000
vt -14.804000 -13.500000
vt -14.457000 -12.796000
vt -14.205000 -12.053000
vt -14.052000 -11.283000
vt -20.783001 -4.552000
vt -21.552999 -4.705000
vt -22.296000 -4.957000
vt -23.000000 -5.304000
vt -23.653000 -5.740000
vt -24.243000 -6.257000
vt -24.760000 -6.847000
vt -25.195999 -7.500000
vt -25.542999 -8.204000
vt -25.795000 -8.947001
vt -25.948000 -9.717000
vt -23.653000 -15.260000
vt -23.000000 -15.696000
vt -22.296000 -16.042999
vt -21.552999 -16.295000
vt -20.783001 -16.448000
s 1
usemtl 85.002
f 711/1/1 17/2/1 20/3/1
f 17/2/1 711/1/1 709/4/1
f 718/5/2 19/6/2 26/7/2
f 19/6/2 718/5/2 712/8/2
f 16/9/2 707/10/2 8/11/2
f 707/10/2 16/9/2 708/12/2
f 132/13/2 705/14/2 125/15/2
f 705/14/2 132/13/2 707/10/2
f 704/14/3 120/16/4 126/15/3
f 120/16/4 704/14/3 702/17/5
f 702/17/5 85/18/6 120/16/4
f 85/18/6 702/17/5 700/19/2
f 85/18/6 695/20/7 42/21/8
f 695/20/7 85/18/6 700/19/2
f 695/20/7 38/22/9 42/21/8
f 38/22/9 695/20/7 691/23/10
f 710/24/11 719/25/12 716/26/13
f 719/25/12 710/24/11 713/27/12
f 698/28/11 710/24/11 716/26/13
f 710/24/11 698/28/11 706/29/14
f 706/29/14 698/28/11 699/30/15
f 694/31/16 699/30/15 698/28/11
f 699/30/15 694/31/16 690/32/17
f 686/33/18 699/30/15 690/32/17
f 699/30/15 686/33/18 684/34/12
f 688/35/19 699/30/15 684/34/12
f 699/30/15 688/35/19 692/36/20
f 696/37/21 699/30/15 692/36/20
f 699/30/15 696/37/21 701/38/22
f 703/39/23 699/30/15 701/38/22
f 699/30/15 703/39/23 706/29/14
f 668/40/2 173/41/2 678/42/2
f 173/41/2 668/40/2 467/43/2
f 163/44/2 173/41/2 467/43/2
f 650/45/2 456/46/2 656/47/2
f 456/46/2 650/45/2 145/48/2
f 145/48/2 150/49/2 456/46/2
f 676/50/24 672/51/24 666/52/24
f 672/51/24 676/50/24 680/53/24
f 672/51/24 680/53/24 675/54/24
f 160/55/25 174/56/25 171/57/25
f 174/56/25 160/55/25 165/58/25
f 174/56/25 165/58/25 168/59/25
f 714/60/26 681/61/26 677/62/26
f 681/61/26 714/60/26 717/63/26
f 22/64/26 677/62/26 172/65/26
f 677/62/26 22/64/26 714/60/26
f 25/66/26 172/65/26 176/67/26
f 172/65/26 25/66/26 22/64/26
f 717/63/26 176/67/26 681/61/26
f 176/67/26 717/63/26 25/66/26
f 24/68/24 21/69/24 18/70/24
f 21/69/24 24/68/24 27/71/24
f 18/70/24 9/72/24 13/73/24
f 24/68/24 13/73/24 15/74/24
f 13/73/24 24/68/24 18/70/24
f 24/68/24 15/74/24 11/75/24
f 24/68/24 11/75/24 5/76/24
f 24/68/24 5/76/24 2/77/24
f 12/73/27 131/78/28 136/79/29
f 131/78/28 12/73/27 7/72/28
f 14/74/30 136/79/29 138/80/31
f 136/79/29 14/74/30 12/73/27
f 10/81/32 138/80/31 134/82/33
f 138/80/31 10/81/32 14/74/30
f 4/83/34 134/82/33 128/84/34
f 134/82/33 4/83/34 10/81/32
f 3/85/35 129/84/35 123/86/35
f 129/84/35 3/85/35 6/83/35
f 98/87/24 76/88/24 121/89/24
f 76/88/24 98/87/24 90/90/24
f 90/90/24 39/91/24 76/88/24
f 39/91/24 90/90/24 78/92/24
f 78/92/24 35/93/24 39/91/24
f 35/93/24 78/92/24 68/94/24
f 68/94/24 31/95/24 35/93/24
f 31/95/24 68/94/24 58/96/24
f 58/96/24 28/97/24 31/95/24
f 28/97/24 58/96/24 50/98/24
f 50/98/24 33/99/24 28/97/24
f 33/99/24 50/98/24 43/100/24
f 43/100/24 37/101/24 33/99/24
f 37/101/24 43/100/24 52/102/24
f 52/102/24 41/103/24 37/101/24
f 41/103/24 52/102/24 61/104/24
f 61/104/24 84/105/24 41/103/24
f 84/105/24 61/104/24 70/106/24
f 70/106/24 119/107/24 84/105/24
f 119/107/24 70/106/24 81/108/24
f 81/108/24 124/109/24 119/107/24
f 124/109/24 81/108/24 92/110/24
f 92/110/24 130/78/24 124/109/24
f 130/78/24 92/110/24 101/111/24
f 101/111/24 135/79/24 130/78/24
f 135/79/24 101/111/24 110/112/24
f 110/112/24 137/113/24 135/79/24
f 137/113/24 110/112/24 116/114/24
f 116/114/24 133/115/24 137/113/24
f 133/115/24 116/114/24 108/116/24
f 108/116/24 127/117/24 133/115/24
f 127/117/24 108/116/24 98/87/24
f 121/89/24 127/117/24 98/87/24
f 294/118/26 552/119/26 297/120/26
f 552/119/26 294/118/26 549/121/26
f 398/122/36 585/123/37 589/124/38
f 585/123/37 398/122/36 379/125/37
f 398/122/36 589/124/38 525/126/39
f 501/127/40 398/122/36 525/126/39
f 501/127/40 427/128/41 398/122/36
f 427/128/41 501/127/40 451/129/42
f 550/130/24 581/131/24 555/132/24
f 581/131/24 550/130/24 587/133/24
f 591/124/24 581/131/24 587/133/24
f 581/131/24 591/124/24 584/123/24
f 315/134/25 296/135/25 317/136/25
f 296/135/25 315/134/25 293/137/25
f 293/137/25 412/138/25 421/139/25
f 412/138/25 293/137/25 368/140/25
f 421/139/25 419/141/25 425/128/25
f 419/141/25 421/139/25 414/142/25
f 419/141/25 376/125/25 397/122/25
f 376/125/25 419/141/25 372/143/25
f 397/122/25 425/128/25 419/141/25
f 548/144/43 614/145/43 586/146/43
f 614/145/43 548/144/43 646/147/43
f 548/144/43 610/148/43 646/147/43
f 610/148/43 548/144/43 530/149/43
f 548/144/43 484/150/43 502/151/43
f 484/150/43 548/144/43 444/152/43
f 292/153/43 444/152/43 548/144/43
f 444/152/43 292/153/43 275/154/43
f 292/153/43 271/155/43 275/154/43
f 271/155/43 292/153/43 199/156/43
f 292/153/43 141/157/43 199/156/43
f 141/157/43 292/153/43 203/158/43
f 292/153/43 238/159/43 203/158/43
f 238/159/43 292/153/43 422/160/43
f 450/161/44 491/162/45 449/163/46
f 491/162/45 450/161/44 500/164/47
f 500/164/47 534/165/48 491/162/45
f 534/165/48 500/164/47 524/166/49
f 590/167/50 535/165/51 526/166/52
f 535/165/51 590/167/50 588/146/53
f 613/168/54 588/146/53 615/145/55
f 588/146/53 613/168/54 535/165/51
f 615/145/55 625/169/56 613/168/54
f 615/145/55 645/170/57 625/169/56
f 645/170/57 615/145/55 647/171/58
f 647/171/58 627/172/59 645/170/57
f 627/172/59 647/171/58 611/173/60
f 611/173/60 609/174/61 627/172/59
f 611/173/60 529/175/62 609/174/61
f 529/175/62 611/173/60 532/176/62
f 531/176/63 523/177/63 528/175/64
f 523/177/63 531/176/63 505/178/65
f 486/179/66 489/180/66 504/178/66
f 446/181/67 485/179/68 445/152/69
f 485/179/68 446/181/67 487/180/68
f 278/182/70 445/152/69 276/154/70
f 445/152/69 278/182/70 446/181/67
f 277/154/71 274/155/71 280/182/71
f 234/183/72 254/184/72 273/155/73
f 254/184/72 234/183/72 231/185/74
f 233/186/75 197/187/76 229/188/75
f 197/187/76 233/186/75 200/189/77
f 200/189/77 193/190/78 197/187/76
f 193/190/78 200/189/77 142/92/79
f 142/92/79 139/191/80 193/190/78
f 204/192/81 139/191/80 142/92/79
f 139/191/80 204/192/81 195/193/82
f 204/192/81 201/194/83 195/193/82
f 239/195/84 201/194/83 204/192/81
f 201/194/83 239/195/84 235/196/84
f 424/139/85 237/196/86 240/195/87
f 237/196/86 424/139/85 283/197/88
f 449/163/46 282/197/89 423/139/90
f 450/161/44 423/139/90 426/128/91
f 423/139/90 450/161/44 449/163/46
f 685/33/92 447/181/93 32/95/94
f 447/181/93 685/33/92 488/180/95
f 279/198/96 32/95/94 447/181/93
f 272/199/97 32/95/94 279/198/96
f 488/180/95 685/33/92 503/178/98
f 503/178/98 689/32/99 522/177/100
f 689/32/99 503/178/98 685/33/92
f 36/93/101 272/199/97 253/200/100
f 272/199/97 36/93/101 32/95/94
f 682/34/102 32/95/94 29/97/102
f 32/95/94 682/34/102 685/33/92
f 687/201/103 30/202/104 34/203/105
f 30/202/104 687/201/103 683/204/104
f 691/23/10 34/203/105 38/22/9
f 34/203/105 691/23/10 687/201/103
f 644/205/106 697/28/107 624/206/108
f 697/28/107 644/205/106 693/31/109
f 644/205/106 626/172/110 693/31/109
f 626/172/110 608/174/111 693/31/109
f 527/175/112 693/31/109 608/174/111
f 693/31/109 527/175/112 689/32/99
f 527/175/112 522/177/100 689/32/99
f 196/193/113 40/91/114 140/191/115
f 40/91/114 196/193/113 77/88/116
f 40/91/114 194/190/110 140/191/115
f 40/91/114 198/187/117 194/190/110
f 198/187/117 36/93/101 230/188/118
f 36/93/101 198/187/117 40/91/114
f 36/93/101 253/200/100 230/188/118
f 448/207/43 122/86/43 281/208/43
f 122/86/43 448/207/43 453/209/43
f 281/208/43 77/88/116 236/210/43
f 77/88/116 281/208/43 122/86/43
f 77/88/116 202/211/43 236/210/43
f 77/88/116 196/193/113 202/211/43
f 624/206/108 697/28/107 612/168/43
f 612/168/43 697/28/107 533/165/43
f 533/165/43 654/212/43 490/162/43
f 654/212/43 533/165/43 697/28/107
f 654/212/43 448/207/43 490/162/43
f 448/207/43 654/212/43 453/209/43
f 715/213/43 461/214/43 664/215/43
f 461/214/43 715/213/43 23/216/43
f 159/217/43 461/214/43 23/216/43
f 159/217/43 23/216/43 153/218/43
f 153/218/43 1/85/43 149/219/43
f 1/85/43 153/218/43 23/216/43
f 149/219/43 122/86/43 453/209/43
f 122/86/43 149/219/43 1/85/43
f 697/28/107 658/220/43 654/212/43
f 658/220/43 697/28/107 715/213/43
f 664/215/43 658/220/43 715/213/43
f 548/144/43 502/151/43 530/149/43
f 199/156/43 232/183/43 271/155/43
f 368/140/25 293/137/25 315/134/25
f 414/142/25 421/139/25 412/138/25
f 158/221/119 182/222/120 154/223/119
f 182/222/120 158/221/119 184/224/121
f 184/224/121 190/225/122 182/222/120
f 190/225/122 184/224/121 192/226/123
f 192/226/123 210/227/124 190/225/122
f 210/227/124 192/226/123 212/228/125
f 212/228/125 218/229/126 210/227/124
f 218/229/126 212/228/125 220/230/127
f 220/230/127 226/231/128 218/229/126
f 226/231/128 220/230/127 228/232/129
f 228/232/129 249/233/130 226/231/128
f 249/233/130 228/232/129 252/234/130
f 251/234/131 259/235/132 247/233/131
f 259/235/132 251/234/131 262/236/133
f 262/236/133 267/237/134 259/235/132
f 267/237/134 262/236/133 270/238/135
f 270/238/135 288/239/136 267/237/134
f 288/239/136 270/238/135 291/240/137
f 291/240/137 432/241/138 288/239/136
f 432/241/138 291/240/137 435/242/139
f 435/242/139 440/243/140 432/241/138
f 440/243/140 435/242/139 443/244/141
f 443/244/141 460/245/142 440/243/140
f 460/245/142 443/244/141 465/246/142
f 466/43/143 473/247/144 462/214/143
f 473/247/144 466/43/143 475/248/145
f 475/248/145 481/249/146 473/247/144
f 481/249/146 475/248/145 483/250/147
f 483/250/147 497/251/148 481/249/146
f 497/251/148 483/250/147 499/252/149
f 499/252/149 511/253/150 497/251/148
f 511/253/150 499/252/149 513/254/151
f 513/254/151 519/255/152 511/253/150
f 519/255/152 513/254/151 521/256/153
f 521/256/153 543/257/154 519/255/152
f 543/257/154 521/256/153 546/258/154
f 547/258/155 597/259/156 544/257/155
f 597/259/156 547/258/155 599/260/157
f 599/260/157 605/261/158 597/259/156
f 605/261/158 599/260/157 607/262/159
f 607/262/159 621/263/160 605/261/158
f 621/263/160 607/262/159 623/264/161
f 623/264/161 633/265/162 621/263/160
f 633/265/162 623/264/161 635/266/163
f 635/266/163 641/267/164 633/265/162
f 641/267/164 635/266/163 643/268/165
f 643/268/165 659/220/166 641/267/164
f 659/220/166 643/268/165 663/269/166
f 662/270/167 636/271/168 657/272/167
f 636/271/168 662/270/167 639/273/169
f 639/273/169 628/274/170 636/271/168
f 628/274/170 639/273/169 631/275/171
f 631/275/171 616/276/172 628/274/170
f 616/276/172 631/275/171 619/277/173
f 619/277/173 600/278/174 616/276/172
f 600/278/174 619/277/173 603/279/175
f 603/279/175 592/280/176 600/278/174
f 592/280/176 603/279/175 595/281/177
f 595/281/177 536/282/178 592/280/176
f 536/282/178 595/281/177 540/283/178
f 541/283/179 515/284/180 538/282/179
f 515/284/180 541/283/179 517/285/181
f 517/285/181 507/286/182 515/284/180
f 507/286/182 517/285/181 509/287/183
f 509/287/183 493/288/184 507/286/182
f 493/288/184 509/287/183 495/289/185
f 495/289/185 477/290/186 493/288/184
f 477/290/186 495/289/185 479/291/187
f 479/291/187 469/292/188 477/290/186
f 469/292/188 479/291/187 471/293/189
f 471/293/189 454/294/190 469/292/188
f 454/294/190 471/293/189 459/295/190
f 458/46/191 436/296/192 452/209/191
f 436/296/192 458/46/191 439/297/193
f 439/297/193 428/298/194 436/296/192
f 428/298/194 439/297/193 431/299/195
f 431/299/195 284/300/196 428/298/194
f 284/300/196 431/299/195 287/301/197
f 287/301/197 263/302/198 284/300/196
f 263/302/198 287/301/197 266/303/199
f 266/303/199 255/304/200 263/302/198
f 255/304/200 266/303/199 258/305/201
f 258/305/201 242/306/202 255/304/200
f 242/306/202 258/305/201 246/307/202
f 245/308/203 221/309/204 241/310/203
f 221/309/204 245/308/203 224/311/205
f 224/311/205 213/312/206 221/309/204
f 213/312/206 224/311/205 216/313/207
f 216/313/207 205/314/208 213/312/206
f 205/314/208 216/313/207 208/315/209
f 208/315/209 185/316/210 205/314/208
f 185/316/210 208/315/209 188/317/211
f 188/317/211 177/318/212 185/316/210
f 177/318/212 188/317/211 180/319/213
f 180/319/213 152/223/214 177/318/212
f 152/223/214 180/319/213 157/221/214
f 162/44/2 183/320/2 155/321/2
f 162/44/2 191/322/2 183/320/2
f 162/44/2 211/323/2 191/322/2
f 162/44/2 219/324/2 211/323/2
f 162/44/2 227/325/2 219/324/2
f 162/44/2 250/326/2 227/325/2
f 162/44/2 261/327/2 250/326/2
f 162/44/2 269/328/2 261/327/2
f 162/44/2 290/329/2 269/328/2
f 162/44/2 434/330/2 290/329/2
f 162/44/2 442/331/2 434/330/2
f 162/44/2 464/43/2 442/331/2
f 667/40/2 474/248/2 463/43/2
f 667/40/2 482/250/2 474/248/2
f 667/40/2 498/252/2 482/250/2
f 667/40/2 512/254/2 498/252/2
f 667/40/2 520/256/2 512/254/2
f 667/40/2 545/258/2 520/256/2
f 667/40/2 598/260/2 545/258/2
f 667/40/2 606/262/2 598/260/2
f 667/40/2 622/264/2 606/262/2
f 667/40/2 634/266/2 622/264/2
f 667/40/2 642/268/2 634/266/2
f 667/40/2 661/269/2 642/268/2
f 655/47/2 638/332/2 660/269/2
f 655/47/2 630/333/2 638/332/2
f 655/47/2 618/334/2 630/333/2
f 655/47/2 602/335/2 618/334/2
f 655/47/2 594/336/2 602/335/2
f 655/47/2 539/337/2 594/336/2
f 655/47/2 516/338/2 539/337/2
f 655/47/2 508/339/2 516/338/2
f 655/47/2 494/340/2 508/339/2
f 655/47/2 478/341/2 494/340/2
f 655/47/2 470/342/2 478/341/2
f 655/47/2 455/46/2 470/342/2
f 151/49/2 438/297/2 457/46/2
f 151/49/2 430/299/2 438/297/2
f 151/49/2 286/301/2 430/299/2
f 151/49/2 265/303/2 286/301/2
f 151/49/2 257/305/2 265/303/2
f 151/49/2 244/307/2 257/305/2
f 151/49/2 223/343/2 244/307/2
f 151/49/2 215/344/2 223/343/2
f 151/49/2 207/345/2 215/344/2
f 151/49/2 187/346/2 207/345/2
f 151/49/2 179/347/2 187/346/2
f 151/49/2 156/321/2 179/347/2
f 652/348/43 164/349/43 146/350/43
f 164/349/43 652/348/43 671/351/43
f 653/352/26 143/353/26 648/354/26
f 143/353/26 653/352/26 148/355/26
f 147/356/25 161/55/25 144/357/25
f 161/55/25 147/356/25 167/58/25
f 670/51/24 649/358/24 665/52/24
f 649/358/24 670/51/24 651/359/24
f 170/360/43 679/361/43 175/362/43
f 679/361/43 170/360/43 674/363/43
f 669/364/26 169/365/26 166/366/26
f 169/365/26 669/364/26 673/367/26
f 417/368/215 114/369/216 117/370/215
f 114/369/216 417/368/215 410/371/217
f 410/371/217 112/372/218 114/369/216
f 112/372/218 410/371/217 408/373/219
f 408/373/219 109/374/220 112/372/218
f 109/374/220 408/373/219 405/375/221
f 405/375/221 106/376/222 109/374/220
f 106/376/222 405/375/221 402/377/223
f 402/377/223 103/378/224 106/376/222
f 103/378/224 402/377/223 399/379/225
f 399/379/225 99/380/226 103/378/224
f 99/380/226 399/379/225 393/381/226
f 394/381/227 96/382/228 100/380/227
f 96/382/228 394/381/227 390/383/229
f 390/383/229 94/384/230 96/382/228
f 94/384/230 390/383/229 388/385/231
f 388/385/231 91/386/232 94/384/230
f 91/386/232 388/385/231 385/387/233
f 385/387/233 88/388/234 91/386/232
f 88/388/234 385/387/233 382/389/235
f 382/389/235 86/390/236 88/388/234
f 86/390/236 382/389/235 380/391/237
f 380/391/237 80/392/238 86/390/236
f 80/392/238 380/391/237 370/393/239
f 370/393/239 74/394/240 79/392/241
f 74/394/240 370/393/239 364/395/242
f 364/395/242 72/396/243 74/394/240
f 72/396/243 364/395/242 361/397/244
f 361/397/244 69/398/245 72/396/243
f 69/398/245 361/397/244 356/399/246
f 356/399/246 66/400/247 69/398/245
f 66/400/247 356/399/246 352/401/248
f 352/401/248 63/402/249 66/400/247
f 63/402/249 352/401/248 346/403/250
f 346/403/250 60/404/251 63/402/249
f 60/404/251 346/403/250 343/405/251
f 342/406/252 56/407/253 59/96/252
f 56/407/253 342/406/252 336/408/254
f 336/408/254 54/409/255 56/407/253
f 54/409/255 336/408/254 333/410/256
f 333/410/256 51/98/257 54/409/255
f 51/98/257 333/410/256 330/411/258
f 330/411/258 48/412/259 51/98/257
f 48/412/259 330/411/258 326/413/260
f 326/413/260 46/414/261 48/412/259
f 46/414/261 326/413/260 323/415/262
f 323/415/262 44/100/263 46/414/261
f 44/100/263 323/415/262 319/136/263
f 320/416/264 47/417/265 45/418/264
f 47/417/265 320/416/264 325/419/266
f 325/419/266 49/420/267 47/417/265
f 49/420/267 325/419/266 328/421/268
f 328/421/268 53/422/269 49/420/267
f 53/422/269 328/421/268 332/423/270
f 332/423/270 55/424/271 53/422/269
f 55/424/271 332/423/270 335/425/272
f 335/425/272 57/426/273 55/424/271
f 57/426/273 335/425/272 338/427/274
f 338/427/274 62/428/275 57/426/273
f 62/428/275 338/427/274 345/429/276
f 345/429/276 65/430/277 62/428/275
f 65/430/277 345/429/276 349/431/277
f 348/431/278 67/432/279 64/430/278
f 67/432/279 348/431/278 354/433/280
f 354/433/280 71/434/281 67/432/279
f 71/434/281 354/433/280 358/435/282
f 358/435/282 73/436/283 71/434/281
f 73/436/283 358/435/282 363/437/284
f 363/437/284 75/438/285 73/436/283
f 75/438/285 363/437/284 366/439/286
f 366/439/286 82/440/287 75/438/285
f 82/440/287 366/439/286 374/441/287
f 375/143/288 87/442/289 83/108/288
f 87/442/289 375/143/288 381/443/290
f 381/443/290 89/444/291 87/442/289
f 89/444/291 381/443/290 383/445/292
f 383/445/292 93/110/293 89/444/291
f 93/110/293 383/445/292 387/446/294
f 387/446/294 95/447/295 93/110/293
f 95/447/295 387/446/294 389/448/296
f 389/448/296 97/449/297 95/447/295
f 97/449/297 389/448/296 391/450/298
f 391/450/298 102/111/299 97/449/297
f 102/111/299 391/450/298 396/451/300
f 396/451/300 105/452/301 102/111/299
f 105/452/301 396/451/300 401/453/301
f 400/453/302 107/454/303 104/452/302
f 107/454/303 400/453/302 403/455/304
f 403/455/304 111/112/305 107/454/303
f 111/112/305 403/455/304 407/456/306
f 407/456/306 113/457/307 111/112/305
f 113/457/307 407/456/306 409/458/308
f 409/458/308 115/459/309 113/457/307
f 115/459/309 409/458/308 411/460/310
f 411/460/310 118/114/311 115/459/309
f 118/114/311 411/460/310 418/142/311
f 553/132/24 559/461/24 556/462/24
f 558/461/24 551/132/24 580/131/24
f 558/461/24 563/463/24 561/464/24
f 563/463/24 558/461/24 580/131/24
f 563/463/24 567/465/24 565/466/24
f 567/465/24 563/463/24 580/131/24
f 567/465/24 572/467/24 569/468/24
f 572/467/24 567/465/24 580/131/24
f 572/467/24 576/469/24 574/470/24
f 576/469/24 572/467/24 580/131/24
f 576/469/24 582/123/24 578/471/24
f 582/123/24 576/469/24 580/131/24
f 554/472/264 300/473/312 298/474/264
f 300/473/312 554/472/264 557/475/313
f 557/475/313 302/476/314 300/473/312
f 302/476/314 557/475/313 560/477/315
f 560/477/315 304/478/316 302/476/314
f 304/478/316 560/477/315 562/479/317
f 562/479/317 306/480/318 304/478/316
f 306/480/318 562/479/317 564/481/319
f 564/481/319 308/482/320 306/480/318
f 308/482/320 564/481/319 566/483/321
f 566/483/321 310/484/322 308/482/320
f 310/484/322 566/483/321 568/485/323
f 568/485/323 313/486/324 310/484/322
f 313/486/324 568/485/323 571/487/324
f 570/487/325 322/488/326 312/486/325
f 322/488/326 570/487/325 573/489/327
f 573/489/327 340/490/328 322/488/326
f 340/490/328 573/489/327 575/491/329
f 575/491/329 351/492/330 340/490/328
f 351/492/330 575/491/329 577/493/331
f 577/493/331 360/494/332 351/492/330
f 360/494/332 577/493/331 579/495/333
f 579/495/333 378/496/334 360/494/332
f 378/496/334 579/495/333 583/497/334
f 324/498/25 295/135/25 299/499/25
f 295/135/25 324/498/25 318/136/25
f 327/500/25 299/499/25 301/501/25
f 299/499/25 327/500/25 324/498/25
f 331/502/25 301/501/25 303/503/25
f 301/501/25 331/502/25 327/500/25
f 334/504/25 303/503/25 305/505/25
f 303/503/25 334/504/25 331/502/25
f 337/506/25 305/505/25 307/507/25
f 305/505/25 337/506/25 334/504/25
f 344/508/25 307/507/25 309/509/25
f 307/507/25 344/508/25 337/506/25
f 347/510/25 309/509/25 311/511/25
f 309/509/25 347/510/25 344/508/25
f 353/512/25 311/511/25 321/513/25
f 311/511/25 353/512/25 347/510/25
f 357/514/25 321/513/25 339/515/25
f 321/513/25 357/514/25 353/512/25
f 362/516/25 339/515/25 350/517/25
f 339/515/25 362/516/25 357/514/25
f 365/518/25 350/517/25 359/519/25
f 350/517/25 365/518/25 362/516/25
f 373/143/25 359/519/25 377/125/25
f 359/519/25 373/143/25 365/518/25
f 420/141/25 386/446/25 371/143/25
f 420/141/25 395/451/25 386/446/25
f 420/141/25 406/456/25 395/451/25
f 420/141/25 415/142/25 406/456/25
f 413/138/25 404/520/25 416/142/25
f 413/138/25 392/521/25 404/520/25
f 413/138/25 384/522/25 392/521/25
f 413/138/25 369/140/25 384/522/25
f 314/134/25 355/523/25 367/140/25
f 314/134/25 341/406/25 355/523/25
f 314/134/25 329/411/25 341/406/25
f 314/134/25 316/136/25 329/411/25
f 181/524/43 159/217/43 153/218/43
f 189/525/43 159/217/43 181/524/43
f 209/526/43 159/217/43 189/525/43
f 217/527/43 159/217/43 209/526/43
f 225/528/43 159/217/43 217/527/43
f 248/529/43 159/217/43 225/528/43
f 260/530/43 159/217/43 248/529/43
f 268/531/43 159/217/43 260/530/43
f 289/532/43 159/217/43 268/531/43
f 433/533/43 159/217/43 289/532/43
f 441/534/43 159/217/43 433/533/43
f 461/214/43 159/217/43 441/534/43
f 472/247/43 664/215/43 461/214/43
f 480/249/43 664/215/43 472/247/43
f 496/251/43 664/215/43 480/249/43
f 510/253/43 664/215/43 496/251/43
f 518/255/43 664/215/43 510/253/43
f 542/257/43 664/215/43 518/255/43
f 596/259/43 664/215/43 542/257/43
f 604/261/43 664/215/43 596/259/43
f 620/263/43 664/215/43 604/261/43
f 632/265/43 664/215/43 620/263/43
f 640/267/43 664/215/43 632/265/43
f 658/220/43 664/215/43 640/267/43
f 637/535/43 654/212/43 658/220/43
f 629/536/43 654/212/43 637/535/43
f 617/537/43 654/212/43 629/536/43
f 601/538/43 654/212/43 617/537/43
f 593/539/43 654/212/43 601/538/43
f 537/540/43 654/212/43 593/539/43
f 514/541/43 654/212/43 537/540/43
f 506/542/43 654/212/43 514/541/43
f 492/543/43 654/212/43 506/542/43
f 476/544/43 654/212/43 492/543/43
f 468/545/43 654/212/43 476/544/43
f 453/209/43 654/212/43 468/545/43
f 437/296/43 149/219/43 453/209/43
f 429/298/43 149/219/43 437/296/43
f 285/300/43 149/219/43 429/298/43
f 264/302/43 149/219/43 285/300/43
f 256/304/43 149/219/43 264/302/43
f 243/306/43 149/219/43 256/304/43
f 222/546/43 149/219/43 243/306/43
f 214/547/43 149/219/43 222/546/43
f 206/548/43 149/219/43 214/547/43
f 186/549/43 149/219/43 206/548/43
f 178/550/43 149/219/43 186/549/43
f 153/218/43 149/219/43 178/550/43
