# Blender 4.5.2 LTS
# www.blender.org
mtllib leg_right_white.mtl
o leg_right_white
v -7.579781 0.962780 8.760535
v -7.577990 1.519180 8.207206
v -7.426001 -1.299629 5.373267
v -7.427790 -1.856030 5.926596
v -7.479589 0.413570 9.312190
v -7.327600 -2.405239 6.478252
v -7.278900 -0.119049 9.852733
v -7.126909 -2.937870 7.018794
v -6.980410 -0.625650 10.372627
v -6.828421 -3.444460 7.538689
v -6.590521 -1.097969 10.863335
v -6.438530 -3.916771 8.029397
v -6.114389 -1.527370 11.315987
v -5.962400 -4.346180 8.482049
v -5.561590 -1.907270 11.723503
v -5.409600 -4.726080 8.889565
v -4.940390 -2.230230 12.078053
v -4.788400 -5.049040 9.244114
v -4.262350 -2.491730 12.374526
v -4.110360 -5.310540 9.540587
v -3.538340 -2.686430 12.607018
v -3.386350 -5.505240 9.773080
v -2.781280 -2.811489 12.772014
v -2.629290 -5.630300 9.938074
v -2.004170 -2.864929 12.866839
v -1.852180 -5.683740 10.032901
v -1.220040 -2.845169 12.889246
v -1.068050 -5.663980 10.055306
v -0.442180 -2.753229 12.839507
v -0.290190 -5.572040 10.005569
v 0.316099 -2.590500 12.718318
v 0.468089 -5.409310 9.884380
v 1.041382 -2.359270 12.527220
v 1.193372 -5.178080 9.693281
v 1.721816 -2.064390 12.270409
v 1.873805 -4.883200 9.436470
v 2.345030 -1.709869 11.951200
v 2.497020 -4.528680 9.117260
v 2.901360 -1.302731 11.576073
v 3.053349 -4.121540 8.742135
v 3.380022 -0.849150 11.150584
v 3.532011 -3.667959 8.316646
v 3.774219 -0.357500 10.682703
v 3.926208 -3.176310 7.848764
v 4.076000 0.164280 10.179892
v 4.227989 -2.654530 7.345952
v 4.280875 0.706909 9.651143
v 4.432865 -2.111891 6.817204
v 4.385556 1.261089 9.105539
v 4.537545 -1.557720 6.271601
v 4.387351 1.817490 8.552210
v 4.539340 -1.001320 5.718271
v 4.287156 2.366699 8.000555
v 4.439146 -0.452110 5.166616
v 4.086466 2.899321 7.460012
v 4.238456 0.080509 4.626074
v 3.787975 3.405910 6.940118
v 3.939965 0.587099 4.106179
v 3.398084 3.878229 6.449409
v 3.550073 1.059420 3.615471
v 2.921958 4.307640 5.996758
v 3.073947 1.488831 3.162819
v 2.369156 4.687540 5.589241
v 2.521146 1.868731 2.755303
v 1.747957 5.010500 5.234692
v 1.899947 2.191690 2.400753
v 1.069916 5.271999 4.938219
v 1.221905 2.453190 2.104280
v 0.345909 5.466700 4.705727
v 0.497898 2.647890 1.871788
v -0.411150 5.591761 4.540732
v -0.259160 2.772949 1.706793
v -1.188260 5.645201 4.445906
v -1.036270 2.826389 1.611967
v -1.972390 5.625441 4.423499
v -1.820400 2.806629 1.589561
v -2.750260 5.533489 4.473238
v -2.598270 2.714689 1.639300
v -3.508530 5.370770 4.594427
v -3.356540 2.551960 1.760488
v -4.233810 5.139540 4.785525
v -4.081830 2.320730 1.951587
v -4.914250 4.844660 5.042336
v -4.762260 2.025850 2.208397
v -5.537460 4.490129 5.361546
v -5.385470 1.671320 2.527607
v -6.093790 4.083000 5.736671
v -5.941800 1.264191 2.902733
v -6.572451 3.629419 6.162161
v -6.420469 0.810610 3.328222
v -6.966650 3.137770 6.630042
v -6.814659 0.318960 3.796103
v -7.268431 2.615990 7.132854
v -7.116440 -0.202820 4.298915
v -7.473310 2.073351 7.661602
v -7.321320 -0.745461 4.827663
v -7.833950 -5.554700 9.583734
v -7.426001 -1.299629 5.373267
v -7.427790 -1.856030 5.926596
v -7.327600 -2.405239 6.478252
v -7.126909 -2.937870 7.018794
v -6.828421 -3.444460 7.538689
v -6.438530 -3.916771 8.029397
v -5.962400 -4.346180 8.482049
v -5.409600 -4.726080 8.889565
v -4.788400 -5.049040 9.244114
v -4.110360 -5.310540 9.540587
v -3.386350 -5.505240 9.773080
v -2.629290 -5.630300 9.938074
v -1.852180 -5.683740 10.032901
v 4.129592 -5.812780 10.482067
v -1.068050 -5.663980 10.055306
v -0.290190 -5.572040 10.005569
v 0.468089 -5.409310 9.884380
v 1.193372 -5.178080 9.693281
v 1.873805 -4.883200 9.436470
v 2.497020 -4.528680 9.117260
v 3.053349 -4.121540 8.742135
v 3.532011 -3.667959 8.316646
v 3.926208 -3.176310 7.848764
v 4.227989 -2.654530 7.345952
v 4.432865 -2.111891 6.817204
v 4.537545 -1.557720 6.271601
v 4.945498 2.697340 2.061134
v 4.539340 -1.001320 5.718271
v 4.439146 -0.452110 5.166616
v 4.238456 0.080509 4.626074
v 3.939965 0.587099 4.106179
v 3.550073 1.059420 3.615471
v 3.073947 1.488831 3.162819
v 2.521146 1.868731 2.755303
v 1.899947 2.191690 2.400753
v 1.221905 2.453190 2.104280
v 0.497898 2.647890 1.871788
v -0.259160 2.772949 1.706793
v -1.036270 2.826389 1.611967
v -7.018049 2.955429 1.162801
v -1.820400 2.806629 1.589561
v -2.598270 2.714689 1.639300
v -3.356540 2.551960 1.760488
v -4.081830 2.320730 1.951587
v -4.762260 2.025850 2.208397
v -5.385470 1.671320 2.527607
v -5.941800 1.264191 2.902733
v -6.420469 0.810610 3.328222
v -6.814659 0.318960 3.796103
v -7.116440 -0.202820 4.298915
v -7.321320 -0.745461 4.827663
v -8.105921 -8.391400 12.390712
v 3.857623 -8.649490 13.289045
v 5.217467 5.534050 -0.745844
v -6.746080 5.792139 -1.644182
v 5.521446 -0.103573 -6.413722
v -6.442101 0.154518 -7.312052
v -7.529970 -11.192314 3.915856
v 4.433571 -11.450398 4.814190
v 5.521446 -0.103573 -6.413722
v 5.217467 5.534050 -0.745844
v -6.746080 5.792139 -1.644182
v -6.442101 0.154518 -7.312052
v -6.442101 0.154518 -7.312052
v -6.746080 5.792139 -1.644182
v -7.833950 -5.554700 9.583734
v -7.529970 -11.192314 3.915856
v 4.433571 -11.450398 4.814190
v 4.129592 -5.812780 10.482067
v 5.217467 5.534050 -0.745844
v 5.521446 -0.103573 -6.413722
v 3.857623 -8.649490 13.289045
v 4.313591 -17.105917 4.787230
v 4.585560 -14.269209 1.980251
v -7.649950 -16.847832 3.888896
v -8.105921 -8.391400 12.390712
v -7.377979 -14.011125 1.081918
v -7.377979 -14.011125 1.081918
v -7.649950 -16.847832 3.888896
v 4.313591 -17.105917 4.787230
v 4.585560 -14.269209 1.980251
v 4.433571 -11.450398 4.814190
v -7.529970 -11.192314 3.915856
v -7.377979 -14.011125 1.081918
v 4.585560 -14.269209 1.980251
v 4.313591 -17.105917 4.787230
v 3.857623 -8.649490 13.289045
v 7.195000 -5.905949 16.384998
v 7.954948 -20.000000 2.215305
v -8.105921 -8.391400 12.390712
v -10.750320 -5.518830 15.037497
v -7.649950 -16.847832 3.888896
v -9.990370 -19.612875 0.867804
v -9.446430 -13.939460 -4.746150
v -9.636419 -10.415948 -1.203732
v -10.750320 -5.518830 15.037497
v -9.990370 -19.612875 0.867804
v -8.800110 -1.693071 -9.835182
v -8.985689 -1.206491 -7.223902
v -9.184481 0.904037 -3.970263
v -9.274481 4.149250 -1.839422
v -9.246481 7.964491 -1.116102
v -9.125299 11.430500 -1.734192
v -8.301630 -1.703821 -9.797752
v -8.487221 -1.217241 -7.186472
v -8.985689 -1.206491 -7.223902
v -8.800110 -1.693071 -9.835182
v -8.686001 0.893278 -3.932833
v -9.184481 0.904037 -3.970263
v -8.775999 4.138491 -1.801992
v -9.274481 4.149250 -1.839422
v -8.747999 7.953730 -1.078674
v -9.246481 7.964491 -1.116102
v -8.626820 11.419750 -1.696762
v -9.125299 11.430500 -1.734192
v -8.223181 6.151709 -8.585772
v -8.210051 5.857517 -8.845043
v -2.507430 5.734499 -8.416842
v -2.520550 6.028688 -8.157572
v -8.232599 6.477198 -8.366762
v -2.529980 6.354177 -7.938562
v -8.238159 6.828499 -8.191843
v -2.535530 6.705467 -7.763632
v -8.239719 7.199669 -8.064423
v -2.537090 7.076637 -7.636211
v -8.237310 7.584139 -7.986012
v -2.534690 7.461119 -7.557802
v -8.230909 7.975557 -7.958763
v -2.528290 7.852537 -7.530552
v -8.220699 8.367138 -7.982273
v -2.518080 8.244118 -7.554071
v -8.206779 8.752098 -8.057022
v -2.504160 8.629078 -7.628813
v -8.189461 9.124067 -8.180902
v -2.486830 9.001049 -7.752693
v -8.168970 9.476458 -8.352472
v -2.466350 9.353437 -7.924263
v -8.145710 9.803339 -8.568373
v -2.443080 9.680319 -8.140162
v -8.120070 10.099157 -8.824821
v -2.417450 9.976137 -8.396622
v -8.092470 10.358618 -9.117832
v -2.389850 10.235598 -8.689632
v -8.063391 10.577667 -9.442133
v -2.360770 10.454649 -9.013933
v -8.033331 10.752478 -9.792242
v -2.330710 10.629457 -9.364042
v -8.002810 10.879627 -10.162252
v -2.300180 10.756609 -9.734043
v -7.972340 10.957628 -10.545612
v -2.269710 10.834608 -10.117403
v -7.942450 10.984308 -10.935982
v -2.239830 10.861288 -10.507772
v -7.913639 10.960098 -11.326591
v -2.211020 10.837078 -10.898392
v -7.886431 10.884548 -11.710682
v -2.183810 10.761528 -11.282473
v -7.861250 10.759748 -12.081892
v -2.158620 10.636728 -11.653683
v -7.838560 10.587168 -12.433653
v -2.135930 10.464148 -12.005453
v -7.818729 10.370178 -12.760033
v -2.116110 10.247158 -12.331833
v -7.802099 10.112577 -13.055511
v -2.099480 9.989557 -12.627302
v -7.788980 9.818398 -13.314783
v -2.086360 9.695377 -12.886572
v -7.779551 9.492899 -13.533792
v -2.076930 9.369879 -13.105583
v -7.774000 9.141607 -13.708712
v -2.071370 9.018589 -13.280512
v -7.772440 8.770437 -13.836142
v -2.069810 8.647419 -13.407932
v -7.774839 8.385967 -13.914543
v -2.072220 8.262949 -13.486341
v -7.781240 7.994537 -13.941792
v -2.078620 7.871517 -13.513592
v -7.791451 7.602959 -13.918282
v -2.088830 7.479939 -13.490072
v -7.805370 7.217999 -13.843542
v -2.102750 7.094978 -13.415333
v -7.822701 6.846039 -13.719662
v -2.120070 6.723007 -13.291452
v -7.843180 6.493639 -13.548092
v -2.140560 6.370619 -13.119883
v -7.866449 6.166769 -13.332182
v -2.163820 6.043749 -12.903982
v -7.892080 5.870937 -13.075733
v -2.189460 5.747917 -12.647522
v -7.919680 5.611479 -12.782722
v -2.217060 5.488459 -12.354513
v -7.948759 5.392427 -12.458422
v -2.246140 5.269407 -12.030212
v -7.978821 5.217619 -12.108313
v -2.276200 5.094599 -11.680101
v -8.009350 5.090467 -11.738302
v -2.306720 4.967447 -11.310102
v -8.039820 5.012478 -11.354952
v -2.337190 4.889458 -10.926743
v -8.069700 4.985788 -10.964573
v -2.367080 4.862768 -10.536373
v -8.098511 5.009998 -10.573963
v -2.395890 4.886978 -10.145761
v -8.125719 5.085558 -10.189873
v -2.423100 4.962538 -9.761662
v -8.150909 5.210358 -9.818663
v -2.448280 5.087337 -9.390463
v -8.173599 5.382938 -9.466902
v -2.470970 5.259918 -9.038692
v -8.193420 5.599928 -9.140522
v -2.490800 5.476908 -8.712313
v -8.348049 14.327370 -4.573914
v -8.626820 11.419750 -1.696762
v -8.230909 7.975557 -7.958763
v -8.189461 9.124067 -8.180902
v -8.088160 16.245369 -7.483992
v -8.120070 10.099157 -8.824821
v -7.817110 16.892490 -10.907812
v -8.033331 10.752478 -9.792242
v -7.573050 16.267120 -14.337702
v -7.942450 10.984308 -10.935982
v -7.394150 14.367645 -17.265982
v -7.861250 10.759748 -12.081892
v -7.313150 11.446949 -19.183743
v -7.802099 10.112577 -13.055511
v -7.338341 8.013239 -19.834723
v -7.774000 9.141607 -13.708712
v -7.458929 4.575499 -19.216503
v -7.781240 7.994537 -13.941792
v -7.664101 1.642729 -17.326643
v -7.822701 6.846039 -13.719662
v -7.923990 -0.275272 -14.416563
v -7.892080 5.870937 -13.075733
v -8.236361 -1.023012 -10.471432
v -7.978821 5.217619 -12.108313
v -8.301630 -1.703821 -9.797752
v -8.069700 4.985788 -10.964573
v -8.487221 -1.217241 -7.186472
v -8.150909 5.210358 -9.818663
v -8.686001 0.893278 -3.932833
v -8.210051 5.857517 -8.845043
v -8.775999 4.138491 -1.801992
v -8.238159 6.828499 -8.191843
v -8.747999 7.953730 -1.078674
v 4.749480 10.735357 -15.193512
v 4.730632 11.386337 -14.755493
v 4.704389 11.974718 -14.236961
v 4.296435 7.719658 -10.026493
v 4.763715 9.290428 -15.798212
v 4.760593 10.032768 -15.543362
v 4.746107 7.738638 -16.009533
v 4.758903 8.521479 -15.955032
v 4.697846 6.185549 -15.813013
v 4.725680 6.955467 -15.962492
v 4.622223 4.736828 -15.222113
v 4.663194 5.441618 -15.565252
v 4.524419 3.491438 -14.277403
v 4.575697 4.083088 -14.790312
v -1.869260 11.528719 -15.251072
v -1.895500 12.117088 -14.732542
v 4.704389 11.974718 -14.236961
v 4.730632 11.386337 -14.755493
v -1.850410 10.877739 -15.689093
v 4.749480 10.735357 -15.193512
v -1.839300 10.175148 -16.038942
v 4.760593 10.032768 -15.543362
v -1.836170 9.432808 -16.293793
v 4.763715 9.290428 -15.798212
v -1.840990 8.663858 -16.450613
v 4.758903 8.521479 -15.955032
v -1.853780 7.881018 -16.505112
v 4.746107 7.738638 -16.009533
v -1.874210 7.097849 -16.458073
v 4.725680 6.955467 -15.962492
v -1.902040 6.327929 -16.308592
v 4.697846 6.185549 -15.813013
v -1.936700 5.583998 -16.060833
v 4.663194 5.441618 -15.565252
v -1.977660 4.879208 -15.717691
v 4.622223 4.736828 -15.222113
v -2.024190 4.225468 -15.285892
v 4.575697 4.083088 -14.790312
v -2.075470 3.633818 -14.772982
v 4.524419 3.491438 -14.277403
v -2.085490 15.640610 -11.190113
v 4.514402 15.498230 -10.694532
v 4.365677 2.298147 -12.506172
v -2.249330 2.326868 -12.833063
v 4.255322 2.222149 -12.394163
v 2.200907 1.933899 -11.031992
v -2.365860 2.025309 -11.367842
v -0.135160 1.875599 -10.661743
v 4.514402 15.498230 -10.694532
v 3.963665 9.753899 -5.010403
v 4.365677 2.298147 -12.506172
v -2.086360 9.695377 -12.886572
v -1.869260 11.528719 -15.251072
v -1.895500 12.117088 -14.732542
v -2.099480 9.989557 -12.627302
v -2.076930 9.369879 -13.105583
v -1.850410 10.877739 -15.689093
v -2.071370 9.018589 -13.280512
v -1.839300 10.175148 -16.038942
v -2.069810 8.647419 -13.407932
v -1.836170 9.432808 -16.293793
v -2.072220 8.262949 -13.486341
v -1.840990 8.663858 -16.450613
v -2.078620 7.871517 -13.513592
v -1.853780 7.881018 -16.505112
v -2.088830 7.479939 -13.490072
v -1.874210 7.097849 -16.458073
v -2.102750 7.094978 -13.415333
v -1.902040 6.327929 -16.308592
v -2.120070 6.723007 -13.291452
v -1.936700 5.583998 -16.060833
v -2.140560 6.370619 -13.119883
v -1.977660 4.879208 -15.717691
v -2.163820 6.043749 -12.903982
v -2.024190 4.225468 -15.285892
v -2.189460 5.747917 -12.647522
v -2.075470 3.633818 -14.772982
v -2.393440 3.620388 -10.542292
v -2.276200 5.094599 -11.680101
v -2.367080 4.862768 -10.536373
v -2.448280 5.087337 -9.390463
v -2.507430 5.734499 -8.416842
v -2.621420 7.848608 -6.291382
v -2.535530 6.705467 -7.763632
v -2.528290 7.852537 -7.530552
v -2.486830 9.001049 -7.752693
v -2.417450 9.976137 -8.396622
v -2.213470 12.103668 -10.501852
v -2.330710 10.629457 -9.364042
v -2.239830 10.861288 -10.507772
v -2.158620 10.636728 -11.653683
v -2.085490 15.640610 -11.190113
v -2.734810 8.867968 -4.488452
v -2.365860 2.025309 -11.367842
v -2.249330 2.326868 -12.833063
v 5.286053 11.007229 -6.186122
v 3.963665 9.753899 -5.010403
v 4.514402 15.498230 -10.694532
v 5.897390 12.625820 -7.763283
v 5.598300 14.264050 -9.408812
v 4.433793 15.672371 -10.872072
v 2.581750 16.636730 -11.930603
v 3.079584 16.377480 -11.646042
v 0.323571 17.009918 -12.422922
v -2.085490 15.640610 -11.190113
v -1.996700 16.735500 -12.274403
v -2.542090 16.498749 -12.068163
v -5.454820 14.502491 -10.238783
v -6.066151 12.883900 -8.661623
v -5.767070 11.245668 -7.016092
v -4.602560 9.837349 -5.552842
v -2.734810 8.867968 -4.488452
v 1.675944 11.593040 -1.316573
v -0.644330 11.318609 -1.168053
v -0.135160 1.875599 -10.661743
v 2.200908 1.933899 -11.031992
v 3.704876 12.473671 -2.083694
v 4.255322 2.222149 -12.394163
v 4.365677 2.298147 -12.506172
v 3.963665 9.753899 -5.010403
v 5.286053 11.007229 -6.186122
v 5.134064 13.826038 -3.352183
v 5.212924 14.034828 -3.555634
v 5.761401 15.147881 -5.227694
v 5.897390 12.625820 -7.763283
v 5.587765 15.950352 -6.457073
v 5.598300 14.264050 -9.408812
v 5.496559 16.150959 -7.511772
v 4.382895 16.616322 -9.923052
v 4.433793 15.672371 -10.872072
v 4.302660 16.631039 -9.997753
v 3.079584 16.377480 -11.646042
v 2.601075 16.278320 -12.290943
v 3.079584 16.377480 -11.646042
v 2.581750 16.636730 -11.930603
v 0.323571 17.009918 -12.422922
v 0.368131 16.183521 -13.253763
v -1.996700 16.735500 -12.274403
v -1.977370 16.377090 -12.634733
v -2.542090 16.498749 -12.068163
v -3.985480 16.809830 -10.620102
v -2.542090 16.498749 -12.068163
v -4.025630 15.854858 -11.507282
v -4.076530 16.798809 -10.558262
v -5.556560 16.389408 -8.341742
v -5.454820 14.502491 -10.238783
v -5.812690 16.196289 -7.313133
v -6.066151 12.883900 -8.661623
v -6.202141 15.405960 -6.126023
v -5.767070 11.245668 -7.016092
v -5.957640 14.275810 -4.394423
v -5.919050 14.064480 -4.182154
v -4.602560 9.837349 -5.552842
v -4.754550 12.656158 -2.718904
v -2.734810 8.867968 -4.488452
v -2.902500 11.691799 -1.660363
v -2.365860 2.025309 -11.367842
v 0.368131 16.183521 -13.253763
v -7.573050 16.267120 -14.337702
v 8.408249 15.922359 -13.137682
v 2.601075 16.278320 -12.290943
v -1.977370 16.377090 -12.634733
v -2.542090 16.498749 -12.068163
v 3.079584 16.377480 -11.646042
v 8.243950 16.546009 -9.701803
v 4.302660 16.631039 -9.997753
v -3.985480 16.809830 -10.620102
v -7.817110 16.892490 -10.907812
v -7.394150 14.367645 -17.265982
v 8.557246 14.023529 -16.068203
v -7.313150 11.446949 -19.183743
v 8.668152 11.102198 -17.983713
v -7.338341 8.013239 -19.834723
v 8.722717 7.666758 -18.628712
v 7.962247 13.975521 -3.349194
v 5.212924 14.034828 -3.555634
v 5.761401 15.147881 -5.227694
v 8.092532 15.896309 -6.268993
v 5.587765 15.950352 -6.457073
v 5.496559 16.150959 -7.511772
v 4.382895 16.616322 -9.923052
v -8.088160 16.245369 -7.483992
v -6.202141 15.405960 -6.126023
v -5.957640 14.275810 -4.394423
v -8.348049 14.327370 -4.573914
v -5.812690 16.196289 -7.313133
v -5.556560 16.389408 -8.341742
v -4.076530 16.798809 -10.558262
v -7.985941 -2.735889 12.417672
v -7.577990 1.519180 8.207206
v -7.579781 0.962780 8.760535
v -7.479589 0.413570 9.312190
v -7.278900 -0.119049 9.852733
v -6.980410 -0.625650 10.372627
v -6.590521 -1.097969 10.863335
v -6.114389 -1.527370 11.315987
v -5.561590 -1.907270 11.723503
v -4.940390 -2.230230 12.078053
v -4.262350 -2.491730 12.374526
v -3.538340 -2.686430 12.607018
v -2.781280 -2.811489 12.772014
v -2.004170 -2.864929 12.866839
v 3.977602 -2.993971 13.316006
v -1.220040 -2.845169 12.889246
v -0.442180 -2.753229 12.839507
v 0.316099 -2.590500 12.718318
v 1.041382 -2.359270 12.527220
v 1.721816 -2.064390 12.270409
v 2.345030 -1.709869 11.951200
v 2.901360 -1.302731 11.576073
v 3.380022 -0.849150 11.150584
v 3.774219 -0.357500 10.682703
v 4.076000 0.164280 10.179892
v 4.280875 0.706909 9.651143
v 4.385556 1.261089 9.105539
v 4.793509 5.516150 4.895073
v 4.387351 1.817490 8.552210
v 4.287156 2.366699 8.000555
v 4.086466 2.899321 7.460012
v 3.787975 3.405910 6.940118
v 3.398084 3.878229 6.449409
v 2.921958 4.307640 5.996758
v 2.369156 4.687540 5.589241
v 1.747957 5.010500 5.234692
v 1.069916 5.271999 4.938219
v 0.345909 5.466700 4.705727
v -0.411150 5.591761 4.540732
v -1.188260 5.645201 4.445906
v -7.170031 5.774240 3.996739
v -1.972390 5.625441 4.423499
v -2.750260 5.533489 4.473238
v -3.508530 5.370770 4.594427
v -4.233810 5.139540 4.785525
v -4.914250 4.844660 5.042336
v -5.537460 4.490129 5.361546
v -6.093790 4.083000 5.736671
v -6.572451 3.629419 6.162161
v -6.966650 3.137770 6.630042
v -7.268431 2.615990 7.132854
v -7.473310 2.073351 7.661602
v -8.626820 11.419750 -1.696762
v -2.902500 11.691799 -1.660363
v -0.644330 11.318609 -1.168053
v -4.754550 12.656158 -2.718904
v -5.919050 14.064480 -4.182154
v 5.134064 13.826038 -3.352183
v 3.704875 12.473671 -2.083694
v 1.675944 11.593040 -1.316573
v 7.195000 -5.905949 16.384998
v -10.750320 -5.518830 15.037497
v -9.125299 11.430500 -1.734192
v -4.025630 15.854858 -11.507282
v 7.954948 -20.000000 2.215305
v 7.195000 -5.905949 16.384998
v 7.989871 -10.796191 0.119817
v 8.179858 -14.319704 -3.422610
v 7.962247 13.975521 -3.349194
v 8.353088 -1.380892 -9.225742
v 8.304221 7.633198 -9.725552
v 8.092532 15.896309 -6.268993
v 8.243950 16.546009 -9.701803
v 8.408250 15.922359 -13.137682
v 8.557246 14.023529 -16.068203
v 8.668152 11.102198 -17.983713
v 8.722717 7.666758 -18.628712
v 8.721768 4.226439 -18.001503
v 8.646199 1.290878 -16.101912
v 8.525882 -0.630133 -13.181353
v -9.636419 -10.415948 -1.203732
v -9.446430 -13.939460 -4.746150
v 8.179858 -14.319704 -3.422610
v 7.989871 -10.796191 0.119817
v -9.446430 -13.939460 -4.746150
v -9.990370 -19.612875 0.867804
v 7.954948 -20.000000 2.215305
v 8.179858 -14.319704 -3.422610
v 8.327695 -2.062561 -8.549072
v -8.800110 -1.693071 -9.835182
v -9.636419 -10.415948 -1.203732
v 7.989871 -10.796191 0.119817
v 8.353088 -1.380892 -9.225742
v -8.236361 -1.023012 -10.471432
v -8.301630 -1.703821 -9.797752
v -7.923990 -0.275272 -14.416563
v -8.236361 -1.023012 -10.471432
v 8.353088 -1.380892 -9.225742
v 8.525882 -0.630133 -13.181353
v -7.664101 1.642729 -17.326643
v 8.646199 1.290878 -16.101912
v 8.721768 4.226439 -18.001503
v -7.458929 4.575499 -19.216503
vn 0.9982 -0.0059 0.0594
vn 0.9952 -0.0371 0.0903
vn 0.9984 0.0560 -0.0021
vn 0.9957 0.0866 -0.0328
vn 0.9846 0.1475 -0.0939
vn 0.9762 0.1776 -0.1243
vn 0.9539 0.2369 -0.1844
vn 0.9399 0.2660 -0.2142
vn 0.9068 0.3222 -0.2719
vn 0.8877 0.3493 -0.2999
vn 0.8443 0.4018 -0.3544
vn 0.8200 0.4272 -0.3809
vn 0.7671 0.4750 -0.4313
vn 0.7386 0.4973 -0.4551
vn 0.6772 0.5395 -0.5003
vn 0.6442 0.5593 -0.5218
vn 0.5751 0.5952 -0.5612
vn 0.5391 0.6114 -0.5792
vn 0.4639 0.6404 -0.6121
vn 0.4245 0.6532 -0.6270
vn 0.3440 0.6749 -0.6528
vn 0.3028 0.6838 -0.6639
vn 0.2189 0.6976 -0.6822
vn 0.1763 0.7026 -0.6894
vn 0.0899 0.7085 -0.6999
vn 0.0461 0.7095 -0.7032
vn -0.0411 0.7073 -0.7057
vn -0.0845 0.7042 -0.7050
vn -0.1707 0.6940 -0.6995
vn -0.2134 0.6869 -0.6947
vn -0.2978 0.6688 -0.6812
vn -0.3394 0.6577 -0.6724
vn -0.4199 0.6321 -0.6512
vn -0.4588 0.6175 -0.6389
vn -0.5345 0.5847 -0.6103
vn -0.5711 0.5665 -0.5941
vn -0.6404 0.5271 -0.5586
vn -0.6730 0.5060 -0.5394
vn -0.7349 0.4607 -0.4977
vn -0.7639 0.4366 -0.4752
vn -0.8172 0.3861 -0.4279
vn -0.8414 0.3600 -0.4032
vn -0.8851 0.3054 -0.3512
vn -0.9046 0.2770 -0.3240
vn -0.9382 0.2189 -0.2680
vn -0.9523 0.1893 -0.2393
vn -0.9750 0.1292 -0.1808
vn -0.9836 0.0987 -0.1509
vn -0.9952 0.0371 -0.0903
vn -0.9982 0.0059 -0.0594
vn -0.9984 -0.0560 0.0021
vn -0.9957 -0.0866 0.0328
vn -0.9846 -0.1475 0.0939
vn -0.9762 -0.1776 0.1243
vn -0.9539 -0.2369 0.1844
vn -0.9399 -0.2660 0.2142
vn -0.9068 -0.3222 0.2719
vn -0.8877 -0.3494 0.2999
vn -0.8443 -0.4019 0.3544
vn -0.8200 -0.4272 0.3809
vn -0.7671 -0.4750 0.4313
vn -0.7386 -0.4973 0.4551
vn -0.6772 -0.5395 0.5003
vn -0.6442 -0.5593 0.5218
vn -0.5751 -0.5952 0.5612
vn -0.5391 -0.6114 0.5792
vn -0.4639 -0.6404 0.6121
vn -0.4245 -0.6532 0.6270
vn -0.3440 -0.6749 0.6528
vn -0.3028 -0.6838 0.6639
vn -0.2189 -0.6976 0.6822
vn -0.1763 -0.7026 0.6894
vn -0.0899 -0.7085 0.6999
vn -0.0461 -0.7095 0.7032
vn 0.0411 -0.7073 0.7057
vn 0.0845 -0.7042 0.7050
vn 0.1707 -0.6940 0.6995
vn 0.2134 -0.6869 0.6947
vn 0.2978 -0.6688 0.6812
vn 0.3394 -0.6577 0.6724
vn 0.4199 -0.6321 0.6512
vn 0.4588 -0.6175 0.6389
vn 0.5345 -0.5847 0.6103
vn 0.5711 -0.5665 0.5941
vn 0.6404 -0.5271 0.5586
vn 0.6730 -0.5060 0.5394
vn 0.7349 -0.4607 0.4977
vn 0.7639 -0.4366 0.4752
vn 0.8172 -0.3861 0.4279
vn 0.8414 -0.3600 0.4032
vn 0.8851 -0.3054 0.3512
vn 0.9046 -0.2770 0.3240
vn 0.9382 -0.2189 0.2680
vn 0.9523 -0.1893 0.2393
vn 0.9750 -0.1292 0.1808
vn 0.9836 -0.0987 0.1509
vn 0.0380 -0.7047 -0.7085
vn 0.0379 -0.7047 -0.7085
vn 0.0380 -0.7046 -0.7085
vn -0.0380 0.7047 0.7085
vn -0.0680 -0.7092 0.7017
vn 0.9970 -0.0215 0.0749
vn -0.9970 0.0215 -0.0749
vn 0.0457 0.9397 -0.3388
vn 0.0534 0.8887 -0.4554
vn 0.0348 0.9829 -0.1807
vn 0.0652 0.7567 -0.6504
vn 0.0705 0.6581 -0.7496
vn 0.0768 0.4351 -0.8971
vn 0.0778 0.3118 -0.9470
vn 0.0762 0.0730 -0.9944
vn 0.0737 -0.0494 -0.9961
vn 0.0699 -0.1775 -0.9816
vn 0.0688 0.6935 -0.7171
vn 0.0671 0.7245 -0.6860
vn 0.0717 0.6281 -0.7748
vn 0.0730 0.5937 -0.8014
vn 0.0751 0.5216 -0.8499
vn 0.0759 0.4839 -0.8718
vn 0.0771 0.4057 -0.9107
vn 0.0775 0.3652 -0.9277
vn 0.0779 0.2828 -0.9560
vn 0.0778 0.2410 -0.9674
vn 0.0773 0.1555 -0.9848
vn 0.0768 0.1118 -0.9908
vn 0.0754 0.0248 -0.9968
vn 0.0745 -0.0185 -0.9971
vn 0.0722 -0.1055 -0.9918
vn 0.0708 -0.1492 -0.9863
vn 0.0677 -0.2348 -0.9697
vn 0.0660 -0.2767 -0.9587
vn 0.0622 -0.3593 -0.9311
vn 0.0600 -0.3999 -0.9146
vn 0.0555 -0.4784 -0.8764
vn 0.0531 -0.5162 -0.8548
vn 0.0479 -0.5886 -0.8070
vn 0.0452 -0.6232 -0.7808
vn 0.0395 -0.6890 -0.7237
vn 0.0365 -0.7201 -0.6929
vn 0.0304 -0.7778 -0.6278
vn 0.0272 -0.8044 -0.5934
vn 0.0208 -0.8529 -0.5216
vn 0.0175 -0.8748 -0.4841
vn 0.0108 -0.9137 -0.4062
vn 0.0074 -0.9307 -0.3658
vn 0.0006 -0.9589 -0.2836
vn -0.0028 -0.9703 -0.2419
vn -0.0095 -0.9876 -0.1567
vn -0.0129 -0.9935 -0.1131
vn -0.0196 -0.9995 -0.0264
vn -0.0228 -0.9996 0.0168
vn -0.0292 -0.9942 0.1036
vn -0.0324 -0.9886 0.1472
vn -0.0384 -0.9718 0.2326
vn -0.0413 -0.9607 0.2744
vn -0.0469 -0.9330 0.3569
vn -0.0496 -0.9163 0.3974
vn -0.0547 -0.8779 0.4757
vn -0.0570 -0.8562 0.5135
vn -0.0614 -0.8082 0.5858
vn -0.0634 -0.7818 0.6203
vn -0.0671 -0.7245 0.6860
vn -0.0688 -0.6935 0.7171
vn -0.0717 -0.6281 0.7748
vn -0.0730 -0.5937 0.8014
vn -0.0751 -0.5216 0.8499
vn -0.0759 -0.4839 0.8718
vn -0.0771 -0.4057 0.9107
vn -0.0775 -0.3652 0.9277
vn -0.0779 -0.2828 0.9560
vn -0.0778 -0.2410 0.9674
vn -0.0773 -0.1555 0.9848
vn -0.0768 -0.1118 0.9908
vn -0.0754 -0.0248 0.9968
vn -0.0745 0.0185 0.9971
vn -0.0722 0.1055 0.9918
vn -0.0708 0.1492 0.9863
vn -0.0677 0.2348 0.9697
vn -0.0660 0.2767 0.9587
vn -0.0622 0.3593 0.9311
vn -0.0600 0.3999 0.9146
vn -0.0555 0.4784 0.8764
vn -0.0531 0.5162 0.8549
vn -0.0479 0.5886 0.8070
vn -0.0452 0.6232 0.7808
vn -0.0395 0.6890 0.7237
vn -0.0365 0.7201 0.6929
vn -0.0304 0.7778 0.6278
vn -0.0272 0.8044 0.5934
vn -0.0208 0.8529 0.5216
vn -0.0175 0.8749 0.4841
vn -0.0108 0.9137 0.4062
vn -0.0074 0.9307 0.3658
vn -0.0006 0.9589 0.2836
vn 0.0028 0.9703 0.2419
vn 0.0095 0.9876 0.1567
vn 0.0129 0.9935 0.1131
vn 0.0196 0.9995 0.0264
vn 0.0228 0.9996 -0.0168
vn 0.0292 0.9942 -0.1036
vn 0.0324 0.9886 -0.1472
vn 0.0384 0.9718 -0.2326
vn 0.0413 0.9607 -0.2745
vn 0.0469 0.9330 -0.3569
vn 0.0496 0.9163 -0.3974
vn 0.0547 0.8779 -0.4757
vn 0.0570 0.8562 -0.5134
vn 0.0614 0.8082 -0.5857
vn 0.0634 0.7818 -0.6203
vn -0.9970 0.0215 -0.0748
vn -0.0683 -0.7029 0.7080
vn -0.0622 0.3593 0.9312
vn -0.0531 0.5162 0.8548
vn -0.0316 0.7669 0.6410
vn -0.0268 0.8078 0.5889
vn -0.0145 0.8980 0.4398
vn -0.0239 0.8306 0.5564
vn -0.0005 0.9710 0.2392
vn 0.0033 0.9789 0.2042
vn 0.0050 0.9800 0.1988
vn 0.0057 0.9817 0.1903
vn 0.9970 -0.0215 0.0748
vn -0.0380 0.7048 0.7084
vn -0.0380 0.7046 0.7086
vn 0.0505 0.7095 -0.7029
vn 0.0925 0.7082 -0.6999
vn -0.2566 0.6784 -0.6885
vn -0.3836 0.6445 -0.6614
vn -0.5533 0.5754 -0.6023
vn -0.5194 0.5920 -0.6163
vn -0.7773 0.4248 -0.4640
vn -0.7907 0.4121 -0.4526
vn -0.8058 0.3975 -0.4388
vn -0.9236 0.2459 -0.2941
vn -0.9646 0.1594 -0.2103
vn -0.9845 0.0951 -0.1474
vn -0.9989 -0.0083 -0.0454
vn -0.9911 -0.1172 0.0634
vn -0.9492 -0.2470 0.1948
vn -0.9151 -0.3094 0.2586
vn -0.8639 -0.3795 0.3312
vn -0.7710 -0.4717 0.4278
vn -0.6105 -0.5777 0.5419
vn 0.2890 0.6865 -0.6673
vn 0.6105 0.5777 -0.5418
vn 0.3395 0.6759 -0.6541
vn 0.1032 0.7080 -0.6987
vn 0.0326 0.7095 -0.7040
vn -0.1564 0.6961 -0.7007
vn -0.2088 0.6877 -0.6953
vn -0.4975 0.6015 -0.6250
vn 0.7412 -0.4556 0.4930
vn 0.4974 -0.6016 0.6250
vn 0.4974 -0.6016 0.6251
vn 0.7811 -0.4213 0.4609
vn 0.8367 -0.3652 0.4081
vn 0.9146 -0.2610 0.3087
vn 0.9646 -0.1594 0.2103
vn 0.9932 -0.0512 0.1042
vn 0.9986 0.0523 0.0015
vn 0.9650 0.2099 -0.1570
vn 0.9911 0.1172 -0.0634
vn 0.8780 0.3620 -0.3130
vn 0.7941 0.4517 -0.4066
vn 0.7074 0.5199 -0.4788
vn 0.3450 0.6747 -0.6525
vn 0.4444 0.6470 -0.6196
vn 0.2598 0.6916 -0.6740
vn 0.0495 0.9148 -0.4009
vn 0.0534 0.8886 -0.4555
vn 0.0345 0.9836 -0.1769
vn 0.0334 0.9862 -0.1620
vn 0.0251 0.9986 -0.0471
vn 0.0233 0.9995 -0.0232
vn 0.0652 0.7568 -0.6504
vn 0.0705 0.6581 -0.7497
vn 0.0768 0.4350 -0.8972
vn 0.0778 0.3116 -0.9470
vn 0.0761 0.0646 -0.9950
vn 0.0735 -0.0587 -0.9956
vn -0.0232 0.8357 0.5487
vn -0.0251 0.8211 0.5703
vn -0.0368 0.7167 0.6964
vn -0.0036 0.9472 0.3205
vn -0.0105 0.9151 0.4031
vn 0.0072 0.9825 0.1863
vn 0.0072 0.9825 0.1859
vn -0.0240 0.8292 0.5584
vn -0.0231 0.8357 0.5487
vn -0.0106 0.9147 0.4041
vn -0.0348 0.7368 0.6752
vn -0.0380 0.7046 0.7085
vn -0.0381 0.7047 0.7085
vn -0.0379 0.7047 0.7085
vn 0.9989 0.0072 0.0467
vn 0.9989 0.0074 0.0466
vn 0.9989 0.0069 0.0468
vn 0.9989 0.0078 0.0459
vn 0.9989 0.0069 0.0467
vn 0.9989 0.0060 0.0467
vn 0.9989 0.0066 0.0459
vn 0.9989 0.0066 0.0465
vn 0.9989 0.0071 0.0470
vn 0.9989 0.0077 0.0470
vn 0.9988 0.0069 0.0476
vn 0.9989 0.0065 0.0471
vn 0.9989 0.0077 0.0456
vn 0.0680 0.7092 -0.7017
vn -0.0072 -0.9824 -0.1868
vn 0.0020 -0.9537 -0.3009
vn 0.0123 -0.9057 -0.4237
vn 0.0379 -0.7053 -0.7079
vn 0.0617 -0.3684 -0.9276
vn 0.0617 -0.3691 -0.9273
vt 13.000000 -9.000000
vt 14.000000 -13.000000
vt 9.783001 -13.051600
vt 13.783000 -9.051600
vt 10.552800 -13.204600
vt 14.552800 -9.204599
vt 11.296200 -13.456600
vt 15.296200 -9.456600
vt 12.000000 -13.804000
vt 16.000000 -9.804000
vt 12.652800 -14.239600
vt 16.652800 -10.239600
vt 13.242600 -14.757400
vt 17.242599 -10.757400
vt 13.760400 -15.347200
vt 17.760401 -11.347200
vt 14.196000 -16.000000
vt 18.195999 -12.000000
vt 14.543400 -16.703800
vt 18.543400 -12.703800
vt 14.795400 -17.447201
vt 18.795401 -13.447200
vt 14.948400 -18.216999
vt 18.948400 -14.217000
vt 15.000000 -19.000000
vt 14.000000 -15.000000
vt 13.165400 -19.783001
vt 13.165400 -15.783000
vt 12.242600 -20.552799
vt 12.242600 -16.552799
vt 11.247200 -21.296200
vt 11.247200 -17.296200
vt 10.196000 -22.000000
vt 10.196000 -18.000000
vt 9.107599 -22.652800
vt 9.107599 -18.652800
vt 8.000000 -23.242599
vt 8.000000 -19.242599
vt 6.892400 -23.760401
vt 6.892400 -19.760401
vt 5.804000 -24.195999
vt 5.804000 -20.195999
vt 4.752800 -24.543400
vt 4.752800 -20.543400
vt 3.757399 -24.795401
vt 3.757399 -20.795401
vt 2.834600 -24.948400
vt 2.834600 -20.948400
vt 2.000000 -25.000000
vt 2.000000 -21.000000
vt 1.268599 -24.948400
vt 1.268599 -20.948400
vt 0.651800 -24.795401
vt 0.651800 -20.795401
vt 0.160400 -24.543400
vt 0.160400 -20.543400
vt -0.196000 -24.195999
vt -0.196000 -20.195999
vt -0.413199 -23.760401
vt -0.413199 -19.760401
vt -0.485199 -23.242599
vt 8.757401 -19.242599
vt 4.239600 -22.652800
vt 8.239600 -18.652800
vt 3.804000 -22.000000
vt 7.804000 -18.000000
vt 3.456600 -21.296200
vt 7.456600 -17.296200
vt 3.204599 -20.552799
vt 7.204599 -16.552799
vt 3.051600 -19.783001
vt 7.051600 -15.783000
vt 3.000000 -19.000000
vt 2.000000 -15.000000
vt 2.834599 -18.216999
vt 2.834599 -14.217000
vt 3.757400 -17.447201
vt 3.757400 -13.447200
vt 4.752800 -16.703800
vt 4.752800 -12.703800
vt 5.804000 -16.000000
vt 5.804000 -12.000000
vt 6.892400 -15.347200
vt 6.892400 -11.347200
vt 8.000000 -14.757400
vt 8.000000 -10.757400
vt 9.107600 -14.239600
vt 9.107600 -10.239600
vt 10.196000 -13.804000
vt 10.196000 -9.804000
vt 11.247200 -13.456600
vt 11.247200 -9.456600
vt 12.242600 -13.204600
vt 12.242600 -9.204599
vt 13.165400 -13.051600
vt 13.165400 -9.051600
vt 19.000000 -9.000000
vt 19.000000 -15.000000
vt 19.000000 -21.000000
vt 18.948400 -15.783000
vt 18.795401 -16.552799
vt 18.543400 -17.296200
vt 18.195999 -18.000000
vt 17.760401 -18.652800
vt 17.242599 -19.242599
vt 16.652800 -19.760401
vt 16.000000 -20.195999
vt 15.296200 -20.543400
vt 14.552800 -20.795401
vt 13.783000 -20.948400
vt 13.000000 -21.000000
vt 7.000000 -21.000000
vt 12.217000 -20.948400
vt 11.447200 -20.795401
vt 10.703800 -20.543400
vt 10.000000 -20.195999
vt 9.347200 -19.760401
vt 7.000000 -15.000000
vt 7.000000 -9.000000
vt 7.051600 -14.217000
vt 7.204599 -13.447200
vt 7.456600 -12.703800
vt 7.804000 -12.000000
vt 8.239600 -11.347200
vt 8.757401 -10.757400
vt 9.347200 -10.239600
vt 10.000000 -9.804000
vt 10.703800 -9.456600
vt 11.447200 -9.204599
vt 12.217000 -9.051600
vt 23.000000 -21.000000
vt 23.000000 -9.000000
vt 3.000000 -21.000000
vt 3.000000 -9.000000
vt 11.000000 -13.000000
vt 11.000000 -1.000000
vt 27.000000 -1.000000
vt 27.000000 -13.000000
vt 11.000000 -8.000000
vt 3.000000 -8.000000
vt 3.000000 4.000000
vt 11.000000 4.000000
vt 4.000000 -1.000000
vt 4.000000 -9.000000
vt 20.000000 -9.000000
vt 20.000000 -1.000000
vt 8.000000 -13.000000
vt 8.000000 -21.000000
vt -8.000000 -21.000000
vt -8.000000 -13.000000
vt 12.000000 -21.000000
vt 12.000000 -9.000000
vt 8.000000 -9.000000
vt 24.000000 -9.000000
vt 24.000000 3.000000
vt 20.000000 3.000000
vt 31.000000 3.000000
vt 35.000000 3.000000
vt 35.000000 -9.000000
vt 31.000000 -9.000000
vt 27.000000 8.000000
vt 27.000000 20.000000
vt 31.000000 20.000000
vt 31.000000 8.000000
vt 19.000000 8.500000
vt 23.000000 12.000000
vt 35.000000 12.000000
vt 39.000000 8.500000
vt 19.000000 26.500000
vt 23.000000 24.000000
vt 39.000000 26.500000
vt 35.000000 24.000000
vt 26.500000 -10.500000
vt 18.500000 4.500000
vt 18.500000 9.500000
vt 26.500000 9.500000
vt 7.700000 2.300000
vt 6.200000 4.500000
vt 8.500000 -1.500000
vt 7.700000 -5.300000
vt 5.500000 -8.500000
vt 2.600000 -10.500000
vt 7.200000 1.800000
vt 5.700000 4.000000
vt 10.000000 -2.000000
vt 5.400000 -5.300000
vt 5.400000 -5.800000
vt 0.000000 -8.500000
vt 0.000000 -9.000000
vt -4.900000 -10.500000
vt -4.900000 -11.000000
vt 3.000000 -7.720000
vt 1.000000 -2.000000
vt 2.582700 -2.391500
vt 2.582700 -8.111500
vt 2.121300 -2.776400
vt 2.121300 -8.496400
vt 1.623600 -3.148100
vt 1.623600 -8.868100
vt 1.098000 -3.500000
vt 1.098000 -9.219999
vt 0.553800 -3.826400
vt 0.553800 -9.546400
vt 0.000000 -4.121300
vt 0.000000 -9.841300
vt -0.553800 -4.380200
vt -0.553800 -10.100200
vt -1.098000 -4.598000
vt -1.098000 -10.318000
vt -1.623600 -4.771700
vt -1.623600 -10.491700
vt -2.121300 -4.897700
vt -2.121300 -10.617700
vt -2.582700 -4.974200
vt -2.582700 -10.694200
vt -3.000000 -5.000000
vt -3.000000 -10.720000
vt -3.365700 -4.974200
vt -3.365700 -10.694200
vt -3.674100 -4.897700
vt -3.674100 -10.617700
vt -3.919800 -4.771700
vt -3.919800 -10.491700
vt -4.098000 -4.598000
vt -4.098000 -10.318000
vt -4.206600 -4.380200
vt -4.206600 -10.100200
vt -4.242600 -4.121300
vt -9.841300 -9.841300
vt -4.380200 -3.826400
vt -10.100200 -9.546400
vt -4.598000 -3.500000
vt -10.318000 -9.219999
vt -4.771700 -3.148100
vt -10.491700 -8.868100
vt -4.897700 -2.776400
vt -10.617700 -8.496400
vt -4.974200 -2.391500
vt -10.694200 -8.111500
vt -5.000000 -2.000000
vt -3.000000 -7.720000
vt -2.582700 -1.608500
vt -2.582700 -7.328500
vt -2.121300 -1.223600
vt -2.121300 -6.943600
vt -1.623600 -0.851900
vt -1.623600 -6.571900
vt -1.098000 -0.500000
vt -1.098000 -6.220000
vt -0.553800 -0.173600
vt -0.553800 -5.893600
vt 0.000000 0.121300
vt 0.000000 -5.598700
vt 0.553800 0.380200
vt 0.553800 -5.339800
vt 1.098000 0.598000
vt 1.098000 -5.122000
vt 1.623600 0.771700
vt 1.623600 -4.948300
vt 2.121300 0.897700
vt 2.121300 -4.822300
vt 2.582700 0.974200
vt 2.582700 -4.745800
vt 3.000000 1.000000
vt -7.720000 -4.720000
vt -1.608500 0.974200
vt -7.328500 -4.745800
vt -1.223600 0.897700
vt -6.943600 -4.822300
vt -0.851900 0.771700
vt -6.571900 -4.948300
vt -0.500000 0.598000
vt -6.220000 -5.122000
vt -0.173600 0.380200
vt -5.893600 -5.339800
vt 0.121300 0.121300
vt -5.598700 -5.598700
vt 0.380200 -0.173600
vt -5.339800 -5.893600
vt 0.598000 -0.500000
vt -5.122000 -6.220000
vt 0.771700 -0.851900
vt -4.948300 -6.571900
vt 0.897700 -1.223600
vt -4.822300 -6.943600
vt 0.974200 -1.608500
vt -4.745800 -7.328500
vt 0.121300 -4.121300
vt 2.100000 -11.000000
vt -2.000000 -11.000000
vt -0.851900 -4.771700
vt -5.420000 -10.280000
vt -2.000000 -5.000000
vt -8.300000 -8.300000
vt -3.148100 -4.771700
vt -10.280000 -5.420000
vt -4.121300 -4.121300
vt -11.000000 -2.000000
vt -10.280000 1.420000
vt -8.300000 4.300000
vt -4.771700 -0.851900
vt -5.420000 6.280000
vt -4.121300 0.121300
vt -2.000000 7.000000
vt -3.148100 0.771700
vt 1.420000 6.280000
vt -2.000000 1.000000
vt 4.740000 4.000000
vt 8.000000 -2.000000
vt 7.200000 -5.800000
vt 0.771700 -3.148100
vt 5.000000 -9.000000
vt -20.340000 -14.340000
vt -20.288401 -13.557000
vt -20.135401 -12.787200
vt -14.340000 -14.340000
vt -19.883400 -12.043800
vt -19.535999 -11.340000
vt -19.100401 -10.687200
vt -18.582600 -10.097400
vt -17.992800 -9.579600
vt -17.340000 -9.144000
vt -16.636200 -8.796600
vt -15.892800 -8.544600
vt -15.123000 -8.391600
vt -14.340000 -8.340000
vt -6.000000 -14.340000
vt -6.000000 -7.720000
vt -5.165400 -6.937000
vt -5.165400 -13.557000
vt -4.242600 -6.167200
vt -4.242600 -12.787200
vt -3.247200 -5.423800
vt -3.247200 -12.043800
vt -2.196000 -4.720000
vt -2.196000 -11.340000
vt -1.107600 -4.067200
vt -1.107600 -10.687200
vt 0.000000 -3.477400
vt 0.000000 -10.097400
vt 1.107600 -2.959600
vt 1.107600 -9.579600
vt 2.196000 -2.524000
vt 2.196000 -9.144000
vt 3.247200 -2.176600
vt 3.247200 -8.796600
vt 4.242600 -1.924600
vt 4.242600 -8.544600
vt 5.165400 -1.771600
vt 5.165400 -8.391600
vt -7.720000 -1.720000
vt -11.000000 -13.720000
vt -11.000000 -20.340000
vt -5.420000 -2.180000
vt -12.240000 -8.760000
vt -12.000000 -8.690001
vt -8.759999 -7.589999
vt -4.170000 -3.010000
vt -6.000000 -5.600000
vt -20.340000 -19.340000
vt -12.240000 -19.340000
vt -10.694200 -7.328500
vt -13.668400 -6.937000
vt -13.720000 -7.720000
vt -10.720000 -7.720000
vt -10.617700 -6.943600
vt -13.515400 -6.167200
vt -10.491700 -6.571900
vt -13.263400 -5.423800
vt -10.318000 -6.220000
vt -12.916000 -4.720000
vt -10.100200 -5.893600
vt -12.480400 -4.067200
vt -9.841300 -5.598700
vt -11.962600 -3.477400
vt -9.546400 -5.339800
vt -11.372800 -2.959600
vt -9.219999 -5.122000
vt -10.720000 -2.524000
vt -8.868100 -4.948300
vt -10.016200 -2.176600
vt -8.496400 -4.822300
vt -9.272799 -1.924600
vt -8.111500 -4.745800
vt -8.503000 -1.771600
vt -4.720000 -4.720000
vt -4.720000 -7.720000
vt -4.720000 -10.720000
vt -4.948300 -8.868100
vt -5.598700 -9.841300
vt -6.571900 -10.491700
vt -7.720000 -10.720000
vt -10.720000 -10.720000
vt -8.868100 -10.491700
vt -13.720000 -12.720000
vt -4.170000 -12.720000
vt -11.000000 -19.340000
vt -2.900000 -19.340000
vt -4.703800 -20.543400
vt -7.000000 -21.000000
vt -9.296200 -20.543400
vt -11.242600 -19.242599
vt -12.193700 -17.819401
vt -12.543400 -17.296200
vt -13.000000 -15.000000
vt -11.000000 -12.720000
vt -12.543400 -12.703800
vt -12.193700 -12.180600
vt -9.296200 -9.456600
vt -7.000000 -9.000000
vt -4.703800 -9.456600
vt -2.757400 -10.757400
vt -1.450000 -12.720000
vt -5.000000 -19.000000
vt -8.752800 -21.296200
vt -8.760000 -7.590000
vt -12.000000 -23.242599
vt -12.000000 -8.690000
vt -15.247200 -24.543400
vt -15.247200 -20.543400
vt -15.602300 -24.602301
vt -18.000000 -24.578899
vt -18.000000 -21.000000
vt -19.137600 -23.997601
vt -19.839600 -20.543400
vt -19.839600 -23.221001
vt -20.485201 -20.582100
vt -20.485201 -19.242599
vt -12.600000 -20.456699
vt -12.034800 -16.787600
vt -11.827300 -13.827300
vt -18.000000 -15.000000
vt -15.247200 -12.195200
vt -15.247200 -12.703800
vt -14.374300 -12.180600
vt -12.000000 -10.757400
vt -12.143300 -12.143300
vt -12.000000 -12.096900
vt -8.752800 -12.134200
vt -8.752800 -9.456600
vt -7.702400 -12.562400
vt -6.000000 -9.000000
vt -10.578900 -12.578900
vt -9.000000 -13.397700
vt -8.703800 -13.456600
vt -6.757400 -14.757400
vt -5.456600 -16.703800
vt 8.260000 -3.010000
vt -26.309999 -21.450001
vt -18.000000 -13.827300
vt -19.839600 -16.787600
vt -20.013100 -17.819401
vt -20.456699 -20.456699
vt -24.410000 -24.410000
vt -27.000000 -18.000000
vt -9.000000 -2.000000
vt -4.860000 -14.610000
vt -4.860000 1.420000
vt 0.000000 -11.810000
vt 0.000000 4.300000
vt -18.360001 -27.360001
vt -21.650000 -26.510000
vt -4.397700 -13.397700
vt -6.000000 -12.578900
vt -7.702399 -12.562400
vt 9.000000 -13.000000
vt 15.000000 -13.000000
vt 14.948400 -19.783001
vt 15.000000 -25.000000
vt 14.795400 -20.552799
vt 14.543400 -21.296200
vt 14.196000 -22.000000
vt 13.760400 -22.652800
vt 13.242600 -23.242599
vt 12.652800 -23.760401
vt 12.000000 -24.195999
vt 11.296200 -24.543400
vt 10.552800 -24.795401
vt 9.783001 -24.948400
vt 9.000000 -25.000000
vt 8.216999 -24.948400
vt 3.000000 -25.000000
vt 7.447201 -24.795401
vt 6.703800 -24.543400
vt 6.000000 -24.195999
vt 5.347200 -23.760401
vt 4.757401 -23.242599
vt 3.051600 -18.216999
vt 3.000000 -13.000000
vt 3.204599 -17.447201
vt 3.456600 -16.703800
vt 3.804000 -16.000000
vt 4.239600 -15.347200
vt 4.757401 -14.757400
vt 5.347200 -14.239600
vt 6.000000 -13.804000
vt 6.703800 -13.456600
vt 7.447201 -13.204600
vt 8.216999 -13.051600
vt -8.703800 -24.543400
vt -6.757400 -23.242599
vt -5.456600 -21.296200
vt 19.000000 -28.500000
vt 19.000000 -10.500000
vt -11.242600 -10.757400
vt 26.000000 -13.180000
vt 39.000000 -8.500000
vt 31.000000 -8.180000
vt -9.000000 -27.360001
vt 12.740000 -12.640000
vt 0.000000 -18.360001
vt -11.700000 -26.510000
vt -12.600000 -24.410000
vt -11.700000 -21.450001
vt -9.000000 -18.000000
vt 4.860000 -9.950000
vt 9.000000 -9.360001
vt 11.700000 -10.220000
vt 31.000000 0.820000
vt 31.000000 18.500000
vt 26.000000 18.500000
vt 26.000000 0.820000
vt 39.000000 9.500000
vt 31.000000 9.500000
vt 26.000000 4.500000
vt 13.700000 4.500000
vt 13.700000 -12.680000
vt 13.700000 4.000000
vt 12.740000 4.000000
vt 11.700000 6.280000
vt 9.000000 7.000000
vt 4.860000 6.280000
s 1
usemtl 15.003
f 3/1/1 2/2/2 1/3/3
f 1/3/3 4/4/4 3/1/1
f 4/4/4 1/3/3 5/5/5
f 5/5/5 6/6/6 4/4/4
f 6/6/6 5/5/5 7/7/7
f 7/7/7 8/8/8 6/6/6
f 8/8/8 7/7/7 9/9/9
f 9/9/9 10/10/10 8/8/8
f 10/10/10 9/9/9 11/11/11
f 11/11/11 12/12/12 10/10/10
f 12/12/12 11/11/11 13/13/13
f 13/13/13 14/14/14 12/12/12
f 14/14/14 13/13/13 15/15/15
f 15/15/15 16/16/16 14/14/14
f 16/16/16 15/15/15 17/17/17
f 17/17/17 18/18/18 16/16/16
f 18/18/18 17/17/17 19/19/19
f 19/19/19 20/20/20 18/18/18
f 20/20/20 19/19/19 21/21/21
f 21/21/21 22/22/22 20/20/20
f 22/22/22 21/21/21 23/23/23
f 23/23/23 24/24/24 22/22/22
f 24/24/24 23/23/23 25/25/25
f 25/25/25 26/26/26 24/24/24
f 26/26/26 25/25/25 27/27/27
f 27/27/27 28/28/28 26/26/26
f 28/28/28 27/27/27 29/29/29
f 29/29/29 30/30/30 28/28/28
f 30/30/30 29/29/29 31/31/31
f 31/31/31 32/32/32 30/30/30
f 32/32/32 31/31/31 33/33/33
f 33/33/33 34/34/34 32/32/32
f 34/34/34 33/33/33 35/35/35
f 35/35/35 36/36/36 34/34/34
f 36/36/36 35/35/35 37/37/37
f 37/37/37 38/38/38 36/36/36
f 38/38/38 37/37/37 39/39/39
f 39/39/39 40/40/40 38/38/38
f 40/40/40 39/39/39 41/41/41
f 41/41/41 42/42/42 40/40/40
f 42/42/42 41/41/41 43/43/43
f 43/43/43 44/44/44 42/42/42
f 44/44/44 43/43/43 45/45/45
f 45/45/45 46/46/46 44/44/44
f 46/46/46 45/45/45 47/47/47
f 47/47/47 48/48/48 46/46/46
f 48/48/48 47/47/47 49/49/49
f 49/49/49 50/50/50 48/48/48
f 50/50/50 49/49/49 51/51/51
f 51/51/51 52/52/52 50/50/50
f 52/52/52 51/51/51 53/53/53
f 53/53/53 54/54/54 52/52/52
f 54/54/54 53/53/53 55/55/55
f 55/55/55 56/56/56 54/54/54
f 56/56/56 55/55/55 57/57/57
f 57/57/57 58/58/58 56/56/56
f 58/58/58 57/57/57 59/59/59
f 59/59/59 60/60/60 58/58/58
f 60/60/60 59/59/59 61/61/61
f 61/61/61 62/62/62 60/60/60
f 62/62/62 61/61/61 63/63/63
f 63/63/63 64/64/64 62/62/62
f 64/64/64 63/63/63 65/65/65
f 65/65/65 66/66/66 64/64/64
f 66/66/66 65/65/65 67/67/67
f 67/67/67 68/68/68 66/66/66
f 68/68/68 67/67/67 69/69/69
f 69/69/69 70/70/70 68/68/68
f 70/70/70 69/69/69 71/71/71
f 71/71/71 72/72/72 70/70/70
f 72/72/72 71/71/71 73/73/73
f 73/73/73 74/74/74 72/72/72
f 74/74/74 73/73/73 75/75/75
f 75/75/75 76/76/76 74/74/74
f 76/76/76 75/75/75 77/77/77
f 77/77/77 78/78/78 76/76/76
f 78/78/78 77/77/77 79/79/79
f 79/79/79 80/80/80 78/78/78
f 80/80/80 79/79/79 81/81/81
f 81/81/81 82/82/82 80/80/80
f 82/82/82 81/81/81 83/83/83
f 83/83/83 84/84/84 82/82/82
f 84/84/84 83/83/83 85/85/85
f 85/85/85 86/86/86 84/84/84
f 86/86/86 85/85/85 87/87/87
f 87/87/87 88/88/88 86/86/86
f 88/88/88 87/87/87 89/89/89
f 89/89/89 90/90/90 88/88/88
f 90/90/90 89/89/89 91/91/91
f 91/91/91 92/92/92 90/90/90
f 92/92/92 91/91/91 93/93/93
f 93/93/93 94/94/94 92/92/92
f 94/94/94 93/93/93 95/95/95
f 95/95/95 96/96/96 94/94/94
f 96/96/96 95/95/95 2/2/2
f 2/2/2 3/1/1 96/96/96
f 97/97/97 98/1/98 99/4/97
f 97/97/97 99/4/97 100/6/97
f 97/97/97 100/6/97 101/8/97
f 97/97/97 101/8/97 102/10/97
f 97/97/97 102/10/97 103/12/97
f 97/97/97 103/12/97 104/14/97
f 97/97/97 104/14/97 105/16/97
f 97/97/97 105/16/97 106/18/97
f 97/97/97 106/18/97 107/20/97
f 97/97/97 107/20/97 108/22/97
f 97/97/97 108/22/97 109/24/97
f 97/97/97 109/24/97 110/98/97
f 111/99/97 110/98/97 112/100/99
f 111/99/97 112/100/99 113/101/97
f 111/99/97 113/101/97 114/102/97
f 111/99/97 114/102/97 115/103/97
f 111/99/97 115/103/97 116/104/97
f 111/99/97 116/104/97 117/105/97
f 111/99/97 117/105/97 118/106/97
f 111/99/97 118/106/97 119/107/97
f 111/99/97 119/107/97 120/108/97
f 111/99/97 120/108/97 121/109/97
f 111/99/97 121/109/97 122/110/98
f 111/99/97 122/110/98 123/111/98
f 124/112/97 123/111/98 125/113/98
f 124/112/97 125/113/98 126/114/97
f 124/112/97 126/114/97 127/115/97
f 124/112/97 127/115/97 128/116/97
f 124/112/97 128/116/97 129/117/97
f 124/112/97 129/117/97 130/62/97
f 124/112/97 130/62/97 131/64/97
f 124/112/97 131/64/97 132/66/97
f 124/112/97 132/66/97 133/68/97
f 124/112/97 133/68/97 134/70/97
f 124/112/97 134/70/97 135/72/97
f 124/112/97 135/72/97 136/118/97
f 137/119/97 136/118/97 138/120/97
f 137/119/97 138/120/97 139/121/97
f 137/119/97 139/121/97 140/122/97
f 137/119/97 140/122/97 141/123/97
f 137/119/97 141/123/97 142/124/97
f 137/119/97 142/124/97 143/125/97
f 137/119/97 143/125/97 144/126/97
f 137/119/97 144/126/97 145/127/97
f 137/119/97 145/127/97 146/128/97
f 137/119/97 146/128/97 147/129/97
f 137/119/97 147/129/97 148/130/98
f 137/119/97 148/130/98 98/1/98
f 111/99/97 150/131/97 149/132/97
f 149/132/97 110/98/97 111/99/97
f 97/97/97 110/98/97 149/132/97
f 151/133/97 124/112/97 136/118/97
f 136/118/97 152/134/97 151/133/97
f 152/134/97 136/118/97 137/119/97
f 153/135/100 154/136/100 155/137/100
f 155/137/100 156/138/100 153/135/100
f 157/139/101 158/140/101 159/141/101
f 159/141/101 160/142/101 157/139/101
f 161/143/102 162/144/102 163/145/102
f 163/145/102 164/146/102 161/143/102
f 165/147/103 166/148/103 167/149/103
f 167/149/103 168/150/103 165/147/103
f 169/151/103 166/148/103 165/147/103
f 165/147/103 170/152/103 169/151/103
f 165/147/103 171/153/103 170/152/103
f 163/145/102 173/154/102 172/155/102
f 172/155/102 164/146/102 163/145/102
f 172/155/102 174/156/102 164/146/102
f 175/157/100 176/158/100 177/159/100
f 177/159/100 178/160/100 175/157/100
f 179/161/101 180/162/101 181/163/101
f 181/163/101 182/164/101 179/161/101
f 185/165/101 184/166/101 183/167/101
f 183/167/101 186/168/101 185/165/101
f 188/169/101 187/170/101 184/166/101
f 184/166/101 185/165/101 188/169/101
f 190/171/101 189/172/101 187/170/101
f 187/170/101 188/169/101 190/171/101
f 186/168/101 183/167/101 189/172/101
f 189/172/101 190/171/101 186/168/101
f 193/173/103 192/174/103 191/175/103
f 191/175/103 194/176/103 193/173/103
f 192/174/103 196/177/103 195/178/103
f 193/173/103 197/179/103 196/177/103
f 196/177/103 192/174/103 193/173/103
f 193/173/103 198/180/103 197/179/103
f 193/173/103 199/181/103 198/180/103
f 193/173/103 200/182/103 199/181/103
f 203/177/104 202/183/105 201/184/106
f 201/184/106 204/178/106 203/177/104
f 206/179/107 205/185/108 202/183/105
f 202/183/105 203/177/104 206/179/107
f 208/186/109 207/187/110 205/185/108
f 205/185/108 206/179/107 208/186/109
f 210/188/111 209/189/112 207/187/110
f 207/187/110 208/186/109 210/188/111
f 212/190/113 211/191/113 209/189/112
f 209/189/112 210/188/111 212/190/113
f 215/192/114 214/193/115 213/194/116
f 213/194/116 216/195/117 215/192/114
f 216/195/117 213/194/116 217/196/118
f 217/196/118 218/197/119 216/195/117
f 218/197/119 217/196/118 219/198/120
f 219/198/120 220/199/121 218/197/119
f 220/199/121 219/198/120 221/200/122
f 221/200/122 222/201/123 220/199/121
f 222/201/123 221/200/122 223/202/124
f 223/202/124 224/203/125 222/201/123
f 224/203/125 223/202/124 225/204/126
f 225/204/126 226/205/127 224/203/125
f 226/205/127 225/204/126 227/206/128
f 227/206/128 228/207/129 226/205/127
f 228/207/129 227/206/128 229/208/130
f 229/208/130 230/209/131 228/207/129
f 230/209/131 229/208/130 231/210/132
f 231/210/132 232/211/133 230/209/131
f 232/211/133 231/210/132 233/212/134
f 233/212/134 234/213/135 232/211/133
f 234/213/135 233/212/134 235/214/136
f 235/214/136 236/215/137 234/213/135
f 236/215/137 235/214/136 237/216/138
f 237/216/138 238/217/139 236/215/137
f 238/217/139 237/216/138 239/218/140
f 239/218/140 240/219/141 238/217/139
f 240/219/141 239/218/140 241/220/142
f 241/220/142 242/221/143 240/219/141
f 242/221/143 241/220/142 243/222/144
f 243/222/144 244/223/145 242/221/143
f 244/223/145 243/222/144 245/224/146
f 245/224/146 246/225/147 244/223/145
f 246/225/147 245/224/146 247/226/148
f 247/226/148 248/227/149 246/225/147
f 248/227/149 247/226/148 249/228/150
f 249/228/150 250/229/151 248/227/149
f 250/229/151 249/228/150 251/230/152
f 251/230/152 252/231/153 250/229/151
f 252/231/153 251/230/152 253/232/154
f 253/232/154 254/233/155 252/231/153
f 254/233/155 253/232/154 255/234/156
f 255/234/156 256/235/157 254/233/155
f 256/235/157 255/234/156 257/236/158
f 257/236/158 258/237/159 256/235/157
f 258/237/159 257/236/158 259/238/160
f 259/238/160 260/239/161 258/237/159
f 260/239/161 259/238/160 261/240/162
f 261/240/162 262/241/163 260/239/161
f 262/241/163 261/240/162 263/242/164
f 263/242/164 264/243/165 262/241/163
f 264/243/165 263/242/164 265/244/166
f 265/244/166 266/245/167 264/243/165
f 266/245/167 265/244/166 267/246/168
f 267/246/168 268/247/169 266/245/167
f 268/247/169 267/246/168 269/248/170
f 269/248/170 270/249/171 268/247/169
f 270/249/171 269/248/170 271/250/172
f 271/250/172 272/251/173 270/249/171
f 272/251/173 271/250/172 273/252/174
f 273/252/174 274/253/175 272/251/173
f 274/253/175 273/252/174 275/254/176
f 275/254/176 276/255/177 274/253/175
f 276/255/177 275/254/176 277/256/178
f 277/256/178 278/257/179 276/255/177
f 278/257/179 277/256/178 279/258/180
f 279/258/180 280/259/181 278/257/179
f 280/259/181 279/258/180 281/260/182
f 281/260/182 282/261/183 280/259/181
f 282/261/183 281/260/182 283/262/184
f 283/262/184 284/263/185 282/261/183
f 284/263/185 283/262/184 285/264/186
f 285/264/186 286/265/187 284/263/185
f 286/265/187 285/264/186 287/266/188
f 287/266/188 288/267/189 286/265/187
f 288/267/189 287/266/188 289/268/190
f 289/268/190 290/269/191 288/267/189
f 290/269/191 289/268/190 291/270/192
f 291/270/192 292/271/193 290/269/191
f 292/271/193 291/270/192 293/272/194
f 293/272/194 294/273/195 292/271/193
f 294/273/195 293/272/194 295/274/196
f 295/274/196 296/275/197 294/273/195
f 296/275/197 295/274/196 297/276/198
f 297/276/198 298/277/199 296/275/197
f 298/277/199 297/276/198 299/278/200
f 299/278/200 300/279/201 298/277/199
f 300/279/201 299/278/200 301/280/202
f 301/280/202 302/281/203 300/279/201
f 302/281/203 301/280/202 303/282/204
f 303/282/204 304/283/205 302/281/203
f 304/283/205 303/282/204 305/284/206
f 305/284/206 306/285/207 304/283/205
f 306/285/207 305/284/206 307/286/208
f 307/286/208 308/287/209 306/285/207
f 308/287/209 307/286/208 214/193/115
f 214/193/115 215/192/114 308/287/209
f 311/288/103 310/289/103 309/290/103
f 309/290/103 312/291/103 311/288/103
f 312/291/103 309/290/103 313/292/103
f 313/292/103 314/293/103 312/291/103
f 314/293/103 313/292/103 315/294/103
f 315/294/103 316/295/103 314/293/103
f 316/295/103 315/294/103 317/296/103
f 317/296/103 318/297/103 316/295/103
f 318/297/103 317/296/103 319/298/103
f 319/298/103 320/234/103 318/297/103
f 320/234/103 319/298/103 321/299/103
f 321/299/103 322/240/103 320/234/103
f 322/240/103 321/299/103 323/300/103
f 323/300/103 324/301/103 322/240/103
f 324/301/103 323/300/103 325/302/103
f 325/302/103 326/303/103 324/301/103
f 326/303/103 325/302/103 327/304/103
f 327/304/103 328/305/103 326/303/103
f 328/305/103 327/304/103 329/306/103
f 329/306/103 330/307/103 328/305/103
f 330/307/103 329/306/103 331/308/103
f 331/308/103 332/270/103 330/307/103
f 332/270/103 331/308/103 333/184/103
f 333/184/103 334/276/103 332/270/103
f 334/276/103 333/184/103 335/183/103
f 335/183/103 336/282/103 334/276/103
f 336/282/103 335/183/103 337/309/103
f 337/309/103 338/193/103 336/282/103
f 338/193/103 337/309/103 339/310/103
f 339/310/103 340/311/103 338/193/103
f 340/311/103 339/310/103 341/312/103
f 341/312/103 311/288/103 340/311/103
f 310/289/103 311/288/103 341/312/103
f 344/313/103 343/314/210 342/315/103
f 342/315/103 345/316/103 344/313/103
f 342/315/103 347/317/103 346/318/103
f 346/318/103 345/316/103 342/315/103
f 346/318/103 349/319/103 348/320/103
f 348/320/103 345/316/103 346/318/103
f 348/320/103 351/321/103 350/322/103
f 350/322/103 345/316/103 348/320/103
f 350/322/103 353/323/103 352/324/103
f 352/324/103 345/316/103 350/322/103
f 352/324/103 355/325/103 354/326/103
f 354/326/103 345/316/103 352/324/103
f 358/327/211 357/328/211 356/329/164
f 356/329/164 359/330/165 358/327/211
f 359/330/165 356/329/164 360/331/166
f 360/331/166 361/332/167 359/330/165
f 361/332/167 360/331/166 362/333/168
f 362/333/168 363/334/169 361/332/167
f 363/334/169 362/333/168 364/335/170
f 364/335/170 365/336/171 363/334/169
f 365/336/171 364/335/170 366/337/172
f 366/337/172 367/338/173 365/336/171
f 367/338/173 366/337/172 368/339/174
f 368/339/174 369/340/175 367/338/173
f 369/340/175 368/339/174 370/341/176
f 370/341/176 371/342/177 369/340/175
f 371/342/177 370/341/176 372/343/178
f 372/343/178 373/344/179 371/342/177
f 373/344/179 372/343/178 374/345/212
f 374/345/212 375/346/181 373/344/179
f 375/346/181 374/345/212 376/347/182
f 376/347/182 377/348/213 375/346/181
f 377/348/213 376/347/182 378/349/184
f 378/349/184 379/350/185 377/348/213
f 379/350/185 378/349/184 380/351/214
f 380/351/214 381/326/215 379/350/185
f 382/352/101 357/328/211 358/327/211
f 358/327/211 383/353/101 382/352/101
f 385/354/216 384/355/217 381/326/215
f 381/326/215 380/351/214 385/354/216
f 385/354/216 386/356/218 384/355/217
f 387/357/219 386/356/218 385/354/216
f 387/357/219 385/354/216 388/358/220
f 388/358/220 389/359/221 387/357/219
f 390/360/103 344/313/103 345/316/103
f 345/316/103 391/361/103 390/360/103
f 392/355/103 391/361/103 345/316/103
f 345/316/103 354/326/103 392/355/103
f 393/362/102 394/363/102 395/364/102
f 395/364/102 396/365/102 393/362/102
f 397/366/102 398/367/102 394/363/102
f 394/363/102 393/362/102 397/366/102
f 399/368/102 400/369/102 398/367/102
f 398/367/102 397/366/102 399/368/102
f 401/370/102 402/371/102 400/369/102
f 400/369/102 399/368/102 401/370/102
f 403/372/102 404/373/102 402/371/102
f 402/371/102 401/370/102 403/372/102
f 405/374/102 406/375/102 404/373/102
f 404/373/102 403/372/102 405/374/102
f 407/376/102 408/377/102 406/375/102
f 406/375/102 405/374/102 407/376/102
f 409/378/102 410/379/102 408/377/102
f 408/377/102 407/376/102 409/378/102
f 411/380/102 412/381/102 410/379/102
f 410/379/102 409/378/102 411/380/102
f 413/382/102 414/383/102 412/381/102
f 412/381/102 411/380/102 413/382/102
f 415/384/102 416/385/102 414/383/102
f 414/383/102 413/382/102 415/384/102
f 417/265/102 418/351/102 416/385/102
f 416/385/102 415/384/102 417/265/102
f 419/386/102 417/265/102 420/271/102
f 419/386/102 420/271/102 421/277/102
f 419/386/102 421/277/102 422/283/102
f 419/386/102 422/283/102 423/387/102
f 424/388/102 423/387/102 425/389/102
f 424/388/102 425/389/102 426/390/102
f 424/388/102 426/390/102 427/391/102
f 424/388/102 427/391/102 428/392/102
f 429/393/102 428/392/102 430/394/102
f 429/393/102 430/394/102 431/229/102
f 429/393/102 431/229/102 432/235/222
f 429/393/102 432/235/222 396/365/102
f 429/393/102 396/365/102 395/364/102
f 395/364/102 433/395/102 429/393/102
f 433/395/102 434/396/102 424/388/102
f 424/388/102 428/392/102 433/395/102
f 434/396/102 435/358/102 419/386/102
f 419/386/102 423/387/102 434/396/102
f 419/386/102 436/354/102 418/351/102
f 418/351/102 417/265/102 419/386/102
f 436/354/102 419/386/102 435/358/102
f 439/397/223 438/398/100 437/399/100
f 437/399/100 440/400/100 439/397/223
f 439/397/223 440/400/100 441/401/100
f 441/401/100 442/402/100 439/397/223
f 439/397/223 444/403/224 443/404/100
f 443/404/100 445/405/100 439/397/223
f 446/406/100 439/397/223 445/405/100
f 445/405/100 447/407/100 446/406/100
f 446/406/100 447/407/100 448/408/100
f 448/408/100 449/409/100 446/406/100
f 446/406/100 449/409/100 450/410/100
f 450/410/100 451/411/100 446/406/100
f 446/406/100 451/411/100 452/412/100
f 452/412/100 453/413/100 446/406/100
f 456/359/225 455/414/226 454/415/227
f 454/415/227 457/416/228 456/359/225
f 457/416/228 454/415/227 458/417/229
f 458/417/229 459/418/230 457/416/228
f 460/355/231 459/418/230 458/417/229
f 458/417/229 461/361/232 460/355/231
f 463/419/233 462/420/234 461/361/232
f 461/361/232 458/417/229 463/419/233
f 462/420/234 463/419/233 464/421/235
f 462/420/234 464/421/235 465/422/236
f 465/422/236 466/423/237 462/420/234
f 466/423/237 465/422/236 467/424/238
f 467/424/238 468/425/239 466/423/237
f 468/425/239 467/424/238 469/426/240
f 468/425/239 469/426/240 470/427/241
f 470/427/241 471/428/242 468/425/239
f 471/428/242 470/427/241 472/429/243
f 472/429/243 473/403/243 471/428/242
f 476/404/244 475/403/245 474/430/246
f 478/431/247 477/432/248 476/404/244
f 476/404/244 474/430/246 478/431/247
f 480/433/249 479/434/250 477/432/248
f 477/432/248 478/431/247 480/433/249
f 479/434/250 480/433/249 481/435/251
f 484/436/252 483/435/253 482/437/254
f 482/437/254 485/438/255 484/436/252
f 484/436/252 485/438/255 486/439/256
f 486/439/256 487/440/257 484/436/252
f 487/440/257 486/439/256 488/441/258
f 488/441/258 489/442/259 487/440/257
f 489/442/259 488/441/258 490/443/260
f 491/411/261 489/442/259 490/443/260
f 490/443/260 492/444/262 491/411/261
f 491/411/261 492/444/262 493/445/263
f 494/412/264 491/411/261 493/445/263
f 493/445/263 495/446/265 494/412/264
f 496/413/266 494/412/264 495/446/265
f 495/446/265 497/447/267 496/413/266
f 455/414/226 496/413/266 497/447/267
f 456/359/225 498/448/268 496/413/266
f 496/413/266 455/414/226 456/359/225
f 501/449/269 500/296/270 499/450/271
f 499/450/271 502/451/271 501/449/269
f 503/433/271 499/450/271 500/296/270
f 504/435/271 503/433/271 500/296/270
f 502/451/271 505/452/271 501/449/269
f 505/452/271 507/453/272 506/454/273
f 506/454/273 501/449/269 505/452/271
f 509/294/274 508/437/272 504/435/271
f 504/435/271 500/296/270 509/294/274
f 511/455/275 510/456/276 500/296/270
f 500/296/270 501/449/269 511/455/275
f 513/457/277 512/458/278 510/456/276
f 510/456/276 511/455/275 513/457/277
f 515/459/279 514/460/280 512/458/278
f 512/458/278 513/457/277 515/459/279
f 518/422/281 517/421/282 516/461/283
f 516/461/283 519/462/284 518/422/281
f 518/422/281 519/462/284 520/424/285
f 520/424/285 519/462/284 521/426/286
f 522/427/287 521/426/286 519/462/284
f 519/462/284 506/454/273 522/427/287
f 522/427/287 506/454/273 507/453/272
f 525/463/288 524/464/289 523/292/290
f 523/292/290 526/290/291 525/463/288
f 523/292/290 524/464/289 527/465/285
f 523/292/290 527/465/285 528/439/286
f 528/439/286 529/438/287 509/294/274
f 509/294/274 523/292/290 528/439/286
f 509/294/274 529/438/287 508/437/272
f 532/3/100 531/466/100 530/467/100
f 533/5/100 532/3/100 530/467/100
f 534/7/100 533/5/100 530/467/100
f 535/9/100 534/7/100 530/467/100
f 536/11/100 535/9/100 530/467/100
f 537/13/100 536/11/100 530/467/100
f 538/15/100 537/13/100 530/467/100
f 539/17/100 538/15/100 530/467/100
f 540/19/100 539/17/100 530/467/100
f 541/21/100 540/19/100 530/467/100
f 542/23/292 541/21/100 530/467/100
f 543/25/100 542/23/292 530/467/100
f 545/468/292 543/25/100 544/469/100
f 546/470/100 545/468/292 544/469/100
f 547/471/100 546/470/100 544/469/100
f 548/472/100 547/471/100 544/469/100
f 549/473/100 548/472/100 544/469/100
f 550/474/100 549/473/100 544/469/100
f 551/475/100 550/474/100 544/469/100
f 552/476/100 551/475/100 544/469/100
f 553/477/100 552/476/100 544/469/100
f 554/478/100 553/477/100 544/469/100
f 555/479/293 554/478/100 544/469/100
f 556/480/100 555/479/293 544/469/100
f 558/481/294 556/480/100 557/482/100
f 559/483/100 558/481/294 557/482/100
f 560/484/100 559/483/100 557/482/100
f 561/485/100 560/484/100 557/482/100
f 562/486/100 561/485/100 557/482/100
f 563/487/100 562/486/100 557/482/100
f 564/63/100 563/487/100 557/482/100
f 565/65/100 564/63/100 557/482/100
f 566/67/100 565/65/100 557/482/100
f 567/69/100 566/67/100 557/482/100
f 568/71/100 567/69/100 557/482/100
f 569/73/100 568/71/100 557/482/100
f 571/488/100 569/73/100 570/489/100
f 572/490/100 571/488/100 570/489/100
f 573/491/100 572/490/100 570/489/100
f 574/492/100 573/491/100 570/489/100
f 575/493/100 574/492/100 570/489/100
f 576/494/100 575/493/100 570/489/100
f 577/495/100 576/494/100 570/489/100
f 578/496/100 577/495/100 570/489/100
f 579/497/100 578/496/100 570/489/100
f 580/498/100 579/497/100 570/489/100
f 581/499/294 580/498/100 570/489/100
f 531/466/100 581/499/294 570/489/100
f 584/414/100 583/447/100 582/191/100
f 582/191/100 569/73/100 584/414/100
f 583/447/100 585/446/100 526/290/291
f 526/290/291 582/191/100 583/447/100
f 526/290/291 585/446/100 586/445/100
f 526/290/291 586/445/100 525/463/288
f 517/421/282 587/500/100 516/461/283
f 587/500/100 588/501/100 516/461/283
f 588/501/100 589/502/100 557/482/100
f 557/482/100 516/461/283 588/501/100
f 557/482/100 589/502/100 584/414/100
f 584/414/100 569/73/100 557/482/100
f 590/503/100 544/469/100 543/25/100
f 543/25/100 591/504/100 590/503/100
f 530/467/100 591/504/100 543/25/100
f 530/467/100 531/466/100 591/504/100
f 531/466/100 570/489/100 592/190/100
f 592/190/100 591/504/100 531/466/100
f 570/489/100 569/73/100 582/191/100
f 582/191/100 592/190/100 570/489/100
f 516/461/283 557/482/100 556/480/100
f 556/480/100 590/503/100 516/461/283
f 544/469/100 590/503/100 556/480/100
f 439/397/223 442/402/100 444/403/224
f 449/409/100 448/408/100 593/505/100
f 428/392/102 429/393/102 433/395/102
f 423/387/102 424/388/102 434/396/102
f 596/506/295 595/503/296 594/507/297
f 594/507/297 597/508/297 596/506/295
f 598/509/296 595/503/296 596/506/295
f 596/506/295 599/510/298 598/509/296
f 599/510/298 600/511/299 598/509/296
f 601/512/300 598/509/296 600/511/299
f 600/511/299 602/513/301 601/512/300
f 603/514/302 602/513/301 600/511/299
f 600/511/299 604/515/297 603/514/302
f 605/457/303 604/515/297 600/511/299
f 600/511/299 606/459/304 605/457/303
f 607/516/305 606/459/304 600/511/299
f 600/511/299 608/517/306 607/516/305
f 609/518/307 608/517/306 600/511/299
f 600/511/299 599/510/298 609/518/307
f 612/519/308 611/520/308 610/521/308
f 610/521/308 613/522/308 612/519/308
f 616/507/97 615/523/97 614/524/97
f 614/524/97 617/508/97 616/507/97
f 620/525/97 619/526/97 618/527/97
f 618/527/97 621/506/97 620/525/97
f 624/528/97 623/529/97 622/510/97
f 622/510/97 618/527/97 624/528/97
f 627/510/309 626/529/309 625/530/310
f 625/530/310 628/518/311 627/510/309
f 628/518/311 625/530/310 629/531/312
f 629/531/312 630/517/97 628/518/311
f 629/531/312 632/532/313 631/516/314
f 631/516/314 630/517/97 629/531/312
f 631/516/314 632/532/313 514/460/280
f 514/460/280 515/459/279 631/516/314
