# Blender 4.5.2 LTS
# www.blender.org
mtllib leg_left_white.mtl
o leg_left_white
v 5.948400 -10.249998 -10.783000
v 6.000000 -10.249998 -9.999998
v 6.000000 -6.249998 -9.999997
v 5.948400 -6.249998 -10.783000
v 5.795400 -10.249998 -11.552800
v 5.795400 -6.249998 -11.552800
v 5.543400 -10.249998 -12.296200
v 5.543400 -6.249998 -12.296200
v 5.196000 -10.249997 -13.000000
v 5.196000 -6.249998 -13.000000
v 4.760400 -10.249997 -13.652800
v 4.760400 -6.249997 -13.652800
v 4.242600 -10.249997 -14.242600
v 4.242600 -6.249997 -14.242600
v 3.652800 -10.249997 -14.760400
v 3.652800 -6.249997 -14.760400
v 3.000000 -10.249997 -15.196000
v 3.000000 -6.249997 -15.196000
v 2.296200 -10.249997 -15.543400
v 2.296200 -6.249997 -15.543400
v 1.552800 -10.249997 -15.795400
v 1.552800 -6.249997 -15.795400
v 0.783000 -10.249997 -15.948400
v 0.783000 -6.249997 -15.948400
v 0.000000 -10.249997 -16.000000
v 0.000000 -6.249997 -16.000000
v -0.783000 -10.249997 -15.948400
v -0.783000 -6.249997 -15.948400
v -1.552800 -10.249997 -15.795400
v -1.552800 -6.249997 -15.795400
v -2.296200 -10.249997 -15.543400
v -2.296200 -6.249997 -15.543400
v -3.000000 -10.249997 -15.196000
v -3.000000 -6.249997 -15.196000
v -3.652800 -10.249997 -14.760400
v -3.652800 -6.249997 -14.760400
v -4.242599 -10.249997 -14.242600
v -4.242599 -6.249997 -14.242600
v -4.760400 -10.249997 -13.652800
v -4.760400 -6.249997 -13.652800
v -5.196000 -10.249997 -13.000000
v -5.196000 -6.249998 -13.000000
v -5.543400 -10.249998 -12.296200
v -5.543400 -6.249998 -12.296200
v -5.795401 -10.249998 -11.552800
v -5.795401 -6.249998 -11.552800
v -5.948400 -10.249998 -10.783000
v -5.948400 -6.249998 -10.783000
v -6.000000 -10.249998 -9.999998
v -6.000000 -6.249998 -9.999997
v -5.948400 -10.249998 -9.216997
v -5.948400 -6.249998 -9.216996
v -5.795401 -10.249998 -8.447199
v -5.795401 -6.249999 -8.447198
v -5.543400 -10.249998 -7.703798
v -5.543400 -6.249999 -7.703797
v -5.196000 -10.249998 -6.999998
v -5.196000 -6.249999 -6.999998
v -4.760400 -10.249998 -6.347198
v -4.760400 -6.249999 -6.347198
v -4.242599 -10.249998 -5.757399
v -4.242599 -6.249999 -5.757399
v -3.652800 -10.249999 -5.239598
v -3.652800 -6.249999 -5.239598
v -3.000000 -10.249999 -4.803998
v -3.000000 -6.249999 -4.803998
v -2.296200 -10.249999 -4.456598
v -2.296200 -6.249998 -4.456598
v -1.552800 -10.249999 -4.204597
v -1.552800 -6.249998 -4.204597
v -0.783000 -10.249999 -4.051598
v -0.783000 -6.249998 -4.051598
v 0.000000 -10.249999 -3.999998
v 0.000000 -6.249999 -3.999997
v 0.783000 -10.249999 -4.051598
v 0.783000 -6.249998 -4.051598
v 1.552800 -10.249999 -4.204597
v 1.552800 -6.249998 -4.204597
v 2.296200 -10.249999 -4.456598
v 2.296200 -6.249998 -4.456598
v 3.000000 -10.249999 -4.803998
v 3.000000 -6.249999 -4.803998
v 3.652800 -10.249999 -5.239598
v 3.652800 -6.249999 -5.239598
v 4.242600 -10.249998 -5.757399
v 4.242600 -6.249999 -5.757399
v 4.760400 -10.249998 -6.347198
v 4.760400 -6.249999 -6.347198
v 5.196000 -10.249998 -6.999998
v 5.196000 -6.249999 -6.999998
v 5.543400 -10.249998 -7.703798
v 5.543400 -6.249999 -7.703797
v 5.795400 -10.249998 -8.447199
v 5.795400 -6.249999 -8.447198
v 5.948400 -10.249998 -9.216997
v 5.948400 -6.249998 -9.216996
v 6.000000 -6.249997 -16.000000
v 6.000000 -6.249998 -9.999997
v 5.948400 -6.249998 -10.783000
v 5.795400 -6.249998 -11.552800
v 5.543400 -6.249998 -12.296200
v 5.196000 -6.249998 -13.000000
v 4.760400 -6.249997 -13.652800
v 4.242600 -6.249997 -14.242600
v 3.652800 -6.249997 -14.760400
v 3.000000 -6.249997 -15.196000
v 2.296200 -6.249997 -15.543400
v 1.552800 -6.249997 -15.795400
v 0.783000 -6.249997 -15.948400
v 0.000000 -6.249997 -16.000000
v -6.000000 -6.249997 -16.000000
v -0.783000 -6.249997 -15.948400
v -1.552800 -6.249997 -15.795400
v -2.296200 -6.249997 -15.543400
v -3.000000 -6.249997 -15.196000
v -3.652800 -6.249997 -14.760400
v -4.242599 -6.249997 -14.242600
v -4.760400 -6.249997 -13.652800
v -5.196000 -6.249998 -13.000000
v -5.543400 -6.249998 -12.296200
v -5.795401 -6.249998 -11.552800
v -5.948400 -6.249998 -10.783000
v -6.000000 -6.249998 -9.999997
v -6.000000 -6.249998 -3.999998
v -5.948400 -6.249998 -9.216996
v -5.795401 -6.249999 -8.447198
v -5.543400 -6.249999 -7.703797
v -5.196000 -6.249999 -6.999998
v -4.760400 -6.249999 -6.347198
v -4.242599 -6.249999 -5.757399
v -3.652800 -6.249999 -5.239598
v -3.000000 -6.249999 -4.803998
v -2.296200 -6.249998 -4.456598
v -1.552800 -6.249998 -4.204597
v -0.783000 -6.249998 -4.051598
v 0.000000 -6.249999 -3.999997
v 6.000000 -6.249999 -3.999997
v 0.783000 -6.249998 -4.051598
v 1.552800 -6.249998 -4.204597
v 2.296200 -6.249998 -4.456598
v 3.000000 -6.249999 -4.803998
v 3.652800 -6.249999 -5.239598
v 4.242600 -6.249999 -5.757399
v 4.760400 -6.249999 -6.347198
v 5.196000 -6.249999 -6.999998
v 5.543400 -6.249999 -7.703797
v 5.795400 -6.249999 -8.447198
v 5.948400 -6.249998 -9.216996
v 6.000000 -6.249996 -20.000000
v -6.000000 -6.249996 -20.000000
v -6.000000 -6.249999 0.000002
v 6.000000 -6.249999 0.000002
v -6.000000 1.750000 0.000003
v 6.000000 1.750000 0.000003
v 6.000000 1.749999 -16.000000
v -6.000000 1.749999 -16.000000
v -6.000000 1.750000 0.000003
v -6.000000 -6.249999 0.000002
v 6.000000 -6.249999 0.000002
v 6.000000 1.750000 0.000003
v 6.000000 1.750000 0.000003
v 6.000000 -6.249999 0.000002
v 6.000000 -6.249997 -16.000000
v 6.000000 1.749999 -16.000000
v -6.000000 1.749999 -16.000000
v -6.000000 -6.249997 -16.000000
v -6.000000 -6.249999 0.000002
v -6.000000 1.750000 0.000003
v -6.000000 -6.249996 -20.000000
v -6.000000 5.749998 -19.999992
v -6.000000 5.749999 -15.999991
v 6.000000 5.749998 -19.999992
v 6.000000 -6.249996 -20.000000
v 6.000000 5.749999 -15.999991
v 6.000000 5.749999 -15.999991
v 6.000000 5.749998 -19.999992
v -6.000000 5.749998 -19.999992
v -6.000000 5.749999 -15.999991
v -6.000000 1.749999 -16.000000
v 6.000000 1.749999 -16.000000
v 6.000000 5.749999 -15.999991
v -6.000000 5.749999 -15.999991
v -6.000000 5.749998 -19.999992
v -6.000000 -6.249996 -20.000000
v -9.500000 -10.249996 -20.000000
v -9.500000 9.750008 -19.999992
v 6.000000 -6.249996 -20.000000
v 8.500000 -10.249997 -20.000000
v 6.000000 5.749998 -19.999992
v 8.500000 9.750008 -19.999992
v 8.500000 9.750000 -11.999992
v 8.500000 4.749999 -11.999991
v 8.500000 -10.249997 -20.000000
v 8.500000 9.750008 -19.999992
v 8.500000 4.750000 0.300004
v 8.500000 2.550000 -1.199997
v 8.500000 -1.249999 -1.999998
v 8.500000 -5.049999 -1.199997
v 8.500000 -8.250000 1.000002
v 8.500000 -10.250000 3.900001
v 8.000000 4.750000 0.300004
v 8.000000 2.550000 -1.199997
v 8.500000 2.550000 -1.199997
v 8.500000 4.750000 0.300004
v 8.000000 -1.249999 -1.999998
v 8.500000 -1.249999 -1.999998
v 8.000000 -5.049999 -1.199997
v 8.500000 -5.049999 -1.199997
v 8.000000 -8.250000 1.000002
v 8.500000 -8.250000 1.000002
v 8.000000 -10.250000 3.900001
v 8.500000 -10.250000 3.900001
v 8.000000 -1.641500 5.025803
v 8.000000 -1.250000 5.000002
v 2.280000 -1.250000 5.000002
v 2.280000 -1.641500 5.025803
v 8.000000 -2.026400 5.102303
v 2.280000 -2.026400 5.102303
v 8.000000 -2.398099 5.228302
v 2.280000 -2.398099 5.228302
v 8.000000 -2.750000 5.402002
v 2.280000 -2.750000 5.402002
v 8.000000 -3.076399 5.619802
v 2.280000 -3.076399 5.619802
v 8.000000 -3.371301 5.878703
v 2.280000 -3.371301 5.878703
v 8.000000 -3.630199 6.173603
v 2.280000 -3.630199 6.173603
v 8.000000 -3.848001 6.500001
v 2.280000 -3.848001 6.500001
v 8.000000 -4.021699 6.851902
v 2.280000 -4.021699 6.851902
v 8.000000 -4.147700 7.223601
v 2.280000 -4.147700 7.223601
v 8.000000 -4.224201 7.608501
v 2.280000 -4.224201 7.608501
v 8.000000 -4.250000 8.000002
v 2.280000 -4.250000 8.000002
v 8.000000 -4.224201 8.391502
v 2.280000 -4.224201 8.391502
v 8.000000 -4.147700 8.776402
v 2.280000 -4.147700 8.776402
v 8.000000 -4.021700 9.148102
v 2.280000 -4.021700 9.148102
v 8.000000 -3.848000 9.500002
v 2.280000 -3.848000 9.500002
v 8.000000 -3.630200 9.826402
v 2.280000 -3.630200 9.826402
v 8.000000 -3.371300 10.121299
v 2.280000 -3.371300 10.121299
v 8.000000 -3.076401 10.380199
v 2.280000 -3.076400 10.380199
v 8.000000 -2.750000 10.597999
v 2.280000 -2.750000 10.597999
v 8.000000 -2.398100 10.771699
v 2.280000 -2.398100 10.771699
v 8.000000 -2.026401 10.897699
v 2.280000 -2.026401 10.897699
v 8.000000 -1.641500 10.974199
v 2.280000 -1.641500 10.974199
v 8.000000 -1.250001 10.999999
v 2.280000 -1.250001 10.999999
v 8.000000 -0.858500 10.974199
v 2.280000 -0.858500 10.974199
v 8.000000 -0.473600 10.897699
v 2.280000 -0.473600 10.897699
v 8.000000 -0.101900 10.771699
v 2.280000 -0.101900 10.771699
v 8.000000 0.250001 10.597999
v 2.280000 0.250001 10.597999
v 8.000000 0.576401 10.380199
v 2.280000 0.576401 10.380199
v 8.000000 0.871301 10.121299
v 2.280000 0.871301 10.121299
v 8.000000 1.130201 9.826403
v 2.280000 1.130201 9.826403
v 8.000000 1.348001 9.500002
v 2.280000 1.348001 9.500002
v 8.000000 1.521701 9.148103
v 2.280000 1.521701 9.148103
v 8.000000 1.647701 8.776402
v 2.280000 1.647701 8.776402
v 8.000000 1.724201 8.391502
v 2.280000 1.724201 8.391502
v 8.000000 1.750001 8.000003
v 2.280000 1.750001 8.000003
v 8.000000 1.724201 7.608502
v 2.280000 1.724201 7.608502
v 8.000000 1.647701 7.223603
v 2.280000 1.647701 7.223603
v 8.000000 1.521701 6.851902
v 2.280000 1.521701 6.851902
v 8.000000 1.348001 6.500002
v 2.280000 1.348001 6.500002
v 8.000000 1.130200 6.173603
v 2.280000 1.130200 6.173603
v 8.000000 0.871300 5.878703
v 2.280000 0.871300 5.878703
v 8.000000 0.576400 5.619802
v 2.280000 0.576400 5.619802
v 8.000000 0.250000 5.402002
v 2.280000 0.250000 5.402002
v 8.000000 -0.101900 5.228302
v 2.280000 -0.101900 5.228302
v 8.000000 -0.473600 5.102302
v 2.280000 -0.473600 5.102302
v 8.000000 -0.858500 5.025803
v 2.280000 -0.858500 5.025803
v 8.000000 -10.250000 8.000001
v 8.000000 -10.250000 3.900001
v 8.000000 -3.371301 5.878703
v 8.000000 -4.021699 6.851902
v 8.000000 -9.530001 11.420000
v 8.000000 -4.250000 8.000002
v 8.000000 -7.550001 14.300000
v 8.000000 -4.021700 9.148102
v 8.000000 -4.670002 16.280001
v 8.000000 -3.371300 10.121299
v 8.000000 -1.250002 17.000000
v 8.000000 -2.398100 10.771699
v 8.000000 2.170001 16.280001
v 8.000000 -1.250001 10.999999
v 8.000000 5.050001 14.299999
v 8.000000 -0.101900 10.771699
v 8.000000 7.030001 11.419999
v 8.000000 0.871301 10.121299
v 8.000000 7.750000 8.000004
v 8.000000 1.521701 9.148103
v 8.000000 7.030001 4.580004
v 8.000000 1.750001 8.000003
v 8.000000 4.750000 1.260004
v 8.000000 1.521701 6.851902
v 8.000000 4.750000 0.300004
v 8.000000 0.871300 5.878703
v 8.000000 2.550000 -1.199997
v 8.000000 -0.101900 5.228302
v 8.000000 -1.249999 -1.999998
v 8.000000 -1.250000 5.000002
v 8.000000 -5.049999 -1.199997
v 8.000000 -2.398099 5.228302
v 8.000000 -8.250000 1.000002
v -4.340000 0.302801 13.795399
v -4.340000 -0.467001 13.948399
v -4.340000 -1.250001 13.999999
v -4.340000 -1.250000 8.000002
v -4.340000 1.750001 13.195999
v -4.340000 1.046201 13.543399
v -4.340000 2.992601 12.242599
v -4.340000 2.402801 12.760399
v -4.340000 3.946001 10.999999
v -4.340000 3.510401 11.652799
v -4.340000 4.545401 9.552803
v -4.340000 4.293401 10.296199
v -4.340000 4.750001 8.000003
v -4.340000 4.698400 8.783003
v 2.280000 -0.467001 13.948399
v 2.280000 -1.250001 13.999999
v -4.340000 -1.250001 13.999999
v -4.340000 -0.467001 13.948399
v 2.280000 0.302801 13.795399
v -4.340000 0.302801 13.795399
v 2.280000 1.046201 13.543399
v -4.340000 1.046201 13.543399
v 2.280000 1.750001 13.195999
v -4.340000 1.750001 13.195999
v 2.280000 2.402801 12.760399
v -4.340000 2.402801 12.760399
v 2.280000 2.992601 12.242599
v -4.340000 2.992601 12.242599
v 2.280000 3.510401 11.652799
v -4.340000 3.510401 11.652799
v 2.280000 3.946001 10.999999
v -4.340000 3.946001 10.999999
v 2.280000 4.293401 10.296199
v -4.340000 4.293401 10.296199
v 2.280000 4.545401 9.552803
v -4.340000 4.545401 9.552803
v 2.280000 4.698400 8.783003
v -4.340000 4.698400 8.783003
v 2.280000 4.750001 8.000003
v -4.340000 4.750001 8.000003
v 2.280000 -6.250001 14.000000
v -4.340000 -6.250001 14.000000
v -4.340000 4.330000 5.900003
v 2.280000 4.290000 5.700003
v -4.240000 4.300000 5.760003
v -2.299999 3.460000 4.460003
v 2.280000 3.460000 4.450003
v 0.000000 3.150000 4.000003
v -4.340000 -6.250001 14.000000
v -4.340000 -6.250000 5.900002
v -4.340000 4.330000 5.900003
v 2.280000 -0.858500 10.974199
v 2.280000 -0.467001 13.948399
v 2.280000 -1.250001 13.999999
v 2.280000 -1.250001 10.999999
v 2.280000 -0.473600 10.897699
v 2.280000 0.302801 13.795399
v 2.280000 -0.101900 10.771699
v 2.280000 1.046201 13.543399
v 2.280000 0.250001 10.597999
v 2.280000 1.750001 13.195999
v 2.280000 0.576401 10.380199
v 2.280000 2.402801 12.760399
v 2.280000 0.871301 10.121299
v 2.280000 2.992601 12.242599
v 2.280000 1.130201 9.826403
v 2.280000 3.510401 11.652799
v 2.280000 1.348001 9.500002
v 2.280000 3.946001 10.999999
v 2.280000 1.521701 9.148103
v 2.280000 4.293401 10.296199
v 2.280000 1.647701 8.776402
v 2.280000 4.545401 9.552803
v 2.280000 1.724201 8.391502
v 2.280000 4.698400 8.783003
v 2.280000 1.750001 8.000003
v 2.280000 4.750001 8.000003
v 2.280000 1.750000 5.000003
v 2.280000 1.521701 6.851902
v 2.280000 0.871300 5.878703
v 2.280000 -0.101900 5.228302
v 2.280000 -1.250000 5.000002
v 2.280000 -4.250000 5.000001
v 2.280000 -2.398099 5.228302
v 2.280000 -3.371301 5.878703
v 2.280000 -4.021699 6.851902
v 2.280000 -4.250000 8.000002
v 2.280000 -4.250000 11.000000
v 2.280000 -4.021700 9.148102
v 2.280000 -3.371300 10.121299
v 2.280000 -2.398100 10.771699
v 2.280000 -6.250001 14.000000
v 2.280000 -6.250000 4.450002
v 2.280000 3.460000 4.450003
v 2.280000 4.290000 5.700003
v -5.543400 -6.250000 7.703802
v -4.340000 -6.250000 5.900002
v -4.340000 -6.250001 14.000000
v -6.000000 -6.250000 10.000000
v -5.543400 -6.250001 12.296200
v -4.242600 -6.250001 14.242600
v -2.296200 -6.250001 15.543400
v -2.819400 -6.250001 15.193700
v 0.000000 -6.250002 16.000000
v 2.280000 -6.250001 14.000000
v 2.296200 -6.250001 15.543400
v 2.819400 -6.250001 15.193700
v 5.543400 -6.250001 12.296200
v 6.000000 -6.250000 10.000000
v 5.543400 -6.250000 7.703802
v 4.242600 -6.250000 5.757401
v 2.280000 -6.250000 4.450002
v -2.296200 -10.250000 4.456601
v 0.000000 -10.250000 4.000001
v 0.000000 3.150000 4.000003
v -2.300000 3.460000 4.460003
v -4.242600 -10.250000 5.757401
v -4.240000 4.300000 5.760003
v -4.340000 4.330000 5.900003
v -4.340000 -6.250000 5.900002
v -5.543400 -6.250000 7.703802
v -5.543400 -10.250000 7.703801
v -5.602300 -10.250000 8.000001
v -6.000000 -9.828901 10.000000
v -6.000000 -6.250000 10.000000
v -5.717600 -9.530001 11.420000
v -5.543400 -6.250001 12.296200
v -5.543400 -8.927601 12.296200
v -4.242600 -7.589501 14.242600
v -4.242600 -6.250001 14.242600
v -4.156700 -7.550001 14.300000
v -2.819400 -6.250001 15.193700
v -2.296200 -5.741401 15.543400
v -2.819400 -6.250001 15.193700
v -2.296200 -6.250001 15.543400
v 0.000000 -6.250002 16.000000
v 0.000000 -5.077301 16.000000
v 2.296200 -6.250001 15.543400
v 2.296200 -5.741401 15.543400
v 2.819400 -6.250001 15.193700
v 4.156700 -7.550001 14.300000
v 2.819400 -6.250001 15.193700
v 4.242600 -6.250001 14.242600
v 4.242600 -7.589501 14.242600
v 5.543400 -8.927601 12.296200
v 5.543400 -6.250001 12.296200
v 5.717600 -9.530001 11.420000
v 6.000000 -6.250000 10.000000
v 6.000000 -9.828900 10.000000
v 5.543400 -6.250000 7.703802
v 5.602300 -10.250000 8.000001
v 5.543400 -10.250000 7.703801
v 4.242600 -6.250000 5.757401
v 4.242600 -10.250000 5.757401
v 2.280000 -6.250000 4.450002
v 2.296200 -10.250000 4.456601
v 2.280000 3.460000 4.450003
v 0.000000 -5.077301 16.000000
v 8.000000 -4.670001 16.280001
v -8.029999 -4.670001 16.280001
v -2.296200 -5.741401 15.543400
v 2.296200 -5.741401 15.543400
v 2.819400 -6.250001 15.193700
v -2.819400 -6.250001 15.193700
v -8.110001 -7.550001 14.300000
v -4.156700 -7.550001 14.300000
v 4.156700 -7.550001 14.300000
v 8.000000 -7.550001 14.300000
v 8.000000 -1.250002 17.000000
v -8.000000 -1.250002 17.000000
v 8.000000 2.170001 16.280001
v -8.030001 2.170001 16.280001
v 8.000000 5.050001 14.299999
v -8.110001 5.050001 14.299999
v -8.360001 -10.250000 8.000001
v -5.602300 -10.250000 8.000001
v -6.000000 -9.828901 10.000000
v -8.230000 -9.530001 11.420000
v -5.717600 -9.530001 11.420000
v -5.543400 -8.927601 12.296200
v -4.242600 -7.589501 14.242600
v 8.000000 -9.530001 11.420000
v 6.000000 -9.828901 10.000000
v 5.602300 -10.250000 8.000001
v 8.000000 -10.250000 8.000001
v 5.717600 -9.530001 11.420000
v 5.543400 -8.927601 12.296200
v 4.242600 -7.589501 14.242600
v 6.000000 -10.249997 -16.000000
v 6.000000 -10.249998 -9.999998
v 5.948400 -10.249998 -10.783000
v 5.795400 -10.249998 -11.552800
v 5.543400 -10.249998 -12.296200
v 5.196000 -10.249997 -13.000000
v 4.760400 -10.249997 -13.652800
v 4.242600 -10.249997 -14.242600
v 3.652800 -10.249997 -14.760400
v 3.000000 -10.249997 -15.196000
v 2.296200 -10.249997 -15.543400
v 1.552800 -10.249997 -15.795400
v 0.783000 -10.249997 -15.948400
v 0.000000 -10.249997 -16.000000
v -6.000000 -10.249997 -16.000000
v -0.783000 -10.249997 -15.948400
v -1.552800 -10.249997 -15.795400
v -2.296200 -10.249997 -15.543400
v -3.000000 -10.249997 -15.196000
v -3.652800 -10.249997 -14.760400
v -4.242599 -10.249997 -14.242600
v -4.760400 -10.249997 -13.652800
v -5.196000 -10.249997 -13.000000
v -5.543400 -10.249998 -12.296200
v -5.795401 -10.249998 -11.552800
v -5.948400 -10.249998 -10.783000
v -6.000000 -10.249998 -9.999998
v -6.000000 -10.249999 -3.999998
v -5.948400 -10.249998 -9.216997
v -5.795401 -10.249998 -8.447199
v -5.543400 -10.249998 -7.703798
v -5.196000 -10.249998 -6.999998
v -4.760400 -10.249998 -6.347198
v -4.242599 -10.249998 -5.757399
v -3.652800 -10.249999 -5.239598
v -3.000000 -10.249999 -4.803998
v -2.296200 -10.249999 -4.456598
v -1.552800 -10.249999 -4.204597
v -0.783000 -10.249999 -4.051598
v 0.000000 -10.249999 -3.999998
v 6.000000 -10.249999 -3.999998
v 0.783000 -10.249999 -4.051598
v 1.552800 -10.249999 -4.204597
v 2.296200 -10.249999 -4.456598
v 3.000000 -10.249999 -4.803998
v 3.652800 -10.249999 -5.239598
v 4.242600 -10.249998 -5.757399
v 4.760400 -10.249998 -6.347198
v 5.196000 -10.249998 -6.999998
v 5.543400 -10.249998 -7.703798
v 5.795400 -10.249998 -8.447199
v 5.948400 -10.249998 -9.216997
v 8.000000 -10.250000 3.900001
v 2.296200 -10.250000 4.456601
v 0.000000 -10.250000 4.000001
v 4.242600 -10.250000 5.757401
v 5.543400 -10.250000 7.703801
v -5.543400 -10.250000 7.703801
v -4.242599 -10.250000 5.757401
v -2.296200 -10.250000 4.456601
v -9.500000 -10.249996 -20.000000
v 8.500000 -10.249997 -20.000000
v 8.500000 -10.250000 3.900001
v 4.242600 -6.250001 14.242600
v -9.500000 9.750008 -19.999992
v -9.500000 -10.249996 -20.000000
v -9.180000 4.749999 -11.999991
v -9.180000 9.750000 -11.999992
v -8.360001 -10.250000 8.000001
v -8.639999 4.750000 1.260004
v -8.359999 -1.250000 8.000002
v -8.230000 -9.530001 11.420000
v -8.110001 -7.550001 14.300000
v -8.030001 -4.670001 16.280001
v -8.000000 -1.250002 17.000000
v -8.030001 2.170001 16.280001
v -8.110001 5.050001 14.299999
v -8.230000 7.030001 11.419999
v -8.360001 7.750000 8.000004
v -8.500000 7.030001 4.580004
v -9.180000 4.749999 -11.999991
v -9.180000 9.750000 -11.999992
v 8.500000 9.750000 -11.999992
v 8.500000 4.749999 -11.999991
v -9.180000 9.750000 -11.999992
v -9.500000 9.750008 -19.999992
v 8.500000 9.750008 -19.999992
v 8.500000 9.750000 -11.999992
v -9.180000 4.749999 -11.999991
v 8.500000 4.749999 -11.999991
v 8.500000 4.750000 0.300004
v -8.680000 4.750000 0.300004
v 8.000000 4.750000 0.300004
v 8.000000 4.750000 1.260004
v -8.639999 4.750000 1.260004
v -8.500000 7.030001 4.580004
v -8.639999 4.750000 1.260004
v 8.000000 4.750000 1.260004
v 8.000000 7.030001 4.580004
v -8.360001 7.750000 8.000004
v 8.000000 7.750000 8.000004
v 8.000000 7.030001 11.419999
v -8.230000 7.030001 11.419999
vn -0.9940 -0.0000 0.1090
vn -0.9998 -0.0000 -0.0220
vn -0.9998 -0.0000 0.0220
vn -0.9884 -0.0000 0.1521
vn -0.9714 -0.0000 0.2374
vn -0.9601 -0.0000 0.2795
vn -0.9321 -0.0000 0.3623
vn -0.9153 -0.0000 0.4029
vn -0.8767 -0.0000 0.4810
vn -0.8551 -0.0000 0.5185
vn -0.8066 -0.0000 0.5911
vn -0.7798 -0.0000 0.6261
vn -0.7222 -0.0000 0.6916
vn -0.6916 -0.0000 0.7222
vn -0.6260 -0.0000 0.7798
vn -0.5911 -0.0000 0.8066
vn -0.5186 -0.0000 0.8550
vn -0.4810 -0.0000 0.8767
vn -0.4029 -0.0000 0.9153
vn -0.3623 -0.0000 0.9321
vn -0.2795 -0.0000 0.9601
vn -0.2374 -0.0000 0.9714
vn -0.1521 -0.0000 0.9884
vn -0.1090 -0.0000 0.9940
vn -0.0220 -0.0000 0.9998
vn 0.0220 -0.0000 0.9998
vn 0.1090 -0.0000 0.9940
vn 0.1521 -0.0000 0.9884
vn 0.2374 -0.0000 0.9714
vn 0.2795 -0.0000 0.9601
vn 0.3623 -0.0000 0.9321
vn 0.4029 -0.0000 0.9153
vn 0.4810 -0.0000 0.8767
vn 0.5186 -0.0000 0.8550
vn 0.5911 -0.0000 0.8066
vn 0.6260 -0.0000 0.7798
vn 0.6916 -0.0000 0.7222
vn 0.7222 -0.0000 0.6916
vn 0.7798 -0.0000 0.6260
vn 0.8066 -0.0000 0.5911
vn 0.8551 -0.0000 0.5185
vn 0.8767 -0.0000 0.4810
vn 0.9153 -0.0000 0.4029
vn 0.9321 -0.0000 0.3623
vn 0.9601 -0.0000 0.2795
vn 0.9714 -0.0000 0.2374
vn 0.9884 -0.0000 0.1521
vn 0.9940 -0.0000 0.1090
vn 0.9998 -0.0000 0.0220
vn 0.9998 -0.0000 -0.0220
vn 0.9940 -0.0000 -0.1090
vn 0.9884 -0.0000 -0.1521
vn 0.9714 -0.0000 -0.2374
vn 0.9601 -0.0000 -0.2795
vn 0.9321 -0.0000 -0.3623
vn 0.9153 -0.0000 -0.4029
vn 0.8767 -0.0000 -0.4810
vn 0.8551 -0.0000 -0.5185
vn 0.8066 -0.0000 -0.5911
vn 0.7798 -0.0000 -0.6260
vn 0.7222 -0.0000 -0.6916
vn 0.6916 -0.0000 -0.7222
vn 0.6260 -0.0000 -0.7798
vn 0.5911 -0.0000 -0.8066
vn 0.5185 -0.0000 -0.8551
vn 0.4810 -0.0000 -0.8767
vn 0.4029 -0.0000 -0.9153
vn 0.3623 -0.0000 -0.9321
vn 0.2795 -0.0000 -0.9601
vn 0.2374 -0.0000 -0.9714
vn 0.1521 -0.0000 -0.9884
vn 0.1090 -0.0000 -0.9940
vn 0.0220 -0.0000 -0.9998
vn -0.0220 -0.0000 -0.9998
vn -0.1090 -0.0000 -0.9940
vn -0.1521 -0.0000 -0.9884
vn -0.2374 -0.0000 -0.9714
vn -0.2795 -0.0000 -0.9601
vn -0.3623 -0.0000 -0.9321
vn -0.4029 -0.0000 -0.9153
vn -0.4810 -0.0000 -0.8767
vn -0.5186 -0.0000 -0.8550
vn -0.5911 -0.0000 -0.8066
vn -0.6260 -0.0000 -0.7798
vn -0.6916 -0.0000 -0.7222
vn -0.7222 -0.0000 -0.6916
vn -0.7798 -0.0000 -0.6260
vn -0.8066 -0.0000 -0.5911
vn -0.8551 -0.0000 -0.5185
vn -0.8767 -0.0000 -0.4810
vn -0.9153 -0.0000 -0.4029
vn -0.9321 -0.0000 -0.3623
vn -0.9601 -0.0000 -0.2795
vn -0.9714 -0.0000 -0.2374
vn -0.9884 -0.0000 -0.1521
vn -0.9940 -0.0000 -0.1090
vn -0.0000 1.0000 -0.0000
vn -0.0000 -1.0000 -0.0000
vn -0.0000 -0.0000 -1.0000
vn -1.0000 -0.0000 -0.0000
vn 1.0000 -0.0000 -0.0000
vn -0.0000 -0.5633 0.8262
vn -0.0000 -0.3016 0.9534
vn -0.0000 -0.4204 0.9073
vn -0.0000 0.0700 0.9975
vn -0.0000 -0.0700 0.9975
vn -0.0000 0.4542 0.8909
vn -0.0000 0.3319 0.9433
vn -0.0000 0.7433 0.6690
vn -0.0000 0.6560 0.7548
vn -0.0000 0.8232 0.5677
vn -0.0000 0.1090 0.9940
vn -0.0000 -0.0219 0.9998
vn -0.0000 0.0219 0.9998
vn -0.0000 0.1522 0.9884
vn -0.0000 0.2375 0.9714
vn -0.0000 0.2795 0.9601
vn -0.0000 0.3623 0.9321
vn -0.0000 0.4028 0.9153
vn -0.0000 0.4810 0.8767
vn -0.0000 0.5185 0.8551
vn -0.0000 0.5911 0.8066
vn -0.0000 0.6261 0.7798
vn -0.0000 0.6916 0.7223
vn -0.0000 0.7223 0.6916
vn -0.0000 0.7798 0.6261
vn -0.0000 0.8066 0.5911
vn -0.0000 0.8551 0.5185
vn -0.0000 0.8767 0.4810
vn -0.0000 0.9153 0.4028
vn -0.0000 0.9321 0.3623
vn -0.0000 0.9601 0.2796
vn -0.0000 0.9714 0.2375
vn -0.0000 0.9884 0.1522
vn -0.0000 0.9940 0.1090
vn -0.0000 0.9998 0.0219
vn -0.0000 0.9998 -0.0219
vn -0.0000 0.9940 -0.1090
vn -0.0000 0.9884 -0.1522
vn -0.0000 0.9714 -0.2375
vn -0.0000 0.9601 -0.2795
vn -0.0000 0.9321 -0.3622
vn -0.0000 0.9153 -0.4028
vn -0.0000 0.8767 -0.4810
vn -0.0000 0.8551 -0.5185
vn -0.0000 0.8066 -0.5911
vn -0.0000 0.7798 -0.6261
vn -0.0000 0.7223 -0.6916
vn -0.0000 0.6916 -0.7223
vn -0.0000 0.6261 -0.7798
vn -0.0000 0.5911 -0.8066
vn -0.0000 0.5185 -0.8551
vn -0.0000 0.4810 -0.8767
vn -0.0000 0.4028 -0.9153
vn -0.0000 0.3623 -0.9321
vn -0.0000 0.2795 -0.9601
vn -0.0000 0.2375 -0.9714
vn -0.0000 0.1522 -0.9884
vn -0.0000 0.1091 -0.9940
vn -0.0000 0.0219 -0.9998
vn -0.0000 -0.0219 -0.9998
vn -0.0000 -0.1090 -0.9940
vn -0.0000 -0.1522 -0.9884
vn -0.0000 -0.2375 -0.9714
vn -0.0000 -0.2795 -0.9601
vn -0.0000 -0.3622 -0.9321
vn -0.0000 -0.4028 -0.9153
vn -0.0000 -0.4810 -0.8767
vn -0.0000 -0.5185 -0.8551
vn -0.0000 -0.5911 -0.8066
vn -0.0000 -0.6261 -0.7798
vn -0.0000 -0.6916 -0.7222
vn -0.0000 -0.7223 -0.6916
vn -0.0000 -0.7798 -0.6261
vn -0.0000 -0.8066 -0.5911
vn -0.0000 -0.8551 -0.5185
vn -0.0000 -0.8767 -0.4810
vn -0.0000 -0.9153 -0.4028
vn -0.0000 -0.9321 -0.3623
vn -0.0000 -0.9601 -0.2795
vn -0.0000 -0.9714 -0.2374
vn -0.0000 -0.9884 -0.1522
vn -0.0000 -0.9940 -0.1090
vn -0.0000 -0.9998 -0.0219
vn -0.0000 -0.9998 0.0219
vn -0.0000 -0.9940 0.1090
vn -0.0000 -0.9884 0.1522
vn -0.0000 -0.9714 0.2375
vn -0.0000 -0.9601 0.2795
vn -0.0000 -0.9321 0.3622
vn -0.0000 -0.9153 0.4028
vn -0.0000 -0.8767 0.4810
vn -0.0000 -0.8551 0.5185
vn -0.0000 -0.8066 0.5911
vn -0.0000 -0.7798 0.6261
vn -0.0000 -0.7223 0.6916
vn -0.0000 -0.6916 0.7223
vn -0.0000 -0.6261 0.7798
vn -0.0000 -0.5911 0.8066
vn -0.0000 -0.5185 0.8551
vn -0.0000 -0.4810 0.8767
vn -0.0000 -0.4028 0.9153
vn -0.0000 -0.3623 0.9321
vn -0.0000 -0.2795 0.9601
vn -0.0000 -0.2375 0.9714
vn -0.0000 -0.1522 0.9884
vn -0.0000 -0.1091 0.9940
vn -0.0000 -0.0089 -1.0000
vn -0.0000 -0.2374 -0.9714
vn -0.0000 -0.3623 -0.9321
vn -0.0000 -0.4029 -0.9153
vn -0.0000 -0.6916 -0.7223
vn -0.0000 -0.9153 -0.4029
vn -0.0000 -0.9958 0.0919
vn -0.0000 -0.9875 0.1578
vn -0.0000 -0.9804 0.1970
vn 0.0010 -0.9449 0.3272
vn 0.0035 -0.8537 0.5207
vn 0.0025 -0.8344 0.5511
vn 0.0012 -0.8313 0.5558
vn 0.0012 -0.8264 0.5631
vn 0.3219 -0.0001 0.9468
vn -0.0246 0.0001 0.9997
vn 0.0176 -0.0001 0.9998
vn 0.4458 -0.0002 0.8951
vn 0.6091 -0.0001 0.7931
vn 0.5767 -0.0002 0.8170
vn 0.8188 -0.0001 0.5740
vn 0.8311 0.0002 0.5561
vn 0.9481 -0.0000 0.3180
vn 0.8448 0.0002 0.5351
vn 0.9808 -0.0000 0.1950
vn 0.9946 -0.0000 0.1039
vn 0.9991 -0.0000 -0.0419
vn 0.9808 -0.0000 -0.1950
vn 0.9265 -0.0000 -0.3764
vn 0.8863 -0.0000 -0.4631
vn 0.8283 -0.0000 -0.5603
vn 0.7265 -0.0000 -0.6871
vn 0.5556 -0.0000 -0.8315
vn 0.5556 -0.0000 -0.8314
vn -0.2750 -0.0000 0.9615
vn -0.5557 -0.0000 0.8314
vn -0.2234 -0.0000 0.9747
vn 0.0354 -0.0000 0.9994
vn -0.0354 -0.0000 0.9994
vn 0.2750 -0.0000 0.9614
vn 0.2234 -0.0000 0.9747
vn 0.5557 -0.0000 0.8314
vn -0.5556 -0.0000 -0.8315
vn -0.5556 -0.0000 -0.8314
vn -0.7857 -0.0000 -0.6187
vn -0.8223 -0.0000 -0.5691
vn -0.8725 -0.0000 -0.4885
vn -0.9406 -0.0000 -0.3395
vn -0.9808 -0.0000 -0.1950
vn -0.9991 -0.0000 -0.0419
vn -0.9946 -0.0000 0.1039
vn -0.9458 -0.0000 0.3247
vn -0.9808 -0.0000 0.1950
vn -0.8442 -0.0000 0.5361
vn -0.7516 -0.0000 0.6597
vn -0.6582 -0.0003 0.7528
vn -0.2806 -0.0000 0.9598
vn -0.3825 -0.0000 0.9239
vn -0.1936 -0.0000 0.9811
vn -0.0000 -0.5665 0.8241
vn -0.0000 -0.3015 0.9535
vn -0.0000 -0.3587 0.9335
vn -0.0000 -0.5666 0.8240
vn -0.0000 -0.5665 0.8240
vn -0.0000 -0.6694 0.7429
vn -0.0000 -0.5790 0.8153
vn -0.0000 -0.6870 0.7266
vn -0.0000 0.0701 0.9975
vn -0.0006 -0.0701 0.9975
vn -0.0000 0.4543 0.8908
vn 0.0006 0.3320 0.9433
vn -0.0000 0.7071 0.7071
vn -0.0000 0.7075 0.7067
vn -0.0000 -0.9999 0.0171
vn -0.0000 -0.9836 0.1804
vn -0.0000 -0.9786 0.2060
vn -0.0000 -0.8947 0.4466
vn -0.0000 -0.9308 0.3654
vn -0.0000 -0.8241 0.5665
vn -0.0000 -0.8241 0.5664
vn -0.0000 -0.9313 0.3644
vn -0.0000 -0.9785 0.2060
vn -0.0000 -0.9809 0.1946
vn -0.0000 -0.9989 0.0463
vn -0.0000 -0.8240 0.5665
vn -0.0000 -0.8239 0.5668
vn -0.9992 -0.0000 0.0400
vn -0.9992 -0.0003 0.0405
vn -0.9992 -0.0002 0.0403
vn -0.9992 -0.0001 0.0412
vn -0.9992 -0.0000 0.0406
vn -0.9992 0.0006 0.0394
vn -0.9992 0.0007 0.0404
vn -0.9992 0.0003 0.0400
vn -0.9992 -0.0003 0.0400
vn -0.9992 -0.0007 0.0404
vn -0.9992 -0.0006 0.0394
vn -0.9992 -0.0000 0.0394
vn -0.9991 0.0002 0.0414
vn -0.0000 -0.0000 1.0000
vn -0.0000 0.8243 -0.5661
vn -0.0000 0.8853 -0.4650
vn -0.0000 0.9389 -0.3442
vn -0.0000 1.0000 -0.0009
vn -0.0000 0.9195 0.3931
vn -0.0000 0.9192 0.3939
vt 22.834600 -4.948400
vt 22.000000 -5.000000
vt 22.000000 -1.000000
vt 22.834600 -0.948400
vt 23.757401 -4.795400
vt 23.757401 -0.795400
vt 24.752800 -4.543400
vt 24.752800 -0.543400
vt 25.804001 -4.196000
vt 25.804001 -0.196000
vt 26.892401 -3.760400
vt 26.892401 0.239600
vt 28.000000 -3.242600
vt 28.000000 0.757400
vt 29.107599 -2.652800
vt 29.107599 1.347200
vt 30.195999 -2.000000
vt 30.195999 2.000000
vt 31.247200 -1.296200
vt 31.247200 2.703800
vt 32.242599 -0.552800
vt 32.242599 3.447200
vt 33.165401 0.217000
vt 33.165401 4.217000
vt 34.000000 1.000000
vt 19.000000 5.000000
vt 14.948400 1.783000
vt 18.948400 5.783000
vt 14.795400 2.552800
vt 18.795401 6.552800
vt 14.543400 3.296200
vt 18.543400 7.296200
vt 14.196000 4.000000
vt 18.195999 8.000000
vt 13.760400 4.652800
vt 17.760401 8.652800
vt 13.242600 5.242599
vt 17.242599 9.242599
vt 12.652800 5.760400
vt 16.652800 9.760400
vt 12.000000 6.196000
vt 16.000000 10.196000
vt 11.296200 6.543400
vt 15.296200 10.543400
vt 10.552800 6.795401
vt 14.552800 10.795400
vt 9.783001 6.948400
vt 13.783000 10.948400
vt 9.000000 7.000000
vt 34.000000 11.000000
vt 33.165401 6.948400
vt 33.165401 10.948400
vt 32.242599 6.795401
vt 32.242599 10.795400
vt 31.247200 6.543400
vt 31.247200 10.543400
vt 30.195999 6.196000
vt 30.195999 10.196000
vt 29.107599 5.760400
vt 29.107599 9.760400
vt 28.000000 5.242599
vt 28.000000 9.242599
vt 26.892401 4.652800
vt 26.892401 8.652800
vt 25.804001 4.000000
vt 25.804001 8.000000
vt 24.752800 3.296200
vt 24.752800 7.296200
vt 23.757401 2.552800
vt 23.757401 6.552800
vt 22.834600 1.783000
vt 22.834600 5.783000
vt 22.000000 1.000000
vt 7.000000 5.000000
vt 3.051600 0.217000
vt 7.051600 4.217000
vt 3.204599 -0.552800
vt 7.204599 3.447200
vt 3.456600 -1.296200
vt 7.456600 2.703800
vt 3.804000 -2.000000
vt 7.804000 2.000000
vt 4.239600 -2.652800
vt 8.239600 1.347200
vt 4.757401 -3.242600
vt 19.514799 0.757400
vt 19.586800 -3.760400
vt 19.586800 0.239600
vt 19.804001 -4.196000
vt 19.804001 -0.196000
vt 20.160400 -4.543400
vt 20.160400 -0.543400
vt 20.651800 -4.795400
vt 20.651800 -0.795400
vt 21.268600 -4.948400
vt 21.268600 -0.948400
vt 13.783000 -0.948400
vt 13.000000 -1.000000
vt 19.000000 -1.000000
vt 14.552800 -0.795400
vt 15.296200 -0.543400
vt 16.000000 -0.196000
vt 16.652800 0.239600
vt 17.242599 0.757400
vt 17.760401 1.347200
vt 18.195999 2.000000
vt 18.543400 2.703800
vt 18.795401 3.447200
vt 18.948400 4.217000
vt 19.000000 11.000000
vt 13.000000 11.000000
vt 12.217000 10.948400
vt 7.000000 11.000000
vt 11.447200 10.795400
vt 10.703800 10.543400
vt 10.000000 10.196000
vt 9.347200 9.760400
vt 8.757401 9.242599
vt 8.239600 8.652800
vt 7.804000 8.000000
vt 7.456600 7.296200
vt 7.204599 6.552800
vt 7.051600 5.783000
vt 7.000000 -1.000000
vt 8.757401 0.757400
vt 9.347200 0.239600
vt 10.000000 -0.196000
vt 10.703800 -0.543400
vt 11.447200 -0.795400
vt 12.217000 -0.948400
vt 23.000000 -1.000000
vt 23.000000 11.000000
vt 3.000000 11.000000
vt 3.000000 -1.000000
vt 27.000000 7.000000
vt 11.000000 7.000000
vt 11.000000 19.000000
vt 27.000000 19.000000
vt 3.000000 12.000000
vt 3.000000 24.000000
vt 11.000000 24.000000
vt 11.000000 12.000000
vt 28.000000 -1.000000
vt 12.000000 -1.000000
vt 12.000000 7.000000
vt 28.000000 7.000000
vt 24.000000 11.000000
vt 40.000000 11.000000
vt 40.000000 19.000000
vt 24.000000 19.000000
vt 44.000000 11.000000
vt 44.000000 23.000000
vt 40.000000 23.000000
vt 32.000000 11.000000
vt 32.000000 -1.000000
vt 28.000000 11.000000
vt 35.000000 23.000000
vt 35.000000 11.000000
vt 31.000000 11.000000
vt 31.000000 23.000000
vt 31.000000 28.000000
vt 27.000000 28.000000
vt 27.000000 40.000000
vt 31.000000 40.000000
vt 35.000000 44.000000
vt 23.000000 44.000000
vt 19.000000 47.500000
vt 39.000000 47.500000
vt 23.000000 32.000000
vt 19.000000 29.500000
vt 35.000000 32.000000
vt 39.000000 29.500000
vt 21.500000 12.500000
vt 21.500000 7.500000
vt 29.500000 -7.500000
vt 29.500000 12.500000
vt 9.200000 7.500000
vt 10.700000 5.300000
vt 11.500000 1.500000
vt 10.700000 -2.300000
vt 8.500000 -5.500000
vt 5.600000 -7.500000
vt 9.700000 8.000000
vt 11.200000 5.800000
vt 10.000000 2.000000
vt 5.400000 -1.800000
vt 5.400000 -2.300000
vt 0.000000 -5.000000
vt 0.000000 -5.500000
vt -4.900000 -7.000000
vt -4.900000 -7.500000
vt 2.582700 1.608500
vt 5.000000 2.000000
vt 3.000000 7.720000
vt 2.582700 7.328500
vt 2.121300 1.223600
vt 2.121300 6.943600
vt 1.623600 0.851900
vt 1.623600 6.571900
vt 1.098000 0.500000
vt 1.098000 6.220000
vt 0.553800 0.173600
vt 0.553800 5.893600
vt 0.000000 -0.121300
vt 0.000000 5.598700
vt -0.553800 -0.380200
vt -0.553800 5.339800
vt -1.098000 -0.598000
vt -1.098000 5.122000
vt -1.623600 -0.771700
vt -1.623600 4.948300
vt -2.121300 -0.897700
vt -2.121300 4.822300
vt -2.582700 -0.974200
vt -2.582700 4.745800
vt -3.000000 -1.000000
vt -3.000000 4.720000
vt -3.365700 -0.974200
vt -3.365700 4.745800
vt -3.674100 -0.897700
vt -3.674100 4.822300
vt -3.919800 -0.771700
vt -3.919800 4.948300
vt -4.098000 -0.598000
vt -4.098000 5.122000
vt -4.206600 -0.380200
vt -4.206600 5.339800
vt -4.242600 -0.121300
vt 5.598700 5.598700
vt -0.380200 0.173600
vt 5.339800 5.893600
vt -0.598000 0.500000
vt 5.122000 6.220000
vt -0.771700 0.851900
vt 4.948300 6.571900
vt -0.897700 1.223600
vt 4.822300 6.943600
vt -0.974200 1.608500
vt 4.745800 7.328500
vt -1.000000 2.000000
vt -3.000000 7.720000
vt -2.582700 2.391500
vt -2.582700 8.111500
vt -2.121300 2.776400
vt -2.121300 8.496400
vt -1.623600 3.148100
vt -1.623600 8.868100
vt -1.098000 3.500000
vt -1.098000 9.219999
vt -0.553800 3.826400
vt -0.553800 9.546400
vt 0.000000 4.121300
vt 0.000000 9.841300
vt 0.553800 4.380200
vt 0.553800 10.100200
vt 1.098000 4.598000
vt 1.098000 10.318000
vt 1.623600 4.771700
vt 1.623600 10.491700
vt 2.121300 4.897700
vt 2.121300 10.617700
vt 2.582700 4.974200
vt 2.582700 10.694200
vt 3.000000 5.000000
vt 7.720000 10.720000
vt 2.391500 4.974200
vt 8.111500 10.694200
vt 2.776400 4.897700
vt 8.496400 10.617700
vt 3.148100 4.771700
vt 8.868100 10.491700
vt 3.500000 4.598000
vt 9.219999 10.318000
vt 3.826400 4.380200
vt 9.546400 10.100200
vt 4.121300 4.121300
vt 9.841300 9.841300
vt 4.380200 3.826400
vt 10.100200 9.546400
vt 4.598000 3.500000
vt 10.318000 9.219999
vt 4.771700 3.148100
vt 10.491700 8.868100
vt 4.897700 2.776400
vt 10.617700 8.496400
vt 4.974200 2.391500
vt 10.694200 8.111500
vt 2.000000 -7.000000
vt 6.100000 -7.000000
vt 4.121300 -0.121300
vt 3.148100 -0.771700
vt -1.420000 -6.280000
vt 2.000000 -1.000000
vt -4.300000 -4.300000
vt 0.851900 -0.771700
vt -6.280000 -1.420000
vt -0.121300 -0.121300
vt -7.000000 2.000000
vt -6.280000 5.420000
vt -4.300000 8.300000
vt -0.771700 3.148100
vt -1.420000 10.280000
vt -0.121300 4.121300
vt 2.000000 11.000000
vt 0.851900 4.771700
vt 5.420000 10.280000
vt 2.000000 5.000000
vt 8.740000 8.000000
vt 12.000000 2.000000
vt 11.200000 -1.800000
vt 4.771700 0.851900
vt 9.000000 -5.000000
vt 8.544600 15.892800
vt 8.391600 15.123000
vt 8.340000 14.340000
vt 14.340000 14.340000
vt 9.144000 17.340000
vt 8.796600 16.636200
vt 10.097400 18.582600
vt 9.579600 17.992800
vt 11.340000 19.535999
vt 10.687200 19.100401
vt 12.787200 20.135401
vt 12.043800 19.883400
vt 14.340000 20.340000
vt 13.557000 20.288401
vt -5.165400 8.503000
vt -6.000000 7.720000
vt -6.000000 14.340000
vt -5.165400 15.123000
vt -4.242600 9.272800
vt -4.242600 15.892800
vt -3.247200 10.016200
vt -3.247200 16.636200
vt -2.196000 10.720000
vt -2.196000 17.340000
vt -1.107600 11.372800
vt -1.107600 17.992800
vt 0.000000 11.962600
vt 0.000000 18.582600
vt 1.107600 12.480400
vt 1.107600 19.100401
vt 2.196000 12.916000
vt 2.196000 19.535999
vt 3.247200 13.263400
vt 3.247200 19.883400
vt 4.242600 13.515400
vt 4.242600 20.135401
vt 5.165400 13.668400
vt 5.165400 20.288401
vt 7.720000 13.720000
vt -11.000000 1.720000
vt -11.000000 8.340000
vt 16.440001 19.920000
vt 10.020000 13.260000
vt 16.480000 19.790001
vt 15.840000 17.010000
vt 11.270000 12.430000
vt 14.000000 14.400000
vt 8.340000 9.340000
vt 16.440001 9.340000
vt 1.720000 7.720000
vt 1.771600 8.503000
vt 4.745800 8.111500
vt 4.720000 7.720000
vt 1.924600 9.272799
vt 4.822300 8.496400
vt 2.176600 10.016200
vt 4.948300 8.868100
vt 2.524000 10.720000
vt 5.122000 9.219999
vt 2.959600 11.372800
vt 5.339800 9.546400
vt 3.477400 11.962600
vt 5.598700 9.841300
vt 4.067200 12.480400
vt 5.893600 10.100200
vt 4.720000 12.916000
vt 6.220000 10.318000
vt 5.423800 13.263400
vt 6.571900 10.491700
vt 6.167200 13.515400
vt 6.943600 10.617700
vt 6.937000 13.668400
vt 7.328500 10.694200
vt 10.720000 10.720000
vt 10.720000 7.720000
vt 10.491700 6.571900
vt 10.720000 4.720000
vt 9.841300 5.598700
vt 8.868100 4.948300
vt 7.720000 4.720000
vt 6.571900 4.948300
vt 4.720000 4.720000
vt 1.720000 2.720000
vt 11.270000 2.720000
vt -4.703800 10.543400
vt -2.900000 9.340000
vt -11.000000 9.340000
vt -7.000000 11.000000
vt -9.296200 10.543400
vt -11.242600 9.242600
vt -12.543400 7.296200
vt -12.193700 7.819400
vt -13.000000 5.000000
vt -11.000000 2.720000
vt -12.543400 2.703800
vt -12.193700 2.180600
vt -9.296200 -0.543400
vt -7.000000 -1.000000
vt -4.703800 -0.543400
vt -2.757400 0.757400
vt -1.450000 2.720000
vt -5.456600 3.296200
vt 14.000000 1.000000
vt 8.400000 14.400000
vt 8.250000 17.010000
vt -6.757400 5.242600
vt 7.790000 19.790001
vt 7.680000 19.920000
vt -8.703800 6.543400
vt -9.000000 6.602300
vt -10.578900 7.421100
vt 14.000000 11.000000
vt 12.297600 7.437600
vt 11.247200 10.543400
vt 11.247200 7.865800
vt 8.000000 7.903100
vt 8.000000 9.242600
vt 7.856700 7.856700
vt 5.625700 7.819400
vt 4.752800 7.804800
vt 4.752800 7.296200
vt 2.000000 6.172700
vt -12.034800 3.212400
vt -12.600000 -0.456700
vt -0.485200 0.757400
vt -0.485200 -0.582100
vt 0.160400 -3.221000
vt 0.160400 -0.543400
vt 0.862400 -3.997600
vt 2.000000 -4.578899
vt 4.752800 -0.543400
vt 4.397700 -4.602300
vt 4.752800 -4.543400
vt 8.000000 0.757400
vt 8.000000 -3.242600
vt 11.247200 -1.296200
vt 9.749999 14.610000
vt 0.160400 3.212400
vt -0.013100 2.180600
vt 11.810000 11.810000
vt -0.456700 -0.456700
vt -9.000000 2.000000
vt 9.000000 18.000000
vt -4.860000 5.420000
vt -4.860000 21.450001
vt 0.000000 8.300000
vt 0.000000 24.410000
vt 18.360001 9.360001
vt 15.602300 6.602300
vt 14.000000 7.421100
vt 14.810000 9.950000
vt 2.000000 -4.578900
vt 0.862400 -3.997600
vt 0.160400 -3.221000
vt 15.000000 -5.000000
vt 9.783001 -4.948400
vt 10.552800 -4.795400
vt 11.296200 -4.543400
vt 12.000000 -4.196000
vt 12.652800 -3.760400
vt 13.242600 -3.242600
vt 13.760400 -2.652800
vt 14.196000 -2.000000
vt 14.543400 -1.296200
vt 14.795400 -0.552800
vt 14.948400 0.217000
vt 15.000000 1.000000
vt 15.000000 7.000000
vt 3.000000 7.000000
vt 8.216999 6.948400
vt 7.447201 6.795401
vt 6.703800 6.543400
vt 6.000000 6.196000
vt 5.347200 5.760400
vt 4.757401 5.242599
vt 4.239600 4.652800
vt 3.804000 4.000000
vt 3.456600 3.296200
vt 3.204599 2.552800
vt 3.051600 1.783000
vt 3.000000 1.000000
vt 3.000000 -5.000000
vt 5.347200 -3.760400
vt 6.000000 -4.196000
vt 6.703800 -4.543400
vt 7.447201 -4.795400
vt 8.216999 -4.948400
vt -5.456600 -1.296200
vt -5.000000 1.000000
vt -6.757400 -3.242600
vt -8.703800 -4.543400
vt -6.757400 5.242599
vt 19.000000 10.500000
vt 19.000000 -7.500000
vt -11.242600 0.757400
vt 47.500000 30.500000
vt 47.500000 10.500000
vt 39.180000 25.180000
vt 39.180000 30.180000
vt 25.379999 24.639999
vt 18.360001 18.360001
vt 9.750001 14.610000
vt 9.750001 21.450001
vt 11.810000 24.410000
vt 14.810000 26.510000
vt 18.360001 27.360001
vt 21.920000 26.780001
vt 31.000000 21.500000
vt 31.000000 39.180000
vt 26.000000 39.180000
vt 26.000000 21.500000
vt 39.000000 12.500000
vt 39.000000 30.500000
vt 31.000000 30.180000
vt 31.000000 12.500000
vt 13.700000 7.500000
vt 26.000000 7.500000
vt 26.000000 25.180000
vt 13.700000 24.680000
vt 12.740000 8.000000
vt 13.700000 8.000000
vt 12.740000 24.639999
vt 11.700000 26.780001
vt 11.700000 10.280000
vt 9.000000 27.360001
vt 9.000000 11.000000
vt 4.860000 10.280000
vt 4.860000 26.510000
s 1
usemtl 15.002
f 1/1/1 2/2/2 3/3/3
f 3/3/3 4/4/4 1/1/1
f 5/5/5 1/1/1 4/4/4
f 4/4/4 6/6/6 5/5/5
f 7/7/7 5/5/5 6/6/6
f 6/6/6 8/8/8 7/7/7
f 9/9/9 7/7/7 8/8/8
f 8/8/8 10/10/10 9/9/9
f 11/11/11 9/9/9 10/10/10
f 10/10/10 12/12/12 11/11/11
f 13/13/13 11/11/11 12/12/12
f 12/12/12 14/14/14 13/13/13
f 15/15/15 13/13/13 14/14/14
f 14/14/14 16/16/16 15/15/15
f 17/17/17 15/15/15 16/16/16
f 16/16/16 18/18/18 17/17/17
f 19/19/19 17/17/17 18/18/18
f 18/18/18 20/20/20 19/19/19
f 21/21/21 19/19/19 20/20/20
f 20/20/20 22/22/22 21/21/21
f 23/23/23 21/21/21 22/22/22
f 22/22/22 24/24/24 23/23/23
f 25/25/25 23/23/23 24/24/24
f 24/24/24 26/26/26 25/25/25
f 27/27/27 25/25/25 26/26/26
f 26/26/26 28/28/28 27/27/27
f 29/29/29 27/27/27 28/28/28
f 28/28/28 30/30/30 29/29/29
f 31/31/31 29/29/29 30/30/30
f 30/30/30 32/32/32 31/31/31
f 33/33/33 31/31/31 32/32/32
f 32/32/32 34/34/34 33/33/33
f 35/35/35 33/33/33 34/34/34
f 34/34/34 36/36/36 35/35/35
f 37/37/37 35/35/35 36/36/36
f 36/36/36 38/38/38 37/37/37
f 39/39/39 37/37/37 38/38/38
f 38/38/38 40/40/40 39/39/39
f 41/41/41 39/39/39 40/40/40
f 40/40/40 42/42/42 41/41/41
f 43/43/43 41/41/41 42/42/42
f 42/42/42 44/44/44 43/43/43
f 45/45/45 43/43/43 44/44/44
f 44/44/44 46/46/46 45/45/45
f 47/47/47 45/45/45 46/46/46
f 46/46/46 48/48/48 47/47/47
f 49/49/49 47/47/47 48/48/48
f 48/48/48 50/50/50 49/49/49
f 51/51/51 49/49/49 50/50/50
f 50/50/50 52/52/52 51/51/51
f 53/53/53 51/51/51 52/52/52
f 52/52/52 54/54/54 53/53/53
f 55/55/55 53/53/53 54/54/54
f 54/54/54 56/56/56 55/55/55
f 57/57/57 55/55/55 56/56/56
f 56/56/56 58/58/58 57/57/57
f 59/59/59 57/57/57 58/58/58
f 58/58/58 60/60/60 59/59/59
f 61/61/61 59/59/59 60/60/60
f 60/60/60 62/62/62 61/61/61
f 63/63/63 61/61/61 62/62/62
f 62/62/62 64/64/64 63/63/63
f 65/65/65 63/63/63 64/64/64
f 64/64/64 66/66/66 65/65/65
f 67/67/67 65/65/65 66/66/66
f 66/66/66 68/68/68 67/67/67
f 69/69/69 67/67/67 68/68/68
f 68/68/68 70/70/70 69/69/69
f 71/71/71 69/69/69 70/70/70
f 70/70/70 72/72/72 71/71/71
f 73/73/73 71/71/71 72/72/72
f 72/72/72 74/74/74 73/73/73
f 75/75/75 73/73/73 74/74/74
f 74/74/74 76/76/76 75/75/75
f 77/77/77 75/75/75 76/76/76
f 76/76/76 78/78/78 77/77/77
f 79/79/79 77/77/77 78/78/78
f 78/78/78 80/80/80 79/79/79
f 81/81/81 79/79/79 80/80/80
f 80/80/80 82/82/82 81/81/81
f 83/83/83 81/81/81 82/82/82
f 82/82/82 84/84/84 83/83/83
f 85/85/85 83/83/83 84/84/84
f 84/84/84 86/86/86 85/85/85
f 87/87/87 85/85/85 86/86/86
f 86/86/86 88/88/88 87/87/87
f 89/89/89 87/87/87 88/88/88
f 88/88/88 90/90/90 89/89/89
f 91/91/91 89/89/89 90/90/90
f 90/90/90 92/92/92 91/91/91
f 93/93/93 91/91/91 92/92/92
f 92/92/92 94/94/94 93/93/93
f 95/95/95 93/93/93 94/94/94
f 94/94/94 96/96/96 95/95/95
f 2/2/2 95/95/95 96/96/96
f 96/96/96 3/3/3 2/2/2
f 99/97/97 98/98/97 97/99/97
f 100/100/97 99/97/97 97/99/97
f 101/101/97 100/100/97 97/99/97
f 102/102/97 101/101/97 97/99/97
f 103/103/97 102/102/97 97/99/97
f 104/104/97 103/103/97 97/99/97
f 105/105/97 104/104/97 97/99/97
f 106/106/97 105/105/97 97/99/97
f 107/107/97 106/106/97 97/99/97
f 108/108/97 107/107/97 97/99/97
f 109/109/97 108/108/97 97/99/97
f 110/26/97 109/109/97 97/99/97
f 112/28/97 110/26/97 111/110/97
f 113/30/97 112/28/97 111/110/97
f 114/32/97 113/30/97 111/110/97
f 115/34/97 114/32/97 111/110/97
f 116/36/97 115/34/97 111/110/97
f 117/38/97 116/36/97 111/110/97
f 118/40/97 117/38/97 111/110/97
f 119/42/97 118/40/97 111/110/97
f 120/44/97 119/42/97 111/110/97
f 121/46/97 120/44/97 111/110/97
f 122/48/97 121/46/97 111/110/97
f 123/111/97 122/48/97 111/110/97
f 125/112/97 123/111/97 124/113/97
f 126/114/97 125/112/97 124/113/97
f 127/115/97 126/114/97 124/113/97
f 128/116/97 127/115/97 124/113/97
f 129/117/97 128/116/97 124/113/97
f 130/118/97 129/117/97 124/113/97
f 131/119/97 130/118/97 124/113/97
f 132/120/97 131/119/97 124/113/97
f 133/121/97 132/120/97 124/113/97
f 134/122/97 133/121/97 124/113/97
f 135/123/97 134/122/97 124/113/97
f 136/74/97 135/123/97 124/113/97
f 138/76/97 136/74/97 137/124/97
f 139/78/97 138/76/97 137/124/97
f 140/80/97 139/78/97 137/124/97
f 141/82/97 140/80/97 137/124/97
f 142/84/97 141/82/97 137/124/97
f 143/125/97 142/84/97 137/124/97
f 144/126/97 143/125/97 137/124/97
f 145/127/97 144/126/97 137/124/97
f 146/128/97 145/127/97 137/124/97
f 147/129/97 146/128/97 137/124/97
f 148/130/97 147/129/97 137/124/97
f 98/98/97 148/130/97 137/124/97
f 149/131/97 150/132/97 111/110/97
f 111/110/97 110/26/97 149/131/97
f 149/131/97 110/26/97 97/99/97
f 136/74/97 124/113/97 151/133/97
f 151/133/97 152/134/97 136/74/97
f 137/124/97 136/74/97 152/134/97
f 155/135/98 154/136/98 153/137/98
f 153/137/98 156/138/98 155/135/98
f 159/139/99 158/140/99 157/141/99
f 157/141/99 160/142/99 159/139/99
f 163/143/100 162/144/100 161/145/100
f 161/145/100 164/146/100 163/143/100
f 167/147/101 166/148/101 165/149/101
f 165/149/101 168/150/101 167/147/101
f 165/149/101 166/148/101 169/151/101
f 169/151/101 170/152/101 165/149/101
f 170/152/101 171/153/101 165/149/101
f 172/154/100 173/155/100 163/143/100
f 163/143/100 164/146/100 172/154/100
f 164/146/100 174/156/100 172/154/100
f 177/157/98 176/158/98 175/159/98
f 175/159/98 178/160/98 177/157/98
f 181/161/99 180/162/99 179/163/99
f 179/163/99 182/164/99 181/161/99
f 183/165/99 184/166/99 185/167/99
f 185/167/99 186/168/99 183/165/99
f 184/166/99 187/169/99 188/170/99
f 188/170/99 185/167/99 184/166/99
f 187/169/99 189/171/99 190/172/99
f 190/172/99 188/170/99 187/169/99
f 189/171/99 183/165/99 186/168/99
f 186/168/99 190/172/99 189/171/99
f 191/173/101 192/174/101 193/175/101
f 193/175/101 194/176/101 191/173/101
f 195/177/101 196/178/101 192/174/101
f 196/178/101 197/179/101 193/175/101
f 193/175/101 192/174/101 196/178/101
f 197/179/101 198/180/101 193/175/101
f 198/180/101 199/181/101 193/175/101
f 199/181/101 200/182/101 193/175/101
f 201/183/102 202/184/103 203/178/104
f 203/178/104 204/177/102 201/183/102
f 202/184/103 205/185/105 206/179/106
f 206/179/106 203/178/104 202/184/103
f 205/185/105 207/186/107 208/187/108
f 208/187/108 206/179/106 205/185/105
f 207/186/107 209/188/109 210/189/110
f 210/189/110 208/187/108 207/186/107
f 209/188/109 211/190/111 212/191/111
f 212/191/111 210/189/110 209/188/109
f 213/192/112 214/193/113 215/194/114
f 215/194/114 216/195/115 213/192/112
f 217/196/116 213/192/112 216/195/115
f 216/195/115 218/197/117 217/196/116
f 219/198/118 217/196/116 218/197/117
f 218/197/117 220/199/119 219/198/118
f 221/200/120 219/198/118 220/199/119
f 220/199/119 222/201/121 221/200/120
f 223/202/122 221/200/120 222/201/121
f 222/201/121 224/203/123 223/202/122
f 225/204/124 223/202/122 224/203/123
f 224/203/123 226/205/125 225/204/124
f 227/206/126 225/204/124 226/205/125
f 226/205/125 228/207/127 227/206/126
f 229/208/128 227/206/126 228/207/127
f 228/207/127 230/209/129 229/208/128
f 231/210/130 229/208/128 230/209/129
f 230/209/129 232/211/131 231/210/130
f 233/212/132 231/210/130 232/211/131
f 232/211/131 234/213/133 233/212/132
f 235/214/134 233/212/132 234/213/133
f 234/213/133 236/215/135 235/214/134
f 237/216/136 235/214/134 236/215/135
f 236/215/135 238/217/137 237/216/136
f 239/218/138 237/216/136 238/217/137
f 238/217/137 240/219/139 239/218/138
f 241/220/140 239/218/138 240/219/139
f 240/219/139 242/221/141 241/220/140
f 243/222/142 241/220/140 242/221/141
f 242/221/141 244/223/143 243/222/142
f 245/224/144 243/222/142 244/223/143
f 244/223/143 246/225/145 245/224/144
f 247/226/146 245/224/144 246/225/145
f 246/225/145 248/227/147 247/226/146
f 249/228/148 247/226/146 248/227/147
f 248/227/147 250/229/149 249/228/148
f 251/230/150 249/228/148 250/229/149
f 250/229/149 252/231/151 251/230/150
f 253/232/152 251/230/150 252/231/151
f 252/231/151 254/233/153 253/232/152
f 255/234/154 253/232/152 254/233/153
f 254/233/153 256/235/155 255/234/154
f 257/236/156 255/234/154 256/235/155
f 256/235/155 258/237/157 257/236/156
f 259/238/158 257/236/156 258/237/157
f 258/237/157 260/239/159 259/238/158
f 261/240/160 259/238/158 260/239/159
f 260/239/159 262/241/161 261/240/160
f 263/242/162 261/240/160 262/241/161
f 262/241/161 264/243/163 263/242/162
f 265/244/164 263/242/162 264/243/163
f 264/243/163 266/245/165 265/244/164
f 267/246/166 265/244/164 266/245/165
f 266/245/165 268/247/167 267/246/166
f 269/248/168 267/246/166 268/247/167
f 268/247/167 270/249/169 269/248/168
f 271/250/170 269/248/168 270/249/169
f 270/249/169 272/251/171 271/250/170
f 273/252/172 271/250/170 272/251/171
f 272/251/171 274/253/173 273/252/172
f 275/254/174 273/252/172 274/253/173
f 274/253/173 276/255/175 275/254/174
f 277/256/176 275/254/174 276/255/175
f 276/255/175 278/257/177 277/256/176
f 279/258/178 277/256/176 278/257/177
f 278/257/177 280/259/179 279/258/178
f 281/260/180 279/258/178 280/259/179
f 280/259/179 282/261/181 281/260/180
f 283/262/182 281/260/180 282/261/181
f 282/261/181 284/263/183 283/262/182
f 285/264/184 283/262/182 284/263/183
f 284/263/183 286/265/185 285/264/184
f 287/266/186 285/264/184 286/265/185
f 286/265/185 288/267/187 287/266/186
f 289/268/188 287/266/186 288/267/187
f 288/267/187 290/269/189 289/268/188
f 291/270/190 289/268/188 290/269/189
f 290/269/189 292/271/191 291/270/190
f 293/272/192 291/270/190 292/271/191
f 292/271/191 294/273/193 293/272/192
f 295/274/194 293/272/192 294/273/193
f 294/273/193 296/275/195 295/274/194
f 297/276/196 295/274/194 296/275/195
f 296/275/195 298/277/197 297/276/196
f 299/278/198 297/276/196 298/277/197
f 298/277/197 300/279/199 299/278/198
f 301/280/200 299/278/198 300/279/199
f 300/279/199 302/281/201 301/280/200
f 303/282/202 301/280/200 302/281/201
f 302/281/201 304/283/203 303/282/202
f 305/284/204 303/282/202 304/283/203
f 304/283/203 306/285/205 305/284/204
f 307/286/206 305/284/204 306/285/205
f 306/285/205 308/287/207 307/286/206
f 214/193/113 307/286/206 308/287/207
f 308/287/207 215/194/114 214/193/113
f 309/288/101 310/289/101 311/290/101
f 311/290/101 312/291/101 309/288/101
f 313/292/101 309/288/101 312/291/101
f 312/291/101 314/293/101 313/292/101
f 315/294/101 313/292/101 314/293/101
f 314/293/101 316/295/101 315/294/101
f 317/296/101 315/294/101 316/295/101
f 316/295/101 318/297/101 317/296/101
f 319/298/101 317/296/101 318/297/101
f 318/297/101 320/234/101 319/298/101
f 321/299/101 319/298/101 320/234/101
f 320/234/101 322/240/101 321/299/101
f 323/300/101 321/299/101 322/240/101
f 322/240/101 324/301/101 323/300/101
f 325/302/101 323/300/101 324/301/101
f 324/301/101 326/303/101 325/302/101
f 327/304/101 325/302/101 326/303/101
f 326/303/101 328/305/101 327/304/101
f 329/306/101 327/304/101 328/305/101
f 328/305/101 330/307/101 329/306/101
f 331/308/101 329/306/101 330/307/101
f 330/307/101 332/270/101 331/308/101
f 333/183/101 331/308/101 332/270/101
f 332/270/101 334/276/101 333/183/101
f 335/184/101 333/183/101 334/276/101
f 334/276/101 336/282/101 335/184/101
f 337/309/101 335/184/101 336/282/101
f 336/282/101 338/193/101 337/309/101
f 339/310/101 337/309/101 338/193/101
f 338/193/101 340/311/101 339/310/101
f 341/312/101 339/310/101 340/311/101
f 340/311/101 311/290/101 341/312/101
f 341/312/101 311/290/101 310/289/101
f 342/313/101 343/314/101 344/315/101
f 344/315/101 345/316/101 342/313/101
f 346/317/101 347/318/101 342/313/101
f 342/313/101 345/316/101 346/317/101
f 348/319/101 349/320/101 346/317/101
f 346/317/101 345/316/101 348/319/101
f 350/321/101 351/322/101 348/319/101
f 348/319/101 345/316/101 350/321/101
f 352/323/101 353/324/101 350/321/101
f 350/321/101 345/316/101 352/323/101
f 354/325/101 355/326/101 352/323/101
f 352/323/101 345/316/101 354/325/101
f 356/327/162 357/328/208 358/329/208
f 358/329/208 359/330/163 356/327/162
f 360/331/209 356/327/162 359/330/163
f 359/330/163 361/332/165 360/331/209
f 362/333/210 360/331/209 361/332/165
f 361/332/165 363/334/211 362/333/210
f 364/335/168 362/333/210 363/334/211
f 363/334/211 365/336/169 364/335/168
f 366/337/170 364/335/168 365/336/169
f 365/336/169 367/338/171 366/337/170
f 368/339/212 366/337/170 367/338/171
f 367/338/171 369/340/173 368/339/212
f 370/341/174 368/339/212 369/340/173
f 369/340/173 371/342/175 370/341/174
f 372/343/176 370/341/174 371/342/175
f 371/342/175 373/344/177 372/343/176
f 374/345/213 372/343/176 373/344/177
f 373/344/177 375/346/179 374/345/213
f 376/347/180 374/345/213 375/346/179
f 375/346/179 377/348/181 376/347/180
f 378/349/182 376/347/180 377/348/181
f 377/348/181 379/350/183 378/349/182
f 380/351/214 378/349/182 379/350/183
f 379/350/183 381/325/215 380/351/214
f 358/329/208 357/328/208 382/352/99
f 382/352/99 383/353/99 358/329/208
f 381/325/215 384/354/216 385/355/217
f 385/355/217 380/351/214 381/325/215
f 384/354/216 386/356/218 385/355/217
f 385/355/217 386/356/218 387/357/219
f 388/358/220 385/355/217 387/357/219
f 387/357/219 389/359/221 388/358/220
f 345/316/101 344/315/101 390/360/101
f 390/360/101 391/361/101 345/316/101
f 345/316/101 391/361/101 392/354/101
f 392/354/101 354/325/101 345/316/101
f 395/362/100 394/363/100 393/364/100
f 393/364/100 396/365/100 395/362/100
f 394/363/100 398/366/100 397/367/100
f 397/367/100 393/364/100 394/363/100
f 398/366/100 400/368/100 399/369/100
f 399/369/100 397/367/100 398/366/100
f 400/368/100 402/370/100 401/371/100
f 401/371/100 399/369/100 400/368/100
f 402/370/100 404/372/100 403/373/100
f 403/373/100 401/371/100 402/370/100
f 404/372/100 406/374/100 405/375/100
f 405/375/100 403/373/100 404/372/100
f 406/374/100 408/376/100 407/377/100
f 407/377/100 405/375/100 406/374/100
f 408/376/100 410/378/100 409/379/100
f 409/379/100 407/377/100 408/376/100
f 410/378/100 412/380/100 411/381/100
f 411/381/100 409/379/100 410/378/100
f 412/380/100 414/382/100 413/383/100
f 413/383/100 411/381/100 412/380/100
f 414/382/100 416/384/100 415/385/100
f 415/385/100 413/383/100 414/382/100
f 416/384/100 418/351/100 417/265/100
f 417/265/100 415/385/100 416/384/100
f 420/271/100 417/265/100 419/386/100
f 421/277/100 420/271/100 419/386/100
f 422/283/100 421/277/100 419/386/100
f 423/387/100 422/283/100 419/386/100
f 425/388/100 423/387/100 424/389/100
f 426/390/100 425/388/100 424/389/100
f 427/391/100 426/390/100 424/389/100
f 428/392/100 427/391/100 424/389/100
f 430/393/100 428/392/100 429/394/100
f 431/229/100 430/393/100 429/394/100
f 432/235/100 431/229/100 429/394/100
f 396/365/100 432/235/100 429/394/100
f 395/362/100 396/365/100 429/394/100
f 429/394/100 433/395/100 395/362/100
f 424/389/100 434/396/100 433/395/100
f 433/395/100 428/392/100 424/389/100
f 419/386/100 435/358/100 434/396/100
f 434/396/100 423/387/100 419/386/100
f 418/351/100 436/355/100 419/386/100
f 419/386/100 417/265/100 418/351/100
f 435/358/100 419/386/100 436/355/100
f 437/397/98 438/398/98 439/399/98
f 439/399/98 440/400/98 437/397/98
f 441/401/98 440/400/98 439/399/98
f 439/399/98 442/402/98 441/401/98
f 443/403/98 444/404/98 439/399/98
f 439/399/98 445/405/98 443/403/98
f 445/405/98 439/399/98 446/406/98
f 446/406/98 447/407/98 445/405/98
f 448/408/98 447/407/98 446/406/98
f 446/406/98 449/409/98 448/408/98
f 450/410/98 449/409/98 446/406/98
f 446/406/98 451/411/98 450/410/98
f 452/412/98 451/411/98 446/406/98
f 446/406/98 453/413/98 452/412/98
f 454/414/222 455/415/223 456/416/224
f 456/416/224 457/417/225 454/414/222
f 458/418/226 454/414/222 457/417/225
f 457/417/225 459/419/227 458/418/226
f 458/418/226 459/419/227 460/420/228
f 460/420/228 461/398/229 458/418/226
f 461/398/229 462/397/230 463/421/231
f 463/421/231 458/418/226 461/398/229
f 464/422/232 463/421/231 462/397/230
f 465/423/233 464/422/232 462/397/230
f 462/397/230 466/424/234 465/423/233
f 467/425/235 465/423/233 466/424/234
f 466/424/234 468/426/236 467/425/235
f 469/427/237 467/425/235 468/426/236
f 470/428/238 469/427/237 468/426/236
f 468/426/236 471/429/239 470/428/238
f 472/430/240 470/428/238 471/429/239
f 471/429/239 473/431/241 472/430/240
f 474/432/242 475/431/243 476/433/244
f 476/433/244 477/405/245 478/434/246
f 478/434/246 474/432/242 476/433/244
f 477/405/245 479/407/247 480/435/248
f 480/435/248 478/434/246 477/405/245
f 481/408/249 480/435/248 479/407/247
f 482/436/250 483/408/251 484/437/252
f 484/437/252 485/438/253 482/436/250
f 486/439/254 485/438/253 484/437/252
f 484/437/252 487/440/255 486/439/254
f 488/441/256 486/439/254 487/440/255
f 487/440/255 489/293/257 488/441/256
f 490/442/258 488/441/256 489/293/257
f 490/442/258 489/293/257 491/443/259
f 491/443/259 492/444/260 490/442/258
f 493/445/261 492/444/260 491/443/259
f 493/445/261 491/443/259 494/446/262
f 494/446/262 495/447/263 493/445/261
f 495/447/263 494/446/262 496/396/264
f 496/396/264 497/448/265 495/447/263
f 497/448/265 496/396/264 455/415/223
f 496/396/264 498/358/266 456/416/224
f 456/416/224 455/415/223 496/396/264
f 499/434/267 500/296/268 501/449/269
f 501/449/269 502/432/270 499/434/267
f 500/296/268 499/434/267 503/450/270
f 500/296/268 503/450/270 504/451/271
f 501/449/269 505/431/271 502/432/270
f 506/452/272 507/430/273 505/431/271
f 505/431/271 501/449/269 506/452/272
f 504/451/271 508/453/273 509/294/274
f 509/294/274 500/296/268 504/451/271
f 500/296/268 510/454/275 511/455/276
f 511/455/276 501/449/269 500/296/268
f 510/454/275 512/456/277 513/457/278
f 513/457/278 511/455/276 510/454/275
f 512/456/277 514/458/279 515/459/280
f 515/459/280 513/457/278 512/456/277
f 516/460/281 517/461/282 518/462/283
f 518/462/283 519/463/284 516/460/281
f 520/425/285 519/463/284 518/462/283
f 521/427/286 519/463/284 520/425/285
f 519/463/284 521/427/286 522/428/287
f 522/428/287 506/452/272 519/463/284
f 507/430/273 506/452/272 522/428/287
f 523/292/288 524/464/289 525/444/290
f 525/444/290 526/288/291 523/292/288
f 527/465/285 524/464/289 523/292/288
f 528/466/292 527/465/285 523/292/288
f 509/294/274 529/438/293 528/466/292
f 528/466/292 523/292/288 509/294/274
f 508/453/273 529/438/293 509/294/274
f 530/467/98 531/312/98 532/468/98
f 530/467/98 532/468/98 533/469/98
f 530/467/98 533/469/98 534/470/98
f 530/467/98 534/470/98 535/471/98
f 530/467/98 535/471/98 536/472/98
f 530/467/98 536/472/98 537/473/98
f 530/467/98 537/473/98 538/474/98
f 530/467/98 538/474/98 539/475/98
f 530/467/98 539/475/98 540/476/98
f 530/467/98 540/476/98 541/477/98
f 530/467/98 541/477/98 542/478/98
f 530/467/98 542/478/98 543/479/98
f 544/480/98 543/479/98 545/27/98
f 544/480/98 545/27/98 546/29/98
f 544/480/98 546/29/98 547/31/98
f 544/480/98 547/31/98 548/33/98
f 544/480/98 548/33/98 549/35/98
f 544/480/98 549/35/98 550/37/98
f 544/480/98 550/37/98 551/39/98
f 544/480/98 551/39/98 552/41/98
f 544/480/98 552/41/98 553/43/98
f 544/480/98 553/43/98 554/45/98
f 544/480/98 554/45/98 555/47/98
f 544/480/98 555/47/98 556/49/98
f 557/481/98 556/49/98 558/482/98
f 557/481/98 558/482/98 559/483/98
f 557/481/98 559/483/98 560/484/98
f 557/481/98 560/484/98 561/485/98
f 557/481/98 561/485/98 562/486/98
f 557/481/98 562/486/98 563/487/98
f 557/481/98 563/487/98 564/488/98
f 557/481/98 564/488/98 565/489/98
f 557/481/98 565/489/98 566/490/98
f 557/481/98 566/490/98 567/491/98
f 557/481/98 567/491/98 568/492/98
f 557/481/98 568/492/98 569/493/98
f 570/494/98 569/493/98 571/75/98
f 570/494/98 571/75/98 572/77/98
f 570/494/98 572/77/98 573/79/98
f 570/494/98 573/79/98 574/81/98
f 570/494/98 574/81/98 575/83/98
f 570/494/98 575/83/98 576/85/98
f 570/494/98 576/85/98 577/495/98
f 570/494/98 577/495/98 578/496/98
f 570/494/98 578/496/98 579/497/98
f 570/494/98 579/497/98 580/498/98
f 570/494/98 580/498/98 581/499/98
f 570/494/98 581/499/98 531/312/98
f 582/190/98 583/500/98 584/501/98
f 584/501/98 569/493/98 582/190/98
f 526/288/291 585/502/98 583/500/98
f 583/500/98 582/190/98 526/288/291
f 586/503/98 585/502/98 526/288/291
f 525/444/290 586/503/98 526/288/291
f 516/460/281 587/421/98 517/461/282
f 516/460/281 588/504/98 587/421/98
f 557/481/98 589/414/98 588/504/98
f 588/504/98 516/460/281 557/481/98
f 584/501/98 589/414/98 557/481/98
f 557/481/98 569/493/98 584/501/98
f 543/479/98 544/480/98 590/505/98
f 590/505/98 591/506/98 543/479/98
f 543/479/98 591/506/98 530/467/98
f 591/506/98 531/312/98 530/467/98
f 592/191/98 570/494/98 531/312/98
f 531/312/98 591/506/98 592/191/98
f 582/190/98 569/493/98 570/494/98
f 570/494/98 592/191/98 582/190/98
f 556/49/98 557/481/98 516/460/281
f 516/460/281 590/505/98 556/49/98
f 556/49/98 590/505/98 544/480/98
f 444/404/98 442/402/98 439/399/98
f 593/507/98 448/408/98 449/409/98
f 433/395/100 429/394/100 428/392/100
f 434/396/100 424/389/100 423/387/100
f 594/508/294 595/509/295 596/510/296
f 596/510/296 597/511/294 594/508/294
f 596/510/296 595/509/295 598/460/295
f 598/460/295 599/512/297 596/510/296
f 598/460/295 600/513/298 599/512/297
f 600/513/298 598/460/295 601/463/299
f 601/463/299 602/452/300 600/513/298
f 600/513/298 602/452/300 603/514/301
f 603/514/301 604/455/294 600/513/298
f 600/513/298 604/455/294 605/515/302
f 605/515/302 606/516/303 600/513/298
f 600/513/298 606/516/303 607/517/304
f 607/517/304 608/518/305 600/513/298
f 600/513/298 608/518/305 609/519/306
f 609/519/306 599/512/297 600/513/298
f 612/520/307 611/521/307 610/522/307
f 610/522/307 613/523/307 612/520/307
f 616/524/97 615/525/97 614/526/97
f 614/526/97 617/527/97 616/524/97
f 620/528/97 619/529/97 618/530/97
f 618/530/97 621/531/97 620/528/97
f 623/532/97 622/533/97 621/531/97
f 621/531/97 624/534/97 623/532/97
f 627/532/308 626/534/308 625/535/309
f 625/535/309 628/536/310 627/532/308
f 628/536/310 625/535/309 629/537/311
f 629/537/311 630/538/97 628/536/310
f 631/539/312 630/538/97 629/537/311
f 629/537/311 632/540/313 631/539/312
f 631/539/312 632/540/313 515/459/280
f 515/459/280 514/458/279 631/539/312
