mtllib minifig_hips_white.mtl
v -17.19735 29.19359 -9.778798
v -17.06697 24.11658 -12.97364
v 18.82366 23.34233 -10.27864
v 18.69329 28.41934 -7.083797
v -1.318191 21.8084 -9.641856
v -1.395451 22.14437 -8.516418
v 2.592397 22.05834 -8.216973
v 2.669657 21.72237 -9.342412
v -1.247989 21.32854 -10.71462
v 2.739859 21.24251 -10.41518
v -1.186063 20.71271 -11.71625
v 2.801785 20.62668 -11.41681
v -1.133561 19.97054 -12.62867
v 2.854287 19.88451 -12.32922
v -1.091245 19.11637 -13.43761
v 2.896604 19.03034 -13.13816
v -1.060005 18.16296 -14.12754
v 2.927843 18.07693 -13.8281
v -1.04019 17.12822 -14.6887
v 2.947658 17.0422 -14.38925
v -1.032337 16.02871 -15.10916
v 2.955511 15.94268 -14.80972
v -1.036385 14.88397 -15.38414
v 2.951463 14.79794 -15.08469
v -1.052429 13.71306 -15.50687
v 2.935419 13.62703 -15.20742
v -1.080094 12.53648 -15.47645
v 2.907754 12.45045 -15.177
v -1.118884 11.37434 -15.29374
v 2.868963 11.28831 -14.99429
v -1.168241 10.24654 -14.96045
v 2.819607 10.16051 -14.661
v -1.227235 9.171775 -14.48356
v 2.760613 9.085747 -14.18412
v -1.294879 8.168554 -13.87093
v 2.692969 8.082526 -13.57148
v 17.19735 17.76969 9.778802
v 17.32772 12.69268 6.583963
v -18.56291 13.46694 3.888962
v -18.69329 18.54394 7.083801
v -18.69329 18.54394 7.083801
v -17.19735 29.19359 -9.778798
v 18.69329 28.41934 -7.083797
v 17.19735 17.76969 9.778802
v -13.86789 20.57623 4.051151
v -14.10691 29.88408 9.908356
v -7.207932 29.73525 10.42639
v -6.968914 20.4274 4.56919
v -4.246645 21.72528 2.617787
v -4.485665 31.03313 8.474992
v -3.96807 34.7179 2.640532
v -3.72905 25.41006 -3.216672
v -13.20935 36.27386 -0.2092039
v -12.97033 26.96602 -6.066409
v -6.07135 26.81719 -5.548369
v -6.310369 36.12503 0.3088352
v -15.69259 25.66814 -4.115006
v -15.77951 29.05281 -1.985113
v -16.29711 25.36804 3.849346
v -16.21019 21.98336 1.719453
v -12.97055 22.26598 1.402543
v -13.20956 31.57383 7.259748
v -12.7907 34.55573 2.53822
v -12.55168 25.24788 -3.318984
v -14.10092 26.17858 -4.861209
v -12.97033 26.96602 -6.066409
v -13.20935 36.27386 -0.2092039
v -14.33994 35.48643 0.9959953
v -6.07135 26.81719 -5.548369
v -5.16814 25.98588 -4.190454
v -5.407159 35.29373 1.666751
v -6.310369 36.12503 0.3088352
v -3.72905 25.41006 -3.216672
v -3.96807 34.7179 2.640532
v -4.246645 21.72528 2.617787
v -5.838321 21.21484 3.363991
v -6.07734 30.52269 9.221195
v -4.485665 31.03313 8.474992
v -6.968914 20.4274 4.56919
v -7.207932 29.73525 10.42639
v -13.86789 20.57623 4.051151
v -14.7711 21.40754 2.693235
v -15.01012 30.71539 8.55044
v -14.10691 29.88408 9.908356
v -16.21019 21.98336 1.719453
v -16.29711 25.36804 3.849346
v -15.01012 30.71539 8.55044
v -14.33994 35.48643 0.9959953
v -15.69259 25.66814 -4.115006
v -15.77951 29.05281 -1.985113
v -14.33994 35.48643 0.9959953
v -12.7907 34.55573 2.53822
v -13.20956 31.57383 7.259748
v -15.01012 30.71539 8.55044
v -11.99928 31.07771 8.097525
v -14.10691 29.88408 9.908356
v -10.50783 30.87463 8.481115
v -10.65742 29.80966 10.16737
v -8.96851 31.01233 8.325103
v -7.207932 29.73525 10.42639
v -7.626577 31.45339 7.67897
v -6.07734 30.52269 9.221195
v -6.653511 32.11604 6.665642
v -4.485665 31.03313 8.474992
v -6.220791 32.91853 5.40804
v -4.226867 32.87551 5.557762
v -6.426128 33.73478 4.102527
v -3.96807 34.7179 2.640532
v -7.207714 34.43529 2.957443
v -5.407159 35.29373 1.666751
v -8.418003 34.9314 2.119666
v -6.310369 36.12503 0.3088352
v -9.909451 35.13449 1.736076
v -9.759857 36.19945 0.04981568
v -11.44877 34.99678 1.892088
v -13.20935 36.27386 -0.2092039
v -12.13786 25.42125 -3.577605
v -12.55168 25.24788 -3.318984
v -12.7907 34.55573 2.53822
v -12.37687 34.7291 2.2796
v -11.68699 25.56526 -3.788053
v -11.92601 34.8731 2.069152
v -11.20673 25.67738 -3.946625
v -11.44575 34.98522 1.91058
v -10.70522 25.75539 -4.05013
v -10.94424 35.06324 1.807074
v -10.19127 25.79844 -4.097567
v -10.43028 35.10629 1.759638
v -9.673442 25.80521 -4.087201
v -9.912461 35.11306 1.770003
v -9.160645 25.7762 -4.020178
v -9.399664 35.08405 1.837027
v -8.66185 25.71131 -3.896695
v -8.900868 35.01915 1.96051
v -8.185221 25.61219 -3.719742
v -8.424239 34.92004 2.137463
v -7.739264 25.48009 -3.491621
v -7.978283 34.78794 2.365584
v -7.331462 25.31756 -3.216696
v -7.570481 34.62541 2.640509
v -6.968695 25.12744 -2.899762
v -7.207714 34.43529 2.957443
v -6.657544 24.91271 -2.545828
v -6.896563 34.22055 3.311377
v -6.402789 24.67721 -2.161195
v -6.641808 33.98506 3.69601
v -6.20891 24.42493 -1.752377
v -6.447929 33.73278 4.104828
v -6.079788 24.16014 -1.32632
v -6.318807 33.46798 4.530885
v -6.016727 23.8875 -0.8904896
v -6.255746 33.19535 4.966715
v -6.02189 23.61155 -0.4521772
v -6.260909 32.9194 5.405027
v -6.094049 23.33704 -0.01889551
v -6.333068 32.64489 5.838309
v -6.233092 23.06876 0.4017591
v -6.472111 32.37661 6.258964
v -6.435599 22.81112 0.802914
v -6.674618 32.11897 6.660119
v -6.698967 22.56871 1.177398
v -6.937986 31.87655 7.034602
v -7.018143 22.34559 1.518935
v -7.257162 31.65344 7.37614
v -7.387558 22.14554 1.821766
v -7.626577 31.45339 7.67897
v -7.801385 21.97217 2.080386
v -8.040404 31.28002 7.937591
v -8.252246 21.82816 2.290834
v -8.491264 31.13601 8.148039
v -8.732508 21.71604 2.449406
v -8.971526 31.02389 8.306611
v -9.234016 21.63803 2.552912
v -9.473036 30.94588 8.410116
v -9.747975 21.59498 2.600348
v -9.986995 30.90283 8.457552
v -10.2658 21.58821 2.589983
v -10.50482 30.89606 8.447187
v -10.77859 21.61722 2.522959
v -11.01761 30.92506 8.380164
v -11.27739 21.68211 2.399476
v -11.51641 30.98996 8.25668
v -11.75402 21.78123 2.222523
v -11.99304 31.08907 8.079728
v -12.19998 21.91332 1.994402
v -12.439 31.22117 7.851607
v -12.60778 22.07586 1.719477
v -12.8468 31.3837 7.576682
v -12.97055 22.26598 1.402543
v -13.20956 31.57383 7.259748
v 6.07135 20.14609 5.548374
v 5.83233 29.45394 11.40558
v 12.73131 29.30511 11.92362
v 12.97033 19.99726 6.066412
v 4.246645 25.238 -2.617783
v 4.007627 34.54585 3.239422
v 3.490031 30.86107 9.073881
v 3.72905 21.55322 3.216676
v 6.729895 35.84372 1.288019
v 6.968914 26.53588 -4.569186
v 13.86789 26.38705 -4.051147
v 13.62887 35.6949 1.806058
v 15.69259 21.29514 4.11501
v 15.60568 24.67981 6.244903
v 16.12327 28.36459 0.4104433
v 16.21019 24.97992 -1.719449
v 12.97055 24.6973 -1.402539
v 12.73153 34.00515 4.454666
v 12.31266 31.02325 9.176193
v 12.55168 21.7154 3.318988
v 13.62887 35.6949 1.806058
v 13.86789 26.38705 -4.051147
v 14.7711 25.55574 -2.693231
v 14.53208 34.86359 3.163974
v 5.599302 35.05629 2.493218
v 5.838321 25.74844 -3.363986
v 6.968914 26.53588 -4.569186
v 6.729895 35.84372 1.288019
v 4.007627 34.54585 3.239422
v 4.246645 25.238 -2.617783
v 4.929121 30.28525 10.04766
v 5.16814 20.9774 4.190458
v 3.72905 21.55322 3.216676
v 3.490031 30.86107 9.073881
v 5.83233 29.45394 11.40558
v 6.07135 20.14609 5.548374
v 13.8619 30.09254 10.71842
v 14.10092 20.7847 4.861213
v 12.97033 19.99726 6.066412
v 12.73131 29.30511 11.92362
v 15.60568 24.67981 6.244903
v 15.69259 21.29514 4.11501
v 13.8619 30.09254 10.71842
v 14.53208 34.86359 3.163974
v 16.21019 24.97992 -1.719449
v 16.12327 28.36459 0.4104433
v 12.31266 31.02325 9.176193
v 12.73153 34.00515 4.454666
v 14.53208 34.86359 3.163974
v 13.8619 30.09254 10.71842
v 12.73131 29.30511 11.92362
v 10.97073 30.58219 9.822326
v 9.281819 29.37952 11.6646
v 9.431413 30.44449 9.978338
v 5.83233 29.45394 11.40558
v 7.939965 30.64757 9.594748
v 4.929121 30.28525 10.04766
v 6.729676 31.14369 8.75697
v 3.490031 30.86107 9.073881
v 5.94809 31.84419 7.611887
v 3.748829 32.70346 6.156651
v 5.742753 32.66045 6.306374
v 4.007627 34.54585 3.239422
v 6.175472 33.46294 5.048771
v 5.599302 35.05629 2.493218
v 7.148539 34.12559 4.035443
v 6.729895 35.84372 1.288019
v 8.490471 34.56664 3.389311
v 10.17938 35.76931 1.547038
v 10.02979 34.70435 3.233298
v 13.62887 35.6949 1.806058
v 11.52124 34.50126 3.616889
v 12.13786 21.54203 3.577609
v 12.55168 21.7154 3.318988
v 12.31266 31.02325 9.176193
v 11.89884 30.84988 9.434813
v 11.68699 21.39802 3.788057
v 11.44798 30.70587 9.645262
v 11.20673 21.2859 3.946629
v 10.96771 30.59375 9.803834
v 10.70522 21.20789 4.050135
v 10.4662 30.51574 9.907339
v 10.19127 21.16484 4.09757
v 9.952246 30.47269 9.954775
v 9.673442 21.15807 4.087205
v 9.434422 30.46592 9.94441
v 9.160645 21.18708 4.020182
v 8.921626 30.49492 9.877387
v 8.66185 21.25197 3.896699
v 8.422831 30.55982 9.753903
v 8.185221 21.35109 3.719746
v 7.946201 30.65893 9.576951
v 7.739264 21.48318 3.491625
v 7.500245 30.79103 9.348829
v 7.331462 21.64572 3.2167
v 7.092443 30.95356 9.073905
v 6.968695 21.83584 2.899766
v 6.729676 31.14369 8.75697
v 6.657544 22.05057 2.545832
v 6.418524 31.35842 8.403037
v 6.402789 22.28607 2.161199
v 6.16377 31.59392 8.018403
v 6.20891 22.53835 1.752381
v 5.969891 31.8462 7.609585
v 6.079788 22.80314 1.326324
v 5.840769 32.11099 7.183529
v 6.016727 23.07578 0.8904937
v 5.777708 32.38363 6.747698
v 6.02189 23.35173 0.4521813
v 5.782871 32.65958 6.309386
v 6.094049 23.62624 0.01889961
v 5.85503 32.93409 5.876104
v 6.233092 23.89452 -0.4017549
v 5.994073 33.20237 5.45545
v 6.435599 24.15215 -0.8029099
v 6.19658 33.46 5.054295
v 6.698967 24.39457 -1.177393
v 6.459948 33.70242 4.679811
v 7.018143 24.61769 -1.518931
v 6.779124 33.92554 4.338274
v 7.387558 24.81774 -1.821761
v 7.148539 34.12559 4.035443
v 7.801385 24.99111 -2.080382
v 7.562366 34.29896 3.776823
v 8.252246 25.13512 -2.29083
v 8.013227 34.44297 3.566375
v 8.732508 25.24724 -2.449402
v 8.493488 34.55508 3.407802
v 9.234016 25.32525 -2.552908
v 8.994998 34.63309 3.304297
v 9.747975 25.3683 -2.600344
v 9.508956 34.67614 3.256861
v 10.2658 25.37507 -2.589978
v 10.02678 34.68292 3.267226
v 10.77859 25.34606 -2.522955
v 10.53958 34.65391 3.334249
v 11.27739 25.28117 -2.399472
v 11.03837 34.58902 3.457732
v 11.75402 25.18205 -2.222519
v 11.515 34.4899 3.634686
v 12.19998 25.04996 -1.994398
v 11.96096 34.3578 3.862807
v 12.60778 24.88742 -1.719473
v 12.36876 34.19527 4.137732
v 12.97055 24.6973 -1.402539
v 12.73153 34.00515 4.454666
v 2.61779 7.169358 -12.83264
v -1.370058 7.255386 -13.13208
v 2.536422 6.360051 -11.98152
v -1.451426 6.446079 -12.28097
v 2.450229 5.668877 -11.03222
v -1.537619 5.754905 -11.33167
v 2.360679 5.108872 -10.00052
v -1.627169 5.1949 -10.29996
v 2.269336 4.687737 -8.905049
v -1.718512 4.773766 -9.204494
v 2.177732 4.414958 -7.763495
v -1.810115 4.500987 -8.06294
v 2.087435 4.292703 -6.596085
v -1.900413 4.378731 -6.89553
v 2.000031 4.325651 -5.422616
v -1.987817 4.411679 -5.722061
v 1.916944 4.51074 -4.262929
v -2.070904 4.596768 -4.562373
v 1.839663 4.846897 -3.137163
v -2.148185 4.932925 -3.436607
v 1.76948 5.327082 -2.064555
v -2.218368 5.41311 -2.363999
v 1.707579 5.942788 -1.063303
v -2.280269 6.028816 -1.362747
v 1.655088 6.684773 -0.1510891
v -2.33276 6.770801 -0.4505336
v 1.612808 7.53939 0.6575099
v -2.375041 7.625418 0.3580653
v 1.581482 8.49226 1.348437
v -2.406366 8.578288 1.048993
v 1.561748 9.527533 1.908668
v -2.4261 9.613561 1.609224
v 1.553782 10.62651 2.330487
v -2.434066 10.71254 2.031043
v 1.557913 11.77146 2.604408
v -2.429935 11.85749 2.304963
v 1.573868 12.94208 2.728233
v -2.41398 13.02811 2.428788
v 1.601573 14.11853 2.697264
v -2.386275 14.20456 2.39782
v 1.64037 15.28091 2.514525
v -2.347478 15.36694 2.215081
v -18.2495 16.83885 0.6838732
v -18.29886 15.71105 1.017162
v 17.59177 14.93679 3.712162
v 17.64113 16.0646 3.378874
v -18.19051 17.91361 0.2069859
v 17.70012 17.13936 2.901987
v -18.12287 18.91684 -0.4056485
v 17.76777 18.14258 2.289352
v -18.04768 19.83041 -1.14443
v 17.84295 19.05616 1.550571
v -17.96634 20.64006 -1.995095
v 17.92429 19.8658 0.6999064
v -17.88013 21.33024 -2.944935
v 18.0105 20.55598 -0.2499336
v -17.7906 21.89117 -3.976103
v 18.10003 21.11692 -1.281102
v -17.69924 22.31095 -5.072106
v 18.19139 21.5367 -2.377105
v -17.60763 22.58478 -6.213459
v 18.283 21.81053 -3.518459
v -17.51734 22.70594 -7.381157
v 18.37329 21.93168 -4.686156
v -17.42991 22.67354 -8.554752
v 18.46072 21.89929 -5.859751
v -17.34684 22.48848 -9.714196
v 18.54379 21.71423 -7.019195
v 2.5364 6.359993 -11.98125
v 2.450233 5.669099 -11.03221
v 2.254672 13.28461 -6.239954
v 2.617782 7.169046 -12.83261
v 2.692974 8.082668 -13.57151
v 2.760614 9.085748 -14.18413
v 2.819658 10.16004 -14.66181
v 2.868954 11.28835 -14.99415
v 2.907825 12.45053 -15.17793
v 2.935421 13.62702 -15.20744
v 2.951458 14.7978 -15.08466
v 2.955501 15.94264 -14.8096
v 2.947577 17.04191 -14.38825
v 2.927845 18.07695 -13.82812
v 2.896535 19.02956 -13.13748
v 2.854279 19.88443 -12.32913
v 2.801775 20.62671 -11.41667
v 2.739859 21.24253 -10.41518
v 2.66971 21.72318 -9.34288
v 2.592391 22.0582 -8.216942
v 2.509342 22.24433 -7.057453
v 2.421903 22.27581 -5.883942
v 2.331617 22.15461 -4.716379
v 2.239997 21.88069 -3.574929
v 2.148642 21.46003 -2.479165
v 2.059111 20.90012 -1.447695
v 1.972944 20.20923 -0.4986525
v 1.891562 19.40018 0.3527071
v 1.81637 18.48655 1.091606
v 1.74873 17.48347 1.704227
v 1.689686 16.40918 2.181902
v 1.64039 15.28088 2.514247
v 1.601519 14.11869 2.698027
v 1.573924 12.9422 2.72753
v 1.557886 11.77142 2.604753
v 1.553843 10.62658 2.329696
v 1.561768 9.527308 1.908347
v 1.581499 8.49227 1.348216
v 1.612809 7.539661 0.6575681
v 1.655065 6.684795 -0.150777
v 1.707569 5.942512 -1.063241
v 1.769485 5.326689 -2.064728
v 1.839634 4.846045 -3.137027
v 1.916953 4.51102 -4.262965
v 2.000002 4.324887 -5.422454
v 2.087441 4.293407 -6.595965
v 2.177727 4.414612 -7.763528
v 2.269347 4.688531 -8.904978
v 2.360702 5.109193 -10.00074
v -1.627146 5.195221 -10.30019
v -1.537615 5.755127 -11.33166
v -1.733176 13.37064 -6.539398
v -1.718501 4.774559 -9.204422
v -1.81012 4.50064 -8.062973
v -1.900407 4.379436 -6.895409
v -1.987846 4.410915 -5.721899
v -2.070895 4.597048 -4.562409
v -2.148214 4.932073 -3.436472
v -2.218363 5.412717 -2.364172
v -2.280279 6.02854 -1.362686
v -2.332783 6.770823 -0.4502215
v -2.375039 7.62569 0.3581235
v -2.406349 8.578299 1.048771
v -2.42608 9.613337 1.608902
v -2.434005 10.71261 2.030251
v -2.429962 11.85745 2.305309
v -2.413924 13.02823 2.428086
v -2.386329 14.20472 2.398582
v -2.347458 15.3669 2.214802
v -2.298162 16.49521 1.882457
v -2.239118 17.5695 1.404783
v -2.171478 18.57258 0.7921617
v -2.096286 19.4862 0.05326258
v -2.014904 20.29526 -0.7980971
v -1.928737 20.98615 -1.74714
v -1.839206 21.54606 -2.778609
v -1.747851 21.96672 -3.874374
v -1.656232 22.24064 -5.015823
v -1.565945 22.36184 -6.183387
v -1.478506 22.33036 -7.356898
v -1.395457 22.14423 -8.516387
v -1.318138 21.8092 -9.642324
v -1.247989 21.32856 -10.71462
v -1.186073 20.71274 -11.71611
v -1.133569 19.97045 -12.62857
v -1.091313 19.11559 -13.43692
v -1.060003 18.16298 -14.12757
v -1.040272 17.12794 -14.6877
v -1.032347 16.02867 -15.10905
v -1.03639 14.88383 -15.3841
v -1.052428 13.71305 -15.50688
v -1.080023 12.53656 -15.47738
v -1.118894 11.37437 -15.2936
v -1.16819 10.24607 -14.96125
v -1.227234 9.171776 -14.48358
v -1.294874 8.168696 -13.87096
v -1.370066 7.255074 -13.13206
v -1.451448 6.446022 -12.2807
v 10.18596 10.38914 -6.90065
v 10.2158 10.57577 -7.244473
v 10.15061 13.11427 -5.647053
v 10.1555 10.24891 -6.535395
v 10.12496 10.15761 -6.154912
v 10.09487 10.11721 -5.765723
v 10.06572 10.1277 -5.374553
v 10.03804 10.18974 -4.988057
v 10.01227 10.30142 -4.612744
v 9.988882 10.46163 -4.255311
v 9.968244 10.66691 -3.921482
v 9.950743 10.91434 -3.617327
v 9.936657 11.19929 -3.34788
v 9.92622 11.51683 -3.117663
v 9.919643 11.86184 -2.930953
v 9.917002 12.22827 -2.790504
v 9.918349 12.60988 -2.698818
v 9.923696 13.00014 -2.657892
v 9.932894 13.3923 -2.667727
v 9.94585 13.7797 -2.728987
v 9.962282 14.1558 -2.839768
v 9.981964 14.5139 -2.998993
v 10.00451 14.84826 -3.2032
v 10.02957 15.1528 -3.4495
v 10.0567 15.42248 -3.733286
v 10.08542 15.65278 -4.049634
v 10.11527 15.83941 -4.393457
v 10.14572 15.97964 -4.758712
v 10.17626 16.07094 -5.139195
v 10.20636 16.11134 -5.528383
v 10.2355 16.10085 -5.919553
v 10.26318 16.03881 -6.306049
v 10.28896 15.92713 -6.681362
v 10.31234 15.76692 -7.038795
v 10.33298 15.56164 -7.372624
v 10.35048 15.31421 -7.676779
v 10.36457 15.02926 -7.946227
v 10.375 14.71172 -8.176443
v 10.38158 14.36671 -8.363153
v 10.38422 14.00028 -8.503603
v 10.38287 13.61867 -8.595288
v 10.37753 13.22841 -8.636214
v 10.36833 12.83625 -8.62638
v 10.35537 12.44885 -8.56512
v 10.33894 12.07275 -8.454338
v 10.31926 11.71465 -8.295114
v 10.29671 11.38029 -8.090906
v 10.27165 11.07575 -7.844607
v 10.24452 10.80607 -7.56082
v -9.593772 10.81583 -8.385895
v -9.563929 11.00247 -8.729717
v 10.2158 10.57577 -7.244473
v 10.18596 10.38914 -6.90065
v -9.624224 10.67561 -8.020639
v 10.1555 10.24891 -6.535395
v -9.654763 10.58431 -7.640156
v 10.12496 10.15761 -6.154912
v -9.684858 10.54391 -7.250968
v 10.09487 10.11721 -5.765723
v -9.714005 10.5544 -6.859798
v 10.06572 10.1277 -5.374553
v -9.741689 10.61644 -6.473302
v 10.03804 10.18974 -4.988057
v -9.767461 10.72812 -6.097989
v 10.01227 10.30142 -4.612744
v -9.790844 10.88833 -5.740556
v 9.988882 10.46163 -4.255311
v -9.811483 11.09361 -5.406727
v 9.968244 10.66691 -3.921482
v -9.828984 11.34104 -5.102572
v 9.950743 10.91434 -3.617327
v -9.843069 11.62599 -4.833125
v 9.936657 11.19929 -3.34788
v -9.853506 11.94353 -4.602909
v 9.92622 11.51683 -3.117663
v -9.860084 12.28854 -4.416198
v 9.919643 11.86184 -2.930953
v -9.862725 12.65497 -4.275749
v 9.917002 12.22827 -2.790504
v -9.861377 13.03658 -4.184062
v 9.918349 12.60988 -2.698818
v -9.856031 13.42684 -4.143137
v 9.923696 13.00014 -2.657892
v -9.846833 13.819 -4.152972
v 9.932894 13.3923 -2.667727
v -9.833876 14.2064 -4.214231
v 9.94585 13.7797 -2.728987
v -9.817444 14.5825 -4.325013
v 9.962282 14.1558 -2.839768
v -9.797763 14.94059 -4.484238
v 9.981964 14.5139 -2.998993
v -9.775216 15.27495 -4.688445
v 10.00451 14.84826 -3.2032
v -9.750152 15.5795 -4.934744
v 10.02957 15.1528 -3.4495
v -9.723024 15.84918 -5.218531
v 10.0567 15.42248 -3.733286
v -9.694303 16.07948 -5.534879
v 10.08542 15.65278 -4.049634
v -9.664458 16.26611 -5.878702
v 10.11527 15.83941 -4.393457
v -9.634007 16.40633 -6.243957
v 10.14572 15.97964 -4.758712
v -9.603467 16.49764 -6.62444
v 10.17626 16.07094 -5.139195
v -9.573372 16.53804 -7.013628
v 10.20636 16.11134 -5.528383
v -9.544226 16.52755 -7.404799
v 10.2355 16.10085 -5.919553
v -9.516542 16.46551 -7.791295
v 10.26318 16.03881 -6.306049
v -9.490769 16.35383 -8.166607
v 10.28896 15.92713 -6.681362
v -9.467386 16.19361 -8.52404
v 10.31234 15.76692 -7.038795
v -9.446748 15.98834 -8.857869
v 10.33298 15.56164 -7.372624
v -9.429246 15.74091 -9.162024
v 10.35048 15.31421 -7.676779
v -9.415161 15.45596 -9.431472
v 10.36457 15.02926 -7.946227
v -9.404724 15.13842 -9.661688
v 10.375 14.71172 -8.176443
v -9.398147 14.79341 -9.848399
v 10.38158 14.36671 -8.363153
v -9.395506 14.42698 -9.988848
v 10.38422 14.00028 -8.503603
v -9.396853 14.04537 -10.08053
v 10.38287 13.61867 -8.595288
v -9.402199 13.65511 -10.12146
v 10.37753 13.22841 -8.636214
v -9.411398 13.26295 -10.11162
v 10.36833 12.83625 -8.62638
v -9.424355 12.87555 -10.05036
v 10.35537 12.44885 -8.56512
v -9.440786 12.49945 -9.939583
v 10.33894 12.07275 -8.454338
v -9.460467 12.14135 -9.780358
v 10.31926 11.71465 -8.295114
v -9.483014 11.80699 -9.576152
v 10.29671 11.38029 -8.090906
v -9.508079 11.50245 -9.329852
v 10.27165 11.07575 -7.844607
v -9.535206 11.23277 -9.046065
v 10.24452 10.80607 -7.56082
v -9.593772 10.81583 -8.385895
v -9.563929 11.00247 -8.729717
v -9.629115 13.54097 -7.132298
v -9.624224 10.67561 -8.020639
v -9.654763 10.58431 -7.640156
v -9.684858 10.54391 -7.250968
v -9.714005 10.5544 -6.859798
v -9.741689 10.61644 -6.473302
v -9.767461 10.72812 -6.097989
v -9.790844 10.88833 -5.740556
v -9.811483 11.09361 -5.406727
v -9.828984 11.34104 -5.102572
v -9.843069 11.62599 -4.833125
v -9.853506 11.94353 -4.602909
v -9.860084 12.28854 -4.416198
v -9.862725 12.65497 -4.275749
v -9.861377 13.03658 -4.184062
v -9.856031 13.42684 -4.143137
v -9.846833 13.819 -4.152972
v -9.833876 14.2064 -4.214231
v -9.817444 14.5825 -4.325013
v -9.797763 14.94059 -4.484238
v -9.775216 15.27495 -4.688445
v -9.750152 15.5795 -4.934744
v -9.723024 15.84918 -5.218531
v -9.694303 16.07948 -5.534879
v -9.664458 16.26611 -5.878702
v -9.634007 16.40633 -6.243957
v -9.603467 16.49764 -6.62444
v -9.573372 16.53804 -7.013628
v -9.544226 16.52755 -7.404799
v -9.516542 16.46551 -7.791295
v -9.490769 16.35383 -8.166607
v -9.467386 16.19361 -8.52404
v -9.446748 15.98834 -8.857869
v -9.429246 15.74091 -9.162024
v -9.415161 15.45596 -9.431472
v -9.404724 15.13842 -9.661688
v -9.398147 14.79341 -9.848399
v -9.395506 14.42698 -9.988848
v -9.396853 14.04537 -10.08053
v -9.402199 13.65511 -10.12146
v -9.411398 13.26295 -10.11162
v -9.424355 12.87555 -10.05036
v -9.440786 12.49945 -9.939583
v -9.460467 12.14135 -9.780358
v -9.483014 11.80699 -9.576152
v -9.508079 11.50245 -9.329852
v -9.535206 11.23277 -9.046065
v -17.32076 22.30987 -10.1129
v 18.56987 21.53562 -7.417896
v 18.82366 23.34233 -10.27864
v -17.06697 24.11658 -12.97364
v 18.56987 21.53562 -7.417896
v -17.32076 22.30987 -10.1129
v 17.58151 14.4994 3.723223
v -18.30913 15.27365 1.028222
v -18.56291 13.46694 3.888962
v 17.32772 12.69268 6.583963
v -18.30913 15.27365 1.028222
v 17.58151 14.4994 3.723223
v -17.32076 22.30987 -10.1129
v -17.06697 24.11658 -12.97364
v -17.34684 22.48848 -9.714195
v -17.60764 22.58451 -6.213401
v -17.19735 29.19359 -9.778798
v -17.88013 21.33026 -2.944918
v -18.12285 18.91677 -0.4059225
v -18.69329 18.54394 7.083801
v -18.29886 15.71105 1.017162
v -18.56291 13.46694 3.888962
v -18.30913 15.27365 1.028222
v 17.58151 14.4994 3.723223
v 17.32772 12.69268 6.583963
v 17.59177 14.93679 3.712163
v 17.76779 18.14252 2.289078
v 17.19735 17.76969 9.778802
v 18.0105 20.55601 -0.2499169
v 18.28299 21.81025 -3.5184
v 18.69329 28.41934 -7.083797
v 18.54379 21.71423 -7.019195
v 18.82366 23.34233 -10.27864
v 18.56987 21.53562 -7.417896
vn 0.074797 0.5324822 -0.8431299
vn 0.074797 0.5324822 -0.8431299
vn 0.074797 0.5324822 -0.8431299
vn 0.074797 0.5324822 -0.8431299
vn 0.0447428 0.9448573 -0.3244114
vn 0.04193177 0.9581572 -0.2831545
vn 0.04193177 0.9581572 -0.2831545
vn 0.04747413 0.9297464 -0.365127
vn 0.05265708 0.8943142 -0.4443303
vn 0.0551085 0.8739853 -0.4828174
vn 0.05970179 0.8282846 -0.5571179
vn 0.0618422 0.8028827 -0.5929206
vn 0.06572887 0.7479852 -0.6604529
vn 0.06747843 0.7185298 -0.6922148
vn 0.07061237 0.655205 -0.7521439
vn 0.07199223 0.6212958 -0.7802619
vn 0.07430873 0.5506882 -0.8313969
vn 0.07525019 0.5140263 -0.8544673
vn 0.07671557 0.4373598 -0.8960084
vn 0.07723462 0.3973224 -0.9144232
vn 0.07781903 0.3158473 -0.9456133
vn 0.07788926 0.2744368 -0.9584455
vn 0.07758772 0.1897233 -0.9787672
vn 0.07721189 0.1464083 -0.9862062
vn 0.07602283 0.05954272 -0.9953267
vn 0.07521186 0.01598876 -0.9970393
vn 0.07316953 -0.07088061 -0.9947976
vn 0.07193863 -0.1141985 -0.9908499
vn 0.06906183 -0.2003467 -0.9772879
vn 0.06741361 -0.2431655 -0.9676393
vn 0.06375594 -0.3267756 -0.9429489
vn 0.06174909 -0.3675714 -0.927943
vn 0.05739319 -0.4469219 -0.8927301
vn 0.05504358 -0.4854759 -0.8725154
vn 0.05001965 -0.5599604 -0.8270081
vn 0.04734252 -0.5958818 -0.8016754
vn -0.074797 -0.5324822 0.8431299
vn -0.074797 -0.5324822 0.8431299
vn -0.074797 -0.5324822 0.8431299
vn -0.074797 -0.5324822 0.8431299
vn -0.021729 0.8461679 0.5324731
vn -0.021729 0.8461679 0.5324731
vn -0.021729 0.8461679 0.5324731
vn -0.021729 0.8461679 0.5324731
vn -0.074797 -0.5324822 0.8431299
vn -0.074797 -0.5324822 0.8431299
vn -0.074797 -0.5324822 0.8431299
vn -0.074797 -0.5324822 0.8431299
vn 0.996962 -0.02150702 0.07486114
vn 0.996962 -0.02150702 0.07486114
vn 0.996962 -0.02150702 0.07486114
vn 0.996962 -0.02150702 0.07486114
vn 0.074797 0.5324822 -0.8431299
vn 0.074797 0.5324822 -0.8431299
vn 0.074797 0.5324822 -0.8431299
vn 0.074797 0.5324822 -0.8431299
vn -0.996962 0.02150702 -0.07486114
vn -0.9859506 0.1661232 0.01744865
vn -0.9940732 0.1067056 -0.02079734
vn -0.996962 0.02150702 -0.07486114
vn 0.996962 -0.02150702 0.07486114
vn 0.996962 -0.02150702 0.07486114
vn 0.996962 -0.02150702 0.07486114
vn 0.996962 -0.02150702 0.07486114
vn -0.7002907 0.3672315 -0.6121551
vn -0.7861648 0.3145678 -0.53197
vn -0.7861648 0.3145678 -0.53197
vn -0.6288296 0.4024873 -0.6652648
vn 0.8695212 0.2788505 -0.4076459
vn 0.713527 0.3861876 -0.584584
vn 0.7989168 0.3348898 -0.4995807
vn 0.8695212 0.2788505 -0.4076459
vn 0.617635 0.4301707 -0.658392
vn 0.617635 0.4301707 -0.658392
vn 0.4934173 -0.454139 0.7418201
vn 0.7002907 -0.3672315 0.6121551
vn 0.601049 -0.4145463 0.6832945
vn 0.4934173 -0.454139 0.7418201
vn 0.7861646 -0.3145679 0.5319701
vn 0.7861646 -0.3145679 0.5319701
vn -0.8695214 -0.2788504 0.4076458
vn -0.7377621 -0.3730064 0.5626485
vn -0.7989168 -0.3348898 0.4995807
vn -0.8695214 -0.2788504 0.4076458
vn -0.6176349 -0.4301708 0.6583921
vn -0.617635 -0.4301708 0.6583921
vn -0.9788688 0.2005723 0.03983335
vn -0.9788688 0.2005723 0.03983336
vn -0.4934172 0.4541391 -0.7418202
vn -0.4934171 0.4541391 -0.7418202
vn -0.021729 0.8461679 0.5324731
vn -0.021729 0.8461679 0.5324731
vn -0.021729 0.8461679 0.5324731
vn -0.021729 0.8461679 0.5324731
vn -0.021729 0.8461679 0.5324731
vn -0.021729 0.8461679 0.5324731
vn -0.021729 0.8461679 0.5324731
vn -0.021729 0.8461679 0.5324731
vn -0.021729 0.8461679 0.5324731
vn -0.021729 0.8461679 0.5324731
vn -0.021729 0.8461679 0.5324731
vn -0.021729 0.8461679 0.5324731
vn -0.021729 0.8461679 0.5324731
vn -0.021729 0.8461679 0.5324731
vn -0.021729 0.8461679 0.5324731
vn -0.021729 0.8461679 0.5324731
vn -0.021729 0.8461679 0.5324731
vn -0.021729 0.8461679 0.5324731
vn -0.021729 0.8461679 0.5324731
vn -0.021729 0.8461679 0.5324731
vn -0.021729 0.8461679 0.5324731
vn -0.021729 0.8461679 0.5324731
vn -0.021729 0.8461679 0.5324731
vn -0.021729 0.8461679 0.5324731
vn -0.021729 0.8461679 0.5324731
vn -0.021729 0.8461679 0.5324731
vn 0.5655535 -0.4287884 0.7044785
vn 0.6008229 -0.4146411 0.6834359
vn 0.6008229 -0.4146411 0.6834359
vn 0.529152 -0.4421493 0.7242252
vn 0.4534909 -0.4663136 0.7595377
vn 0.4142257 -0.4771144 0.7750993
vn 0.333239 -0.4960121 0.8018253
vn 0.2914998 -0.5040953 0.8129672
vn 0.2071605 -0.517229 0.8303967
vn 0.1645733 -0.5223061 0.8367269
vn 0.07799603 -0.529541 0.8446911
vn 0.03400315 -0.5316653 0.8462717
vn -0.05318197 -0.5328231 0.8445538
vn -0.09637693 -0.5318913 0.8413103
vn -0.182711 -0.5269902 0.8299988
vn -0.225843 -0.5229864 0.821876
vn -0.3098707 -0.5120711 0.8011013
vn -0.3507786 -0.5051928 0.7885015
vn -0.4309298 -0.4885106 0.7587205
vn -0.4701527 -0.4786808 0.7414992
vn -0.545357 -0.4564137 0.7030449
vn -0.5813598 -0.4439892 0.6818315
vn -0.6497957 -0.4167164 0.6356989
vn -0.6822349 -0.4018704 0.610783
vn -0.7433446 -0.36983 0.557373
vn -0.7719856 -0.352624 0.5288616
vn -0.8244253 -0.3164497 0.469236
vn -0.848249 -0.2974957 0.4381436
vn -0.8909963 -0.2579755 0.3735965
vn -0.9099147 -0.2374062 0.3401373
vn -0.9425918 -0.1948638 0.2711984
vn -0.956324 -0.1728808 0.2357043
vn -0.9780656 -0.128351 0.1640536
vn -0.9861255 -0.1058121 0.1279074
vn -0.9967168 -0.05988512 0.05449138
vn -0.9991855 -0.03649442 0.01721983
vn -0.9983484 0.00996666 -0.0565786
vn -0.9951077 0.03303729 -0.09310854
vn -0.9829265 0.07925366 -0.1660552
vn -0.9739213 0.1023968 -0.2024651
vn -0.9505303 0.1475908 -0.2733295
vn -0.9362063 0.1696468 -0.3077948
vn -0.9021239 0.2129723 -0.3752537
vn -0.8823174 0.2342317 -0.4082295
vn -0.8379222 0.2751115 -0.471381
vn -0.8133568 0.2947428 -0.5015752
vn -0.7597986 0.3321855 -0.5588908
vn -0.73081 0.3500001 -0.5860175
vn -0.6685553 0.3837001 -0.6370307
vn -0.6352681 0.3995703 -0.660892
vn -0.5655535 0.4287884 -0.7044785
vn -0.529152 0.4421493 -0.7242252
vn -0.4534909 0.4663136 -0.7595377
vn -0.4142257 0.4771144 -0.7750993
vn -0.333239 0.4960121 -0.8018253
vn -0.2914998 0.5040953 -0.8129672
vn -0.2071605 0.517229 -0.8303967
vn -0.1645733 0.5223061 -0.8367269
vn -0.07799603 0.529541 -0.8446911
vn -0.03400315 0.5316653 -0.8462717
vn 0.05318197 0.5328231 -0.8445538
vn 0.09637693 0.5318913 -0.8413103
vn 0.182711 0.5269902 -0.8299988
vn 0.225843 0.5229864 -0.821876
vn 0.3098707 0.5120711 -0.8011013
vn 0.3507786 0.5051928 -0.7885015
vn 0.4309298 0.4885106 -0.7587205
vn 0.4701527 0.4786808 -0.7414992
vn 0.545357 0.4564137 -0.7030449
vn 0.5813598 0.4439892 -0.6818315
vn 0.6497957 0.4167164 -0.6356989
vn 0.6822349 0.4018704 -0.610783
vn 0.7133287 0.3862915 -0.5847573
vn 0.7133287 0.3862915 -0.5847573
vn -0.074797 -0.5324822 0.8431299
vn -0.074797 -0.5324822 0.8431299
vn -0.074797 -0.5324822 0.8431299
vn -0.074797 -0.5324822 0.8431299
vn -0.996962 0.02150702 -0.07486114
vn -0.996962 0.02150702 -0.07486114
vn -0.996962 0.02150702 -0.07486114
vn -0.996962 0.02150702 -0.07486114
vn 0.074797 0.5324822 -0.8431299
vn 0.074797 0.5324822 -0.8431299
vn 0.074797 0.5324822 -0.8431299
vn 0.074797 0.5324822 -0.8431299
vn 0.996962 -0.02150702 0.07486114
vn 0.9846038 0.09451991 0.1470421
vn 0.9835333 0.1001015 0.1504722
vn 0.996962 -0.02150702 0.07486114
vn -0.996962 0.02150702 -0.07486114
vn -0.996962 0.02150702 -0.07486114
vn -0.996962 0.02150702 -0.07486114
vn -0.996962 0.02150702 -0.07486114
vn 0.8695214 0.2788504 -0.4076458
vn 0.8695214 0.2788504 -0.4076458
vn 0.7989168 0.3348898 -0.4995807
vn 0.7377621 0.3730064 -0.5626485
vn -0.7002907 0.3672315 -0.6121551
vn -0.601049 0.4145463 -0.6832945
vn -0.7861646 0.3145679 -0.5319701
vn -0.7861646 0.3145679 -0.5319701
vn -0.4934173 0.454139 -0.7418201
vn -0.4934173 0.454139 -0.7418201
vn -0.713527 -0.3861876 0.584584
vn -0.7989168 -0.3348898 0.4995807
vn -0.617635 -0.4301707 0.658392
vn -0.617635 -0.4301707 0.658392
vn -0.8695212 -0.2788505 0.4076459
vn -0.8695212 -0.2788505 0.4076459
vn 0.7002907 -0.3672315 0.6121551
vn 0.6288296 -0.4024873 0.6652648
vn 0.7861648 -0.3145678 0.53197
vn 0.7861648 -0.3145678 0.53197
vn 0.4934172 -0.4541391 0.7418202
vn 0.4934172 -0.4541391 0.7418202
vn 0.9696471 0.1585378 0.186146
vn 0.9696472 0.1585378 0.186146
vn 0.617635 0.4301708 -0.6583921
vn 0.6176349 0.4301708 -0.6583921
vn -0.021729 0.8461679 0.5324731
vn -0.021729 0.8461679 0.5324731
vn -0.021729 0.8461679 0.5324731
vn -0.021729 0.8461679 0.5324731
vn -0.021729 0.8461679 0.5324731
vn -0.021729 0.8461679 0.5324731
vn -0.021729 0.8461679 0.5324731
vn -0.021729 0.8461679 0.5324731
vn -0.021729 0.8461679 0.5324731
vn -0.021729 0.8461679 0.5324731
vn -0.021729 0.8461679 0.5324731
vn -0.021729 0.8461679 0.5324731
vn -0.021729 0.8461679 0.5324731
vn -0.021729 0.8461679 0.5324731
vn -0.021729 0.8461679 0.5324731
vn -0.021729 0.8461679 0.5324731
vn -0.021729 0.8461679 0.5324731
vn -0.021729 0.8461679 0.5324731
vn -0.021729 0.8461679 0.5324731
vn -0.021729 0.8461679 0.5324731
vn -0.021729 0.8461679 0.5324731
vn -0.021729 0.8461679 0.5324731
vn -0.021729 0.8461679 0.5324731
vn -0.021729 0.8461679 0.5324731
vn -0.021729 0.8461679 0.5324731
vn -0.021729 0.8461679 0.5324731
vn -0.5655535 0.4287884 -0.7044785
vn -0.6008229 0.4146411 -0.6834359
vn -0.6008229 0.4146411 -0.6834359
vn -0.529152 0.4421493 -0.7242252
vn -0.4534909 0.4663136 -0.7595377
vn -0.4142257 0.4771144 -0.7750993
vn -0.333239 0.4960121 -0.8018253
vn -0.2914998 0.5040953 -0.8129672
vn -0.2071605 0.517229 -0.8303967
vn -0.1645733 0.5223061 -0.8367269
vn -0.07799603 0.529541 -0.8446911
vn -0.03400315 0.5316653 -0.8462717
vn 0.05318197 0.5328231 -0.8445538
vn 0.09637693 0.5318913 -0.8413103
vn 0.182711 0.5269902 -0.8299988
vn 0.225843 0.5229864 -0.821876
vn 0.3098707 0.5120711 -0.8011013
vn 0.3507786 0.5051928 -0.7885015
vn 0.4309298 0.4885106 -0.7587205
vn 0.4701527 0.4786808 -0.7414992
vn 0.545357 0.4564137 -0.7030449
vn 0.5813598 0.4439892 -0.6818315
vn 0.6497957 0.4167164 -0.6356989
vn 0.6822349 0.4018704 -0.610783
vn 0.7433446 0.36983 -0.557373
vn 0.7719856 0.352624 -0.5288616
vn 0.8244253 0.3164497 -0.469236
vn 0.848249 0.2974957 -0.4381436
vn 0.8909963 0.2579755 -0.3735965
vn 0.9099147 0.2374062 -0.3401373
vn 0.9425918 0.1948638 -0.2711984
vn 0.956324 0.1728808 -0.2357043
vn 0.9780656 0.128351 -0.1640536
vn 0.9861255 0.1058121 -0.1279074
vn 0.9967168 0.05988512 -0.05449138
vn 0.9991855 0.03649442 -0.01721983
vn 0.9983484 -0.00996666 0.0565786
vn 0.9951077 -0.03303729 0.09310854
vn 0.9829265 -0.07925366 0.1660552
vn 0.9739213 -0.1023968 0.2024651
vn 0.9505303 -0.1475908 0.2733295
vn 0.9362063 -0.1696468 0.3077948
vn 0.9021239 -0.2129723 0.3752537
vn 0.8823174 -0.2342317 0.4082295
vn 0.8379222 -0.2751115 0.471381
vn 0.8133568 -0.2947428 0.5015752
vn 0.7597986 -0.3321855 0.5588908
vn 0.73081 -0.3500001 0.5860175
vn 0.6685553 -0.3837001 0.6370307
vn 0.6352681 -0.3995703 0.660892
vn 0.5655535 -0.4287884 0.7044785
vn 0.529152 -0.4421493 0.7242252
vn 0.4534909 -0.4663136 0.7595377
vn 0.4142257 -0.4771144 0.7750993
vn 0.333239 -0.4960121 0.8018253
vn 0.2914998 -0.5040953 0.8129672
vn 0.2071605 -0.517229 0.8303967
vn 0.1645733 -0.5223061 0.8367269
vn 0.07799603 -0.529541 0.8446911
vn 0.03400315 -0.5316653 0.8462717
vn -0.05318197 -0.5328231 0.8445538
vn -0.09637693 -0.5318913 0.8413103
vn -0.182711 -0.5269902 0.8299988
vn -0.225843 -0.5229864 0.821876
vn -0.3098707 -0.5120711 0.8011013
vn -0.3507786 -0.5051928 0.7885015
vn -0.4309298 -0.4885106 0.7587205
vn -0.4701527 -0.4786808 0.7414992
vn -0.545357 -0.4564137 0.7030449
vn -0.5813598 -0.4439892 0.6818315
vn -0.6497957 -0.4167164 0.6356989
vn -0.6822349 -0.4018704 0.610783
vn -0.7133287 -0.3862915 0.5847573
vn -0.7133287 -0.3862915 0.5847573
vn 0.03887475 -0.6954587 -0.7175137
vn 0.04176838 -0.6636202 -0.7469026
vn 0.02976419 -0.782984 -0.6213294
vn 0.03287301 -0.7551449 -0.6547331
vn 0.02008184 -0.857653 -0.5138366
vn 0.02336926 -0.8342487 -0.5508929
vn 0.01011799 -0.9172185 -0.3982559
vn 0.01345576 -0.8991149 -0.4375056
vn -8.382881E-05 -0.961418 -0.2750915
vn 0.003348211 -0.9484003 -0.3170578
vn -0.01022406 -0.988941 -0.1479563
vn -0.006869769 -0.9816565 -0.1905342
vn -0.02024637 -0.9996408 -0.01755838
vn -0.01691272 -0.9979655 -0.06147284
vn -0.02987073 -0.993207 0.1124624
vn -0.02672482 -0.9972302 0.0694109
vn -0.03901787 -0.9697348 0.2410226
vn -0.03601812 -0.979485 0.1982723
vn -0.04748788 -0.9296646 0.3653336
vn -0.04475189 -0.9448107 0.3245458
vn -0.05511634 -0.8739163 0.4829416
vn -0.05266986 -0.8942146 0.4445291
vn -0.06184314 -0.8028711 0.5929364
vn -0.05970415 -0.8282581 0.557157
vn -0.06749091 -0.718307 0.692445
vn -0.0657355 -0.7478798 0.6605715
vn -0.07197802 -0.6216698 0.7799652
vn -0.07061235 -0.6552051 0.7521436
vn -0.07525595 -0.5137796 0.8546151
vn -0.07430087 -0.5509688 0.8312116
vn -0.07722932 -0.3978035 0.9142144
vn -0.0767182 -0.4371846 0.8960937
vn -0.07788924 -0.2742493 0.9584991
vn -0.07781729 -0.3163448 0.9454471
vn -0.07721534 -0.1467412 0.9861566
vn -0.07758574 -0.189441 0.978822
vn -0.07521187 -0.01598901 0.9970394
vn -0.07603092 -0.06001959 0.9952975
vn -0.07193387 0.1143565 0.990832
vn -0.07316096 0.07120065 0.9947754
vn -0.07057437 0.1572143 0.9850395
vn -0.07057437 0.1572143 0.9850395
vn 0.06375597 -0.3267753 -0.9429491
vn 0.06844422 -0.2168467 -0.9738033
vn 0.06844422 -0.2168467 -0.9738033
vn 0.06174908 -0.3675717 -0.9279429
vn 0.05739315 -0.4469223 -0.8927297
vn 0.05504357 -0.485476 -0.8725154
vn 0.05002438 -0.5598947 -0.8270522
vn 0.04735275 -0.5957489 -0.8017735
vn 0.04179064 -0.6633669 -0.7471263
vn 0.03890248 -0.6951635 -0.7177982
vn 0.032873 -0.755145 -0.6547329
vn 0.02972979 -0.783281 -0.6209565
vn 0.02334427 -0.8344339 -0.5506133
vn 0.02010354 -0.8575047 -0.514083
vn 0.01347077 -0.8990294 -0.437681
vn 0.01007748 -0.9174269 -0.3977763
vn 0.003307361 -0.9485662 -0.3165614
vn -6.866267E-05 -0.9613646 -0.2752782
vn -0.006847474 -0.981602 -0.1908155
vn -0.01025008 -0.9889905 -0.147624
vn -0.01694909 -0.997994 -0.06099665
vn -0.02024641 -0.9996408 -0.01755774
vn -0.02670133 -0.9972529 0.06909154
vn -0.02985927 -0.9932251 0.1123045
vn -0.03787151 -0.9737117 0.2246134
vn -0.03787151 -0.9737117 0.2246134
vn 0.996962 -0.02150702 0.07486114
vn 0.996962 -0.02150702 0.07486114
vn 0.996962 -0.02150702 0.07486114
vn 0.996962 -0.02150702 0.07486114
vn 0.996962 -0.02150702 0.07486113
vn 0.996962 -0.02150702 0.07486114
vn 0.996962 -0.02150702 0.07486113
vn 0.996962 -0.02150702 0.07486114
vn 0.996962 -0.02150702 0.07486114
vn 0.996962 -0.02150702 0.07486113
vn 0.996962 -0.02150702 0.07486114
vn 0.996962 -0.02150702 0.07486114
vn 0.996962 -0.02150702 0.07486114
vn 0.996962 -0.02150702 0.07486114
vn 0.996962 -0.02150702 0.07486114
vn 0.996962 -0.02150702 0.07486114
vn 0.996962 -0.02150702 0.07486114
vn 0.996962 -0.02150702 0.07486114
vn 0.996962 -0.02150702 0.07486114
vn 0.996962 -0.02150702 0.07486114
vn 0.996962 -0.02150702 0.07486114
vn 0.996962 -0.02150702 0.07486114
vn 0.996962 -0.02150702 0.07486113
vn 0.996962 -0.02150702 0.07486114
vn 0.996962 -0.02150702 0.07486114
vn 0.996962 -0.02150702 0.07486114
vn 0.996962 -0.02150702 0.07486114
vn 0.996962 -0.02150702 0.07486114
vn 0.996962 -0.02150702 0.07486114
vn 0.996962 -0.02150702 0.07486114
vn 0.996962 -0.02150702 0.07486114
vn 0.996962 -0.02150702 0.07486114
vn 0.996962 -0.02150702 0.07486114
vn 0.996962 -0.02150702 0.07486114
vn 0.996962 -0.02150702 0.07486114
vn 0.996962 -0.02150702 0.07486114
vn 0.996962 -0.02150702 0.07486114
vn 0.996962 -0.02150702 0.07486114
vn 0.996962 -0.02150702 0.07486114
vn 0.996962 -0.02150702 0.07486114
vn 0.996962 -0.02150702 0.07486114
vn 0.996962 -0.02150702 0.07486113
vn 0.996962 -0.02150702 0.07486114
vn 0.996962 -0.02150702 0.07486114
vn 0.996962 -0.02150702 0.07486114
vn 0.996962 -0.02150702 0.07486114
vn 0.996962 -0.02150702 0.07486113
vn 0.996962 -0.02150702 0.07486114
vn 0.996962 -0.02150702 0.07486114
vn -0.996962 0.02150702 -0.07486114
vn -0.996962 0.02150702 -0.07486114
vn -0.996962 0.02150702 -0.07486114
vn -0.996962 0.02150702 -0.07486114
vn -0.996962 0.02150702 -0.07486113
vn -0.996962 0.02150702 -0.07486114
vn -0.996962 0.02150702 -0.07486113
vn -0.996962 0.02150702 -0.07486114
vn -0.996962 0.02150702 -0.07486114
vn -0.996962 0.02150702 -0.07486113
vn -0.996962 0.02150702 -0.07486114
vn -0.996962 0.02150702 -0.07486114
vn -0.996962 0.02150702 -0.07486114
vn -0.996962 0.02150702 -0.07486114
vn -0.996962 0.02150702 -0.07486114
vn -0.996962 0.02150702 -0.07486114
vn -0.996962 0.02150702 -0.07486114
vn -0.996962 0.02150702 -0.07486114
vn -0.996962 0.02150702 -0.07486114
vn -0.996962 0.02150702 -0.07486114
vn -0.996962 0.02150702 -0.07486114
vn -0.996962 0.02150702 -0.07486114
vn -0.996962 0.02150702 -0.07486113
vn -0.996962 0.02150702 -0.07486114
vn -0.996962 0.02150702 -0.07486114
vn -0.996962 0.02150702 -0.07486114
vn -0.996962 0.02150702 -0.07486114
vn -0.996962 0.02150702 -0.07486114
vn -0.996962 0.02150702 -0.07486114
vn -0.996962 0.02150702 -0.07486114
vn -0.996962 0.02150702 -0.07486114
vn -0.996962 0.02150702 -0.07486114
vn -0.996962 0.02150702 -0.07486114
vn -0.996962 0.02150702 -0.07486114
vn -0.996962 0.02150702 -0.07486114
vn -0.996962 0.02150702 -0.07486114
vn -0.996962 0.02150702 -0.07486114
vn -0.996962 0.02150702 -0.07486114
vn -0.996962 0.02150702 -0.07486114
vn -0.996962 0.02150702 -0.07486114
vn -0.996962 0.02150702 -0.07486114
vn -0.996962 0.02150702 -0.07486113
vn -0.996962 0.02150702 -0.07486114
vn -0.996962 0.02150702 -0.07486114
vn -0.996962 0.02150702 -0.07486114
vn -0.996962 0.02150702 -0.07486114
vn -0.996962 0.02150702 -0.07486113
vn -0.996962 0.02150702 -0.07486114
vn -0.996962 0.02150702 -0.07486114
vn 0.996962 -0.02150702 0.07486114
vn 0.996962 -0.02150702 0.07486114
vn 0.996962 -0.02150702 0.07486114
vn 0.996962 -0.02150702 0.07486114
vn 0.996962 -0.02150702 0.07486113
vn 0.996962 -0.02150702 0.07486114
vn 0.996962 -0.02150702 0.07486114
vn 0.996962 -0.02150702 0.07486114
vn 0.996962 -0.02150702 0.07486114
vn 0.996962 -0.02150702 0.07486114
vn 0.996962 -0.02150702 0.07486114
vn 0.996962 -0.02150702 0.07486114
vn 0.996962 -0.02150702 0.07486114
vn 0.996962 -0.02150702 0.07486114
vn 0.996962 -0.02150702 0.07486114
vn 0.996962 -0.02150702 0.07486114
vn 0.996962 -0.02150702 0.07486114
vn 0.996962 -0.02150702 0.07486114
vn 0.996962 -0.02150702 0.07486114
vn 0.996962 -0.02150702 0.07486114
vn 0.996962 -0.02150702 0.07486114
vn 0.996962 -0.02150702 0.07486114
vn 0.996962 -0.02150702 0.07486113
vn 0.996962 -0.02150702 0.07486114
vn 0.996962 -0.02150702 0.07486114
vn 0.996962 -0.02150702 0.07486114
vn 0.996962 -0.02150702 0.07486114
vn 0.996962 -0.02150702 0.07486114
vn 0.996962 -0.02150702 0.07486113
vn 0.996962 -0.02150702 0.07486114
vn 0.996962 -0.02150702 0.07486114
vn 0.996962 -0.02150702 0.07486114
vn 0.996962 -0.02150702 0.07486114
vn 0.996962 -0.02150702 0.07486114
vn 0.996962 -0.02150702 0.07486114
vn 0.996962 -0.02150702 0.07486114
vn 0.996962 -0.02150702 0.07486114
vn 0.996962 -0.02150702 0.07486114
vn 0.996962 -0.02150702 0.07486114
vn 0.996962 -0.02150702 0.07486114
vn 0.996962 -0.02150702 0.07486114
vn 0.996962 -0.02150702 0.07486114
vn 0.996962 -0.02150702 0.07486114
vn 0.996962 -0.02150702 0.07486114
vn 0.996962 -0.02150702 0.07486114
vn 0.996962 -0.02150702 0.07486114
vn 0.996962 -0.02150702 0.07486113
vn 0.996962 -0.02150702 0.07486114
vn 0.996962 -0.02150702 0.07486114
vn 0.01344437 -0.8991798 -0.4373726
vn 0.0233664 -0.8342698 -0.5508609
vn 0.02008112 -0.8576578 -0.5138285
vn 0.01009394 -0.9173424 -0.3979712
vn 0.003348877 -0.9483976 -0.3170659
vn -4.598302E-05 -0.9612847 -0.2755572
vn -0.00684305 -0.9815912 -0.1908713
vn -0.01024565 -0.9889821 -0.1476806
vn -0.0169269 -0.9979766 -0.06128722
vn -0.02020625 -0.9996322 -0.0180901
vn -0.02668575 -0.997268 0.06887964
vn -0.02988404 -0.9931858 0.1126457
vn -0.0360373 -0.9794293 0.1985437
vn -0.03899455 -0.969819 0.2406878
vn -0.04472082 -0.94497 0.3240863
vn -0.04748726 -0.9296683 0.3653243
vn -0.05268773 -0.8940754 0.4448071
vn -0.0551246 -0.8738433 0.4830726
vn -0.05970472 -0.828252 0.5571663
vn -0.06184495 -0.8028481 0.5929671
vn -0.06574104 -0.7477917 0.6606706
vn -0.06749918 -0.718159 0.6925977
vn -0.07061936 -0.6550443 0.7522831
vn -0.07198198 -0.6215656 0.780048
vn -0.07430176 -0.5509369 0.8312327
vn -0.07525617 -0.5137707 0.8546205
vn -0.07672021 -0.43705 0.8961591
vn -0.07723247 -0.3975175 0.9143385
vn -0.07781727 -0.3163533 0.9454444
vn -0.07788929 -0.274717 0.9583652
vn -0.0775881 -0.1897802 0.978756
vn -0.07721251 -0.1464661 0.9861978
vn -0.07602778 -0.05983464 0.9953087
vn -0.07522267 -0.01652273 0.9970299
vn -0.07317521 0.07066844 0.9948123
vn -0.07192833 0.1145411 0.9908111
vn -0.06905109 0.2006388 0.9772288
vn -0.06742525 0.2428762 0.9677112
vn -0.06377137 0.32645 0.9430608
vn -0.06173896 0.3677697 0.9278651
vn -0.05736503 0.4473998 0.8924924
vn -0.05502748 0.4857311 0.8723744
vn -0.05002095 0.5599423 0.8270203
vn -0.04734923 0.5957947 0.8017398
vn -0.0417715 0.6635847 0.7469341
vn -0.03886647 0.6955467 0.7174288
vn -0.03285796 0.7552846 0.6545728
vn -0.02975456 0.7830671 0.621225
vn -0.0233664 0.8342698 0.5508609
vn -0.02008112 0.8576578 0.5138285
vn -0.01344437 0.8991798 0.4373726
vn -0.01009394 0.9173424 0.3979712
vn -0.003348877 0.9483976 0.3170659
vn 4.598302E-05 0.9612847 0.2755572
vn 0.00684305 0.9815912 0.1908713
vn 0.01024565 0.9889821 0.1476806
vn 0.0169269 0.9979766 0.06128722
vn 0.02020625 0.9996322 0.0180901
vn 0.02668575 0.997268 -0.06887964
vn 0.02988404 0.9931858 -0.1126457
vn 0.0360373 0.9794293 -0.1985437
vn 0.03899455 0.969819 -0.2406878
vn 0.04472082 0.94497 -0.3240863
vn 0.04748726 0.9296683 -0.3653243
vn 0.05268773 0.8940754 -0.4448071
vn 0.0551246 0.8738433 -0.4830726
vn 0.05970472 0.828252 -0.5571663
vn 0.06184495 0.8028481 -0.5929671
vn 0.06574104 0.7477917 -0.6606706
vn 0.06749918 0.718159 -0.6925977
vn 0.07061936 0.6550443 -0.7522831
vn 0.07198198 0.6215656 -0.780048
vn 0.07430176 0.5509369 -0.8312327
vn 0.07525617 0.5137707 -0.8546205
vn 0.07672021 0.43705 -0.8961591
vn 0.07723247 0.3975175 -0.9143385
vn 0.07781727 0.3163533 -0.9454444
vn 0.07788929 0.274717 -0.9583652
vn 0.0775881 0.1897802 -0.978756
vn 0.07721251 0.1464661 -0.9861978
vn 0.07602778 0.05983464 -0.9953087
vn 0.07522267 0.01652273 -0.9970299
vn 0.07317521 -0.07066844 -0.9948123
vn 0.07192833 -0.1145411 -0.9908111
vn 0.06905109 -0.2006388 -0.9772288
vn 0.06742525 -0.2428762 -0.9677112
vn 0.06377137 -0.32645 -0.9430608
vn 0.06173896 -0.3677697 -0.9278651
vn 0.05736503 -0.4473998 -0.8924924
vn 0.05502748 -0.4857311 -0.8723744
vn 0.05002095 -0.5599423 -0.8270203
vn 0.04734923 -0.5957947 -0.8017398
vn 0.0417715 -0.6635847 -0.7469341
vn 0.03886647 -0.6955467 -0.7174288
vn 0.03285796 -0.7552846 -0.6545728
vn 0.02975456 -0.7830671 -0.621225
vn -0.996962 0.02150702 -0.07486114
vn -0.996962 0.02150702 -0.07486114
vn -0.996962 0.02150702 -0.07486114
vn -0.996962 0.02150702 -0.07486114
vn -0.996962 0.02150702 -0.07486113
vn -0.996962 0.02150702 -0.07486114
vn -0.996962 0.02150702 -0.07486114
vn -0.996962 0.02150702 -0.07486114
vn -0.996962 0.02150702 -0.07486114
vn -0.996962 0.02150702 -0.07486113
vn -0.996962 0.02150702 -0.07486113
vn -0.996962 0.02150702 -0.07486114
vn -0.996962 0.02150702 -0.07486113
vn -0.996962 0.02150702 -0.07486114
vn -0.996962 0.02150702 -0.07486114
vn -0.996962 0.02150702 -0.07486114
vn -0.996962 0.02150702 -0.07486114
vn -0.996962 0.02150702 -0.07486114
vn -0.996962 0.02150702 -0.07486114
vn -0.996962 0.02150702 -0.07486114
vn -0.996962 0.02150702 -0.07486114
vn -0.996962 0.02150702 -0.07486114
vn -0.996962 0.02150702 -0.07486113
vn -0.996962 0.02150702 -0.07486114
vn -0.996962 0.02150702 -0.07486114
vn -0.996962 0.02150702 -0.07486114
vn -0.996962 0.02150702 -0.07486114
vn -0.996962 0.02150702 -0.07486114
vn -0.996962 0.02150702 -0.07486113
vn -0.996962 0.02150702 -0.07486114
vn -0.996962 0.02150702 -0.07486114
vn -0.996962 0.02150702 -0.07486114
vn -0.996962 0.02150702 -0.07486114
vn -0.996962 0.02150702 -0.07486113
vn -0.996962 0.02150702 -0.07486113
vn -0.996962 0.02150702 -0.07486114
vn -0.996962 0.02150702 -0.07486113
vn -0.996962 0.02150702 -0.07486114
vn -0.996962 0.02150702 -0.07486114
vn -0.996962 0.02150702 -0.07486114
vn -0.996962 0.02150702 -0.07486114
vn -0.996962 0.02150702 -0.07486114
vn -0.996962 0.02150702 -0.07486114
vn -0.996962 0.02150702 -0.07486114
vn -0.996962 0.02150702 -0.07486114
vn -0.996962 0.02150702 -0.07486114
vn -0.996962 0.02150702 -0.07486113
vn -0.996962 0.02150702 -0.07486114
vn -0.996962 0.02150702 -0.07486114
vn 0.021729 -0.8461679 -0.5324731
vn 0.021729 -0.8461679 -0.5324731
vn 0.021729 -0.8461679 -0.5324731
vn 0.021729 -0.8461679 -0.5324731
vn -0.05014401 -0.9126803 0.4055861
vn -0.05014401 -0.9126803 0.4055861
vn 0.021729 -0.8461679 -0.5324731
vn 0.021729 -0.8461679 -0.5324731
vn 0.021729 -0.8461679 -0.5324731
vn 0.021729 -0.8461679 -0.5324731
vn 0.07427309 -0.02695111 -0.9968736
vn 0.07427309 -0.02695111 -0.9968736
vn -0.996962 0.02150702 -0.07486114
vn -0.996962 0.02150702 -0.07486113
vn -0.996962 0.02150702 -0.07486114
vn -0.996962 0.02150702 -0.07486114
vn -0.996962 0.02150702 -0.07486114
vn -0.996962 0.02150702 -0.07486114
vn -0.996962 0.02150702 -0.07486113
vn -0.996962 0.02150702 -0.07486114
vn -0.996962 0.02150702 -0.07486113
vn -0.996962 0.02150702 -0.07486113
vn -0.996962 0.02150702 -0.07486114
vn 0.996962 -0.02150702 0.07486114
vn 0.996962 -0.02150702 0.07486113
vn 0.996962 -0.02150702 0.07486114
vn 0.996962 -0.02150702 0.07486114
vn 0.996962 -0.02150702 0.07486114
vn 0.996962 -0.02150702 0.07486114
vn 0.996962 -0.02150702 0.07486113
vn 0.996962 -0.02150702 0.07486114
vn 0.996962 -0.02150702 0.07486113
vn 0.996962 -0.02150702 0.07486113
vn 0.996962 -0.02150702 0.07486114
vt 10 28
vt 16 28
vt 16 -8
vt 10 -8
vt 13.661 9.139771
vt 12 8.364
vt 12 4.364
vt 13.661 5.139771
vt 15.29401 9.793991
vt 15.29401 5.793991
vt 16.87101 10.3152
vt 16.87101 6.315203
vt 18.364 10.69322
vt 18.364 6.693224
vt 19.74881 10.9236
vt 19.74881 6.9236
vt 20.99997 10.99997
vt 20.99997 6.999969
vt 22.09839 10.9236
vt 22.09839 6.9236
vt 23.02245 10.69322
vt 23.02245 6.693224
vt 23.7594 10.3152
vt 23.7594 6.315203
vt 24.29398 9.793991
vt 24.29398 5.793991
vt 24.61854 9.139771
vt 24.61854 5.139771
vt 24.728 8.364
vt 16.364 4.364
vt 21.13977 7.478767
vt 17.13977 3.478767
vt 21.79399 6.499984
vt 17.79399 2.499984
vt 22.3152 5.444197
vt 18.3152 1.444197
vt -10 -28
vt -4 -28
vt -4 8
vt -10 8
vt -10 18
vt 10 18
vt 10 -18
vt -10 -18
vt -6 7.46
vt -17 7.46
vt -17 0.54
vt -6 0.54
vt 4 0.54
vt -7 0.54
vt -7 7.46
vt 4 7.46
vt -5 19.46
vt 6 19.46
vt 6 12.54
vt -5 12.54
vt 16 19.46
vt 12 19.46
vt 12 12.54
vt 16 12.54
vt 12.8 10
vt 1.8 10
vt 1.8 15.6
vt 12.8 15.6
vt 14.48 18.96
vt 13.46 19.46
vt 2.46 19.46
vt -6.52 18.96
vt 6 12.54
vt 4.48 10
vt -6.52 10
vt -5 12.54
vt 3.46 7.46
vt -7.54 7.46
vt -3.46 0.54
vt 5.52 1.04
vt -15.48 1.04
vt -14.46 0.54
vt 6.54 0.54
vt -4.46 0.54
vt 13.46 7.46
vt 14.48 10
vt 3.48 10
vt 2.46 7.46
vt 16 12.54
vt 12 12.54
vt 3.48 10
vt 3.48 18.96
vt 3.46 19.46
vt -0.54 19.46
vt -6.52 3.48
vt -8.2 1.8
vt -13.8 1.8
vt -15.48 3.48
vt -14.68 0.5200005
vt -17 2.46
vt -15 -1
vt -17 -1
vt -14.68 -2.52
vt -17 -4.46
vt -13.8 -3.8
vt -15.48 -5.48
vt -12.52 -4.68
vt -14.46 -7
vt -11 -5
vt -11 -7
vt -9.48 -4.68
vt -7.54 -7
vt -8.2 -3.8
vt -6.52 -5.48
vt -7.32 -2.52
vt -5 -4.46
vt -7 -1
vt -5 -1
vt -7.32 0.5200005
vt -5 2.46
vt 3.14132 15.55184
vt 2.8 15.6
vt -8.2 15.6
vt -7.85868 15.55184
vt 3.42916 15.40904
vt -7.57084 15.40904
vt 3.65848 15.17384
vt -7.34152 15.17384
vt 3.8248 14.8496
vt -7.1752 14.8496
vt 3.92616 14.44304
vt -7.07384 14.44304
vt 3.95976 13.95976
vt -1 13.95976
vt 9.48312 13.40928
vt -1.51688 13.40928
vt 8.9752 12.8
vt -2.0248 12.8
vt 8.48464 12.14312
vt -2.51536 12.14312
vt 8.02012 11.44928
vt -2.97988 11.44928
vt 7.58948 10.7308
vt -3.41052 10.7308
vt 7.2 10
vt -3.8 10
vt 6.85868 9.269199
vt -4.14132 9.269199
vt 6.57084 8.55072
vt -4.42916 8.55072
vt 6.34152 7.85688
vt -4.65848 7.85688
vt 6.1752 7.2
vt -4.8248 7.2
vt 6.07384 6.59072
vt -4.92616 6.59072
vt 6.04024 6.04024
vt -4.95976 6.04024
vt 6.07384 5.55696
vt -4.92616 5.55696
vt 6.1752 5.1504
vt -4.8248 5.1504
vt 6.34152 4.82616
vt -4.65848 4.82616
vt 6.57084 4.59096
vt -4.42916 4.59096
vt 6.85868 4.44816
vt -4.14132 4.44816
vt 7.2 4.4
vt -13.8 4.4
vt -3.14132 4.44816
vt -14.14132 4.44816
vt -3.42916 4.59096
vt -14.42916 4.59096
vt -3.65848 4.82616
vt -14.65848 4.82616
vt -3.8248 5.1504
vt -14.8248 5.1504
vt -3.92616 5.55696
vt -14.92616 5.55696
vt -3.95976 6.04024
vt -14.95976 6.04024
vt -3.92616 6.59072
vt -14.92616 6.59072
vt -3.8248 7.2
vt -14.8248 7.2
vt -3.65848 7.85688
vt -14.65848 7.85688
vt -3.42916 8.55072
vt -14.42916 8.55072
vt -3.14132 9.269199
vt -14.14132 9.269199
vt -2.8 10
vt -13.8 10
vt -6 -12.54
vt -17 -12.54
vt -17 -19.46
vt -6 -19.46
vt -4 -0.54
vt -15 -0.54
vt -15 -7.46
vt -4 -7.46
vt -5 -0.54
vt 6 -0.54
vt 6 -7.46
vt -5 -7.46
vt -16 -19.46
vt -7.46 -19.46
vt -0.54 -12.54
vt -16 -12.54
vt -12.8 -10
vt -23.8 -10
vt -23.8 -15.6
vt -12.8 -15.6
vt -5 -7.46
vt 6 -7.46
vt 4.48 -10
vt -6.52 -10
vt -16.52 -1.04
vt 4.48 -1.04
vt -6.54 -0.54
vt -17.54 -0.54
vt -7.54 -0.54
vt 3.46 -0.54
vt -16.52 -10
vt -5.52 -10
vt -4 -7.46
vt -15 -7.46
vt -17.54 -12.54
vt -6.54 -12.54
vt -25.48 -18.96
vt -4.48 -18.96
vt -13.46 -19.46
vt -24.46 -19.46
vt -7.46 -19.46
vt -3.46 -19.46
vt -15.48 -18.96
vt -6.52 -10
vt 3.46 -12.54
vt -0.54 -12.54
vt -13.8 -23.8
vt -8.2 -23.8
vt -6.52 -25.48
vt -15.48 -25.48
vt -17 -24.46
vt -14.68 -22.52
vt -17 -21
vt -15 -21
vt -17 -17.54
vt -14.68 -19.48
vt -15.48 -16.52
vt -13.8 -18.2
vt -14.46 -15
vt -12.52 -17.32
vt -11 -15
vt -11 -17
vt -7.54 -15
vt -9.48 -17.32
vt -6.52 -16.52
vt -8.2 -18.2
vt -5 -17.54
vt -7.32 -19.48
vt -5 -21
vt -7 -21
vt -5 -24.46
vt -7.32 -22.52
vt -3.14132 -15.55184
vt -2.8 -15.6
vt -13.8 -15.6
vt -14.14132 -15.55184
vt -3.42916 -15.40904
vt -14.42916 -15.40904
vt -3.65848 -15.17384
vt -14.65848 -15.17384
vt -3.8248 -14.8496
vt -14.8248 -14.8496
vt -3.92616 -14.44304
vt -14.92616 -14.44304
vt -3.95976 -13.95976
vt -14.95976 -13.95976
vt -3.92616 -13.40928
vt -14.92616 -13.40928
vt -3.8248 -12.8
vt -14.8248 -12.8
vt -3.65848 -12.14312
vt -14.65848 -12.14312
vt -3.42916 -11.44928
vt -14.42916 -11.44928
vt -3.14132 -10.7308
vt -14.14132 -10.7308
vt -2.8 -10
vt -13.8 -10
vt -2.41052 -9.269199
vt -13.41052 -9.269199
vt -1.97988 -8.55072
vt -12.97988 -8.55072
vt -1.51536 -7.85688
vt -12.51536 -7.85688
vt -1.0248 -7.2
vt -12.0248 -7.2
vt -0.51688 -6.59072
vt -11.51688 -6.59072
vt 0 -6.04024
vt -17.04024 -6.04024
vt -6.07384 -5.55696
vt -17.07384 -5.55696
vt -6.1752 -5.1504
vt -17.1752 -5.1504
vt -6.34152 -4.82616
vt -17.34152 -4.82616
vt -6.57084 -4.59096
vt -17.57084 -4.59096
vt -6.85868 -4.44816
vt -17.85868 -4.44816
vt -7.2 -4.4
vt -8.2 -4.4
vt 3.14132 -4.44816
vt -7.85868 -4.44816
vt 3.42916 -4.59096
vt -7.57084 -4.59096
vt 3.65848 -4.82616
vt -7.34152 -4.82616
vt 3.8248 -5.1504
vt -7.1752 -5.1504
vt 3.92616 -5.55696
vt -7.07384 -5.55696
vt 3.95976 -6.04024
vt -21 -6.04024
vt -10.51688 -6.59072
vt -21.51688 -6.59072
vt -11.0248 -7.2
vt -22.0248 -7.2
vt -11.51536 -7.85688
vt -22.51536 -7.85688
vt -11.97988 -8.55072
vt -22.97988 -8.55072
vt -12.41052 -9.269199
vt -23.41052 -9.269199
vt -12.8 -10
vt -23.8 -10
vt 18.69285 0.3293862
vt 22.69285 4.329386
vt 18.9227 -0.8252401
vt 22.9227 3.17476
vt 21.00009 -2.000108
vt 23.00019 1.999892
vt 19.74789 -3.17486
vt 19.74789 0.8251402
vt 18.36425 -4.329563
vt 18.36425 -0.3295627
vt 16.87065 -5.444143
vt 16.87065 -1.444143
vt 15.29439 -6.500274
vt 15.29439 -2.500274
vt 13.66139 -7.478654
vt 13.66139 -3.478654
vt 12.00004 -8.364079
vt 12.00004 -4.364079
vt 10.33852 -9.14003
vt 10.33852 -5.140029
vt 8.705638 -9.793937
vt 8.705638 -5.793937
vt 7.129199 -10.3149
vt 7.129199 -6.3149
vt 5.636539 -10.69285
vt 5.636539 -6.692847
vt 4.252065 -10.9227
vt 4.252065 -6.922695
vt 9.999891 -11.00019
vt 2.999698 -7.000194
vt 8.82514 -10.92275
vt 12.82514 -6.922753
vt 7.670437 -10.69381
vt 11.67044 -6.69381
vt 6.555857 -10.31479
vt 10.55586 -6.314789
vt 5.499726 -9.794661
vt 9.499725 -5.79466
vt 4.521346 -9.14004
vt 8.521346 -5.14004
vt 3.635921 -8.364117
vt 7.635921 -4.364117
vt 22.86023 12.52123
vt -0.7279997 11.636
vt -0.7279997 -24.364
vt -13.13977 -23.47877
vt 22.20601 13.50002
vt -13.79399 -22.49998
vt 21.6848 14.5558
vt -14.3152 -21.4442
vt 21.30678 15.67078
vt -14.69322 -20.32922
vt 21.0764 16.82521
vt -14.9236 -19.17479
vt 21.00003 18
vt 3.000031 -18
vt 4.251194 19.17479
vt 4.251194 -16.82521
vt 5.636 20.32922
vt 5.636 -15.67078
vt 7.128994 21.4442
vt 7.128994 -14.5558
vt 8.705994 22.49998
vt 8.705994 -13.50002
vt 10.339 23.47877
vt 10.339 -12.52123
vt 12 24.364
vt 12 -11.636
vt 18.9226 -0.8255
vt 19 -2
vt 10 -2
vt 18.6931 0.3292
vt 18.3151 1.4443
vt 17.794 2.5
vt 17.1406 3.4792
vt 16.3639 4.3639
vt 15.4792 5.1406
vt 14.5 5.794
vt 13.4443 6.3151
vt 12.3292 6.6931
vt 11.1745 6.9226
vt 10 7
vt 8.8255 6.9226
vt 7.6708 6.6931
vt 6.5557 6.3151
vt 5.5 5.794
vt 4.5208 5.1406
vt 3.6361 4.3639
vt 2.8594 3.4792
vt 2.206 2.5
vt 1.6849 1.4443
vt 1.3069 0.3292
vt 1.0774 -0.8255
vt 1 -2
vt 1.0774 -3.1745
vt 1.3069 -4.3292
vt 1.6849 -5.4443
vt 2.206 -6.5
vt 2.8594 -7.4792
vt 3.6361 -8.363899
vt 4.5208 -9.1406
vt 5.5 -9.794001
vt 6.5557 -10.3151
vt 7.6708 -10.6931
vt 8.8255 -10.9226
vt 10 -11
vt 11.1745 -10.9226
vt 12.3292 -10.6931
vt 13.4443 -10.3151
vt 14.5 -9.794001
vt 15.4792 -9.1406
vt 16.3639 -8.363899
vt 17.1406 -7.4792
vt 17.794 -6.5
vt 18.3151 -5.4443
vt 18.6931 -4.3292
vt 18.9226 -3.1745
vt 22.9226 0.8255
vt 23 2
vt 14 2
vt 22.6931 -0.3292
vt 22.3151 -1.4443
vt 21.794 -2.5
vt 21.1406 -3.4792
vt 20.3639 -4.3639
vt 19.4792 -5.1406
vt 18.5 -5.794
vt 17.4443 -6.3151
vt 16.3292 -6.6931
vt 15.1745 -6.9226
vt 14 -7
vt 12.8255 -6.9226
vt 11.6708 -6.6931
vt 10.5557 -6.3151
vt 9.5 -5.794
vt 8.5208 -5.1406
vt 7.6361 -4.3639
vt 6.8594 -3.4792
vt 6.206 -2.5
vt 5.6849 -1.4443
vt 5.3069 -0.3292
vt 5.0774 0.8255
vt 5 2
vt 5.0774 3.1745
vt 5.3069 4.3292
vt 5.6849 5.4443
vt 6.206 6.5
vt 6.8594 7.4792
vt 7.6361 8.363899
vt 8.5208 9.1406
vt 9.5 9.794001
vt 10.5557 10.3151
vt 11.6708 10.6931
vt 12.8255 10.9226
vt 14 11
vt 15.1745 10.9226
vt 16.3292 10.6931
vt 17.4443 10.3151
vt 18.5 9.794001
vt 19.4792 9.1406
vt 20.3639 8.363899
vt 21.1406 7.4792
vt 21.794 6.5
vt 22.3151 5.4443
vt 22.6931 4.3292
vt 22.9226 3.1745
vt 5.0542 -10.3115
vt 5.08 -9.92
vt 2.08 -9.92
vt 4.9777 -10.6964
vt 4.8517 -11.0681
vt 4.677999 -11.42
vt 4.460199 -11.7464
vt 4.2013 -12.0413
vt 3.9064 -12.3002
vt 3.58 -12.518
vt 3.2281 -12.6917
vt 2.8564 -12.8177
vt 2.4715 -12.8942
vt 2.08 -12.92
vt 1.688499 -12.8942
vt 1.3036 -12.8177
vt 0.9319 -12.6917
vt 0.5799999 -12.518
vt 0.2536001 -12.3002
vt -0.04129982 -12.0413
vt -0.3001995 -11.7464
vt -0.5179996 -11.42
vt -0.6917 -11.0681
vt -0.8177004 -10.6964
vt -0.8942003 -10.3115
vt -0.9200001 -9.92
vt -0.8942003 -9.5285
vt -0.8177004 -9.1436
vt -0.6917 -8.7719
vt -0.5179996 -8.42
vt -0.3001995 -8.0936
vt -0.04129982 -7.7987
vt 0.2536001 -7.5398
vt 0.5799999 -7.322
vt 0.9319 -7.1483
vt 1.3036 -7.0223
vt 1.688499 -6.9458
vt 2.08 -6.92
vt 2.4715 -6.9458
vt 2.8564 -7.0223
vt 3.2281 -7.1483
vt 3.58 -7.322
vt 3.9064 -7.5398
vt 4.2013 -7.7987
vt 4.460199 -8.0936
vt 4.677999 -8.42
vt 4.8517 -8.7719
vt 4.9777 -9.1436
vt 5.0542 -9.5285
vt 14.5827 9.5285
vt 24.92 9.92
vt 15 -9.92
vt 14.5827 -10.3115
vt 14.1213 9.1436
vt 14.1213 -10.6964
vt 13.6236 8.7719
vt 13.6236 -11.0681
vt 13.098 8.42
vt 13.098 -11.42
vt 12.5538 8.0936
vt 12.5538 -11.7464
vt 12 7.7987
vt 12 -12.0413
vt 11.4462 7.5398
vt 11.4462 -12.3002
vt 10.902 7.322
vt 10.902 -12.518
vt 10.3764 7.1483
vt 10.3764 -12.6917
vt 9.878699 7.0223
vt 9.878699 -12.8177
vt 9.4173 6.9458
vt 9.4173 -12.8942
vt 9 6.92
vt 2.08 -12.92
vt 21.5285 6.9458
vt 1.688499 -12.8942
vt 21.1436 7.0223
vt 1.3036 -12.8177
vt 20.7719 7.1483
vt 0.9319 -12.6917
vt 20.42 7.322
vt 0.5799999 -12.518
vt 20.0936 7.5398
vt 0.2536001 -12.3002
vt 19.7987 7.7987
vt -0.04129982 -12.0413
vt 19.5398 8.0936
vt -0.3001995 -11.7464
vt 19.322 8.42
vt -0.5179996 -11.42
vt 19.1483 8.7719
vt -0.6917 -11.0681
vt 19.0223 9.1436
vt -0.8177004 -10.6964
vt 18.9458 9.5285
vt -0.8942003 -10.3115
vt 18.92 9.92
vt 9 -9.92
vt 9.417299 10.3115
vt 9.417299 -9.5285
vt 9.878699 10.6964
vt 9.878699 -9.1436
vt 10.3764 11.0681
vt 10.3764 -8.7719
vt 10.902 11.42
vt 10.902 -8.42
vt 11.4462 11.7464
vt 11.4462 -8.0936
vt 12 12.0413
vt 12 -7.7987
vt 12.5538 12.3002
vt 12.5538 -7.5398
vt 13.098 12.518
vt 13.098 -7.322
vt 13.6236 12.6917
vt 13.6236 -7.1483
vt 14.1213 12.8177
vt 14.1213 -7.0223
vt 14.5827 12.8942
vt 14.5827 -6.9458
vt 15 12.92
vt 15 -6.92
vt 15.3657 12.8942
vt 15.3657 -6.9458
vt 15.6741 12.8177
vt 15.6741 -7.0223
vt 15.9198 12.6917
vt 15.9198 -7.1483
vt 16.098 12.518
vt 16.098 -7.322
vt 16.2066 12.3002
vt 16.2066 -7.5398
vt 16.2426 12.0413
vt 4.2013 -7.7987
vt 24.3002 11.7464
vt 4.460199 -8.0936
vt 24.518 11.42
vt 4.677999 -8.42
vt 24.6917 11.0681
vt 4.8517 -8.7719
vt 24.8177 10.6964
vt 4.9777 -9.1436
vt 24.8942 10.3115
vt 5.0542 -9.5285
vt 24.8942 9.5285
vt 24.92 9.92
vt 21.92 9.92
vt 24.8177 9.1436
vt 24.6917 8.7719
vt 24.518 8.42
vt 24.3002 8.0936
vt 24.0413 7.7987
vt 23.7464 7.5398
vt 23.42 7.322
vt 23.0681 7.1483
vt 22.6964 7.0223
vt 22.3115 6.9458
vt 21.92 6.92
vt 21.5285 6.9458
vt 21.1436 7.0223
vt 20.7719 7.1483
vt 20.42 7.322
vt 20.0936 7.5398
vt 19.7987 7.7987
vt 19.5398 8.0936
vt 19.322 8.42
vt 19.1483 8.7719
vt 19.0223 9.1436
vt 18.9458 9.5285
vt 18.92 9.92
vt 18.9458 10.3115
vt 19.0223 10.6964
vt 19.1483 11.0681
vt 19.322 11.42
vt 19.5398 11.7464
vt 19.7987 12.0413
vt 20.0936 12.3002
vt 20.42 12.518
vt 20.7719 12.6917
vt 21.1436 12.8177
vt 21.5285 12.8942
vt 21.92 12.92
vt 22.3115 12.8942
vt 22.6964 12.8177
vt 23.0681 12.6917
vt 23.42 12.518
vt 23.7464 12.3002
vt 24.0413 12.0413
vt 24.3002 11.7464
vt 24.518 11.42
vt 24.6917 11.0681
vt 24.8177 10.6964
vt 24.8942 10.3115
vt 12.607 24
vt 12.607 -12
vt 16 -12
vt 16 24
vt 12.607 -11.393
vt 12.607 24.607
vt -0.6069999 -12
vt -0.6069999 24
vt -4 24
vt -4 -12
vt -0.6069999 11.393
vt -0.6069999 -24.607
vt 24 24.607
vt 24 28
vt 23.636 24.364
vt 21.685 21.444
vt 18 28
vt 21 18
vt 21.685 14.556
vt 18 8
vt 23.636 11.636
vt 24 8
vt 24 11.393
vt -12 -24.607
vt -12 -28
vt -12.364 -24.364
vt -14.315 -21.444
vt -18 -28
vt -15 -18
vt -14.315 -14.556
vt -18 -8
vt -12.364 -11.636
vt -12 -8
vt -12 -11.393
usemtl 15
f 3/3/3 2/2/2 1/1/1
f 1/1/1 4/4/4 3/3/3
f 5/5/5 6/6/6 7/7/7
f 7/7/7 8/8/8 5/5/5
f 9/9/9 5/5/5 8/8/8
f 8/8/8 10/10/10 9/9/9
f 11/11/11 9/9/9 10/10/10
f 10/10/10 12/12/12 11/11/11
f 13/13/13 11/11/11 12/12/12
f 12/12/12 14/14/14 13/13/13
f 15/15/15 13/13/13 14/14/14
f 14/14/14 16/16/16 15/15/15
f 17/17/17 15/15/15 16/16/16
f 16/16/16 18/18/18 17/17/17
f 19/19/19 17/17/17 18/18/18
f 18/18/18 20/20/20 19/19/19
f 21/21/21 19/19/19 20/20/20
f 20/20/20 22/22/22 21/21/21
f 23/23/23 21/21/21 22/22/22
f 22/22/22 24/24/24 23/23/23
f 25/25/25 23/23/23 24/24/24
f 24/24/24 26/26/26 25/25/25
f 27/27/27 25/25/25 26/26/26
f 26/26/26 28/28/28 27/27/27
f 29/29/29 27/27/27 28/28/28
f 28/28/28 30/30/30 29/29/29
f 31/31/31 29/29/29 30/30/30
f 30/30/30 32/32/32 31/31/31
f 33/33/33 31/31/31 32/32/32
f 32/32/32 34/34/34 33/33/33
f 35/35/35 33/33/33 34/34/34
f 34/34/34 36/36/36 35/35/35
f 39/39/39 38/38/38 37/37/37
f 37/37/37 40/40/40 39/39/39
f 43/43/43 42/42/42 41/41/41
f 41/41/41 44/44/44 43/43/43
f 47/47/47 46/46/46 45/45/45
f 45/45/45 48/48/48 47/47/47
f 51/51/51 50/50/50 49/49/49
f 49/49/49 52/52/52 51/51/51
f 55/55/55 54/54/54 53/53/53
f 53/53/53 56/56/56 55/55/55
f 59/59/59 58/58/58 57/57/57
f 57/57/57 60/60/60 59/59/59
f 63/63/63 62/62/62 61/61/61
f 61/61/61 64/64/64 63/63/63
f 67/67/67 66/66/66 65/65/65
f 65/65/65 68/68/68 67/67/67
f 71/71/71 70/70/70 69/69/69
f 69/69/69 72/72/72 71/71/71
f 74/74/74 73/73/73 70/70/70
f 70/70/70 71/71/71 74/74/74
f 77/77/77 76/76/76 75/75/75
f 75/75/75 78/78/78 77/77/77
f 80/80/80 79/79/79 76/76/76
f 76/76/76 77/77/77 80/80/80
f 83/83/83 82/82/82 81/81/81
f 81/81/81 84/84/84 83/83/83
f 86/86/86 85/85/85 82/82/82
f 82/82/82 83/83/83 86/86/86
f 58/58/58 59/59/59 87/87/87
f 87/87/87 88/88/88 58/58/58
f 68/68/68 65/65/65 89/89/89
f 89/89/89 90/90/90 68/68/68
f 93/93/93 92/92/92 91/91/91
f 91/91/91 94/94/94 93/93/93
f 96/96/96 95/95/95 93/93/93
f 93/93/93 94/94/94 96/96/96
f 98/98/98 97/97/97 95/95/95
f 95/95/95 96/96/96 98/98/98
f 100/100/100 99/99/99 97/97/97
f 97/97/97 98/98/98 100/100/100
f 102/102/102 101/101/101 99/99/99
f 99/99/99 100/100/100 102/102/102
f 104/104/104 103/103/103 101/101/101
f 101/101/101 102/102/102 104/104/104
f 106/106/106 105/105/105 103/103/103
f 103/103/103 104/104/104 106/106/106
f 108/108/108 107/107/107 105/105/105
f 105/105/105 106/106/106 108/108/108
f 110/110/110 109/109/109 107/107/107
f 107/107/107 108/108/108 110/110/110
f 112/112/112 111/111/111 109/109/109
f 109/109/109 110/110/110 112/112/112
f 114/114/114 113/113/113 111/111/111
f 111/111/111 112/112/112 114/114/114
f 116/116/116 115/115/115 113/113/113
f 113/113/113 114/114/114 116/116/116
f 91/91/91 92/92/92 115/115/115
f 115/115/115 116/116/116 91/91/91
f 119/119/119 118/118/118 117/117/117
f 117/117/117 120/120/120 119/119/119
f 120/120/120 117/117/117 121/121/121
f 121/121/121 122/122/122 120/120/120
f 122/122/122 121/121/121 123/123/123
f 123/123/123 124/124/124 122/122/122
f 124/124/124 123/123/123 125/125/125
f 125/125/125 126/126/126 124/124/124
f 126/126/126 125/125/125 127/127/127
f 127/127/127 128/128/128 126/126/126
f 128/128/128 127/127/127 129/129/129
f 129/129/129 130/130/130 128/128/128
f 130/130/130 129/129/129 131/131/131
f 131/131/131 132/132/132 130/130/130
f 132/132/132 131/131/131 133/133/133
f 133/133/133 134/134/134 132/132/132
f 134/134/134 133/133/133 135/135/135
f 135/135/135 136/136/136 134/134/134
f 136/136/136 135/135/135 137/137/137
f 137/137/137 138/138/138 136/136/136
f 138/138/138 137/137/137 139/139/139
f 139/139/139 140/140/140 138/138/138
f 140/140/140 139/139/139 141/141/141
f 141/141/141 142/142/142 140/140/140
f 142/142/142 141/141/141 143/143/143
f 143/143/143 144/144/144 142/142/142
f 144/144/144 143/143/143 145/145/145
f 145/145/145 146/146/146 144/144/144
f 146/146/146 145/145/145 147/147/147
f 147/147/147 148/148/148 146/146/146
f 148/148/148 147/147/147 149/149/149
f 149/149/149 150/150/150 148/148/148
f 150/150/150 149/149/149 151/151/151
f 151/151/151 152/152/152 150/150/150
f 152/152/152 151/151/151 153/153/153
f 153/153/153 154/154/154 152/152/152
f 154/154/154 153/153/153 155/155/155
f 155/155/155 156/156/156 154/154/154
f 156/156/156 155/155/155 157/157/157
f 157/157/157 158/158/158 156/156/156
f 158/158/158 157/157/157 159/159/159
f 159/159/159 160/160/160 158/158/158
f 160/160/160 159/159/159 161/161/161
f 161/161/161 162/162/162 160/160/160
f 162/162/162 161/161/161 163/163/163
f 163/163/163 164/164/164 162/162/162
f 164/164/164 163/163/163 165/165/165
f 165/165/165 166/166/166 164/164/164
f 166/166/166 165/165/165 167/167/167
f 167/167/167 168/168/168 166/166/166
f 168/168/168 167/167/167 169/169/169
f 169/169/169 170/170/170 168/168/168
f 170/170/170 169/169/169 171/171/171
f 171/171/171 172/172/172 170/170/170
f 172/172/172 171/171/171 173/173/173
f 173/173/173 174/174/174 172/172/172
f 174/174/174 173/173/173 175/175/175
f 175/175/175 176/176/176 174/174/174
f 176/176/176 175/175/175 177/177/177
f 177/177/177 178/178/178 176/176/176
f 178/178/178 177/177/177 179/179/179
f 179/179/179 180/180/180 178/178/178
f 180/180/180 179/179/179 181/181/181
f 181/181/181 182/182/182 180/180/180
f 182/182/182 181/181/181 183/183/183
f 183/183/183 184/184/184 182/182/182
f 184/184/184 183/183/183 185/185/185
f 185/185/185 186/186/186 184/184/184
f 186/186/186 185/185/185 187/187/187
f 187/187/187 188/188/188 186/186/186
f 188/188/188 187/187/187 189/189/189
f 189/189/189 190/190/190 188/188/188
f 193/193/193 192/192/192 191/191/191
f 191/191/191 194/194/194 193/193/193
f 197/197/197 196/196/196 195/195/195
f 195/195/195 198/198/198 197/197/197
f 201/201/201 200/200/200 199/199/199
f 199/199/199 202/202/202 201/201/201
f 205/205/205 204/204/204 203/203/203
f 203/203/203 206/206/206 205/205/205
f 209/209/209 208/208/208 207/207/207
f 207/207/207 210/210/210 209/209/209
f 213/213/213 212/212/212 211/211/211
f 211/211/211 214/214/214 213/213/213
f 217/217/217 216/216/216 215/215/215
f 215/215/215 218/218/218 217/217/217
f 216/216/216 220/220/220 219/219/219
f 219/219/219 215/215/215 216/216/216
f 223/223/223 222/222/222 221/221/221
f 221/221/221 224/224/224 223/223/223
f 222/222/222 226/226/226 225/225/225
f 225/225/225 221/221/221 222/222/222
f 229/229/229 228/228/228 227/227/227
f 227/227/227 230/230/230 229/229/229
f 228/228/228 232/232/232 231/231/231
f 231/231/231 227/227/227 228/228/228
f 233/233/233 204/204/204 205/205/205
f 205/205/205 234/234/234 233/233/233
f 235/235/235 213/213/213 214/214/214
f 214/214/214 236/236/236 235/235/235
f 239/239/239 238/238/238 237/237/237
f 237/237/237 240/240/240 239/239/239
f 237/237/237 242/242/242 241/241/241
f 241/241/241 240/240/240 237/237/237
f 242/242/242 244/244/244 243/243/243
f 243/243/243 241/241/241 242/242/242
f 244/244/244 246/246/246 245/245/245
f 245/245/245 243/243/243 244/244/244
f 246/246/246 248/248/248 247/247/247
f 247/247/247 245/245/245 246/246/246
f 248/248/248 250/250/250 249/249/249
f 249/249/249 247/247/247 248/248/248
f 250/250/250 252/252/252 251/251/251
f 251/251/251 249/249/249 250/250/250
f 252/252/252 254/254/254 253/253/253
f 253/253/253 251/251/251 252/252/252
f 254/254/254 256/256/256 255/255/255
f 255/255/255 253/253/253 254/254/254
f 256/256/256 258/258/258 257/257/257
f 257/257/257 255/255/255 256/256/256
f 258/258/258 260/260/260 259/259/259
f 259/259/259 257/257/257 258/258/258
f 260/260/260 262/262/262 261/261/261
f 261/261/261 259/259/259 260/260/260
f 262/262/262 238/238/238 239/239/239
f 239/239/239 261/261/261 262/262/262
f 265/265/265 264/264/264 263/263/263
f 263/263/263 266/266/266 265/265/265
f 266/266/266 263/263/263 267/267/267
f 267/267/267 268/268/268 266/266/266
f 268/268/268 267/267/267 269/269/269
f 269/269/269 270/270/270 268/268/268
f 270/270/270 269/269/269 271/271/271
f 271/271/271 272/272/272 270/270/270
f 272/272/272 271/271/271 273/273/273
f 273/273/273 274/274/274 272/272/272
f 274/274/274 273/273/273 275/275/275
f 275/275/275 276/276/276 274/274/274
f 276/276/276 275/275/275 277/277/277
f 277/277/277 278/278/278 276/276/276
f 278/278/278 277/277/277 279/279/279
f 279/279/279 280/280/280 278/278/278
f 280/280/280 279/279/279 281/281/281
f 281/281/281 282/282/282 280/280/280
f 282/282/282 281/281/281 283/283/283
f 283/283/283 284/284/284 282/282/282
f 284/284/284 283/283/283 285/285/285
f 285/285/285 286/286/286 284/284/284
f 286/286/286 285/285/285 287/287/287
f 287/287/287 288/288/288 286/286/286
f 288/288/288 287/287/287 289/289/289
f 289/289/289 290/290/290 288/288/288
f 290/290/290 289/289/289 291/291/291
f 291/291/291 292/292/292 290/290/290
f 292/292/292 291/291/291 293/293/293
f 293/293/293 294/294/294 292/292/292
f 294/294/294 293/293/293 295/295/295
f 295/295/295 296/296/296 294/294/294
f 296/296/296 295/295/295 297/297/297
f 297/297/297 298/298/298 296/296/296
f 298/298/298 297/297/297 299/299/299
f 299/299/299 300/300/300 298/298/298
f 300/300/300 299/299/299 301/301/301
f 301/301/301 302/302/302 300/300/300
f 302/302/302 301/301/301 303/303/303
f 303/303/303 304/304/304 302/302/302
f 304/304/304 303/303/303 305/305/305
f 305/305/305 306/306/306 304/304/304
f 306/306/306 305/305/305 307/307/307
f 307/307/307 308/308/308 306/306/306
f 308/308/308 307/307/307 309/309/309
f 309/309/309 310/310/310 308/308/308
f 310/310/310 309/309/309 311/311/311
f 311/311/311 312/312/312 310/310/310
f 312/312/312 311/311/311 313/313/313
f 313/313/313 314/314/314 312/312/312
f 314/314/314 313/313/313 315/315/315
f 315/315/315 316/316/316 314/314/314
f 316/316/316 315/315/315 317/317/317
f 317/317/317 318/318/318 316/316/316
f 318/318/318 317/317/317 319/319/319
f 319/319/319 320/320/320 318/318/318
f 320/320/320 319/319/319 321/321/321
f 321/321/321 322/322/322 320/320/320
f 322/322/322 321/321/321 323/323/323
f 323/323/323 324/324/324 322/322/322
f 324/324/324 323/323/323 325/325/325
f 325/325/325 326/326/326 324/324/324
f 326/326/326 325/325/325 327/327/327
f 327/327/327 328/328/328 326/326/326
f 328/328/328 327/327/327 329/329/329
f 329/329/329 330/330/330 328/328/328
f 330/330/330 329/329/329 331/331/331
f 331/331/331 332/332/332 330/330/330
f 332/332/332 331/331/331 333/333/333
f 333/333/333 334/334/334 332/332/332
f 334/334/334 333/333/333 335/335/335
f 335/335/335 336/336/336 334/334/334
f 36/36/36 337/337/337 338/338/338
f 338/338/338 35/35/35 36/36/36
f 337/337/337 339/339/339 340/340/340
f 340/340/340 338/338/338 337/337/337
f 339/339/339 341/341/341 342/342/342
f 342/342/342 340/340/340 339/339/339
f 341/341/341 343/343/343 344/344/344
f 344/344/344 342/342/342 341/341/341
f 343/343/343 345/345/345 346/346/346
f 346/346/346 344/344/344 343/343/343
f 345/345/345 347/347/347 348/348/348
f 348/348/348 346/346/346 345/345/345
f 347/347/347 349/349/349 350/350/350
f 350/350/350 348/348/348 347/347/347
f 349/349/349 351/351/351 352/352/352
f 352/352/352 350/350/350 349/349/349
f 351/351/351 353/353/353 354/354/354
f 354/354/354 352/352/352 351/351/351
f 353/353/353 355/355/355 356/356/356
f 356/356/356 354/354/354 353/353/353
f 355/355/355 357/357/357 358/358/358
f 358/358/358 356/356/356 355/355/355
f 357/357/357 359/359/359 360/360/360
f 360/360/360 358/358/358 357/357/357
f 359/359/359 361/361/361 362/362/362
f 362/362/362 360/360/360 359/359/359
f 361/361/361 363/363/363 364/364/364
f 364/364/364 362/362/362 361/361/361
f 363/363/363 365/365/365 366/366/366
f 366/366/366 364/364/364 363/363/363
f 365/365/365 367/367/367 368/368/368
f 368/368/368 366/366/366 365/365/365
f 367/367/367 369/369/369 370/370/370
f 370/370/370 368/368/368 367/367/367
f 369/369/369 371/371/371 372/372/372
f 372/372/372 370/370/370 369/369/369
f 371/371/371 373/373/373 374/374/374
f 374/374/374 372/372/372 371/371/371
f 373/373/373 375/375/375 376/376/376
f 376/376/376 374/374/374 373/373/373
f 375/375/375 377/377/377 378/378/378
f 378/378/378 376/376/376 375/375/375
f 381/381/381 380/380/380 379/379/379
f 379/379/379 382/382/382 381/381/381
f 382/382/382 379/379/379 383/383/383
f 383/383/383 384/384/384 382/382/382
f 384/384/384 383/383/383 385/385/385
f 385/385/385 386/386/386 384/384/384
f 386/386/386 385/385/385 387/387/387
f 387/387/387 388/388/388 386/386/386
f 388/388/388 387/387/387 389/389/389
f 389/389/389 390/390/390 388/388/388
f 390/390/390 389/389/389 391/391/391
f 391/391/391 392/392/392 390/390/390
f 392/392/392 391/391/391 393/393/393
f 393/393/393 394/394/394 392/392/392
f 394/394/394 393/393/393 395/395/395
f 395/395/395 396/396/396 394/394/394
f 396/396/396 395/395/395 397/397/397
f 397/397/397 398/398/398 396/396/396
f 398/398/398 397/397/397 399/399/399
f 399/399/399 400/400/400 398/398/398
f 400/400/400 399/399/399 401/401/401
f 401/401/401 402/402/402 400/400/400
f 402/402/402 401/401/401 403/403/403
f 403/403/403 404/404/404 402/402/402
f 407/407/407 406/406/406 405/405/405
f 407/407/407 405/405/405 408/408/408
f 407/407/407 408/408/408 409/409/409
f 407/407/407 409/409/409 410/410/410
f 407/407/407 410/410/410 411/411/411
f 407/407/407 411/411/411 412/412/412
f 407/407/407 412/412/412 413/413/413
f 407/407/407 413/413/413 414/414/414
f 407/407/407 414/414/414 415/415/415
f 407/407/407 415/415/415 416/416/416
f 407/407/407 416/416/416 417/417/417
f 407/407/407 417/417/417 418/418/418
f 407/407/407 418/418/418 419/419/419
f 407/407/407 419/419/419 420/420/420
f 407/407/407 420/420/420 421/421/421
f 407/407/407 421/421/421 422/422/422
f 407/407/407 422/422/422 423/423/423
f 407/407/407 423/423/423 424/424/424
f 407/407/407 424/424/424 425/425/425
f 407/407/407 425/425/425 426/426/426
f 407/407/407 426/426/426 427/427/427
f 407/407/407 427/427/427 428/428/428
f 407/407/407 428/428/428 429/429/429
f 407/407/407 429/429/429 430/430/430
f 407/407/407 430/430/430 431/431/431
f 407/407/407 431/431/431 432/432/432
f 407/407/407 432/432/432 433/433/433
f 407/407/407 433/433/433 434/434/434
f 407/407/407 434/434/434 435/435/435
f 407/407/407 435/435/435 436/436/436
f 407/407/407 436/436/436 437/437/437
f 407/407/407 437/437/437 438/438/438
f 407/407/407 438/438/438 439/439/439
f 407/407/407 439/439/439 440/440/440
f 407/407/407 440/440/440 441/441/441
f 407/407/407 441/441/441 442/442/442
f 407/407/407 442/442/442 443/443/443
f 407/407/407 443/443/443 444/444/444
f 407/407/407 444/444/444 445/445/445
f 407/407/407 445/445/445 446/446/446
f 407/407/407 446/446/446 447/447/447
f 407/407/407 447/447/447 448/448/448
f 407/407/407 448/448/448 449/449/449
f 407/407/407 449/449/449 450/450/450
f 407/407/407 450/450/450 451/451/451
f 407/407/407 451/451/451 452/452/452
f 407/407/407 452/452/452 453/453/453
f 407/407/407 453/453/453 406/406/406
f 456/456/456 455/455/455 454/454/454
f 456/456/456 454/454/454 457/457/457
f 456/456/456 457/457/457 458/458/458
f 456/456/456 458/458/458 459/459/459
f 456/456/456 459/459/459 460/460/460
f 456/456/456 460/460/460 461/461/461
f 456/456/456 461/461/461 462/462/462
f 456/456/456 462/462/462 463/463/463
f 456/456/456 463/463/463 464/464/464
f 456/456/456 464/464/464 465/465/465
f 456/456/456 465/465/465 466/466/466
f 456/456/456 466/466/466 467/467/467
f 456/456/456 467/467/467 468/468/468
f 456/456/456 468/468/468 469/469/469
f 456/456/456 469/469/469 470/470/470
f 456/456/456 470/470/470 471/471/471
f 456/456/456 471/471/471 472/472/472
f 456/456/456 472/472/472 473/473/473
f 456/456/456 473/473/473 474/474/474
f 456/456/456 474/474/474 475/475/475
f 456/456/456 475/475/475 476/476/476
f 456/456/456 476/476/476 477/477/477
f 456/456/456 477/477/477 478/478/478
f 456/456/456 478/478/478 479/479/479
f 456/456/456 479/479/479 480/480/480
f 456/456/456 480/480/480 481/481/481
f 456/456/456 481/481/481 482/482/482
f 456/456/456 482/482/482 483/483/483
f 456/456/456 483/483/483 484/484/484
f 456/456/456 484/484/484 485/485/485
f 456/456/456 485/485/485 486/486/486
f 456/456/456 486/486/486 487/487/487
f 456/456/456 487/487/487 488/488/488
f 456/456/456 488/488/488 489/489/489
f 456/456/456 489/489/489 490/490/490
f 456/456/456 490/490/490 491/491/491
f 456/456/456 491/491/491 492/492/492
f 456/456/456 492/492/492 493/493/493
f 456/456/456 493/493/493 494/494/494
f 456/456/456 494/494/494 495/495/495
f 456/456/456 495/495/495 496/496/496
f 456/456/456 496/496/496 497/497/497
f 456/456/456 497/497/497 498/498/498
f 456/456/456 498/498/498 499/499/499
f 456/456/456 499/499/499 500/500/500
f 456/456/456 500/500/500 501/501/501
f 456/456/456 501/501/501 502/502/502
f 456/456/456 502/502/502 455/455/455
f 503/503/503 504/504/504 505/505/505
f 506/506/506 503/503/503 505/505/505
f 507/507/507 506/506/506 505/505/505
f 508/508/508 507/507/507 505/505/505
f 509/509/509 508/508/508 505/505/505
f 510/510/510 509/509/509 505/505/505
f 511/511/511 510/510/510 505/505/505
f 512/512/512 511/511/511 505/505/505
f 513/513/513 512/512/512 505/505/505
f 514/514/514 513/513/513 505/505/505
f 515/515/515 514/514/514 505/505/505
f 516/516/516 515/515/515 505/505/505
f 517/517/517 516/516/516 505/505/505
f 518/518/518 517/517/517 505/505/505
f 519/519/519 518/518/518 505/505/505
f 520/520/520 519/519/519 505/505/505
f 521/521/521 520/520/520 505/505/505
f 522/522/522 521/521/521 505/505/505
f 523/523/523 522/522/522 505/505/505
f 524/524/524 523/523/523 505/505/505
f 525/525/525 524/524/524 505/505/505
f 526/526/526 525/525/525 505/505/505
f 527/527/527 526/526/526 505/505/505
f 528/528/528 527/527/527 505/505/505
f 529/529/529 528/528/528 505/505/505
f 530/530/530 529/529/529 505/505/505
f 531/531/531 530/530/530 505/505/505
f 532/532/532 531/531/531 505/505/505
f 533/533/533 532/532/532 505/505/505
f 534/534/534 533/533/533 505/505/505
f 535/535/535 534/534/534 505/505/505
f 536/536/536 535/535/535 505/505/505
f 537/537/537 536/536/536 505/505/505
f 538/538/538 537/537/537 505/505/505
f 539/539/539 538/538/538 505/505/505
f 540/540/540 539/539/539 505/505/505
f 541/541/541 540/540/540 505/505/505
f 542/542/542 541/541/541 505/505/505
f 543/543/543 542/542/542 505/505/505
f 544/544/544 543/543/543 505/505/505
f 545/545/545 544/544/544 505/505/505
f 546/546/546 545/545/545 505/505/505
f 547/547/547 546/546/546 505/505/505
f 548/548/548 547/547/547 505/505/505
f 549/549/549 548/548/548 505/505/505
f 550/550/550 549/549/549 505/505/505
f 551/551/551 550/550/550 505/505/505
f 504/504/504 551/551/551 505/505/505
f 552/552/552 553/553/553 554/554/554
f 554/554/554 555/555/555 552/552/552
f 556/556/556 552/552/552 555/555/555
f 555/555/555 557/557/557 556/556/556
f 558/558/558 556/556/556 557/557/557
f 557/557/557 559/559/559 558/558/558
f 560/560/560 558/558/558 559/559/559
f 559/559/559 561/561/561 560/560/560
f 562/562/562 560/560/560 561/561/561
f 561/561/561 563/563/563 562/562/562
f 564/564/564 562/562/562 563/563/563
f 563/563/563 565/565/565 564/564/564
f 566/566/566 564/564/564 565/565/565
f 565/565/565 567/567/567 566/566/566
f 568/568/568 566/566/566 567/567/567
f 567/567/567 569/569/569 568/568/568
f 570/570/570 568/568/568 569/569/569
f 569/569/569 571/571/571 570/570/570
f 572/572/572 570/570/570 571/571/571
f 571/571/571 573/573/573 572/572/572
f 574/574/574 572/572/572 573/573/573
f 573/573/573 575/575/575 574/574/574
f 576/576/576 574/574/574 575/575/575
f 575/575/575 577/577/577 576/576/576
f 578/578/578 576/576/576 577/577/577
f 577/577/577 579/579/579 578/578/578
f 580/580/580 578/578/578 579/579/579
f 579/579/579 581/581/581 580/580/580
f 582/582/582 580/580/580 581/581/581
f 581/581/581 583/583/583 582/582/582
f 584/584/584 582/582/582 583/583/583
f 583/583/583 585/585/585 584/584/584
f 586/586/586 584/584/584 585/585/585
f 585/585/585 587/587/587 586/586/586
f 588/588/588 586/586/586 587/587/587
f 587/587/587 589/589/589 588/588/588
f 590/590/590 588/588/588 589/589/589
f 589/589/589 591/591/591 590/590/590
f 592/592/592 590/590/590 591/591/591
f 591/591/591 593/593/593 592/592/592
f 594/594/594 592/592/592 593/593/593
f 593/593/593 595/595/595 594/594/594
f 596/596/596 594/594/594 595/595/595
f 595/595/595 597/597/597 596/596/596
f 598/598/598 596/596/596 597/597/597
f 597/597/597 599/599/599 598/598/598
f 600/600/600 598/598/598 599/599/599
f 599/599/599 601/601/601 600/600/600
f 602/602/602 600/600/600 601/601/601
f 601/601/601 603/603/603 602/602/602
f 604/604/604 602/602/602 603/603/603
f 603/603/603 605/605/605 604/604/604
f 606/606/606 604/604/604 605/605/605
f 605/605/605 607/607/607 606/606/606
f 608/608/608 606/606/606 607/607/607
f 607/607/607 609/609/609 608/608/608
f 610/610/610 608/608/608 609/609/609
f 609/609/609 611/611/611 610/610/610
f 612/612/612 610/610/610 611/611/611
f 611/611/611 613/613/613 612/612/612
f 614/614/614 612/612/612 613/613/613
f 613/613/613 615/615/615 614/614/614
f 616/616/616 614/614/614 615/615/615
f 615/615/615 617/617/617 616/616/616
f 618/618/618 616/616/616 617/617/617
f 617/617/617 619/619/619 618/618/618
f 620/620/620 618/618/618 619/619/619
f 619/619/619 621/621/621 620/620/620
f 622/622/622 620/620/620 621/621/621
f 621/621/621 623/623/623 622/622/622
f 624/624/624 622/622/622 623/623/623
f 623/623/623 625/625/625 624/624/624
f 626/626/626 624/624/624 625/625/625
f 625/625/625 627/627/627 626/626/626
f 628/628/628 626/626/626 627/627/627
f 627/627/627 629/629/629 628/628/628
f 630/630/630 628/628/628 629/629/629
f 629/629/629 631/631/631 630/630/630
f 632/632/632 630/630/630 631/631/631
f 631/631/631 633/633/633 632/632/632
f 634/634/634 632/632/632 633/633/633
f 633/633/633 635/635/635 634/634/634
f 636/636/636 634/634/634 635/635/635
f 635/635/635 637/637/637 636/636/636
f 638/638/638 636/636/636 637/637/637
f 637/637/637 639/639/639 638/638/638
f 640/640/640 638/638/638 639/639/639
f 639/639/639 641/641/641 640/640/640
f 642/642/642 640/640/640 641/641/641
f 641/641/641 643/643/643 642/642/642
f 644/644/644 642/642/642 643/643/643
f 643/643/643 645/645/645 644/644/644
f 646/646/646 644/644/644 645/645/645
f 645/645/645 647/647/647 646/646/646
f 553/553/553 646/646/646 647/647/647
f 647/647/647 554/554/554 553/553/553
f 650/650/650 649/649/649 648/648/648
f 650/650/650 648/648/648 651/651/651
f 650/650/650 651/651/651 652/652/652
f 650/650/650 652/652/652 653/653/653
f 650/650/650 653/653/653 654/654/654
f 650/650/650 654/654/654 655/655/655
f 650/650/650 655/655/655 656/656/656
f 650/650/650 656/656/656 657/657/657
f 650/650/650 657/657/657 658/658/658
f 650/650/650 658/658/658 659/659/659
f 650/650/650 659/659/659 660/660/660
f 650/650/650 660/660/660 661/661/661
f 650/650/650 661/661/661 662/662/662
f 650/650/650 662/662/662 663/663/663
f 650/650/650 663/663/663 664/664/664
f 650/650/650 664/664/664 665/665/665
f 650/650/650 665/665/665 666/666/666
f 650/650/650 666/666/666 667/667/667
f 650/650/650 667/667/667 668/668/668
f 650/650/650 668/668/668 669/669/669
f 650/650/650 669/669/669 670/670/670
f 650/650/650 670/670/670 671/671/671
f 650/650/650 671/671/671 672/672/672
f 650/650/650 672/672/672 673/673/673
f 650/650/650 673/673/673 674/674/674
f 650/650/650 674/674/674 675/675/675
f 650/650/650 675/675/675 676/676/676
f 650/650/650 676/676/676 677/677/677
f 650/650/650 677/677/677 678/678/678
f 650/650/650 678/678/678 679/679/679
f 650/650/650 679/679/679 680/680/680
f 650/650/650 680/680/680 681/681/681
f 650/650/650 681/681/681 682/682/682
f 650/650/650 682/682/682 683/683/683
f 650/650/650 683/683/683 684/684/684
f 650/650/650 684/684/684 685/685/685
f 650/650/650 685/685/685 686/686/686
f 650/650/650 686/686/686 687/687/687
f 650/650/650 687/687/687 688/688/688
f 650/650/650 688/688/688 689/689/689
f 650/650/650 689/689/689 690/690/690
f 650/650/650 690/690/690 691/691/691
f 650/650/650 691/691/691 692/692/692
f 650/650/650 692/692/692 693/693/693
f 650/650/650 693/693/693 694/694/694
f 650/650/650 694/694/694 695/695/695
f 650/650/650 695/695/695 696/696/696
f 650/650/650 696/696/696 649/649/649
f 699/699/699 698/698/698 697/697/697
f 697/697/697 700/700/700 699/699/699
f 701/701/701 404/404/404 403/403/403
f 403/403/403 702/702/702 701/701/701
f 705/705/705 704/704/704 703/703/703
f 703/703/703 706/706/706 705/705/705
f 707/707/707 380/380/380 381/381/381
f 381/381/381 708/708/708 707/707/707
f 711/711/711 710/710/710 709/709/709
f 710/710/710 711/711/711 712/712/712
f 712/712/712 713/713/713 710/710/710
f 714/714/714 713/713/713 712/712/712
f 713/713/713 714/714/714 715/715/715
f 715/715/715 716/716/716 713/713/713
f 716/716/716 715/715/715 717/717/717
f 717/717/717 718/718/718 716/716/716
f 719/719/719 718/718/718 717/717/717
f 722/722/722 721/721/721 720/720/720
f 721/721/721 722/722/722 723/723/723
f 723/723/723 724/724/724 721/721/721
f 725/725/725 724/724/724 723/723/723
f 724/724/724 725/725/725 726/726/726
f 726/726/726 727/727/727 724/724/724
f 727/727/727 726/726/726 728/728/728
f 728/728/728 729/729/729 727/727/727
f 730/730/730 729/729/729 728/728/728
