0 FILE UntitledModel
0 Untitled Model
0 Name:  UntitledModel
0 Author:  
0 CustomBrick
0 FlexibleBrickControlPointUnitLength -1
0 FlexibleBrickLockedControlPoint 
0 STEP
0 STEP
0 STEP
1 16 0.000000 0.000000 0.000000 1.000000 0.000000 0.000000 0.000000 1.000000 0.000000 0.000000 0.000000 1.000000 清华积木相框（无贴纸）.io copy_
0 STEP
0 NOFILE
0 FILE 清华积木相框（无贴纸）.io Copy_
0 清华积木相框（无贴纸）.io Copy_
0 Name:  清华积木相框（无贴纸）.io Copy_
0 Author:  
0 CustomBrick
0 FlexibleBrickControlPointUnitLength -1
0 FlexibleBrickLockedControlPoint 
1 26 56.386170 -160.004200 445.494300 0.000000 -0.999996 -0.000001 0.999997 -0.000001 -0.000001 -0.000001 0.000000 1.000000 91405.dat
0 STEP
1 26 56.386260 -160.004000 105.492900 0.000000 -0.999996 -0.000001 0.999997 -0.000001 -0.000001 -0.000001 0.000000 1.000000 3027.dat
1 26 56.386470 -160.004000 225.494000 0.000000 -0.999996 -0.000001 0.999997 -0.000001 -0.000001 -0.000001 0.000000 1.000000 3027.dat
1 30 64.386490 -160.004100 185.494000 0.000000 -0.999996 0.000001 -0.999997 -0.000001 0.000000 0.000002 0.000000 -1.000000 10202.dat
1 30 64.386330 -160.004000 305.494000 0.000000 -0.999996 0.000001 -0.999997 -0.000001 0.000000 0.000002 0.000000 -1.000000 10202.dat
1 30 64.386120 -160.004100 425.494300 0.000000 -0.999996 0.000001 -0.999997 -0.000001 0.000000 0.000002 0.000000 -1.000000 10202.dat
1 30 64.386000 -160.004100 545.494600 0.000000 -0.999996 0.000001 -0.999997 -0.000001 0.000000 0.000002 0.000000 -1.000000 10202.dat
0 STEP
1 30 64.386440 -230.003800 205.493900 -0.000001 -0.999996 0.000000 -0.000001 -0.000001 -0.999997 1.000000 0.000000 0.000001 4162.dat
1 30 64.385980 -230.003900 525.494400 -0.000001 -0.999996 0.000000 -0.000001 -0.000001 -0.999997 1.000000 0.000000 0.000001 4162.dat
1 30 64.386260 -230.003800 365.494100 -0.000001 -0.999996 0.000000 -0.000001 -0.000001 -0.999997 1.000000 0.000000 0.000001 4162.dat
0 STEP
1 26 56.385980 -380.003300 505.495200 0.000001 -0.999996 0.000000 0.000001 -0.000001 0.999997 -1.000000 0.000000 -0.000001 3030.dat
1 26 56.386000 -330.003300 505.495200 0.000001 -0.999996 0.000000 0.000001 -0.000001 0.999997 -1.000000 0.000000 -0.000001 4477.dat
1 30 64.385960 -300.003400 545.495700 0.000000 -0.999996 0.000001 -0.999997 -0.000001 0.000000 0.000002 0.000000 -1.000000 10202.dat
0 STEP
1 26 56.386300 -380.003100 305.495100 0.000001 -0.999996 0.000000 0.000001 -0.000001 0.999997 -1.000000 0.000000 -0.000001 3030.dat
1 26 56.385500 -330.003800 305.494100 0.000001 -0.999996 0.000000 0.000001 -0.000001 0.999997 -1.000000 0.000000 -0.000001 4477.dat
1 30 64.386120 -300.003400 425.495300 0.000000 -0.999996 0.000001 -0.999997 -0.000001 0.000000 0.000002 0.000000 -1.000000 10202.dat
0 STEP
1 26 56.385780 -380.003700 125.494000 0.000001 -0.999996 0.000000 0.000001 -0.000001 0.999997 -1.000000 0.000000 -0.000001 3035.dat
1 26 56.386230 -330.003500 125.494000 0.000001 -0.999996 0.000000 0.000001 -0.000001 0.999997 -1.000000 0.000000 -0.000001 3460.dat
1 30 64.385480 -300.003900 305.494200 0.000000 -0.999996 0.000001 -0.999997 -0.000001 0.000000 0.000002 0.000000 -1.000000 10202.dat
1 30 64.385640 -300.004000 185.494200 0.000000 -0.999996 0.000001 -0.999997 -0.000001 0.000000 0.000002 0.000000 -1.000000 10202.dat
0 STEP
1 30 80.385640 -370.003700 165.494100 -0.000001 -0.999996 0.000000 -0.000001 -0.000001 -0.999997 1.000000 0.000000 0.000001 2653.dat
1 30 80.385460 -370.003800 245.494100 -0.000001 -0.999996 0.000000 -0.000001 -0.000001 -0.999997 1.000000 0.000000 0.000001 2653.dat
1 30 80.386150 -340.003500 115.493000 0.000000 -0.999996 0.000001 -0.999997 -0.000001 0.000001 0.000001 0.000000 -1.000000 2653.dat
1 30 80.385400 -370.003800 325.494100 -0.000001 -0.999996 0.000000 -0.000001 -0.000001 -0.999997 1.000000 0.000000 0.000001 2653.dat
1 30 80.386040 -370.003300 405.495200 -0.000001 -0.999996 0.000000 -0.000001 -0.000001 -0.999997 1.000000 0.000000 0.000001 2653.dat
1 30 80.385990 -370.003300 485.495200 -0.000001 -0.999996 0.000000 -0.000001 -0.000001 -0.999997 1.000000 0.000000 0.000001 2653.dat
1 30 80.386520 -370.003300 565.494500 -0.000001 -0.999996 0.000000 -0.000001 -0.000001 -0.999997 1.000000 0.000000 0.000001 2653.dat
1 30 80.386140 -260.003700 115.492900 0.000000 -0.999996 0.000001 -0.999997 -0.000001 0.000001 0.000001 0.000000 -1.000000 2653.dat
1 30 80.386140 -180.003900 115.492900 0.000000 -0.999996 0.000001 -0.999997 -0.000001 0.000001 0.000001 0.000000 -1.000000 2653.dat
1 30 80.386180 -100.004300 115.492700 0.000000 -0.999996 0.000001 -0.999997 -0.000001 0.000001 0.000001 0.000000 -1.000000 2653.dat
1 30 80.386500 -90.004150 165.493800 0.000001 -0.999996 0.000000 0.000001 -0.000001 0.999997 -1.000000 0.000000 -0.000001 2653.dat
1 30 80.386360 -90.004180 245.493800 0.000001 -0.999996 0.000000 0.000001 -0.000001 0.999997 -1.000000 0.000000 -0.000001 2653.dat
1 30 80.386310 -90.004230 325.493800 0.000001 -0.999996 0.000000 0.000001 -0.000001 0.999997 -1.000000 0.000000 -0.000001 2653.dat
1 30 80.386140 -90.004280 405.494000 0.000001 -0.999996 0.000000 0.000001 -0.000001 0.999997 -1.000000 0.000000 -0.000001 2653.dat
1 30 80.386010 -90.004310 485.494100 0.000001 -0.999996 0.000000 0.000001 -0.000001 0.999997 -1.000000 0.000000 -0.000001 2653.dat
1 30 80.388040 -90.006580 565.498500 0.000001 -0.999996 0.000000 0.000001 -0.000001 0.999997 -1.000000 0.000000 -0.000001 2653.dat
0 STEP
1 30 80.386260 -160.002900 65.493930 0.000000 -0.999996 0.000001 -0.999997 -0.000001 0.000001 0.000001 0.000000 -1.000000 3006.dat
1 30 80.385700 -400.002100 185.494100 -0.000001 -0.999996 0.000000 -0.000001 -0.000001 -0.999997 1.000000 0.000000 0.000001 3006.dat
1 30 80.385980 -60.004420 505.494100 0.000001 -0.999996 0.000000 0.000001 -0.000001 0.999997 -1.000000 0.000000 -0.000001 3006.dat
0 STEP
1 30 80.385750 -400.002300 365.494200 -0.000001 -0.999996 0.000000 -0.000001 -0.000001 -0.999997 1.000000 0.000000 0.000001 93888.dat
1 30 80.386360 -400.003300 525.494500 -0.000001 -0.999996 0.000000 -0.000001 -0.000001 -0.999997 1.000000 0.000000 0.000001 93888.dat
1 30 80.386180 -340.002300 65.493990 0.000000 -0.999996 0.000001 -0.999997 -0.000001 0.000001 0.000001 0.000000 -1.000000 93888.dat
1 30 80.386300 -60.004340 325.493800 0.000001 -0.999996 0.000000 0.000001 -0.000001 0.999997 -1.000000 0.000000 -0.000001 3007.dat
0 STEP
1 30 80.386260 -50.003240 85.493740 0.000001 -0.999996 0.000000 0.000001 -0.000001 0.999997 -1.000000 0.000000 -0.000001 3010.dat
1 30 80.386120 -60.004420 185.493800 0.000001 -0.999996 0.000000 0.000001 -0.000001 0.999997 -1.000000 0.000000 -0.000001 2456.dat
0 STEP
1 26 64.382640 -19.999650 125.492700 -0.000001 -0.999996 0.000000 -0.000001 -0.000001 -0.999997 1.000000 0.000000 0.000001 3034.dat
1 26 64.382420 -19.999760 325.492900 -0.000001 -0.999996 0.000000 -0.000001 -0.000001 -0.999997 1.000000 0.000000 0.000001 2445.dat
1 26 64.382110 -19.999760 525.493300 -0.000001 -0.999996 0.000000 -0.000001 -0.000001 -0.999997 1.000000 0.000000 0.000001 3034.dat
0 STEP
1 78 88.387240 -70.003250 155.491700 0.000000 -0.999996 -0.000001 0.999997 -0.000001 -0.000001 -0.000001 0.000000 1.000000 11212.dat
1 78 88.387160 -70.003280 215.491800 0.000000 -0.999996 -0.000001 0.999997 -0.000001 -0.000001 -0.000001 0.000000 1.000000 11212.dat
1 78 88.387070 -70.003220 275.491800 0.000000 -0.999996 -0.000001 0.999997 -0.000001 -0.000001 -0.000001 0.000000 1.000000 11212.dat
1 78 88.387030 -70.003250 325.491900 0.000000 -0.999996 -0.000001 0.999997 -0.000001 -0.000001 -0.000001 0.000000 1.000000 3021.dat
1 78 88.386880 -70.003280 375.492900 0.000000 -0.999996 -0.000001 0.999997 -0.000001 -0.000001 -0.000001 0.000000 1.000000 11212.dat
1 78 88.386760 -70.003340 435.492100 0.000000 -0.999996 -0.000001 0.999997 -0.000001 -0.000001 -0.000001 0.000000 1.000000 11212.dat
1 78 88.385920 -70.004360 495.494100 0.000000 -0.999996 -0.000001 0.999997 -0.000001 -0.000001 -0.000001 0.000000 1.000000 11212.dat
0 STEP
1 30 88.386180 -300.002500 65.494020 0.000000 -0.999996 -0.000001 0.999997 -0.000001 -0.000001 -0.000001 0.000000 1.000000 3795.dat
1 30 88.386180 -140.002900 65.493700 0.000000 -0.999996 -0.000001 0.999997 -0.000001 -0.000001 -0.000001 0.000000 1.000000 3832.dat
1 30 88.386010 -380.002100 165.494100 0.000001 -0.999996 0.000000 0.000001 -0.000001 0.999997 -1.000000 0.000000 -0.000001 2445.dat
1 30 88.385680 -380.002400 405.494200 0.000001 -0.999996 0.000000 0.000001 -0.000001 0.999997 -1.000000 0.000000 -0.000001 2445.dat
0 STEP
1 30 88.386140 -300.003600 115.493000 0.000000 -0.999996 -0.000001 0.999997 -0.000001 -0.000001 -0.000001 0.000000 1.000000 3666.dat
1 30 88.386140 -160.004000 115.492900 0.000000 -0.999996 -0.000001 0.999997 -0.000001 -0.000001 -0.000001 0.000000 1.000000 3460.dat
1 30 88.386150 -50.003280 115.493700 0.000000 -0.999996 0.000001 -0.999997 -0.000001 0.000000 0.000002 0.000000 -1.000000 2420.dat
1 30 88.386050 -410.002100 125.493900 0.000001 -0.999996 0.000000 0.000001 -0.000001 0.999997 -1.000000 0.000000 -0.000001 3460.dat
0 STEP
1 30 88.385790 -410.002200 305.494100 0.000001 -0.999996 0.000000 0.000001 -0.000001 0.999997 -1.000000 0.000000 -0.000001 4477.dat
1 30 88.386340 -410.003300 505.494300 0.000001 -0.999996 0.000000 0.000001 -0.000001 0.999997 -1.000000 0.000000 -0.000001 4477.dat
0 STEP
1 16 76.900080 -91.000000 573.850200 1.000000 0.000000 -0.000001 0.000000 1.000000 -0.000001 0.000001 0.000001 1.000000 submodel group 11 copy
0 STEP
1 16 96.386970 -40.006700 565.495400 0.999996 0.000000 -0.000001 0.000001 0.999997 -0.000001 0.000000 -0.000001 1.000000 submodel group 2 copy
0 STEP
1 78 96.386130 -70.004350 135.492600 0.000000 -0.999996 -0.000001 0.999997 -0.000001 -0.000001 -0.000001 0.000000 1.000000 11212.dat
1 78 96.387160 -70.003300 195.491800 0.000000 -0.999996 -0.000001 0.999997 -0.000001 -0.000001 -0.000001 0.000000 1.000000 11212.dat
1 78 96.387000 -80.003320 325.491900 0.000001 -0.999996 0.000000 0.000001 -0.000001 0.999997 -1.000000 0.000000 -0.000001 3832.dat
1 78 96.386980 -50.003330 325.491900 0.000001 -0.999996 0.000000 0.000001 -0.000001 0.999997 -1.000000 0.000000 -0.000001 4477.dat
1 78 96.386710 -70.003330 455.492200 0.000000 -0.999996 -0.000001 0.999997 -0.000001 -0.000001 -0.000001 0.000000 1.000000 11212.dat
1 78 96.385240 -70.005800 515.496100 0.000000 -0.999996 -0.000001 0.999997 -0.000001 -0.000001 -0.000001 0.000000 1.000000 11212.dat
0 STEP
1 30 96.386230 -410.003300 545.494500 0.000000 -0.999996 -0.000001 0.999997 -0.000001 -0.000001 -0.000001 0.000000 1.000000 3021.dat
1 30 96.386150 -400.003300 585.495500 0.000000 -0.999996 -0.000001 0.999997 -0.000001 -0.000001 -0.000001 0.000000 1.000000 3022.dat
1 30 96.386210 -70.003130 75.493740 0.000000 -0.999996 -0.000001 0.999997 -0.000001 -0.000001 -0.000001 0.000000 1.000000 11212.dat
1 30 96.388010 -70.006560 575.498500 0.000000 -0.999996 -0.000001 0.999997 -0.000001 -0.000001 -0.000001 0.000000 1.000000 11212.dat
0 STEP
1 30 96.385850 -400.002100 225.494100 -0.000001 -0.999996 0.000000 -0.000001 -0.000001 -0.999997 1.000000 0.000000 0.000001 3832.dat
1 30 96.385840 -370.002300 225.494100 0.000001 -0.999996 0.000000 0.000001 -0.000001 0.999997 -1.000000 0.000000 -0.000001 4477.dat
1 30 96.385620 -400.002300 425.494200 -0.000001 -0.999996 0.000000 -0.000001 -0.000001 -0.999997 1.000000 0.000000 0.000001 3832.dat
1 30 96.386130 -340.002300 85.494050 0.000000 -0.999996 -0.000001 0.999997 -0.000001 -0.000001 -0.000001 0.000000 1.000000 3035.dat
1 30 96.385600 -370.002400 425.494200 0.000001 -0.999996 0.000000 0.000001 -0.000001 0.999997 -1.000000 0.000000 -0.000001 4477.dat
1 30 96.385330 -180.003300 85.492960 0.000000 -0.999996 -0.000001 0.999997 -0.000001 -0.000001 -0.000001 0.000000 1.000000 3035.dat
0 STEP
1 26 160.382700 -19.999540 55.492800 0.000000 -0.999996 -0.000001 0.999997 -0.000001 -0.000001 -0.000001 0.000000 1.000000 3245c.dat
1 26 160.381900 -20.000260 155.492700 0.000000 -0.999996 -0.000001 0.999997 -0.000001 -0.000001 -0.000001 0.000000 1.000000 3245c.dat
1 15 160.382000 -0.000230 105.492700 0.000001 -0.999996 0.000000 0.000001 -0.000001 0.999997 -1.000000 0.000000 -0.000001 6259.dat
1 26 112.382300 -19.999580 55.492800 0.000000 -0.999996 -0.000001 0.999997 -0.000001 -0.000001 -0.000001 0.000000 1.000000 3245c.dat
1 15 160.382300 -0.000180 205.490800 0.000001 -0.999996 0.000000 0.000001 -0.000001 0.999997 -1.000000 0.000000 -0.000001 6259.dat
1 26 112.381700 -20.000300 155.492700 0.000000 -0.999996 -0.000001 0.999997 -0.000001 -0.000001 -0.000001 0.000000 1.000000 3245c.dat
1 15 160.382200 -0.000230 285.490800 0.000001 -0.999996 0.000000 0.000001 -0.000001 0.999997 -1.000000 0.000000 -0.000001 6259.dat
1 15 160.382000 -0.000270 365.490900 0.000001 -0.999996 0.000000 0.000001 -0.000001 0.999997 -1.000000 0.000000 -0.000001 6259.dat
1 15 160.381900 -0.000310 445.491100 0.000001 -0.999996 0.000000 0.000001 -0.000001 0.999997 -1.000000 0.000000 -0.000001 6259.dat
1 26 160.382000 -19.999880 495.493100 0.000000 -0.999996 -0.000001 0.999997 -0.000001 -0.000001 -0.000001 0.000000 1.000000 3245c.dat
1 26 160.381900 -19.999920 595.493500 0.000000 -0.999996 -0.000001 0.999997 -0.000001 -0.000001 -0.000001 0.000000 1.000000 3245c.dat
1 15 160.382000 -0.000260 545.491500 0.000001 -0.999996 0.000000 0.000001 -0.000001 0.999997 -1.000000 0.000000 -0.000001 6259.dat
1 26 112.381700 -19.999960 495.494100 0.000000 -0.999996 -0.000001 0.999997 -0.000001 -0.000001 -0.000001 0.000000 1.000000 3245c.dat
1 26 112.381500 -19.999960 595.494400 0.000000 -0.999996 -0.000001 0.999997 -0.000001 -0.000001 -0.000001 0.000000 1.000000 3245c.dat
0 STEP
1 26 168.382400 -20.000170 125.490700 -0.000001 -0.999996 0.000000 -0.000001 -0.000001 -0.999997 1.000000 0.000000 0.000001 3034.dat
1 26 168.382100 -20.000230 325.490900 -0.000001 -0.999996 0.000000 -0.000001 -0.000001 -0.999997 1.000000 0.000000 0.000001 2445.dat
1 26 168.381900 -20.000230 525.491400 -0.000001 -0.999996 0.000000 -0.000001 -0.000001 -0.999997 1.000000 0.000000 0.000001 3034.dat
0 STEP
1 2 104.388000 -60.006560 545.498500 0.000001 -0.999996 0.000000 0.000001 -0.000001 0.999997 -1.000000 0.000000 -0.000001 69729.dat
1 2 104.382600 -59.998870 205.494700 -0.000001 -0.999997 0.000000 0.000000 -0.000001 -0.999997 1.000001 0.000000 0.000002 87079.dat
1 2 104.385900 -60.003170 105.493700 0.000001 -0.999996 0.000000 0.000001 -0.000001 0.999997 -1.000000 0.000000 -0.000001 69729.dat
1 2 104.384400 -89.999900 175.487900 0.000001 -0.999996 0.000000 0.000001 -0.000001 0.999997 -1.000000 0.000000 -0.000001 25269.dat
1 2 104.384800 -89.999930 195.487900 0.000000 -0.999996 0.000001 -0.999997 -0.000001 0.000001 0.000001 0.000000 -1.000000 25269.dat
1 2 104.385700 -90.000930 95.490790 0.000000 -0.999996 0.000001 -0.999997 -0.000001 0.000001 0.000001 0.000000 -1.000000 25269.dat
1 2 104.385700 -90.000890 75.489810 0.000001 -0.999996 0.000000 0.000001 -0.000001 0.999997 -1.000000 0.000000 -0.000001 25269.dat
1 2 104.387700 -90.010150 495.495100 0.000001 -0.999996 0.000000 0.000001 -0.000001 0.999997 -1.000000 0.000000 -0.000001 25269.dat
1 2 104.387700 -90.010200 515.495100 0.000000 -0.999996 0.000001 -0.999997 -0.000001 0.000001 0.000001 0.000000 -1.000000 25269.dat
1 2 104.386900 -90.004360 575.495400 0.000000 -0.999996 0.000001 -0.999997 -0.000001 0.000001 0.000001 0.000000 -1.000000 25269.dat
1 2 104.386900 -90.004310 555.495400 0.000001 -0.999996 0.000000 0.000001 -0.000001 0.999997 -1.000000 0.000000 -0.000001 25269.dat
0 STEP
1 2 104.384400 -89.999980 175.486900 0.000001 -0.999996 0.000000 0.000001 -0.000001 0.999997 -1.000000 0.000000 -0.000001 27925.dat
1 2 104.384800 -89.999930 195.487900 0.000000 -0.999996 0.000001 -0.999997 -0.000001 0.000001 0.000001 0.000000 -1.000000 27925.dat
1 322 104.387100 -80.003200 185.492800 0.000000 -0.999996 0.000001 -0.999997 -0.000001 0.000002 0.000000 0.000000 -1.000000 79393.dat
1 322 104.386100 -80.004380 185.493800 0.000001 -0.999996 0.000000 0.000002 -0.000001 0.999997 -1.000000 0.000000 -0.000001 79393.dat
1 322 104.384900 -90.000930 95.490790 0.000000 -0.999996 0.000001 -0.999997 -0.000001 0.000001 0.000001 0.000000 -1.000000 27925.dat
1 322 104.385400 -90.000980 75.490800 0.000001 -0.999996 0.000000 0.000001 -0.000001 0.999997 -1.000000 0.000000 -0.000001 27925.dat
1 2 104.386600 -90.004430 555.495400 0.000001 -0.999996 0.000000 0.000001 -0.000001 0.999997 -1.000000 0.000000 -0.000001 27925.dat
1 2 104.386900 -90.004420 575.495400 0.000000 -0.999996 0.000001 -0.999997 -0.000001 0.000001 0.000001 0.000000 -1.000000 27925.dat
0 STEP
1 16 120.715000 -39.999640 287.016700 0.999996 0.000000 -0.000001 0.000001 0.999997 -0.000001 0.000000 -0.000001 1.000000 submodel group 1 copy
0 STEP
1 26 192.381800 -10.000920 465.491200 0.000001 -0.999996 0.000000 0.000001 -0.000001 0.999997 -1.000000 0.000000 -0.000001 3298.dat
1 26 192.382800 -10.000530 425.491100 0.000001 -0.999996 0.000000 0.000001 -0.000001 0.999997 -1.000000 0.000000 -0.000001 3298.dat
1 26 192.382000 -10.000660 585.491500 0.000001 -0.999996 0.000000 0.000001 -0.000001 0.999997 -1.000000 0.000000 -0.000001 3298.dat
1 26 192.382800 -10.000560 385.490100 0.000001 -0.999996 0.000000 0.000001 -0.000001 0.999997 -1.000000 0.000000 -0.000001 3298.dat
1 26 192.382900 -10.000530 345.490900 0.000001 -0.999996 0.000000 0.000001 -0.000001 0.999997 -1.000000 0.000000 -0.000001 3298.dat
1 26 192.382600 -10.000260 265.490800 0.000001 -0.999996 0.000000 0.000001 -0.000001 0.999997 -1.000000 0.000000 -0.000001 3298.dat
1 26 192.382400 -10.000280 305.490800 0.000001 -0.999996 0.000000 0.000001 -0.000001 0.999997 -1.000000 0.000000 -0.000001 3298.dat
1 26 192.382300 -10.000160 65.491800 0.000001 -0.999996 0.000000 0.000001 -0.000001 0.999997 -1.000000 0.000000 -0.000001 3298.dat
1 26 192.381700 -10.000930 545.491500 0.000001 -0.999996 0.000000 0.000001 -0.000001 0.999997 -1.000000 0.000000 -0.000001 3298.dat
1 26 192.381800 -10.000910 505.491200 0.000001 -0.999996 0.000000 0.000001 -0.000001 0.999997 -1.000000 0.000000 -0.000001 3298.dat
1 26 192.382100 -10.000200 145.491700 0.000001 -0.999996 0.000000 0.000001 -0.000001 0.999997 -1.000000 0.000000 -0.000001 3298.dat
1 26 192.382200 -10.000060 105.491700 0.000001 -0.999996 0.000000 0.000001 -0.000001 0.999997 -1.000000 0.000000 -0.000001 3298.dat
1 26 192.382600 -10.000240 225.490900 0.000001 -0.999996 0.000000 0.000001 -0.000001 0.999997 -1.000000 0.000000 -0.000001 3298.dat
1 26 192.382600 -10.000210 185.490900 0.000001 -0.999996 0.000000 0.000001 -0.000001 0.999997 -1.000000 0.000000 -0.000001 3298.dat
0 STEP
1 26 192.381700 -10.000920 525.491400 0.000001 -0.999996 0.000000 0.000001 -0.000001 0.999997 -1.000000 0.000000 -0.000001 79756.dat
1 26 192.382100 -10.000650 575.491500 -0.000001 -0.999996 0.000000 -0.000001 -0.000001 -0.999997 1.000000 0.000000 0.000001 49307.dat
1 26 192.382000 -10.000660 595.491500 -0.000001 -0.999996 0.000000 -0.000001 -0.000001 -0.999997 1.000000 0.000000 0.000001 49307.dat
1 26 192.382700 -10.000540 445.491100 0.000001 -0.999996 0.000000 0.000001 -0.000001 0.999997 -1.000000 0.000000 -0.000001 79756.dat
1 26 192.382900 -10.000540 365.490900 0.000001 -0.999996 0.000000 0.000001 -0.000001 0.999997 -1.000000 0.000000 -0.000001 79756.dat
1 26 192.382200 -10.000160 75.491780 0.000001 -0.999996 0.000000 0.000001 -0.000001 0.999997 -1.000000 0.000000 -0.000001 49307.dat
1 26 192.382200 -10.000160 55.491820 0.000001 -0.999996 0.000000 0.000001 -0.000001 0.999997 -1.000000 0.000000 -0.000001 49307.dat
1 26 192.382600 -10.000220 205.490800 0.000001 -0.999996 0.000000 0.000001 -0.000001 0.999997 -1.000000 0.000000 -0.000001 79756.dat
1 26 192.382100 -10.000180 155.490800 0.000001 -0.999996 0.000000 0.000001 -0.000001 0.999997 -1.000000 0.000000 -0.000001 49307.dat
1 26 192.382200 -10.000170 95.491790 0.000001 -0.999996 0.000000 0.000001 -0.000001 0.999997 -1.000000 0.000000 -0.000001 49307.dat
1 26 192.382500 -10.000270 285.490800 0.000001 -0.999996 0.000000 0.000001 -0.000001 0.999997 -1.000000 0.000000 -0.000001 79756.dat
1 16 200.382100 -0.000130 125.491700 0.999996 0.000000 -0.000001 0.000001 0.999997 -0.000001 0.000000 -0.000001 1.000000 submodel group 3 copy
0 STEP
1 47 98.571410 -200.000200 106.574900 0.000000 -0.999387 -0.034901 0.999997 -0.000001 -0.000001 -0.000001 -0.034900 0.999391 989012.dat
1 30 104.388900 -240.001000 105.479900 0.000000 -0.999999 0.000000 1.000000 -0.000001 -0.000001 -0.000001 0.000000 1.000000 4032b.dat
1 47 104.388500 -300.000700 105.480100 0.000000 -0.999999 0.000001 -1.000000 -0.000001 0.000000 0.000002 0.000000 -1.000000 85861.dat
1 2 104.388900 -330.000900 75.481110 0.000000 -0.999999 0.000000 0.000001 -0.000001 1.000000 -1.000000 0.000000 -0.000001 27925.dat
1 10 104.386200 -350.002300 115.495000 0.000000 -0.999992 0.000001 -0.999994 -0.000001 0.000001 0.000001 0.000000 -1.000001 2555.dat
1 47 104.387800 -280.000200 105.479000 0.000000 -0.999999 0.000001 -1.000000 -0.000001 0.000000 0.000002 0.000000 -1.000000 85861.dat
1 10 104.388900 -250.001800 75.480980 0.000000 -0.999999 0.000000 1.000000 -0.000001 -0.000001 -0.000001 0.000000 1.000000 2555.dat
0 STEP
1 2 110.388800 -350.000600 121.481000 -0.999999 0.000000 0.000000 -0.000001 0.000001 -1.000000 0.000000 -1.000000 0.000001 28870.dat
1 10 104.387800 -310.000500 55.479120 0.000000 -0.999996 -0.000001 0.999997 -0.000001 -0.000001 -0.000001 0.000000 1.000000 32607.dat
1 10 104.387700 -330.000200 95.479160 0.000001 -0.999996 0.000000 0.000001 -0.000001 0.999997 -1.000000 0.000000 -0.000001 32607.dat
1 288 104.387800 -270.000500 75.479020 0.000001 -0.999996 0.000000 0.000001 -0.000001 0.999997 -1.000000 0.000000 -0.000001 32607.dat
0 STEP
1 29 107.638300 -310.000600 55.480100 -0.000001 -0.999999 -0.000001 0.200404 -0.000001 -0.979714 0.979713 0.000000 0.200405 32606.dat
1 30 103.638300 -330.000800 95.481110 0.000000 -0.999999 0.000000 0.000001 -0.000001 1.000000 -1.000000 0.000000 -0.000001 32606.dat
1 29 112.387800 -270.001200 75.481950 0.000000 -0.999999 0.000000 1.000000 -0.000001 -0.000001 -0.000001 0.000000 1.000000 24866.dat
1 322 104.388200 -280.250200 105.479000 -0.000001 -1.000000 0.000001 0.000000 -0.000001 -1.000000 1.000000 -0.000001 0.000000 3668-b.dat
0 STEP
1 16 383.956500 -281.610100 247.510900 0.999996 0.000000 -0.000001 0.000001 0.999997 -0.000001 0.000000 -0.000001 1.000000 submodel group 4 copy
0 STEP
1 16 115.673100 -231.581000 57.665300 0.832000 0.223787 -0.507637 0.066900 0.867883 0.492244 0.550727 -0.443508 0.707107 submodel group 19 copy
1 10 104.387000 -150.001200 55.478100 0.000001 -0.999996 0.000000 0.000001 -0.000001 0.999997 -1.000000 0.000000 -0.000001 32607.dat
0 STEP
1 16 126.640400 -154.748200 65.223660 1.000000 0.000000 0.000000 0.000000 1.000000 0.000000 0.000000 0.000000 1.000000 submodel group 20 copy
0 STEP
1 30 112.388800 -240.001500 105.479900 0.000000 -0.999999 0.000000 1.000000 -0.000001 -0.000001 -0.000001 0.000000 1.000000 18674.dat
1 14 122.618600 -270.723300 125.738000 -0.000001 0.000001 -0.999996 0.550506 0.834827 -0.000001 0.834831 -0.550506 0.000000 25975.dat
0 STEP
1 16 129.868100 -63.999260 115.589600 1.000000 0.000000 0.000000 0.000000 1.000000 0.000000 0.000000 0.000000 1.000000 submodel group 22 copy
0 STEP
1 30 154.282000 -77.999950 55.592840 0.999996 0.000000 -0.000001 0.000001 0.999997 -0.000001 0.000000 -0.000001 1.000000 95832.dat
1 15 154.282000 -71.999960 55.592860 -0.707104 0.000000 0.707103 0.000000 0.999997 0.000001 -0.707106 -0.000001 -0.707107 33291.dat
1 30 154.281900 -77.999810 125.586600 0.999996 0.000000 -0.000001 0.000001 0.999997 -0.000001 0.000000 -0.000001 1.000000 95832.dat
1 15 154.281900 -71.999820 125.586600 -0.707104 0.000000 0.707103 0.000000 0.999997 0.000001 -0.707106 -0.000001 -0.707107 33291.dat
1 30 154.282200 -77.999680 165.585800 -0.993761 0.000000 0.111497 -0.000001 0.999997 0.000001 -0.111496 -0.000001 -0.993765 95832.dat
1 15 154.282200 -71.999690 165.585800 -0.707104 0.000000 0.707103 0.000000 0.999997 0.000001 -0.707106 -0.000001 -0.707107 33291.dat
1 30 154.282200 -77.999760 195.592900 0.999996 0.000000 -0.000001 0.000001 0.999997 -0.000001 0.000000 -0.000001 1.000000 95832.dat
1 15 154.282500 -71.999790 195.592900 -0.707104 0.000000 0.707103 0.000000 0.999997 0.000001 -0.707106 -0.000001 -0.707107 33291.dat
1 15 154.281600 -72.000180 85.585750 -0.707104 0.000000 0.707103 0.000000 0.999997 0.000001 -0.707106 -0.000001 -0.707107 33291.dat
1 30 154.281600 -78.000160 85.585740 0.993103 0.000000 0.117211 0.000001 0.999997 0.000000 -0.117214 -0.000001 0.993107 95832.dat
0 STEP
1 16 125.581400 -173.852800 105.041400 0.618452 -0.618449 0.484808 0.707105 0.707108 0.000000 -0.342812 0.342811 0.874621 submodel group 25 copy
0 STEP
1 16 122.966800 -128.642900 43.929880 0.832211 -0.345650 -0.433534 0.244324 0.930508 -0.272876 0.497726 0.121167 0.858829 submodel group 26 copy
0 STEP
1 2 96.388740 -100.001100 285.476900 0.000000 -0.999996 0.000000 0.999997 -0.000001 -0.000001 -0.000001 0.000001 1.000000 989012.dat
1 2 96.388550 -100.001200 385.477200 0.000000 -0.999996 0.000000 0.999997 -0.000001 -0.000001 -0.000001 0.000001 1.000000 989012.dat
1 2 96.388400 -80.001260 365.477100 0.000000 -0.999996 0.000000 -0.999997 -0.000001 0.000001 0.000001 0.000001 -1.000000 989012.dat
1 2 104.389300 -90.000890 255.479800 0.000000 -0.999999 0.000001 -1.000000 -0.000001 0.000000 0.000002 0.000000 -1.000000 85861.dat
1 2 96.388690 -80.001260 325.477000 0.000000 -0.999996 0.000000 -0.999997 -0.000001 0.000001 0.000001 0.000001 -1.000000 989012.dat
0 STEP
1 10 114.011800 -90.001560 291.455900 -0.342809 -0.874616 -0.342814 -0.707112 -0.000004 0.707101 -0.618446 0.484815 -0.618455 32607.dat
1 2 112.389200 -90.000650 255.479800 0.000001 -0.999999 0.000000 -0.428566 -0.000002 0.903508 -0.903514 0.000001 -0.428567 32607.dat
1 30 114.011900 -90.001320 359.505800 -0.484811 -0.874620 0.000000 -0.000001 0.000000 -1.000000 0.874620 -0.484810 0.000001 24866.dat
1 10 121.009000 -90.001830 363.385000 0.378611 -0.874617 0.302813 -0.624602 0.000002 0.780942 -0.683030 -0.484813 -0.546289 32607.dat
1 2 114.667500 -90.002130 391.093100 -0.482960 -0.874618 -0.042261 -0.087171 -0.000005 0.996192 -0.871293 0.484811 -0.076239 32607.dat
1 2 114.012000 -90.001880 319.505800 0.067454 -0.874617 0.480094 -0.990274 -0.000001 0.139129 -0.121685 -0.484814 -0.866115 32607.dat
0 STEP
1 31 103.146200 -90.001380 455.481200 0.000000 -0.999999 0.000000 -0.000001 -0.000001 -1.000000 1.000000 0.000000 0.000001 95829.dat
1 10 104.388400 -90.001170 455.478200 0.000000 -0.999996 0.000001 -0.999997 -0.000001 0.000001 0.000001 0.000000 -1.000000 32607.dat
1 29 112.388400 -90.001170 415.482100 0.000000 -0.999999 0.000000 0.000001 -0.000001 1.000000 -1.000000 0.000000 -0.000001 24866.dat
1 10 104.388500 -90.001270 415.477200 0.000000 -0.999996 0.000001 -0.999997 -0.000001 0.000001 0.000001 0.000000 -1.000000 32607.dat
1 5 115.105000 -90.001670 290.850700 -0.342811 -0.874619 0.342810 0.707105 -0.000001 0.707108 -0.618451 0.484810 0.618448 95829.dat
1 30 120.389200 -90.000850 255.478800 0.000000 -0.999999 -0.000001 0.862724 -0.000001 0.505674 -0.505677 0.000000 0.862722 24866.dat
0 STEP
1 16 126.386100 -64.388740 335.245100 0.979392 0.153538 0.131216 -0.195607 0.882873 0.426936 -0.050296 -0.443804 0.894711 submodel group 27 copy
0 STEP
1 16 122.295900 -114.689100 375.043800 0.987755 0.108700 0.111916 0.141655 -0.925465 -0.351354 0.065382 0.362905 -0.929530 submodel group 27 copy
0 STEP
1 15 104.385500 -170.000500 615.493800 -0.000001 -0.999996 0.000000 -0.000001 -0.000001 -0.999997 1.000000 0.000000 0.000001 35470.dat
0 STEP
1 16 130.749900 -56.000690 545.490500 0.999996 0.000000 -0.000001 0.000001 0.999997 -0.000001 0.000000 -0.000001 1.000000 submodel group 5 copy
0 STEP
1 15 144.382700 -63.999490 235.491800 -0.999996 0.000000 0.000001 -0.000001 0.999997 0.000001 0.000000 -0.000001 -1.000000 6251.dat
1 70 144.381500 -64.000490 458.992000 1.000000 0.000000 0.000000 0.000000 1.000000 0.000000 0.000000 0.000000 1.000000 4668.dat
0 STEP
1 30 104.388400 -350.001700 555.481600 0.000000 -0.999999 0.000000 0.000001 -0.000001 1.000000 -1.000000 0.000000 -0.000001 24866.dat
1 70 104.389500 -210.001800 595.480600 0.000000 -0.999999 0.000001 -1.000000 -0.000001 0.000000 0.000002 0.000000 -1.000000 85861.dat
1 70 104.389600 -210.002300 535.482400 0.000000 -0.999999 0.000001 -1.000000 -0.000001 0.000000 0.000002 0.000000 -1.000000 85861.dat
1 47 104.389200 -350.002000 535.482500 0.000000 -0.999999 0.000001 -1.000000 -0.000001 0.000000 0.000002 0.000000 -1.000000 85861.dat
1 10 104.389500 -270.001800 535.482400 0.000000 -0.999999 0.000000 -1.000000 -0.000001 0.000001 0.000001 0.000000 -1.000000 2555.dat
1 10 104.389400 -250.001900 535.481400 0.000000 -0.999999 0.000000 -1.000000 -0.000001 0.000001 0.000001 0.000000 -1.000000 2555.dat
1 47 104.388800 -320.002000 545.482500 0.000000 -0.999999 0.000000 0.000001 -0.000001 1.000000 -1.000000 0.000000 -0.000001 18674.dat
0 STEP
1 2 110.389300 -270.001100 529.482400 -0.997406 0.000000 0.071974 0.071973 -0.000001 0.997408 0.000000 1.000000 -0.000001 28870.dat
1 2 110.389300 -250.001000 527.482400 0.989094 0.000000 0.147278 0.147279 -0.000001 -0.989096 -0.000001 1.000000 0.000001 28870.dat
1 16 112.288500 -298.230900 545.481100 1.000000 0.000000 0.000000 0.000000 0.903294 -0.429021 0.000000 0.429021 0.903294 submodel group 28 copy
0 STEP
1 10 104.388100 -270.001600 595.479600 0.000000 -0.999996 0.000001 -0.999997 -0.000001 0.000001 0.000001 0.000000 -1.000000 32607.dat
1 2 104.388100 -330.001300 575.480600 0.000000 -0.999996 0.000001 -0.999997 -0.000001 0.000001 0.000001 0.000000 -1.000000 32607.dat
1 10 104.389300 -250.002300 595.482500 0.000000 -0.999996 -0.000001 0.066648 -0.000001 -0.997774 0.997777 0.000001 0.066649 32607.dat
1 10 112.388500 -350.002000 535.482500 0.000001 -0.999999 -0.000001 0.896443 -0.000001 0.443155 -0.443155 0.000000 0.896448 32607.dat
0 STEP
1 29 102.339500 -270.002000 595.481600 -0.000001 -0.999999 -0.000001 0.200404 -0.000001 -0.979714 0.979713 0.000000 0.200405 32606.dat
1 30 102.339200 -330.001600 575.481600 0.000000 -0.999999 0.000000 1.000000 -0.000001 -0.000001 -0.000001 0.000000 1.000000 32606.dat
1 29 112.389200 -250.002300 595.482500 0.000000 -0.999999 0.000001 -0.997778 -0.000001 -0.066648 0.066649 0.000000 -0.997777 24866.dat
1 47 120.388300 -270.001100 555.481500 0.000000 -0.999999 0.000000 1.000000 -0.000001 -0.000001 -0.000001 0.000000 1.000000 6188.dat
1 29 120.388500 -350.002000 535.482500 -0.000001 -1.000000 -0.000001 0.896446 -0.000001 0.443154 -0.443154 -0.000001 0.896446 24866.dat
0 STEP
1 16 119.580700 -181.752000 611.481900 0.999996 0.000000 -0.000001 0.000001 0.999997 -0.000001 0.000000 -0.000001 1.000000 submodel group 14 copy
0 STEP
1 40 104.386400 -400.003200 525.494500 0.000000 -0.999996 0.000001 -0.999997 -0.000001 0.000000 0.000002 0.000000 -1.000000 87580.dat
1 40 104.385800 -400.003300 565.495500 0.000000 -0.999996 0.000001 -0.999997 -0.000001 0.000000 0.000002 0.000000 -1.000000 87580.dat
1 30 104.385300 -390.002000 445.495400 0.000001 -0.999996 0.000000 0.000001 -0.000001 0.999997 -1.000000 0.000000 -0.000001 15573.dat
1 30 104.385800 -390.002000 205.495100 0.000001 -0.999996 0.000000 0.000001 -0.000001 0.999997 -1.000000 0.000000 -0.000001 15573.dat
0 STEP
1 16 126.100400 -354.003300 545.778900 0.999996 0.000000 -0.000001 0.000001 0.999997 -0.000001 0.000000 -0.000001 1.000000 submodel group 9 copy
0 STEP
0 STEP
1 47 104.385900 -390.002100 95.494510 0.000001 -0.999996 0.000000 0.000001 -0.000001 0.999997 -1.000000 0.000000 -0.000001 34103.dat
1 47 104.386000 -370.002200 95.494510 0.000001 -0.999996 0.000000 0.000001 -0.000001 0.999997 -1.000000 0.000000 -0.000001 34103.dat
0 STEP
1 16 132.742100 -356.202300 95.707650 0.999996 0.000000 -0.000001 0.000001 0.999997 -0.000001 0.000000 -0.000001 1.000000 submodel group 10 copy
0 STEP
1 16 112.776000 -360.002100 187.492700 0.999996 0.000000 -0.000001 0.000001 0.999997 -0.000001 0.000000 -0.000001 1.000000 submodel group 16 copy
0 STEP
1 2 104.385200 -370.002300 435.489800 -0.000001 -0.999996 0.000000 -0.000001 -0.000001 -0.999997 1.000000 0.000000 0.000001 32607.dat
1 29 104.384800 -390.001300 445.494700 0.000001 -0.999996 0.000000 0.000001 -0.000001 0.999997 -1.000000 0.000000 -0.000001 32606.dat
1 2 104.385100 -410.002100 435.489800 0.000000 -0.999996 0.000001 -0.999997 -0.000001 0.000001 0.000001 0.000000 -1.000000 32607.dat
1 2 104.385700 -410.002000 215.495100 0.000001 -0.999996 0.000000 0.000001 -0.000001 0.999997 -1.000000 0.000000 -0.000001 32607.dat
1 29 104.385200 -390.001400 205.494100 0.000001 -0.999996 0.000000 0.000001 -0.000001 0.999997 -1.000000 0.000000 -0.000001 32606.dat
1 2 104.385800 -370.002200 215.495100 0.000000 -0.999996 -0.000001 0.999997 -0.000001 -0.000001 -0.000001 0.000000 1.000000 32607.dat
0 STEP
1 30 104.385300 -410.002100 325.489700 0.000001 -0.999996 0.000000 0.000000 -0.000001 0.999997 -1.000000 0.000000 -0.000002 92593.dat
1 30 104.385300 -370.001700 325.489700 0.000001 -0.999996 0.000000 0.000000 -0.000001 0.999997 -1.000000 0.000000 -0.000002 92593.dat
1 26 104.385700 -390.002100 265.489200 0.000000 -0.999996 -0.000001 0.999997 -0.000001 -0.000001 -0.000001 0.000000 1.000000 26603.dat
1 26 104.385400 -390.002000 385.490300 0.000000 -0.999996 -0.000001 0.999997 -0.000001 -0.000001 -0.000001 0.000000 1.000000 26603.dat
1 30 104.385100 -390.001900 325.489700 0.000001 -0.999996 0.000000 0.000000 -0.000001 0.999997 -1.000000 0.000000 -0.000002 92593.dat
0 STEP
1 16 127.968800 -350.001500 325.489700 0.999996 0.000000 -0.000001 0.000001 0.999997 -0.000001 0.000000 -0.000001 1.000000 submodel group 7 copy
0 STEP
1 26 135.388400 -251.254000 616.666100 1.000000 -0.000170 -0.000122 0.000209 0.848482 0.529225 0.000014 -0.529225 0.848482 4719c01.dat
1 46 134.898300 -309.582700 541.147600 -0.999999 -0.000122 -0.000171 -0.000211 0.529226 0.848483 -0.000012 0.848481 -0.529225 98138.dat
1 47 135.389000 -270.001300 555.480500 -0.000001 -0.999999 0.000000 -0.057942 -0.000001 -0.998321 0.998320 0.000000 -0.057941 48729b.dat
1 16 135.988200 -243.694100 565.916700 0.996962 -0.021729 0.074797 -0.021507 0.846168 0.532482 -0.074861 -0.532473 0.843130 submodel group 12 copy
0 STEP
1 2 231.345200 -76.641510 148.939300 -0.954695 -0.297586 0.000663 -0.297587 0.954692 -0.002335 0.000062 -0.002426 -0.999998 99249.dat
1 4 252.669600 -105.797600 155.764500 0.126821 -0.705900 0.696889 -0.271673 0.650959 0.708826 -0.953997 -0.279219 -0.109217 24866.dat
1 14 240.798800 -106.964100 137.172100 -0.964766 -0.248021 -0.087976 -0.254687 0.795795 0.549393 -0.066251 0.552439 -0.830917 24866.dat
1 30 229.583200 -116.243000 156.807400 0.977221 0.210959 0.023868 -0.209070 0.936747 0.280684 0.036855 -0.279278 0.959503 24866.dat
1 16 151.378200 -24.000060 107.477600 0.000000 0.000000 -1.000000 0.000000 1.000000 0.000000 1.000000 0.000000 0.000000 submodel group copy
1 15 236.022300 -88.179610 100.966300 0.944331 -0.326928 0.036844 0.327107 0.944987 0.001230 -0.035219 0.010890 0.999320 3068b.dat
1 26 104.386200 -430.003200 545.494500 0.000000 -1.000000 0.000000 0.000000 0.000000 -1.000000 1.000000 0.000000 0.000000 6636.dat
0 STEP
0 NOFILE
0 FILE SubModel Group 11 Copy
0 SubModel Group 11 Copy
0 Name:  SubModel Group 11 Copy
0 Author:  
0 CustomBrick
0 FlexibleBrickControlPointUnitLength -1
0 FlexibleBrickLockedControlPoint 
0 NumOfBricks:  16
1 15 -4.500000 -139.000000 2.250060 0.000000 -1.000000 0.000000 1.000000 0.000000 0.000000 0.000000 0.000000 1.000000 11212.dat
0 STEP
1 15 3.499990 -139.000000 2.249950 0.000000 -1.000000 0.000000 0.000001 0.000000 -1.000000 1.000000 0.000000 0.000001 63864.dat
0 STEP
1 15 3.499990 -209.000000 -17.749920 0.000000 -1.000000 0.000000 1.000000 0.000000 0.000000 0.000000 0.000000 1.000000 6636.dat
1 15 3.500000 -209.000000 12.249960 0.000000 -1.000000 0.000000 1.000000 0.000000 0.000000 0.000000 0.000000 1.000000 69729.dat
1 15 3.500000 -69.000000 12.250060 0.000000 -1.000000 0.000000 1.000000 0.000000 0.000000 0.000000 0.000000 1.000000 69729.dat
1 15 3.499990 -69.000010 -17.750040 0.000000 -1.000000 0.000000 1.000000 0.000000 0.000000 0.000000 0.000000 1.000000 6636.dat
0 STEP
1 15 -4.500000 -219.000000 -7.749920 0.000000 -1.000000 0.000000 0.000000 0.000000 1.000000 -1.000000 0.000000 0.000000 3023.dat
1 15 -4.500000 -189.000000 2.250080 0.000000 -1.000000 0.000000 0.000000 0.000000 1.000000 -1.000000 0.000000 0.000000 3021.dat
1 15 -4.500000 -89.000000 2.249970 0.000000 -1.000000 0.000000 0.000000 0.000000 1.000000 -1.000000 0.000000 0.000000 3021.dat
1 15 -4.500000 -59.000000 -7.750050 0.000000 -1.000000 0.000000 0.000000 0.000000 1.000000 -1.000000 0.000000 0.000000 3023.dat
0 STEP
1 15 -4.500000 -259.000000 12.249970 0.000000 -1.000000 0.000000 0.000000 0.000000 1.000000 -1.000000 0.000000 0.000000 32028.dat
1 15 -4.500000 -39.000000 -17.750020 0.000000 -1.000000 0.000000 1.000000 0.000000 0.000001 -0.000001 0.000000 1.000000 2420.dat
1 15 -4.500000 -19.000000 12.249900 0.000000 -1.000000 0.000000 0.000000 0.000000 -1.000000 1.000000 0.000000 0.000000 32028.dat
1 15 -4.500000 -239.000000 -17.749900 0.000000 -1.000000 0.000000 0.000001 0.000000 -1.000000 1.000000 0.000000 0.000001 2420.dat
0 STEP
1 15 -4.500000 -229.000000 22.249960 0.000000 -1.000000 0.000000 -1.000000 0.000000 0.000000 0.000000 0.000000 -1.000000 48336.dat
1 15 -4.500000 -49.000020 22.249900 0.000000 -1.000000 0.000000 -1.000000 0.000000 0.000000 0.000000 0.000000 -1.000000 48336.dat
0 STEP
0 NOFILE
0 FILE SubModel Group 2 Copy
0 SubModel Group 2 Copy
0 Name:  SubModel Group 2 Copy
0 Author:  
0 CustomBrick
0 FlexibleBrickControlPointUnitLength -1
0 FlexibleBrickLockedControlPoint 
0 NumOfBricks:  4
1 30 -8.000430 -239.997600 -0.000980 0.000000 -1.000000 0.000000 1.000000 0.000000 0.000000 0.000000 0.000000 1.000000 3029.dat
0 STEP
1 30 -7.999020 -60.000000 0.002930 0.000000 -1.000000 0.000000 1.000000 0.000000 0.000000 0.000000 0.000000 1.000000 3032.dat
1 30 -0.000060 -139.997900 -0.000980 0.000000 -1.000000 0.000000 1.000000 0.000000 0.000000 0.000000 0.000000 1.000000 3035.dat
0 STEP
1 30 -0.000430 -279.997700 -0.000980 0.000000 -1.000000 0.000000 1.000000 0.000000 0.000000 0.000000 0.000000 1.000000 3032.dat
0 STEP
0 NOFILE
0 FILE SubModel Group 1 Copy
0 SubModel Group 1 Copy
0 Name:  SubModel Group 1 Copy
0 Author:  
0 CustomBrick
0 FlexibleBrickControlPointUnitLength -1
0 FlexibleBrickLockedControlPoint 
0 NumOfBricks:  67
1 71 3.667540 -8.000780 -161.526600 0.000000 0.000000 1.000000 0.000000 1.000000 0.000000 -1.000000 0.000000 0.000000 3034.dat
0 STEP
1 71 13.667540 -16.000770 -151.526600 1.000000 0.000000 0.000000 0.000000 1.000000 0.000000 0.000000 0.000000 1.000000 11212.dat
1 71 13.667180 -16.000580 -211.524700 1.000000 0.000000 0.000000 0.000000 1.000000 0.000000 0.000000 0.000000 1.000000 11212.dat
0 STEP
1 71 33.667540 -8.000780 -141.526600 0.000000 0.000000 -1.000000 0.000000 1.000000 0.000000 1.000000 0.000000 0.000000 99780.dat
1 71 33.667300 -8.000589 -221.525600 0.000000 0.000000 -1.000000 0.000000 1.000000 0.000000 1.000000 0.000000 0.000000 99780.dat
1 71 33.667540 -8.000780 -181.526600 0.000000 0.000000 -1.000000 0.000000 1.000000 0.000000 1.000000 0.000000 0.000000 99780.dat
0 STEP
1 71 3.667790 -8.000490 -1.526610 0.000000 0.000000 1.000000 0.000000 1.000000 0.000000 -1.000000 0.000000 0.000000 3034.dat
1 71 13.667660 -16.000500 -91.526610 1.000000 0.000000 0.000000 0.000000 1.000000 0.000000 0.000000 0.000000 1.000000 11212.dat
1 71 13.667660 -16.000490 28.474360 1.000000 0.000000 0.000000 0.000000 1.000000 0.000000 0.000000 0.000000 1.000000 11212.dat
1 71 13.667790 -16.000500 -31.526610 1.000000 0.000000 0.000000 0.000000 1.000000 0.000000 0.000000 0.000000 1.000000 11212.dat
0 STEP
1 71 33.667660 -8.000470 18.474370 0.000000 0.000000 -1.000000 0.000000 1.000000 0.000000 1.000000 0.000000 0.000000 99780.dat
1 71 33.667720 -8.000490 -21.526610 0.000000 0.000000 -1.000000 0.000000 1.000000 0.000000 1.000000 0.000000 0.000000 99780.dat
1 71 33.667300 -8.000060 -101.525600 0.000000 0.000000 -1.000000 0.000000 1.000000 0.000000 1.000000 0.000000 0.000000 99780.dat
1 71 33.668150 -8.000680 58.473390 0.000000 0.000000 -1.000000 0.000000 1.000000 0.000000 1.000000 0.000000 0.000000 99780.dat
1 71 33.667660 -8.000490 -61.526620 0.000000 0.000000 -1.000000 0.000000 1.000000 0.000000 1.000000 0.000000 0.000000 99780.dat
0 STEP
1 71 13.666810 -16.000770 168.475300 1.000000 0.000000 0.000000 0.000000 1.000000 0.000000 0.000000 0.000000 1.000000 11212.dat
1 71 13.668030 -16.000670 118.473400 1.000000 0.000000 0.000000 0.000000 1.000000 0.000000 0.000000 0.000000 1.000000 3021.dat
1 71 13.668030 -16.000710 78.473390 1.000000 0.000000 0.000000 0.000000 1.000000 0.000000 0.000000 0.000000 1.000000 3021.dat
1 71 13.667420 -16.000980 228.473400 1.000000 0.000000 0.000000 0.000000 1.000000 0.000000 0.000000 0.000000 1.000000 11212.dat
1 71 13.667300 -16.000910 288.473400 1.000000 0.000000 0.000000 0.000000 1.000000 0.000000 0.000000 0.000000 1.000000 11212.dat
1 71 3.668030 -8.000680 198.473400 0.000000 0.000000 1.000000 0.000000 1.000000 0.000000 -1.000000 0.000000 0.000000 2445.dat
0 STEP
1 71 33.666930 -8.000780 138.475300 0.000000 0.000000 -1.000000 0.000000 1.000000 0.000000 1.000000 0.000000 0.000000 99780.dat
1 71 33.667420 -8.000990 178.473400 0.000000 0.000000 -1.000000 0.000000 1.000000 0.000000 1.000000 0.000000 0.000000 99780.dat
1 71 33.667420 -8.000990 218.473400 0.000000 0.000000 -1.000000 0.000000 1.000000 0.000000 1.000000 0.000000 0.000000 99780.dat
1 71 33.668030 -8.000680 298.472400 0.000000 0.000000 -1.000000 0.000000 1.000000 0.000000 1.000000 0.000000 0.000000 99780.dat
1 71 33.668150 -8.000680 98.473390 0.000000 0.000000 -1.000000 0.000000 1.000000 0.000000 1.000000 0.000000 0.000000 99780.dat
1 71 33.667420 -8.000970 258.473400 0.000000 0.000000 -1.000000 0.000000 1.000000 0.000000 1.000000 0.000000 0.000000 99780.dat
0 STEP
1 71 33.667720 -24.000230 -121.531000 0.000000 0.000000 -1.000001 0.000000 1.000000 0.000000 1.000001 0.000000 0.000000 15573.dat
1 71 23.660700 -24.001020 188.473900 1.000001 0.000000 0.000000 0.000000 1.000000 0.000000 0.000000 0.000000 1.000001 3069a.dat
1 71 3.663270 -24.000350 -91.529300 1.000001 0.000000 0.000000 0.000000 1.000000 0.000000 0.000000 0.000000 1.000001 15573.dat
1 71 23.660890 -24.000590 -71.525880 1.000001 0.000000 0.000000 0.000000 1.000000 0.000000 0.000000 0.000000 1.000001 3069a.dat
1 71 3.661320 -24.000350 -111.526400 1.000001 0.000000 0.000000 0.000000 1.000000 0.000000 0.000000 0.000000 1.000001 3069a.dat
1 71 33.668340 -24.000370 -161.528800 0.000000 0.000000 -0.999996 0.000000 1.000000 0.000000 0.999996 0.000000 0.000000 15573.dat
1 71 33.667240 -24.000730 -201.536600 0.000000 0.000000 -1.000001 0.000000 1.000000 0.000000 1.000001 0.000000 0.000000 15573.dat
1 71 3.662050 -24.000460 -191.527100 1.000001 0.000000 0.000000 0.000000 1.000000 0.000000 0.000000 0.000000 1.000001 15573.dat
1 71 3.661620 -24.000470 -231.525200 1.000001 0.000000 0.000000 0.000000 1.000000 0.000000 0.000000 0.000000 1.000001 15573.dat
1 71 3.660460 -24.000900 -211.526100 1.000001 0.000000 0.000000 0.000000 1.000000 0.000000 0.000000 0.000000 1.000001 3069a.dat
1 71 3.663150 -24.000790 -131.528300 1.000001 0.000000 0.000000 0.000000 1.000000 0.000000 0.000000 0.000000 1.000001 15573.dat
1 71 23.667790 -24.000500 -51.526620 1.000000 0.000000 0.000000 0.000000 1.000000 0.000000 0.000000 0.000000 1.000000 15573.dat
1 71 23.666810 -24.000770 168.475300 1.000000 0.000000 0.000000 0.000000 1.000000 0.000000 0.000000 0.000000 1.000000 15573.dat
0 STEP
1 71 23.667120 -24.000950 18.473880 1.000001 0.000000 0.000000 0.000000 1.000000 0.000000 0.000000 0.000000 1.000001 3068b.dat
1 71 33.667970 -24.000270 -91.526370 0.000000 0.000000 1.000001 0.000000 1.000000 0.000000 -1.000001 0.000000 0.000000 3024.dat
1 15 13.666750 -24.000980 258.473600 0.000000 0.000000 -1.000001 0.000000 1.000000 0.000000 1.000001 0.000000 0.000000 2431.dat
1 71 23.666930 -24.000640 138.473100 1.000001 0.000000 0.000000 0.000000 1.000000 0.000000 0.000000 0.000000 1.000001 3068b.dat
1 71 23.667060 -24.000850 98.473390 1.000001 0.000000 0.000000 0.000000 1.000000 0.000000 0.000000 0.000000 1.000001 3068b.dat
1 71 23.666320 -24.001140 58.474610 1.000001 0.000000 0.000000 0.000000 1.000000 0.000000 0.000000 0.000000 1.000001 3068b.dat
1 71 33.666260 -24.001030 258.474600 0.000000 0.000000 -1.000001 0.000000 1.000000 0.000000 1.000001 0.000000 0.000000 6636.dat
1 71 23.666140 -24.000980 -21.524900 1.000001 0.000000 0.000000 0.000000 1.000000 0.000000 0.000000 0.000000 1.000001 3068b.dat
1 71 33.667240 -24.000590 -231.525200 0.000000 0.000000 1.000001 0.000000 1.000000 0.000000 -1.000001 0.000000 0.000000 3024.dat
1 71 3.667050 -24.000780 -161.526600 1.000000 0.000000 0.000000 0.000000 1.000000 0.000000 0.000000 0.000000 1.000000 3068b.dat
0 STEP
1 92 -16.330870 -20.000080 178.471400 0.000000 -1.000000 0.000000 0.000000 0.000000 1.000000 -1.000000 0.000000 0.000000 41682.dat
1 92 -16.330810 -20.006890 18.469730 0.000000 -1.000000 0.000000 0.000000 0.000000 1.000000 -1.000000 0.000000 0.000000 41682.dat
1 92 -16.331360 -20.000000 -21.529780 0.000000 -1.000000 0.000000 0.000000 0.000000 1.000000 -1.000000 0.000000 0.000000 41682.dat
1 92 -16.330510 -20.000100 138.471400 0.000000 -1.000000 0.000000 0.000000 0.000000 1.000000 -1.000000 0.000000 0.000000 41682.dat
1 92 -16.330510 -20.000190 98.471450 0.000000 -1.000000 0.000000 0.000000 0.000000 1.000000 -1.000000 0.000000 0.000000 41682.dat
1 92 -16.330630 -20.000050 58.471440 0.000000 -1.000000 0.000000 0.000000 0.000000 1.000000 -1.000000 0.000000 0.000000 41682.dat
1 92 -6.332950 -24.000460 -61.525150 0.000000 0.000000 -1.000001 0.000000 1.000000 0.000000 1.000001 0.000000 0.000000 3023.dat
0 STEP
1 10 -6.332030 -23.995950 -51.529540 -1.000000 0.000000 0.000000 0.000000 1.000000 0.000000 0.000000 0.000000 -1.000000 49307.dat
1 10 -6.329350 -32.002330 38.467280 0.000000 0.000000 -1.000000 0.000000 1.000000 0.000000 1.000000 0.000000 0.000000 3069a.dat
1 10 -6.330320 -23.995560 108.469200 -1.000000 0.000000 0.000000 0.000000 1.000000 0.000000 0.000000 0.000000 -1.000000 49307.dat
1 10 -6.330690 -31.995560 178.463400 0.000000 0.000000 -1.000000 0.000000 1.000000 0.000000 1.000000 0.000000 0.000000 3069a.dat
1 10 -6.330440 -31.995560 78.464360 0.000000 0.000000 -1.000000 0.000000 1.000000 0.000000 1.000000 0.000000 0.000000 3069a.dat
1 10 -6.330570 -23.995560 148.469200 -1.000000 0.000000 0.000000 0.000000 1.000000 0.000000 0.000000 0.000000 -1.000000 49307.dat
1 10 -6.330440 -23.995560 128.469200 -1.000000 0.000000 0.000000 0.000000 1.000000 0.000000 0.000000 0.000000 -1.000000 49307.dat
1 10 -6.332520 -31.995600 -21.537360 0.000000 0.000000 -1.000000 0.000000 1.000000 0.000000 1.000000 0.000000 0.000000 3069a.dat
1 10 -6.329470 -24.002390 8.472410 -1.000000 0.000000 0.000000 0.000000 1.000000 0.000000 0.000000 0.000000 -1.000000 49307.dat
1 10 -6.332030 -23.995950 -71.528560 -1.000000 0.000000 0.000000 0.000000 1.000000 0.000000 0.000000 0.000000 -1.000000 49307.dat
0 STEP
0 NOFILE
0 FILE SubModel Group 3 Copy
0 SubModel Group 3 Copy
0 Name:  SubModel Group 3 Copy
0 Author:  
0 CustomBrick
0 FlexibleBrickControlPointUnitLength -1
0 FlexibleBrickLockedControlPoint 
0 NumOfBricks:  2
1 26 0.000000 -10.000030 -0.000490 0.000000 -1.000000 0.000000 0.000000 0.000000 1.000000 -1.000000 0.000000 0.000000 99780.dat
0 STEP
1 26 0.000000 -10.000000 0.000490 0.000000 -1.000000 0.000000 0.000000 0.000000 -1.000000 1.000000 0.000000 0.000000 85984.dat
0 STEP
0 NOFILE
0 FILE SubModel Group 4 Copy
0 SubModel Group 4 Copy
0 Name:  SubModel Group 4 Copy
0 Author:  
0 CustomBrick
0 FlexibleBrickControlPointUnitLength -1
0 FlexibleBrickLockedControlPoint 
0 NumOfBricks:  7
1 47 -255.556700 -23.115070 -146.964100 0.707105 -0.707106 0.000001 0.489072 0.489072 -0.722226 0.510694 0.510693 0.691651 65578.dat
0 STEP
1 47 -250.384700 -27.071220 -151.097400 0.707107 -0.707105 0.000001 0.489072 0.489073 -0.722226 0.510693 0.510695 0.691651 85861.dat
0 STEP
1 47 -258.500300 -34.628170 -158.520800 0.523010 -0.723281 0.450908 0.847791 0.495929 -0.187862 -0.087740 0.480534 0.872575 989012.dat
0 STEP
1 47 -239.837300 -34.865610 -163.538600 -0.759026 -0.387738 0.523011 0.416454 0.328338 0.847796 -0.500449 0.861308 -0.087740 93794.dat
0 STEP
1 30 -214.000000 -48.028630 -188.000000 0.439035 0.523012 0.730552 -0.356209 0.847797 -0.392881 -0.824841 -0.087740 0.558515 24093.dat
1 30 -234.662600 -33.326500 -169.110900 0.725809 0.523011 -0.446833 -0.389043 0.847796 0.360396 0.567316 -0.087740 0.818812 24324.dat
1 15 -221.706800 -42.205180 -177.673400 0.523012 -0.725809 -0.446833 0.847797 0.389043 0.360396 -0.087741 -0.567316 0.818813 3069b.dat
0 STEP
0 NOFILE
0 FILE SubModel Group 19 Copy
0 SubModel Group 19 Copy
0 Name:  SubModel Group 19 Copy
0 Author:  
0 CustomBrick
0 FlexibleBrickControlPointUnitLength -1
0 FlexibleBrickLockedControlPoint 
0 NumOfBricks:  3
1 47 -1.677910 -20.350730 -10.971290 -0.778846 0.000001 0.627213 0.627216 -0.000001 0.778845 0.000001 0.999999 0.000000 65578.dat
0 STEP
1 47 -1.375990 -20.593750 -18.673420 -0.627213 0.000000 -0.778845 -0.778846 0.000000 0.627217 0.000000 0.999999 -0.000001 85861.dat
0 STEP
1 191 -1.126550 -20.610520 -18.673780 0.067057 -0.000001 0.997750 0.997750 0.000000 -0.067057 0.000000 1.000000 0.000001 3668-b.dat
0 STEP
0 NOFILE
0 FILE SubModel Group 20 Copy
0 SubModel Group 20 Copy
0 Name:  SubModel Group 20 Copy
0 Author:  
0 CustomBrick
0 FlexibleBrickControlPointUnitLength -1
0 FlexibleBrickLockedControlPoint 
0 NumOfBricks:  12
1 70 -22.255100 -55.255040 30.269320 0.000001 -0.999999 -0.000001 1.000001 0.000000 0.000001 -0.000003 0.000000 1.000000 2423.dat
0 STEP
1 10 -14.255310 -55.254470 -29.733200 -0.000375 -0.999996 -0.000001 0.910182 -0.000343 0.414201 -0.414204 0.000157 0.910184 32607.dat
1 288 -14.255000 -35.254850 -9.729560 -0.000055 -0.999996 -0.000140 0.927189 0.000000 -0.374590 0.374589 -0.000148 0.927192 32607.dat
1 10 -14.255030 -35.254700 10.268820 -0.000001 -0.999996 0.000002 -0.974369 0.000000 0.224944 -0.224944 0.000000 -0.974372 32607.dat
1 288 -14.255090 -75.254940 -9.731669 0.000002 -0.999996 0.000000 0.573570 0.000000 0.819153 -0.819154 0.000000 0.573573 32607.dat
0 STEP
1 31 -14.255050 -75.255130 10.269850 0.000001 -0.999999 -0.000001 1.000001 0.000000 0.000000 -0.000002 0.000000 1.000000 24866.dat
1 29 -6.255370 -55.254470 -29.733200 0.000002 -0.999999 -0.000001 0.910187 0.000000 0.414201 -0.414202 0.000000 0.910185 24866.dat
1 15 -14.255090 -75.254940 -9.730690 0.000002 -0.999999 -0.000001 0.883811 0.000000 0.467846 -0.467846 0.000000 0.883810 95829.dat
0 STEP
1 16 13.324050 -12.368900 -9.354630 1.000000 0.000355 -0.000053 -0.000355 0.956344 -0.292242 -0.000053 0.292242 0.956344 submodel group 21 copy
0 STEP
0 NOFILE
0 FILE SubModel Group 21 Copy
0 SubModel Group 21 Copy
0 Name:  SubModel Group 21 Copy
0 Author:  
0 CustomBrick
0 FlexibleBrickControlPointUnitLength -1
0 FlexibleBrickLockedControlPoint 
0 NumOfBricks:  4
1 70 -32.320870 -21.936220 6.301190 -0.000001 -0.999999 0.000090 -1.000001 0.000000 0.000000 0.000002 -0.000087 -1.000000 99249.dat
0 STEP
1 31 1.877100 -10.257520 13.046930 -0.223111 -0.832187 0.507627 -0.167867 -0.480178 -0.860963 0.960231 -0.277303 -0.032564 24866.dat
1 30 0.455570 -21.936100 -6.233690 -0.553509 0.832260 0.031164 -0.056215 0.000001 -0.998420 -0.830943 -0.554387 0.046786 3742.dat
1 29 6.021680 -36.006520 14.428320 0.128797 0.832186 -0.539332 -0.319031 -0.480177 -0.817099 -0.938952 0.277303 0.203649 3742.dat
0 STEP
0 NOFILE
0 FILE SubModel Group 22 Copy
0 SubModel Group 22 Copy
0 Name:  SubModel Group 22 Copy
0 Author:  
0 CustomBrick
0 FlexibleBrickControlPointUnitLength -1
0 FlexibleBrickLockedControlPoint 
0 NumOfBricks:  54
1 15 -5.590800 -80.001060 9.997960 0.000001 0.000000 0.999996 0.000001 0.999997 0.000001 -1.000000 -0.000001 0.000000 3659.dat
0 STEP
1 15 -15.590220 -48.026420 -50.000980 -0.999996 0.000000 0.000001 -0.000001 0.999997 0.000001 0.000000 -0.000001 -1.000000 989013.dat
1 15 -15.590370 -48.026380 9.998950 -0.999996 0.000000 0.000001 -0.000001 0.999997 0.000001 0.000000 -0.000001 -1.000000 989013.dat
0 STEP
1 15 -5.591210 -47.999980 -39.998780 0.000001 0.000000 0.999996 0.000001 0.999997 0.000001 -1.000000 -0.000001 0.000000 4490.dat
1 71 -5.591150 -23.999940 -59.998760 0.999996 0.000000 -0.000001 0.000001 0.999997 -0.000001 0.000000 -0.000001 1.000000 3005.dat
1 15 -5.590060 -48.000860 60.000040 0.000001 0.000000 0.999996 0.000001 0.999997 0.000001 -1.000000 -0.000001 0.000000 4490.dat
1 71 -5.590030 -24.000960 80.000060 0.999996 0.000000 -0.000001 0.000001 0.999997 -0.000001 0.000000 -0.000001 1.000000 3005.dat
0 STEP
1 16 -3.257220 -0.000640 -19.998760 1.000000 0.000000 0.000000 0.000000 1.000000 0.000000 0.000000 0.000000 1.000000 submodel group 23 copy
1 16 -3.257260 -0.001030 40.001160 1.000000 0.000000 0.000000 0.000000 1.000000 0.000000 0.000000 0.000000 1.000000 submodel group 23 copy
0 STEP
1 15 -23.590380 -54.026370 39.998950 0.000000 0.999996 -0.000001 -0.999997 0.000001 -0.000002 0.000000 0.000000 1.000000 63864.dat
1 15 -23.590350 -54.026430 -20.000980 0.000000 0.999996 -0.000001 -0.999997 0.000001 -0.000002 0.000000 0.000000 1.000000 63864.dat
0 STEP
1 71 12.410250 -14.000180 -19.998760 0.000001 -0.999996 0.000000 0.000001 -0.000001 0.999997 -1.000000 0.000000 -0.000001 30162.dat
1 15 12.410310 -27.000810 -14.123810 -0.000001 0.000000 0.999996 -0.000001 -0.999997 0.000001 1.000000 0.000001 0.000000 87994.dat
1 15 12.410940 -27.000660 -25.873780 -0.000001 0.000000 0.999996 -0.000001 -0.999997 0.000001 1.000000 0.000001 0.000000 87994.dat
1 71 12.409940 -14.000700 40.001160 0.000001 -0.999996 0.000000 0.000001 -0.000001 0.999997 -1.000000 0.000000 -0.000001 30162.dat
1 15 12.411120 -27.000770 34.124910 -0.000001 0.000000 0.999996 -0.000001 -0.999997 0.000001 1.000000 0.000001 0.000000 87994.dat
1 15 12.410190 -27.550720 45.876270 -0.000001 0.000000 0.999996 -0.000001 -0.999997 0.000001 1.000000 0.000001 0.000000 87994.dat
0 STEP
1 71 15.409560 -38.000280 -59.998760 -0.000001 -0.999996 0.000000 0.000000 -0.000001 -0.999997 1.000000 0.000000 0.000002 24246.dat
1 71 -5.590760 -48.000200 -59.998760 -0.000001 0.000000 -0.999996 -0.000001 0.999997 -0.000001 1.000000 -0.000001 0.000000 42446.dat
1 71 15.409070 -38.000600 80.000060 -0.000001 -0.999996 0.000000 0.000000 -0.000001 -0.999997 1.000000 0.000000 0.000002 24246.dat
1 71 -5.591050 -48.000600 80.001270 -0.000001 0.000000 -0.999996 -0.000001 0.999997 -0.000001 1.000000 -0.000001 0.000000 42446.dat
0 STEP
1 16 -5.590420 -47.999500 -55.998820 1.000000 0.000000 0.000000 0.000000 1.000000 0.000000 0.000000 0.000000 1.000000 submodel group 24 copy
1 16 -5.590350 -48.000850 76.000080 -1.000000 0.000000 0.000000 0.000000 1.000000 0.000000 0.000000 0.000000 -1.000000 submodel group 24 copy
0 STEP
1 15 4.404020 -80.001260 29.997940 0.999996 0.000000 -0.000001 0.000001 0.999997 -0.000001 0.000000 -0.000001 1.000000 989013.dat
1 15 4.409120 -80.001100 49.998080 0.999996 0.000000 -0.000001 0.000001 0.999997 -0.000001 0.000000 -0.000001 1.000000 989013.dat
1 15 -5.590830 -88.001170 39.998200 0.000000 0.000000 -0.999996 -0.000001 0.999997 -0.000001 1.000000 -0.000001 0.000001 85861.dat
1 15 -5.590780 -88.000940 -20.000740 0.000000 0.000000 -0.999996 -0.000001 0.999997 -0.000001 1.000000 -0.000001 0.000001 85861.dat
0 STEP
1 15 -5.590580 -96.001670 39.999180 -0.999996 0.000000 0.000001 -0.000001 0.999997 0.000001 0.000000 -0.000001 -1.000000 32028.dat
1 15 -5.595990 -96.001220 9.998199 -0.000001 0.000000 -0.999996 -0.000001 0.999997 -0.000001 1.000000 -0.000001 0.000000 35480.dat
1 15 -5.591580 -96.001610 -20.000740 0.999996 0.000000 -0.000001 0.000001 0.999997 -0.000001 0.000000 -0.000001 1.000000 32028.dat
0 STEP
1 15 -5.590830 -104.001600 49.998310 -0.999996 0.000000 0.000000 -0.000001 0.999997 0.000001 0.000001 -0.000001 -1.000000 87580.dat
1 15 -5.601610 -104.001200 19.998150 0.999996 0.000000 -0.000001 0.000001 0.999997 -0.000001 0.000000 -0.000001 1.000000 15573.dat
1 15 -5.601610 -104.001100 -0.001790 0.999996 0.000000 -0.000001 0.000001 0.999997 -0.000001 0.000000 -0.000001 1.000000 15573.dat
1 15 -5.591550 -104.001500 -30.000740 -0.999996 0.000000 0.000000 -0.000001 0.999997 0.000001 0.000001 -0.000001 -1.000000 87580.dat
0 STEP
1 15 -5.602180 -112.001200 49.998310 0.000001 0.000000 0.999996 0.000001 0.999997 0.000001 -1.000000 -0.000001 0.000000 3024.dat
1 15 -5.602050 -112.001100 -30.001720 0.000001 0.000000 0.999996 0.000001 0.999997 0.000001 -1.000000 -0.000001 0.000000 3024.dat
1 15 -5.601670 -112.001100 9.998199 -0.000001 0.000000 -0.999996 -0.000001 0.999997 -0.000001 1.000000 -0.000001 0.000000 34103.dat
0 STEP
1 15 -5.602110 -120.001200 49.998310 0.000001 0.000000 0.999996 0.000001 0.999997 0.000001 -1.000000 -0.000001 0.000000 3070b.dat
1 15 -5.602040 -120.001100 -30.001720 0.000001 0.000000 0.999996 0.000001 0.999997 0.000001 -1.000000 -0.000001 0.000000 3070b.dat
1 15 -5.601790 -120.001100 9.998199 -0.000001 0.000000 -0.999996 -0.000001 0.999997 -0.000001 1.000000 -0.000001 0.000000 3794b.dat
0 STEP
1 15 -5.601780 -130.001100 9.998199 1.000000 0.000000 0.000000 0.000000 1.000000 0.000000 0.000000 0.000000 1.000000 604550.dat
0 STEP
1 15 12.409150 -86.001060 9.998090 0.000000 -1.000000 0.000000 0.000000 0.000000 -1.000000 1.000000 0.000000 0.000000 3069b.dat
0 STEP
0 NOFILE
0 FILE SubModel Group 23 Copy
0 SubModel Group 23 Copy
0 Name:  SubModel Group 23 Copy
0 Author:  
0 CustomBrick
0 FlexibleBrickControlPointUnitLength -1
0 FlexibleBrickLockedControlPoint 
0 NumOfBricks:  3
1 71 -12.333140 -13.999310 0.000020 0.000000 -0.999996 -0.000001 0.999997 -0.000001 -0.000001 -0.000001 0.000000 1.000000 3024.dat
0 STEP
1 71 -2.334080 -23.999940 -0.000020 -0.000001 0.000000 -0.999996 -0.000001 0.999997 -0.000001 1.000000 -0.000001 0.000000 4070.dat
0 STEP
1 71 11.667220 -13.999680 0.000000 0.000000 -0.999996 -0.000001 0.999997 -0.000001 -0.000001 -0.000001 0.000000 1.000000 3024.dat
0 STEP
0 NOFILE
0 FILE SubModel Group 24 Copy
0 SubModel Group 24 Copy
0 Name:  SubModel Group 24 Copy
0 Author:  
0 CustomBrick
0 FlexibleBrickControlPointUnitLength -1
0 FlexibleBrickLockedControlPoint 
0 NumOfBricks:  5
1 15 -0.000300 -7.999980 16.000040 0.999996 0.000000 -0.000001 0.000001 0.999997 -0.000001 0.000000 -0.000001 1.000000 3024.dat
0 STEP
1 15 -0.000300 -15.999960 16.000040 0.999996 0.000000 -0.000001 0.000001 0.999997 -0.000001 0.000000 -0.000001 1.000000 4081b.dat
0 STEP
1 15 11.999980 -14.091960 -3.999940 -0.000001 -0.999996 0.000000 -0.000001 -0.000001 -0.999997 1.000000 0.000000 0.000001 6141.dat
1 15 -11.999640 -14.092060 -3.998960 0.000001 0.999996 0.000000 0.000001 0.000001 -0.999997 -1.000000 0.000000 0.000001 6141.dat
0 STEP
1 15 0.000250 -16.000560 15.998820 0.999996 0.000000 -0.000001 0.000001 0.999997 -0.000001 0.000000 -0.000001 1.000000 54200.dat
0 STEP
0 NOFILE
0 FILE SubModel Group 25 Copy
0 SubModel Group 25 Copy
0 Name:  SubModel Group 25 Copy
0 Author:  
0 CustomBrick
0 FlexibleBrickControlPointUnitLength -1
0 FlexibleBrickLockedControlPoint 
0 NumOfBricks:  2
1 47 -16.076590 -16.419090 -0.000160 0.999999 -0.000003 0.000001 0.000004 0.999998 0.000000 -0.000004 0.000001 0.999998 65578.dat
0 STEP
1 484 -16.463650 -16.121250 0.000200 -0.999999 0.000000 0.000000 -0.000001 0.999998 0.000000 0.000003 0.000001 -0.999999 41835.dat
0 STEP
0 NOFILE
0 FILE SubModel Group 26 Copy
0 SubModel Group 26 Copy
0 Name:  SubModel Group 26 Copy
0 Author:  
0 CustomBrick
0 FlexibleBrickControlPointUnitLength -1
0 FlexibleBrickLockedControlPoint 
0 NumOfBricks:  4
1 70 -13.890400 -12.484090 23.261250 -0.480176 -0.832210 -0.277229 -0.840249 0.345649 0.417745 -0.251828 0.433534 -0.865235 99249.dat
0 STEP
1 29 23.296870 -17.308570 17.209140 -0.000001 1.000000 0.000000 -1.000002 0.000000 0.000000 0.000002 -0.000001 1.000000 3742.dat
1 31 9.234420 -18.505830 -0.746510 0.444230 -0.538861 -0.715742 -0.828871 0.056027 -0.556628 0.340048 0.840530 -0.421756 24866.dat
1 30 13.514690 -40.953590 10.122820 -0.840369 0.538862 0.058353 -0.534826 -0.806931 -0.250650 -0.087978 -0.241845 0.966319 3742.dat
0 STEP
0 NOFILE
0 FILE SubModel Group 27 Copy
0 SubModel Group 27 Copy
0 Name:  SubModel Group 27 Copy
0 Author:  
0 CustomBrick
0 FlexibleBrickControlPointUnitLength -1
0 FlexibleBrickLockedControlPoint 
0 NumOfBricks:  5
1 70 -6.317410 -17.528260 -26.640070 0.480176 -0.832212 -0.277228 0.599774 0.080873 0.796073 -0.640080 -0.548529 0.537972 99249.dat
0 STEP
1 2 31.842280 -18.656570 -18.984320 0.000002 -1.000000 0.000000 0.999998 0.000000 0.000000 -0.000001 0.000000 1.000003 32607.dat
1 30 16.808830 -10.666340 -2.860720 0.117628 -0.538861 -0.834139 0.853797 -0.374089 0.362062 -0.507144 -0.754775 0.416076 24866.dat
1 31 18.404340 -32.665670 -4.034360 0.800862 -0.538862 0.261231 0.124004 0.575996 0.807995 -0.585865 -0.614701 0.528115 24866.dat
0 STEP
1 5 30.600220 -18.656820 -18.984860 0.000000 -1.000000 0.000001 0.921793 0.000001 0.387683 -0.387683 0.000001 0.921793 95829.dat
0 STEP
0 NOFILE
0 FILE SubModel Group 5 Copy
0 SubModel Group 5 Copy
0 Name:  SubModel Group 5 Copy
0 Author:  
0 CustomBrick
0 FlexibleBrickControlPointUnitLength -1
0 FlexibleBrickLockedControlPoint 
0 NumOfBricks:  49
1 25 -16.367800 -31.999990 0.000730 0.000000 0.000000 1.000000 0.000000 1.000000 0.000000 -1.000000 0.000000 0.000000 3009.dat
0 STEP
1 25 -16.367920 -8.000000 -49.999280 1.000000 0.000000 0.000001 0.000000 1.000000 0.000000 -0.000001 0.000000 1.000000 2420.dat
1 25 -16.367800 -8.000000 50.000490 -0.000001 0.000000 1.000000 0.000000 1.000000 0.000000 -1.000000 0.000000 -0.000001 2420.dat
1 25 -16.367680 -8.000000 -0.000240 0.000000 0.000000 1.000000 0.000000 1.000000 0.000000 -1.000000 0.000000 0.000000 3023.dat
0 STEP
1 25 -16.367920 -64.000000 0.000730 0.000000 0.000000 1.000000 0.000000 1.000000 0.000000 -1.000000 0.000000 0.000000 3009.dat
1 25 -16.367800 -39.999990 0.000730 0.000000 0.000000 1.000000 0.000000 1.000000 0.000000 -1.000000 0.000000 0.000000 3666.dat
0 STEP
1 16 9.632420 -7.999940 -27.599420 1.000000 0.000000 0.000000 0.000000 1.000000 0.000000 0.000000 0.000000 1.000000 submodel group 6 copy
0 STEP
1 16 9.632540 -7.999820 31.599540 1.000000 0.000000 0.000000 0.000000 1.000000 0.000000 0.000000 0.000000 1.000000 submodel group 8 copy
0 STEP
1 16 -4.212880 -48.000060 -0.002650 1.000000 0.000000 0.000000 0.000000 1.000000 0.000000 0.000000 0.000000 1.000000 submodel group 13 copy
0 STEP
1 25 -6.367920 -72.000000 0.000730 1.000000 0.000000 0.000000 0.000000 1.000000 0.000000 0.000000 0.000000 1.000000 3022.dat
0 STEP
1 71 -16.367800 -96.000060 -0.001220 -1.000000 0.000000 0.000000 0.000000 1.000000 0.000000 0.000000 0.000000 -1.000000 93273.dat
1 71 -16.368470 -103.999700 -0.001220 0.000000 0.000000 -1.000000 0.000000 1.000000 0.000000 1.000000 0.000000 0.000000 3023.dat
1 25 3.632450 -80.000110 -0.000240 0.000000 0.000000 -1.000000 0.000000 1.000000 0.000000 1.000000 0.000000 0.000000 3023.dat
1 25 -16.368470 -95.999820 -0.001220 0.000000 0.000000 -1.000000 0.000000 1.000000 0.000000 1.000000 0.000000 0.000000 3010.dat
0 STEP
1 25 3.632630 -72.000020 29.999760 -1.000000 0.000000 0.000000 0.000000 1.000000 0.000000 0.000000 0.000000 -1.000000 54200.dat
1 25 -16.366580 -71.999940 49.997070 0.000000 0.000000 -1.000000 0.000000 1.000000 0.000000 1.000000 0.000000 0.000000 54200.dat
1 25 3.632140 -72.000260 -30.005370 1.000000 0.000000 0.000000 0.000000 1.000000 0.000000 0.000000 0.000000 1.000000 54200.dat
1 25 -16.367070 -72.000110 -50.002200 0.000000 0.000000 -1.000000 0.000000 1.000000 0.000000 1.000000 0.000000 0.000000 54200.dat
1 25 3.632810 -79.999940 10.000730 -1.000000 0.000000 0.000000 0.000000 1.000000 0.000000 0.000000 0.000000 -1.000000 54200.dat
1 25 3.632810 -80.000060 -10.002200 1.000000 0.000000 0.000000 0.000000 1.000000 0.000000 0.000000 0.000000 1.000000 54200.dat
0 STEP
0 NOFILE
0 FILE SubModel Group 6 Copy
0 SubModel Group 6 Copy
0 Name:  SubModel Group 6 Copy
0 Author:  
0 CustomBrick
0 FlexibleBrickControlPointUnitLength -1
0 FlexibleBrickLockedControlPoint 
0 NumOfBricks:  10
1 25 -6.000580 -40.000140 -22.400830 -1.000000 0.000000 0.000000 0.000000 1.000000 0.000000 0.000000 0.000000 -1.000000 32952.dat
0 STEP
1 15 -5.999660 -48.000060 -22.400830 1.000000 0.000000 0.000000 0.000000 1.000000 0.000000 0.000000 0.000000 1.000000 3070b.dat
0 STEP
1 25 14.000030 -20.000200 -12.400830 0.000000 0.000000 -1.000000 1.000000 0.000000 0.000000 0.000000 -1.000000 0.000000 3023.dat
1 25 3.999910 -20.000240 -4.399610 0.000000 0.000000 -1.000000 1.000000 0.000000 0.000000 0.000000 -1.000000 0.000000 33909.dat
0 STEP
1 15 -5.999850 -20.000240 3.601120 0.000000 0.000000 -1.000000 1.000000 0.000000 0.000000 0.000000 -1.000000 0.000000 48336.dat
1 15 -6.000640 -30.000000 11.599170 1.000000 0.000000 0.000000 0.000000 0.000000 1.000000 0.000000 -1.000000 0.000000 3024.dat
1 0 -5.999850 -10.000140 11.600390 1.000000 0.000000 0.000000 0.000000 0.000000 1.000000 0.000000 -1.000000 0.000000 3024.dat
0 STEP
1 15 -5.999850 -20.000210 19.601120 0.000000 0.000000 -1.000000 1.000000 0.000000 0.000000 0.000000 -1.000000 0.000000 48336.dat
1 15 -5.999850 -30.000120 27.600150 0.000000 0.000000 -1.000000 1.000000 0.000000 0.000000 0.000000 -1.000000 0.000000 3070b.dat
1 0 -5.999660 -10.000000 27.600150 0.000000 0.000000 -1.000000 1.000000 0.000000 0.000000 0.000000 -1.000000 0.000000 3070b.dat
0 STEP
0 NOFILE
0 FILE SubModel Group 8 Copy
0 SubModel Group 8 Copy
0 Name:  SubModel Group 8 Copy
0 Author:  
0 CustomBrick
0 FlexibleBrickControlPointUnitLength -1
0 FlexibleBrickLockedControlPoint 
0 NumOfBricks:  10
1 25 -6.000210 -40.000160 18.399980 1.000000 0.000000 0.000000 0.000000 1.000000 0.000000 0.000000 0.000000 1.000000 32952.dat
0 STEP
1 15 -6.000210 -48.000020 18.400220 1.000000 0.000000 0.000000 0.000000 1.000000 0.000000 0.000000 0.000000 1.000000 3070b.dat
0 STEP
1 25 14.000400 -20.000080 8.399730 0.000000 0.000000 1.000000 1.000000 0.000000 0.000000 0.000000 1.000000 0.000000 3023.dat
1 25 4.000210 -20.000000 0.400220 0.000000 0.000000 -1.000000 -1.000000 0.000000 0.000000 0.000000 1.000000 0.000000 33909.dat
0 STEP
1 15 -6.000090 -20.000050 -7.599290 0.000000 0.000000 -1.000000 -1.000000 0.000000 0.000000 0.000000 1.000000 0.000000 48336.dat
1 15 -6.000580 -30.000110 -15.600760 1.000000 0.000000 0.000000 0.000000 0.000000 -1.000000 0.000000 1.000000 0.000000 3024.dat
1 0 -5.999790 -10.000300 -15.599780 1.000000 0.000000 0.000000 0.000000 0.000000 -1.000000 0.000000 1.000000 0.000000 3024.dat
0 STEP
1 15 -5.999730 -20.000110 -23.599780 0.000000 0.000000 -1.000000 -1.000000 0.000000 0.000000 0.000000 1.000000 0.000000 48336.dat
1 15 -6.000210 -30.000160 -31.600760 0.000000 0.000000 1.000000 1.000000 0.000000 0.000000 0.000000 1.000000 0.000000 3070b.dat
1 0 -5.999790 -10.000170 -31.599780 0.000000 0.000000 1.000000 1.000000 0.000000 0.000000 0.000000 1.000000 0.000000 3070b.dat
0 STEP
0 NOFILE
0 FILE SubModel Group 13 Copy
0 SubModel Group 13 Copy
0 Name:  SubModel Group 13 Copy
0 Author:  
0 CustomBrick
0 FlexibleBrickControlPointUnitLength -1
0 FlexibleBrickLockedControlPoint 
0 NumOfBricks:  12
1 15 27.846180 -8.000080 -20.000530 -1.000000 0.000000 -0.000001 0.000000 1.000000 0.000000 0.000001 0.000000 -1.000000 2420.dat
0 STEP
1 15 27.846300 -16.000070 -0.000530 0.000000 0.000000 1.000000 0.000000 1.000000 0.000000 -1.000000 0.000000 0.000000 34103.dat
1 15 27.847030 -8.000000 19.999470 0.000001 0.000000 -1.000000 0.000000 1.000000 0.000000 1.000000 0.000000 0.000001 2420.dat
1 15 17.846790 -8.000050 -0.000530 1.000000 0.000000 0.000000 0.000000 1.000000 0.000000 0.000000 0.000000 1.000000 3023.dat
0 STEP
1 25 7.846910 -15.999950 29.999720 0.000000 0.000000 1.000000 0.000000 1.000000 0.000000 -1.000000 0.000000 0.000000 3794b.dat
1 25 7.846420 -16.000030 -29.999550 0.000000 0.000000 1.000000 0.000000 1.000000 0.000000 -1.000000 0.000000 0.000000 3794b.dat
0 STEP
1 25 27.846120 -16.000070 -40.000530 1.000000 0.000000 0.000000 0.000000 1.000000 0.000000 0.000000 0.000000 1.000000 3070b.dat
1 25 27.846910 -15.999950 39.999960 1.000000 0.000000 0.000000 0.000000 1.000000 0.000000 0.000000 0.000000 1.000000 3070b.dat
1 25 7.846420 -16.000000 -0.000530 1.000000 0.000000 0.000000 0.000000 1.000000 0.000000 0.000000 0.000000 1.000000 3070b.dat
0 STEP
1 25 -12.153700 -23.999840 29.999720 1.000000 0.000000 0.000001 0.000000 1.000000 0.000000 -0.000001 0.000000 1.000000 2420.dat
1 25 -12.155900 -23.999770 -29.998580 -0.000001 0.000000 1.000000 0.000000 1.000000 0.000000 -1.000000 0.000000 -0.000001 2420.dat
1 15 27.846120 -24.000030 0.000450 -0.000001 0.000000 1.000000 0.000000 1.000000 0.000000 -1.000000 0.000000 -0.000001 63864.dat
0 STEP
0 NOFILE
0 FILE SubModel Group 28 Copy
0 SubModel Group 28 Copy
0 Name:  SubModel Group 28 Copy
0 Author:  
0 CustomBrick
0 FlexibleBrickControlPointUnitLength -1
0 FlexibleBrickLockedControlPoint 
0 NumOfBricks:  2
1 47 0.099700 -19.665110 9.340560 0.000000 -0.999999 0.000001 -0.903294 -0.000001 -0.429021 0.429023 0.000000 -0.903294 85861.dat
0 STEP
1 191 0.100060 -19.914010 9.364110 0.000000 -1.000000 0.000000 0.094204 0.000000 -0.995553 0.995553 0.000000 0.094204 3668-b.dat
0 STEP
0 NOFILE
0 FILE SubModel Group 14 Copy
0 SubModel Group 14 Copy
0 Name:  SubModel Group 14 Copy
0 Author:  
0 CustomBrick
0 FlexibleBrickControlPointUnitLength -1
0 FlexibleBrickLockedControlPoint 
0 NumOfBricks:  14
1 70 -7.191530 -28.250340 -16.001220 0.000000 -1.000003 0.000001 1.000003 0.000000 0.000000 0.000000 0.000000 1.000000 2423.dat
0 STEP
1 31 0.808900 -28.250340 -16.001220 0.000001 -1.000003 0.000000 0.000000 0.000000 -1.000003 1.000000 0.000000 0.000000 24866.dat
1 2 0.808470 -48.250240 -36.001220 0.000000 -1.000000 0.000000 1.000000 0.000000 0.000000 0.000000 0.000000 1.000000 32607.dat
1 29 8.809080 -8.250140 -55.999280 0.000000 -1.000003 0.000000 0.674149 0.000000 -0.738598 0.738597 0.000000 0.674147 24866.dat
1 10 0.809080 -8.250239 -55.999280 0.000000 -1.000000 0.000000 0.738598 0.000000 0.674146 -0.674146 0.000000 0.738598 32607.dat
1 288 0.808470 -28.250340 -76.001220 0.000000 -1.000000 0.000000 0.000000 0.000000 1.000000 -1.000000 0.000000 0.000000 32607.dat
0 STEP
1 16 11.387890 -1.771610 -71.614990 0.832211 0.540738 -0.122586 -0.510804 0.661725 -0.548816 -0.215647 0.519349 0.826906 submodel group 29 copy
0 STEP
1 16 53.723960 21.561090 2.498930 0.999391 0.034901 0.000000 -0.034901 0.999391 0.000000 0.000000 0.000000 1.000000 submodel group 30 copy
0 STEP
0 NOFILE
0 FILE SubModel Group 29 Copy
0 SubModel Group 29 Copy
0 Name:  SubModel Group 29 Copy
0 Author:  
0 CustomBrick
0 FlexibleBrickControlPointUnitLength -1
0 FlexibleBrickLockedControlPoint 
0 NumOfBricks:  4
1 70 0.049510 -29.169290 13.029840 -0.480176 -0.832214 -0.277232 0.592336 -0.540739 0.597282 -0.646976 0.122586 0.752594 99249.dat
0 STEP
1 29 37.236750 -21.621500 11.319220 0.000000 1.000005 0.000000 -1.000002 0.000000 0.000000 0.000003 0.000002 1.000001 3742.dat
1 31 26.781330 -5.664430 -6.110900 -0.561735 -0.538863 0.627762 0.792289 -0.568852 0.220662 0.238193 0.621322 0.746477 24866.dat
1 30 23.849340 -3.959280 18.447060 0.757673 0.538864 -0.368191 -0.613021 0.781178 -0.118205 0.223930 0.315267 0.922208 3742.dat
0 STEP
0 NOFILE
0 FILE SubModel Group 30 Copy
0 SubModel Group 30 Copy
0 Name:  SubModel Group 30 Copy
0 Author:  
0 CustomBrick
0 FlexibleBrickControlPointUnitLength -1
0 FlexibleBrickLockedControlPoint 
0 NumOfBricks:  4
1 47 -55.050900 -31.752040 -38.500140 -0.034901 0.000000 0.999391 0.999391 0.000001 0.034901 -0.000001 1.000000 0.000000 80497.dat
0 STEP
1 47 -9.078420 -30.146430 26.500020 0.034900 0.000000 0.999389 -0.999392 -0.000001 0.034900 0.000001 -1.000000 0.000000 80497.dat
0 STEP
1 47 31.161930 -37.140830 -27.500010 0.000001 -0.999388 -0.034900 0.000000 -0.034900 0.999388 -1.000000 0.000000 0.000000 989012.dat
0 STEP
1 15 40.040450 -28.623940 -37.500010 0.484811 -0.874621 0.000000 0.874622 0.484811 0.000000 0.000000 0.000000 1.000000 12891.dat
0 STEP
0 NOFILE
0 FILE SubModel Group 9 Copy
0 SubModel Group 9 Copy
0 Name:  SubModel Group 9 Copy
0 Author:  
0 CustomBrick
0 FlexibleBrickControlPointUnitLength -1
0 FlexibleBrickLockedControlPoint 
0 NumOfBricks:  35
1 10 -11.714300 -16.000000 -0.283940 0.000000 0.000000 1.000000 0.000000 1.000000 0.000000 -1.000000 0.000000 0.000000 78329.dat
0 STEP
1 10 8.285830 -16.000000 -0.290040 0.000000 0.000000 1.000000 0.000000 1.000000 0.000000 -1.000000 0.000000 0.000000 78329.dat
1 47 -1.714290 -8.000000 49.716060 1.000000 0.000000 0.000000 0.000000 1.000000 0.000000 0.000000 0.000000 1.000000 2654.dat
1 47 -1.714050 -8.000000 -50.284420 1.000000 0.000000 0.000000 0.000000 1.000000 0.000000 0.000000 0.000000 1.000000 2654.dat
0 STEP
1 10 -1.714170 -16.000000 69.716060 0.000000 0.000000 -1.000000 0.000000 1.000000 0.000000 1.000000 0.000000 0.000000 26601.dat
1 10 -1.714050 -16.000000 -70.284420 1.000000 0.000000 0.000000 0.000000 1.000000 0.000000 0.000000 0.000000 1.000000 26601.dat
0 STEP
1 71 -11.714660 -23.999910 -0.284420 0.000000 0.000000 1.000000 0.000000 1.000000 0.000000 -1.000000 0.000000 0.000000 3623.dat
1 484 -11.714050 -24.000060 49.715580 0.000000 0.000000 -1.000000 0.000000 1.000000 0.000000 1.000000 0.000000 0.000000 3023.dat
1 484 -11.714050 -24.000000 -50.284420 0.000000 0.000000 -1.000000 0.000000 1.000000 0.000000 1.000000 0.000000 0.000000 3023.dat
0 STEP
1 71 8.285830 -24.000000 -20.284420 -0.000001 0.000000 1.000000 0.000000 1.000000 0.000000 -1.000000 0.000000 -0.000001 63864.dat
1 71 8.285830 -24.000000 29.709960 0.000000 0.000000 -1.000000 0.000000 1.000000 0.000000 1.000000 0.000000 0.000000 3069a.dat
1 71 8.285950 -24.000000 -60.284420 1.000000 0.000000 0.000000 0.000000 1.000000 0.000000 0.000000 0.000000 1.000000 25269.dat
1 71 8.285830 -24.000000 59.715580 0.000000 0.000000 -1.000000 0.000000 1.000000 0.000000 1.000000 0.000000 0.000000 25269.dat
0 STEP
1 16 -5.380680 -23.999970 -6.617110 1.000000 0.000000 0.000000 0.000000 1.000000 0.000000 0.000000 0.000000 1.000000 submodel group 15 copy
1 16 -5.380430 -24.000070 13.382960 1.000000 0.000000 0.000000 0.000000 1.000000 0.000000 0.000000 0.000000 1.000000 submodel group 15 copy
1 16 -5.380920 -24.000070 33.383690 1.000000 0.000000 0.000000 0.000000 1.000000 0.000000 0.000000 0.000000 1.000000 submodel group 15 copy
0 STEP
1 484 -11.714170 -56.000060 -20.284420 0.000000 0.000000 -1.000000 0.000000 1.000000 0.000000 1.000000 0.000000 0.000000 4070.dat
1 484 -11.714050 -56.000060 -0.284420 0.000000 0.000000 -1.000000 0.000000 1.000000 0.000000 1.000000 0.000000 0.000000 4070.dat
1 484 -11.714050 -48.000030 49.715580 0.000000 0.000000 -1.000000 0.000000 1.000000 0.000000 1.000000 0.000000 0.000000 4216.dat
1 484 -11.714050 -48.000030 -50.284420 0.000000 0.000000 -1.000000 0.000000 1.000000 0.000000 1.000000 0.000000 0.000000 4216.dat
1 484 -11.714540 -56.000060 19.716310 0.000000 0.000000 -1.000000 0.000000 1.000000 0.000000 1.000000 0.000000 0.000000 4070.dat
0 STEP
1 484 -11.714170 -56.000000 -20.284420 0.000000 0.000000 -1.000000 0.000000 1.000000 0.000000 1.000000 0.000000 0.000000 35464.dat
1 484 -11.713930 -56.000060 -0.284420 0.000000 0.000000 -1.000000 0.000000 1.000000 0.000000 1.000000 0.000000 0.000000 35464.dat
1 484 -11.714050 -48.000060 39.715580 0.000000 0.000000 -1.000000 0.000000 1.000000 0.000000 1.000000 0.000000 0.000000 35464.dat
1 484 -11.714050 -48.000060 59.715580 -1.000000 0.000000 0.000000 0.000000 1.000000 0.000000 0.000000 0.000000 -1.000000 54200.dat
1 484 -11.714050 -48.000030 -40.284420 0.000000 0.000000 -1.000000 0.000000 1.000000 0.000000 1.000000 0.000000 0.000000 35464.dat
1 484 -11.714050 -48.000030 -60.284420 1.000000 0.000000 0.000000 0.000000 1.000000 0.000000 0.000000 0.000000 1.000000 54200.dat
1 484 -11.714720 -56.000060 19.716310 0.000000 0.000000 -1.000000 0.000000 1.000000 0.000000 1.000000 0.000000 0.000000 35464.dat
0 STEP
1 70 -11.714300 -24.000000 79.715580 -1.000000 0.000000 -0.000001 0.000000 1.000000 0.000000 0.000001 0.000000 -1.000000 85861.dat
1 70 -11.714300 -24.000000 -80.284420 -1.000000 0.000000 -0.000001 0.000000 1.000000 0.000000 0.000001 0.000000 -1.000000 85861.dat
1 2 -11.714300 -23.250000 79.715580 1.000000 0.000000 0.000000 0.000000 1.000000 0.000000 0.000000 0.000000 1.000000 24482.dat
1 2 -11.714300 -23.250000 -80.284420 1.000000 0.000000 0.000000 0.000000 1.000000 0.000000 0.000000 0.000000 1.000000 24482.dat
0 STEP
0 NOFILE
0 FILE SubModel Group 15 Copy
0 SubModel Group 15 Copy
0 Name:  SubModel Group 15 Copy
0 Author:  
0 CustomBrick
0 FlexibleBrickControlPointUnitLength -1
0 FlexibleBrickLockedControlPoint 
0 NumOfBricks:  2
1 484 -6.333620 -8.000000 -13.667320 0.000001 0.000000 -1.000000 0.000000 1.000000 0.000000 1.000000 0.000000 0.000001 26047.dat
0 STEP
1 15 13.666810 -12.190250 -13.666340 -1.000000 0.000000 0.000000 0.000000 -1.000000 0.000000 0.000000 0.000000 1.000000 2555.dat
0 STEP
0 NOFILE
0 FILE SubModel Group 10 Copy
0 SubModel Group 10 Copy
0 Name:  SubModel Group 10 Copy
0 Author:  
0 CustomBrick
0 FlexibleBrickControlPointUnitLength -1
0 FlexibleBrickLockedControlPoint 
0 NumOfBricks:  28
1 26 -0.357600 -19.800020 -0.213130 1.000000 0.000000 0.000000 0.000000 1.000000 0.000000 0.000000 0.000000 1.000000 3022.dat
0 STEP
1 16 -0.356930 -0.000020 -16.546470 1.000000 0.000000 0.000000 0.000000 1.000000 0.000000 0.000000 0.000000 1.000000 submodel group 17 copy
1 16 -0.357540 -0.000060 16.120200 -1.000000 0.000000 0.000000 0.000000 1.000000 0.000000 0.000000 0.000000 -1.000000 submodel group 17 copy
0 STEP
1 26 9.642330 -27.800050 -30.214110 0.000001 0.000000 -1.000000 0.000000 1.000000 0.000000 1.000000 0.000000 0.000001 2420.dat
1 47 -20.357600 -23.799970 -0.213130 0.000000 -1.000000 0.000002 0.000000 0.000002 1.000000 -1.000000 0.000000 0.000000 41682.dat
0 STEP
1 16 -0.356480 -3.799960 35.286680 1.000000 0.000000 0.000000 0.000000 1.000000 0.000000 0.000000 0.000000 1.000000 submodel group 18 copy
0 STEP
1 26 -10.356260 -43.799930 -0.213130 0.000000 0.000000 1.000000 0.000000 1.000000 0.000000 -1.000000 0.000000 0.000000 3710.dat
1 26 -10.356260 -35.799930 -0.213130 0.000000 0.000000 1.000000 0.000000 1.000000 0.000000 -1.000000 0.000000 0.000000 3710.dat
0 STEP
1 212 9.643620 -43.799930 9.786870 1.000000 0.000000 0.000000 0.000000 1.000000 0.000000 0.000000 0.000000 1.000000 86996.dat
1 26 -0.356380 -51.799930 49.786860 -1.000000 0.000000 0.000000 0.000000 1.000000 0.000000 0.000000 0.000000 -1.000000 37352.dat
1 212 9.642400 -43.800050 -10.214110 1.000000 0.000000 0.000000 0.000000 1.000000 0.000000 0.000000 0.000000 1.000000 86996.dat
1 212 9.642400 -43.800050 29.785890 1.000000 0.000000 0.000000 0.000000 1.000000 0.000000 0.000000 0.000000 1.000000 86996.dat
1 212 9.642210 -43.800050 -30.214110 1.000000 0.000000 0.000000 0.000000 1.000000 0.000000 0.000000 0.000000 1.000000 86996.dat
0 STEP
1 26 -0.357600 -51.800050 9.785890 0.000000 0.000000 1.000000 0.000000 1.000000 0.000000 -1.000000 0.000000 0.000000 26603.dat
1 26 -0.357790 -51.800050 -40.214110 -1.000000 0.000000 -0.000001 0.000000 1.000000 0.000000 0.000001 0.000000 -1.000000 87580.dat
0 STEP
1 16 -0.358710 -3.800050 -56.014120 1.000000 0.000000 0.000000 0.000000 1.000000 0.000000 0.000000 0.000000 1.000000 submodel group 31 copy
0 STEP
1 26 29.642220 -51.697260 -30.214160 0.000001 0.000002 -1.000000 -0.000001 1.000000 0.000002 1.000000 0.000001 0.000001 988012.dat
0 STEP
0 NOFILE
0 FILE SubModel Group 17 Copy
0 SubModel Group 17 Copy
0 Name:  SubModel Group 17 Copy
0 Author:  
0 CustomBrick
0 FlexibleBrickControlPointUnitLength -1
0 FlexibleBrickLockedControlPoint 
0 NumOfBricks:  3
1 26 0.000060 -11.799970 6.333330 1.000000 0.000000 0.000000 0.000000 1.000000 0.000000 0.000000 0.000000 1.000000 2540.dat
0 STEP
1 0 15.450070 -10.000010 -13.666670 0.000000 1.000000 0.000000 -1.000000 0.000000 -0.000001 -0.000001 0.000000 1.000000 85861.dat
1 0 -15.450140 -10.000010 -13.666670 0.000000 -1.000000 0.000000 -1.000000 0.000000 -0.000001 0.000001 0.000000 -1.000000 85861.dat
0 STEP
0 NOFILE
0 FILE SubModel Group 18 Copy
0 SubModel Group 18 Copy
0 Name:  SubModel Group 18 Copy
0 Author:  
0 CustomBrick
0 FlexibleBrickControlPointUnitLength -1
0 FlexibleBrickLockedControlPoint 
0 NumOfBricks:  4
1 26 -0.000030 -8.000000 14.499940 1.000000 0.000000 0.000000 0.000000 1.000000 0.000000 0.000000 0.000000 1.000000 3023.dat
0 STEP
1 191 -0.000030 -15.999970 14.499940 1.000000 0.000000 0.000000 0.000000 1.000000 0.000000 0.000000 0.000000 1.000000 3023.dat
0 STEP
1 26 -10.000030 -24.000000 4.499940 0.000000 0.000000 1.000000 0.000000 1.000000 0.000000 -1.000000 0.000000 0.000000 3023.dat
1 26 10.000090 -23.999970 -5.499820 0.000000 0.000000 -1.000000 0.000000 1.000000 0.000000 1.000000 0.000000 0.000000 3623.dat
0 STEP
0 NOFILE
0 FILE SubModel Group 31 Copy
0 SubModel Group 31 Copy
0 Name:  SubModel Group 31 Copy
0 Author:  
0 CustomBrick
0 FlexibleBrickControlPointUnitLength -1
0 FlexibleBrickLockedControlPoint 
0 NumOfBricks:  5
1 26 0.001110 -8.000000 5.800000 1.000000 0.000000 0.000000 0.000000 1.000000 0.000000 0.000000 0.000000 1.000000 3023.dat
0 STEP
1 26 0.001110 -16.000000 5.800000 1.000000 0.000000 0.000000 0.000000 1.000000 0.000000 0.000000 0.000000 1.000000 3023.dat
0 STEP
1 26 10.001110 -39.999970 5.800000 1.000000 0.000000 0.000000 0.000000 1.000000 0.000000 0.000000 0.000000 1.000000 4070.dat
1 26 -9.998890 -39.999970 5.800000 1.000000 0.000000 0.000000 0.000000 1.000000 0.000000 0.000000 0.000000 1.000000 4070.dat
0 STEP
1 26 -0.004450 -30.000000 -8.200000 1.000000 0.000000 0.000000 0.000000 0.000000 -1.000000 0.000000 1.000000 0.000000 3069a.dat
0 STEP
0 NOFILE
0 FILE SubModel Group 16 Copy
0 SubModel Group 16 Copy
0 Name:  SubModel Group 16 Copy
0 Author:  
0 CustomBrick
0 FlexibleBrickControlPointUnitLength -1
0 FlexibleBrickLockedControlPoint 
0 NumOfBricks:  5
1 71 7.609800 -10.000000 -11.998050 0.000000 -1.000000 0.000000 0.000000 0.000000 1.000000 -1.000000 0.000000 0.000000 4070.dat
0 STEP
1 15 -2.390200 -60.450040 -11.998050 0.000000 0.000000 -1.000000 0.000000 1.000000 0.000000 1.000000 0.000000 0.000000 87994.dat
1 15 -8.415040 -60.450080 17.996830 0.000000 -1.000000 0.000000 1.000000 0.000000 0.000000 0.000000 0.000000 1.000000 989013.dat
1 179 15.610290 -10.000000 -11.998290 0.000000 -1.000000 0.000000 1.000000 0.000000 0.000000 0.000000 0.000000 1.000000 3070b.dat
0 STEP
1 30 7.584960 -70.450100 -12.003190 0.000003 -1.000000 -0.000002 0.000001 0.000002 -1.000000 1.000000 0.000003 0.000001 3069b.dat
0 STEP
0 NOFILE
0 FILE SubModel Group 7 Copy
0 SubModel Group 7 Copy
0 Name:  SubModel Group 7 Copy
0 Author:  
0 CustomBrick
0 FlexibleBrickControlPointUnitLength -1
0 FlexibleBrickLockedControlPoint 
0 NumOfBricks:  28
1 26 -15.583380 -40.000730 -59.999520 0.000000 -1.000000 0.000000 -1.000000 0.000000 0.000000 0.000000 0.000000 -1.000000 3021.dat
0 STEP
1 26 -15.583800 -39.999910 19.999760 0.000000 -1.000000 0.000000 -1.000000 0.000000 0.000000 0.000000 0.000000 -1.000000 3021.dat
1 26 -15.583620 -40.000730 -20.000000 0.000000 -1.000000 0.000000 -1.000000 0.000000 0.000000 0.000000 0.000000 -1.000000 3021.dat
1 26 -15.583800 -39.999850 60.000000 0.000000 -1.000000 0.000000 -1.000000 0.000000 0.000000 0.000000 0.000000 -1.000000 3021.dat
1 26 -7.583800 -59.999910 -0.000240 0.000000 -1.000000 0.000000 0.000000 0.000000 -1.000000 1.000000 0.000000 0.000000 3460.dat
0 STEP
1 26 -7.583800 -29.999850 -0.000240 0.000000 -1.000000 0.000000 0.000000 0.000000 -1.000000 1.000000 0.000000 0.000000 3034.dat
0 STEP
1 26 -7.559020 -90.000060 80.000000 0.000000 -1.000000 0.000000 0.000000 0.000000 -1.000000 1.000000 0.000000 0.000000 989013.dat
1 26 -7.559020 -50.000060 80.000000 0.000000 -1.000000 0.000000 0.000000 0.000000 -1.000000 1.000000 0.000000 0.000000 989013.dat
1 26 -7.558840 -69.999940 -80.000240 0.000000 -1.000000 0.000000 -1.000000 0.000000 0.000000 0.000000 0.000000 -1.000000 989013.dat
1 26 -7.559270 -30.000000 -80.000490 0.000000 -1.000000 0.000000 0.000000 0.000000 1.000000 -1.000000 0.000000 0.000000 989013.dat
1 26 0.416320 -39.999790 -20.000000 0.000000 -1.000000 0.000000 1.000000 0.000000 0.000000 0.000000 0.000000 1.000000 3021.dat
1 26 0.416080 -39.999880 19.999760 0.000000 -1.000000 0.000000 1.000000 0.000000 0.000000 0.000000 0.000000 1.000000 3021.dat
1 26 0.416140 -39.999700 60.000000 0.000000 -1.000000 0.000000 0.000000 0.000000 -1.000000 1.000000 0.000000 0.000000 3023.dat
1 26 0.416260 -39.999660 -60.000490 0.000000 -1.000000 0.000000 0.000000 0.000000 -1.000000 1.000000 0.000000 0.000000 3023.dat
1 26 -7.559270 10.000000 -80.000490 0.000000 -1.000000 0.000000 0.000000 0.000000 1.000000 -1.000000 0.000000 0.000000 989013.dat
1 26 -7.558840 -9.999969 -20.000240 0.000000 -1.000000 0.000000 1.000000 0.000000 0.000000 0.000000 0.000000 1.000000 989013.dat
1 26 -7.558840 -69.999940 19.999760 0.000000 -1.000000 0.000000 -1.000000 0.000000 0.000000 0.000000 0.000000 -1.000000 989013.dat
1 26 -7.558840 -9.999969 79.999760 0.000000 -1.000000 0.000000 1.000000 0.000000 0.000000 0.000000 0.000000 1.000000 989013.dat
0 STEP
1 26 -1.558840 -1.999970 -0.000240 0.000000 0.000000 1.000000 0.000000 -1.000000 0.000000 1.000000 0.000000 0.000000 4162.dat
1 26 -1.558840 -77.999940 -0.000240 0.000000 0.000000 -1.000000 0.000000 1.000000 0.000000 1.000000 0.000000 0.000000 4162.dat
1 15 8.415470 -40.000150 -20.000000 0.000000 -1.000000 0.000000 1.000000 0.000000 0.000000 0.000000 0.000000 1.000000 26603.dat
1 15 8.415220 -40.001010 20.000000 0.000000 -1.000000 0.000000 1.000000 0.000000 0.000000 0.000000 0.000000 1.000000 26603.dat
1 15 8.414670 -40.000730 60.000490 0.000000 -1.000000 0.000000 1.000000 0.000000 0.000000 0.000000 0.000000 1.000000 26603.dat
1 15 8.415220 -40.000090 -59.999520 0.000000 -1.000000 0.000000 1.000000 0.000000 0.000000 0.000000 0.000000 1.000000 26603.dat
0 STEP
1 26 -1.559020 -40.000060 88.000000 0.000000 0.000000 -1.000000 1.000000 0.000000 0.000000 0.000000 -1.000000 0.000000 3710.dat
1 26 -1.559020 -40.000060 88.000000 0.000000 0.000000 1.000000 -1.000000 0.000000 0.000000 0.000000 -1.000000 0.000000 79756.dat
1 26 -1.559270 -40.000000 -88.000490 0.000000 0.000000 1.000000 1.000000 0.000000 0.000000 0.000000 1.000000 0.000000 3710.dat
1 26 -1.559270 -40.000000 -88.000490 0.000000 0.000000 -1.000000 -1.000000 0.000000 0.000000 0.000000 1.000000 0.000000 79756.dat
0 STEP
0 NOFILE
0 FILE SubModel Group 12 Copy
0 SubModel Group 12 Copy
0 Name:  SubModel Group 12 Copy
0 Author:  
0 CustomBrick
0 FlexibleBrickControlPointUnitLength -1
0 FlexibleBrickLockedControlPoint 
1 31 0.023510 -40.000000 4.437500 1.000000 0.000000 0.000000 0.000000 1.000000 0.000000 0.000000 0.000000 1.000000 22222_973tex.dat
1 78 0.023510 -96.000000 4.437500 0.906308 0.000000 -0.422618 0.000000 1.000000 0.000000 0.422618 0.000000 0.906308 22222_3626tex.dat
1 31 15.495300 -63.124320 4.437500 0.985328 0.130742 0.109705 -0.170671 0.754807 0.633355 0.000000 -0.642785 0.766047 3819.dat
1 31 -15.551110 -63.092840 4.437500 0.985495 -0.169703 0.000000 0.169703 0.985495 0.000000 0.000000 0.000000 1.000000 3818.dat
1 78 -23.702930 -45.216950 -5.062500 0.991565 0.048984 0.119998 0.048984 0.715542 -0.696850 -0.119998 0.696850 0.707107 3820.dat
1 78 21.809010 -55.969880 -15.435890 0.000634 0.999888 -0.014874 -0.996305 -0.000645 -0.085880 -0.085880 0.014875 0.996195 3820.dat
0 STEP
1 0 0.023510 -78.547800 4.437500 0.906308 0.000000 -0.422618 0.000000 1.000000 0.000000 0.422618 0.000000 0.906308 toufa30000.dat
1 15 0.023570 -40.000010 4.437500 1.000000 0.000000 0.000000 0.000000 1.000000 0.000000 0.000000 0.000000 1.000000 3815.dat
1 15 0.025830 -28.000290 4.437330 0.999996 0.000000 0.000000 0.000000 0.573578 0.819149 0.000000 -0.819151 0.573578 3817.dat
1 15 0.025830 -28.000290 4.437330 0.999996 0.000000 0.000000 0.000000 0.224946 -0.974370 0.000000 0.974371 0.224945 3816.dat
0 STEP
0 NOFILE
0 FILE SubModel Group Copy
0 SubModel Group Copy
0 Name:  SubModel Group Copy
0 Author:  
0 CustomBrick
0 FlexibleBrickControlPointUnitLength -1
0 FlexibleBrickLockedControlPoint 
0 NumOfBricks:  11
1 85 18.013630 -18.999830 -50.003880 1.000000 0.000000 0.000000 0.000000 1.000000 0.000000 0.000000 0.000000 1.000000 111111111_3815tex.dat
1 85 18.013630 -40.000020 -50.003880 1.000000 0.000000 0.000000 0.000000 1.000000 0.000000 0.000000 0.000000 1.000000 111111111_973tex.dat
1 78 18.013630 -96.000060 -50.003880 1.000000 0.000000 0.000000 0.000000 1.000000 0.000000 0.000000 0.000000 1.000000 111111111_3626tex.dat
1 78 -6.020730 -54.035580 -71.000940 0.999320 0.001233 0.036844 0.001230 0.997769 -0.066758 -0.036845 0.066758 0.997089 3820.dat
1 78 41.382160 -57.100180 -71.185580 0.999960 -0.000218 -0.008932 -0.000243 0.998670 -0.051560 0.008932 0.051560 0.998630 3820.dat
1 85 -17.671930 65.730150 11.762490 0.991565 0.048983 -0.119996 0.048983 0.715541 0.696851 0.119996 -0.696851 0.707107 ma484f832_20221117_092443.dat
1 85 -30.127000 99.960780 14.760870 0.987574 -0.071723 0.139832 -0.071723 0.586004 0.807128 -0.139832 -0.807128 0.573578 ma484f832_20221117_092439.dat
0 STEP
1 85 28.513630 -0.000020 -51.003880 1.000000 0.000000 0.000000 0.000000 1.000000 0.000000 0.000000 0.000000 1.000000 666666666666_3817tex.dat
1 85 7.513630 0.000000 -51.003880 1.000000 0.000000 0.000000 0.000000 1.000000 0.000000 0.000000 0.000000 1.000000 666666666666_3816tex.dat
1 16 18.013630 -92.000030 19.996120 1.000000 0.000000 0.000000 0.000000 1.000000 0.000000 0.000000 0.000000 1.000000 submodel group 32 copy
0 STEP
0 NOFILE
0 FILE SubModel Group 32 Copy
0 SubModel Group 32 Copy
0 Name:  SubModel Group 32 Copy
0 Author:  
0 CustomBrick
0 FlexibleBrickControlPointUnitLength -1
0 FlexibleBrickLockedControlPoint 
0 NumOfBricks:  2
1 0 0.000000 0.000000 2.358230 1.000000 0.000000 0.000000 0.000000 1.000000 0.000000 0.000000 0.000000 1.000000 1111111.dat
1 85 0.000000 0.006180 -0.358240 1.000000 0.000000 0.000000 0.000000 1.000000 0.000000 0.000000 0.000000 1.000000 22222.dat
0 NOFILE
