mtllib plate(double_jumper)_trans_clear.mtl
v 8 1.000059 -29.00001
v 7 1.000059 -29.00001
v 7 0.9999984 28.99999
v 8 0.9999984 28.99999
v 8 0.9999984 28.99999
v 7 0.9999984 28.99999
v 7 19 29.00001
v 8 19 29.00001
v 8 19 29.00001
v 7 19 29.00001
v 7 19.00006 -28.99999
v 8 19.00006 -28.99999
v 8 19.00006 -28.99999
v 7 19.00006 -28.99999
v 7 1.000059 -29.00001
v 8 1.000059 -29.00001
v 8 19.00006 -28.99999
v 8 16.00006 -25.99999
v 8 16 26.00001
v 8 19 29.00001
v 8 0.9999984 28.99999
v 8 4.000001 25.99999
v 8 4.000056 -26.00001
v 8 1.000059 -29.00001
v 7.9 15.00004 -13.49999
v 7.9 15.00005 -16.49999
v 7.9 16.00005 -16.49999
v 7.9 16.00004 -13.49999
v 7.9 15.00005 -16.49999
v 4 15.00005 -16.49999
v 4 16.00005 -16.49999
v 7.9 16.00005 -16.49999
v 7.9 16.00004 -13.49999
v 4 16.00004 -13.49999
v 4 15.00004 -13.49999
v 7.9 15.00004 -13.49999
v 4 15.00005 -16.49999
v 4 13.50004 -15
v 7.9 13.50004 -15
v 7.9 15.00005 -16.49999
v 4 13.50004 -15
v 4 15.00004 -13.49999
v 7.9 15.00004 -13.49999
v 7.9 13.50004 -15
v 7.9 13.50004 -15
v 7.9 15.00003 -3.499994
v 7.9 15.00004 -6.499994
v 7.9 16.00004 -6.499993
v 7.9 16.00003 -3.499993
v 7.9 15.00004 -6.499994
v 4 15.00004 -6.499994
v 4 16.00004 -6.499993
v 7.9 16.00004 -6.499993
v 7.9 16.00003 -3.499993
v 4 16.00003 -3.499993
v 4 15.00003 -3.499994
v 7.9 15.00003 -3.499994
v 4 15.00004 -6.499994
v 4 13.50003 -4.999996
v 7.9 13.50003 -4.999996
v 7.9 15.00004 -6.499994
v 4 13.50003 -4.999996
v 4 15.00003 -3.499994
v 7.9 15.00003 -3.499994
v 7.9 13.50003 -4.999996
v 7.9 13.50003 -4.999996
v 7.9 15.00002 6.500006
v 7.9 15.00002 3.500006
v 7.9 16.00002 3.500007
v 7.9 16.00002 6.500007
v 7.9 15.00002 3.500006
v 4 15.00002 3.500006
v 4 16.00002 3.500007
v 7.9 16.00002 3.500007
v 7.9 16.00002 6.500007
v 4 16.00002 6.500007
v 4 15.00002 6.500006
v 7.9 15.00002 6.500006
v 4 15.00002 3.500006
v 4 13.50002 5.000004
v 7.9 13.50002 5.000004
v 7.9 15.00002 3.500006
v 4 13.50002 5.000004
v 4 15.00002 6.500006
v 7.9 15.00002 6.500006
v 7.9 13.50002 5.000004
v 7.9 13.50002 5.000004
v 7.9 15.00001 16.50001
v 7.9 15.00001 13.50001
v 7.9 16.00002 13.50001
v 7.9 16.00001 16.50001
v 7.9 15.00001 13.50001
v 4 15.00001 13.50001
v 4 16.00002 13.50001
v 7.9 16.00002 13.50001
v 7.9 16.00001 16.50001
v 4 16.00001 16.50001
v 4 15.00001 16.50001
v 7.9 15.00001 16.50001
v 4 15.00001 13.50001
v 4 13.50001 15
v 7.9 13.50001 15
v 7.9 15.00001 13.50001
v 4 13.50001 15
v 4 15.00001 16.50001
v 7.9 15.00001 16.50001
v 7.9 13.50001 15
v 7.9 13.50001 15
v 7.9 5.000015 13.5
v 7.9 5.000011 16.5
v 7.9 4.000011 16.49999
v 7.9 4.000015 13.49999
v 7.9 5.000011 16.5
v 4 5.000011 16.5
v 4 4.000011 16.49999
v 7.9 4.000011 16.49999
v 7.9 4.000015 13.49999
v 4 4.000015 13.49999
v 4 5.000015 13.5
v 7.9 5.000015 13.5
v 4 5.000011 16.5
v 4 6.500013 15
v 7.9 6.500013 15
v 7.9 5.000011 16.5
v 4 6.500013 15
v 4 5.000015 13.5
v 7.9 5.000015 13.5
v 7.9 6.500013 15
v 7.9 6.500013 15
v 7.9 5.000025 3.499996
v 7.9 5.000022 6.499996
v 7.9 4.000022 6.499995
v 7.9 4.000025 3.499995
v 7.9 5.000022 6.499996
v 4 5.000022 6.499996
v 4 4.000022 6.499995
v 7.9 4.000022 6.499995
v 7.9 4.000025 3.499995
v 4 4.000025 3.499995
v 4 5.000025 3.499996
v 7.9 5.000025 3.499996
v 4 5.000022 6.499996
v 4 6.500023 4.999997
v 7.9 6.500023 4.999997
v 7.9 5.000022 6.499996
v 4 6.500023 4.999997
v 4 5.000025 3.499996
v 7.9 5.000025 3.499996
v 7.9 6.500023 4.999997
v 7.9 6.500023 4.999997
v 7.9 5.000035 -6.500004
v 7.9 5.000032 -3.500004
v 7.9 4.000032 -3.500005
v 7.9 4.000035 -6.500005
v 7.9 5.000032 -3.500004
v 4 5.000032 -3.500004
v 4 4.000032 -3.500005
v 7.9 4.000032 -3.500005
v 7.9 4.000035 -6.500005
v 4 4.000035 -6.500005
v 4 5.000035 -6.500004
v 7.9 5.000035 -6.500004
v 4 5.000032 -3.500004
v 4 6.500034 -5.000003
v 7.9 6.500034 -5.000003
v 7.9 5.000032 -3.500004
v 4 6.500034 -5.000003
v 4 5.000035 -6.500004
v 7.9 5.000035 -6.500004
v 7.9 6.500034 -5.000003
v 7.9 6.500034 -5.000003
v 7.9 5.000046 -16.5
v 7.9 5.000042 -13.5
v 7.9 4.000042 -13.50001
v 7.9 4.000046 -16.50001
v 7.9 5.000042 -13.5
v 4 5.000042 -13.5
v 4 4.000042 -13.50001
v 7.9 4.000042 -13.50001
v 7.9 4.000046 -16.50001
v 4 4.000046 -16.50001
v 4 5.000046 -16.5
v 7.9 5.000046 -16.5
v 4 5.000042 -13.5
v 4 6.500044 -15
v 7.9 6.500044 -15
v 7.9 5.000042 -13.5
v 4 6.500044 -15
v 4 5.000046 -16.5
v 7.9 5.000046 -16.5
v 7.9 6.500044 -15
v 7.9 6.500044 -15
v 4 16.00006 -25.99999
v 4 16 26.00001
v 4 4.000001 25.99999
v 4 4.000056 -26.00001
v 4 4.000001 25.99999
v 8 4.000001 25.99999
v 8 4.000056 -26.00001
v 4 4.000056 -26.00001
v 4 4.000056 -26.00001
v 8 4.000056 -26.00001
v 8 16.00006 -25.99999
v 4 16.00006 -25.99999
v 4 16.00006 -25.99999
v 8 16.00006 -25.99999
v 8 16 26.00001
v 4 16 26.00001
v 4 16 26.00001
v 8 16 26.00001
v 8 4.000001 25.99999
v 4 4.000001 25.99999
v 7 20.00006 -29.99999
v 7 19.00006 -28.99999
v 7 19 29.00001
v 7 20 30.00001
v 7 -2.622684E-06 29.99999
v 7 0.9999984 28.99999
v 7 1.000059 -29.00001
v 7 5.984314E-05 -30.00001
v 0 20.00006 -29.99999
v 0 20 30.00001
v 0 -2.622684E-06 29.99999
v 0 5.984314E-05 -30.00001
v 0 -2.622684E-06 29.99999
v 7 -2.622684E-06 29.99999
v 7 5.984314E-05 -30.00001
v 0 5.984314E-05 -30.00001
v 0 5.984314E-05 -30.00001
v 7 5.984314E-05 -30.00001
v 7 20.00006 -29.99999
v 0 20.00006 -29.99999
v 0 20.00006 -29.99999
v 7 20.00006 -29.99999
v 7 20 30.00001
v 0 20 30.00001
v 0 20 30.00001
v 7 20 30.00001
v 7 -2.622684E-06 29.99999
v 0 -2.622684E-06 29.99999
v 0 9.478023 6.0344
v 0 10.00002 6.000001
v -4 10.00002 6.000001
v -4 9.478023 6.0344
v 0 8.964822 6.1364
v -4 8.964822 6.1364
v 0 8.469222 6.304399
v -4 8.469222 6.304399
v 0 8.000022 6.535999
v -4 8.000022 6.535999
v 0 7.564822 6.826398
v -4 7.564822 6.826398
v 0 7.171621 7.171598
v -4 7.171621 7.171598
v 0 6.826421 7.564798
v -4 6.826421 7.564798
v 0 6.53602 7.999997
v -4 6.53602 7.999997
v 0 6.30442 8.469197
v -4 6.30442 8.469197
v 0 6.136419 8.964797
v -4 6.136419 8.964797
v 0 6.034419 9.477997
v -4 6.034419 9.477997
v 0 6.000018 9.999997
v -4 6.000018 9.999997
v 0 6.034418 10.522
v -4 6.034418 10.522
v 0 6.136417 11.0352
v -4 6.136417 11.0352
v 0 6.304417 11.5308
v -4 6.304417 11.5308
v 0 6.536016 12
v -4 6.536016 12
v 0 6.826416 12.4352
v -4 6.826416 12.4352
v 0 7.171615 12.8284
v -4 7.171615 12.8284
v 0 7.564815 13.1736
v -4 7.564815 13.1736
v 0 8.000014 13.464
v -4 8.000014 13.464
v 0 8.469214 13.6956
v -4 8.469214 13.6956
v 0 8.964814 13.8636
v -4 8.964814 13.8636
v 0 9.478014 13.9656
v -4 9.478014 13.9656
v 0 10.00001 14
v -4 10.00001 14
v 0 10.52201 13.9656
v -4 10.52201 13.9656
v 0 11.03521 13.8636
v -4 11.03521 13.8636
v 0 11.53081 13.6956
v -4 11.53081 13.6956
v 0 12.00001 13.464
v -4 12.00001 13.464
v 0 12.43521 13.1736
v -4 12.43521 13.1736
v 0 12.82841 12.8284
v -4 12.82841 12.8284
v 0 13.17362 12.4352
v -4 13.17362 12.4352
v 0 13.46402 12
v -4 13.46402 12
v 0 13.69562 11.5308
v -4 13.69562 11.5308
v 0 13.86362 11.0352
v -4 13.86362 11.0352
v 0 13.96562 10.52201
v -4 13.96562 10.52201
v 0 14.00002 10
v -4 14.00002 10
v 0 13.96562 9.478004
v -4 13.96562 9.478004
v 0 13.86362 8.964805
v -4 13.86362 8.964805
v 0 13.69562 8.469205
v -4 13.69562 8.469205
v 0 13.46402 8.000005
v -4 13.46402 8.000005
v 0 13.17362 7.564805
v -4 13.17362 7.564805
v 0 12.82842 7.171604
v -4 12.82842 7.171604
v 0 12.43522 6.826403
v -4 12.43522 6.826403
v 0 12.00002 6.536003
v -4 12.00002 6.536003
v 0 11.53082 6.304402
v -4 11.53082 6.304402
v 0 11.03522 6.136402
v -4 11.03522 6.136402
v 0 10.52202 6.034401
v -4 10.52202 6.034401
v 0 9.217025 4.0516
v 0 10.00002 4.000001
v -4 10.00002 4.000001
v -4 9.217025 4.0516
v 0 8.447225 4.204599
v -4 8.447225 4.204599
v 0 7.703824 4.456599
v -4 7.703824 4.456599
v 0 7.000024 4.803998
v -4 7.000024 4.803998
v 0 6.347223 5.239597
v -4 6.347223 5.239597
v 0 5.757422 5.757397
v -4 5.757422 5.757397
v 0 5.239622 6.347196
v -4 5.239622 6.347196
v 0 4.804021 6.999995
v -4 4.804021 6.999995
v 0 4.456621 7.703795
v -4 4.456621 7.703795
v 0 4.20462 8.447195
v -4 4.20462 8.447195
v 0 4.051619 9.216994
v -4 4.051619 9.216994
v 0 4.000018 9.999994
v -4 4.000018 9.999994
v 0 4.051617 10.78299
v -4 4.051617 10.78299
v 0 4.204617 11.5528
v -4 4.204617 11.5528
v 0 4.456616 12.2962
v -4 4.456616 12.2962
v 0 4.804015 13
v -4 4.804015 13
v 0 5.239614 13.6528
v -4 5.239614 13.6528
v 0 5.757414 14.2426
v -4 5.757414 14.2426
v 0 6.347213 14.7604
v -4 6.347213 14.7604
v 0 7.000013 15.196
v -4 7.000013 15.196
v 0 7.703813 15.5434
v -4 7.703813 15.5434
v 0 8.447212 15.7954
v -4 8.447212 15.7954
v 0 9.217012 15.9484
v -4 9.217012 15.9484
v 0 10.00001 16
v -4 10.00001 16
v 0 10.78301 15.9484
v -4 10.78301 15.9484
v 0 11.55281 15.7954
v -4 11.55281 15.7954
v 0 12.29621 15.5434
v -4 12.29621 15.5434
v 0 13.00001 15.196
v -4 13.00001 15.196
v 0 13.65281 14.7604
v -4 13.65281 14.7604
v 0 14.24261 14.24261
v -4 14.24261 14.24261
v 0 14.76041 13.65281
v -4 14.76041 13.65281
v 0 15.19602 13.00001
v -4 15.19602 13.00001
v 0 15.54342 12.29621
v -4 15.54342 12.29621
v 0 15.79542 11.55281
v -4 15.79542 11.55281
v 0 15.94842 10.78301
v -4 15.94842 10.78301
v 0 16.00002 10.00001
v -4 16.00002 10.00001
v 0 15.94842 9.217007
v -4 15.94842 9.217007
v 0 15.79542 8.447206
v -4 15.79542 8.447206
v 0 15.54342 7.703807
v -4 15.54342 7.703807
v 0 15.19602 7.000006
v -4 15.19602 7.000006
v 0 14.76042 6.347206
v -4 14.76042 6.347206
v 0 14.24262 5.757405
v -4 14.24262 5.757405
v 0 13.65282 5.239605
v -4 13.65282 5.239605
v 0 13.00002 4.804004
v -4 13.00002 4.804004
v 0 12.29622 4.456604
v -4 12.29622 4.456604
v 0 11.55282 4.204602
v -4 11.55282 4.204602
v 0 10.78302 4.051602
v -4 10.78302 4.051602
v -4 10.00002 6.000001
v -4 9.478023 6.0344
v -4 9.217025 4.0516
v -4 10.00002 4.000001
v -4 8.964822 6.1364
v -4 8.447225 4.204599
v -4 8.469222 6.304399
v -4 7.703824 4.456599
v -4 8.000022 6.535999
v -4 7.000024 4.803998
v -4 7.564822 6.826398
v -4 6.347223 5.239597
v -4 7.171621 7.171598
v -4 5.757422 5.757397
v -4 6.826421 7.564798
v -4 5.239622 6.347196
v -4 6.53602 7.999997
v -4 4.804021 6.999995
v -4 6.30442 8.469197
v -4 4.456621 7.703795
v -4 6.136419 8.964797
v -4 4.20462 8.447195
v -4 6.034419 9.477997
v -4 4.051619 9.216994
v -4 6.000018 9.999997
v -4 4.000018 9.999994
v -4 6.034418 10.522
v -4 4.051617 10.78299
v -4 6.136417 11.0352
v -4 4.204617 11.5528
v -4 6.304417 11.5308
v -4 4.456616 12.2962
v -4 6.536016 12
v -4 4.804015 13
v -4 6.826416 12.4352
v -4 5.239614 13.6528
v -4 7.171615 12.8284
v -4 5.757414 14.2426
v -4 7.564815 13.1736
v -4 6.347213 14.7604
v -4 8.000014 13.464
v -4 7.000013 15.196
v -4 8.469214 13.6956
v -4 7.703813 15.5434
v -4 8.964814 13.8636
v -4 8.447212 15.7954
v -4 9.478014 13.9656
v -4 9.217012 15.9484
v -4 10.00001 14
v -4 10.00001 16
v -4 10.52201 13.9656
v -4 10.78301 15.9484
v -4 11.03521 13.8636
v -4 11.55281 15.7954
v -4 11.53081 13.6956
v -4 12.29621 15.5434
v -4 12.00001 13.464
v -4 13.00001 15.196
v -4 12.43521 13.1736
v -4 13.65281 14.7604
v -4 12.82841 12.8284
v -4 14.24261 14.24261
v -4 13.17362 12.4352
v -4 14.76041 13.65281
v -4 13.46402 12
v -4 15.19602 13.00001
v -4 13.69562 11.5308
v -4 15.54342 12.29621
v -4 13.86362 11.0352
v -4 15.79542 11.55281
v -4 13.96562 10.52201
v -4 15.94842 10.78301
v -4 14.00002 10
v -4 16.00002 10.00001
v -4 13.96562 9.478004
v -4 15.94842 9.217007
v -4 13.86362 8.964805
v -4 15.79542 8.447206
v -4 13.69562 8.469205
v -4 15.54342 7.703807
v -4 13.46402 8.000005
v -4 15.19602 7.000006
v -4 13.17362 7.564805
v -4 14.76042 6.347206
v -4 12.82842 7.171604
v -4 14.24262 5.757405
v -4 12.43522 6.826403
v -4 13.65282 5.239605
v -4 12.00002 6.536003
v -4 13.00002 4.804004
v -4 11.53082 6.304402
v -4 12.29622 4.456604
v -4 11.03522 6.136402
v -4 11.55282 4.204602
v -4 10.52202 6.034401
v -4 10.78302 4.051602
v 0 9.478044 -13.9656
v 0 10.00004 -14
v -4 10.00004 -14
v -4 9.478044 -13.9656
v 0 8.964843 -13.8636
v -4 8.964843 -13.8636
v 0 8.469243 -13.6956
v -4 8.469243 -13.6956
v 0 8.000043 -13.464
v -4 8.000043 -13.464
v 0 7.564842 -13.1736
v -4 7.564842 -13.1736
v 0 7.171642 -12.8284
v -4 7.171642 -12.8284
v 0 6.826442 -12.4352
v -4 6.826442 -12.4352
v 0 6.536041 -12
v -4 6.536041 -12
v 0 6.30444 -11.5308
v -4 6.30444 -11.5308
v 0 6.13644 -11.0352
v -4 6.13644 -11.0352
v 0 6.03444 -10.522
v -4 6.03444 -10.522
v 0 6.000039 -10
v -4 6.000039 -10
v 0 6.034439 -9.478003
v -4 6.034439 -9.478003
v 0 6.136438 -8.964803
v -4 6.136438 -8.964803
v 0 6.304437 -8.469203
v -4 6.304437 -8.469203
v 0 6.536037 -8.000003
v -4 6.536037 -8.000003
v 0 6.826437 -7.564803
v -4 6.826437 -7.564803
v 0 7.171636 -7.171602
v -4 7.171636 -7.171602
v 0 7.564836 -6.826401
v -4 7.564836 -6.826401
v 0 8.000035 -6.536002
v -4 8.000035 -6.536002
v 0 8.469235 -6.304401
v -4 8.469235 -6.304401
v 0 8.964835 -6.1364
v -4 8.964835 -6.1364
v 0 9.478035 -6.0344
v -4 9.478035 -6.0344
v 0 10.00004 -5.999999
v -4 10.00004 -5.999999
v 0 10.52203 -6.034399
v -4 10.52203 -6.034399
v 0 11.03524 -6.136398
v -4 11.03524 -6.136398
v 0 11.53084 -6.304398
v -4 11.53084 -6.304398
v 0 12.00004 -6.535997
v -4 12.00004 -6.535997
v 0 12.43524 -6.826396
v -4 12.43524 -6.826396
v 0 12.82844 -7.171597
v -4 12.82844 -7.171597
v 0 13.17364 -7.564796
v -4 13.17364 -7.564796
v 0 13.46404 -7.999996
v -4 13.46404 -7.999996
v 0 13.69564 -8.469195
v -4 13.69564 -8.469195
v 0 13.86364 -8.964795
v -4 13.86364 -8.964795
v 0 13.96564 -9.477995
v -4 13.96564 -9.477995
v 0 14.00004 -9.999995
v -4 14.00004 -9.999995
v 0 13.96564 -10.522
v -4 13.96564 -10.522
v 0 13.86364 -11.0352
v -4 13.86364 -11.0352
v 0 13.69564 -11.5308
v -4 13.69564 -11.5308
v 0 13.46404 -12
v -4 13.46404 -12
v 0 13.17364 -12.4352
v -4 13.17364 -12.4352
v 0 12.82844 -12.8284
v -4 12.82844 -12.8284
v 0 12.43524 -13.1736
v -4 12.43524 -13.1736
v 0 12.00004 -13.464
v -4 12.00004 -13.464
v 0 11.53084 -13.6956
v -4 11.53084 -13.6956
v 0 11.03524 -13.8636
v -4 11.03524 -13.8636
v 0 10.52204 -13.9656
v -4 10.52204 -13.9656
v 0 9.217045 -15.9484
v 0 10.00004 -16
v -4 10.00004 -16
v -4 9.217045 -15.9484
v 0 8.447245 -15.7954
v -4 8.447245 -15.7954
v 0 7.703845 -15.5434
v -4 7.703845 -15.5434
v 0 7.000044 -15.196
v -4 7.000044 -15.196
v 0 6.347244 -14.7604
v -4 6.347244 -14.7604
v 0 5.757443 -14.2426
v -4 5.757443 -14.2426
v 0 5.239643 -13.6528
v -4 5.239643 -13.6528
v 0 4.804042 -13
v -4 4.804042 -13
v 0 4.456642 -12.2962
v -4 4.456642 -12.2962
v 0 4.20464 -11.5528
v -4 4.20464 -11.5528
v 0 4.05164 -10.78301
v -4 4.05164 -10.78301
v 0 4.000039 -10.00001
v -4 4.000039 -10.00001
v 0 4.051638 -9.217006
v -4 4.051638 -9.217006
v 0 4.204637 -8.447205
v -4 4.204637 -8.447205
v 0 4.456637 -7.703805
v -4 4.456637 -7.703805
v 0 4.804036 -7.000005
v -4 4.804036 -7.000005
v 0 5.239635 -6.347204
v -4 5.239635 -6.347204
v 0 5.757435 -5.757403
v -4 5.757435 -5.757403
v 0 6.347234 -5.239603
v -4 6.347234 -5.239603
v 0 7.000033 -4.804002
v -4 7.000033 -4.804002
v 0 7.703833 -4.456602
v -4 7.703833 -4.456602
v 0 8.447233 -4.204601
v -4 8.447233 -4.204601
v 0 9.217032 -4.0516
v -4 9.217032 -4.0516
v 0 10.00003 -3.999999
v -4 10.00003 -3.999999
v 0 10.78303 -4.051598
v -4 10.78303 -4.051598
v 0 11.55283 -4.204597
v -4 11.55283 -4.204597
v 0 12.29623 -4.456597
v -4 12.29623 -4.456597
v 0 13.00003 -4.803996
v -4 13.00003 -4.803996
v 0 13.65283 -5.239595
v -4 13.65283 -5.239595
v 0 14.24263 -5.757395
v -4 14.24263 -5.757395
v 0 14.76044 -6.347194
v -4 14.76044 -6.347194
v 0 15.19604 -6.999994
v -4 15.19604 -6.999994
v 0 15.54344 -7.703794
v -4 15.54344 -7.703794
v 0 15.79544 -8.447193
v -4 15.79544 -8.447193
v 0 15.94844 -9.216993
v -4 15.94844 -9.216993
v 0 16.00004 -9.999993
v -4 16.00004 -9.999993
v 0 15.94844 -10.78299
v -4 15.94844 -10.78299
v 0 15.79544 -11.55279
v -4 15.79544 -11.55279
v 0 15.54344 -12.29619
v -4 15.54344 -12.29619
v 0 15.19604 -12.99999
v -4 15.19604 -12.99999
v 0 14.76044 -13.65279
v -4 14.76044 -13.65279
v 0 14.24264 -14.24259
v -4 14.24264 -14.24259
v 0 13.65284 -14.7604
v -4 13.65284 -14.7604
v 0 13.00004 -15.196
v -4 13.00004 -15.196
v 0 12.29624 -15.5434
v -4 12.29624 -15.5434
v 0 11.55285 -15.7954
v -4 11.55285 -15.7954
v 0 10.78304 -15.9484
v -4 10.78304 -15.9484
v -4 10.00004 -14
v -4 9.478044 -13.9656
v -4 9.217045 -15.9484
v -4 10.00004 -16
v -4 8.964843 -13.8636
v -4 8.447245 -15.7954
v -4 8.469243 -13.6956
v -4 7.703845 -15.5434
v -4 8.000043 -13.464
v -4 7.000044 -15.196
v -4 7.564842 -13.1736
v -4 6.347244 -14.7604
v -4 7.171642 -12.8284
v -4 5.757443 -14.2426
v -4 6.826442 -12.4352
v -4 5.239643 -13.6528
v -4 6.536041 -12
v -4 4.804042 -13
v -4 6.30444 -11.5308
v -4 4.456642 -12.2962
v -4 6.13644 -11.0352
v -4 4.20464 -11.5528
v -4 6.03444 -10.522
v -4 4.05164 -10.78301
v -4 6.000039 -10
v -4 4.000039 -10.00001
v -4 6.034439 -9.478003
v -4 4.051638 -9.217006
v -4 6.136438 -8.964803
v -4 4.204637 -8.447205
v -4 6.304437 -8.469203
v -4 4.456637 -7.703805
v -4 6.536037 -8.000003
v -4 4.804036 -7.000005
v -4 6.826437 -7.564803
v -4 5.239635 -6.347204
v -4 7.171636 -7.171602
v -4 5.757435 -5.757403
v -4 7.564836 -6.826401
v -4 6.347234 -5.239603
v -4 8.000035 -6.536002
v -4 7.000033 -4.804002
v -4 8.469235 -6.304401
v -4 7.703833 -4.456602
v -4 8.964835 -6.1364
v -4 8.447233 -4.204601
v -4 9.478035 -6.0344
v -4 9.217032 -4.0516
v -4 10.00004 -5.999999
v -4 10.00003 -3.999999
v -4 10.52203 -6.034399
v -4 10.78303 -4.051598
v -4 11.03524 -6.136398
v -4 11.55283 -4.204597
v -4 11.53084 -6.304398
v -4 12.29623 -4.456597
v -4 12.00004 -6.535997
v -4 13.00003 -4.803996
v -4 12.43524 -6.826396
v -4 13.65283 -5.239595
v -4 12.82844 -7.171597
v -4 14.24263 -5.757395
v -4 13.17364 -7.564796
v -4 14.76044 -6.347194
v -4 13.46404 -7.999996
v -4 15.19604 -6.999994
v -4 13.69564 -8.469195
v -4 15.54344 -7.703794
v -4 13.86364 -8.964795
v -4 15.79544 -8.447193
v -4 13.96564 -9.477995
v -4 15.94844 -9.216993
v -4 14.00004 -9.999995
v -4 16.00004 -9.999993
v -4 13.96564 -10.522
v -4 15.94844 -10.78299
v -4 13.86364 -11.0352
v -4 15.79544 -11.55279
v -4 13.69564 -11.5308
v -4 15.54344 -12.29619
v -4 13.46404 -12
v -4 15.19604 -12.99999
v -4 13.17364 -12.4352
v -4 14.76044 -13.65279
v -4 12.82844 -12.8284
v -4 14.24264 -14.24259
v -4 12.43524 -13.1736
v -4 13.65284 -14.7604
v -4 12.00004 -13.464
v -4 13.00004 -15.196
v -4 11.53084 -13.6956
v -4 12.29624 -15.5434
v -4 11.03524 -13.8636
v -4 11.55285 -15.7954
v -4 10.52204 -13.9656
v -4 10.78304 -15.9484
vn 0 -1 -1.041097E-06
vn 0 -1 -1.041097E-06
vn 0 -1 -1.041097E-06
vn 0 -1 -1.041097E-06
vn 0 -1.041097E-06 1
vn 0 -1.041097E-06 1
vn 0 -1.041097E-06 1
vn 0 -1.041097E-06 1
vn 0 1 1.041097E-06
vn 0 1 1.041097E-06
vn 0 1 1.041097E-06
vn 0 1 1.041097E-06
vn 0 1.041097E-06 -1
vn 0 1.041097E-06 -1
vn 0 1.041097E-06 -1
vn 0 1.041097E-06 -1
vn 1 0 0
vn 1 0 0
vn 1 0 0
vn 1 0 0
vn 1 0 0
vn 1 0 0
vn 1 0 0
vn 1 0 0
vn 1 0 0
vn 1 0 0
vn 1 0 0
vn 1 0 0
vn 0 1.041097E-06 -0.9999999
vn 0 1.041097E-06 -0.9999999
vn 0 1.041097E-06 -0.9999999
vn 0 1.041097E-06 -0.9999999
vn 0 -1.041097E-06 0.9999999
vn 0 -1.041097E-06 0.9999999
vn 0 -1.041097E-06 0.9999999
vn 0 -1.041097E-06 0.9999999
vn 0 -0.7071061 -0.7071075
vn 0 -0.7071061 -0.7071075
vn 0 -0.7071061 -0.7071075
vn 0 -0.7071061 -0.7071075
vn 0 -0.7071075 0.7071061
vn 0 -0.7071075 0.7071061
vn 0 -0.7071075 0.7071061
vn 0 -0.7071075 0.7071061
vn 1 0 0
vn 1 0 0
vn 1 0 0
vn 1 0 0
vn 1 0 0
vn 0 1.041097E-06 -0.9999999
vn 0 1.041097E-06 -0.9999999
vn 0 1.041097E-06 -0.9999999
vn 0 1.041097E-06 -0.9999999
vn 0 -1.041097E-06 0.9999999
vn 0 -1.041097E-06 0.9999999
vn 0 -1.041097E-06 0.9999999
vn 0 -1.041097E-06 0.9999999
vn 0 -0.7071061 -0.7071075
vn 0 -0.7071061 -0.7071075
vn 0 -0.7071061 -0.7071075
vn 0 -0.7071061 -0.7071075
vn 0 -0.7071075 0.7071061
vn 0 -0.7071075 0.7071061
vn 0 -0.7071075 0.7071061
vn 0 -0.7071075 0.7071061
vn 1 0 0
vn 1 0 0
vn 1 0 0
vn 1 0 0
vn 1 0 0
vn 0 1.041097E-06 -0.9999999
vn 0 1.041097E-06 -0.9999999
vn 0 1.041097E-06 -0.9999999
vn 0 1.041097E-06 -0.9999999
vn 0 -1.041097E-06 0.9999999
vn 0 -1.041097E-06 0.9999999
vn 0 -1.041097E-06 0.9999999
vn 0 -1.041097E-06 0.9999999
vn 0 -0.7071061 -0.7071075
vn 0 -0.7071061 -0.7071075
vn 0 -0.7071061 -0.7071075
vn 0 -0.7071061 -0.7071075
vn 0 -0.7071075 0.7071061
vn 0 -0.7071075 0.7071061
vn 0 -0.7071075 0.7071061
vn 0 -0.7071075 0.7071061
vn 1 0 0
vn 1 0 0
vn 1 0 0
vn 1 0 0
vn 1 0 0
vn 0 1.041097E-06 -0.9999999
vn 0 1.041097E-06 -0.9999999
vn 0 1.041097E-06 -0.9999999
vn 0 1.041097E-06 -0.9999999
vn 0 -1.041097E-06 0.9999999
vn 0 -1.041097E-06 0.9999999
vn 0 -1.041097E-06 0.9999999
vn 0 -1.041097E-06 0.9999999
vn 0 -0.7071061 -0.7071075
vn 0 -0.7071061 -0.7071075
vn 0 -0.7071061 -0.7071075
vn 0 -0.7071061 -0.7071075
vn 0 -0.7071075 0.7071061
vn 0 -0.7071075 0.7071061
vn 0 -0.7071075 0.7071061
vn 0 -0.7071075 0.7071061
vn 1 0 0
vn 1 0 0
vn 1 0 0
vn 1 0 0
vn 1 0 0
vn 0 -1.041097E-06 0.9999999
vn 0 -1.041097E-06 0.9999999
vn 0 -1.041097E-06 0.9999999
vn 0 -1.041097E-06 0.9999999
vn 0 1.041097E-06 -0.9999999
vn 0 1.041097E-06 -0.9999999
vn 0 1.041097E-06 -0.9999999
vn 0 1.041097E-06 -0.9999999
vn 0 0.7071061 0.7071075
vn 0 0.7071061 0.7071075
vn 0 0.7071061 0.7071075
vn 0 0.7071061 0.7071075
vn 0 0.7071075 -0.7071061
vn 0 0.7071075 -0.7071061
vn 0 0.7071075 -0.7071061
vn 0 0.7071075 -0.7071061
vn 1 0 0
vn 1 0 0
vn 1 0 0
vn 1 0 0
vn 1 0 0
vn 0 -1.041097E-06 0.9999999
vn 0 -1.041097E-06 0.9999999
vn 0 -1.041097E-06 0.9999999
vn 0 -1.041097E-06 0.9999999
vn 0 1.041097E-06 -0.9999999
vn 0 1.041097E-06 -0.9999999
vn 0 1.041097E-06 -0.9999999
vn 0 1.041097E-06 -0.9999999
vn 0 0.7071061 0.7071075
vn 0 0.7071061 0.7071075
vn 0 0.7071061 0.7071075
vn 0 0.7071061 0.7071075
vn 0 0.7071075 -0.7071061
vn 0 0.7071075 -0.7071061
vn 0 0.7071075 -0.7071061
vn 0 0.7071075 -0.7071061
vn 1 0 0
vn 1 0 0
vn 1 0 0
vn 1 0 0
vn 1 0 0
vn 0 -1.041097E-06 0.9999999
vn 0 -1.041097E-06 0.9999999
vn 0 -1.041097E-06 0.9999999
vn 0 -1.041097E-06 0.9999999
vn 0 1.041097E-06 -0.9999999
vn 0 1.041097E-06 -0.9999999
vn 0 1.041097E-06 -0.9999999
vn 0 1.041097E-06 -0.9999999
vn 0 0.7071061 0.7071075
vn 0 0.7071061 0.7071075
vn 0 0.7071061 0.7071075
vn 0 0.7071061 0.7071075
vn 0 0.7071075 -0.7071061
vn 0 0.7071075 -0.7071061
vn 0 0.7071075 -0.7071061
vn 0 0.7071075 -0.7071061
vn 1 0 0
vn 1 0 0
vn 1 0 0
vn 1 0 0
vn 1 0 0
vn 0 -1.041097E-06 0.9999999
vn 0 -1.041097E-06 0.9999999
vn 0 -1.041097E-06 0.9999999
vn 0 -1.041097E-06 0.9999999
vn 0 1.041097E-06 -0.9999999
vn 0 1.041097E-06 -0.9999999
vn 0 1.041097E-06 -0.9999999
vn 0 1.041097E-06 -0.9999999
vn 0 0.7071061 0.7071075
vn 0 0.7071061 0.7071075
vn 0 0.7071061 0.7071075
vn 0 0.7071061 0.7071075
vn 0 0.7071075 -0.7071061
vn 0 0.7071075 -0.7071061
vn 0 0.7071075 -0.7071061
vn 0 0.7071075 -0.7071061
vn 1 0 0
vn 1 0 0
vn 1 0 0
vn 1 0 0
vn 1 0 0
vn 0 1 1.041097E-06
vn 0 1 1.041097E-06
vn 0 1 1.041097E-06
vn 0 1 1.041097E-06
vn 0 -1.041097E-06 1
vn 0 -1.041097E-06 1
vn 0 -1.041097E-06 1
vn 0 -1.041097E-06 1
vn 0 -1 -1.041097E-06
vn 0 -1 -1.041097E-06
vn 0 -1 -1.041097E-06
vn 0 -1 -1.041097E-06
vn 0 1.041097E-06 -1
vn 0 1.041097E-06 -1
vn 0 1.041097E-06 -1
vn 0 1.041097E-06 -1
vn 1 0 0
vn 1 0 0
vn 1 0 0
vn 1 0 0
vn 1 0 0
vn 1 0 0
vn 1 0 0
vn 1 0 0
vn -1 0 0
vn -1 0 0
vn -1 0 0
vn -1 0 0
vn 0 -1 -1.041097E-06
vn 0 -1 -1.041097E-06
vn 0 -1 -1.041097E-06
vn 0 -1 -1.041097E-06
vn 0 1.041097E-06 -1
vn 0 1.041097E-06 -1
vn 0 1.041097E-06 -1
vn 0 1.041097E-06 -1
vn 0 1 1.041097E-06
vn 0 1 1.041097E-06
vn 0 1 1.041097E-06
vn 0 1 1.041097E-06
vn 0 -1.041097E-06 1
vn 0 -1.041097E-06 1
vn 0 -1.041097E-06 1
vn 0 -1.041097E-06 1
vn 0 0.1090293 0.9940385
vn 0 -0.02196253 0.9997588
vn 0 0.02196045 0.9997588
vn 0 0.1521716 0.9883541
vn 0 0.2374254 0.9714057
vn 0 0.2795381 0.9601346
vn 0 0.3622603 0.9320769
vn 0 0.4028662 0.9152589
vn 0 0.4809964 0.8767226
vn 0 0.5185438 0.855051
vn 0 0.591097 0.8066005
vn 0 0.6260636 0.7797719
vn 0 0.6916221 0.7222595
vn 0 0.7222585 0.6916232
vn 0 0.7797707 0.6260651
vn 0 0.806599 0.5910991
vn 0 0.8550498 0.5185461
vn 0 0.8767217 0.4809982
vn 0 0.9152581 0.4028679
vn 0 0.9320762 0.3622625
vn 0 0.960134 0.2795403
vn 0 0.9714053 0.2374274
vn 0 0.9883538 0.1521733
vn 0 0.9940383 0.1090311
vn 0 0.9997588 0.02196252
vn 0 0.9997588 -0.02196043
vn 0 0.9940386 -0.1090291
vn 0 0.9883542 -0.1521713
vn 0 0.9714058 -0.2374254
vn 0 0.9601346 -0.2795383
vn 0 0.9320769 -0.3622606
vn 0 0.9152589 -0.402866
vn 0 0.8767226 -0.4809964
vn 0 0.8550509 -0.5185443
vn 0 0.8066002 -0.5910974
vn 0 0.779772 -0.6260635
vn 0 0.7222599 -0.6916216
vn 0 0.6916236 -0.7222581
vn 0 0.6260653 -0.7797706
vn 0 0.5910987 -0.8065993
vn 0 0.5185459 -0.8550498
vn 0 0.4809987 -0.8767213
vn 0 0.4028683 -0.9152579
vn 0 0.362262 -0.9320763
vn 0 0.2795395 -0.9601341
vn 0 0.2374272 -0.9714053
vn 0 0.1521736 -0.9883537
vn 0 0.1090313 -0.9940383
vn 0 0.02196253 -0.9997588
vn 0 -0.02196045 -0.9997588
vn 0 -0.1090293 -0.9940385
vn 0 -0.1521716 -0.9883541
vn 0 -0.2374252 -0.9714058
vn 0 -0.2795375 -0.9601347
vn 0 -0.3622601 -0.932077
vn 0 -0.4028664 -0.9152588
vn 0 -0.4809968 -0.8767223
vn 0 -0.5185441 -0.8550509
vn 0 -0.591097 -0.8066005
vn 0 -0.6260636 -0.7797719
vn 0 -0.6916221 -0.7222595
vn 0 -0.7222585 -0.6916232
vn 0 -0.7797707 -0.6260651
vn 0 -0.806599 -0.5910991
vn 0 -0.8550498 -0.5185461
vn 0 -0.8767217 -0.4809982
vn 0 -0.9152581 -0.4028679
vn 0 -0.9320762 -0.3622625
vn 0 -0.960134 -0.2795403
vn 0 -0.9714053 -0.2374274
vn 0 -0.9883538 -0.1521733
vn 0 -0.9940383 -0.1090311
vn 0 -0.9997588 -0.02196252
vn 0 -0.9997588 0.02196043
vn 0 -0.9940386 0.1090291
vn 0 -0.9883542 0.1521713
vn 0 -0.9714058 0.2374254
vn 0 -0.9601346 0.2795383
vn 0 -0.9320769 0.3622606
vn 0 -0.9152589 0.402866
vn 0 -0.8767226 0.4809964
vn 0 -0.8550509 0.5185443
vn 0 -0.8066002 0.5910974
vn 0 -0.779772 0.6260635
vn 0 -0.7222599 0.6916216
vn 0 -0.6916236 0.7222581
vn 0 -0.6260653 0.7797706
vn 0 -0.5910987 0.8065993
vn 0 -0.5185456 0.85505
vn 0 -0.4809982 0.8767217
vn 0 -0.4028681 0.915258
vn 0 -0.3622623 0.9320762
vn 0 -0.2795401 0.960134
vn 0 -0.2374275 0.9714053
vn 0 -0.1521736 0.9883537
vn 0 -0.1090313 0.9940383
vn 0 -0.1090291 -0.9940386
vn 0 0.02196253 -0.9997588
vn 0 -0.02196045 -0.9997588
vn 0 -0.1521712 -0.9883541
vn 0 -0.2374254 -0.9714058
vn 0 -0.2795384 -0.9601345
vn 0 -0.3622606 -0.9320769
vn 0 -0.4028659 -0.9152591
vn 0 -0.4809962 -0.8767226
vn 0 -0.5185442 -0.8550509
vn 0 -0.5910972 -0.8066003
vn 0 -0.6260633 -0.7797722
vn 0 -0.6916217 -0.7222599
vn 0 -0.7222584 -0.6916233
vn 0 -0.7797709 -0.626065
vn 0 -0.8065991 -0.5910989
vn 0 -0.8550497 -0.5185459
vn 0 -0.8767218 -0.480998
vn 0 -0.9152582 -0.4028678
vn 0 -0.932076 -0.3622626
vn 0 -0.960134 -0.2795405
vn 0 -0.9714053 -0.2374274
vn 0 -0.9883538 -0.1521732
vn 0 -0.9940383 -0.1090311
vn 0 -0.9997588 -0.02196253
vn 0 -0.9997588 0.02196045
vn 0 -0.9940385 0.109029
vn 0 -0.9883541 0.1521711
vn 0 -0.9714058 0.2374254
vn 0 -0.9601346 0.2795385
vn 0 -0.9320768 0.3622607
vn 0 -0.9152591 0.4028659
vn 0 -0.8767226 0.4809962
vn 0 -0.8550508 0.5185443
vn 0 -0.8066002 0.5910974
vn 0 -0.7797722 0.6260635
vn 0 -0.7222599 0.6916216
vn 0 -0.6916235 0.7222583
vn 0 -0.6260652 0.7797706
vn 0 -0.591099 0.806599
vn 0 -0.518546 0.8550498
vn 0 -0.480998 0.8767217
vn 0 -0.402868 0.9152581
vn 0 -0.3622629 0.9320759
vn 0 -0.2795408 0.9601339
vn 0 -0.2374276 0.9714053
vn 0 -0.152173 0.9883538
vn 0 -0.1090307 0.9940383
vn 0 -0.02196233 0.9997588
vn 0 0.02196024 0.9997588
vn 0 0.1090287 0.9940386
vn 0 0.152171 0.9883542
vn 0 0.2374256 0.9714058
vn 0 0.2795388 0.9601344
vn 0 0.3622609 0.9320766
vn 0 0.4028661 0.9152589
vn 0 0.4809962 0.8767226
vn 0 0.5185442 0.8550509
vn 0 0.5910974 0.8066002
vn 0 0.6260635 0.7797719
vn 0 0.691622 0.7222597
vn 0 0.7222585 0.6916232
vn 0 0.7797709 0.6260651
vn 0 0.806599 0.5910991
vn 0 0.8550497 0.5185461
vn 0 0.8767217 0.480998
vn 0 0.9152582 0.4028678
vn 0 0.932076 0.3622626
vn 0 0.960134 0.2795405
vn 0 0.9714053 0.2374274
vn 0 0.9883538 0.1521732
vn 0 0.9940383 0.1090311
vn 0 0.9997588 0.02196253
vn 0 0.9997588 -0.02196045
vn 0 0.9940385 -0.109029
vn 0 0.9883541 -0.1521711
vn 0 0.9714058 -0.2374254
vn 0 0.9601346 -0.2795385
vn 0 0.9320768 -0.3622607
vn 0 0.9152591 -0.4028659
vn 0 0.8767228 -0.4809962
vn 0 0.8550508 -0.5185441
vn 0 0.8066003 -0.5910972
vn 0 0.7797722 -0.6260633
vn 0 0.7222599 -0.6916217
vn 0 0.6916233 -0.7222584
vn 0 0.626065 -0.7797709
vn 0 0.5910989 -0.8065991
vn 0 0.518546 -0.8550498
vn 0 0.480998 -0.8767217
vn 0 0.4028678 -0.9152582
vn 0 0.3622625 -0.9320762
vn 0 0.2795404 -0.9601339
vn 0 0.2374274 -0.9714053
vn 0 0.1521732 -0.9883538
vn 0 0.1090311 -0.9940383
vn -1 0 0
vn -1 0 0
vn -1 0 0
vn -1 0 0
vn -1 0 0
vn -1 0 0
vn -1 0 0
vn -1 0 0
vn -0.9999999 0 0
vn -1 0 0
vn -1 0 0
vn -1 0 0
vn -1 0 0
vn -1 0 0
vn -1 0 0
vn -1 0 0
vn -0.9999999 0 0
vn -0.9999999 0 0
vn -0.9999999 0 0
vn -1 0 0
vn -0.9999999 0 0
vn -1 0 0
vn -1 0 0
vn -1 0 0
vn -0.9999999 0 0
vn -1 0 0
vn -1 0 0
vn -1 0 0
vn -1 0 0
vn -1 0 0
vn -1 0 0
vn -1 0 0
vn -1 0 0
vn -1 0 0
vn -1 0 0
vn -1 0 0
vn -1 0 0
vn -1 0 0
vn -1 0 0
vn -1 0 0
vn -1 0 0
vn -1 0 0
vn -1 0 0
vn -1 0 0
vn -1 0 0
vn -1 0 0
vn -1 0 0
vn -1 0 0
vn -1 0 0
vn -1 0 0
vn -0.9999999 0 0
vn -1 0 0
vn -1 0 0
vn -1 0 0
vn -1 0 0
vn -1 0 0
vn -1 0 0
vn -1 0 0
vn -1 0 0
vn -1 0 0
vn -0.9999999 0 0
vn -1 0 0
vn -1 0 0
vn -1 0 0
vn -0.9999999 0 0
vn -1 0 0
vn -0.9999999 0 0
vn -1 0 0
vn -0.9999999 0 0
vn -1 0 0
vn -1 0 0
vn -1 0 0
vn -0.9999999 0 0
vn -1 0 0
vn -1 0 0
vn -1 0 0
vn -1 0 0
vn -1 0 0
vn -1 0 0
vn -1 0 0
vn -1 0 0
vn -1 0 0
vn -0.9999999 0 0
vn -1 0 0
vn -0.9999999 0 0
vn -1 0 0
vn -1 0 0
vn -1 0 0
vn -0.9999999 0 0
vn -1 0 0
vn -0.9999999 0 0
vn -1 0 0
vn -1 0 0
vn -1 0 0
vn -1 0 0
vn -1 0 0
vn 0 0.1090293 0.9940385
vn 0 -0.02196253 0.9997588
vn 0 0.02196045 0.9997588
vn 0 0.1521716 0.9883541
vn 0 0.2374252 0.9714058
vn 0 0.2795375 0.9601347
vn 0 0.3622601 0.932077
vn 0 0.4028664 0.9152588
vn 0 0.4809968 0.8767223
vn 0 0.5185441 0.8550509
vn 0 0.591097 0.8066005
vn 0 0.6260636 0.7797719
vn 0 0.6916221 0.7222595
vn 0 0.7222585 0.6916232
vn 0 0.7797707 0.6260651
vn 0 0.806599 0.5910991
vn 0 0.8550498 0.5185461
vn 0 0.8767217 0.4809982
vn 0 0.9152581 0.4028679
vn 0 0.9320762 0.3622625
vn 0 0.960134 0.2795403
vn 0 0.9714053 0.2374274
vn 0 0.9883538 0.1521733
vn 0 0.9940383 0.1090311
vn 0 0.9997588 0.02196252
vn 0 0.9997588 -0.02196043
vn 0 0.9940386 -0.1090291
vn 0 0.9883542 -0.1521713
vn 0 0.9714058 -0.2374254
vn 0 0.9601346 -0.2795383
vn 0 0.9320769 -0.3622606
vn 0 0.9152589 -0.402866
vn 0 0.8767226 -0.4809964
vn 0 0.8550509 -0.5185443
vn 0 0.8066002 -0.5910974
vn 0 0.779772 -0.6260635
vn 0 0.7222599 -0.6916216
vn 0 0.6916236 -0.7222581
vn 0 0.6260653 -0.7797706
vn 0 0.5910987 -0.8065993
vn 0 0.5185456 -0.85505
vn 0 0.4809982 -0.8767217
vn 0 0.4028681 -0.915258
vn 0 0.3622623 -0.9320762
vn 0 0.2795401 -0.960134
vn 0 0.2374275 -0.9714053
vn 0 0.1521736 -0.9883537
vn 0 0.1090313 -0.9940383
vn 0 0.02196253 -0.9997588
vn 0 -0.02196045 -0.9997588
vn 0 -0.1090293 -0.9940385
vn 0 -0.1521716 -0.9883541
vn 0 -0.2374254 -0.9714057
vn 0 -0.2795381 -0.9601346
vn 0 -0.3622603 -0.9320769
vn 0 -0.4028662 -0.9152589
vn 0 -0.4809964 -0.8767226
vn 0 -0.5185438 -0.855051
vn 0 -0.591097 -0.8066005
vn 0 -0.6260636 -0.7797719
vn 0 -0.6916221 -0.7222595
vn 0 -0.7222585 -0.6916232
vn 0 -0.7797707 -0.6260651
vn 0 -0.806599 -0.5910991
vn 0 -0.8550498 -0.5185461
vn 0 -0.8767217 -0.4809982
vn 0 -0.9152581 -0.4028679
vn 0 -0.9320762 -0.3622625
vn 0 -0.960134 -0.2795403
vn 0 -0.9714053 -0.2374274
vn 0 -0.9883538 -0.1521733
vn 0 -0.9940383 -0.1090311
vn 0 -0.9997588 -0.02196252
vn 0 -0.9997588 0.02196043
vn 0 -0.9940386 0.1090291
vn 0 -0.9883542 0.1521713
vn 0 -0.9714058 0.2374254
vn 0 -0.9601346 0.2795383
vn 0 -0.9320769 0.3622606
vn 0 -0.9152589 0.402866
vn 0 -0.8767226 0.4809964
vn 0 -0.8550509 0.5185443
vn 0 -0.8066002 0.5910974
vn 0 -0.779772 0.6260635
vn 0 -0.7222599 0.6916216
vn 0 -0.6916236 0.7222581
vn 0 -0.6260653 0.7797706
vn 0 -0.5910987 0.8065993
vn 0 -0.5185459 0.8550498
vn 0 -0.4809987 0.8767213
vn 0 -0.4028683 0.9152579
vn 0 -0.362262 0.9320763
vn 0 -0.2795395 0.9601341
vn 0 -0.2374272 0.9714053
vn 0 -0.1521736 0.9883537
vn 0 -0.1090313 0.9940383
vn 0 -0.1090287 -0.9940386
vn 0 0.02196233 -0.9997588
vn 0 -0.02196024 -0.9997588
vn 0 -0.152171 -0.9883542
vn 0 -0.2374256 -0.9714058
vn 0 -0.2795388 -0.9601344
vn 0 -0.3622609 -0.9320766
vn 0 -0.4028661 -0.9152589
vn 0 -0.4809962 -0.8767226
vn 0 -0.5185442 -0.8550509
vn 0 -0.5910974 -0.8066002
vn 0 -0.6260635 -0.7797719
vn 0 -0.691622 -0.7222597
vn 0 -0.7222585 -0.6916232
vn 0 -0.7797709 -0.6260651
vn 0 -0.806599 -0.5910991
vn 0 -0.8550497 -0.5185461
vn 0 -0.8767217 -0.480998
vn 0 -0.9152582 -0.4028678
vn 0 -0.932076 -0.3622626
vn 0 -0.960134 -0.2795405
vn 0 -0.9714053 -0.2374274
vn 0 -0.9883538 -0.1521732
vn 0 -0.9940383 -0.1090311
vn 0 -0.9997588 -0.02196253
vn 0 -0.9997588 0.02196045
vn 0 -0.9940385 0.109029
vn 0 -0.9883541 0.1521711
vn 0 -0.9714058 0.2374254
vn 0 -0.9601346 0.2795385
vn 0 -0.9320768 0.3622607
vn 0 -0.9152591 0.4028659
vn 0 -0.8767228 0.4809962
vn 0 -0.8550508 0.5185441
vn 0 -0.8066003 0.5910972
vn 0 -0.7797722 0.6260633
vn 0 -0.7222599 0.6916217
vn 0 -0.6916233 0.7222584
vn 0 -0.626065 0.7797709
vn 0 -0.5910989 0.8065991
vn 0 -0.518546 0.8550498
vn 0 -0.480998 0.8767217
vn 0 -0.4028678 0.9152582
vn 0 -0.3622625 0.9320762
vn 0 -0.2795404 0.9601339
vn 0 -0.2374274 0.9714053
vn 0 -0.1521732 0.9883538
vn 0 -0.1090311 0.9940383
vn 0 -0.02196253 0.9997588
vn 0 0.02196045 0.9997588
vn 0 0.1090291 0.9940386
vn 0 0.1521712 0.9883541
vn 0 0.2374254 0.9714058
vn 0 0.2795384 0.9601345
vn 0 0.3622606 0.9320769
vn 0 0.4028659 0.9152591
vn 0 0.4809962 0.8767226
vn 0 0.5185442 0.8550509
vn 0 0.5910972 0.8066003
vn 0 0.6260633 0.7797722
vn 0 0.6916217 0.7222599
vn 0 0.7222584 0.6916233
vn 0 0.7797709 0.626065
vn 0 0.8065991 0.5910989
vn 0 0.8550497 0.5185459
vn 0 0.8767218 0.480998
vn 0 0.9152582 0.4028678
vn 0 0.932076 0.3622626
vn 0 0.960134 0.2795405
vn 0 0.9714053 0.2374274
vn 0 0.9883538 0.1521732
vn 0 0.9940383 0.1090311
vn 0 0.9997588 0.02196253
vn 0 0.9997588 -0.02196045
vn 0 0.9940385 -0.109029
vn 0 0.9883541 -0.1521711
vn 0 0.9714058 -0.2374254
vn 0 0.9601346 -0.2795385
vn 0 0.9320768 -0.3622607
vn 0 0.9152591 -0.4028659
vn 0 0.8767226 -0.4809962
vn 0 0.8550508 -0.5185443
vn 0 0.8066002 -0.5910974
vn 0 0.7797722 -0.6260635
vn 0 0.7222599 -0.6916216
vn 0 0.6916235 -0.7222583
vn 0 0.6260652 -0.7797706
vn 0 0.591099 -0.806599
vn 0 0.518546 -0.8550498
vn 0 0.480998 -0.8767217
vn 0 0.402868 -0.9152581
vn 0 0.3622629 -0.9320759
vn 0 0.2795408 -0.9601339
vn 0 0.2374276 -0.9714053
vn 0 0.152173 -0.9883538
vn 0 0.1090307 -0.9940383
vn -1 0 0
vn -0.9999999 0 0
vn -1 0 0
vn -1 0 0
vn -1 0 0
vn -1 0 0
vn -1 0 0
vn -1 0 0
vn -1 0 0
vn -1 0 0
vn -1 0 0
vn -1 0 0
vn -0.9999999 0 0
vn -1 0 0
vn -1 0 0
vn -1 0 0
vn -0.9999999 0 0
vn -1 0 0
vn -0.9999999 0 0
vn -1 0 0
vn -0.9999999 0 0
vn -1 0 0
vn -1 0 0
vn -1 0 0
vn -0.9999999 0 0
vn -1 0 0
vn -1 0 0
vn -1 0 0
vn -1 0 0
vn -1 0 0
vn -1 0 0
vn -1 0 0
vn -1 0 0
vn -1 0 0
vn -0.9999999 0 0
vn -1 0 0
vn -0.9999999 0 0
vn -1 0 0
vn -1 0 0
vn -1 0 0
vn -0.9999999 0 0
vn -1 0 0
vn -0.9999999 0 0
vn -1 0 0
vn -1 0 0
vn -1 0 0
vn -1 0 0
vn -1 0 0
vn -1 0 0
vn -1 0 0
vn -1 0 0
vn -1 0 0
vn -1 0 0
vn -1 0 0
vn -1 0 0
vn -1 0 0
vn -0.9999999 0 0
vn -1 0 0
vn -1 0 0
vn -1 0 0
vn -1 0 0
vn -1 0 0
vn -1 0 0
vn -1 0 0
vn -0.9999999 0 0
vn -0.9999999 0 0
vn -0.9999999 0 0
vn -1 0 0
vn -0.9999999 0 0
vn -1 0 0
vn -1 0 0
vn -1 0 0
vn -0.9999999 0 0
vn -1 0 0
vn -1 0 0
vn -1 0 0
vn -1 0 0
vn -1 0 0
vn -1 0 0
vn -1 0 0
vn -1 0 0
vn -1 0 0
vn -1 0 0
vn -1 0 0
vn -1 0 0
vn -1 0 0
vn -1 0 0
vn -1 0 0
vn -1 0 0
vn -1 0 0
vn -1 0 0
vn -1 0 0
vn -1 0 0
vn -1 0 0
vn -1 0 0
vn -1 0 0
vt -1 20
vt -2 20
vt -2 -38
vt -1 -38
vt -21 -38
vt -22 -38
vt -22 -20
vt -21 -20
vt 17 -20
vt 16 -20
vt 16 38
vt 17 38
vt 37 38
vt 36 38
vt 36 20
vt 37 20
vt 17 37
vt 14 34
vt 14 -18
vt 17 -21
vt -1 -21
vt 2 -18
vt 2 34
vt -1 37
vt 12.9 21.4
vt 12.9 24.4
vt 13.9 24.4
vt 13.9 21.4
vt 24.4 21.5
vt 20.5 21.5
vt 20.5 22.5
vt 24.4 22.5
vt 21.4 19.5
vt 17.5 19.5
vt 17.5 18.5
vt 21.4 18.5
vt 20.5 21.5
vt 19 18.5
vt 22.9 18.5
vt 24.4 21.5
vt 7.5 19
vt 9 17.5
vt 12.9 21.4
vt 11.4 22.9
vt 11.4 22.9
vt 12.9 11.4
vt 12.9 14.4
vt 13.9 14.4
vt 13.9 11.4
vt 14.4 11.5
vt 10.5 11.5
vt 10.5 12.5
vt 14.4 12.5
vt 11.4 9.5
vt 7.5 9.5
vt 7.5 8.5
vt 11.4 8.5
vt 10.5 11.5
vt 9 8.5
vt 12.9 8.5
vt 14.4 11.5
vt 7.5 9
vt 9 7.5
vt 12.9 11.4
vt 11.4 12.9
vt 11.4 12.9
vt 12.9 1.4
vt 12.9 4.4
vt 13.9 4.4
vt 13.9 1.4
vt 4.4 1.5
vt 0.5 1.5
vt 0.5 2.5
vt 4.4 2.5
vt 1.4 -0.5
vt -2.5 -0.5
vt -2.5 -1.5
vt 1.4 -1.5
vt 0.5 1.5
vt -1 -1.5
vt 2.9 -1.5
vt 4.4 1.5
vt 7.5 -1
vt 9 -2.5
vt 12.9 1.4
vt 11.4 2.9
vt 11.4 2.9
vt 12.9 -8.6
vt 12.9 -5.6
vt 13.9 -5.6
vt 13.9 -8.6
vt -5.6 -8.5
vt -9.5 -8.5
vt -9.5 -7.5
vt -5.6 -7.5
vt -8.6 -10.5
vt -12.5 -10.5
vt -12.5 -11.5
vt -8.6 -11.5
vt -9.5 -8.5
vt -11 -11.5
vt -7.1 -11.5
vt -5.6 -8.5
vt 7.5 -11
vt 9 -12.5
vt 12.9 -8.6
vt 11.4 -7.1
vt 11.4 -7.1
vt 2.9 -5.6
vt 2.9 -8.6
vt 1.9 -8.6
vt 1.9 -5.6
vt -8.6 -21.5
vt -12.5 -21.5
vt -12.5 -22.5
vt -8.6 -22.5
vt -5.6 -19.5
vt -9.5 -19.5
vt -9.5 -18.5
vt -5.6 -18.5
vt -1 -21.5
vt 0.5 -18.5
vt 4.4 -18.5
vt 2.9 -21.5
vt 0.5 -11
vt -1 -9.5
vt 2.9 -5.6
vt 4.4 -7.1
vt 4.4 -7.1
vt 2.9 4.4
vt 2.9 1.4
vt 1.9 1.4
vt 1.9 4.4
vt 1.4 -11.5
vt -2.5 -11.5
vt -2.5 -12.5
vt 1.4 -12.5
vt 4.4 -9.5
vt 0.5 -9.5
vt 0.5 -8.5
vt 4.4 -8.5
vt -1 -11.5
vt 0.5 -8.5
vt 4.4 -8.5
vt 2.9 -11.5
vt 0.5 -1
vt -1 0.5
vt 2.9 4.4
vt 4.4 2.9
vt 4.4 2.9
vt 2.9 14.4
vt 2.9 11.4
vt 1.9 11.4
vt 1.9 14.4
vt 11.4 -1.5
vt 7.5 -1.5
vt 7.5 -2.5
vt 11.4 -2.5
vt 14.4 0.5
vt 10.5 0.5
vt 10.5 1.5
vt 14.4 1.5
vt -1 -1.5
vt 0.5 1.5
vt 4.4 1.5
vt 2.9 -1.5
vt 0.5 9
vt -1 10.5
vt 2.9 14.4
vt 4.4 12.9
vt 4.4 12.9
vt 2.9 24.4
vt 2.9 21.4
vt 1.9 21.4
vt 1.9 24.4
vt 21.4 8.5
vt 17.5 8.5
vt 17.5 7.5
vt 21.4 7.5
vt 24.4 10.5
vt 20.5 10.5
vt 20.5 11.5
vt 24.4 11.5
vt -1 8.5
vt 0.5 11.5
vt 4.4 11.5
vt 2.9 8.5
vt 0.5 19
vt -1 20.5
vt 2.9 24.4
vt 4.4 22.9
vt 4.4 22.9
vt 10 30
vt 10 -22
vt -2 -22
vt -2 30
vt -2 -32
vt 2 -32
vt 2 20
vt -2 20
vt 30 20
vt 34 20
vt 34 32
vt 30 32
vt 10 32
vt 14 32
vt 14 -20
vt 10 -20
vt -22 -20
vt -18 -20
vt -18 -32
vt -22 -32
vt 17 37
vt 16 36
vt 16 -22
vt 17 -23
vt -3 -23
vt -2 -22
vt -2 36
vt -3 37
vt 10 30
vt 10 -30
vt -10 -30
vt -10 30
vt -10 -40
vt -3 -40
vt -3 20
vt -10 20
vt 30 20
vt 37 20
vt 37 40
vt 30 40
vt 10 40
vt 17 40
vt 17 -20
vt 10 -20
vt -30 -20
vt -23 -20
vt -23 -40
vt -30 -40
vt -0.522 -6.5564
vt -6 -6
vt -4 -6
vt -4.522 -6.5564
vt -1.0352 -7.1716
vt -5.0352 -7.1716
vt -1.5308 -7.8352
vt -5.5308 -7.8352
vt -2 -8.536
vt -6 -8.536
vt -2.4352 -9.2616
vt -6.4352 -9.2616
vt -2.8284 -10
vt -6.8284 -10
vt -3.1736 -10.7384
vt -7.1736 -10.7384
vt -3.464 -11.464
vt -7.464 -11.464
vt -3.6956 -12.1648
vt -7.6956 -12.1648
vt -3.8636 -12.8284
vt -7.8636 -12.8284
vt -3.9656 -13.4436
vt -7.9656 -13.4436
vt -4 -14
vt -8 -14
vt -3.9656 -14.4876
vt -7.9656 -14.4876
vt -3.8636 -14.8988
vt -7.8636 -14.8988
vt -3.6956 -15.2264
vt -7.6956 -15.2264
vt -3.464 -15.464
vt -7.464 -15.464
vt -3.1736 -15.6088
vt -7.1736 -15.6088
vt -2.8284 -15.6568
vt -16.8284 -15.6568
vt -13.1736 -15.6088
vt -17.1736 -15.6088
vt -13.464 -15.464
vt -17.464 -15.464
vt -13.6956 -15.2264
vt -17.6956 -15.2264
vt -13.8636 -14.8988
vt -17.8636 -14.8988
vt -13.9656 -14.4876
vt -17.9656 -14.4876
vt -14 -14
vt -18 -14
vt -13.9656 -13.4436
vt -17.9656 -13.4436
vt -13.8636 -12.8284
vt -17.8636 -12.8284
vt -13.6956 -12.1648
vt -17.6956 -12.1648
vt -13.464 -11.464
vt -17.464 -11.464
vt -13.1736 -10.7384
vt -17.1736 -10.7384
vt -12.8284 -10
vt -16.8284 -10
vt -12.4352 -9.2616
vt -16.4352 -9.2616
vt -12 -8.536
vt -16 -8.536
vt -11.5308 -7.8352
vt -15.5308 -7.8352
vt -11.0352 -7.1716
vt -15.0352 -7.1716
vt -10.522 -6.5564
vt -14.522 -6.5564
vt -10 -6
vt 0 -6
vt 3.9656 -5.5124
vt -0.03439999 -5.5124
vt 3.8636 -5.1012
vt -0.1364 -5.1012
vt 3.6956 -4.7736
vt -0.3044 -4.7736
vt 3.464 -4.536
vt -0.536 -4.536
vt 3.1736 -4.3912
vt -0.8264 -4.3912
vt 2.8284 -4.343201
vt -11.1716 -4.343201
vt -6.8264 -4.3912
vt -10.8264 -4.3912
vt -6.536 -4.536
vt -10.536 -4.536
vt -6.3044 -4.7736
vt -10.3044 -4.7736
vt -6.1364 -5.1012
vt -10.1364 -5.1012
vt -6.0344 -5.5124
vt -10.0344 -5.5124
vt -4.0516 -4.8346
vt -4 -4
vt -8 -4
vt -8.0516 -4.8346
vt -4.2046 -5.7574
vt -8.204599 -5.7574
vt -4.4566 -6.7528
vt -8.4566 -6.7528
vt -4.804 -7.804
vt -8.804 -7.804
vt -5.2396 -8.892401
vt -9.2396 -8.892401
vt -5.7574 -10
vt -9.757401 -10
vt -6.3472 -11.1076
vt -10.3472 -11.1076
vt -7 -12.196
vt -11 -12.196
vt -7.7038 -13.2472
vt -11.7038 -13.2472
vt -8.4472 -14.2426
vt -12.4472 -14.2426
vt -9.217 -15.1654
vt -13.217 -15.1654
vt -10 -16
vt -10 -16
vt -5.9484 -16.7314
vt -9.9484 -16.7314
vt -5.7954 -17.3482
vt -9.795401 -17.3482
vt -5.5434 -17.8396
vt -9.5434 -17.8396
vt -5.196 -18.196
vt -9.196 -18.196
vt -4.7604 -18.4132
vt -8.7604 -18.4132
vt -4.2426 -18.4852
vt -18.2426 -18.4852
vt -14.7604 -18.4132
vt -18.7604 -18.4132
vt -15.196 -18.196
vt -19.196 -18.196
vt -15.5434 -17.8396
vt -19.5434 -17.8396
vt -15.7954 -17.3482
vt -19.7954 -17.3482
vt -15.9484 -16.7314
vt -19.9484 -16.7314
vt -16 -16
vt -4 -16
vt 0.783 -15.1654
vt -3.217 -15.1654
vt 1.5528 -14.2426
vt -2.4472 -14.2426
vt 2.2962 -13.2472
vt -1.7038 -13.2472
vt 3 -12.196
vt -1 -12.196
vt 3.6528 -11.1076
vt -0.3471999 -11.1076
vt 4.2426 -10
vt 0.2426 -10
vt 4.7604 -8.8924
vt 0.7603998 -8.8924
vt 5.196 -7.804
vt 1.196 -7.804
vt 5.5434 -6.7528
vt 1.5434 -6.7528
vt 5.7954 -5.7574
vt 1.7954 -5.7574
vt 5.9484 -4.8346
vt 1.9484 -4.8346
vt 6 -4
vt 2 -4
vt 5.9484 -3.2686
vt 1.9484 -3.2686
vt 5.7954 -2.6518
vt 1.7954 -2.6518
vt 5.5434 -2.1604
vt 1.5434 -2.1604
vt 5.196 -1.804
vt 1.196 -1.804
vt 4.7604 -1.5868
vt 0.7603998 -1.5868
vt 4.2426 -1.5148
vt -9.757401 -1.5148
vt -5.2396 -1.5868
vt -9.2396 -1.5868
vt -4.804 -1.804
vt -8.804 -1.804
vt -4.4566 -2.1604
vt -8.4566 -2.1604
vt -4.2046 -2.6518
vt -8.204599 -2.6518
vt -4.0516 -3.2686
vt -8.0516 -3.2686
vt -4 -10
vt -4.522 -10.0344
vt -4.783 -8.0516
vt -4 -8
vt -5.0352 -10.1364
vt -5.5528 -8.204599
vt -5.5308 -10.3044
vt -6.2962 -8.4566
vt -6 -10.536
vt -7 -8.804
vt -6.4352 -10.8264
vt -7.6528 -9.2396
vt -6.8284 -11.1716
vt -8.242599 -9.757401
vt -7.1736 -11.5648
vt -8.7604 -10.3472
vt -7.464 -12
vt -9.196 -11
vt -7.6956 -12.4692
vt -9.5434 -11.7038
vt -7.8636 -12.9648
vt -9.795401 -12.4472
vt -7.9656 -13.478
vt -9.9484 -13.217
vt -8 -14
vt -10 -14
vt -7.9656 -14.522
vt -9.9484 -14.783
vt -7.8636 -15.0352
vt -9.795401 -15.5528
vt -7.6956 -15.5308
vt -9.5434 -16.2962
vt -7.464 -16
vt -9.196 -17
vt -7.1736 -16.4352
vt -8.7604 -17.6528
vt -6.8284 -16.8284
vt -8.242599 -18.2426
vt -6.4352 -17.1736
vt -7.6528 -18.7604
vt -6 -17.464
vt -7 -19.196
vt -5.5308 -17.6956
vt -6.2962 -19.5434
vt -5.0352 -17.8636
vt -5.5528 -19.7954
vt -4.522 -17.9656
vt -4.783 -19.9484
vt -4 -18
vt -4 -20
vt -3.478 -17.9656
vt -3.217 -19.9484
vt -2.9648 -17.8636
vt -2.4472 -19.7954
vt -2.4692 -17.6956
vt -1.7038 -19.5434
vt -2 -17.464
vt -1 -19.196
vt -1.5648 -17.1736
vt -0.3471999 -18.7604
vt -1.1716 -16.8284
vt 0.2426 -18.2426
vt -0.8264 -16.4352
vt 0.7603998 -17.6528
vt -0.536 -16
vt 1.196 -17
vt -0.3044 -15.5308
vt 1.5434 -16.2962
vt -0.1364 -15.0352
vt 1.7954 -15.5528
vt -0.03439999 -14.522
vt 1.9484 -14.783
vt 0 -14
vt 2 -14
vt -0.03439999 -13.478
vt 1.9484 -13.217
vt -0.1364 -12.9648
vt 1.7954 -12.4472
vt -0.3044 -12.4692
vt 1.5434 -11.7038
vt -0.536 -12
vt 1.196 -11
vt -0.8264 -11.5648
vt 0.7603998 -10.3472
vt -1.1716 -11.1716
vt 0.2426 -9.757401
vt -1.5648 -10.8264
vt -0.3471999 -9.2396
vt -2 -10.536
vt -1 -8.804
vt -2.4692 -10.3044
vt -1.7038 -8.4566
vt -2.9648 -10.1364
vt -2.4472 -8.204599
vt -3.478 -10.0344
vt -3.217 -8.0516
vt -0.522 13.4436
vt 14 14
vt -4 14
vt -4.522 13.4436
vt -1.0352 12.8284
vt -5.0352 12.8284
vt -1.5308 12.1648
vt -5.5308 12.1648
vt -2 11.464
vt -6 11.464
vt -2.4352 10.7384
vt -6.4352 10.7384
vt -2.8284 10
vt -6.8284 10
vt -3.1736 9.2616
vt -7.1736 9.2616
vt -3.464 8.536
vt -7.464 8.536
vt -3.6956 7.8352
vt -7.6956 7.8352
vt -3.8636 7.1716
vt -7.8636 7.1716
vt -3.9656 6.5564
vt -7.9656 6.5564
vt -4 6
vt -8 6
vt -3.9656 5.5124
vt -7.9656 5.5124
vt -3.8636 5.1012
vt -7.8636 5.1012
vt -3.6956 4.7736
vt -7.6956 4.7736
vt -3.464 4.536
vt -7.464 4.536
vt -3.1736 4.3912
vt -7.1736 4.3912
vt -2.8284 4.343201
vt 3.1716 4.343201
vt 6.8264 4.3912
vt 2.8264 4.3912
vt 6.536 4.536
vt 2.536 4.536
vt 6.3044 4.7736
vt 2.3044 4.7736
vt 6.1364 5.1012
vt 2.1364 5.1012
vt 6.0344 5.5124
vt 2.0344 5.5124
vt 6 6
vt 2 6
vt 6.0344 6.5564
vt 2.0344 6.5564
vt 6.1364 7.1716
vt 2.1364 7.1716
vt 6.3044 7.8352
vt 2.3044 7.8352
vt 6.536 8.536
vt 2.536 8.536
vt 6.8264 9.2616
vt 2.8264 9.2616
vt 7.1716 10
vt 3.1716 10
vt 7.5648 10.7384
vt 3.5648 10.7384
vt 8 11.464
vt 4 11.464
vt 8.4692 12.1648
vt 4.4692 12.1648
vt 8.9648 12.8284
vt 4.9648 12.8284
vt 9.478 13.4436
vt 5.478 13.4436
vt 10 14
vt 0 14
vt 3.9656 14.4876
vt -0.03439999 14.4876
vt 3.8636 14.8988
vt -0.1364 14.8988
vt 3.6956 15.2264
vt -0.3044 15.2264
vt 3.464 15.464
vt -0.536 15.464
vt 3.1736 15.6088
vt -0.8264 15.6088
vt 2.8284 15.6568
vt 8.8284 15.6568
vt 13.1736 15.6088
vt 9.1736 15.6088
vt 13.464 15.464
vt 9.464 15.464
vt 13.6956 15.2264
vt 9.695601 15.2264
vt 13.8636 14.8988
vt 9.8636 14.8988
vt 13.9656 14.4876
vt 9.9656 14.4876
vt 15.9484 15.1654
vt 16 16
vt 12 16
vt 11.9484 15.1654
vt 15.7954 14.2426
vt 11.7954 14.2426
vt 15.5434 13.2472
vt 11.5434 13.2472
vt 15.196 12.196
vt 11.196 12.196
vt 14.7604 11.1076
vt 10.7604 11.1076
vt 14.2426 10
vt 10.2426 10
vt 13.6528 8.8924
vt 9.6528 8.8924
vt 13 7.804
vt 9 7.804
vt 12.2962 6.7528
vt 8.2962 6.7528
vt 11.5528 5.7574
vt 7.5528 5.7574
vt 10.783 4.8346
vt 6.783 4.8346
vt 10 4
vt -10 4
vt -5.9484 3.2686
vt -9.9484 3.2686
vt -5.7954 2.6518
vt -9.795401 2.6518
vt -5.5434 2.1604
vt -9.5434 2.1604
vt -5.196 1.804
vt -9.196 1.804
vt -4.7604 1.5868
vt -8.7604 1.5868
vt -4.2426 1.5148
vt 1.7574 1.5148
vt 5.2396 1.5868
vt 1.2396 1.5868
vt 4.804 1.804
vt 0.8039999 1.804
vt 4.4566 2.1604
vt 0.4566002 2.1604
vt 4.2046 2.6518
vt 0.2045999 2.6518
vt 4.0516 3.2686
vt 0.05159998 3.2686
vt 4 4
vt -4 4
vt 0.783 4.8346
vt -3.217 4.8346
vt 1.5528 5.7574
vt -2.4472 5.7574
vt 2.2962 6.7528
vt -1.7038 6.7528
vt 3 7.804
vt -1 7.804
vt 3.6528 8.892401
vt -0.3471999 8.892401
vt 4.2426 10
vt 0.2426 10
vt 4.7604 11.1076
vt 0.7603998 11.1076
vt 5.196 12.196
vt 1.196 12.196
vt 5.5434 13.2472
vt 1.5434 13.2472
vt 5.7954 14.2426
vt 1.7954 14.2426
vt 5.9484 15.1654
vt 1.9484 15.1654
vt 6 16
vt 2 16
vt 5.9484 16.7314
vt 1.9484 16.7314
vt 5.7954 17.3482
vt 1.7954 17.3482
vt 5.5434 17.8396
vt 1.5434 17.8396
vt 5.196 18.196
vt 1.196 18.196
vt 4.7604 18.4132
vt 0.7603998 18.4132
vt 4.2426 18.4852
vt 10.2426 18.4852
vt 14.7604 18.4132
vt 10.7604 18.4132
vt 15.196 18.196
vt 11.196 18.196
vt 15.5434 17.8396
vt 11.5434 17.8396
vt 15.7954 17.3482
vt 11.7954 17.3482
vt 15.9484 16.7314
vt 11.9484 16.7314
vt -4 10
vt -4.522 9.9656
vt -4.783 11.9484
vt -4 12
vt -5.0352 9.8636
vt -5.5528 11.7954
vt -5.5308 9.695601
vt -6.2962 11.5434
vt -6 9.464
vt -7 11.196
vt -6.4352 9.1736
vt -7.6528 10.7604
vt -6.8284 8.8284
vt -8.242599 10.2426
vt -7.1736 8.4352
vt -8.7604 9.6528
vt -7.464 8
vt -9.196 9
vt -7.6956 7.5308
vt -9.5434 8.2962
vt -7.8636 7.0352
vt -9.795401 7.5528
vt -7.9656 6.522
vt -9.9484 6.783
vt -8 6
vt -10 6
vt -7.9656 5.478
vt -9.9484 5.217
vt -7.8636 4.9648
vt -9.795401 4.4472
vt -7.6956 4.4692
vt -9.5434 3.7038
vt -7.464 4
vt -9.196 3
vt -7.1736 3.5648
vt -8.7604 2.3472
vt -6.8284 3.1716
vt -8.242599 1.7574
vt -6.4352 2.8264
vt -7.6528 1.2396
vt -6 2.536
vt -7 0.8039999
vt -5.5308 2.3044
vt -6.2962 0.4566002
vt -5.0352 2.1364
vt -5.5528 0.2045999
vt -4.522 2.0344
vt -4.783 0.05159998
vt -4 2
vt -4 0
vt -3.478 2.0344
vt -3.217 0.05159998
vt -2.9648 2.1364
vt -2.4472 0.2045999
vt -2.4692 2.3044
vt -1.7038 0.4566002
vt -2 2.536
vt -1 0.8039999
vt -1.5648 2.8264
vt -0.3471999 1.2396
vt -1.1716 3.1716
vt 0.2426 1.7574
vt -0.8264 3.5648
vt 0.7603998 2.3472
vt -0.536 4
vt 1.196 3
vt -0.3044 4.4692
vt 1.5434 3.7038
vt -0.1364 4.9648
vt 1.7954 4.4472
vt -0.03439999 5.478
vt 1.9484 5.217
vt 0 6
vt 2 6
vt -0.03439999 6.522
vt 1.9484 6.783
vt -0.1364 7.0352
vt 1.7954 7.5528
vt -0.3044 7.5308
vt 1.5434 8.2962
vt -0.536 8
vt 1.196 9
vt -0.8264 8.4352
vt 0.7603998 9.6528
vt -1.1716 8.8284
vt 0.2426 10.2426
vt -1.5648 9.1736
vt -0.3471999 10.7604
vt -2 9.464
vt -1 11.196
vt -2.4692 9.695601
vt -1.7038 11.5434
vt -2.9648 9.8636
vt -2.4472 11.7954
vt -3.478 9.9656
vt -3.217 11.9484
usemtl 47
f 3/3/3 2/2/2 1/1/1
f 1/1/1 4/4/4 3/3/3
f 7/7/7 6/6/6 5/5/5
f 5/5/5 8/8/8 7/7/7
f 11/11/11 10/10/10 9/9/9
f 9/9/9 12/12/12 11/11/11
f 15/15/15 14/14/14 13/13/13
f 13/13/13 16/16/16 15/15/15
f 19/19/19 18/18/18 17/17/17
f 17/17/17 20/20/20 19/19/19
f 23/23/23 22/22/22 21/21/21
f 21/21/21 24/24/24 23/23/23
f 21/21/21 22/22/22 19/19/19
f 19/19/19 20/20/20 21/21/21
f 17/17/17 18/18/18 23/23/23
f 23/23/23 24/24/24 17/17/17
f 25/25/25 26/26/26 27/27/27
f 27/27/27 28/28/28 25/25/25
f 29/29/29 30/30/30 31/31/31
f 31/31/31 32/32/32 29/29/29
f 33/33/33 34/34/34 35/35/35
f 35/35/35 36/36/36 33/33/33
f 39/39/39 38/38/38 37/37/37
f 37/37/37 40/40/40 39/39/39
f 43/43/43 42/42/42 41/41/41
f 41/41/41 44/44/44 43/43/43
f 45/45/45 26/26/26 25/25/25
f 46/46/46 47/47/47 48/48/48
f 48/48/48 49/49/49 46/46/46
f 50/50/50 51/51/51 52/52/52
f 52/52/52 53/53/53 50/50/50
f 54/54/54 55/55/55 56/56/56
f 56/56/56 57/57/57 54/54/54
f 60/60/60 59/59/59 58/58/58
f 58/58/58 61/61/61 60/60/60
f 64/64/64 63/63/63 62/62/62
f 62/62/62 65/65/65 64/64/64
f 66/66/66 47/47/47 46/46/46
f 67/67/67 68/68/68 69/69/69
f 69/69/69 70/70/70 67/67/67
f 71/71/71 72/72/72 73/73/73
f 73/73/73 74/74/74 71/71/71
f 75/75/75 76/76/76 77/77/77
f 77/77/77 78/78/78 75/75/75
f 81/81/81 80/80/80 79/79/79
f 79/79/79 82/82/82 81/81/81
f 85/85/85 84/84/84 83/83/83
f 83/83/83 86/86/86 85/85/85
f 87/87/87 68/68/68 67/67/67
f 88/88/88 89/89/89 90/90/90
f 90/90/90 91/91/91 88/88/88
f 92/92/92 93/93/93 94/94/94
f 94/94/94 95/95/95 92/92/92
f 96/96/96 97/97/97 98/98/98
f 98/98/98 99/99/99 96/96/96
f 102/102/102 101/101/101 100/100/100
f 100/100/100 103/103/103 102/102/102
f 106/106/106 105/105/105 104/104/104
f 104/104/104 107/107/107 106/106/106
f 108/108/108 89/89/89 88/88/88
f 109/109/109 110/110/110 111/111/111
f 111/111/111 112/112/112 109/109/109
f 113/113/113 114/114/114 115/115/115
f 115/115/115 116/116/116 113/113/113
f 117/117/117 118/118/118 119/119/119
f 119/119/119 120/120/120 117/117/117
f 123/123/123 122/122/122 121/121/121
f 121/121/121 124/124/124 123/123/123
f 127/127/127 126/126/126 125/125/125
f 125/125/125 128/128/128 127/127/127
f 129/129/129 110/110/110 109/109/109
f 130/130/130 131/131/131 132/132/132
f 132/132/132 133/133/133 130/130/130
f 134/134/134 135/135/135 136/136/136
f 136/136/136 137/137/137 134/134/134
f 138/138/138 139/139/139 140/140/140
f 140/140/140 141/141/141 138/138/138
f 144/144/144 143/143/143 142/142/142
f 142/142/142 145/145/145 144/144/144
f 148/148/148 147/147/147 146/146/146
f 146/146/146 149/149/149 148/148/148
f 150/150/150 131/131/131 130/130/130
f 151/151/151 152/152/152 153/153/153
f 153/153/153 154/154/154 151/151/151
f 155/155/155 156/156/156 157/157/157
f 157/157/157 158/158/158 155/155/155
f 159/159/159 160/160/160 161/161/161
f 161/161/161 162/162/162 159/159/159
f 165/165/165 164/164/164 163/163/163
f 163/163/163 166/166/166 165/165/165
f 169/169/169 168/168/168 167/167/167
f 167/167/167 170/170/170 169/169/169
f 171/171/171 152/152/152 151/151/151
f 172/172/172 173/173/173 174/174/174
f 174/174/174 175/175/175 172/172/172
f 176/176/176 177/177/177 178/178/178
f 178/178/178 179/179/179 176/176/176
f 180/180/180 181/181/181 182/182/182
f 182/182/182 183/183/183 180/180/180
f 186/186/186 185/185/185 184/184/184
f 184/184/184 187/187/187 186/186/186
f 190/190/190 189/189/189 188/188/188
f 188/188/188 191/191/191 190/190/190
f 192/192/192 173/173/173 172/172/172
f 193/193/193 194/194/194 195/195/195
f 195/195/195 196/196/196 193/193/193
f 197/197/197 198/198/198 199/199/199
f 199/199/199 200/200/200 197/197/197
f 201/201/201 202/202/202 203/203/203
f 203/203/203 204/204/204 201/201/201
f 205/205/205 206/206/206 207/207/207
f 207/207/207 208/208/208 205/205/205
f 209/209/209 210/210/210 211/211/211
f 211/211/211 212/212/212 209/209/209
f 215/215/215 214/214/214 213/213/213
f 213/213/213 216/216/216 215/215/215
f 219/219/219 218/218/218 217/217/217
f 217/217/217 220/220/220 219/219/219
f 217/217/217 218/218/218 215/215/215
f 215/215/215 216/216/216 217/217/217
f 213/213/213 214/214/214 219/219/219
f 219/219/219 220/220/220 213/213/213
f 223/223/223 222/222/222 221/221/221
f 221/221/221 224/224/224 223/223/223
f 227/227/227 226/226/226 225/225/225
f 225/225/225 228/228/228 227/227/227
f 231/231/231 230/230/230 229/229/229
f 229/229/229 232/232/232 231/231/231
f 235/235/235 234/234/234 233/233/233
f 233/233/233 236/236/236 235/235/235
f 239/239/239 238/238/238 237/237/237
f 237/237/237 240/240/240 239/239/239
f 241/241/241 242/242/242 243/243/243
f 243/243/243 244/244/244 241/241/241
f 245/245/245 241/241/241 244/244/244
f 244/244/244 246/246/246 245/245/245
f 247/247/247 245/245/245 246/246/246
f 246/246/246 248/248/248 247/247/247
f 249/249/249 247/247/247 248/248/248
f 248/248/248 250/250/250 249/249/249
f 251/251/251 249/249/249 250/250/250
f 250/250/250 252/252/252 251/251/251
f 253/253/253 251/251/251 252/252/252
f 252/252/252 254/254/254 253/253/253
f 255/255/255 253/253/253 254/254/254
f 254/254/254 256/256/256 255/255/255
f 257/257/257 255/255/255 256/256/256
f 256/256/256 258/258/258 257/257/257
f 259/259/259 257/257/257 258/258/258
f 258/258/258 260/260/260 259/259/259
f 261/261/261 259/259/259 260/260/260
f 260/260/260 262/262/262 261/261/261
f 263/263/263 261/261/261 262/262/262
f 262/262/262 264/264/264 263/263/263
f 265/265/265 263/263/263 264/264/264
f 264/264/264 266/266/266 265/265/265
f 267/267/267 265/265/265 266/266/266
f 266/266/266 268/268/268 267/267/267
f 269/269/269 267/267/267 268/268/268
f 268/268/268 270/270/270 269/269/269
f 271/271/271 269/269/269 270/270/270
f 270/270/270 272/272/272 271/271/271
f 273/273/273 271/271/271 272/272/272
f 272/272/272 274/274/274 273/273/273
f 275/275/275 273/273/273 274/274/274
f 274/274/274 276/276/276 275/275/275
f 277/277/277 275/275/275 276/276/276
f 276/276/276 278/278/278 277/277/277
f 279/279/279 277/277/277 278/278/278
f 278/278/278 280/280/280 279/279/279
f 281/281/281 279/279/279 280/280/280
f 280/280/280 282/282/282 281/281/281
f 283/283/283 281/281/281 282/282/282
f 282/282/282 284/284/284 283/283/283
f 285/285/285 283/283/283 284/284/284
f 284/284/284 286/286/286 285/285/285
f 287/287/287 285/285/285 286/286/286
f 286/286/286 288/288/288 287/287/287
f 289/289/289 287/287/287 288/288/288
f 288/288/288 290/290/290 289/289/289
f 291/291/291 289/289/289 290/290/290
f 290/290/290 292/292/292 291/291/291
f 293/293/293 291/291/291 292/292/292
f 292/292/292 294/294/294 293/293/293
f 295/295/295 293/293/293 294/294/294
f 294/294/294 296/296/296 295/295/295
f 297/297/297 295/295/295 296/296/296
f 296/296/296 298/298/298 297/297/297
f 299/299/299 297/297/297 298/298/298
f 298/298/298 300/300/300 299/299/299
f 301/301/301 299/299/299 300/300/300
f 300/300/300 302/302/302 301/301/301
f 303/303/303 301/301/301 302/302/302
f 302/302/302 304/304/304 303/303/303
f 305/305/305 303/303/303 304/304/304
f 304/304/304 306/306/306 305/305/305
f 307/307/307 305/305/305 306/306/306
f 306/306/306 308/308/308 307/307/307
f 309/309/309 307/307/307 308/308/308
f 308/308/308 310/310/310 309/309/309
f 311/311/311 309/309/309 310/310/310
f 310/310/310 312/312/312 311/311/311
f 313/313/313 311/311/311 312/312/312
f 312/312/312 314/314/314 313/313/313
f 315/315/315 313/313/313 314/314/314
f 314/314/314 316/316/316 315/315/315
f 317/317/317 315/315/315 316/316/316
f 316/316/316 318/318/318 317/317/317
f 319/319/319 317/317/317 318/318/318
f 318/318/318 320/320/320 319/319/319
f 321/321/321 319/319/319 320/320/320
f 320/320/320 322/322/322 321/321/321
f 323/323/323 321/321/321 322/322/322
f 322/322/322 324/324/324 323/323/323
f 325/325/325 323/323/323 324/324/324
f 324/324/324 326/326/326 325/325/325
f 327/327/327 325/325/325 326/326/326
f 326/326/326 328/328/328 327/327/327
f 329/329/329 327/327/327 328/328/328
f 328/328/328 330/330/330 329/329/329
f 331/331/331 329/329/329 330/330/330
f 330/330/330 332/332/332 331/331/331
f 333/333/333 331/331/331 332/332/332
f 332/332/332 334/334/334 333/333/333
f 335/335/335 333/333/333 334/334/334
f 334/334/334 336/336/336 335/335/335
f 242/242/242 335/335/335 336/336/336
f 336/336/336 243/243/243 242/242/242
f 339/339/339 338/338/338 337/337/337
f 337/337/337 340/340/340 339/339/339
f 340/340/340 337/337/337 341/341/341
f 341/341/341 342/342/342 340/340/340
f 342/342/342 341/341/341 343/343/343
f 343/343/343 344/344/344 342/342/342
f 344/344/344 343/343/343 345/345/345
f 345/345/345 346/346/346 344/344/344
f 346/346/346 345/345/345 347/347/347
f 347/347/347 348/348/348 346/346/346
f 348/348/348 347/347/347 349/349/349
f 349/349/349 350/350/350 348/348/348
f 350/350/350 349/349/349 351/351/351
f 351/351/351 352/352/352 350/350/350
f 352/352/352 351/351/351 353/353/353
f 353/353/353 354/354/354 352/352/352
f 354/354/354 353/353/353 355/355/355
f 355/355/355 356/356/356 354/354/354
f 356/356/356 355/355/355 357/357/357
f 357/357/357 358/358/358 356/356/356
f 358/358/358 357/357/357 359/359/359
f 359/359/359 360/360/360 358/358/358
f 360/360/360 359/359/359 361/361/361
f 361/361/361 362/362/362 360/360/360
f 362/362/362 361/361/361 363/363/363
f 363/363/363 364/364/364 362/362/362
f 364/364/364 363/363/363 365/365/365
f 365/365/365 366/366/366 364/364/364
f 366/366/366 365/365/365 367/367/367
f 367/367/367 368/368/368 366/366/366
f 368/368/368 367/367/367 369/369/369
f 369/369/369 370/370/370 368/368/368
f 370/370/370 369/369/369 371/371/371
f 371/371/371 372/372/372 370/370/370
f 372/372/372 371/371/371 373/373/373
f 373/373/373 374/374/374 372/372/372
f 374/374/374 373/373/373 375/375/375
f 375/375/375 376/376/376 374/374/374
f 376/376/376 375/375/375 377/377/377
f 377/377/377 378/378/378 376/376/376
f 378/378/378 377/377/377 379/379/379
f 379/379/379 380/380/380 378/378/378
f 380/380/380 379/379/379 381/381/381
f 381/381/381 382/382/382 380/380/380
f 382/382/382 381/381/381 383/383/383
f 383/383/383 384/384/384 382/382/382
f 384/384/384 383/383/383 385/385/385
f 385/385/385 386/386/386 384/384/384
f 386/386/386 385/385/385 387/387/387
f 387/387/387 388/388/388 386/386/386
f 388/388/388 387/387/387 389/389/389
f 389/389/389 390/390/390 388/388/388
f 390/390/390 389/389/389 391/391/391
f 391/391/391 392/392/392 390/390/390
f 392/392/392 391/391/391 393/393/393
f 393/393/393 394/394/394 392/392/392
f 394/394/394 393/393/393 395/395/395
f 395/395/395 396/396/396 394/394/394
f 396/396/396 395/395/395 397/397/397
f 397/397/397 398/398/398 396/396/396
f 398/398/398 397/397/397 399/399/399
f 399/399/399 400/400/400 398/398/398
f 400/400/400 399/399/399 401/401/401
f 401/401/401 402/402/402 400/400/400
f 402/402/402 401/401/401 403/403/403
f 403/403/403 404/404/404 402/402/402
f 404/404/404 403/403/403 405/405/405
f 405/405/405 406/406/406 404/404/404
f 406/406/406 405/405/405 407/407/407
f 407/407/407 408/408/408 406/406/406
f 408/408/408 407/407/407 409/409/409
f 409/409/409 410/410/410 408/408/408
f 410/410/410 409/409/409 411/411/411
f 411/411/411 412/412/412 410/410/410
f 412/412/412 411/411/411 413/413/413
f 413/413/413 414/414/414 412/412/412
f 414/414/414 413/413/413 415/415/415
f 415/415/415 416/416/416 414/414/414
f 416/416/416 415/415/415 417/417/417
f 417/417/417 418/418/418 416/416/416
f 418/418/418 417/417/417 419/419/419
f 419/419/419 420/420/420 418/418/418
f 420/420/420 419/419/419 421/421/421
f 421/421/421 422/422/422 420/420/420
f 422/422/422 421/421/421 423/423/423
f 423/423/423 424/424/424 422/422/422
f 424/424/424 423/423/423 425/425/425
f 425/425/425 426/426/426 424/424/424
f 426/426/426 425/425/425 427/427/427
f 427/427/427 428/428/428 426/426/426
f 428/428/428 427/427/427 429/429/429
f 429/429/429 430/430/430 428/428/428
f 430/430/430 429/429/429 431/431/431
f 431/431/431 432/432/432 430/430/430
f 432/432/432 431/431/431 338/338/338
f 338/338/338 339/339/339 432/432/432
f 435/435/435 434/434/434 433/433/433
f 433/433/433 436/436/436 435/435/435
f 438/438/438 437/437/437 434/434/434
f 434/434/434 435/435/435 438/438/438
f 440/440/440 439/439/439 437/437/437
f 437/437/437 438/438/438 440/440/440
f 442/442/442 441/441/441 439/439/439
f 439/439/439 440/440/440 442/442/442
f 444/444/444 443/443/443 441/441/441
f 441/441/441 442/442/442 444/444/444
f 446/446/446 445/445/445 443/443/443
f 443/443/443 444/444/444 446/446/446
f 448/448/448 447/447/447 445/445/445
f 445/445/445 446/446/446 448/448/448
f 450/450/450 449/449/449 447/447/447
f 447/447/447 448/448/448 450/450/450
f 452/452/452 451/451/451 449/449/449
f 449/449/449 450/450/450 452/452/452
f 454/454/454 453/453/453 451/451/451
f 451/451/451 452/452/452 454/454/454
f 456/456/456 455/455/455 453/453/453
f 453/453/453 454/454/454 456/456/456
f 458/458/458 457/457/457 455/455/455
f 455/455/455 456/456/456 458/458/458
f 460/460/460 459/459/459 457/457/457
f 457/457/457 458/458/458 460/460/460
f 462/462/462 461/461/461 459/459/459
f 459/459/459 460/460/460 462/462/462
f 464/464/464 463/463/463 461/461/461
f 461/461/461 462/462/462 464/464/464
f 466/466/466 465/465/465 463/463/463
f 463/463/463 464/464/464 466/466/466
f 468/468/468 467/467/467 465/465/465
f 465/465/465 466/466/466 468/468/468
f 470/470/470 469/469/469 467/467/467
f 467/467/467 468/468/468 470/470/470
f 472/472/472 471/471/471 469/469/469
f 469/469/469 470/470/470 472/472/472
f 474/474/474 473/473/473 471/471/471
f 471/471/471 472/472/472 474/474/474
f 476/476/476 475/475/475 473/473/473
f 473/473/473 474/474/474 476/476/476
f 478/478/478 477/477/477 475/475/475
f 475/475/475 476/476/476 478/478/478
f 480/480/480 479/479/479 477/477/477
f 477/477/477 478/478/478 480/480/480
f 482/482/482 481/481/481 479/479/479
f 479/479/479 480/480/480 482/482/482
f 484/484/484 483/483/483 481/481/481
f 481/481/481 482/482/482 484/484/484
f 486/486/486 485/485/485 483/483/483
f 483/483/483 484/484/484 486/486/486
f 488/488/488 487/487/487 485/485/485
f 485/485/485 486/486/486 488/488/488
f 490/490/490 489/489/489 487/487/487
f 487/487/487 488/488/488 490/490/490
f 492/492/492 491/491/491 489/489/489
f 489/489/489 490/490/490 492/492/492
f 494/494/494 493/493/493 491/491/491
f 491/491/491 492/492/492 494/494/494
f 496/496/496 495/495/495 493/493/493
f 493/493/493 494/494/494 496/496/496
f 498/498/498 497/497/497 495/495/495
f 495/495/495 496/496/496 498/498/498
f 500/500/500 499/499/499 497/497/497
f 497/497/497 498/498/498 500/500/500
f 502/502/502 501/501/501 499/499/499
f 499/499/499 500/500/500 502/502/502
f 504/504/504 503/503/503 501/501/501
f 501/501/501 502/502/502 504/504/504
f 506/506/506 505/505/505 503/503/503
f 503/503/503 504/504/504 506/506/506
f 508/508/508 507/507/507 505/505/505
f 505/505/505 506/506/506 508/508/508
f 510/510/510 509/509/509 507/507/507
f 507/507/507 508/508/508 510/510/510
f 512/512/512 511/511/511 509/509/509
f 509/509/509 510/510/510 512/512/512
f 514/514/514 513/513/513 511/511/511
f 511/511/511 512/512/512 514/514/514
f 516/516/516 515/515/515 513/513/513
f 513/513/513 514/514/514 516/516/516
f 518/518/518 517/517/517 515/515/515
f 515/515/515 516/516/516 518/518/518
f 520/520/520 519/519/519 517/517/517
f 517/517/517 518/518/518 520/520/520
f 522/522/522 521/521/521 519/519/519
f 519/519/519 520/520/520 522/522/522
f 524/524/524 523/523/523 521/521/521
f 521/521/521 522/522/522 524/524/524
f 526/526/526 525/525/525 523/523/523
f 523/523/523 524/524/524 526/526/526
f 528/528/528 527/527/527 525/525/525
f 525/525/525 526/526/526 528/528/528
f 436/436/436 433/433/433 527/527/527
f 527/527/527 528/528/528 436/436/436
f 529/529/529 530/530/530 531/531/531
f 531/531/531 532/532/532 529/529/529
f 533/533/533 529/529/529 532/532/532
f 532/532/532 534/534/534 533/533/533
f 535/535/535 533/533/533 534/534/534
f 534/534/534 536/536/536 535/535/535
f 537/537/537 535/535/535 536/536/536
f 536/536/536 538/538/538 537/537/537
f 539/539/539 537/537/537 538/538/538
f 538/538/538 540/540/540 539/539/539
f 541/541/541 539/539/539 540/540/540
f 540/540/540 542/542/542 541/541/541
f 543/543/543 541/541/541 542/542/542
f 542/542/542 544/544/544 543/543/543
f 545/545/545 543/543/543 544/544/544
f 544/544/544 546/546/546 545/545/545
f 547/547/547 545/545/545 546/546/546
f 546/546/546 548/548/548 547/547/547
f 549/549/549 547/547/547 548/548/548
f 548/548/548 550/550/550 549/549/549
f 551/551/551 549/549/549 550/550/550
f 550/550/550 552/552/552 551/551/551
f 553/553/553 551/551/551 552/552/552
f 552/552/552 554/554/554 553/553/553
f 555/555/555 553/553/553 554/554/554
f 554/554/554 556/556/556 555/555/555
f 557/557/557 555/555/555 556/556/556
f 556/556/556 558/558/558 557/557/557
f 559/559/559 557/557/557 558/558/558
f 558/558/558 560/560/560 559/559/559
f 561/561/561 559/559/559 560/560/560
f 560/560/560 562/562/562 561/561/561
f 563/563/563 561/561/561 562/562/562
f 562/562/562 564/564/564 563/563/563
f 565/565/565 563/563/563 564/564/564
f 564/564/564 566/566/566 565/565/565
f 567/567/567 565/565/565 566/566/566
f 566/566/566 568/568/568 567/567/567
f 569/569/569 567/567/567 568/568/568
f 568/568/568 570/570/570 569/569/569
f 571/571/571 569/569/569 570/570/570
f 570/570/570 572/572/572 571/571/571
f 573/573/573 571/571/571 572/572/572
f 572/572/572 574/574/574 573/573/573
f 575/575/575 573/573/573 574/574/574
f 574/574/574 576/576/576 575/575/575
f 577/577/577 575/575/575 576/576/576
f 576/576/576 578/578/578 577/577/577
f 579/579/579 577/577/577 578/578/578
f 578/578/578 580/580/580 579/579/579
f 581/581/581 579/579/579 580/580/580
f 580/580/580 582/582/582 581/581/581
f 583/583/583 581/581/581 582/582/582
f 582/582/582 584/584/584 583/583/583
f 585/585/585 583/583/583 584/584/584
f 584/584/584 586/586/586 585/585/585
f 587/587/587 585/585/585 586/586/586
f 586/586/586 588/588/588 587/587/587
f 589/589/589 587/587/587 588/588/588
f 588/588/588 590/590/590 589/589/589
f 591/591/591 589/589/589 590/590/590
f 590/590/590 592/592/592 591/591/591
f 593/593/593 591/591/591 592/592/592
f 592/592/592 594/594/594 593/593/593
f 595/595/595 593/593/593 594/594/594
f 594/594/594 596/596/596 595/595/595
f 597/597/597 595/595/595 596/596/596
f 596/596/596 598/598/598 597/597/597
f 599/599/599 597/597/597 598/598/598
f 598/598/598 600/600/600 599/599/599
f 601/601/601 599/599/599 600/600/600
f 600/600/600 602/602/602 601/601/601
f 603/603/603 601/601/601 602/602/602
f 602/602/602 604/604/604 603/603/603
f 605/605/605 603/603/603 604/604/604
f 604/604/604 606/606/606 605/605/605
f 607/607/607 605/605/605 606/606/606
f 606/606/606 608/608/608 607/607/607
f 609/609/609 607/607/607 608/608/608
f 608/608/608 610/610/610 609/609/609
f 611/611/611 609/609/609 610/610/610
f 610/610/610 612/612/612 611/611/611
f 613/613/613 611/611/611 612/612/612
f 612/612/612 614/614/614 613/613/613
f 615/615/615 613/613/613 614/614/614
f 614/614/614 616/616/616 615/615/615
f 617/617/617 615/615/615 616/616/616
f 616/616/616 618/618/618 617/617/617
f 619/619/619 617/617/617 618/618/618
f 618/618/618 620/620/620 619/619/619
f 621/621/621 619/619/619 620/620/620
f 620/620/620 622/622/622 621/621/621
f 623/623/623 621/621/621 622/622/622
f 622/622/622 624/624/624 623/623/623
f 530/530/530 623/623/623 624/624/624
f 624/624/624 531/531/531 530/530/530
f 627/627/627 626/626/626 625/625/625
f 625/625/625 628/628/628 627/627/627
f 628/628/628 625/625/625 629/629/629
f 629/629/629 630/630/630 628/628/628
f 630/630/630 629/629/629 631/631/631
f 631/631/631 632/632/632 630/630/630
f 632/632/632 631/631/631 633/633/633
f 633/633/633 634/634/634 632/632/632
f 634/634/634 633/633/633 635/635/635
f 635/635/635 636/636/636 634/634/634
f 636/636/636 635/635/635 637/637/637
f 637/637/637 638/638/638 636/636/636
f 638/638/638 637/637/637 639/639/639
f 639/639/639 640/640/640 638/638/638
f 640/640/640 639/639/639 641/641/641
f 641/641/641 642/642/642 640/640/640
f 642/642/642 641/641/641 643/643/643
f 643/643/643 644/644/644 642/642/642
f 644/644/644 643/643/643 645/645/645
f 645/645/645 646/646/646 644/644/644
f 646/646/646 645/645/645 647/647/647
f 647/647/647 648/648/648 646/646/646
f 648/648/648 647/647/647 649/649/649
f 649/649/649 650/650/650 648/648/648
f 650/650/650 649/649/649 651/651/651
f 651/651/651 652/652/652 650/650/650
f 652/652/652 651/651/651 653/653/653
f 653/653/653 654/654/654 652/652/652
f 654/654/654 653/653/653 655/655/655
f 655/655/655 656/656/656 654/654/654
f 656/656/656 655/655/655 657/657/657
f 657/657/657 658/658/658 656/656/656
f 658/658/658 657/657/657 659/659/659
f 659/659/659 660/660/660 658/658/658
f 660/660/660 659/659/659 661/661/661
f 661/661/661 662/662/662 660/660/660
f 662/662/662 661/661/661 663/663/663
f 663/663/663 664/664/664 662/662/662
f 664/664/664 663/663/663 665/665/665
f 665/665/665 666/666/666 664/664/664
f 666/666/666 665/665/665 667/667/667
f 667/667/667 668/668/668 666/666/666
f 668/668/668 667/667/667 669/669/669
f 669/669/669 670/670/670 668/668/668
f 670/670/670 669/669/669 671/671/671
f 671/671/671 672/672/672 670/670/670
f 672/672/672 671/671/671 673/673/673
f 673/673/673 674/674/674 672/672/672
f 674/674/674 673/673/673 675/675/675
f 675/675/675 676/676/676 674/674/674
f 676/676/676 675/675/675 677/677/677
f 677/677/677 678/678/678 676/676/676
f 678/678/678 677/677/677 679/679/679
f 679/679/679 680/680/680 678/678/678
f 680/680/680 679/679/679 681/681/681
f 681/681/681 682/682/682 680/680/680
f 682/682/682 681/681/681 683/683/683
f 683/683/683 684/684/684 682/682/682
f 684/684/684 683/683/683 685/685/685
f 685/685/685 686/686/686 684/684/684
f 686/686/686 685/685/685 687/687/687
f 687/687/687 688/688/688 686/686/686
f 688/688/688 687/687/687 689/689/689
f 689/689/689 690/690/690 688/688/688
f 690/690/690 689/689/689 691/691/691
f 691/691/691 692/692/692 690/690/690
f 692/692/692 691/691/691 693/693/693
f 693/693/693 694/694/694 692/692/692
f 694/694/694 693/693/693 695/695/695
f 695/695/695 696/696/696 694/694/694
f 696/696/696 695/695/695 697/697/697
f 697/697/697 698/698/698 696/696/696
f 698/698/698 697/697/697 699/699/699
f 699/699/699 700/700/700 698/698/698
f 700/700/700 699/699/699 701/701/701
f 701/701/701 702/702/702 700/700/700
f 702/702/702 701/701/701 703/703/703
f 703/703/703 704/704/704 702/702/702
f 704/704/704 703/703/703 705/705/705
f 705/705/705 706/706/706 704/704/704
f 706/706/706 705/705/705 707/707/707
f 707/707/707 708/708/708 706/706/706
f 708/708/708 707/707/707 709/709/709
f 709/709/709 710/710/710 708/708/708
f 710/710/710 709/709/709 711/711/711
f 711/711/711 712/712/712 710/710/710
f 712/712/712 711/711/711 713/713/713
f 713/713/713 714/714/714 712/712/712
f 714/714/714 713/713/713 715/715/715
f 715/715/715 716/716/716 714/714/714
f 716/716/716 715/715/715 717/717/717
f 717/717/717 718/718/718 716/716/716
f 718/718/718 717/717/717 719/719/719
f 719/719/719 720/720/720 718/718/718
f 720/720/720 719/719/719 626/626/626
f 626/626/626 627/627/627 720/720/720
f 723/723/723 722/722/722 721/721/721
f 721/721/721 724/724/724 723/723/723
f 726/726/726 725/725/725 722/722/722
f 722/722/722 723/723/723 726/726/726
f 728/728/728 727/727/727 725/725/725
f 725/725/725 726/726/726 728/728/728
f 730/730/730 729/729/729 727/727/727
f 727/727/727 728/728/728 730/730/730
f 732/732/732 731/731/731 729/729/729
f 729/729/729 730/730/730 732/732/732
f 734/734/734 733/733/733 731/731/731
f 731/731/731 732/732/732 734/734/734
f 736/736/736 735/735/735 733/733/733
f 733/733/733 734/734/734 736/736/736
f 738/738/738 737/737/737 735/735/735
f 735/735/735 736/736/736 738/738/738
f 740/740/740 739/739/739 737/737/737
f 737/737/737 738/738/738 740/740/740
f 742/742/742 741/741/741 739/739/739
f 739/739/739 740/740/740 742/742/742
f 744/744/744 743/743/743 741/741/741
f 741/741/741 742/742/742 744/744/744
f 746/746/746 745/745/745 743/743/743
f 743/743/743 744/744/744 746/746/746
f 748/748/748 747/747/747 745/745/745
f 745/745/745 746/746/746 748/748/748
f 750/750/750 749/749/749 747/747/747
f 747/747/747 748/748/748 750/750/750
f 752/752/752 751/751/751 749/749/749
f 749/749/749 750/750/750 752/752/752
f 754/754/754 753/753/753 751/751/751
f 751/751/751 752/752/752 754/754/754
f 756/756/756 755/755/755 753/753/753
f 753/753/753 754/754/754 756/756/756
f 758/758/758 757/757/757 755/755/755
f 755/755/755 756/756/756 758/758/758
f 760/760/760 759/759/759 757/757/757
f 757/757/757 758/758/758 760/760/760
f 762/762/762 761/761/761 759/759/759
f 759/759/759 760/760/760 762/762/762
f 764/764/764 763/763/763 761/761/761
f 761/761/761 762/762/762 764/764/764
f 766/766/766 765/765/765 763/763/763
f 763/763/763 764/764/764 766/766/766
f 768/768/768 767/767/767 765/765/765
f 765/765/765 766/766/766 768/768/768
f 770/770/770 769/769/769 767/767/767
f 767/767/767 768/768/768 770/770/770
f 772/772/772 771/771/771 769/769/769
f 769/769/769 770/770/770 772/772/772
f 774/774/774 773/773/773 771/771/771
f 771/771/771 772/772/772 774/774/774
f 776/776/776 775/775/775 773/773/773
f 773/773/773 774/774/774 776/776/776
f 778/778/778 777/777/777 775/775/775
f 775/775/775 776/776/776 778/778/778
f 780/780/780 779/779/779 777/777/777
f 777/777/777 778/778/778 780/780/780
f 782/782/782 781/781/781 779/779/779
f 779/779/779 780/780/780 782/782/782
f 784/784/784 783/783/783 781/781/781
f 781/781/781 782/782/782 784/784/784
f 786/786/786 785/785/785 783/783/783
f 783/783/783 784/784/784 786/786/786
f 788/788/788 787/787/787 785/785/785
f 785/785/785 786/786/786 788/788/788
f 790/790/790 789/789/789 787/787/787
f 787/787/787 788/788/788 790/790/790
f 792/792/792 791/791/791 789/789/789
f 789/789/789 790/790/790 792/792/792
f 794/794/794 793/793/793 791/791/791
f 791/791/791 792/792/792 794/794/794
f 796/796/796 795/795/795 793/793/793
f 793/793/793 794/794/794 796/796/796
f 798/798/798 797/797/797 795/795/795
f 795/795/795 796/796/796 798/798/798
f 800/800/800 799/799/799 797/797/797
f 797/797/797 798/798/798 800/800/800
f 802/802/802 801/801/801 799/799/799
f 799/799/799 800/800/800 802/802/802
f 804/804/804 803/803/803 801/801/801
f 801/801/801 802/802/802 804/804/804
f 806/806/806 805/805/805 803/803/803
f 803/803/803 804/804/804 806/806/806
f 808/808/808 807/807/807 805/805/805
f 805/805/805 806/806/806 808/808/808
f 810/810/810 809/809/809 807/807/807
f 807/807/807 808/808/808 810/810/810
f 812/812/812 811/811/811 809/809/809
f 809/809/809 810/810/810 812/812/812
f 814/814/814 813/813/813 811/811/811
f 811/811/811 812/812/812 814/814/814
f 816/816/816 815/815/815 813/813/813
f 813/813/813 814/814/814 816/816/816
f 724/724/724 721/721/721 815/815/815
f 815/815/815 816/816/816 724/724/724
