mtllib plate1*1_magenta.mtl
v 0 1.907349E-05 20.00004
v -3.814697E-06 4.000016 16.00003
v -1.525879E-05 4.000005 4.000035
v -1.907349E-05 1.748456E-06 3.846476E-05
v 0 20.00002 20.00002
v -3.814697E-06 16.00002 16.00002
v -1.907349E-05 20 2.113973E-05
v -1.525879E-05 16.00001 4.000025
v -8 20.00002 20.00003
v -8.000019 20 2.876912E-05
v -8.000019 1.748455E-06 4.609415E-05
v -8 1.907349E-05 20.00005
v -8.000019 1.748455E-06 4.609415E-05
v -1.907349E-05 1.748456E-06 3.846476E-05
v 0 1.907349E-05 20.00004
v -8 1.907349E-05 20.00005
v -8 1.907349E-05 20.00005
v 0 1.907349E-05 20.00004
v 0 20.00002 20.00002
v -8 20.00002 20.00003
v -8 20.00002 20.00003
v 0 20.00002 20.00002
v -1.907349E-05 20 2.113973E-05
v -8.000019 20 2.876912E-05
v -8.000019 20 2.876912E-05
v -1.907349E-05 20 2.113973E-05
v -1.907349E-05 1.748456E-06 3.846476E-05
v -8.000019 1.748455E-06 4.609415E-05
v -4.000004 16.00002 16.00003
v -4.000015 16.00001 4.000029
v -4.000015 4.000005 4.000039
v -4.000004 4.000016 16.00004
v -4.000015 4.000005 4.000039
v -1.525879E-05 4.000005 4.000035
v -3.814697E-06 4.000016 16.00003
v -4.000004 4.000016 16.00004
v -4.000004 4.000016 16.00004
v -3.814697E-06 4.000016 16.00003
v -3.814697E-06 16.00002 16.00002
v -4.000004 16.00002 16.00003
v -4.000004 16.00002 16.00003
v -3.814697E-06 16.00002 16.00002
v -1.525879E-05 16.00001 4.000025
v -4.000015 16.00001 4.000029
v -4.000015 16.00001 4.000029
v -1.525879E-05 16.00001 4.000025
v -1.525879E-05 4.000005 4.000035
v -4.000015 4.000005 4.000039
v -12 10.78302 15.94844
v -12 10.00002 16.00004
v -8.000004 10.00002 16.00004
v -8.000004 10.78302 15.94844
v -12 11.55281 15.79544
v -8.000004 11.55281 15.79544
v -12 12.29622 15.54344
v -8.000004 12.29622 15.54344
v -12 13.00002 15.19604
v -8.000005 13.00002 15.19604
v -12 13.65281 14.76044
v -8.000005 13.65281 14.76043
v -12.00001 14.24261 14.24264
v -8.000006 14.24261 14.24263
v -12.00001 14.76041 13.65284
v -8.000006 14.76041 13.65283
v -12.00001 15.19601 13.00004
v -8.000007 15.19601 13.00003
v -12.00001 15.54341 12.29624
v -8.000008 15.54341 12.29623
v -12.00001 15.79541 11.55284
v -8.000008 15.79541 11.55283
v -12.00001 15.94841 10.78304
v -8.000009 15.94841 10.78303
v -12.00001 16.00001 10.00004
v -8.00001 16.00001 10.00003
v -12.00001 15.94841 9.217036
v -8.00001 15.94841 9.217032
v -12.00001 15.79541 8.447236
v -8.000011 15.79541 8.447232
v -12.00001 15.54341 7.703836
v -8.000011 15.54341 7.703833
v -12.00001 15.19601 7.000037
v -8.000012 15.19601 7.000033
v -12.00001 14.76041 6.347238
v -8.000013 14.76041 6.347234
v -12.00001 14.24261 5.757438
v -8.000013 14.24261 5.757434
v -12.00001 13.65281 5.239638
v -8.000014 13.65281 5.239635
v -12.00001 13.00001 4.804039
v -8.000014 13.00001 4.804035
v -12.00002 12.29621 4.456639
v -8.000015 12.29621 4.456635
v -12.00002 11.5528 4.204639
v -8.000015 11.5528 4.204636
v -12.00002 10.78301 4.05164
v -8.000015 10.78301 4.051636
v -12.00002 10 4.000041
v -8.000015 10 4.000037
v -12.00002 9.217005 4.051641
v -8.000015 9.217005 4.051638
v -12.00002 8.447206 4.204642
v -8.000015 8.447206 4.204638
v -12.00002 7.703806 4.456644
v -8.000015 7.703806 4.45664
v -12.00001 7.000006 4.804044
v -8.000014 7.000006 4.80404
v -12.00001 6.347205 5.239645
v -8.000014 6.347205 5.239641
v -12.00001 5.757407 5.757445
v -8.000013 5.757407 5.757442
v -12.00001 5.239608 6.347246
v -8.000013 5.239608 6.347242
v -12.00001 4.804008 7.000046
v -8.000012 4.804008 7.000042
v -12.00001 4.456609 7.703846
v -8.000011 4.456609 7.703843
v -12.00001 4.20461 8.447247
v -8.000011 4.20461 8.447243
v -12.00001 4.051611 9.217047
v -8.00001 4.051611 9.217043
v -12.00001 4.00001 10.00005
v -8.00001 4.00001 10.00004
v -12.00001 4.051612 10.78305
v -8.000009 4.051612 10.78304
v -12.00001 4.204613 11.55285
v -8.000008 4.204613 11.55284
v -12.00001 4.456613 12.29625
v -8.000008 4.456613 12.29624
v -12.00001 4.804014 13.00005
v -8.000007 4.804014 13.00004
v -12.00001 5.239614 13.65285
v -8.000006 5.239614 13.65284
v -12.00001 5.757415 14.24265
v -8.000006 5.757415 14.24264
v -12 6.347213 14.76044
v -8.000005 6.347213 14.76044
v -12 7.000015 15.19604
v -8.000005 7.000015 15.19604
v -12 7.703815 15.54344
v -8.000004 7.703815 15.54344
v -12 8.447216 15.79544
v -8.000004 8.447216 15.79544
v -12 9.217014 15.94844
v -8.000004 9.217014 15.94844
v -12 10.78302 15.94844
v -12 10.00002 16.00004
v -12.00001 10.00001 10.00004
v -12 11.55281 15.79544
v -12 12.29622 15.54344
v -12 13.00002 15.19604
v -12 13.65281 14.76044
v -12.00001 14.24261 14.24264
v -12.00001 14.76041 13.65284
v -12.00001 15.19601 13.00004
v -12.00001 15.54341 12.29624
v -12.00001 15.79541 11.55284
v -12.00001 15.94841 10.78304
v -12.00001 16.00001 10.00004
v -12.00001 15.94841 9.217036
v -12.00001 15.79541 8.447236
v -12.00001 15.54341 7.703836
v -12.00001 15.19601 7.000037
v -12.00001 14.76041 6.347238
v -12.00001 14.24261 5.757438
v -12.00001 13.65281 5.239638
v -12.00001 13.00001 4.804039
v -12.00002 12.29621 4.456639
v -12.00002 11.5528 4.204639
v -12.00002 10.78301 4.05164
v -12.00002 10 4.000041
v -12.00002 9.217005 4.051641
v -12.00002 8.447206 4.204642
v -12.00002 7.703806 4.456644
v -12.00001 7.000006 4.804044
v -12.00001 6.347205 5.239645
v -12.00001 5.757407 5.757445
v -12.00001 5.239608 6.347246
v -12.00001 4.804008 7.000046
v -12.00001 4.456609 7.703846
v -12.00001 4.20461 8.447247
v -12.00001 4.051611 9.217047
v -12.00001 4.00001 10.00005
v -12.00001 4.051612 10.78305
v -12.00001 4.204613 11.55285
v -12.00001 4.456613 12.29625
v -12.00001 4.804014 13.00005
v -12.00001 5.239614 13.65285
v -12.00001 5.757415 14.24265
v -12 6.347213 14.76044
v -12 7.000015 15.19604
v -12 7.703815 15.54344
v -12 8.447216 15.79544
v -12 9.217014 15.94844
v -2.0344 10.52202 20.00003
v -2 10.00002 20.00003
v -1.999996 10.00002 24.00003
v -2.034396 10.52202 24.00003
v -2.1364 11.03522 20.00003
v -2.136396 11.03522 24.00003
v -2.3044 11.53082 20.00003
v -2.304396 11.53082 24.00003
v -2.536 12.00002 20.00003
v -2.535996 12.00002 24.00003
v -2.8264 12.43522 20.00003
v -2.826396 12.43522 24.00003
v -3.1716 12.82842 20.00003
v -3.171596 12.82842 24.00003
v -3.5648 13.17362 20.00003
v -3.564796 13.17362 24.00003
v -4 13.46402 20.00003
v -3.999996 13.46402 24.00003
v -4.4692 13.69562 20.00003
v -4.469196 13.69562 24.00003
v -4.9648 13.86362 20.00003
v -4.964796 13.86362 24.00003
v -5.478 13.96562 20.00003
v -5.477996 13.96562 24.00003
v -6 14.00002 20.00003
v -5.999996 14.00002 24.00003
v -6.522 13.96562 20.00003
v -6.521996 13.96562 24.00003
v -7.0352 13.86362 20.00003
v -7.035196 13.86362 24.00003
v -7.5308 13.69562 20.00003
v -7.530796 13.69562 24.00003
v -8 13.46402 20.00003
v -7.999996 13.46402 24.00003
v -8.4352 13.17362 20.00003
v -8.435196 13.17362 24.00003
v -8.8284 12.82842 20.00004
v -8.828396 12.82842 24.00004
v -9.1736 12.43522 20.00004
v -9.173596 12.43522 24.00004
v -9.464 12.00002 20.00004
v -9.463996 12.00002 24.00004
v -9.695601 11.53082 20.00004
v -9.695597 11.53082 24.00004
v -9.8636 11.03522 20.00004
v -9.863596 11.03522 24.00004
v -9.9656 10.52202 20.00004
v -9.965596 10.52202 24.00004
v -10 10.00002 20.00004
v -9.999996 10.00002 24.00004
v -9.9656 9.47802 20.00004
v -9.965596 9.478024 24.00004
v -9.8636 8.964819 20.00004
v -9.863596 8.964823 24.00004
v -9.695601 8.469219 20.00004
v -9.695597 8.469223 24.00004
v -9.464 8.000019 20.00004
v -9.463996 8.000023 24.00004
v -9.1736 7.564819 20.00004
v -9.173596 7.564823 24.00004
v -8.8284 7.171619 20.00004
v -8.828396 7.171623 24.00004
v -8.4352 6.82642 20.00004
v -8.435196 6.826423 24.00004
v -8 6.536018 20.00004
v -7.999996 6.536022 24.00004
v -7.5308 6.30442 20.00004
v -7.530796 6.304424 24.00004
v -7.0352 6.136417 20.00004
v -7.035196 6.136421 24.00004
v -6.522 6.03442 20.00004
v -6.521996 6.034423 24.00004
v -6 6.000019 20.00004
v -5.999996 6.000022 24.00004
v -5.478 6.03442 20.00004
v -5.477996 6.034423 24.00004
v -4.9648 6.136417 20.00004
v -4.964796 6.136421 24.00004
v -4.4692 6.30442 20.00004
v -4.469196 6.304424 24.00004
v -4 6.536018 20.00004
v -3.999996 6.536022 24.00004
v -3.5648 6.82642 20.00004
v -3.564796 6.826423 24.00004
v -3.1716 7.171619 20.00003
v -3.171596 7.171623 24.00003
v -2.8264 7.564819 20.00003
v -2.826396 7.564823 24.00003
v -2.536 8.000019 20.00003
v -2.535996 8.000023 24.00003
v -2.3044 8.469219 20.00003
v -2.304396 8.469223 24.00003
v -2.1364 8.964819 20.00003
v -2.136396 8.964823 24.00003
v -2.0344 9.47802 20.00003
v -2.034396 9.478024 24.00003
v -0.05159998 10.78302 20.00003
v 0 10.00002 20.00003
v 3.814697E-06 10.00002 24.00003
v -0.05159616 10.78302 24.00003
v -0.2045999 11.55282 20.00003
v -0.204596 11.55282 24.00003
v -0.4566002 12.29622 20.00003
v -0.4565964 12.29622 24.00003
v -0.8039999 13.00002 20.00003
v -0.8039961 13.00002 24.00003
v -1.2396 13.65282 20.00003
v -1.239596 13.65282 24.00003
v -1.7574 14.24262 20.00003
v -1.757396 14.24262 24.00003
v -2.3472 14.76042 20.00003
v -2.347196 14.76042 24.00003
v -3 15.19602 20.00003
v -2.999996 15.19602 24.00003
v -3.7038 15.54342 20.00003
v -3.703796 15.54342 24.00003
v -4.4472 15.79542 20.00003
v -4.447196 15.79542 24.00003
v -5.217 15.94842 20.00003
v -5.216996 15.94842 24.00003
v -6 16.00002 20.00003
v -5.999996 16.00002 24.00003
v -6.783 15.94842 20.00003
v -6.782996 15.94842 24.00003
v -7.5528 15.79542 20.00003
v -7.552796 15.79542 24.00003
v -8.2962 15.54342 20.00003
v -8.296196 15.54342 24.00003
v -9 15.19602 20.00003
v -8.999996 15.19602 24.00003
v -9.6528 14.76042 20.00003
v -9.652796 14.76042 24.00003
v -10.2426 14.24262 20.00004
v -10.2426 14.24262 24.00004
v -10.7604 13.65282 20.00004
v -10.7604 13.65282 24.00004
v -11.196 13.00002 20.00004
v -11.196 13.00002 24.00004
v -11.5434 12.29622 20.00004
v -11.5434 12.29622 24.00004
v -11.7954 11.55282 20.00004
v -11.7954 11.55282 24.00004
v -11.9484 10.78302 20.00004
v -11.9484 10.78302 24.00004
v -12 10.00002 20.00004
v -12 10.00002 24.00004
v -11.9484 9.217018 20.00004
v -11.9484 9.217022 24.00004
v -11.7954 8.44722 20.00004
v -11.7954 8.447224 24.00004
v -11.5434 7.703819 20.00004
v -11.5434 7.703823 24.00004
v -11.196 7.000019 20.00004
v -11.196 7.000022 24.00004
v -10.7604 6.347218 20.00004
v -10.7604 6.347221 24.00004
v -10.2426 5.75742 20.00004
v -10.2426 5.757423 24.00004
v -9.6528 5.23962 20.00004
v -9.652796 5.239624 24.00004
v -9 4.80402 20.00004
v -8.999996 4.804023 24.00004
v -8.2962 4.456619 20.00004
v -8.296196 4.456623 24.00004
v -7.5528 4.20462 20.00004
v -7.552796 4.204624 24.00004
v -6.783 4.05162 20.00004
v -6.782996 4.051624 24.00004
v -6 4.000019 20.00004
v -5.999996 4.000022 24.00004
v -5.217 4.05162 20.00004
v -5.216996 4.051624 24.00004
v -4.4472 4.20462 20.00004
v -4.447196 4.204624 24.00004
v -3.7038 4.456619 20.00004
v -3.703796 4.456623 24.00004
v -3 4.80402 20.00004
v -2.999996 4.804023 24.00004
v -2.3472 5.23962 20.00004
v -2.347196 5.239624 24.00004
v -1.7574 5.75742 20.00003
v -1.757396 5.757423 24.00003
v -1.2396 6.347218 20.00003
v -1.239596 6.347221 24.00003
v -0.8039999 7.000019 20.00003
v -0.8039961 7.000022 24.00003
v -0.4566002 7.703819 20.00003
v -0.4565964 7.703823 24.00003
v -0.2045999 8.44722 20.00003
v -0.204596 8.447224 24.00003
v -0.05159998 9.217018 20.00003
v -0.05159616 9.217022 24.00003
v -1.999996 10.00002 24.00003
v -2.034396 10.52202 24.00003
v -0.05159616 10.78302 24.00003
v 3.814697E-06 10.00002 24.00003
v -2.136396 11.03522 24.00003
v -0.204596 11.55282 24.00003
v -2.304396 11.53082 24.00003
v -0.4565964 12.29622 24.00003
v -2.535996 12.00002 24.00003
v -0.8039961 13.00002 24.00003
v -2.826396 12.43522 24.00003
v -1.239596 13.65282 24.00003
v -3.171596 12.82842 24.00003
v -1.757396 14.24262 24.00003
v -3.564796 13.17362 24.00003
v -2.347196 14.76042 24.00003
v -3.999996 13.46402 24.00003
v -2.999996 15.19602 24.00003
v -4.469196 13.69562 24.00003
v -3.703796 15.54342 24.00003
v -4.964796 13.86362 24.00003
v -4.447196 15.79542 24.00003
v -5.477996 13.96562 24.00003
v -5.216996 15.94842 24.00003
v -5.999996 14.00002 24.00003
v -5.999996 16.00002 24.00003
v -6.521996 13.96562 24.00003
v -6.782996 15.94842 24.00003
v -7.035196 13.86362 24.00003
v -7.552796 15.79542 24.00003
v -7.530796 13.69562 24.00003
v -8.296196 15.54342 24.00003
v -7.999996 13.46402 24.00003
v -8.999996 15.19602 24.00003
v -8.435196 13.17362 24.00003
v -9.652796 14.76042 24.00003
v -8.828396 12.82842 24.00004
v -10.2426 14.24262 24.00004
v -9.173596 12.43522 24.00004
v -10.7604 13.65282 24.00004
v -9.463996 12.00002 24.00004
v -11.196 13.00002 24.00004
v -9.695597 11.53082 24.00004
v -11.5434 12.29622 24.00004
v -9.863596 11.03522 24.00004
v -11.7954 11.55282 24.00004
v -9.965596 10.52202 24.00004
v -11.9484 10.78302 24.00004
v -9.999996 10.00002 24.00004
v -12 10.00002 24.00004
v -9.965596 9.478024 24.00004
v -11.9484 9.217022 24.00004
v -9.863596 8.964823 24.00004
v -11.7954 8.447224 24.00004
v -9.695597 8.469223 24.00004
v -11.5434 7.703823 24.00004
v -9.463996 8.000023 24.00004
v -11.196 7.000022 24.00004
v -9.173596 7.564823 24.00004
v -10.7604 6.347221 24.00004
v -8.828396 7.171623 24.00004
v -10.2426 5.757423 24.00004
v -8.435196 6.826423 24.00004
v -9.652796 5.239624 24.00004
v -7.999996 6.536022 24.00004
v -8.999996 4.804023 24.00004
v -7.530796 6.304424 24.00004
v -8.296196 4.456623 24.00004
v -7.035196 6.136421 24.00004
v -7.552796 4.204624 24.00004
v -6.521996 6.034423 24.00004
v -6.782996 4.051624 24.00004
v -5.999996 6.000022 24.00004
v -5.999996 4.000022 24.00004
v -5.477996 6.034423 24.00004
v -5.216996 4.051624 24.00004
v -4.964796 6.136421 24.00004
v -4.447196 4.204624 24.00004
v -4.469196 6.304424 24.00004
v -3.703796 4.456623 24.00004
v -3.999996 6.536022 24.00004
v -2.999996 4.804023 24.00004
v -3.564796 6.826423 24.00004
v -2.347196 5.239624 24.00004
v -3.171596 7.171623 24.00003
v -1.757396 5.757423 24.00003
v -2.826396 7.564823 24.00003
v -1.239596 6.347221 24.00003
v -2.535996 8.000023 24.00003
v -0.8039961 7.000022 24.00003
v -2.304396 8.469223 24.00003
v -0.4565964 7.703823 24.00003
v -2.136396 8.964823 24.00003
v -0.204596 8.447224 24.00003
v -2.034396 9.478024 24.00003
v -0.05159616 9.217022 24.00003
vn 1 8.337286E-14 -9.536743E-07
vn 1 8.337286E-14 -9.536743E-07
vn 1 8.337286E-14 -9.536743E-07
vn 1 8.337286E-14 -9.536743E-07
vn 1 8.337286E-14 -9.536743E-07
vn 1 8.337286E-14 -9.536743E-07
vn 1 8.337286E-14 -9.536743E-07
vn 1 8.337286E-14 -9.536743E-07
vn -1 -8.337286E-14 9.536743E-07
vn -1 -8.337286E-14 9.536743E-07
vn -1 -8.337286E-14 9.536743E-07
vn -1 -8.337286E-14 9.536743E-07
vn 0 -1 8.662515E-07
vn 0 -1 8.662515E-07
vn 0 -1 8.662515E-07
vn 0 -1 8.662515E-07
vn 9.536743E-07 8.662515E-07 1
vn 9.536743E-07 8.662515E-07 1
vn 9.536743E-07 8.662515E-07 1
vn 9.536743E-07 8.662515E-07 1
vn 0 1 -8.662515E-07
vn 0 1 -8.662515E-07
vn 0 1 -8.662515E-07
vn 0 1 -8.662515E-07
vn -9.536743E-07 -8.662515E-07 -1
vn -9.536743E-07 -8.662515E-07 -1
vn -9.536743E-07 -8.662515E-07 -1
vn -9.536743E-07 -8.662515E-07 -1
vn 1 8.337286E-14 -9.536743E-07
vn 1 8.337286E-14 -9.536743E-07
vn 1 8.337286E-14 -9.536743E-07
vn 1 8.337286E-14 -9.536743E-07
vn 0 1 -8.662515E-07
vn 0 1 -8.662515E-07
vn 0 1 -8.662515E-07
vn 0 1 -8.662515E-07
vn -9.536743E-07 -8.662515E-07 -1
vn -9.536743E-07 -8.662515E-07 -1
vn -9.536743E-07 -8.662515E-07 -1
vn -9.536743E-07 -8.662515E-07 -1
vn 0 -1 8.662515E-07
vn 0 -1 8.662515E-07
vn 0 -1 8.662515E-07
vn 0 -1 8.662515E-07
vn 9.536743E-07 8.662515E-07 1
vn 9.536743E-07 8.662515E-07 1
vn 9.536743E-07 8.662515E-07 1
vn 9.536743E-07 8.662515E-07 1
vn 9.479889E-07 0.1090309 0.9940383
vn 9.534443E-07 -0.0219606 0.9997588
vn 9.534443E-07 0.02196233 0.9997588
vn 9.425677E-07 0.1521732 0.9883538
vn 9.264045E-07 0.2374275 0.9714053
vn 9.156554E-07 0.2795404 0.960134
vn 8.888974E-07 0.3622622 0.9320762
vn 8.728587E-07 0.4028675 0.9152583
vn 8.361074E-07 0.4809979 0.8767217
vn 8.154395E-07 0.5185459 0.8550498
vn 7.692333E-07 0.591099 0.806599
vn 7.436481E-07 0.626065 0.779771
vn 6.888E-07 0.6916232 0.7222585
vn 6.595824E-07 0.7222599 0.6916217
vn 5.970611E-07 0.7797723 0.6260633
vn 5.637149E-07 0.8066004 0.5910972
vn 4.945234E-07 0.8550506 0.5185446
vn 4.587151E-07 0.8767223 0.4809969
vn 3.842046E-07 0.9152586 0.4028669
vn 3.454803E-07 0.9320764 0.3622616
vn 2.6659E-07 0.9601343 0.279539
vn 2.264276E-07 0.9714057 0.2374257
vn 1.451225E-07 0.9883541 0.1521711
vn 1.039788E-07 0.9940385 0.1090288
vn 2.094391E-08 0.9997588 0.02196042
vn -2.094391E-08 0.9997588 -0.02196215
vn -1.039788E-07 0.9940383 -0.1090305
vn -1.451225E-07 0.9883539 -0.1521728
vn -2.264276E-07 0.9714054 -0.2374274
vn -2.6659E-07 0.9601339 -0.2795407
vn -3.454803E-07 0.9320758 -0.3622632
vn -3.842046E-07 0.9152579 -0.4028685
vn -4.587152E-07 0.8767213 -0.4809985
vn -4.945235E-07 0.8550496 -0.5185462
vn -5.637151E-07 0.8065991 -0.5910988
vn -5.970612E-07 0.7797711 -0.6260647
vn -6.595823E-07 0.7222589 -0.6916228
vn -6.887997E-07 0.6916221 -0.7222594
vn -7.436478E-07 0.6260638 -0.7797718
vn -7.692332E-07 0.5910977 -0.8066
vn -8.154395E-07 0.5185445 -0.8550507
vn -8.361074E-07 0.4809964 -0.8767226
vn -8.728587E-07 0.4028661 -0.915259
vn -8.888974E-07 0.362261 -0.9320768
vn -9.156552E-07 0.279539 -0.9601343
vn -9.264044E-07 0.237426 -0.9714056
vn -9.425679E-07 0.1521713 -0.9883542
vn -9.479889E-07 0.1090288 -0.9940385
vn -9.534443E-07 0.02196039 -0.9997588
vn -9.534443E-07 -0.02196212 -0.9997588
vn -9.479889E-07 -0.1090305 -0.9940383
vn -9.425679E-07 -0.152173 -0.988354
vn -9.264044E-07 -0.2374277 -0.9714053
vn -9.156552E-07 -0.2795407 -0.9601339
vn -8.888974E-07 -0.3622626 -0.9320762
vn -8.728587E-07 -0.4028677 -0.9152583
vn -8.361076E-07 -0.4809975 -0.8767219
vn -8.154399E-07 -0.5185452 -0.8550502
vn -7.692335E-07 -0.5910987 -0.8065992
vn -7.436475E-07 -0.6260656 -0.7797704
vn -6.88799E-07 -0.6916242 -0.7222575
vn -6.595819E-07 -0.7222604 -0.6916211
vn -5.970612E-07 -0.7797722 -0.6260634
vn -5.637151E-07 -0.8066002 -0.5910974
vn -4.945235E-07 -0.8550506 -0.5185448
vn -4.587152E-07 -0.8767222 -0.480997
vn -3.842039E-07 -0.9152589 -0.4028662
vn -3.45479E-07 -0.932077 -0.3622602
vn -2.665886E-07 -0.9601347 -0.2795376
vn -2.264269E-07 -0.9714058 -0.2374249
vn -1.451233E-07 -0.988354 -0.1521719
vn -1.039803E-07 -0.9940383 -0.1090304
vn -2.094469E-08 -0.9997588 -0.02196123
vn 2.094469E-08 -0.9997588 0.02196296
vn 1.039803E-07 -0.9940381 0.1090321
vn 1.451233E-07 -0.9883538 0.1521736
vn 2.264269E-07 -0.9714054 0.2374266
vn 2.665886E-07 -0.9601343 0.2795392
vn 3.45479E-07 -0.9320764 0.3622618
vn 3.842039E-07 -0.9152582 0.4028678
vn 4.587151E-07 -0.8767215 0.4809984
vn 4.945234E-07 -0.8550497 0.518546
vn 5.637149E-07 -0.8065993 0.5910987
vn 5.970611E-07 -0.7797712 0.6260646
vn 6.59582E-07 -0.7222592 0.6916224
vn 6.887992E-07 -0.6916228 0.7222589
vn 7.436477E-07 -0.626064 0.7797717
vn 7.692335E-07 -0.5910971 0.8066003
vn 8.154399E-07 -0.5185438 0.8550512
vn 8.361076E-07 -0.480996 0.8767228
vn 8.728587E-07 -0.4028659 0.915259
vn 8.888974E-07 -0.3622606 0.9320768
vn 9.156554E-07 -0.2795387 0.9601345
vn 9.264045E-07 -0.2374258 0.9714057
vn 9.425677E-07 -0.1521715 0.988354
vn 9.479889E-07 -0.1090292 0.9940385
vn -1 -8.337286E-14 9.536743E-07
vn -1 -8.337286E-14 9.536743E-07
vn -1 -8.337286E-14 9.536743E-07
vn -1 -8.337286E-14 9.536743E-07
vn -1 -8.337286E-14 9.536743E-07
vn -1 -8.337286E-14 9.536743E-07
vn -1 -8.337286E-14 9.536743E-07
vn -1 -8.337286E-14 9.536743E-07
vn -1 -8.337286E-14 9.536743E-07
vn -1 -8.337286E-14 9.536743E-07
vn -1 -8.337286E-14 9.536743E-07
vn -1 -8.337286E-14 9.536743E-07
vn -1 -8.337286E-14 9.536743E-07
vn -1 -8.337286E-14 9.536743E-07
vn -1 -8.337286E-14 9.536743E-07
vn -1 -8.337286E-14 9.536743E-07
vn -1 -8.337286E-14 9.536743E-07
vn -1 -8.337286E-14 9.536743E-07
vn -1 -8.337286E-14 9.536743E-07
vn -1 -8.337286E-14 9.536743E-07
vn -1 -8.337286E-14 9.536743E-07
vn -0.9999999 -8.337285E-14 9.536743E-07
vn -1 -8.337286E-14 9.536743E-07
vn -1 -8.337286E-14 9.536743E-07
vn -0.9999999 -8.337285E-14 9.536743E-07
vn -1 -8.337286E-14 9.536743E-07
vn -0.9999999 -8.337285E-14 9.536743E-07
vn -1 -8.337286E-14 9.536743E-07
vn -1 -8.337286E-14 9.536743E-07
vn -1 -8.337286E-14 9.536743E-07
vn -1 -8.337286E-14 9.536743E-07
vn -1 -8.337286E-14 9.536743E-07
vn -1 -8.337286E-14 9.536743E-07
vn -1 -8.337286E-14 9.536743E-07
vn -1 -8.337286E-14 9.536743E-07
vn -1 -8.337286E-14 9.536743E-07
vn -1 -8.337286E-14 9.536743E-07
vn -1 -8.337286E-14 9.536743E-07
vn -1 -8.337286E-14 9.536743E-07
vn -1 -8.337286E-14 9.536743E-07
vn -1 -8.337286E-14 9.536743E-07
vn -1 -8.337286E-14 9.536743E-07
vn -1 -8.337286E-14 9.536743E-07
vn -1 -8.337286E-14 9.536743E-07
vn -1 -8.337286E-14 9.536743E-07
vn -1 -8.337286E-14 9.536743E-07
vn -0.9999999 -8.337285E-14 9.536743E-07
vn -1 -8.337286E-14 9.536743E-07
vn -0.9999999 -8.337285E-14 9.536743E-07
vn -0.9940385 -0.1090302 1.042437E-06
vn -0.9997588 0.02196151 9.344201E-07
vn -0.9997588 -0.02196151 9.724685E-07
vn -0.9883541 -0.1521722 1.074387E-06
vn -0.9714057 -0.2374261 1.132075E-06
vn -0.9601343 -0.2795392 1.157807E-06
vn -0.9320766 -0.3622616 1.202707E-06
vn -0.9152585 -0.402867 1.221843E-06
vn -0.8767222 -0.4809973 1.252772E-06
vn -0.8550503 -0.5185452 1.26463E-06
vn -0.8065996 -0.5910982 1.281273E-06
vn -0.7797714 -0.6260643 1.285977E-06
vn -0.722259 -0.6916228 1.287919E-06
vn -0.6916222 -0.7222594 1.285241E-06
vn -0.6260644 -0.7797713 1.27254E-06
vn -0.591099 -0.806599 1.262434E-06
vn -0.5185462 -0.8550496 1.235212E-06
vn -0.4809977 -0.8767219 1.218177E-06
vn -0.4028663 -0.9152588 1.177048E-06
vn -0.3622606 -0.9320769 1.152892E-06
vn -0.279538 -0.9601346 1.098306E-06
vn -0.237425 -0.9714059 1.067908E-06
vn -0.152172 -0.988354 1.001286E-06
vn -0.1090309 -0.9940383 9.650672E-07
vn -0.0219621 -0.9997588 8.869873E-07
vn 0.0219621 -0.9997588 8.450979E-07
vn 0.1090309 -0.9940383 7.571073E-07
vn 0.152172 -0.988354 7.110407E-07
vn 0.237425 -0.9714059 6.150557E-07
vn 0.279538 -0.9601346 5.651299E-07
vn 0.3622606 -0.9320769 4.619343E-07
vn 0.4028663 -0.9152588 4.08641E-07
vn 0.4809977 -0.8767218 3.007464E-07
vn 0.5185464 -0.8550495 2.461636E-07
vn 0.5910992 -0.8065989 1.350014E-07
vn 0.6260645 -0.7797713 7.841638E-08
vn 0.6916221 -0.7222596 -3.392375E-08
vn 0.7222587 -0.691623 -8.968005E-08
vn 0.7797713 -0.6260645 -2.013185E-07
vn 0.8065997 -0.591098 -2.57194E-07
vn 0.8550503 -0.518545 -3.662491E-07
vn 0.8767218 -0.4809977 -4.19442E-07
vn 0.9152583 -0.4028673 -5.23874E-07
vn 0.9320766 -0.3622611 -5.750883E-07
vn 0.9601345 -0.2795385 -6.73505E-07
vn 0.9714057 -0.237426 -7.20734E-07
vn 0.988354 -0.1521725 -8.107481E-07
vn 0.9940385 -0.1090303 -8.535413E-07
vn 0.9997588 -0.02196151 -9.344201E-07
vn 0.9997588 0.02196151 -9.724685E-07
vn 0.9940385 0.1090303 -1.042437E-06
vn 0.988354 0.1521725 -1.074387E-06
vn 0.9714057 0.237426 -1.132075E-06
vn 0.9601345 0.2795385 -1.157806E-06
vn 0.9320766 0.3622611 -1.202707E-06
vn 0.9152583 0.4028673 -1.221843E-06
vn 0.8767218 0.4809977 -1.252772E-06
vn 0.8550503 0.518545 -1.26463E-06
vn 0.8065997 0.591098 -1.281273E-06
vn 0.7797713 0.6260645 -1.285977E-06
vn 0.7222587 0.691623 -1.287919E-06
vn 0.6916221 0.7222596 -1.285241E-06
vn 0.6260645 0.7797713 -1.27254E-06
vn 0.5910992 0.8065989 -1.262434E-06
vn 0.5185454 0.85505 -1.235212E-06
vn 0.4809959 0.8767229 -1.218176E-06
vn 0.4028663 0.9152588 -1.177048E-06
vn 0.3622638 0.9320756 -1.152894E-06
vn 0.2795413 0.9601337 -1.098309E-06
vn 0.237425 0.9714059 -1.067908E-06
vn 0.1521696 0.9883543 -1.001284E-06
vn 0.1090297 0.9940384 -9.650661E-07
vn 0.0219621 0.9997588 -8.869873E-07
vn -0.0219621 0.9997588 -8.450979E-07
vn -0.1090297 0.9940384 -7.571085E-07
vn -0.1521696 0.9883543 -7.110432E-07
vn -0.237425 0.9714059 -6.150557E-07
vn -0.2795413 0.9601337 -5.651258E-07
vn -0.3622638 0.9320756 -4.619303E-07
vn -0.4028663 0.9152588 -4.08641E-07
vn -0.4809958 0.8767229 -3.007492E-07
vn -0.5185454 0.8550501 -2.461651E-07
vn -0.591099 0.806599 -1.350016E-07
vn -0.6260644 0.7797713 -7.841649E-08
vn -0.6916222 0.7222594 3.392402E-08
vn -0.722259 0.6916228 8.96806E-08
vn -0.7797714 0.6260643 2.013188E-07
vn -0.8065996 0.5910982 2.571936E-07
vn -0.8550503 0.5185452 3.66249E-07
vn -0.8767222 0.4809973 4.194427E-07
vn -0.9152585 0.402867 5.238744E-07
vn -0.9320766 0.3622616 5.750879E-07
vn -0.9601343 0.2795392 6.735042E-07
vn -0.9714057 0.2374261 7.207339E-07
vn -0.9883541 0.1521722 8.107485E-07
vn -0.9940385 0.1090302 8.535414E-07
vn 0.9940384 0.1090301 -1.042436E-06
vn 0.9997588 -0.02196146 -9.344202E-07
vn 0.9997588 0.02196146 -9.724685E-07
vn 0.9883539 0.1521723 -1.074387E-06
vn 0.9714055 0.2374266 -1.132076E-06
vn 0.9601343 0.2795395 -1.157807E-06
vn 0.9320765 0.3622614 -1.202707E-06
vn 0.9152586 0.4028667 -1.221843E-06
vn 0.8767222 0.4809971 -1.252772E-06
vn 0.8550503 0.5185452 -1.26463E-06
vn 0.8065996 0.5910982 -1.281273E-06
vn 0.7797715 0.6260643 -1.285977E-06
vn 0.7222591 0.6916226 -1.287919E-06
vn 0.6916223 0.7222593 -1.285241E-06
vn 0.6260639 0.7797717 -1.27254E-06
vn 0.591098 0.8065999 -1.262433E-06
vn 0.5185454 0.8550501 -1.235212E-06
vn 0.4809977 0.8767217 -1.218177E-06
vn 0.4028677 0.9152582 -1.177048E-06
vn 0.3622623 0.9320761 -1.152893E-06
vn 0.2795398 0.960134 -1.098308E-06
vn 0.2374265 0.9714055 -1.067909E-06
vn 0.152172 0.988354 -1.001286E-06
vn 0.1090297 0.9940384 -9.650661E-07
vn 0.02196128 0.9997588 -8.869865E-07
vn -0.02196128 0.9997588 -8.450987E-07
vn -0.1090297 0.9940384 -7.571085E-07
vn -0.152172 0.988354 -7.110407E-07
vn -0.2374266 0.9714056 -6.150539E-07
vn -0.2795399 0.9601341 -5.651276E-07
vn -0.3622624 0.9320761 -4.61932E-07
vn -0.4028677 0.9152582 -4.086393E-07
vn -0.4809977 0.8767217 -3.007464E-07
vn -0.5185455 0.8550501 -2.461649E-07
vn -0.5910981 0.8065997 -1.350031E-07
vn -0.6260641 0.7797717 -7.841719E-08
vn -0.6916222 0.7222595 3.392396E-08
vn -0.7222588 0.6916227 8.968043E-08
vn -0.7797713 0.6260645 2.013185E-07
vn -0.8065995 0.5910984 2.571933E-07
vn -0.8550503 0.5185452 3.662489E-07
vn -0.8767222 0.4809971 4.194429E-07
vn -0.9152586 0.4028669 5.238746E-07
vn -0.9320765 0.3622618 5.750875E-07
vn -0.9601341 0.2795399 6.735034E-07
vn -0.9714054 0.2374268 7.207331E-07
vn -0.9883541 0.1521722 8.107485E-07
vn -0.9940384 0.1090297 8.535418E-07
vn -0.9997588 0.02196126 9.344204E-07
vn -0.9997588 -0.02196126 9.724683E-07
vn -0.9940384 -0.1090297 1.042436E-06
vn -0.9883541 -0.1521722 1.074387E-06
vn -0.9714054 -0.2374268 1.132076E-06
vn -0.9601341 -0.2795399 1.157807E-06
vn -0.9320765 -0.3622618 1.202707E-06
vn -0.9152586 -0.4028669 1.221843E-06
vn -0.8767223 -0.4809968 1.252772E-06
vn -0.8550507 -0.5185445 1.26463E-06
vn -0.8065997 -0.591098 1.281273E-06
vn -0.7797709 -0.6260649 1.285977E-06
vn -0.7222581 -0.6916236 1.287919E-06
vn -0.6916217 -0.7222598 1.285241E-06
vn -0.6260641 -0.7797717 1.27254E-06
vn -0.5910981 -0.8065997 1.262433E-06
vn -0.5185455 -0.8550501 1.235212E-06
vn -0.4809977 -0.8767217 1.218177E-06
vn -0.402867 -0.9152585 1.177048E-06
vn -0.362261 -0.9320767 1.152892E-06
vn -0.2795384 -0.9601345 1.098307E-06
vn -0.2374258 -0.9714056 1.067908E-06
vn -0.1521728 -0.9883539 1.001286E-06
vn -0.1090313 -0.9940382 9.650674E-07
vn -0.0219621 -0.9997588 8.869873E-07
vn 0.0219621 -0.9997588 8.450979E-07
vn 0.1090313 -0.9940382 7.571068E-07
vn 0.1521728 -0.9883539 7.110398E-07
vn 0.2374258 -0.9714057 6.150548E-07
vn 0.2795383 -0.9601345 5.651294E-07
vn 0.3622609 -0.9320767 4.619339E-07
vn 0.4028671 -0.9152586 4.086401E-07
vn 0.4809977 -0.8767217 3.007464E-07
vn 0.5185454 -0.8550501 2.461651E-07
vn 0.591098 -0.8065999 1.350034E-07
vn 0.6260639 -0.7797717 7.841736E-08
vn 0.6916218 -0.7222598 -3.392337E-08
vn 0.7222583 -0.6916234 -8.967935E-08
vn 0.7797711 -0.6260647 -2.013183E-07
vn 0.8065998 -0.5910978 -2.571941E-07
vn 0.8550507 -0.5185445 -3.662499E-07
vn 0.8767223 -0.4809968 -4.194434E-07
vn 0.9152586 -0.4028667 -5.238748E-07
vn 0.9320765 -0.3622614 -5.750879E-07
vn 0.9601343 -0.2795395 -6.735038E-07
vn 0.9714055 -0.2374266 -7.207333E-07
vn 0.9883539 -0.1521723 -8.107482E-07
vn 0.9940384 -0.1090301 -8.535414E-07
vn 9.536743E-07 8.662515E-07 1
vn 9.536743E-07 8.662515E-07 1
vn 9.536743E-07 8.662515E-07 1
vn 9.536743E-07 8.662515E-07 1
vn 9.536743E-07 8.662515E-07 1
vn 9.536743E-07 8.662515E-07 1
vn 9.536743E-07 8.662515E-07 1
vn 9.536743E-07 8.662515E-07 1
vn 9.536743E-07 8.662515E-07 1
vn 9.536743E-07 8.662515E-07 1
vn 9.536743E-07 8.662515E-07 1
vn 9.536743E-07 8.662515E-07 1
vn 9.536743E-07 8.662515E-07 1
vn 9.536743E-07 8.662515E-07 1
vn 9.536743E-07 8.662515E-07 1
vn 9.536743E-07 8.662515E-07 1
vn 9.536743E-07 8.662515E-07 1
vn 9.536743E-07 8.662515E-07 0.9999999
vn 9.536743E-07 8.662515E-07 0.9999999
vn 9.536743E-07 8.662515E-07 1
vn 9.536743E-07 8.662515E-07 1
vn 9.536743E-07 8.662515E-07 1
vn 9.536743E-07 8.662515E-07 1
vn 9.536743E-07 8.662515E-07 1
vn 9.536743E-07 8.662515E-07 1
vn 9.536743E-07 8.662515E-07 1
vn 9.536743E-07 8.662515E-07 1
vn 9.536743E-07 8.662515E-07 1
vn 9.536743E-07 8.662515E-07 1
vn 9.536743E-07 8.662515E-07 1
vn 9.536743E-07 8.662515E-07 0.9999999
vn 9.536743E-07 8.662515E-07 1
vn 9.536743E-07 8.662515E-07 0.9999999
vn 9.536743E-07 8.662515E-07 1
vn 9.536743E-07 8.662515E-07 1
vn 9.536743E-07 8.662515E-07 1
vn 9.536743E-07 8.662515E-07 1
vn 9.536743E-07 8.662515E-07 1
vn 9.536743E-07 8.662515E-07 1
vn 9.536743E-07 8.662515E-07 1
vn 9.536743E-07 8.662515E-07 1
vn 9.536743E-07 8.662515E-07 1
vn 9.536743E-07 8.662515E-07 1
vn 9.536743E-07 8.662515E-07 1
vn 9.536743E-07 8.662515E-07 1
vn 9.536743E-07 8.662515E-07 1
vn 9.536743E-07 8.662515E-07 1
vn 9.536743E-07 8.662515E-07 1
vn 9.536743E-07 8.662515E-07 1
vn 9.536743E-07 8.662515E-07 1
vn 9.536743E-07 8.662515E-07 1
vn 9.536743E-07 8.662515E-07 1
vn 9.536743E-07 8.662515E-07 1
vn 9.536743E-07 8.662515E-07 1
vn 9.536743E-07 8.662515E-07 0.9999999
vn 9.536743E-07 8.662515E-07 1
vn 9.536743E-07 8.662515E-07 1
vn 9.536743E-07 8.662515E-07 1
vn 9.536743E-07 8.662515E-07 1
vn 9.536743E-07 8.662515E-07 1
vn 9.536743E-07 8.662515E-07 1
vn 9.536743E-07 8.662515E-07 1
vn 9.536743E-07 8.662515E-07 1
vn 9.536743E-07 8.662515E-07 1
vn 9.536743E-07 8.662515E-07 1
vn 9.536743E-07 8.662515E-07 1
vn 9.536743E-07 8.662515E-07 1
vn 9.536743E-07 8.662515E-07 1
vn 9.536743E-07 8.662515E-07 0.9999999
vn 9.536743E-07 8.662515E-07 1
vn 9.536743E-07 8.662515E-07 1
vn 9.536743E-07 8.662515E-07 1
vn 9.536743E-07 8.662515E-07 1
vn 9.536743E-07 8.662515E-07 1
vn 9.536743E-07 8.662515E-07 1
vn 9.536743E-07 8.662515E-07 1
vn 9.536743E-07 8.662515E-07 1
vn 9.536743E-07 8.662515E-07 1
vn 9.536743E-07 8.662515E-07 1
vn 9.536743E-07 8.662515E-07 1
vn 9.536743E-07 8.662515E-07 1
vn 9.536743E-07 8.662515E-07 1
vn 9.536743E-07 8.662515E-07 1
vn 9.536743E-07 8.662515E-07 1
vn 9.536743E-07 8.662515E-07 0.9999999
vn 9.536743E-07 8.662515E-07 1
vn 9.536743E-07 8.662515E-07 0.9999999
vn 9.536743E-07 8.662515E-07 1
vn 9.536743E-07 8.662515E-07 0.9999999
vn 9.536743E-07 8.662515E-07 0.9999999
vn 9.536743E-07 8.662515E-07 1
vn 9.536743E-07 8.662515E-07 1
vn 9.536743E-07 8.662515E-07 0.9999999
vn 9.536743E-07 8.662515E-07 1
vn 9.536743E-07 8.662515E-07 1
vn 9.536743E-07 8.662515E-07 1
vt 40 0
vt 36 -4
vt 36 -16
vt 40 -20
vt 20 0
vt 24 -4
vt 20 -20
vt 24 -16
vt 12 -8
vt 12 -28
vt 32 -28
vt 32 -8
vt 32 20
vt 40 20
vt 40 40
vt 32 40
vt -8 40
vt 0 40
vt 0 20
vt -8 20
vt 12 20
vt 20 20
vt 20 0
vt 12 0
vt -28 0
vt -20 0
vt -20 20
vt -28 20
vt 20 -8
vt 20 -20
vt 32 -20
vt 32 -8
vt 32 20
vt 36 20
vt 36 32
vt 32 32
vt -8 32
vt -4 32
vt -4 20
vt -8 20
vt 20 20
vt 24 20
vt 24 8
vt 20 8
vt -20 8
vt -16 8
vt -16 20
vt -20 20
vt -16.0516 25.1654
vt -16 26
vt -12 26
vt -12.0516 25.1654
vt -16.2046 24.2426
vt -12.2046 24.2426
vt -16.4566 23.2472
vt -12.4566 23.2472
vt -16.804 22.196
vt -12.804 22.196
vt -17.2396 21.1076
vt -13.2396 21.1076
vt -17.7574 20
vt -13.7574 20
vt -18.3472 18.8924
vt -14.3472 18.8924
vt -19 17.804
vt -15 17.804
vt -19.7038 16.7528
vt -15.7038 16.7528
vt -20.4472 15.7574
vt -16.4472 15.7574
vt -21.217 14.8346
vt -17.217 14.8346
vt -22 14
vt 16 14
vt 12.0516 13.2686
vt 16.0516 13.2686
vt 12.2046 12.6518
vt 16.2046 12.6518
vt 12.4566 12.1604
vt 16.4566 12.1604
vt 12.804 11.804
vt 16.804 11.804
vt 13.2396 11.5868
vt 17.2396 11.5868
vt 13.7574 11.5148
vt -22.2426 11.5148
vt -26.7604 11.5868
vt -22.7604 11.5868
vt -27.196 11.804
vt -23.196 11.804
vt -27.5434 12.1604
vt -23.5434 12.1604
vt -27.7954 12.6518
vt -23.7954 12.6518
vt -27.9484 13.2686
vt -23.9484 13.2686
vt -28 14
vt 22 14
vt 18.783 14.8346
vt 22.783 14.8346
vt 19.5528 15.7574
vt 23.5528 15.7574
vt 20.2962 16.7528
vt 24.2962 16.7528
vt 21 17.804
vt 25 17.804
vt 21.6528 18.8924
vt 25.6528 18.8924
vt 22.2426 20
vt 26.2426 20
vt 22.7604 21.1076
vt 26.7604 21.1076
vt 23.196 22.196
vt 27.196 22.196
vt 23.5434 23.2472
vt 27.5434 23.2472
vt 23.7954 24.2426
vt 27.7954 24.2426
vt 23.9484 25.1654
vt 27.9484 25.1654
vt 24 26
vt 28 26
vt 23.9484 26.7314
vt 27.9484 26.7314
vt 23.7954 27.3482
vt 27.7954 27.3482
vt 23.5434 27.8396
vt 27.5434 27.8396
vt 23.196 28.196
vt 27.196 28.196
vt 22.7604 28.4132
vt 26.7604 28.4132
vt 22.2426 28.4852
vt -13.7574 28.4852
vt -17.2396 28.4132
vt -13.2396 28.4132
vt -16.804 28.196
vt -12.804 28.196
vt -16.4566 27.8396
vt -12.4566 27.8396
vt -16.2046 27.3482
vt -12.2046 27.3482
vt -16.0516 26.7314
vt -12.0516 26.7314
vt 17.217 -16.0516
vt 18 -16
vt 18 -22
vt 16.4472 -16.2046
vt 15.7038 -16.4566
vt 15 -16.804
vt 14.3472 -17.2396
vt 13.7574 -17.7574
vt 13.2396 -18.3472
vt 12.804 -19
vt 12.4566 -19.7038
vt 12.2046 -20.4472
vt 12.0516 -21.217
vt 12 -22
vt 12.0516 -22.783
vt 12.2046 -23.5528
vt 12.4566 -24.2962
vt 12.804 -25
vt 13.2396 -25.6528
vt 13.7574 -26.2426
vt 14.3472 -26.7604
vt 15 -27.196
vt 15.7038 -27.5434
vt 16.4472 -27.7954
vt 17.217 -27.9484
vt 18 -28
vt 18.783 -27.9484
vt 19.5528 -27.7954
vt 20.2962 -27.5434
vt 21 -27.196
vt 21.6528 -26.7604
vt 22.2426 -26.2426
vt 22.7604 -25.6528
vt 23.196 -25
vt 23.5434 -24.2962
vt 23.7954 -23.5528
vt 23.9484 -22.783
vt 24 -22
vt 23.9484 -21.217
vt 23.7954 -20.4472
vt 23.5434 -19.7038
vt 23.196 -19
vt 22.7604 -18.3472
vt 22.2426 -17.7574
vt 21.6528 -17.2396
vt 21 -16.804
vt 20.2962 -16.4566
vt 19.5528 -16.2046
vt 18.783 -16.0516
vt 27.4436 29.478
vt -2 30
vt 28 34
vt 27.4436 33.478
vt 26.8284 28.9648
vt 26.8284 32.9648
vt 26.1648 28.4692
vt 26.1648 32.4692
vt 25.464 28
vt 25.464 32
vt 24.7384 27.5648
vt 24.7384 31.5648
vt 24 27.1716
vt 24 31.1716
vt 23.2616 26.8264
vt 23.2616 30.8264
vt 22.536 26.536
vt 22.536 30.536
vt 21.8352 26.3044
vt 21.8352 30.3044
vt 21.1716 26.1364
vt 21.1716 30.1364
vt 20.5564 26.0344
vt 20.5564 30.0344
vt 20 26
vt 20 30
vt 19.5124 26.0344
vt 19.5124 30.0344
vt 19.1012 26.1364
vt 19.1012 30.1364
vt 18.7736 26.3044
vt 18.7736 30.3044
vt 18.536 26.536
vt 18.536 30.536
vt 18.3912 26.8264
vt 18.3912 30.8264
vt 18.3432 27.1716
vt -4.8284 31.1716
vt -9.1736 27.5648
vt -5.1736 31.5648
vt -9.464 28
vt -5.464 32
vt -9.695601 28.4692
vt -5.695601 32.4692
vt -9.8636 28.9648
vt -5.8636 32.9648
vt -9.9656 29.478
vt -5.9656 33.478
vt -10 30
vt 20 34
vt 20.5564 30.522
vt 20.5564 34.522
vt 21.1716 31.0352
vt 21.1716 35.0352
vt 21.8352 31.5308
vt 21.8352 35.5308
vt 22.536 32
vt 22.536 36
vt 23.2616 32.4352
vt 23.2616 36.4352
vt 24 32.8284
vt 24 36.8284
vt 24.7384 33.1736
vt 24.7384 37.1736
vt 25.464 33.464
vt 25.464 37.464
vt 26.1648 33.6956
vt 26.1648 37.6956
vt 26.8284 33.8636
vt 26.8284 37.8636
vt 27.4436 33.9656
vt 27.4436 37.9656
vt 28 34
vt -2 38
vt -5.478 33.9656
vt -1.478 37.9656
vt -4.9648 33.8636
vt -0.9647999 37.8636
vt -4.4692 33.6956
vt -0.4692001 37.6956
vt -4 33.464
vt 0 37.464
vt -3.5648 33.1736
vt 0.4352 37.1736
vt -3.1716 32.8284
vt 0.8283999 36.8284
vt -2.8264 32.4352
vt 1.1736 36.4352
vt -2.536 32
vt 1.464 36
vt -2.3044 31.5308
vt 1.6956 35.5308
vt -2.1364 31.0352
vt 1.8636 35.0352
vt -2.0344 30.522
vt 1.9656 34.522
vt 29.1654 29.217
vt 0 30
vt 30 34
vt 29.1654 33.217
vt 28.2426 28.4472
vt 28.2426 32.4472
vt 27.2472 27.7038
vt 27.2472 31.7038
vt 26.196 27
vt 26.196 31
vt 25.1076 26.3472
vt 25.1076 30.3472
vt 24 25.7574
vt 24 29.7574
vt 22.8924 25.2396
vt 22.8924 29.2396
vt 21.804 24.804
vt 21.804 28.804
vt 20.7528 24.4566
vt 20.7528 28.4566
vt 19.7574 24.2046
vt 19.7574 28.2046
vt 18.8346 24.0516
vt 18.8346 28.0516
vt 18 24
vt -2 28
vt -6.783 24.0516
vt -2.783 28.0516
vt -7.5528 24.2046
vt -3.5528 28.2046
vt -8.2962 24.4566
vt -4.2962 28.4566
vt -9 24.804
vt -5 28.804
vt -9.6528 25.2396
vt -5.6528 29.2396
vt -10.2426 25.7574
vt -6.242599 29.7574
vt -10.7604 26.3472
vt -6.7604 30.3472
vt -11.196 27
vt -7.196 31
vt -11.5434 27.7038
vt -7.5434 31.7038
vt -11.7954 28.4472
vt -7.795401 32.4472
vt -11.9484 29.217
vt -7.9484 33.217
vt -12 30
vt 18 34
vt 18.8346 30.783
vt 18.8346 34.783
vt 19.7574 31.5528
vt 19.7574 35.5528
vt 20.7528 32.2962
vt 20.7528 36.2962
vt 21.804 33
vt 21.804 37
vt 22.8924 33.6528
vt 22.8924 37.6528
vt 24 34.2426
vt 24 38.2426
vt 25.1076 34.7604
vt 25.1076 38.7604
vt 26.196 35.196
vt 26.196 39.196
vt 27.2472 35.5434
vt 27.2472 39.5434
vt 28.2426 35.7954
vt 28.2426 39.7954
vt 29.1654 35.9484
vt 29.1654 39.9484
vt 30 36
vt 30 40
vt 30.7314 35.9484
vt 30.7314 39.9484
vt 31.3482 35.7954
vt 31.3482 39.7954
vt 31.8396 35.5434
vt 31.8396 39.5434
vt 32.196 35.196
vt 32.196 39.196
vt 32.4132 34.7604
vt 32.4132 38.7604
vt 32.4852 34.2426
vt 2.2426 38.2426
vt -1.2396 33.6528
vt 2.7604 37.6528
vt -0.8039999 33
vt 3.196 37
vt -0.4566002 32.2962
vt 3.5434 36.2962
vt -0.2045999 31.5528
vt 3.7954 35.5528
vt -0.05159998 30.783
vt 3.9484 34.783
vt 2 34
vt 1.9656 33.478
vt 3.9484 33.217
vt 4 34
vt 1.8636 32.9648
vt 3.7954 32.4472
vt 1.6956 32.4692
vt 3.5434 31.7038
vt 1.464 32
vt 3.196 31
vt 1.1736 31.5648
vt 2.7604 30.3472
vt 0.8283999 31.1716
vt 2.2426 29.7574
vt 0.4352 30.8264
vt 1.6528 29.2396
vt 0 30.536
vt 1 28.804
vt -0.4692001 30.3044
vt 0.2962 28.4566
vt -0.9647999 30.1364
vt -0.4471998 28.2046
vt -1.478 30.0344
vt -1.217 28.0516
vt -2 30
vt -2 28
vt -2.522 30.0344
vt -2.783 28.0516
vt -3.0352 30.1364
vt -3.5528 28.2046
vt -3.5308 30.3044
vt -4.2962 28.4566
vt -4 30.536
vt -5 28.804
vt -4.4352 30.8264
vt -5.6528 29.2396
vt -4.8284 31.1716
vt -6.242599 29.7574
vt -5.1736 31.5648
vt -6.7604 30.3472
vt -5.464 32
vt -7.196 31
vt -5.695601 32.4692
vt -7.5434 31.7038
vt -5.8636 32.9648
vt -7.795401 32.4472
vt -5.9656 33.478
vt -7.9484 33.217
vt -6 34
vt -8 34
vt -5.9656 34.522
vt -7.9484 34.783
vt -5.8636 35.0352
vt -7.795401 35.5528
vt -5.695601 35.5308
vt -7.5434 36.2962
vt -5.464 36
vt -7.196 37
vt -5.1736 36.4352
vt -6.7604 37.6528
vt -4.8284 36.8284
vt -6.242599 38.2426
vt -4.4352 37.1736
vt -5.6528 38.7604
vt -4 37.464
vt -5 39.196
vt -3.5308 37.6956
vt -4.2962 39.5434
vt -3.0352 37.8636
vt -3.5528 39.7954
vt -2.522 37.9656
vt -2.783 39.9484
vt -2 38
vt -2 40
vt -1.478 37.9656
vt -1.217 39.9484
vt -0.9647999 37.8636
vt -0.4471998 39.7954
vt -0.4692001 37.6956
vt 0.2962 39.5434
vt 0 37.464
vt 1 39.196
vt 0.4352 37.1736
vt 1.6528 38.7604
vt 0.8283999 36.8284
vt 2.2426 38.2426
vt 1.1736 36.4352
vt 2.7604 37.6528
vt 1.464 36
vt 3.196 37
vt 1.6956 35.5308
vt 3.5434 36.2962
vt 1.8636 35.0352
vt 3.7954 35.5528
vt 1.9656 34.522
vt 3.9484 34.783
usemtl 26
f 3/3/3 2/2/2 1/1/1
f 1/1/1 4/4/4 3/3/3
f 2/2/2 6/6/6 5/5/5
f 5/5/5 1/1/1 2/2/2
f 6/6/6 8/8/8 7/7/7
f 7/7/7 5/5/5 6/6/6
f 8/8/8 3/3/3 4/4/4
f 4/4/4 7/7/7 8/8/8
f 9/9/9 10/10/10 11/11/11
f 11/11/11 12/12/12 9/9/9
f 13/13/13 14/14/14 15/15/15
f 15/15/15 16/16/16 13/13/13
f 17/17/17 18/18/18 19/19/19
f 19/19/19 20/20/20 17/17/17
f 21/21/21 22/22/22 23/23/23
f 23/23/23 24/24/24 21/21/21
f 25/25/25 26/26/26 27/27/27
f 27/27/27 28/28/28 25/25/25
f 31/31/31 30/30/30 29/29/29
f 29/29/29 32/32/32 31/31/31
f 35/35/35 34/34/34 33/33/33
f 33/33/33 36/36/36 35/35/35
f 39/39/39 38/38/38 37/37/37
f 37/37/37 40/40/40 39/39/39
f 43/43/43 42/42/42 41/41/41
f 41/41/41 44/44/44 43/43/43
f 47/47/47 46/46/46 45/45/45
f 45/45/45 48/48/48 47/47/47
f 49/49/49 50/50/50 51/51/51
f 51/51/51 52/52/52 49/49/49
f 53/53/53 49/49/49 52/52/52
f 52/52/52 54/54/54 53/53/53
f 55/55/55 53/53/53 54/54/54
f 54/54/54 56/56/56 55/55/55
f 57/57/57 55/55/55 56/56/56
f 56/56/56 58/58/58 57/57/57
f 59/59/59 57/57/57 58/58/58
f 58/58/58 60/60/60 59/59/59
f 61/61/61 59/59/59 60/60/60
f 60/60/60 62/62/62 61/61/61
f 63/63/63 61/61/61 62/62/62
f 62/62/62 64/64/64 63/63/63
f 65/65/65 63/63/63 64/64/64
f 64/64/64 66/66/66 65/65/65
f 67/67/67 65/65/65 66/66/66
f 66/66/66 68/68/68 67/67/67
f 69/69/69 67/67/67 68/68/68
f 68/68/68 70/70/70 69/69/69
f 71/71/71 69/69/69 70/70/70
f 70/70/70 72/72/72 71/71/71
f 73/73/73 71/71/71 72/72/72
f 72/72/72 74/74/74 73/73/73
f 75/75/75 73/73/73 74/74/74
f 74/74/74 76/76/76 75/75/75
f 77/77/77 75/75/75 76/76/76
f 76/76/76 78/78/78 77/77/77
f 79/79/79 77/77/77 78/78/78
f 78/78/78 80/80/80 79/79/79
f 81/81/81 79/79/79 80/80/80
f 80/80/80 82/82/82 81/81/81
f 83/83/83 81/81/81 82/82/82
f 82/82/82 84/84/84 83/83/83
f 85/85/85 83/83/83 84/84/84
f 84/84/84 86/86/86 85/85/85
f 87/87/87 85/85/85 86/86/86
f 86/86/86 88/88/88 87/87/87
f 89/89/89 87/87/87 88/88/88
f 88/88/88 90/90/90 89/89/89
f 91/91/91 89/89/89 90/90/90
f 90/90/90 92/92/92 91/91/91
f 93/93/93 91/91/91 92/92/92
f 92/92/92 94/94/94 93/93/93
f 95/95/95 93/93/93 94/94/94
f 94/94/94 96/96/96 95/95/95
f 97/97/97 95/95/95 96/96/96
f 96/96/96 98/98/98 97/97/97
f 99/99/99 97/97/97 98/98/98
f 98/98/98 100/100/100 99/99/99
f 101/101/101 99/99/99 100/100/100
f 100/100/100 102/102/102 101/101/101
f 103/103/103 101/101/101 102/102/102
f 102/102/102 104/104/104 103/103/103
f 105/105/105 103/103/103 104/104/104
f 104/104/104 106/106/106 105/105/105
f 107/107/107 105/105/105 106/106/106
f 106/106/106 108/108/108 107/107/107
f 109/109/109 107/107/107 108/108/108
f 108/108/108 110/110/110 109/109/109
f 111/111/111 109/109/109 110/110/110
f 110/110/110 112/112/112 111/111/111
f 113/113/113 111/111/111 112/112/112
f 112/112/112 114/114/114 113/113/113
f 115/115/115 113/113/113 114/114/114
f 114/114/114 116/116/116 115/115/115
f 117/117/117 115/115/115 116/116/116
f 116/116/116 118/118/118 117/117/117
f 119/119/119 117/117/117 118/118/118
f 118/118/118 120/120/120 119/119/119
f 121/121/121 119/119/119 120/120/120
f 120/120/120 122/122/122 121/121/121
f 123/123/123 121/121/121 122/122/122
f 122/122/122 124/124/124 123/123/123
f 125/125/125 123/123/123 124/124/124
f 124/124/124 126/126/126 125/125/125
f 127/127/127 125/125/125 126/126/126
f 126/126/126 128/128/128 127/127/127
f 129/129/129 127/127/127 128/128/128
f 128/128/128 130/130/130 129/129/129
f 131/131/131 129/129/129 130/130/130
f 130/130/130 132/132/132 131/131/131
f 133/133/133 131/131/131 132/132/132
f 132/132/132 134/134/134 133/133/133
f 135/135/135 133/133/133 134/134/134
f 134/134/134 136/136/136 135/135/135
f 137/137/137 135/135/135 136/136/136
f 136/136/136 138/138/138 137/137/137
f 139/139/139 137/137/137 138/138/138
f 138/138/138 140/140/140 139/139/139
f 141/141/141 139/139/139 140/140/140
f 140/140/140 142/142/142 141/141/141
f 143/143/143 141/141/141 142/142/142
f 142/142/142 144/144/144 143/143/143
f 50/50/50 143/143/143 144/144/144
f 144/144/144 51/51/51 50/50/50
f 147/147/147 146/146/146 145/145/145
f 147/147/147 145/145/145 148/148/148
f 147/147/147 148/148/148 149/149/149
f 147/147/147 149/149/149 150/150/150
f 147/147/147 150/150/150 151/151/151
f 147/147/147 151/151/151 152/152/152
f 147/147/147 152/152/152 153/153/153
f 147/147/147 153/153/153 154/154/154
f 147/147/147 154/154/154 155/155/155
f 147/147/147 155/155/155 156/156/156
f 147/147/147 156/156/156 157/157/157
f 147/147/147 157/157/157 158/158/158
f 147/147/147 158/158/158 159/159/159
f 147/147/147 159/159/159 160/160/160
f 147/147/147 160/160/160 161/161/161
f 147/147/147 161/161/161 162/162/162
f 147/147/147 162/162/162 163/163/163
f 147/147/147 163/163/163 164/164/164
f 147/147/147 164/164/164 165/165/165
f 147/147/147 165/165/165 166/166/166
f 147/147/147 166/166/166 167/167/167
f 147/147/147 167/167/167 168/168/168
f 147/147/147 168/168/168 169/169/169
f 147/147/147 169/169/169 170/170/170
f 147/147/147 170/170/170 171/171/171
f 147/147/147 171/171/171 172/172/172
f 147/147/147 172/172/172 173/173/173
f 147/147/147 173/173/173 174/174/174
f 147/147/147 174/174/174 175/175/175
f 147/147/147 175/175/175 176/176/176
f 147/147/147 176/176/176 177/177/177
f 147/147/147 177/177/177 178/178/178
f 147/147/147 178/178/178 179/179/179
f 147/147/147 179/179/179 180/180/180
f 147/147/147 180/180/180 181/181/181
f 147/147/147 181/181/181 182/182/182
f 147/147/147 182/182/182 183/183/183
f 147/147/147 183/183/183 184/184/184
f 147/147/147 184/184/184 185/185/185
f 147/147/147 185/185/185 186/186/186
f 147/147/147 186/186/186 187/187/187
f 147/147/147 187/187/187 188/188/188
f 147/147/147 188/188/188 189/189/189
f 147/147/147 189/189/189 190/190/190
f 147/147/147 190/190/190 191/191/191
f 147/147/147 191/191/191 192/192/192
f 147/147/147 192/192/192 193/193/193
f 147/147/147 193/193/193 146/146/146
f 194/194/194 195/195/195 196/196/196
f 196/196/196 197/197/197 194/194/194
f 198/198/198 194/194/194 197/197/197
f 197/197/197 199/199/199 198/198/198
f 200/200/200 198/198/198 199/199/199
f 199/199/199 201/201/201 200/200/200
f 202/202/202 200/200/200 201/201/201
f 201/201/201 203/203/203 202/202/202
f 204/204/204 202/202/202 203/203/203
f 203/203/203 205/205/205 204/204/204
f 206/206/206 204/204/204 205/205/205
f 205/205/205 207/207/207 206/206/206
f 208/208/208 206/206/206 207/207/207
f 207/207/207 209/209/209 208/208/208
f 210/210/210 208/208/208 209/209/209
f 209/209/209 211/211/211 210/210/210
f 212/212/212 210/210/210 211/211/211
f 211/211/211 213/213/213 212/212/212
f 214/214/214 212/212/212 213/213/213
f 213/213/213 215/215/215 214/214/214
f 216/216/216 214/214/214 215/215/215
f 215/215/215 217/217/217 216/216/216
f 218/218/218 216/216/216 217/217/217
f 217/217/217 219/219/219 218/218/218
f 220/220/220 218/218/218 219/219/219
f 219/219/219 221/221/221 220/220/220
f 222/222/222 220/220/220 221/221/221
f 221/221/221 223/223/223 222/222/222
f 224/224/224 222/222/222 223/223/223
f 223/223/223 225/225/225 224/224/224
f 226/226/226 224/224/224 225/225/225
f 225/225/225 227/227/227 226/226/226
f 228/228/228 226/226/226 227/227/227
f 227/227/227 229/229/229 228/228/228
f 230/230/230 228/228/228 229/229/229
f 229/229/229 231/231/231 230/230/230
f 232/232/232 230/230/230 231/231/231
f 231/231/231 233/233/233 232/232/232
f 234/234/234 232/232/232 233/233/233
f 233/233/233 235/235/235 234/234/234
f 236/236/236 234/234/234 235/235/235
f 235/235/235 237/237/237 236/236/236
f 238/238/238 236/236/236 237/237/237
f 237/237/237 239/239/239 238/238/238
f 240/240/240 238/238/238 239/239/239
f 239/239/239 241/241/241 240/240/240
f 242/242/242 240/240/240 241/241/241
f 241/241/241 243/243/243 242/242/242
f 244/244/244 242/242/242 243/243/243
f 243/243/243 245/245/245 244/244/244
f 246/246/246 244/244/244 245/245/245
f 245/245/245 247/247/247 246/246/246
f 248/248/248 246/246/246 247/247/247
f 247/247/247 249/249/249 248/248/248
f 250/250/250 248/248/248 249/249/249
f 249/249/249 251/251/251 250/250/250
f 252/252/252 250/250/250 251/251/251
f 251/251/251 253/253/253 252/252/252
f 254/254/254 252/252/252 253/253/253
f 253/253/253 255/255/255 254/254/254
f 256/256/256 254/254/254 255/255/255
f 255/255/255 257/257/257 256/256/256
f 258/258/258 256/256/256 257/257/257
f 257/257/257 259/259/259 258/258/258
f 260/260/260 258/258/258 259/259/259
f 259/259/259 261/261/261 260/260/260
f 262/262/262 260/260/260 261/261/261
f 261/261/261 263/263/263 262/262/262
f 264/264/264 262/262/262 263/263/263
f 263/263/263 265/265/265 264/264/264
f 266/266/266 264/264/264 265/265/265
f 265/265/265 267/267/267 266/266/266
f 268/268/268 266/266/266 267/267/267
f 267/267/267 269/269/269 268/268/268
f 270/270/270 268/268/268 269/269/269
f 269/269/269 271/271/271 270/270/270
f 272/272/272 270/270/270 271/271/271
f 271/271/271 273/273/273 272/272/272
f 274/274/274 272/272/272 273/273/273
f 273/273/273 275/275/275 274/274/274
f 276/276/276 274/274/274 275/275/275
f 275/275/275 277/277/277 276/276/276
f 278/278/278 276/276/276 277/277/277
f 277/277/277 279/279/279 278/278/278
f 280/280/280 278/278/278 279/279/279
f 279/279/279 281/281/281 280/280/280
f 282/282/282 280/280/280 281/281/281
f 281/281/281 283/283/283 282/282/282
f 284/284/284 282/282/282 283/283/283
f 283/283/283 285/285/285 284/284/284
f 286/286/286 284/284/284 285/285/285
f 285/285/285 287/287/287 286/286/286
f 288/288/288 286/286/286 287/287/287
f 287/287/287 289/289/289 288/288/288
f 195/195/195 288/288/288 289/289/289
f 289/289/289 196/196/196 195/195/195
f 292/292/292 291/291/291 290/290/290
f 290/290/290 293/293/293 292/292/292
f 293/293/293 290/290/290 294/294/294
f 294/294/294 295/295/295 293/293/293
f 295/295/295 294/294/294 296/296/296
f 296/296/296 297/297/297 295/295/295
f 297/297/297 296/296/296 298/298/298
f 298/298/298 299/299/299 297/297/297
f 299/299/299 298/298/298 300/300/300
f 300/300/300 301/301/301 299/299/299
f 301/301/301 300/300/300 302/302/302
f 302/302/302 303/303/303 301/301/301
f 303/303/303 302/302/302 304/304/304
f 304/304/304 305/305/305 303/303/303
f 305/305/305 304/304/304 306/306/306
f 306/306/306 307/307/307 305/305/305
f 307/307/307 306/306/306 308/308/308
f 308/308/308 309/309/309 307/307/307
f 309/309/309 308/308/308 310/310/310
f 310/310/310 311/311/311 309/309/309
f 311/311/311 310/310/310 312/312/312
f 312/312/312 313/313/313 311/311/311
f 313/313/313 312/312/312 314/314/314
f 314/314/314 315/315/315 313/313/313
f 315/315/315 314/314/314 316/316/316
f 316/316/316 317/317/317 315/315/315
f 317/317/317 316/316/316 318/318/318
f 318/318/318 319/319/319 317/317/317
f 319/319/319 318/318/318 320/320/320
f 320/320/320 321/321/321 319/319/319
f 321/321/321 320/320/320 322/322/322
f 322/322/322 323/323/323 321/321/321
f 323/323/323 322/322/322 324/324/324
f 324/324/324 325/325/325 323/323/323
f 325/325/325 324/324/324 326/326/326
f 326/326/326 327/327/327 325/325/325
f 327/327/327 326/326/326 328/328/328
f 328/328/328 329/329/329 327/327/327
f 329/329/329 328/328/328 330/330/330
f 330/330/330 331/331/331 329/329/329
f 331/331/331 330/330/330 332/332/332
f 332/332/332 333/333/333 331/331/331
f 333/333/333 332/332/332 334/334/334
f 334/334/334 335/335/335 333/333/333
f 335/335/335 334/334/334 336/336/336
f 336/336/336 337/337/337 335/335/335
f 337/337/337 336/336/336 338/338/338
f 338/338/338 339/339/339 337/337/337
f 339/339/339 338/338/338 340/340/340
f 340/340/340 341/341/341 339/339/339
f 341/341/341 340/340/340 342/342/342
f 342/342/342 343/343/343 341/341/341
f 343/343/343 342/342/342 344/344/344
f 344/344/344 345/345/345 343/343/343
f 345/345/345 344/344/344 346/346/346
f 346/346/346 347/347/347 345/345/345
f 347/347/347 346/346/346 348/348/348
f 348/348/348 349/349/349 347/347/347
f 349/349/349 348/348/348 350/350/350
f 350/350/350 351/351/351 349/349/349
f 351/351/351 350/350/350 352/352/352
f 352/352/352 353/353/353 351/351/351
f 353/353/353 352/352/352 354/354/354
f 354/354/354 355/355/355 353/353/353
f 355/355/355 354/354/354 356/356/356
f 356/356/356 357/357/357 355/355/355
f 357/357/357 356/356/356 358/358/358
f 358/358/358 359/359/359 357/357/357
f 359/359/359 358/358/358 360/360/360
f 360/360/360 361/361/361 359/359/359
f 361/361/361 360/360/360 362/362/362
f 362/362/362 363/363/363 361/361/361
f 363/363/363 362/362/362 364/364/364
f 364/364/364 365/365/365 363/363/363
f 365/365/365 364/364/364 366/366/366
f 366/366/366 367/367/367 365/365/365
f 367/367/367 366/366/366 368/368/368
f 368/368/368 369/369/369 367/367/367
f 369/369/369 368/368/368 370/370/370
f 370/370/370 371/371/371 369/369/369
f 371/371/371 370/370/370 372/372/372
f 372/372/372 373/373/373 371/371/371
f 373/373/373 372/372/372 374/374/374
f 374/374/374 375/375/375 373/373/373
f 375/375/375 374/374/374 376/376/376
f 376/376/376 377/377/377 375/375/375
f 377/377/377 376/376/376 378/378/378
f 378/378/378 379/379/379 377/377/377
f 379/379/379 378/378/378 380/380/380
f 380/380/380 381/381/381 379/379/379
f 381/381/381 380/380/380 382/382/382
f 382/382/382 383/383/383 381/381/381
f 383/383/383 382/382/382 384/384/384
f 384/384/384 385/385/385 383/383/383
f 385/385/385 384/384/384 291/291/291
f 291/291/291 292/292/292 385/385/385
f 388/388/388 387/387/387 386/386/386
f 386/386/386 389/389/389 388/388/388
f 391/391/391 390/390/390 387/387/387
f 387/387/387 388/388/388 391/391/391
f 393/393/393 392/392/392 390/390/390
f 390/390/390 391/391/391 393/393/393
f 395/395/395 394/394/394 392/392/392
f 392/392/392 393/393/393 395/395/395
f 397/397/397 396/396/396 394/394/394
f 394/394/394 395/395/395 397/397/397
f 399/399/399 398/398/398 396/396/396
f 396/396/396 397/397/397 399/399/399
f 401/401/401 400/400/400 398/398/398
f 398/398/398 399/399/399 401/401/401
f 403/403/403 402/402/402 400/400/400
f 400/400/400 401/401/401 403/403/403
f 405/405/405 404/404/404 402/402/402
f 402/402/402 403/403/403 405/405/405
f 407/407/407 406/406/406 404/404/404
f 404/404/404 405/405/405 407/407/407
f 409/409/409 408/408/408 406/406/406
f 406/406/406 407/407/407 409/409/409
f 411/411/411 410/410/410 408/408/408
f 408/408/408 409/409/409 411/411/411
f 413/413/413 412/412/412 410/410/410
f 410/410/410 411/411/411 413/413/413
f 415/415/415 414/414/414 412/412/412
f 412/412/412 413/413/413 415/415/415
f 417/417/417 416/416/416 414/414/414
f 414/414/414 415/415/415 417/417/417
f 419/419/419 418/418/418 416/416/416
f 416/416/416 417/417/417 419/419/419
f 421/421/421 420/420/420 418/418/418
f 418/418/418 419/419/419 421/421/421
f 423/423/423 422/422/422 420/420/420
f 420/420/420 421/421/421 423/423/423
f 425/425/425 424/424/424 422/422/422
f 422/422/422 423/423/423 425/425/425
f 427/427/427 426/426/426 424/424/424
f 424/424/424 425/425/425 427/427/427
f 429/429/429 428/428/428 426/426/426
f 426/426/426 427/427/427 429/429/429
f 431/431/431 430/430/430 428/428/428
f 428/428/428 429/429/429 431/431/431
f 433/433/433 432/432/432 430/430/430
f 430/430/430 431/431/431 433/433/433
f 435/435/435 434/434/434 432/432/432
f 432/432/432 433/433/433 435/435/435
f 437/437/437 436/436/436 434/434/434
f 434/434/434 435/435/435 437/437/437
f 439/439/439 438/438/438 436/436/436
f 436/436/436 437/437/437 439/439/439
f 441/441/441 440/440/440 438/438/438
f 438/438/438 439/439/439 441/441/441
f 443/443/443 442/442/442 440/440/440
f 440/440/440 441/441/441 443/443/443
f 445/445/445 444/444/444 442/442/442
f 442/442/442 443/443/443 445/445/445
f 447/447/447 446/446/446 444/444/444
f 444/444/444 445/445/445 447/447/447
f 449/449/449 448/448/448 446/446/446
f 446/446/446 447/447/447 449/449/449
f 451/451/451 450/450/450 448/448/448
f 448/448/448 449/449/449 451/451/451
f 453/453/453 452/452/452 450/450/450
f 450/450/450 451/451/451 453/453/453
f 455/455/455 454/454/454 452/452/452
f 452/452/452 453/453/453 455/455/455
f 457/457/457 456/456/456 454/454/454
f 454/454/454 455/455/455 457/457/457
f 459/459/459 458/458/458 456/456/456
f 456/456/456 457/457/457 459/459/459
f 461/461/461 460/460/460 458/458/458
f 458/458/458 459/459/459 461/461/461
f 463/463/463 462/462/462 460/460/460
f 460/460/460 461/461/461 463/463/463
f 465/465/465 464/464/464 462/462/462
f 462/462/462 463/463/463 465/465/465
f 467/467/467 466/466/466 464/464/464
f 464/464/464 465/465/465 467/467/467
f 469/469/469 468/468/468 466/466/466
f 466/466/466 467/467/467 469/469/469
f 471/471/471 470/470/470 468/468/468
f 468/468/468 469/469/469 471/471/471
f 473/473/473 472/472/472 470/470/470
f 470/470/470 471/471/471 473/473/473
f 475/475/475 474/474/474 472/472/472
f 472/472/472 473/473/473 475/475/475
f 477/477/477 476/476/476 474/474/474
f 474/474/474 475/475/475 477/477/477
f 479/479/479 478/478/478 476/476/476
f 476/476/476 477/477/477 479/479/479
f 481/481/481 480/480/480 478/478/478
f 478/478/478 479/479/479 481/481/481
f 389/389/389 386/386/386 480/480/480
f 480/480/480 481/481/481 389/389/389
