mtllib plate_modified2*2_with_groove_and_1_stud_in_center(jumper)_trans_brown.mtl
v -4.067523E-06 23.9656 -0.521998
v -3.576279E-06 24 2.098151E-06
v -4.000004 24 6.098151E-06
v -4.000005 23.9656 -0.5219941
v -4.489528E-06 23.8636 -1.035198
v -4.000005 23.8636 -1.035194
v -4.834924E-06 23.6956 -1.530798
v -4.000005 23.6956 -1.530794
v -5.097058E-06 23.464 -1.999998
v -4.000006 23.464 -1.999994
v -5.27262E-06 23.1736 -2.435199
v -4.000006 23.1736 -2.435194
v -5.357187E-06 22.8284 -2.828398
v -4.000006 22.8284 -2.828395
v -5.350839E-06 22.4352 -3.173599
v -4.000006 22.4352 -3.173595
v -5.25214E-06 22 -3.463999
v -4.000006 22 -3.463995
v -5.064242E-06 21.5308 -3.695599
v -4.000006 21.5308 -3.695595
v -4.789141E-06 21.0352 -3.863599
v -4.000005 21.0352 -3.863595
v -4.432305E-06 20.52201 -3.965599
v -4.000005 20.522 -3.965595
v -4E-06 20 -3.999999
v -4.000004 20 -3.999995
v -3.498896E-06 19.478 -3.965599
v -4.000004 19.478 -3.965595
v -2.938059E-06 18.9648 -3.863599
v -4.000003 18.9648 -3.863595
v -2.326959E-06 18.4692 -3.695599
v -4.000003 18.4692 -3.695595
v -1.675861E-06 18 -3.463999
v -4.000002 18 -3.463995
v -9.963619E-07 17.5648 -3.173599
v -4.000001 17.5648 -3.173595
v -2.996136E-07 17.1716 -2.828399
v -4.000001 17.1716 -2.828395
v 4.022192E-07 16.8264 -2.435199
v -4 16.8264 -2.435195
v 1.097057E-06 16.536 -1.999999
v -3.999999 16.536 -1.999995
v 1.773324E-06 16.3044 -1.530799
v -3.999999 16.3044 -1.530795
v 2.419127E-06 16.1364 -1.035199
v -3.999998 16.1364 -1.035195
v 3.023523E-06 16.0344 -0.5219988
v -3.999997 16.0344 -0.5219947
v 3.576279E-06 16 1.398761E-06
v -3.999997 16 5.398761E-06
v 4.067523E-06 16.0344 0.5220016
v -3.999996 16.0344 0.5220056
v 4.489528E-06 16.1364 1.035202
v -3.999996 16.1364 1.035206
v 4.834924E-06 16.3044 1.530802
v -3.999996 16.3044 1.530806
v 5.097058E-06 16.536 2.000002
v -3.999995 16.536 2.000006
v 5.27262E-06 16.8264 2.435202
v -3.999995 16.8264 2.435206
v 5.357187E-06 17.1716 2.828402
v -3.999995 17.1716 2.828406
v 5.350839E-06 17.5648 3.173602
v -3.999995 17.5648 3.173606
v 5.25214E-06 18 3.464002
v -3.999995 18 3.464006
v 5.064242E-06 18.4692 3.695602
v -3.999995 18.4692 3.695606
v 4.789141E-06 18.9648 3.863603
v -3.999996 18.9648 3.863607
v 4.432305E-06 19.478 3.965603
v -3.999996 19.478 3.965607
v 4E-06 20 4.000003
v -3.999996 20 4.000007
v 3.498896E-06 20.522 3.965603
v -3.999997 20.522 3.965607
v 2.938059E-06 21.0352 3.863603
v -3.999998 21.0352 3.863607
v 2.326959E-06 21.5308 3.695603
v -3.999998 21.5308 3.695607
v 1.675861E-06 22 3.464003
v -3.999999 22 3.464007
v 9.963619E-07 22.4352 3.173603
v -4 22.4352 3.173607
v 2.996136E-07 22.8284 2.828403
v -4 22.8284 2.828407
v -4.022192E-07 23.1736 2.435203
v -4.000001 23.1736 2.435207
v -1.097057E-06 23.464 2.000003
v -4.000001 23.464 2.000006
v -1.773324E-06 23.6956 1.530802
v -4.000002 23.6956 1.530806
v -2.419127E-06 23.8636 1.035202
v -4.000003 23.8636 1.035206
v -3.023523E-06 23.9656 0.5220022
v -4.000003 23.9656 0.5220062
v -6.101284E-06 25.9484 -0.7829979
v -5.364418E-06 26 2.272998E-06
v -4.000006 26 6.272998E-06
v -4.000007 25.9484 -0.7829939
v -6.734292E-06 25.7954 -1.552798
v -4.000007 25.7954 -1.552794
v -7.252386E-06 25.5434 -2.296198
v -4.000008 25.5434 -2.296194
v -7.645586E-06 25.196 -2.999999
v -4.000008 25.196 -2.999995
v -7.90893E-06 24.7604 -3.652799
v -4.000009 24.7604 -3.652795
v -8.03578E-06 24.24261 -4.242599
v -4.000009 24.2426 -4.242595
v -8.026258E-06 23.65281 -4.760399
v -4.000009 23.6528 -4.760395
v -7.87821E-06 23 -5.195999
v -4.000009 23 -5.195995
v -7.596363E-06 22.29621 -5.543399
v -4.000008 22.2962 -5.543395
v -7.183712E-06 21.5528 -5.7954
v -4.000008 21.5528 -5.795396
v -6.648457E-06 20.783 -5.9484
v -4.000007 20.783 -5.948396
v -6.000001E-06 20 -6
v -4.000007 20 -5.999996
v -5.248344E-06 19.217 -5.9484
v -4.000006 19.217 -5.948396
v -4.407089E-06 18.4472 -5.7954
v -4.000005 18.4472 -5.795396
v -3.490438E-06 17.7038 -5.5434
v -4.000004 17.7038 -5.543396
v -2.513792E-06 17 -5.196
v -4.000003 17 -5.195996
v -1.494543E-06 16.3472 -4.760399
v -4.000002 16.3472 -4.760396
v -4.494205E-07 15.7574 -4.242599
v -4.000001 15.7574 -4.242596
v 6.033286E-07 15.2396 -3.6528
v -4 15.2396 -3.652796
v 1.645586E-06 14.804 -3
v -3.999999 14.804 -2.999995
v 2.659985E-06 14.4566 -2.296199
v -3.999998 14.4566 -2.296195
v 3.628692E-06 14.2046 -1.552799
v -3.999997 14.2046 -1.552795
v 4.535284E-06 14.0516 -0.782999
v -3.999996 14.0516 -0.7829949
v 5.364418E-06 14 1.223913E-06
v -3.999995 14 5.223913E-06
v 6.101284E-06 14.0516 0.7830014
v -3.999994 14.0516 0.7830054
v 6.734292E-06 14.2046 1.552802
v -3.999994 14.2046 1.552806
v 7.252386E-06 14.4566 2.296202
v -3.999993 14.4566 2.296206
v 7.645586E-06 14.804 3.000002
v -3.999993 14.804 3.000006
v 7.90893E-06 15.2396 3.652802
v -3.999993 15.2396 3.652806
v 8.03578E-06 15.7574 4.242602
v -3.999992 15.7574 4.242606
v 8.026258E-06 16.3472 4.760402
v -3.999992 16.3472 4.760406
v 7.87821E-06 17 5.196003
v -3.999993 17 5.196007
v 7.596363E-06 17.7038 5.543403
v -3.999993 17.7038 5.543406
v 7.183712E-06 18.4472 5.795403
v -3.999993 18.4472 5.795407
v 6.648457E-06 19.217 5.948403
v -3.999994 19.217 5.948407
v 6.000001E-06 20 6.000003
v -3.999995 20 6.000007
v 5.248344E-06 20.783 5.948403
v -3.999995 20.783 5.948407
v 4.407089E-06 21.5528 5.795403
v -3.999996 21.5528 5.795407
v 3.490438E-06 22.2962 5.543403
v -3.999997 22.2962 5.543407
v 2.513792E-06 23 5.196003
v -3.999998 23 5.196007
v 1.494543E-06 23.6528 4.760403
v -3.999999 23.6528 4.760407
v 4.494205E-07 24.2426 4.242603
v -4 24.2426 4.242607
v -6.033286E-07 24.7604 3.652803
v -4.000001 24.7604 3.652807
v -1.645586E-06 25.196 3.000003
v -4.000002 25.196 3.000007
v -2.659985E-06 25.5434 2.296203
v -4.000003 25.5434 2.296207
v -3.628692E-06 25.7954 1.552803
v -4.000004 25.7954 1.552807
v -4.535284E-06 25.9484 0.7830024
v -4.000005 25.9484 0.7830064
v -4.000004 24 6.098151E-06
v -4.000005 23.9656 -0.5219941
v -4.000007 25.9484 -0.7829939
v -4.000006 26 6.272998E-06
v -4.000005 23.8636 -1.035194
v -4.000007 25.7954 -1.552794
v -4.000005 23.6956 -1.530794
v -4.000008 25.5434 -2.296194
v -4.000006 23.464 -1.999994
v -4.000008 25.196 -2.999995
v -4.000006 23.1736 -2.435194
v -4.000009 24.7604 -3.652795
v -4.000006 22.8284 -2.828395
v -4.000009 24.2426 -4.242595
v -4.000006 22.4352 -3.173595
v -4.000009 23.6528 -4.760395
v -4.000006 22 -3.463995
v -4.000009 23 -5.195995
v -4.000006 21.5308 -3.695595
v -4.000008 22.2962 -5.543395
v -4.000005 21.0352 -3.863595
v -4.000008 21.5528 -5.795396
v -4.000005 20.522 -3.965595
v -4.000007 20.783 -5.948396
v -4.000004 20 -3.999995
v -4.000007 20 -5.999996
v -4.000004 19.478 -3.965595
v -4.000006 19.217 -5.948396
v -4.000003 18.9648 -3.863595
v -4.000005 18.4472 -5.795396
v -4.000003 18.4692 -3.695595
v -4.000004 17.7038 -5.543396
v -4.000002 18 -3.463995
v -4.000003 17 -5.195996
v -4.000001 17.5648 -3.173595
v -4.000002 16.3472 -4.760396
v -4.000001 17.1716 -2.828395
v -4.000001 15.7574 -4.242596
v -4 16.8264 -2.435195
v -4 15.2396 -3.652796
v -3.999999 16.536 -1.999995
v -3.999999 14.804 -2.999995
v -3.999999 16.3044 -1.530795
v -3.999998 14.4566 -2.296195
v -3.999998 16.1364 -1.035195
v -3.999997 14.2046 -1.552795
v -3.999997 16.0344 -0.5219947
v -3.999996 14.0516 -0.7829949
v -3.999997 16 5.398761E-06
v -3.999995 14 5.223913E-06
v -3.999996 16.0344 0.5220056
v -3.999994 14.0516 0.7830054
v -3.999996 16.1364 1.035206
v -3.999994 14.2046 1.552806
v -3.999996 16.3044 1.530806
v -3.999993 14.4566 2.296206
v -3.999995 16.536 2.000006
v -3.999993 14.804 3.000006
v -3.999995 16.8264 2.435206
v -3.999993 15.2396 3.652806
v -3.999995 17.1716 2.828406
v -3.999992 15.7574 4.242606
v -3.999995 17.5648 3.173606
v -3.999992 16.3472 4.760406
v -3.999995 18 3.464006
v -3.999993 17 5.196007
v -3.999995 18.4692 3.695606
v -3.999993 17.7038 5.543406
v -3.999996 18.9648 3.863607
v -3.999993 18.4472 5.795407
v -3.999996 19.478 3.965607
v -3.999994 19.217 5.948407
v -3.999996 20 4.000007
v -3.999995 20 6.000007
v -3.999997 20.522 3.965607
v -3.999995 20.783 5.948407
v -3.999998 21.0352 3.863607
v -3.999996 21.5528 5.795407
v -3.999998 21.5308 3.695607
v -3.999997 22.2962 5.543407
v -3.999999 22 3.464007
v -3.999998 23 5.196007
v -4 22.4352 3.173607
v -3.999999 23.6528 4.760407
v -4 22.8284 2.828407
v -4 24.2426 4.242607
v -4.000001 23.1736 2.435207
v -4.000001 24.7604 3.652807
v -4.000001 23.464 2.000006
v -4.000002 25.196 3.000007
v -4.000002 23.6956 1.530806
v -4.000003 25.5434 2.296207
v -4.000003 23.8636 1.035206
v -4.000004 25.7954 1.552807
v -4.000003 23.9656 0.5220062
v -4.000005 25.9484 0.7830064
v 3.999994 25.94841 -0.7830019
v 3.999995 26.00001 -1.727002E-06
v 7.999996 26.00001 -5.727002E-06
v 7.999995 25.94841 -0.7830059
v 3.999994 25.79541 -1.552802
v 7.999994 25.79541 -1.552806
v 3.999993 25.54341 -2.296202
v 7.999994 25.54341 -2.296206
v 3.999993 25.19601 -3.000003
v 7.999993 25.19601 -3.000006
v 3.999993 24.76041 -3.652803
v 7.999993 24.76041 -3.652807
v 3.999992 24.24261 -4.242603
v 7.999993 24.24261 -4.242607
v 3.999992 23.65281 -4.760403
v 7.999993 23.65281 -4.760407
v 3.999993 23.00001 -5.196003
v 7.999993 23.00001 -5.196007
v 3.999993 22.29621 -5.543403
v 7.999993 22.29622 -5.543407
v 3.999993 21.55281 -5.795403
v 7.999994 21.55281 -5.795408
v 3.999994 20.78301 -5.948404
v 7.999994 20.78301 -5.948408
v 3.999995 20.00001 -6.000004
v 7.999995 20.00001 -6.000008
v 3.999995 19.21701 -5.948404
v 7.999996 19.21701 -5.948408
v 3.999996 18.44721 -5.795404
v 7.999997 18.44721 -5.795408
v 3.999997 17.70381 -5.543404
v 7.999998 17.70381 -5.543407
v 3.999998 17.00001 -5.196004
v 7.999999 17.00001 -5.196008
v 3.999999 16.34721 -4.760404
v 8 16.34721 -4.760407
v 4 15.75741 -4.242604
v 8.000001 15.75741 -4.242608
v 4.000001 15.23961 -3.652804
v 8.000002 15.23961 -3.652808
v 4.000002 14.80401 -3.000003
v 8.000003 14.80401 -3.000007
v 4.000003 14.45661 -2.296203
v 8.000004 14.45661 -2.296207
v 4.000004 14.20461 -1.552803
v 8.000005 14.20461 -1.552807
v 4.000005 14.05161 -0.783003
v 8.000006 14.05161 -0.783007
v 4.000006 14.00001 -2.776087E-06
v 8.000007 14.00001 -6.776087E-06
v 4.000007 14.05161 0.7829974
v 8.000007 14.05161 0.7829934
v 4.000007 14.20461 1.552798
v 8.000008 14.20461 1.552794
v 4.000008 14.45661 2.296198
v 8.000009 14.45661 2.296194
v 4.000008 14.80401 2.999998
v 8.000009 14.80401 2.999994
v 4.000009 15.23961 3.652798
v 8.000009 15.23961 3.652794
v 4.000009 15.75741 4.242599
v 8.000009 15.75741 4.242594
v 4.000009 16.34721 4.760398
v 8.000009 16.34721 4.760395
v 4.000009 17.00001 5.195999
v 8.000009 17.00001 5.195995
v 4.000008 17.70381 5.543399
v 8.000009 17.70381 5.543395
v 4.000008 18.44721 5.795399
v 8.000009 18.44721 5.795395
v 4.000007 19.21701 5.948399
v 8.000008 19.21701 5.948395
v 4.000007 20.00001 5.999999
v 8.000007 20.00001 5.999995
v 4.000006 20.78301 5.948399
v 8.000007 20.78301 5.948395
v 4.000005 21.55281 5.795399
v 8.000006 21.55281 5.795395
v 4.000004 22.29621 5.543399
v 8.000005 22.29621 5.543395
v 4.000003 23.00001 5.195999
v 8.000004 23.00001 5.195995
v 4.000002 23.65281 4.760399
v 8.000003 23.65281 4.760395
v 4.000001 24.24261 4.242599
v 8.000001 24.24261 4.242595
v 4 24.76041 3.652799
v 8 24.76041 3.652795
v 3.999999 25.19601 2.999999
v 8 25.19601 2.999995
v 3.999998 25.54341 2.296199
v 7.999998 25.54341 2.296195
v 3.999997 25.79541 1.552799
v 7.999997 25.79541 1.552795
v 3.999996 25.94841 0.7829984
v 7.999996 25.94841 0.7829944
v 3.999992 27.93121 -1.044002
v 3.999993 28.00001 -1.552154E-06
v 7.999994 28.00002 -5.552154E-06
v 7.999993 27.93122 -1.044006
v 3.999991 27.72721 -2.070402
v 7.999992 27.72721 -2.070406
v 3.999991 27.39121 -3.061602
v 7.999991 27.39121 -3.061606
v 3.99999 26.92801 -4.000002
v 7.999991 26.92801 -4.000007
v 3.99999 26.34721 -4.870403
v 7.99999 26.34721 -4.870407
v 3.99999 25.65681 -5.656803
v 7.99999 25.65681 -5.656807
v 3.99999 24.87041 -6.347203
v 7.99999 24.87041 -6.347207
v 3.99999 24.00001 -6.928003
v 7.99999 24.00002 -6.928008
v 3.99999 23.06161 -7.391204
v 7.999991 23.06161 -7.391208
v 3.999991 22.07041 -7.727204
v 7.999991 22.07041 -7.727208
v 3.999992 21.04401 -7.931204
v 7.999992 21.04401 -7.931208
v 3.999992 20.00001 -8.000004
v 7.999993 20.00001 -8.000009
v 3.999994 18.95601 -7.931204
v 7.999994 18.95601 -7.931208
v 3.999995 17.92961 -7.727204
v 7.999995 17.92961 -7.727208
v 3.999996 16.93841 -7.391204
v 7.999996 16.93841 -7.391208
v 3.999997 16.00001 -6.928004
v 7.999998 16.00001 -6.928008
v 3.999999 15.12961 -6.347204
v 7.999999 15.12961 -6.347208
v 4 14.34321 -5.656804
v 8 14.34321 -5.656808
v 4.000001 13.65281 -4.870404
v 8.000002 13.65281 -4.870408
v 4.000003 13.07201 -4.000004
v 8.000003 13.07201 -4.000008
v 4.000004 12.60881 -3.061604
v 8.000005 12.60881 -3.061608
v 4.000005 12.27281 -2.070403
v 8.000006 12.27281 -2.070407
v 4.000007 12.06881 -1.044003
v 8.000007 12.06881 -1.044007
v 4.000008 12.00001 -2.950934E-06
v 8.000008 12.00001 -6.950934E-06
v 4.000009 12.06881 1.043997
v 8.00001 12.06881 1.043993
v 4.00001 12.27281 2.070398
v 8.00001 12.27281 2.070394
v 4.00001 12.60881 3.061598
v 8.00001 12.60881 3.061594
v 4.00001 13.07201 3.999998
v 8.000011 13.07201 3.999994
v 4.000011 13.65281 4.870399
v 8.000011 13.65281 4.870394
v 4.000011 14.34321 5.656798
v 8.000011 14.34321 5.656795
v 4.000011 15.12961 6.347199
v 8.000011 15.12961 6.347195
v 4.000011 16.00001 6.927999
v 8.000011 16.00001 6.927995
v 4.00001 16.93841 7.391199
v 8.000011 16.93841 7.391195
v 4.00001 17.92961 7.7272
v 8.00001 17.92961 7.727195
v 4.00001 18.95601 7.9312
v 8.00001 18.95601 7.931196
v 4.000009 20.00001 8
v 8.000009 20.00001 7.999996
v 4.000008 21.04401 7.9312
v 8.000008 21.04401 7.931196
v 4.000006 22.07041 7.7272
v 8.000007 22.07041 7.727196
v 4.000005 23.06161 7.3912
v 8.000006 23.06161 7.391196
v 4.000004 24.00001 6.927999
v 8.000005 24.00001 6.927996
v 4.000002 24.87041 6.347199
v 8.000003 24.87041 6.347196
v 4.000001 25.65681 5.656799
v 8.000002 25.65681 5.656796
v 4 26.34721 4.870399
v 8 26.34721 4.870395
v 3.999998 26.92801 3.999999
v 7.999999 26.92801 3.999995
v 3.999997 27.39121 3.061599
v 7.999998 27.39121 3.061595
v 3.999996 27.72721 2.070399
v 7.999996 27.72721 2.070395
v 3.999995 27.93121 1.043999
v 7.999995 27.93121 1.043995
v 7.999996 26.00001 -5.727002E-06
v 7.999995 25.94841 -0.7830059
v 7.999993 27.93122 -1.044006
v 7.999994 28.00002 -5.552154E-06
v 7.999994 25.79541 -1.552806
v 7.999992 27.72721 -2.070406
v 7.999994 25.54341 -2.296206
v 7.999991 27.39121 -3.061606
v 7.999993 25.19601 -3.000006
v 7.999991 26.92801 -4.000007
v 7.999993 24.76041 -3.652807
v 7.99999 26.34721 -4.870407
v 7.999993 24.24261 -4.242607
v 7.99999 25.65681 -5.656807
v 7.999993 23.65281 -4.760407
v 7.99999 24.87041 -6.347207
v 7.999993 23.00001 -5.196007
v 7.99999 24.00002 -6.928008
v 7.999993 22.29622 -5.543407
v 7.999991 23.06161 -7.391208
v 7.999994 21.55281 -5.795408
v 7.999991 22.07041 -7.727208
v 7.999994 20.78301 -5.948408
v 7.999992 21.04401 -7.931208
v 7.999995 20.00001 -6.000008
v 7.999993 20.00001 -8.000009
v 7.999996 19.21701 -5.948408
v 7.999994 18.95601 -7.931208
v 7.999997 18.44721 -5.795408
v 7.999995 17.92961 -7.727208
v 7.999998 17.70381 -5.543407
v 7.999996 16.93841 -7.391208
v 7.999999 17.00001 -5.196008
v 7.999998 16.00001 -6.928008
v 8 16.34721 -4.760407
v 7.999999 15.12961 -6.347208
v 8.000001 15.75741 -4.242608
v 8 14.34321 -5.656808
v 8.000002 15.23961 -3.652808
v 8.000002 13.65281 -4.870408
v 8.000003 14.80401 -3.000007
v 8.000003 13.07201 -4.000008
v 8.000004 14.45661 -2.296207
v 8.000005 12.60881 -3.061608
v 8.000005 14.20461 -1.552807
v 8.000006 12.27281 -2.070407
v 8.000006 14.05161 -0.783007
v 8.000007 12.06881 -1.044007
v 8.000007 14.00001 -6.776087E-06
v 8.000008 12.00001 -6.950934E-06
v 8.000007 14.05161 0.7829934
v 8.00001 12.06881 1.043993
v 8.000008 14.20461 1.552794
v 8.00001 12.27281 2.070394
v 8.000009 14.45661 2.296194
v 8.00001 12.60881 3.061594
v 8.000009 14.80401 2.999994
v 8.000011 13.07201 3.999994
v 8.000009 15.23961 3.652794
v 8.000011 13.65281 4.870394
v 8.000009 15.75741 4.242594
v 8.000011 14.34321 5.656795
v 8.000009 16.34721 4.760395
v 8.000011 15.12961 6.347195
v 8.000009 17.00001 5.195995
v 8.000011 16.00001 6.927995
v 8.000009 17.70381 5.543395
v 8.000011 16.93841 7.391195
v 8.000009 18.44721 5.795395
v 8.00001 17.92961 7.727195
v 8.000008 19.21701 5.948395
v 8.00001 18.95601 7.931196
v 8.000007 20.00001 5.999995
v 8.000009 20.00001 7.999996
v 8.000007 20.78301 5.948395
v 8.000008 21.04401 7.931196
v 8.000006 21.55281 5.795395
v 8.000007 22.07041 7.727196
v 8.000005 22.29621 5.543395
v 8.000006 23.06161 7.391196
v 8.000004 23.00001 5.195995
v 8.000005 24.00001 6.927996
v 8.000003 23.65281 4.760395
v 8.000003 24.87041 6.347196
v 8.000001 24.24261 4.242595
v 8.000002 25.65681 5.656796
v 8 24.76041 3.652795
v 8 26.34721 4.870395
v 8 25.19601 2.999995
v 7.999999 26.92801 3.999995
v 7.999998 25.54341 2.296195
v 7.999998 27.39121 3.061595
v 7.999997 25.79541 1.552795
v 7.999996 27.72721 2.070395
v 7.999996 25.94841 0.7829944
v 7.999995 27.93121 1.043995
v 4.000031 4.000005 16
v 4.000002 36.00001 16
v 3.99997 36.00001 -16
v 3.999999 4.000008 -16.00001
v 3.99997 36.00001 -16
v 7.99997 36.00002 -16.00001
v 7.999999 4.000013 -16.00001
v 3.999999 4.000008 -16.00001
v 3.999999 4.000008 -16.00001
v 7.999999 4.000013 -16.00001
v 8.000031 4.00001 16
v 4.000031 4.000005 16
v 4.000031 4.000005 16
v 8.000031 4.00001 16
v 8.000003 36.00002 16
v 4.000002 36.00001 16
v 4.000002 36.00001 16
v 8.000003 36.00002 16
v 7.99997 36.00002 -16.00001
v 3.99997 36.00001 -16
v 7.999999 1.000013 -19.00001
v 7.999999 4.000013 -16.00001
v 7.99997 36.00002 -16.00001
v 7.999965 39.00002 -19.00001
v 8.000037 1.000009 19
v 8.000031 4.00001 16
v 8.000003 39.00002 19
v 8.000003 36.00002 16
v 6.999965 39.00002 -19.00001
v 7.999965 39.00002 -19.00001
v 7.999999 1.000013 -19.00001
v 6.999999 1.000012 -19.00001
v 6.999999 1.000012 -19.00001
v 7.999999 1.000013 -19.00001
v 8.000037 1.000009 19
v 7.000037 1.000008 19
v 7.000037 1.000008 19
v 8.000037 1.000009 19
v 8.000003 39.00002 19
v 7.000003 39.00001 19
v 7.000003 39.00001 19
v 8.000003 39.00002 19
v 7.999965 39.00002 -19.00001
v 6.999965 39.00002 -19.00001
v 6.999999 1.152362E-05 -20.00001
v 6.999999 1.000012 -19.00001
v 6.999965 39.00002 -19.00001
v 6.999963 40.00002 -20.00001
v 7.000039 8.026706E-06 20
v 7.000037 1.000008 19
v 7.000003 40.00001 20
v 7.000003 39.00001 19
v -3.78814E-05 40.00001 -20
v 6.999963 40.00002 -20.00001
v 6.999999 1.152362E-05 -20.00001
v -2.118609E-06 3.178968E-06 -20.00001
v -2.118609E-06 3.178968E-06 -20.00001
v 6.999999 1.152362E-05 -20.00001
v 7.000039 8.026706E-06 20
v 3.78814E-05 -3.179445E-07 20
v 3.78814E-05 -3.179445E-07 20
v 7.000039 8.026706E-06 20
v 7.000003 40.00001 20
v 2.118609E-06 40 20.00001
v 2.118609E-06 40 20.00001
v 7.000003 40.00001 20
v 6.999963 40.00002 -20.00001
v -3.78814E-05 40.00001 -20
v -2.118609E-06 3.178968E-06 -20.00001
v -3.78814E-05 40.00001 -20
v 2.118609E-06 40 20.00001
v 3.78814E-05 -3.179445E-07 20
vn 9.977697E-07 -0.9940385 0.1090301
vn 8.718925E-07 -0.9997589 -0.02196158
vn 9.158155E-07 -0.9997589 0.02196141
vn 1.03583E-06 -0.9883541 0.1521723
vn 1.105931E-06 -0.9714057 0.2374263
vn 1.137966E-06 -0.9601344 0.2795392
vn 1.195603E-06 -0.9320766 0.3622615
vn 1.221172E-06 -0.9152586 0.402867
vn 1.264848E-06 -0.8767223 0.4809974
vn 1.28302E-06 -0.8550503 0.5185451
vn 1.312255E-06 -0.8065999 0.5910981
vn 1.323234E-06 -0.7797716 0.6260643
vn 1.337373E-06 -0.7222593 0.6916227
vn 1.340618E-06 -0.6916227 0.7222593
vn 1.339517E-06 -0.6260644 0.7797716
vn 1.335083E-06 -0.5910982 0.8065999
vn 1.318666E-06 -0.5185452 0.8550504
vn 1.306767E-06 -0.4809974 0.8767223
vn 1.27545E-06 -0.4028671 0.9152587
vn 1.255964E-06 -0.3622616 0.9320767
vn 1.210062E-06 -0.2795393 0.9601345
vn 1.183681E-06 -0.2374264 0.9714058
vn 1.124407E-06 -0.1521724 0.9883543
vn 1.091519E-06 -0.1090302 0.9940386
vn 1.019394E-06 -0.02196158 0.999759
vn 9.801238E-07 0.0219614 0.999759
vn 8.96558E-07 0.1090301 0.9940386
vn 8.523015E-07 0.1521722 0.9883543
vn 7.5913E-07 0.2374263 0.9714058
vn 7.102069E-07 0.2795392 0.9601346
vn 6.081896E-07 0.3622614 0.9320768
vn 5.550675E-07 0.402867 0.9152588
vn 4.466771E-07 0.4809973 0.8767224
vn 3.914349E-07 0.518545 0.8550504
vn 2.78117E-07 0.5910981 0.8066
vn 2.200265E-07 0.6260642 0.7797717
vn 1.039005E-07 0.6916226 0.7222594
vn 4.587262E-08 0.7222592 0.6916228
vn -7.110575E-08 0.7797716 0.6260645
vn -1.300582E-07 0.8065998 0.5910983
vn -2.459294E-07 0.8550503 0.5185452
vn -3.028533E-07 0.8767222 0.4809975
vn -4.154379E-07 0.9152586 0.4028672
vn -4.710798E-07 0.9320766 0.3622617
vn -5.788878E-07 0.9601344 0.2795394
vn -6.310779E-07 0.9714057 0.2374264
vn -7.31485E-07 0.9883541 0.1521724
vn -7.797094E-07 0.9940385 0.1090303
vn -8.718925E-07 0.9997589 0.02196158
vn -9.158155E-07 0.9997589 -0.02196141
vn -9.977697E-07 0.9940385 -0.1090301
vn -1.03583E-06 0.9883541 -0.1521723
vn -1.105931E-06 0.9714057 -0.2374263
vn -1.137966E-06 0.9601344 -0.2795392
vn -1.195603E-06 0.9320766 -0.3622615
vn -1.221172E-06 0.9152586 -0.402867
vn -1.264848E-06 0.8767223 -0.4809974
vn -1.28302E-06 0.8550503 -0.5185451
vn -1.312255E-06 0.8065999 -0.5910981
vn -1.323234E-06 0.7797716 -0.6260643
vn -1.337373E-06 0.7222593 -0.6916227
vn -1.340618E-06 0.6916227 -0.7222593
vn -1.339517E-06 0.6260644 -0.7797716
vn -1.335083E-06 0.5910982 -0.8065999
vn -1.318666E-06 0.5185452 -0.8550504
vn -1.306767E-06 0.4809974 -0.8767223
vn -1.27545E-06 0.4028671 -0.9152587
vn -1.255964E-06 0.3622616 -0.9320767
vn -1.210062E-06 0.2795393 -0.9601345
vn -1.183681E-06 0.2374264 -0.9714058
vn -1.124407E-06 0.1521724 -0.9883543
vn -1.091519E-06 0.1090302 -0.9940386
vn -1.019394E-06 0.02196158 -0.999759
vn -9.801238E-07 -0.0219614 -0.999759
vn -8.96558E-07 -0.1090301 -0.9940386
vn -8.523015E-07 -0.1521722 -0.9883543
vn -7.5913E-07 -0.2374263 -0.9714058
vn -7.102069E-07 -0.2795392 -0.9601346
vn -6.081896E-07 -0.3622614 -0.9320768
vn -5.550675E-07 -0.402867 -0.9152588
vn -4.466771E-07 -0.4809973 -0.8767224
vn -3.914349E-07 -0.518545 -0.8550504
vn -2.78117E-07 -0.5910981 -0.8066
vn -2.200265E-07 -0.6260642 -0.7797717
vn -1.039005E-07 -0.6916226 -0.7222594
vn -4.587262E-08 -0.7222592 -0.6916228
vn 7.110575E-08 -0.7797716 -0.6260645
vn 1.300582E-07 -0.8065998 -0.5910983
vn 2.459294E-07 -0.8550503 -0.5185452
vn 3.028533E-07 -0.8767222 -0.4809975
vn 4.154379E-07 -0.9152586 -0.4028672
vn 4.710798E-07 -0.9320766 -0.3622617
vn 5.788878E-07 -0.9601344 -0.2795394
vn 6.310779E-07 -0.9714057 -0.2374264
vn 7.31485E-07 -0.9883541 -0.1521724
vn 7.797094E-07 -0.9940385 -0.1090303
vn -9.977698E-07 0.9940386 -0.10903
vn -8.718925E-07 0.9997589 0.02196158
vn -9.158155E-07 0.9997589 -0.02196141
vn -1.03583E-06 0.9883541 -0.1521721
vn -1.105931E-06 0.9714057 -0.2374263
vn -1.137966E-06 0.9601343 -0.2795394
vn -1.195603E-06 0.9320766 -0.3622616
vn -1.221172E-06 0.9152588 -0.4028669
vn -1.264848E-06 0.8767223 -0.4809971
vn -1.28302E-06 0.8550504 -0.5185452
vn -1.312255E-06 0.8065999 -0.5910981
vn -1.323234E-06 0.7797717 -0.6260642
vn -1.337373E-06 0.7222593 -0.6916226
vn -1.340618E-06 0.6916226 -0.7222593
vn -1.339517E-06 0.6260643 -0.7797717
vn -1.335083E-06 0.5910982 -0.8065999
vn -1.318666E-06 0.5185452 -0.8550505
vn -1.306767E-06 0.4809972 -0.8767223
vn -1.27545E-06 0.402867 -0.9152588
vn -1.255964E-06 0.3622617 -0.9320767
vn -1.210062E-06 0.2795395 -0.9601344
vn -1.183681E-06 0.2374265 -0.9714058
vn -1.124407E-06 0.1521723 -0.9883542
vn -1.091519E-06 0.1090302 -0.9940387
vn -1.019394E-06 0.02196158 -0.999759
vn -9.801238E-07 -0.0219614 -0.999759
vn -8.96558E-07 -0.10903 -0.9940387
vn -8.523015E-07 -0.1521721 -0.9883542
vn -7.591299E-07 -0.2374263 -0.9714058
vn -7.102066E-07 -0.2795393 -0.9601344
vn -6.081896E-07 -0.3622615 -0.9320768
vn -5.550677E-07 -0.4028668 -0.9152589
vn -4.466773E-07 -0.4809971 -0.8767224
vn -3.91435E-07 -0.5185451 -0.8550506
vn -2.78117E-07 -0.5910981 -0.8066
vn -2.200266E-07 -0.6260642 -0.7797718
vn -1.039005E-07 -0.6916225 -0.7222594
vn -4.587256E-08 -0.7222592 -0.6916227
vn 7.110586E-08 -0.7797716 -0.6260644
vn 1.300582E-07 -0.8065998 -0.5910983
vn 2.459294E-07 -0.8550504 -0.5185453
vn 3.028535E-07 -0.8767222 -0.4809973
vn 4.154381E-07 -0.9152587 -0.402867
vn 4.710797E-07 -0.9320766 -0.3622617
vn 5.788875E-07 -0.9601343 -0.2795396
vn 6.310779E-07 -0.9714057 -0.2374265
vn 7.314851E-07 -0.9883541 -0.1521723
vn 7.797095E-07 -0.9940386 -0.1090302
vn 8.718925E-07 -0.9997589 -0.02196158
vn 9.158155E-07 -0.9997589 0.02196141
vn 9.977698E-07 -0.9940386 0.10903
vn 1.03583E-06 -0.9883541 0.1521721
vn 1.105931E-06 -0.9714057 0.2374263
vn 1.137966E-06 -0.9601343 0.2795394
vn 1.195603E-06 -0.9320766 0.3622616
vn 1.221172E-06 -0.9152588 0.4028669
vn 1.264848E-06 -0.8767223 0.4809971
vn 1.28302E-06 -0.8550504 0.5185452
vn 1.312255E-06 -0.8065999 0.5910981
vn 1.323234E-06 -0.7797717 0.6260642
vn 1.337373E-06 -0.7222593 0.6916226
vn 1.340618E-06 -0.6916226 0.7222593
vn 1.339517E-06 -0.6260643 0.7797717
vn 1.335083E-06 -0.5910982 0.8065999
vn 1.318666E-06 -0.5185452 0.8550505
vn 1.306767E-06 -0.4809972 0.8767223
vn 1.27545E-06 -0.402867 0.9152588
vn 1.255964E-06 -0.3622617 0.9320767
vn 1.210062E-06 -0.2795395 0.9601344
vn 1.183681E-06 -0.2374265 0.9714058
vn 1.124407E-06 -0.1521723 0.9883542
vn 1.091519E-06 -0.1090302 0.9940387
vn 1.019394E-06 -0.02196158 0.999759
vn 9.801238E-07 0.0219614 0.999759
vn 8.96558E-07 0.10903 0.9940387
vn 8.523015E-07 0.1521721 0.9883542
vn 7.591299E-07 0.2374263 0.9714058
vn 7.102066E-07 0.2795393 0.9601344
vn 6.081896E-07 0.3622615 0.9320768
vn 5.550677E-07 0.4028668 0.9152589
vn 4.466773E-07 0.4809971 0.8767224
vn 3.91435E-07 0.5185451 0.8550506
vn 2.78117E-07 0.5910981 0.8066
vn 2.200266E-07 0.6260642 0.7797718
vn 1.039005E-07 0.6916225 0.7222594
vn 4.587256E-08 0.7222592 0.6916227
vn -7.110586E-08 0.7797716 0.6260644
vn -1.300582E-07 0.8065998 0.5910983
vn -2.459294E-07 0.8550504 0.5185453
vn -3.028535E-07 0.8767222 0.4809973
vn -4.154381E-07 0.9152587 0.402867
vn -4.710797E-07 0.9320766 0.3622617
vn -5.788875E-07 0.9601343 0.2795396
vn -6.310779E-07 0.9714057 0.2374265
vn -7.314851E-07 0.9883541 0.1521723
vn -7.797095E-07 0.9940386 0.1090302
vn -1 -1.192093E-06 1E-06
vn -1 -1.192093E-06 9.999999E-07
vn -1 -1.192093E-06 1E-06
vn -1 -1.192093E-06 1E-06
vn -1 -1.192093E-06 1E-06
vn -1 -1.192093E-06 1E-06
vn -1 -1.192093E-06 9.999999E-07
vn -1 -1.192093E-06 1E-06
vn -1 -1.192093E-06 1E-06
vn -1 -1.192093E-06 1E-06
vn -1 -1.192093E-06 9.999999E-07
vn -1 -1.192093E-06 1E-06
vn -1 -1.192093E-06 1E-06
vn -1 -1.192093E-06 1E-06
vn -1 -1.192093E-06 9.999999E-07
vn -1 -1.192093E-06 1E-06
vn -1 -1.192093E-06 1E-06
vn -1 -1.192093E-06 9.999999E-07
vn -1 -1.192093E-06 1E-06
vn -1 -1.192093E-06 1E-06
vn -1 -1.192093E-06 9.999999E-07
vn -1 -1.192093E-06 1E-06
vn -1 -1.192093E-06 9.999999E-07
vn -1 -1.192093E-06 1E-06
vn -1 -1.192093E-06 1E-06
vn -1 -1.192093E-06 1E-06
vn -1 -1.192093E-06 9.999999E-07
vn -1 -1.192093E-06 1E-06
vn -1 -1.192093E-06 1E-06
vn -1 -1.192093E-06 1E-06
vn -1 -1.192093E-06 9.999999E-07
vn -1 -1.192093E-06 1E-06
vn -1 -1.192093E-06 1E-06
vn -1 -1.192093E-06 1E-06
vn -1 -1.192093E-06 9.999999E-07
vn -1 -1.192093E-06 1E-06
vn -1 -1.192093E-06 1E-06
vn -1 -1.192093E-06 1E-06
vn -1 -1.192093E-06 9.999999E-07
vn -1 -1.192093E-06 1E-06
vn -1 -1.192093E-06 1E-06
vn -1 -1.192093E-06 9.999999E-07
vn -1 -1.192093E-06 1E-06
vn -1 -1.192093E-06 1E-06
vn -1 -1.192093E-06 9.999999E-07
vn -1 -1.192093E-06 1E-06
vn -1 -1.192093E-06 9.999999E-07
vn -1 -1.192093E-06 1E-06
vn -1 -1.192093E-06 1E-06
vn -1 -1.192093E-06 1E-06
vn -1 -1.192093E-06 9.999999E-07
vn -1 -1.192093E-06 1E-06
vn -1 -1.192093E-06 1E-06
vn -1 -1.192093E-06 1E-06
vn -1 -1.192093E-06 9.999999E-07
vn -1 -1.192093E-06 1E-06
vn -1 -1.192093E-06 1E-06
vn -1 -1.192093E-06 1E-06
vn -1 -1.192093E-06 9.999999E-07
vn -1 -1.192093E-06 1E-06
vn -1 -1.192093E-06 1E-06
vn -1 -1.192093E-06 1E-06
vn -1 -1.192093E-06 9.999999E-07
vn -1 -1.192093E-06 1E-06
vn -1 -1.192093E-06 1E-06
vn -1 -1.192093E-06 9.999999E-07
vn -1 -1.192093E-06 1E-06
vn -1 -1.192093E-06 1E-06
vn -1 -1.192093E-06 9.999999E-07
vn -1 -1.192093E-06 1E-06
vn -1 -1.192093E-06 9.999999E-07
vn -1 -1.192093E-06 1E-06
vn -1 -1.192093E-06 1E-06
vn -1 -1.192093E-06 1E-06
vn -1 -1.192093E-06 9.999999E-07
vn -1 -1.192093E-06 1E-06
vn -1 -1.192093E-06 1E-06
vn -1 -1.192093E-06 1E-06
vn -1 -1.192093E-06 9.999999E-07
vn -1 -1.192093E-06 1E-06
vn -1 -1.192093E-06 1E-06
vn -1 -1.192093E-06 1E-06
vn -1 -1.192093E-06 9.999999E-07
vn -1 -1.192093E-06 1E-06
vn -1 -1.192093E-06 1E-06
vn -1 -1.192093E-06 1E-06
vn -1 -1.192093E-06 9.999999E-07
vn -1 -1.192093E-06 1E-06
vn -1 -1.192093E-06 1E-06
vn -1 -1.192093E-06 9.999999E-07
vn -1 -1.192093E-06 1E-06
vn -1 -1.192093E-06 1E-06
vn -1 -1.192093E-06 9.999999E-07
vn -1 -1.192093E-06 1E-06
vn -1 -1.192093E-06 9.999999E-07
vn -1 -1.192093E-06 1E-06
vn 9.977698E-07 -0.9940386 0.10903
vn 8.718925E-07 -0.9997589 -0.02196158
vn 9.158155E-07 -0.9997589 0.02196141
vn 1.03583E-06 -0.9883541 0.1521721
vn 1.105931E-06 -0.9714057 0.2374263
vn 1.137966E-06 -0.9601343 0.2795394
vn 1.195603E-06 -0.9320766 0.3622616
vn 1.221172E-06 -0.9152588 0.4028669
vn 1.264848E-06 -0.8767223 0.4809971
vn 1.28302E-06 -0.8550504 0.5185452
vn 1.312255E-06 -0.8065999 0.5910981
vn 1.323234E-06 -0.7797717 0.6260642
vn 1.337373E-06 -0.7222593 0.6916226
vn 1.340618E-06 -0.6916226 0.7222593
vn 1.339517E-06 -0.6260643 0.7797717
vn 1.335083E-06 -0.5910982 0.8065999
vn 1.318666E-06 -0.5185452 0.8550505
vn 1.306767E-06 -0.4809972 0.8767223
vn 1.27545E-06 -0.402867 0.9152588
vn 1.255964E-06 -0.3622617 0.9320767
vn 1.210062E-06 -0.2795395 0.9601344
vn 1.183681E-06 -0.2374265 0.9714058
vn 1.124407E-06 -0.1521723 0.9883542
vn 1.091519E-06 -0.1090302 0.9940387
vn 1.019394E-06 -0.02196158 0.999759
vn 9.801238E-07 0.0219614 0.999759
vn 8.96558E-07 0.10903 0.9940387
vn 8.523015E-07 0.1521721 0.9883542
vn 7.591299E-07 0.2374263 0.9714058
vn 7.102066E-07 0.2795393 0.9601344
vn 6.081896E-07 0.3622615 0.9320768
vn 5.550677E-07 0.4028668 0.9152589
vn 4.466773E-07 0.4809971 0.8767224
vn 3.91435E-07 0.5185451 0.8550506
vn 2.78117E-07 0.5910981 0.8066
vn 2.200266E-07 0.6260642 0.7797718
vn 1.039005E-07 0.6916225 0.7222594
vn 4.587256E-08 0.7222592 0.6916227
vn -7.110586E-08 0.7797716 0.6260644
vn -1.300582E-07 0.8065998 0.5910983
vn -2.459294E-07 0.8550504 0.5185453
vn -3.028535E-07 0.8767222 0.4809973
vn -4.154381E-07 0.9152587 0.402867
vn -4.710797E-07 0.9320766 0.3622617
vn -5.788875E-07 0.9601343 0.2795396
vn -6.310779E-07 0.9714057 0.2374265
vn -7.314851E-07 0.9883541 0.1521723
vn -7.797095E-07 0.9940386 0.1090302
vn -8.718925E-07 0.9997589 0.02196158
vn -9.158155E-07 0.9997589 -0.02196141
vn -9.977698E-07 0.9940386 -0.10903
vn -1.03583E-06 0.9883541 -0.1521721
vn -1.105931E-06 0.9714057 -0.2374263
vn -1.137966E-06 0.9601343 -0.2795394
vn -1.195603E-06 0.9320766 -0.3622616
vn -1.221172E-06 0.9152588 -0.4028669
vn -1.264848E-06 0.8767223 -0.4809971
vn -1.28302E-06 0.8550504 -0.5185452
vn -1.312255E-06 0.8065999 -0.5910981
vn -1.323234E-06 0.7797717 -0.6260642
vn -1.337373E-06 0.7222593 -0.6916226
vn -1.340618E-06 0.6916226 -0.7222593
vn -1.339517E-06 0.6260643 -0.7797717
vn -1.335083E-06 0.5910982 -0.8065999
vn -1.318666E-06 0.5185452 -0.8550505
vn -1.306767E-06 0.4809972 -0.8767223
vn -1.27545E-06 0.402867 -0.9152588
vn -1.255964E-06 0.3622617 -0.9320767
vn -1.210062E-06 0.2795395 -0.9601344
vn -1.183681E-06 0.2374265 -0.9714058
vn -1.124407E-06 0.1521723 -0.9883542
vn -1.091519E-06 0.1090302 -0.9940387
vn -1.019394E-06 0.02196158 -0.999759
vn -9.801238E-07 -0.0219614 -0.999759
vn -8.96558E-07 -0.10903 -0.9940387
vn -8.523015E-07 -0.1521721 -0.9883542
vn -7.591299E-07 -0.2374263 -0.9714058
vn -7.102066E-07 -0.2795393 -0.9601344
vn -6.081896E-07 -0.3622615 -0.9320768
vn -5.550677E-07 -0.4028668 -0.9152589
vn -4.466773E-07 -0.4809971 -0.8767224
vn -3.91435E-07 -0.5185451 -0.8550506
vn -2.78117E-07 -0.5910981 -0.8066
vn -2.200266E-07 -0.6260642 -0.7797718
vn -1.039005E-07 -0.6916225 -0.7222594
vn -4.587256E-08 -0.7222592 -0.6916227
vn 7.110586E-08 -0.7797716 -0.6260644
vn 1.300582E-07 -0.8065998 -0.5910983
vn 2.459294E-07 -0.8550504 -0.5185453
vn 3.028535E-07 -0.8767222 -0.4809973
vn 4.154381E-07 -0.9152587 -0.402867
vn 4.710797E-07 -0.9320766 -0.3622617
vn 5.788875E-07 -0.9601343 -0.2795396
vn 6.310779E-07 -0.9714057 -0.2374265
vn 7.314851E-07 -0.9883541 -0.1521723
vn 7.797095E-07 -0.9940386 -0.1090302
vn -9.977697E-07 0.9940385 -0.1090301
vn -8.718925E-07 0.9997589 0.02196158
vn -9.158155E-07 0.9997589 -0.02196141
vn -1.03583E-06 0.9883541 -0.1521723
vn -1.105931E-06 0.9714057 -0.2374263
vn -1.137966E-06 0.9601344 -0.2795392
vn -1.195603E-06 0.9320766 -0.3622615
vn -1.221172E-06 0.9152586 -0.402867
vn -1.264848E-06 0.8767223 -0.4809974
vn -1.28302E-06 0.8550503 -0.5185451
vn -1.312255E-06 0.8065999 -0.5910981
vn -1.323234E-06 0.7797716 -0.6260643
vn -1.337373E-06 0.7222593 -0.6916227
vn -1.340618E-06 0.6916227 -0.7222593
vn -1.339517E-06 0.6260644 -0.7797716
vn -1.335083E-06 0.5910982 -0.8065999
vn -1.318666E-06 0.5185452 -0.8550504
vn -1.306767E-06 0.4809974 -0.8767223
vn -1.27545E-06 0.4028671 -0.9152587
vn -1.255964E-06 0.3622616 -0.9320767
vn -1.210062E-06 0.2795393 -0.9601345
vn -1.183681E-06 0.2374264 -0.9714058
vn -1.124407E-06 0.1521724 -0.9883543
vn -1.091519E-06 0.1090302 -0.9940386
vn -1.019394E-06 0.02196158 -0.999759
vn -9.801238E-07 -0.0219614 -0.999759
vn -8.96558E-07 -0.1090301 -0.9940386
vn -8.523015E-07 -0.1521722 -0.9883543
vn -7.5913E-07 -0.2374263 -0.9714058
vn -7.102069E-07 -0.2795392 -0.9601346
vn -6.081896E-07 -0.3622614 -0.9320768
vn -5.550675E-07 -0.402867 -0.9152588
vn -4.466771E-07 -0.4809973 -0.8767224
vn -3.914349E-07 -0.518545 -0.8550504
vn -2.78117E-07 -0.5910981 -0.8066
vn -2.200265E-07 -0.6260642 -0.7797717
vn -1.039005E-07 -0.6916226 -0.7222594
vn -4.587262E-08 -0.7222592 -0.6916228
vn 7.110575E-08 -0.7797716 -0.6260645
vn 1.300582E-07 -0.8065998 -0.5910983
vn 2.459294E-07 -0.8550503 -0.5185452
vn 3.028533E-07 -0.8767222 -0.4809975
vn 4.154379E-07 -0.9152586 -0.4028672
vn 4.710798E-07 -0.9320766 -0.3622617
vn 5.788878E-07 -0.9601344 -0.2795394
vn 6.310779E-07 -0.9714057 -0.2374264
vn 7.31485E-07 -0.9883541 -0.1521724
vn 7.797094E-07 -0.9940385 -0.1090303
vn 8.718925E-07 -0.9997589 -0.02196158
vn 9.158155E-07 -0.9997589 0.02196141
vn 9.977697E-07 -0.9940385 0.1090301
vn 1.03583E-06 -0.9883541 0.1521723
vn 1.105931E-06 -0.9714057 0.2374263
vn 1.137966E-06 -0.9601344 0.2795392
vn 1.195603E-06 -0.9320766 0.3622615
vn 1.221172E-06 -0.9152586 0.402867
vn 1.264848E-06 -0.8767223 0.4809974
vn 1.28302E-06 -0.8550503 0.5185451
vn 1.312255E-06 -0.8065999 0.5910981
vn 1.323234E-06 -0.7797716 0.6260643
vn 1.337373E-06 -0.7222593 0.6916227
vn 1.340618E-06 -0.6916227 0.7222593
vn 1.339517E-06 -0.6260644 0.7797716
vn 1.335083E-06 -0.5910982 0.8065999
vn 1.318666E-06 -0.5185452 0.8550504
vn 1.306767E-06 -0.4809974 0.8767223
vn 1.27545E-06 -0.4028671 0.9152587
vn 1.255964E-06 -0.3622616 0.9320767
vn 1.210062E-06 -0.2795393 0.9601345
vn 1.183681E-06 -0.2374264 0.9714058
vn 1.124407E-06 -0.1521724 0.9883543
vn 1.091519E-06 -0.1090302 0.9940386
vn 1.019394E-06 -0.02196158 0.999759
vn 9.801238E-07 0.0219614 0.999759
vn 8.96558E-07 0.1090301 0.9940386
vn 8.523015E-07 0.1521722 0.9883543
vn 7.5913E-07 0.2374263 0.9714058
vn 7.102069E-07 0.2795392 0.9601346
vn 6.081896E-07 0.3622614 0.9320768
vn 5.550675E-07 0.402867 0.9152588
vn 4.466771E-07 0.4809973 0.8767224
vn 3.914349E-07 0.518545 0.8550504
vn 2.78117E-07 0.5910981 0.8066
vn 2.200265E-07 0.6260642 0.7797717
vn 1.039005E-07 0.6916226 0.7222594
vn 4.587262E-08 0.7222592 0.6916228
vn -7.110575E-08 0.7797716 0.6260645
vn -1.300582E-07 0.8065998 0.5910983
vn -2.459294E-07 0.8550503 0.5185452
vn -3.028533E-07 0.8767222 0.4809975
vn -4.154379E-07 0.9152586 0.4028672
vn -4.710798E-07 0.9320766 0.3622617
vn -5.788878E-07 0.9601344 0.2795394
vn -6.310779E-07 0.9714057 0.2374264
vn -7.31485E-07 0.9883541 0.1521724
vn -7.797094E-07 0.9940385 0.1090303
vn 1 1.192093E-06 -1E-06
vn 1 1.192093E-06 -9.999999E-07
vn 1 1.192093E-06 -9.999999E-07
vn 1 1.192093E-06 -1E-06
vn 1 1.192093E-06 -1E-06
vn 1 1.192093E-06 -1E-06
vn 1 1.192093E-06 -1E-06
vn 1 1.192093E-06 -1E-06
vn 1 1.192093E-06 -1E-06
vn 1 1.192093E-06 -1E-06
vn 1 1.192093E-06 -1E-06
vn 1 1.192093E-06 -1E-06
vn 1 1.192093E-06 -9.999999E-07
vn 1 1.192093E-06 -1E-06
vn 1 1.192093E-06 -1E-06
vn 1 1.192093E-06 -1E-06
vn 1 1.192093E-06 -9.999999E-07
vn 1 1.192093E-06 -1E-06
vn 1 1.192093E-06 -9.999999E-07
vn 1 1.192093E-06 -1E-06
vn 1 1.192093E-06 -1E-06
vn 1 1.192093E-06 -9.999999E-07
vn 1 1.192093E-06 -1E-06
vn 1 1.192093E-06 -1E-06
vn 1 1.192093E-06 -1E-06
vn 1 1.192093E-06 -1E-06
vn 1 1.192093E-06 -9.999999E-07
vn 1 1.192093E-06 -9.999999E-07
vn 1 1.192093E-06 -1E-06
vn 1 1.192093E-06 -1E-06
vn 1 1.192093E-06 -1E-06
vn 1 1.192093E-06 -1E-06
vn 1 1.192093E-06 -1E-06
vn 1 1.192093E-06 -1E-06
vn 1 1.192093E-06 -1E-06
vn 1 1.192093E-06 -1E-06
vn 1 1.192093E-06 -9.999999E-07
vn 1 1.192093E-06 -1E-06
vn 1 1.192093E-06 -1E-06
vn 1 1.192093E-06 -1E-06
vn 1 1.192093E-06 -9.999999E-07
vn 1 1.192093E-06 -1E-06
vn 1 1.192093E-06 -9.999999E-07
vn 1 1.192093E-06 -1E-06
vn 1 1.192093E-06 -1E-06
vn 1 1.192093E-06 -9.999999E-07
vn 1 1.192093E-06 -1E-06
vn 1 1.192093E-06 -1E-06
vn 1 1.192093E-06 -1E-06
vn 1 1.192093E-06 -1E-06
vn 1 1.192093E-06 -9.999999E-07
vn 1 1.192093E-06 -9.999999E-07
vn 1 1.192093E-06 -1E-06
vn 1 1.192093E-06 -1E-06
vn 1 1.192093E-06 -1E-06
vn 1 1.192093E-06 -1E-06
vn 1 1.192093E-06 -1E-06
vn 1 1.192093E-06 -1E-06
vn 1 1.192093E-06 -1E-06
vn 1 1.192093E-06 -1E-06
vn 1 1.192093E-06 -9.999999E-07
vn 1 1.192093E-06 -1E-06
vn 1 1.192093E-06 -1E-06
vn 1 1.192093E-06 -1E-06
vn 1 1.192093E-06 -9.999999E-07
vn 1 1.192093E-06 -1E-06
vn 1 1.192093E-06 -9.999999E-07
vn 1 1.192093E-06 -1E-06
vn 1 1.192093E-06 -1E-06
vn 1 1.192093E-06 -9.999999E-07
vn 1 1.192093E-06 -1E-06
vn 1 1.192093E-06 -1E-06
vn 1 1.192093E-06 -1E-06
vn 1 1.192093E-06 -1E-06
vn 1 1.192093E-06 -9.999999E-07
vn 1 1.192093E-06 -9.999999E-07
vn 1 1.192093E-06 -1E-06
vn 1 1.192093E-06 -1E-06
vn 1 1.192093E-06 -1E-06
vn 1 1.192093E-06 -1E-06
vn 1 1.192093E-06 -1E-06
vn 1 1.192093E-06 -1E-06
vn 1 1.192093E-06 -1E-06
vn 1 1.192093E-06 -1E-06
vn 1 1.192093E-06 -9.999999E-07
vn 1 1.192093E-06 -1E-06
vn 1 1.192093E-06 -1E-06
vn 1 1.192093E-06 -1E-06
vn 1 1.192093E-06 -9.999999E-07
vn 1 1.192093E-06 -1E-06
vn 1 1.192093E-06 -9.999999E-07
vn 1 1.192093E-06 -1E-06
vn 1 1.192093E-06 -1E-06
vn 1 1.192093E-06 -9.999999E-07
vn 1 1.192093E-06 -1E-06
vn 1 1.192093E-06 -1E-06
vn 1 1.192093E-06 -1E-06
vn 1 1.192093E-06 -1E-06
vn 1 1.192093E-06 -1E-06
vn 1 1.192093E-06 -1E-06
vn 1E-06 -8.74228E-08 1
vn 1E-06 -8.74228E-08 1
vn 1E-06 -8.74228E-08 1
vn 1E-06 -8.74228E-08 1
vn -8.940697E-07 1 8.742375E-08
vn -8.940697E-07 1 8.742375E-08
vn -8.940697E-07 1 8.742375E-08
vn -8.940697E-07 1 8.742375E-08
vn -1E-06 8.74228E-08 -1
vn -1E-06 8.74228E-08 -1
vn -1E-06 8.74228E-08 -1
vn -1E-06 8.74228E-08 -1
vn 8.940697E-07 -1 -8.742375E-08
vn 8.940697E-07 -1 -8.742375E-08
vn 8.940697E-07 -1 -8.742375E-08
vn 8.940697E-07 -1 -8.742375E-08
vn 1 1.192093E-06 -1E-06
vn 1 1.192093E-06 -1E-06
vn 1 1.192093E-06 -1E-06
vn 1 1.192093E-06 -1E-06
vn 1 1.192093E-06 -1E-06
vn 1 1.192093E-06 -1E-06
vn 1 1.192093E-06 -1E-06
vn 1 1.192093E-06 -1E-06
vn -1E-06 8.74228E-08 -1
vn -1E-06 8.74228E-08 -1
vn -1E-06 8.74228E-08 -1
vn -1E-06 8.74228E-08 -1
vn 8.940697E-07 -1 -8.742375E-08
vn 8.940697E-07 -1 -8.742375E-08
vn 8.940697E-07 -1 -8.742375E-08
vn 8.940697E-07 -1 -8.742375E-08
vn 1E-06 -8.74228E-08 1
vn 1E-06 -8.74228E-08 1
vn 1E-06 -8.74228E-08 1
vn 1E-06 -8.74228E-08 1
vn -8.940697E-07 1 8.742375E-08
vn -8.940697E-07 1 8.742375E-08
vn -8.940697E-07 1 8.742375E-08
vn -8.940697E-07 1 8.742375E-08
vn 1 1.192093E-06 -1E-06
vn 1 1.192093E-06 -1E-06
vn 1 1.192093E-06 -1E-06
vn 1 1.192093E-06 -1E-06
vn 1 1.192093E-06 -1E-06
vn 1 1.192093E-06 -1E-06
vn 1 1.192093E-06 -1E-06
vn 1 1.192093E-06 -1E-06
vn -1E-06 8.74228E-08 -1
vn -1E-06 8.74228E-08 -1
vn -1E-06 8.74228E-08 -1
vn -1E-06 8.74228E-08 -1
vn 8.940697E-07 -1 -8.742375E-08
vn 8.940697E-07 -1 -8.742375E-08
vn 8.940697E-07 -1 -8.742375E-08
vn 8.940697E-07 -1 -8.742375E-08
vn 1E-06 -8.74228E-08 1
vn 1E-06 -8.74228E-08 1
vn 1E-06 -8.74228E-08 1
vn 1E-06 -8.74228E-08 1
vn -8.940697E-07 1 8.742375E-08
vn -8.940697E-07 1 8.742375E-08
vn -8.940697E-07 1 8.742375E-08
vn -8.940697E-07 1 8.742375E-08
vn -1 -1.192093E-06 1E-06
vn -1 -1.192093E-06 1E-06
vn -1 -1.192093E-06 1E-06
vn -1 -1.192093E-06 1E-06
vt -0.522 3.4436
vt 4 4
vt -4 4
vt -4.522 3.4436
vt -1.0352 2.8284
vt -5.0352 2.8284
vt -1.5308 2.1648
vt -5.5308 2.1648
vt -2 1.464
vt -6 1.464
vt -2.4352 0.7384
vt -6.4352 0.7384
vt -2.8284 0
vt -6.8284 0
vt -3.1736 -0.7384
vt -7.1736 -0.7384
vt -3.464 -1.464
vt -7.464 -1.464
vt -3.6956 -2.1648
vt -7.6956 -2.1648
vt -3.8636 -2.8284
vt -7.8636 -2.8284
vt -3.9656 -3.4436
vt -7.9656 -3.4436
vt -4 -4
vt -8 -4
vt -3.9656 -4.4876
vt -7.9656 -4.4876
vt -3.8636 -4.8988
vt -7.8636 -4.8988
vt -3.6956 -5.2264
vt -7.6956 -5.2264
vt -3.464 -5.464
vt -7.464 -5.464
vt -3.1736 -5.6088
vt -7.1736 -5.6088
vt -2.8284 -5.6568
vt -6.8284 -5.6568
vt -3.1736 -5.6088
vt -7.1736 -5.6088
vt -3.464 -5.464
vt -7.464 -5.464
vt -3.6956 -5.2264
vt -7.6956 -5.2264
vt -3.8636 -4.8988
vt -7.8636 -4.8988
vt -3.9656 -4.4876
vt -7.9656 -4.4876
vt -4 -4
vt -8 -4
vt -3.9656 -3.4436
vt -7.9656 -3.4436
vt -3.8636 -2.8284
vt -7.8636 -2.8284
vt -3.6956 -2.1648
vt -7.6956 -2.1648
vt -3.464 -1.464
vt -7.464 -1.464
vt -3.1736 -0.7384
vt -7.1736 -0.7384
vt -2.8284 0
vt -6.8284 0
vt -2.4352 0.7384
vt -6.4352 0.7384
vt -2 1.464
vt -6 1.464
vt -1.5308 2.1648
vt -5.5308 2.1648
vt -1.0352 2.8284
vt -5.0352 2.8284
vt -0.522 3.4436
vt -4.522 3.4436
vt 0 4
vt 0 4
vt 3.9656 4.4876
vt -0.03439999 4.4876
vt 3.8636 4.8988
vt -0.1364 4.8988
vt 3.6956 5.2264
vt -0.3044 5.2264
vt 3.464 5.464
vt -0.536 5.464
vt 3.1736 5.6088
vt -0.8264 5.6088
vt 2.8284 5.6568
vt -1.1716 5.6568
vt 3.1736 5.6088
vt -0.8264 5.6088
vt 3.464 5.464
vt -0.536 5.464
vt 3.6956 5.2264
vt -0.3044 5.2264
vt 3.8636 4.8988
vt -0.1364 4.8988
vt 3.9656 4.4876
vt -0.03439999 4.4876
vt 5.9484 5.1654
vt 6 6
vt 2 6
vt 1.9484 5.1654
vt 5.7954 4.2426
vt 1.7954 4.2426
vt 5.5434 3.2472
vt 1.5434 3.2472
vt 5.196 2.196
vt 1.196 2.196
vt 4.7604 1.1076
vt 0.7603998 1.1076
vt 4.2426 0
vt 0.2426 0
vt 3.6528 -1.1076
vt -0.3471999 -1.1076
vt 3 -2.196
vt -1 -2.196
vt 2.2962 -3.2472
vt -1.7038 -3.2472
vt 1.5528 -4.2426
vt -2.4472 -4.2426
vt 0.783 -5.1654
vt -3.217 -5.1654
vt 0 -6
vt -10 -6
vt -5.9484 -6.7314
vt -9.9484 -6.7314
vt -5.7954 -7.3482
vt -9.795401 -7.3482
vt -5.5434 -7.8396
vt -9.5434 -7.8396
vt -5.196 -8.196
vt -9.196 -8.196
vt -4.7604 -8.4132
vt -8.7604 -8.4132
vt -4.2426 -8.4852
vt -8.242599 -8.4852
vt -4.7604 -8.4132
vt -8.7604 -8.4132
vt -5.196 -8.196
vt -9.196 -8.196
vt -5.5434 -7.8396
vt -9.5434 -7.8396
vt -5.7954 -7.3482
vt -9.795401 -7.3482
vt -5.9484 -6.7314
vt -9.9484 -6.7314
vt -6 -6
vt -4 -6
vt 0.783 -5.1654
vt -3.217 -5.1654
vt 1.5528 -4.2426
vt -2.4472 -4.2426
vt 2.2962 -3.2472
vt -1.7038 -3.2472
vt 3 -2.196
vt -1 -2.196
vt 3.6528 -1.1076
vt -0.3471999 -1.1076
vt 4.2426 0
vt 0.2426 0
vt 4.7604 1.1076
vt 0.7603998 1.1076
vt 5.196 2.196
vt 1.196 2.196
vt 5.5434 3.2472
vt 1.5434 3.2472
vt 5.7954 4.2426
vt 1.7954 4.2426
vt 5.9484 5.1654
vt 1.9484 5.1654
vt 6 6
vt 2 6
vt 5.9484 6.7314
vt 1.9484 6.7314
vt 5.7954 7.3482
vt 1.7954 7.3482
vt 5.5434 7.8396
vt 1.5434 7.8396
vt 5.196 8.196
vt 1.196 8.196
vt 4.7604 8.4132
vt 0.7603998 8.4132
vt 4.2426 8.4852
vt 0.2426 8.4852
vt 4.7604 8.4132
vt 0.7603998 8.4132
vt 5.196 8.196
vt 1.196 8.196
vt 5.5434 7.8396
vt 1.5434 7.8396
vt 5.7954 7.3482
vt 1.7954 7.3482
vt 5.9484 6.7314
vt 1.9484 6.7314
vt -4 0
vt -4.522 -0.03439999
vt -4.783 1.9484
vt -4 2
vt -5.0352 -0.1364
vt -5.5528 1.7954
vt -5.5308 -0.3044
vt -6.2962 1.5434
vt -6 -0.536
vt -7 1.196
vt -6.4352 -0.8264
vt -7.6528 0.7603998
vt -6.8284 -1.1716
vt -8.242599 0.2426
vt -7.1736 -1.5648
vt -8.7604 -0.3471999
vt -7.464 -2
vt -9.196 -1
vt -7.6956 -2.4692
vt -9.5434 -1.7038
vt -7.8636 -2.9648
vt -9.795401 -2.4472
vt -7.9656 -3.478
vt -9.9484 -3.217
vt -8 -4
vt -10 -4
vt -7.9656 -4.522
vt -9.9484 -4.783
vt -7.8636 -5.0352
vt -9.795401 -5.5528
vt -7.6956 -5.5308
vt -9.5434 -6.2962
vt -7.464 -6
vt -9.196 -7
vt -7.1736 -6.4352
vt -8.7604 -7.6528
vt -6.8284 -6.8284
vt -8.242599 -8.242599
vt -6.4352 -7.1736
vt -7.6528 -8.7604
vt -6 -7.464
vt -7 -9.196
vt -5.5308 -7.6956
vt -6.2962 -9.5434
vt -5.0352 -7.8636
vt -5.5528 -9.795401
vt -4.522 -7.9656
vt -4.783 -9.9484
vt -4 -8
vt -4 -10
vt -3.478 -7.9656
vt -3.217 -9.9484
vt -2.9648 -7.8636
vt -2.4472 -9.795401
vt -2.4692 -7.6956
vt -1.7038 -9.5434
vt -2 -7.464
vt -1 -9.196
vt -1.5648 -7.1736
vt -0.3471999 -8.7604
vt -1.1716 -6.8284
vt 0.2426 -8.242599
vt -0.8264 -6.4352
vt 0.7603998 -7.6528
vt -0.536 -6
vt 1.196 -7
vt -0.3044 -5.5308
vt 1.5434 -6.2962
vt -0.1364 -5.0352
vt 1.7954 -5.5528
vt -0.03439999 -4.522
vt 1.9484 -4.783
vt 0 -4
vt 2 -4
vt -0.03439999 -3.478
vt 1.9484 -3.217
vt -0.1364 -2.9648
vt 1.7954 -2.4472
vt -0.3044 -2.4692
vt 1.5434 -1.7038
vt -0.536 -2
vt 1.196 -1
vt -0.8264 -1.5648
vt 0.7603998 -0.3471999
vt -1.1716 -1.1716
vt 0.2426 0.2426
vt -1.5648 -0.8264
vt -0.3471999 0.7603998
vt -2 -0.536
vt -1 1.196
vt -2.4692 -0.3044
vt -1.7038 1.5434
vt -2.9648 -0.1364
vt -2.4472 1.7954
vt -3.478 -0.03439999
vt -3.217 1.9484
vt 3.217 5.1654
vt 10 6
vt 8 6
vt 7.217 5.1654
vt 2.4472 4.2426
vt 6.4472 4.2426
vt 1.7038 3.2472
vt 5.7038 3.2472
vt 1 2.196
vt 5 2.196
vt 0.3471999 1.1076
vt 4.3472 1.1076
vt -0.2426 0
vt 3.7574 0
vt -0.7603998 -1.1076
vt 3.2396 -1.1076
vt -1.196 -2.196
vt 2.804 -2.196
vt -1.5434 -3.2472
vt 2.4566 -3.2472
vt -1.7954 -4.2426
vt 2.2046 -4.2426
vt -1.9484 -5.1654
vt 2.0516 -5.1654
vt -2 -6
vt 2 -6
vt -1.9484 -6.7314
vt 2.0516 -6.7314
vt -1.7954 -7.3482
vt 2.2046 -7.3482
vt -1.5434 -7.8396
vt 2.4566 -7.8396
vt -1.196 -8.196
vt 2.804 -8.196
vt -0.7603998 -8.4132
vt 3.2396 -8.4132
vt -0.2426 -8.4852
vt 3.7574 -8.4852
vt -0.7603998 -8.4132
vt 3.2396 -8.4132
vt -1.196 -8.196
vt 2.804 -8.196
vt -1.5434 -7.8396
vt 2.4566 -7.8396
vt -1.7954 -7.3482
vt 2.2046 -7.3482
vt -1.9484 -6.7314
vt 2.0516 -6.7314
vt -2 -6
vt 2 -6
vt -1.9484 -5.1654
vt 2.0516 -5.1654
vt -1.7954 -4.2426
vt 2.2046 -4.2426
vt -1.5434 -3.2472
vt 2.4566 -3.2472
vt -1.196 -2.196
vt 2.804 -2.196
vt -0.7603998 -1.1076
vt 3.2396 -1.1076
vt -0.2426 0
vt 3.7574 0
vt 0.3471999 1.1076
vt 4.3472 1.1076
vt 1 2.196
vt 5 2.196
vt 1.7038 3.2472
vt 5.7038 3.2472
vt 2.4472 4.2426
vt 6.4472 4.2426
vt 3.217 5.1654
vt 7.217 5.1654
vt 4 6
vt 14 6
vt 9.9484 6.7314
vt 13.9484 6.7314
vt 9.795401 7.3482
vt 13.7954 7.3482
vt 9.5434 7.8396
vt 13.5434 7.8396
vt 9.196 8.196
vt 13.196 8.196
vt 8.7604 8.4132
vt 12.7604 8.4132
vt 8.242599 8.4852
vt 12.2426 8.4852
vt 8.7604 8.4132
vt 12.7604 8.4132
vt 9.196 8.196
vt 13.196 8.196
vt 9.5434 7.8396
vt 13.5434 7.8396
vt 9.795401 7.3482
vt 13.7954 7.3482
vt 9.9484 6.7314
vt 13.9484 6.7314
vt 11.9312 6.8872
vt 12 8
vt 16 8
vt 15.9312 6.8872
vt 11.7272 5.6568
vt 15.7272 5.6568
vt 11.3912 4.3296
vt 15.3912 4.3296
vt 10.928 2.928
vt 14.928 2.928
vt 10.3472 1.4768
vt 14.3472 1.4768
vt 9.656799 0
vt 13.6568 0
vt 8.870399 -1.4768
vt 12.8704 -1.4768
vt 8 -2.928
vt 12 -2.928
vt 7.0616 -4.3296
vt 11.0616 -4.3296
vt 6.0704 -5.6568
vt 10.0704 -5.6568
vt 5.044 -6.8872
vt 9.044 -6.8872
vt 4 -8
vt 0 -8
vt -3.9312 -8.9752
vt 0.06879997 -8.9752
vt -3.7272 -9.7976
vt 0.2728 -9.7976
vt -3.3912 -10.4528
vt 0.6087999 -10.4528
vt -2.928 -10.928
vt 1.072 -10.928
vt -2.3472 -11.2176
vt 1.6528 -11.2176
vt -1.6568 -11.3136
vt 2.3432 -11.3136
vt -2.3472 -11.2176
vt 1.6528 -11.2176
vt -2.928 -10.928
vt 1.072 -10.928
vt -3.3912 -10.4528
vt 0.6087999 -10.4528
vt -3.7272 -9.7976
vt 0.2728 -9.7976
vt -3.9312 -8.9752
vt 0.06879997 -8.9752
vt -4 -8
vt 8 -8
vt 5.044 -6.8872
vt 9.044 -6.8872
vt 6.0704 -5.6568
vt 10.0704 -5.6568
vt 7.0616 -4.3296
vt 11.0616 -4.3296
vt 8 -2.928
vt 12 -2.928
vt 8.870399 -1.4768
vt 12.8704 -1.4768
vt 9.656799 0
vt 13.6568 0
vt 10.3472 1.4768
vt 14.3472 1.4768
vt 10.928 2.928
vt 14.928 2.928
vt 11.3912 4.3296
vt 15.3912 4.3296
vt 11.7272 5.6568
vt 15.7272 5.6568
vt 11.9312 6.8872
vt 15.9312 6.8872
vt 12 8
vt 16 8
vt 11.9312 8.9752
vt 15.9312 8.9752
vt 11.7272 9.7976
vt 15.7272 9.7976
vt 11.3912 10.4528
vt 15.3912 10.4528
vt 10.928 10.928
vt 14.928 10.928
vt 10.3472 11.2176
vt 14.3472 11.2176
vt 9.656799 11.3136
vt 13.6568 11.3136
vt 10.3472 11.2176
vt 14.3472 11.2176
vt 10.928 10.928
vt 14.928 10.928
vt 11.3912 10.4528
vt 15.3912 10.4528
vt 11.7272 9.7976
vt 15.7272 9.7976
vt 11.9312 8.9752
vt 15.9312 8.9752
vt 8 14
vt 7.217 13.9484
vt 6.956 15.9312
vt 8 16
vt 6.4472 13.7954
vt 5.9296 15.7272
vt 5.7038 13.5434
vt 4.9384 15.3912
vt 5 13.196
vt 4 14.928
vt 4.3472 12.7604
vt 3.1296 14.3472
vt 3.7574 12.2426
vt 2.3432 13.6568
vt 3.2396 11.6528
vt 1.6528 12.8704
vt 2.804 11
vt 1.072 12
vt 2.4566 10.2962
vt 0.6087999 11.0616
vt 2.2046 9.5528
vt 0.2728 10.0704
vt 2.0516 8.783
vt 0.06879997 9.044
vt 2 8
vt 0 8
vt 2.0516 7.217
vt 0.06879997 6.956
vt 2.2046 6.4472
vt 0.2728 5.9296
vt 2.4566 5.7038
vt 0.6087999 4.9384
vt 2.804 5
vt 1.072 4
vt 3.2396 4.3472
vt 1.6528 3.1296
vt 3.7574 3.7574
vt 2.3432 2.3432
vt 4.3472 3.2396
vt 3.1296 1.6528
vt 5 2.804
vt 4 1.072
vt 5.7038 2.4566
vt 4.9384 0.6087999
vt 6.4472 2.2046
vt 5.9296 0.2728
vt 7.217 2.0516
vt 6.956 0.06879997
vt 8 2
vt 8 0
vt 8.783 2.0516
vt 9.044 0.06879997
vt 9.5528 2.2046
vt 10.0704 0.2728
vt 10.2962 2.4566
vt 11.0616 0.6087999
vt 11 2.804
vt 12 1.072
vt 11.6528 3.2396
vt 12.8704 1.6528
vt 12.2426 3.7574
vt 13.6568 2.3432
vt 12.7604 4.3472
vt 14.3472 3.1296
vt 13.196 5
vt 14.928 4
vt 13.5434 5.7038
vt 15.3912 4.9384
vt 13.7954 6.4472
vt 15.7272 5.9296
vt 13.9484 7.217
vt 15.9312 6.956
vt 14 8
vt 16 8
vt 13.9484 8.783
vt 15.9312 9.044
vt 13.7954 9.5528
vt 15.7272 10.0704
vt 13.5434 10.2962
vt 15.3912 11.0616
vt 13.196 11
vt 14.928 12
vt 12.7604 11.6528
vt 14.3472 12.8704
vt 12.2426 12.2426
vt 13.6568 13.6568
vt 11.6528 12.7604
vt 12.8704 14.3472
vt 11 13.196
vt 12 14.928
vt 10.2962 13.5434
vt 11.0616 15.3912
vt 9.5528 13.7954
vt 10.0704 15.7272
vt 8.783 13.9484
vt 9.044 15.9312
vt 20 -12
vt 20 20
vt -12 20
vt -12 -12
vt -12 0
vt -8 0
vt -8 -32
vt -12 -32
vt -12 -32
vt -8 -32
vt -8 0
vt -12 0
vt 20 0
vt 24 0
vt 24 32
vt 20 32
vt 20 32
vt 24 32
vt 24 0
vt 20 0
vt -11 -11
vt -8 -8
vt -8 24
vt -11 27
vt 27 -11
vt 24 -8
vt 27 27
vt 24 24
vt -12 0
vt -11 0
vt -11 -38
vt -12 -38
vt -12 -38
vt -11 -38
vt -11 0
vt -12 0
vt 26 0
vt 27 0
vt 27 38
vt 26 38
vt 26 38
vt 27 38
vt 27 0
vt 26 0
vt -13 -13
vt -12 -12
vt -12 26
vt -13 27
vt 27 -13
vt 26 -12
vt 27 27
vt 26 26
vt -20 0
vt -13 0
vt -13 -40
vt -20 -40
vt -20 -40
vt -13 -40
vt -13 0
vt -20 0
vt 20 0
vt 27 0
vt 27 40
vt 20 40
vt 20 40
vt 27 40
vt 27 0
vt 20 0
vt -20 -20
vt -20 20
vt 20 20
vt 20 -20
usemtl 40
f 1/1/1 2/2/2 3/3/3
f 3/3/3 4/4/4 1/1/1
f 5/5/5 1/1/1 4/4/4
f 4/4/4 6/6/6 5/5/5
f 7/7/7 5/5/5 6/6/6
f 6/6/6 8/8/8 7/7/7
f 9/9/9 7/7/7 8/8/8
f 8/8/8 10/10/10 9/9/9
f 11/11/11 9/9/9 10/10/10
f 10/10/10 12/12/12 11/11/11
f 13/13/13 11/11/11 12/12/12
f 12/12/12 14/14/14 13/13/13
f 15/15/15 13/13/13 14/14/14
f 14/14/14 16/16/16 15/15/15
f 17/17/17 15/15/15 16/16/16
f 16/16/16 18/18/18 17/17/17
f 19/19/19 17/17/17 18/18/18
f 18/18/18 20/20/20 19/19/19
f 21/21/21 19/19/19 20/20/20
f 20/20/20 22/22/22 21/21/21
f 23/23/23 21/21/21 22/22/22
f 22/22/22 24/24/24 23/23/23
f 25/25/25 23/23/23 24/24/24
f 24/24/24 26/26/26 25/25/25
f 27/27/27 25/25/25 26/26/26
f 26/26/26 28/28/28 27/27/27
f 29/29/29 27/27/27 28/28/28
f 28/28/28 30/30/30 29/29/29
f 31/31/31 29/29/29 30/30/30
f 30/30/30 32/32/32 31/31/31
f 33/33/33 31/31/31 32/32/32
f 32/32/32 34/34/34 33/33/33
f 35/35/35 33/33/33 34/34/34
f 34/34/34 36/36/36 35/35/35
f 37/37/37 35/35/35 36/36/36
f 36/36/36 38/38/38 37/37/37
f 39/39/39 37/37/37 38/38/38
f 38/38/38 40/40/40 39/39/39
f 41/41/41 39/39/39 40/40/40
f 40/40/40 42/42/42 41/41/41
f 43/43/43 41/41/41 42/42/42
f 42/42/42 44/44/44 43/43/43
f 45/45/45 43/43/43 44/44/44
f 44/44/44 46/46/46 45/45/45
f 47/47/47 45/45/45 46/46/46
f 46/46/46 48/48/48 47/47/47
f 49/49/49 47/47/47 48/48/48
f 48/48/48 50/50/50 49/49/49
f 51/51/51 49/49/49 50/50/50
f 50/50/50 52/52/52 51/51/51
f 53/53/53 51/51/51 52/52/52
f 52/52/52 54/54/54 53/53/53
f 55/55/55 53/53/53 54/54/54
f 54/54/54 56/56/56 55/55/55
f 57/57/57 55/55/55 56/56/56
f 56/56/56 58/58/58 57/57/57
f 59/59/59 57/57/57 58/58/58
f 58/58/58 60/60/60 59/59/59
f 61/61/61 59/59/59 60/60/60
f 60/60/60 62/62/62 61/61/61
f 63/63/63 61/61/61 62/62/62
f 62/62/62 64/64/64 63/63/63
f 65/65/65 63/63/63 64/64/64
f 64/64/64 66/66/66 65/65/65
f 67/67/67 65/65/65 66/66/66
f 66/66/66 68/68/68 67/67/67
f 69/69/69 67/67/67 68/68/68
f 68/68/68 70/70/70 69/69/69
f 71/71/71 69/69/69 70/70/70
f 70/70/70 72/72/72 71/71/71
f 73/73/73 71/71/71 72/72/72
f 72/72/72 74/74/74 73/73/73
f 75/75/75 73/73/73 74/74/74
f 74/74/74 76/76/76 75/75/75
f 77/77/77 75/75/75 76/76/76
f 76/76/76 78/78/78 77/77/77
f 79/79/79 77/77/77 78/78/78
f 78/78/78 80/80/80 79/79/79
f 81/81/81 79/79/79 80/80/80
f 80/80/80 82/82/82 81/81/81
f 83/83/83 81/81/81 82/82/82
f 82/82/82 84/84/84 83/83/83
f 85/85/85 83/83/83 84/84/84
f 84/84/84 86/86/86 85/85/85
f 87/87/87 85/85/85 86/86/86
f 86/86/86 88/88/88 87/87/87
f 89/89/89 87/87/87 88/88/88
f 88/88/88 90/90/90 89/89/89
f 91/91/91 89/89/89 90/90/90
f 90/90/90 92/92/92 91/91/91
f 93/93/93 91/91/91 92/92/92
f 92/92/92 94/94/94 93/93/93
f 95/95/95 93/93/93 94/94/94
f 94/94/94 96/96/96 95/95/95
f 2/2/2 95/95/95 96/96/96
f 96/96/96 3/3/3 2/2/2
f 99/99/99 98/98/98 97/97/97
f 97/97/97 100/100/100 99/99/99
f 100/100/100 97/97/97 101/101/101
f 101/101/101 102/102/102 100/100/100
f 102/102/102 101/101/101 103/103/103
f 103/103/103 104/104/104 102/102/102
f 104/104/104 103/103/103 105/105/105
f 105/105/105 106/106/106 104/104/104
f 106/106/106 105/105/105 107/107/107
f 107/107/107 108/108/108 106/106/106
f 108/108/108 107/107/107 109/109/109
f 109/109/109 110/110/110 108/108/108
f 110/110/110 109/109/109 111/111/111
f 111/111/111 112/112/112 110/110/110
f 112/112/112 111/111/111 113/113/113
f 113/113/113 114/114/114 112/112/112
f 114/114/114 113/113/113 115/115/115
f 115/115/115 116/116/116 114/114/114
f 116/116/116 115/115/115 117/117/117
f 117/117/117 118/118/118 116/116/116
f 118/118/118 117/117/117 119/119/119
f 119/119/119 120/120/120 118/118/118
f 120/120/120 119/119/119 121/121/121
f 121/121/121 122/122/122 120/120/120
f 122/122/122 121/121/121 123/123/123
f 123/123/123 124/124/124 122/122/122
f 124/124/124 123/123/123 125/125/125
f 125/125/125 126/126/126 124/124/124
f 126/126/126 125/125/125 127/127/127
f 127/127/127 128/128/128 126/126/126
f 128/128/128 127/127/127 129/129/129
f 129/129/129 130/130/130 128/128/128
f 130/130/130 129/129/129 131/131/131
f 131/131/131 132/132/132 130/130/130
f 132/132/132 131/131/131 133/133/133
f 133/133/133 134/134/134 132/132/132
f 134/134/134 133/133/133 135/135/135
f 135/135/135 136/136/136 134/134/134
f 136/136/136 135/135/135 137/137/137
f 137/137/137 138/138/138 136/136/136
f 138/138/138 137/137/137 139/139/139
f 139/139/139 140/140/140 138/138/138
f 140/140/140 139/139/139 141/141/141
f 141/141/141 142/142/142 140/140/140
f 142/142/142 141/141/141 143/143/143
f 143/143/143 144/144/144 142/142/142
f 144/144/144 143/143/143 145/145/145
f 145/145/145 146/146/146 144/144/144
f 146/146/146 145/145/145 147/147/147
f 147/147/147 148/148/148 146/146/146
f 148/148/148 147/147/147 149/149/149
f 149/149/149 150/150/150 148/148/148
f 150/150/150 149/149/149 151/151/151
f 151/151/151 152/152/152 150/150/150
f 152/152/152 151/151/151 153/153/153
f 153/153/153 154/154/154 152/152/152
f 154/154/154 153/153/153 155/155/155
f 155/155/155 156/156/156 154/154/154
f 156/156/156 155/155/155 157/157/157
f 157/157/157 158/158/158 156/156/156
f 158/158/158 157/157/157 159/159/159
f 159/159/159 160/160/160 158/158/158
f 160/160/160 159/159/159 161/161/161
f 161/161/161 162/162/162 160/160/160
f 162/162/162 161/161/161 163/163/163
f 163/163/163 164/164/164 162/162/162
f 164/164/164 163/163/163 165/165/165
f 165/165/165 166/166/166 164/164/164
f 166/166/166 165/165/165 167/167/167
f 167/167/167 168/168/168 166/166/166
f 168/168/168 167/167/167 169/169/169
f 169/169/169 170/170/170 168/168/168
f 170/170/170 169/169/169 171/171/171
f 171/171/171 172/172/172 170/170/170
f 172/172/172 171/171/171 173/173/173
f 173/173/173 174/174/174 172/172/172
f 174/174/174 173/173/173 175/175/175
f 175/175/175 176/176/176 174/174/174
f 176/176/176 175/175/175 177/177/177
f 177/177/177 178/178/178 176/176/176
f 178/178/178 177/177/177 179/179/179
f 179/179/179 180/180/180 178/178/178
f 180/180/180 179/179/179 181/181/181
f 181/181/181 182/182/182 180/180/180
f 182/182/182 181/181/181 183/183/183
f 183/183/183 184/184/184 182/182/182
f 184/184/184 183/183/183 185/185/185
f 185/185/185 186/186/186 184/184/184
f 186/186/186 185/185/185 187/187/187
f 187/187/187 188/188/188 186/186/186
f 188/188/188 187/187/187 189/189/189
f 189/189/189 190/190/190 188/188/188
f 190/190/190 189/189/189 191/191/191
f 191/191/191 192/192/192 190/190/190
f 192/192/192 191/191/191 98/98/98
f 98/98/98 99/99/99 192/192/192
f 195/195/195 194/194/194 193/193/193
f 193/193/193 196/196/196 195/195/195
f 198/198/198 197/197/197 194/194/194
f 194/194/194 195/195/195 198/198/198
f 200/200/200 199/199/199 197/197/197
f 197/197/197 198/198/198 200/200/200
f 202/202/202 201/201/201 199/199/199
f 199/199/199 200/200/200 202/202/202
f 204/204/204 203/203/203 201/201/201
f 201/201/201 202/202/202 204/204/204
f 206/206/206 205/205/205 203/203/203
f 203/203/203 204/204/204 206/206/206
f 208/208/208 207/207/207 205/205/205
f 205/205/205 206/206/206 208/208/208
f 210/210/210 209/209/209 207/207/207
f 207/207/207 208/208/208 210/210/210
f 212/212/212 211/211/211 209/209/209
f 209/209/209 210/210/210 212/212/212
f 214/214/214 213/213/213 211/211/211
f 211/211/211 212/212/212 214/214/214
f 216/216/216 215/215/215 213/213/213
f 213/213/213 214/214/214 216/216/216
f 218/218/218 217/217/217 215/215/215
f 215/215/215 216/216/216 218/218/218
f 220/220/220 219/219/219 217/217/217
f 217/217/217 218/218/218 220/220/220
f 222/222/222 221/221/221 219/219/219
f 219/219/219 220/220/220 222/222/222
f 224/224/224 223/223/223 221/221/221
f 221/221/221 222/222/222 224/224/224
f 226/226/226 225/225/225 223/223/223
f 223/223/223 224/224/224 226/226/226
f 228/228/228 227/227/227 225/225/225
f 225/225/225 226/226/226 228/228/228
f 230/230/230 229/229/229 227/227/227
f 227/227/227 228/228/228 230/230/230
f 232/232/232 231/231/231 229/229/229
f 229/229/229 230/230/230 232/232/232
f 234/234/234 233/233/233 231/231/231
f 231/231/231 232/232/232 234/234/234
f 236/236/236 235/235/235 233/233/233
f 233/233/233 234/234/234 236/236/236
f 238/238/238 237/237/237 235/235/235
f 235/235/235 236/236/236 238/238/238
f 240/240/240 239/239/239 237/237/237
f 237/237/237 238/238/238 240/240/240
f 242/242/242 241/241/241 239/239/239
f 239/239/239 240/240/240 242/242/242
f 244/244/244 243/243/243 241/241/241
f 241/241/241 242/242/242 244/244/244
f 246/246/246 245/245/245 243/243/243
f 243/243/243 244/244/244 246/246/246
f 248/248/248 247/247/247 245/245/245
f 245/245/245 246/246/246 248/248/248
f 250/250/250 249/249/249 247/247/247
f 247/247/247 248/248/248 250/250/250
f 252/252/252 251/251/251 249/249/249
f 249/249/249 250/250/250 252/252/252
f 254/254/254 253/253/253 251/251/251
f 251/251/251 252/252/252 254/254/254
f 256/256/256 255/255/255 253/253/253
f 253/253/253 254/254/254 256/256/256
f 258/258/258 257/257/257 255/255/255
f 255/255/255 256/256/256 258/258/258
f 260/260/260 259/259/259 257/257/257
f 257/257/257 258/258/258 260/260/260
f 262/262/262 261/261/261 259/259/259
f 259/259/259 260/260/260 262/262/262
f 264/264/264 263/263/263 261/261/261
f 261/261/261 262/262/262 264/264/264
f 266/266/266 265/265/265 263/263/263
f 263/263/263 264/264/264 266/266/266
f 268/268/268 267/267/267 265/265/265
f 265/265/265 266/266/266 268/268/268
f 270/270/270 269/269/269 267/267/267
f 267/267/267 268/268/268 270/270/270
f 272/272/272 271/271/271 269/269/269
f 269/269/269 270/270/270 272/272/272
f 274/274/274 273/273/273 271/271/271
f 271/271/271 272/272/272 274/274/274
f 276/276/276 275/275/275 273/273/273
f 273/273/273 274/274/274 276/276/276
f 278/278/278 277/277/277 275/275/275
f 275/275/275 276/276/276 278/278/278
f 280/280/280 279/279/279 277/277/277
f 277/277/277 278/278/278 280/280/280
f 282/282/282 281/281/281 279/279/279
f 279/279/279 280/280/280 282/282/282
f 284/284/284 283/283/283 281/281/281
f 281/281/281 282/282/282 284/284/284
f 286/286/286 285/285/285 283/283/283
f 283/283/283 284/284/284 286/286/286
f 288/288/288 287/287/287 285/285/285
f 285/285/285 286/286/286 288/288/288
f 196/196/196 193/193/193 287/287/287
f 287/287/287 288/288/288 196/196/196
f 291/291/291 290/290/290 289/289/289
f 289/289/289 292/292/292 291/291/291
f 292/292/292 289/289/289 293/293/293
f 293/293/293 294/294/294 292/292/292
f 294/294/294 293/293/293 295/295/295
f 295/295/295 296/296/296 294/294/294
f 296/296/296 295/295/295 297/297/297
f 297/297/297 298/298/298 296/296/296
f 298/298/298 297/297/297 299/299/299
f 299/299/299 300/300/300 298/298/298
f 300/300/300 299/299/299 301/301/301
f 301/301/301 302/302/302 300/300/300
f 302/302/302 301/301/301 303/303/303
f 303/303/303 304/304/304 302/302/302
f 304/304/304 303/303/303 305/305/305
f 305/305/305 306/306/306 304/304/304
f 306/306/306 305/305/305 307/307/307
f 307/307/307 308/308/308 306/306/306
f 308/308/308 307/307/307 309/309/309
f 309/309/309 310/310/310 308/308/308
f 310/310/310 309/309/309 311/311/311
f 311/311/311 312/312/312 310/310/310
f 312/312/312 311/311/311 313/313/313
f 313/313/313 314/314/314 312/312/312
f 314/314/314 313/313/313 315/315/315
f 315/315/315 316/316/316 314/314/314
f 316/316/316 315/315/315 317/317/317
f 317/317/317 318/318/318 316/316/316
f 318/318/318 317/317/317 319/319/319
f 319/319/319 320/320/320 318/318/318
f 320/320/320 319/319/319 321/321/321
f 321/321/321 322/322/322 320/320/320
f 322/322/322 321/321/321 323/323/323
f 323/323/323 324/324/324 322/322/322
f 324/324/324 323/323/323 325/325/325
f 325/325/325 326/326/326 324/324/324
f 326/326/326 325/325/325 327/327/327
f 327/327/327 328/328/328 326/326/326
f 328/328/328 327/327/327 329/329/329
f 329/329/329 330/330/330 328/328/328
f 330/330/330 329/329/329 331/331/331
f 331/331/331 332/332/332 330/330/330
f 332/332/332 331/331/331 333/333/333
f 333/333/333 334/334/334 332/332/332
f 334/334/334 333/333/333 335/335/335
f 335/335/335 336/336/336 334/334/334
f 336/336/336 335/335/335 337/337/337
f 337/337/337 338/338/338 336/336/336
f 338/338/338 337/337/337 339/339/339
f 339/339/339 340/340/340 338/338/338
f 340/340/340 339/339/339 341/341/341
f 341/341/341 342/342/342 340/340/340
f 342/342/342 341/341/341 343/343/343
f 343/343/343 344/344/344 342/342/342
f 344/344/344 343/343/343 345/345/345
f 345/345/345 346/346/346 344/344/344
f 346/346/346 345/345/345 347/347/347
f 347/347/347 348/348/348 346/346/346
f 348/348/348 347/347/347 349/349/349
f 349/349/349 350/350/350 348/348/348
f 350/350/350 349/349/349 351/351/351
f 351/351/351 352/352/352 350/350/350
f 352/352/352 351/351/351 353/353/353
f 353/353/353 354/354/354 352/352/352
f 354/354/354 353/353/353 355/355/355
f 355/355/355 356/356/356 354/354/354
f 356/356/356 355/355/355 357/357/357
f 357/357/357 358/358/358 356/356/356
f 358/358/358 357/357/357 359/359/359
f 359/359/359 360/360/360 358/358/358
f 360/360/360 359/359/359 361/361/361
f 361/361/361 362/362/362 360/360/360
f 362/362/362 361/361/361 363/363/363
f 363/363/363 364/364/364 362/362/362
f 364/364/364 363/363/363 365/365/365
f 365/365/365 366/366/366 364/364/364
f 366/366/366 365/365/365 367/367/367
f 367/367/367 368/368/368 366/366/366
f 368/368/368 367/367/367 369/369/369
f 369/369/369 370/370/370 368/368/368
f 370/370/370 369/369/369 371/371/371
f 371/371/371 372/372/372 370/370/370
f 372/372/372 371/371/371 373/373/373
f 373/373/373 374/374/374 372/372/372
f 374/374/374 373/373/373 375/375/375
f 375/375/375 376/376/376 374/374/374
f 376/376/376 375/375/375 377/377/377
f 377/377/377 378/378/378 376/376/376
f 378/378/378 377/377/377 379/379/379
f 379/379/379 380/380/380 378/378/378
f 380/380/380 379/379/379 381/381/381
f 381/381/381 382/382/382 380/380/380
f 382/382/382 381/381/381 383/383/383
f 383/383/383 384/384/384 382/382/382
f 384/384/384 383/383/383 290/290/290
f 290/290/290 291/291/291 384/384/384
f 385/385/385 386/386/386 387/387/387
f 387/387/387 388/388/388 385/385/385
f 389/389/389 385/385/385 388/388/388
f 388/388/388 390/390/390 389/389/389
f 391/391/391 389/389/389 390/390/390
f 390/390/390 392/392/392 391/391/391
f 393/393/393 391/391/391 392/392/392
f 392/392/392 394/394/394 393/393/393
f 395/395/395 393/393/393 394/394/394
f 394/394/394 396/396/396 395/395/395
f 397/397/397 395/395/395 396/396/396
f 396/396/396 398/398/398 397/397/397
f 399/399/399 397/397/397 398/398/398
f 398/398/398 400/400/400 399/399/399
f 401/401/401 399/399/399 400/400/400
f 400/400/400 402/402/402 401/401/401
f 403/403/403 401/401/401 402/402/402
f 402/402/402 404/404/404 403/403/403
f 405/405/405 403/403/403 404/404/404
f 404/404/404 406/406/406 405/405/405
f 407/407/407 405/405/405 406/406/406
f 406/406/406 408/408/408 407/407/407
f 409/409/409 407/407/407 408/408/408
f 408/408/408 410/410/410 409/409/409
f 411/411/411 409/409/409 410/410/410
f 410/410/410 412/412/412 411/411/411
f 413/413/413 411/411/411 412/412/412
f 412/412/412 414/414/414 413/413/413
f 415/415/415 413/413/413 414/414/414
f 414/414/414 416/416/416 415/415/415
f 417/417/417 415/415/415 416/416/416
f 416/416/416 418/418/418 417/417/417
f 419/419/419 417/417/417 418/418/418
f 418/418/418 420/420/420 419/419/419
f 421/421/421 419/419/419 420/420/420
f 420/420/420 422/422/422 421/421/421
f 423/423/423 421/421/421 422/422/422
f 422/422/422 424/424/424 423/423/423
f 425/425/425 423/423/423 424/424/424
f 424/424/424 426/426/426 425/425/425
f 427/427/427 425/425/425 426/426/426
f 426/426/426 428/428/428 427/427/427
f 429/429/429 427/427/427 428/428/428
f 428/428/428 430/430/430 429/429/429
f 431/431/431 429/429/429 430/430/430
f 430/430/430 432/432/432 431/431/431
f 433/433/433 431/431/431 432/432/432
f 432/432/432 434/434/434 433/433/433
f 435/435/435 433/433/433 434/434/434
f 434/434/434 436/436/436 435/435/435
f 437/437/437 435/435/435 436/436/436
f 436/436/436 438/438/438 437/437/437
f 439/439/439 437/437/437 438/438/438
f 438/438/438 440/440/440 439/439/439
f 441/441/441 439/439/439 440/440/440
f 440/440/440 442/442/442 441/441/441
f 443/443/443 441/441/441 442/442/442
f 442/442/442 444/444/444 443/443/443
f 445/445/445 443/443/443 444/444/444
f 444/444/444 446/446/446 445/445/445
f 447/447/447 445/445/445 446/446/446
f 446/446/446 448/448/448 447/447/447
f 449/449/449 447/447/447 448/448/448
f 448/448/448 450/450/450 449/449/449
f 451/451/451 449/449/449 450/450/450
f 450/450/450 452/452/452 451/451/451
f 453/453/453 451/451/451 452/452/452
f 452/452/452 454/454/454 453/453/453
f 455/455/455 453/453/453 454/454/454
f 454/454/454 456/456/456 455/455/455
f 457/457/457 455/455/455 456/456/456
f 456/456/456 458/458/458 457/457/457
f 459/459/459 457/457/457 458/458/458
f 458/458/458 460/460/460 459/459/459
f 461/461/461 459/459/459 460/460/460
f 460/460/460 462/462/462 461/461/461
f 463/463/463 461/461/461 462/462/462
f 462/462/462 464/464/464 463/463/463
f 465/465/465 463/463/463 464/464/464
f 464/464/464 466/466/466 465/465/465
f 467/467/467 465/465/465 466/466/466
f 466/466/466 468/468/468 467/467/467
f 469/469/469 467/467/467 468/468/468
f 468/468/468 470/470/470 469/469/469
f 471/471/471 469/469/469 470/470/470
f 470/470/470 472/472/472 471/471/471
f 473/473/473 471/471/471 472/472/472
f 472/472/472 474/474/474 473/473/473
f 475/475/475 473/473/473 474/474/474
f 474/474/474 476/476/476 475/475/475
f 477/477/477 475/475/475 476/476/476
f 476/476/476 478/478/478 477/477/477
f 479/479/479 477/477/477 478/478/478
f 478/478/478 480/480/480 479/479/479
f 386/386/386 479/479/479 480/480/480
f 480/480/480 387/387/387 386/386/386
f 481/481/481 482/482/482 483/483/483
f 483/483/483 484/484/484 481/481/481
f 482/482/482 485/485/485 486/486/486
f 486/486/486 483/483/483 482/482/482
f 485/485/485 487/487/487 488/488/488
f 488/488/488 486/486/486 485/485/485
f 487/487/487 489/489/489 490/490/490
f 490/490/490 488/488/488 487/487/487
f 489/489/489 491/491/491 492/492/492
f 492/492/492 490/490/490 489/489/489
f 491/491/491 493/493/493 494/494/494
f 494/494/494 492/492/492 491/491/491
f 493/493/493 495/495/495 496/496/496
f 496/496/496 494/494/494 493/493/493
f 495/495/495 497/497/497 498/498/498
f 498/498/498 496/496/496 495/495/495
f 497/497/497 499/499/499 500/500/500
f 500/500/500 498/498/498 497/497/497
f 499/499/499 501/501/501 502/502/502
f 502/502/502 500/500/500 499/499/499
f 501/501/501 503/503/503 504/504/504
f 504/504/504 502/502/502 501/501/501
f 503/503/503 505/505/505 506/506/506
f 506/506/506 504/504/504 503/503/503
f 505/505/505 507/507/507 508/508/508
f 508/508/508 506/506/506 505/505/505
f 507/507/507 509/509/509 510/510/510
f 510/510/510 508/508/508 507/507/507
f 509/509/509 511/511/511 512/512/512
f 512/512/512 510/510/510 509/509/509
f 511/511/511 513/513/513 514/514/514
f 514/514/514 512/512/512 511/511/511
f 513/513/513 515/515/515 516/516/516
f 516/516/516 514/514/514 513/513/513
f 515/515/515 517/517/517 518/518/518
f 518/518/518 516/516/516 515/515/515
f 517/517/517 519/519/519 520/520/520
f 520/520/520 518/518/518 517/517/517
f 519/519/519 521/521/521 522/522/522
f 522/522/522 520/520/520 519/519/519
f 521/521/521 523/523/523 524/524/524
f 524/524/524 522/522/522 521/521/521
f 523/523/523 525/525/525 526/526/526
f 526/526/526 524/524/524 523/523/523
f 525/525/525 527/527/527 528/528/528
f 528/528/528 526/526/526 525/525/525
f 527/527/527 529/529/529 530/530/530
f 530/530/530 528/528/528 527/527/527
f 529/529/529 531/531/531 532/532/532
f 532/532/532 530/530/530 529/529/529
f 531/531/531 533/533/533 534/534/534
f 534/534/534 532/532/532 531/531/531
f 533/533/533 535/535/535 536/536/536
f 536/536/536 534/534/534 533/533/533
f 535/535/535 537/537/537 538/538/538
f 538/538/538 536/536/536 535/535/535
f 537/537/537 539/539/539 540/540/540
f 540/540/540 538/538/538 537/537/537
f 539/539/539 541/541/541 542/542/542
f 542/542/542 540/540/540 539/539/539
f 541/541/541 543/543/543 544/544/544
f 544/544/544 542/542/542 541/541/541
f 543/543/543 545/545/545 546/546/546
f 546/546/546 544/544/544 543/543/543
f 545/545/545 547/547/547 548/548/548
f 548/548/548 546/546/546 545/545/545
f 547/547/547 549/549/549 550/550/550
f 550/550/550 548/548/548 547/547/547
f 549/549/549 551/551/551 552/552/552
f 552/552/552 550/550/550 549/549/549
f 551/551/551 553/553/553 554/554/554
f 554/554/554 552/552/552 551/551/551
f 553/553/553 555/555/555 556/556/556
f 556/556/556 554/554/554 553/553/553
f 555/555/555 557/557/557 558/558/558
f 558/558/558 556/556/556 555/555/555
f 557/557/557 559/559/559 560/560/560
f 560/560/560 558/558/558 557/557/557
f 559/559/559 561/561/561 562/562/562
f 562/562/562 560/560/560 559/559/559
f 561/561/561 563/563/563 564/564/564
f 564/564/564 562/562/562 561/561/561
f 563/563/563 565/565/565 566/566/566
f 566/566/566 564/564/564 563/563/563
f 565/565/565 567/567/567 568/568/568
f 568/568/568 566/566/566 565/565/565
f 567/567/567 569/569/569 570/570/570
f 570/570/570 568/568/568 567/567/567
f 569/569/569 571/571/571 572/572/572
f 572/572/572 570/570/570 569/569/569
f 571/571/571 573/573/573 574/574/574
f 574/574/574 572/572/572 571/571/571
f 573/573/573 575/575/575 576/576/576
f 576/576/576 574/574/574 573/573/573
f 575/575/575 481/481/481 484/484/484
f 484/484/484 576/576/576 575/575/575
f 579/579/579 578/578/578 577/577/577
f 577/577/577 580/580/580 579/579/579
f 583/583/583 582/582/582 581/581/581
f 581/581/581 584/584/584 583/583/583
f 587/587/587 586/586/586 585/585/585
f 585/585/585 588/588/588 587/587/587
f 591/591/591 590/590/590 589/589/589
f 589/589/589 592/592/592 591/591/591
f 595/595/595 594/594/594 593/593/593
f 593/593/593 596/596/596 595/595/595
f 599/599/599 598/598/598 597/597/597
f 597/597/597 600/600/600 599/599/599
f 598/598/598 602/602/602 601/601/601
f 601/601/601 597/597/597 598/598/598
f 602/602/602 604/604/604 603/603/603
f 603/603/603 601/601/601 602/602/602
f 604/604/604 599/599/599 600/600/600
f 600/600/600 603/603/603 604/604/604
f 605/605/605 606/606/606 607/607/607
f 607/607/607 608/608/608 605/605/605
f 609/609/609 610/610/610 611/611/611
f 611/611/611 612/612/612 609/609/609
f 613/613/613 614/614/614 615/615/615
f 615/615/615 616/616/616 613/613/613
f 617/617/617 618/618/618 619/619/619
f 619/619/619 620/620/620 617/617/617
f 623/623/623 622/622/622 621/621/621
f 621/621/621 624/624/624 623/623/623
f 622/622/622 626/626/626 625/625/625
f 625/625/625 621/621/621 622/622/622
f 626/626/626 628/628/628 627/627/627
f 627/627/627 625/625/625 626/626/626
f 628/628/628 623/623/623 624/624/624
f 624/624/624 627/627/627 628/628/628
f 629/629/629 630/630/630 631/631/631
f 631/631/631 632/632/632 629/629/629
f 633/633/633 634/634/634 635/635/635
f 635/635/635 636/636/636 633/633/633
f 637/637/637 638/638/638 639/639/639
f 639/639/639 640/640/640 637/637/637
f 641/641/641 642/642/642 643/643/643
f 643/643/643 644/644/644 641/641/641
f 647/647/647 646/646/646 645/645/645
f 645/645/645 648/648/648 647/647/647
