mtllib plate(jumper)_medium_lavender.mtl
v 8 16.00002 -3.499993
v 8 16.00003 -6.499993
v 8 15.00003 -6.499994
v 8 15.00002 -3.499994
v 8 16.00003 -6.499993
v 4 16.00003 -6.499993
v 4 15.00003 -6.499994
v 8 15.00003 -6.499994
v 8 15.00002 -3.499994
v 4 15.00002 -3.499994
v 4 16.00002 -3.499993
v 8 16.00002 -3.499993
v 8 13.50002 -4.999996
v 4 13.50002 -4.999996
v 4 15.00002 -3.499994
v 8 15.00002 -3.499994
v 8 13.50002 -4.999996
v 8 15.00003 -6.499994
v 4 15.00003 -6.499994
v 4 13.50002 -4.999996
v 8 13.50002 -4.999996
v 8 16.00002 3.500007
v 8 16.00002 -3.499993
v 4 16.00002 -3.499993
v 4 16.00002 3.500007
v 4 16.00002 3.500007
v 4 16.00002 -3.499993
v 4 15.00002 -3.499994
v 4 15.00002 3.500006
v 8 16.00001 6.500007
v 8 16.00002 3.500007
v 8 15.00002 3.500006
v 8 15.00001 6.500006
v 8 16.00002 3.500007
v 4 16.00002 3.500007
v 4 15.00002 3.500006
v 8 15.00002 3.500006
v 8 15.00001 6.500006
v 4 15.00001 6.500006
v 4 16.00001 6.500007
v 8 16.00001 6.500007
v 8 13.50001 5.000004
v 4 13.50001 5.000004
v 4 15.00001 6.500006
v 8 15.00001 6.500006
v 8 13.50001 5.000004
v 8 15.00002 3.500006
v 4 15.00002 3.500006
v 4 13.50001 5.000004
v 8 13.50001 5.000004
v 4 13.50002 -4.999996
v 4 13.50001 5.000004
v 8 4.000015 3.499995
v 8 4.000012 6.499995
v 8 5.000012 6.499996
v 8 5.000015 3.499996
v 8 4.000012 6.499995
v 4 4.000012 6.499995
v 4 5.000012 6.499996
v 8 5.000012 6.499996
v 8 5.000015 3.499996
v 4 5.000015 3.499996
v 4 4.000015 3.499995
v 8 4.000015 3.499995
v 8 6.500014 4.999997
v 4 6.500014 4.999997
v 4 5.000015 3.499996
v 8 5.000015 3.499996
v 8 6.500014 4.999997
v 8 5.000012 6.499996
v 4 5.000012 6.499996
v 4 6.500014 4.999997
v 8 6.500014 4.999997
v 8 4.000023 -3.500005
v 8 4.000015 3.499995
v 4 4.000015 3.499995
v 4 4.000023 -3.500005
v 4 4.000023 -3.500005
v 4 4.000015 3.499995
v 4 5.000015 3.499996
v 4 5.000023 -3.500004
v 8 4.000026 -6.500005
v 8 4.000023 -3.500005
v 8 5.000023 -3.500004
v 8 5.000026 -6.500004
v 8 4.000023 -3.500005
v 4 4.000023 -3.500005
v 4 5.000023 -3.500004
v 8 5.000023 -3.500004
v 8 5.000026 -6.500004
v 4 5.000026 -6.500004
v 4 4.000026 -6.500005
v 8 4.000026 -6.500005
v 8 6.500024 -5.000003
v 4 6.500024 -5.000003
v 4 5.000026 -6.500004
v 8 5.000026 -6.500004
v 8 6.500024 -5.000003
v 8 5.000023 -3.500004
v 4 5.000023 -3.500004
v 4 6.500024 -5.000003
v 8 6.500024 -5.000003
v 4 6.500014 4.999997
v 4 6.500024 -5.000003
v 4 16.00004 -15.99999
v 4 4.000036 -16.00001
v 8 4.000036 -16.00001
v 8 16.00004 -15.99999
v 4 4.000036 -16.00001
v 4 4.000026 -6.500005
v 8 4.000026 -6.500005
v 8 4.000036 -16.00001
v 8 16.00004 -15.99999
v 8 16.00003 -6.499993
v 4 16.00003 -6.499993
v 4 16.00004 -15.99999
v 4 4.000036 -16.00001
v 4 4.000026 -6.500005
v 4 5.000026 -6.500004
v 4 15.00003 -6.499994
v 4 16.00003 -6.499993
v 4 16.00004 -15.99999
v 4 4.000002 15.99999
v 4 16 16.00001
v 8 16 16.00001
v 8 4.000002 15.99999
v 4 16 16.00001
v 4 16.00001 6.500007
v 8 16.00001 6.500007
v 8 16 16.00001
v 8 4.000002 15.99999
v 8 4.000012 6.499995
v 4 4.000012 6.499995
v 4 4.000002 15.99999
v 4 5.000012 6.499996
v 4 4.000012 6.499995
v 4 4.000002 15.99999
v 4 16 16.00001
v 4 16.00001 6.500007
v 4 15.00001 6.500006
v 8 4.000036 -16.00001
v 8 1.000039 -19.00001
v 8 0.9999993 18.99999
v 8 4.000002 15.99999
v 8 19 19.00001
v 8 16 16.00001
v 8 19.00004 -18.99999
v 8 16.00004 -15.99999
v 7 1.000039 -19.00001
v 8 1.000039 -19.00001
v 8 0.9999993 18.99999
v 7 0.9999993 18.99999
v 7 0.9999993 18.99999
v 8 0.9999993 18.99999
v 8 19 19.00001
v 7 19 19.00001
v 7 19 19.00001
v 8 19 19.00001
v 8 19.00004 -18.99999
v 7 19.00004 -18.99999
v 7 19.00004 -18.99999
v 8 19.00004 -18.99999
v 8 1.000039 -19.00001
v 7 1.000039 -19.00001
v 7 -1.748456E-06 19.99999
v 7 0.9999993 18.99999
v 7 1.000039 -19.00001
v 7 3.989543E-05 -20.00001
v 7 20 20.00001
v 7 19 19.00001
v 7 20.00004 -19.99999
v 7 19.00004 -18.99999
v 0 20 20.00001
v 0 20.00004 -19.99999
v 0 3.989543E-05 -20.00001
v 0 -1.748456E-06 19.99999
v 0 3.989543E-05 -20.00001
v 7 3.989543E-05 -20.00001
v 7 -1.748456E-06 19.99999
v 0 -1.748456E-06 19.99999
v 0 -1.748456E-06 19.99999
v 7 -1.748456E-06 19.99999
v 7 20 20.00001
v 0 20 20.00001
v 0 20 20.00001
v 7 20 20.00001
v 7 20.00004 -19.99999
v 0 20.00004 -19.99999
v 0 20.00004 -19.99999
v 7 20.00004 -19.99999
v 7 3.989543E-05 -20.00001
v 0 3.989543E-05 -20.00001
v 0 9.478024 -3.9656
v 0 10.00002 -3.999999
v -4 10.00002 -3.999999
v -4 9.478024 -3.9656
v 0 8.964823 -3.8636
v -4 8.964823 -3.8636
v 0 8.469223 -3.695601
v -4 8.469223 -3.695601
v 0 8.000023 -3.464001
v -4 8.000023 -3.464001
v 0 7.564822 -3.173602
v -4 7.564822 -3.173602
v 0 7.171622 -2.828402
v -4 7.171622 -2.828402
v 0 6.826422 -2.435202
v -4 6.826422 -2.435202
v 0 6.536021 -2.000003
v -4 6.536021 -2.000003
v 0 6.30442 -1.530803
v -4 6.30442 -1.530803
v 0 6.13642 -1.035203
v -4 6.13642 -1.035203
v 0 6.03442 -0.5220033
v -4 6.03442 -0.5220033
v 0 6.000019 -3.290159E-06
v -4 6.000019 -3.290159E-06
v 0 6.034419 0.5219967
v -4 6.034419 0.5219967
v 0 6.136418 1.035197
v -4 6.136418 1.035197
v 0 6.304418 1.530797
v -4 6.304418 1.530797
v 0 6.536017 1.999997
v -4 6.536017 1.999997
v 0 6.826416 2.435198
v -4 6.826416 2.435198
v 0 7.171616 2.828398
v -4 7.171616 2.828398
v 0 7.564816 3.173598
v -4 7.564816 3.173598
v 0 8.000015 3.463999
v -4 8.000015 3.463999
v 0 8.469215 3.695599
v -4 8.469215 3.695599
v 0 8.964815 3.8636
v -4 8.964815 3.8636
v 0 9.478015 3.9656
v -4 9.478015 3.9656
v 0 10.00002 4.000001
v -4 10.00002 4.000001
v 0 10.52201 3.965601
v -4 10.52201 3.965601
v 0 11.03522 3.863602
v -4 11.03522 3.863602
v 0 11.53082 3.695602
v -4 11.53082 3.695602
v 0 12.00002 3.464003
v -4 12.00002 3.464003
v 0 12.43522 3.173603
v -4 12.43522 3.173603
v 0 12.82842 2.828404
v -4 12.82842 2.828404
v 0 13.17362 2.435204
v -4 13.17362 2.435204
v 0 13.46402 2.000005
v -4 13.46402 2.000005
v 0 13.69562 1.530805
v -4 13.69562 1.530805
v 0 13.86362 1.035205
v -4 13.86362 1.035205
v 0 13.96562 0.522005
v -4 13.96562 0.522005
v 0 14.00002 5.038618E-06
v -4 14.00002 5.038618E-06
v 0 13.96562 -0.521995
v -4 13.96562 -0.521995
v 0 13.86362 -1.035195
v -4 13.86362 -1.035195
v 0 13.69562 -1.530795
v -4 13.69562 -1.530795
v 0 13.46402 -1.999995
v -4 13.46402 -1.999995
v 0 13.17362 -2.435196
v -4 13.17362 -2.435196
v 0 12.82842 -2.828396
v -4 12.82842 -2.828396
v 0 12.43522 -3.173597
v -4 12.43522 -3.173597
v 0 12.00002 -3.463997
v -4 12.00002 -3.463997
v 0 11.53082 -3.695598
v -4 11.53082 -3.695598
v 0 11.03522 -3.863598
v -4 11.03522 -3.863598
v 0 10.52202 -3.965599
v -4 10.52202 -3.965599
v 0 9.217025 -5.9484
v 0 10.00003 -5.999999
v -4 10.00003 -5.999999
v -4 9.217025 -5.9484
v 0 8.447226 -5.795401
v -4 8.447226 -5.795401
v 0 7.703825 -5.543401
v -4 7.703825 -5.543401
v 0 7.000024 -5.196002
v -4 7.000024 -5.196002
v 0 6.347224 -4.760403
v -4 6.347224 -4.760403
v 0 5.757423 -4.242603
v -4 5.757423 -4.242603
v 0 5.239623 -3.652804
v -4 5.239623 -3.652804
v 0 4.804022 -3.000005
v -4 4.804022 -3.000005
v 0 4.456622 -2.296205
v -4 4.456622 -2.296205
v 0 4.20462 -1.552805
v -4 4.20462 -1.552805
v 0 4.05162 -0.7830053
v -4 4.05162 -0.7830053
v 0 4.000019 -5.372353E-06
v -4 4.000019 -5.372353E-06
v 0 4.051618 0.7829947
v -4 4.051618 0.7829947
v 0 4.204618 1.552795
v -4 4.204618 1.552795
v 0 4.456617 2.296195
v -4 4.456617 2.296195
v 0 4.804016 2.999995
v -4 4.804016 2.999995
v 0 5.239615 3.652796
v -4 5.239615 3.652796
v 0 5.757415 4.242597
v -4 5.757415 4.242597
v 0 6.347214 4.760397
v -4 6.347214 4.760397
v 0 7.000014 5.195998
v -4 7.000014 5.195998
v 0 7.703813 5.543398
v -4 7.703813 5.543398
v 0 8.447213 5.795399
v -4 8.447213 5.795399
v 0 9.217013 5.9484
v -4 9.217013 5.9484
v 0 10.00001 6.000001
v -4 10.00001 6.000001
v 0 10.78301 5.948402
v -4 10.78301 5.948402
v 0 11.55281 5.795403
v -4 11.55281 5.795403
v 0 12.29621 5.543403
v -4 12.29621 5.543403
v 0 13.00001 5.196004
v -4 13.00001 5.196004
v 0 13.65281 4.760405
v -4 13.65281 4.760405
v 0 14.24261 4.242605
v -4 14.24261 4.242605
v 0 14.76042 3.652806
v -4 14.76042 3.652806
v 0 15.19602 3.000006
v -4 15.19602 3.000006
v 0 15.54342 2.296207
v -4 15.54342 2.296207
v 0 15.79542 1.552807
v -4 15.79542 1.552807
v 0 15.94842 0.7830071
v -4 15.94842 0.7830071
v 0 16.00002 7.120812E-06
v -4 16.00002 7.120812E-06
v 0 15.94842 -0.7829929
v -4 15.94842 -0.7829929
v 0 15.79542 -1.552793
v -4 15.79542 -1.552793
v 0 15.54342 -2.296193
v -4 15.54342 -2.296193
v 0 15.19602 -2.999994
v -4 15.19602 -2.999994
v 0 14.76042 -3.652794
v -4 14.76042 -3.652794
v 0 14.24262 -4.242595
v -4 14.24262 -4.242595
v 0 13.65282 -4.760395
v -4 13.65282 -4.760395
v 0 13.00002 -5.195996
v -4 13.00002 -5.195996
v 0 12.29622 -5.543396
v -4 12.29622 -5.543396
v 0 11.55282 -5.795398
v -4 11.55282 -5.795398
v 0 10.78302 -5.948398
v -4 10.78302 -5.948398
v -4 10.00002 -3.999999
v -4 9.478024 -3.9656
v -4 9.217025 -5.9484
v -4 10.00003 -5.999999
v -4 8.964823 -3.8636
v -4 8.447225 -5.795401
v -4 8.469223 -3.695601
v -4 7.703825 -5.543401
v -4 8.000023 -3.464001
v -4 7.000024 -5.196002
v -4 7.564822 -3.173602
v -4 6.347224 -4.760403
v -4 7.171622 -2.828402
v -4 5.757423 -4.242603
v -4 6.826422 -2.435202
v -4 5.239623 -3.652804
v -4 6.536021 -2.000003
v -4 4.804022 -3.000005
v -4 6.30442 -1.530803
v -4 4.456622 -2.296205
v -4 6.13642 -1.035203
v -4 4.20462 -1.552805
v -4 6.03442 -0.5220033
v -4 4.05162 -0.7830053
v -4 6.000019 -3.290159E-06
v -4 4.000019 -5.372353E-06
v -4 6.034419 0.5219967
v -4 4.051618 0.7829947
v -4 6.136418 1.035197
v -4 4.204618 1.552795
v -4 6.304418 1.530797
v -4 4.456617 2.296195
v -4 6.536017 1.999997
v -4 4.804016 2.999995
v -4 6.826416 2.435198
v -4 5.239615 3.652796
v -4 7.171616 2.828398
v -4 5.757415 4.242597
v -4 7.564816 3.173598
v -4 6.347214 4.760397
v -4 8.000015 3.463999
v -4 7.000014 5.195998
v -4 8.469215 3.695599
v -4 7.703813 5.543398
v -4 8.964815 3.8636
v -4 8.447213 5.795399
v -4 9.478015 3.9656
v -4 9.217013 5.9484
v -4 10.00002 4.000001
v -4 10.00001 6.000001
v -4 10.52201 3.965601
v -4 10.78301 5.948402
v -4 11.03522 3.863602
v -4 11.55281 5.795403
v -4 11.53082 3.695602
v -4 12.29621 5.543403
v -4 12.00002 3.464003
v -4 13.00001 5.196004
v -4 12.43522 3.173603
v -4 13.65281 4.760405
v -4 12.82842 2.828404
v -4 14.24261 4.242605
v -4 13.17362 2.435204
v -4 14.76042 3.652806
v -4 13.46402 2.000005
v -4 15.19602 3.000006
v -4 13.69562 1.530805
v -4 15.54342 2.296207
v -4 13.86362 1.035205
v -4 15.79542 1.552807
v -4 13.96562 0.522005
v -4 15.94842 0.7830071
v -4 14.00002 5.038618E-06
v -4 16.00002 7.120812E-06
v -4 13.96562 -0.521995
v -4 15.94842 -0.7829929
v -4 13.86362 -1.035195
v -4 15.79542 -1.552793
v -4 13.69562 -1.530795
v -4 15.54342 -2.296193
v -4 13.46402 -1.999995
v -4 15.19602 -2.999994
v -4 13.17362 -2.435196
v -4 14.76042 -3.652794
v -4 12.82842 -2.828396
v -4 14.24262 -4.242595
v -4 12.43522 -3.173597
v -4 13.65282 -4.760395
v -4 12.00002 -3.463997
v -4 13.00002 -5.195996
v -4 11.53082 -3.695598
v -4 12.29622 -5.543396
v -4 11.03522 -3.863598
v -4 11.55282 -5.795398
v -4 10.52202 -3.965599
v -4 10.78302 -5.948398
vn 1 0 0
vn 1 0 0
vn 1 0 0
vn 1 0 0
vn 0 1.041097E-06 -1
vn 0 1.041097E-06 -1
vn 0 1.041097E-06 -1
vn 0 1.041097E-06 -1
vn 0 -1.041097E-06 1
vn 0 -1.041097E-06 1
vn 0 -1.041097E-06 1
vn 0 -1.041097E-06 1
vn 1 0 0
vn 0 -0.7071075 0.7071061
vn 0 -0.7071075 0.7071061
vn 0 -0.7071075 0.7071061
vn 0 -0.7071075 0.7071061
vn 0 -0.7071061 -0.7071075
vn 0 -0.7071061 -0.7071075
vn 0 -0.7071061 -0.7071075
vn 0 -0.7071061 -0.7071075
vn 0 -1 -1.041097E-06
vn 0 -1 -1.041097E-06
vn 0 -1 -1.041097E-06
vn 0 -1 -1.041097E-06
vn 1 0 0
vn 1 0 0
vn 1 0 0
vn 1 0 0
vn 1 0 0
vn 1 0 0
vn 1 0 0
vn 1 0 0
vn 0 1.041097E-06 -1
vn 0 1.041097E-06 -1
vn 0 1.041097E-06 -1
vn 0 1.041097E-06 -1
vn 0 -1.041097E-06 1
vn 0 -1.041097E-06 1
vn 0 -1.041097E-06 1
vn 0 -1.041097E-06 1
vn 1 0 0
vn 0 -0.7071075 0.7071061
vn 0 -0.7071075 0.7071061
vn 0 -0.7071075 0.7071061
vn 0 -0.7071075 0.7071061
vn 0 -0.7071061 -0.7071075
vn 0 -0.7071061 -0.7071075
vn 0 -0.7071061 -0.7071075
vn 0 -0.7071061 -0.7071075
vn 1 0 0
vn 1 0 0
vn 1 0 0
vn 1 0 0
vn 1 0 0
vn 1 0 0
vn 0 -1.041097E-06 1
vn 0 -1.041097E-06 1
vn 0 -1.041097E-06 1
vn 0 -1.041097E-06 1
vn 0 1.041097E-06 -1
vn 0 1.041097E-06 -1
vn 0 1.041097E-06 -1
vn 0 1.041097E-06 -1
vn 1 0 0
vn 0 0.7071075 -0.7071061
vn 0 0.7071075 -0.7071061
vn 0 0.7071075 -0.7071061
vn 0 0.7071075 -0.7071061
vn 0 0.7071061 0.7071075
vn 0 0.7071061 0.7071075
vn 0 0.7071061 0.7071075
vn 0 0.7071061 0.7071075
vn 0 1 1.041097E-06
vn 0 1 1.041097E-06
vn 0 1 1.041097E-06
vn 0 1 1.041097E-06
vn 1 0 0
vn 1 0 0
vn 1 0 0
vn 1 0 0
vn 1 0 0
vn 1 0 0
vn 1 0 0
vn 1 0 0
vn 0 -1.041097E-06 1
vn 0 -1.041097E-06 1
vn 0 -1.041097E-06 1
vn 0 -1.041097E-06 1
vn 0 1.041097E-06 -1
vn 0 1.041097E-06 -1
vn 0 1.041097E-06 -1
vn 0 1.041097E-06 -1
vn 1 0 0
vn 0 0.7071075 -0.7071061
vn 0 0.7071075 -0.7071061
vn 0 0.7071075 -0.7071061
vn 0 0.7071075 -0.7071061
vn 0 0.7071061 0.7071075
vn 0 0.7071061 0.7071075
vn 0 0.7071061 0.7071075
vn 0 0.7071061 0.7071075
vn 1 0 0
vn 1 0 0
vn 0 -1.041097E-06 1
vn 0 -1.041097E-06 1
vn 0 -1.041097E-06 1
vn 0 -1.041097E-06 1
vn 0 1 1.041097E-06
vn 0 1 1.041097E-06
vn 0 1 1.041097E-06
vn 0 1 1.041097E-06
vn 0 -1 -1.041097E-06
vn 0 -1 -1.041097E-06
vn 0 -1 -1.041097E-06
vn 0 -1 -1.041097E-06
vn 1 0 0
vn 1 0 0
vn 1 0 0
vn 1 0 0
vn 1 0 0
vn 0.9999999 0 0
vn 0 1.041097E-06 -1
vn 0 1.041097E-06 -1
vn 0 1.041097E-06 -1
vn 0 1.041097E-06 -1
vn 0 -1 -1.041097E-06
vn 0 -1 -1.041097E-06
vn 0 -1 -1.041097E-06
vn 0 -1 -1.041097E-06
vn 0 1 1.041097E-06
vn 0 1 1.041097E-06
vn 0 1 1.041097E-06
vn 0 1 1.041097E-06
vn 1 0 0
vn 1 0 0
vn 0.9999999 0 0
vn 1 0 0
vn 1 0 0
vn 1 0 0
vn 1 0 0
vn 1 0 0
vn 1 0 0
vn 0.9999999 0 0
vn 1 0 0
vn 1 0 0
vn 1 0 0
vn 0.9999999 0 0
vn 0 -1 -1.041097E-06
vn 0 -1 -1.041097E-06
vn 0 -1 -1.041097E-06
vn 0 -1 -1.041097E-06
vn 0 -1.041097E-06 1
vn 0 -1.041097E-06 1
vn 0 -1.041097E-06 1
vn 0 -1.041097E-06 1
vn 0 1 1.041097E-06
vn 0 1 1.041097E-06
vn 0 1 1.041097E-06
vn 0 1 1.041097E-06
vn 0 1.041097E-06 -1
vn 0 1.041097E-06 -1
vn 0 1.041097E-06 -1
vn 0 1.041097E-06 -1
vn 1 0 0
vn 1 0 0
vn 1 0 0
vn 1 0 0
vn 1 0 0
vn 1 0 0
vn 1 0 0
vn 1 0 0
vn -1 0 0
vn -1 0 0
vn -1 0 0
vn -1 0 0
vn 0 -1 -1.041097E-06
vn 0 -1 -1.041097E-06
vn 0 -1 -1.041097E-06
vn 0 -1 -1.041097E-06
vn 0 -1.041097E-06 1
vn 0 -1.041097E-06 1
vn 0 -1.041097E-06 1
vn 0 -1.041097E-06 1
vn 0 1 1.041097E-06
vn 0 1 1.041097E-06
vn 0 1 1.041097E-06
vn 0 1 1.041097E-06
vn 0 1.041097E-06 -1
vn 0 1.041097E-06 -1
vn 0 1.041097E-06 -1
vn 0 1.041097E-06 -1
vn 0 0.1090291 0.9940385
vn 0 -0.02196253 0.9997588
vn 0 0.02196045 0.9997588
vn 0 0.1521713 0.9883542
vn 0 0.2374253 0.9714058
vn 0 0.2795382 0.9601346
vn 0 0.3622605 0.9320769
vn 0 0.402866 0.9152589
vn 0 0.4809964 0.8767226
vn 0 0.5185441 0.8550507
vn 0 0.5910972 0.8066003
vn 0 0.6260634 0.7797722
vn 0 0.6916218 0.7222599
vn 0 0.7222584 0.6916233
vn 0 0.7797709 0.6260651
vn 0 0.8065991 0.5910989
vn 0 0.8550497 0.5185459
vn 0 0.8767217 0.4809982
vn 0 0.9152581 0.4028679
vn 0 0.9320762 0.3622625
vn 0 0.960134 0.2795402
vn 0 0.9714053 0.2374273
vn 0 0.9883538 0.1521733
vn 0 0.9940383 0.1090312
vn 0 0.9997588 0.02196253
vn 0 0.9997588 -0.02196045
vn 0 0.9940385 -0.1090291
vn 0 0.9883542 -0.1521713
vn 0 0.9714058 -0.2374253
vn 0 0.9601346 -0.2795382
vn 0 0.9320769 -0.3622605
vn 0 0.9152589 -0.402866
vn 0 0.8767226 -0.4809964
vn 0 0.8550507 -0.5185441
vn 0 0.8066003 -0.5910972
vn 0 0.7797722 -0.6260634
vn 0 0.7222599 -0.6916218
vn 0 0.6916233 -0.7222584
vn 0 0.6260651 -0.7797709
vn 0 0.5910989 -0.8065991
vn 0 0.5185459 -0.8550497
vn 0 0.4809982 -0.8767217
vn 0 0.4028679 -0.9152581
vn 0 0.3622625 -0.9320762
vn 0 0.2795402 -0.960134
vn 0 0.2374273 -0.9714053
vn 0 0.1521733 -0.9883538
vn 0 0.1090312 -0.9940383
vn 0 0.02196253 -0.9997588
vn 0 -0.02196045 -0.9997588
vn 0 -0.1090291 -0.9940385
vn 0 -0.1521713 -0.9883542
vn 0 -0.2374253 -0.9714058
vn 0 -0.2795382 -0.9601346
vn 0 -0.3622605 -0.9320769
vn 0 -0.402866 -0.9152589
vn 0 -0.4809964 -0.8767226
vn 0 -0.5185441 -0.8550507
vn 0 -0.5910972 -0.8066003
vn 0 -0.6260634 -0.7797722
vn 0 -0.6916218 -0.7222599
vn 0 -0.7222584 -0.6916233
vn 0 -0.7797709 -0.6260651
vn 0 -0.8065991 -0.5910989
vn 0 -0.8550497 -0.5185459
vn 0 -0.8767217 -0.4809982
vn 0 -0.9152581 -0.4028679
vn 0 -0.9320762 -0.3622625
vn 0 -0.960134 -0.2795402
vn 0 -0.9714053 -0.2374273
vn 0 -0.9883538 -0.1521733
vn 0 -0.9940383 -0.1090312
vn 0 -0.9997588 -0.02196253
vn 0 -0.9997588 0.02196045
vn 0 -0.9940385 0.1090291
vn 0 -0.9883542 0.1521713
vn 0 -0.9714058 0.2374253
vn 0 -0.9601346 0.2795382
vn 0 -0.9320769 0.3622605
vn 0 -0.9152589 0.402866
vn 0 -0.8767226 0.4809964
vn 0 -0.8550507 0.5185441
vn 0 -0.8066003 0.5910972
vn 0 -0.7797722 0.6260634
vn 0 -0.7222599 0.6916218
vn 0 -0.6916233 0.7222584
vn 0 -0.6260651 0.7797709
vn 0 -0.5910989 0.8065991
vn 0 -0.5185459 0.8550497
vn 0 -0.4809982 0.8767217
vn 0 -0.4028679 0.9152581
vn 0 -0.3622625 0.9320762
vn 0 -0.2795402 0.960134
vn 0 -0.2374273 0.9714053
vn 0 -0.1521733 0.9883538
vn 0 -0.1090312 0.9940383
vn 0 -0.1090291 -0.9940386
vn 0 0.02196253 -0.9997588
vn 0 -0.02196045 -0.9997588
vn 0 -0.1521712 -0.9883541
vn 0 -0.2374254 -0.9714058
vn 0 -0.2795384 -0.9601345
vn 0 -0.3622606 -0.9320769
vn 0 -0.4028659 -0.9152591
vn 0 -0.4809962 -0.8767226
vn 0 -0.5185442 -0.8550509
vn 0 -0.5910972 -0.8066003
vn 0 -0.6260633 -0.7797722
vn 0 -0.6916217 -0.7222599
vn 0 -0.7222584 -0.6916233
vn 0 -0.7797709 -0.626065
vn 0 -0.8065991 -0.5910989
vn 0 -0.8550498 -0.518546
vn 0 -0.8767217 -0.480998
vn 0 -0.9152582 -0.4028678
vn 0 -0.9320762 -0.3622625
vn 0 -0.9601339 -0.2795404
vn 0 -0.9714053 -0.2374274
vn 0 -0.9883538 -0.1521732
vn 0 -0.9940383 -0.1090311
vn 0 -0.9997588 -0.02196253
vn 0 -0.9997588 0.02196045
vn 0 -0.9940386 0.1090291
vn 0 -0.9883541 0.1521712
vn 0 -0.9714058 0.2374254
vn 0 -0.9601345 0.2795384
vn 0 -0.9320769 0.3622606
vn 0 -0.9152591 0.4028659
vn 0 -0.8767226 0.4809962
vn 0 -0.8550509 0.5185442
vn 0 -0.8066003 0.5910972
vn 0 -0.7797722 0.6260633
vn 0 -0.7222599 0.6916217
vn 0 -0.6916233 0.7222584
vn 0 -0.626065 0.7797709
vn 0 -0.5910989 0.8065991
vn 0 -0.518546 0.8550498
vn 0 -0.480998 0.8767217
vn 0 -0.4028678 0.9152582
vn 0 -0.3622625 0.9320762
vn 0 -0.2795404 0.9601339
vn 0 -0.2374274 0.9714053
vn 0 -0.1521732 0.9883538
vn 0 -0.1090311 0.9940383
vn 0 -0.02196253 0.9997588
vn 0 0.02196045 0.9997588
vn 0 0.1090291 0.9940386
vn 0 0.1521712 0.9883541
vn 0 0.2374254 0.9714058
vn 0 0.2795384 0.9601345
vn 0 0.3622606 0.9320769
vn 0 0.4028659 0.9152591
vn 0 0.4809962 0.8767226
vn 0 0.5185442 0.8550509
vn 0 0.5910972 0.8066003
vn 0 0.6260633 0.7797722
vn 0 0.6916217 0.7222599
vn 0 0.7222584 0.6916233
vn 0 0.7797709 0.626065
vn 0 0.8065991 0.5910989
vn 0 0.8550498 0.518546
vn 0 0.8767217 0.480998
vn 0 0.9152582 0.4028678
vn 0 0.9320762 0.3622625
vn 0 0.9601339 0.2795404
vn 0 0.9714053 0.2374274
vn 0 0.9883538 0.1521732
vn 0 0.9940383 0.1090311
vn 0 0.9997588 0.02196253
vn 0 0.9997588 -0.02196045
vn 0 0.9940386 -0.1090291
vn 0 0.9883541 -0.1521712
vn 0 0.9714058 -0.2374254
vn 0 0.9601345 -0.2795384
vn 0 0.9320769 -0.3622606
vn 0 0.9152591 -0.4028659
vn 0 0.8767226 -0.4809962
vn 0 0.8550509 -0.5185442
vn 0 0.8066003 -0.5910972
vn 0 0.7797722 -0.6260633
vn 0 0.7222599 -0.6916217
vn 0 0.6916233 -0.7222584
vn 0 0.626065 -0.7797709
vn 0 0.5910989 -0.8065991
vn 0 0.518546 -0.8550498
vn 0 0.480998 -0.8767217
vn 0 0.4028678 -0.9152582
vn 0 0.3622625 -0.9320762
vn 0 0.2795404 -0.9601339
vn 0 0.2374274 -0.9714053
vn 0 0.1521732 -0.9883538
vn 0 0.1090311 -0.9940383
vn -1 0 0
vn -0.9999999 0 0
vn -1 0 0
vn -1 0 0
vn -1 0 0
vn -1 0 0
vn -0.9999999 0 0
vn -1 0 0
vn -1 0 0
vn -1 0 0
vn -0.9999999 0 0
vn -1 0 0
vn -1 0 0
vn -1 0 0
vn -0.9999999 0 0
vn -1 0 0
vn -1 0 0
vn -0.9999999 0 0
vn -1 0 0
vn -1 0 0
vn -0.9999999 0 0
vn -1 0 0
vn -0.9999999 0 0
vn -1 0 0
vn -1 0 0
vn -1 0 0
vn -0.9999999 0 0
vn -1 0 0
vn -1 0 0
vn -1 0 0
vn -0.9999999 0 0
vn -1 0 0
vn -1 0 0
vn -1 0 0
vn -0.9999999 0 0
vn -1 0 0
vn -1 0 0
vn -1 0 0
vn -0.9999999 0 0
vn -1 0 0
vn -1 0 0
vn -0.9999999 0 0
vn -1 0 0
vn -1 0 0
vn -0.9999999 0 0
vn -1 0 0
vn -0.9999999 0 0
vn -1 0 0
vn -1 0 0
vn -1 0 0
vn -0.9999999 0 0
vn -1 0 0
vn -1 0 0
vn -1 0 0
vn -0.9999999 0 0
vn -1 0 0
vn -1 0 0
vn -1 0 0
vn -0.9999999 0 0
vn -1 0 0
vn -1 0 0
vn -1 0 0
vn -0.9999999 0 0
vn -1 0 0
vn -1 0 0
vn -0.9999999 0 0
vn -1 0 0
vn -1 0 0
vn -0.9999999 0 0
vn -1 0 0
vn -0.9999999 0 0
vn -1 0 0
vn -1 0 0
vn -1 0 0
vn -0.9999999 0 0
vn -1 0 0
vn -1 0 0
vn -1 0 0
vn -0.9999999 0 0
vn -1 0 0
vn -1 0 0
vn -1 0 0
vn -0.9999999 0 0
vn -1 0 0
vn -1 0 0
vn -1 0 0
vn -0.9999999 0 0
vn -1 0 0
vn -1 0 0
vn -0.9999999 0 0
vn -1 0 0
vn -1 0 0
vn -0.9999999 0 0
vn -1 0 0
vn -0.9999999 0 0
vn -1 0 0
vt 14 11.5
vt 14 14.5
vt 13 14.5
vt 13 11.5
vt 14.5 12.5
vt 10.5 12.5
vt 10.5 11.5
vt 14.5 11.5
vt 11.5 8.5
vt 7.5 8.5
vt 7.5 9.5
vt 11.5 9.5
vt 11.5 13
vt 7.5 9
vt 9 7.5
vt 13 11.5
vt 11.5 13
vt 14.5 11.5
vt 10.5 11.5
vt 9 8.5
vt 13 8.5
vt 14 2.5
vt 14 9.5
vt 10 9.5
vt 10 2.5
vt 10 0.5
vt 10 7.5
vt 9 7.5
vt 9 0.5
vt 14 1.5
vt 14 4.5
vt 13 4.5
vt 13 1.5
vt 4.5 2.5
vt 0.5 2.5
vt 0.5 1.5
vt 4.5 1.5
vt 1.5 -1.5
vt -2.5 -1.5
vt -2.5 -0.5
vt 1.5 -0.5
vt 11.5 3
vt 7.5 -1
vt 9 -2.5
vt 13 1.5
vt 11.5 3
vt 4.5 1.5
vt 0.5 1.5
vt -1 -1.5
vt 3 -1.5
vt 7.5 9
vt 7.5 -1
vt 2 4.5
vt 2 1.5
vt 3 1.5
vt 3 4.5
vt 1.5 -12.5
vt -2.5 -12.5
vt -2.5 -11.5
vt 1.5 -11.5
vt 4.5 -8.5
vt 0.5 -8.5
vt 0.5 -9.5
vt 4.5 -9.5
vt 4.5 3
vt 0.5 -1
vt -1 0.5
vt 3 4.5
vt 4.5 3
vt 3 -11.5
vt -1 -11.5
vt 0.5 -8.5
vt 4.5 -8.5
vt 2 -2.5
vt 2 -9.5
vt -2 -9.5
vt -2 -2.5
vt -2 7.5
vt -2 0.5
vt -1 0.5
vt -1 7.5
vt 2 14.5
vt 2 11.5
vt 3 11.5
vt 3 14.5
vt 11.5 -2.5
vt 7.5 -2.5
vt 7.5 -1.5
vt 11.5 -1.5
vt 14.5 1.5
vt 10.5 1.5
vt 10.5 0.5
vt 14.5 0.5
vt 4.5 13
vt 0.5 9
vt -1 10.5
vt 3 14.5
vt 4.5 13
vt 3 -1.5
vt -1 -1.5
vt 0.5 1.5
vt 4.5 1.5
vt 0.5 -1
vt 0.5 9
vt 20 22
vt 20 10
vt 24 10
vt 24 22
vt -2 10
vt -2 0.5
vt 2 0.5
vt 2 10
vt 14 22
vt 14 12.5
vt 10 12.5
vt 10 22
vt -2 20
vt -2 10.5
vt -1 10.5
vt 9 10.5
vt 10 10.5
vt 10 20
vt -12 -22
vt -12 -10
vt -8 -10
vt -8 -22
vt 10 -10
vt 10 -0.5
vt 14 -0.5
vt 14 -10
vt 2 -22
vt 2 -12.5
vt -2 -12.5
vt -2 -22
vt -1 -2.5
vt -2 -2.5
vt -2 -12
vt 10 -12
vt 10 -2.5
vt 9 -2.5
vt 2 24
vt -1 27
vt -1 -11
vt 2 -8
vt 17 -11
vt 14 -8
vt 17 27
vt 14 24
vt -2 10
vt -1 10
vt -1 -28
vt -2 -28
vt -12 -28
vt -11 -28
vt -11 -10
vt -12 -10
vt 16 -10
vt 17 -10
vt 17 28
vt 16 28
vt 26 28
vt 27 28
vt 27 10
vt 26 10
vt -3 -13
vt -2 -12
vt -2 26
vt -3 27
vt 17 -13
vt 16 -12
vt 17 27
vt 16 26
vt 10 -20
vt 10 20
vt -10 20
vt -10 -20
vt -10 10
vt -3 10
vt -3 -30
vt -10 -30
vt -20 -30
vt -13 -30
vt -13 -10
vt -20 -10
vt 10 -10
vt 17 -10
vt 17 30
vt 10 30
vt 20 30
vt 27 30
vt 27 10
vt 20 10
vt -0.522 3.4436
vt 4 4
vt -4 4
vt -4.522 3.4436
vt -1.0352 2.8284
vt -5.0352 2.8284
vt -1.5308 2.1648
vt -5.5308 2.1648
vt -2 1.464
vt -6 1.464
vt -2.4352 0.7384
vt -6.4352 0.7384
vt -2.8284 0
vt -6.8284 0
vt -3.1736 -0.7384
vt -7.1736 -0.7384
vt -3.464 -1.464
vt -7.464 -1.464
vt -3.6956 -2.1648
vt -7.6956 -2.1648
vt -3.8636 -2.8284
vt -7.8636 -2.8284
vt -3.9656 -3.4436
vt -7.9656 -3.4436
vt -4 -4
vt -8 -4
vt -3.9656 -4.4876
vt -7.9656 -4.4876
vt -3.8636 -4.8988
vt -7.8636 -4.8988
vt -3.6956 -5.2264
vt -7.6956 -5.2264
vt -3.464 -5.464
vt -7.464 -5.464
vt -3.1736 -5.6088
vt -7.1736 -5.6088
vt -2.8284 -5.6568
vt -6.8284 -5.6568
vt -3.1736 -5.6088
vt -7.1736 -5.6088
vt -3.464 -5.464
vt -7.464 -5.464
vt -3.6956 -5.2264
vt -7.6956 -5.2264
vt -3.8636 -4.8988
vt -7.8636 -4.8988
vt -3.9656 -4.4876
vt -7.9656 -4.4876
vt -4 -4
vt -8 -4
vt -3.9656 -3.4436
vt -7.9656 -3.4436
vt -3.8636 -2.8284
vt -7.8636 -2.8284
vt -3.6956 -2.1648
vt -7.6956 -2.1648
vt -3.464 -1.464
vt -7.464 -1.464
vt -3.1736 -0.7384
vt -7.1736 -0.7384
vt -2.8284 0
vt -6.8284 0
vt -2.4352 0.7384
vt -6.4352 0.7384
vt -2 1.464
vt -6 1.464
vt -1.5308 2.1648
vt -5.5308 2.1648
vt -1.0352 2.8284
vt -5.0352 2.8284
vt -0.522 3.4436
vt -4.522 3.4436
vt 0 4
vt 0 4
vt 3.9656 4.4876
vt -0.03439999 4.4876
vt 3.8636 4.8988
vt -0.1364 4.8988
vt 3.6956 5.2264
vt -0.3044 5.2264
vt 3.464 5.464
vt -0.536 5.464
vt 3.1736 5.6088
vt -0.8264 5.6088
vt 2.8284 5.6568
vt -1.1716 5.6568
vt 3.1736 5.6088
vt -0.8264 5.6088
vt 3.464 5.464
vt -0.536 5.464
vt 3.6956 5.2264
vt -0.3044 5.2264
vt 3.8636 4.8988
vt -0.1364 4.8988
vt 3.9656 4.4876
vt -0.03439999 4.4876
vt 5.9484 5.1654
vt 6 6
vt 2 6
vt 1.9484 5.1654
vt 5.7954 4.2426
vt 1.7954 4.2426
vt 5.5434 3.2472
vt 1.5434 3.2472
vt 5.196 2.196
vt 1.196 2.196
vt 4.7604 1.1076
vt 0.7603998 1.1076
vt 4.2426 0
vt 0.2426 0
vt 3.6528 -1.1076
vt -0.3471999 -1.1076
vt 3 -2.196
vt -1 -2.196
vt 2.2962 -3.2472
vt -1.7038 -3.2472
vt 1.5528 -4.2426
vt -2.4472 -4.2426
vt 0.783 -5.1654
vt -3.217 -5.1654
vt 0 -6
vt -10 -6
vt -5.9484 -6.7314
vt -9.9484 -6.7314
vt -5.7954 -7.3482
vt -9.795401 -7.3482
vt -5.5434 -7.8396
vt -9.5434 -7.8396
vt -5.196 -8.196
vt -9.196 -8.196
vt -4.7604 -8.4132
vt -8.7604 -8.4132
vt -4.2426 -8.4852
vt -8.242599 -8.4852
vt -4.7604 -8.4132
vt -8.7604 -8.4132
vt -5.196 -8.196
vt -9.196 -8.196
vt -5.5434 -7.8396
vt -9.5434 -7.8396
vt -5.7954 -7.3482
vt -9.795401 -7.3482
vt -5.9484 -6.7314
vt -9.9484 -6.7314
vt -6 -6
vt -4 -6
vt 0.783 -5.1654
vt -3.217 -5.1654
vt 1.5528 -4.2426
vt -2.4472 -4.2426
vt 2.2962 -3.2472
vt -1.7038 -3.2472
vt 3 -2.196
vt -1 -2.196
vt 3.6528 -1.1076
vt -0.3471999 -1.1076
vt 4.2426 0
vt 0.2426 0
vt 4.7604 1.1076
vt 0.7603998 1.1076
vt 5.196 2.196
vt 1.196 2.196
vt 5.5434 3.2472
vt 1.5434 3.2472
vt 5.7954 4.2426
vt 1.7954 4.2426
vt 5.9484 5.1654
vt 1.9484 5.1654
vt 6 6
vt 2 6
vt 5.9484 6.7314
vt 1.9484 6.7314
vt 5.7954 7.3482
vt 1.7954 7.3482
vt 5.5434 7.8396
vt 1.5434 7.8396
vt 5.196 8.196
vt 1.196 8.196
vt 4.7604 8.4132
vt 0.7603998 8.4132
vt 4.2426 8.4852
vt 0.2426 8.4852
vt 4.7604 8.4132
vt 0.7603998 8.4132
vt 5.196 8.196
vt 1.196 8.196
vt 5.5434 7.8396
vt 1.5434 7.8396
vt 5.7954 7.3482
vt 1.7954 7.3482
vt 5.9484 6.7314
vt 1.9484 6.7314
vt -4 0
vt -4.522 -0.03439999
vt -4.783 1.9484
vt -4 2
vt -5.0352 -0.1364
vt -5.5528 1.7954
vt -5.5308 -0.3044
vt -6.2962 1.5434
vt -6 -0.536
vt -7 1.196
vt -6.4352 -0.8264
vt -7.6528 0.7603998
vt -6.8284 -1.1716
vt -8.242599 0.2426
vt -7.1736 -1.5648
vt -8.7604 -0.3471999
vt -7.464 -2
vt -9.196 -1
vt -7.6956 -2.4692
vt -9.5434 -1.7038
vt -7.8636 -2.9648
vt -9.795401 -2.4472
vt -7.9656 -3.478
vt -9.9484 -3.217
vt -8 -4
vt -10 -4
vt -7.9656 -4.522
vt -9.9484 -4.783
vt -7.8636 -5.0352
vt -9.795401 -5.5528
vt -7.6956 -5.5308
vt -9.5434 -6.2962
vt -7.464 -6
vt -9.196 -7
vt -7.1736 -6.4352
vt -8.7604 -7.6528
vt -6.8284 -6.8284
vt -8.242599 -8.242599
vt -6.4352 -7.1736
vt -7.6528 -8.7604
vt -6 -7.464
vt -7 -9.196
vt -5.5308 -7.6956
vt -6.2962 -9.5434
vt -5.0352 -7.8636
vt -5.5528 -9.795401
vt -4.522 -7.9656
vt -4.783 -9.9484
vt -4 -8
vt -4 -10
vt -3.478 -7.9656
vt -3.217 -9.9484
vt -2.9648 -7.8636
vt -2.4472 -9.795401
vt -2.4692 -7.6956
vt -1.7038 -9.5434
vt -2 -7.464
vt -1 -9.196
vt -1.5648 -7.1736
vt -0.3471999 -8.7604
vt -1.1716 -6.8284
vt 0.2426 -8.242599
vt -0.8264 -6.4352
vt 0.7603998 -7.6528
vt -0.536 -6
vt 1.196 -7
vt -0.3044 -5.5308
vt 1.5434 -6.2962
vt -0.1364 -5.0352
vt 1.7954 -5.5528
vt -0.03439999 -4.522
vt 1.9484 -4.783
vt 0 -4
vt 2 -4
vt -0.03439999 -3.478
vt 1.9484 -3.217
vt -0.1364 -2.9648
vt 1.7954 -2.4472
vt -0.3044 -2.4692
vt 1.5434 -1.7038
vt -0.536 -2
vt 1.196 -1
vt -0.8264 -1.5648
vt 0.7603998 -0.3471999
vt -1.1716 -1.1716
vt 0.2426 0.2426
vt -1.5648 -0.8264
vt -0.3471999 0.7603998
vt -2 -0.536
vt -1 1.196
vt -2.4692 -0.3044
vt -1.7038 1.5434
vt -2.9648 -0.1364
vt -2.4472 1.7954
vt -3.478 -0.03439999
vt -3.217 1.9484
usemtl 30
f 3/3/3 2/2/2 1/1/1
f 1/1/1 4/4/4 3/3/3
f 7/7/7 6/6/6 5/5/5
f 5/5/5 8/8/8 7/7/7
f 11/11/11 10/10/10 9/9/9
f 9/9/9 12/12/12 11/11/11
f 4/4/4 13/13/13 3/3/3
f 16/16/16 15/15/15 14/14/14
f 14/14/14 17/17/17 16/16/16
f 20/20/20 19/19/19 18/18/18
f 18/18/18 21/21/21 20/20/20
f 24/24/24 23/23/23 22/22/22
f 22/22/22 25/25/25 24/24/24
f 28/28/28 27/27/27 26/26/26
f 26/26/26 29/29/29 28/28/28
f 32/32/32 31/31/31 30/30/30
f 30/30/30 33/33/33 32/32/32
f 36/36/36 35/35/35 34/34/34
f 34/34/34 37/37/37 36/36/36
f 40/40/40 39/39/39 38/38/38
f 38/38/38 41/41/41 40/40/40
f 33/33/33 42/42/42 32/32/32
f 45/45/45 44/44/44 43/43/43
f 43/43/43 46/46/46 45/45/45
f 49/49/49 48/48/48 47/47/47
f 47/47/47 50/50/50 49/49/49
f 51/51/51 28/28/28 29/29/29
f 29/29/29 52/52/52 51/51/51
f 55/55/55 54/54/54 53/53/53
f 53/53/53 56/56/56 55/55/55
f 59/59/59 58/58/58 57/57/57
f 57/57/57 60/60/60 59/59/59
f 63/63/63 62/62/62 61/61/61
f 61/61/61 64/64/64 63/63/63
f 56/56/56 65/65/65 55/55/55
f 68/68/68 67/67/67 66/66/66
f 66/66/66 69/69/69 68/68/68
f 72/72/72 71/71/71 70/70/70
f 70/70/70 73/73/73 72/72/72
f 76/76/76 75/75/75 74/74/74
f 74/74/74 77/77/77 76/76/76
f 80/80/80 79/79/79 78/78/78
f 78/78/78 81/81/81 80/80/80
f 84/84/84 83/83/83 82/82/82
f 82/82/82 85/85/85 84/84/84
f 88/88/88 87/87/87 86/86/86
f 86/86/86 89/89/89 88/88/88
f 92/92/92 91/91/91 90/90/90
f 90/90/90 93/93/93 92/92/92
f 85/85/85 94/94/94 84/84/84
f 97/97/97 96/96/96 95/95/95
f 95/95/95 98/98/98 97/97/97
f 101/101/101 100/100/100 99/99/99
f 99/99/99 102/102/102 101/101/101
f 81/81/81 104/104/104 103/103/103
f 103/103/103 80/80/80 81/81/81
f 104/104/104 51/51/51 52/52/52
f 52/52/52 103/103/103 104/104/104
f 105/105/105 106/106/106 107/107/107
f 107/107/107 108/108/108 105/105/105
f 109/109/109 110/110/110 111/111/111
f 111/111/111 112/112/112 109/109/109
f 113/113/113 114/114/114 115/115/115
f 115/115/115 116/116/116 113/113/113
f 119/119/119 118/118/118 117/117/117
f 122/122/122 121/121/121 120/120/120
f 122/122/122 120/120/120 119/119/119
f 119/119/119 117/117/117 122/122/122
f 104/104/104 119/119/119 120/120/120
f 120/120/120 51/51/51 104/104/104
f 123/123/123 124/124/124 125/125/125
f 125/125/125 126/126/126 123/123/123
f 127/127/127 128/128/128 129/129/129
f 129/129/129 130/130/130 127/127/127
f 131/131/131 132/132/132 133/133/133
f 133/133/133 134/134/134 131/131/131
f 137/137/137 136/136/136 135/135/135
f 140/140/140 139/139/139 138/138/138
f 140/140/140 138/138/138 137/137/137
f 137/137/137 135/135/135 140/140/140
f 135/135/135 103/103/103 52/52/52
f 52/52/52 140/140/140 135/135/135
f 142/142/142 141/141/141 82/82/82
f 142/142/142 82/82/82 83/83/83
f 83/83/83 53/53/53 143/143/143
f 143/143/143 142/142/142 83/83/83
f 53/53/53 54/54/54 143/143/143
f 54/54/54 144/144/144 143/143/143
f 144/144/144 146/146/146 145/145/145
f 145/145/145 143/143/143 144/144/144
f 145/145/145 146/146/146 30/30/30
f 145/145/145 30/30/30 31/31/31
f 31/31/31 1/1/1 147/147/147
f 147/147/147 145/145/145 31/31/31
f 1/1/1 2/2/2 147/147/147
f 2/2/2 148/148/148 147/147/147
f 148/148/148 141/141/141 142/142/142
f 142/142/142 147/147/147 148/148/148
f 149/149/149 150/150/150 151/151/151
f 151/151/151 152/152/152 149/149/149
f 153/153/153 154/154/154 155/155/155
f 155/155/155 156/156/156 153/153/153
f 157/157/157 158/158/158 159/159/159
f 159/159/159 160/160/160 157/157/157
f 161/161/161 162/162/162 163/163/163
f 163/163/163 164/164/164 161/161/161
f 167/167/167 166/166/166 165/165/165
f 165/165/165 168/168/168 167/167/167
f 166/166/166 170/170/170 169/169/169
f 169/169/169 165/165/165 166/166/166
f 170/170/170 172/172/172 171/171/171
f 171/171/171 169/169/169 170/170/170
f 172/172/172 167/167/167 168/168/168
f 168/168/168 171/171/171 172/172/172
f 173/173/173 174/174/174 175/175/175
f 175/175/175 176/176/176 173/173/173
f 177/177/177 178/178/178 179/179/179
f 179/179/179 180/180/180 177/177/177
f 181/181/181 182/182/182 183/183/183
f 183/183/183 184/184/184 181/181/181
f 185/185/185 186/186/186 187/187/187
f 187/187/187 188/188/188 185/185/185
f 189/189/189 190/190/190 191/191/191
f 191/191/191 192/192/192 189/189/189
f 193/193/193 194/194/194 195/195/195
f 195/195/195 196/196/196 193/193/193
f 197/197/197 193/193/193 196/196/196
f 196/196/196 198/198/198 197/197/197
f 199/199/199 197/197/197 198/198/198
f 198/198/198 200/200/200 199/199/199
f 201/201/201 199/199/199 200/200/200
f 200/200/200 202/202/202 201/201/201
f 203/203/203 201/201/201 202/202/202
f 202/202/202 204/204/204 203/203/203
f 205/205/205 203/203/203 204/204/204
f 204/204/204 206/206/206 205/205/205
f 207/207/207 205/205/205 206/206/206
f 206/206/206 208/208/208 207/207/207
f 209/209/209 207/207/207 208/208/208
f 208/208/208 210/210/210 209/209/209
f 211/211/211 209/209/209 210/210/210
f 210/210/210 212/212/212 211/211/211
f 213/213/213 211/211/211 212/212/212
f 212/212/212 214/214/214 213/213/213
f 215/215/215 213/213/213 214/214/214
f 214/214/214 216/216/216 215/215/215
f 217/217/217 215/215/215 216/216/216
f 216/216/216 218/218/218 217/217/217
f 219/219/219 217/217/217 218/218/218
f 218/218/218 220/220/220 219/219/219
f 221/221/221 219/219/219 220/220/220
f 220/220/220 222/222/222 221/221/221
f 223/223/223 221/221/221 222/222/222
f 222/222/222 224/224/224 223/223/223
f 225/225/225 223/223/223 224/224/224
f 224/224/224 226/226/226 225/225/225
f 227/227/227 225/225/225 226/226/226
f 226/226/226 228/228/228 227/227/227
f 229/229/229 227/227/227 228/228/228
f 228/228/228 230/230/230 229/229/229
f 231/231/231 229/229/229 230/230/230
f 230/230/230 232/232/232 231/231/231
f 233/233/233 231/231/231 232/232/232
f 232/232/232 234/234/234 233/233/233
f 235/235/235 233/233/233 234/234/234
f 234/234/234 236/236/236 235/235/235
f 237/237/237 235/235/235 236/236/236
f 236/236/236 238/238/238 237/237/237
f 239/239/239 237/237/237 238/238/238
f 238/238/238 240/240/240 239/239/239
f 241/241/241 239/239/239 240/240/240
f 240/240/240 242/242/242 241/241/241
f 243/243/243 241/241/241 242/242/242
f 242/242/242 244/244/244 243/243/243
f 245/245/245 243/243/243 244/244/244
f 244/244/244 246/246/246 245/245/245
f 247/247/247 245/245/245 246/246/246
f 246/246/246 248/248/248 247/247/247
f 249/249/249 247/247/247 248/248/248
f 248/248/248 250/250/250 249/249/249
f 251/251/251 249/249/249 250/250/250
f 250/250/250 252/252/252 251/251/251
f 253/253/253 251/251/251 252/252/252
f 252/252/252 254/254/254 253/253/253
f 255/255/255 253/253/253 254/254/254
f 254/254/254 256/256/256 255/255/255
f 257/257/257 255/255/255 256/256/256
f 256/256/256 258/258/258 257/257/257
f 259/259/259 257/257/257 258/258/258
f 258/258/258 260/260/260 259/259/259
f 261/261/261 259/259/259 260/260/260
f 260/260/260 262/262/262 261/261/261
f 263/263/263 261/261/261 262/262/262
f 262/262/262 264/264/264 263/263/263
f 265/265/265 263/263/263 264/264/264
f 264/264/264 266/266/266 265/265/265
f 267/267/267 265/265/265 266/266/266
f 266/266/266 268/268/268 267/267/267
f 269/269/269 267/267/267 268/268/268
f 268/268/268 270/270/270 269/269/269
f 271/271/271 269/269/269 270/270/270
f 270/270/270 272/272/272 271/271/271
f 273/273/273 271/271/271 272/272/272
f 272/272/272 274/274/274 273/273/273
f 275/275/275 273/273/273 274/274/274
f 274/274/274 276/276/276 275/275/275
f 277/277/277 275/275/275 276/276/276
f 276/276/276 278/278/278 277/277/277
f 279/279/279 277/277/277 278/278/278
f 278/278/278 280/280/280 279/279/279
f 281/281/281 279/279/279 280/280/280
f 280/280/280 282/282/282 281/281/281
f 283/283/283 281/281/281 282/282/282
f 282/282/282 284/284/284 283/283/283
f 285/285/285 283/283/283 284/284/284
f 284/284/284 286/286/286 285/285/285
f 287/287/287 285/285/285 286/286/286
f 286/286/286 288/288/288 287/287/287
f 194/194/194 287/287/287 288/288/288
f 288/288/288 195/195/195 194/194/194
f 291/291/291 290/290/290 289/289/289
f 289/289/289 292/292/292 291/291/291
f 292/292/292 289/289/289 293/293/293
f 293/293/293 294/294/294 292/292/292
f 294/294/294 293/293/293 295/295/295
f 295/295/295 296/296/296 294/294/294
f 296/296/296 295/295/295 297/297/297
f 297/297/297 298/298/298 296/296/296
f 298/298/298 297/297/297 299/299/299
f 299/299/299 300/300/300 298/298/298
f 300/300/300 299/299/299 301/301/301
f 301/301/301 302/302/302 300/300/300
f 302/302/302 301/301/301 303/303/303
f 303/303/303 304/304/304 302/302/302
f 304/304/304 303/303/303 305/305/305
f 305/305/305 306/306/306 304/304/304
f 306/306/306 305/305/305 307/307/307
f 307/307/307 308/308/308 306/306/306
f 308/308/308 307/307/307 309/309/309
f 309/309/309 310/310/310 308/308/308
f 310/310/310 309/309/309 311/311/311
f 311/311/311 312/312/312 310/310/310
f 312/312/312 311/311/311 313/313/313
f 313/313/313 314/314/314 312/312/312
f 314/314/314 313/313/313 315/315/315
f 315/315/315 316/316/316 314/314/314
f 316/316/316 315/315/315 317/317/317
f 317/317/317 318/318/318 316/316/316
f 318/318/318 317/317/317 319/319/319
f 319/319/319 320/320/320 318/318/318
f 320/320/320 319/319/319 321/321/321
f 321/321/321 322/322/322 320/320/320
f 322/322/322 321/321/321 323/323/323
f 323/323/323 324/324/324 322/322/322
f 324/324/324 323/323/323 325/325/325
f 325/325/325 326/326/326 324/324/324
f 326/326/326 325/325/325 327/327/327
f 327/327/327 328/328/328 326/326/326
f 328/328/328 327/327/327 329/329/329
f 329/329/329 330/330/330 328/328/328
f 330/330/330 329/329/329 331/331/331
f 331/331/331 332/332/332 330/330/330
f 332/332/332 331/331/331 333/333/333
f 333/333/333 334/334/334 332/332/332
f 334/334/334 333/333/333 335/335/335
f 335/335/335 336/336/336 334/334/334
f 336/336/336 335/335/335 337/337/337
f 337/337/337 338/338/338 336/336/336
f 338/338/338 337/337/337 339/339/339
f 339/339/339 340/340/340 338/338/338
f 340/340/340 339/339/339 341/341/341
f 341/341/341 342/342/342 340/340/340
f 342/342/342 341/341/341 343/343/343
f 343/343/343 344/344/344 342/342/342
f 344/344/344 343/343/343 345/345/345
f 345/345/345 346/346/346 344/344/344
f 346/346/346 345/345/345 347/347/347
f 347/347/347 348/348/348 346/346/346
f 348/348/348 347/347/347 349/349/349
f 349/349/349 350/350/350 348/348/348
f 350/350/350 349/349/349 351/351/351
f 351/351/351 352/352/352 350/350/350
f 352/352/352 351/351/351 353/353/353
f 353/353/353 354/354/354 352/352/352
f 354/354/354 353/353/353 355/355/355
f 355/355/355 356/356/356 354/354/354
f 356/356/356 355/355/355 357/357/357
f 357/357/357 358/358/358 356/356/356
f 358/358/358 357/357/357 359/359/359
f 359/359/359 360/360/360 358/358/358
f 360/360/360 359/359/359 361/361/361
f 361/361/361 362/362/362 360/360/360
f 362/362/362 361/361/361 363/363/363
f 363/363/363 364/364/364 362/362/362
f 364/364/364 363/363/363 365/365/365
f 365/365/365 366/366/366 364/364/364
f 366/366/366 365/365/365 367/367/367
f 367/367/367 368/368/368 366/366/366
f 368/368/368 367/367/367 369/369/369
f 369/369/369 370/370/370 368/368/368
f 370/370/370 369/369/369 371/371/371
f 371/371/371 372/372/372 370/370/370
f 372/372/372 371/371/371 373/373/373
f 373/373/373 374/374/374 372/372/372
f 374/374/374 373/373/373 375/375/375
f 375/375/375 376/376/376 374/374/374
f 376/376/376 375/375/375 377/377/377
f 377/377/377 378/378/378 376/376/376
f 378/378/378 377/377/377 379/379/379
f 379/379/379 380/380/380 378/378/378
f 380/380/380 379/379/379 381/381/381
f 381/381/381 382/382/382 380/380/380
f 382/382/382 381/381/381 383/383/383
f 383/383/383 384/384/384 382/382/382
f 384/384/384 383/383/383 290/290/290
f 290/290/290 291/291/291 384/384/384
f 387/387/387 386/386/386 385/385/385
f 385/385/385 388/388/388 387/387/387
f 390/390/390 389/389/389 386/386/386
f 386/386/386 387/387/387 390/390/390
f 392/392/392 391/391/391 389/389/389
f 389/389/389 390/390/390 392/392/392
f 394/394/394 393/393/393 391/391/391
f 391/391/391 392/392/392 394/394/394
f 396/396/396 395/395/395 393/393/393
f 393/393/393 394/394/394 396/396/396
f 398/398/398 397/397/397 395/395/395
f 395/395/395 396/396/396 398/398/398
f 400/400/400 399/399/399 397/397/397
f 397/397/397 398/398/398 400/400/400
f 402/402/402 401/401/401 399/399/399
f 399/399/399 400/400/400 402/402/402
f 404/404/404 403/403/403 401/401/401
f 401/401/401 402/402/402 404/404/404
f 406/406/406 405/405/405 403/403/403
f 403/403/403 404/404/404 406/406/406
f 408/408/408 407/407/407 405/405/405
f 405/405/405 406/406/406 408/408/408
f 410/410/410 409/409/409 407/407/407
f 407/407/407 408/408/408 410/410/410
f 412/412/412 411/411/411 409/409/409
f 409/409/409 410/410/410 412/412/412
f 414/414/414 413/413/413 411/411/411
f 411/411/411 412/412/412 414/414/414
f 416/416/416 415/415/415 413/413/413
f 413/413/413 414/414/414 416/416/416
f 418/418/418 417/417/417 415/415/415
f 415/415/415 416/416/416 418/418/418
f 420/420/420 419/419/419 417/417/417
f 417/417/417 418/418/418 420/420/420
f 422/422/422 421/421/421 419/419/419
f 419/419/419 420/420/420 422/422/422
f 424/424/424 423/423/423 421/421/421
f 421/421/421 422/422/422 424/424/424
f 426/426/426 425/425/425 423/423/423
f 423/423/423 424/424/424 426/426/426
f 428/428/428 427/427/427 425/425/425
f 425/425/425 426/426/426 428/428/428
f 430/430/430 429/429/429 427/427/427
f 427/427/427 428/428/428 430/430/430
f 432/432/432 431/431/431 429/429/429
f 429/429/429 430/430/430 432/432/432
f 434/434/434 433/433/433 431/431/431
f 431/431/431 432/432/432 434/434/434
f 436/436/436 435/435/435 433/433/433
f 433/433/433 434/434/434 436/436/436
f 438/438/438 437/437/437 435/435/435
f 435/435/435 436/436/436 438/438/438
f 440/440/440 439/439/439 437/437/437
f 437/437/437 438/438/438 440/440/440
f 442/442/442 441/441/441 439/439/439
f 439/439/439 440/440/440 442/442/442
f 444/444/444 443/443/443 441/441/441
f 441/441/441 442/442/442 444/444/444
f 446/446/446 445/445/445 443/443/443
f 443/443/443 444/444/444 446/446/446
f 448/448/448 447/447/447 445/445/445
f 445/445/445 446/446/446 448/448/448
f 450/450/450 449/449/449 447/447/447
f 447/447/447 448/448/448 450/450/450
f 452/452/452 451/451/451 449/449/449
f 449/449/449 450/450/450 452/452/452
f 454/454/454 453/453/453 451/451/451
f 451/451/451 452/452/452 454/454/454
f 456/456/456 455/455/455 453/453/453
f 453/453/453 454/454/454 456/456/456
f 458/458/458 457/457/457 455/455/455
f 455/455/455 456/456/456 458/458/458
f 460/460/460 459/459/459 457/457/457
f 457/457/457 458/458/458 460/460/460
f 462/462/462 461/461/461 459/459/459
f 459/459/459 460/460/460 462/462/462
f 464/464/464 463/463/463 461/461/461
f 461/461/461 462/462/462 464/464/464
f 466/466/466 465/465/465 463/463/463
f 463/463/463 464/464/464 466/466/466
f 468/468/468 467/467/467 465/465/465
f 465/465/465 466/466/466 468/468/468
f 470/470/470 469/469/469 467/467/467
f 467/467/467 468/468/468 470/470/470
f 472/472/472 471/471/471 469/469/469
f 469/469/469 470/470/470 472/472/472
f 474/474/474 473/473/473 471/471/471
f 471/471/471 472/472/472 474/474/474
f 476/476/476 475/475/475 473/473/473
f 473/473/473 474/474/474 476/476/476
f 478/478/478 477/477/477 475/475/475
f 475/475/475 476/476/476 478/478/478
f 480/480/480 479/479/479 477/477/477
f 477/477/477 478/478/478 480/480/480
f 388/388/388 385/385/385 479/479/479
f 479/479/479 480/480/480 388/388/388
