mtllib plate2*2_corner.mtl
v 27.99999 13.96561 9.477989
v 27.99999 14.00001 9.99999
v 27.99999 10.00001 9.99999
v 27.99999 13.86361 8.964789
v 27.99999 13.69561 8.46919
v 27.99999 13.46401 7.99999
v 27.99998 13.17361 7.56479
v 27.99998 12.82841 7.171589
v 27.99998 12.43521 6.826389
v 27.99999 12.00001 6.535989
v 27.99999 11.53081 6.304389
v 27.99999 11.03521 6.136389
v 27.99999 10.52201 6.034389
v 27.99999 10.00001 5.999989
v 27.99999 9.478013 6.034389
v 27.99999 8.964812 6.136389
v 27.99999 8.469213 6.304389
v 27.99999 8.000012 6.535989
v 27.99999 7.564812 6.826388
v 27.99999 7.171612 7.171589
v 27.99999 6.826412 7.564789
v 27.99999 6.536012 7.999989
v 27.99999 6.304412 8.469189
v 27.99999 6.136412 8.964788
v 27.99999 6.034412 9.477989
v 27.99999 6.000012 9.99999
v 27.99999 6.034412 10.52199
v 28 6.136412 11.03519
v 28 6.304412 11.53079
v 28 6.536012 11.99999
v 28 6.826412 12.43519
v 28 7.171612 12.82839
v 28 7.564812 13.17359
v 28 8.000011 13.46399
v 28 8.469212 13.69559
v 28 8.964812 13.86359
v 28 9.478012 13.96559
v 27.99999 10.00001 13.99999
v 27.99999 10.52201 13.96559
v 27.99999 11.03521 13.86359
v 27.99999 11.53081 13.69559
v 27.99999 12.00001 13.46399
v 27.99999 12.43521 13.17359
v 27.99999 12.82841 12.82839
v 27.99999 13.17361 12.43519
v 27.99999 13.46401 11.99999
v 27.99999 13.69561 11.53079
v 27.99999 13.86361 11.03519
v 27.99999 13.96561 10.52199
v 23.99999 13.96561 9.477994
v 23.99999 14.00001 9.999994
v 27.99999 14.00001 9.99999
v 27.99999 13.96561 9.477989
v 23.99999 13.86361 8.964793
v 27.99999 13.86361 8.964789
v 23.99998 13.69561 8.469193
v 27.99999 13.69561 8.46919
v 23.99998 13.46401 7.999993
v 27.99999 13.46401 7.99999
v 23.99998 13.17361 7.564794
v 27.99998 13.17361 7.56479
v 23.99998 12.82841 7.171594
v 27.99998 12.82841 7.171589
v 23.99998 12.43521 6.826393
v 27.99998 12.43521 6.826389
v 23.99998 12.00001 6.535993
v 27.99999 12.00001 6.535989
v 23.99998 11.53081 6.304392
v 27.99999 11.53081 6.304389
v 23.99998 11.03521 6.136393
v 27.99999 11.03521 6.136389
v 23.99999 10.52201 6.034393
v 27.99999 10.52201 6.034389
v 23.99999 10.00001 5.999993
v 27.99999 10.00001 5.999989
v 23.99999 9.478008 6.034393
v 27.99999 9.478013 6.034389
v 23.99999 8.964808 6.136393
v 27.99999 8.964812 6.136389
v 23.99999 8.469208 6.304392
v 27.99999 8.469213 6.304388
v 23.99999 8.000008 6.535993
v 27.99999 8.000012 6.535989
v 23.99999 7.564807 6.826393
v 27.99999 7.564812 6.826388
v 23.99999 7.171607 7.171593
v 27.99999 7.171612 7.171589
v 23.99999 6.826407 7.564793
v 27.99999 6.826412 7.564789
v 23.99999 6.536007 7.999993
v 27.99999 6.536012 7.999989
v 23.99999 6.304407 8.469193
v 27.99999 6.304412 8.469189
v 23.99999 6.136407 8.964793
v 27.99999 6.136412 8.964788
v 23.99999 6.034407 9.477993
v 27.99999 6.034412 9.477989
v 23.99999 6.000007 9.999993
v 27.99999 6.000012 9.99999
v 23.99999 6.034407 10.52199
v 27.99999 6.034412 10.52199
v 23.99999 6.136407 11.03519
v 28 6.136412 11.03519
v 24 6.304407 11.53079
v 28 6.304412 11.53079
v 24 6.536007 11.99999
v 28 6.536012 11.99999
v 24 6.826407 12.43519
v 28 6.826412 12.43519
v 24 7.171607 12.82839
v 28 7.171612 12.82839
v 24 7.564807 13.17359
v 28 7.564812 13.17359
v 24 8.000007 13.46399
v 28 8.000011 13.46399
v 24 8.469207 13.69559
v 28 8.469212 13.69559
v 24 8.964808 13.86359
v 28 8.964812 13.86359
v 23.99999 9.478007 13.96559
v 28 9.478012 13.96559
v 23.99999 10.00001 13.99999
v 27.99999 10.00001 13.99999
v 23.99999 10.52201 13.96559
v 27.99999 10.52201 13.96559
v 23.99999 11.03521 13.86359
v 27.99999 11.03521 13.86359
v 23.99999 11.53081 13.69559
v 27.99999 11.53081 13.69559
v 23.99999 12.00001 13.46399
v 27.99999 12.00001 13.46399
v 23.99999 12.43521 13.17359
v 27.99999 12.43521 13.17359
v 23.99999 12.82841 12.82839
v 27.99999 12.82841 12.82839
v 23.99999 13.17361 12.43519
v 27.99999 13.17361 12.43519
v 23.99999 13.46401 11.99999
v 27.99999 13.46401 11.99999
v 23.99999 13.69561 11.53079
v 27.99999 13.69561 11.53079
v 23.99999 13.86361 11.03519
v 27.99999 13.86361 11.03519
v 23.99999 13.96561 10.52199
v 27.99999 13.96561 10.52199
v 27.99999 23.96561 19.47799
v 27.99999 24.00001 19.99999
v 27.99999 20.00001 19.99999
v 27.99999 23.86361 18.96479
v 27.99999 23.69561 18.46919
v 27.99999 23.46401 17.99999
v 27.99999 23.17361 17.56479
v 27.99999 22.82841 17.17159
v 27.99999 22.43521 16.82639
v 27.99999 22.00001 16.53599
v 27.99999 21.53081 16.30439
v 27.99999 21.03521 16.13639
v 27.99999 20.52201 16.03439
v 27.99999 20.00001 15.99999
v 27.99999 19.47801 16.03439
v 27.99999 18.96481 16.13639
v 27.99999 18.46921 16.30439
v 27.99999 18.00001 16.53599
v 27.99999 17.56481 16.82639
v 27.99999 17.17161 17.17159
v 27.99999 16.82641 17.56479
v 27.99999 16.53601 17.99999
v 27.99999 16.30441 18.46919
v 27.99999 16.13641 18.96479
v 27.99999 16.03441 19.47799
v 28 16.00001 19.99999
v 28 16.03441 20.52199
v 28 16.13641 21.03519
v 28 16.30441 21.53079
v 28 16.53601 21.99999
v 28 16.82641 22.43519
v 28 17.17161 22.82839
v 28 17.56481 23.17359
v 28 18.00001 23.46399
v 28 18.46921 23.69559
v 28 18.96481 23.86359
v 28 19.47801 23.96559
v 28 20.00001 23.99999
v 28 20.52201 23.96559
v 27.99999 21.03521 23.86359
v 27.99999 21.53081 23.69559
v 27.99999 22.00001 23.46399
v 27.99999 22.43521 23.17359
v 27.99999 22.82841 22.82839
v 27.99999 23.17361 22.43519
v 27.99999 23.46401 21.99999
v 27.99999 23.69561 21.53079
v 27.99999 23.86361 21.03519
v 27.99999 23.96561 20.52199
v 23.99999 23.96561 19.478
v 23.99999 24.00001 20
v 27.99999 24.00001 19.99999
v 27.99999 23.96561 19.47799
v 23.99999 23.86361 18.9648
v 27.99999 23.86361 18.96479
v 23.99999 23.69561 18.4692
v 27.99999 23.69561 18.46919
v 23.99999 23.46401 18
v 27.99999 23.46401 17.99999
v 23.99999 23.17361 17.5648
v 27.99999 23.17361 17.56479
v 23.99999 22.82841 17.1716
v 27.99999 22.82841 17.17159
v 23.99999 22.43521 16.8264
v 27.99999 22.43521 16.82639
v 23.99999 22.00001 16.536
v 27.99999 22.00001 16.53599
v 23.99999 21.53081 16.3044
v 27.99999 21.53081 16.30439
v 23.99999 21.03521 16.1364
v 27.99999 21.03521 16.13639
v 23.99999 20.52201 16.0344
v 27.99999 20.52201 16.03439
v 23.99999 20.00001 16
v 27.99999 20.00001 15.99999
v 23.99999 19.47801 16.0344
v 27.99999 19.47801 16.03439
v 23.99999 18.96481 16.1364
v 27.99999 18.96481 16.13639
v 23.99999 18.46921 16.3044
v 27.99999 18.46921 16.30439
v 23.99999 18.00001 16.536
v 27.99999 18.00001 16.53599
v 23.99999 17.56481 16.8264
v 27.99999 17.56481 16.82639
v 23.99999 17.17161 17.1716
v 27.99999 17.17161 17.17159
v 23.99999 16.82641 17.5648
v 27.99999 16.82641 17.56479
v 23.99999 16.53601 18
v 27.99999 16.53601 17.99999
v 23.99999 16.30441 18.4692
v 27.99999 16.30441 18.46919
v 23.99999 16.13641 18.9648
v 27.99999 16.13641 18.96479
v 23.99999 16.03441 19.478
v 27.99999 16.03441 19.47799
v 23.99999 16.00001 20
v 28 16.00001 19.99999
v 24 16.03441 20.522
v 28 16.03441 20.52199
v 24 16.13641 21.0352
v 28 16.13641 21.03519
v 24 16.30441 21.5308
v 28 16.30441 21.53079
v 24 16.53601 22
v 28 16.53601 21.99999
v 24 16.82641 22.4352
v 28 16.82641 22.43519
v 24 17.17161 22.8284
v 28 17.17161 22.82839
v 24 17.56481 23.1736
v 28 17.56481 23.17359
v 24 18.00001 23.464
v 28 18.00001 23.46399
v 24 18.46921 23.6956
v 28 18.46921 23.69559
v 24 18.96481 23.8636
v 28 18.96481 23.86359
v 24 19.47801 23.9656
v 28 19.47801 23.96559
v 24 20.00001 24
v 28 20.00001 23.99999
v 23.99999 20.52201 23.9656
v 28 20.52201 23.96559
v 23.99999 21.03521 23.8636
v 27.99999 21.03521 23.86359
v 23.99999 21.53081 23.6956
v 27.99999 21.53081 23.69559
v 23.99999 22.00001 23.464
v 27.99999 22.00001 23.46399
v 23.99999 22.43521 23.1736
v 27.99999 22.43521 23.17359
v 23.99999 22.82841 22.8284
v 27.99999 22.82841 22.82839
v 23.99999 23.17361 22.4352
v 27.99999 23.17361 22.43519
v 23.99999 23.46401 22
v 27.99999 23.46401 21.99999
v 23.99999 23.69561 21.5308
v 27.99999 23.69561 21.53079
v 23.99999 23.86361 21.0352
v 27.99999 23.86361 21.03519
v 23.99999 23.96561 20.522
v 27.99999 23.96561 20.52199
v 27.99998 1.287468E-05 -10.00002
v 27.99998 4.000013 -6.000015
v 27.99997 16.00002 -6.000014
v 27.99996 20.00002 -10.00001
v 28.00002 9.377772E-06 29.99999
v 28.00001 4.00001 25.99999
v 27.99998 40.00002 30
v 27.99998 36.00002 26
v 27.99996 40.00002 9.999992
v 27.99997 36.00002 13.99999
v 27.99998 20.00001 9.99999
v 27.99999 16.00001 13.99999
v 23.99997 36.00001 14
v 23.99999 16.00001 14
v 24.00001 4.000005 26
v 23.99998 36.00001 26
v 23.99998 4.000008 -6.00001
v 23.99997 16.00001 -6.00001
v 19.99998 40 30.00001
v 20.00002 -1.589722E-07 30
v 19.99998 20 9.999998
v 19.99996 40.00001 10
v 19.99998 3.33794E-06 -10.00001
v 19.99996 20.00001 -10.00001
v 19.99996 40.00001 10
v 19.99998 40 30.00001
v 27.99998 40.00002 30
v 27.99996 40.00002 9.999992
v 27.99998 20.00001 9.99999
v 19.99998 20 9.999998
v 19.99996 40.00001 10
v 27.99996 40.00002 9.999992
v 19.99996 20.00001 -10.00001
v 19.99998 20 9.999998
v 27.99998 20.00001 9.99999
v 27.99996 20.00002 -10.00001
v 27.99998 1.287468E-05 -10.00002
v 19.99998 3.33794E-06 -10.00001
v 19.99996 20.00001 -10.00001
v 27.99996 20.00002 -10.00001
v 20.00002 -1.589722E-07 30
v 19.99998 3.33794E-06 -10.00001
v 27.99998 1.287468E-05 -10.00002
v 28.00002 9.377772E-06 29.99999
v 27.99998 40.00002 30
v 19.99998 40 30.00001
v 20.00002 -1.589722E-07 30
v 28.00002 9.377772E-06 29.99999
v 15.99999 15.9484 19.217
v 15.99999 16 20
v 19.99999 16 20
v 19.99999 15.9484 19.217
v 15.99999 15.7954 18.4472
v 19.99999 15.7954 18.4472
v 15.99999 15.5434 17.7038
v 19.99999 15.5434 17.7038
v 15.99999 15.196 17
v 19.99999 15.196 17
v 15.99999 14.7604 16.3472
v 19.99999 14.7604 16.3472
v 15.99999 14.2426 15.7574
v 19.99999 14.2426 15.7574
v 15.99999 13.6528 15.2396
v 19.99999 13.6528 15.2396
v 15.99999 13 14.804
v 19.99999 13 14.804
v 15.99999 12.2962 14.4566
v 19.99999 12.2962 14.4566
v 15.99999 11.5528 14.2046
v 19.99999 11.5528 14.2046
v 15.99999 10.783 14.0516
v 19.99999 10.783 14.0516
v 15.99999 9.999998 14
v 19.99999 10 14
v 15.99999 9.216997 14.0516
v 19.99999 9.217002 14.0516
v 16 8.447198 14.2046
v 20 8.447203 14.2046
v 16 7.703797 14.4566
v 20 7.703802 14.4566
v 16 6.999997 14.804
v 20 7.000002 14.804
v 16 6.347197 15.2396
v 20 6.347202 15.2396
v 16 5.757397 15.7574
v 20 5.757402 15.7574
v 16 5.239597 16.3472
v 20 5.239602 16.3472
v 16 4.803997 17
v 20 4.804001 17
v 16 4.456597 17.7038
v 20 4.456602 17.7038
v 16 4.204597 18.4472
v 20 4.204601 18.4472
v 16 4.051597 19.217
v 20 4.051601 19.217
v 16.00001 3.999996 20
v 20.00001 4.000001 20
v 16.00001 4.051596 20.783
v 20.00001 4.051601 20.783
v 16.00001 4.204596 21.5528
v 20.00001 4.204601 21.5528
v 16.00001 4.456596 22.2962
v 20.00001 4.456601 22.2962
v 16.00001 4.803996 23
v 20.00001 4.804001 23
v 16.00001 5.239596 23.65281
v 20.00001 5.239601 23.6528
v 16.00001 5.757396 24.24261
v 20.00001 5.757401 24.2426
v 16.00001 6.347196 24.7604
v 20.00001 6.347201 24.7604
v 16.00001 6.999996 25.196
v 20.00001 7.000001 25.196
v 16.00001 7.703796 25.54341
v 20.00001 7.703801 25.5434
v 16.00001 8.447197 25.79541
v 20.00001 8.447202 25.7954
v 16.00001 9.216996 25.94841
v 20.00001 9.217001 25.9484
v 16.00001 9.999996 26.00001
v 20.00001 10 26
v 16.00001 10.783 25.94841
v 20.00001 10.783 25.9484
v 16 11.5528 25.79541
v 20 11.5528 25.7954
v 16 12.2962 25.54341
v 20 12.2962 25.5434
v 16 13 25.196
v 20 13 25.196
v 16 13.6528 24.7604
v 20 13.6528 24.7604
v 16 14.2426 24.24261
v 20 14.2426 24.2426
v 16 14.7604 23.65281
v 20 14.7604 23.6528
v 16 15.196 23.00001
v 20 15.196 23
v 16 15.5434 22.29621
v 20 15.5434 22.2962
v 16 15.7954 21.5528
v 20 15.7954 21.5528
v 16 15.9484 20.783
v 20 15.9484 20.783
v 15.99999 15.9484 19.217
v 15.99999 16 20
v 16 9.999997 20
v 15.99999 15.7954 18.4472
v 15.99999 15.5434 17.7038
v 15.99999 15.196 17
v 15.99999 14.7604 16.3472
v 15.99999 14.2426 15.7574
v 15.99999 13.6528 15.2396
v 15.99999 13 14.804
v 15.99999 12.2962 14.4566
v 15.99999 11.5528 14.2046
v 15.99999 10.783 14.0516
v 15.99999 9.999998 14
v 15.99999 9.216997 14.0516
v 16 8.447198 14.2046
v 16 7.703797 14.4566
v 16 6.999997 14.804
v 16 6.347197 15.2396
v 16 5.757397 15.7574
v 16 5.239597 16.3472
v 16 4.803997 17
v 16 4.456597 17.7038
v 16 4.204597 18.4472
v 16 4.051597 19.217
v 16.00001 3.999996 20
v 16.00001 4.051596 20.783
v 16.00001 4.204596 21.5528
v 16.00001 4.456596 22.2962
v 16.00001 4.803996 23
v 16.00001 5.239596 23.65281
v 16.00001 5.757396 24.24261
v 16.00001 6.347196 24.7604
v 16.00001 6.999996 25.196
v 16.00001 7.703796 25.54341
v 16.00001 8.447197 25.79541
v 16.00001 9.216996 25.94841
v 16.00001 9.999996 26.00001
v 16.00001 10.783 25.94841
v 16 11.5528 25.79541
v 16 12.2962 25.54341
v 16 13 25.196
v 16 13.6528 24.7604
v 16 14.2426 24.24261
v 16 14.7604 23.65281
v 16 15.196 23.00001
v 16 15.5434 22.29621
v 16 15.7954 21.5528
v 16 15.9484 20.783
v 15.99998 35.9484 19.21701
v 15.99998 36 20.00001
v 19.99998 36 20
v 19.99998 35.94841 19.217
v 15.99998 35.7954 18.44721
v 19.99998 35.79541 18.4472
v 15.99997 35.5434 17.70381
v 19.99998 35.5434 17.7038
v 15.99997 35.196 17.00001
v 19.99998 35.196 17
v 15.99997 34.7604 16.34721
v 19.99997 34.7604 16.3472
v 15.99997 34.2426 15.75741
v 19.99997 34.2426 15.7574
v 15.99997 33.6528 15.2396
v 19.99997 33.65281 15.2396
v 15.99997 33 14.804
v 19.99997 33 14.804
v 15.99997 32.2962 14.4566
v 19.99998 32.2962 14.4566
v 15.99997 31.5528 14.2046
v 19.99998 31.5528 14.2046
v 15.99998 30.783 14.0516
v 19.99998 30.78301 14.0516
v 15.99998 30 14
v 19.99998 30.00001 14
v 15.99998 29.217 14.0516
v 19.99998 29.217 14.0516
v 15.99998 28.4472 14.2046
v 19.99998 28.4472 14.2046
v 15.99998 27.7038 14.4566
v 19.99998 27.7038 14.4566
v 15.99998 27 14.804
v 19.99998 27 14.804
v 15.99998 26.3472 15.2396
v 19.99998 26.3472 15.2396
v 15.99998 25.7574 15.7574
v 19.99998 25.7574 15.7574
v 15.99998 25.2396 16.3472
v 19.99998 25.2396 16.3472
v 15.99998 24.804 17
v 19.99998 24.804 17
v 15.99998 24.4566 17.7038
v 19.99998 24.4566 17.7038
v 15.99999 24.2046 18.4472
v 19.99999 24.2046 18.4472
v 15.99999 24.0516 19.217
v 19.99999 24.0516 19.217
v 15.99999 24 20.00001
v 19.99999 24 20
v 15.99999 24.0516 20.783
v 19.99999 24.0516 20.783
v 15.99999 24.2046 21.5528
v 19.99999 24.2046 21.5528
v 15.99999 24.4566 22.29621
v 19.99999 24.4566 22.2962
v 15.99999 24.804 23.00001
v 19.99999 24.804 23
v 15.99999 25.2396 23.65281
v 19.99999 25.2396 23.6528
v 15.99999 25.7574 24.24261
v 19.99999 25.7574 24.2426
v 15.99999 26.3472 24.76041
v 19.99999 26.3472 24.7604
v 15.99999 27 25.19601
v 19.99999 27 25.196
v 15.99999 27.7038 25.54341
v 19.99999 27.7038 25.5434
v 15.99999 28.4472 25.79541
v 19.99999 28.4472 25.7954
v 15.99999 29.217 25.94841
v 19.99999 29.217 25.9484
v 15.99999 30 26.00001
v 19.99999 30 26
v 15.99999 30.783 25.94841
v 19.99999 30.783 25.9484
v 15.99999 31.5528 25.79541
v 19.99999 31.5528 25.7954
v 15.99998 32.2962 25.54341
v 19.99998 32.2962 25.5434
v 15.99998 33 25.19601
v 19.99998 33 25.196
v 15.99998 33.6528 24.76041
v 19.99998 33.65281 24.7604
v 15.99998 34.2426 24.24261
v 19.99998 34.2426 24.2426
v 15.99998 34.7604 23.65281
v 19.99998 34.7604 23.6528
v 15.99998 35.196 23.00001
v 19.99998 35.196 23
v 15.99998 35.5434 22.29621
v 19.99998 35.5434 22.2962
v 15.99998 35.7954 21.55281
v 19.99998 35.79541 21.5528
v 15.99998 35.9484 20.78301
v 19.99998 35.94841 20.783
v 15.99998 35.9484 19.21701
v 15.99998 36 20.00001
v 15.99998 30 20.00001
v 15.99998 35.7954 18.44721
v 15.99997 35.5434 17.70381
v 15.99997 35.196 17.00001
v 15.99997 34.7604 16.34721
v 15.99997 34.2426 15.75741
v 15.99997 33.6528 15.2396
v 15.99997 33 14.804
v 15.99997 32.2962 14.4566
v 15.99997 31.5528 14.2046
v 15.99998 30.783 14.0516
v 15.99998 30 14
v 15.99998 29.217 14.0516
v 15.99998 28.4472 14.2046
v 15.99998 27.7038 14.4566
v 15.99998 27 14.804
v 15.99998 26.3472 15.2396
v 15.99998 25.7574 15.7574
v 15.99998 25.2396 16.3472
v 15.99998 24.804 17
v 15.99998 24.4566 17.7038
v 15.99999 24.2046 18.4472
v 15.99999 24.0516 19.217
v 15.99999 24 20.00001
v 15.99999 24.0516 20.783
v 15.99999 24.2046 21.5528
v 15.99999 24.4566 22.29621
v 15.99999 24.804 23.00001
v 15.99999 25.2396 23.65281
v 15.99999 25.7574 24.24261
v 15.99999 26.3472 24.76041
v 15.99999 27 25.19601
v 15.99999 27.7038 25.54341
v 15.99999 28.4472 25.79541
v 15.99999 29.217 25.94841
v 15.99999 30 26.00001
v 15.99999 30.783 25.94841
v 15.99999 31.5528 25.79541
v 15.99998 32.2962 25.54341
v 15.99998 33 25.19601
v 15.99998 33.6528 24.76041
v 15.99998 34.2426 24.24261
v 15.99998 34.7604 23.65281
v 15.99998 35.196 23.00001
v 15.99998 35.5434 22.29621
v 15.99998 35.7954 21.55281
v 15.99998 35.9484 20.78301
v 15.99997 15.9484 -0.7830014
v 15.99997 16 -2.438291E-07
v 19.99998 16 -4.243829E-06
v 19.99997 15.9484 -0.7830054
v 15.99997 15.7954 -1.5528
v 19.99997 15.7954 -1.552804
v 15.99997 15.5434 -2.296201
v 19.99997 15.5434 -2.296205
v 15.99997 15.196 -3.000001
v 19.99997 15.196 -3.000005
v 15.99997 14.7604 -3.652801
v 19.99997 14.7604 -3.652805
v 15.99997 14.2426 -4.242601
v 19.99997 14.2426 -4.242605
v 15.99997 13.6528 -4.7604
v 19.99997 13.6528 -4.760405
v 15.99997 13 -5.196001
v 19.99997 13 -5.196005
v 15.99997 12.2962 -5.543402
v 19.99997 12.2962 -5.543406
v 15.99997 11.5528 -5.795403
v 19.99997 11.5528 -5.795407
v 15.99997 10.783 -5.948402
v 19.99997 10.783 -5.948407
v 15.99997 9.999999 -6.000002
v 19.99997 10 -6.000006
v 15.99997 9.216999 -5.948403
v 19.99998 9.217004 -5.948407
v 15.99998 8.447199 -5.795403
v 19.99998 8.447204 -5.795407
v 15.99998 7.703799 -5.543402
v 19.99998 7.703804 -5.543406
v 15.99998 6.999999 -5.196002
v 19.99998 7.000004 -5.196005
v 15.99998 6.347199 -4.760401
v 19.99998 6.347204 -4.760405
v 15.99998 5.757399 -4.242602
v 19.99998 5.757403 -4.242606
v 15.99998 5.239599 -3.652802
v 19.99998 5.239604 -3.652806
v 15.99998 4.803998 -3.000002
v 19.99998 4.804003 -3.000006
v 15.99998 4.456599 -2.296202
v 19.99998 4.456604 -2.296206
v 15.99998 4.204598 -1.552801
v 19.99998 4.204603 -1.552805
v 15.99998 4.051598 -0.7830024
v 19.99998 4.051603 -0.7830064
v 15.99998 3.999998 -1.292914E-06
v 19.99998 4.000003 -5.292914E-06
v 15.99999 4.051598 0.7829999
v 19.99999 4.051603 0.7829958
v 15.99999 4.204598 1.552798
v 19.99999 4.204603 1.552794
v 15.99999 4.456598 2.296199
v 19.99999 4.456603 2.296195
v 15.99999 4.803998 3
v 19.99999 4.804003 2.999995
v 15.99999 5.239598 3.652799
v 19.99999 5.239603 3.652795
v 15.99999 5.757398 4.242599
v 19.99999 5.757403 4.242595
v 15.99999 6.347198 4.7604
v 19.99999 6.347203 4.760396
v 15.99999 6.999998 5.196
v 19.99999 7.000003 5.195996
v 15.99999 7.703798 5.5434
v 19.99999 7.703803 5.543396
v 15.99999 8.447198 5.795401
v 19.99999 8.447203 5.795397
v 15.99999 9.216998 5.948401
v 19.99999 9.217003 5.948397
v 15.99999 9.999998 6
v 19.99999 10 5.999997
v 15.99998 10.783 5.948401
v 19.99998 10.783 5.948397
v 15.99998 11.5528 5.795402
v 19.99998 11.5528 5.795397
v 15.99998 12.2962 5.543401
v 19.99998 12.2962 5.543396
v 15.99998 13 5.196001
v 19.99998 13 5.195997
v 15.99998 13.6528 4.7604
v 19.99998 13.6528 4.760396
v 15.99998 14.2426 4.2426
v 19.99998 14.2426 4.242596
v 15.99998 14.7604 3.6528
v 19.99998 14.7604 3.652796
v 15.99998 15.196 3
v 19.99998 15.196 2.999996
v 15.99998 15.5434 2.2962
v 19.99998 15.5434 2.296196
v 15.99998 15.7954 1.552799
v 19.99998 15.7954 1.552795
v 15.99998 15.9484 0.7830009
v 19.99998 15.9484 0.7829969
v 15.99997 15.9484 -0.7830014
v 15.99997 16 -2.438291E-07
v 15.99998 9.999999 -7.683716E-07
v 15.99997 15.7954 -1.5528
v 15.99997 15.5434 -2.296201
v 15.99997 15.196 -3.000001
v 15.99997 14.7604 -3.652801
v 15.99997 14.2426 -4.242601
v 15.99997 13.6528 -4.7604
v 15.99997 13 -5.196001
v 15.99997 12.2962 -5.543402
v 15.99997 11.5528 -5.795403
v 15.99997 10.783 -5.948402
v 15.99997 9.999999 -6.000002
v 15.99997 9.216999 -5.948403
v 15.99998 8.447199 -5.795403
v 15.99998 7.703799 -5.543402
v 15.99998 6.999999 -5.196002
v 15.99998 6.347199 -4.760401
v 15.99998 5.757399 -4.242602
v 15.99998 5.239599 -3.652802
v 15.99998 4.803998 -3.000002
v 15.99998 4.456599 -2.296202
v 15.99998 4.204598 -1.552801
v 15.99998 4.051598 -0.7830024
v 15.99998 3.999998 -1.292914E-06
v 15.99999 4.051598 0.7829999
v 15.99999 4.204598 1.552798
v 15.99999 4.456598 2.296199
v 15.99999 4.803998 3
v 15.99999 5.239598 3.652799
v 15.99999 5.757398 4.242599
v 15.99999 6.347198 4.7604
v 15.99999 6.999998 5.196
v 15.99999 7.703798 5.5434
v 15.99999 8.447198 5.795401
v 15.99999 9.216998 5.948401
v 15.99999 9.999998 6
v 15.99998 10.783 5.948401
v 15.99998 11.5528 5.795402
v 15.99998 12.2962 5.543401
v 15.99998 13 5.196001
v 15.99998 13.6528 4.7604
v 15.99998 14.2426 4.2426
v 15.99998 14.7604 3.6528
v 15.99998 15.196 3
v 15.99998 15.5434 2.2962
v 15.99998 15.7954 1.552799
v 15.99998 15.9484 0.7830009
v 23.99997 16.00001 -6.00001
v 23.99999 16.00001 14
v 27.99999 16.00001 13.99999
v 27.99997 16.00002 -6.000014
v 27.99998 4.000013 -6.000015
v 23.99998 4.000008 -6.00001
v 23.99997 16.00001 -6.00001
v 27.99997 16.00002 -6.000014
v 23.99997 36.00001 14
v 23.99998 36.00001 26
v 27.99998 36.00002 26
v 27.99997 36.00002 13.99999
v 27.99999 16.00001 13.99999
v 23.99999 16.00001 14
v 23.99997 36.00001 14
v 27.99997 36.00002 13.99999
v 24.00001 4.000005 26
v 23.99998 4.000008 -6.00001
v 27.99998 4.000013 -6.000015
v 28.00001 4.00001 25.99999
v 27.99998 36.00002 26
v 23.99998 36.00001 26
v 24.00001 4.000005 26
v 28.00001 4.00001 25.99999
vn 1 1.192093E-06 -1E-06
vn 1 1.192093E-06 -1E-06
vn 1 1.192093E-06 -1E-06
vn 1 1.192093E-06 -1E-06
vn 1 1.192093E-06 -1E-06
vn 1 1.192093E-06 -1E-06
vn 1 1.192093E-06 -1E-06
vn 1 1.192093E-06 -9.999999E-07
vn 1 1.192093E-06 -1E-06
vn 1 1.192093E-06 -1E-06
vn 1 1.192093E-06 -1E-06
vn 1 1.192093E-06 -1E-06
vn 1 1.192093E-06 -1E-06
vn 1 1.192093E-06 -1E-06
vn 1 1.192093E-06 -1E-06
vn 1 1.192093E-06 -1E-06
vn 1 1.192093E-06 -1E-06
vn 1 1.192093E-06 -1E-06
vn 1 1.192093E-06 -1E-06
vn 1 1.192093E-06 -9.999999E-07
vn 1 1.192093E-06 -1E-06
vn 1 1.192093E-06 -1E-06
vn 1 1.192093E-06 -1E-06
vn 1 1.192093E-06 -1E-06
vn 1 1.192093E-06 -1E-06
vn 1 1.192093E-06 -1E-06
vn 1 1.192093E-06 -1E-06
vn 1 1.192093E-06 -1E-06
vn 1 1.192093E-06 -1E-06
vn 1 1.192093E-06 -1E-06
vn 1 1.192093E-06 -1E-06
vn 1 1.192093E-06 -9.999999E-07
vn 1 1.192093E-06 -1E-06
vn 1 1.192093E-06 -1E-06
vn 1 1.192093E-06 -1E-06
vn 1 1.192093E-06 -1E-06
vn 1 1.192093E-06 -1E-06
vn 1 1.192093E-06 -1E-06
vn 1 1.192093E-06 -1E-06
vn 1 1.192093E-06 -1E-06
vn 1 1.192093E-06 -1E-06
vn 1 1.192093E-06 -1E-06
vn 1 1.192093E-06 -1E-06
vn 1 1.192093E-06 -9.999999E-07
vn 1 1.192093E-06 -1E-06
vn 1 1.192093E-06 -1E-06
vn 1 1.192093E-06 -1E-06
vn 1 1.192093E-06 -1E-06
vn 1 1.192093E-06 -1E-06
vn -9.977698E-07 0.9940386 -0.1090301
vn -8.718926E-07 0.999759 0.02196157
vn -9.158155E-07 0.999759 -0.02196139
vn -1.03583E-06 0.9883541 -0.1521723
vn -1.105931E-06 0.9714057 -0.2374264
vn -1.137966E-06 0.9601344 -0.2795393
vn -1.195603E-06 0.9320767 -0.3622616
vn -1.221172E-06 0.9152586 -0.402867
vn -1.264848E-06 0.8767223 -0.4809974
vn -1.28302E-06 0.8550504 -0.5185453
vn -1.312255E-06 0.8065997 -0.5910983
vn -1.323234E-06 0.7797715 -0.6260644
vn -1.337373E-06 0.7222593 -0.6916225
vn -1.340618E-06 0.691623 -0.7222589
vn -1.339517E-06 0.6260645 -0.7797714
vn -1.335083E-06 0.591098 -0.8066
vn -1.318666E-06 0.5185451 -0.8550506
vn -1.306767E-06 0.4809979 -0.876722
vn -1.27545E-06 0.4028675 -0.9152585
vn -1.255963E-06 0.3622612 -0.9320768
vn -1.210061E-06 0.2795386 -0.9601346
vn -1.183681E-06 0.2374263 -0.9714058
vn -1.124407E-06 0.1521727 -0.9883541
vn -1.091519E-06 0.1090304 -0.9940386
vn -1.019394E-06 0.02196158 -0.999759
vn -9.801238E-07 -0.0219614 -0.999759
vn -8.965578E-07 -0.1090302 -0.9940386
vn -8.523011E-07 -0.1521725 -0.9883541
vn -7.591301E-07 -0.2374261 -0.9714058
vn -7.102077E-07 -0.2795384 -0.9601347
vn -6.081901E-07 -0.362261 -0.9320769
vn -5.550669E-07 -0.4028673 -0.9152586
vn -4.466764E-07 -0.4809977 -0.876722
vn -3.914352E-07 -0.518545 -0.8550506
vn -2.781173E-07 -0.5910978 -0.8066001
vn -2.200262E-07 -0.6260644 -0.7797715
vn -1.038999E-07 -0.6916229 -0.722259
vn -4.587239E-08 -0.7222592 -0.6916226
vn 7.110557E-08 -0.7797714 -0.6260645
vn 1.300579E-07 -0.8065997 -0.5910985
vn 2.459293E-07 -0.8550504 -0.5185454
vn 3.028533E-07 -0.8767222 -0.4809975
vn 4.154379E-07 -0.9152586 -0.4028672
vn 4.710798E-07 -0.9320766 -0.3622617
vn 5.788876E-07 -0.9601344 -0.2795395
vn 6.310778E-07 -0.9714057 -0.2374265
vn 7.31485E-07 -0.9883541 -0.1521724
vn 7.797095E-07 -0.9940386 -0.1090302
vn 8.718926E-07 -0.999759 -0.02196157
vn 9.158155E-07 -0.999759 0.02196139
vn 9.977698E-07 -0.9940386 0.1090301
vn 1.03583E-06 -0.9883541 0.1521723
vn 1.105931E-06 -0.9714057 0.2374264
vn 1.137966E-06 -0.9601344 0.2795393
vn 1.195603E-06 -0.9320767 0.3622616
vn 1.221172E-06 -0.9152586 0.402867
vn 1.264848E-06 -0.8767223 0.4809974
vn 1.28302E-06 -0.8550504 0.5185453
vn 1.312255E-06 -0.8065997 0.5910983
vn 1.323234E-06 -0.7797715 0.6260644
vn 1.337373E-06 -0.7222593 0.6916225
vn 1.340618E-06 -0.691623 0.7222589
vn 1.339517E-06 -0.6260645 0.7797714
vn 1.335083E-06 -0.591098 0.8066
vn 1.318666E-06 -0.5185449 0.8550507
vn 1.306767E-06 -0.4809974 0.8767223
vn 1.27545E-06 -0.4028672 0.9152586
vn 1.255964E-06 -0.3622614 0.9320767
vn 1.210062E-06 -0.2795392 0.9601345
vn 1.183681E-06 -0.2374266 0.9714058
vn 1.124407E-06 -0.1521727 0.9883541
vn 1.091519E-06 -0.1090304 0.9940386
vn 1.019394E-06 -0.02196158 0.999759
vn 9.801238E-07 0.0219614 0.999759
vn 8.965578E-07 0.1090302 0.9940386
vn 8.523011E-07 0.1521725 0.9883541
vn 7.591298E-07 0.2374264 0.9714057
vn 7.10207E-07 0.279539 0.9601346
vn 6.081897E-07 0.3622613 0.9320768
vn 5.550673E-07 0.4028671 0.9152587
vn 4.466771E-07 0.4809973 0.8767224
vn 3.914355E-07 0.5185447 0.8550507
vn 2.781173E-07 0.5910978 0.8066001
vn 2.200262E-07 0.6260644 0.7797715
vn 1.038999E-07 0.6916229 0.722259
vn 4.587239E-08 0.7222592 0.6916226
vn -7.110557E-08 0.7797714 0.6260645
vn -1.300579E-07 0.8065997 0.5910985
vn -2.459293E-07 0.8550504 0.5185454
vn -3.028533E-07 0.8767222 0.4809975
vn -4.154379E-07 0.9152586 0.4028672
vn -4.710798E-07 0.9320766 0.3622617
vn -5.788876E-07 0.9601344 0.2795395
vn -6.310778E-07 0.9714057 0.2374265
vn -7.31485E-07 0.9883541 0.1521724
vn -7.797095E-07 0.9940386 0.1090302
vn 1 1.192093E-06 -1E-06
vn 1 1.192093E-06 -1E-06
vn 1 1.192093E-06 -1E-06
vn 1 1.192093E-06 -1E-06
vn 1 1.192093E-06 -1E-06
vn 1 1.192093E-06 -1E-06
vn 1 1.192093E-06 -1E-06
vn 1 1.192093E-06 -9.999999E-07
vn 1 1.192093E-06 -1E-06
vn 1 1.192093E-06 -1E-06
vn 1 1.192093E-06 -1E-06
vn 1 1.192093E-06 -1E-06
vn 1 1.192093E-06 -1E-06
vn 1 1.192093E-06 -1E-06
vn 1 1.192093E-06 -1E-06
vn 1 1.192093E-06 -1E-06
vn 1 1.192093E-06 -1E-06
vn 1 1.192093E-06 -1E-06
vn 1 1.192093E-06 -1E-06
vn 1 1.192093E-06 -9.999999E-07
vn 1 1.192093E-06 -1E-06
vn 1 1.192093E-06 -1E-06
vn 1 1.192093E-06 -1E-06
vn 1 1.192093E-06 -1E-06
vn 1 1.192093E-06 -1E-06
vn 1 1.192093E-06 -1E-06
vn 1 1.192093E-06 -1E-06
vn 1 1.192093E-06 -1E-06
vn 1 1.192093E-06 -1E-06
vn 1 1.192093E-06 -1E-06
vn 1 1.192093E-06 -1E-06
vn 1 1.192093E-06 -9.999999E-07
vn 1 1.192093E-06 -1E-06
vn 1 1.192093E-06 -1E-06
vn 1 1.192093E-06 -1E-06
vn 1 1.192093E-06 -1E-06
vn 1 1.192093E-06 -1E-06
vn 1 1.192093E-06 -1E-06
vn 1 1.192093E-06 -1E-06
vn 1 1.192093E-06 -1E-06
vn 1 1.192093E-06 -1E-06
vn 1 1.192093E-06 -1E-06
vn 1 1.192093E-06 -1E-06
vn 1 1.192093E-06 -9.999999E-07
vn 1 1.192093E-06 -1E-06
vn 1 1.192093E-06 -1E-06
vn 1 1.192093E-06 -1E-06
vn 1 1.192093E-06 -1E-06
vn 1 1.192093E-06 -1E-06
vn -9.977699E-07 0.9940385 -0.1090302
vn -8.718925E-07 0.9997589 0.02196158
vn -9.158155E-07 0.9997589 -0.02196141
vn -1.03583E-06 0.988354 -0.1521726
vn -1.10593E-06 0.9714057 -0.2374261
vn -1.137966E-06 0.9601346 -0.2795385
vn -1.195603E-06 0.9320768 -0.3622611
vn -1.221172E-06 0.9152585 -0.4028674
vn -1.264848E-06 0.8767219 -0.4809978
vn -1.28302E-06 0.8550505 -0.518545
vn -1.312254E-06 0.8066 -0.5910979
vn -1.323234E-06 0.7797714 -0.6260645
vn -1.337373E-06 0.7222589 -0.691623
vn -1.340618E-06 0.6916225 -0.7222593
vn -1.339517E-06 0.6260644 -0.7797715
vn -1.335083E-06 0.5910984 -0.8065997
vn -1.318666E-06 0.5185453 -0.8550505
vn -1.306767E-06 0.4809974 -0.8767223
vn -1.27545E-06 0.4028671 -0.9152587
vn -1.255964E-06 0.3622617 -0.9320768
vn -1.210062E-06 0.2795394 -0.9601344
vn -1.183681E-06 0.2374265 -0.9714058
vn -1.124407E-06 0.1521724 -0.9883543
vn -1.091519E-06 0.1090302 -0.9940387
vn -1.019394E-06 0.02196156 -0.9997591
vn -9.801239E-07 -0.02196139 -0.9997591
vn -8.96558E-07 -0.10903 -0.9940387
vn -8.523015E-07 -0.1521722 -0.9883543
vn -7.591299E-07 -0.2374264 -0.9714058
vn -7.102067E-07 -0.2795393 -0.9601345
vn -6.081896E-07 -0.3622615 -0.9320768
vn -5.550675E-07 -0.402867 -0.9152588
vn -4.466771E-07 -0.4809973 -0.8767224
vn -3.914349E-07 -0.5185452 -0.8550506
vn -2.781167E-07 -0.5910982 -0.8065999
vn -2.200264E-07 -0.6260643 -0.7797716
vn -1.039007E-07 -0.6916224 -0.7222595
vn -4.587324E-08 -0.7222588 -0.6916231
vn 7.110535E-08 -0.7797713 -0.6260647
vn 1.300586E-07 -0.8065999 -0.5910981
vn 2.459299E-07 -0.8550506 -0.5185449
vn 3.028533E-07 -0.8767222 -0.4809975
vn 4.154377E-07 -0.9152585 -0.4028673
vn 4.7108E-07 -0.9320766 -0.3622615
vn 5.788879E-07 -0.9601344 -0.2795392
vn 6.310778E-07 -0.9714057 -0.2374266
vn 7.314846E-07 -0.988354 -0.1521727
vn 7.797093E-07 -0.9940385 -0.1090304
vn 8.718925E-07 -0.9997589 -0.02196158
vn 9.158155E-07 -0.9997589 0.02196141
vn 9.977699E-07 -0.9940385 0.1090302
vn 1.03583E-06 -0.988354 0.1521726
vn 1.105931E-06 -0.9714056 0.2374264
vn 1.137966E-06 -0.9601344 0.279539
vn 1.195603E-06 -0.9320766 0.3622613
vn 1.221172E-06 -0.9152586 0.4028671
vn 1.264848E-06 -0.8767223 0.4809974
vn 1.28302E-06 -0.8550506 0.5185448
vn 1.312254E-06 -0.8066 0.5910979
vn 1.323234E-06 -0.7797714 0.6260645
vn 1.337373E-06 -0.7222589 0.691623
vn 1.340618E-06 -0.6916225 0.7222593
vn 1.339517E-06 -0.6260644 0.7797715
vn 1.335083E-06 -0.5910984 0.8065997
vn 1.318666E-06 -0.5185453 0.8550505
vn 1.306767E-06 -0.4809974 0.8767223
vn 1.27545E-06 -0.4028671 0.9152587
vn 1.255964E-06 -0.3622617 0.9320768
vn 1.210062E-06 -0.2795394 0.9601344
vn 1.183681E-06 -0.2374265 0.9714058
vn 1.124407E-06 -0.1521724 0.9883543
vn 1.091519E-06 -0.1090302 0.9940387
vn 1.019394E-06 -0.02196156 0.9997591
vn 9.801239E-07 0.02196139 0.9997591
vn 8.96558E-07 0.10903 0.9940387
vn 8.523015E-07 0.1521722 0.9883543
vn 7.591299E-07 0.2374264 0.9714058
vn 7.102067E-07 0.2795393 0.9601345
vn 6.081896E-07 0.3622615 0.9320768
vn 5.550675E-07 0.402867 0.9152588
vn 4.466771E-07 0.4809973 0.8767224
vn 3.914349E-07 0.5185452 0.8550506
vn 2.781167E-07 0.5910982 0.8065999
vn 2.200264E-07 0.6260643 0.7797716
vn 1.039007E-07 0.6916224 0.7222595
vn 4.587324E-08 0.7222588 0.6916231
vn -7.110535E-08 0.7797713 0.6260647
vn -1.300586E-07 0.8065999 0.5910981
vn -2.459296E-07 0.8550504 0.5185452
vn -3.028526E-07 0.8767219 0.4809979
vn -4.154373E-07 0.9152584 0.4028675
vn -4.710803E-07 0.9320767 0.3622612
vn -5.788886E-07 0.9601346 0.2795386
vn -6.310781E-07 0.9714057 0.2374263
vn -7.314846E-07 0.988354 0.1521727
vn -7.797093E-07 0.9940385 0.1090304
vn 1 1.192093E-06 -1E-06
vn 1 1.192093E-06 -1E-06
vn 1 1.192093E-06 -1E-06
vn 1 1.192093E-06 -1E-06
vn 1 1.192093E-06 -1E-06
vn 1 1.192093E-06 -1E-06
vn 1 1.192093E-06 -1E-06
vn 1 1.192093E-06 -1E-06
vn 1 1.192093E-06 -1E-06
vn 1 1.192093E-06 -1E-06
vn 1 1.192093E-06 -1E-06
vn 1 1.192093E-06 -1E-06
vn 1 1.192093E-06 -1E-06
vn 1 1.192093E-06 -1E-06
vn 1 1.192093E-06 -1E-06
vn 1 1.192093E-06 -1E-06
vn 1 1.192093E-06 -1E-06
vn 1 1.192093E-06 -1E-06
vn -1 -1.192093E-06 1E-06
vn -1 -1.192093E-06 1E-06
vn -1 -1.192093E-06 1E-06
vn -1 -1.192093E-06 1E-06
vn -1 -1.192093E-06 1E-06
vn -1 -1.192093E-06 1E-06
vn -8.940697E-07 1 8.742375E-08
vn -8.940697E-07 1 8.742375E-08
vn -8.940697E-07 1 8.742375E-08
vn -8.940697E-07 1 8.742375E-08
vn -1E-06 8.74228E-08 -1
vn -1E-06 8.74228E-08 -1
vn -1E-06 8.74228E-08 -1
vn -1E-06 8.74228E-08 -1
vn -8.940697E-07 1 8.742375E-08
vn -8.940697E-07 1 8.742375E-08
vn -8.940697E-07 1 8.742375E-08
vn -8.940697E-07 1 8.742375E-08
vn -1E-06 8.74228E-08 -1
vn -1E-06 8.74228E-08 -1
vn -1E-06 8.74228E-08 -1
vn -1E-06 8.74228E-08 -1
vn 8.940697E-07 -1 -8.742375E-08
vn 8.940697E-07 -1 -8.742375E-08
vn 8.940697E-07 -1 -8.742375E-08
vn 8.940697E-07 -1 -8.742375E-08
vn 1E-06 -8.74228E-08 1
vn 1E-06 -8.74228E-08 1
vn 1E-06 -8.74228E-08 1
vn 1E-06 -8.74228E-08 1
vn -9.977698E-07 0.9940386 -0.10903
vn -8.718925E-07 0.9997589 0.02196158
vn -9.158155E-07 0.9997589 -0.02196141
vn -1.03583E-06 0.9883541 -0.1521721
vn -1.105931E-06 0.9714057 -0.2374263
vn -1.137966E-06 0.9601343 -0.2795394
vn -1.195603E-06 0.9320766 -0.3622616
vn -1.221172E-06 0.9152588 -0.4028669
vn -1.264848E-06 0.8767223 -0.4809971
vn -1.28302E-06 0.8550504 -0.5185452
vn -1.312255E-06 0.8065999 -0.5910981
vn -1.323234E-06 0.7797717 -0.6260642
vn -1.337373E-06 0.7222593 -0.6916226
vn -1.340618E-06 0.6916226 -0.7222593
vn -1.339517E-06 0.6260643 -0.7797717
vn -1.335083E-06 0.5910982 -0.8065999
vn -1.318666E-06 0.5185452 -0.8550505
vn -1.306767E-06 0.4809972 -0.8767223
vn -1.27545E-06 0.402867 -0.9152588
vn -1.255964E-06 0.3622617 -0.9320767
vn -1.210062E-06 0.2795395 -0.9601344
vn -1.183681E-06 0.2374265 -0.9714058
vn -1.124407E-06 0.1521723 -0.9883542
vn -1.091519E-06 0.1090302 -0.9940387
vn -1.019394E-06 0.02196158 -0.999759
vn -9.801238E-07 -0.0219614 -0.999759
vn -8.96558E-07 -0.10903 -0.9940387
vn -8.523015E-07 -0.1521721 -0.9883542
vn -7.591299E-07 -0.2374263 -0.9714058
vn -7.102066E-07 -0.2795393 -0.9601344
vn -6.081896E-07 -0.3622615 -0.9320768
vn -5.550677E-07 -0.4028668 -0.9152589
vn -4.466773E-07 -0.4809971 -0.8767224
vn -3.91435E-07 -0.5185451 -0.8550506
vn -2.78117E-07 -0.5910981 -0.8066
vn -2.200266E-07 -0.6260642 -0.7797718
vn -1.039005E-07 -0.6916225 -0.7222594
vn -4.587256E-08 -0.7222592 -0.6916227
vn 7.110586E-08 -0.7797716 -0.6260644
vn 1.300582E-07 -0.8065998 -0.5910983
vn 2.459294E-07 -0.8550504 -0.5185453
vn 3.028535E-07 -0.8767222 -0.4809973
vn 4.154381E-07 -0.9152587 -0.402867
vn 4.710797E-07 -0.9320766 -0.3622617
vn 5.788875E-07 -0.9601343 -0.2795396
vn 6.310779E-07 -0.9714057 -0.2374265
vn 7.314851E-07 -0.9883541 -0.1521723
vn 7.797095E-07 -0.9940386 -0.1090302
vn 8.718925E-07 -0.9997589 -0.02196158
vn 9.158155E-07 -0.9997589 0.02196141
vn 9.977698E-07 -0.9940386 0.10903
vn 1.03583E-06 -0.9883541 0.1521721
vn 1.105931E-06 -0.9714057 0.2374263
vn 1.137966E-06 -0.9601343 0.2795394
vn 1.195603E-06 -0.9320766 0.3622616
vn 1.221172E-06 -0.9152588 0.4028669
vn 1.264848E-06 -0.8767223 0.4809971
vn 1.28302E-06 -0.8550504 0.5185452
vn 1.312255E-06 -0.8065999 0.5910981
vn 1.323234E-06 -0.7797717 0.6260642
vn 1.337373E-06 -0.7222593 0.6916226
vn 1.340618E-06 -0.6916226 0.7222593
vn 1.339517E-06 -0.6260643 0.7797717
vn 1.335083E-06 -0.5910982 0.8065999
vn 1.318666E-06 -0.5185452 0.8550505
vn 1.306767E-06 -0.4809972 0.8767223
vn 1.27545E-06 -0.402867 0.9152588
vn 1.255964E-06 -0.3622617 0.9320767
vn 1.210062E-06 -0.2795395 0.9601344
vn 1.183681E-06 -0.2374265 0.9714058
vn 1.124407E-06 -0.1521723 0.9883542
vn 1.091519E-06 -0.1090302 0.9940387
vn 1.019394E-06 -0.02196158 0.999759
vn 9.801238E-07 0.0219614 0.999759
vn 8.96558E-07 0.10903 0.9940387
vn 8.523015E-07 0.1521721 0.9883542
vn 7.591299E-07 0.2374263 0.9714058
vn 7.102066E-07 0.2795393 0.9601344
vn 6.081896E-07 0.3622615 0.9320768
vn 5.550677E-07 0.4028668 0.9152589
vn 4.466773E-07 0.4809971 0.8767224
vn 3.91435E-07 0.5185451 0.8550506
vn 2.78117E-07 0.5910981 0.8066
vn 2.200266E-07 0.6260642 0.7797718
vn 1.039005E-07 0.6916225 0.7222594
vn 4.587256E-08 0.7222592 0.6916227
vn -7.110586E-08 0.7797716 0.6260644
vn -1.300582E-07 0.8065998 0.5910983
vn -2.459294E-07 0.8550504 0.5185453
vn -3.028535E-07 0.8767222 0.4809973
vn -4.154381E-07 0.9152587 0.402867
vn -4.710797E-07 0.9320766 0.3622617
vn -5.788875E-07 0.9601343 0.2795396
vn -6.310779E-07 0.9714057 0.2374265
vn -7.314851E-07 0.9883541 0.1521723
vn -7.797095E-07 0.9940386 0.1090302
vn -1 -1.192093E-06 1E-06
vn -1 -1.192093E-06 1E-06
vn -1 -1.192093E-06 1E-06
vn -1 -1.192093E-06 1E-06
vn -1 -1.192093E-06 1E-06
vn -1 -1.192093E-06 1E-06
vn -1 -1.192093E-06 1E-06
vn -1 -1.192093E-06 1E-06
vn -1 -1.192093E-06 1E-06
vn -1 -1.192093E-06 1E-06
vn -1 -1.192093E-06 1E-06
vn -1 -1.192093E-06 1E-06
vn -1 -1.192093E-06 1E-06
vn -1 -1.192093E-06 1E-06
vn -1 -1.192093E-06 1E-06
vn -1 -1.192093E-06 1E-06
vn -1 -1.192093E-06 1E-06
vn -1 -1.192093E-06 1E-06
vn -1 -1.192093E-06 1E-06
vn -1 -1.192093E-06 1E-06
vn -1 -1.192093E-06 1E-06
vn -1 -1.192093E-06 1E-06
vn -1 -1.192093E-06 1E-06
vn -1 -1.192093E-06 1E-06
vn -1 -1.192093E-06 1E-06
vn -1 -1.192093E-06 1E-06
vn -1 -1.192093E-06 1E-06
vn -1 -1.192093E-06 1E-06
vn -1 -1.192093E-06 1E-06
vn -1 -1.192093E-06 1E-06
vn -1 -1.192093E-06 1E-06
vn -1 -1.192093E-06 1E-06
vn -1 -1.192093E-06 1E-06
vn -1 -1.192093E-06 1E-06
vn -1 -1.192093E-06 1E-06
vn -1 -1.192093E-06 1E-06
vn -1 -1.192093E-06 1E-06
vn -1 -1.192093E-06 1E-06
vn -1 -1.192093E-06 1E-06
vn -1 -1.192093E-06 1E-06
vn -1 -1.192093E-06 1E-06
vn -1 -1.192093E-06 1E-06
vn -1 -1.192093E-06 1E-06
vn -1 -1.192093E-06 1E-06
vn -1 -1.192093E-06 1E-06
vn -1 -1.192093E-06 1E-06
vn -1 -1.192093E-06 1E-06
vn -1 -1.192093E-06 1E-06
vn -1 -1.192093E-06 1E-06
vn -9.977693E-07 0.9940386 -0.1090296
vn -8.718927E-07 0.9997589 0.02196138
vn -9.158153E-07 0.9997589 -0.0219612
vn -1.035829E-06 0.9883541 -0.152172
vn -1.105931E-06 0.9714057 -0.2374265
vn -1.137967E-06 0.9601343 -0.2795398
vn -1.195603E-06 0.9320763 -0.3622623
vn -1.221172E-06 0.9152583 -0.4028677
vn -1.264848E-06 0.8767219 -0.4809977
vn -1.28302E-06 0.8550503 -0.5185454
vn -1.312255E-06 0.8066 -0.591098
vn -1.323234E-06 0.7797719 -0.626064
vn -1.337373E-06 0.7222595 -0.6916224
vn -1.340618E-06 0.6916227 -0.7222592
vn -1.339517E-06 0.6260644 -0.7797716
vn -1.335083E-06 0.5910984 -0.8065997
vn -1.318666E-06 0.5185453 -0.8550504
vn -1.306767E-06 0.4809972 -0.8767223
vn -1.27545E-06 0.4028668 -0.9152588
vn -1.255964E-06 0.3622615 -0.9320767
vn -1.210062E-06 0.2795396 -0.9601344
vn -1.183682E-06 0.2374268 -0.9714057
vn -1.124407E-06 0.1521724 -0.9883541
vn -1.091519E-06 0.1090302 -0.9940386
vn -1.019394E-06 0.02196155 -0.9997591
vn -9.801239E-07 -0.02196138 -0.9997591
vn -8.96558E-07 -0.10903 -0.9940386
vn -8.523014E-07 -0.1521723 -0.9883541
vn -7.591296E-07 -0.2374266 -0.9714057
vn -7.102066E-07 -0.2795395 -0.9601345
vn -6.081897E-07 -0.3622614 -0.9320768
vn -5.550679E-07 -0.4028667 -0.9152589
vn -4.466773E-07 -0.4809971 -0.8767224
vn -3.914348E-07 -0.5185452 -0.8550505
vn -2.781166E-07 -0.5910982 -0.8065998
vn -2.200265E-07 -0.6260643 -0.7797717
vn -1.039007E-07 -0.6916224 -0.7222595
vn -4.587296E-08 -0.722259 -0.691623
vn 7.110541E-08 -0.7797713 -0.6260646
vn 1.300579E-07 -0.8065996 -0.5910984
vn 2.459294E-07 -0.8550504 -0.5185453
vn 3.028535E-07 -0.8767222 -0.4809973
vn 4.154378E-07 -0.9152586 -0.4028672
vn 4.710792E-07 -0.9320763 -0.3622621
vn 5.78887E-07 -0.9601343 -0.2795399
vn 6.310777E-07 -0.9714057 -0.2374267
vn 7.314853E-07 -0.9883541 -0.1521721
vn 7.797099E-07 -0.9940386 -0.1090298
vn 8.718927E-07 -0.9997589 -0.02196138
vn 9.158153E-07 -0.9997589 0.0219612
vn 9.977693E-07 -0.9940386 0.1090296
vn 1.035829E-06 -0.9883541 0.152172
vn 1.105931E-06 -0.9714057 0.2374265
vn 1.137967E-06 -0.9601343 0.2795398
vn 1.195603E-06 -0.9320764 0.3622619
vn 1.221172E-06 -0.9152586 0.402867
vn 1.264848E-06 -0.8767223 0.4809971
vn 1.28302E-06 -0.8550504 0.5185452
vn 1.312254E-06 -0.8065997 0.5910982
vn 1.323234E-06 -0.7797714 0.6260644
vn 1.337373E-06 -0.7222591 0.6916229
vn 1.340618E-06 -0.6916225 0.7222593
vn 1.339517E-06 -0.6260644 0.7797716
vn 1.335083E-06 -0.5910984 0.8065997
vn 1.318666E-06 -0.5185453 0.8550504
vn 1.306767E-06 -0.4809972 0.8767223
vn 1.27545E-06 -0.4028668 0.9152588
vn 1.255964E-06 -0.3622615 0.9320767
vn 1.210062E-06 -0.2795396 0.9601344
vn 1.183682E-06 -0.2374268 0.9714057
vn 1.124407E-06 -0.1521724 0.9883541
vn 1.091519E-06 -0.1090302 0.9940386
vn 1.019394E-06 -0.02196155 0.9997591
vn 9.801239E-07 0.02196138 0.9997591
vn 8.96558E-07 0.10903 0.9940386
vn 8.523014E-07 0.1521723 0.9883541
vn 7.591296E-07 0.2374266 0.9714057
vn 7.102066E-07 0.2795395 0.9601345
vn 6.081897E-07 0.3622614 0.9320768
vn 5.550679E-07 0.4028667 0.9152589
vn 4.466773E-07 0.4809971 0.8767224
vn 3.914348E-07 0.5185452 0.8550505
vn 2.781166E-07 0.5910982 0.8065998
vn 2.200265E-07 0.6260643 0.7797717
vn 1.039004E-07 0.6916226 0.7222593
vn 4.587216E-08 0.7222593 0.6916225
vn -7.110626E-08 0.7797718 0.6260642
vn -1.300585E-07 0.8065999 0.5910982
vn -2.45929E-07 0.8550502 0.5185456
vn -3.028526E-07 0.8767218 0.4809979
vn -4.154369E-07 0.9152583 0.4028679
vn -4.710787E-07 0.9320763 0.3622625
vn -5.78887E-07 0.9601343 0.2795399
vn -6.310777E-07 0.9714057 0.2374267
vn -7.314853E-07 0.9883541 0.1521721
vn -7.797099E-07 0.9940386 0.1090298
vn -1 -1.192093E-06 1E-06
vn -1 -1.192093E-06 1E-06
vn -1 -1.192093E-06 9.999999E-07
vn -1 -1.192093E-06 1E-06
vn -1 -1.192093E-06 9.999999E-07
vn -1 -1.192093E-06 1E-06
vn -1 -1.192093E-06 1E-06
vn -1 -1.192093E-06 1E-06
vn -1 -1.192093E-06 1E-06
vn -1 -1.192093E-06 9.999999E-07
vn -1 -1.192093E-06 9.999999E-07
vn -1 -1.192093E-06 1E-06
vn -1 -1.192093E-06 9.999999E-07
vn -1 -1.192093E-06 1E-06
vn -1 -1.192093E-06 1E-06
vn -1 -1.192093E-06 1E-06
vn -1 -1.192093E-06 1E-06
vn -1 -1.192093E-06 1E-06
vn -1 -1.192093E-06 1E-06
vn -1 -1.192093E-06 1E-06
vn -1 -1.192093E-06 1E-06
vn -1 -1.192093E-06 1E-06
vn -1 -1.192093E-06 1E-06
vn -1 -1.192093E-06 1E-06
vn -1 -1.192093E-06 1E-06
vn -1 -1.192093E-06 1E-06
vn -1 -1.192093E-06 1E-06
vn -1 -1.192093E-06 1E-06
vn -1 -1.192093E-06 1E-06
vn -1 -1.192093E-06 1E-06
vn -1 -1.192093E-06 1E-06
vn -1 -1.192093E-06 1E-06
vn -1 -1.192093E-06 1E-06
vn -1 -1.192093E-06 9.999999E-07
vn -1 -1.192093E-06 9.999999E-07
vn -1 -1.192093E-06 1E-06
vn -1 -1.192093E-06 9.999999E-07
vn -1 -1.192093E-06 1E-06
vn -1 -1.192093E-06 1E-06
vn -1 -1.192093E-06 1E-06
vn -1 -1.192093E-06 1E-06
vn -1 -1.192093E-06 1E-06
vn -1 -1.192093E-06 1E-06
vn -1 -1.192093E-06 1E-06
vn -1 -1.192093E-06 1E-06
vn -1 -1.192093E-06 1E-06
vn -1 -1.192093E-06 9.999999E-07
vn -1 -1.192093E-06 1E-06
vn -1 -1.192093E-06 1E-06
vn -9.977697E-07 0.9940385 -0.10903
vn -8.718926E-07 0.999759 0.02196155
vn -9.158155E-07 0.999759 -0.02196138
vn -1.03583E-06 0.988354 -0.1521723
vn -1.105931E-06 0.9714056 -0.2374266
vn -1.137966E-06 0.9601344 -0.2795395
vn -1.195603E-06 0.9320766 -0.3622614
vn -1.221172E-06 0.9152588 -0.4028667
vn -1.264848E-06 0.8767223 -0.4809971
vn -1.28302E-06 0.8550504 -0.5185453
vn -1.312255E-06 0.8065997 -0.5910983
vn -1.323234E-06 0.7797716 -0.6260644
vn -1.337373E-06 0.7222592 -0.6916227
vn -1.340618E-06 0.6916224 -0.7222595
vn -1.339517E-06 0.6260641 -0.7797719
vn -1.335083E-06 0.5910981 -0.8066
vn -1.318666E-06 0.5185455 -0.8550503
vn -1.306767E-06 0.4809978 -0.8767219
vn -1.27545E-06 0.4028678 -0.9152584
vn -1.255964E-06 0.3622624 -0.9320764
vn -1.210062E-06 0.2795399 -0.9601343
vn -1.183682E-06 0.2374267 -0.9714058
vn -1.124406E-06 0.1521721 -0.9883543
vn -1.091519E-06 0.1090298 -0.9940387
vn -1.019394E-06 0.02196137 -0.999759
vn -9.80124E-07 -0.0219612 -0.999759
vn -8.965584E-07 -0.1090296 -0.9940387
vn -8.523018E-07 -0.1521719 -0.9883543
vn -7.591298E-07 -0.2374265 -0.9714058
vn -7.102062E-07 -0.2795397 -0.9601344
vn -6.081886E-07 -0.3622622 -0.9320765
vn -5.550665E-07 -0.4028677 -0.9152585
vn -4.466764E-07 -0.4809977 -0.876722
vn -3.914345E-07 -0.5185454 -0.8550504
vn -2.781172E-07 -0.591098 -0.8066001
vn -2.20027E-07 -0.6260639 -0.779772
vn -1.039009E-07 -0.6916223 -0.7222596
vn -4.587273E-08 -0.7222591 -0.6916229
vn 7.110568E-08 -0.7797716 -0.6260645
vn 1.300579E-07 -0.8065996 -0.5910985
vn 2.459292E-07 -0.8550503 -0.5185454
vn 3.028535E-07 -0.8767222 -0.4809973
vn 4.154383E-07 -0.9152587 -0.4028669
vn 4.710799E-07 -0.9320766 -0.3622616
vn 5.788874E-07 -0.9601344 -0.2795397
vn 6.310775E-07 -0.9714056 -0.2374268
vn 7.314849E-07 -0.988354 -0.1521725
vn 7.797095E-07 -0.9940385 -0.1090302
vn 8.718926E-07 -0.999759 -0.02196155
vn 9.158155E-07 -0.999759 0.02196138
vn 9.977697E-07 -0.9940385 0.10903
vn 1.03583E-06 -0.988354 0.1521723
vn 1.105931E-06 -0.9714056 0.2374266
vn 1.137966E-06 -0.9601344 0.2795395
vn 1.195603E-06 -0.9320766 0.3622614
vn 1.221172E-06 -0.9152588 0.4028667
vn 1.264848E-06 -0.8767223 0.4809971
vn 1.28302E-06 -0.8550504 0.5185453
vn 1.312255E-06 -0.8065997 0.5910983
vn 1.323234E-06 -0.7797716 0.6260644
vn 1.337373E-06 -0.7222593 0.6916225
vn 1.340618E-06 -0.6916229 0.7222591
vn 1.339517E-06 -0.6260645 0.7797714
vn 1.335083E-06 -0.5910983 0.8065997
vn 1.318666E-06 -0.5185452 0.8550505
vn 1.306767E-06 -0.4809972 0.8767223
vn 1.27545E-06 -0.4028671 0.9152587
vn 1.255964E-06 -0.362262 0.9320765
vn 1.210062E-06 -0.2795399 0.9601343
vn 1.183682E-06 -0.2374267 0.9714058
vn 1.124406E-06 -0.1521721 0.9883543
vn 1.091519E-06 -0.1090298 0.9940387
vn 1.019394E-06 -0.02196137 0.999759
vn 9.80124E-07 0.0219612 0.999759
vn 8.965584E-07 0.1090296 0.9940387
vn 8.523018E-07 0.1521719 0.9883543
vn 7.591298E-07 0.2374265 0.9714058
vn 7.102062E-07 0.2795397 0.9601344
vn 6.08189E-07 0.3622619 0.9320765
vn 5.550675E-07 0.402867 0.9152588
vn 4.466773E-07 0.4809971 0.8767224
vn 3.91435E-07 0.5185451 0.8550506
vn 2.781167E-07 0.5910982 0.8065998
vn 2.200262E-07 0.6260644 0.7797715
vn 1.039002E-07 0.6916227 0.7222592
vn 4.587239E-08 0.7222592 0.6916226
vn -7.110568E-08 0.7797716 0.6260645
vn -1.300579E-07 0.8065996 0.5910985
vn -2.459292E-07 0.8550503 0.5185454
vn -3.028535E-07 0.8767222 0.4809973
vn -4.154383E-07 0.9152587 0.4028669
vn -4.710799E-07 0.9320766 0.3622616
vn -5.788874E-07 0.9601344 0.2795397
vn -6.310775E-07 0.9714056 0.2374268
vn -7.314849E-07 0.988354 0.1521725
vn -7.797095E-07 0.9940385 0.1090302
vn -1 -1.192093E-06 1E-06
vn -1 -1.192093E-06 1E-06
vn -1 -1.192093E-06 1E-06
vn -1 -1.192093E-06 1E-06
vn -1 -1.192093E-06 1E-06
vn -1 -1.192093E-06 1E-06
vn -1 -1.192093E-06 1E-06
vn -1 -1.192093E-06 1E-06
vn -1 -1.192093E-06 1E-06
vn -1 -1.192093E-06 1E-06
vn -1 -1.192093E-06 9.999999E-07
vn -1 -1.192093E-06 1E-06
vn -1 -1.192093E-06 1E-06
vn -1 -1.192093E-06 1E-06
vn -1 -1.192093E-06 1E-06
vn -1 -1.192093E-06 1E-06
vn -1 -1.192093E-06 9.999999E-07
vn -1 -1.192093E-06 1E-06
vn -1 -1.192093E-06 1E-06
vn -1 -1.192093E-06 1E-06
vn -1 -1.192093E-06 1E-06
vn -1 -1.192093E-06 9.999999E-07
vn -1 -1.192093E-06 9.999999E-07
vn -1 -1.192093E-06 1E-06
vn -1 -1.192093E-06 9.999999E-07
vn -1 -1.192093E-06 1E-06
vn -1 -1.192093E-06 1E-06
vn -1 -1.192093E-06 1E-06
vn -1 -1.192093E-06 1E-06
vn -1 -1.192093E-06 1E-06
vn -1 -1.192093E-06 1E-06
vn -1 -1.192093E-06 1E-06
vn -1 -1.192093E-06 1E-06
vn -1 -1.192093E-06 1E-06
vn -1 -1.192093E-06 1E-06
vn -1 -1.192093E-06 1E-06
vn -1 -1.192093E-06 1E-06
vn -1 -1.192093E-06 1E-06
vn -1 -1.192093E-06 1E-06
vn -1 -1.192093E-06 1E-06
vn -1 -1.192093E-06 1E-06
vn -1 -1.192093E-06 1E-06
vn -1 -1.192093E-06 1E-06
vn -1 -1.192093E-06 1E-06
vn -1 -1.192093E-06 1E-06
vn -1 -1.192093E-06 9.999999E-07
vn -1 -1.192093E-06 9.999999E-07
vn -1 -1.192093E-06 1E-06
vn -1 -1.192093E-06 9.999999E-07
vn 8.940697E-07 -1 -8.742375E-08
vn 8.940697E-07 -1 -8.742375E-08
vn 8.940697E-07 -1 -8.742375E-08
vn 8.940697E-07 -1 -8.742375E-08
vn 1E-06 -8.74228E-08 1
vn 1E-06 -8.74228E-08 1
vn 1E-06 -8.74228E-08 1
vn 1E-06 -8.74228E-08 1
vn 8.940697E-07 -1 -8.742375E-08
vn 8.940697E-07 -1 -8.742375E-08
vn 8.940697E-07 -1 -8.742375E-08
vn 8.940697E-07 -1 -8.742375E-08
vn 1E-06 -8.74228E-08 1
vn 1E-06 -8.74228E-08 1
vn 1E-06 -8.74228E-08 1
vn 1E-06 -8.74228E-08 1
vn -8.940697E-07 1 8.742375E-08
vn -8.940697E-07 1 8.742375E-08
vn -8.940697E-07 1 8.742375E-08
vn -8.940697E-07 1 8.742375E-08
vn -1E-06 8.74228E-08 -1
vn -1E-06 8.74228E-08 -1
vn -1E-06 8.74228E-08 -1
vn -1E-06 8.74228E-08 -1
vt -2.522 11.9656
vt -2 12
vt -2 8
vt -3.0352 11.8636
vt -3.5308 11.6956
vt -4 11.464
vt -4.4352 11.1736
vt -4.8284 10.8284
vt -5.1736 10.4352
vt -5.464 10
vt -5.6956 9.5308
vt -5.8636 9.0352
vt -5.9656 8.522
vt -6 8
vt -5.9656 7.478
vt -5.8636 6.9648
vt -5.6956 6.4692
vt -5.464 6
vt -5.1736 5.5648
vt -4.8284 5.1716
vt -4.4352 4.8264
vt -4 4.536
vt -3.5308 4.3044
vt -3.0352 4.1364
vt -2.522 4.0344
vt -2 4
vt -1.478 4.0344
vt -0.9647999 4.1364
vt -0.4692001 4.3044
vt 0 4.536
vt 0.4351997 4.8264
vt 0.8283997 5.1716
vt 1.1736 5.5648
vt 1.464 6
vt 1.6956 6.4692
vt 1.8636 6.9648
vt 1.9656 7.478
vt 2 8
vt 1.9656 8.522
vt 1.8636 9.0352
vt 1.6956 9.5308
vt 1.464 10
vt 1.1736 10.4352
vt 0.8283997 10.8284
vt 0.4351997 11.1736
vt 0 11.464
vt -0.4692001 11.6956
vt -0.9647999 11.8636
vt -1.478 11.9656
vt 7.9656 -6.5564
vt 8 -6
vt 12 -6
vt 11.9656 -6.5564
vt 7.8636 -7.1716
vt 11.8636 -7.1716
vt 7.6956 -7.8352
vt 11.6956 -7.8352
vt 7.464 -8.536
vt 11.464 -8.536
vt 7.1736 -9.2616
vt 11.1736 -9.2616
vt 6.8284 -10
vt 10.8284 -10
vt 6.4352 -10.7384
vt 10.4352 -10.7384
vt 6 -11.464
vt 10 -11.464
vt 5.5308 -12.1648
vt 9.5308 -12.1648
vt 5.0352 -12.8284
vt 9.0352 -12.8284
vt 4.522 -13.4436
vt 8.522 -13.4436
vt 4 -14
vt -6 -14
vt -9.9656 -14.4876
vt -5.9656 -14.4876
vt -9.8636 -14.8988
vt -5.8636 -14.8988
vt -9.695601 -15.2264
vt -5.695601 -15.2264
vt -9.464 -15.464
vt -5.464 -15.464
vt -9.1736 -15.6088
vt -5.1736 -15.6088
vt -8.8284 -15.6568
vt 5.1716 -15.6568
vt 0.8264 -15.6088
vt 4.8264 -15.6088
vt 0.536 -15.464
vt 4.536 -15.464
vt 0.3044 -15.2264
vt 4.3044 -15.2264
vt 0.1364 -14.8988
vt 4.1364 -14.8988
vt 0.03439999 -14.4876
vt 4.0344 -14.4876
vt 0 -14
vt -2 -14
vt -5.478 -13.4436
vt -1.478 -13.4436
vt -4.9648 -12.8284
vt -0.9647999 -12.8284
vt -4.4692 -12.1648
vt -0.4692001 -12.1648
vt -4 -11.464
vt 0 -11.464
vt -3.5648 -10.7384
vt 0.4351997 -10.7384
vt -3.1716 -10
vt 0.8283997 -10
vt -2.8264 -9.2616
vt 1.1736 -9.2616
vt -2.536 -8.536
vt 1.464 -8.536
vt -2.3044 -7.8352
vt 1.6956 -7.8352
vt -2.1364 -7.1716
vt 1.8636 -7.1716
vt -2.0344 -6.5564
vt 1.9656 -6.5564
vt -2 -6
vt 2 -6
vt -2.0344 -5.5124
vt 1.9656 -5.5124
vt -2.1364 -5.1012
vt 1.8636 -5.1012
vt -2.3044 -4.7736
vt 1.6956 -4.7736
vt -2.536 -4.536
vt 1.464 -4.536
vt -2.8264 -4.3912
vt 1.1736 -4.3912
vt -3.1716 -4.343201
vt 10.8284 -4.343201
vt 7.1736 -4.3912
vt 11.1736 -4.3912
vt 7.464 -4.536
vt 11.464 -4.536
vt 7.6956 -4.7736
vt 11.6956 -4.7736
vt 7.8636 -5.1012
vt 11.8636 -5.1012
vt 7.9656 -5.5124
vt 11.9656 -5.5124
vt 7.478 21.9656
vt 8 22
vt 8 18
vt 6.9648 21.8636
vt 6.4692 21.6956
vt 6 21.464
vt 5.5648 21.1736
vt 5.1716 20.8284
vt 4.8264 20.4352
vt 4.536 20
vt 4.3044 19.5308
vt 4.1364 19.0352
vt 4.0344 18.522
vt 4 18
vt 4.0344 17.478
vt 4.1364 16.9648
vt 4.3044 16.4692
vt 4.536 16
vt 4.8264 15.5648
vt 5.1716 15.1716
vt 5.5648 14.8264
vt 6 14.536
vt 6.4692 14.3044
vt 6.9648 14.1364
vt 7.478 14.0344
vt 8 14
vt 8.522 14.0344
vt 9.0352 14.1364
vt 9.5308 14.3044
vt 10 14.536
vt 10.4352 14.8264
vt 10.8284 15.1716
vt 11.1736 15.5648
vt 11.464 16
vt 11.6956 16.4692
vt 11.8636 16.9648
vt 11.9656 17.478
vt 12 18
vt 11.9656 18.522
vt 11.8636 19.0352
vt 11.6956 19.5308
vt 11.464 20
vt 11.1736 20.4352
vt 10.8284 20.8284
vt 10.4352 21.1736
vt 10 21.464
vt 9.5308 21.6956
vt 9.0352 21.8636
vt 8.522 21.9656
vt 17.9656 13.4436
vt 18 14
vt 22 14
vt 21.9656 13.4436
vt 17.8636 12.8284
vt 21.8636 12.8284
vt 17.6956 12.1648
vt 21.6956 12.1648
vt 17.464 11.464
vt 21.464 11.464
vt 17.1736 10.7384
vt 21.1736 10.7384
vt 16.8284 10
vt 20.8284 10
vt 16.4352 9.2616
vt 20.4352 9.2616
vt 16 8.536
vt 20 8.536
vt 15.5308 7.8352
vt 19.5308 7.8352
vt 15.0352 7.1716
vt 19.0352 7.1716
vt 14.522 6.5564
vt 18.522 6.5564
vt 14 6
vt 4 6
vt 0.03439999 5.5124
vt 4.0344 5.5124
vt 0.1364 5.1012
vt 4.1364 5.1012
vt 0.3044 4.7736
vt 4.3044 4.7736
vt 0.536 4.536
vt 4.536 4.536
vt 0.8264 4.3912
vt 4.8264 4.3912
vt 1.1716 4.343201
vt 15.1716 4.343201
vt 10.8264 4.3912
vt 14.8264 4.3912
vt 10.536 4.536
vt 14.536 4.536
vt 10.3044 4.7736
vt 14.3044 4.7736
vt 10.1364 5.1012
vt 14.1364 5.1012
vt 10.0344 5.5124
vt 14.0344 5.5124
vt 10 6
vt 8 6
vt 4.522 6.5564
vt 8.522 6.5564
vt 5.0352 7.1716
vt 9.0352 7.1716
vt 5.5308 7.8352
vt 9.5308 7.8352
vt 6 8.536
vt 10 8.536
vt 6.4352 9.2616
vt 10.4352 9.2616
vt 6.8284 10
vt 10.8284 10
vt 7.1736 10.7384
vt 11.1736 10.7384
vt 7.464 11.464
vt 11.464 11.464
vt 7.6956 12.1648
vt 11.6956 12.1648
vt 7.8636 12.8284
vt 11.8636 12.8284
vt 7.9656 13.4436
vt 11.9656 13.4436
vt 8 14
vt 12 14
vt 7.9656 14.4876
vt 11.9656 14.4876
vt 7.8636 14.8988
vt 11.8636 14.8988
vt 7.6956 15.2264
vt 11.6956 15.2264
vt 7.464 15.464
vt 11.464 15.464
vt 7.1736 15.6088
vt 11.1736 15.6088
vt 6.8284 15.6568
vt 20.8284 15.6568
vt 17.1736 15.6088
vt 21.1736 15.6088
vt 17.464 15.464
vt 21.464 15.464
vt 17.6956 15.2264
vt 21.6956 15.2264
vt 17.8636 14.8988
vt 21.8636 14.8988
vt 17.9656 14.4876
vt 21.9656 14.4876
vt -22 -2
vt -18 2
vt -18 14
vt -22 18
vt 18 -2
vt 14 2
vt 18 38
vt 14 34
vt -2 38
vt 2 34
vt -2 18
vt 2 14
vt -2 30
vt -2 10
vt 10 -2
vt 10 30
vt -22 -2
vt -22 10
vt 10 30
vt 10 -10
vt -10 10
vt -10 30
vt -30 -10
vt -30 10
vt 30 20
vt 30 40
vt 38 40
vt 38 20
vt -2 0
vt -10 0
vt -10 20
vt -2 20
vt 10 -20
vt 10 0
vt 18 0
vt 18 -20
vt -22 -40
vt -30 -40
vt -30 -20
vt -22 -20
vt -10 0
vt -10 -40
vt -2 -40
vt -2 0
vt 18 40
vt 10 40
vt 10 0
vt 18 0
vt 1.9484 5.1654
vt 2 6
vt 6 6
vt 5.9484 5.1654
vt 1.7954 4.2426
vt 5.7954 4.2426
vt 1.5434 3.2472
vt 5.5434 3.2472
vt 1.196 2.196
vt 5.196 2.196
vt 0.7603998 1.1076
vt 4.7604 1.1076
vt 0.2426 0
vt 4.2426 0
vt -0.3471999 -1.1076
vt 3.6528 -1.1076
vt -1 -2.196
vt 3 -2.196
vt -1.7038 -3.2472
vt 2.2962 -3.2472
vt -2.4472 -4.2426
vt 1.5528 -4.2426
vt -3.217 -5.1654
vt 0.783 -5.1654
vt -4 -6
vt -6 -6
vt -9.9484 -6.7314
vt -5.9484 -6.7314
vt -9.795401 -7.3482
vt -5.7954 -7.3482
vt -9.5434 -7.8396
vt -5.5434 -7.8396
vt -9.196 -8.196
vt -5.196 -8.196
vt -8.7604 -8.4132
vt -4.7604 -8.4132
vt -8.242599 -8.4852
vt -4.2426 -8.4852
vt -8.7604 -8.4132
vt -4.7604 -8.4132
vt -9.196 -8.196
vt -5.196 -8.196
vt -9.5434 -7.8396
vt -5.5434 -7.8396
vt -9.795401 -7.3482
vt -5.7954 -7.3482
vt -9.9484 -6.7314
vt -5.9484 -6.7314
vt -10 -6
vt 0 -6
vt -3.217 -5.1654
vt 0.783 -5.1654
vt -2.4472 -4.2426
vt 1.5528 -4.2426
vt -1.7038 -3.2472
vt 2.2962 -3.2472
vt -1 -2.196
vt 3 -2.196
vt -0.3471999 -1.1076
vt 3.6528 -1.1076
vt 0.2426 0
vt 4.2426 0
vt 0.7603998 1.1076
vt 4.7604 1.1076
vt 1.196 2.196
vt 5.196 2.196
vt 1.5434 3.2472
vt 5.5434 3.2472
vt 1.7954 4.2426
vt 5.7954 4.2426
vt 1.9484 5.1654
vt 5.9484 5.1654
vt 2 6
vt 6 6
vt 1.9484 6.7314
vt 5.9484 6.7314
vt 1.7954 7.3482
vt 5.7954 7.3482
vt 1.5434 7.8396
vt 5.5434 7.8396
vt 1.196 8.196
vt 5.196 8.196
vt 0.7603998 8.4132
vt 4.7604 8.4132
vt 0.2426 8.4852
vt 4.2426 8.4852
vt 0.7603998 8.4132
vt 4.7604 8.4132
vt 1.196 8.196
vt 5.196 8.196
vt 1.5434 7.8396
vt 5.5434 7.8396
vt 1.7954 7.3482
vt 5.7954 7.3482
vt 1.9484 6.7314
vt 5.9484 6.7314
vt -4.783 1.9484
vt -4 2
vt -4 -4
vt -5.5528 1.7954
vt -6.2962 1.5434
vt -7 1.196
vt -7.6528 0.7603998
vt -8.242599 0.2426
vt -8.7604 -0.3471999
vt -9.196 -1
vt -9.5434 -1.7038
vt -9.795401 -2.4472
vt -9.9484 -3.217
vt -10 -4
vt -9.9484 -4.783
vt -9.795401 -5.5528
vt -9.5434 -6.2962
vt -9.196 -7
vt -8.7604 -7.6528
vt -8.242599 -8.242599
vt -7.6528 -8.7604
vt -7 -9.196
vt -6.2962 -9.5434
vt -5.5528 -9.795401
vt -4.783 -9.9484
vt -4 -10
vt -3.217 -9.9484
vt -2.4472 -9.795401
vt -1.7038 -9.5434
vt -1 -9.196
vt -0.3471999 -8.7604
vt 0.2426 -8.242599
vt 0.7603998 -7.6528
vt 1.196 -7
vt 1.5434 -6.2962
vt 1.7954 -5.5528
vt 1.9484 -4.783
vt 2 -4
vt 1.9484 -3.217
vt 1.7954 -2.4472
vt 1.5434 -1.7038
vt 1.196 -1
vt 0.7603998 -0.3471999
vt 0.2426 0.2426
vt -0.3471999 0.7603998
vt -1 1.196
vt -1.7038 1.5434
vt -2.4472 1.7954
vt -3.217 1.9484
vt 21.9484 25.1654
vt 22 26
vt 26 26
vt 25.9484 25.1654
vt 21.7954 24.2426
vt 25.7954 24.2426
vt 21.5434 23.2472
vt 25.5434 23.2472
vt 21.196 22.196
vt 25.196 22.196
vt 20.7604 21.1076
vt 24.7604 21.1076
vt 20.2426 20
vt 24.2426 20
vt 19.6528 18.8924
vt 23.6528 18.8924
vt 19 17.804
vt 23 17.804
vt 18.2962 16.7528
vt 22.2962 16.7528
vt 17.5528 15.7574
vt 21.5528 15.7574
vt 16.783 14.8346
vt 20.783 14.8346
vt 16 14
vt -6 14
vt -9.9484 13.2686
vt -5.9484 13.2686
vt -9.795401 12.6518
vt -5.7954 12.6518
vt -9.5434 12.1604
vt -5.5434 12.1604
vt -9.196 11.804
vt -5.196 11.804
vt -8.7604 11.5868
vt -4.7604 11.5868
vt -8.242599 11.5148
vt 15.7574 11.5148
vt 11.2396 11.5868
vt 15.2396 11.5868
vt 10.804 11.804
vt 14.804 11.804
vt 10.4566 12.1604
vt 14.4566 12.1604
vt 10.2046 12.6518
vt 14.2046 12.6518
vt 10.0516 13.2686
vt 14.0516 13.2686
vt 10 14
vt 0 14
vt -3.217 14.8346
vt 0.783 14.8346
vt -2.4472 15.7574
vt 1.5528 15.7574
vt -1.7038 16.7528
vt 2.2962 16.7528
vt -1 17.804
vt 3 17.804
vt -0.3471999 18.8924
vt 3.6528 18.8924
vt 0.2426 20
vt 4.2426 20
vt 0.7603998 21.1076
vt 4.7604 21.1076
vt 1.196 22.196
vt 5.196 22.196
vt 1.5434 23.2472
vt 5.5434 23.2472
vt 1.7954 24.2426
vt 5.7954 24.2426
vt 1.9484 25.1654
vt 5.9484 25.1654
vt 2 26
vt 6 26
vt 1.9484 26.7314
vt 5.9484 26.7314
vt 1.7954 27.3482
vt 5.7954 27.3482
vt 1.5434 27.8396
vt 5.5434 27.8396
vt 1.196 28.196
vt 5.196 28.196
vt 0.7603998 28.4132
vt 4.7604 28.4132
vt 0.2426 28.4852
vt 24.2426 28.4852
vt 20.7604 28.4132
vt 24.7604 28.4132
vt 21.196 28.196
vt 25.196 28.196
vt 21.5434 27.8396
vt 25.5434 27.8396
vt 21.7954 27.3482
vt 25.7954 27.3482
vt 21.9484 26.7314
vt 25.9484 26.7314
vt -4.783 21.9484
vt -4 22
vt -4 16
vt -5.5528 21.7954
vt -6.2962 21.5434
vt -7 21.196
vt -7.6528 20.7604
vt -8.242599 20.2426
vt -8.7604 19.6528
vt -9.196 19
vt -9.5434 18.2962
vt -9.795401 17.5528
vt -9.9484 16.783
vt -10 16
vt -9.9484 15.217
vt -9.795401 14.4472
vt -9.5434 13.7038
vt -9.196 13
vt -8.7604 12.3472
vt -8.242599 11.7574
vt -7.6528 11.2396
vt -7 10.804
vt -6.2962 10.4566
vt -5.5528 10.2046
vt -4.783 10.0516
vt -4 10
vt -3.217 10.0516
vt -2.4472 10.2046
vt -1.7038 10.4566
vt -1 10.804
vt -0.3471999 11.2396
vt 0.2426 11.7574
vt 0.7603998 12.3472
vt 1.196 13
vt 1.5434 13.7038
vt 1.7954 14.4472
vt 1.9484 15.217
vt 2 16
vt 1.9484 16.783
vt 1.7954 17.5528
vt 1.5434 18.2962
vt 1.196 19
vt 0.7603998 19.6528
vt 0.2426 20.2426
vt -0.3471999 20.7604
vt -1 21.196
vt -1.7038 21.5434
vt -2.4472 21.7954
vt -3.217 21.9484
vt 1.9484 -14.8346
vt 2 -14
vt 6 -14
vt 5.9484 -14.8346
vt 1.7954 -15.7574
vt 5.7954 -15.7574
vt 1.5434 -16.7528
vt 5.5434 -16.7528
vt 1.196 -17.804
vt 5.196 -17.804
vt 0.7603998 -18.8924
vt 4.7604 -18.8924
vt 0.2426 -20
vt 4.2426 -20
vt -0.3471999 -21.1076
vt 3.6528 -21.1076
vt -1 -22.196
vt 3 -22.196
vt -1.7038 -23.2472
vt 2.2962 -23.2472
vt -2.4472 -24.2426
vt 1.5528 -24.2426
vt -3.217 -25.1654
vt 0.783 -25.1654
vt -4 -26
vt -26 -26
vt -29.9484 -26.7314
vt -25.9484 -26.7314
vt -29.7954 -27.3482
vt -25.7954 -27.3482
vt -29.5434 -27.8396
vt -25.5434 -27.8396
vt -29.196 -28.196
vt -25.196 -28.196
vt -28.7604 -28.4132
vt -24.7604 -28.4132
vt -28.2426 -28.4852
vt -4.2426 -28.4852
vt -8.7604 -28.4132
vt -4.7604 -28.4132
vt -9.196 -28.196
vt -5.196 -28.196
vt -9.5434 -27.8396
vt -5.5434 -27.8396
vt -9.795401 -27.3482
vt -5.7954 -27.3482
vt -9.9484 -26.7314
vt -5.9484 -26.7314
vt -10 -26
vt -20 -26
vt -23.217 -25.1654
vt -19.217 -25.1654
vt -22.4472 -24.2426
vt -18.4472 -24.2426
vt -21.7038 -23.2472
vt -17.7038 -23.2472
vt -21 -22.196
vt -17 -22.196
vt -20.3472 -21.1076
vt -16.3472 -21.1076
vt -19.7574 -20
vt -15.7574 -20
vt -19.2396 -18.8924
vt -15.2396 -18.8924
vt -18.804 -17.804
vt -14.804 -17.804
vt -18.4566 -16.7528
vt -14.4566 -16.7528
vt -18.2046 -15.7574
vt -14.2046 -15.7574
vt -18.0516 -14.8346
vt -14.0516 -14.8346
vt -18 -14
vt -14 -14
vt -18.0516 -13.2686
vt -14.0516 -13.2686
vt -18.2046 -12.6518
vt -14.2046 -12.6518
vt -18.4566 -12.1604
vt -14.4566 -12.1604
vt -18.804 -11.804
vt -14.804 -11.804
vt -19.2396 -11.5868
vt -15.2396 -11.5868
vt -19.7574 -11.5148
vt 4.2426 -11.5148
vt 0.7603998 -11.5868
vt 4.7604 -11.5868
vt 1.196 -11.804
vt 5.196 -11.804
vt 1.5434 -12.1604
vt 5.5434 -12.1604
vt 1.7954 -12.6518
vt 5.7954 -12.6518
vt 1.9484 -13.2686
vt 5.9484 -13.2686
vt -24.783 1.9484
vt -24 2
vt -24 -4
vt -25.5528 1.7954
vt -26.2962 1.5434
vt -27 1.196
vt -27.6528 0.7603998
vt -28.2426 0.2426
vt -28.7604 -0.3471999
vt -29.196 -1
vt -29.5434 -1.7038
vt -29.7954 -2.4472
vt -29.9484 -3.217
vt -30 -4
vt -29.9484 -4.783
vt -29.7954 -5.5528
vt -29.5434 -6.2962
vt -29.196 -7
vt -28.7604 -7.6528
vt -28.2426 -8.242599
vt -27.6528 -8.7604
vt -27 -9.196
vt -26.2962 -9.5434
vt -25.5528 -9.795401
vt -24.783 -9.9484
vt -24 -10
vt -23.217 -9.9484
vt -22.4472 -9.795401
vt -21.7038 -9.5434
vt -21 -9.196
vt -20.3472 -8.7604
vt -19.7574 -8.242599
vt -19.2396 -7.6528
vt -18.804 -7
vt -18.4566 -6.2962
vt -18.2046 -5.5528
vt -18.0516 -4.783
vt -18 -4
vt -18.0516 -3.217
vt -18.2046 -2.4472
vt -18.4566 -1.7038
vt -18.804 -1
vt -19.2396 -0.3471999
vt -19.7574 0.2426
vt -20.3472 0.7603998
vt -21 1.196
vt -21.7038 1.5434
vt -22.4472 1.7954
vt -23.217 1.9484
vt 10 -20
vt 10 0
vt 14 0
vt 14 -20
vt -18 -32
vt -22 -32
vt -22 -20
vt -18 -20
vt 30 20
vt 30 32
vt 34 32
vt 34 20
vt 2 0
vt -2 0
vt -2 20
vt 2 20
vt -2 0
vt -2 -32
vt 2 -32
vt 2 0
vt 14 32
vt 10 32
vt 10 0
vt 14 0
usemtl 30
f 1/1/1 2/2/2 3/3/3
f 4/4/4 1/1/1 3/3/3
f 5/5/5 4/4/4 3/3/3
f 6/6/6 5/5/5 3/3/3
f 7/7/7 6/6/6 3/3/3
f 8/8/8 7/7/7 3/3/3
f 9/9/9 8/8/8 3/3/3
f 10/10/10 9/9/9 3/3/3
f 11/11/11 10/10/10 3/3/3
f 12/12/12 11/11/11 3/3/3
f 13/13/13 12/12/12 3/3/3
f 14/14/14 13/13/13 3/3/3
f 15/15/15 14/14/14 3/3/3
f 16/16/16 15/15/15 3/3/3
f 17/17/17 16/16/16 3/3/3
f 18/18/18 17/17/17 3/3/3
f 19/19/19 18/18/18 3/3/3
f 20/20/20 19/19/19 3/3/3
f 21/21/21 20/20/20 3/3/3
f 22/22/22 21/21/21 3/3/3
f 23/23/23 22/22/22 3/3/3
f 24/24/24 23/23/23 3/3/3
f 25/25/25 24/24/24 3/3/3
f 26/26/26 25/25/25 3/3/3
f 27/27/27 26/26/26 3/3/3
f 28/28/28 27/27/27 3/3/3
f 29/29/29 28/28/28 3/3/3
f 30/30/30 29/29/29 3/3/3
f 31/31/31 30/30/30 3/3/3
f 32/32/32 31/31/31 3/3/3
f 33/33/33 32/32/32 3/3/3
f 34/34/34 33/33/33 3/3/3
f 35/35/35 34/34/34 3/3/3
f 36/36/36 35/35/35 3/3/3
f 37/37/37 36/36/36 3/3/3
f 38/38/38 37/37/37 3/3/3
f 39/39/39 38/38/38 3/3/3
f 40/40/40 39/39/39 3/3/3
f 41/41/41 40/40/40 3/3/3
f 42/42/42 41/41/41 3/3/3
f 43/43/43 42/42/42 3/3/3
f 44/44/44 43/43/43 3/3/3
f 45/45/45 44/44/44 3/3/3
f 46/46/46 45/45/45 3/3/3
f 47/47/47 46/46/46 3/3/3
f 48/48/48 47/47/47 3/3/3
f 49/49/49 48/48/48 3/3/3
f 2/2/2 49/49/49 3/3/3
f 50/50/50 51/51/51 52/52/52
f 52/52/52 53/53/53 50/50/50
f 54/54/54 50/50/50 53/53/53
f 53/53/53 55/55/55 54/54/54
f 56/56/56 54/54/54 55/55/55
f 55/55/55 57/57/57 56/56/56
f 58/58/58 56/56/56 57/57/57
f 57/57/57 59/59/59 58/58/58
f 60/60/60 58/58/58 59/59/59
f 59/59/59 61/61/61 60/60/60
f 62/62/62 60/60/60 61/61/61
f 61/61/61 63/63/63 62/62/62
f 64/64/64 62/62/62 63/63/63
f 63/63/63 65/65/65 64/64/64
f 66/66/66 64/64/64 65/65/65
f 65/65/65 67/67/67 66/66/66
f 68/68/68 66/66/66 67/67/67
f 67/67/67 69/69/69 68/68/68
f 70/70/70 68/68/68 69/69/69
f 69/69/69 71/71/71 70/70/70
f 72/72/72 70/70/70 71/71/71
f 71/71/71 73/73/73 72/72/72
f 74/74/74 72/72/72 73/73/73
f 73/73/73 75/75/75 74/74/74
f 76/76/76 74/74/74 75/75/75
f 75/75/75 77/77/77 76/76/76
f 78/78/78 76/76/76 77/77/77
f 77/77/77 79/79/79 78/78/78
f 80/80/80 78/78/78 79/79/79
f 79/79/79 81/81/81 80/80/80
f 82/82/82 80/80/80 81/81/81
f 81/81/81 83/83/83 82/82/82
f 84/84/84 82/82/82 83/83/83
f 83/83/83 85/85/85 84/84/84
f 86/86/86 84/84/84 85/85/85
f 85/85/85 87/87/87 86/86/86
f 88/88/88 86/86/86 87/87/87
f 87/87/87 89/89/89 88/88/88
f 90/90/90 88/88/88 89/89/89
f 89/89/89 91/91/91 90/90/90
f 92/92/92 90/90/90 91/91/91
f 91/91/91 93/93/93 92/92/92
f 94/94/94 92/92/92 93/93/93
f 93/93/93 95/95/95 94/94/94
f 96/96/96 94/94/94 95/95/95
f 95/95/95 97/97/97 96/96/96
f 98/98/98 96/96/96 97/97/97
f 97/97/97 99/99/99 98/98/98
f 100/100/100 98/98/98 99/99/99
f 99/99/99 101/101/101 100/100/100
f 102/102/102 100/100/100 101/101/101
f 101/101/101 103/103/103 102/102/102
f 104/104/104 102/102/102 103/103/103
f 103/103/103 105/105/105 104/104/104
f 106/106/106 104/104/104 105/105/105
f 105/105/105 107/107/107 106/106/106
f 108/108/108 106/106/106 107/107/107
f 107/107/107 109/109/109 108/108/108
f 110/110/110 108/108/108 109/109/109
f 109/109/109 111/111/111 110/110/110
f 112/112/112 110/110/110 111/111/111
f 111/111/111 113/113/113 112/112/112
f 114/114/114 112/112/112 113/113/113
f 113/113/113 115/115/115 114/114/114
f 116/116/116 114/114/114 115/115/115
f 115/115/115 117/117/117 116/116/116
f 118/118/118 116/116/116 117/117/117
f 117/117/117 119/119/119 118/118/118
f 120/120/120 118/118/118 119/119/119
f 119/119/119 121/121/121 120/120/120
f 122/122/122 120/120/120 121/121/121
f 121/121/121 123/123/123 122/122/122
f 124/124/124 122/122/122 123/123/123
f 123/123/123 125/125/125 124/124/124
f 126/126/126 124/124/124 125/125/125
f 125/125/125 127/127/127 126/126/126
f 128/128/128 126/126/126 127/127/127
f 127/127/127 129/129/129 128/128/128
f 130/130/130 128/128/128 129/129/129
f 129/129/129 131/131/131 130/130/130
f 132/132/132 130/130/130 131/131/131
f 131/131/131 133/133/133 132/132/132
f 134/134/134 132/132/132 133/133/133
f 133/133/133 135/135/135 134/134/134
f 136/136/136 134/134/134 135/135/135
f 135/135/135 137/137/137 136/136/136
f 138/138/138 136/136/136 137/137/137
f 137/137/137 139/139/139 138/138/138
f 140/140/140 138/138/138 139/139/139
f 139/139/139 141/141/141 140/140/140
f 142/142/142 140/140/140 141/141/141
f 141/141/141 143/143/143 142/142/142
f 144/144/144 142/142/142 143/143/143
f 143/143/143 145/145/145 144/144/144
f 51/51/51 144/144/144 145/145/145
f 145/145/145 52/52/52 51/51/51
f 146/146/146 147/147/147 148/148/148
f 149/149/149 146/146/146 148/148/148
f 150/150/150 149/149/149 148/148/148
f 151/151/151 150/150/150 148/148/148
f 152/152/152 151/151/151 148/148/148
f 153/153/153 152/152/152 148/148/148
f 154/154/154 153/153/153 148/148/148
f 155/155/155 154/154/154 148/148/148
f 156/156/156 155/155/155 148/148/148
f 157/157/157 156/156/156 148/148/148
f 158/158/158 157/157/157 148/148/148
f 159/159/159 158/158/158 148/148/148
f 160/160/160 159/159/159 148/148/148
f 161/161/161 160/160/160 148/148/148
f 162/162/162 161/161/161 148/148/148
f 163/163/163 162/162/162 148/148/148
f 164/164/164 163/163/163 148/148/148
f 165/165/165 164/164/164 148/148/148
f 166/166/166 165/165/165 148/148/148
f 167/167/167 166/166/166 148/148/148
f 168/168/168 167/167/167 148/148/148
f 169/169/169 168/168/168 148/148/148
f 170/170/170 169/169/169 148/148/148
f 171/171/171 170/170/170 148/148/148
f 172/172/172 171/171/171 148/148/148
f 173/173/173 172/172/172 148/148/148
f 174/174/174 173/173/173 148/148/148
f 175/175/175 174/174/174 148/148/148
f 176/176/176 175/175/175 148/148/148
f 177/177/177 176/176/176 148/148/148
f 178/178/178 177/177/177 148/148/148
f 179/179/179 178/178/178 148/148/148
f 180/180/180 179/179/179 148/148/148
f 181/181/181 180/180/180 148/148/148
f 182/182/182 181/181/181 148/148/148
f 183/183/183 182/182/182 148/148/148
f 184/184/184 183/183/183 148/148/148
f 185/185/185 184/184/184 148/148/148
f 186/186/186 185/185/185 148/148/148
f 187/187/187 186/186/186 148/148/148
f 188/188/188 187/187/187 148/148/148
f 189/189/189 188/188/188 148/148/148
f 190/190/190 189/189/189 148/148/148
f 191/191/191 190/190/190 148/148/148
f 192/192/192 191/191/191 148/148/148
f 193/193/193 192/192/192 148/148/148
f 194/194/194 193/193/193 148/148/148
f 147/147/147 194/194/194 148/148/148
f 195/195/195 196/196/196 197/197/197
f 197/197/197 198/198/198 195/195/195
f 199/199/199 195/195/195 198/198/198
f 198/198/198 200/200/200 199/199/199
f 201/201/201 199/199/199 200/200/200
f 200/200/200 202/202/202 201/201/201
f 203/203/203 201/201/201 202/202/202
f 202/202/202 204/204/204 203/203/203
f 205/205/205 203/203/203 204/204/204
f 204/204/204 206/206/206 205/205/205
f 207/207/207 205/205/205 206/206/206
f 206/206/206 208/208/208 207/207/207
f 209/209/209 207/207/207 208/208/208
f 208/208/208 210/210/210 209/209/209
f 211/211/211 209/209/209 210/210/210
f 210/210/210 212/212/212 211/211/211
f 213/213/213 211/211/211 212/212/212
f 212/212/212 214/214/214 213/213/213
f 215/215/215 213/213/213 214/214/214
f 214/214/214 216/216/216 215/215/215
f 217/217/217 215/215/215 216/216/216
f 216/216/216 218/218/218 217/217/217
f 219/219/219 217/217/217 218/218/218
f 218/218/218 220/220/220 219/219/219
f 221/221/221 219/219/219 220/220/220
f 220/220/220 222/222/222 221/221/221
f 223/223/223 221/221/221 222/222/222
f 222/222/222 224/224/224 223/223/223
f 225/225/225 223/223/223 224/224/224
f 224/224/224 226/226/226 225/225/225
f 227/227/227 225/225/225 226/226/226
f 226/226/226 228/228/228 227/227/227
f 229/229/229 227/227/227 228/228/228
f 228/228/228 230/230/230 229/229/229
f 231/231/231 229/229/229 230/230/230
f 230/230/230 232/232/232 231/231/231
f 233/233/233 231/231/231 232/232/232
f 232/232/232 234/234/234 233/233/233
f 235/235/235 233/233/233 234/234/234
f 234/234/234 236/236/236 235/235/235
f 237/237/237 235/235/235 236/236/236
f 236/236/236 238/238/238 237/237/237
f 239/239/239 237/237/237 238/238/238
f 238/238/238 240/240/240 239/239/239
f 241/241/241 239/239/239 240/240/240
f 240/240/240 242/242/242 241/241/241
f 243/243/243 241/241/241 242/242/242
f 242/242/242 244/244/244 243/243/243
f 245/245/245 243/243/243 244/244/244
f 244/244/244 246/246/246 245/245/245
f 247/247/247 245/245/245 246/246/246
f 246/246/246 248/248/248 247/247/247
f 249/249/249 247/247/247 248/248/248
f 248/248/248 250/250/250 249/249/249
f 251/251/251 249/249/249 250/250/250
f 250/250/250 252/252/252 251/251/251
f 253/253/253 251/251/251 252/252/252
f 252/252/252 254/254/254 253/253/253
f 255/255/255 253/253/253 254/254/254
f 254/254/254 256/256/256 255/255/255
f 257/257/257 255/255/255 256/256/256
f 256/256/256 258/258/258 257/257/257
f 259/259/259 257/257/257 258/258/258
f 258/258/258 260/260/260 259/259/259
f 261/261/261 259/259/259 260/260/260
f 260/260/260 262/262/262 261/261/261
f 263/263/263 261/261/261 262/262/262
f 262/262/262 264/264/264 263/263/263
f 265/265/265 263/263/263 264/264/264
f 264/264/264 266/266/266 265/265/265
f 267/267/267 265/265/265 266/266/266
f 266/266/266 268/268/268 267/267/267
f 269/269/269 267/267/267 268/268/268
f 268/268/268 270/270/270 269/269/269
f 271/271/271 269/269/269 270/270/270
f 270/270/270 272/272/272 271/271/271
f 273/273/273 271/271/271 272/272/272
f 272/272/272 274/274/274 273/273/273
f 275/275/275 273/273/273 274/274/274
f 274/274/274 276/276/276 275/275/275
f 277/277/277 275/275/275 276/276/276
f 276/276/276 278/278/278 277/277/277
f 279/279/279 277/277/277 278/278/278
f 278/278/278 280/280/280 279/279/279
f 281/281/281 279/279/279 280/280/280
f 280/280/280 282/282/282 281/281/281
f 283/283/283 281/281/281 282/282/282
f 282/282/282 284/284/284 283/283/283
f 285/285/285 283/283/283 284/284/284
f 284/284/284 286/286/286 285/285/285
f 287/287/287 285/285/285 286/286/286
f 286/286/286 288/288/288 287/287/287
f 289/289/289 287/287/287 288/288/288
f 288/288/288 290/290/290 289/289/289
f 196/196/196 289/289/289 290/290/290
f 290/290/290 197/197/197 196/196/196
f 293/293/293 292/292/292 291/291/291
f 291/291/291 294/294/294 293/293/293
f 292/292/292 296/296/296 295/295/295
f 295/295/295 291/291/291 292/292/292
f 296/296/296 298/298/298 297/297/297
f 297/297/297 295/295/295 296/296/296
f 298/298/298 300/300/300 299/299/299
f 299/299/299 297/297/297 298/298/298
f 300/300/300 302/302/302 301/301/301
f 301/301/301 299/299/299 300/300/300
f 302/302/302 293/293/293 294/294/294
f 294/294/294 301/301/301 302/302/302
f 305/305/305 304/304/304 303/303/303
f 303/303/303 306/306/306 305/305/305
f 304/304/304 305/305/305 307/307/307
f 307/307/307 308/308/308 304/304/304
f 311/311/311 310/310/310 309/309/309
f 309/309/309 312/312/312 311/311/311
f 314/314/314 313/313/313 310/310/310
f 310/310/310 311/311/311 314/314/314
f 315/315/315 316/316/316 317/317/317
f 317/317/317 318/318/318 315/315/315
f 319/319/319 320/320/320 321/321/321
f 321/321/321 322/322/322 319/319/319
f 323/323/323 324/324/324 325/325/325
f 325/325/325 326/326/326 323/323/323
f 327/327/327 328/328/328 329/329/329
f 329/329/329 330/330/330 327/327/327
f 331/331/331 332/332/332 333/333/333
f 333/333/333 334/334/334 331/331/331
f 335/335/335 336/336/336 337/337/337
f 337/337/337 338/338/338 335/335/335
f 339/339/339 340/340/340 341/341/341
f 341/341/341 342/342/342 339/339/339
f 343/343/343 339/339/339 342/342/342
f 342/342/342 344/344/344 343/343/343
f 345/345/345 343/343/343 344/344/344
f 344/344/344 346/346/346 345/345/345
f 347/347/347 345/345/345 346/346/346
f 346/346/346 348/348/348 347/347/347
f 349/349/349 347/347/347 348/348/348
f 348/348/348 350/350/350 349/349/349
f 351/351/351 349/349/349 350/350/350
f 350/350/350 352/352/352 351/351/351
f 353/353/353 351/351/351 352/352/352
f 352/352/352 354/354/354 353/353/353
f 355/355/355 353/353/353 354/354/354
f 354/354/354 356/356/356 355/355/355
f 357/357/357 355/355/355 356/356/356
f 356/356/356 358/358/358 357/357/357
f 359/359/359 357/357/357 358/358/358
f 358/358/358 360/360/360 359/359/359
f 361/361/361 359/359/359 360/360/360
f 360/360/360 362/362/362 361/361/361
f 363/363/363 361/361/361 362/362/362
f 362/362/362 364/364/364 363/363/363
f 365/365/365 363/363/363 364/364/364
f 364/364/364 366/366/366 365/365/365
f 367/367/367 365/365/365 366/366/366
f 366/366/366 368/368/368 367/367/367
f 369/369/369 367/367/367 368/368/368
f 368/368/368 370/370/370 369/369/369
f 371/371/371 369/369/369 370/370/370
f 370/370/370 372/372/372 371/371/371
f 373/373/373 371/371/371 372/372/372
f 372/372/372 374/374/374 373/373/373
f 375/375/375 373/373/373 374/374/374
f 374/374/374 376/376/376 375/375/375
f 377/377/377 375/375/375 376/376/376
f 376/376/376 378/378/378 377/377/377
f 379/379/379 377/377/377 378/378/378
f 378/378/378 380/380/380 379/379/379
f 381/381/381 379/379/379 380/380/380
f 380/380/380 382/382/382 381/381/381
f 383/383/383 381/381/381 382/382/382
f 382/382/382 384/384/384 383/383/383
f 385/385/385 383/383/383 384/384/384
f 384/384/384 386/386/386 385/385/385
f 387/387/387 385/385/385 386/386/386
f 386/386/386 388/388/388 387/387/387
f 389/389/389 387/387/387 388/388/388
f 388/388/388 390/390/390 389/389/389
f 391/391/391 389/389/389 390/390/390
f 390/390/390 392/392/392 391/391/391
f 393/393/393 391/391/391 392/392/392
f 392/392/392 394/394/394 393/393/393
f 395/395/395 393/393/393 394/394/394
f 394/394/394 396/396/396 395/395/395
f 397/397/397 395/395/395 396/396/396
f 396/396/396 398/398/398 397/397/397
f 399/399/399 397/397/397 398/398/398
f 398/398/398 400/400/400 399/399/399
f 401/401/401 399/399/399 400/400/400
f 400/400/400 402/402/402 401/401/401
f 403/403/403 401/401/401 402/402/402
f 402/402/402 404/404/404 403/403/403
f 405/405/405 403/403/403 404/404/404
f 404/404/404 406/406/406 405/405/405
f 407/407/407 405/405/405 406/406/406
f 406/406/406 408/408/408 407/407/407
f 409/409/409 407/407/407 408/408/408
f 408/408/408 410/410/410 409/409/409
f 411/411/411 409/409/409 410/410/410
f 410/410/410 412/412/412 411/411/411
f 413/413/413 411/411/411 412/412/412
f 412/412/412 414/414/414 413/413/413
f 415/415/415 413/413/413 414/414/414
f 414/414/414 416/416/416 415/415/415
f 417/417/417 415/415/415 416/416/416
f 416/416/416 418/418/418 417/417/417
f 419/419/419 417/417/417 418/418/418
f 418/418/418 420/420/420 419/419/419
f 421/421/421 419/419/419 420/420/420
f 420/420/420 422/422/422 421/421/421
f 423/423/423 421/421/421 422/422/422
f 422/422/422 424/424/424 423/423/423
f 425/425/425 423/423/423 424/424/424
f 424/424/424 426/426/426 425/425/425
f 427/427/427 425/425/425 426/426/426
f 426/426/426 428/428/428 427/427/427
f 429/429/429 427/427/427 428/428/428
f 428/428/428 430/430/430 429/429/429
f 431/431/431 429/429/429 430/430/430
f 430/430/430 432/432/432 431/431/431
f 433/433/433 431/431/431 432/432/432
f 432/432/432 434/434/434 433/433/433
f 340/340/340 433/433/433 434/434/434
f 434/434/434 341/341/341 340/340/340
f 437/437/437 436/436/436 435/435/435
f 437/437/437 435/435/435 438/438/438
f 437/437/437 438/438/438 439/439/439
f 437/437/437 439/439/439 440/440/440
f 437/437/437 440/440/440 441/441/441
f 437/437/437 441/441/441 442/442/442
f 437/437/437 442/442/442 443/443/443
f 437/437/437 443/443/443 444/444/444
f 437/437/437 444/444/444 445/445/445
f 437/437/437 445/445/445 446/446/446
f 437/437/437 446/446/446 447/447/447
f 437/437/437 447/447/447 448/448/448
f 437/437/437 448/448/448 449/449/449
f 437/437/437 449/449/449 450/450/450
f 437/437/437 450/450/450 451/451/451
f 437/437/437 451/451/451 452/452/452
f 437/437/437 452/452/452 453/453/453
f 437/437/437 453/453/453 454/454/454
f 437/437/437 454/454/454 455/455/455
f 437/437/437 455/455/455 456/456/456
f 437/437/437 456/456/456 457/457/457
f 437/437/437 457/457/457 458/458/458
f 437/437/437 458/458/458 459/459/459
f 437/437/437 459/459/459 460/460/460
f 437/437/437 460/460/460 461/461/461
f 437/437/437 461/461/461 462/462/462
f 437/437/437 462/462/462 463/463/463
f 437/437/437 463/463/463 464/464/464
f 437/437/437 464/464/464 465/465/465
f 437/437/437 465/465/465 466/466/466
f 437/437/437 466/466/466 467/467/467
f 437/437/437 467/467/467 468/468/468
f 437/437/437 468/468/468 469/469/469
f 437/437/437 469/469/469 470/470/470
f 437/437/437 470/470/470 471/471/471
f 437/437/437 471/471/471 472/472/472
f 437/437/437 472/472/472 473/473/473
f 437/437/437 473/473/473 474/474/474
f 437/437/437 474/474/474 475/475/475
f 437/437/437 475/475/475 476/476/476
f 437/437/437 476/476/476 477/477/477
f 437/437/437 477/477/477 478/478/478
f 437/437/437 478/478/478 479/479/479
f 437/437/437 479/479/479 480/480/480
f 437/437/437 480/480/480 481/481/481
f 437/437/437 481/481/481 482/482/482
f 437/437/437 482/482/482 483/483/483
f 437/437/437 483/483/483 436/436/436
f 484/484/484 485/485/485 486/486/486
f 486/486/486 487/487/487 484/484/484
f 488/488/488 484/484/484 487/487/487
f 487/487/487 489/489/489 488/488/488
f 490/490/490 488/488/488 489/489/489
f 489/489/489 491/491/491 490/490/490
f 492/492/492 490/490/490 491/491/491
f 491/491/491 493/493/493 492/492/492
f 494/494/494 492/492/492 493/493/493
f 493/493/493 495/495/495 494/494/494
f 496/496/496 494/494/494 495/495/495
f 495/495/495 497/497/497 496/496/496
f 498/498/498 496/496/496 497/497/497
f 497/497/497 499/499/499 498/498/498
f 500/500/500 498/498/498 499/499/499
f 499/499/499 501/501/501 500/500/500
f 502/502/502 500/500/500 501/501/501
f 501/501/501 503/503/503 502/502/502
f 504/504/504 502/502/502 503/503/503
f 503/503/503 505/505/505 504/504/504
f 506/506/506 504/504/504 505/505/505
f 505/505/505 507/507/507 506/506/506
f 508/508/508 506/506/506 507/507/507
f 507/507/507 509/509/509 508/508/508
f 510/510/510 508/508/508 509/509/509
f 509/509/509 511/511/511 510/510/510
f 512/512/512 510/510/510 511/511/511
f 511/511/511 513/513/513 512/512/512
f 514/514/514 512/512/512 513/513/513
f 513/513/513 515/515/515 514/514/514
f 516/516/516 514/514/514 515/515/515
f 515/515/515 517/517/517 516/516/516
f 518/518/518 516/516/516 517/517/517
f 517/517/517 519/519/519 518/518/518
f 520/520/520 518/518/518 519/519/519
f 519/519/519 521/521/521 520/520/520
f 522/522/522 520/520/520 521/521/521
f 521/521/521 523/523/523 522/522/522
f 524/524/524 522/522/522 523/523/523
f 523/523/523 525/525/525 524/524/524
f 526/526/526 524/524/524 525/525/525
f 525/525/525 527/527/527 526/526/526
f 528/528/528 526/526/526 527/527/527
f 527/527/527 529/529/529 528/528/528
f 530/530/530 528/528/528 529/529/529
f 529/529/529 531/531/531 530/530/530
f 532/532/532 530/530/530 531/531/531
f 531/531/531 533/533/533 532/532/532
f 534/534/534 532/532/532 533/533/533
f 533/533/533 535/535/535 534/534/534
f 536/536/536 534/534/534 535/535/535
f 535/535/535 537/537/537 536/536/536
f 538/538/538 536/536/536 537/537/537
f 537/537/537 539/539/539 538/538/538
f 540/540/540 538/538/538 539/539/539
f 539/539/539 541/541/541 540/540/540
f 542/542/542 540/540/540 541/541/541
f 541/541/541 543/543/543 542/542/542
f 544/544/544 542/542/542 543/543/543
f 543/543/543 545/545/545 544/544/544
f 546/546/546 544/544/544 545/545/545
f 545/545/545 547/547/547 546/546/546
f 548/548/548 546/546/546 547/547/547
f 547/547/547 549/549/549 548/548/548
f 550/550/550 548/548/548 549/549/549
f 549/549/549 551/551/551 550/550/550
f 552/552/552 550/550/550 551/551/551
f 551/551/551 553/553/553 552/552/552
f 554/554/554 552/552/552 553/553/553
f 553/553/553 555/555/555 554/554/554
f 556/556/556 554/554/554 555/555/555
f 555/555/555 557/557/557 556/556/556
f 558/558/558 556/556/556 557/557/557
f 557/557/557 559/559/559 558/558/558
f 560/560/560 558/558/558 559/559/559
f 559/559/559 561/561/561 560/560/560
f 562/562/562 560/560/560 561/561/561
f 561/561/561 563/563/563 562/562/562
f 564/564/564 562/562/562 563/563/563
f 563/563/563 565/565/565 564/564/564
f 566/566/566 564/564/564 565/565/565
f 565/565/565 567/567/567 566/566/566
f 568/568/568 566/566/566 567/567/567
f 567/567/567 569/569/569 568/568/568
f 570/570/570 568/568/568 569/569/569
f 569/569/569 571/571/571 570/570/570
f 572/572/572 570/570/570 571/571/571
f 571/571/571 573/573/573 572/572/572
f 574/574/574 572/572/572 573/573/573
f 573/573/573 575/575/575 574/574/574
f 576/576/576 574/574/574 575/575/575
f 575/575/575 577/577/577 576/576/576
f 578/578/578 576/576/576 577/577/577
f 577/577/577 579/579/579 578/578/578
f 485/485/485 578/578/578 579/579/579
f 579/579/579 486/486/486 485/485/485
f 582/582/582 581/581/581 580/580/580
f 582/582/582 580/580/580 583/583/583
f 582/582/582 583/583/583 584/584/584
f 582/582/582 584/584/584 585/585/585
f 582/582/582 585/585/585 586/586/586
f 582/582/582 586/586/586 587/587/587
f 582/582/582 587/587/587 588/588/588
f 582/582/582 588/588/588 589/589/589
f 582/582/582 589/589/589 590/590/590
f 582/582/582 590/590/590 591/591/591
f 582/582/582 591/591/591 592/592/592
f 582/582/582 592/592/592 593/593/593
f 582/582/582 593/593/593 594/594/594
f 582/582/582 594/594/594 595/595/595
f 582/582/582 595/595/595 596/596/596
f 582/582/582 596/596/596 597/597/597
f 582/582/582 597/597/597 598/598/598
f 582/582/582 598/598/598 599/599/599
f 582/582/582 599/599/599 600/600/600
f 582/582/582 600/600/600 601/601/601
f 582/582/582 601/601/601 602/602/602
f 582/582/582 602/602/602 603/603/603
f 582/582/582 603/603/603 604/604/604
f 582/582/582 604/604/604 605/605/605
f 582/582/582 605/605/605 606/606/606
f 582/582/582 606/606/606 607/607/607
f 582/582/582 607/607/607 608/608/608
f 582/582/582 608/608/608 609/609/609
f 582/582/582 609/609/609 610/610/610
f 582/582/582 610/610/610 611/611/611
f 582/582/582 611/611/611 612/612/612
f 582/582/582 612/612/612 613/613/613
f 582/582/582 613/613/613 614/614/614
f 582/582/582 614/614/614 615/615/615
f 582/582/582 615/615/615 616/616/616
f 582/582/582 616/616/616 617/617/617
f 582/582/582 617/617/617 618/618/618
f 582/582/582 618/618/618 619/619/619
f 582/582/582 619/619/619 620/620/620
f 582/582/582 620/620/620 621/621/621
f 582/582/582 621/621/621 622/622/622
f 582/582/582 622/622/622 623/623/623
f 582/582/582 623/623/623 624/624/624
f 582/582/582 624/624/624 625/625/625
f 582/582/582 625/625/625 626/626/626
f 582/582/582 626/626/626 627/627/627
f 582/582/582 627/627/627 628/628/628
f 582/582/582 628/628/628 581/581/581
f 629/629/629 630/630/630 631/631/631
f 631/631/631 632/632/632 629/629/629
f 633/633/633 629/629/629 632/632/632
f 632/632/632 634/634/634 633/633/633
f 635/635/635 633/633/633 634/634/634
f 634/634/634 636/636/636 635/635/635
f 637/637/637 635/635/635 636/636/636
f 636/636/636 638/638/638 637/637/637
f 639/639/639 637/637/637 638/638/638
f 638/638/638 640/640/640 639/639/639
f 641/641/641 639/639/639 640/640/640
f 640/640/640 642/642/642 641/641/641
f 643/643/643 641/641/641 642/642/642
f 642/642/642 644/644/644 643/643/643
f 645/645/645 643/643/643 644/644/644
f 644/644/644 646/646/646 645/645/645
f 647/647/647 645/645/645 646/646/646
f 646/646/646 648/648/648 647/647/647
f 649/649/649 647/647/647 648/648/648
f 648/648/648 650/650/650 649/649/649
f 651/651/651 649/649/649 650/650/650
f 650/650/650 652/652/652 651/651/651
f 653/653/653 651/651/651 652/652/652
f 652/652/652 654/654/654 653/653/653
f 655/655/655 653/653/653 654/654/654
f 654/654/654 656/656/656 655/655/655
f 657/657/657 655/655/655 656/656/656
f 656/656/656 658/658/658 657/657/657
f 659/659/659 657/657/657 658/658/658
f 658/658/658 660/660/660 659/659/659
f 661/661/661 659/659/659 660/660/660
f 660/660/660 662/662/662 661/661/661
f 663/663/663 661/661/661 662/662/662
f 662/662/662 664/664/664 663/663/663
f 665/665/665 663/663/663 664/664/664
f 664/664/664 666/666/666 665/665/665
f 667/667/667 665/665/665 666/666/666
f 666/666/666 668/668/668 667/667/667
f 669/669/669 667/667/667 668/668/668
f 668/668/668 670/670/670 669/669/669
f 671/671/671 669/669/669 670/670/670
f 670/670/670 672/672/672 671/671/671
f 673/673/673 671/671/671 672/672/672
f 672/672/672 674/674/674 673/673/673
f 675/675/675 673/673/673 674/674/674
f 674/674/674 676/676/676 675/675/675
f 677/677/677 675/675/675 676/676/676
f 676/676/676 678/678/678 677/677/677
f 679/679/679 677/677/677 678/678/678
f 678/678/678 680/680/680 679/679/679
f 681/681/681 679/679/679 680/680/680
f 680/680/680 682/682/682 681/681/681
f 683/683/683 681/681/681 682/682/682
f 682/682/682 684/684/684 683/683/683
f 685/685/685 683/683/683 684/684/684
f 684/684/684 686/686/686 685/685/685
f 687/687/687 685/685/685 686/686/686
f 686/686/686 688/688/688 687/687/687
f 689/689/689 687/687/687 688/688/688
f 688/688/688 690/690/690 689/689/689
f 691/691/691 689/689/689 690/690/690
f 690/690/690 692/692/692 691/691/691
f 693/693/693 691/691/691 692/692/692
f 692/692/692 694/694/694 693/693/693
f 695/695/695 693/693/693 694/694/694
f 694/694/694 696/696/696 695/695/695
f 697/697/697 695/695/695 696/696/696
f 696/696/696 698/698/698 697/697/697
f 699/699/699 697/697/697 698/698/698
f 698/698/698 700/700/700 699/699/699
f 701/701/701 699/699/699 700/700/700
f 700/700/700 702/702/702 701/701/701
f 703/703/703 701/701/701 702/702/702
f 702/702/702 704/704/704 703/703/703
f 705/705/705 703/703/703 704/704/704
f 704/704/704 706/706/706 705/705/705
f 707/707/707 705/705/705 706/706/706
f 706/706/706 708/708/708 707/707/707
f 709/709/709 707/707/707 708/708/708
f 708/708/708 710/710/710 709/709/709
f 711/711/711 709/709/709 710/710/710
f 710/710/710 712/712/712 711/711/711
f 713/713/713 711/711/711 712/712/712
f 712/712/712 714/714/714 713/713/713
f 715/715/715 713/713/713 714/714/714
f 714/714/714 716/716/716 715/715/715
f 717/717/717 715/715/715 716/716/716
f 716/716/716 718/718/718 717/717/717
f 719/719/719 717/717/717 718/718/718
f 718/718/718 720/720/720 719/719/719
f 721/721/721 719/719/719 720/720/720
f 720/720/720 722/722/722 721/721/721
f 723/723/723 721/721/721 722/722/722
f 722/722/722 724/724/724 723/723/723
f 630/630/630 723/723/723 724/724/724
f 724/724/724 631/631/631 630/630/630
f 727/727/727 726/726/726 725/725/725
f 727/727/727 725/725/725 728/728/728
f 727/727/727 728/728/728 729/729/729
f 727/727/727 729/729/729 730/730/730
f 727/727/727 730/730/730 731/731/731
f 727/727/727 731/731/731 732/732/732
f 727/727/727 732/732/732 733/733/733
f 727/727/727 733/733/733 734/734/734
f 727/727/727 734/734/734 735/735/735
f 727/727/727 735/735/735 736/736/736
f 727/727/727 736/736/736 737/737/737
f 727/727/727 737/737/737 738/738/738
f 727/727/727 738/738/738 739/739/739
f 727/727/727 739/739/739 740/740/740
f 727/727/727 740/740/740 741/741/741
f 727/727/727 741/741/741 742/742/742
f 727/727/727 742/742/742 743/743/743
f 727/727/727 743/743/743 744/744/744
f 727/727/727 744/744/744 745/745/745
f 727/727/727 745/745/745 746/746/746
f 727/727/727 746/746/746 747/747/747
f 727/727/727 747/747/747 748/748/748
f 727/727/727 748/748/748 749/749/749
f 727/727/727 749/749/749 750/750/750
f 727/727/727 750/750/750 751/751/751
f 727/727/727 751/751/751 752/752/752
f 727/727/727 752/752/752 753/753/753
f 727/727/727 753/753/753 754/754/754
f 727/727/727 754/754/754 755/755/755
f 727/727/727 755/755/755 756/756/756
f 727/727/727 756/756/756 757/757/757
f 727/727/727 757/757/757 758/758/758
f 727/727/727 758/758/758 759/759/759
f 727/727/727 759/759/759 760/760/760
f 727/727/727 760/760/760 761/761/761
f 727/727/727 761/761/761 762/762/762
f 727/727/727 762/762/762 763/763/763
f 727/727/727 763/763/763 764/764/764
f 727/727/727 764/764/764 765/765/765
f 727/727/727 765/765/765 766/766/766
f 727/727/727 766/766/766 767/767/767
f 727/727/727 767/767/767 768/768/768
f 727/727/727 768/768/768 769/769/769
f 727/727/727 769/769/769 770/770/770
f 727/727/727 770/770/770 771/771/771
f 727/727/727 771/771/771 772/772/772
f 727/727/727 772/772/772 773/773/773
f 727/727/727 773/773/773 726/726/726
f 776/776/776 775/775/775 774/774/774
f 774/774/774 777/777/777 776/776/776
f 780/780/780 779/779/779 778/778/778
f 778/778/778 781/781/781 780/780/780
f 784/784/784 783/783/783 782/782/782
f 782/782/782 785/785/785 784/784/784
f 788/788/788 787/787/787 786/786/786
f 786/786/786 789/789/789 788/788/788
f 792/792/792 791/791/791 790/790/790
f 790/790/790 793/793/793 792/792/792
f 796/796/796 795/795/795 794/794/794
f 794/794/794 797/797/797 796/796/796
