mtllib plate1*1_white.mtl
v -4.000001E-05 4 0
v -3.647684E-05 8.000005 3.999996
v -3.790735E-05 20.00001 3.999985
v -4.238419E-05 24 -1.825155E-05
v -2E-05 4.000019 20
v -2.447684E-05 8.000015 16
v -2.238419E-05 24.00002 19.99998
v -2.590735E-05 20.00002 15.99999
v -8.000021 4.000018 20.00001
v -8.000023 24.00002 19.99999
v -8.000043 24 -1.025155E-05
v -8.000041 3.999999 8.000001E-06
v -8.000043 24 -1.025155E-05
v -4.238419E-05 24 -1.825155E-05
v -4.000001E-05 4 0
v -8.000041 3.999999 8.000001E-06
v -8.000041 3.999999 8.000001E-06
v -4.000001E-05 4 0
v -2E-05 4.000019 20
v -8.000021 4.000018 20.00001
v -8.000021 4.000018 20.00001
v -2E-05 4.000019 20
v -2.238419E-05 24.00002 19.99998
v -8.000023 24.00002 19.99999
v -8.000023 24.00002 19.99999
v -2.238419E-05 24.00002 19.99998
v -4.238419E-05 24 -1.825155E-05
v -8.000043 24 -1.025155E-05
v -4.000025 8.000015 16
v -4.000026 20.00002 15.99999
v -4.000038 20.00001 3.99999
v -4.000037 8.000004 4
v -4.000038 20.00001 3.99999
v -3.790735E-05 20.00001 3.999985
v -3.647684E-05 8.000005 3.999996
v -4.000037 8.000004 4
v -4.000037 8.000004 4
v -3.647684E-05 8.000005 3.999996
v -2.447684E-05 8.000015 16
v -4.000025 8.000015 16
v -4.000025 8.000015 16
v -2.447684E-05 8.000015 16
v -2.590735E-05 20.00002 15.99999
v -4.000026 20.00002 15.99999
v -4.000026 20.00002 15.99999
v -2.590735E-05 20.00002 15.99999
v -3.790735E-05 20.00001 3.999985
v -4.000038 20.00001 3.99999
v -12.00003 8.051609 10.78301
v -12.00003 8.000009 10.00001
v -8.000031 8.000009 10
v -8.000031 8.05161 10.78301
v -12.00003 8.20461 11.55281
v -8.00003 8.20461 11.5528
v -12.00003 8.456611 12.29621
v -8.00003 8.456612 12.2962
v -12.00003 8.804011 13.00001
v -8.000029 8.804011 13
v -12.00003 9.239612 13.65281
v -8.000028 9.239613 13.6528
v -12.00003 9.757413 14.24261
v -8.000028 9.757413 14.2426
v -12.00003 10.34721 14.76041
v -8.000027 10.34721 14.7604
v -12.00003 11.00001 15.196
v -8.000027 11.00001 15.196
v -12.00003 11.70381 15.5434
v -8.000027 11.70381 15.5434
v -12.00003 12.44721 15.7954
v -8.000026 12.44721 15.7954
v -12.00003 13.21701 15.9484
v -8.000026 13.21702 15.9484
v -12.00003 14.00001 16
v -8.000026 14.00002 16
v -12.00003 14.78301 15.9484
v -8.000027 14.78302 15.9484
v -12.00003 15.55281 15.7954
v -8.000027 15.55282 15.7954
v -12.00003 16.29622 15.5434
v -8.000027 16.29622 15.5434
v -12.00003 17.00001 15.196
v -8.000028 17.00002 15.196
v -12.00003 17.65281 14.7604
v -8.000028 17.65281 14.76039
v -12.00003 18.24261 14.2426
v -8.000029 18.24261 14.24259
v -12.00003 18.76041 13.6528
v -8.000029 18.76041 13.65279
v -12.00003 19.19601 13
v -8.00003 19.19601 12.99999
v -12.00003 19.54341 12.2962
v -8.000031 19.54341 12.29619
v -12.00003 19.79541 11.5528
v -8.000031 19.79541 11.55279
v -12.00003 19.94841 10.783
v -8.000032 19.94841 10.78299
v -12.00003 20.00001 9.999997
v -8.000032 20.00001 9.999993
v -12.00003 19.94841 9.216996
v -8.000033 19.94841 9.216992
v -12.00004 19.79541 8.447198
v -8.000034 19.79541 8.447194
v -12.00004 19.54341 7.703798
v -8.000035 19.54341 7.703794
v -12.00004 19.19601 6.999998
v -8.000036 19.19601 6.999994
v -12.00004 18.76041 6.347197
v -8.000036 18.76041 6.347193
v -12.00004 18.24261 5.7574
v -8.000037 18.24261 5.757396
v -12.00004 17.65281 5.239601
v -8.000037 17.65281 5.239597
v -12.00004 17 4.804001
v -8.000038 17.00001 4.803997
v -12.00004 16.2962 4.456601
v -8.000038 16.29621 4.456597
v -12.00004 15.5528 4.204603
v -8.000038 15.5528 4.204599
v -12.00004 14.783 4.051604
v -8.000038 14.783 4.0516
v -12.00004 14 4.000003
v -8.000038 14 3.999999
v -12.00004 13.217 4.051605
v -8.000038 13.217 4.051601
v -12.00004 12.4472 4.204606
v -8.000038 12.4472 4.204602
v -12.00004 11.7038 4.456605
v -8.000037 11.7038 4.456601
v -12.00004 11 4.804007
v -8.000037 11 4.804002
v -12.00004 10.3472 5.239607
v -8.000036 10.34721 5.239604
v -12.00004 9.757404 5.757407
v -8.000036 9.757405 5.757403
v -12.00004 9.239605 6.347206
v -8.000035 9.239606 6.347202
v -12.00004 8.804006 7.000008
v -8.000034 8.804007 7.000004
v -12.00003 8.456607 7.703808
v -8.000033 8.456607 7.703804
v -12.00003 8.204607 8.447209
v -8.000033 8.204607 8.447205
v -12.00003 8.051608 9.217008
v -8.000032 8.051608 9.217004
v -12.00003 8.051609 10.78301
v -12.00003 8.000009 10.00001
v -12.00003 14.00001 10
v -12.00003 8.20461 11.55281
v -12.00003 8.456611 12.29621
v -12.00003 8.804011 13.00001
v -12.00003 9.239612 13.65281
v -12.00003 9.757413 14.24261
v -12.00003 10.34721 14.76041
v -12.00003 11.00001 15.196
v -12.00003 11.70381 15.5434
v -12.00003 12.44721 15.7954
v -12.00003 13.21701 15.9484
v -12.00003 14.00001 16
v -12.00003 14.78301 15.9484
v -12.00003 15.55281 15.7954
v -12.00003 16.29622 15.5434
v -12.00003 17.00001 15.196
v -12.00003 17.65281 14.7604
v -12.00003 18.24261 14.2426
v -12.00003 18.76041 13.6528
v -12.00003 19.19601 13
v -12.00003 19.54341 12.2962
v -12.00003 19.79541 11.5528
v -12.00003 19.94841 10.783
v -12.00003 20.00001 9.999997
v -12.00003 19.94841 9.216996
v -12.00004 19.79541 8.447198
v -12.00004 19.54341 7.703798
v -12.00004 19.19601 6.999998
v -12.00004 18.76041 6.347197
v -12.00004 18.24261 5.7574
v -12.00004 17.65281 5.239601
v -12.00004 17 4.804001
v -12.00004 16.2962 4.456601
v -12.00004 15.5528 4.204603
v -12.00004 14.783 4.051604
v -12.00004 14 4.000003
v -12.00004 13.217 4.051605
v -12.00004 12.4472 4.204606
v -12.00004 11.7038 4.456605
v -12.00004 11 4.804007
v -12.00004 10.3472 5.239607
v -12.00004 9.757404 5.757407
v -12.00004 9.239605 6.347206
v -12.00004 8.804006 7.000008
v -12.00003 8.456607 7.703808
v -12.00003 8.204607 8.447209
v -12.00003 8.051608 9.217008
v -2.03443 4.00001 10.522
v -2.00003 4.000009 10
v -2.00003 8.623886E-06 10.00001
v -2.034429 9.096149E-06 10.52201
v -2.136429 4.00001 11.0352
v -2.136429 9.552326E-06 11.03521
v -2.304429 4.00001 11.5308
v -2.304428 9.984572E-06 11.53081
v -2.536028 4.000011 12
v -2.536028 1.038514E-05 12.00001
v -2.826428 4.000011 12.4352
v -2.826427 1.074768E-05 12.43521
v -3.171628 4.000011 12.8284
v -3.171627 1.106535E-05 12.82841
v -3.564827 4.000012 13.1736
v -3.564827 1.13335E-05 13.17361
v -4.000027 4.000012 13.464
v -4.000027 1.154664E-05 13.46401
v -4.469227 4.000012 13.69561
v -4.469226 1.170206E-05 13.69561
v -4.964827 4.000012 13.8636
v -4.964826 1.179629E-05 13.86361
v -5.478027 4.000012 13.9656
v -5.478026 1.182819E-05 13.96561
v -6.000027 4.000012 14.00001
v -6.000026 1.179736E-05 14.00001
v -6.522027 4.000012 13.96561
v -6.522026 1.170374E-05 13.96561
v -7.035227 4.000012 13.86361
v -7.035227 1.154948E-05 13.86361
v -7.530827 4.000012 13.69561
v -7.530827 1.133708E-05 13.69561
v -8.000028 4.000011 13.46401
v -8.000027 1.10698E-05 13.46401
v -8.435227 4.000011 13.17361
v -8.435227 1.07529E-05 13.17361
v -8.828428 4.000011 12.82841
v -8.828427 1.039101E-05 12.82841
v -9.173629 4.00001 12.43521
v -9.173629 9.991033E-06 12.43521
v -9.464029 4.00001 12.00001
v -9.464028 9.559261E-06 12.00001
v -9.69563 4.00001 11.53081
v -9.69563 9.103471E-06 11.53081
v -9.86363 4.000009 11.03521
v -9.863629 8.631171E-06 11.03521
v -9.965631 4.000009 10.52201
v -9.965631 8.150676E-06 10.52201
v -10.00003 4.000008 10.00001
v -10.00003 7.670211E-06 10.00001
v -9.965631 4.000008 9.47801
v -9.965631 7.197947E-06 9.478014
v -9.863632 4.000007 8.964809
v -9.863631 6.741771E-06 8.964813
v -9.695633 4.000007 8.46921
v -9.695633 6.309525E-06 8.469213
v -9.464033 4.000006 8.00001
v -9.464032 5.908952E-06 8.000013
v -9.173634 4.000006 7.564809
v -9.173634 5.546417E-06 7.564813
v -8.828434 4.000006 7.171609
v -8.828433 5.228743E-06 7.171613
v -8.435234 4.000005 6.826409
v -8.435233 4.960595E-06 6.826413
v -8.000034 4.000005 6.536007
v -8.000034 4.747461E-06 6.536011
v -7.530835 4.000005 6.304409
v -7.530834 4.592043E-06 6.304412
v -7.035235 4.000005 6.136405
v -7.035234 4.497807E-06 6.136409
v -6.522035 4.000005 6.034408
v -6.522034 4.465905E-06 6.034411
v -6.000035 4.000005 6.000006
v -6.000034 4.496739E-06 6.00001
v -5.478035 4.000005 6.034406
v -5.478034 4.59036E-06 6.03441
v -4.964834 4.000005 6.136403
v -4.964834 4.744618E-06 6.136407
v -4.469234 4.000005 6.304406
v -4.469234 4.957014E-06 6.30441
v -4.000034 4.000006 6.536003
v -4.000033 5.224299E-06 6.536007
v -3.564834 4.000006 6.826404
v -3.564833 5.541192E-06 6.826408
v -3.171633 4.000006 7.171604
v -3.171633 5.903087E-06 7.171607
v -2.826433 4.000007 7.564803
v -2.826432 6.303063E-06 7.564807
v -2.536032 4.000007 8.000003
v -2.536032 6.734835E-06 8.000006
v -2.304432 4.000008 8.469202
v -2.304431 7.190625E-06 8.469206
v -2.136431 4.000008 8.964802
v -2.136431 7.662926E-06 8.964806
v -2.034431 4.000009 9.478003
v -2.03443 8.14342E-06 9.478006
v -0.0516292 4.00001 10.783
v -3E-05 4.00001 10
v -2.952317E-05 8.862305E-06 10
v -0.05162873 9.570702E-06 10.783
v -0.2046283 4.000011 11.5528
v -0.2046279 1.025496E-05 11.5528
v -0.4566279 4.000011 12.2962
v -0.4566275 1.090333E-05 12.2962
v -0.804027 4.000012 13
v -0.8040265 1.150419E-05 13
v -1.239627 4.000012 13.6528
v -1.239626 1.204799E-05 13.6528
v -1.757426 4.000013 14.2426
v -1.757426 1.252451E-05 14.24261
v -2.347225 4.000013 14.7604
v -2.347225 1.292673E-05 14.7604
v -3.000025 4.000014 15.196
v -3.000025 1.324643E-05 15.19601
v -3.703825 4.000014 15.5434
v -3.703824 1.347956E-05 15.54341
v -4.447225 4.000014 15.79541
v -4.447224 1.362091E-05 15.79541
v -5.217025 4.000014 15.94841
v -5.217024 1.366876E-05 15.94841
v -6.000025 4.000014 16.00001
v -6.000024 1.362251E-05 16.00001
v -6.783025 4.000014 15.94841
v -6.783024 1.348208E-05 15.94841
v -7.552825 4.000014 15.79541
v -7.552825 1.325069E-05 15.79541
v -8.296226 4.000013 15.54341
v -8.296225 1.29321E-05 15.54341
v -9.000026 4.000013 15.19601
v -9.000026 1.253117E-05 15.19601
v -9.652826 4.000012 14.76041
v -9.652825 1.205583E-05 14.76041
v -10.24263 4.000012 14.24261
v -10.24263 1.151299E-05 14.24261
v -10.76043 4.000011 13.65281
v -10.76043 1.091303E-05 13.65281
v -11.19603 4.000011 13.00001
v -11.19603 1.026537E-05 13.00002
v -11.54343 4.00001 12.29621
v -11.54343 9.581683E-06 12.29622
v -11.79543 4.00001 11.55281
v -11.79543 8.873231E-06 11.55281
v -11.94843 4.000009 10.78301
v -11.94843 8.152492E-06 10.78302
v -12.00003 4.000008 10.00001
v -12.00003 7.431792E-06 10.00002
v -11.94843 4.000007 9.217011
v -11.94843 6.723394E-06 9.217014
v -11.79543 4.000007 8.447212
v -11.79543 6.039133E-06 8.447216
v -11.54343 4.000006 7.703812
v -11.54343 5.390763E-06 7.703815
v -11.19603 4.000005 7.000011
v -11.19603 4.789904E-06 7.000015
v -10.76044 4.000005 6.347209
v -10.76043 4.2461E-06 6.347213
v -10.24263 4.000004 5.757411
v -10.24263 3.76959E-06 5.757414
v -9.652836 4.000004 5.239611
v -9.652835 3.367368E-06 5.239614
v -9.000036 4.000003 4.80401
v -9.000036 3.047669E-06 4.804014
v -8.296236 4.000003 4.456608
v -8.296236 2.814539E-06 4.456612
v -7.552837 4.000003 4.204609
v -7.552836 2.67319E-06 4.204612
v -6.783037 4.000003 4.051608
v -6.783036 2.625334E-06 4.051612
v -6.000037 4.000003 4.000006
v -6.000036 2.671584E-06 4.00001
v -5.217037 4.000003 4.051607
v -5.217036 2.812016E-06 4.05161
v -4.447236 4.000003 4.204606
v -4.447236 3.043407E-06 4.204609
v -3.703836 4.000004 4.456604
v -3.703835 3.361996E-06 4.456607
v -3.000036 4.000004 4.804004
v -3.000035 3.762925E-06 4.804008
v -2.347235 4.000005 5.239604
v -2.347234 4.238264E-06 5.239607
v -1.757434 4.000005 5.757402
v -1.757434 4.781106E-06 5.757406
v -1.239634 4.000006 6.3472
v -1.239634 5.381069E-06 6.347203
v -0.804033 4.000007 7.000001
v -0.8040325 6.028728E-06 7.000004
v -0.4566326 4.000007 7.703801
v -0.4566321 6.712413E-06 7.703804
v -0.2046314 4.000008 8.447201
v -0.204631 7.420865E-06 8.447205
v -0.05163077 4.000009 9.216999
v -0.05163029 8.141605E-06 9.217003
v -2.00003 8.623886E-06 10.00001
v -2.034429 9.096149E-06 10.52201
v -0.05162873 9.570702E-06 10.783
v -2.952317E-05 8.862305E-06 10
v -2.136429 9.552326E-06 11.03521
v -0.2046279 1.025496E-05 11.5528
v -2.304428 9.984572E-06 11.53081
v -0.4566275 1.090333E-05 12.2962
v -2.536028 1.038514E-05 12.00001
v -0.8040265 1.150419E-05 13
v -2.826427 1.074768E-05 12.43521
v -1.239626 1.204799E-05 13.6528
v -3.171627 1.106535E-05 12.82841
v -1.757426 1.252451E-05 14.24261
v -3.564827 1.13335E-05 13.17361
v -2.347225 1.292673E-05 14.7604
v -4.000027 1.154664E-05 13.46401
v -3.000025 1.324643E-05 15.19601
v -4.469226 1.170206E-05 13.69561
v -3.703824 1.347956E-05 15.54341
v -4.964826 1.179629E-05 13.86361
v -4.447224 1.362091E-05 15.79541
v -5.478026 1.182819E-05 13.96561
v -5.217024 1.366876E-05 15.94841
v -6.000026 1.179736E-05 14.00001
v -6.000024 1.362251E-05 16.00001
v -6.522026 1.170374E-05 13.96561
v -6.783024 1.348208E-05 15.94841
v -7.035227 1.154948E-05 13.86361
v -7.552825 1.325069E-05 15.79541
v -7.530827 1.133708E-05 13.69561
v -8.296225 1.29321E-05 15.54341
v -8.000027 1.10698E-05 13.46401
v -9.000026 1.253117E-05 15.19601
v -8.435227 1.07529E-05 13.17361
v -9.652825 1.205583E-05 14.76041
v -8.828427 1.039101E-05 12.82841
v -10.24263 1.151299E-05 14.24261
v -9.173629 9.991033E-06 12.43521
v -10.76043 1.091303E-05 13.65281
v -9.464028 9.559261E-06 12.00001
v -11.19603 1.026537E-05 13.00002
v -9.69563 9.103471E-06 11.53081
v -11.54343 9.581683E-06 12.29622
v -9.863629 8.631171E-06 11.03521
v -11.79543 8.873231E-06 11.55281
v -9.965631 8.150676E-06 10.52201
v -11.94843 8.152492E-06 10.78302
v -10.00003 7.670211E-06 10.00001
v -12.00003 7.431792E-06 10.00002
v -9.965631 7.197947E-06 9.478014
v -11.94843 6.723394E-06 9.217014
v -9.863631 6.741771E-06 8.964813
v -11.79543 6.039133E-06 8.447216
v -9.695633 6.309525E-06 8.469213
v -11.54343 5.390763E-06 7.703815
v -9.464032 5.908952E-06 8.000013
v -11.19603 4.789904E-06 7.000015
v -9.173634 5.546417E-06 7.564813
v -10.76043 4.2461E-06 6.347213
v -8.828433 5.228743E-06 7.171613
v -10.24263 3.76959E-06 5.757414
v -8.435233 4.960595E-06 6.826413
v -9.652835 3.367368E-06 5.239614
v -8.000034 4.747461E-06 6.536011
v -9.000036 3.047669E-06 4.804014
v -7.530834 4.592043E-06 6.304412
v -8.296236 2.814539E-06 4.456612
v -7.035234 4.497807E-06 6.136409
v -7.552836 2.67319E-06 4.204612
v -6.522034 4.465905E-06 6.034411
v -6.783036 2.625334E-06 4.051612
v -6.000034 4.496739E-06 6.00001
v -6.000036 2.671584E-06 4.00001
v -5.478034 4.59036E-06 6.03441
v -5.217036 2.812016E-06 4.05161
v -4.964834 4.744618E-06 6.136407
v -4.447236 3.043407E-06 4.204609
v -4.469234 4.957014E-06 6.30441
v -3.703835 3.361996E-06 4.456607
v -4.000033 5.224299E-06 6.536007
v -3.000035 3.762925E-06 4.804008
v -3.564833 5.541192E-06 6.826408
v -2.347234 4.238264E-06 5.239607
v -3.171633 5.903087E-06 7.171607
v -1.757434 4.781106E-06 5.757406
v -2.826432 6.303063E-06 7.564807
v -1.239634 5.381069E-06 6.347203
v -2.536032 6.734835E-06 8.000006
v -0.8040325 6.028728E-06 7.000004
v -2.304431 7.190625E-06 8.469206
v -0.4566321 6.712413E-06 7.703804
v -2.136431 7.662926E-06 8.964806
v -0.204631 7.420865E-06 8.447205
v -2.03443 8.14342E-06 9.478006
v -0.05163029 8.141605E-06 9.217003
vn 1 1.192094E-07 -1E-06
vn 1 1.192094E-07 -1E-06
vn 1 1.192094E-07 -1E-06
vn 1 1.192094E-07 -1E-06
vn 1 1.192094E-07 -1E-06
vn 1 1.192094E-07 -1E-06
vn 1 1.192094E-07 -1E-06
vn 1 1.192094E-07 -1E-06
vn -1 -1.192094E-07 1E-06
vn -1 -1.192094E-07 1E-06
vn -1 -1.192094E-07 1E-06
vn -1 -1.192094E-07 1E-06
vn -1E-06 -9.125773E-07 -1
vn -1E-06 -9.125773E-07 -1
vn -1E-06 -9.125773E-07 -1
vn -1E-06 -9.125773E-07 -1
vn 1.192093E-07 -1 9.125773E-07
vn 1.192093E-07 -1 9.125773E-07
vn 1.192093E-07 -1 9.125773E-07
vn 1.192093E-07 -1 9.125773E-07
vn 1E-06 9.125773E-07 1
vn 1E-06 9.125773E-07 1
vn 1E-06 9.125773E-07 1
vn 1E-06 9.125773E-07 1
vn -1.192093E-07 1 -9.125773E-07
vn -1.192093E-07 1 -9.125773E-07
vn -1.192093E-07 1 -9.125773E-07
vn -1.192093E-07 1 -9.125773E-07
vn 1 1.192094E-07 -1E-06
vn 1 1.192094E-07 -1E-06
vn 1 1.192094E-07 -1E-06
vn 1 1.192094E-07 -1E-06
vn 1E-06 9.125773E-07 1
vn 1E-06 9.125773E-07 1
vn 1E-06 9.125773E-07 1
vn 1E-06 9.125773E-07 1
vn -1.192093E-07 1 -9.125773E-07
vn -1.192093E-07 1 -9.125773E-07
vn -1.192093E-07 1 -9.125773E-07
vn -1.192093E-07 1 -9.125773E-07
vn -1E-06 -9.125773E-07 -1
vn -1E-06 -9.125773E-07 -1
vn -1E-06 -9.125773E-07 -1
vn -1E-06 -9.125773E-07 -1
vn 1.192093E-07 -1 9.125773E-07
vn 1.192093E-07 -1 9.125773E-07
vn 1.192093E-07 -1 9.125773E-07
vn 1.192093E-07 -1 9.125773E-07
vn 2.275287E-07 -0.9940384 0.109031
vn 9.721908E-08 -0.999759 -0.02196055
vn 1.41142E-07 -0.999759 0.02196237
vn 2.699933E-07 -0.9883539 0.1521733
vn 3.532272E-07 -0.9714054 0.2374275
vn 3.939965E-07 -0.9601341 0.2795404
vn 4.733736E-07 -0.9320763 0.3622623
vn 5.119741E-07 -0.9152584 0.4028675
vn 5.855106E-07 -0.8767218 0.4809979
vn 6.204752E-07 -0.8550499 0.518546
vn 6.872525E-07 -0.8065991 0.591099
vn 7.190204E-07 -0.779771 0.626065
vn 7.777227E-07 -0.7222586 0.6916233
vn 8.047072E-07 -0.6916217 0.72226
vn 8.544044E-07 -0.6260633 0.7797723
vn 8.770643E-07 -0.5910973 0.8066004
vn 9.168656E-07 -0.5185446 0.8550506
vn 9.340614E-07 -0.4809969 0.8767223
vn 9.632839E-07 -0.4028669 0.9152586
vn 9.752613E-07 -0.3622616 0.9320765
vn 9.93458E-07 -0.279539 0.9601343
vn 9.997091E-07 -0.2374257 0.9714058
vn 1.006494E-06 -0.1521711 0.9883541
vn 1.007036E-06 -0.1090288 0.9940385
vn 1.002377E-06 -0.02196038 0.9997588
vn 9.971409E-07 0.0219622 0.9997588
vn 9.810411E-07 0.1090306 0.9940383
vn 9.702138E-07 0.1521729 0.9883539
vn 9.431022E-07 0.2374275 0.9714053
vn 9.268105E-07 0.2795408 0.9601339
vn 8.888912E-07 0.3622633 0.9320757
vn 8.672328E-07 0.4028686 0.9152579
vn 8.193824E-07 0.4809986 0.8767213
vn 7.932347E-07 0.5185463 0.8550496
vn 7.361354E-07 0.591099 0.8065991
vn 7.051391E-07 0.6260648 0.7797711
vn 6.398117E-07 0.6916229 0.7222588
vn 6.055229E-07 0.7222595 0.6916221
vn 5.331086E-07 0.7797719 0.6260638
vn 4.949443E-07 0.8066002 0.5910977
vn 4.166153E-07 0.8550509 0.5185444
vn 3.764837E-07 0.8767227 0.4809963
vn 2.937596E-07 0.9152591 0.4028661
vn 2.511496E-07 0.9320769 0.3622609
vn 1.65083E-07 0.9601344 0.279539
vn 1.216263E-07 0.9714058 0.237426
vn 3.435119E-08 0.9883543 0.1521713
vn -9.468927E-09 0.9940386 0.1090288
vn -9.721928E-08 0.999759 0.02196035
vn -1.411418E-07 0.999759 -0.02196217
vn -2.275283E-07 0.9940384 -0.1090306
vn -2.699932E-07 0.9883541 -0.1521731
vn -3.532274E-07 0.9714053 -0.2374277
vn -3.939968E-07 0.960134 -0.2795407
vn -4.73374E-07 0.9320762 -0.3622626
vn -5.119743E-07 0.9152584 -0.4028677
vn -5.855102E-07 0.876722 -0.4809976
vn -6.204745E-07 0.8550503 -0.5185453
vn -6.872523E-07 0.8065993 -0.5910987
vn -7.190209E-07 0.7797704 -0.6260656
vn -7.777236E-07 0.7222576 -0.6916243
vn -8.047076E-07 0.6916211 -0.7222605
vn -8.544044E-07 0.6260634 -0.7797723
vn -8.770642E-07 0.5910975 -0.8066002
vn -9.168656E-07 0.5185448 -0.8550506
vn -9.340612E-07 0.480997 -0.8767222
vn -9.632842E-07 0.4028662 -0.9152589
vn -9.752616E-07 0.3622602 -0.9320771
vn -9.934582E-07 0.2795376 -0.9601347
vn -9.997091E-07 0.2374249 -0.9714059
vn -1.006494E-06 0.1521719 -0.988354
vn -1.007036E-06 0.1090304 -0.9940383
vn -1.002377E-06 0.02196119 -0.9997588
vn -9.971408E-07 -0.02196301 -0.9997588
vn -9.810408E-07 -0.1090322 -0.9940381
vn -9.702136E-07 -0.1521737 -0.9883538
vn -9.431023E-07 -0.2374267 -0.9714054
vn -9.26811E-07 -0.2795393 -0.9601343
vn -8.888919E-07 -0.3622619 -0.9320763
vn -8.672332E-07 -0.4028679 -0.9152582
vn -8.193826E-07 -0.4809985 -0.8767215
vn -7.932348E-07 -0.5185462 -0.8550497
vn -7.361356E-07 -0.5910988 -0.8065993
vn -7.051392E-07 -0.6260647 -0.7797711
vn -6.398121E-07 -0.6916226 -0.7222591
vn -6.055236E-07 -0.722259 -0.6916227
vn -5.331088E-07 -0.7797718 -0.6260639
vn -4.949437E-07 -0.8066005 -0.5910971
vn -4.166146E-07 -0.8550513 -0.5185437
vn -3.764834E-07 -0.8767229 -0.480996
vn -2.937594E-07 -0.9152591 -0.4028659
vn -2.511493E-07 -0.9320769 -0.3622606
vn -1.650826E-07 -0.9601346 -0.2795387
vn -1.216261E-07 -0.9714059 -0.2374258
vn -3.435139E-08 -0.9883541 -0.1521714
vn 9.468517E-09 -0.9940386 -0.1090292
vn -1 -1.192094E-07 1E-06
vn -1 -1.192094E-07 1E-06
vn -1 -1.192094E-07 1E-06
vn -1 -1.192094E-07 1E-06
vn -1 -1.192094E-07 1E-06
vn -1 -1.192094E-07 1E-06
vn -1 -1.192094E-07 1E-06
vn -1 -1.192094E-07 1E-06
vn -1 -1.192094E-07 1E-06
vn -1 -1.192094E-07 1E-06
vn -1 -1.192094E-07 1E-06
vn -1 -1.192094E-07 1E-06
vn -1 -1.192094E-07 1E-06
vn -1 -1.192094E-07 1E-06
vn -1 -1.192094E-07 1E-06
vn -1 -1.192094E-07 1E-06
vn -1 -1.192094E-07 1E-06
vn -1 -1.192094E-07 1E-06
vn -1 -1.192094E-07 1E-06
vn -1 -1.192094E-07 1E-06
vn -1 -1.192094E-07 1E-06
vn -1 -1.192094E-07 1E-06
vn -1 -1.192094E-07 1E-06
vn -1 -1.192094E-07 1E-06
vn -1 -1.192094E-07 1E-06
vn -1 -1.192094E-07 1E-06
vn -1 -1.192094E-07 1E-06
vn -1 -1.192094E-07 1E-06
vn -1 -1.192094E-07 1E-06
vn -1 -1.192094E-07 1E-06
vn -1 -1.192094E-07 1E-06
vn -1 -1.192094E-07 1E-06
vn -1 -1.192094E-07 1E-06
vn -1 -1.192094E-07 1E-06
vn -1 -1.192094E-07 1E-06
vn -1 -1.192094E-07 1E-06
vn -1 -1.192094E-07 1E-06
vn -1 -1.192094E-07 1E-06
vn -1 -1.192094E-07 1E-06
vn -1 -1.192094E-07 1E-06
vn -1 -1.192094E-07 1E-06
vn -1 -1.192094E-07 1E-06
vn -1 -1.192094E-07 1E-06
vn -1 -1.192094E-07 1E-06
vn -1 -1.192094E-07 1E-06
vn -1 -1.192094E-07 1E-06
vn -1 -1.192094E-07 1E-06
vn -1 -1.192094E-07 1E-06
vn -1 -1.192094E-07 1E-06
vn -0.9940387 -2.179972E-07 -0.1090292
vn -0.9997589 -9.913904E-08 0.02196251
vn -0.9997589 -1.392222E-07 -0.02196051
vn -0.9883544 -2.5669E-07 -0.1521712
vn -0.971406 -3.324704E-07 -0.2374252
vn -0.9601347 -3.695581E-07 -0.2795382
vn -0.9320771 -4.417039E-07 -0.3622606
vn -0.9152591 -4.767547E-07 -0.4028661
vn -0.8767228 -5.434608E-07 -0.4809965
vn -0.8550509 -5.751426E-07 -0.5185444
vn -0.8066003 -6.355771E-07 -0.5910974
vn -0.7797721 -6.642882E-07 -0.6260635
vn -0.7222598 -7.172593E-07 -0.6916221
vn -0.691623 -7.415654E-07 -0.7222587
vn -0.6260653 -7.862343E-07 -0.7797706
vn -0.5910999 -8.065485E-07 -0.8065984
vn -0.5185471 -8.421144E-07 -0.855049
vn -0.4809986 -8.574159E-07 -0.8767214
vn -0.4028673 -8.832698E-07 -0.9152583
vn -0.3622616 -8.937771E-07 -0.9320765
vn -0.279539 -9.095206E-07 -0.9601343
vn -0.237426 -9.147863E-07 -0.9714057
vn -0.152173 -9.200898E-07 -0.9883538
vn -0.1090319 -9.201344E-07 -0.9940382
vn -0.02196311 -9.149753E-07 -0.9997588
vn 0.02196111 -9.097391E-07 -0.9997588
vn 0.1090299 -8.941394E-07 -0.9940385
vn 0.152171 -8.838092E-07 -0.9883542
vn 0.237424 -8.581798E-07 -0.9714062
vn 0.2795371 -8.428735E-07 -0.9601349
vn 0.3622597 -8.074073E-07 -0.9320772
vn 0.4028655 -7.872189E-07 -0.9152592
vn 0.4809969 -7.42737E-07 -0.8767223
vn 0.5185456 -7.184832E-07 -0.85505
vn 0.5910985 -6.656193E-07 -0.8065995
vn 0.6260638 -6.369688E-07 -0.7797719
vn 0.6916215 -5.766699E-07 -0.7222604
vn 0.7222581 -5.450595E-07 -0.6916237
vn 0.7797707 -4.783763E-07 -0.6260653
vn 0.8065993 -4.432683E-07 -0.5910988
vn 0.8550499 -3.712824E-07 -0.5185459
vn 0.8767214 -3.344342E-07 -0.4809986
vn 0.915258 -2.585402E-07 -0.4028683
vn 0.9320764 -2.19479E-07 -0.3622621
vn 0.9601343 -1.406434E-07 -0.2795394
vn 0.9714056 -1.008689E-07 -0.237427
vn 0.9883539 -2.104812E-08 -0.1521735
vn 0.9940385 1.900009E-08 -0.1090313
vn 0.9997589 9.913904E-08 -0.02196251
vn 0.9997589 1.392222E-07 0.02196051
vn 0.9940387 2.179973E-07 0.1090293
vn 0.9883543 2.566902E-07 0.1521715
vn 0.971406 3.324703E-07 0.237425
vn 0.9601349 3.695575E-07 0.2795375
vn 0.9320771 4.417036E-07 0.3622602
vn 0.9152589 4.76755E-07 0.4028664
vn 0.8767224 5.434611E-07 0.4809969
vn 0.8550509 5.751425E-07 0.5185442
vn 0.8066005 6.355768E-07 0.5910971
vn 0.779772 6.642883E-07 0.6260638
vn 0.7222595 7.172595E-07 0.6916223
vn 0.691623 7.415656E-07 0.7222589
vn 0.6260654 7.862344E-07 0.7797706
vn 0.5911001 8.065484E-07 0.8065983
vn 0.5185463 8.421147E-07 0.8550494
vn 0.4809968 8.574166E-07 0.8767224
vn 0.4028673 8.832698E-07 0.9152583
vn 0.3622648 8.937763E-07 0.9320753
vn 0.2795423 9.095202E-07 0.9601334
vn 0.237426 9.147863E-07 0.9714057
vn 0.1521706 9.200898E-07 0.9883541
vn 0.1090307 9.201343E-07 0.9940383
vn 0.02196311 9.149753E-07 0.9997588
vn -0.02196111 9.097391E-07 0.9997588
vn -0.1090287 8.941395E-07 0.9940385
vn -0.1521686 8.838097E-07 0.9883545
vn -0.237424 8.581798E-07 0.9714062
vn -0.2795404 8.428723E-07 0.960134
vn -0.3622629 8.074059E-07 0.932076
vn -0.4028655 7.872189E-07 0.9152592
vn -0.480995 7.427382E-07 0.8767234
vn -0.5185446 7.184839E-07 0.8550507
vn -0.5910983 6.656194E-07 0.8065996
vn -0.6260637 6.369688E-07 0.7797719
vn -0.6916215 5.766697E-07 0.7222601
vn -0.7222584 5.450592E-07 0.6916235
vn -0.7797709 4.78376E-07 0.6260651
vn -0.8065991 4.432686E-07 0.5910991
vn -0.8550499 3.712826E-07 0.518546
vn -0.8767218 3.344337E-07 0.4809982
vn -0.9152582 2.585399E-07 0.4028679
vn -0.9320763 2.194794E-07 0.3622625
vn -0.9601341 1.406441E-07 0.2795401
vn -0.9714056 1.008691E-07 0.2374271
vn -0.988354 2.104785E-08 0.1521732
vn -0.9940385 -1.900023E-08 0.1090312
vn 0.9940386 2.179971E-07 0.1090291
vn 0.999759 9.913909E-08 -0.02196246
vn 0.999759 1.392222E-07 0.02196046
vn 0.9883542 2.566901E-07 0.1521714
vn 0.9714059 3.324708E-07 0.2374257
vn 0.9601347 3.695584E-07 0.2795386
vn 0.932077 4.417038E-07 0.3622605
vn 0.9152592 4.767544E-07 0.4028658
vn 0.8767228 5.434605E-07 0.4809963
vn 0.8550509 5.751426E-07 0.5185444
vn 0.8066003 6.355771E-07 0.5910974
vn 0.7797722 6.642882E-07 0.6260635
vn 0.7222599 7.172592E-07 0.6916219
vn 0.6916231 7.415654E-07 0.7222586
vn 0.6260648 7.862347E-07 0.7797711
vn 0.5910988 8.065492E-07 0.8065993
vn 0.5185463 8.421148E-07 0.8550496
vn 0.4809986 8.574158E-07 0.8767213
vn 0.4028687 8.832695E-07 0.9152578
vn 0.3622633 8.937766E-07 0.9320757
vn 0.2795408 9.095203E-07 0.9601337
vn 0.2374275 9.147861E-07 0.9714053
vn 0.152173 9.200898E-07 0.9883538
vn 0.1090307 9.201343E-07 0.9940383
vn 0.02196229 9.149752E-07 0.9997588
vn -0.02196029 9.097392E-07 0.9997588
vn -0.1090287 8.941395E-07 0.9940385
vn -0.152171 8.838092E-07 0.9883542
vn -0.2374256 8.581792E-07 0.9714058
vn -0.279539 8.428728E-07 0.9601344
vn -0.3622615 8.074064E-07 0.9320765
vn -0.4028668 7.872183E-07 0.9152586
vn -0.4809969 7.427369E-07 0.8767222
vn -0.5185447 7.184838E-07 0.8550506
vn -0.5910974 6.656201E-07 0.8066003
vn -0.6260633 6.369693E-07 0.7797723
vn -0.6916215 5.766698E-07 0.7222602
vn -0.7222582 5.450592E-07 0.6916234
vn -0.7797707 4.783762E-07 0.6260653
vn -0.806599 4.432688E-07 0.5910993
vn -0.8550498 3.712826E-07 0.518546
vn -0.8767218 3.344336E-07 0.480998
vn -0.9152583 2.585398E-07 0.4028678
vn -0.9320762 2.194796E-07 0.3622627
vn -0.9601339 1.406448E-07 0.2795408
vn -0.9714053 1.008697E-07 0.2374278
vn -0.988354 2.104779E-08 0.1521731
vn -0.9940384 -1.900069E-08 0.1090307
vn -0.999759 -9.913928E-08 0.02196226
vn -0.999759 -1.39222E-07 -0.02196026
vn -0.9940386 -2.179967E-07 -0.1090287
vn -0.9883544 -2.566899E-07 -0.1521712
vn -0.9714058 -3.32471E-07 -0.2374259
vn -0.9601345 -3.695587E-07 -0.2795389
vn -0.9320769 -4.417041E-07 -0.3622608
vn -0.9152592 -4.767546E-07 -0.402866
vn -0.8767229 -5.434603E-07 -0.4809959
vn -0.8550513 -5.75142E-07 -0.5185437
vn -0.8066005 -6.355769E-07 -0.5910972
vn -0.7797716 -6.642886E-07 -0.6260641
vn -0.7222589 -7.1726E-07 -0.6916229
vn -0.6916226 -7.415657E-07 -0.7222591
vn -0.6260649 -7.862346E-07 -0.779771
vn -0.591099 -8.06549E-07 -0.8065991
vn -0.5185464 -8.421148E-07 -0.8550496
vn -0.4809986 -8.574158E-07 -0.8767213
vn -0.402868 -8.832697E-07 -0.9152581
vn -0.362262 -8.937769E-07 -0.9320763
vn -0.2795394 -9.095206E-07 -0.9601342
vn -0.2374268 -9.147861E-07 -0.9714054
vn -0.1521738 -9.200898E-07 -0.9883537
vn -0.1090323 -9.201343E-07 -0.9940381
vn -0.0219631 -9.149753E-07 -0.9997588
vn 0.0219611 -9.097391E-07 -0.9997588
vn 0.1090303 -8.941392E-07 -0.9940383
vn 0.1521718 -8.838089E-07 -0.9883541
vn 0.2374248 -8.581794E-07 -0.9714059
vn 0.2795374 -8.428734E-07 -0.9601348
vn 0.36226 -8.074072E-07 -0.9320771
vn 0.4028662 -7.872187E-07 -0.915259
vn 0.4809969 -7.427369E-07 -0.8767222
vn 0.5185446 -7.184839E-07 -0.8550507
vn 0.5910972 -6.656203E-07 -0.8066005
vn 0.6260632 -6.369693E-07 -0.7797724
vn 0.6916212 -5.766701E-07 -0.7222605
vn 0.7222577 -5.450599E-07 -0.6916241
vn 0.7797706 -4.783764E-07 -0.6260654
vn 0.8065993 -4.432682E-07 -0.5910987
vn 0.8550503 -3.712819E-07 -0.5185453
vn 0.876722 -3.344332E-07 -0.4809976
vn 0.9152583 -2.585396E-07 -0.4028676
vn 0.9320763 -2.194793E-07 -0.3622623
vn 0.9601341 -1.406444E-07 -0.2795405
vn 0.9714054 -1.008695E-07 -0.2374276
vn 0.9883538 -2.104798E-08 -0.1521733
vn 0.9940384 1.900032E-08 -0.1090311
vn 1.192093E-07 -1 9.125773E-07
vn 1.192093E-07 -1 9.125773E-07
vn 1.192093E-07 -1 9.125773E-07
vn 1.192093E-07 -1 9.125773E-07
vn 1.192093E-07 -1 9.125773E-07
vn 1.192093E-07 -1 9.125773E-07
vn 1.192093E-07 -1 9.125773E-07
vn 1.192093E-07 -1 9.125773E-07
vn 1.192093E-07 -1 9.125773E-07
vn 1.192093E-07 -1 9.125773E-07
vn 1.192093E-07 -1 9.125773E-07
vn 1.192093E-07 -1 9.125773E-07
vn 1.192093E-07 -1 9.125773E-07
vn 1.192093E-07 -1 9.125773E-07
vn 1.192093E-07 -1 9.125773E-07
vn 1.192093E-07 -1 9.125773E-07
vn 1.192093E-07 -1 9.125773E-07
vn 1.192093E-07 -1 9.125773E-07
vn 1.192093E-07 -1 9.125773E-07
vn 1.192093E-07 -1 9.125773E-07
vn 1.192093E-07 -1 9.125773E-07
vn 1.192093E-07 -1 9.125773E-07
vn 1.192093E-07 -1 9.125773E-07
vn 1.192093E-07 -1 9.125773E-07
vn 1.192093E-07 -1 9.125773E-07
vn 1.192093E-07 -1 9.125773E-07
vn 1.192093E-07 -1 9.125773E-07
vn 1.192093E-07 -1 9.125773E-07
vn 1.192093E-07 -1 9.125773E-07
vn 1.192093E-07 -1 9.125773E-07
vn 1.192093E-07 -1 9.125773E-07
vn 1.192093E-07 -1 9.125773E-07
vn 1.192093E-07 -1 9.125773E-07
vn 1.192093E-07 -1 9.125773E-07
vn 1.192093E-07 -1 9.125773E-07
vn 1.192093E-07 -1 9.125773E-07
vn 1.192093E-07 -1 9.125773E-07
vn 1.192093E-07 -1 9.125773E-07
vn 1.192093E-07 -1 9.125773E-07
vn 1.192093E-07 -1 9.125773E-07
vn 1.192093E-07 -1 9.125773E-07
vn 1.192093E-07 -1 9.125773E-07
vn 1.192093E-07 -1 9.125773E-07
vn 1.192093E-07 -1 9.125773E-07
vn 1.192093E-07 -1 9.125773E-07
vn 1.192093E-07 -1 9.125773E-07
vn 1.192093E-07 -1 9.125773E-07
vn 1.192093E-07 -1 9.125773E-07
vn 1.192093E-07 -1 9.125773E-07
vn 1.192093E-07 -1 9.125773E-07
vn 1.192093E-07 -1 9.125773E-07
vn 1.192093E-07 -1 9.125773E-07
vn 1.192093E-07 -1 9.125773E-07
vn 1.192093E-07 -1 9.125773E-07
vn 1.192093E-07 -1 9.125773E-07
vn 1.192093E-07 -1 9.125773E-07
vn 1.192093E-07 -1 9.125773E-07
vn 1.192093E-07 -1 9.125773E-07
vn 1.192093E-07 -1 9.125773E-07
vn 1.192093E-07 -1 9.125773E-07
vn 1.192093E-07 -1 9.125773E-07
vn 1.192093E-07 -1 9.125773E-07
vn 1.192093E-07 -1 9.125773E-07
vn 1.192093E-07 -1 9.125773E-07
vn 1.192093E-07 -1 9.125773E-07
vn 1.192093E-07 -1 9.125773E-07
vn 1.192093E-07 -1 9.125773E-07
vn 1.192093E-07 -1 9.125773E-07
vn 1.192093E-07 -1 9.125773E-07
vn 1.192093E-07 -1 9.125773E-07
vn 1.192093E-07 -1 9.125773E-07
vn 1.192093E-07 -1 9.125773E-07
vn 1.192093E-07 -1 9.125773E-07
vn 1.192093E-07 -1 9.125773E-07
vn 1.192093E-07 -1 9.125773E-07
vn 1.192093E-07 -1 9.125773E-07
vn 1.192093E-07 -1 9.125773E-07
vn 1.192093E-07 -1 9.125773E-07
vn 1.192093E-07 -1 9.125773E-07
vn 1.192093E-07 -1 9.125773E-07
vn 1.192093E-07 -1 9.125773E-07
vn 1.192093E-07 -1 9.125773E-07
vn 1.192093E-07 -1 9.125773E-07
vn 1.192093E-07 -1 9.125773E-07
vn 1.192093E-07 -1 9.125773E-07
vn 1.192093E-07 -1 9.125773E-07
vn 1.192093E-07 -1 9.125773E-07
vn 1.192093E-07 -1 9.125773E-07
vn 1.192093E-07 -1 9.125773E-07
vn 1.192093E-07 -1 9.125773E-07
vn 1.192093E-07 -1 9.125773E-07
vn 1.192093E-07 -1 9.125773E-07
vn 1.192093E-07 -1 9.125773E-07
vn 1.192093E-07 -1 9.125773E-07
vn 1.192093E-07 -1 9.125773E-07
vn 1.192093E-07 -1 9.125773E-07
vt 40 0
vt 36 -4
vt 36 -16
vt 40 -20
vt 20 0
vt 24 -4
vt 20 -20
vt 24 -16
vt 12 -8
vt 12 -28
vt 32 -28
vt 32 -8
vt 32 20
vt 40 20
vt 40 40
vt 32 40
vt -8 40
vt 0 40
vt 0 20
vt -8 20
vt 12 20
vt 20 20
vt 20 0
vt 12 0
vt -28 0
vt -20 0
vt -20 20
vt -28 20
vt 20 -8
vt 20 -20
vt 32 -20
vt 32 -8
vt 32 20
vt 36 20
vt 36 32
vt 32 32
vt -8 32
vt -4 32
vt -4 20
vt -8 20
vt 20 20
vt 24 20
vt 24 8
vt 20 8
vt -20 8
vt -16 8
vt -16 20
vt -20 20
vt -16.0516 25.1654
vt -16 26
vt -12 26
vt -12.0516 25.1654
vt -16.2046 24.2426
vt -12.2046 24.2426
vt -16.4566 23.2472
vt -12.4566 23.2472
vt -16.804 22.196
vt -12.804 22.196
vt -17.2396 21.1076
vt -13.2396 21.1076
vt -17.7574 20
vt -13.7574 20
vt -18.3472 18.8924
vt -14.3472 18.8924
vt -19 17.804
vt -15 17.804
vt -19.7038 16.7528
vt -15.7038 16.7528
vt -20.4472 15.7574
vt -16.4472 15.7574
vt -21.217 14.8346
vt -17.217 14.8346
vt -22 14
vt 16 14
vt 12.0516 13.2686
vt 16.0516 13.2686
vt 12.2046 12.6518
vt 16.2046 12.6518
vt 12.4566 12.1604
vt 16.4566 12.1604
vt 12.804 11.804
vt 16.804 11.804
vt 13.2396 11.5868
vt 17.2396 11.5868
vt 13.7574 11.5148
vt -22.2426 11.5148
vt -26.7604 11.5868
vt -22.7604 11.5868
vt -27.196 11.804
vt -23.196 11.804
vt -27.5434 12.1604
vt -23.5434 12.1604
vt -27.7954 12.6518
vt -23.7954 12.6518
vt -27.9484 13.2686
vt -23.9484 13.2686
vt -28 14
vt 22 14
vt 18.783 14.8346
vt 22.783 14.8346
vt 19.5528 15.7574
vt 23.5528 15.7574
vt 20.2962 16.7528
vt 24.2962 16.7528
vt 21 17.804
vt 25 17.804
vt 21.6528 18.8924
vt 25.6528 18.8924
vt 22.2426 20
vt 26.2426 20
vt 22.7604 21.1076
vt 26.7604 21.1076
vt 23.196 22.196
vt 27.196 22.196
vt 23.5434 23.2472
vt 27.5434 23.2472
vt 23.7954 24.2426
vt 27.7954 24.2426
vt 23.9484 25.1654
vt 27.9484 25.1654
vt 24 26
vt 28 26
vt 23.9484 26.7314
vt 27.9484 26.7314
vt 23.7954 27.3482
vt 27.7954 27.3482
vt 23.5434 27.8396
vt 27.5434 27.8396
vt 23.196 28.196
vt 27.196 28.196
vt 22.7604 28.4132
vt 26.7604 28.4132
vt 22.2426 28.4852
vt -13.7574 28.4852
vt -17.2396 28.4132
vt -13.2396 28.4132
vt -16.804 28.196
vt -12.804 28.196
vt -16.4566 27.8396
vt -12.4566 27.8396
vt -16.2046 27.3482
vt -12.2046 27.3482
vt -16.0516 26.7314
vt -12.0516 26.7314
vt 17.217 -16.0516
vt 18 -16
vt 18 -22
vt 16.4472 -16.2046
vt 15.7038 -16.4566
vt 15 -16.804
vt 14.3472 -17.2396
vt 13.7574 -17.7574
vt 13.2396 -18.3472
vt 12.804 -19
vt 12.4566 -19.7038
vt 12.2046 -20.4472
vt 12.0516 -21.217
vt 12 -22
vt 12.0516 -22.783
vt 12.2046 -23.5528
vt 12.4566 -24.2962
vt 12.804 -25
vt 13.2396 -25.6528
vt 13.7574 -26.2426
vt 14.3472 -26.7604
vt 15 -27.196
vt 15.7038 -27.5434
vt 16.4472 -27.7954
vt 17.217 -27.9484
vt 18 -28
vt 18.783 -27.9484
vt 19.5528 -27.7954
vt 20.2962 -27.5434
vt 21 -27.196
vt 21.6528 -26.7604
vt 22.2426 -26.2426
vt 22.7604 -25.6528
vt 23.196 -25
vt 23.5434 -24.2962
vt 23.7954 -23.5528
vt 23.9484 -22.783
vt 24 -22
vt 23.9484 -21.217
vt 23.7954 -20.4472
vt 23.5434 -19.7038
vt 23.196 -19
vt 22.7604 -18.3472
vt 22.2426 -17.7574
vt 21.6528 -17.2396
vt 21 -16.804
vt 20.2962 -16.4566
vt 19.5528 -16.2046
vt 18.783 -16.0516
vt 27.4436 29.478
vt -2 30
vt 28 34
vt 27.4436 33.478
vt 26.8284 28.9648
vt 26.8284 32.9648
vt 26.1648 28.4692
vt 26.1648 32.4692
vt 25.464 28
vt 25.464 32
vt 24.7384 27.5648
vt 24.7384 31.5648
vt 24 27.1716
vt 24 31.1716
vt 23.2616 26.8264
vt 23.2616 30.8264
vt 22.536 26.536
vt 22.536 30.536
vt 21.8352 26.3044
vt 21.8352 30.3044
vt 21.1716 26.1364
vt 21.1716 30.1364
vt 20.5564 26.0344
vt 20.5564 30.0344
vt 20 26
vt 20 30
vt 19.5124 26.0344
vt 19.5124 30.0344
vt 19.1012 26.1364
vt 19.1012 30.1364
vt 18.7736 26.3044
vt 18.7736 30.3044
vt 18.536 26.536
vt 18.536 30.536
vt 18.3912 26.8264
vt 18.3912 30.8264
vt 18.3432 27.1716
vt -4.8284 31.1716
vt -9.1736 27.5648
vt -5.1736 31.5648
vt -9.464 28
vt -5.464 32
vt -9.695601 28.4692
vt -5.695601 32.4692
vt -9.8636 28.9648
vt -5.8636 32.9648
vt -9.9656 29.478
vt -5.9656 33.478
vt -10 30
vt 20 34
vt 20.5564 30.522
vt 20.5564 34.522
vt 21.1716 31.0352
vt 21.1716 35.0352
vt 21.8352 31.5308
vt 21.8352 35.5308
vt 22.536 32
vt 22.536 36
vt 23.2616 32.4352
vt 23.2616 36.4352
vt 24 32.8284
vt 24 36.8284
vt 24.7384 33.1736
vt 24.7384 37.1736
vt 25.464 33.464
vt 25.464 37.464
vt 26.1648 33.6956
vt 26.1648 37.6956
vt 26.8284 33.8636
vt 26.8284 37.8636
vt 27.4436 33.9656
vt 27.4436 37.9656
vt 28 34
vt -2 38
vt -5.478 33.9656
vt -1.478 37.9656
vt -4.9648 33.8636
vt -0.9647999 37.8636
vt -4.4692 33.6956
vt -0.4692001 37.6956
vt -4 33.464
vt 0 37.464
vt -3.5648 33.1736
vt 0.4352 37.1736
vt -3.1716 32.8284
vt 0.8283999 36.8284
vt -2.8264 32.4352
vt 1.1736 36.4352
vt -2.536 32
vt 1.464 36
vt -2.3044 31.5308
vt 1.6956 35.5308
vt -2.1364 31.0352
vt 1.8636 35.0352
vt -2.0344 30.522
vt 1.9656 34.522
vt 29.1654 29.217
vt 0 30
vt 30 34
vt 29.1654 33.217
vt 28.2426 28.4472
vt 28.2426 32.4472
vt 27.2472 27.7038
vt 27.2472 31.7038
vt 26.196 27
vt 26.196 31
vt 25.1076 26.3472
vt 25.1076 30.3472
vt 24 25.7574
vt 24 29.7574
vt 22.8924 25.2396
vt 22.8924 29.2396
vt 21.804 24.804
vt 21.804 28.804
vt 20.7528 24.4566
vt 20.7528 28.4566
vt 19.7574 24.2046
vt 19.7574 28.2046
vt 18.8346 24.0516
vt 18.8346 28.0516
vt 18 24
vt -2 28
vt -6.783 24.0516
vt -2.783 28.0516
vt -7.5528 24.2046
vt -3.5528 28.2046
vt -8.2962 24.4566
vt -4.2962 28.4566
vt -9 24.804
vt -5 28.804
vt -9.6528 25.2396
vt -5.6528 29.2396
vt -10.2426 25.7574
vt -6.242599 29.7574
vt -10.7604 26.3472
vt -6.7604 30.3472
vt -11.196 27
vt -7.196 31
vt -11.5434 27.7038
vt -7.5434 31.7038
vt -11.7954 28.4472
vt -7.795401 32.4472
vt -11.9484 29.217
vt -7.9484 33.217
vt -12 30
vt 18 34
vt 18.8346 30.783
vt 18.8346 34.783
vt 19.7574 31.5528
vt 19.7574 35.5528
vt 20.7528 32.2962
vt 20.7528 36.2962
vt 21.804 33
vt 21.804 37
vt 22.8924 33.6528
vt 22.8924 37.6528
vt 24 34.2426
vt 24 38.2426
vt 25.1076 34.7604
vt 25.1076 38.7604
vt 26.196 35.196
vt 26.196 39.196
vt 27.2472 35.5434
vt 27.2472 39.5434
vt 28.2426 35.7954
vt 28.2426 39.7954
vt 29.1654 35.9484
vt 29.1654 39.9484
vt 30 36
vt 30 40
vt 30.7314 35.9484
vt 30.7314 39.9484
vt 31.3482 35.7954
vt 31.3482 39.7954
vt 31.8396 35.5434
vt 31.8396 39.5434
vt 32.196 35.196
vt 32.196 39.196
vt 32.4132 34.7604
vt 32.4132 38.7604
vt 32.4852 34.2426
vt 2.2426 38.2426
vt -1.2396 33.6528
vt 2.7604 37.6528
vt -0.8039999 33
vt 3.196 37
vt -0.4566002 32.2962
vt 3.5434 36.2962
vt -0.2045999 31.5528
vt 3.7954 35.5528
vt -0.05159998 30.783
vt 3.9484 34.783
vt 2 34
vt 1.9656 33.478
vt 3.9484 33.217
vt 4 34
vt 1.8636 32.9648
vt 3.7954 32.4472
vt 1.6956 32.4692
vt 3.5434 31.7038
vt 1.464 32
vt 3.196 31
vt 1.1736 31.5648
vt 2.7604 30.3472
vt 0.8283999 31.1716
vt 2.2426 29.7574
vt 0.4352 30.8264
vt 1.6528 29.2396
vt 0 30.536
vt 1 28.804
vt -0.4692001 30.3044
vt 0.2962 28.4566
vt -0.9647999 30.1364
vt -0.4471998 28.2046
vt -1.478 30.0344
vt -1.217 28.0516
vt -2 30
vt -2 28
vt -2.522 30.0344
vt -2.783 28.0516
vt -3.0352 30.1364
vt -3.5528 28.2046
vt -3.5308 30.3044
vt -4.2962 28.4566
vt -4 30.536
vt -5 28.804
vt -4.4352 30.8264
vt -5.6528 29.2396
vt -4.8284 31.1716
vt -6.242599 29.7574
vt -5.1736 31.5648
vt -6.7604 30.3472
vt -5.464 32
vt -7.196 31
vt -5.695601 32.4692
vt -7.5434 31.7038
vt -5.8636 32.9648
vt -7.795401 32.4472
vt -5.9656 33.478
vt -7.9484 33.217
vt -6 34
vt -8 34
vt -5.9656 34.522
vt -7.9484 34.783
vt -5.8636 35.0352
vt -7.795401 35.5528
vt -5.695601 35.5308
vt -7.5434 36.2962
vt -5.464 36
vt -7.196 37
vt -5.1736 36.4352
vt -6.7604 37.6528
vt -4.8284 36.8284
vt -6.242599 38.2426
vt -4.4352 37.1736
vt -5.6528 38.7604
vt -4 37.464
vt -5 39.196
vt -3.5308 37.6956
vt -4.2962 39.5434
vt -3.0352 37.8636
vt -3.5528 39.7954
vt -2.522 37.9656
vt -2.783 39.9484
vt -2 38
vt -2 40
vt -1.478 37.9656
vt -1.217 39.9484
vt -0.9647999 37.8636
vt -0.4471998 39.7954
vt -0.4692001 37.6956
vt 0.2962 39.5434
vt 0 37.464
vt 1 39.196
vt 0.4352 37.1736
vt 1.6528 38.7604
vt 0.8283999 36.8284
vt 2.2426 38.2426
vt 1.1736 36.4352
vt 2.7604 37.6528
vt 1.464 36
vt 3.196 37
vt 1.6956 35.5308
vt 3.5434 36.2962
vt 1.8636 35.0352
vt 3.7954 35.5528
vt 1.9656 34.522
vt 3.9484 34.783
usemtl 15
f 3/3/3 2/2/2 1/1/1
f 1/1/1 4/4/4 3/3/3
f 2/2/2 6/6/6 5/5/5
f 5/5/5 1/1/1 2/2/2
f 6/6/6 8/8/8 7/7/7
f 7/7/7 5/5/5 6/6/6
f 8/8/8 3/3/3 4/4/4
f 4/4/4 7/7/7 8/8/8
f 9/9/9 10/10/10 11/11/11
f 11/11/11 12/12/12 9/9/9
f 13/13/13 14/14/14 15/15/15
f 15/15/15 16/16/16 13/13/13
f 17/17/17 18/18/18 19/19/19
f 19/19/19 20/20/20 17/17/17
f 21/21/21 22/22/22 23/23/23
f 23/23/23 24/24/24 21/21/21
f 25/25/25 26/26/26 27/27/27
f 27/27/27 28/28/28 25/25/25
f 31/31/31 30/30/30 29/29/29
f 29/29/29 32/32/32 31/31/31
f 35/35/35 34/34/34 33/33/33
f 33/33/33 36/36/36 35/35/35
f 39/39/39 38/38/38 37/37/37
f 37/37/37 40/40/40 39/39/39
f 43/43/43 42/42/42 41/41/41
f 41/41/41 44/44/44 43/43/43
f 47/47/47 46/46/46 45/45/45
f 45/45/45 48/48/48 47/47/47
f 49/49/49 50/50/50 51/51/51
f 51/51/51 52/52/52 49/49/49
f 53/53/53 49/49/49 52/52/52
f 52/52/52 54/54/54 53/53/53
f 55/55/55 53/53/53 54/54/54
f 54/54/54 56/56/56 55/55/55
f 57/57/57 55/55/55 56/56/56
f 56/56/56 58/58/58 57/57/57
f 59/59/59 57/57/57 58/58/58
f 58/58/58 60/60/60 59/59/59
f 61/61/61 59/59/59 60/60/60
f 60/60/60 62/62/62 61/61/61
f 63/63/63 61/61/61 62/62/62
f 62/62/62 64/64/64 63/63/63
f 65/65/65 63/63/63 64/64/64
f 64/64/64 66/66/66 65/65/65
f 67/67/67 65/65/65 66/66/66
f 66/66/66 68/68/68 67/67/67
f 69/69/69 67/67/67 68/68/68
f 68/68/68 70/70/70 69/69/69
f 71/71/71 69/69/69 70/70/70
f 70/70/70 72/72/72 71/71/71
f 73/73/73 71/71/71 72/72/72
f 72/72/72 74/74/74 73/73/73
f 75/75/75 73/73/73 74/74/74
f 74/74/74 76/76/76 75/75/75
f 77/77/77 75/75/75 76/76/76
f 76/76/76 78/78/78 77/77/77
f 79/79/79 77/77/77 78/78/78
f 78/78/78 80/80/80 79/79/79
f 81/81/81 79/79/79 80/80/80
f 80/80/80 82/82/82 81/81/81
f 83/83/83 81/81/81 82/82/82
f 82/82/82 84/84/84 83/83/83
f 85/85/85 83/83/83 84/84/84
f 84/84/84 86/86/86 85/85/85
f 87/87/87 85/85/85 86/86/86
f 86/86/86 88/88/88 87/87/87
f 89/89/89 87/87/87 88/88/88
f 88/88/88 90/90/90 89/89/89
f 91/91/91 89/89/89 90/90/90
f 90/90/90 92/92/92 91/91/91
f 93/93/93 91/91/91 92/92/92
f 92/92/92 94/94/94 93/93/93
f 95/95/95 93/93/93 94/94/94
f 94/94/94 96/96/96 95/95/95
f 97/97/97 95/95/95 96/96/96
f 96/96/96 98/98/98 97/97/97
f 99/99/99 97/97/97 98/98/98
f 98/98/98 100/100/100 99/99/99
f 101/101/101 99/99/99 100/100/100
f 100/100/100 102/102/102 101/101/101
f 103/103/103 101/101/101 102/102/102
f 102/102/102 104/104/104 103/103/103
f 105/105/105 103/103/103 104/104/104
f 104/104/104 106/106/106 105/105/105
f 107/107/107 105/105/105 106/106/106
f 106/106/106 108/108/108 107/107/107
f 109/109/109 107/107/107 108/108/108
f 108/108/108 110/110/110 109/109/109
f 111/111/111 109/109/109 110/110/110
f 110/110/110 112/112/112 111/111/111
f 113/113/113 111/111/111 112/112/112
f 112/112/112 114/114/114 113/113/113
f 115/115/115 113/113/113 114/114/114
f 114/114/114 116/116/116 115/115/115
f 117/117/117 115/115/115 116/116/116
f 116/116/116 118/118/118 117/117/117
f 119/119/119 117/117/117 118/118/118
f 118/118/118 120/120/120 119/119/119
f 121/121/121 119/119/119 120/120/120
f 120/120/120 122/122/122 121/121/121
f 123/123/123 121/121/121 122/122/122
f 122/122/122 124/124/124 123/123/123
f 125/125/125 123/123/123 124/124/124
f 124/124/124 126/126/126 125/125/125
f 127/127/127 125/125/125 126/126/126
f 126/126/126 128/128/128 127/127/127
f 129/129/129 127/127/127 128/128/128
f 128/128/128 130/130/130 129/129/129
f 131/131/131 129/129/129 130/130/130
f 130/130/130 132/132/132 131/131/131
f 133/133/133 131/131/131 132/132/132
f 132/132/132 134/134/134 133/133/133
f 135/135/135 133/133/133 134/134/134
f 134/134/134 136/136/136 135/135/135
f 137/137/137 135/135/135 136/136/136
f 136/136/136 138/138/138 137/137/137
f 139/139/139 137/137/137 138/138/138
f 138/138/138 140/140/140 139/139/139
f 141/141/141 139/139/139 140/140/140
f 140/140/140 142/142/142 141/141/141
f 143/143/143 141/141/141 142/142/142
f 142/142/142 144/144/144 143/143/143
f 50/50/50 143/143/143 144/144/144
f 144/144/144 51/51/51 50/50/50
f 147/147/147 146/146/146 145/145/145
f 147/147/147 145/145/145 148/148/148
f 147/147/147 148/148/148 149/149/149
f 147/147/147 149/149/149 150/150/150
f 147/147/147 150/150/150 151/151/151
f 147/147/147 151/151/151 152/152/152
f 147/147/147 152/152/152 153/153/153
f 147/147/147 153/153/153 154/154/154
f 147/147/147 154/154/154 155/155/155
f 147/147/147 155/155/155 156/156/156
f 147/147/147 156/156/156 157/157/157
f 147/147/147 157/157/157 158/158/158
f 147/147/147 158/158/158 159/159/159
f 147/147/147 159/159/159 160/160/160
f 147/147/147 160/160/160 161/161/161
f 147/147/147 161/161/161 162/162/162
f 147/147/147 162/162/162 163/163/163
f 147/147/147 163/163/163 164/164/164
f 147/147/147 164/164/164 165/165/165
f 147/147/147 165/165/165 166/166/166
f 147/147/147 166/166/166 167/167/167
f 147/147/147 167/167/167 168/168/168
f 147/147/147 168/168/168 169/169/169
f 147/147/147 169/169/169 170/170/170
f 147/147/147 170/170/170 171/171/171
f 147/147/147 171/171/171 172/172/172
f 147/147/147 172/172/172 173/173/173
f 147/147/147 173/173/173 174/174/174
f 147/147/147 174/174/174 175/175/175
f 147/147/147 175/175/175 176/176/176
f 147/147/147 176/176/176 177/177/177
f 147/147/147 177/177/177 178/178/178
f 147/147/147 178/178/178 179/179/179
f 147/147/147 179/179/179 180/180/180
f 147/147/147 180/180/180 181/181/181
f 147/147/147 181/181/181 182/182/182
f 147/147/147 182/182/182 183/183/183
f 147/147/147 183/183/183 184/184/184
f 147/147/147 184/184/184 185/185/185
f 147/147/147 185/185/185 186/186/186
f 147/147/147 186/186/186 187/187/187
f 147/147/147 187/187/187 188/188/188
f 147/147/147 188/188/188 189/189/189
f 147/147/147 189/189/189 190/190/190
f 147/147/147 190/190/190 191/191/191
f 147/147/147 191/191/191 192/192/192
f 147/147/147 192/192/192 193/193/193
f 147/147/147 193/193/193 146/146/146
f 194/194/194 195/195/195 196/196/196
f 196/196/196 197/197/197 194/194/194
f 198/198/198 194/194/194 197/197/197
f 197/197/197 199/199/199 198/198/198
f 200/200/200 198/198/198 199/199/199
f 199/199/199 201/201/201 200/200/200
f 202/202/202 200/200/200 201/201/201
f 201/201/201 203/203/203 202/202/202
f 204/204/204 202/202/202 203/203/203
f 203/203/203 205/205/205 204/204/204
f 206/206/206 204/204/204 205/205/205
f 205/205/205 207/207/207 206/206/206
f 208/208/208 206/206/206 207/207/207
f 207/207/207 209/209/209 208/208/208
f 210/210/210 208/208/208 209/209/209
f 209/209/209 211/211/211 210/210/210
f 212/212/212 210/210/210 211/211/211
f 211/211/211 213/213/213 212/212/212
f 214/214/214 212/212/212 213/213/213
f 213/213/213 215/215/215 214/214/214
f 216/216/216 214/214/214 215/215/215
f 215/215/215 217/217/217 216/216/216
f 218/218/218 216/216/216 217/217/217
f 217/217/217 219/219/219 218/218/218
f 220/220/220 218/218/218 219/219/219
f 219/219/219 221/221/221 220/220/220
f 222/222/222 220/220/220 221/221/221
f 221/221/221 223/223/223 222/222/222
f 224/224/224 222/222/222 223/223/223
f 223/223/223 225/225/225 224/224/224
f 226/226/226 224/224/224 225/225/225
f 225/225/225 227/227/227 226/226/226
f 228/228/228 226/226/226 227/227/227
f 227/227/227 229/229/229 228/228/228
f 230/230/230 228/228/228 229/229/229
f 229/229/229 231/231/231 230/230/230
f 232/232/232 230/230/230 231/231/231
f 231/231/231 233/233/233 232/232/232
f 234/234/234 232/232/232 233/233/233
f 233/233/233 235/235/235 234/234/234
f 236/236/236 234/234/234 235/235/235
f 235/235/235 237/237/237 236/236/236
f 238/238/238 236/236/236 237/237/237
f 237/237/237 239/239/239 238/238/238
f 240/240/240 238/238/238 239/239/239
f 239/239/239 241/241/241 240/240/240
f 242/242/242 240/240/240 241/241/241
f 241/241/241 243/243/243 242/242/242
f 244/244/244 242/242/242 243/243/243
f 243/243/243 245/245/245 244/244/244
f 246/246/246 244/244/244 245/245/245
f 245/245/245 247/247/247 246/246/246
f 248/248/248 246/246/246 247/247/247
f 247/247/247 249/249/249 248/248/248
f 250/250/250 248/248/248 249/249/249
f 249/249/249 251/251/251 250/250/250
f 252/252/252 250/250/250 251/251/251
f 251/251/251 253/253/253 252/252/252
f 254/254/254 252/252/252 253/253/253
f 253/253/253 255/255/255 254/254/254
f 256/256/256 254/254/254 255/255/255
f 255/255/255 257/257/257 256/256/256
f 258/258/258 256/256/256 257/257/257
f 257/257/257 259/259/259 258/258/258
f 260/260/260 258/258/258 259/259/259
f 259/259/259 261/261/261 260/260/260
f 262/262/262 260/260/260 261/261/261
f 261/261/261 263/263/263 262/262/262
f 264/264/264 262/262/262 263/263/263
f 263/263/263 265/265/265 264/264/264
f 266/266/266 264/264/264 265/265/265
f 265/265/265 267/267/267 266/266/266
f 268/268/268 266/266/266 267/267/267
f 267/267/267 269/269/269 268/268/268
f 270/270/270 268/268/268 269/269/269
f 269/269/269 271/271/271 270/270/270
f 272/272/272 270/270/270 271/271/271
f 271/271/271 273/273/273 272/272/272
f 274/274/274 272/272/272 273/273/273
f 273/273/273 275/275/275 274/274/274
f 276/276/276 274/274/274 275/275/275
f 275/275/275 277/277/277 276/276/276
f 278/278/278 276/276/276 277/277/277
f 277/277/277 279/279/279 278/278/278
f 280/280/280 278/278/278 279/279/279
f 279/279/279 281/281/281 280/280/280
f 282/282/282 280/280/280 281/281/281
f 281/281/281 283/283/283 282/282/282
f 284/284/284 282/282/282 283/283/283
f 283/283/283 285/285/285 284/284/284
f 286/286/286 284/284/284 285/285/285
f 285/285/285 287/287/287 286/286/286
f 288/288/288 286/286/286 287/287/287
f 287/287/287 289/289/289 288/288/288
f 195/195/195 288/288/288 289/289/289
f 289/289/289 196/196/196 195/195/195
f 292/292/292 291/291/291 290/290/290
f 290/290/290 293/293/293 292/292/292
f 293/293/293 290/290/290 294/294/294
f 294/294/294 295/295/295 293/293/293
f 295/295/295 294/294/294 296/296/296
f 296/296/296 297/297/297 295/295/295
f 297/297/297 296/296/296 298/298/298
f 298/298/298 299/299/299 297/297/297
f 299/299/299 298/298/298 300/300/300
f 300/300/300 301/301/301 299/299/299
f 301/301/301 300/300/300 302/302/302
f 302/302/302 303/303/303 301/301/301
f 303/303/303 302/302/302 304/304/304
f 304/304/304 305/305/305 303/303/303
f 305/305/305 304/304/304 306/306/306
f 306/306/306 307/307/307 305/305/305
f 307/307/307 306/306/306 308/308/308
f 308/308/308 309/309/309 307/307/307
f 309/309/309 308/308/308 310/310/310
f 310/310/310 311/311/311 309/309/309
f 311/311/311 310/310/310 312/312/312
f 312/312/312 313/313/313 311/311/311
f 313/313/313 312/312/312 314/314/314
f 314/314/314 315/315/315 313/313/313
f 315/315/315 314/314/314 316/316/316
f 316/316/316 317/317/317 315/315/315
f 317/317/317 316/316/316 318/318/318
f 318/318/318 319/319/319 317/317/317
f 319/319/319 318/318/318 320/320/320
f 320/320/320 321/321/321 319/319/319
f 321/321/321 320/320/320 322/322/322
f 322/322/322 323/323/323 321/321/321
f 323/323/323 322/322/322 324/324/324
f 324/324/324 325/325/325 323/323/323
f 325/325/325 324/324/324 326/326/326
f 326/326/326 327/327/327 325/325/325
f 327/327/327 326/326/326 328/328/328
f 328/328/328 329/329/329 327/327/327
f 329/329/329 328/328/328 330/330/330
f 330/330/330 331/331/331 329/329/329
f 331/331/331 330/330/330 332/332/332
f 332/332/332 333/333/333 331/331/331
f 333/333/333 332/332/332 334/334/334
f 334/334/334 335/335/335 333/333/333
f 335/335/335 334/334/334 336/336/336
f 336/336/336 337/337/337 335/335/335
f 337/337/337 336/336/336 338/338/338
f 338/338/338 339/339/339 337/337/337
f 339/339/339 338/338/338 340/340/340
f 340/340/340 341/341/341 339/339/339
f 341/341/341 340/340/340 342/342/342
f 342/342/342 343/343/343 341/341/341
f 343/343/343 342/342/342 344/344/344
f 344/344/344 345/345/345 343/343/343
f 345/345/345 344/344/344 346/346/346
f 346/346/346 347/347/347 345/345/345
f 347/347/347 346/346/346 348/348/348
f 348/348/348 349/349/349 347/347/347
f 349/349/349 348/348/348 350/350/350
f 350/350/350 351/351/351 349/349/349
f 351/351/351 350/350/350 352/352/352
f 352/352/352 353/353/353 351/351/351
f 353/353/353 352/352/352 354/354/354
f 354/354/354 355/355/355 353/353/353
f 355/355/355 354/354/354 356/356/356
f 356/356/356 357/357/357 355/355/355
f 357/357/357 356/356/356 358/358/358
f 358/358/358 359/359/359 357/357/357
f 359/359/359 358/358/358 360/360/360
f 360/360/360 361/361/361 359/359/359
f 361/361/361 360/360/360 362/362/362
f 362/362/362 363/363/363 361/361/361
f 363/363/363 362/362/362 364/364/364
f 364/364/364 365/365/365 363/363/363
f 365/365/365 364/364/364 366/366/366
f 366/366/366 367/367/367 365/365/365
f 367/367/367 366/366/366 368/368/368
f 368/368/368 369/369/369 367/367/367
f 369/369/369 368/368/368 370/370/370
f 370/370/370 371/371/371 369/369/369
f 371/371/371 370/370/370 372/372/372
f 372/372/372 373/373/373 371/371/371
f 373/373/373 372/372/372 374/374/374
f 374/374/374 375/375/375 373/373/373
f 375/375/375 374/374/374 376/376/376
f 376/376/376 377/377/377 375/375/375
f 377/377/377 376/376/376 378/378/378
f 378/378/378 379/379/379 377/377/377
f 379/379/379 378/378/378 380/380/380
f 380/380/380 381/381/381 379/379/379
f 381/381/381 380/380/380 382/382/382
f 382/382/382 383/383/383 381/381/381
f 383/383/383 382/382/382 384/384/384
f 384/384/384 385/385/385 383/383/383
f 385/385/385 384/384/384 291/291/291
f 291/291/291 292/292/292 385/385/385
f 388/388/388 387/387/387 386/386/386
f 386/386/386 389/389/389 388/388/388
f 391/391/391 390/390/390 387/387/387
f 387/387/387 388/388/388 391/391/391
f 393/393/393 392/392/392 390/390/390
f 390/390/390 391/391/391 393/393/393
f 395/395/395 394/394/394 392/392/392
f 392/392/392 393/393/393 395/395/395
f 397/397/397 396/396/396 394/394/394
f 394/394/394 395/395/395 397/397/397
f 399/399/399 398/398/398 396/396/396
f 396/396/396 397/397/397 399/399/399
f 401/401/401 400/400/400 398/398/398
f 398/398/398 399/399/399 401/401/401
f 403/403/403 402/402/402 400/400/400
f 400/400/400 401/401/401 403/403/403
f 405/405/405 404/404/404 402/402/402
f 402/402/402 403/403/403 405/405/405
f 407/407/407 406/406/406 404/404/404
f 404/404/404 405/405/405 407/407/407
f 409/409/409 408/408/408 406/406/406
f 406/406/406 407/407/407 409/409/409
f 411/411/411 410/410/410 408/408/408
f 408/408/408 409/409/409 411/411/411
f 413/413/413 412/412/412 410/410/410
f 410/410/410 411/411/411 413/413/413
f 415/415/415 414/414/414 412/412/412
f 412/412/412 413/413/413 415/415/415
f 417/417/417 416/416/416 414/414/414
f 414/414/414 415/415/415 417/417/417
f 419/419/419 418/418/418 416/416/416
f 416/416/416 417/417/417 419/419/419
f 421/421/421 420/420/420 418/418/418
f 418/418/418 419/419/419 421/421/421
f 423/423/423 422/422/422 420/420/420
f 420/420/420 421/421/421 423/423/423
f 425/425/425 424/424/424 422/422/422
f 422/422/422 423/423/423 425/425/425
f 427/427/427 426/426/426 424/424/424
f 424/424/424 425/425/425 427/427/427
f 429/429/429 428/428/428 426/426/426
f 426/426/426 427/427/427 429/429/429
f 431/431/431 430/430/430 428/428/428
f 428/428/428 429/429/429 431/431/431
f 433/433/433 432/432/432 430/430/430
f 430/430/430 431/431/431 433/433/433
f 435/435/435 434/434/434 432/432/432
f 432/432/432 433/433/433 435/435/435
f 437/437/437 436/436/436 434/434/434
f 434/434/434 435/435/435 437/437/437
f 439/439/439 438/438/438 436/436/436
f 436/436/436 437/437/437 439/439/439
f 441/441/441 440/440/440 438/438/438
f 438/438/438 439/439/439 441/441/441
f 443/443/443 442/442/442 440/440/440
f 440/440/440 441/441/441 443/443/443
f 445/445/445 444/444/444 442/442/442
f 442/442/442 443/443/443 445/445/445
f 447/447/447 446/446/446 444/444/444
f 444/444/444 445/445/445 447/447/447
f 449/449/449 448/448/448 446/446/446
f 446/446/446 447/447/447 449/449/449
f 451/451/451 450/450/450 448/448/448
f 448/448/448 449/449/449 451/451/451
f 453/453/453 452/452/452 450/450/450
f 450/450/450 451/451/451 453/453/453
f 455/455/455 454/454/454 452/452/452
f 452/452/452 453/453/453 455/455/455
f 457/457/457 456/456/456 454/454/454
f 454/454/454 455/455/455 457/457/457
f 459/459/459 458/458/458 456/456/456
f 456/456/456 457/457/457 459/459/459
f 461/461/461 460/460/460 458/458/458
f 458/458/458 459/459/459 461/461/461
f 463/463/463 462/462/462 460/460/460
f 460/460/460 461/461/461 463/463/463
f 465/465/465 464/464/464 462/462/462
f 462/462/462 463/463/463 465/465/465
f 467/467/467 466/466/466 464/464/464
f 464/464/464 465/465/465 467/467/467
f 469/469/469 468/468/468 466/466/466
f 466/466/466 467/467/467 469/469/469
f 471/471/471 470/470/470 468/468/468
f 468/468/468 469/469/469 471/471/471
f 473/473/473 472/472/472 470/470/470
f 470/470/470 471/471/471 473/473/473
f 475/475/475 474/474/474 472/472/472
f 472/472/472 473/473/473 475/475/475
f 477/477/477 476/476/476 474/474/474
f 474/474/474 475/475/475 477/477/477
f 479/479/479 478/478/478 476/476/476
f 476/476/476 477/477/477 479/479/479
f 481/481/481 480/480/480 478/478/478
f 478/478/478 479/479/479 481/481/481
f 389/389/389 386/386/386 480/480/480
f 480/480/480 481/481/481 389/389/389
