mtllib right_leg_dark_purple.mtl
v -1.66893E-06 -1.829526E-05 -19.5
v -1.66893E-06 -1.829526E-05 -19.5
v -1.66893E-06 -1.829526E-05 -19.5
v -20 -1.829526E-05 -19.5
v -20 -1.829526E-05 -19.5
v -20 -1.829526E-05 -19.5
v -15 7.999982 -19.18
v -15 7.999982 -19.18
v -15 7.999982 -19.18
v -20 7.999982 -19.18
v -20 7.999982 -19.18
v -20 7.999982 -19.18
v -15 20.29998 -18.68
v -15 21.25998 -18.64
v -15 21.25998 -18.64
v -15 21.25998 -18.64
v -17.28 24.57998 -18.5
v -17.28 24.57998 -18.5
v -1.533031E-06 27.99998 -18.36
v -1.533031E-06 27.99998 -18.36
v -9.000001 27.99998 -18.36
v -18 27.99998 -18.35999
v -18 27.99998 -18.35999
v -0.7200018 31.41998 -18.23
v -0.7200018 31.41998 -18.23
v -17.28 31.41998 -18.23
v -17.28 31.41998 -18.23
v -2.700002 34.29998 -18.11
v -2.700002 34.29998 -18.11
v -15.3 34.29998 -18.10999
v -15.3 34.29998 -18.10999
v -5.580001 36.27998 -18.03
v -5.580001 36.27998 -18.03
v -12.42 36.27998 -18.02999
v -12.42 36.27998 -18.02999
v -9.000001 36.99998 -18
v -9.000001 36.99998 -18
v -9.000001 36.99998 -18
v -0.4210017 29.99998 -16
v -0.4210017 29.99998 -16
v -4.000001 29.99998 -16
v -4.000001 29.99998 -16
v -4.000001 19.99998 -16
v -4.000001 19.99998 -16
v -4.000001 19.99998 -16
v -12 19.99998 -16
v -12 19.99998 -16
v -12 19.99998 -16
v -1.251698E-06 15.99998 -16
v -4.000001 15.99998 -16
v -4.000001 15.99998 -16
v -1.251698E-06 9.999981 -16
v -1.251698E-06 9.999981 -16
v -1.251698E-06 9.999981 -16
v -4.000001 9.999981 -16
v -4.000001 9.999981 -16
v -4.000001 9.999981 -16
v -4.000001 9.999981 -16
v -1.251698E-06 3.999981 -16
v -4.000001 3.999981 -16
v -4.000001 3.999981 -16
v -4.000001 3.999981 -16
v -4.000001 3.999981 -16
v -12 3.999981 -16
v -12 3.999981 -16
v -12 3.999981 -16
v -12 3.999981 -16
v -16 3.999981 -16
v -16 3.999981 -16
v -16 3.999981 -16
v -4.000001 -1.860123E-05 -16
v -4.000001 -1.860123E-05 -16
v -4.000001 -1.860123E-05 -16
v -16 -1.860124E-05 -16
v -16 -1.860124E-05 -16
v -16 -1.860124E-05 -16
v -1.245499E-06 10.78298 -15.948
v -1.245499E-06 10.78298 -15.948
v -4.000001 10.78298 -15.948
v -4.000001 10.78298 -15.948
v -1.245499E-06 9.216981 -15.948
v -1.245499E-06 9.216981 -15.948
v -4.000001 9.216981 -15.948
v -4.000001 9.216981 -15.948
v -1.22726E-06 11.55298 -15.795
v -1.22726E-06 11.55298 -15.795
v -4.000001 11.55298 -15.795
v -4.000001 11.55298 -15.795
v -1.22726E-06 8.44698 -15.795
v -1.22726E-06 8.44698 -15.795
v -4.000001 8.44698 -15.795
v -4.000001 8.44698 -15.795
v -0.7200015 31.41998 -15.718
v -0.7200015 31.41998 -15.718
v -1.204252E-06 27.99998 -15.602
v -1.204252E-06 27.99998 -15.602
v -1.322002 32.29598 -15.543
v -1.322002 32.29598 -15.543
v -4.000001 32.29598 -15.543
v -4.000001 32.29598 -15.543
v -1.197219E-06 27.70398 -15.543
v -1.197219E-06 27.70398 -15.543
v -4.000001 27.70398 -15.543
v -4.000001 27.70398 -15.543
v -1.197219E-06 12.29598 -15.543
v -1.197219E-06 12.29598 -15.543
v -4.000001 12.29598 -15.543
v -4.000001 12.29598 -15.543
v -1.197219E-06 7.703981 -15.543
v -1.197219E-06 7.703981 -15.543
v -4.000001 7.703981 -15.543
v -4.000001 7.703981 -15.543
v -1.155853E-06 12.99998 -15.196
v -1.155853E-06 12.99998 -15.196
v -4.000001 12.99998 -15.196
v -4.000001 12.99998 -15.196
v -1.155853E-06 6.999981 -15.196
v -1.155853E-06 6.999981 -15.196
v -4.000001 6.999981 -15.196
v -4.000001 6.999981 -15.196
v -1.103878E-06 13.65298 -14.76
v -1.103878E-06 13.65298 -14.76
v -4.000001 13.65298 -14.76
v -4.000001 13.65298 -14.76
v -1.103878E-06 6.346981 -14.76
v -1.103878E-06 6.346981 -14.76
v -4.000001 6.346981 -14.76
v -4.000001 6.346981 -14.76
v -4.000001 33.99998 -14.34
v -4.000001 33.99998 -14.34
v -4.000001 33.99998 -14.34
v -9.000001 33.99998 -14.34
v -9.000001 33.99998 -14.34
v -9.000001 33.99998 -14.34
v -9.000001 33.99998 -14.34
v -9.000001 33.99998 -14.34
v -9.783001 33.94798 -14.34
v -9.783001 33.94798 -14.34
v -10.553 33.79498 -14.34
v -10.553 33.79498 -14.34
v -10.553 33.79498 -14.34
v -11.296 33.54298 -14.34
v -11.296 33.54298 -14.34
v -12 33.19598 -14.34
v -12 33.19598 -14.34
v -12.653 32.75998 -14.34
v -12.653 32.75998 -14.34
v -13.243 32.24298 -14.34
v -13.243 32.24298 -14.34
v -13.76 31.65298 -14.34
v -13.76 31.65298 -14.34
v -13.76 31.65298 -14.34
v -14.196 30.99998 -14.34
v -14.196 30.99998 -14.34
v -14.543 30.29598 -14.34
v -14.543 30.29598 -14.34
v -14.795 29.55298 -14.34
v -14.795 29.55298 -14.34
v -14.948 28.78298 -14.34
v -14.948 28.78298 -14.34
v -9.000001 27.99998 -14.34
v -9.000001 27.99998 -14.34
v -15 27.99998 -14.34
v -15 27.99998 -14.34
v -15 27.99998 -14.34
v -15 27.99998 -14.34
v -4.000001 25.89998 -14.34
v -4.000001 25.89998 -14.34
v -4.000001 25.89998 -14.34
v -14.58 25.89998 -14.34
v -14.58 25.89998 -14.34
v -14.58 25.89998 -14.34
v -2.660001 34.24298 -14.243
v -2.660001 34.24298 -14.243
v -2.660001 34.24298 -14.243
v -4.000001 34.24298 -14.243
v -4.000001 34.24298 -14.243
v -4.000001 34.24298 -14.243
v -1.042247E-06 25.75698 -14.243
v -1.042247E-06 25.75698 -14.243
v -1.042247E-06 25.75698 -14.243
v -1.042247E-06 14.24298 -14.243
v -1.042247E-06 14.24298 -14.243
v -1.042247E-06 14.24298 -14.243
v -4.000001 14.24298 -14.243
v -4.000001 14.24298 -14.243
v -4.000001 14.24298 -14.243
v -1.042247E-06 5.756981 -14.243
v -1.042247E-06 5.756981 -14.243
v -1.042247E-06 5.756981 -14.243
v -4.000001 5.756981 -14.243
v -4.000001 5.756981 -14.243
v -4.000001 5.756981 -14.243
v -14.55 25.75998 -14.24
v -14.55 25.75998 -14.24
v -14.55 25.75998 -14.24
v -2.700001 34.29998 -14.157
v -2.700001 34.29998 -14.157
v -9.719133E-07 14.75998 -13.653
v -9.719133E-07 14.75998 -13.653
v -4.000001 14.75998 -13.653
v -4.000001 14.75998 -13.653
v -9.719133E-07 5.239981 -13.653
v -9.719133E-07 5.239981 -13.653
v -4.000001 5.239981 -13.653
v -4.000001 5.239981 -13.653
v -8.940697E-07 15.19598 -13
v -8.940697E-07 15.19598 -13
v -4 15.19598 -13
v -4 15.19598 -13
v -8.940697E-07 4.803981 -13
v -8.940697E-07 4.803981 -13
v -4 4.803981 -13
v -4 4.803981 -13
v -4 35.19398 -12.819
v -4 35.19398 -12.819
v -4 35.19398 -12.819
v -4 35.19398 -12.819
v -13.71 24.45998 -12.3
v -13.71 24.45998 -12.3
v -4 35.54298 -12.296
v -4 35.54298 -12.296
v -4 35.54298 -12.296
v -4.509001 35.54298 -12.296
v -4.509001 35.54298 -12.296
v -4.509001 35.54298 -12.296
v -8.101463E-07 24.45698 -12.296
v -8.101463E-07 24.45698 -12.296
v -8.101463E-07 15.54298 -12.296
v -8.101463E-07 15.54298 -12.296
v -4 15.54298 -12.296
v -4 15.54298 -12.296
v -8.101463E-07 4.456981 -12.296
v -8.101463E-07 4.456981 -12.296
v -4 4.456981 -12.296
v -4 4.456981 -12.296
v -7.215738E-07 15.79498 -11.553
v -7.215738E-07 15.79498 -11.553
v -4 15.79498 -11.553
v -4 15.79498 -11.553
v -7.215738E-07 4.204981 -11.553
v -7.215738E-07 4.204981 -11.553
v -4 4.204981 -11.553
v -4 4.204981 -11.553
v -6.297827E-07 15.94798 -10.783
v -6.297827E-07 15.94798 -10.783
v -4 15.94798 -10.783
v -4 15.94798 -10.783
v -6.297827E-07 4.051981 -10.783
v -6.297827E-07 4.051981 -10.783
v -4 4.051981 -10.783
v -4 4.051981 -10.783
v -4 35.99998 -9.999997
v -4 35.99998 -9.999997
v -5.173 35.99998 -9.999997
v -5.173 35.99998 -9.999997
v -5.364418E-07 23.99998 -9.999999
v -5.364418E-07 23.99998 -9.999999
v -13.4 23.99998 -9.999997
v -13.4 23.99998 -9.999997
v -5.364418E-07 15.99998 -10
v -5.364418E-07 15.99998 -10
v -5.364418E-07 15.99998 -10
v -4 15.99998 -9.999999
v -4 15.99998 -9.999999
v -4 15.99998 -9.999999
v -4 15.99998 -9.999999
v -4 15.99998 -9.999999
v -5.364418E-07 3.999981 -10
v -5.364418E-07 3.999981 -10
v -5.364418E-07 3.999981 -10
v -4 3.999981 -10
v -4 3.999981 -10
v -4 3.999981 -10
v -4 3.999981 -10
v -4 3.999981 -10
v -4.431009E-07 15.94798 -9.217
v -4.431009E-07 15.94798 -9.217
v -4 15.94798 -9.216999
v -4 15.94798 -9.216999
v -4.431009E-07 4.051981 -9.217001
v -4.431009E-07 4.051981 -9.217001
v -4 4.051981 -9.217
v -4 4.051981 -9.217
v -3.513098E-07 15.79498 -8.447
v -3.513098E-07 15.79498 -8.447
v -4 15.79498 -8.447
v -4 15.79498 -8.447
v -3.513098E-07 4.204981 -8.447001
v -3.513098E-07 4.204981 -8.447001
v -4 4.204981 -8.447001
v -4 4.204981 -8.447001
v -4 33.99998 -7.719998
v -4 33.99998 -7.719998
v -4 33.99998 -7.719998
v -9 33.99998 -7.719997
v -9 33.99998 -7.719997
v -9 33.99998 -7.719997
v -9 33.99998 -7.719997
v -9.783 33.94798 -7.719997
v -9.783 33.94798 -7.719997
v -10.553 33.79498 -7.719997
v -10.553 33.79498 -7.719997
v -11.296 33.54298 -7.719997
v -11.296 33.54298 -7.719997
v -12 33.19598 -7.719997
v -12 33.19598 -7.719997
v -12.653 32.75998 -7.719997
v -12.653 32.75998 -7.719997
v -13.243 32.24298 -7.719997
v -13.243 32.24298 -7.719997
v -13.76 31.65298 -7.719997
v -13.76 31.65298 -7.719997
v -13.76 31.65298 -7.719997
v -6 30.99998 -7.719998
v -6 30.99998 -7.719998
v -9 30.99998 -7.719997
v -9 30.99998 -7.719997
v -9 30.99998 -7.719997
v -9 30.99998 -7.719997
v -9 30.99998 -7.719997
v -14.196 30.99998 -7.719997
v -14.196 30.99998 -7.719997
v -8.608 30.97398 -7.719998
v -9.391 30.97398 -7.719997
v -9.391 30.97398 -7.719997
v -8.224 30.89798 -7.719998
v -9.776 30.89798 -7.719997
v -9.776 30.89798 -7.719997
v -7.852 30.77198 -7.719998
v -7.852 30.77198 -7.719998
v -10.148 30.77198 -7.719997
v -10.148 30.77198 -7.719997
v -7.5 30.59798 -7.719998
v -10.5 30.59798 -7.719997
v -10.5 30.59798 -7.719997
v -7.174 30.37998 -7.719998
v -10.826 30.37998 -7.719997
v -10.826 30.37998 -7.719997
v -14.543 30.29598 -7.719997
v -14.543 30.29598 -7.719997
v -6.879 30.12098 -7.719998
v -6.879 30.12098 -7.719998
v -6.879 30.12098 -7.719998
v -11.121 30.12098 -7.719997
v -11.121 30.12098 -7.719997
v -6.62 29.82598 -7.719998
v -11.38 29.82598 -7.719997
v -11.38 29.82598 -7.719997
v -11.38 29.82598 -7.719997
v -14.795 29.55298 -7.719997
v -14.795 29.55298 -7.719997
v -6.402 29.49998 -7.719998
v -11.598 29.49998 -7.719997
v -11.598 29.49998 -7.719997
v -6.228 29.14798 -7.719998
v -6.228 29.14798 -7.719998
v -11.772 29.14798 -7.719997
v -11.772 29.14798 -7.719997
v -14.948 28.78298 -7.719997
v -14.948 28.78298 -7.719997
v -6.102 28.77598 -7.719998
v -11.898 28.77598 -7.719997
v -11.898 28.77598 -7.719997
v -6.026 28.39198 -7.719998
v -11.974 28.39198 -7.719997
v -11.974 28.39198 -7.719997
v -6 27.99998 -7.719998
v -6 27.99998 -7.719998
v -6 27.99998 -7.719998
v -6 27.99998 -7.719998
v -12 27.99998 -7.719997
v -12 27.99998 -7.719997
v -12 27.99998 -7.719997
v -12 27.99998 -7.719997
v -12 27.99998 -7.719997
v -15 27.99998 -7.719997
v -15 27.99998 -7.719997
v -15 27.99998 -7.719997
v -15 27.99998 -7.719997
v -6.026 27.60898 -7.719998
v -11.974 27.60898 -7.719997
v -6.102 27.22398 -7.719998
v -11.898 27.22398 -7.719997
v -6.228 26.85198 -7.719998
v -6.228 26.85198 -7.719998
v -11.772 26.85198 -7.719997
v -11.772 26.85198 -7.719997
v -6.402 26.49998 -7.719998
v -11.598 26.49998 -7.719998
v -6.62 26.17398 -7.719998
v -11.38 26.17398 -7.719998
v -6.879 25.87898 -7.719998
v -6.879 25.87898 -7.719998
v -6.879 25.87898 -7.719998
v -11.121 25.87898 -7.719998
v -11.121 25.87898 -7.719998
v -14.54 25.69998 -7.719997
v -14.54 25.69998 -7.719997
v -7.174 25.61998 -7.719998
v -10.826 25.61998 -7.719998
v -10.826 25.61998 -7.719998
v -7.5 25.40198 -7.719998
v -10.5 25.40198 -7.719998
v -7.852 25.22798 -7.719998
v -7.852 25.22798 -7.719998
v -10.148 25.22798 -7.719998
v -10.148 25.22798 -7.719998
v -8.224 25.10198 -7.719998
v -9.776 25.10198 -7.719998
v -8.608 25.02598 -7.719998
v -9.391 25.02598 -7.719998
v -6 24.99998 -7.719998
v -6 24.99998 -7.719998
v -9 24.99998 -7.719998
v -9 24.99998 -7.719998
v -9 24.99998 -7.719998
v -9 24.99998 -7.719998
v -9 24.99998 -7.719998
v -12 24.99998 -7.719998
v -12 24.99998 -7.719998
v -4 24.44998 -7.719999
v -4 24.44998 -7.719999
v -4 24.44998 -7.719999
v -4 24.44998 -7.719999
v -13.71 24.44998 -7.719997
v -13.71 24.44998 -7.719997
v -13.71 24.44998 -7.719997
v -4 35.54298 -7.703998
v -4 35.54298 -7.703998
v -4 35.54298 -7.703998
v -4.509 35.54298 -7.703998
v -4.509 35.54298 -7.703998
v -4.509 35.54298 -7.703998
v -2.627373E-07 24.45698 -7.703999
v -2.627373E-07 24.45698 -7.703999
v -2.627373E-07 24.45698 -7.703999
v -2.627373E-07 15.54298 -7.704
v -2.627373E-07 15.54298 -7.704
v -4 15.54298 -7.704
v -4 15.54298 -7.704
v -2.627373E-07 4.45698 -7.704001
v -2.627373E-07 4.45698 -7.704001
v -4 4.45698 -7.704
v -4 4.45698 -7.704
v -4 35.19398 -7.180998
v -4 35.19398 -7.180998
v -4 35.19398 -7.180998
v -4 35.19398 -7.180998
v -1.788139E-07 15.19598 -7
v -1.788139E-07 15.19598 -7
v -4 15.19598 -7
v -4 15.19598 -7
v -1.788139E-07 4.80398 -7.000001
v -1.788139E-07 4.80398 -7.000001
v -4 4.80398 -7
v -4 4.80398 -7
v -1.009703E-07 14.75998 -6.347
v -1.009703E-07 14.75998 -6.347
v -4 14.75998 -6.347
v -4 14.75998 -6.347
v -1.009703E-07 5.23998 -6.347001
v -1.009703E-07 5.23998 -6.347001
v -4 5.23998 -6.347001
v -4 5.23998 -6.347001
v -2.7 34.29998 -5.842998
v -2.7 34.29998 -5.842998
v -2.66 34.24298 -5.756998
v -2.66 34.24298 -5.756998
v -2.66 34.24298 -5.756998
v -4 34.24298 -5.756998
v -4 34.24298 -5.756998
v -4 34.24298 -5.756998
v -3.063678E-08 25.75698 -5.756999
v -3.063678E-08 25.75698 -5.756999
v -3.063678E-08 25.75698 -5.756999
v -4 25.75698 -5.756999
v -4 25.75698 -5.756999
v -4 25.75698 -5.756999
v -3.063678E-08 14.24298 -5.757
v -3.063678E-08 14.24298 -5.757
v -3.063678E-08 14.24298 -5.757
v -4 14.24298 -5.756999
v -4 14.24298 -5.756999
v -4 14.24298 -5.756999
v -3.063678E-08 5.75698 -5.757001
v -3.063678E-08 5.75698 -5.757001
v -3.063678E-08 5.75698 -5.757001
v -4 5.75698 -5.757
v -4 5.75698 -5.757
v -4 5.75698 -5.757
v 3.099439E-08 13.65298 -5.240001
v 3.099439E-08 13.65298 -5.240001
v -4 13.65298 -5.24
v -4 13.65298 -5.24
v 3.099439E-08 6.34698 -5.240001
v 3.099439E-08 6.34698 -5.240001
v -4 6.34698 -5.240001
v -4 6.34698 -5.240001
v 8.296962E-08 12.99998 -4.804001
v 8.296962E-08 12.99998 -4.804001
v -4 12.99998 -4.804
v -4 12.99998 -4.804
v 8.296962E-08 6.99998 -4.804001
v 8.296962E-08 6.99998 -4.804001
v -4 6.99998 -4.804001
v -4 6.99998 -4.804001
v -1.322 32.29598 -4.456999
v -1.322 32.29598 -4.456999
v -4 32.29598 -4.456998
v -4 32.29598 -4.456998
v 1.243353E-07 27.70398 -4.456999
v 1.243353E-07 27.70398 -4.456999
v -4 27.70398 -4.456999
v -4 27.70398 -4.456999
v 1.243353E-07 12.29598 -4.457001
v 1.243353E-07 12.29598 -4.457001
v -4 12.29598 -4.457
v -4 12.29598 -4.457
v 1.243353E-07 7.70398 -4.457001
v 1.243353E-07 7.70398 -4.457001
v -4 7.70398 -4.457001
v -4 7.70398 -4.457001
v 1.313686E-07 27.99998 -4.397999
v 1.313686E-07 27.99998 -4.397999
v -0.7200001 31.41998 -4.281999
v -0.7200001 31.41998 -4.281999
v 1.54376E-07 11.55298 -4.205
v 1.54376E-07 11.55298 -4.205
v -4 11.55298 -4.205
v -4 11.55298 -4.205
v 1.54376E-07 8.44698 -4.205001
v 1.54376E-07 8.44698 -4.205001
v -4 8.44698 -4.205
v -4 8.44698 -4.205
v 1.72615E-07 10.78298 -4.052001
v 1.72615E-07 10.78298 -4.052001
v -4 10.78298 -4.052
v -4 10.78298 -4.052
v 1.72615E-07 9.21698 -4.052001
v 1.72615E-07 9.21698 -4.052001
v -4 9.21698 -4.052001
v -4 9.21698 -4.052001
v -0.4210003 29.99998 -3.999999
v -0.4210003 29.99998 -3.999999
v -4 29.99998 -3.999999
v -4 29.99998 -3.999999
v -4 19.99998 -3.999999
v -4 19.99998 -3.999999
v -4 19.99998 -3.999999
v -12 19.99998 -3.999998
v -12 19.99998 -3.999998
v -12 19.99998 -3.999998
v 1.788139E-07 15.99998 -4
v -4 15.99998 -4
v -4 15.99998 -4
v 1.788139E-07 9.99998 -4
v 1.788139E-07 9.99998 -4
v 1.788139E-07 9.99998 -4
v -4 9.99998 -4
v -4 9.99998 -4
v -4 9.99998 -4
v -4 9.99998 -4
v 1.788139E-07 3.99998 -4.000001
v -4 3.99998 -4.000001
v -4 3.99998 -4.000001
v -4 3.99998 -4.000001
v -4 3.99998 -4.000001
v -12 3.99998 -4
v -12 3.99998 -4
v -12 3.99998 -4
v -12 3.99998 -4
v -16 3.99998 -3.999999
v -16 3.99998 -3.999999
v -16 3.99998 -3.999999
v -4 -1.965031E-05 -4.000001
v -4 -1.965031E-05 -4.000001
v -4 -1.965031E-05 -4.000001
v -16 -1.965031E-05 -4
v -16 -1.965031E-05 -4
v -16 -1.965031E-05 -4
v -8.999999 36.99998 -1.999997
v -8.999999 36.99998 -1.999997
v -8.999999 36.99998 -1.999997
v -5.579999 36.27998 -1.999998
v -5.579999 36.27998 -1.999998
v -12.42 36.27998 -1.999997
v -12.42 36.27998 -1.999997
v -2.7 34.29998 -1.999998
v -2.7 34.29998 -1.999998
v -15.3 34.29998 -1.999997
v -15.3 34.29998 -1.999997
v -0.7199998 31.41998 -1.999999
v -0.7199998 31.41998 -1.999999
v -17.28 31.41998 -1.999997
v -17.28 31.41998 -1.999997
v -8.999999 30.99998 -1.999998
v -8.999999 30.99998 -1.999998
v -8.999999 30.99998 -1.999998
v -8.607999 30.97398 -1.999998
v -9.390999 30.97398 -1.999998
v -8.223999 30.89798 -1.999998
v -9.775999 30.89798 -1.999998
v -7.851999 30.77198 -1.999998
v -7.851999 30.77198 -1.999998
v -10.148 30.77198 -1.999998
v -10.148 30.77198 -1.999998
v -7.499999 30.59798 -1.999998
v -10.5 30.59798 -1.999998
v -7.173999 30.37998 -1.999998
v -10.826 30.37998 -1.999998
v -6.878999 30.12098 -1.999998
v -6.878999 30.12098 -1.999998
v -6.878999 30.12098 -1.999998
v -11.121 30.12098 -1.999998
v -11.121 30.12098 -1.999998
v -6.619999 29.82598 -1.999998
v -11.38 29.82598 -1.999998
v -11.38 29.82598 -1.999998
v -6.401999 29.49998 -1.999998
v -11.598 29.49998 -1.999998
v -6.227999 29.14798 -1.999998
v -6.227999 29.14798 -1.999998
v -11.772 29.14798 -1.999998
v -11.772 29.14798 -1.999998
v -6.101999 28.77598 -1.999998
v -11.898 28.77598 -1.999998
v -6.025999 28.39198 -1.999998
v -11.974 28.39198 -1.999998
v 4.172325E-07 27.99998 -1.999999
v 4.172325E-07 27.99998 -1.999999
v -5.999999 27.99998 -1.999999
v -5.999999 27.99998 -1.999999
v -5.999999 27.99998 -1.999999
v -12 27.99998 -1.999998
v -12 27.99998 -1.999998
v -12 27.99998 -1.999998
v -18 27.99998 -1.999997
v -18 27.99998 -1.999997
v -6.025999 27.60898 -1.999999
v -11.974 27.60898 -1.999998
v -6.101999 27.22398 -1.999999
v -11.898 27.22398 -1.999998
v -6.227999 26.85198 -1.999999
v -6.227999 26.85198 -1.999999
v -11.772 26.85198 -1.999998
v -11.772 26.85198 -1.999998
v -6.401999 26.49998 -1.999999
v -11.598 26.49998 -1.999998
v -6.619999 26.17398 -1.999999
v -11.38 26.17398 -1.999998
v -6.878999 25.87898 -1.999999
v -6.878999 25.87898 -1.999999
v -6.878999 25.87898 -1.999999
v -11.121 25.87898 -1.999998
v -11.121 25.87898 -1.999998
v -7.173999 25.61998 -1.999999
v -10.826 25.61998 -1.999998
v -10.826 25.61998 -1.999998
v -7.499999 25.40198 -1.999999
v -10.5 25.40198 -1.999998
v -7.851999 25.22798 -1.999999
v -7.851999 25.22798 -1.999999
v -10.148 25.22798 -1.999998
v -10.148 25.22798 -1.999998
v -8.223999 25.10198 -1.999999
v -9.775999 25.10198 -1.999998
v -8.607999 25.02598 -1.999998
v -9.390999 25.02598 -1.999998
v -8.999999 24.99998 -1.999998
v -8.999999 24.99998 -1.999998
v -8.999999 24.99998 -1.999998
v -17.28 24.57998 -1.999997
v -17.28 24.57998 -1.999997
v 4.172325E-07 23.89998 -2
v 4.172325E-07 23.89998 -2
v 4.172325E-07 23.89998 -2
v -15 21.25998 -1.999998
v -15 21.25998 -1.999998
v -15 21.25998 -1.999998
v -2 20.99998 -2
v -2 20.99998 -2
v -2 20.99998 -2
v -15 20.29998 -1.999998
v -15 20.29998 -1.999998
v -15 20.29998 -1.999998
v -5.199999 18.79998 -1.999999
v -5.199999 18.79998 -1.999999
v -12.8 18.79998 -1.999999
v -12.8 18.79998 -1.999999
v -8.999999 17.99998 -1.999999
v -8.999999 17.99998 -1.999999
v 4.768372E-07 23.89998 -1.5
v 4.768372E-07 23.89998 -1.5
v 4.768372E-07 23.89998 -1.5
v -1.999999 20.99998 -1.5
v -1.999999 20.99998 -1.5
v -1.999999 20.99998 -1.5
v -15 20.29998 -1.499998
v -15 20.29998 -1.499998
v -15 20.29998 -1.499998
v -5.199999 18.79998 -1.5
v -5.199999 18.79998 -1.5
v -12.8 18.79998 -1.499999
v -12.8 18.79998 -1.499999
v -8.999999 17.99998 -1.499999
v -8.999999 17.99998 -1.499999
v -15 7.99998 -1.499999
v -15 7.99998 -1.499999
v -15 7.99998 -1.499999
v -20 7.99998 -1.499999
v -20 7.99998 -1.499999
v -20 7.99998 -1.499999
v 4.768372E-07 -1.986887E-05 -1.500002
v 4.768372E-07 -1.986887E-05 -1.500002
v 4.768372E-07 -1.986887E-05 -1.500002
v -20 -1.986887E-05 -1.499999
v -20 -1.986887E-05 -1.499999
v -20 -1.986887E-05 -1.499999
vn 0 -1 -8.742278E-08
vn 0.0002754902 0.04048414 -0.9991801
vn 0.9999999 1.042161E-14 -1.192093E-07
vn 0 -1 -8.742278E-08
vn -1.19114E-07 0.0399682 -0.9992008
vn -0.9999999 -1.042161E-14 1.192093E-07
vn 0.0002843973 0.04050902 -0.999179
vn 0 1 8.742278E-08
vn -0.9999999 -1.042161E-14 1.192093E-07
vn -1.19114E-07 0.03996821 -0.9992009
vn 0 1 8.742278E-08
vn -0.9999999 -1.042161E-14 1.192093E-07
vn -0.9999999 -1.042161E-14 1.192093E-07
vn 0.0002004958 0.04099834 -0.9991592
vn -0.8243315 -0.5661072 4.877732E-08
vn -0.9999999 -1.042161E-14 1.192093E-07
vn -0.0002117949 0.04141321 -0.999142
vn -0.9389002 -0.3441891 8.183567E-08
vn 0.0003278778 0.04063715 -0.9991739
vn 0.9998538 0.01709287 -1.20711E-06
vn -3.768249E-05 0.04028435 -0.9991882
vn -1.191165E-07 0.03944305 -0.9992219
vn -0.9999999 -8.522386E-09 1.192093E-07
vn -0.0005860411 0.0394007 -0.9992232
vn 0.8947477 0.446572 -7.797103E-05
vn 0.0005858028 0.0394007 -0.9992232
vn -0.919448 0.3932115 1.439824E-07
vn -0.0007344138 0.04038455 -0.9991839
vn 0.669322 0.7429724 -8.107241E-05
vn 0.0007341756 0.04038455 -0.9991839
vn -0.6623504 0.7491941 1.44455E-07
vn -0.0003223002 0.0399564 -0.9992013
vn 0.3586962 0.9334544 6.010567E-06
vn 0.0003220606 0.0399564 -0.9992013
vn -0.3319845 0.9432848 1.220402E-07
vn -1.205652E-07 0.03996809 -0.9992009
vn -0.2060108 0.9785497 1.101059E-07
vn 0.2060108 0.9785497 6.098913E-08
vn 0.9785497 0.2060102 -1.045592E-05
vn 9.003379E-06 0.1041332 0.9945633
vn 0.9999999 1.042161E-14 -1.192093E-07
vn 7.057557E-05 -0.04185568 0.9991236
vn 0 -1 -8.742278E-08
vn 1.192093E-07 -8.742277E-08 0.9999999
vn -0.9999999 -1.042161E-14 1.192093E-07
vn 1.192093E-07 -8.742277E-08 0.9999999
vn 0.9999999 1.042161E-14 -1.192093E-07
vn 0 -1 -8.742278E-08
vn 0.9999999 1.042161E-14 -1.192093E-07
vn -0.9999999 -1.042161E-14 1.192093E-07
vn -0.9999999 -1.042161E-14 1.192093E-07
vn 1.189473E-07 -0.06626542 0.997802
vn 1.189473E-07 0.06626524 0.997802
vn 0.9999999 1.042161E-14 -1.192093E-07
vn -0.9999999 -1.042161E-14 1.192093E-07
vn -0.9999999 -1.042161E-14 1.192093E-07
vn 1.189473E-07 -0.06626542 0.997802
vn 1.189473E-07 0.06626524 0.997802
vn 0.9999999 1.042161E-14 -1.192093E-07
vn 1.192093E-07 -8.742277E-08 0.9999999
vn 1.192093E-07 -8.742277E-08 0.9999999
vn -0.9999999 -1.042161E-14 1.192093E-07
vn -0.9999999 -1.042161E-14 1.192093E-07
vn 0 -1 -8.742278E-08
vn 1.192093E-07 -8.742277E-08 0.9999999
vn 0.9999999 1.042161E-14 -1.192093E-07
vn 1.192093E-07 -8.742277E-08 0.9999999
vn 0 -1 -8.742278E-08
vn 0.9999999 1.042161E-14 -1.192093E-07
vn 1.192093E-07 -8.742277E-08 0.9999999
vn 1.192093E-07 -8.742277E-08 0.9999999
vn 0 -1 -8.742278E-08
vn -0.9999999 -1.042161E-14 1.192093E-07
vn 0.9999999 1.042161E-14 -1.192093E-07
vn 1.192093E-07 -8.742277E-08 0.9999999
vn 0 -1 -8.742278E-08
vn 1.184943E-07 -0.1093574 0.9940025
vn 0.9999999 1.042161E-14 -1.192093E-07
vn -0.9999999 -1.042161E-14 1.192093E-07
vn 1.178184E-07 -0.152313 0.9883323
vn 1.178184E-07 0.1523127 0.9883323
vn 0.9999999 1.042161E-14 -1.192093E-07
vn -0.9999999 -1.042161E-14 1.192093E-07
vn 1.184943E-07 0.1093572 0.9940024
vn 1.158006E-07 -0.2374265 0.9714054
vn 0.9999999 1.042161E-14 -1.192093E-07
vn -0.9999999 -1.042161E-14 1.192093E-07
vn 1.144546E-07 -0.2796081 0.9601143
vn 1.144546E-07 0.279608 0.9601143
vn 0.9999999 1.042161E-14 -1.192093E-07
vn -0.9999999 -1.042161E-14 1.192093E-07
vn 1.158006E-07 0.2374262 0.9714055
vn 0.9308892 0.3653014 -7.903499E-08
vn 9.642544E-05 -0.1951765 0.9807681
vn 0.9836014 0.1803556 -1.014872E-07
vn 2.02819E-05 0.1952159 0.9807602
vn 0.8241529 0.5663672 1.418729E-06
vn 1.056564E-07 -0.4630918 0.8863103
vn 0.9999999 1.042161E-14 -1.192093E-07
vn 7.699808E-05 -0.3763973 0.9264584
vn 0.9999999 1.042161E-14 -1.192093E-07
vn -0.000154372 0.5348881 0.8449228
vn 0.9999999 1.042161E-14 -1.192093E-07
vn 7.446773E-06 0.3180586 0.9480711
vn 1.11115E-07 -0.3621999 0.9321004
vn 0.9999999 1.042161E-14 -1.192093E-07
vn -0.9999999 -1.042161E-14 1.192093E-07
vn 1.091223E-07 -0.4025815 0.915384
vn 1.091223E-07 0.4025816 0.9153841
vn 0.9999999 1.042161E-14 -1.192093E-07
vn -0.9999999 -1.042161E-14 1.192093E-07
vn 1.11115E-07 0.3621999 0.9321004
vn 1.04529E-07 -0.4807585 0.8768529
vn 0.9999999 1.042161E-14 -1.192093E-07
vn -0.9999999 -1.042161E-14 1.192093E-07
vn 1.019291E-07 -0.5185564 0.8550434
vn 1.019291E-07 0.5185562 0.8550435
vn 0.9999999 1.042161E-14 -1.192093E-07
vn -0.9999999 -1.042161E-14 1.192093E-07
vn 1.04529E-07 0.4807585 0.876853
vn 9.61648E-08 -0.5909765 0.8066887
vn 0.9999999 1.042161E-14 -1.192093E-07
vn -0.9999999 -1.042161E-14 1.192093E-07
vn 9.299765E-08 -0.6256289 0.7801207
vn 9.299765E-08 0.6256289 0.7801208
vn 0.9999999 1.042161E-14 -1.192093E-07
vn -0.9999999 -1.042161E-14 1.192093E-07
vn 9.616481E-08 0.5909763 0.8066889
vn 0.9999999 1.042161E-14 -1.192093E-07
vn 0 -1 -8.742278E-08
vn 1.192093E-07 -8.742276E-08 0.9999999
vn 1.192093E-07 -8.742277E-08 0.9999999
vn 0 -1 -8.742278E-08
vn 1.192093E-07 -8.742277E-08 0.9999999
vn 0.06626774 -0.9978019 -9.513035E-08
vn 1.192093E-07 -8.742277E-08 0.9999999
vn 1.192093E-07 -8.742277E-08 0.9999999
vn 0.1523136 -0.9883322 -1.0456E-07
vn 1.192093E-07 -8.742277E-08 0.9999999
vn 1.192093E-07 -8.742277E-08 0.9999999
vn 0.2796068 -0.9601146 -1.172676E-07
vn 1.192093E-07 -8.742277E-08 0.9999999
vn 0.4025814 -0.9153842 -1.280169E-07
vn 1.192093E-07 -8.742277E-08 0.9999999
vn 0.5185568 -0.8550432 -1.365671E-07
vn 1.192093E-07 -8.742277E-08 0.9999999
vn 0.6256281 -0.7801214 -1.427811E-07
vn 1.192093E-07 -8.742277E-08 0.9999999
vn 0.7224751 -0.691397 -1.465696E-07
vn 1.192093E-07 -8.742277E-08 0.9999999
vn 0.8316581 -0.555288 -1.476862E-07
vn 0.7521027 -0.6590458 -1.472733E-07
vn 1.192093E-07 -8.742277E-08 0.9999999
vn 0.8768531 -0.4807584 -1.465583E-07
vn 1.192093E-07 -8.742277E-08 0.9999999
vn 0.9321004 -0.3621998 -1.427796E-07
vn 1.192093E-07 -8.742277E-08 0.9999999
vn 0.9714056 -0.2374263 -1.36557E-07
vn 1.192093E-07 -8.742277E-08 0.9999999
vn 0.9940025 -0.1093573 -1.280547E-07
vn 1.192093E-07 -8.742277E-08 0.9999999
vn 1.192093E-07 -8.742277E-08 0.9999999
vn 1.192093E-07 -8.742277E-08 0.9999999
vn 0.9978019 -0.0662654 -1.247404E-07
vn 1.192093E-07 -8.742277E-08 0.9999999
vn 0.9805806 0.1961161 -8.620501E-08
vn 0.9999999 1.042161E-14 -1.192093E-07
vn -0.0001488783 0.5556399 0.831423
vn 1.192093E-07 -8.742277E-08 0.9999999
vn 0.9804117 0.196959 2.641513E-05
vn 0.0001663356 0.5729142 0.8196153
vn 1.192093E-07 -8.742277E-08 0.9999999
vn 0.8239891 0.5666056 -0.0001242214
vn 6.585793E-08 -0.8335419 0.5524562
vn 9.914113E-08 -0.5552911 0.831656
vn 0.9999999 1.042161E-14 -1.192093E-07
vn -0.0002617969 -0.8317145 0.5552034
vn 9.914113E-08 -0.5552911 0.831656
vn 0.9999999 1.042161E-14 -1.192093E-07
vn 0.0001568828 0.8312094 0.5559596
vn -0.0001634348 0.5608923 0.8278887
vn 8.965765E-08 -0.6590459 0.7521027
vn 7.856434E-08 -0.7521032 0.6590453
vn 0.9999999 1.042161E-14 -1.192093E-07
vn -0.9999999 -1.042161E-14 1.192093E-07
vn 8.965765E-08 -0.6590459 0.7521027
vn 7.856434E-08 -0.7521032 0.6590453
vn 7.856442E-08 0.7521025 0.6590461
vn 8.965761E-08 0.6590461 0.7521026
vn 0.9999999 1.042161E-14 -1.192093E-07
vn -0.9999999 -1.042161E-14 1.192093E-07
vn 7.856442E-08 0.7521025 0.6590461
vn 8.965761E-08 0.6590461 0.7521026
vn 0.00028613 0.8307873 0.5565898
vn 0.853719 0.5207223 0.003482621
vn 0.0002877207 0.5812802 0.8137033
vn 0.5787602 0.8154978 2.299478E-09
vn -0.0002617969 -0.8317145 0.5552034
vn 7.458073E-08 -0.7801212 0.6256284
vn 0.9999999 1.042161E-14 -1.192093E-07
vn -0.9999999 -1.042161E-14 1.192093E-07
vn 7.044984E-08 -0.8066892 0.5909759
vn 7.044986E-08 0.8066889 0.5909764
vn 0.9999999 1.042161E-14 -1.192093E-07
vn -0.9999999 -1.042161E-14 1.192093E-07
vn 7.458079E-08 0.7801207 0.6256291
vn 6.181672E-08 -0.8550436 0.5185561
vn 0.9999999 1.042161E-14 -1.192093E-07
vn -0.9999999 -1.042161E-14 1.192093E-07
vn 5.731092E-08 -0.8768529 0.4807587
vn 5.731092E-08 0.8768528 0.4807589
vn 0.9999999 1.042161E-14 -1.192093E-07
vn -0.9999999 -1.042161E-14 1.192093E-07
vn 6.181672E-08 0.8550435 0.5185563
vn 0.9999999 1.042161E-14 -1.192093E-07
vn 0.5664333 0.8241076 2.191695E-05
vn -6.616904E-08 0.8318064 -0.555066
vn -0.0002780603 -0.8316008 0.5553738
vn 0.0001597449 0.8951968 0.4456709
vn 0.8344297 0.5511085 0.00251854
vn 0.9999999 1.042161E-14 -1.192093E-07
vn -2.327117E-08 0.9807609 -0.1952126
vn -6.616904E-08 0.8318064 -0.555066
vn -2.327117E-08 0.9807609 -0.1952126
vn 0.5664958 0.8240646 0.0001078398
vn -6.616904E-08 0.8318064 -0.555066
vn 0.9999999 1.042161E-14 -1.192093E-07
vn 6.070442E-05 0.9467878 0.3218583
vn 4.799153E-08 -0.915384 0.402582
vn 0.9999999 1.042161E-14 -1.192093E-07
vn -0.9999999 -1.042161E-14 1.192093E-07
vn 4.317765E-08 -0.9321003 0.3622003
vn 4.317757E-08 0.9321004 0.3621998
vn 0.9999999 1.042161E-14 -1.192093E-07
vn -0.9999999 -1.042161E-14 1.192093E-07
vn 4.799148E-08 0.9153839 0.4025818
vn 3.333191E-08 -0.9601141 0.2796082
vn 0.9999999 1.042161E-14 -1.192093E-07
vn -0.9999999 -1.042161E-14 1.192093E-07
vn 2.830345E-08 -0.9714056 0.2374265
vn 2.83034E-08 0.9714056 0.2374262
vn 0.9999999 1.042161E-14 -1.192093E-07
vn -0.9999999 -1.042161E-14 1.192093E-07
vn 3.333182E-08 0.9601144 0.2796077
vn 1.815711E-08 -0.9883323 0.1523128
vn 0.9999999 1.042161E-14 -1.192093E-07
vn -0.9999999 -1.042161E-14 1.192093E-07
vn 1.30364E-08 -0.9940025 0.1093572
vn 1.30364E-08 0.9940025 0.1093574
vn 0.9999999 1.042161E-14 -1.192093E-07
vn -0.9999999 -1.042161E-14 1.192093E-07
vn 1.815711E-08 0.9883323 0.1523129
vn 0.9999999 1.042161E-14 -1.192093E-07
vn 4.227597E-09 0.9993709 0.03546374
vn -4.227597E-09 0.9993709 -0.03546356
vn 0.5668776 0.8238021 5.086806E-09
vn 0.9999999 1.042161E-14 -1.192093E-07
vn -0.0001242144 0.9996976 -0.02459016
vn 4.40049E-05 0.9998443 0.01765093
vn 0.8264056 0.5630739 0.001229398
vn -7.899443E-09 -0.9978021 -0.06626541
vn 7.899443E-09 -0.9978021 0.06626524
vn 0.9999999 1.042161E-14 -1.192093E-07
vn -0.9999999 -1.042161E-14 1.192093E-07
vn -0.9999999 -1.042161E-14 1.192093E-07
vn -0.9999999 -1.042161E-14 1.192093E-07
vn -7.899443E-09 -0.9978021 -0.06626541
vn 7.899443E-09 -0.9978021 0.06626524
vn -7.899443E-09 0.9978021 -0.06626524
vn 7.899443E-09 0.9978021 0.06626541
vn 0.9999999 1.042161E-14 -1.192093E-07
vn -0.9999999 -1.042161E-14 1.192093E-07
vn -0.9999999 -1.042161E-14 1.192093E-07
vn -7.899443E-09 0.9978021 -0.06626524
vn 7.899443E-09 0.9978021 0.06626541
vn -0.9999999 -1.042161E-14 1.192093E-07
vn -1.30364E-08 -0.9940025 -0.1093574
vn 0.9999999 1.042161E-14 -1.192093E-07
vn -0.9999999 -1.042161E-14 1.192093E-07
vn -1.815711E-08 -0.9883323 -0.1523129
vn -1.815711E-08 0.9883323 -0.1523128
vn 0.9999999 1.042161E-14 -1.192093E-07
vn -0.9999999 -1.042161E-14 1.192093E-07
vn -1.30364E-08 0.9940025 -0.1093572
vn -2.830345E-08 -0.9714056 -0.2374266
vn 0.9999999 1.042161E-14 -1.192093E-07
vn -0.9999999 -1.042161E-14 1.192093E-07
vn -3.333191E-08 -0.9601141 -0.2796084
vn -3.333182E-08 0.9601144 -0.2796075
vn 0.9999999 1.042161E-14 -1.192093E-07
vn -0.9999999 -1.042161E-14 1.192093E-07
vn -2.83034E-08 0.9714056 -0.2374261
vn 0.9999999 1.042161E-14 -1.192093E-07
vn -1.192093E-07 8.742277E-08 -0.9999999
vn 0 -1 -8.742278E-08
vn -1.192093E-07 8.742276E-08 -0.9999999
vn -1.192093E-07 8.742277E-08 -0.9999999
vn 0 -1 -8.742278E-08
vn 0.06626774 -0.9978019 -9.513035E-08
vn -1.192093E-07 8.742277E-08 -0.9999999
vn 0.1093589 -0.9940023 -9.993504E-08
vn -1.192093E-07 8.742277E-08 -0.9999999
vn 0.2374258 -0.9714056 -1.132263E-07
vn -1.192093E-07 8.742277E-08 -0.9999999
vn 0.3621989 -0.9321008 -1.246643E-07
vn -1.192093E-07 8.742277E-08 -0.9999999
vn 0.4807591 -0.8768527 -1.339678E-07
vn -1.192093E-07 8.742277E-08 -0.9999999
vn 0.5909762 -0.806689 -1.409729E-07
vn -1.192093E-07 8.742277E-08 -0.9999999
vn 0.6913957 -0.7224761 -1.455817E-07
vn -1.192093E-07 8.742277E-08 -0.9999999
vn 0.8316581 -0.555288 -1.476862E-07
vn 0.7521027 -0.6590458 -1.472733E-07
vn -1.192093E-07 8.742277E-08 -0.9999999
vn -1.192093E-07 8.742277E-08 -0.9999999
vn -1.192093E-07 8.742277E-08 -0.9999999
vn -1.192093E-07 8.742277E-08 -0.9999999
vn -1.192093E-07 8.742277E-08 -0.9999999
vn -0.0661836 -0.9978075 -7.93414E-08
vn 0.06635211 -0.9977963 -9.513991E-08
vn -1.192093E-07 8.742277E-08 -0.9999999
vn 0.8550436 -0.5185561 -1.472628E-07
vn -0.1089387 -0.9940485 -7.391598E-08
vn -1.192093E-07 8.742277E-08 -0.9999999
vn 0.1515465 -0.9884502 -1.044788E-07
vn -0.2369168 -0.97153 -5.669116E-08
vn -1.192093E-07 8.742277E-08 -0.9999999
vn 0.2789866 -0.9602949 -1.172094E-07
vn -1.192093E-07 8.742277E-08 -0.9999999
vn -0.362281 -0.9320689 -3.829678E-08
vn -1.192093E-07 8.742277E-08 -0.9999999
vn 0.4031369 -0.9151397 -1.280617E-07
vn -0.4815921 -0.8763955 -1.920667E-08
vn -1.192093E-07 8.742277E-08 -0.9999999
vn 0.519245 -0.8546253 -1.366126E-07
vn -0.5916598 -0.8061877 5.218341E-11
vn -1.192093E-07 8.742276E-08 -0.9999999
vn 0.6263552 -0.7795378 -1.428167E-07
vn -1.192093E-07 8.742277E-08 -0.9999999
vn 0.9153842 -0.4025815 -1.443171E-07
vn -1.192093E-07 8.742276E-08 -0.9999999
vn -0.6597674 -0.7514699 1.295483E-08
vn -0.7514709 -0.6597661 3.190374E-08
vn -1.192093E-07 8.742277E-08 -0.9999999
vn 0.722254 -0.6916278 -1.465634E-07
vn -0.779538 -0.6263549 3.817049E-08
vn -1.192093E-07 8.742277E-08 -0.9999999
vn 0.8312636 -0.5558784 -1.476908E-07
vn 0.7514709 -0.6597661 -1.472609E-07
vn -1.192093E-07 8.742277E-08 -0.9999999
vn 0.9601141 -0.2796079 -1.388986E-07
vn -0.8546252 -0.5192454 5.648539E-08
vn -1.192093E-07 8.742277E-08 -0.9999999
vn 0.8763956 -0.4815919 -1.465766E-07
vn -1.192093E-07 8.742277E-08 -0.9999999
vn -0.9151396 -0.4031371 7.384978E-08
vn -1.192093E-07 8.742277E-08 -0.9999999
vn 0.9320685 -0.362282 -1.427829E-07
vn -1.192093E-07 8.742277E-08 -0.9999999
vn 0.9883322 -0.1523129 -1.31134E-07
vn -0.9602283 -0.279216 9.00583E-08
vn -1.192093E-07 8.742277E-08 -0.9999999
vn 0.9715297 -0.2369175 -1.365274E-07
vn -0.9884307 -0.1516733 1.045704E-07
vn -1.192093E-07 8.742276E-08 -0.9999999
vn 0.9940487 -0.1089369 -1.280234E-07
vn -1.192093E-07 8.742277E-08 -0.9999999
vn -1.192093E-07 8.742277E-08 -0.9999999
vn -1.192093E-07 8.742277E-08 -0.9999999
vn -0.9997552 -0.02212225 1.172461E-07
vn -1.192093E-07 8.742276E-08 -0.9999999
vn -1.192093E-07 8.742277E-08 -0.9999999
vn -1.192093E-07 8.742277E-08 -0.9999999
vn 0.9978075 -0.06618115 -1.247337E-07
vn 0.9977964 0.06634957 -1.131461E-07
vn -1.192093E-07 8.742277E-08 -0.9999999
vn -1.192093E-07 8.742277E-08 -0.9999999
vn 0.9978019 -0.0662654 -1.247404E-07
vn 0.9805806 0.196116 -9.974931E-08
vn -0.9940385 0.1090289 1.280302E-07
vn 0.9884503 0.1515452 -1.04584E-07
vn -0.9716252 0.2365253 1.365045E-07
vn 0.9602947 0.2789874 -9.00862E-08
vn -1.192093E-07 8.742277E-08 -0.9999999
vn -0.9320681 0.3622827 1.42783E-07
vn -1.192093E-07 8.742277E-08 -0.9999999
vn 0.915139 0.4031382 -7.384962E-08
vn -0.8763952 0.4815925 1.465766E-07
vn 0.8546256 0.5192447 -5.64855E-08
vn -0.8061885 0.5916587 1.478296E-07
vn 0.7795386 0.6263541 -3.817064E-08
vn -1.192093E-07 8.742277E-08 -0.9999999
vn -0.6597674 0.7514699 1.44346E-07
vn -0.7514709 0.6597661 1.472609E-07
vn -1.192093E-07 8.742277E-08 -0.9999999
vn 0.6916288 0.7222531 -1.930722E-08
vn -1.192093E-07 8.742277E-08 -0.9999999
vn 0.9449399 0.3272424 0.0009873214
vn -0.6263552 0.7795376 1.428167E-07
vn 0.5558772 0.8312643 6.4057E-09
vn 0.6597672 0.75147 -1.295479E-08
vn -0.519245 0.8546253 1.366126E-07
vn 0.4815921 0.8763955 1.920667E-08
vn -1.192093E-07 8.742277E-08 -0.9999999
vn -0.4031368 0.9151397 1.280617E-07
vn -1.192093E-07 8.742277E-08 -0.9999999
vn 0.3622811 0.9320689 3.829677E-08
vn -0.2792146 0.9602288 1.172308E-07
vn 0.2365252 0.9716254 5.674619E-08
vn -0.1516726 0.9884308 1.044921E-07
vn 0.1090277 0.9940387 7.390451E-08
vn -1.192093E-07 8.742277E-08 -0.9999999
vn -1.192093E-07 8.742277E-08 -0.9999999
vn -1.192093E-07 8.742277E-08 -0.9999999
vn -1.192093E-07 8.742277E-08 -0.9999999
vn -1.192093E-07 8.742277E-08 -0.9999999
vn -0.06617875 0.9978078 9.512025E-08
vn 0.06634726 0.9977966 7.932094E-08
vn -1.192093E-07 8.742277E-08 -0.9999999
vn -1.192093E-07 8.742277E-08 -0.9999999
vn -1.192093E-07 8.742276E-08 -0.9999999
vn 0.9999999 1.042161E-14 -1.192093E-07
vn -0.000138911 0.9810278 -0.193867
vn 0.0003814251 0.8320173 -0.5547494
vn -1.192093E-07 8.742277E-08 -0.9999999
vn -2.30828E-08 0.981074 -0.1936324
vn 0.8312953 0.5558296 0.001213579
vn 0.9999999 1.042161E-14 -1.192093E-07
vn 2.327117E-08 0.9807609 0.1952128
vn 6.616904E-08 0.8318062 0.5550662
vn 2.327117E-08 0.9807609 0.1952128
vn 0.5664964 0.8240641 -0.0001082228
vn 6.616904E-08 0.8318062 0.5550662
vn 0.9999999 1.042161E-14 -1.192093E-07
vn -0.0009354895 0.9807606 -0.1952118
vn 0.0007657181 0.8316554 -0.5552915
vn -4.317765E-08 -0.9321002 -0.3622005
vn 0.9999999 1.042161E-14 -1.192093E-07
vn -0.9999999 -1.042161E-14 1.192093E-07
vn -4.799153E-08 -0.9153839 -0.4025822
vn -4.799148E-08 0.9153841 -0.4025817
vn 0.9999999 1.042161E-14 -1.192093E-07
vn -0.9999999 -1.042161E-14 1.192093E-07
vn -4.317757E-08 0.9321005 -0.3621996
vn 0.9999999 1.042161E-14 -1.192093E-07
vn 0.5664323 0.8241082 -2.225254E-05
vn -0.0002781859 -0.8316007 -0.555374
vn 6.616904E-08 0.8318062 0.5550662
vn -5.731092E-08 -0.8768528 -0.4807589
vn 0.9999999 1.042161E-14 -1.192093E-07
vn -0.9999999 -1.042161E-14 1.192093E-07
vn -6.181672E-08 -0.8550435 -0.5185563
vn -6.181672E-08 0.8550436 -0.5185561
vn 0.9999999 1.042161E-14 -1.192093E-07
vn -0.9999999 -1.042161E-14 1.192093E-07
vn -5.731092E-08 0.8768529 -0.4807587
vn -7.044983E-08 -0.8066891 -0.5909761
vn 0.9999999 1.042161E-14 -1.192093E-07
vn -0.9999999 -1.042161E-14 1.192093E-07
vn -7.458071E-08 -0.7801211 -0.6256284
vn -7.458078E-08 0.7801209 -0.6256288
vn 0.9999999 1.042161E-14 -1.192093E-07
vn -0.9999999 -1.042161E-14 1.192093E-07
vn -7.044986E-08 0.806689 -0.5909761
vn 0.5787602 0.8154978 2.299478E-09
vn -0.000261923 -0.8317144 -0.5552035
vn -9.914115E-08 -0.5552909 -0.8316563
vn 0.8239376 0.5666804 0.0001748583
vn -6.585793E-08 -0.8335418 -0.5524564
vn 0.9999999 1.042161E-14 -1.192093E-07
vn -9.914114E-08 -0.5552909 -0.8316562
vn -0.000261923 -0.8317144 -0.5552035
vn -9.914108E-08 0.5552917 -0.8316556
vn 0.9999999 1.042161E-14 -1.192093E-07
vn 0.0003814251 0.8320173 -0.5547494
vn 0.9999999 1.042161E-14 -1.192093E-07
vn -9.914108E-08 0.5552917 -0.8316556
vn -6.606712E-08 0.8323761 -0.554211
vn -8.965766E-08 -0.6590456 -0.752103
vn -7.856433E-08 -0.7521033 -0.6590453
vn 0.9999999 1.042161E-14 -1.192093E-07
vn -0.9999999 -1.042161E-14 1.192093E-07
vn -8.965766E-08 -0.6590456 -0.752103
vn -7.856433E-08 -0.7521033 -0.6590453
vn -7.85644E-08 0.7521027 -0.6590459
vn -8.965763E-08 0.659046 -0.7521026
vn 0.9999999 1.042161E-14 -1.192093E-07
vn -0.9999999 -1.042161E-14 1.192093E-07
vn -7.85644E-08 0.7521027 -0.6590459
vn -8.965763E-08 0.659046 -0.7521026
vn -9.299767E-08 -0.6256286 -0.780121
vn 0.9999999 1.042161E-14 -1.192093E-07
vn -0.9999999 -1.042161E-14 1.192093E-07
vn -9.616483E-08 -0.5909761 -0.8066891
vn -9.616484E-08 0.5909761 -0.806689
vn 0.9999999 1.042161E-14 -1.192093E-07
vn -0.9999999 -1.042161E-14 1.192093E-07
vn -9.299767E-08 0.6256288 -0.7801208
vn -1.019291E-07 -0.5185561 -0.8550435
vn 0.9999999 1.042161E-14 -1.192093E-07
vn -0.9999999 -1.042161E-14 1.192093E-07
vn -1.04529E-07 -0.4807585 -0.876853
vn -1.04529E-07 0.4807588 -0.8768528
vn 0.9999999 1.042161E-14 -1.192093E-07
vn -0.9999999 -1.042161E-14 1.192093E-07
vn -1.019291E-07 0.5185561 -0.8550435
vn -1.040221E-07 -0.4884349 -0.8726003
vn 0.8240799 0.5664734 0.0001165778
vn 0.9999999 1.042161E-14 -1.192093E-07
vn 9.144117E-05 -0.3396185 -0.9405633
vn -1.006523E-07 0.535819 -0.8443328
vn 0.9999999 1.042161E-14 -1.192093E-07
vn 0.9999999 1.042161E-14 -1.192093E-07
vn 7.038409E-06 0.3246372 -0.9458386
vn -1.091223E-07 -0.4025817 -0.9153841
vn 0.9999999 1.042161E-14 -1.192093E-07
vn -0.9999999 -1.042161E-14 1.192093E-07
vn -1.11115E-07 -0.3621999 -0.9321004
vn -1.11115E-07 0.3622003 -0.9321003
vn 0.9999999 1.042161E-14 -1.192093E-07
vn -0.9999999 -1.042161E-14 1.192093E-07
vn -1.091223E-07 0.4025821 -0.9153838
vn 2.004807E-05 0.1952161 -0.9807602
vn 0.9808789 0.1946183 1.410691E-05
vn 9.619159E-05 -0.1951763 -0.9807681
vn 0.9308892 0.3653015 -7.903498E-08
vn -1.144546E-07 -0.279608 -0.9601143
vn 0.9999999 1.042161E-14 -1.192093E-07
vn -0.9999999 -1.042161E-14 1.192093E-07
vn -1.158006E-07 -0.2374264 -0.9714054
vn -1.158006E-07 0.2374264 -0.9714055
vn 0.9999999 1.042161E-14 -1.192093E-07
vn -0.9999999 -1.042161E-14 1.192093E-07
vn -1.144546E-07 0.2796081 -0.9601143
vn -1.178184E-07 -0.1523128 -0.9883323
vn 0.9999999 1.042161E-14 -1.192093E-07
vn -0.9999999 -1.042161E-14 1.192093E-07
vn -1.184943E-07 -0.1093572 -0.9940025
vn -1.184943E-07 0.1093573 -0.9940024
vn 0.9999999 1.042161E-14 -1.192093E-07
vn -0.9999999 -1.042161E-14 1.192093E-07
vn -1.178184E-07 0.1523129 -0.9883323
vn 8.766257E-06 0.1041333 -0.9945633
vn 0.9785499 0.2060097 2.611424E-05
vn 0.9999999 1.042161E-14 -1.192093E-07
vn 7.033737E-05 -0.04185551 -0.9991236
vn 0 -1 -8.742278E-08
vn -1.192093E-07 8.742277E-08 -0.9999999
vn -0.9999999 -1.042161E-14 1.192093E-07
vn 0.9999999 1.042161E-14 -1.192093E-07
vn -1.192093E-07 8.742277E-08 -0.9999999
vn 0 -1 -8.742278E-08
vn 0.9999999 1.042161E-14 -1.192093E-07
vn -0.9999999 -1.042161E-14 1.192093E-07
vn -0.9999999 -1.042161E-14 1.192093E-07
vn -1.189473E-07 -0.06626524 -0.997802
vn -1.189473E-07 0.06626542 -0.997802
vn 0.9999999 1.042161E-14 -1.192093E-07
vn -0.9999999 -1.042161E-14 1.192093E-07
vn -0.9999999 -1.042161E-14 1.192093E-07
vn -1.189473E-07 -0.06626524 -0.997802
vn -1.189473E-07 0.06626542 -0.997802
vn 0.9999999 1.042161E-14 -1.192093E-07
vn -1.192093E-07 8.742277E-08 -0.9999999
vn -1.192093E-07 8.742277E-08 -0.9999999
vn -0.9999999 -1.042161E-14 1.192093E-07
vn -0.9999999 -1.042161E-14 1.192093E-07
vn 0.9999999 1.042161E-14 -1.192093E-07
vn -1.192093E-07 8.742277E-08 -0.9999999
vn 0 -1 -8.742278E-08
vn -1.192093E-07 8.742277E-08 -0.9999999
vn -1.192093E-07 8.742277E-08 -0.9999999
vn 0 -1 -8.742278E-08
vn 0.9999999 1.042161E-14 -1.192093E-07
vn -1.192093E-07 8.742277E-08 -0.9999999
vn 0 -1 -8.742278E-08
vn -0.9999999 -1.042161E-14 1.192093E-07
vn -1.192093E-07 8.742277E-08 -0.9999999
vn 0.9999999 1.042161E-14 -1.192093E-07
vn 0 -1 -8.742278E-08
vn 1.192093E-07 -8.742277E-08 0.9999999
vn -0.2060108 0.9785498 1.101059E-07
vn 0.2060108 0.9785497 6.098913E-08
vn 1.192093E-07 -8.742277E-08 0.9999999
vn 0.3014546 0.9534805 -3.690126E-06
vn 1.192093E-07 -8.742277E-08 0.9999999
vn -0.4543838 0.890806 1.320435E-07
vn 1.192093E-07 -8.742277E-08 0.9999999
vn 0.687021 0.7266375 7.391207E-05
vn 1.192093E-07 -8.742277E-08 0.9999999
vn -0.7495306 0.6619696 1.472222E-07
vn 1.192093E-07 -8.742277E-08 0.9999999
vn 0.9312674 0.3643362 3.467405E-05
vn 1.192093E-07 -8.742276E-08 0.9999999
vn -0.919145 0.3939194 1.440082E-07
vn 1.192093E-07 -8.742277E-08 0.9999999
vn -0.0661836 -0.9978075 -7.93414E-08
vn 0.06635211 -0.9977963 -9.513991E-08
vn -0.1516742 -0.9884306 -6.833038E-08
vn 0.1090309 -0.9940384 -9.98991E-08
vn -0.2792146 -0.9602287 -5.066088E-08
vn 0.2365252 -0.9716254 -1.131382E-07
vn 1.192093E-07 -8.742277E-08 0.9999999
vn -0.4031368 -0.9151397 -3.19464E-08
vn 1.192093E-07 -8.742277E-08 0.9999999
vn 0.3622811 -0.9320689 -1.246713E-07
vn -0.519245 -0.8546254 -1.281489E-08
vn 0.4815921 -0.8763955 -1.340272E-07
vn -0.6263552 -0.7795376 6.518026E-09
vn 0.5916598 -0.8061877 -1.410105E-07
vn 1.192093E-07 -8.742277E-08 0.9999999
vn -0.6597674 -0.7514699 1.295483E-08
vn -0.7514709 -0.6597661 3.190374E-08
vn 1.192093E-07 -8.742277E-08 0.9999999
vn 0.6916288 -0.7222531 -1.4559E-07
vn -0.8061874 -0.5916602 4.438046E-08
vn 0.8312636 -0.5558784 -1.476908E-07
vn 0.7514709 -0.6597661 -1.472609E-07
vn -0.8763956 -0.4815919 6.23724E-08
vn 0.8546252 -0.5192454 -1.472731E-07
vn 1.192093E-07 -8.742277E-08 0.9999999
vn -0.9320685 -0.3622822 7.943951E-08
vn 1.192093E-07 -8.742277E-08 0.9999999
vn 0.9151396 -0.403137 -1.443365E-07
vn -0.9715297 -0.2369176 9.510338E-08
vn 0.9602283 -0.2792158 -1.38878E-07
vn -0.9940487 -0.1089369 1.089763E-07
vn 0.9884306 -0.1516732 -1.310898E-07
vn 1.192093E-07 -8.742276E-08 0.9999999
vn 0.9989253 0.04634644 -1.150295E-07
vn 1.192093E-07 -8.742277E-08 0.9999999
vn -0.9978075 -0.06618115 1.131622E-07
vn -0.9977964 0.06634957 1.247471E-07
vn 1.192093E-07 -8.742277E-08 0.9999999
vn 0.9978075 -0.06618115 -1.247337E-07
vn 0.9977964 0.06634957 -1.131461E-07
vn 1.192093E-07 -8.742276E-08 0.9999999
vn -0.9999996 -0.0008684931 1.191333E-07
vn -0.9884503 0.1515452 1.31081E-07
vn 0.9940385 0.1090289 -1.08967E-07
vn -0.9602947 0.2789876 1.388659E-07
vn 0.9716252 0.2365252 -9.514907E-08
vn 1.192093E-07 -8.742277E-08 0.9999999
vn -0.915139 0.4031383 1.443366E-07
vn 1.192093E-07 -8.742277E-08 0.9999999
vn 0.9320682 0.3622825 -7.943945E-08
vn -0.8546256 0.5192447 1.472731E-07
vn 0.8763952 0.4815925 -6.23723E-08
vn -0.7795386 0.6263541 1.476859E-07
vn 0.8061885 0.5916587 -4.438073E-08
vn 1.192093E-07 -8.742277E-08 0.9999999
vn -0.6597674 0.7514699 1.44346E-07
vn -0.7514709 0.6597661 1.472609E-07
vn 1.192093E-07 -8.742277E-08 0.9999999
vn 0.722254 0.6916278 -2.563537E-08
vn -0.5916598 0.8061877 1.410105E-07
vn 0.5558772 0.8312643 6.4057E-09
vn 0.6597672 0.75147 -1.295479E-08
vn -0.4815921 0.8763955 1.340272E-07
vn 0.519245 0.8546254 1.281489E-08
vn 1.192093E-07 -8.742277E-08 0.9999999
vn -0.362281 0.9320688 1.246713E-07
vn 1.192093E-07 -8.742276E-08 0.9999999
vn 0.4031369 0.9151397 3.194639E-08
vn -0.2369168 0.97153 1.131765E-07
vn 0.2789866 0.9602949 5.069385E-08
vn -0.1089355 0.9940488 9.988863E-08
vn 0.1515449 0.9884503 6.834751E-08
vn 1.192093E-07 -8.742277E-08 0.9999999
vn -0.06617875 0.9978078 9.512025E-08
vn 0.06634726 0.9977966 7.932094E-08
vn 1.192093E-07 -8.742277E-08 0.9999999
vn -0.8852874 -0.4650441 6.487904E-08
vn 1.192093E-07 -8.742277E-08 0.9999999
vn 0.9999999 1.042161E-14 -1.192093E-07
vn -0.8232127 0.567733 1.477674E-07
vn 1.192093E-07 -8.742277E-08 0.9999999
vn -0.8243315 -0.5661072 4.877732E-08
vn -0.9999999 -1.042161E-14 1.192093E-07
vn 1.192093E-07 -8.742277E-08 0.9999999
vn -0.5665289 0.8240418 1.395755E-07
vn -0.8232127 0.567733 1.477674E-07
vn 1.192093E-07 -8.742277E-08 0.9999999
vn 0.5633367 0.8262273 5.076107E-09
vn -0.9999999 -1.042161E-14 1.192093E-07
vn 1.192093E-07 -8.742277E-08 0.9999999
vn -0.4541874 0.8909061 1.320288E-07
vn 1.192093E-07 -8.742277E-08 0.9999999
vn 0.3015968 0.9534356 4.739885E-08
vn 1.192093E-07 -8.742276E-08 0.9999999
vn -0.07000321 0.9975467 9.555334E-08
vn 1.192093E-07 -8.742277E-08 0.9999999
vn 0.9999999 1.042161E-14 -1.192093E-07
vn -0.8232127 0.567733 1.477674E-07
vn -0.5665289 0.8240418 1.395755E-07
vn 1.192093E-07 -8.742277E-08 0.9999999
vn -0.8232127 0.567733 1.477674E-07
vn 0.5633367 0.8262273 5.076107E-09
vn 1.192093E-07 -8.742277E-08 0.9999999
vn -0.9999999 -1.042161E-14 1.192093E-07
vn -0.3319061 0.9433124 1.220333E-07
vn 1.192093E-07 -8.742277E-08 0.9999999
vn 0.4204609 0.9073105 2.919676E-08
vn 1.192093E-07 -8.742277E-08 0.9999999
vn 0.07000321 0.9975467 7.886327E-08
vn 1.192093E-07 -8.742277E-08 0.9999999
vn 1.192093E-07 -8.742277E-08 0.9999999
vn -0.9999999 -1.042161E-14 1.192093E-07
vn 0 1 8.742278E-08
vn 1.192093E-07 -8.742277E-08 0.9999999
vn 0 1 8.742278E-08
vn -0.9999999 -1.042161E-14 1.192093E-07
vn 0 -1 -8.742278E-08
vn 1.192093E-07 -8.742277E-08 0.9999999
vn 0.9999999 1.042161E-14 -1.192093E-07
vn 0 -1 -8.742278E-08
vn 1.192093E-07 -8.742277E-08 0.9999999
vn -0.9999999 -1.042161E-14 1.192093E-07
vt -10 -9
vt -10 -19
vt -10 -19
vt 10 -9
vt 10 1
vt 10 1
vt -3 -3.679999
vt -3 -16.68
vt -3 -3.679999
vt 2 1.320001
vt 2 -16.68
vt 2 1.320001
vt -15.3 -3.179999
vt -16.26 -3.139999
vt -16.26 -3.139999
vt -16.26 -3.139999
vt -17.3 -0.7200003
vt -17.3 -0.7200003
vt -38 -17.86
vt -35.86 -17.86
vt -29 -8.86
vt -20 0.1400003
vt -20 0.1400003
vt -40.7 -17.01
vt -39.15 -17.01
vt -24.14 -0.4500003
vt -24.14 -0.4500003
vt -41.6 -14.91
vt -41.91 -14.91
vt -29 -2.31
vt -29 -2.31
vt -40.7 -11.95
vt -43.81 -11.95
vt -33.86 -5.11
vt -33.86 -5.11
vt -38 -8.5
vt -38 -8.5
vt -44.5 -8.5
vt -35.5 -15.079
vt -35.5 -15.079
vt -36 -11.5
vt -35.5 -11.5
vt -26 -25.5
vt -25.5 -11.5
vt -26 -11.5
vt -25.5 -3.5
vt -18 -3.5
vt -18 -25.5
vt -26 -15.5
vt -22 -11.5
vt -22 -11.5
vt -15.5 -15.5
vt -15.5 -15.5
vt -20 -15.5
vt -16 -11.5
vt -16 -11.5
vt -15.5 -11.5
vt -15.5 -11.5
vt -14 -15.5
vt -9.5 -11.5
vt -9.5 -11.5
vt -10 -11.5
vt -10 -11.5
vt -2 -9.5
vt -9.5 -3.5
vt -2 -3.5
vt -9.5 -3.5
vt 2 -9.5
vt 2 0.5
vt -9.5 0.5
vt -5.5 -11.5
vt -6 -5.5
vt -6 -11.5
vt 6 0.5
vt -5.5 0.5
vt 6 -5.5
vt -16.231 -15.448
vt -20.783 -15.448
vt -16.783 -11.448
vt -16.231 -11.448
vt -14.665 -15.448
vt -19.217 -15.448
vt -15.217 -11.448
vt -14.665 -11.448
vt -16.848 -15.295
vt -21.553 -15.295
vt -17.553 -11.295
vt -16.848 -11.295
vt -13.742 -15.295
vt -18.447 -15.295
vt -14.447 -11.295
vt -13.742 -11.295
vt -36.638 -14.498
vt -36.638 -14.498
vt -33.102 -15.102
vt -33.102 -15.102
vt -37.339 -13.721
vt -37.339 -13.721
vt -38.296 -11.043
vt -37.339 -11.043
vt -37.704 -15.043
vt -32.747 -15.043
vt -33.704 -11.043
vt -32.747 -11.043
vt -17.339 -15.043
vt -22.296 -15.043
vt -18.296 -11.043
vt -17.339 -11.043
vt -12.747 -15.043
vt -17.704 -15.043
vt -13.704 -11.043
vt -12.747 -11.043
vt -17.696 -14.696
vt -23 -14.696
vt -19 -10.696
vt -17.696 -10.696
vt -11.696 -14.696
vt -17 -14.696
vt -13 -10.696
vt -11.696 -10.696
vt -17.913 -14.26
vt -23.653 -14.26
vt -19.653 -10.26
vt -17.913 -10.26
vt -10.607 -14.26
vt -16.347 -14.26
vt -12.347 -10.26
vt -10.607 -10.26
vt -40 -9.84
vt -40 -37.84
vt -37.84 -9.84
vt -37.84 -4.84
vt -35 -37.84
vt -37.84 -4.84
vt -35 -4.84
vt -37.84 -4.84
vt -37.788 -4.057
vt -34.165 -4.057
vt -37.635 -3.287
vt -37.635 -3.287
vt -33.242 -3.287
vt -37.383 -2.544
vt -32.247 -2.544
vt -37.036 -1.84
vt -31.196 -1.84
vt -36.6 -1.187
vt -30.107 -1.187
vt -36.083 -0.5969999
vt -29 -0.5969999
vt -35.493 -0.07999992
vt -27.893 -0.07999992
vt -27.893 -0.07999992
vt -34.84 0.3560002
vt -26.804 0.3560002
vt -34.136 0.7029998
vt -25.753 0.7029998
vt -33.393 0.9550002
vt -24.758 0.9550002
vt -32.623 1.108
vt -23.835 1.108
vt -31.84 -4.84
vt -31.84 -4.84
vt -31.84 1.16
vt -23 1.16
vt -31.84 1.16
vt -31.84 1.16
vt -31.9 -9.84
vt -29.74 -9.84
vt -29.74 -9.84
vt -29.74 0.74
vt -29.74 0.74
vt -29.74 0.74
vt -37.986 -11.083
vt -41.583 -11.083
vt -37.986 -11.083
vt -40.243 -9.743
vt -40.243 -9.743
vt -37.986 -9.743
vt -35.757 -13.743
vt -29.5 -13.743
vt -29.5 -13.743
vt -17.986 -13.743
vt -24.243 -13.743
vt -24.243 -13.743
vt -20.243 -9.743
vt -17.986 -9.743
vt -20.243 -9.743
vt -9.5 -13.743
vt -9.5 -13.743
vt -15.757 -13.743
vt -11.757 -9.743
vt -9.5 -9.743
vt -9.5 -9.743
vt -29.5 0.8099997
vt -29.5 0.8099997
vt -29.5 0.8099997
vt -37.957 -10.957
vt -41.6 -10.957
vt -24.76 -13.153
vt -24.76 -13.153
vt -20.76 -9.153
vt -20.76 -9.153
vt -8.393 -13.153
vt -15.24 -13.153
vt -11.24 -9.153
vt -8.393 -9.153
vt -25.196 -12.5
vt -25.196 -12.5
vt -21.196 -8.5
vt -21.196 -8.5
vt -7.304 -12.5
vt -14.804 -12.5
vt -10.804 -8.5
vt -7.304 -8.5
vt -41.194 -8.319
vt -37.513 -8.319
vt -41.194 -8.319
vt -41.194 -8.319
vt -26.26 1.91
vt -26.26 1.91
vt -41.543 -7.796
vt -41.543 -7.796
vt -41.543 -7.796
vt -41.034 -7.287
vt -37.339 -7.287
vt -41.034 -7.287
vt -34.457 -11.796
vt -26.253 -11.796
vt -25.543 -11.796
vt -25.543 -11.796
vt -21.543 -7.796
vt -21.543 -7.796
vt -6.253 -11.796
vt -14.457 -11.796
vt -10.457 -7.796
vt -6.253 -7.796
vt -25.795 -11.053
vt -25.795 -11.053
vt -21.795 -7.053
vt -21.795 -7.053
vt -5.258 -11.053
vt -14.205 -11.053
vt -10.205 -7.053
vt -5.258 -7.053
vt -25.948 -10.283
vt -25.948 -10.283
vt -21.948 -6.283
vt -21.948 -6.283
vt -4.335 -10.283
vt -14.052 -10.283
vt -10.052 -6.283
vt -4.335 -6.283
vt -42 -5.5
vt -35.5 -5.5
vt -40.827 -4.327
vt -35.5 -4.327
vt -34 -9.5
vt -34 -9.5
vt -23.5 3.9
vt -23.5 3.9
vt -15.5 -9.5
vt -26 -9.5
vt -26 -9.5
vt -22 -5.5
vt -22 -5.5
vt -22 -5.5
vt -15.5 -5.5
vt -22 -5.5
vt -14 -9.5
vt -3.5 -9.5
vt -14 -9.5
vt -10 -5.5
vt -10 -5.5
vt -10 -5.5
vt -3.5 -5.5
vt -10 -5.5
vt -14.665 -8.717
vt -25.948 -8.717
vt -21.948 -4.717
vt -14.665 -4.717
vt -14.052 -8.717
vt -14.052 -8.717
vt -10.052 -4.717
vt -10.052 -4.717
vt -13.742 -7.947
vt -25.795 -7.947
vt -21.795 -3.947
vt -13.742 -3.947
vt -14.205 -7.947
vt -14.205 -7.947
vt -10.205 -3.947
vt -10.205 -3.947
vt -40 -3.22
vt -31.22 -3.22
vt -40 -31.22
vt -31.22 1.78
vt -31.22 1.78
vt -35 -31.22
vt -35 1.78
vt -31.168 2.563
vt -34.165 2.563
vt -31.015 3.333
vt -33.242 3.333
vt -30.763 4.076
vt -32.247 4.076
vt -30.416 4.78
vt -31.196 4.78
vt -29.98 5.433
vt -30.107 5.433
vt -29.463 6.023
vt -29 6.023
vt -28.873 6.54
vt -27.893 6.54
vt -27.893 6.54
vt -28.22 -1.22
vt -28.22 -1.22
vt -28.22 1.78
vt -28.22 1.78
vt -28.22 1.78
vt -28.22 1.78
vt -32 1.78
vt -28.22 6.976
vt -26.804 6.976
vt -28.194 1.388
vt -28.194 2.171
vt -31.583 2.171
vt -28.118 1.004
vt -28.118 2.556
vt -31.122 2.556
vt -27.992 0.632
vt -27.992 0.632
vt -27.992 2.928
vt -30.624 2.928
vt -27.818 0.28
vt -27.818 3.28
vt -30.098 3.28
vt -27.6 -0.046
vt -27.6 3.606
vt -29.554 3.606
vt -27.516 7.323
vt -25.753 7.323
vt -27.341 -0.3409998
vt -27.341 -0.3409998
vt -33.242 -0.3409998
vt -27.341 3.901
vt -29 3.901
vt -33.206 -0.5999999
vt -27.046 4.16
vt -28.446 4.16
vt -28.446 4.16
vt -26.773 7.575
vt -24.758 7.575
vt -33.098 -0.8179998
vt -26.72 4.378
vt -27.902 4.378
vt -26.368 -0.9919999
vt -32.92 -0.9919999
vt -26.368 4.552
vt -27.376 4.552
vt -26.003 7.728
vt -23.835 7.728
vt -32.674 -1.118
vt -25.996 4.678
vt -26.878 4.678
vt -32.366 -1.194
vt -25.612 4.754
vt -26.418 4.754
vt -25.22 -1.22
vt -25.22 -1.22
vt -25.22 -1.22
vt -32 -1.22
vt -25.22 4.78
vt -25.22 4.78
vt -25.22 4.78
vt -26 4.78
vt -25.22 4.78
vt -25.22 7.78
vt -25.22 7.78
vt -23 7.78
vt -25.22 7.78
vt -31.583 -1.194
vt -24.829 4.754
vt -31.122 -1.118
vt -24.444 4.678
vt -24.072 -0.9919999
vt -30.624 -0.9919999
vt -24.072 4.552
vt -24.072 4.552
vt -30.098 -0.8179998
vt -23.72 4.378
vt -29.554 -0.5999999
vt -23.394 4.16
vt -23.099 -0.3409998
vt -29 -0.3409998
vt -29 -0.3409998
vt -23.099 3.901
vt -23.099 3.901
vt -22.92 7.32
vt -22.92 7.32
vt -28.446 -0.046
vt -22.84 3.606
vt -22.84 3.606
vt -27.902 0.28
vt -22.622 3.28
vt -22.448 0.632
vt -27.376 0.632
vt -22.448 2.928
vt -22.448 2.928
vt -26.878 1.004
vt -22.322 2.556
vt -26.418 1.388
vt -22.246 2.171
vt -22.22 -1.22
vt -22.22 -1.22
vt -22.22 1.78
vt -22.22 1.78
vt -22.22 1.78
vt -26 1.78
vt -22.22 1.78
vt -22.22 4.78
vt -22.22 4.78
vt -21.67 -3.22
vt -30.45 -3.22
vt -30.45 -3.22
vt -30.45 -3.22
vt -21.67 6.49
vt -20.74 6.49
vt -21.67 6.49
vt -41.543 -3.204
vt -32.747 -3.204
vt -32.747 -3.204
vt -32.747 -2.695
vt -32.747 -2.695
vt -32.747 -2.695
vt -34.457 -7.204
vt -34.457 -7.204
vt -34.457 -7.204
vt -12.747 -7.204
vt -25.543 -7.204
vt -21.543 -3.204
vt -12.747 -3.204
vt -14.457 -7.204
vt -14.457 -7.204
vt -10.457 -3.204
vt -10.457 -3.204
vt -41.194 -2.681
vt -31.875 -2.681
vt -31.875 -2.681
vt -31.875 -2.681
vt -11.696 -6.5
vt -25.196 -6.5
vt -21.196 -2.5
vt -11.696 -2.5
vt -14.804 -6.5
vt -14.804 -6.5
vt -10.804 -2.5
vt -10.804 -2.5
vt -10.607 -5.847
vt -24.76 -5.847
vt -20.76 -1.847
vt -10.607 -1.847
vt -15.24 -5.847
vt -15.24 -5.847
vt -11.24 -1.847
vt -11.24 -1.847
vt -29.643 -2.643
vt -29.643 -2.643
vt -29.5 -2.597
vt -29.5 -2.597
vt -29.5 -2.597
vt -40.243 -1.257
vt -29.5 -1.257
vt -29.5 -1.257
vt -35.757 -5.257
vt -35.757 -5.257
vt -35.757 -5.257
vt -31.757 -1.257
vt -31.757 -1.257
vt -31.757 -1.257
vt -9.5 -5.257
vt -9.5 -5.257
vt -24.243 -5.257
vt -20.243 -1.257
vt -9.5 -1.257
vt -9.5 -1.257
vt -15.757 -5.257
vt -15.757 -5.257
vt -15.757 -5.257
vt -11.757 -1.257
vt -11.757 -1.257
vt -11.757 -1.257
vt -8.393 -4.74
vt -23.653 -4.74
vt -19.653 -0.7400002
vt -8.393 -0.7400002
vt -16.347 -4.74
vt -16.347 -4.74
vt -12.347 -0.7400002
vt -12.347 -0.7400002
vt -7.304 -4.304
vt -23 -4.304
vt -19 -0.3040004
vt -7.304 -0.3040004
vt -17 -4.304
vt -17 -4.304
vt -13 -0.3040004
vt -13 -0.3040004
vt -26.253 -2.635
vt -26.253 -2.635
vt -38.296 0.04299974
vt -26.253 0.04299974
vt -37.704 -3.957
vt -37.704 -3.957
vt -33.704 0.04299974
vt -33.704 0.04299974
vt -6.253 -3.957
vt -22.296 -3.957
vt -18.296 0.04299974
vt -6.253 0.04299974
vt -17.704 -3.957
vt -17.704 -3.957
vt -13.704 0.04299974
vt -13.704 0.04299974
vt -38 -3.898
vt -21.898 -3.898
vt -25.202 -3.062
vt -25.202 -3.062
vt -5.257999 -3.705
vt -21.553 -3.705
vt -17.553 0.2950001
vt -5.257999 0.2950001
vt -18.447 -3.705
vt -18.447 -3.705
vt -14.447 0.2950001
vt -14.447 0.2950001
vt -4.335 -3.552
vt -20.783 -3.552
vt -16.783 0.448
vt -4.335 0.448
vt -19.217 -3.552
vt -19.217 -3.552
vt -15.217 0.448
vt -15.217 0.448
vt -39.579 -3.079
vt -23.5 -3.079
vt -36 0.5
vt -23.5 0.5
vt -26 -13.5
vt -13.5 0.5
vt -26 0.5
vt -18 8.5
vt -13.5 8.5
vt -18 -13.5
vt -26 -3.5
vt -22 0.5
vt -22 0.5
vt -3.5 -3.5
vt -20 -3.5
vt -20 -3.5
vt -16 0.5
vt -16 0.5
vt -3.5 0.5
vt -16 0.5
vt -14 -3.5
vt 2.5 0.5
vt 2.5 0.5
vt -10 0.5
vt -10 0.5
vt -2 8.5
vt 2.5 8.5
vt -2 2.5
vt 2.5 8.5
vt 2.5 12.5
vt 2 2.5
vt 2 12.5
vt 6.5 0.5
vt -6 6.5
vt -6 0.5
vt 6.5 12.5
vt 6 12.5
vt 6 6.5
vt -28.5 7.5
vt -38 7.5
vt -28.5 7.5
vt -27.78 4.08
vt -27.78 4.08
vt -27.78 10.92
vt -33.86 10.92
vt -25.8 1.2
vt -25.8 1.2
vt -25.8 13.8
vt -29 13.8
vt -22.92 -0.7799997
vt -22.92 -0.7799997
vt -22.92 15.78
vt -24.14 15.78
vt -22.5 7.5
vt -22.5 7.5
vt -32 7.5
vt -22.474 7.108
vt -31.583 7.891
vt -22.398 6.724
vt -31.122 8.276
vt -22.272 6.352
vt -22.272 6.352
vt -22.272 8.648
vt -30.624 8.648
vt -22.098 6
vt -30.098 9
vt -21.88 5.674
vt -29.554 9.326
vt -21.621 5.379
vt -21.621 5.379
vt -33.242 5.379
vt -21.621 9.621
vt -29 9.621
vt -33.206 5.12
vt -28.446 9.88
vt -28.446 9.88
vt -33.098 4.902
vt -27.902 10.098
vt -20.648 4.728
vt -32.92 4.728
vt -20.648 10.272
vt -27.376 10.272
vt -32.674 4.602
vt -26.878 10.398
vt -32.366 4.526
vt -26.418 10.474
vt -19.5 -1.5
vt -19.5 -1.5
vt -19.5 4.5
vt -32 4.5
vt -32 4.5
vt -19.5 10.5
vt -26 10.5
vt -19.5 10.5
vt -19.5 16.5
vt -20 16.5
vt -31.583 4.526
vt -19.109 10.474
vt -31.122 4.602
vt -18.724 10.398
vt -18.352 4.728
vt -30.624 4.728
vt -18.352 10.272
vt -18.352 10.272
vt -30.098 4.902
vt -18 10.098
vt -29.554 5.12
vt -17.674 9.88
vt -17.379 5.379
vt -29 5.379
vt -29 5.379
vt -17.379 9.621
vt -17.379 9.621
vt -28.446 5.674
vt -17.12 9.326
vt -17.12 9.326
vt -27.902 6
vt -16.902 9
vt -16.728 6.352
vt -27.376 6.352
vt -16.728 8.648
vt -16.728 8.648
vt -26.878 6.724
vt -16.602 8.276
vt -26.418 7.108
vt -16.526 7.891
vt -16.5 7.5
vt -26 7.5
vt -16.5 7.5
vt -16.08 15.78
vt -17.3 15.78
vt -15.4 -1.5
vt -33.9 -1.5
vt -33.9 -1.5
vt -12.76 13.5
vt -16.26 13.5
vt -16.26 13.5
vt -12.5 0.5
vt -29 0.5
vt -29 0.5
vt -11.8 13.5
vt -11.8 13.5
vt -15.3 13.5
vt -10.3 3.7
vt -23.6 3.7
vt -10.3 11.3
vt -10.3 11.3
vt -9.5 7.5
vt -19 7.5
vt -14.9 -1
vt -33.9 -1
vt -33.9 -1
vt -29 1
vt -12 1
vt -29 1
vt -11.3 14
vt -11.3 14
vt -15.3 14
vt -23.6 4.2
vt -9.799999 4.2
vt -9.799999 11.8
vt -9.799999 11.8
vt -9 8
vt -9 8
vt 1 14
vt -3 14
vt -3 1
vt 1 19
vt 2 1
vt 2 19
vt -10 9
vt 9 -1
vt -10 -1
vt 10 9
vt 9 19
vt 10 19
usemtl 85
f 712/712/712 710/710/710 11/11/11
f 8/8/8 11/11/11 710/710/710
f 719/719/719 713/713/713 6/6/6
f 12/12/12 6/6/6 713/713/713
f 701/701/701 13/13/13 709/709/709
f 9/9/9 709/709/709 13/13/13
f 680/680/680 16/16/16 686/686/686
f 13/13/13 686/686/686 16/16/16
f 679/679/679 674/674/674 15/15/15
f 18/18/18 15/15/15 674/674/674
f 674/674/674 639/639/639 18/18/18
f 23/23/23 18/18/18 639/639/639
f 596/596/596 27/27/27 639/639/639
f 23/23/23 639/639/639 27/27/27
f 596/596/596 592/592/592 27/27/27
f 31/31/31 27/27/27 592/592/592
f 2/2/2 5/5/5 7/7/7
f 10/10/10 7/7/7 5/5/5
f 2/2/2 7/7/7 19/19/19
f 14/14/14 19/19/19 7/7/7
f 21/21/21 19/19/19 14/14/14
f 19/19/19 21/21/21 24/24/24
f 28/28/28 24/24/24 21/21/21
f 28/28/28 21/21/21 32/32/32
f 36/36/36 32/32/32 21/21/21
f 36/36/36 21/21/21 34/34/34
f 30/30/30 34/34/34 21/21/21
f 30/30/30 21/21/21 26/26/26
f 22/22/22 26/26/26 21/21/21
f 22/22/22 21/21/21 17/17/17
f 14/14/14 17/17/17 21/21/21
f 73/73/73 578/578/578 63/63/63
f 276/276/276 63/63/63 578/578/578
f 276/276/276 578/578/578 568/568/568
f 51/51/51 265/265/265 45/45/45
f 550/550/550 45/45/45 265/265/265
f 265/265/265 555/555/555 550/550/550
f 61/61/61 67/67/67 71/71/71
f 75/75/75 71/71/71 67/67/67
f 70/70/70 75/75/75 67/67/67
f 576/576/576 579/579/579 565/565/565
f 570/570/570 565/565/565 579/579/579
f 573/573/573 570/570/570 579/579/579
f 72/72/72 76/76/76 1/1/1
f 4/4/4 1/1/1 76/76/76
f 577/577/577 72/72/72 714/714/714
f 1/1/1 714/714/714 72/72/72
f 581/581/581 577/577/577 717/717/717
f 714/714/714 717/717/717 577/577/577
f 76/76/76 581/581/581 4/4/4
f 717/717/717 4/4/4 581/581/581
f 708/708/708 711/711/711 715/715/715
f 718/718/718 715/715/715 711/711/711
f 705/705/705 700/700/700 708/708/708
f 707/707/707 705/705/705 715/715/715
f 708/708/708 715/715/715 705/705/705
f 703/703/703 707/707/707 715/715/715
f 697/697/697 703/703/703 715/715/715
f 693/693/693 697/697/697 715/715/715
f 690/690/690 685/685/685 704/704/704
f 699/699/699 704/704/704 685/685/685
f 692/692/692 690/690/690 706/706/706
f 704/704/704 706/706/706 690/690/690
f 688/688/688 692/692/692 702/702/702
f 706/706/706 702/702/702 692/692/692
f 682/682/682 688/688/688 696/696/696
f 702/702/702 696/696/696 688/688/688
f 677/677/677 683/683/683 695/695/695
f 698/698/698 695/695/695 683/683/683
f 675/675/675 630/630/630 652/652/652
f 644/644/644 652/652/652 630/630/630
f 630/630/630 593/593/593 644/644/644
f 632/632/632 644/644/644 593/593/593
f 593/593/593 589/589/589 632/632/632
f 622/622/622 632/632/632 589/589/589
f 589/589/589 585/585/585 622/622/622
f 612/612/612 622/622/622 585/585/585
f 585/585/585 582/582/582 612/612/612
f 604/604/604 612/612/612 582/582/582
f 582/582/582 587/587/587 604/604/604
f 597/597/597 604/604/604 587/587/587
f 587/587/587 591/591/591 597/597/597
f 606/606/606 597/597/597 591/591/591
f 591/591/591 595/595/595 606/606/606
f 615/615/615 606/606/606 595/595/595
f 595/595/595 638/638/638 615/615/615
f 624/624/624 615/615/615 638/638/638
f 638/638/638 673/673/673 624/624/624
f 635/635/635 624/624/624 673/673/673
f 673/673/673 678/678/678 635/635/635
f 646/646/646 635/635/635 678/678/678
f 678/678/678 684/684/684 646/646/646
f 655/655/655 646/646/646 684/684/684
f 684/684/684 689/689/689 655/655/655
f 664/664/664 655/655/655 689/689/689
f 689/689/689 691/691/691 664/664/664
f 670/670/670 664/664/664 691/691/691
f 691/691/691 687/687/687 670/670/670
f 662/662/662 670/670/670 687/687/687
f 687/687/687 681/681/681 662/662/662
f 652/652/652 662/662/662 681/681/681
f 652/652/652 681/681/681 675/675/675
f 298/298/298 133/133/133 295/295/295
f 130/130/130 295/295/295 133/133/133
f 170/170/170 166/166/166 399/399/399
f 380/380/380 399/399/399 166/166/166
f 195/195/195 170/170/170 399/399/399
f 195/195/195 399/399/399 220/220/220
f 399/399/399 428/428/428 220/220/220
f 260/260/260 220/220/220 428/428/428
f 136/136/136 162/162/162 131/131/131
f 169/169/169 131/131/131 162/162/162
f 169/169/169 162/162/162 172/172/172
f 165/165/165 172/172/172 162/162/162
f 318/318/318 297/297/297 316/316/316
f 294/294/294 316/316/316 297/297/297
f 422/422/422 413/413/413 294/294/294
f 369/369/369 294/294/294 413/413/413
f 426/426/426 420/420/420 422/422/422
f 415/415/415 422/422/422 420/420/420
f 398/398/398 377/377/377 420/420/420
f 373/373/373 420/420/420 377/377/377
f 420/420/420 426/426/426 398/398/398
f 167/167/167 103/103/103 129/129/129
f 41/41/41 129/129/129 103/103/103
f 41/41/41 99/99/99 129/129/129
f 176/176/176 129/129/129 99/99/99
f 215/215/215 221/221/221 129/129/129
f 253/253/253 129/129/129 221/221/221
f 129/129/129 253/253/253 293/293/293
f 429/429/429 293/293/293 253/253/253
f 429/429/429 446/446/446 293/293/293
f 510/510/510 293/293/293 446/446/446
f 510/510/510 546/546/546 293/293/293
f 514/514/514 293/293/293 546/546/546
f 514/514/514 477/477/477 293/293/293
f 423/423/423 293/293/293 477/477/477
f 258/258/258 228/228/228 259/259/259
f 219/219/219 259/259/259 228/228/228
f 228/228/228 180/180/180 219/219/219
f 194/194/194 219/219/219 180/180/180
f 196/196/196 181/181/181 171/171/171
f 168/168/168 171/171/171 181/181/181
f 104/104/104 168/168/168 102/102/102
f 181/181/181 102/102/102 168/168/168
f 102/102/102 96/96/96 104/104/104
f 96/96/96 40/40/40 104/104/104
f 42/42/42 104/104/104 40/40/40
f 40/40/40 94/94/94 42/42/42
f 100/100/100 42/42/42 94/94/94
f 94/94/94 98/98/98 100/100/100
f 98/98/98 175/175/175 100/100/100
f 178/178/178 100/100/100 175/175/175
f 174/174/174 198/198/198 177/177/177
f 218/218/218 177/177/177 198/198/198
f 217/217/217 226/226/226 223/223/223
f 254/254/254 222/222/222 255/255/255
f 224/224/224 255/255/255 222/222/222
f 430/430/430 254/254/254 432/432/432
f 255/255/255 432/432/432 254/254/254
f 434/434/434 449/449/449 431/431/431
f 448/448/448 467/467/467 473/473/473
f 470/470/470 473/473/473 467/467/467
f 468/468/468 508/508/508 472/472/472
f 511/511/511 472/472/472 508/508/508
f 508/508/508 526/526/526 511/511/511
f 547/547/547 511/511/511 526/526/526
f 526/526/526 544/544/544 547/547/547
f 547/547/547 544/544/544 515/515/515
f 524/524/524 515/515/515 544/544/544
f 524/524/524 512/512/512 515/515/515
f 515/515/515 512/512/512 478/478/478
f 474/474/474 478/478/478 512/512/512
f 479/479/479 476/476/476 425/425/425
f 437/437/437 425/425/425 476/476/476
f 424/424/424 436/436/436 258/258/258
f 427/427/427 424/424/424 259/259/259
f 258/258/258 259/259/259 424/424/424
f 586/586/586 256/256/256 33/33/33
f 225/225/225 33/33/33 256/256/256
f 256/256/256 586/586/586 433/433/433
f 433/433/433 586/586/586 447/447/447
f 216/216/216 33/33/33 225/225/225
f 197/197/197 29/29/29 216/216/216
f 33/33/33 216/216/216 29/29/29
f 466/466/466 447/447/447 590/590/590
f 586/586/586 590/590/590 447/447/447
f 584/584/584 586/586/586 38/38/38
f 33/33/33 38/38/38 586/586/586
f 588/588/588 583/583/583 35/35/35
f 37/37/37 35/35/35 583/583/583
f 592/592/592 588/588/588 31/31/31
f 35/35/35 31/31/31 588/588/588
f 95/95/95 20/20/20 39/39/39
f 25/25/25 39/39/39 20/20/20
f 25/25/25 93/93/93 39/39/39
f 25/25/25 97/97/97 93/93/93
f 97/97/97 25/25/25 173/173/173
f 29/29/29 173/173/173 25/25/25
f 29/29/29 197/197/197 173/173/173
f 545/545/545 594/594/594 525/525/525
f 631/631/631 525/525/525 594/594/594
f 545/545/545 527/527/527 594/594/594
f 527/527/527 509/509/509 594/594/594
f 469/469/469 590/590/590 509/509/509
f 594/594/594 509/509/509 590/590/590
f 469/469/469 466/466/466 590/590/590
f 435/435/435 676/676/676 257/257/257
f 263/263/263 257/257/257 676/676/676
f 475/475/475 631/631/631 435/435/435
f 676/676/676 435/435/435 631/631/631
f 475/475/475 513/513/513 631/631/631
f 513/513/513 525/525/525 631/631/631
f 101/101/101 20/20/20 95/95/95
f 179/179/179 20/20/20 101/101/101
f 227/227/227 49/49/49 179/179/179
f 20/20/20 179/179/179 49/49/49
f 227/227/227 257/257/257 49/49/49
f 263/263/263 49/49/49 257/257/257
f 59/59/59 271/271/271 3/3/3
f 716/716/716 3/3/3 271/271/271
f 716/716/716 271/271/271 564/564/564
f 559/559/559 716/716/716 564/564/564
f 554/554/554 694/694/694 559/559/559
f 716/716/716 559/559/559 694/694/694
f 263/263/263 676/676/676 554/554/554
f 694/694/694 554/554/554 676/676/676
f 49/49/49 54/54/54 20/20/20
f 3/3/3 20/20/20 54/54/54
f 3/3/3 54/54/54 59/59/59
f 176/176/176 215/215/215 129/129/129
f 446/446/446 471/471/471 510/510/510
f 316/316/316 294/294/294 369/369/369
f 413/413/413 422/422/422 415/415/415
f 558/558/558 540/540/540 563/563/563
f 543/543/543 563/563/563 540/540/540
f 540/540/540 532/532/532 543/543/543
f 535/535/535 543/543/543 532/532/532
f 532/532/532 520/520/520 535/535/535
f 523/523/523 535/535/535 520/520/520
f 520/520/520 504/504/504 523/523/523
f 507/507/507 523/523/523 504/504/504
f 504/504/504 496/496/496 507/507/507
f 499/499/499 507/507/507 496/496/496
f 496/496/496 487/487/487 499/499/499
f 491/491/491 499/499/499 487/487/487
f 486/486/486 462/462/462 490/490/490
f 465/465/465 490/490/490 462/462/462
f 462/462/462 454/454/454 465/465/465
f 457/457/457 465/465/465 454/454/454
f 454/454/454 442/442/442 457/457/457
f 445/445/445 457/457/457 442/442/442
f 442/442/442 289/289/289 445/445/445
f 292/292/292 445/445/445 289/289/289
f 289/289/289 281/281/281 292/292/292
f 284/284/284 292/292/292 281/281/281
f 281/281/281 269/269/269 284/284/284
f 274/274/274 284/284/284 269/269/269
f 270/270/270 249/249/249 275/275/275
f 252/252/252 275/275/275 249/249/249
f 249/249/249 241/241/241 252/252/252
f 244/244/244 252/252/252 241/241/241
f 241/241/241 233/233/233 244/244/244
f 236/236/236 244/244/244 233/233/233
f 233/233/233 211/211/211 236/236/236
f 214/214/214 236/236/236 211/211/211
f 211/211/211 203/203/203 214/214/214
f 206/206/206 214/214/214 203/203/203
f 203/203/203 188/188/188 206/206/206
f 192/192/192 206/206/206 188/188/188
f 189/189/189 125/125/125 193/193/193
f 128/128/128 193/193/193 125/125/125
f 125/125/125 117/117/117 128/128/128
f 120/120/120 128/128/128 117/117/117
f 117/117/117 109/109/109 120/120/120
f 112/112/112 120/120/120 109/109/109
f 109/109/109 89/89/89 112/112/112
f 92/92/92 112/112/112 89/89/89
f 89/89/89 81/81/81 92/92/92
f 84/84/84 92/92/92 81/81/81
f 81/81/81 53/53/53 84/84/84
f 58/58/58 84/84/84 53/53/53
f 52/52/52 77/77/77 57/57/57
f 80/80/80 57/57/57 77/77/77
f 77/77/77 85/85/85 80/80/80
f 88/88/88 80/80/80 85/85/85
f 85/85/85 105/105/105 88/88/88
f 108/108/108 88/88/88 105/105/105
f 105/105/105 113/113/113 108/108/108
f 116/116/116 108/108/108 113/113/113
f 113/113/113 121/121/121 116/116/116
f 124/124/124 116/116/116 121/121/121
f 121/121/121 182/182/182 124/124/124
f 186/186/186 124/124/124 182/182/182
f 183/183/183 199/199/199 187/187/187
f 202/202/202 187/187/187 199/199/199
f 199/199/199 207/207/207 202/202/202
f 210/210/210 202/202/202 207/207/207
f 207/207/207 229/229/229 210/210/210
f 232/232/232 210/210/210 229/229/229
f 229/229/229 237/237/237 232/232/232
f 240/240/240 232/232/232 237/237/237
f 237/237/237 245/245/245 240/240/240
f 248/248/248 240/240/240 245/245/245
f 245/245/245 262/262/262 248/248/248
f 268/268/268 248/248/248 262/262/262
f 261/261/261 277/277/277 267/267/267
f 280/280/280 267/267/267 277/277/277
f 277/277/277 285/285/285 280/280/280
f 288/288/288 280/280/280 285/285/285
f 285/285/285 438/438/438 288/288/288
f 441/441/441 288/288/288 438/438/438
f 438/438/438 450/450/450 441/441/441
f 453/453/453 441/441/441 450/450/450
f 450/450/450 458/458/458 453/453/453
f 461/461/461 453/453/453 458/458/458
f 458/458/458 481/481/481 461/461/461
f 485/485/485 461/461/461 481/481/481
f 480/480/480 492/492/492 484/484/484
f 495/495/495 484/484/484 492/492/492
f 492/492/492 500/500/500 495/495/495
f 503/503/503 495/495/495 500/500/500
f 500/500/500 516/516/516 503/503/503
f 519/519/519 503/503/503 516/516/516
f 516/516/516 528/528/528 519/519/519
f 531/531/531 519/519/519 528/528/528
f 528/528/528 536/536/536 531/531/531
f 539/539/539 531/531/531 536/536/536
f 536/536/536 557/557/557 539/539/539
f 562/562/562 539/539/539 557/557/557
f 560/560/560 542/542/542 567/567/567
f 542/542/542 534/534/534 567/567/567
f 534/534/534 522/522/522 567/567/567
f 522/522/522 506/506/506 567/567/567
f 506/506/506 498/498/498 567/567/567
f 498/498/498 489/489/489 567/567/567
f 489/489/489 464/464/464 567/567/567
f 464/464/464 456/456/456 567/567/567
f 456/456/456 444/444/444 567/567/567
f 444/444/444 291/291/291 567/567/567
f 291/291/291 283/283/283 567/567/567
f 283/283/283 273/273/273 567/567/567
f 272/272/272 251/251/251 62/62/62
f 251/251/251 243/243/243 62/62/62
f 243/243/243 235/235/235 62/62/62
f 235/235/235 213/213/213 62/62/62
f 213/213/213 205/205/205 62/62/62
f 205/205/205 191/191/191 62/62/62
f 191/191/191 127/127/127 62/62/62
f 127/127/127 119/119/119 62/62/62
f 119/119/119 111/111/111 62/62/62
f 111/111/111 91/91/91 62/62/62
f 91/91/91 83/83/83 62/62/62
f 83/83/83 56/56/56 62/62/62
f 55/55/55 79/79/79 50/50/50
f 79/79/79 87/87/87 50/50/50
f 87/87/87 107/107/107 50/50/50
f 107/107/107 115/115/115 50/50/50
f 115/115/115 123/123/123 50/50/50
f 123/123/123 185/185/185 50/50/50
f 185/185/185 201/201/201 50/50/50
f 201/201/201 209/209/209 50/50/50
f 209/209/209 231/231/231 50/50/50
f 231/231/231 239/239/239 50/50/50
f 239/239/239 247/247/247 50/50/50
f 247/247/247 264/264/264 50/50/50
f 266/266/266 279/279/279 556/556/556
f 279/279/279 287/287/287 556/556/556
f 287/287/287 440/440/440 556/556/556
f 440/440/440 452/452/452 556/556/556
f 452/452/452 460/460/460 556/556/556
f 460/460/460 483/483/483 556/556/556
f 483/483/483 494/494/494 556/556/556
f 494/494/494 502/502/502 556/556/556
f 502/502/502 518/518/518 556/556/556
f 518/518/518 530/530/530 556/556/556
f 530/530/530 538/538/538 556/556/556
f 538/538/538 561/561/561 556/556/556
f 551/551/551 569/569/569 47/47/47
f 66/66/66 47/47/47 569/569/569
f 43/43/43 548/548/548 48/48/48
f 553/553/553 48/48/48 548/548/548
f 549/549/549 566/566/566 552/552/552
f 572/572/572 552/552/552 566/566/566
f 60/60/60 44/44/44 65/65/65
f 46/46/46 65/65/65 44/44/44
f 580/580/580 74/74/74 575/575/575
f 69/69/69 575/575/575 74/74/74
f 571/571/571 574/574/574 64/64/64
f 68/68/68 64/64/64 574/574/574
f 671/671/671 668/668/668 418/418/418
f 411/411/411 418/418/418 668/668/668
f 668/668/668 666/666/666 411/411/411
f 409/409/409 411/411/411 666/666/666
f 666/666/666 663/663/663 409/409/409
f 406/406/406 409/409/409 663/663/663
f 663/663/663 660/660/660 406/406/406
f 403/403/403 406/406/406 660/660/660
f 660/660/660 657/657/657 403/403/403
f 400/400/400 403/403/403 657/657/657
f 657/657/657 653/653/653 400/400/400
f 394/394/394 400/400/400 653/653/653
f 654/654/654 650/650/650 395/395/395
f 391/391/391 395/395/395 650/650/650
f 650/650/650 648/648/648 391/391/391
f 389/389/389 391/391/391 648/648/648
f 648/648/648 645/645/645 389/389/389
f 386/386/386 389/389/389 645/645/645
f 645/645/645 642/642/642 386/386/386
f 383/383/383 386/386/386 642/642/642
f 642/642/642 640/640/640 383/383/383
f 381/381/381 383/383/383 640/640/640
f 640/640/640 634/634/634 381/381/381
f 371/371/371 381/381/381 634/634/634
f 633/633/633 628/628/628 371/371/371
f 365/365/365 371/371/371 628/628/628
f 628/628/628 626/626/626 365/365/365
f 362/362/362 365/365/365 626/626/626
f 626/626/626 623/623/623 362/362/362
f 357/357/357 362/362/362 623/623/623
f 623/623/623 620/620/620 357/357/357
f 353/353/353 357/357/357 620/620/620
f 620/620/620 617/617/617 353/353/353
f 347/347/347 353/353/353 617/617/617
f 617/617/617 614/614/614 347/347/347
f 344/344/344 347/347/347 614/614/614
f 613/613/613 610/610/610 343/343/343
f 337/337/337 343/343/343 610/610/610
f 610/610/610 608/608/608 337/337/337
f 334/334/334 337/337/337 608/608/608
f 608/608/608 605/605/605 334/334/334
f 331/331/331 334/334/334 605/605/605
f 605/605/605 602/602/602 331/331/331
f 327/327/327 331/331/331 602/602/602
f 602/602/602 600/600/600 327/327/327
f 324/324/324 327/327/327 600/600/600
f 600/600/600 598/598/598 324/324/324
f 320/320/320 324/324/324 598/598/598
f 599/599/599 601/601/601 321/321/321
f 326/326/326 321/321/321 601/601/601
f 601/601/601 603/603/603 326/326/326
f 329/329/329 326/326/326 603/603/603
f 603/603/603 607/607/607 329/329/329
f 333/333/333 329/329/329 607/607/607
f 607/607/607 609/609/609 333/333/333
f 336/336/336 333/333/333 609/609/609
f 609/609/609 611/611/611 336/336/336
f 339/339/339 336/336/336 611/611/611
f 611/611/611 616/616/616 339/339/339
f 346/346/346 339/339/339 616/616/616
f 616/616/616 619/619/619 346/346/346
f 350/350/350 346/346/346 619/619/619
f 618/618/618 621/621/621 349/349/349
f 355/355/355 349/349/349 621/621/621
f 621/621/621 625/625/625 355/355/355
f 359/359/359 355/355/355 625/625/625
f 625/625/625 627/627/627 359/359/359
f 364/364/364 359/359/359 627/627/627
f 627/627/627 629/629/629 364/364/364
f 367/367/367 364/364/364 629/629/629
f 629/629/629 636/636/636 367/367/367
f 375/375/375 367/367/367 636/636/636
f 637/637/637 641/641/641 376/376/376
f 382/382/382 376/376/376 641/641/641
f 641/641/641 643/643/643 382/382/382
f 384/384/384 382/382/382 643/643/643
f 643/643/643 647/647/647 384/384/384
f 388/388/388 384/384/384 647/647/647
f 647/647/647 649/649/649 388/388/388
f 390/390/390 388/388/388 649/649/649
f 649/649/649 651/651/651 390/390/390
f 392/392/392 390/390/390 651/651/651
f 651/651/651 656/656/656 392/392/392
f 397/397/397 392/392/392 656/656/656
f 656/656/656 659/659/659 397/397/397
f 402/402/402 397/397/397 659/659/659
f 658/658/658 661/661/661 401/401/401
f 404/404/404 401/401/401 661/661/661
f 661/661/661 665/665/665 404/404/404
f 408/408/408 404/404/404 665/665/665
f 665/665/665 667/667/667 408/408/408
f 410/410/410 408/408/408 667/667/667
f 667/667/667 669/669/669 410/410/410
f 412/412/412 410/410/410 669/669/669
f 669/669/669 672/672/672 412/412/412
f 419/419/419 412/412/412 672/672/672
f 137/137/137 140/140/140 134/134/134
f 161/161/161 132/132/132 139/139/139
f 142/142/142 144/144/144 139/139/139
f 161/161/161 139/139/139 144/144/144
f 146/146/146 148/148/148 144/144/144
f 161/161/161 144/144/144 148/148/148
f 150/150/150 153/153/153 148/148/148
f 161/161/161 148/148/148 153/153/153
f 155/155/155 157/157/157 153/153/153
f 161/161/161 153/153/153 157/157/157
f 159/159/159 163/163/163 157/157/157
f 161/161/161 157/157/157 163/163/163
f 299/299/299 301/301/301 135/135/135
f 138/138/138 135/135/135 301/301/301
f 301/301/301 303/303/303 138/138/138
f 141/141/141 138/138/138 303/303/303
f 303/303/303 305/305/305 141/141/141
f 143/143/143 141/141/141 305/305/305
f 305/305/305 307/307/307 143/143/143
f 145/145/145 143/143/143 307/307/307
f 307/307/307 309/309/309 145/145/145
f 147/147/147 145/145/145 309/309/309
f 309/309/309 311/311/311 147/147/147
f 149/149/149 147/147/147 311/311/311
f 311/311/311 314/314/314 149/149/149
f 152/152/152 149/149/149 314/314/314
f 313/313/313 323/323/323 151/151/151
f 154/154/154 151/151/151 323/323/323
f 323/323/323 341/341/341 154/154/154
f 156/156/156 154/154/154 341/341/341
f 341/341/341 352/352/352 156/156/156
f 158/158/158 156/156/156 352/352/352
f 352/352/352 361/361/361 158/158/158
f 160/160/160 158/158/158 361/361/361
f 361/361/361 379/379/379 160/160/160
f 164/164/164 160/160/160 379/379/379
f 300/300/300 296/296/296 325/325/325
f 319/319/319 325/325/325 296/296/296
f 302/302/302 300/300/300 328/328/328
f 325/325/325 328/328/328 300/300/300
f 304/304/304 302/302/302 332/332/332
f 328/328/328 332/332/332 302/302/302
f 306/306/306 304/304/304 335/335/335
f 332/332/332 335/335/335 304/304/304
f 308/308/308 306/306/306 338/338/338
f 335/335/335 338/338/338 306/306/306
f 310/310/310 308/308/308 345/345/345
f 338/338/338 345/345/345 308/308/308
f 312/312/312 310/310/310 348/348/348
f 345/345/345 348/348/348 310/310/310
f 322/322/322 312/312/312 354/354/354
f 348/348/348 354/354/354 312/312/312
f 340/340/340 322/322/322 358/358/358
f 354/354/354 358/358/358 322/322/322
f 351/351/351 340/340/340 363/363/363
f 358/358/358 363/363/363 340/340/340
f 360/360/360 351/351/351 366/366/366
f 363/363/363 366/366/366 351/351/351
f 378/378/378 360/360/360 374/374/374
f 366/366/366 374/374/374 360/360/360
f 372/372/372 387/387/387 421/421/421
f 387/387/387 396/396/396 421/421/421
f 396/396/396 407/407/407 421/421/421
f 407/407/407 416/416/416 421/421/421
f 417/417/417 405/405/405 414/414/414
f 405/405/405 393/393/393 414/414/414
f 393/393/393 385/385/385 414/414/414
f 385/385/385 370/370/370 414/414/414
f 368/368/368 356/356/356 315/315/315
f 356/356/356 342/342/342 315/315/315
f 342/342/342 330/330/330 315/315/315
f 330/330/330 317/317/317 315/315/315
f 559/559/559 564/564/564 541/541/541
f 541/541/541 564/564/564 533/533/533
f 533/533/533 564/564/564 521/521/521
f 521/521/521 564/564/564 505/505/505
f 505/505/505 564/564/564 497/497/497
f 497/497/497 564/564/564 488/488/488
f 488/488/488 564/564/564 463/463/463
f 463/463/463 564/564/564 455/455/455
f 455/455/455 564/564/564 443/443/443
f 443/443/443 564/564/564 290/290/290
f 290/290/290 564/564/564 282/282/282
f 282/282/282 564/564/564 271/271/271
f 271/271/271 59/59/59 250/250/250
f 250/250/250 59/59/59 242/242/242
f 242/242/242 59/59/59 234/234/234
f 234/234/234 59/59/59 212/212/212
f 212/212/212 59/59/59 204/204/204
f 204/204/204 59/59/59 190/190/190
f 190/190/190 59/59/59 126/126/126
f 126/126/126 59/59/59 118/118/118
f 118/118/118 59/59/59 110/110/110
f 110/110/110 59/59/59 90/90/90
f 90/90/90 59/59/59 82/82/82
f 82/82/82 59/59/59 54/54/54
f 54/54/54 49/49/49 78/78/78
f 78/78/78 49/49/49 86/86/86
f 86/86/86 49/49/49 106/106/106
f 106/106/106 49/49/49 114/114/114
f 114/114/114 49/49/49 122/122/122
f 122/122/122 49/49/49 184/184/184
f 184/184/184 49/49/49 200/200/200
f 200/200/200 49/49/49 208/208/208
f 208/208/208 49/49/49 230/230/230
f 230/230/230 49/49/49 238/238/238
f 238/238/238 49/49/49 246/246/246
f 246/246/246 49/49/49 263/263/263
f 263/263/263 554/554/554 278/278/278
f 278/278/278 554/554/554 286/286/286
f 286/286/286 554/554/554 439/439/439
f 439/439/439 554/554/554 451/451/451
f 451/451/451 554/554/554 459/459/459
f 459/459/459 554/554/554 482/482/482
f 482/482/482 554/554/554 493/493/493
f 493/493/493 554/554/554 501/501/501
f 501/501/501 554/554/554 517/517/517
f 517/517/517 554/554/554 529/529/529
f 529/529/529 554/554/554 537/537/537
f 537/537/537 554/554/554 559/559/559
