mtllib slope_curved_1*4*2:3_double_magenta.mtl
v 0 1.000079 -39.00001
v 0 4.000076 -36
v 0 16.00008 -35.99999
v 0 19.00008 -38.99999
v 0 0.9999976 38.99999
v 0 4 36
v 0 19 39.00001
v 0 16 36.00001
v -1 7.979086E-05 -40.00001
v -1 1.000079 -39.00001
v -1 19.00008 -38.99999
v -1 20.00008 -39.99999
v -1 -3.496912E-06 39.99999
v -1 0.9999976 38.99999
v -1 20 40.00001
v -1 19 39.00001
v -6 4.00004 -1.500005
v -4 4.00004 -1.500005
v -4 6.29804 -1.500003
v -10.604 6.29804 -1.500003
v -10.243 5.75704 -1.500004
v -8.296 4.45704 -1.500005
v -6 4.000037 1.499995
v -8.296 4.457037 1.499995
v -10.243 5.757037 1.499996
v -10.604 6.298037 1.499997
v -4 6.298037 1.499997
v -4 4.000037 1.499995
v -6 16.00004 -1.499993
v -10.604 13.70204 -1.499995
v -4 13.70204 -1.499995
v -4 16.00004 -1.499993
v -8.296 15.54304 -1.499993
v -10.243 14.24304 -1.499995
v -6 16.00004 1.500007
v -10.604 13.70204 1.500005
v -10.243 14.24304 1.500005
v -8.296 15.54304 1.500007
v -4 16.00004 1.500007
v -4 13.70204 1.500005
v -6 4.000061 -21.50001
v -4 4.000061 -21.50001
v -4 6.29806 -21.5
v -10.604 6.29806 -21.5
v -10.243 5.757061 -21.5
v -8.296 4.457061 -21.50001
v -6 4.000057 -18.50001
v -8.296 4.457057 -18.50001
v -10.243 5.757057 -18.5
v -10.604 6.298058 -18.5
v -4 6.298058 -18.5
v -4 4.000057 -18.50001
v -6 16.00006 -21.49999
v -10.604 13.70206 -21.5
v -4 13.70206 -21.5
v -4 16.00006 -21.49999
v -8.296 15.54306 -21.49999
v -10.243 14.24306 -21.49999
v -6 16.00006 -18.49999
v -10.604 13.70206 -18.5
v -10.243 14.24306 -18.49999
v -8.296 15.54306 -18.49999
v -4 16.00006 -18.49999
v -4 13.70206 -18.5
v -6 4.000019 18.49999
v -4 4.000019 18.49999
v -4 6.298019 18.5
v -10.604 6.298019 18.5
v -10.243 5.757019 18.5
v -8.296 4.457019 18.49999
v -6 4.000016 21.49999
v -8.296 4.457016 21.49999
v -10.243 5.757016 21.5
v -10.604 6.298016 21.5
v -4 6.298016 21.5
v -4 4.000016 21.49999
v -6 16.00002 18.50001
v -10.604 13.70202 18.5
v -4 13.70202 18.5
v -4 16.00002 18.50001
v -8.296 15.54302 18.50001
v -10.243 14.24302 18.50001
v -6 16.00002 21.50001
v -10.604 13.70202 21.5
v -10.243 14.24302 21.50001
v -8.296 15.54302 21.50001
v -4 16.00002 21.50001
v -4 13.70202 21.5
v -6 20.00008 -39.99999
v -1 20.00008 -39.99999
v -1 7.979086E-05 -40.00001
v -6 7.979086E-05 -40.00001
v -6 7.979086E-05 -40.00001
v -1 7.979086E-05 -40.00001
v -1 -3.496912E-06 39.99999
v -6 -3.496912E-06 39.99999
v -6 -3.496912E-06 39.99999
v -1 -3.496912E-06 39.99999
v -1 20 40.00001
v -6 20 40.00001
v -6 20 40.00001
v -1 20 40.00001
v -1 20.00008 -39.99999
v -6 20.00008 -39.99999
v -6 16.00008 -35.99999
v 0 16.00008 -35.99999
v 0 4.000076 -36
v -6 4.000076 -36
v -6 4.000076 -36
v 0 4.000076 -36
v 0 4 36
v -6 4 36
v -6 4 36
v 0 4 36
v 0 16 36.00001
v -6 16 36.00001
v -6 16 36.00001
v 0 16 36.00001
v 0 16.00008 -35.99999
v -6 16.00008 -35.99999
v 0 19.00008 -38.99999
v -1 19.00008 -38.99999
v -1 1.000079 -39.00001
v 0 1.000079 -39.00001
v 0 1.000079 -39.00001
v -1 1.000079 -39.00001
v -1 0.9999976 38.99999
v 0 0.9999976 38.99999
v 0 0.9999976 38.99999
v -1 0.9999976 38.99999
v -1 19 39.00001
v 0 19 39.00001
v 0 19 39.00001
v -1 19 39.00001
v -1 19.00008 -38.99999
v 0 19.00008 -38.99999
v -7.305 19.91408 -39.99999
v -7.305 19.914 40.00001
v -8.588 19.65908 -39.99999
v -8.588 19.659 40.00001
v -9.827 19.23908 -39.99999
v -9.827 19.239 40.00001
v -11 18.66008 -39.99999
v -11 18.66 40.00001
v -12.088 17.93408 -39.99999
v -12.088 17.934 40.00001
v -13.071 17.07108 -39.99999
v -13.071 17.071 40.00001
v -13.934 16.08808 -39.99999
v -13.934 16.088 40.00001
v -14.66 15.00008 -39.99999
v -14.66 15 40.00001
v -15.239 13.82708 -40
v -15.239 13.827 40
v -15.659 12.58808 -40
v -15.659 12.588 40
v -15.914 11.30508 -40
v -15.914 11.305 40
v -16 10.00008 -40
v -16 9.999996 40
v -15.914 8.69508 -40
v -15.914 8.694997 40
v -15.659 7.41208 -40
v -15.659 7.411996 40
v -15.239 6.17308 -40
v -15.239 6.172997 40
v -14.66 5.00008 -40
v -14.66 4.999997 40
v -13.934 3.91208 -40
v -13.934 3.911997 40
v -13.071 2.92908 -40.00001
v -13.071 2.928997 39.99999
v -12.088 2.06608 -40.00001
v -12.088 2.065996 39.99999
v -11 1.34008 -40.00001
v -11 1.339997 39.99999
v -9.827 0.7610795 -40.00001
v -9.827 0.7609962 39.99999
v -8.588 0.3410794 -40.00001
v -8.588 0.3409961 39.99999
v -7.305 0.08608023 -40.00001
v -7.305 0.08599695 39.99999
v -6.783 15.94848 -35.99999
v -6.783 15.9484 36.00001
v -7.5528 15.79548 -35.99999
v -7.5528 15.7954 36.00001
v -8.2962 15.54348 -35.99999
v -8.2962 15.5434 36.00001
v -9 15.19608 -35.99999
v -9 15.196 36.00001
v -9.6528 14.76048 -35.99999
v -9.6528 14.7604 36.00001
v -10.2426 14.24268 -36
v -10.2426 14.2426 36
v -10.7604 13.65288 -36
v -10.7604 13.6528 36
v -11.196 13.00008 -36
v -11.196 13 36
v -11.5434 12.29628 -36
v -11.5434 12.2962 36
v -11.7954 11.55288 -36
v -11.7954 11.5528 36
v -11.9484 10.78308 -36
v -11.9484 10.783 36
v -12 10.00008 -36
v -12 10 36
v -11.9484 9.217075 -36
v -11.9484 9.217001 36
v -11.7954 8.447276 -36
v -11.7954 8.447201 36
v -11.5434 7.703876 -36
v -11.5434 7.703801 36
v -11.196 7.000076 -36
v -11.196 7 36
v -10.7604 6.347276 -36
v -10.7604 6.3472 36
v -10.2426 5.757476 -36
v -10.2426 5.757401 36
v -9.6528 5.239676 -36
v -9.6528 5.239601 36
v -9 4.804076 -36
v -9 4.804 36
v -8.2962 4.456676 -36
v -8.2962 4.456601 36
v -7.5528 4.204676 -36
v -7.5528 4.2046 36
v -6.783 4.051676 -36
v -6.783 4.0516 36
v -7.305 0.08599695 39.99999
v -7.305 19.914 40.00001
v -8.588 0.3409961 39.99999
v -8.588 19.659 40.00001
v -9.827 0.7609962 39.99999
v -9.827 19.239 40.00001
v -11 1.339997 39.99999
v -11 18.66 40.00001
v -12.088 2.065996 39.99999
v -12.088 17.934 40.00001
v -13.071 2.928997 39.99999
v -13.071 17.071 40.00001
v -13.934 3.911997 40
v -13.934 16.088 40.00001
v -14.66 4.999997 40
v -14.66 15 40.00001
v -15.239 6.172997 40
v -15.239 13.827 40
v -15.659 7.411996 40
v -15.659 12.588 40
v -15.914 8.694997 40
v -15.914 11.305 40
v -16 9.999996 40
v -6.783 4.0516 36
v -6.783 15.9484 36.00001
v -7.5528 4.2046 36
v -7.5528 15.7954 36.00001
v -8.2962 4.456601 36
v -8.2962 15.5434 36.00001
v -9 4.804 36
v -9 15.196 36.00001
v -9.6528 5.239601 36
v -9.6528 14.7604 36.00001
v -10.2426 5.757401 36
v -10.2426 14.2426 36
v -10.7604 6.3472 36
v -10.7604 13.6528 36
v -11.196 7 36
v -11.196 13 36
v -11.5434 7.703801 36
v -11.5434 12.2962 36
v -11.7954 8.447201 36
v -11.7954 11.5528 36
v -11.9484 9.217001 36
v -11.9484 10.783 36
v -12 10 36
v -7.305 0.08608023 -40.00001
v -7.305 19.91408 -39.99999
v -8.588 0.3410794 -40.00001
v -8.588 19.65908 -39.99999
v -9.827 0.7610795 -40.00001
v -9.827 19.23908 -39.99999
v -11 1.34008 -40.00001
v -11 18.66008 -39.99999
v -12.088 2.06608 -40.00001
v -12.088 17.93408 -39.99999
v -13.071 2.92908 -40.00001
v -13.071 17.07108 -39.99999
v -13.934 3.91208 -40
v -13.934 16.08808 -39.99999
v -14.66 5.00008 -40
v -14.66 15.00008 -39.99999
v -15.239 6.17308 -40
v -15.239 13.82708 -40
v -15.659 7.41208 -40
v -15.659 12.58808 -40
v -15.914 8.69508 -40
v -15.914 11.30508 -40
v -16 10.00008 -40
v -6.783 4.051676 -36
v -6.783 15.94848 -35.99999
v -7.5528 4.204676 -36
v -7.5528 15.79548 -35.99999
v -8.2962 4.456676 -36
v -8.2962 15.54348 -35.99999
v -9 4.804076 -36
v -9 15.19608 -35.99999
v -9.6528 5.239676 -36
v -9.6528 14.76048 -35.99999
v -10.2426 5.757476 -36
v -10.2426 14.24268 -36
v -10.7604 6.347276 -36
v -10.7604 13.65288 -36
v -11.196 7.000076 -36
v -11.196 13.00008 -36
v -11.5434 7.703876 -36
v -11.5434 12.29628 -36
v -11.7954 8.447276 -36
v -11.7954 11.55288 -36
v -11.9484 9.217075 -36
v -11.9484 10.78308 -36
v -12 10.00008 -36
v 0 9.478043 -3.9656
v 0 10.00004 -3.999999
v 0 10.00004 8.742311E-07
v 0 8.964842 -3.8636
v 0 8.469242 -3.695601
v 0 8.000042 -3.464001
v 0 7.564841 -3.173602
v 0 7.171641 -2.828402
v 0 6.826441 -2.435202
v 0 6.53604 -2.000003
v 0 6.30444 -1.530803
v 0 6.136439 -1.035203
v 0 6.034439 -0.5220033
v 0 6.000038 -3.290157E-06
v 0 6.034438 0.5219967
v 0 6.136437 1.035197
v 0 6.304437 1.530797
v 0 6.536036 1.999997
v 0 6.826436 2.435198
v 0 7.171635 2.828398
v 0 7.564835 3.173598
v 0 8.000034 3.463999
v 0 8.469234 3.695599
v 0 8.964834 3.8636
v 0 9.478034 3.9656
v 0 10.00003 4.000001
v 0 10.52203 3.965601
v 0 11.03523 3.863602
v 0 11.53083 3.695602
v 0 12.00003 3.464003
v 0 12.43524 3.173603
v 0 12.82843 2.828404
v 0 13.17364 2.435204
v 0 13.46404 2.000005
v 0 13.69564 1.530805
v 0 13.86364 1.035205
v 0 13.96564 0.522005
v 0 14.00004 5.03862E-06
v 0 13.96564 -0.521995
v 0 13.86364 -1.035195
v 0 13.69564 -1.530795
v 0 13.46404 -1.999995
v 0 13.17364 -2.435196
v 0 12.82844 -2.828396
v 0 12.43524 -3.173597
v 0 12.00004 -3.463997
v 0 11.53084 -3.695597
v 0 11.03524 -3.863598
v 0 10.52204 -3.965599
v -12 9.478043 -3.9656
v -12 10.00004 -3.999999
v 0 10.00004 -3.999999
v 0 9.478043 -3.9656
v -12 8.964842 -3.8636
v 0 8.964842 -3.8636
v -12 8.469242 -3.695601
v 0 8.469242 -3.695601
v -12 8.000042 -3.464001
v 0 8.000042 -3.464001
v -12 7.564841 -3.173602
v 0 7.564841 -3.173602
v -12 7.171641 -2.828402
v 0 7.171641 -2.828402
v -12 6.826441 -2.435202
v 0 6.826441 -2.435202
v -12 6.53604 -2.000003
v 0 6.53604 -2.000003
v -12 6.30444 -1.530803
v 0 6.30444 -1.530803
v -12 6.136439 -1.035203
v 0 6.136439 -1.035203
v -12 6.034439 -0.5220033
v 0 6.034439 -0.5220033
v -12 6.000038 -3.290157E-06
v 0 6.000038 -3.290157E-06
v -12 6.034438 0.5219967
v 0 6.034438 0.5219967
v -12 6.136437 1.035197
v 0 6.136437 1.035197
v -12 6.304437 1.530797
v 0 6.304437 1.530797
v -12 6.536036 1.999997
v 0 6.536036 1.999997
v -12 6.826436 2.435198
v 0 6.826436 2.435198
v -12 7.171635 2.828398
v 0 7.171635 2.828398
v -12 7.564835 3.173598
v 0 7.564835 3.173598
v -12 8.000034 3.463999
v 0 8.000034 3.463999
v -12 8.469234 3.695599
v 0 8.469234 3.695599
v -12 8.964834 3.8636
v 0 8.964834 3.8636
v -12 9.478034 3.9656
v 0 9.478034 3.9656
v -12 10.00003 4.000001
v 0 10.00003 4.000001
v -12 10.52203 3.965601
v 0 10.52203 3.965601
v -12 11.03523 3.863602
v 0 11.03523 3.863602
v -12 11.53083 3.695602
v 0 11.53083 3.695602
v -12 12.00003 3.464003
v 0 12.00003 3.464003
v -12 12.43524 3.173603
v 0 12.43524 3.173603
v -12 12.82843 2.828404
v 0 12.82843 2.828404
v -12 13.17364 2.435204
v 0 13.17364 2.435204
v -12 13.46404 2.000005
v 0 13.46404 2.000005
v -12 13.69564 1.530805
v 0 13.69564 1.530805
v -12 13.86364 1.035205
v 0 13.86364 1.035205
v -12 13.96564 0.522005
v 0 13.96564 0.522005
v -12 14.00004 5.03862E-06
v 0 14.00004 5.03862E-06
v -12 13.96564 -0.521995
v 0 13.96564 -0.521995
v -12 13.86364 -1.035195
v 0 13.86364 -1.035195
v -12 13.69564 -1.530795
v 0 13.69564 -1.530795
v -12 13.46404 -1.999995
v 0 13.46404 -1.999995
v -12 13.17364 -2.435196
v 0 13.17364 -2.435196
v -12 12.82844 -2.828396
v 0 12.82844 -2.828396
v -12 12.43524 -3.173597
v 0 12.43524 -3.173597
v -12 12.00004 -3.463997
v 0 12.00004 -3.463997
v -12 11.53084 -3.695598
v 0 11.53084 -3.695598
v -12 11.03524 -3.863598
v 0 11.03524 -3.863598
v -12 10.52204 -3.965599
v 0 10.52204 -3.965599
v -4 4.000037 1.499995
v -4 6.298236 1.499997
v -4 6.298239 -1.500003
v -4 4.00004 -1.500005
v -4 16.00004 1.500007
v -4 13.70184 1.500005
v -4 13.70184 -1.499995
v -4 16.00004 -1.499993
v 0 9.478063 -23.9656
v 0 10.00006 -24
v 0 10.00006 -20
v 0 8.964863 -23.8636
v 0 8.469263 -23.6956
v 0 8.000063 -23.464
v 0 7.564862 -23.1736
v 0 7.171662 -22.8284
v 0 6.826461 -22.4352
v 0 6.536061 -22
v 0 6.304461 -21.5308
v 0 6.13646 -21.0352
v 0 6.03446 -20.522
v 0 6.000059 -20
v 0 6.034459 -19.478
v 0 6.136458 -18.9648
v 0 6.304458 -18.4692
v 0 6.536057 -18
v 0 6.826457 -17.5648
v 0 7.171656 -17.1716
v 0 7.564856 -16.8264
v 0 8.000055 -16.536
v 0 8.469255 -16.3044
v 0 8.964855 -16.1364
v 0 9.478055 -16.0344
v 0 10.00005 -16
v 0 10.52205 -16.0344
v 0 11.03525 -16.1364
v 0 11.53086 -16.3044
v 0 12.00006 -16.536
v 0 12.43526 -16.8264
v 0 12.82846 -17.1716
v 0 13.17366 -17.5648
v 0 13.46406 -18
v 0 13.69566 -18.4692
v 0 13.86366 -18.96479
v 0 13.96566 -19.47799
v 0 14.00006 -19.99999
v 0 13.96566 -20.52199
v 0 13.86366 -21.03519
v 0 13.69566 -21.5308
v 0 13.46406 -22
v 0 13.17366 -22.4352
v 0 12.82846 -22.8284
v 0 12.43526 -23.1736
v 0 12.00006 -23.464
v 0 11.53086 -23.6956
v 0 11.03526 -23.8636
v 0 10.52206 -23.9656
v -12 9.478063 -23.9656
v -12 10.00006 -24
v 0 10.00006 -24
v 0 9.478063 -23.9656
v -12 8.964863 -23.8636
v 0 8.964863 -23.8636
v -12 8.469263 -23.6956
v 0 8.469263 -23.6956
v -12 8.000063 -23.464
v 0 8.000063 -23.464
v -12 7.564862 -23.1736
v 0 7.564862 -23.1736
v -12 7.171662 -22.8284
v 0 7.171662 -22.8284
v -12 6.826461 -22.4352
v 0 6.826461 -22.4352
v -12 6.536061 -22
v 0 6.536061 -22
v -12 6.304461 -21.5308
v 0 6.304461 -21.5308
v -12 6.13646 -21.0352
v 0 6.13646 -21.0352
v -12 6.03446 -20.522
v 0 6.03446 -20.522
v -12 6.000059 -20
v 0 6.000059 -20
v -12 6.034459 -19.478
v 0 6.034459 -19.478
v -12 6.136458 -18.9648
v 0 6.136458 -18.9648
v -12 6.304457 -18.4692
v 0 6.304457 -18.4692
v -12 6.536057 -18
v 0 6.536057 -18
v -12 6.826457 -17.5648
v 0 6.826457 -17.5648
v -12 7.171656 -17.1716
v 0 7.171656 -17.1716
v -12 7.564856 -16.8264
v 0 7.564856 -16.8264
v -12 8.000055 -16.536
v 0 8.000055 -16.536
v -12 8.469255 -16.3044
v 0 8.469255 -16.3044
v -12 8.964855 -16.1364
v 0 8.964855 -16.1364
v -12 9.478055 -16.0344
v 0 9.478055 -16.0344
v -12 10.00005 -16
v 0 10.00005 -16
v -12 10.52205 -16.0344
v 0 10.52205 -16.0344
v -12 11.03525 -16.1364
v 0 11.03525 -16.1364
v -12 11.53086 -16.3044
v 0 11.53086 -16.3044
v -12 12.00006 -16.536
v 0 12.00006 -16.536
v -12 12.43526 -16.8264
v 0 12.43526 -16.8264
v -12 12.82846 -17.1716
v 0 12.82846 -17.1716
v -12 13.17366 -17.5648
v 0 13.17366 -17.5648
v -12 13.46406 -18
v 0 13.46406 -18
v -12 13.69566 -18.4692
v 0 13.69566 -18.4692
v -12 13.86366 -18.96479
v 0 13.86366 -18.96479
v -12 13.96566 -19.47799
v 0 13.96566 -19.47799
v -12 14.00006 -19.99999
v 0 14.00006 -19.99999
v -12 13.96566 -20.52199
v 0 13.96566 -20.52199
v -12 13.86366 -21.03519
v 0 13.86366 -21.03519
v -12 13.69566 -21.5308
v 0 13.69566 -21.5308
v -12 13.46406 -22
v 0 13.46406 -22
v -12 13.17366 -22.4352
v 0 13.17366 -22.4352
v -12 12.82846 -22.8284
v 0 12.82846 -22.8284
v -12 12.43526 -23.1736
v 0 12.43526 -23.1736
v -12 12.00006 -23.464
v 0 12.00006 -23.464
v -12 11.53086 -23.6956
v 0 11.53086 -23.6956
v -12 11.03526 -23.8636
v 0 11.03526 -23.8636
v -12 10.52206 -23.9656
v 0 10.52206 -23.9656
v -4 4.000057 -18.50001
v -4 6.298257 -18.5
v -4 6.29826 -21.5
v -4 4.000061 -21.50001
v -4 16.00006 -18.49999
v -4 13.70186 -18.5
v -4 13.70186 -21.5
v -4 16.00006 -21.49999
v 0 9.478022 16.0344
v 0 10.00002 16
v 0 10.00002 20
v 0 8.964822 16.1364
v 0 8.469221 16.3044
v 0 8.000021 16.536
v 0 7.564821 16.8264
v 0 7.17162 17.1716
v 0 6.82642 17.5648
v 0 6.536019 18
v 0 6.304419 18.4692
v 0 6.136418 18.9648
v 0 6.034418 19.478
v 0 6.000017 20
v 0 6.034417 20.522
v 0 6.136416 21.0352
v 0 6.304416 21.5308
v 0 6.536015 22
v 0 6.826415 22.4352
v 0 7.171615 22.8284
v 0 7.564814 23.1736
v 0 8.000013 23.464
v 0 8.469213 23.6956
v 0 8.964813 23.8636
v 0 9.478013 23.9656
v 0 10.00001 24
v 0 10.52201 23.9656
v 0 11.03521 23.8636
v 0 11.53081 23.6956
v 0 12.00001 23.464
v 0 12.43521 23.1736
v 0 12.82841 22.8284
v 0 13.17361 22.4352
v 0 13.46402 22
v 0 13.69562 21.5308
v 0 13.86362 21.03521
v 0 13.96562 20.52201
v 0 14.00002 20.00001
v 0 13.96562 19.47801
v 0 13.86362 18.96481
v 0 13.69562 18.4692
v 0 13.46402 18
v 0 13.17362 17.5648
v 0 12.82842 17.1716
v 0 12.43522 16.8264
v 0 12.00002 16.536
v 0 11.53082 16.3044
v 0 11.03522 16.1364
v 0 10.52202 16.0344
v -12 9.478022 16.0344
v -12 10.00002 16
v 0 10.00002 16
v 0 9.478022 16.0344
v -12 8.964822 16.1364
v 0 8.964822 16.1364
v -12 8.469221 16.3044
v 0 8.469221 16.3044
v -12 8.000021 16.536
v 0 8.000021 16.536
v -12 7.564821 16.8264
v 0 7.564821 16.8264
v -12 7.17162 17.1716
v 0 7.17162 17.1716
v -12 6.82642 17.5648
v 0 6.82642 17.5648
v -12 6.536019 18
v 0 6.536019 18
v -12 6.304419 18.4692
v 0 6.304419 18.4692
v -12 6.136418 18.9648
v 0 6.136418 18.9648
v -12 6.034418 19.478
v 0 6.034418 19.478
v -12 6.000017 20
v 0 6.000017 20
v -12 6.034417 20.522
v 0 6.034417 20.522
v -12 6.136416 21.0352
v 0 6.136416 21.0352
v -12 6.304416 21.5308
v 0 6.304416 21.5308
v -12 6.536015 22
v 0 6.536015 22
v -12 6.826415 22.4352
v 0 6.826415 22.4352
v -12 7.171615 22.8284
v 0 7.171615 22.8284
v -12 7.564814 23.1736
v 0 7.564814 23.1736
v -12 8.000013 23.464
v 0 8.000013 23.464
v -12 8.469213 23.6956
v 0 8.469213 23.6956
v -12 8.964813 23.8636
v 0 8.964813 23.8636
v -12 9.478013 23.9656
v 0 9.478013 23.9656
v -12 10.00001 24
v 0 10.00001 24
v -12 10.52201 23.9656
v 0 10.52201 23.9656
v -12 11.03521 23.8636
v 0 11.03521 23.8636
v -12 11.53081 23.6956
v 0 11.53081 23.6956
v -12 12.00001 23.464
v 0 12.00001 23.464
v -12 12.43521 23.1736
v 0 12.43521 23.1736
v -12 12.82841 22.8284
v 0 12.82841 22.8284
v -12 13.17361 22.4352
v 0 13.17361 22.4352
v -12 13.46402 22
v 0 13.46402 22
v -12 13.69562 21.5308
v 0 13.69562 21.5308
v -12 13.86362 21.03521
v 0 13.86362 21.03521
v -12 13.96562 20.52201
v 0 13.96562 20.52201
v -12 14.00002 20.00001
v 0 14.00002 20.00001
v -12 13.96562 19.47801
v 0 13.96562 19.47801
v -12 13.86362 18.96481
v 0 13.86362 18.96481
v -12 13.69562 18.4692
v 0 13.69562 18.4692
v -12 13.46402 18
v 0 13.46402 18
v -12 13.17362 17.5648
v 0 13.17362 17.5648
v -12 12.82842 17.1716
v 0 12.82842 17.1716
v -12 12.43522 16.8264
v 0 12.43522 16.8264
v -12 12.00002 16.536
v 0 12.00002 16.536
v -12 11.53082 16.3044
v 0 11.53082 16.3044
v -12 11.03522 16.1364
v 0 11.03522 16.1364
v -12 10.52202 16.0344
v 0 10.52202 16.0344
v -4 4.000016 21.49999
v -4 6.298215 21.5
v -4 6.298219 18.5
v -4 4.000019 18.49999
v -4 16.00002 21.50001
v -4 13.70182 21.5
v -4 13.70182 18.5
v -4 16.00002 18.50001
vn 1 0 0
vn 0.9999999 0 0
vn 1 0 0
vn 1 0 0
vn 1 0 0
vn 1 0 0
vn 1 0 0
vn 0.9999999 0 0
vn 1 0 0
vn 1 0 0
vn 1 0 0
vn 1 0 0
vn 1 0 0
vn 1 0 0
vn 1 0 0
vn 1 0 0
vn 0 1.041097E-06 -0.9999999
vn 0 1.041097E-06 -1
vn 0 1.041097E-06 -1
vn 0 1.041097E-06 -1
vn 0 1.041097E-06 -1
vn 0 1.041097E-06 -1
vn 0 -1.041097E-06 1
vn 0 -1.041097E-06 1
vn 0 -1.041097E-06 1
vn 0 -1.041097E-06 1
vn 0 -1.041097E-06 1
vn 0 -1.041097E-06 1
vn 0 1.041097E-06 -1
vn 0 1.041097E-06 -1
vn 0 1.041097E-06 -1
vn 0 1.041097E-06 -1
vn 0 1.041097E-06 -1
vn 0 1.041097E-06 -1
vn 0 -1.041097E-06 1
vn 0 -1.041097E-06 1
vn 0 -1.041097E-06 1
vn 0 -1.041097E-06 1
vn 0 -1.041097E-06 1
vn 0 -1.041097E-06 1
vn 0 1.041097E-06 -0.9999999
vn 0 1.041097E-06 -1
vn 0 1.041097E-06 -1
vn 0 1.041097E-06 -1
vn 0 1.041097E-06 -1
vn 0 1.041097E-06 -1
vn 0 -1.041097E-06 1
vn 0 -1.041097E-06 1
vn 0 -1.041097E-06 1
vn 0 -1.041097E-06 1
vn 0 -1.041097E-06 1
vn 0 -1.041097E-06 1
vn 0 1.041097E-06 -1
vn 0 1.041097E-06 -1
vn 0 1.041097E-06 -1
vn 0 1.041097E-06 -1
vn 0 1.041097E-06 -1
vn 0 1.041097E-06 -1
vn 0 -1.041097E-06 1
vn 0 -1.041097E-06 1
vn 0 -1.041097E-06 1
vn 0 -1.041097E-06 1
vn 0 -1.041097E-06 1
vn 0 -1.041097E-06 1
vn 0 1.041097E-06 -0.9999999
vn 0 1.041097E-06 -1
vn 0 1.041097E-06 -1
vn 0 1.041097E-06 -1
vn 0 1.041097E-06 -1
vn 0 1.041097E-06 -1
vn 0 -1.041097E-06 1
vn 0 -1.041097E-06 1
vn 0 -1.041097E-06 1
vn 0 -1.041097E-06 1
vn 0 -1.041097E-06 1
vn 0 -1.041097E-06 1
vn 0 1.041097E-06 -1
vn 0 1.041097E-06 -1
vn 0 1.041097E-06 -1
vn 0 1.041097E-06 -1
vn 0 1.041097E-06 -1
vn 0 1.041097E-06 -1
vn 0 -1.041097E-06 1
vn 0 -1.041097E-06 1
vn 0 -1.041097E-06 1
vn 0 -1.041097E-06 1
vn 0 -1.041097E-06 1
vn 0 -1.041097E-06 1
vn 0 1.041097E-06 -1
vn 0 1.041097E-06 -1
vn 0 1.041097E-06 -1
vn 0 1.041097E-06 -1
vn -0.01363877 -0.999907 -1.041E-06
vn 0 -1 -1.041097E-06
vn 0 -1 -1.041097E-06
vn -0.01363877 -0.999907 -1.041E-06
vn 0 -1.041097E-06 1
vn 0 -1.041097E-06 1
vn 0 -1.041097E-06 1
vn 0 -1.041097E-06 1
vn -0.01363877 0.999907 1.041E-06
vn 0 1 1.041097E-06
vn 0 1 1.041097E-06
vn -0.01363877 0.999907 1.041E-06
vn 0 -1.041097E-06 1
vn 0 -1.041097E-06 1
vn 0 -1.041097E-06 1
vn 0 -1.041097E-06 1
vn 0.00760703 0.999971 1.041067E-06
vn 0 1 1.041097E-06
vn 0 1 1.041097E-06
vn 0.00760703 0.9999711 1.041067E-06
vn 0 1.041097E-06 -1
vn 0 1.041097E-06 -1
vn 0 1.041097E-06 -1
vn 0 1.041097E-06 -1
vn 0.00760703 -0.999971 -1.041067E-06
vn 0 -1 -1.041097E-06
vn 0 -1 -1.041097E-06
vn 0.00760703 -0.9999711 -1.041067E-06
vn 0 1.041097E-06 -1
vn 0 1.041097E-06 -1
vn 0 1.041097E-06 -1
vn 0 1.041097E-06 -1
vn 0 -1 -1.041097E-06
vn 0 -1 -1.041097E-06
vn 0 -1 -1.041097E-06
vn 0 -1 -1.041097E-06
vn 0 -1.041097E-06 1
vn 0 -1.041097E-06 1
vn 0 -1.041097E-06 1
vn 0 -1.041097E-06 1
vn 0 1 1.041097E-06
vn 0 1 1.041097E-06
vn 0 1 1.041097E-06
vn 0 1 1.041097E-06
vn -0.1090301 0.9940385 1.034891E-06
vn -0.152172 0.988354 1.028973E-06
vn -0.237426 0.9714056 1.011328E-06
vn -0.2795392 0.9601343 9.99593E-07
vn -0.3622617 0.9320765 9.703821E-07
vn -0.4028672 0.9152585 9.528729E-07
vn -0.4809974 0.876722 9.127528E-07
vn -0.5185451 0.8550502 8.901903E-07
vn -0.5910982 0.8065997 8.397486E-07
vn -0.6260644 0.7797714 8.118178E-07
vn -0.6916225 0.7222592 7.519419E-07
vn -0.722259 0.6916227 7.200464E-07
vn -0.7797713 0.6260644 6.517939E-07
vn -0.8065996 0.5910981 6.153905E-07
vn -0.8550503 0.518545 5.398557E-07
vn -0.876722 0.4809973 5.007649E-07
vn -0.9152585 0.4028671 4.194238E-07
vn -0.9320765 0.3622616 3.771495E-07
vn -0.9601343 0.2795391 2.910273E-07
vn -0.9714056 0.237426 2.471835E-07
vn -0.9883541 0.152172 1.584258E-07
vn -0.9940385 0.1090302 1.13511E-07
vn -0.9997588 0.02196161 2.286417E-08
vn -0.9997588 -0.02196161 -2.286417E-08
vn -0.9940385 -0.1090302 -1.13511E-07
vn -0.9883541 -0.152172 -1.584258E-07
vn -0.9714056 -0.2374259 -2.471835E-07
vn -0.9601343 -0.2795391 -2.910273E-07
vn -0.9320765 -0.3622616 -3.771495E-07
vn -0.9152585 -0.4028672 -4.194239E-07
vn -0.876722 -0.4809974 -5.00765E-07
vn -0.8550503 -0.518545 -5.398557E-07
vn -0.8065997 -0.5910981 -6.153905E-07
vn -0.7797713 -0.6260644 -6.517939E-07
vn -0.722259 -0.6916227 -7.200464E-07
vn -0.6916226 -0.7222592 -7.519419E-07
vn -0.6260644 -0.7797714 -8.118178E-07
vn -0.5910982 -0.8065997 -8.397486E-07
vn -0.5185451 -0.8550502 -8.901903E-07
vn -0.4809974 -0.876722 -9.127528E-07
vn -0.4028672 -0.9152585 -9.528729E-07
vn -0.3622617 -0.9320765 -9.703821E-07
vn -0.2795392 -0.9601343 -9.99593E-07
vn -0.237426 -0.9714056 -1.011328E-06
vn -0.152172 -0.988354 -1.028973E-06
vn -0.1090301 -0.9940385 -1.034891E-06
vn 0.1090301 -0.9940385 -1.034891E-06
vn 0.1521722 -0.988354 -1.028973E-06
vn 0.2374263 -0.9714055 -1.011327E-06
vn 0.2795395 -0.9601342 -9.99593E-07
vn 0.3622617 -0.9320765 -9.703821E-07
vn 0.4028669 -0.9152586 -9.528731E-07
vn 0.4809971 -0.8767222 -9.127529E-07
vn 0.5185452 -0.8550502 -8.901903E-07
vn 0.5910982 -0.8065996 -8.397485E-07
vn 0.6260642 -0.7797715 -8.118179E-07
vn 0.6916224 -0.7222593 -7.51942E-07
vn 0.7222589 -0.6916227 -7.200464E-07
vn 0.7797713 -0.6260644 -6.517939E-07
vn 0.8065996 -0.5910982 -6.153906E-07
vn 0.8550503 -0.518545 -5.398557E-07
vn 0.8767222 -0.4809971 -5.007647E-07
vn 0.9152585 -0.402867 -4.194237E-07
vn 0.9320763 -0.3622619 -3.771498E-07
vn 0.9601341 -0.2795398 -2.910281E-07
vn 0.9714055 -0.2374265 -2.471841E-07
vn 0.988354 -0.152172 -1.584258E-07
vn 0.9940385 -0.1090297 -1.135105E-07
vn 0.9997588 -0.02196128 -2.286383E-08
vn 0.9997588 0.02196128 2.286383E-08
vn 0.9940385 0.1090297 1.135105E-07
vn 0.988354 0.152172 1.584258E-07
vn 0.9714055 0.2374265 2.471841E-07
vn 0.9601341 0.2795398 2.910281E-07
vn 0.9320763 0.3622619 3.771498E-07
vn 0.9152585 0.402867 4.194237E-07
vn 0.8767222 0.4809971 5.007647E-07
vn 0.8550503 0.5185451 5.398558E-07
vn 0.8065996 0.5910982 6.153906E-07
vn 0.7797713 0.6260644 6.517939E-07
vn 0.7222589 0.6916227 7.200464E-07
vn 0.6916224 0.7222593 7.51942E-07
vn 0.6260642 0.7797714 8.118178E-07
vn 0.5910982 0.8065996 8.397485E-07
vn 0.5185452 0.8550502 8.901903E-07
vn 0.4809971 0.8767222 9.127529E-07
vn 0.4028669 0.9152586 9.528731E-07
vn 0.3622617 0.9320765 9.703821E-07
vn 0.2795395 0.9601342 9.99593E-07
vn 0.2374263 0.9714055 1.011327E-06
vn 0.1521722 0.988354 1.028973E-06
vn 0.1090301 0.9940385 1.034891E-06
vn 0 -1.041097E-06 0.9999999
vn 0 -1.041097E-06 1
vn 0 -1.041097E-06 1
vn 0 -1.041097E-06 1
vn 0 -1.041097E-06 1
vn 0 -1.041097E-06 1
vn 0 -1.041097E-06 1
vn 0 -1.041097E-06 1
vn 0 -1.041097E-06 1
vn 0 -1.041097E-06 1
vn 0 -1.041097E-06 1
vn 0 -1.041097E-06 1
vn 0 -1.041097E-06 1
vn 0 -1.041097E-06 1
vn 0 -1.041097E-06 1
vn 0 -1.041097E-06 1
vn 0 -1.041097E-06 0.9999999
vn 0 -1.041097E-06 1
vn 0 -1.041097E-06 1
vn 0 -1.041097E-06 1
vn 0 -1.041097E-06 0.9999999
vn 0 -1.041097E-06 0.9999999
vn 0 -1.041097E-06 0.9999999
vn 0 1.041097E-06 -0.9999999
vn 0 1.041097E-06 -1
vn 0 1.041097E-06 -1
vn 0 1.041097E-06 -0.9999999
vn 0 1.041097E-06 -1
vn 0 1.041097E-06 -1
vn 0 1.041097E-06 -1
vn 0 1.041097E-06 -1
vn 0 1.041097E-06 -1
vn 0 1.041097E-06 -1
vn 0 1.041097E-06 -1
vn 0 1.041097E-06 -1
vn 0 1.041097E-06 -1
vn 0 1.041097E-06 -1
vn 0 1.041097E-06 -1
vn 0 1.041097E-06 -1
vn 0 1.041097E-06 -1
vn 0 1.041097E-06 -1
vn 0 1.041097E-06 -1
vn 0 1.041097E-06 -1
vn 0 1.041097E-06 -0.9999999
vn 0 1.041097E-06 -1
vn 0 1.041097E-06 -1
vn 0 1.041097E-06 -0.9999999
vn 0 1.041097E-06 -1
vn 0 1.041097E-06 -1
vn 0 1.041097E-06 -1
vn 0 1.041097E-06 -1
vn 0 1.041097E-06 -1
vn 0 1.041097E-06 -1
vn 0 1.041097E-06 -1
vn 0 1.041097E-06 -1
vn 0 1.041097E-06 -1
vn 0 1.041097E-06 -1
vn 0 1.041097E-06 -1
vn 0 1.041097E-06 -0.9999999
vn 0 1.041097E-06 -1
vn 0 1.041097E-06 -1
vn 0 1.041097E-06 -1
vn 0 1.041097E-06 -0.9999999
vn 0 1.041097E-06 -1
vn 0 1.041097E-06 -1
vn 0 1.041097E-06 -1
vn 0 1.041097E-06 -0.9999999
vn 0 1.041097E-06 -0.9999999
vn 0 1.041097E-06 -0.9999999
vn 0 -1.041097E-06 1
vn 0 -1.041097E-06 1
vn 0 -1.041097E-06 0.9999999
vn 0 -1.041097E-06 1
vn 0 -1.041097E-06 1
vn 0 -1.041097E-06 1
vn 0 -1.041097E-06 1
vn 0 -1.041097E-06 1
vn 0 -1.041097E-06 0.9999999
vn 0 -1.041097E-06 1
vn 0 -1.041097E-06 1
vn 0 -1.041097E-06 1
vn 0 -1.041097E-06 1
vn 0 -1.041097E-06 1
vn 0 -1.041097E-06 1
vn 0 -1.041097E-06 1
vn 0 -1.041097E-06 1
vn 0 -1.041097E-06 1
vn 0 -1.041097E-06 1
vn 0 -1.041097E-06 1
vn 0 -1.041097E-06 0.9999999
vn 0 -1.041097E-06 1
vn 0 -1.041097E-06 1
vn 1 0 0
vn 1 0 0
vn 1 0 0
vn 1 0 0
vn 1 0 0
vn 1 0 0
vn 1 0 0
vn 1 0 0
vn 1 0 0
vn 1 0 0
vn 1 0 0
vn 1 0 0
vn 1 0 0
vn 1 0 0
vn 1 0 0
vn 1 0 0
vn 1 0 0
vn 1 0 0
vn 1 0 0
vn 1 0 0
vn 1 0 0
vn 1 0 0
vn 1 0 0
vn 1 0 0
vn 1 0 0
vn 1 0 0
vn 1 0 0
vn 1 0 0
vn 1 0 0
vn 1 0 0
vn 1 0 0
vn 1 0 0
vn 1 0 0
vn 1 0 0
vn 1 0 0
vn 1 0 0
vn 1 0 0
vn 1 0 0
vn 1 0 0
vn 1 0 0
vn 1 0 0
vn 1 0 0
vn 1 0 0
vn 1 0 0
vn 1 0 0
vn 1 0 0
vn 1 0 0
vn 1 0 0
vn 1 0 0
vn 0 -0.1090291 -0.9940386
vn 0 0.02196253 -0.9997588
vn 0 -0.02196045 -0.9997588
vn 0 -0.1521713 -0.9883541
vn 0 -0.2374253 -0.9714058
vn 0 -0.2795382 -0.9601346
vn 0 -0.3622605 -0.9320769
vn 0 -0.402866 -0.9152589
vn 0 -0.4809963 -0.8767226
vn 0 -0.5185441 -0.8550508
vn 0 -0.5910972 -0.8066003
vn 0 -0.6260635 -0.7797722
vn 0 -0.6916218 -0.7222598
vn 0 -0.7222584 -0.6916233
vn 0 -0.7797709 -0.6260651
vn 0 -0.8065991 -0.5910989
vn 0 -0.8550497 -0.5185459
vn 0 -0.8767216 -0.4809982
vn 0 -0.9152581 -0.4028679
vn 0 -0.9320762 -0.3622625
vn 0 -0.960134 -0.2795402
vn 0 -0.9714053 -0.2374273
vn 0 -0.9883538 -0.1521733
vn 0 -0.9940383 -0.1090312
vn 0 -0.9997588 -0.02196253
vn 0 -0.9997588 0.02196045
vn 0 -0.9940386 0.1090291
vn 0 -0.9883541 0.1521713
vn 0 -0.9714058 0.2374253
vn 0 -0.9601346 0.2795382
vn 0 -0.9320769 0.3622605
vn 0 -0.9152589 0.402866
vn 0 -0.8767226 0.4809963
vn 0 -0.8550508 0.5185441
vn 0 -0.8066003 0.5910972
vn 0 -0.7797722 0.6260635
vn 0 -0.7222598 0.6916218
vn 0 -0.6916233 0.7222584
vn 0 -0.6260651 0.7797709
vn 0 -0.5910989 0.8065991
vn 0 -0.5185459 0.8550497
vn 0 -0.4809982 0.8767216
vn 0 -0.4028679 0.9152581
vn 0 -0.3622625 0.9320762
vn 0 -0.2795402 0.960134
vn 0 -0.2374273 0.9714053
vn 0 -0.1521733 0.9883538
vn 0 -0.1090312 0.9940383
vn 0 -0.02196253 0.9997588
vn 0 0.02196045 0.9997588
vn 0 0.1090291 0.9940386
vn 0 0.1521713 0.9883541
vn 0 0.2374253 0.9714058
vn 0 0.2795382 0.9601346
vn 0 0.3622605 0.9320769
vn 0 0.402866 0.9152589
vn 0 0.4809963 0.8767226
vn 0 0.5185441 0.8550508
vn 0 0.5910972 0.8066003
vn 0 0.6260635 0.7797722
vn 0 0.6916218 0.7222598
vn 0 0.7222584 0.6916233
vn 0 0.7797709 0.6260651
vn 0 0.8065991 0.5910989
vn 0 0.8550497 0.5185459
vn 0 0.8767216 0.4809982
vn 0 0.9152581 0.4028679
vn 0 0.9320762 0.3622625
vn 0 0.960134 0.2795402
vn 0 0.9714053 0.2374273
vn 0 0.9883538 0.1521733
vn 0 0.9940383 0.1090312
vn 0 0.9997588 0.02196253
vn 0 0.9997588 -0.02196045
vn 0 0.9940386 -0.1090291
vn 0 0.9883541 -0.1521713
vn 0 0.9714058 -0.2374253
vn 0 0.9601346 -0.2795382
vn 0 0.9320769 -0.3622605
vn 0 0.9152589 -0.402866
vn 0 0.8767226 -0.4809963
vn 0 0.8550508 -0.5185441
vn 0 0.8066003 -0.5910972
vn 0 0.7797722 -0.6260635
vn 0 0.7222598 -0.6916218
vn 0 0.6916233 -0.7222584
vn 0 0.6260651 -0.7797709
vn 0 0.5910989 -0.8065991
vn 0 0.5185459 -0.8550497
vn 0 0.4809982 -0.8767216
vn 0 0.4028679 -0.9152581
vn 0 0.3622625 -0.9320762
vn 0 0.2795402 -0.960134
vn 0 0.2374273 -0.9714053
vn 0 0.1521733 -0.9883538
vn 0 0.1090312 -0.9940383
vn 0.9999999 0 0
vn 0.9999999 0 0
vn 0.9999999 0 0
vn 0.9999999 0 0
vn 0.9999999 0 0
vn 0.9999999 0 0
vn 0.9999999 0 0
vn 0.9999999 0 0
vn 1 0 0
vn 1 0 0
vn 1 0 0
vn 1 0 0
vn 1 0 0
vn 1 0 0
vn 1 0 0
vn 1 0 0
vn 1 0 0
vn 1 0 0
vn 1 0 0
vn 1 0 0
vn 1 0 0
vn 1 0 0
vn 1 0 0
vn 1 0 0
vn 1 0 0
vn 1 0 0
vn 1 0 0
vn 1 0 0
vn 1 0 0
vn 1 0 0
vn 1 0 0
vn 1 0 0
vn 1 0 0
vn 1 0 0
vn 1 0 0
vn 1 0 0
vn 1 0 0
vn 1 0 0
vn 1 0 0
vn 1 0 0
vn 1 0 0
vn 1 0 0
vn 1 0 0
vn 1 0 0
vn 1 0 0
vn 1 0 0
vn 1 0 0
vn 1 0 0
vn 1 0 0
vn 1 0 0
vn 1 0 0
vn 1 0 0
vn 1 0 0
vn 1 0 0
vn 1 0 0
vn 1 0 0
vn 1 0 0
vn 0 -0.1090299 -0.9940385
vn 0 0.02196314 -0.9997588
vn 0 -0.02196106 -0.9997588
vn 0 -0.152171 -0.9883542
vn 0 -0.237424 -0.971406
vn 0 -0.2795369 -0.9601349
vn 0 -0.3622596 -0.9320773
vn 0 -0.4028654 -0.9152593
vn 0 -0.4809968 -0.8767222
vn 0 -0.5185454 -0.8550501
vn 0 -0.5910982 -0.8065996
vn 0 -0.6260636 -0.779772
vn 0 -0.6916215 -0.7222601
vn 0 -0.7222583 -0.6916235
vn 0 -0.7797707 -0.6260651
vn 0 -0.806599 -0.591099
vn 0 -0.8550497 -0.518546
vn 0 -0.8767216 -0.4809982
vn 0 -0.9152581 -0.4028679
vn 0 -0.9320762 -0.3622625
vn 0 -0.960134 -0.2795402
vn 0 -0.9714053 -0.2374271
vn 0 -0.9883538 -0.1521732
vn 0 -0.9940383 -0.1090312
vn 0 -0.9997588 -0.02196256
vn 0 -0.9997588 0.02196047
vn 0 -0.9940386 0.1090291
vn 0 -0.9883541 0.1521712
vn 0 -0.9714058 0.2374251
vn 0 -0.9601346 0.2795382
vn 0 -0.9320769 0.3622606
vn 0 -0.9152589 0.402866
vn 0 -0.8767226 0.4809963
vn 0 -0.8550508 0.5185443
vn 0 -0.8066002 0.5910973
vn 0 -0.779772 0.6260635
vn 0 -0.7222597 0.691622
vn 0 -0.691623 0.7222587
vn 0 -0.6260653 0.7797707
vn 0 -0.5910999 0.8065984
vn 0 -0.5185472 0.8550491
vn 0 -0.4809986 0.8767213
vn 0 -0.4028673 0.9152585
vn 0 -0.3622615 0.9320766
vn 0 -0.279539 0.9601343
vn 0 -0.237426 0.9714056
vn 0 -0.152173 0.9883538
vn 0 -0.1090319 0.9940382
vn 0 -0.02196314 0.9997588
vn 0 0.02196106 0.9997588
vn 0 0.1090299 0.9940385
vn 0 0.152171 0.9883542
vn 0 0.237424 0.971406
vn 0 0.2795369 0.9601349
vn 0 0.3622596 0.9320773
vn 0 0.4028654 0.9152593
vn 0 0.4809968 0.8767222
vn 0 0.5185454 0.8550501
vn 0 0.5910982 0.8065996
vn 0 0.6260636 0.779772
vn 0 0.6916215 0.7222601
vn 0 0.7222583 0.6916235
vn 0 0.7797707 0.6260651
vn 0 0.806599 0.591099
vn 0 0.8550497 0.518546
vn 0 0.8767216 0.4809982
vn 0 0.9152581 0.4028679
vn 0 0.9320762 0.3622625
vn 0 0.960134 0.2795402
vn 0 0.9714053 0.2374271
vn 0 0.9883538 0.1521732
vn 0 0.9940383 0.1090312
vn 0 0.9997588 0.02196256
vn 0 0.9997588 -0.02196047
vn 0 0.9940386 -0.1090291
vn 0 0.9883541 -0.1521712
vn 0 0.9714058 -0.2374251
vn 0 0.9601346 -0.2795382
vn 0 0.9320769 -0.3622606
vn 0 0.9152589 -0.402866
vn 0 0.8767226 -0.4809963
vn 0 0.8550508 -0.5185443
vn 0 0.8066002 -0.5910973
vn 0 0.779772 -0.6260635
vn 0 0.7222597 -0.691622
vn 0 0.691623 -0.7222587
vn 0 0.6260653 -0.7797707
vn 0 0.5910999 -0.8065984
vn 0 0.5185472 -0.8550491
vn 0 0.4809986 -0.8767213
vn 0 0.4028673 -0.9152585
vn 0 0.3622615 -0.9320766
vn 0 0.279539 -0.9601343
vn 0 0.237426 -0.9714056
vn 0 0.152173 -0.9883538
vn 0 0.1090319 -0.9940382
vn 0.9999999 0 0
vn 0.9999999 0 0
vn 0.9999999 0 0
vn 0.9999999 0 0
vn 0.9999999 0 0
vn 0.9999999 0 0
vn 0.9999999 0 0
vn 0.9999999 0 0
vn 1 0 0
vn 1 0 0
vn 1 0 0
vn 1 0 0
vn 1 0 0
vn 1 0 0
vn 1 0 0
vn 1 0 0
vn 1 0 0
vn 1 0 0
vn 1 0 0
vn 1 0 0
vn 1 0 0
vn 1 0 0
vn 1 0 0
vn 1 0 0
vn 1 0 0
vn 1 0 0
vn 1 0 0
vn 1 0 0
vn 1 0 0
vn 1 0 0
vn 1 0 0
vn 1 0 0
vn 1 0 0
vn 1 0 0
vn 1 0 0
vn 1 0 0
vn 1 0 0
vn 1 0 0
vn 1 0 0
vn 1 0 0
vn 1 0 0
vn 1 0 0
vn 1 0 0
vn 1 0 0
vn 1 0 0
vn 1 0 0
vn 1 0 0
vn 1 0 0
vn 1 0 0
vn 1 0 0
vn 1 0 0
vn 1 0 0
vn 1 0 0
vn 1 0 0
vn 1 0 0
vn 1 0 0
vn 1 0 0
vn 0 -0.1090299 -0.9940385
vn 0 0.02196314 -0.9997588
vn 0 -0.02196106 -0.9997588
vn 0 -0.152171 -0.9883542
vn 0 -0.237424 -0.971406
vn 0 -0.2795369 -0.9601349
vn 0 -0.3622596 -0.9320773
vn 0 -0.4028654 -0.9152593
vn 0 -0.4809968 -0.8767222
vn 0 -0.5185454 -0.8550501
vn 0 -0.5910982 -0.8065996
vn 0 -0.6260636 -0.779772
vn 0 -0.6916215 -0.7222601
vn 0 -0.7222583 -0.6916235
vn 0 -0.7797707 -0.6260651
vn 0 -0.806599 -0.591099
vn 0 -0.8550497 -0.518546
vn 0 -0.8767216 -0.4809982
vn 0 -0.9152581 -0.4028679
vn 0 -0.9320762 -0.3622625
vn 0 -0.960134 -0.2795402
vn 0 -0.9714053 -0.2374271
vn 0 -0.9883538 -0.1521732
vn 0 -0.9940383 -0.1090312
vn 0 -0.9997588 -0.02196256
vn 0 -0.9997588 0.02196047
vn 0 -0.9940386 0.1090291
vn 0 -0.9883541 0.1521712
vn 0 -0.9714058 0.2374251
vn 0 -0.9601346 0.2795382
vn 0 -0.9320769 0.3622606
vn 0 -0.9152589 0.402866
vn 0 -0.8767226 0.4809963
vn 0 -0.8550508 0.5185443
vn 0 -0.8066002 0.5910973
vn 0 -0.779772 0.6260635
vn 0 -0.7222597 0.691622
vn 0 -0.691623 0.7222587
vn 0 -0.6260653 0.7797707
vn 0 -0.5910999 0.8065984
vn 0 -0.5185472 0.8550491
vn 0 -0.4809986 0.8767213
vn 0 -0.4028673 0.9152585
vn 0 -0.3622615 0.9320766
vn 0 -0.279539 0.9601343
vn 0 -0.237426 0.9714056
vn 0 -0.152173 0.9883538
vn 0 -0.1090319 0.9940382
vn 0 -0.02196314 0.9997588
vn 0 0.02196106 0.9997588
vn 0 0.1090299 0.9940385
vn 0 0.152171 0.9883542
vn 0 0.237424 0.971406
vn 0 0.2795369 0.9601349
vn 0 0.3622596 0.9320773
vn 0 0.4028654 0.9152593
vn 0 0.4809968 0.8767222
vn 0 0.5185454 0.8550501
vn 0 0.5910982 0.8065996
vn 0 0.6260636 0.779772
vn 0 0.6916215 0.7222601
vn 0 0.7222583 0.6916235
vn 0 0.7797707 0.6260651
vn 0 0.806599 0.591099
vn 0 0.8550497 0.518546
vn 0 0.8767216 0.4809982
vn 0 0.9152581 0.4028679
vn 0 0.9320762 0.3622625
vn 0 0.960134 0.2795402
vn 0 0.9714053 0.2374271
vn 0 0.9883538 0.1521732
vn 0 0.9940383 0.1090312
vn 0 0.9997588 0.02196256
vn 0 0.9997588 -0.02196047
vn 0 0.9940386 -0.1090291
vn 0 0.9883541 -0.1521712
vn 0 0.9714058 -0.2374251
vn 0 0.9601346 -0.2795382
vn 0 0.9320769 -0.3622606
vn 0 0.9152589 -0.402866
vn 0 0.8767226 -0.4809963
vn 0 0.8550508 -0.5185443
vn 0 0.8066002 -0.5910973
vn 0 0.779772 -0.6260635
vn 0 0.7222597 -0.691622
vn 0 0.691623 -0.7222587
vn 0 0.6260653 -0.7797707
vn 0 0.5910999 -0.8065984
vn 0 0.5185472 -0.8550491
vn 0 0.4809986 -0.8767213
vn 0 0.4028673 -0.9152585
vn 0 0.3622615 -0.9320766
vn 0 0.279539 -0.9601343
vn 0 0.237426 -0.9714056
vn 0 0.152173 -0.9883538
vn 0 0.1090319 -0.9940382
vn 0.9999999 0 0
vn 0.9999999 0 0
vn 0.9999999 0 0
vn 0.9999999 0 0
vn 0.9999999 0 0
vn 0.9999999 0 0
vn 0.9999999 0 0
vn 0.9999999 0 0
vt -9 39
vt -6 36
vt 6 36
vt 9 39
vt -9 -39
vt -6 -36
vt 9 -39
vt 6 -36
vt -11 39
vt -10 38
vt 8 38
vt 9 39
vt -11 -41
vt -10 -40
vt 9 -41
vt 8 -40
vt -4.5 -4.5
vt -2.5 -4.5
vt -2.5 -2.202
vt -9.104 -2.202
vt -8.743 -2.743
vt -6.796 -4.043
vt -7.5 -7.5
vt -9.796 -7.043
vt -11.743 -5.743
vt -12.104 -5.202
vt -5.5 -5.202
vt -5.5 -7.5
vt -4.5 7.5
vt -9.104 5.202
vt -2.5 5.202
vt -2.5 7.5
vt -6.796 7.043
vt -8.743 5.743
vt -7.5 4.5
vt -12.104 2.202
vt -11.743 2.743
vt -9.796 4.043
vt -5.5 4.5
vt -5.5 2.202
vt 15.5 15.5
vt 17.5 15.5
vt 17.5 17.798
vt 10.896 17.798
vt 11.257 17.257
vt 13.204 15.957
vt 12.5 12.5
vt 10.204 12.957
vt 8.257 14.257
vt 7.896 14.798
vt 14.5 14.798
vt 14.5 12.5
vt 15.5 27.5
vt 10.896 25.202
vt 17.5 25.202
vt 17.5 27.5
vt 13.204 27.043
vt 11.257 25.743
vt 12.5 24.5
vt 7.896 22.202
vt 8.257 22.743
vt 10.204 24.043
vt 14.5 24.5
vt 14.5 22.202
vt -24.5 -24.5
vt -22.5 -24.5
vt -22.5 -22.202
vt -29.104 -22.202
vt -28.743 -22.743
vt -26.796 -24.043
vt -27.5 -27.5
vt -29.796 -27.043
vt -31.743 -25.743
vt -32.104 -25.202
vt -25.5 -25.202
vt -25.5 -27.5
vt -24.5 -12.5
vt -29.104 -14.798
vt -22.5 -14.798
vt -22.5 -12.5
vt -26.796 -12.957
vt -28.743 -14.257
vt -27.5 -15.5
vt -32.104 -17.798
vt -31.743 -17.257
vt -29.796 -15.957
vt -25.5 -15.5
vt -25.5 -17.798
vt 34 50
vt 39 50
vt 39 30
vt 34 30
vt 34 30
vt -11 30
vt -11 -50
vt -46 -50
vt -46 -50
vt -41 -50
vt -41 -30
vt -46 -30
vt 4 -30
vt 9 -30
vt 9 50
vt 4 50
vt 30 42
vt 36 42
vt 36 30
vt 30 30
vt -12 30
vt -6 30
vt -6 -42
vt -12 -42
vt -42 -42
vt -36 -42
vt -36 -30
vt -42 -30
vt 0 -30
vt 6 -30
vt 6 42
vt 0 42
vt 39 48
vt 38 48
vt 38 30
vt 39 30
vt -9 30
vt -10 30
vt -10 -48
vt -9 -48
vt -39 -48
vt -40 -48
vt -40 -30
vt -39 -30
vt 9 -30
vt 8 -30
vt 8 48
vt 9 48
vt 2.608999 49.914
vt 2.608999 -30.086
vt 1.071 49.659
vt 1.071 -30.341
vt -0.5879993 49.239
vt -0.5879993 -30.761
vt -2.34 48.66
vt -2.34 -31.34
vt -4.153999 47.934
vt -4.153999 -32.066
vt -6 47.071
vt -6 -32.929
vt -7.846 46.088
vt -7.846 -33.912
vt -9.66 45
vt -9.66 -35
vt -11.412 43.827
vt -11.412 -36.173
vt -13.071 42.588
vt -13.071 -37.412
vt -14.609 41.305
vt -14.609 -38.695
vt -16 40
vt -56 -40
vt 24.086 38.695
vt -55.914 -41.305
vt 24.341 37.412
vt -55.659 -42.588
vt 24.761 36.173
vt -55.239 -43.827
vt 25.34 35
vt -54.66 -45
vt 26.066 33.912
vt -53.934 -46.088
vt 26.929 32.929
vt -53.071 -47.071
vt 27.912 32.066
vt -52.088 -47.934
vt 29 31.34
vt -51 -48.66
vt 30.173 30.761
vt -49.827 -49.239
vt 31.412 30.341
vt -48.588 -49.659
vt 32.695 30.086
vt -47.305 -49.914
vt -0.8346 41.9484
vt -0.8346 -30.0516
vt -1.7574 41.7954
vt -1.7574 -30.2046
vt -2.7528 41.5434
vt -2.7528 -30.4566
vt -3.804 41.196
vt -3.804 -30.804
vt -4.8924 40.7604
vt -4.8924 -31.2396
vt -6 40.2426
vt -6 -31.7574
vt -7.1076 39.6528
vt -7.1076 -32.3472
vt -8.196 39
vt -8.196 -33
vt -9.2472 38.2962
vt -9.2472 -33.7038
vt -10.2426 37.5528
vt -10.2426 -34.4472
vt -11.1654 36.783
vt -11.1654 -35.217
vt -12 36
vt -48 -36
vt 24.0516 35.217
vt -47.9484 -36.783
vt 24.2046 34.4472
vt -47.7954 -37.5528
vt 24.4566 33.7038
vt -47.5434 -38.2962
vt 24.804 33
vt -47.196 -39
vt 25.2396 32.3472
vt -46.7604 -39.6528
vt 25.7574 31.7574
vt -14.4852 -40.2426
vt -14.4132 31.2396
vt -14.4132 -40.7604
vt -14.196 30.804
vt -14.196 -41.196
vt -13.8396 30.4566
vt -13.8396 -41.5434
vt -13.3482 30.2046
vt -13.3482 -41.7954
vt -12.7314 30.0516
vt -12.7314 -41.9484
vt -47.305 -49.914
vt -47.305 -30.086
vt -48.588 -49.659
vt -48.588 -30.341
vt -49.827 -49.239
vt -49.827 -30.761
vt -51 -48.66
vt -51 -31.34
vt -52.088 -47.934
vt -52.088 -32.066
vt -53.071 -47.071
vt -53.071 -32.929
vt -53.934 -46.088
vt -53.934 -33.912
vt -54.66 -45
vt -54.66 -35
vt -55.239 -43.827
vt -55.239 -36.173
vt -55.659 -42.588
vt -55.659 -37.412
vt -55.914 -41.305
vt -55.914 -38.695
vt -56 -40
vt -42.783 -41.9484
vt -42.783 -30.0516
vt -43.5528 -41.7954
vt -43.5528 -30.2046
vt -44.2962 -41.5434
vt -44.2962 -30.4566
vt -45 -41.196
vt -45 -30.804
vt -45.6528 -40.7604
vt -45.6528 -31.2396
vt -46.2426 -40.2426
vt -46.2426 -31.7574
vt -46.7604 -39.6528
vt -46.7604 -32.3472
vt -47.196 -39
vt -47.196 -33
vt -47.5434 -38.2962
vt -47.5434 -33.7038
vt -47.7954 -37.5528
vt -47.7954 -34.4472
vt -47.9484 -36.783
vt -47.9484 -35.217
vt -48 -36
vt 32.695 30.086
vt 32.695 49.914
vt 31.412 30.341
vt 31.412 49.659
vt 30.173 30.761
vt 30.173 49.239
vt 29 31.34
vt 29 48.66
vt 27.912 32.066
vt 27.912 47.934
vt 26.929 32.929
vt 26.929 47.071
vt 26.066 33.912
vt 26.066 46.088
vt 25.34 35
vt 25.34 45
vt 24.761 36.173
vt 24.761 43.827
vt 24.341 37.412
vt 24.341 42.588
vt 24.086 38.695
vt 24.086 41.305
vt 24 40
vt 29.217 30.0516
vt 29.217 41.9484
vt 28.4472 30.2046
vt 28.4472 41.7954
vt 27.7038 30.4566
vt 27.7038 41.5434
vt 27 30.804
vt 27 41.196
vt 26.3472 31.2396
vt 26.3472 40.7604
vt 25.7574 31.7574
vt 25.7574 40.2426
vt 25.2396 32.3472
vt 25.2396 39.6528
vt 24.804 33
vt 24.804 39
vt 24.4566 33.7038
vt 24.4566 38.2962
vt 24.2046 34.4472
vt 24.2046 37.5528
vt 24.0516 35.217
vt 24.0516 36.783
vt 24 36
vt -0.522 3.9656
vt 0 4
vt 0 0
vt -1.0352 3.8636
vt -1.5308 3.6956
vt -2 3.464
vt -2.4352 3.1736
vt -2.8284 2.8284
vt -3.1736 2.4352
vt -3.464 2
vt -3.6956 1.5308
vt -3.8636 1.0352
vt -3.9656 0.522
vt -4 0
vt -3.9656 -0.522
vt -3.8636 -1.0352
vt -3.6956 -1.5308
vt -3.464 -2
vt -3.1736 -2.4352
vt -2.8284 -2.8284
vt -2.4352 -3.1736
vt -2 -3.464
vt -1.5308 -3.6956
vt -1.0352 -3.8636
vt -0.522 -3.9656
vt 0 -4
vt 0.522 -3.9656
vt 1.0352 -3.8636
vt 1.5308 -3.6956
vt 2 -3.464
vt 2.4352 -3.1736
vt 2.8284 -2.8284
vt 3.1736 -2.4352
vt 3.464 -2
vt 3.6956 -1.5308
vt 3.8636 -1.0352
vt 3.9656 -0.522
vt 4 0
vt 3.9656 0.522
vt 3.8636 1.0352
vt 3.6956 1.5308
vt 3.464 2
vt 3.1736 2.4352
vt 2.8284 2.8284
vt 2.4352 3.1736
vt 2 3.464
vt 1.5308 3.6956
vt 1.0352 3.8636
vt 0.522 3.9656
vt -8.0344 3.4436
vt -8 4
vt 4 4
vt 3.9656 3.4436
vt -8.1364 2.8284
vt 3.8636 2.8284
vt -8.304399 2.1648
vt 3.6956 2.1648
vt -8.536 1.464
vt 3.464 1.464
vt -8.8264 0.7384
vt 3.1736 0.7384
vt -9.1716 0
vt 2.8284 0
vt -9.5648 -0.7384
vt 2.4352 -0.7384
vt -10 -1.464
vt 2 -1.464
vt -10.4692 -2.1648
vt 1.5308 -2.1648
vt -10.9648 -2.8284
vt 1.0352 -2.8284
vt -11.478 -3.4436
vt 0.522 -3.4436
vt -12 -4
vt -4 -4
vt -15.9656 -4.4876
vt -3.9656 -4.4876
vt -15.8636 -4.8988
vt -3.8636 -4.8988
vt -15.6956 -5.2264
vt -3.6956 -5.2264
vt -15.464 -5.464
vt -3.464 -5.464
vt -15.1736 -5.6088
vt -3.1736 -5.6088
vt -14.8284 -5.6568
vt -2.8284 -5.6568
vt -15.1736 -5.6088
vt -3.1736 -5.6088
vt -15.464 -5.464
vt -3.464 -5.464
vt -15.6956 -5.2264
vt -3.6956 -5.2264
vt -15.8636 -4.8988
vt -3.8636 -4.8988
vt -15.9656 -4.4876
vt -3.9656 -4.4876
vt -16 -4
vt 0 -4
vt -11.478 -3.4436
vt 0.522 -3.4436
vt -10.9648 -2.8284
vt 1.0352 -2.8284
vt -10.4692 -2.1648
vt 1.5308 -2.1648
vt -10 -1.464
vt 2 -1.464
vt -9.5648 -0.7384
vt 2.4352 -0.7384
vt -9.1716 0
vt 2.8284 0
vt -8.8264 0.7384
vt 3.1736 0.7384
vt -8.536 1.464
vt 3.464 1.464
vt -8.304399 2.1648
vt 3.6956 2.1648
vt -8.1364 2.8284
vt 3.8636 2.8284
vt -8.0344 3.4436
vt 3.9656 3.4436
vt -8 4
vt 4 4
vt -8.0344 4.4876
vt 3.9656 4.4876
vt -8.1364 4.8988
vt 3.8636 4.8988
vt -8.304399 5.2264
vt 3.6956 5.2264
vt -8.536 5.464
vt 3.464 5.464
vt -8.8264 5.6088
vt 3.1736 5.6088
vt -9.1716 5.6568
vt 2.8284 5.6568
vt -8.8264 5.6088
vt 3.1736 5.6088
vt -8.536 5.464
vt 3.464 5.464
vt -8.304399 5.2264
vt 3.6956 5.2264
vt -8.1364 4.8988
vt 3.8636 4.8988
vt -8.0344 4.4876
vt 3.9656 4.4876
vt -10 -5.5
vt -7.7018 -5.5
vt -7.7018 -2.5
vt -10 -2.5
vt 2 -5.5
vt -0.2981997 -5.5
vt -0.2981997 -2.5
vt 2 -2.5
vt -0.522 23.9656
vt 0 24
vt 0 20
vt -1.0352 23.8636
vt -1.5308 23.6956
vt -2 23.464
vt -2.4352 23.1736
vt -2.8284 22.8284
vt -3.1736 22.4352
vt -3.464 22
vt -3.6956 21.5308
vt -3.8636 21.0352
vt -3.9656 20.522
vt -4 20
vt -3.9656 19.478
vt -3.8636 18.9648
vt -3.6956 18.4692
vt -3.464 18
vt -3.1736 17.5648
vt -2.8284 17.1716
vt -2.4352 16.8264
vt -2 16.536
vt -1.5308 16.3044
vt -1.0352 16.1364
vt -0.522 16.0344
vt 0 16
vt 0.522 16.0344
vt 1.0352 16.1364
vt 1.5308 16.3044
vt 2 16.536
vt 2.4352 16.8264
vt 2.8284 17.1716
vt 3.1736 17.5648
vt 3.464 18
vt 3.6956 18.4692
vt 3.8636 18.9648
vt 3.9656 19.478
vt 4 20
vt 3.9656 20.522
vt 3.8636 21.0352
vt 3.6956 21.5308
vt 3.464 22
vt 3.1736 22.4352
vt 2.8284 22.8284
vt 2.4352 23.1736
vt 2 23.464
vt 1.5308 23.6956
vt 1.0352 23.8636
vt 0.522 23.9656
vt 11.9656 23.4436
vt 12 24
vt 24 24
vt 23.9656 23.4436
vt 11.8636 22.8284
vt 23.8636 22.8284
vt 11.6956 22.1648
vt 23.6956 22.1648
vt 11.464 21.464
vt 23.464 21.464
vt 11.1736 20.7384
vt 23.1736 20.7384
vt 10.8284 20
vt 22.8284 20
vt 10.4352 19.2616
vt 22.4352 19.2616
vt 10 18.536
vt 22 18.536
vt 9.5308 17.8352
vt 21.5308 17.8352
vt 9.0352 17.1716
vt 21.0352 17.1716
vt 8.521999 16.5564
vt 20.522 16.5564
vt 8 16
vt -4 16
vt -15.9656 15.5124
vt -3.9656 15.5124
vt -15.8636 15.1012
vt -3.8636 15.1012
vt -15.6956 14.7736
vt -3.6956 14.7736
vt -15.464 14.536
vt -3.464 14.536
vt -15.1736 14.3912
vt -3.1736 14.3912
vt -14.8284 14.3432
vt 17.1716 14.3432
vt 4.826401 14.3912
vt 16.8264 14.3912
vt 4.535999 14.536
vt 16.536 14.536
vt 4.304399 14.7736
vt 16.3044 14.7736
vt 4.1364 15.1012
vt 16.1364 15.1012
vt 4.034401 15.5124
vt 16.0344 15.5124
vt 4 16
vt 0 16
vt -11.478 16.5564
vt 0.522 16.5564
vt -10.9648 17.1716
vt 1.0352 17.1716
vt -10.4692 17.8352
vt 1.5308 17.8352
vt -10 18.536
vt 2 18.536
vt -9.5648 19.2616
vt 2.4352 19.2616
vt -9.1716 20
vt 2.8284 20
vt -8.8264 20.7384
vt 3.1736 20.7384
vt -8.536 21.464
vt 3.464 21.464
vt -8.304399 22.1648
vt 3.6956 22.1648
vt -8.1364 22.8284
vt 3.8636 22.8284
vt -8.0344 23.4436
vt 3.9656 23.4436
vt -8 24
vt 4 24
vt -8.0344 24.4876
vt 3.9656 24.4876
vt -8.1364 24.8988
vt 3.8636 24.8988
vt -8.304399 25.2264
vt 3.6956 25.2264
vt -8.536 25.464
vt 3.464 25.464
vt -8.8264 25.6088
vt 3.1736 25.6088
vt -9.1716 25.6568
vt 22.8284 25.6568
vt 11.1736 25.6088
vt 23.1736 25.6088
vt 11.464 25.464
vt 23.464 25.464
vt 11.6956 25.2264
vt 23.6956 25.2264
vt 11.8636 24.8988
vt 23.8636 24.8988
vt 11.9656 24.4876
vt 23.9656 24.4876
vt -10 14.5
vt -7.7018 14.5
vt -7.7018 17.5
vt -10 17.5
vt 2 14.5
vt -0.2981997 14.5
vt -0.2981997 17.5
vt 2 17.5
vt -0.522 -16.0344
vt 0 -16
vt 0 -20
vt -1.0352 -16.1364
vt -1.5308 -16.3044
vt -2 -16.536
vt -2.4352 -16.8264
vt -2.8284 -17.1716
vt -3.1736 -17.5648
vt -3.464 -18
vt -3.6956 -18.4692
vt -3.8636 -18.9648
vt -3.9656 -19.478
vt -4 -20
vt -3.9656 -20.522
vt -3.8636 -21.0352
vt -3.6956 -21.5308
vt -3.464 -22
vt -3.1736 -22.4352
vt -2.8284 -22.8284
vt -2.4352 -23.1736
vt -2 -23.464
vt -1.5308 -23.6956
vt -1.0352 -23.8636
vt -0.522 -23.9656
vt 0 -24
vt 0.522 -23.9656
vt 1.0352 -23.8636
vt 1.5308 -23.6956
vt 2 -23.464
vt 2.4352 -23.1736
vt 2.8284 -22.8284
vt 3.1736 -22.4352
vt 3.464 -22
vt 3.6956 -21.5308
vt 3.8636 -21.0352
vt 3.9656 -20.522
vt 4 -20
vt 3.9656 -19.478
vt 3.8636 -18.9648
vt 3.6956 -18.4692
vt 3.464 -18
vt 3.1736 -17.5648
vt 2.8284 -17.1716
vt 2.4352 -16.8264
vt 2 -16.536
vt 1.5308 -16.3044
vt 1.0352 -16.1364
vt 0.522 -16.0344
vt -28.0344 -16.5564
vt -28 -16
vt -16 -16
vt -16.0344 -16.5564
vt -28.1364 -17.1716
vt -16.1364 -17.1716
vt -28.3044 -17.8352
vt -16.3044 -17.8352
vt -28.536 -18.536
vt -16.536 -18.536
vt -28.8264 -19.2616
vt -16.8264 -19.2616
vt -29.1716 -20
vt -17.1716 -20
vt -29.5648 -20.7384
vt -17.5648 -20.7384
vt -30 -21.464
vt -18 -21.464
vt -30.4692 -22.1648
vt -18.4692 -22.1648
vt -30.9648 -22.8284
vt -18.9648 -22.8284
vt -31.478 -23.4436
vt -19.478 -23.4436
vt -32 -24
vt -4 -24
vt -15.9656 -24.4876
vt -3.9656 -24.4876
vt -15.8636 -24.8988
vt -3.8636 -24.8988
vt -15.6956 -25.2264
vt -3.6956 -25.2264
vt -15.464 -25.464
vt -3.464 -25.464
vt -15.1736 -25.6088
vt -3.1736 -25.6088
vt -14.8284 -25.6568
vt -22.8284 -25.6568
vt -35.1736 -25.6088
vt -23.1736 -25.6088
vt -35.464 -25.464
vt -23.464 -25.464
vt -35.6956 -25.2264
vt -23.6956 -25.2264
vt -35.8636 -24.8988
vt -23.8636 -24.8988
vt -35.9656 -24.4876
vt -23.9656 -24.4876
vt -36 -24
vt 0 -24
vt -11.478 -23.4436
vt 0.522 -23.4436
vt -10.9648 -22.8284
vt 1.0352 -22.8284
vt -10.4692 -22.1648
vt 1.5308 -22.1648
vt -10 -21.464
vt 2 -21.464
vt -9.5648 -20.7384
vt 2.4352 -20.7384
vt -9.1716 -20
vt 2.8284 -20
vt -8.8264 -19.2616
vt 3.1736 -19.2616
vt -8.536 -18.536
vt 3.464 -18.536
vt -8.304399 -17.8352
vt 3.6956 -17.8352
vt -8.1364 -17.1716
vt 3.8636 -17.1716
vt -8.0344 -16.5564
vt 3.9656 -16.5564
vt -8 -16
vt 4 -16
vt -8.0344 -15.5124
vt 3.9656 -15.5124
vt -8.1364 -15.1012
vt 3.8636 -15.1012
vt -8.304399 -14.7736
vt 3.6956 -14.7736
vt -8.536 -14.536
vt 3.464 -14.536
vt -8.8264 -14.3912
vt 3.1736 -14.3912
vt -9.1716 -14.3432
vt -17.1716 -14.3432
vt -28.8264 -14.3912
vt -16.8264 -14.3912
vt -28.536 -14.536
vt -16.536 -14.536
vt -28.3044 -14.7736
vt -16.3044 -14.7736
vt -28.1364 -15.1012
vt -16.1364 -15.1012
vt -28.0344 -15.5124
vt -16.0344 -15.5124
vt -10 -25.5
vt -7.7018 -25.5
vt -7.7018 -22.5
vt -10 -22.5
vt 2 -25.5
vt -0.2981997 -25.5
vt -0.2981997 -22.5
vt 2 -22.5
usemtl 26
f 3/3/3 2/2/2 1/1/1
f 1/1/1 4/4/4 3/3/3
f 2/2/2 6/6/6 5/5/5
f 5/5/5 1/1/1 2/2/2
f 6/6/6 8/8/8 7/7/7
f 7/7/7 5/5/5 6/6/6
f 8/8/8 3/3/3 4/4/4
f 4/4/4 7/7/7 8/8/8
f 11/11/11 10/10/10 9/9/9
f 9/9/9 12/12/12 11/11/11
f 10/10/10 14/14/14 13/13/13
f 13/13/13 9/9/9 10/10/10
f 14/14/14 16/16/16 15/15/15
f 15/15/15 13/13/13 14/14/14
f 16/16/16 11/11/11 12/12/12
f 12/12/12 15/15/15 16/16/16
f 19/19/19 18/18/18 17/17/17
f 17/17/17 20/20/20 19/19/19
f 21/21/21 20/20/20 17/17/17
f 17/17/17 22/22/22 21/21/21
f 25/25/25 24/24/24 23/23/23
f 23/23/23 26/26/26 25/25/25
f 27/27/27 26/26/26 23/23/23
f 23/23/23 28/28/28 27/27/27
f 31/31/31 30/30/30 29/29/29
f 29/29/29 32/32/32 31/31/31
f 34/34/34 33/33/33 29/29/29
f 29/29/29 30/30/30 34/34/34
f 37/37/37 36/36/36 35/35/35
f 35/35/35 38/38/38 37/37/37
f 40/40/40 39/39/39 35/35/35
f 35/35/35 36/36/36 40/40/40
f 43/43/43 42/42/42 41/41/41
f 41/41/41 44/44/44 43/43/43
f 45/45/45 44/44/44 41/41/41
f 41/41/41 46/46/46 45/45/45
f 49/49/49 48/48/48 47/47/47
f 47/47/47 50/50/50 49/49/49
f 51/51/51 50/50/50 47/47/47
f 47/47/47 52/52/52 51/51/51
f 55/55/55 54/54/54 53/53/53
f 53/53/53 56/56/56 55/55/55
f 58/58/58 57/57/57 53/53/53
f 53/53/53 54/54/54 58/58/58
f 61/61/61 60/60/60 59/59/59
f 59/59/59 62/62/62 61/61/61
f 64/64/64 63/63/63 59/59/59
f 59/59/59 60/60/60 64/64/64
f 67/67/67 66/66/66 65/65/65
f 65/65/65 68/68/68 67/67/67
f 69/69/69 68/68/68 65/65/65
f 65/65/65 70/70/70 69/69/69
f 73/73/73 72/72/72 71/71/71
f 71/71/71 74/74/74 73/73/73
f 75/75/75 74/74/74 71/71/71
f 71/71/71 76/76/76 75/75/75
f 79/79/79 78/78/78 77/77/77
f 77/77/77 80/80/80 79/79/79
f 82/82/82 81/81/81 77/77/77
f 77/77/77 78/78/78 82/82/82
f 85/85/85 84/84/84 83/83/83
f 83/83/83 86/86/86 85/85/85
f 88/88/88 87/87/87 83/83/83
f 83/83/83 84/84/84 88/88/88
f 89/89/89 90/90/90 91/91/91
f 91/91/91 92/92/92 89/89/89
f 93/93/93 94/94/94 95/95/95
f 95/95/95 96/96/96 93/93/93
f 97/97/97 98/98/98 99/99/99
f 99/99/99 100/100/100 97/97/97
f 101/101/101 102/102/102 103/103/103
f 103/103/103 104/104/104 101/101/101
f 107/107/107 106/106/106 105/105/105
f 105/105/105 108/108/108 107/107/107
f 111/111/111 110/110/110 109/109/109
f 109/109/109 112/112/112 111/111/111
f 115/115/115 114/114/114 113/113/113
f 113/113/113 116/116/116 115/115/115
f 119/119/119 118/118/118 117/117/117
f 117/117/117 120/120/120 119/119/119
f 123/123/123 122/122/122 121/121/121
f 121/121/121 124/124/124 123/123/123
f 127/127/127 126/126/126 125/125/125
f 125/125/125 128/128/128 127/127/127
f 131/131/131 130/130/130 129/129/129
f 129/129/129 132/132/132 131/131/131
f 135/135/135 134/134/134 133/133/133
f 133/133/133 136/136/136 135/135/135
f 101/101/101 104/104/104 137/137/137
f 137/137/137 138/138/138 101/101/101
f 138/138/138 137/137/137 139/139/139
f 139/139/139 140/140/140 138/138/138
f 140/140/140 139/139/139 141/141/141
f 141/141/141 142/142/142 140/140/140
f 142/142/142 141/141/141 143/143/143
f 143/143/143 144/144/144 142/142/142
f 144/144/144 143/143/143 145/145/145
f 145/145/145 146/146/146 144/144/144
f 146/146/146 145/145/145 147/147/147
f 147/147/147 148/148/148 146/146/146
f 148/148/148 147/147/147 149/149/149
f 149/149/149 150/150/150 148/148/148
f 150/150/150 149/149/149 151/151/151
f 151/151/151 152/152/152 150/150/150
f 152/152/152 151/151/151 153/153/153
f 153/153/153 154/154/154 152/152/152
f 154/154/154 153/153/153 155/155/155
f 155/155/155 156/156/156 154/154/154
f 156/156/156 155/155/155 157/157/157
f 157/157/157 158/158/158 156/156/156
f 158/158/158 157/157/157 159/159/159
f 159/159/159 160/160/160 158/158/158
f 160/160/160 159/159/159 161/161/161
f 161/161/161 162/162/162 160/160/160
f 162/162/162 161/161/161 163/163/163
f 163/163/163 164/164/164 162/162/162
f 164/164/164 163/163/163 165/165/165
f 165/165/165 166/166/166 164/164/164
f 166/166/166 165/165/165 167/167/167
f 167/167/167 168/168/168 166/166/166
f 168/168/168 167/167/167 169/169/169
f 169/169/169 170/170/170 168/168/168
f 170/170/170 169/169/169 171/171/171
f 171/171/171 172/172/172 170/170/170
f 172/172/172 171/171/171 173/173/173
f 173/173/173 174/174/174 172/172/172
f 174/174/174 173/173/173 175/175/175
f 175/175/175 176/176/176 174/174/174
f 176/176/176 175/175/175 177/177/177
f 177/177/177 178/178/178 176/176/176
f 178/178/178 177/177/177 179/179/179
f 179/179/179 180/180/180 178/178/178
f 180/180/180 179/179/179 181/181/181
f 181/181/181 182/182/182 180/180/180
f 182/182/182 181/181/181 93/93/93
f 93/93/93 96/96/96 182/182/182
f 183/183/183 120/120/120 117/117/117
f 117/117/117 184/184/184 183/183/183
f 185/185/185 183/183/183 184/184/184
f 184/184/184 186/186/186 185/185/185
f 187/187/187 185/185/185 186/186/186
f 186/186/186 188/188/188 187/187/187
f 189/189/189 187/187/187 188/188/188
f 188/188/188 190/190/190 189/189/189
f 191/191/191 189/189/189 190/190/190
f 190/190/190 192/192/192 191/191/191
f 193/193/193 191/191/191 192/192/192
f 192/192/192 194/194/194 193/193/193
f 195/195/195 193/193/193 194/194/194
f 194/194/194 196/196/196 195/195/195
f 197/197/197 195/195/195 196/196/196
f 196/196/196 198/198/198 197/197/197
f 199/199/199 197/197/197 198/198/198
f 198/198/198 200/200/200 199/199/199
f 201/201/201 199/199/199 200/200/200
f 200/200/200 202/202/202 201/201/201
f 203/203/203 201/201/201 202/202/202
f 202/202/202 204/204/204 203/203/203
f 205/205/205 203/203/203 204/204/204
f 204/204/204 206/206/206 205/205/205
f 207/207/207 205/205/205 206/206/206
f 206/206/206 208/208/208 207/207/207
f 209/209/209 207/207/207 208/208/208
f 208/208/208 210/210/210 209/209/209
f 211/211/211 209/209/209 210/210/210
f 210/210/210 212/212/212 211/211/211
f 213/213/213 211/211/211 212/212/212
f 212/212/212 214/214/214 213/213/213
f 215/215/215 213/213/213 214/214/214
f 214/214/214 216/216/216 215/215/215
f 217/217/217 215/215/215 216/216/216
f 216/216/216 218/218/218 217/217/217
f 219/219/219 217/217/217 218/218/218
f 218/218/218 220/220/220 219/219/219
f 221/221/221 219/219/219 220/220/220
f 220/220/220 222/222/222 221/221/221
f 223/223/223 221/221/221 222/222/222
f 222/222/222 224/224/224 223/223/223
f 225/225/225 223/223/223 224/224/224
f 224/224/224 226/226/226 225/225/225
f 227/227/227 225/225/225 226/226/226
f 226/226/226 228/228/228 227/227/227
f 109/109/109 227/227/227 228/228/228
f 228/228/228 112/112/112 109/109/109
f 229/229/229 97/97/97 100/100/100
f 100/100/100 230/230/230 229/229/229
f 231/231/231 229/229/229 230/230/230
f 230/230/230 232/232/232 231/231/231
f 233/233/233 231/231/231 232/232/232
f 232/232/232 234/234/234 233/233/233
f 235/235/235 233/233/233 234/234/234
f 234/234/234 236/236/236 235/235/235
f 237/237/237 235/235/235 236/236/236
f 236/236/236 238/238/238 237/237/237
f 239/239/239 237/237/237 238/238/238
f 238/238/238 240/240/240 239/239/239
f 241/241/241 239/239/239 240/240/240
f 240/240/240 242/242/242 241/241/241
f 243/243/243 241/241/241 242/242/242
f 242/242/242 244/244/244 243/243/243
f 245/245/245 243/243/243 244/244/244
f 244/244/244 246/246/246 245/245/245
f 247/247/247 245/245/245 246/246/246
f 246/246/246 248/248/248 247/247/247
f 249/249/249 247/247/247 248/248/248
f 248/248/248 250/250/250 249/249/249
f 251/251/251 249/249/249 250/250/250
f 116/116/116 113/113/113 252/252/252
f 252/252/252 253/253/253 116/116/116
f 253/253/253 252/252/252 254/254/254
f 254/254/254 255/255/255 253/253/253
f 255/255/255 254/254/254 256/256/256
f 256/256/256 257/257/257 255/255/255
f 257/257/257 256/256/256 258/258/258
f 258/258/258 259/259/259 257/257/257
f 259/259/259 258/258/258 260/260/260
f 260/260/260 261/261/261 259/259/259
f 261/261/261 260/260/260 262/262/262
f 262/262/262 263/263/263 261/261/261
f 263/263/263 262/262/262 264/264/264
f 264/264/264 265/265/265 263/263/263
f 265/265/265 264/264/264 266/266/266
f 266/266/266 267/267/267 265/265/265
f 267/267/267 266/266/266 268/268/268
f 268/268/268 269/269/269 267/267/267
f 269/269/269 268/268/268 270/270/270
f 270/270/270 271/271/271 269/269/269
f 271/271/271 270/270/270 272/272/272
f 272/272/272 273/273/273 271/271/271
f 273/273/273 272/272/272 274/274/274
f 89/89/89 92/92/92 275/275/275
f 275/275/275 276/276/276 89/89/89
f 276/276/276 275/275/275 277/277/277
f 277/277/277 278/278/278 276/276/276
f 278/278/278 277/277/277 279/279/279
f 279/279/279 280/280/280 278/278/278
f 280/280/280 279/279/279 281/281/281
f 281/281/281 282/282/282 280/280/280
f 282/282/282 281/281/281 283/283/283
f 283/283/283 284/284/284 282/282/282
f 284/284/284 283/283/283 285/285/285
f 285/285/285 286/286/286 284/284/284
f 286/286/286 285/285/285 287/287/287
f 287/287/287 288/288/288 286/286/286
f 288/288/288 287/287/287 289/289/289
f 289/289/289 290/290/290 288/288/288
f 290/290/290 289/289/289 291/291/291
f 291/291/291 292/292/292 290/290/290
f 292/292/292 291/291/291 293/293/293
f 293/293/293 294/294/294 292/292/292
f 294/294/294 293/293/293 295/295/295
f 295/295/295 296/296/296 294/294/294
f 296/296/296 295/295/295 297/297/297
f 298/298/298 108/108/108 105/105/105
f 105/105/105 299/299/299 298/298/298
f 300/300/300 298/298/298 299/299/299
f 299/299/299 301/301/301 300/300/300
f 302/302/302 300/300/300 301/301/301
f 301/301/301 303/303/303 302/302/302
f 304/304/304 302/302/302 303/303/303
f 303/303/303 305/305/305 304/304/304
f 306/306/306 304/304/304 305/305/305
f 305/305/305 307/307/307 306/306/306
f 308/308/308 306/306/306 307/307/307
f 307/307/307 309/309/309 308/308/308
f 310/310/310 308/308/308 309/309/309
f 309/309/309 311/311/311 310/310/310
f 312/312/312 310/310/310 311/311/311
f 311/311/311 313/313/313 312/312/312
f 314/314/314 312/312/312 313/313/313
f 313/313/313 315/315/315 314/314/314
f 316/316/316 314/314/314 315/315/315
f 315/315/315 317/317/317 316/316/316
f 318/318/318 316/316/316 317/317/317
f 317/317/317 319/319/319 318/318/318
f 320/320/320 318/318/318 319/319/319
f 321/321/321 322/322/322 323/323/323
f 324/324/324 321/321/321 323/323/323
f 325/325/325 324/324/324 323/323/323
f 326/326/326 325/325/325 323/323/323
f 327/327/327 326/326/326 323/323/323
f 328/328/328 327/327/327 323/323/323
f 329/329/329 328/328/328 323/323/323
f 330/330/330 329/329/329 323/323/323
f 331/331/331 330/330/330 323/323/323
f 332/332/332 331/331/331 323/323/323
f 333/333/333 332/332/332 323/323/323
f 334/334/334 333/333/333 323/323/323
f 335/335/335 334/334/334 323/323/323
f 336/336/336 335/335/335 323/323/323
f 337/337/337 336/336/336 323/323/323
f 338/338/338 337/337/337 323/323/323
f 339/339/339 338/338/338 323/323/323
f 340/340/340 339/339/339 323/323/323
f 341/341/341 340/340/340 323/323/323
f 342/342/342 341/341/341 323/323/323
f 343/343/343 342/342/342 323/323/323
f 344/344/344 343/343/343 323/323/323
f 345/345/345 344/344/344 323/323/323
f 346/346/346 345/345/345 323/323/323
f 347/347/347 346/346/346 323/323/323
f 348/348/348 347/347/347 323/323/323
f 349/349/349 348/348/348 323/323/323
f 350/350/350 349/349/349 323/323/323
f 351/351/351 350/350/350 323/323/323
f 352/352/352 351/351/351 323/323/323
f 353/353/353 352/352/352 323/323/323
f 354/354/354 353/353/353 323/323/323
f 355/355/355 354/354/354 323/323/323
f 356/356/356 355/355/355 323/323/323
f 357/357/357 356/356/356 323/323/323
f 358/358/358 357/357/357 323/323/323
f 359/359/359 358/358/358 323/323/323
f 360/360/360 359/359/359 323/323/323
f 361/361/361 360/360/360 323/323/323
f 362/362/362 361/361/361 323/323/323
f 363/363/363 362/362/362 323/323/323
f 364/364/364 363/363/363 323/323/323
f 365/365/365 364/364/364 323/323/323
f 366/366/366 365/365/365 323/323/323
f 367/367/367 366/366/366 323/323/323
f 368/368/368 367/367/367 323/323/323
f 369/369/369 368/368/368 323/323/323
f 322/322/322 369/369/369 323/323/323
f 370/370/370 371/371/371 372/372/372
f 372/372/372 373/373/373 370/370/370
f 374/374/374 370/370/370 373/373/373
f 373/373/373 375/375/375 374/374/374
f 376/376/376 374/374/374 375/375/375
f 375/375/375 377/377/377 376/376/376
f 378/378/378 376/376/376 377/377/377
f 377/377/377 379/379/379 378/378/378
f 380/380/380 378/378/378 379/379/379
f 379/379/379 381/381/381 380/380/380
f 382/382/382 380/380/380 381/381/381
f 381/381/381 383/383/383 382/382/382
f 384/384/384 382/382/382 383/383/383
f 383/383/383 385/385/385 384/384/384
f 386/386/386 384/384/384 385/385/385
f 385/385/385 387/387/387 386/386/386
f 388/388/388 386/386/386 387/387/387
f 387/387/387 389/389/389 388/388/388
f 390/390/390 388/388/388 389/389/389
f 389/389/389 391/391/391 390/390/390
f 392/392/392 390/390/390 391/391/391
f 391/391/391 393/393/393 392/392/392
f 394/394/394 392/392/392 393/393/393
f 393/393/393 395/395/395 394/394/394
f 396/396/396 394/394/394 395/395/395
f 395/395/395 397/397/397 396/396/396
f 398/398/398 396/396/396 397/397/397
f 397/397/397 399/399/399 398/398/398
f 400/400/400 398/398/398 399/399/399
f 399/399/399 401/401/401 400/400/400
f 402/402/402 400/400/400 401/401/401
f 401/401/401 403/403/403 402/402/402
f 404/404/404 402/402/402 403/403/403
f 403/403/403 405/405/405 404/404/404
f 406/406/406 404/404/404 405/405/405
f 405/405/405 407/407/407 406/406/406
f 408/408/408 406/406/406 407/407/407
f 407/407/407 409/409/409 408/408/408
f 410/410/410 408/408/408 409/409/409
f 409/409/409 411/411/411 410/410/410
f 412/412/412 410/410/410 411/411/411
f 411/411/411 413/413/413 412/412/412
f 414/414/414 412/412/412 413/413/413
f 413/413/413 415/415/415 414/414/414
f 416/416/416 414/414/414 415/415/415
f 415/415/415 417/417/417 416/416/416
f 418/418/418 416/416/416 417/417/417
f 417/417/417 419/419/419 418/418/418
f 420/420/420 418/418/418 419/419/419
f 419/419/419 421/421/421 420/420/420
f 422/422/422 420/420/420 421/421/421
f 421/421/421 423/423/423 422/422/422
f 424/424/424 422/422/422 423/423/423
f 423/423/423 425/425/425 424/424/424
f 426/426/426 424/424/424 425/425/425
f 425/425/425 427/427/427 426/426/426
f 428/428/428 426/426/426 427/427/427
f 427/427/427 429/429/429 428/428/428
f 430/430/430 428/428/428 429/429/429
f 429/429/429 431/431/431 430/430/430
f 432/432/432 430/430/430 431/431/431
f 431/431/431 433/433/433 432/432/432
f 434/434/434 432/432/432 433/433/433
f 433/433/433 435/435/435 434/434/434
f 436/436/436 434/434/434 435/435/435
f 435/435/435 437/437/437 436/436/436
f 438/438/438 436/436/436 437/437/437
f 437/437/437 439/439/439 438/438/438
f 440/440/440 438/438/438 439/439/439
f 439/439/439 441/441/441 440/440/440
f 442/442/442 440/440/440 441/441/441
f 441/441/441 443/443/443 442/442/442
f 444/444/444 442/442/442 443/443/443
f 443/443/443 445/445/445 444/444/444
f 446/446/446 444/444/444 445/445/445
f 445/445/445 447/447/447 446/446/446
f 448/448/448 446/446/446 447/447/447
f 447/447/447 449/449/449 448/448/448
f 450/450/450 448/448/448 449/449/449
f 449/449/449 451/451/451 450/450/450
f 452/452/452 450/450/450 451/451/451
f 451/451/451 453/453/453 452/452/452
f 454/454/454 452/452/452 453/453/453
f 453/453/453 455/455/455 454/454/454
f 456/456/456 454/454/454 455/455/455
f 455/455/455 457/457/457 456/456/456
f 458/458/458 456/456/456 457/457/457
f 457/457/457 459/459/459 458/458/458
f 460/460/460 458/458/458 459/459/459
f 459/459/459 461/461/461 460/460/460
f 462/462/462 460/460/460 461/461/461
f 461/461/461 463/463/463 462/462/462
f 464/464/464 462/462/462 463/463/463
f 463/463/463 465/465/465 464/464/464
f 371/371/371 464/464/464 465/465/465
f 465/465/465 372/372/372 371/371/371
f 468/468/468 467/467/467 466/466/466
f 466/466/466 469/469/469 468/468/468
f 470/470/470 471/471/471 472/472/472
f 472/472/472 473/473/473 470/470/470
f 474/474/474 475/475/475 476/476/476
f 477/477/477 474/474/474 476/476/476
f 478/478/478 477/477/477 476/476/476
f 479/479/479 478/478/478 476/476/476
f 480/480/480 479/479/479 476/476/476
f 481/481/481 480/480/480 476/476/476
f 482/482/482 481/481/481 476/476/476
f 483/483/483 482/482/482 476/476/476
f 484/484/484 483/483/483 476/476/476
f 485/485/485 484/484/484 476/476/476
f 486/486/486 485/485/485 476/476/476
f 487/487/487 486/486/486 476/476/476
f 488/488/488 487/487/487 476/476/476
f 489/489/489 488/488/488 476/476/476
f 490/490/490 489/489/489 476/476/476
f 491/491/491 490/490/490 476/476/476
f 492/492/492 491/491/491 476/476/476
f 493/493/493 492/492/492 476/476/476
f 494/494/494 493/493/493 476/476/476
f 495/495/495 494/494/494 476/476/476
f 496/496/496 495/495/495 476/476/476
f 497/497/497 496/496/496 476/476/476
f 498/498/498 497/497/497 476/476/476
f 499/499/499 498/498/498 476/476/476
f 500/500/500 499/499/499 476/476/476
f 501/501/501 500/500/500 476/476/476
f 502/502/502 501/501/501 476/476/476
f 503/503/503 502/502/502 476/476/476
f 504/504/504 503/503/503 476/476/476
f 505/505/505 504/504/504 476/476/476
f 506/506/506 505/505/505 476/476/476
f 507/507/507 506/506/506 476/476/476
f 508/508/508 507/507/507 476/476/476
f 509/509/509 508/508/508 476/476/476
f 510/510/510 509/509/509 476/476/476
f 511/511/511 510/510/510 476/476/476
f 512/512/512 511/511/511 476/476/476
f 513/513/513 512/512/512 476/476/476
f 514/514/514 513/513/513 476/476/476
f 515/515/515 514/514/514 476/476/476
f 516/516/516 515/515/515 476/476/476
f 517/517/517 516/516/516 476/476/476
f 518/518/518 517/517/517 476/476/476
f 519/519/519 518/518/518 476/476/476
f 520/520/520 519/519/519 476/476/476
f 521/521/521 520/520/520 476/476/476
f 522/522/522 521/521/521 476/476/476
f 475/475/475 522/522/522 476/476/476
f 523/523/523 524/524/524 525/525/525
f 525/525/525 526/526/526 523/523/523
f 527/527/527 523/523/523 526/526/526
f 526/526/526 528/528/528 527/527/527
f 529/529/529 527/527/527 528/528/528
f 528/528/528 530/530/530 529/529/529
f 531/531/531 529/529/529 530/530/530
f 530/530/530 532/532/532 531/531/531
f 533/533/533 531/531/531 532/532/532
f 532/532/532 534/534/534 533/533/533
f 535/535/535 533/533/533 534/534/534
f 534/534/534 536/536/536 535/535/535
f 537/537/537 535/535/535 536/536/536
f 536/536/536 538/538/538 537/537/537
f 539/539/539 537/537/537 538/538/538
f 538/538/538 540/540/540 539/539/539
f 541/541/541 539/539/539 540/540/540
f 540/540/540 542/542/542 541/541/541
f 543/543/543 541/541/541 542/542/542
f 542/542/542 544/544/544 543/543/543
f 545/545/545 543/543/543 544/544/544
f 544/544/544 546/546/546 545/545/545
f 547/547/547 545/545/545 546/546/546
f 546/546/546 548/548/548 547/547/547
f 549/549/549 547/547/547 548/548/548
f 548/548/548 550/550/550 549/549/549
f 551/551/551 549/549/549 550/550/550
f 550/550/550 552/552/552 551/551/551
f 553/553/553 551/551/551 552/552/552
f 552/552/552 554/554/554 553/553/553
f 555/555/555 553/553/553 554/554/554
f 554/554/554 556/556/556 555/555/555
f 557/557/557 555/555/555 556/556/556
f 556/556/556 558/558/558 557/557/557
f 559/559/559 557/557/557 558/558/558
f 558/558/558 560/560/560 559/559/559
f 561/561/561 559/559/559 560/560/560
f 560/560/560 562/562/562 561/561/561
f 563/563/563 561/561/561 562/562/562
f 562/562/562 564/564/564 563/563/563
f 565/565/565 563/563/563 564/564/564
f 564/564/564 566/566/566 565/565/565
f 567/567/567 565/565/565 566/566/566
f 566/566/566 568/568/568 567/567/567
f 569/569/569 567/567/567 568/568/568
f 568/568/568 570/570/570 569/569/569
f 571/571/571 569/569/569 570/570/570
f 570/570/570 572/572/572 571/571/571
f 573/573/573 571/571/571 572/572/572
f 572/572/572 574/574/574 573/573/573
f 575/575/575 573/573/573 574/574/574
f 574/574/574 576/576/576 575/575/575
f 577/577/577 575/575/575 576/576/576
f 576/576/576 578/578/578 577/577/577
f 579/579/579 577/577/577 578/578/578
f 578/578/578 580/580/580 579/579/579
f 581/581/581 579/579/579 580/580/580
f 580/580/580 582/582/582 581/581/581
f 583/583/583 581/581/581 582/582/582
f 582/582/582 584/584/584 583/583/583
f 585/585/585 583/583/583 584/584/584
f 584/584/584 586/586/586 585/585/585
f 587/587/587 585/585/585 586/586/586
f 586/586/586 588/588/588 587/587/587
f 589/589/589 587/587/587 588/588/588
f 588/588/588 590/590/590 589/589/589
f 591/591/591 589/589/589 590/590/590
f 590/590/590 592/592/592 591/591/591
f 593/593/593 591/591/591 592/592/592
f 592/592/592 594/594/594 593/593/593
f 595/595/595 593/593/593 594/594/594
f 594/594/594 596/596/596 595/595/595
f 597/597/597 595/595/595 596/596/596
f 596/596/596 598/598/598 597/597/597
f 599/599/599 597/597/597 598/598/598
f 598/598/598 600/600/600 599/599/599
f 601/601/601 599/599/599 600/600/600
f 600/600/600 602/602/602 601/601/601
f 603/603/603 601/601/601 602/602/602
f 602/602/602 604/604/604 603/603/603
f 605/605/605 603/603/603 604/604/604
f 604/604/604 606/606/606 605/605/605
f 607/607/607 605/605/605 606/606/606
f 606/606/606 608/608/608 607/607/607
f 609/609/609 607/607/607 608/608/608
f 608/608/608 610/610/610 609/609/609
f 611/611/611 609/609/609 610/610/610
f 610/610/610 612/612/612 611/611/611
f 613/613/613 611/611/611 612/612/612
f 612/612/612 614/614/614 613/613/613
f 615/615/615 613/613/613 614/614/614
f 614/614/614 616/616/616 615/615/615
f 617/617/617 615/615/615 616/616/616
f 616/616/616 618/618/618 617/617/617
f 524/524/524 617/617/617 618/618/618
f 618/618/618 525/525/525 524/524/524
f 621/621/621 620/620/620 619/619/619
f 619/619/619 622/622/622 621/621/621
f 623/623/623 624/624/624 625/625/625
f 625/625/625 626/626/626 623/623/623
f 627/627/627 628/628/628 629/629/629
f 630/630/630 627/627/627 629/629/629
f 631/631/631 630/630/630 629/629/629
f 632/632/632 631/631/631 629/629/629
f 633/633/633 632/632/632 629/629/629
f 634/634/634 633/633/633 629/629/629
f 635/635/635 634/634/634 629/629/629
f 636/636/636 635/635/635 629/629/629
f 637/637/637 636/636/636 629/629/629
f 638/638/638 637/637/637 629/629/629
f 639/639/639 638/638/638 629/629/629
f 640/640/640 639/639/639 629/629/629
f 641/641/641 640/640/640 629/629/629
f 642/642/642 641/641/641 629/629/629
f 643/643/643 642/642/642 629/629/629
f 644/644/644 643/643/643 629/629/629
f 645/645/645 644/644/644 629/629/629
f 646/646/646 645/645/645 629/629/629
f 647/647/647 646/646/646 629/629/629
f 648/648/648 647/647/647 629/629/629
f 649/649/649 648/648/648 629/629/629
f 650/650/650 649/649/649 629/629/629
f 651/651/651 650/650/650 629/629/629
f 652/652/652 651/651/651 629/629/629
f 653/653/653 652/652/652 629/629/629
f 654/654/654 653/653/653 629/629/629
f 655/655/655 654/654/654 629/629/629
f 656/656/656 655/655/655 629/629/629
f 657/657/657 656/656/656 629/629/629
f 658/658/658 657/657/657 629/629/629
f 659/659/659 658/658/658 629/629/629
f 660/660/660 659/659/659 629/629/629
f 661/661/661 660/660/660 629/629/629
f 662/662/662 661/661/661 629/629/629
f 663/663/663 662/662/662 629/629/629
f 664/664/664 663/663/663 629/629/629
f 665/665/665 664/664/664 629/629/629
f 666/666/666 665/665/665 629/629/629
f 667/667/667 666/666/666 629/629/629
f 668/668/668 667/667/667 629/629/629
f 669/669/669 668/668/668 629/629/629
f 670/670/670 669/669/669 629/629/629
f 671/671/671 670/670/670 629/629/629
f 672/672/672 671/671/671 629/629/629
f 673/673/673 672/672/672 629/629/629
f 674/674/674 673/673/673 629/629/629
f 675/675/675 674/674/674 629/629/629
f 628/628/628 675/675/675 629/629/629
f 676/676/676 677/677/677 678/678/678
f 678/678/678 679/679/679 676/676/676
f 680/680/680 676/676/676 679/679/679
f 679/679/679 681/681/681 680/680/680
f 682/682/682 680/680/680 681/681/681
f 681/681/681 683/683/683 682/682/682
f 684/684/684 682/682/682 683/683/683
f 683/683/683 685/685/685 684/684/684
f 686/686/686 684/684/684 685/685/685
f 685/685/685 687/687/687 686/686/686
f 688/688/688 686/686/686 687/687/687
f 687/687/687 689/689/689 688/688/688
f 690/690/690 688/688/688 689/689/689
f 689/689/689 691/691/691 690/690/690
f 692/692/692 690/690/690 691/691/691
f 691/691/691 693/693/693 692/692/692
f 694/694/694 692/692/692 693/693/693
f 693/693/693 695/695/695 694/694/694
f 696/696/696 694/694/694 695/695/695
f 695/695/695 697/697/697 696/696/696
f 698/698/698 696/696/696 697/697/697
f 697/697/697 699/699/699 698/698/698
f 700/700/700 698/698/698 699/699/699
f 699/699/699 701/701/701 700/700/700
f 702/702/702 700/700/700 701/701/701
f 701/701/701 703/703/703 702/702/702
f 704/704/704 702/702/702 703/703/703
f 703/703/703 705/705/705 704/704/704
f 706/706/706 704/704/704 705/705/705
f 705/705/705 707/707/707 706/706/706
f 708/708/708 706/706/706 707/707/707
f 707/707/707 709/709/709 708/708/708
f 710/710/710 708/708/708 709/709/709
f 709/709/709 711/711/711 710/710/710
f 712/712/712 710/710/710 711/711/711
f 711/711/711 713/713/713 712/712/712
f 714/714/714 712/712/712 713/713/713
f 713/713/713 715/715/715 714/714/714
f 716/716/716 714/714/714 715/715/715
f 715/715/715 717/717/717 716/716/716
f 718/718/718 716/716/716 717/717/717
f 717/717/717 719/719/719 718/718/718
f 720/720/720 718/718/718 719/719/719
f 719/719/719 721/721/721 720/720/720
f 722/722/722 720/720/720 721/721/721
f 721/721/721 723/723/723 722/722/722
f 724/724/724 722/722/722 723/723/723
f 723/723/723 725/725/725 724/724/724
f 726/726/726 724/724/724 725/725/725
f 725/725/725 727/727/727 726/726/726
f 728/728/728 726/726/726 727/727/727
f 727/727/727 729/729/729 728/728/728
f 730/730/730 728/728/728 729/729/729
f 729/729/729 731/731/731 730/730/730
f 732/732/732 730/730/730 731/731/731
f 731/731/731 733/733/733 732/732/732
f 734/734/734 732/732/732 733/733/733
f 733/733/733 735/735/735 734/734/734
f 736/736/736 734/734/734 735/735/735
f 735/735/735 737/737/737 736/736/736
f 738/738/738 736/736/736 737/737/737
f 737/737/737 739/739/739 738/738/738
f 740/740/740 738/738/738 739/739/739
f 739/739/739 741/741/741 740/740/740
f 742/742/742 740/740/740 741/741/741
f 741/741/741 743/743/743 742/742/742
f 744/744/744 742/742/742 743/743/743
f 743/743/743 745/745/745 744/744/744
f 746/746/746 744/744/744 745/745/745
f 745/745/745 747/747/747 746/746/746
f 748/748/748 746/746/746 747/747/747
f 747/747/747 749/749/749 748/748/748
f 750/750/750 748/748/748 749/749/749
f 749/749/749 751/751/751 750/750/750
f 752/752/752 750/750/750 751/751/751
f 751/751/751 753/753/753 752/752/752
f 754/754/754 752/752/752 753/753/753
f 753/753/753 755/755/755 754/754/754
f 756/756/756 754/754/754 755/755/755
f 755/755/755 757/757/757 756/756/756
f 758/758/758 756/756/756 757/757/757
f 757/757/757 759/759/759 758/758/758
f 760/760/760 758/758/758 759/759/759
f 759/759/759 761/761/761 760/760/760
f 762/762/762 760/760/760 761/761/761
f 761/761/761 763/763/763 762/762/762
f 764/764/764 762/762/762 763/763/763
f 763/763/763 765/765/765 764/764/764
f 766/766/766 764/764/764 765/765/765
f 765/765/765 767/767/767 766/766/766
f 768/768/768 766/766/766 767/767/767
f 767/767/767 769/769/769 768/768/768
f 770/770/770 768/768/768 769/769/769
f 769/769/769 771/771/771 770/770/770
f 677/677/677 770/770/770 771/771/771
f 771/771/771 678/678/678 677/677/677
f 774/774/774 773/773/773 772/772/772
f 772/772/772 775/775/775 774/774/774
f 776/776/776 777/777/777 778/778/778
f 778/778/778 779/779/779 776/776/776
