mtllib slope_curved1*1*2:3_double_magenta.mtl
v 0 19 9.00001
v 0 16 6.000007
v 0 4.000003 5.999995
v 0 1 8.999991
v 0 19.00002 -8.99999
v 0 16.00002 -5.999993
v 0 1.000019 -9.000009
v 0 4.000016 -6.000005
v -1 20 10.00001
v -1 19 9.00001
v -1 1 8.999991
v -1 -8.742279E-07 9.99999
v -1 20.00002 -9.999989
v -1 19.00002 -8.99999
v -1 1.994771E-05 -10.00001
v -1 1.000019 -9.000009
v -6 -8.742279E-07 9.99999
v -1 -8.742279E-07 9.99999
v -1 20 10.00001
v -6 20 10.00001
v -6 20 10.00001
v -1 20 10.00001
v -1 20.00002 -9.999989
v -6 20.00002 -9.999989
v -6 20.00002 -9.999989
v -1 20.00002 -9.999989
v -1 1.994771E-05 -10.00001
v -6 1.994771E-05 -10.00001
v -6 1.994771E-05 -10.00001
v -1 1.994771E-05 -10.00001
v -1 -8.742279E-07 9.99999
v -6 -8.742279E-07 9.99999
v -6 4.000003 5.999995
v 0 4.000003 5.999995
v 0 16 6.000007
v -6 16 6.000007
v -6 16 6.000007
v 0 16 6.000007
v 0 16.00002 -5.999993
v -6 16.00002 -5.999993
v -6 16.00002 -5.999993
v 0 16.00002 -5.999993
v 0 4.000016 -6.000005
v -6 4.000016 -6.000005
v -6 4.000016 -6.000005
v 0 4.000016 -6.000005
v 0 4.000003 5.999995
v -6 4.000003 5.999995
v 0 1 8.999991
v -1 1 8.999991
v -1 19 9.00001
v 0 19 9.00001
v 0 19 9.00001
v -1 19 9.00001
v -1 19.00002 -8.99999
v 0 19.00002 -8.99999
v 0 19.00002 -8.99999
v -1 19.00002 -8.99999
v -1 1.000019 -9.000009
v 0 1.000019 -9.000009
v 0 1.000019 -9.000009
v -1 1.000019 -9.000009
v -1 1 8.999991
v 0 1 8.999991
v -7.305 0.08599957 9.99999
v -7.305 0.08602039 -10.00001
v -8.588 0.3409987 9.99999
v -8.588 0.3410195 -10.00001
v -9.827 0.7609988 9.999991
v -9.827 0.7610196 -10.00001
v -11 1.339999 9.999991
v -11 1.34002 -10.00001
v -12.088 2.065999 9.999992
v -12.088 2.06602 -10.00001
v -13.071 2.928999 9.999993
v -13.071 2.92902 -10.00001
v -13.934 3.911999 9.999994
v -13.934 3.91202 -10.00001
v -14.66 4.999999 9.999995
v -14.66 5.00002 -10
v -15.239 6.172999 9.999997
v -15.239 6.17302 -10
v -15.659 7.411999 9.999998
v -15.659 7.41202 -10
v -15.914 8.694999 9.999999
v -15.914 8.69502 -10
v -16 9.999999 10
v -16 10.00002 -9.999999
v -15.914 11.305 10
v -15.914 11.30502 -9.999998
v -15.659 12.588 10
v -15.659 12.58802 -9.999996
v -15.239 13.827 10
v -15.239 13.82702 -9.999995
v -14.66 15 10.00001
v -14.66 15.00002 -9.999994
v -13.934 16.088 10.00001
v -13.934 16.08802 -9.999992
v -13.071 17.071 10.00001
v -13.071 17.07102 -9.999991
v -12.088 17.934 10.00001
v -12.088 17.93402 -9.99999
v -11 18.66 10.00001
v -11 18.66002 -9.99999
v -9.827 19.239 10.00001
v -9.827 19.23902 -9.99999
v -8.588 19.659 10.00001
v -8.588 19.65902 -9.99999
v -7.305 19.914 10.00001
v -7.305 19.91402 -9.999989
v -6.783 4.051603 5.999995
v -6.783 4.051616 -6.000005
v -7.5528 4.204603 5.999995
v -7.5528 4.204616 -6.000005
v -8.2962 4.456604 5.999995
v -8.2962 4.456616 -6.000005
v -9 4.804003 5.999995
v -9 4.804016 -6.000005
v -9.6528 5.239604 5.999996
v -9.6528 5.239616 -6.000004
v -10.2426 5.757403 5.999997
v -10.2426 5.757416 -6.000003
v -10.7604 6.347203 5.999997
v -10.7604 6.347216 -6.000003
v -11.196 7.000003 5.999998
v -11.196 7.000016 -6.000002
v -11.5434 7.703803 5.999999
v -11.5434 7.703816 -6.000001
v -11.7954 8.447204 5.999999
v -11.7954 8.447216 -6.000001
v -11.9484 9.217003 6
v -11.9484 9.217016 -6
v -12 10 6.000001
v -12 10.00002 -5.999999
v -11.9484 10.783 6.000002
v -11.9484 10.78302 -5.999998
v -11.7954 11.5528 6.000002
v -11.7954 11.55282 -5.999998
v -11.5434 12.2962 6.000003
v -11.5434 12.29622 -5.999997
v -11.196 13 6.000004
v -11.196 13.00002 -5.999996
v -10.7604 13.6528 6.000005
v -10.7604 13.65282 -5.999995
v -10.2426 14.2426 6.000005
v -10.2426 14.24262 -5.999995
v -9.6528 14.7604 6.000006
v -9.6528 14.76042 -5.999994
v -9 15.196 6.000006
v -9 15.19602 -5.999994
v -8.2962 15.5434 6.000007
v -8.2962 15.54342 -5.999993
v -7.5528 15.7954 6.000007
v -7.5528 15.79542 -5.999993
v -6.783 15.9484 6.000007
v -6.783 15.94842 -5.999993
v -7.305 19.91402 -9.999989
v -7.305 0.08602039 -10.00001
v -8.588 19.65902 -9.99999
v -8.588 0.3410195 -10.00001
v -9.827 19.23902 -9.99999
v -9.827 0.7610196 -10.00001
v -11 18.66002 -9.99999
v -11 1.34002 -10.00001
v -12.088 17.93402 -9.99999
v -12.088 2.06602 -10.00001
v -13.071 17.07102 -9.999991
v -13.071 2.92902 -10.00001
v -13.934 16.08802 -9.999992
v -13.934 3.91202 -10.00001
v -14.66 15.00002 -9.999994
v -14.66 5.00002 -10
v -15.239 13.82702 -9.999995
v -15.239 6.17302 -10
v -15.659 12.58802 -9.999996
v -15.659 7.41202 -10
v -15.914 11.30502 -9.999998
v -15.914 8.69502 -10
v -16 10.00002 -9.999999
v -6.783 15.94842 -5.999993
v -6.783 4.051616 -6.000005
v -7.5528 15.79542 -5.999993
v -7.5528 4.204616 -6.000005
v -8.2962 15.54342 -5.999993
v -8.2962 4.456616 -6.000005
v -9 15.19602 -5.999994
v -9 4.804016 -6.000005
v -9.6528 14.76042 -5.999994
v -9.6528 5.239616 -6.000004
v -10.2426 14.24262 -5.999995
v -10.2426 5.757416 -6.000003
v -10.7604 13.65282 -5.999995
v -10.7604 6.347216 -6.000003
v -11.196 13.00002 -5.999996
v -11.196 7.000016 -6.000002
v -11.5434 12.29622 -5.999997
v -11.5434 7.703816 -6.000001
v -11.7954 11.55282 -5.999998
v -11.7954 8.447216 -6.000001
v -11.9484 10.78302 -5.999998
v -11.9484 9.217016 -6
v -12 10.00002 -5.999999
v -7.305 19.914 10.00001
v -7.305 0.08599957 9.99999
v -8.588 19.659 10.00001
v -8.588 0.3409987 9.99999
v -9.827 19.239 10.00001
v -9.827 0.7609988 9.999991
v -11 18.66 10.00001
v -11 1.339999 9.999991
v -12.088 17.934 10.00001
v -12.088 2.065999 9.999992
v -13.071 17.071 10.00001
v -13.071 2.928999 9.999993
v -13.934 16.088 10.00001
v -13.934 3.911999 9.999994
v -14.66 15 10.00001
v -14.66 4.999999 9.999995
v -15.239 13.827 10
v -15.239 6.172999 9.999997
v -15.659 12.588 10
v -15.659 7.411999 9.999998
v -15.914 11.305 10
v -15.914 8.694999 9.999999
v -16 9.999999 10
v -6.783 15.9484 6.000007
v -6.783 4.051603 5.999995
v -7.5528 15.7954 6.000007
v -7.5528 4.204603 5.999995
v -8.2962 15.5434 6.000007
v -8.2962 4.456604 5.999995
v -9 15.196 6.000006
v -9 4.804003 5.999995
v -9.6528 14.7604 6.000006
v -9.6528 5.239604 5.999996
v -10.2426 14.2426 6.000005
v -10.2426 5.757403 5.999997
v -10.7604 13.6528 6.000005
v -10.7604 6.347203 5.999997
v -11.196 13 6.000004
v -11.196 7.000003 5.999998
v -11.5434 12.2962 6.000003
v -11.5434 7.703803 5.999999
v -11.7954 11.5528 6.000002
v -11.7954 8.447204 5.999999
v -11.9484 10.783 6.000002
v -11.9484 9.217003 6
v -12 10 6.000001
vn 1 0 0
vn 1 0 0
vn 1 0 0
vn 1 0 0
vn 1 0 0
vn 1 0 0
vn 1 0 0
vn 1 0 0
vn 1 0 0
vn 1 0 0
vn 1 0 0
vn 1 0 0
vn 1 0 0
vn 1 0 0
vn 1 0 0
vn 1 0 0
vn 0 -1.041097E-06 1
vn 0 -1.041097E-06 1
vn 0 -1.041097E-06 1
vn 0 -1.041097E-06 1
vn -0.01363877 0.999907 1.041E-06
vn 0 1 1.041097E-06
vn 0 1 1.041097E-06
vn -0.01363877 0.999907 1.041E-06
vn 0 1.041097E-06 -1
vn 0 1.041097E-06 -1
vn 0 1.041097E-06 -1
vn 0 1.041097E-06 -1
vn -0.01363877 -0.999907 -1.041E-06
vn 0 -1 -1.041097E-06
vn 0 -1 -1.041097E-06
vn -0.01363877 -0.999907 -1.041E-06
vn 0 1.041097E-06 -1
vn 0 1.041097E-06 -1
vn 0 1.041097E-06 -1
vn 0 1.041097E-06 -1
vn 0.00760703 -0.999971 -1.041067E-06
vn 0 -1 -1.041097E-06
vn 0 -1 -1.041097E-06
vn 0.00760703 -0.999971 -1.041067E-06
vn 0 -1.041097E-06 1
vn 0 -1.041097E-06 1
vn 0 -1.041097E-06 1
vn 0 -1.041097E-06 1
vn 0.00760703 0.999971 1.041067E-06
vn 0 1 1.041097E-06
vn 0 1 1.041097E-06
vn 0.00760703 0.999971 1.041067E-06
vn 0 -1.041097E-06 1
vn 0 -1.041097E-06 1
vn 0 -1.041097E-06 1
vn 0 -1.041097E-06 1
vn 0 1 1.041097E-06
vn 0 1 1.041097E-06
vn 0 1 1.041097E-06
vn 0 1 1.041097E-06
vn 0 1.041097E-06 -1
vn 0 1.041097E-06 -1
vn 0 1.041097E-06 -1
vn 0 1.041097E-06 -1
vn 0 -1 -1.041097E-06
vn 0 -1 -1.041097E-06
vn 0 -1 -1.041097E-06
vn 0 -1 -1.041097E-06
vn -0.1090301 -0.9940385 -1.034891E-06
vn -0.152172 -0.988354 -1.028973E-06
vn -0.237426 -0.9714056 -1.011328E-06
vn -0.2795392 -0.9601343 -9.99593E-07
vn -0.3622617 -0.9320765 -9.703821E-07
vn -0.4028672 -0.9152585 -9.528729E-07
vn -0.4809974 -0.876722 -9.127528E-07
vn -0.5185451 -0.8550502 -8.901903E-07
vn -0.5910982 -0.8065997 -8.397486E-07
vn -0.6260644 -0.7797714 -8.118178E-07
vn -0.6916225 -0.7222592 -7.519419E-07
vn -0.722259 -0.6916227 -7.200464E-07
vn -0.7797713 -0.6260644 -6.517939E-07
vn -0.8065996 -0.5910981 -6.153905E-07
vn -0.8550503 -0.518545 -5.398557E-07
vn -0.876722 -0.4809973 -5.007649E-07
vn -0.9152585 -0.4028671 -4.194238E-07
vn -0.9320765 -0.3622616 -3.771495E-07
vn -0.9601343 -0.2795391 -2.910273E-07
vn -0.9714056 -0.237426 -2.471835E-07
vn -0.9883541 -0.152172 -1.584258E-07
vn -0.9940385 -0.1090302 -1.13511E-07
vn -0.9997588 -0.02196161 -2.286417E-08
vn -0.9997588 0.02196161 2.286417E-08
vn -0.9940385 0.1090302 1.13511E-07
vn -0.9883541 0.152172 1.584258E-07
vn -0.9714056 0.2374259 2.471835E-07
vn -0.9601343 0.2795391 2.910273E-07
vn -0.9320765 0.3622616 3.771495E-07
vn -0.9152585 0.4028672 4.194239E-07
vn -0.876722 0.4809974 5.00765E-07
vn -0.8550503 0.518545 5.398557E-07
vn -0.8065997 0.5910981 6.153905E-07
vn -0.7797713 0.6260644 6.517939E-07
vn -0.722259 0.6916227 7.200464E-07
vn -0.6916226 0.7222592 7.519419E-07
vn -0.6260644 0.7797714 8.118178E-07
vn -0.5910982 0.8065997 8.397486E-07
vn -0.5185451 0.8550502 8.901903E-07
vn -0.4809974 0.876722 9.127528E-07
vn -0.4028672 0.9152585 9.528729E-07
vn -0.3622617 0.9320765 9.703821E-07
vn -0.2795392 0.9601343 9.99593E-07
vn -0.237426 0.9714056 1.011328E-06
vn -0.152172 0.988354 1.028973E-06
vn -0.1090301 0.9940385 1.034891E-06
vn 0.1090301 0.9940385 1.034891E-06
vn 0.1521722 0.988354 1.028972E-06
vn 0.2374264 0.9714056 1.011328E-06
vn 0.2795395 0.9601343 9.99593E-07
vn 0.3622617 0.9320764 9.703821E-07
vn 0.4028669 0.9152586 9.528731E-07
vn 0.4809971 0.8767222 9.127529E-07
vn 0.5185452 0.8550502 8.901903E-07
vn 0.5910982 0.8065995 8.397484E-07
vn 0.6260642 0.7797714 8.118178E-07
vn 0.6916224 0.7222593 7.51942E-07
vn 0.7222589 0.6916227 7.200464E-07
vn 0.7797713 0.6260644 6.517939E-07
vn 0.8065996 0.5910982 6.153906E-07
vn 0.8550503 0.5185451 5.398558E-07
vn 0.8767222 0.4809971 5.007647E-07
vn 0.9152585 0.402867 4.194237E-07
vn 0.9320763 0.3622619 3.771498E-07
vn 0.9601341 0.2795398 2.910281E-07
vn 0.9714055 0.2374265 2.471841E-07
vn 0.9883541 0.152172 1.584258E-07
vn 0.9940385 0.1090297 1.135105E-07
vn 0.9997588 0.02196128 2.286383E-08
vn 0.9997588 -0.02196128 -2.286383E-08
vn 0.9940385 -0.1090297 -1.135105E-07
vn 0.988354 -0.152172 -1.584258E-07
vn 0.9714055 -0.2374265 -2.471841E-07
vn 0.9601341 -0.2795398 -2.910281E-07
vn 0.9320763 -0.362262 -3.771499E-07
vn 0.9152585 -0.402867 -4.194237E-07
vn 0.8767222 -0.4809971 -5.007647E-07
vn 0.8550503 -0.518545 -5.398557E-07
vn 0.8065996 -0.5910982 -6.153906E-07
vn 0.7797713 -0.6260644 -6.517939E-07
vn 0.7222589 -0.6916227 -7.200464E-07
vn 0.6916224 -0.7222593 -7.51942E-07
vn 0.6260642 -0.7797714 -8.118178E-07
vn 0.5910982 -0.8065995 -8.397484E-07
vn 0.5185452 -0.8550502 -8.901903E-07
vn 0.4809971 -0.8767222 -9.127529E-07
vn 0.4028669 -0.9152586 -9.528731E-07
vn 0.3622617 -0.9320764 -9.703821E-07
vn 0.2795395 -0.9601343 -9.99593E-07
vn 0.2374264 -0.9714056 -1.011328E-06
vn 0.1521722 -0.988354 -1.028972E-06
vn 0.1090301 -0.9940385 -1.034891E-06
vn 0 1.041097E-06 -0.9999999
vn 0 1.041097E-06 -1
vn 0 1.041097E-06 -1
vn 0 1.041097E-06 -1
vn 0 1.041097E-06 -1
vn 0 1.041097E-06 -1
vn 0 1.041097E-06 -1
vn 0 1.041097E-06 -1
vn 0 1.041097E-06 -1
vn 0 1.041097E-06 -1
vn 0 1.041097E-06 -1
vn 0 1.041097E-06 -1
vn 0 1.041097E-06 -1
vn 0 1.041097E-06 -1
vn 0 1.041097E-06 -1
vn 0 1.041097E-06 -1
vn 0 1.041097E-06 -0.9999999
vn 0 1.041097E-06 -1
vn 0 1.041097E-06 -1
vn 0 1.041097E-06 -1
vn 0 1.041097E-06 -0.9999999
vn 0 1.041097E-06 -0.9999999
vn 0 1.041097E-06 -0.9999999
vn 0 -1.041097E-06 0.9999999
vn 0 -1.041097E-06 1
vn 0 -1.041097E-06 1
vn 0 -1.041097E-06 0.9999999
vn 0 -1.041097E-06 1
vn 0 -1.041097E-06 1
vn 0 -1.041097E-06 1
vn 0 -1.041097E-06 1
vn 0 -1.041097E-06 1
vn 0 -1.041097E-06 1
vn 0 -1.041097E-06 1
vn 0 -1.041097E-06 1
vn 0 -1.041097E-06 1
vn 0 -1.041097E-06 1
vn 0 -1.041097E-06 1
vn 0 -1.041097E-06 1
vn 0 -1.041097E-06 1
vn 0 -1.041097E-06 1
vn 0 -1.041097E-06 1
vn 0 -1.041097E-06 1
vn 0 -1.041097E-06 0.9999999
vn 0 -1.041097E-06 1
vn 0 -1.041097E-06 1
vn 0 -1.041097E-06 0.9999999
vn 0 -1.041097E-06 1
vn 0 -1.041097E-06 1
vn 0 -1.041097E-06 1
vn 0 -1.041097E-06 1
vn 0 -1.041097E-06 1
vn 0 -1.041097E-06 1
vn 0 -1.041097E-06 1
vn 0 -1.041097E-06 1
vn 0 -1.041097E-06 1
vn 0 -1.041097E-06 1
vn 0 -1.041097E-06 1
vn 0 -1.041097E-06 0.9999999
vn 0 -1.041097E-06 1
vn 0 -1.041097E-06 1
vn 0 -1.041097E-06 1
vn 0 -1.041097E-06 0.9999999
vn 0 -1.041097E-06 1
vn 0 -1.041097E-06 1
vn 0 -1.041097E-06 1
vn 0 -1.041097E-06 0.9999999
vn 0 -1.041097E-06 0.9999999
vn 0 -1.041097E-06 0.9999999
vn 0 1.041097E-06 -1
vn 0 1.041097E-06 -1
vn 0 1.041097E-06 -0.9999999
vn 0 1.041097E-06 -1
vn 0 1.041097E-06 -1
vn 0 1.041097E-06 -1
vn 0 1.041097E-06 -1
vn 0 1.041097E-06 -1
vn 0 1.041097E-06 -0.9999999
vn 0 1.041097E-06 -1
vn 0 1.041097E-06 -1
vn 0 1.041097E-06 -1
vn 0 1.041097E-06 -1
vn 0 1.041097E-06 -1
vn 0 1.041097E-06 -1
vn 0 1.041097E-06 -1
vn 0 1.041097E-06 -1
vn 0 1.041097E-06 -1
vn 0 1.041097E-06 -1
vn 0 1.041097E-06 -1
vn 0 1.041097E-06 -0.9999999
vn 0 1.041097E-06 -1
vn 0 1.041097E-06 -1
vt -9 9
vt -6 6
vt 6 6
vt 9 9
vt -9 -9
vt -6 -6
vt 9 -9
vt 6 -6
vt -11 9
vt -10 8
vt 8 8
vt 9 9
vt -11 -11
vt -10 -10
vt 9 -11
vt 8 -10
vt 4 20
vt 9 20
vt 9 0
vt 4 0
vt 4 0
vt -11 0
vt -11 -20
vt -16 -20
vt -16 -20
vt -11 -20
vt -11 0
vt -16 0
vt 4 0
vt 9 0
vt 9 20
vt 4 20
vt 0 12
vt 6 12
vt 6 0
vt 0 0
vt -12 0
vt -6 0
vt -6 -12
vt -12 -12
vt -12 -12
vt -6 -12
vt -6 0
vt -12 0
vt 0 0
vt 6 0
vt 6 12
vt 0 12
vt 9 18
vt 8 18
vt 8 0
vt 9 0
vt -9 0
vt -10 0
vt -10 -18
vt -9 -18
vt -9 -18
vt -10 -18
vt -10 0
vt -9 0
vt 9 0
vt 8 0
vt 8 18
vt 9 18
vt 2.608999 19.914
vt 2.608999 -0.08600044
vt 1.071 19.659
vt 1.071 -0.3409996
vt -0.5879993 19.239
vt -0.5879993 -0.7609997
vt -2.34 18.66
vt -2.34 -1.34
vt -4.153999 17.934
vt -4.153999 -2.066
vt -6 17.071
vt -6 -2.929
vt -7.846 16.088
vt -7.846 -3.912
vt -9.66 15
vt -9.66 -5
vt -11.412 13.827
vt -11.412 -6.173
vt -13.071 12.588
vt -13.071 -7.412
vt -14.609 11.305
vt -14.609 -8.695
vt -16 10
vt -26 -10
vt -5.914 8.695
vt -25.914 -11.305
vt -5.659 7.412
vt -25.659 -12.588
vt -5.239 6.173
vt -25.239 -13.827
vt -4.66 5
vt -24.66 -15
vt -3.934 3.912
vt -23.934 -16.088
vt -3.070999 2.929
vt -23.071 -17.071
vt -2.087999 2.066
vt -22.088 -17.934
vt -1 1.34
vt -21 -18.66
vt 0.1730003 0.7609997
vt -19.827 -19.239
vt 1.412 0.3409996
vt -18.588 -19.659
vt 2.695 0.08600044
vt -17.305 -19.914
vt -0.8346 11.9484
vt -0.8346 -0.05159998
vt -1.7574 11.7954
vt -1.7574 -0.2045999
vt -2.7528 11.5434
vt -2.7528 -0.4566002
vt -3.804 11.196
vt -3.804 -0.8039999
vt -4.8924 10.7604
vt -4.8924 -1.2396
vt -6 10.2426
vt -6 -1.7574
vt -7.1076 9.6528
vt -7.1076 -2.3472
vt -8.196 9
vt -8.196 -3
vt -9.2472 8.2962
vt -9.2472 -3.7038
vt -10.2426 7.5528
vt -10.2426 -4.4472
vt -11.1654 6.783
vt -11.1654 -5.217
vt -12 6
vt -18 -6
vt -5.9484 5.217
vt -17.9484 -6.783
vt -5.795401 4.4472
vt -17.7954 -7.5528
vt -5.5434 3.7038
vt -17.5434 -8.2962
vt -5.196 3
vt -17.196 -9
vt -4.7604 2.3472
vt -16.7604 -9.6528
vt -4.242599 1.7574
vt -14.4852 -10.2426
vt -14.4132 1.2396
vt -14.4132 -10.7604
vt -14.196 0.8039999
vt -14.196 -11.196
vt -13.8396 0.4566002
vt -13.8396 -11.5434
vt -13.3482 0.2045999
vt -13.3482 -11.7954
vt -12.7314 0.05159998
vt -12.7314 -11.9484
vt -17.305 -19.914
vt -17.305 -0.08600044
vt -18.588 -19.659
vt -18.588 -0.3409996
vt -19.827 -19.239
vt -19.827 -0.7609997
vt -21 -18.66
vt -21 -1.34
vt -22.088 -17.934
vt -22.088 -2.066
vt -23.071 -17.071
vt -23.071 -2.929
vt -23.934 -16.088
vt -23.934 -3.912
vt -24.66 -15
vt -24.66 -5
vt -25.239 -13.827
vt -25.239 -6.173
vt -25.659 -12.588
vt -25.659 -7.412
vt -25.914 -11.305
vt -25.914 -8.695
vt -26 -10
vt -12.783 -11.9484
vt -12.783 -0.05159998
vt -13.5528 -11.7954
vt -13.5528 -0.2045999
vt -14.2962 -11.5434
vt -14.2962 -0.4566002
vt -15 -11.196
vt -15 -0.8039999
vt -15.6528 -10.7604
vt -15.6528 -1.2396
vt -16.2426 -10.2426
vt -16.2426 -1.7574
vt -16.7604 -9.6528
vt -16.7604 -2.3472
vt -17.196 -9
vt -17.196 -3
vt -17.5434 -8.2962
vt -17.5434 -3.7038
vt -17.7954 -7.5528
vt -17.7954 -4.4472
vt -17.9484 -6.783
vt -17.9484 -5.217
vt -18 -6
vt 2.695 0.08600044
vt 2.695 19.914
vt 1.412 0.3409996
vt 1.412 19.659
vt 0.1730003 0.7609997
vt 0.1730003 19.239
vt -1 1.34
vt -1 18.66
vt -2.087999 2.066
vt -2.087999 17.934
vt -3.070999 2.929
vt -3.070999 17.071
vt -3.934 3.912
vt -3.934 16.088
vt -4.66 5
vt -4.66 15
vt -5.239 6.173
vt -5.239 13.827
vt -5.659 7.412
vt -5.659 12.588
vt -5.914 8.695
vt -5.914 11.305
vt -6 10
vt -0.783 0.05159998
vt -0.783 11.9484
vt -1.5528 0.2045999
vt -1.5528 11.7954
vt -2.2962 0.4566002
vt -2.2962 11.5434
vt -3 0.8039999
vt -3 11.196
vt -3.6528 1.2396
vt -3.6528 10.7604
vt -4.242599 1.7574
vt -4.242599 10.2426
vt -4.7604 2.3472
vt -4.7604 9.6528
vt -5.196 3
vt -5.196 9
vt -5.5434 3.7038
vt -5.5434 8.2962
vt -5.795401 4.4472
vt -5.795401 7.5528
vt -5.9484 5.217
vt -5.9484 6.783
vt -6 6
usemtl 26
f 3/3/3 2/2/2 1/1/1
f 1/1/1 4/4/4 3/3/3
f 2/2/2 6/6/6 5/5/5
f 5/5/5 1/1/1 2/2/2
f 6/6/6 8/8/8 7/7/7
f 7/7/7 5/5/5 6/6/6
f 8/8/8 3/3/3 4/4/4
f 4/4/4 7/7/7 8/8/8
f 11/11/11 10/10/10 9/9/9
f 9/9/9 12/12/12 11/11/11
f 10/10/10 14/14/14 13/13/13
f 13/13/13 9/9/9 10/10/10
f 14/14/14 16/16/16 15/15/15
f 15/15/15 13/13/13 14/14/14
f 16/16/16 11/11/11 12/12/12
f 12/12/12 15/15/15 16/16/16
f 17/17/17 18/18/18 19/19/19
f 19/19/19 20/20/20 17/17/17
f 21/21/21 22/22/22 23/23/23
f 23/23/23 24/24/24 21/21/21
f 25/25/25 26/26/26 27/27/27
f 27/27/27 28/28/28 25/25/25
f 29/29/29 30/30/30 31/31/31
f 31/31/31 32/32/32 29/29/29
f 35/35/35 34/34/34 33/33/33
f 33/33/33 36/36/36 35/35/35
f 39/39/39 38/38/38 37/37/37
f 37/37/37 40/40/40 39/39/39
f 43/43/43 42/42/42 41/41/41
f 41/41/41 44/44/44 43/43/43
f 47/47/47 46/46/46 45/45/45
f 45/45/45 48/48/48 47/47/47
f 51/51/51 50/50/50 49/49/49
f 49/49/49 52/52/52 51/51/51
f 55/55/55 54/54/54 53/53/53
f 53/53/53 56/56/56 55/55/55
f 59/59/59 58/58/58 57/57/57
f 57/57/57 60/60/60 59/59/59
f 63/63/63 62/62/62 61/61/61
f 61/61/61 64/64/64 63/63/63
f 29/29/29 32/32/32 65/65/65
f 65/65/65 66/66/66 29/29/29
f 66/66/66 65/65/65 67/67/67
f 67/67/67 68/68/68 66/66/66
f 68/68/68 67/67/67 69/69/69
f 69/69/69 70/70/70 68/68/68
f 70/70/70 69/69/69 71/71/71
f 71/71/71 72/72/72 70/70/70
f 72/72/72 71/71/71 73/73/73
f 73/73/73 74/74/74 72/72/72
f 74/74/74 73/73/73 75/75/75
f 75/75/75 76/76/76 74/74/74
f 76/76/76 75/75/75 77/77/77
f 77/77/77 78/78/78 76/76/76
f 78/78/78 77/77/77 79/79/79
f 79/79/79 80/80/80 78/78/78
f 80/80/80 79/79/79 81/81/81
f 81/81/81 82/82/82 80/80/80
f 82/82/82 81/81/81 83/83/83
f 83/83/83 84/84/84 82/82/82
f 84/84/84 83/83/83 85/85/85
f 85/85/85 86/86/86 84/84/84
f 86/86/86 85/85/85 87/87/87
f 87/87/87 88/88/88 86/86/86
f 88/88/88 87/87/87 89/89/89
f 89/89/89 90/90/90 88/88/88
f 90/90/90 89/89/89 91/91/91
f 91/91/91 92/92/92 90/90/90
f 92/92/92 91/91/91 93/93/93
f 93/93/93 94/94/94 92/92/92
f 94/94/94 93/93/93 95/95/95
f 95/95/95 96/96/96 94/94/94
f 96/96/96 95/95/95 97/97/97
f 97/97/97 98/98/98 96/96/96
f 98/98/98 97/97/97 99/99/99
f 99/99/99 100/100/100 98/98/98
f 100/100/100 99/99/99 101/101/101
f 101/101/101 102/102/102 100/100/100
f 102/102/102 101/101/101 103/103/103
f 103/103/103 104/104/104 102/102/102
f 104/104/104 103/103/103 105/105/105
f 105/105/105 106/106/106 104/104/104
f 106/106/106 105/105/105 107/107/107
f 107/107/107 108/108/108 106/106/106
f 108/108/108 107/107/107 109/109/109
f 109/109/109 110/110/110 108/108/108
f 110/110/110 109/109/109 21/21/21
f 21/21/21 24/24/24 110/110/110
f 111/111/111 48/48/48 45/45/45
f 45/45/45 112/112/112 111/111/111
f 113/113/113 111/111/111 112/112/112
f 112/112/112 114/114/114 113/113/113
f 115/115/115 113/113/113 114/114/114
f 114/114/114 116/116/116 115/115/115
f 117/117/117 115/115/115 116/116/116
f 116/116/116 118/118/118 117/117/117
f 119/119/119 117/117/117 118/118/118
f 118/118/118 120/120/120 119/119/119
f 121/121/121 119/119/119 120/120/120
f 120/120/120 122/122/122 121/121/121
f 123/123/123 121/121/121 122/122/122
f 122/122/122 124/124/124 123/123/123
f 125/125/125 123/123/123 124/124/124
f 124/124/124 126/126/126 125/125/125
f 127/127/127 125/125/125 126/126/126
f 126/126/126 128/128/128 127/127/127
f 129/129/129 127/127/127 128/128/128
f 128/128/128 130/130/130 129/129/129
f 131/131/131 129/129/129 130/130/130
f 130/130/130 132/132/132 131/131/131
f 133/133/133 131/131/131 132/132/132
f 132/132/132 134/134/134 133/133/133
f 135/135/135 133/133/133 134/134/134
f 134/134/134 136/136/136 135/135/135
f 137/137/137 135/135/135 136/136/136
f 136/136/136 138/138/138 137/137/137
f 139/139/139 137/137/137 138/138/138
f 138/138/138 140/140/140 139/139/139
f 141/141/141 139/139/139 140/140/140
f 140/140/140 142/142/142 141/141/141
f 143/143/143 141/141/141 142/142/142
f 142/142/142 144/144/144 143/143/143
f 145/145/145 143/143/143 144/144/144
f 144/144/144 146/146/146 145/145/145
f 147/147/147 145/145/145 146/146/146
f 146/146/146 148/148/148 147/147/147
f 149/149/149 147/147/147 148/148/148
f 148/148/148 150/150/150 149/149/149
f 151/151/151 149/149/149 150/150/150
f 150/150/150 152/152/152 151/151/151
f 153/153/153 151/151/151 152/152/152
f 152/152/152 154/154/154 153/153/153
f 155/155/155 153/153/153 154/154/154
f 154/154/154 156/156/156 155/155/155
f 37/37/37 155/155/155 156/156/156
f 156/156/156 40/40/40 37/37/37
f 157/157/157 25/25/25 28/28/28
f 28/28/28 158/158/158 157/157/157
f 159/159/159 157/157/157 158/158/158
f 158/158/158 160/160/160 159/159/159
f 161/161/161 159/159/159 160/160/160
f 160/160/160 162/162/162 161/161/161
f 163/163/163 161/161/161 162/162/162
f 162/162/162 164/164/164 163/163/163
f 165/165/165 163/163/163 164/164/164
f 164/164/164 166/166/166 165/165/165
f 167/167/167 165/165/165 166/166/166
f 166/166/166 168/168/168 167/167/167
f 169/169/169 167/167/167 168/168/168
f 168/168/168 170/170/170 169/169/169
f 171/171/171 169/169/169 170/170/170
f 170/170/170 172/172/172 171/171/171
f 173/173/173 171/171/171 172/172/172
f 172/172/172 174/174/174 173/173/173
f 175/175/175 173/173/173 174/174/174
f 174/174/174 176/176/176 175/175/175
f 177/177/177 175/175/175 176/176/176
f 176/176/176 178/178/178 177/177/177
f 179/179/179 177/177/177 178/178/178
f 44/44/44 41/41/41 180/180/180
f 180/180/180 181/181/181 44/44/44
f 181/181/181 180/180/180 182/182/182
f 182/182/182 183/183/183 181/181/181
f 183/183/183 182/182/182 184/184/184
f 184/184/184 185/185/185 183/183/183
f 185/185/185 184/184/184 186/186/186
f 186/186/186 187/187/187 185/185/185
f 187/187/187 186/186/186 188/188/188
f 188/188/188 189/189/189 187/187/187
f 189/189/189 188/188/188 190/190/190
f 190/190/190 191/191/191 189/189/189
f 191/191/191 190/190/190 192/192/192
f 192/192/192 193/193/193 191/191/191
f 193/193/193 192/192/192 194/194/194
f 194/194/194 195/195/195 193/193/193
f 195/195/195 194/194/194 196/196/196
f 196/196/196 197/197/197 195/195/195
f 197/197/197 196/196/196 198/198/198
f 198/198/198 199/199/199 197/197/197
f 199/199/199 198/198/198 200/200/200
f 200/200/200 201/201/201 199/199/199
f 201/201/201 200/200/200 202/202/202
f 17/17/17 20/20/20 203/203/203
f 203/203/203 204/204/204 17/17/17
f 204/204/204 203/203/203 205/205/205
f 205/205/205 206/206/206 204/204/204
f 206/206/206 205/205/205 207/207/207
f 207/207/207 208/208/208 206/206/206
f 208/208/208 207/207/207 209/209/209
f 209/209/209 210/210/210 208/208/208
f 210/210/210 209/209/209 211/211/211
f 211/211/211 212/212/212 210/210/210
f 212/212/212 211/211/211 213/213/213
f 213/213/213 214/214/214 212/212/212
f 214/214/214 213/213/213 215/215/215
f 215/215/215 216/216/216 214/214/214
f 216/216/216 215/215/215 217/217/217
f 217/217/217 218/218/218 216/216/216
f 218/218/218 217/217/217 219/219/219
f 219/219/219 220/220/220 218/218/218
f 220/220/220 219/219/219 221/221/221
f 221/221/221 222/222/222 220/220/220
f 222/222/222 221/221/221 223/223/223
f 223/223/223 224/224/224 222/222/222
f 224/224/224 223/223/223 225/225/225
f 226/226/226 36/36/36 33/33/33
f 33/33/33 227/227/227 226/226/226
f 228/228/228 226/226/226 227/227/227
f 227/227/227 229/229/229 228/228/228
f 230/230/230 228/228/228 229/229/229
f 229/229/229 231/231/231 230/230/230
f 232/232/232 230/230/230 231/231/231
f 231/231/231 233/233/233 232/232/232
f 234/234/234 232/232/232 233/233/233
f 233/233/233 235/235/235 234/234/234
f 236/236/236 234/234/234 235/235/235
f 235/235/235 237/237/237 236/236/236
f 238/238/238 236/236/236 237/237/237
f 237/237/237 239/239/239 238/238/238
f 240/240/240 238/238/238 239/239/239
f 239/239/239 241/241/241 240/240/240
f 242/242/242 240/240/240 241/241/241
f 241/241/241 243/243/243 242/242/242
f 244/244/244 242/242/242 243/243/243
f 243/243/243 245/245/245 244/244/244
f 246/246/246 244/244/244 245/245/245
f 245/245/245 247/247/247 246/246/246
f 248/248/248 246/246/246 247/247/247
