mtllib slope_curved1*4*2:3_double_magenta.mtl
v -9 79 -2.170383E-05
v -6 76 -2.19661E-05
v 6 76 -3.341019E-05
v 9 79 -3.886997E-05
v -9 1 4.586379E-05
v -6 4 4.040401E-05
v 9 1 2.869765E-05
v 6 4 2.895992E-05
v -9.999999 80 0.9999784
v -8.999999 79 0.9999783
v 9.000001 79 0.9999611
v 10 80 0.9999593
v -9.999999 8.662507E-07 1.000048
v -8.999999 1.000001 1.000046
v 10 8.662524E-07 1.000029
v 9.000001 1.000001 1.000029
v -5.999994 41.5 6.000008
v -5.999996 41.5 4.000008
v -3.701996 41.5 4.000006
v -3.70199 41.50001 10.60401
v -4.24299 41.50001 10.24301
v -5.542992 41.50001 8.296007
v -5.999994 38.5 6.00001
v -5.542992 38.50001 8.29601
v -4.24299 38.50001 10.24301
v -3.70199 38.50001 10.60401
v -3.701996 38.5 4.000008
v -5.999996 38.5 4.00001
v 6.000006 41.5 5.999997
v 3.70201 41.50001 10.604
v 3.702004 41.5 3.999999
v 6.000004 41.5 3.999996
v 5.543008 41.50001 8.295997
v 4.24301 41.50001 10.243
v 6.000006 38.5 5.999999
v 3.70201 38.50001 10.604
v 4.24301 38.50001 10.243
v 5.543008 38.50001 8.295999
v 6.000004 38.5 3.999999
v 3.702004 38.5 4.000001
v -5.999994 61.5 5.99999
v -5.999996 61.5 3.999991
v -3.701996 61.5 3.999988
v -3.70199 61.50001 10.60399
v -4.24299 61.50001 10.24299
v -5.542992 61.50001 8.29599
v -5.999994 58.5 5.999993
v -5.542992 58.50001 8.295992
v -4.24299 58.50001 10.24299
v -3.70199 58.50001 10.60399
v -3.701996 58.5 3.999991
v -5.999996 58.5 3.999993
v 6.000006 61.5 5.999979
v 3.70201 61.50001 10.60398
v 3.702004 61.5 3.999981
v 6.000004 61.5 3.999979
v 5.543008 61.50001 8.295979
v 4.24301 61.50001 10.24298
v 6.000006 58.5 5.999982
v 3.70201 58.50001 10.60398
v 4.24301 58.50001 10.24298
v 5.543008 58.50001 8.295981
v 6.000004 58.5 3.999982
v 3.702004 58.5 3.999984
v -5.999994 21.50001 6.000025
v -5.999996 21.5 4.000025
v -3.701996 21.5 4.000023
v -3.70199 21.50001 10.60402
v -4.24299 21.50001 10.24302
v -5.542992 21.50001 8.296024
v -5.999994 18.50001 6.000028
v -5.542992 18.50001 8.296027
v -4.24299 18.50001 10.24303
v -3.70199 18.50001 10.60403
v -3.701996 18.5 4.000026
v -5.999996 18.5 4.000028
v 6.000006 21.50001 6.000014
v 3.70201 21.50001 10.60402
v 3.702004 21.5 4.000016
v 6.000004 21.5 4.000014
v 5.543008 21.50001 8.296014
v 4.24301 21.50001 10.24302
v 6.000006 18.50001 6.000016
v 3.70201 18.50001 10.60402
v 4.24301 18.50001 10.24302
v 5.543008 18.50001 8.296017
v 6.000004 18.5 4.000016
v 3.702004 18.5 4.000019
v 10.00001 80.00001 5.999959
v 10 80 0.9999593
v -9.999999 80 0.9999784
v -9.999994 80.00001 5.999979
v -9.999994 80.00001 5.999979
v -9.999999 80 0.9999784
v -9.999999 8.662507E-07 1.000048
v -9.999994 5.197508E-06 6.000048
v -9.999994 5.197508E-06 6.000048
v -9.999999 8.662507E-07 1.000048
v 10 8.662524E-07 1.000029
v 10.00001 5.19751E-06 6.000029
v 10.00001 5.19751E-06 6.000029
v 10 8.662524E-07 1.000029
v 10 80 0.9999593
v 10.00001 80.00001 5.999959
v 6.000006 76.00001 5.999967
v 6 76 -3.341019E-05
v -6 76 -2.19661E-05
v -5.999994 76.00001 5.999978
v -5.999994 76.00001 5.999978
v -6 76 -2.19661E-05
v -6 4 4.040401E-05
v -5.999994 4.000005 6.000041
v -5.999994 4.000005 6.000041
v -6 4 4.040401E-05
v 6 4 2.895992E-05
v 6.000006 4.000005 6.000029
v 6.000006 4.000005 6.000029
v 6 4 2.895992E-05
v 6 76 -3.341019E-05
v 6.000006 76.00001 5.999967
v 9 79 -3.886997E-05
v 9.000001 79 0.9999611
v -8.999999 79 0.9999783
v -9 79 -2.170383E-05
v -9 79 -2.170383E-05
v -8.999999 79 0.9999783
v -8.999999 1.000001 1.000046
v -9 1 4.586379E-05
v -9 1 4.586379E-05
v -8.999999 1.000001 1.000046
v 9.000001 1.000001 1.000029
v 9 1 2.869765E-05
v 9 1 2.869765E-05
v 9.000001 1.000001 1.000029
v 9.000001 79 0.9999611
v 9 79 -3.886997E-05
v 9.914006 80.00001 7.30496
v 9.914006 6.327969E-06 7.305029
v 9.659009 80.00001 8.58796
v 9.659009 7.439369E-06 8.588029
v 9.23901 80.00001 9.82696
v 9.23901 8.512654E-06 9.827029
v 8.66001 80.00001 10.99996
v 8.66001 9.528768E-06 11.00003
v 7.934011 80.00001 12.08796
v 7.934011 1.047125E-05 12.08803
v 7.071012 80.00001 13.07096
v 7.071012 1.132277E-05 13.07103
v 6.088013 80.00002 13.93396
v 6.088013 1.207035E-05 13.93403
v 5.000014 80.00002 14.65996
v 5.000014 1.269925E-05 14.66003
v 3.827014 80.00002 15.23897
v 3.827014 1.320081E-05 15.23903
v 2.588015 80.00002 15.65897
v 2.588015 1.356463E-05 15.65904
v 1.305015 80.00002 15.91397
v 1.305015 1.378553E-05 15.91404
v 1.525879E-05 80.00002 15.99997
v 1.525879E-05 1.386002E-05 16.00004
v -1.304985 80.00002 15.91397
v -1.304985 1.378553E-05 15.91404
v -2.587985 80.00002 15.65897
v -2.587985 1.356463E-05 15.65904
v -3.826985 80.00002 15.23897
v -3.826985 1.320081E-05 15.23904
v -4.999986 80.00002 14.65997
v -4.999986 1.269925E-05 14.66004
v -6.087986 80.00002 13.93397
v -6.087986 1.207035E-05 13.93404
v -7.070987 80.00001 13.07097
v -7.070987 1.132277E-05 13.07104
v -7.933989 80.00001 12.08798
v -7.933989 1.047125E-05 12.08805
v -8.659989 80.00001 10.99998
v -8.659989 9.528766E-06 11.00005
v -9.238991 80.00001 9.826978
v -9.238991 8.512653E-06 9.827046
v -9.658992 80.00001 8.587978
v -9.658992 7.439367E-06 8.588048
v -9.913993 80.00001 7.304978
v -9.913993 6.327967E-06 7.305048
v 5.948407 76.00001 6.782967
v 5.948407 4.000006 6.783029
v 5.795407 76.00001 7.552767
v 5.795407 4.000007 7.552829
v 5.543408 76.00001 8.296166
v 5.543408 4.000007 8.296229
v 5.196009 76.00001 8.999968
v 5.196009 4.000008 9.00003
v 4.760409 76.00001 9.652767
v 4.760409 4.000009 9.65283
v 4.24261 76.00001 10.24257
v 4.24261 4.000009 10.24263
v 3.65281 76.00001 10.76037
v 3.65281 4.00001 10.76043
v 3.000011 76.00001 11.19597
v 3.000011 4.00001 11.19603
v 2.296211 76.00001 11.54337
v 2.296211 4.00001 11.54343
v 1.552811 76.00001 11.79537
v 1.552811 4.00001 11.79543
v 0.7830114 76.00001 11.94837
v 0.7830114 4.00001 11.94843
v 1.144409E-05 76.00001 11.99997
v 1.144409E-05 4.00001 12.00003
v -0.7829886 76.00001 11.94837
v -0.7829886 4.00001 11.94844
v -1.552789 76.00001 11.79537
v -1.552789 4.00001 11.79544
v -2.296189 76.00001 11.54337
v -2.296189 4.00001 11.54344
v -2.999989 76.00001 11.19598
v -2.999989 4.00001 11.19604
v -3.65279 76.00001 10.76038
v -3.65279 4.00001 10.76044
v -4.24259 76.00001 10.24258
v -4.24259 4.000009 10.24264
v -4.760391 76.00001 9.652777
v -4.760391 4.000009 9.652839
v -5.195992 76.00001 8.999977
v -5.195992 4.000008 9.00004
v -5.543392 76.00001 8.296178
v -5.543392 4.000007 8.29624
v -5.795393 76.00001 7.552778
v -5.795393 4.000007 7.55284
v -5.948393 76.00001 6.782978
v -5.948393 4.000006 6.783041
v -9.913993 6.327967E-06 7.305048
v 9.914006 6.327969E-06 7.305029
v -9.658992 7.439367E-06 8.588048
v 9.659009 7.439369E-06 8.588029
v -9.238991 8.512653E-06 9.827046
v 9.23901 8.512654E-06 9.827029
v -8.659989 9.528766E-06 11.00005
v 8.66001 9.528768E-06 11.00003
v -7.933989 1.047125E-05 12.08805
v 7.934011 1.047125E-05 12.08803
v -7.070987 1.132277E-05 13.07104
v 7.071012 1.132277E-05 13.07103
v -6.087986 1.207035E-05 13.93404
v 6.088013 1.207035E-05 13.93403
v -4.999986 1.269925E-05 14.66004
v 5.000014 1.269925E-05 14.66003
v -3.826985 1.320081E-05 15.23904
v 3.827014 1.320081E-05 15.23903
v -2.587985 1.356463E-05 15.65904
v 2.588015 1.356463E-05 15.65904
v -1.304985 1.378553E-05 15.91404
v 1.305015 1.378553E-05 15.91404
v 1.525879E-05 1.386002E-05 16.00004
v -5.948393 4.000006 6.783041
v 5.948407 4.000006 6.783029
v -5.795393 4.000007 7.55284
v 5.795407 4.000007 7.552829
v -5.543392 4.000007 8.29624
v 5.543408 4.000007 8.296229
v -5.195992 4.000008 9.00004
v 5.196009 4.000008 9.00003
v -4.760391 4.000009 9.652839
v 4.760409 4.000009 9.65283
v -4.24259 4.000009 10.24264
v 4.24261 4.000009 10.24263
v -3.65279 4.00001 10.76044
v 3.65281 4.00001 10.76043
v -2.999989 4.00001 11.19604
v 3.000011 4.00001 11.19603
v -2.296189 4.00001 11.54344
v 2.296211 4.00001 11.54343
v -1.552789 4.00001 11.79544
v 1.552811 4.00001 11.79543
v -0.7829886 4.00001 11.94844
v 0.7830114 4.00001 11.94843
v 1.144409E-05 4.00001 12.00003
v -9.913993 80.00001 7.304978
v 9.914006 80.00001 7.30496
v -9.658992 80.00001 8.587978
v 9.659009 80.00001 8.58796
v -9.238991 80.00001 9.826978
v 9.23901 80.00001 9.82696
v -8.659989 80.00001 10.99998
v 8.66001 80.00001 10.99996
v -7.933989 80.00001 12.08798
v 7.934011 80.00001 12.08796
v -7.070987 80.00001 13.07097
v 7.071012 80.00001 13.07096
v -6.087986 80.00002 13.93397
v 6.088013 80.00002 13.93396
v -4.999986 80.00002 14.65997
v 5.000014 80.00002 14.65996
v -3.826985 80.00002 15.23897
v 3.827014 80.00002 15.23897
v -2.587985 80.00002 15.65897
v 2.588015 80.00002 15.65897
v -1.304985 80.00002 15.91397
v 1.305015 80.00002 15.91397
v 1.525879E-05 80.00002 15.99997
v -5.948393 76.00001 6.782978
v 5.948407 76.00001 6.782967
v -5.795393 76.00001 7.552778
v 5.795407 76.00001 7.552767
v -5.543392 76.00001 8.296178
v 5.543408 76.00001 8.296166
v -5.195992 76.00001 8.999977
v 5.196009 76.00001 8.999968
v -4.760391 76.00001 9.652777
v 4.760409 76.00001 9.652767
v -4.24259 76.00001 10.24258
v 4.24261 76.00001 10.24257
v -3.65279 76.00001 10.76038
v 3.65281 76.00001 10.76037
v -2.999989 76.00001 11.19598
v 3.000011 76.00001 11.19597
v -2.296189 76.00001 11.54337
v 2.296211 76.00001 11.54337
v -1.552789 76.00001 11.79537
v 1.552811 76.00001 11.79537
v -0.7829886 76.00001 11.94837
v 0.7830114 76.00001 11.94837
v 1.144409E-05 76.00001 11.99997
v -0.522 43.9656 5.595221E-07
v 0 44 3.190507E-08
v 0 40 3.496911E-06
v -1.0352 43.8636 1.137305E-06
v -1.5308 43.6956 1.755477E-06
v -2 43.464 2.403565E-06
v -2.4352 43.1736 3.070163E-06
v -2.8284 42.8284 3.744178E-06
v -3.1736 42.4352 4.413996E-06
v -3.464 42 5.067936E-06
v -3.6956 41.5308 5.695252E-06
v -3.8636 41.0352 6.284784E-06
v -3.9656 40.522 6.826619E-06
v -4 40 7.311608E-06
v -3.9656 39.478 7.730985E-06
v -3.8636 38.9648 8.078271E-06
v -3.6956 38.4692 8.347368E-06
v -3.464 38 8.532942E-06
v -3.1736 37.5648 8.632987E-06
v -2.8284 37.1716 8.644389E-06
v -2.4352 36.8264 8.568435E-06
v -2 36.536 8.404955E-06
v -1.5308 36.3044 8.158115E-06
v -1.0352 36.1364 7.831004E-06
v -0.522 36.0344 7.429936E-06
v 0 36 6.961917E-06
v 0.522 36.0344 6.4343E-06
v 1.0352 36.1364 5.856517E-06
v 1.5308 36.3044 5.238346E-06
v 2 36.536 4.590258E-06
v 2.4352 36.8264 3.923659E-06
v 2.8284 37.1716 3.249645E-06
v 3.1736 37.5648 2.579826E-06
v 3.464 38 1.925886E-06
v 3.6956 38.4692 1.29857E-06
v 3.8636 38.9648 7.090387E-07
v 3.9656 39.478 1.672036E-07
v 4 40 -3.177861E-07
v 3.9656 40.522 -7.37163E-07
v 3.8636 41.0352 -1.084449E-06
v 3.6956 41.5308 -1.353545E-06
v 3.464 42 -1.53912E-06
v 3.1736 42.4352 -1.639165E-06
v 2.8284 42.8284 -1.650567E-06
v 2.4352 43.1736 -1.574612E-06
v 2 43.464 -1.411133E-06
v 1.5308 43.6956 -1.164292E-06
v 1.0352 43.8636 -8.371819E-07
v 0.522 43.9656 -4.361139E-07
v -0.5219886 43.96561 12
v 1.144409E-05 44.00001 12
v 0 44 3.190507E-08
v -0.522 43.9656 5.595221E-07
v -1.035189 43.86361 12
v -1.0352 43.8636 1.137305E-06
v -1.530789 43.69561 12
v -1.5308 43.6956 1.755477E-06
v -1.999989 43.46401 12
v -2 43.464 2.403565E-06
v -2.435189 43.17361 12
v -2.4352 43.1736 3.070163E-06
v -2.828388 42.82841 12
v -2.8284 42.8284 3.744178E-06
v -3.173589 42.43521 12
v -3.1736 42.4352 4.413996E-06
v -3.463989 42.00001 12
v -3.464 42 5.067936E-06
v -3.695589 41.53081 12.00001
v -3.6956 41.5308 5.695252E-06
v -3.863589 41.03521 12.00001
v -3.8636 41.0352 6.284784E-06
v -3.965589 40.52201 12.00001
v -3.9656 40.522 6.826619E-06
v -3.999989 40.00001 12.00001
v -4 40 7.311608E-06
v -3.965589 39.47801 12.00001
v -3.9656 39.478 7.730985E-06
v -3.863589 38.96481 12.00001
v -3.8636 38.9648 8.078271E-06
v -3.695589 38.46921 12.00001
v -3.6956 38.4692 8.347368E-06
v -3.463989 38.00001 12.00001
v -3.464 38 8.532942E-06
v -3.173589 37.56481 12.00001
v -3.1736 37.5648 8.632987E-06
v -2.828388 37.17161 12.00001
v -2.8284 37.1716 8.644389E-06
v -2.435189 36.82641 12.00001
v -2.4352 36.8264 8.568435E-06
v -1.999989 36.53601 12.00001
v -2 36.536 8.404955E-06
v -1.530789 36.30441 12.00001
v -1.5308 36.3044 8.158115E-06
v -1.035189 36.13641 12.00001
v -1.0352 36.1364 7.831004E-06
v -0.5219886 36.03441 12.00001
v -0.522 36.0344 7.429936E-06
v 1.144409E-05 36.00001 12.00001
v 0 36 6.961917E-06
v 0.5220115 36.03441 12.00001
v 0.522 36.0344 6.4343E-06
v 1.035211 36.13641 12.00001
v 1.0352 36.1364 5.856517E-06
v 1.530811 36.30441 12
v 1.5308 36.3044 5.238346E-06
v 2.000011 36.53601 12
v 2 36.536 4.590258E-06
v 2.435211 36.82641 12
v 2.4352 36.8264 3.923659E-06
v 2.828411 37.17161 12
v 2.8284 37.1716 3.249645E-06
v 3.173611 37.56481 12
v 3.1736 37.5648 2.579826E-06
v 3.464011 38.00001 12
v 3.464 38 1.925886E-06
v 3.695611 38.46921 12
v 3.6956 38.4692 1.29857E-06
v 3.863611 38.96481 12
v 3.8636 38.9648 7.090387E-07
v 3.965611 39.47801 12
v 3.9656 39.478 1.672036E-07
v 4.000011 40.00001 12
v 4 40 -3.177861E-07
v 3.965611 40.52201 12
v 3.9656 40.522 -7.37163E-07
v 3.863611 41.03521 12
v 3.8636 41.0352 -1.084449E-06
v 3.695611 41.53081 12
v 3.6956 41.5308 -1.353545E-06
v 3.464011 42.00001 12
v 3.464 42 -1.53912E-06
v 3.173611 42.43521 12
v 3.1736 42.4352 -1.639165E-06
v 2.828411 42.82841 12
v 2.8284 42.8284 -1.650567E-06
v 2.435211 43.17361 12
v 2.4352 43.1736 -1.574612E-06
v 2.000011 43.46401 12
v 2 43.464 -1.411133E-06
v 1.530811 43.69561 12
v 1.5308 43.6956 -1.164293E-06
v 1.035211 43.86361 12
v 1.0352 43.8636 -8.371819E-07
v 0.5220115 43.96561 12
v 0.522 43.9656 -4.361139E-07
v -5.999996 38.5 4.00001
v -3.701797 38.5 4.000008
v -3.701797 41.5 4.000006
v -5.999996 41.5 4.000008
v 6.000004 38.5 3.999999
v 3.701804 38.5 4.000001
v 3.701804 41.5 3.999999
v 6.000004 41.5 3.999996
v -0.522 63.9656 -1.676551E-05
v 0 64 -1.729312E-05
v 0 60 -1.382812E-05
v -1.0352 63.8636 -1.618773E-05
v -1.5308 63.6956 -1.556955E-05
v -2 63.464 -1.492147E-05
v -2.4352 63.1736 -1.425487E-05
v -2.8284 62.8284 -1.358085E-05
v -3.1736 62.4352 -1.291103E-05
v -3.464 62 -1.225709E-05
v -3.6956 61.5308 -1.162978E-05
v -3.8636 61.0352 -1.104025E-05
v -3.9656 60.522 -1.049841E-05
v -4 60 -1.001342E-05
v -3.9656 59.478 -9.594046E-06
v -3.8636 58.9648 -9.24676E-06
v -3.6956 58.4692 -8.977663E-06
v -3.464 58 -8.792089E-06
v -3.1736 57.5648 -8.692043E-06
v -2.8284 57.1716 -8.680641E-06
v -2.4352 56.8264 -8.756597E-06
v -2 56.536 -8.920075E-06
v -1.5308 56.3044 -9.166915E-06
v -1.0352 56.1364 -9.494027E-06
v -0.522 56.0344 -9.895095E-06
v 0 56 -1.036311E-05
v 0.522 56.0344 -1.089073E-05
v 1.0352 56.1364 -1.146851E-05
v 1.5308 56.3044 -1.208668E-05
v 2 56.536 -1.273477E-05
v 2.4352 56.8264 -1.340137E-05
v 2.8284 57.1716 -1.407539E-05
v 3.1736 57.5648 -1.47452E-05
v 3.464 58 -1.539914E-05
v 3.6956 58.4692 -1.602646E-05
v 3.8636 58.9648 -1.661599E-05
v 3.9656 59.478 -1.715783E-05
v 4 60 -1.764282E-05
v 3.9656 60.522 -1.806219E-05
v 3.8636 61.0352 -1.840948E-05
v 3.6956 61.5308 -1.867858E-05
v 3.464 62 -1.886415E-05
v 3.1736 62.4352 -1.89642E-05
v 2.8284 62.8284 -1.89756E-05
v 2.4352 63.1736 -1.889964E-05
v 2 63.464 -1.873616E-05
v 1.5308 63.6956 -1.848932E-05
v 1.0352 63.8636 -1.816221E-05
v 0.522 63.9656 -1.776114E-05
v -0.5219886 63.96561 11.99998
v 1.144409E-05 64.00001 11.99998
v 0 64 -1.729312E-05
v -0.522 63.9656 -1.676551E-05
v -1.035189 63.86361 11.99998
v -1.0352 63.8636 -1.618773E-05
v -1.530789 63.69561 11.99998
v -1.5308 63.6956 -1.556955E-05
v -1.999989 63.46401 11.99998
v -2 63.464 -1.492147E-05
v -2.435189 63.17361 11.99999
v -2.4352 63.1736 -1.425487E-05
v -2.828388 62.82841 11.99999
v -2.8284 62.8284 -1.358085E-05
v -3.173589 62.43521 11.99999
v -3.1736 62.4352 -1.291103E-05
v -3.463989 62.00001 11.99999
v -3.464 62 -1.225709E-05
v -3.695589 61.53081 11.99999
v -3.6956 61.5308 -1.162978E-05
v -3.863589 61.03521 11.99999
v -3.8636 61.0352 -1.104025E-05
v -3.965589 60.52201 11.99999
v -3.9656 60.522 -1.049841E-05
v -3.999989 60.00001 11.99999
v -4 60 -1.001342E-05
v -3.965589 59.47801 11.99999
v -3.9656 59.478 -9.594046E-06
v -3.863589 58.96481 11.99999
v -3.8636 58.9648 -9.24676E-06
v -3.695589 58.46921 11.99999
v -3.6956 58.4692 -8.977663E-06
v -3.463989 58.00001 11.99999
v -3.464 58 -8.792089E-06
v -3.173589 57.56481 11.99999
v -3.1736 57.5648 -8.692043E-06
v -2.828388 57.17161 11.99999
v -2.8284 57.1716 -8.680641E-06
v -2.435189 56.82641 11.99999
v -2.4352 56.8264 -8.756597E-06
v -1.999989 56.53601 11.99999
v -2 56.536 -8.920075E-06
v -1.530789 56.30441 11.99999
v -1.5308 56.3044 -9.166915E-06
v -1.035189 56.13641 11.99999
v -1.0352 56.1364 -9.494027E-06
v -0.5219886 56.03441 11.99999
v -0.522 56.0344 -9.895095E-06
v 1.144409E-05 56.00001 11.99999
v 0 56 -1.036311E-05
v 0.5220115 56.03441 11.99999
v 0.522 56.0344 -1.089073E-05
v 1.035211 56.13641 11.99999
v 1.0352 56.1364 -1.146851E-05
v 1.530811 56.30441 11.99999
v 1.5308 56.3044 -1.208668E-05
v 2.000011 56.53601 11.99999
v 2 56.536 -1.273477E-05
v 2.435211 56.82641 11.99999
v 2.4352 56.8264 -1.340137E-05
v 2.828411 57.17161 11.99999
v 2.8284 57.1716 -1.407539E-05
v 3.173611 57.56481 11.99999
v 3.1736 57.5648 -1.47452E-05
v 3.464011 58.00001 11.99998
v 3.464 58 -1.539914E-05
v 3.695611 58.46921 11.99998
v 3.6956 58.4692 -1.602646E-05
v 3.863611 58.96481 11.99998
v 3.8636 58.9648 -1.661599E-05
v 3.965611 59.47801 11.99998
v 3.9656 59.478 -1.715783E-05
v 4.000011 60.00001 11.99998
v 4 60 -1.764282E-05
v 3.965611 60.52201 11.99998
v 3.9656 60.522 -1.806219E-05
v 3.863611 61.03521 11.99998
v 3.8636 61.0352 -1.840948E-05
v 3.695611 61.53081 11.99998
v 3.6956 61.5308 -1.867858E-05
v 3.464011 62.00001 11.99998
v 3.464 62 -1.886415E-05
v 3.173611 62.43521 11.99998
v 3.1736 62.4352 -1.89642E-05
v 2.828411 62.82841 11.99998
v 2.8284 62.8284 -1.89756E-05
v 2.435211 63.17361 11.99998
v 2.4352 63.1736 -1.889964E-05
v 2.000011 63.46401 11.99998
v 2 63.464 -1.873616E-05
v 1.530811 63.69561 11.99998
v 1.5308 63.6956 -1.848932E-05
v 1.035211 63.86361 11.99998
v 1.0352 63.8636 -1.816221E-05
v 0.5220115 63.96561 11.99998
v 0.522 63.9656 -1.776114E-05
v -5.999996 58.5 3.999993
v -3.701797 58.5 3.999991
v -3.701797 61.5 3.999988
v -5.999996 61.5 3.999991
v 6.000004 58.5 3.999982
v 3.701804 58.5 3.999984
v 3.701804 61.5 3.999981
v 6.000004 61.5 3.999979
v -0.522 23.9656 1.788455E-05
v 0 24 1.735694E-05
v 0 20 2.082194E-05
v -1.0352 23.8636 1.846234E-05
v -1.5308 23.6956 1.908051E-05
v -2 23.464 1.972859E-05
v -2.4352 23.1736 2.039519E-05
v -2.8284 22.8284 2.106921E-05
v -3.1736 22.4352 2.173903E-05
v -3.464 22 2.239297E-05
v -3.6956 21.5308 2.302028E-05
v -3.8636 21.0352 2.360981E-05
v -3.9656 20.522 2.415165E-05
v -4 20 2.463664E-05
v -3.9656 19.478 2.505602E-05
v -3.8636 18.9648 2.54033E-05
v -3.6956 18.4692 2.56724E-05
v -3.464 18 2.585797E-05
v -3.1736 17.5648 2.595802E-05
v -2.8284 17.1716 2.596942E-05
v -2.4352 16.8264 2.589347E-05
v -2 16.536 2.572999E-05
v -1.5308 16.3044 2.548315E-05
v -1.0352 16.1364 2.515603E-05
v -0.522 16.0344 2.475497E-05
v 0 16 2.428695E-05
v 0.522 16.0344 2.375933E-05
v 1.0352 16.1364 2.318155E-05
v 1.5308 16.3044 2.256338E-05
v 2 16.536 2.191529E-05
v 2.4352 16.8264 2.124869E-05
v 2.8284 17.1716 2.057467E-05
v 3.1736 17.5648 1.990486E-05
v 3.464 18 1.925092E-05
v 3.6956 18.4692 1.86236E-05
v 3.8636 18.9648 1.803407E-05
v 3.9656 19.478 1.749223E-05
v 4 20 1.700725E-05
v 3.9656 20.522 1.658787E-05
v 3.8636 21.0352 1.624058E-05
v 3.6956 21.5308 1.597149E-05
v 3.464 22 1.578591E-05
v 3.1736 22.4352 1.568587E-05
v 2.8284 22.8284 1.567446E-05
v 2.4352 23.1736 1.575042E-05
v 2 23.464 1.59139E-05
v 1.5308 23.6956 1.616074E-05
v 1.0352 23.8636 1.648785E-05
v 0.522 23.9656 1.688892E-05
v -0.5219886 23.96561 12.00002
v 1.144409E-05 24.00001 12.00002
v 0 24 1.735694E-05
v -0.522 23.9656 1.788455E-05
v -1.035189 23.86361 12.00002
v -1.0352 23.8636 1.846234E-05
v -1.530789 23.69561 12.00002
v -1.5308 23.6956 1.908051E-05
v -1.999989 23.46401 12.00002
v -2 23.464 1.972859E-05
v -2.435189 23.17361 12.00002
v -2.4352 23.1736 2.039519E-05
v -2.828388 22.82841 12.00002
v -2.8284 22.8284 2.106921E-05
v -3.173589 22.43521 12.00002
v -3.1736 22.4352 2.173903E-05
v -3.463989 22.00001 12.00002
v -3.464 22 2.239297E-05
v -3.695589 21.53081 12.00002
v -3.6956 21.5308 2.302028E-05
v -3.863589 21.03521 12.00002
v -3.8636 21.0352 2.360981E-05
v -3.965589 20.52201 12.00002
v -3.9656 20.522 2.415165E-05
v -3.999989 20.00001 12.00002
v -4 20 2.463664E-05
v -3.965589 19.47801 12.00002
v -3.9656 19.478 2.505602E-05
v -3.863589 18.96481 12.00003
v -3.8636 18.9648 2.54033E-05
v -3.695589 18.46921 12.00003
v -3.6956 18.4692 2.56724E-05
v -3.463989 18.00001 12.00003
v -3.464 18 2.585797E-05
v -3.173589 17.56481 12.00003
v -3.1736 17.5648 2.595802E-05
v -2.828388 17.17161 12.00003
v -2.8284 17.1716 2.596942E-05
v -2.435189 16.82641 12.00003
v -2.4352 16.8264 2.589347E-05
v -1.999989 16.53601 12.00003
v -2 16.536 2.572999E-05
v -1.530789 16.30441 12.00003
v -1.5308 16.3044 2.548315E-05
v -1.035189 16.13641 12.00002
v -1.0352 16.1364 2.515603E-05
v -0.5219886 16.03441 12.00002
v -0.522 16.0344 2.475497E-05
v 1.144409E-05 16.00001 12.00002
v 0 16 2.428695E-05
v 0.5220115 16.03441 12.00002
v 0.522 16.0344 2.375933E-05
v 1.035211 16.13641 12.00002
v 1.0352 16.1364 2.318155E-05
v 1.530811 16.30441 12.00002
v 1.5308 16.3044 2.256338E-05
v 2.000011 16.53601 12.00002
v 2 16.536 2.191529E-05
v 2.435211 16.82641 12.00002
v 2.4352 16.8264 2.124869E-05
v 2.828411 17.17161 12.00002
v 2.8284 17.1716 2.057467E-05
v 3.173611 17.56481 12.00002
v 3.1736 17.5648 1.990486E-05
v 3.464011 18.00001 12.00002
v 3.464 18 1.925092E-05
v 3.695611 18.46921 12.00002
v 3.6956 18.4692 1.86236E-05
v 3.863611 18.96481 12.00002
v 3.8636 18.9648 1.803407E-05
v 3.965611 19.47801 12.00002
v 3.9656 19.478 1.749223E-05
v 4.000011 20.00001 12.00002
v 4 20 1.700725E-05
v 3.965611 20.52201 12.00002
v 3.9656 20.522 1.658787E-05
v 3.863611 21.03521 12.00002
v 3.8636 21.0352 1.624058E-05
v 3.695611 21.53081 12.00002
v 3.6956 21.5308 1.597149E-05
v 3.464011 22.00001 12.00002
v 3.464 22 1.578591E-05
v 3.173611 22.43521 12.00002
v 3.1736 22.4352 1.568587E-05
v 2.828411 22.82841 12.00002
v 2.8284 22.8284 1.567446E-05
v 2.435211 23.17361 12.00002
v 2.4352 23.1736 1.575042E-05
v 2.000011 23.46401 12.00002
v 2 23.464 1.59139E-05
v 1.530811 23.69561 12.00002
v 1.5308 23.6956 1.616074E-05
v 1.035211 23.86361 12.00002
v 1.0352 23.8636 1.648785E-05
v 0.5220115 23.96561 12.00002
v 0.522 23.9656 1.688892E-05
v -5.999996 18.5 4.000028
v -3.701797 18.5 4.000026
v -3.701797 21.5 4.000023
v -5.999996 21.5 4.000025
v 6.000004 18.5 4.000016
v 3.701804 18.5 4.000019
v 3.701804 21.5 4.000016
v 6.000004 21.5 4.000014
vn -9.536743E-07 -8.662515E-07 -1
vn -9.536743E-07 -8.662515E-07 -0.9999999
vn -9.536743E-07 -8.662515E-07 -1
vn -9.536743E-07 -8.662515E-07 -1
vn -9.536743E-07 -8.662515E-07 -1
vn -9.536743E-07 -8.662515E-07 -1
vn -9.536743E-07 -8.662515E-07 -1
vn -9.536743E-07 -8.662515E-07 -0.9999999
vn -9.536743E-07 -8.662515E-07 -1
vn -9.536743E-07 -8.662515E-07 -1
vn -9.536743E-07 -8.662515E-07 -1
vn -9.536743E-07 -8.662515E-07 -1
vn -9.536743E-07 -8.662515E-07 -1
vn -9.536743E-07 -8.662515E-07 -1
vn -9.536743E-07 -8.662515E-07 -1
vn -9.536743E-07 -8.662515E-07 -1
vn 0 0.9999999 -8.662515E-07
vn 0 1 -8.662515E-07
vn 0 1 -8.662515E-07
vn 0 1 -8.662515E-07
vn 0 1 -8.662515E-07
vn 0 1 -8.662515E-07
vn 0 -1 8.662515E-07
vn 0 -1 8.662515E-07
vn 0 -1 8.662515E-07
vn 0 -1 8.662515E-07
vn 0 -1 8.662515E-07
vn 0 -1 8.662515E-07
vn 0 1 -8.662515E-07
vn 0 1 -8.662515E-07
vn 0 1 -8.662515E-07
vn 0 1 -8.662515E-07
vn 0 1 -8.662515E-07
vn 0 1 -8.662515E-07
vn 0 -1 8.662515E-07
vn 0 -1 8.662515E-07
vn 0 -1 8.662515E-07
vn 0 -1 8.662515E-07
vn 0 -1 8.662515E-07
vn 0 -1 8.662515E-07
vn 0 0.9999999 -8.662515E-07
vn 0 1 -8.662515E-07
vn 0 1 -8.662515E-07
vn 0 1 -8.662515E-07
vn 0 1 -8.662515E-07
vn 0 1 -8.662515E-07
vn 0 -1 8.662515E-07
vn 0 -1 8.662515E-07
vn 0 -1 8.662515E-07
vn 0 -1 8.662515E-07
vn 0 -1 8.662515E-07
vn 0 -1 8.662515E-07
vn 0 1 -8.662515E-07
vn 0 1 -8.662515E-07
vn 0 1 -8.662515E-07
vn 0 1 -8.662515E-07
vn 0 1 -8.662515E-07
vn 0 1 -8.662515E-07
vn 0 -1 8.662515E-07
vn 0 -1 8.662515E-07
vn 0 -1 8.662515E-07
vn 0 -1 8.662515E-07
vn 0 -1 8.662515E-07
vn 0 -1 8.662515E-07
vn 0 0.9999999 -8.662515E-07
vn 0 1 -8.662515E-07
vn 0 1 -8.662515E-07
vn 0 1 -8.662515E-07
vn 0 1 -8.662515E-07
vn 0 1 -8.662515E-07
vn 0 -1 8.662515E-07
vn 0 -1 8.662515E-07
vn 0 -1 8.662515E-07
vn 0 -1 8.662515E-07
vn 0 -1 8.662515E-07
vn 0 -1 8.662515E-07
vn 0 1 -8.662515E-07
vn 0 1 -8.662515E-07
vn 0 1 -8.662515E-07
vn 0 1 -8.662515E-07
vn 0 1 -8.662515E-07
vn 0 1 -8.662515E-07
vn 0 -1 8.662515E-07
vn 0 -1 8.662515E-07
vn 0 -1 8.662515E-07
vn 0 -1 8.662515E-07
vn 0 -1 8.662515E-07
vn 0 -1 8.662515E-07
vn 0 1 -8.662515E-07
vn 0 1 -8.662515E-07
vn 0 1 -8.662515E-07
vn 0 1 -8.662515E-07
vn -0.999907 1.181452E-08 0.01363972
vn -1 -8.337286E-14 9.536743E-07
vn -1 -8.337286E-14 9.536743E-07
vn -0.999907 1.181452E-08 0.01363972
vn 0 -1 8.662515E-07
vn 0 -1 8.662515E-07
vn 0 -1 8.662515E-07
vn 0 -1 8.662515E-07
vn 0.999907 1.181469E-08 0.01363782
vn 1 8.337286E-14 -9.536743E-07
vn 1 8.337286E-14 -9.536743E-07
vn 0.999907 1.181469E-08 0.01363782
vn 0 -1 8.662515E-07
vn 0 -1 8.662515E-07
vn 0 -1 8.662515E-07
vn 0 -1 8.662515E-07
vn 0.999971 -6.589518E-09 -0.007607984
vn 1 8.337286E-14 -9.536743E-07
vn 1 8.337286E-14 -9.536743E-07
vn 0.9999711 -6.589518E-09 -0.007607984
vn 0 1 -8.662515E-07
vn 0 1 -8.662515E-07
vn 0 1 -8.662515E-07
vn 0 1 -8.662515E-07
vn -0.999971 -6.589685E-09 -0.007606077
vn -1 -8.337286E-14 9.536743E-07
vn -1 -8.337286E-14 9.536743E-07
vn -0.9999711 -6.589685E-09 -0.007606077
vn 0 1 -8.662515E-07
vn 0 1 -8.662515E-07
vn 0 1 -8.662515E-07
vn 0 1 -8.662515E-07
vn -1 -8.337286E-14 9.536743E-07
vn -1 -8.337286E-14 9.536743E-07
vn -1 -8.337286E-14 9.536743E-07
vn -1 -8.337286E-14 9.536743E-07
vn 0 -1 8.662515E-07
vn 0 -1 8.662515E-07
vn 0 -1 8.662515E-07
vn 0 -1 8.662515E-07
vn 1 8.337286E-14 -9.536743E-07
vn 1 8.337286E-14 -9.536743E-07
vn 1 8.337286E-14 -9.536743E-07
vn 1 8.337286E-14 -9.536743E-07
vn 0.9940386 9.444761E-08 0.1090292
vn 0.9883541 1.318193E-07 0.152171
vn 0.9714059 2.056707E-07 0.237425
vn 0.9601345 2.421513E-07 0.2795382
vn 0.9320768 3.138098E-07 0.3622608
vn 0.9152588 3.489844E-07 0.4028663
vn 0.8767225 4.166648E-07 0.4809965
vn 0.8550507 4.491905E-07 0.5185443
vn 0.8066002 5.120398E-07 0.5910974
vn 0.779772 5.423292E-07 0.6260636
vn 0.7222598 5.991191E-07 0.6916218
vn 0.6916234 6.25658E-07 0.7222583
vn 0.6260651 6.754781E-07 0.7797707
vn 0.5910989 6.987182E-07 0.8065991
vn 0.5185459 7.406886E-07 0.8550498
vn 0.4809982 7.594618E-07 0.8767216
vn 0.402868 7.928441E-07 0.9152581
vn 0.3622625 8.074127E-07 0.9320761
vn 0.27954 8.317178E-07 0.960134
vn 0.2374269 8.414816E-07 0.9714054
vn 0.1521729 8.561632E-07 0.988354
vn 0.1090311 8.610874E-07 0.9940383
vn 0.02196256 8.660426E-07 0.9997588
vn -0.02196066 8.660426E-07 0.9997588
vn -0.1090292 8.610873E-07 0.9940386
vn -0.1521711 8.561632E-07 0.9883542
vn -0.237425 8.414816E-07 0.9714059
vn -0.2795382 8.317177E-07 0.9601345
vn -0.3622607 8.074126E-07 0.9320768
vn -0.4028663 7.92844E-07 0.9152588
vn -0.4809965 7.594618E-07 0.8767225
vn -0.5185442 7.406886E-07 0.8550507
vn -0.5910974 6.987182E-07 0.8066002
vn -0.6260637 6.75478E-07 0.7797719
vn -0.691622 6.256579E-07 0.7222596
vn -0.7222585 5.99119E-07 0.6916233
vn -0.7797708 5.423291E-07 0.6260651
vn -0.8065991 5.120397E-07 0.591099
vn -0.8550497 4.491904E-07 0.5185459
vn -0.8767216 4.166646E-07 0.4809982
vn -0.9152581 3.489842E-07 0.402868
vn -0.9320761 3.138097E-07 0.3622626
vn -0.960134 2.421511E-07 0.2795401
vn -0.9714054 2.056705E-07 0.2374269
vn -0.9883539 1.318191E-07 0.1521729
vn -0.9940383 9.444745E-08 0.1090311
vn -0.9940386 -9.444756E-08 -0.1090291
vn -0.9883541 -1.318194E-07 -0.1521712
vn -0.9714057 -2.05671E-07 -0.2374254
vn -0.9601344 -2.421516E-07 -0.2795386
vn -0.9320768 -3.138098E-07 -0.3622608
vn -0.915259 -3.489841E-07 -0.402866
vn -0.8767226 -4.166646E-07 -0.4809963
vn -0.8550507 -4.491907E-07 -0.5185444
vn -0.8066002 -5.120398E-07 -0.5910975
vn -0.7797721 -5.423292E-07 -0.6260635
vn -0.7222599 -5.991191E-07 -0.6916217
vn -0.6916234 -6.256579E-07 -0.7222583
vn -0.6260651 -6.754781E-07 -0.7797707
vn -0.591099 -6.987182E-07 -0.806599
vn -0.5185459 -7.406886E-07 -0.8550498
vn -0.480998 -7.59462E-07 -0.8767217
vn -0.4028679 -7.928441E-07 -0.9152582
vn -0.3622628 -8.074126E-07 -0.932076
vn -0.2795407 -8.317177E-07 -0.9601339
vn -0.2374275 -8.414815E-07 -0.9714053
vn -0.1521729 -8.561632E-07 -0.9883539
vn -0.1090306 -8.610874E-07 -0.9940384
vn -0.02196224 -8.660426E-07 -0.9997588
vn 0.02196033 -8.660426E-07 -0.9997588
vn 0.1090287 -8.610874E-07 -0.9940386
vn 0.152171 -8.561632E-07 -0.9883541
vn 0.2374256 -8.414815E-07 -0.9714057
vn 0.2795389 -8.317177E-07 -0.9601344
vn 0.362261 -8.074124E-07 -0.9320766
vn 0.4028661 -7.92844E-07 -0.9152589
vn 0.4809963 -7.594618E-07 -0.8767226
vn 0.5185443 -7.406886E-07 -0.8550508
vn 0.5910974 -6.987181E-07 -0.8066002
vn 0.6260637 -6.754781E-07 -0.7797719
vn 0.691622 -6.256578E-07 -0.7222596
vn 0.7222586 -5.991189E-07 -0.6916231
vn 0.7797709 -5.42329E-07 -0.626065
vn 0.8065991 -5.120397E-07 -0.591099
vn 0.8550497 -4.491905E-07 -0.518546
vn 0.8767217 -4.166644E-07 -0.480998
vn 0.9152583 -3.48984E-07 -0.4028677
vn 0.9320761 -3.138097E-07 -0.3622626
vn 0.960134 -2.421514E-07 -0.2795404
vn 0.9714053 -2.056708E-07 -0.2374273
vn 0.9883539 -1.318193E-07 -0.1521731
vn 0.9940384 -9.44474E-08 -0.109031
vn 0 -0.9999999 8.662515E-07
vn 0 -1 8.662515E-07
vn 0 -1 8.662515E-07
vn 0 -1 8.662515E-07
vn 0 -1 8.662515E-07
vn 0 -1 8.662515E-07
vn 0 -1 8.662515E-07
vn 0 -1 8.662515E-07
vn 0 -1 8.662515E-07
vn 0 -1 8.662515E-07
vn 0 -1 8.662515E-07
vn 0 -1 8.662515E-07
vn 0 -1 8.662515E-07
vn 0 -1 8.662515E-07
vn 0 -1 8.662515E-07
vn 0 -1 8.662515E-07
vn 0 -0.9999999 8.662515E-07
vn 0 -1 8.662515E-07
vn 0 -1 8.662515E-07
vn 0 -1 8.662515E-07
vn 0 -0.9999999 8.662515E-07
vn 0 -0.9999999 8.662515E-07
vn 0 -0.9999999 8.662515E-07
vn 0 0.9999999 -8.662515E-07
vn 0 1 -8.662515E-07
vn 0 1 -8.662515E-07
vn 0 0.9999999 -8.662515E-07
vn 0 1 -8.662515E-07
vn 0 1 -8.662515E-07
vn 0 1 -8.662515E-07
vn 0 1 -8.662515E-07
vn 0 1 -8.662515E-07
vn 0 1 -8.662515E-07
vn 0 1 -8.662515E-07
vn 0 1 -8.662515E-07
vn 0 1 -8.662515E-07
vn 0 1 -8.662515E-07
vn 0 1 -8.662515E-07
vn 0 1 -8.662515E-07
vn 0 1 -8.662515E-07
vn 0 1 -8.662515E-07
vn 0 1 -8.662515E-07
vn 0 1 -8.662515E-07
vn 0 0.9999999 -8.662515E-07
vn 0 1 -8.662515E-07
vn 0 1 -8.662515E-07
vn 0 0.9999999 -8.662515E-07
vn 0 1 -8.662515E-07
vn 0 1 -8.662515E-07
vn 0 1 -8.662515E-07
vn 0 1 -8.662515E-07
vn 0 1 -8.662515E-07
vn 0 1 -8.662515E-07
vn 0 1 -8.662515E-07
vn 0 1 -8.662515E-07
vn 0 1 -8.662515E-07
vn 0 1 -8.662515E-07
vn 0 1 -8.662515E-07
vn 0 0.9999999 -8.662515E-07
vn 0 1 -8.662515E-07
vn 0 1 -8.662515E-07
vn 0 1 -8.662515E-07
vn 0 0.9999999 -8.662515E-07
vn 0 1 -8.662515E-07
vn 0 1 -8.662515E-07
vn 0 1 -8.662515E-07
vn 0 0.9999999 -8.662515E-07
vn 0 0.9999999 -8.662515E-07
vn 0 0.9999999 -8.662515E-07
vn 0 -1 8.662515E-07
vn 0 -1 8.662515E-07
vn 0 -0.9999999 8.662515E-07
vn 0 -1 8.662515E-07
vn 0 -1 8.662515E-07
vn 0 -1 8.662515E-07
vn 0 -1 8.662515E-07
vn 0 -1 8.662515E-07
vn 0 -0.9999999 8.662515E-07
vn 0 -1 8.662515E-07
vn 0 -1 8.662515E-07
vn 0 -1 8.662515E-07
vn 0 -1 8.662515E-07
vn 0 -1 8.662515E-07
vn 0 -1 8.662515E-07
vn 0 -1 8.662515E-07
vn 0 -1 8.662515E-07
vn 0 -1 8.662515E-07
vn 0 -1 8.662515E-07
vn 0 -1 8.662515E-07
vn 0 -0.9999999 8.662515E-07
vn 0 -1 8.662515E-07
vn 0 -1 8.662515E-07
vn -9.536743E-07 -8.662515E-07 -1
vn -9.536743E-07 -8.662515E-07 -1
vn -9.536743E-07 -8.662515E-07 -1
vn -9.536743E-07 -8.662515E-07 -1
vn -9.536743E-07 -8.662515E-07 -1
vn -9.536743E-07 -8.662515E-07 -1
vn -9.536743E-07 -8.662515E-07 -1
vn -9.536743E-07 -8.662515E-07 -1
vn -9.536743E-07 -8.662515E-07 -1
vn -9.536743E-07 -8.662515E-07 -1
vn -9.536743E-07 -8.662515E-07 -1
vn -9.536743E-07 -8.662515E-07 -1
vn -9.536743E-07 -8.662515E-07 -1
vn -9.536743E-07 -8.662515E-07 -1
vn -9.536743E-07 -8.662515E-07 -1
vn -9.536743E-07 -8.662515E-07 -1
vn -9.536743E-07 -8.662515E-07 -1
vn -9.536743E-07 -8.662515E-07 -1
vn -9.536743E-07 -8.662515E-07 -1
vn -9.536743E-07 -8.662515E-07 -1
vn -9.536743E-07 -8.662515E-07 -1
vn -9.536743E-07 -8.662515E-07 -1
vn -9.536743E-07 -8.662515E-07 -1
vn -9.536743E-07 -8.662515E-07 -1
vn -9.536743E-07 -8.662515E-07 -1
vn -9.536743E-07 -8.662515E-07 -1
vn -9.536743E-07 -8.662515E-07 -1
vn -9.536743E-07 -8.662515E-07 -1
vn -9.536743E-07 -8.662515E-07 -1
vn -9.536743E-07 -8.662515E-07 -1
vn -9.536743E-07 -8.662515E-07 -1
vn -9.536743E-07 -8.662515E-07 -1
vn -9.536743E-07 -8.662515E-07 -1
vn -9.536743E-07 -8.662515E-07 -1
vn -9.536743E-07 -8.662515E-07 -1
vn -9.536743E-07 -8.662515E-07 -1
vn -9.536743E-07 -8.662515E-07 -1
vn -9.536743E-07 -8.662515E-07 -1
vn -9.536743E-07 -8.662515E-07 -1
vn -9.536743E-07 -8.662515E-07 -1
vn -9.536743E-07 -8.662515E-07 -1
vn -9.536743E-07 -8.662515E-07 -1
vn -9.536743E-07 -8.662515E-07 -1
vn -9.536743E-07 -8.662515E-07 -1
vn -9.536743E-07 -8.662515E-07 -1
vn -9.536743E-07 -8.662515E-07 -1
vn -9.536743E-07 -8.662515E-07 -1
vn -9.536743E-07 -8.662515E-07 -1
vn -9.536743E-07 -8.662515E-07 -1
vn -0.1090301 0.9940385 -7.571081E-07
vn 0.02196149 0.9997588 -8.869867E-07
vn -0.02196149 0.9997588 -8.450984E-07
vn -0.1521723 0.988354 -7.110403E-07
vn -0.2374263 0.9714056 -6.150542E-07
vn -0.2795392 0.9601343 -5.651285E-07
vn -0.3622615 0.9320765 -4.619332E-07
vn -0.402867 0.9152585 -4.086402E-07
vn -0.4809973 0.8767221 -3.007471E-07
vn -0.518545 0.8550503 -2.461655E-07
vn -0.5910981 0.8065997 -1.350032E-07
vn -0.6260643 0.7797715 -7.841681E-08
vn -0.6916226 0.7222591 3.392462E-08
vn -0.7222591 0.6916226 8.968087E-08
vn -0.7797715 0.6260643 2.013189E-07
vn -0.8065997 0.5910981 2.571938E-07
vn -0.8550503 0.518545 3.662491E-07
vn -0.8767221 0.4809973 4.194427E-07
vn -0.9152585 0.402867 5.238744E-07
vn -0.9320765 0.3622615 5.750879E-07
vn -0.9601343 0.2795392 6.735042E-07
vn -0.9714056 0.2374263 7.207336E-07
vn -0.988354 0.1521723 8.107483E-07
vn -0.9940385 0.1090301 8.535414E-07
vn -0.9997588 0.02196149 9.344201E-07
vn -0.9997588 -0.02196149 9.724685E-07
vn -0.9940385 -0.1090301 1.042436E-06
vn -0.988354 -0.1521723 1.074387E-06
vn -0.9714056 -0.2374263 1.132075E-06
vn -0.9601343 -0.2795392 1.157807E-06
vn -0.9320765 -0.3622615 1.202707E-06
vn -0.9152585 -0.402867 1.221843E-06
vn -0.8767221 -0.4809973 1.252772E-06
vn -0.8550503 -0.518545 1.26463E-06
vn -0.8065997 -0.5910981 1.281273E-06
vn -0.7797715 -0.6260643 1.285977E-06
vn -0.7222591 -0.6916226 1.287919E-06
vn -0.6916226 -0.7222591 1.285241E-06
vn -0.6260643 -0.7797715 1.27254E-06
vn -0.5910981 -0.8065997 1.262433E-06
vn -0.518545 -0.8550503 1.235212E-06
vn -0.4809973 -0.8767221 1.218177E-06
vn -0.402867 -0.9152585 1.177048E-06
vn -0.3622615 -0.9320765 1.152892E-06
vn -0.2795392 -0.9601343 1.098307E-06
vn -0.2374263 -0.9714056 1.067909E-06
vn -0.1521723 -0.988354 1.001286E-06
vn -0.1090301 -0.9940385 9.650665E-07
vn -0.02196149 -0.9997588 8.869867E-07
vn 0.02196149 -0.9997588 8.450984E-07
vn 0.1090301 -0.9940385 7.571081E-07
vn 0.1521723 -0.988354 7.110403E-07
vn 0.2374263 -0.9714056 6.150542E-07
vn 0.2795392 -0.9601343 5.651285E-07
vn 0.3622615 -0.9320765 4.619332E-07
vn 0.402867 -0.9152585 4.086402E-07
vn 0.4809973 -0.8767221 3.007471E-07
vn 0.518545 -0.8550503 2.461655E-07
vn 0.5910981 -0.8065997 1.350032E-07
vn 0.6260643 -0.7797715 7.841681E-08
vn 0.6916226 -0.7222591 -3.392462E-08
vn 0.7222591 -0.6916226 -8.968087E-08
vn 0.7797715 -0.6260643 -2.013189E-07
vn 0.8065997 -0.5910981 -2.571938E-07
vn 0.8550503 -0.518545 -3.662491E-07
vn 0.8767221 -0.4809973 -4.194427E-07
vn 0.9152585 -0.402867 -5.238744E-07
vn 0.9320765 -0.3622615 -5.750879E-07
vn 0.9601343 -0.2795392 -6.735042E-07
vn 0.9714056 -0.2374263 -7.207336E-07
vn 0.988354 -0.1521723 -8.107483E-07
vn 0.9940385 -0.1090301 -8.535414E-07
vn 0.9997588 -0.02196149 -9.344201E-07
vn 0.9997588 0.02196149 -9.724685E-07
vn 0.9940385 0.1090301 -1.042436E-06
vn 0.988354 0.1521723 -1.074387E-06
vn 0.9714056 0.2374263 -1.132075E-06
vn 0.9601343 0.2795392 -1.157807E-06
vn 0.9320765 0.3622615 -1.202707E-06
vn 0.9152585 0.402867 -1.221843E-06
vn 0.8767221 0.4809973 -1.252772E-06
vn 0.8550503 0.518545 -1.26463E-06
vn 0.8065997 0.5910981 -1.281273E-06
vn 0.7797715 0.6260643 -1.285977E-06
vn 0.7222591 0.6916226 -1.287919E-06
vn 0.6916226 0.7222591 -1.285241E-06
vn 0.6260643 0.7797715 -1.27254E-06
vn 0.5910981 0.8065997 -1.262433E-06
vn 0.518545 0.8550503 -1.235212E-06
vn 0.4809973 0.8767221 -1.218177E-06
vn 0.402867 0.9152585 -1.177048E-06
vn 0.3622615 0.9320765 -1.152892E-06
vn 0.2795392 0.9601343 -1.098307E-06
vn 0.2374263 0.9714056 -1.067909E-06
vn 0.1521723 0.988354 -1.001286E-06
vn 0.1090301 0.9940385 -9.650665E-07
vn -9.536743E-07 -8.662515E-07 -0.9999999
vn -9.536743E-07 -8.662515E-07 -0.9999999
vn -9.536743E-07 -8.662515E-07 -0.9999999
vn -9.536743E-07 -8.662515E-07 -0.9999999
vn -9.536743E-07 -8.662515E-07 -0.9999999
vn -9.536743E-07 -8.662515E-07 -0.9999999
vn -9.536743E-07 -8.662515E-07 -0.9999999
vn -9.536743E-07 -8.662515E-07 -0.9999999
vn -9.536743E-07 -8.662515E-07 -1
vn -9.536743E-07 -8.662515E-07 -1
vn -9.536743E-07 -8.662515E-07 -1
vn -9.536743E-07 -8.662515E-07 -1
vn -9.536743E-07 -8.662515E-07 -1
vn -9.536743E-07 -8.662515E-07 -1
vn -9.536743E-07 -8.662515E-07 -1
vn -9.536743E-07 -8.662515E-07 -1
vn -9.536743E-07 -8.662515E-07 -1
vn -9.536743E-07 -8.662515E-07 -1
vn -9.536743E-07 -8.662515E-07 -1
vn -9.536743E-07 -8.662515E-07 -1
vn -9.536743E-07 -8.662515E-07 -1
vn -9.536743E-07 -8.662515E-07 -1
vn -9.536743E-07 -8.662515E-07 -1
vn -9.536743E-07 -8.662515E-07 -1
vn -9.536743E-07 -8.662515E-07 -1
vn -9.536743E-07 -8.662515E-07 -1
vn -9.536743E-07 -8.662515E-07 -1
vn -9.536743E-07 -8.662515E-07 -1
vn -9.536743E-07 -8.662515E-07 -1
vn -9.536743E-07 -8.662515E-07 -1
vn -9.536743E-07 -8.662515E-07 -1
vn -9.536743E-07 -8.662515E-07 -1
vn -9.536743E-07 -8.662515E-07 -1
vn -9.536743E-07 -8.662515E-07 -1
vn -9.536743E-07 -8.662515E-07 -1
vn -9.536743E-07 -8.662515E-07 -1
vn -9.536743E-07 -8.662515E-07 -1
vn -9.536743E-07 -8.662515E-07 -1
vn -9.536743E-07 -8.662515E-07 -1
vn -9.536743E-07 -8.662515E-07 -1
vn -9.536743E-07 -8.662515E-07 -1
vn -9.536743E-07 -8.662515E-07 -1
vn -9.536743E-07 -8.662515E-07 -1
vn -9.536743E-07 -8.662515E-07 -1
vn -9.536743E-07 -8.662515E-07 -1
vn -9.536743E-07 -8.662515E-07 -1
vn -9.536743E-07 -8.662515E-07 -1
vn -9.536743E-07 -8.662515E-07 -1
vn -9.536743E-07 -8.662515E-07 -1
vn -9.536743E-07 -8.662515E-07 -1
vn -9.536743E-07 -8.662515E-07 -1
vn -9.536743E-07 -8.662515E-07 -1
vn -9.536743E-07 -8.662515E-07 -1
vn -9.536743E-07 -8.662515E-07 -1
vn -9.536743E-07 -8.662515E-07 -1
vn -9.536743E-07 -8.662515E-07 -1
vn -9.536743E-07 -8.662515E-07 -1
vn -0.1090309 0.9940383 -7.571073E-07
vn 0.0219621 0.9997588 -8.869873E-07
vn -0.0219621 0.9997588 -8.450979E-07
vn -0.152172 0.988354 -7.110407E-07
vn -0.237425 0.9714058 -6.150556E-07
vn -0.2795379 0.9601346 -5.651299E-07
vn -0.3622606 0.9320769 -4.619345E-07
vn -0.4028664 0.9152589 -4.086411E-07
vn -0.4809977 0.8767217 -3.007464E-07
vn -0.5185463 0.8550496 -2.461637E-07
vn -0.591099 0.806599 -1.350017E-07
vn -0.6260645 0.7797713 -7.841649E-08
vn -0.6916223 0.7222594 3.392407E-08
vn -0.722259 0.6916227 8.96806E-08
vn -0.7797714 0.6260643 2.013188E-07
vn -0.8065996 0.5910981 2.571936E-07
vn -0.8550503 0.5185452 3.662489E-07
vn -0.8767221 0.4809973 4.194427E-07
vn -0.9152585 0.402867 5.238744E-07
vn -0.9320765 0.3622616 5.750878E-07
vn -0.9601343 0.2795392 6.735042E-07
vn -0.9714056 0.2374261 7.207338E-07
vn -0.988354 0.1521722 8.107484E-07
vn -0.9940385 0.1090302 8.535414E-07
vn -0.9997588 0.02196151 9.344201E-07
vn -0.9997588 -0.02196151 9.724685E-07
vn -0.9940385 -0.1090302 1.042437E-06
vn -0.988354 -0.1521722 1.074387E-06
vn -0.9714056 -0.2374261 1.132075E-06
vn -0.9601343 -0.2795392 1.157807E-06
vn -0.9320765 -0.3622616 1.202707E-06
vn -0.9152585 -0.402867 1.221843E-06
vn -0.8767221 -0.4809973 1.252772E-06
vn -0.8550503 -0.5185452 1.26463E-06
vn -0.8065996 -0.5910981 1.281273E-06
vn -0.7797714 -0.6260643 1.285977E-06
vn -0.722259 -0.6916227 1.287919E-06
vn -0.6916223 -0.7222594 1.285241E-06
vn -0.6260645 -0.7797713 1.27254E-06
vn -0.591099 -0.806599 1.262434E-06
vn -0.5185463 -0.8550496 1.235212E-06
vn -0.4809977 -0.8767217 1.218177E-06
vn -0.4028664 -0.9152589 1.177048E-06
vn -0.3622606 -0.9320769 1.152892E-06
vn -0.2795379 -0.9601346 1.098306E-06
vn -0.237425 -0.9714058 1.067908E-06
vn -0.152172 -0.988354 1.001286E-06
vn -0.1090309 -0.9940383 9.650672E-07
vn -0.0219621 -0.9997588 8.869873E-07
vn 0.0219621 -0.9997588 8.450979E-07
vn 0.1090309 -0.9940383 7.571073E-07
vn 0.152172 -0.988354 7.110407E-07
vn 0.237425 -0.9714058 6.150556E-07
vn 0.2795379 -0.9601346 5.651299E-07
vn 0.3622606 -0.9320769 4.619345E-07
vn 0.4028664 -0.9152589 4.086411E-07
vn 0.4809977 -0.8767217 3.007464E-07
vn 0.5185463 -0.8550496 2.461637E-07
vn 0.591099 -0.806599 1.350017E-07
vn 0.6260645 -0.7797713 7.841649E-08
vn 0.6916223 -0.7222594 -3.392407E-08
vn 0.722259 -0.6916227 -8.96806E-08
vn 0.7797714 -0.6260643 -2.013188E-07
vn 0.8065996 -0.5910981 -2.571936E-07
vn 0.8550503 -0.5185452 -3.662489E-07
vn 0.8767221 -0.4809973 -4.194427E-07
vn 0.9152585 -0.402867 -5.238744E-07
vn 0.9320765 -0.3622616 -5.750878E-07
vn 0.9601343 -0.2795392 -6.735042E-07
vn 0.9714056 -0.2374261 -7.207338E-07
vn 0.988354 -0.1521722 -8.107484E-07
vn 0.9940385 -0.1090302 -8.535414E-07
vn 0.9997588 -0.02196151 -9.344201E-07
vn 0.9997588 0.02196151 -9.724685E-07
vn 0.9940385 0.1090302 -1.042437E-06
vn 0.988354 0.1521722 -1.074387E-06
vn 0.9714056 0.2374261 -1.132075E-06
vn 0.9601343 0.2795392 -1.157807E-06
vn 0.9320765 0.3622616 -1.202707E-06
vn 0.9152585 0.402867 -1.221843E-06
vn 0.8767221 0.4809973 -1.252772E-06
vn 0.8550503 0.5185452 -1.26463E-06
vn 0.8065996 0.5910981 -1.281273E-06
vn 0.7797714 0.6260643 -1.285977E-06
vn 0.722259 0.6916227 -1.287919E-06
vn 0.6916223 0.7222594 -1.285241E-06
vn 0.6260645 0.7797713 -1.27254E-06
vn 0.591099 0.806599 -1.262434E-06
vn 0.5185463 0.8550496 -1.235212E-06
vn 0.4809977 0.8767217 -1.218177E-06
vn 0.4028664 0.9152589 -1.177048E-06
vn 0.3622606 0.9320769 -1.152892E-06
vn 0.2795379 0.9601346 -1.098306E-06
vn 0.237425 0.9714058 -1.067908E-06
vn 0.152172 0.988354 -1.001286E-06
vn 0.1090309 0.9940383 -9.650672E-07
vn -9.536743E-07 -8.662515E-07 -0.9999999
vn -9.536743E-07 -8.662515E-07 -0.9999999
vn -9.536743E-07 -8.662515E-07 -0.9999999
vn -9.536743E-07 -8.662515E-07 -0.9999999
vn -9.536743E-07 -8.662515E-07 -0.9999999
vn -9.536743E-07 -8.662515E-07 -0.9999999
vn -9.536743E-07 -8.662515E-07 -0.9999999
vn -9.536743E-07 -8.662515E-07 -0.9999999
vn -9.536743E-07 -8.662515E-07 -1
vn -9.536743E-07 -8.662515E-07 -1
vn -9.536743E-07 -8.662515E-07 -1
vn -9.536743E-07 -8.662515E-07 -1
vn -9.536743E-07 -8.662515E-07 -1
vn -9.536743E-07 -8.662515E-07 -1
vn -9.536743E-07 -8.662515E-07 -1
vn -9.536743E-07 -8.662515E-07 -1
vn -9.536743E-07 -8.662515E-07 -1
vn -9.536743E-07 -8.662515E-07 -1
vn -9.536743E-07 -8.662515E-07 -1
vn -9.536743E-07 -8.662515E-07 -1
vn -9.536743E-07 -8.662515E-07 -1
vn -9.536743E-07 -8.662515E-07 -1
vn -9.536743E-07 -8.662515E-07 -1
vn -9.536743E-07 -8.662515E-07 -1
vn -9.536743E-07 -8.662515E-07 -1
vn -9.536743E-07 -8.662515E-07 -1
vn -9.536743E-07 -8.662515E-07 -1
vn -9.536743E-07 -8.662515E-07 -1
vn -9.536743E-07 -8.662515E-07 -1
vn -9.536743E-07 -8.662515E-07 -1
vn -9.536743E-07 -8.662515E-07 -1
vn -9.536743E-07 -8.662515E-07 -1
vn -9.536743E-07 -8.662515E-07 -1
vn -9.536743E-07 -8.662515E-07 -1
vn -9.536743E-07 -8.662515E-07 -1
vn -9.536743E-07 -8.662515E-07 -1
vn -9.536743E-07 -8.662515E-07 -1
vn -9.536743E-07 -8.662515E-07 -1
vn -9.536743E-07 -8.662515E-07 -1
vn -9.536743E-07 -8.662515E-07 -1
vn -9.536743E-07 -8.662515E-07 -1
vn -9.536743E-07 -8.662515E-07 -1
vn -9.536743E-07 -8.662515E-07 -1
vn -9.536743E-07 -8.662515E-07 -1
vn -9.536743E-07 -8.662515E-07 -1
vn -9.536743E-07 -8.662515E-07 -1
vn -9.536743E-07 -8.662515E-07 -1
vn -9.536743E-07 -8.662515E-07 -1
vn -9.536743E-07 -8.662515E-07 -1
vn -9.536743E-07 -8.662515E-07 -1
vn -9.536743E-07 -8.662515E-07 -1
vn -9.536743E-07 -8.662515E-07 -1
vn -9.536743E-07 -8.662515E-07 -1
vn -9.536743E-07 -8.662515E-07 -1
vn -9.536743E-07 -8.662515E-07 -1
vn -9.536743E-07 -8.662515E-07 -1
vn -9.536743E-07 -8.662515E-07 -1
vn -0.1090309 0.9940383 -7.571073E-07
vn 0.0219621 0.9997588 -8.869873E-07
vn -0.0219621 0.9997588 -8.450979E-07
vn -0.152172 0.988354 -7.110407E-07
vn -0.237425 0.9714058 -6.150556E-07
vn -0.2795379 0.9601346 -5.651299E-07
vn -0.3622606 0.9320769 -4.619345E-07
vn -0.4028664 0.9152589 -4.086411E-07
vn -0.4809977 0.8767217 -3.007464E-07
vn -0.5185463 0.8550496 -2.461637E-07
vn -0.591099 0.806599 -1.350017E-07
vn -0.6260645 0.7797713 -7.841649E-08
vn -0.6916223 0.7222594 3.392407E-08
vn -0.722259 0.6916227 8.96806E-08
vn -0.7797714 0.6260643 2.013188E-07
vn -0.8065996 0.5910981 2.571936E-07
vn -0.8550503 0.5185452 3.662489E-07
vn -0.8767221 0.4809973 4.194427E-07
vn -0.9152585 0.402867 5.238744E-07
vn -0.9320765 0.3622616 5.750878E-07
vn -0.9601343 0.2795392 6.735042E-07
vn -0.9714056 0.2374261 7.207338E-07
vn -0.988354 0.1521722 8.107484E-07
vn -0.9940385 0.1090302 8.535414E-07
vn -0.9997588 0.02196151 9.344201E-07
vn -0.9997588 -0.02196151 9.724685E-07
vn -0.9940385 -0.1090302 1.042437E-06
vn -0.988354 -0.1521722 1.074387E-06
vn -0.9714056 -0.2374261 1.132075E-06
vn -0.9601343 -0.2795392 1.157807E-06
vn -0.9320765 -0.3622616 1.202707E-06
vn -0.9152585 -0.402867 1.221843E-06
vn -0.8767221 -0.4809973 1.252772E-06
vn -0.8550503 -0.5185452 1.26463E-06
vn -0.8065996 -0.5910981 1.281273E-06
vn -0.7797714 -0.6260643 1.285977E-06
vn -0.722259 -0.6916227 1.287919E-06
vn -0.6916223 -0.7222594 1.285241E-06
vn -0.6260645 -0.7797713 1.27254E-06
vn -0.591099 -0.806599 1.262434E-06
vn -0.5185463 -0.8550496 1.235212E-06
vn -0.4809977 -0.8767217 1.218177E-06
vn -0.4028664 -0.9152589 1.177048E-06
vn -0.3622606 -0.9320769 1.152892E-06
vn -0.2795379 -0.9601346 1.098306E-06
vn -0.237425 -0.9714058 1.067908E-06
vn -0.152172 -0.988354 1.001286E-06
vn -0.1090309 -0.9940383 9.650672E-07
vn -0.0219621 -0.9997588 8.869873E-07
vn 0.0219621 -0.9997588 8.450979E-07
vn 0.1090309 -0.9940383 7.571073E-07
vn 0.152172 -0.988354 7.110407E-07
vn 0.237425 -0.9714058 6.150556E-07
vn 0.2795379 -0.9601346 5.651299E-07
vn 0.3622606 -0.9320769 4.619345E-07
vn 0.4028664 -0.9152589 4.086411E-07
vn 0.4809977 -0.8767217 3.007464E-07
vn 0.5185463 -0.8550496 2.461637E-07
vn 0.591099 -0.806599 1.350017E-07
vn 0.6260645 -0.7797713 7.841649E-08
vn 0.6916223 -0.7222594 -3.392407E-08
vn 0.722259 -0.6916227 -8.96806E-08
vn 0.7797714 -0.6260643 -2.013188E-07
vn 0.8065996 -0.5910981 -2.571936E-07
vn 0.8550503 -0.5185452 -3.662489E-07
vn 0.8767221 -0.4809973 -4.194427E-07
vn 0.9152585 -0.402867 -5.238744E-07
vn 0.9320765 -0.3622616 -5.750878E-07
vn 0.9601343 -0.2795392 -6.735042E-07
vn 0.9714056 -0.2374261 -7.207338E-07
vn 0.988354 -0.1521722 -8.107484E-07
vn 0.9940385 -0.1090302 -8.535414E-07
vn 0.9997588 -0.02196151 -9.344201E-07
vn 0.9997588 0.02196151 -9.724685E-07
vn 0.9940385 0.1090302 -1.042437E-06
vn 0.988354 0.1521722 -1.074387E-06
vn 0.9714056 0.2374261 -1.132075E-06
vn 0.9601343 0.2795392 -1.157807E-06
vn 0.9320765 0.3622616 -1.202707E-06
vn 0.9152585 0.402867 -1.221843E-06
vn 0.8767221 0.4809973 -1.252772E-06
vn 0.8550503 0.5185452 -1.26463E-06
vn 0.8065996 0.5910981 -1.281273E-06
vn 0.7797714 0.6260643 -1.285977E-06
vn 0.722259 0.6916227 -1.287919E-06
vn 0.6916223 0.7222594 -1.285241E-06
vn 0.6260645 0.7797713 -1.27254E-06
vn 0.591099 0.806599 -1.262434E-06
vn 0.5185463 0.8550496 -1.235212E-06
vn 0.4809977 0.8767217 -1.218177E-06
vn 0.4028664 0.9152589 -1.177048E-06
vn 0.3622606 0.9320769 -1.152892E-06
vn 0.2795379 0.9601346 -1.098306E-06
vn 0.237425 0.9714058 -1.067908E-06
vn 0.152172 0.988354 -1.001286E-06
vn 0.1090309 0.9940383 -9.650672E-07
vn -9.536743E-07 -8.662515E-07 -0.9999999
vn -9.536743E-07 -8.662515E-07 -0.9999999
vn -9.536743E-07 -8.662515E-07 -0.9999999
vn -9.536743E-07 -8.662515E-07 -0.9999999
vn -9.536743E-07 -8.662515E-07 -0.9999999
vn -9.536743E-07 -8.662515E-07 -0.9999999
vn -9.536743E-07 -8.662515E-07 -0.9999999
vn -9.536743E-07 -8.662515E-07 -0.9999999
vt -9 39
vt -6 36
vt 6 36
vt 9 39
vt -9 -39
vt -6 -36
vt 9 -39
vt 6 -36
vt -11 39
vt -10 38
vt 8 38
vt 9 39
vt -11 -41
vt -10 -40
vt 9 -41
vt 8 -40
vt -4.5 -4.5
vt -2.5 -4.5
vt -2.5 -2.202
vt -9.104 -2.202
vt -8.743 -2.743
vt -6.796 -4.043
vt -7.5 -7.5
vt -9.796 -7.043
vt -11.743 -5.743
vt -12.104 -5.202
vt -5.5 -5.202
vt -5.5 -7.5
vt -4.5 7.5
vt -9.104 5.202
vt -2.5 5.202
vt -2.5 7.5
vt -6.796 7.043
vt -8.743 5.743
vt -7.5 4.5
vt -12.104 2.202
vt -11.743 2.743
vt -9.796 4.043
vt -5.5 4.5
vt -5.5 2.202
vt 15.5 15.5
vt 17.5 15.5
vt 17.5 17.798
vt 10.896 17.798
vt 11.257 17.257
vt 13.204 15.957
vt 12.5 12.5
vt 10.204 12.957
vt 8.257 14.257
vt 7.896 14.798
vt 14.5 14.798
vt 14.5 12.5
vt 15.5 27.5
vt 10.896 25.202
vt 17.5 25.202
vt 17.5 27.5
vt 13.204 27.043
vt 11.257 25.743
vt 12.5 24.5
vt 7.896 22.202
vt 8.257 22.743
vt 10.204 24.043
vt 14.5 24.5
vt 14.5 22.202
vt -24.5 -24.5
vt -22.5 -24.5
vt -22.5 -22.202
vt -29.104 -22.202
vt -28.743 -22.743
vt -26.796 -24.043
vt -27.5 -27.5
vt -29.796 -27.043
vt -31.743 -25.743
vt -32.104 -25.202
vt -25.5 -25.202
vt -25.5 -27.5
vt -24.5 -12.5
vt -29.104 -14.798
vt -22.5 -14.798
vt -22.5 -12.5
vt -26.796 -12.957
vt -28.743 -14.257
vt -27.5 -15.5
vt -32.104 -17.798
vt -31.743 -17.257
vt -29.796 -15.957
vt -25.5 -15.5
vt -25.5 -17.798
vt 34 50
vt 39 50
vt 39 30
vt 34 30
vt 34 30
vt -11 30
vt -11 -50
vt -46 -50
vt -46 -50
vt -41 -50
vt -41 -30
vt -46 -30
vt 4 -30
vt 9 -30
vt 9 50
vt 4 50
vt 30 42
vt 36 42
vt 36 30
vt 30 30
vt -12 30
vt -6 30
vt -6 -42
vt -12 -42
vt -42 -42
vt -36 -42
vt -36 -30
vt -42 -30
vt 0 -30
vt 6 -30
vt 6 42
vt 0 42
vt 39 48
vt 38 48
vt 38 30
vt 39 30
vt -9 30
vt -10 30
vt -10 -48
vt -9 -48
vt -39 -48
vt -40 -48
vt -40 -30
vt -39 -30
vt 9 -30
vt 8 -30
vt 8 48
vt 9 48
vt 2.608999 49.914
vt 2.608999 -30.086
vt 1.071 49.659
vt 1.071 -30.341
vt -0.5879993 49.239
vt -0.5879993 -30.761
vt -2.34 48.66
vt -2.34 -31.34
vt -4.153999 47.934
vt -4.153999 -32.066
vt -6 47.071
vt -6 -32.929
vt -7.846 46.088
vt -7.846 -33.912
vt -9.66 45
vt -9.66 -35
vt -11.412 43.827
vt -11.412 -36.173
vt -13.071 42.588
vt -13.071 -37.412
vt -14.609 41.305
vt -14.609 -38.695
vt -16 40
vt -56 -40
vt 24.086 38.695
vt -55.914 -41.305
vt 24.341 37.412
vt -55.659 -42.588
vt 24.761 36.173
vt -55.239 -43.827
vt 25.34 35
vt -54.66 -45
vt 26.066 33.912
vt -53.934 -46.088
vt 26.929 32.929
vt -53.071 -47.071
vt 27.912 32.066
vt -52.088 -47.934
vt 29 31.34
vt -51 -48.66
vt 30.173 30.761
vt -49.827 -49.239
vt 31.412 30.341
vt -48.588 -49.659
vt 32.695 30.086
vt -47.305 -49.914
vt -0.8346 41.9484
vt -0.8346 -30.0516
vt -1.7574 41.7954
vt -1.7574 -30.2046
vt -2.7528 41.5434
vt -2.7528 -30.4566
vt -3.804 41.196
vt -3.804 -30.804
vt -4.8924 40.7604
vt -4.8924 -31.2396
vt -6 40.2426
vt -6 -31.7574
vt -7.1076 39.6528
vt -7.1076 -32.3472
vt -8.196 39
vt -8.196 -33
vt -9.2472 38.2962
vt -9.2472 -33.7038
vt -10.2426 37.5528
vt -10.2426 -34.4472
vt -11.1654 36.783
vt -11.1654 -35.217
vt -12 36
vt -48 -36
vt 24.0516 35.217
vt -47.9484 -36.783
vt 24.2046 34.4472
vt -47.7954 -37.5528
vt 24.4566 33.7038
vt -47.5434 -38.2962
vt 24.804 33
vt -47.196 -39
vt 25.2396 32.3472
vt -46.7604 -39.6528
vt 25.7574 31.7574
vt -14.4852 -40.2426
vt -14.4132 31.2396
vt -14.4132 -40.7604
vt -14.196 30.804
vt -14.196 -41.196
vt -13.8396 30.4566
vt -13.8396 -41.5434
vt -13.3482 30.2046
vt -13.3482 -41.7954
vt -12.7314 30.0516
vt -12.7314 -41.9484
vt -47.305 -49.914
vt -47.305 -30.086
vt -48.588 -49.659
vt -48.588 -30.341
vt -49.827 -49.239
vt -49.827 -30.761
vt -51 -48.66
vt -51 -31.34
vt -52.088 -47.934
vt -52.088 -32.066
vt -53.071 -47.071
vt -53.071 -32.929
vt -53.934 -46.088
vt -53.934 -33.912
vt -54.66 -45
vt -54.66 -35
vt -55.239 -43.827
vt -55.239 -36.173
vt -55.659 -42.588
vt -55.659 -37.412
vt -55.914 -41.305
vt -55.914 -38.695
vt -56 -40
vt -42.783 -41.9484
vt -42.783 -30.0516
vt -43.5528 -41.7954
vt -43.5528 -30.2046
vt -44.2962 -41.5434
vt -44.2962 -30.4566
vt -45 -41.196
vt -45 -30.804
vt -45.6528 -40.7604
vt -45.6528 -31.2396
vt -46.2426 -40.2426
vt -46.2426 -31.7574
vt -46.7604 -39.6528
vt -46.7604 -32.3472
vt -47.196 -39
vt -47.196 -33
vt -47.5434 -38.2962
vt -47.5434 -33.7038
vt -47.7954 -37.5528
vt -47.7954 -34.4472
vt -47.9484 -36.783
vt -47.9484 -35.217
vt -48 -36
vt 32.695 30.086
vt 32.695 49.914
vt 31.412 30.341
vt 31.412 49.659
vt 30.173 30.761
vt 30.173 49.239
vt 29 31.34
vt 29 48.66
vt 27.912 32.066
vt 27.912 47.934
vt 26.929 32.929
vt 26.929 47.071
vt 26.066 33.912
vt 26.066 46.088
vt 25.34 35
vt 25.34 45
vt 24.761 36.173
vt 24.761 43.827
vt 24.341 37.412
vt 24.341 42.588
vt 24.086 38.695
vt 24.086 41.305
vt 24 40
vt 29.217 30.0516
vt 29.217 41.9484
vt 28.4472 30.2046
vt 28.4472 41.7954
vt 27.7038 30.4566
vt 27.7038 41.5434
vt 27 30.804
vt 27 41.196
vt 26.3472 31.2396
vt 26.3472 40.7604
vt 25.7574 31.7574
vt 25.7574 40.2426
vt 25.2396 32.3472
vt 25.2396 39.6528
vt 24.804 33
vt 24.804 39
vt 24.4566 33.7038
vt 24.4566 38.2962
vt 24.2046 34.4472
vt 24.2046 37.5528
vt 24.0516 35.217
vt 24.0516 36.783
vt 24 36
vt -0.522 3.9656
vt 0 4
vt 0 0
vt -1.0352 3.8636
vt -1.5308 3.6956
vt -2 3.464
vt -2.4352 3.1736
vt -2.8284 2.8284
vt -3.1736 2.4352
vt -3.464 2
vt -3.6956 1.5308
vt -3.8636 1.0352
vt -3.9656 0.522
vt -4 0
vt -3.9656 -0.522
vt -3.8636 -1.0352
vt -3.6956 -1.5308
vt -3.464 -2
vt -3.1736 -2.4352
vt -2.8284 -2.8284
vt -2.4352 -3.1736
vt -2 -3.464
vt -1.5308 -3.6956
vt -1.0352 -3.8636
vt -0.522 -3.9656
vt 0 -4
vt 0.522 -3.9656
vt 1.0352 -3.8636
vt 1.5308 -3.6956
vt 2 -3.464
vt 2.4352 -3.1736
vt 2.8284 -2.8284
vt 3.1736 -2.4352
vt 3.464 -2
vt 3.6956 -1.5308
vt 3.8636 -1.0352
vt 3.9656 -0.522
vt 4 0
vt 3.9656 0.522
vt 3.8636 1.0352
vt 3.6956 1.5308
vt 3.464 2
vt 3.1736 2.4352
vt 2.8284 2.8284
vt 2.4352 3.1736
vt 2 3.464
vt 1.5308 3.6956
vt 1.0352 3.8636
vt 0.522 3.9656
vt -8.0344 3.4436
vt -8 4
vt 4 4
vt 3.9656 3.4436
vt -8.1364 2.8284
vt 3.8636 2.8284
vt -8.304399 2.1648
vt 3.6956 2.1648
vt -8.536 1.464
vt 3.464 1.464
vt -8.8264 0.7384
vt 3.1736 0.7384
vt -9.1716 0
vt 2.8284 0
vt -9.5648 -0.7384
vt 2.4352 -0.7384
vt -10 -1.464
vt 2 -1.464
vt -10.4692 -2.1648
vt 1.5308 -2.1648
vt -10.9648 -2.8284
vt 1.0352 -2.8284
vt -11.478 -3.4436
vt 0.522 -3.4436
vt -12 -4
vt -4 -4
vt -15.9656 -4.4876
vt -3.9656 -4.4876
vt -15.8636 -4.8988
vt -3.8636 -4.8988
vt -15.6956 -5.2264
vt -3.6956 -5.2264
vt -15.464 -5.464
vt -3.464 -5.464
vt -15.1736 -5.6088
vt -3.1736 -5.6088
vt -14.8284 -5.6568
vt -2.8284 -5.6568
vt -15.1736 -5.6088
vt -3.1736 -5.6088
vt -15.464 -5.464
vt -3.464 -5.464
vt -15.6956 -5.2264
vt -3.6956 -5.2264
vt -15.8636 -4.8988
vt -3.8636 -4.8988
vt -15.9656 -4.4876
vt -3.9656 -4.4876
vt -16 -4
vt 0 -4
vt -11.478 -3.4436
vt 0.522 -3.4436
vt -10.9648 -2.8284
vt 1.0352 -2.8284
vt -10.4692 -2.1648
vt 1.5308 -2.1648
vt -10 -1.464
vt 2 -1.464
vt -9.5648 -0.7384
vt 2.4352 -0.7384
vt -9.1716 0
vt 2.8284 0
vt -8.8264 0.7384
vt 3.1736 0.7384
vt -8.536 1.464
vt 3.464 1.464
vt -8.304399 2.1648
vt 3.6956 2.1648
vt -8.1364 2.8284
vt 3.8636 2.8284
vt -8.0344 3.4436
vt 3.9656 3.4436
vt -8 4
vt 4 4
vt -8.0344 4.4876
vt 3.9656 4.4876
vt -8.1364 4.8988
vt 3.8636 4.8988
vt -8.304399 5.2264
vt 3.6956 5.2264
vt -8.536 5.464
vt 3.464 5.464
vt -8.8264 5.6088
vt 3.1736 5.6088
vt -9.1716 5.6568
vt 2.8284 5.6568
vt -8.8264 5.6088
vt 3.1736 5.6088
vt -8.536 5.464
vt 3.464 5.464
vt -8.304399 5.2264
vt 3.6956 5.2264
vt -8.1364 4.8988
vt 3.8636 4.8988
vt -8.0344 4.4876
vt 3.9656 4.4876
vt -10 -5.5
vt -7.7018 -5.5
vt -7.7018 -2.5
vt -10 -2.5
vt 2 -5.5
vt -0.2981997 -5.5
vt -0.2981997 -2.5
vt 2 -2.5
vt -0.522 23.9656
vt 0 24
vt 0 20
vt -1.0352 23.8636
vt -1.5308 23.6956
vt -2 23.464
vt -2.4352 23.1736
vt -2.8284 22.8284
vt -3.1736 22.4352
vt -3.464 22
vt -3.6956 21.5308
vt -3.8636 21.0352
vt -3.9656 20.522
vt -4 20
vt -3.9656 19.478
vt -3.8636 18.9648
vt -3.6956 18.4692
vt -3.464 18
vt -3.1736 17.5648
vt -2.8284 17.1716
vt -2.4352 16.8264
vt -2 16.536
vt -1.5308 16.3044
vt -1.0352 16.1364
vt -0.522 16.0344
vt 0 16
vt 0.522 16.0344
vt 1.0352 16.1364
vt 1.5308 16.3044
vt 2 16.536
vt 2.4352 16.8264
vt 2.8284 17.1716
vt 3.1736 17.5648
vt 3.464 18
vt 3.6956 18.4692
vt 3.8636 18.9648
vt 3.9656 19.478
vt 4 20
vt 3.9656 20.522
vt 3.8636 21.0352
vt 3.6956 21.5308
vt 3.464 22
vt 3.1736 22.4352
vt 2.8284 22.8284
vt 2.4352 23.1736
vt 2 23.464
vt 1.5308 23.6956
vt 1.0352 23.8636
vt 0.522 23.9656
vt 11.9656 23.4436
vt 12 24
vt 24 24
vt 23.9656 23.4436
vt 11.8636 22.8284
vt 23.8636 22.8284
vt 11.6956 22.1648
vt 23.6956 22.1648
vt 11.464 21.464
vt 23.464 21.464
vt 11.1736 20.7384
vt 23.1736 20.7384
vt 10.8284 20
vt 22.8284 20
vt 10.4352 19.2616
vt 22.4352 19.2616
vt 10 18.536
vt 22 18.536
vt 9.5308 17.8352
vt 21.5308 17.8352
vt 9.0352 17.1716
vt 21.0352 17.1716
vt 8.521999 16.5564
vt 20.522 16.5564
vt 8 16
vt -4 16
vt -15.9656 15.5124
vt -3.9656 15.5124
vt -15.8636 15.1012
vt -3.8636 15.1012
vt -15.6956 14.7736
vt -3.6956 14.7736
vt -15.464 14.536
vt -3.464 14.536
vt -15.1736 14.3912
vt -3.1736 14.3912
vt -14.8284 14.3432
vt 17.1716 14.3432
vt 4.826401 14.3912
vt 16.8264 14.3912
vt 4.535999 14.536
vt 16.536 14.536
vt 4.304399 14.7736
vt 16.3044 14.7736
vt 4.1364 15.1012
vt 16.1364 15.1012
vt 4.034401 15.5124
vt 16.0344 15.5124
vt 4 16
vt 0 16
vt -11.478 16.5564
vt 0.522 16.5564
vt -10.9648 17.1716
vt 1.0352 17.1716
vt -10.4692 17.8352
vt 1.5308 17.8352
vt -10 18.536
vt 2 18.536
vt -9.5648 19.2616
vt 2.4352 19.2616
vt -9.1716 20
vt 2.8284 20
vt -8.8264 20.7384
vt 3.1736 20.7384
vt -8.536 21.464
vt 3.464 21.464
vt -8.304399 22.1648
vt 3.6956 22.1648
vt -8.1364 22.8284
vt 3.8636 22.8284
vt -8.0344 23.4436
vt 3.9656 23.4436
vt -8 24
vt 4 24
vt -8.0344 24.4876
vt 3.9656 24.4876
vt -8.1364 24.8988
vt 3.8636 24.8988
vt -8.304399 25.2264
vt 3.6956 25.2264
vt -8.536 25.464
vt 3.464 25.464
vt -8.8264 25.6088
vt 3.1736 25.6088
vt -9.1716 25.6568
vt 22.8284 25.6568
vt 11.1736 25.6088
vt 23.1736 25.6088
vt 11.464 25.464
vt 23.464 25.464
vt 11.6956 25.2264
vt 23.6956 25.2264
vt 11.8636 24.8988
vt 23.8636 24.8988
vt 11.9656 24.4876
vt 23.9656 24.4876
vt -10 14.5
vt -7.7018 14.5
vt -7.7018 17.5
vt -10 17.5
vt 2 14.5
vt -0.2981997 14.5
vt -0.2981997 17.5
vt 2 17.5
vt -0.522 -16.0344
vt 0 -16
vt 0 -20
vt -1.0352 -16.1364
vt -1.5308 -16.3044
vt -2 -16.536
vt -2.4352 -16.8264
vt -2.8284 -17.1716
vt -3.1736 -17.5648
vt -3.464 -18
vt -3.6956 -18.4692
vt -3.8636 -18.9648
vt -3.9656 -19.478
vt -4 -20
vt -3.9656 -20.522
vt -3.8636 -21.0352
vt -3.6956 -21.5308
vt -3.464 -22
vt -3.1736 -22.4352
vt -2.8284 -22.8284
vt -2.4352 -23.1736
vt -2 -23.464
vt -1.5308 -23.6956
vt -1.0352 -23.8636
vt -0.522 -23.9656
vt 0 -24
vt 0.522 -23.9656
vt 1.0352 -23.8636
vt 1.5308 -23.6956
vt 2 -23.464
vt 2.4352 -23.1736
vt 2.8284 -22.8284
vt 3.1736 -22.4352
vt 3.464 -22
vt 3.6956 -21.5308
vt 3.8636 -21.0352
vt 3.9656 -20.522
vt 4 -20
vt 3.9656 -19.478
vt 3.8636 -18.9648
vt 3.6956 -18.4692
vt 3.464 -18
vt 3.1736 -17.5648
vt 2.8284 -17.1716
vt 2.4352 -16.8264
vt 2 -16.536
vt 1.5308 -16.3044
vt 1.0352 -16.1364
vt 0.522 -16.0344
vt -28.0344 -16.5564
vt -28 -16
vt -16 -16
vt -16.0344 -16.5564
vt -28.1364 -17.1716
vt -16.1364 -17.1716
vt -28.3044 -17.8352
vt -16.3044 -17.8352
vt -28.536 -18.536
vt -16.536 -18.536
vt -28.8264 -19.2616
vt -16.8264 -19.2616
vt -29.1716 -20
vt -17.1716 -20
vt -29.5648 -20.7384
vt -17.5648 -20.7384
vt -30 -21.464
vt -18 -21.464
vt -30.4692 -22.1648
vt -18.4692 -22.1648
vt -30.9648 -22.8284
vt -18.9648 -22.8284
vt -31.478 -23.4436
vt -19.478 -23.4436
vt -32 -24
vt -4 -24
vt -15.9656 -24.4876
vt -3.9656 -24.4876
vt -15.8636 -24.8988
vt -3.8636 -24.8988
vt -15.6956 -25.2264
vt -3.6956 -25.2264
vt -15.464 -25.464
vt -3.464 -25.464
vt -15.1736 -25.6088
vt -3.1736 -25.6088
vt -14.8284 -25.6568
vt -22.8284 -25.6568
vt -35.1736 -25.6088
vt -23.1736 -25.6088
vt -35.464 -25.464
vt -23.464 -25.464
vt -35.6956 -25.2264
vt -23.6956 -25.2264
vt -35.8636 -24.8988
vt -23.8636 -24.8988
vt -35.9656 -24.4876
vt -23.9656 -24.4876
vt -36 -24
vt 0 -24
vt -11.478 -23.4436
vt 0.522 -23.4436
vt -10.9648 -22.8284
vt 1.0352 -22.8284
vt -10.4692 -22.1648
vt 1.5308 -22.1648
vt -10 -21.464
vt 2 -21.464
vt -9.5648 -20.7384
vt 2.4352 -20.7384
vt -9.1716 -20
vt 2.8284 -20
vt -8.8264 -19.2616
vt 3.1736 -19.2616
vt -8.536 -18.536
vt 3.464 -18.536
vt -8.304399 -17.8352
vt 3.6956 -17.8352
vt -8.1364 -17.1716
vt 3.8636 -17.1716
vt -8.0344 -16.5564
vt 3.9656 -16.5564
vt -8 -16
vt 4 -16
vt -8.0344 -15.5124
vt 3.9656 -15.5124
vt -8.1364 -15.1012
vt 3.8636 -15.1012
vt -8.304399 -14.7736
vt 3.6956 -14.7736
vt -8.536 -14.536
vt 3.464 -14.536
vt -8.8264 -14.3912
vt 3.1736 -14.3912
vt -9.1716 -14.3432
vt -17.1716 -14.3432
vt -28.8264 -14.3912
vt -16.8264 -14.3912
vt -28.536 -14.536
vt -16.536 -14.536
vt -28.3044 -14.7736
vt -16.3044 -14.7736
vt -28.1364 -15.1012
vt -16.1364 -15.1012
vt -28.0344 -15.5124
vt -16.0344 -15.5124
vt -10 -25.5
vt -7.7018 -25.5
vt -7.7018 -22.5
vt -10 -22.5
vt 2 -25.5
vt -0.2981997 -25.5
vt -0.2981997 -22.5
vt 2 -22.5
usemtl 26
f 3/3/3 2/2/2 1/1/1
f 1/1/1 4/4/4 3/3/3
f 2/2/2 6/6/6 5/5/5
f 5/5/5 1/1/1 2/2/2
f 6/6/6 8/8/8 7/7/7
f 7/7/7 5/5/5 6/6/6
f 8/8/8 3/3/3 4/4/4
f 4/4/4 7/7/7 8/8/8
f 11/11/11 10/10/10 9/9/9
f 9/9/9 12/12/12 11/11/11
f 10/10/10 14/14/14 13/13/13
f 13/13/13 9/9/9 10/10/10
f 14/14/14 16/16/16 15/15/15
f 15/15/15 13/13/13 14/14/14
f 16/16/16 11/11/11 12/12/12
f 12/12/12 15/15/15 16/16/16
f 19/19/19 18/18/18 17/17/17
f 17/17/17 20/20/20 19/19/19
f 21/21/21 20/20/20 17/17/17
f 17/17/17 22/22/22 21/21/21
f 25/25/25 24/24/24 23/23/23
f 23/23/23 26/26/26 25/25/25
f 27/27/27 26/26/26 23/23/23
f 23/23/23 28/28/28 27/27/27
f 31/31/31 30/30/30 29/29/29
f 29/29/29 32/32/32 31/31/31
f 34/34/34 33/33/33 29/29/29
f 29/29/29 30/30/30 34/34/34
f 37/37/37 36/36/36 35/35/35
f 35/35/35 38/38/38 37/37/37
f 40/40/40 39/39/39 35/35/35
f 35/35/35 36/36/36 40/40/40
f 43/43/43 42/42/42 41/41/41
f 41/41/41 44/44/44 43/43/43
f 45/45/45 44/44/44 41/41/41
f 41/41/41 46/46/46 45/45/45
f 49/49/49 48/48/48 47/47/47
f 47/47/47 50/50/50 49/49/49
f 51/51/51 50/50/50 47/47/47
f 47/47/47 52/52/52 51/51/51
f 55/55/55 54/54/54 53/53/53
f 53/53/53 56/56/56 55/55/55
f 58/58/58 57/57/57 53/53/53
f 53/53/53 54/54/54 58/58/58
f 61/61/61 60/60/60 59/59/59
f 59/59/59 62/62/62 61/61/61
f 64/64/64 63/63/63 59/59/59
f 59/59/59 60/60/60 64/64/64
f 67/67/67 66/66/66 65/65/65
f 65/65/65 68/68/68 67/67/67
f 69/69/69 68/68/68 65/65/65
f 65/65/65 70/70/70 69/69/69
f 73/73/73 72/72/72 71/71/71
f 71/71/71 74/74/74 73/73/73
f 75/75/75 74/74/74 71/71/71
f 71/71/71 76/76/76 75/75/75
f 79/79/79 78/78/78 77/77/77
f 77/77/77 80/80/80 79/79/79
f 82/82/82 81/81/81 77/77/77
f 77/77/77 78/78/78 82/82/82
f 85/85/85 84/84/84 83/83/83
f 83/83/83 86/86/86 85/85/85
f 88/88/88 87/87/87 83/83/83
f 83/83/83 84/84/84 88/88/88
f 89/89/89 90/90/90 91/91/91
f 91/91/91 92/92/92 89/89/89
f 93/93/93 94/94/94 95/95/95
f 95/95/95 96/96/96 93/93/93
f 97/97/97 98/98/98 99/99/99
f 99/99/99 100/100/100 97/97/97
f 101/101/101 102/102/102 103/103/103
f 103/103/103 104/104/104 101/101/101
f 107/107/107 106/106/106 105/105/105
f 105/105/105 108/108/108 107/107/107
f 111/111/111 110/110/110 109/109/109
f 109/109/109 112/112/112 111/111/111
f 115/115/115 114/114/114 113/113/113
f 113/113/113 116/116/116 115/115/115
f 119/119/119 118/118/118 117/117/117
f 117/117/117 120/120/120 119/119/119
f 123/123/123 122/122/122 121/121/121
f 121/121/121 124/124/124 123/123/123
f 127/127/127 126/126/126 125/125/125
f 125/125/125 128/128/128 127/127/127
f 131/131/131 130/130/130 129/129/129
f 129/129/129 132/132/132 131/131/131
f 135/135/135 134/134/134 133/133/133
f 133/133/133 136/136/136 135/135/135
f 101/101/101 104/104/104 137/137/137
f 137/137/137 138/138/138 101/101/101
f 138/138/138 137/137/137 139/139/139
f 139/139/139 140/140/140 138/138/138
f 140/140/140 139/139/139 141/141/141
f 141/141/141 142/142/142 140/140/140
f 142/142/142 141/141/141 143/143/143
f 143/143/143 144/144/144 142/142/142
f 144/144/144 143/143/143 145/145/145
f 145/145/145 146/146/146 144/144/144
f 146/146/146 145/145/145 147/147/147
f 147/147/147 148/148/148 146/146/146
f 148/148/148 147/147/147 149/149/149
f 149/149/149 150/150/150 148/148/148
f 150/150/150 149/149/149 151/151/151
f 151/151/151 152/152/152 150/150/150
f 152/152/152 151/151/151 153/153/153
f 153/153/153 154/154/154 152/152/152
f 154/154/154 153/153/153 155/155/155
f 155/155/155 156/156/156 154/154/154
f 156/156/156 155/155/155 157/157/157
f 157/157/157 158/158/158 156/156/156
f 158/158/158 157/157/157 159/159/159
f 159/159/159 160/160/160 158/158/158
f 160/160/160 159/159/159 161/161/161
f 161/161/161 162/162/162 160/160/160
f 162/162/162 161/161/161 163/163/163
f 163/163/163 164/164/164 162/162/162
f 164/164/164 163/163/163 165/165/165
f 165/165/165 166/166/166 164/164/164
f 166/166/166 165/165/165 167/167/167
f 167/167/167 168/168/168 166/166/166
f 168/168/168 167/167/167 169/169/169
f 169/169/169 170/170/170 168/168/168
f 170/170/170 169/169/169 171/171/171
f 171/171/171 172/172/172 170/170/170
f 172/172/172 171/171/171 173/173/173
f 173/173/173 174/174/174 172/172/172
f 174/174/174 173/173/173 175/175/175
f 175/175/175 176/176/176 174/174/174
f 176/176/176 175/175/175 177/177/177
f 177/177/177 178/178/178 176/176/176
f 178/178/178 177/177/177 179/179/179
f 179/179/179 180/180/180 178/178/178
f 180/180/180 179/179/179 181/181/181
f 181/181/181 182/182/182 180/180/180
f 182/182/182 181/181/181 93/93/93
f 93/93/93 96/96/96 182/182/182
f 183/183/183 120/120/120 117/117/117
f 117/117/117 184/184/184 183/183/183
f 185/185/185 183/183/183 184/184/184
f 184/184/184 186/186/186 185/185/185
f 187/187/187 185/185/185 186/186/186
f 186/186/186 188/188/188 187/187/187
f 189/189/189 187/187/187 188/188/188
f 188/188/188 190/190/190 189/189/189
f 191/191/191 189/189/189 190/190/190
f 190/190/190 192/192/192 191/191/191
f 193/193/193 191/191/191 192/192/192
f 192/192/192 194/194/194 193/193/193
f 195/195/195 193/193/193 194/194/194
f 194/194/194 196/196/196 195/195/195
f 197/197/197 195/195/195 196/196/196
f 196/196/196 198/198/198 197/197/197
f 199/199/199 197/197/197 198/198/198
f 198/198/198 200/200/200 199/199/199
f 201/201/201 199/199/199 200/200/200
f 200/200/200 202/202/202 201/201/201
f 203/203/203 201/201/201 202/202/202
f 202/202/202 204/204/204 203/203/203
f 205/205/205 203/203/203 204/204/204
f 204/204/204 206/206/206 205/205/205
f 207/207/207 205/205/205 206/206/206
f 206/206/206 208/208/208 207/207/207
f 209/209/209 207/207/207 208/208/208
f 208/208/208 210/210/210 209/209/209
f 211/211/211 209/209/209 210/210/210
f 210/210/210 212/212/212 211/211/211
f 213/213/213 211/211/211 212/212/212
f 212/212/212 214/214/214 213/213/213
f 215/215/215 213/213/213 214/214/214
f 214/214/214 216/216/216 215/215/215
f 217/217/217 215/215/215 216/216/216
f 216/216/216 218/218/218 217/217/217
f 219/219/219 217/217/217 218/218/218
f 218/218/218 220/220/220 219/219/219
f 221/221/221 219/219/219 220/220/220
f 220/220/220 222/222/222 221/221/221
f 223/223/223 221/221/221 222/222/222
f 222/222/222 224/224/224 223/223/223
f 225/225/225 223/223/223 224/224/224
f 224/224/224 226/226/226 225/225/225
f 227/227/227 225/225/225 226/226/226
f 226/226/226 228/228/228 227/227/227
f 109/109/109 227/227/227 228/228/228
f 228/228/228 112/112/112 109/109/109
f 229/229/229 97/97/97 100/100/100
f 100/100/100 230/230/230 229/229/229
f 231/231/231 229/229/229 230/230/230
f 230/230/230 232/232/232 231/231/231
f 233/233/233 231/231/231 232/232/232
f 232/232/232 234/234/234 233/233/233
f 235/235/235 233/233/233 234/234/234
f 234/234/234 236/236/236 235/235/235
f 237/237/237 235/235/235 236/236/236
f 236/236/236 238/238/238 237/237/237
f 239/239/239 237/237/237 238/238/238
f 238/238/238 240/240/240 239/239/239
f 241/241/241 239/239/239 240/240/240
f 240/240/240 242/242/242 241/241/241
f 243/243/243 241/241/241 242/242/242
f 242/242/242 244/244/244 243/243/243
f 245/245/245 243/243/243 244/244/244
f 244/244/244 246/246/246 245/245/245
f 247/247/247 245/245/245 246/246/246
f 246/246/246 248/248/248 247/247/247
f 249/249/249 247/247/247 248/248/248
f 248/248/248 250/250/250 249/249/249
f 251/251/251 249/249/249 250/250/250
f 116/116/116 113/113/113 252/252/252
f 252/252/252 253/253/253 116/116/116
f 253/253/253 252/252/252 254/254/254
f 254/254/254 255/255/255 253/253/253
f 255/255/255 254/254/254 256/256/256
f 256/256/256 257/257/257 255/255/255
f 257/257/257 256/256/256 258/258/258
f 258/258/258 259/259/259 257/257/257
f 259/259/259 258/258/258 260/260/260
f 260/260/260 261/261/261 259/259/259
f 261/261/261 260/260/260 262/262/262
f 262/262/262 263/263/263 261/261/261
f 263/263/263 262/262/262 264/264/264
f 264/264/264 265/265/265 263/263/263
f 265/265/265 264/264/264 266/266/266
f 266/266/266 267/267/267 265/265/265
f 267/267/267 266/266/266 268/268/268
f 268/268/268 269/269/269 267/267/267
f 269/269/269 268/268/268 270/270/270
f 270/270/270 271/271/271 269/269/269
f 271/271/271 270/270/270 272/272/272
f 272/272/272 273/273/273 271/271/271
f 273/273/273 272/272/272 274/274/274
f 89/89/89 92/92/92 275/275/275
f 275/275/275 276/276/276 89/89/89
f 276/276/276 275/275/275 277/277/277
f 277/277/277 278/278/278 276/276/276
f 278/278/278 277/277/277 279/279/279
f 279/279/279 280/280/280 278/278/278
f 280/280/280 279/279/279 281/281/281
f 281/281/281 282/282/282 280/280/280
f 282/282/282 281/281/281 283/283/283
f 283/283/283 284/284/284 282/282/282
f 284/284/284 283/283/283 285/285/285
f 285/285/285 286/286/286 284/284/284
f 286/286/286 285/285/285 287/287/287
f 287/287/287 288/288/288 286/286/286
f 288/288/288 287/287/287 289/289/289
f 289/289/289 290/290/290 288/288/288
f 290/290/290 289/289/289 291/291/291
f 291/291/291 292/292/292 290/290/290
f 292/292/292 291/291/291 293/293/293
f 293/293/293 294/294/294 292/292/292
f 294/294/294 293/293/293 295/295/295
f 295/295/295 296/296/296 294/294/294
f 296/296/296 295/295/295 297/297/297
f 298/298/298 108/108/108 105/105/105
f 105/105/105 299/299/299 298/298/298
f 300/300/300 298/298/298 299/299/299
f 299/299/299 301/301/301 300/300/300
f 302/302/302 300/300/300 301/301/301
f 301/301/301 303/303/303 302/302/302
f 304/304/304 302/302/302 303/303/303
f 303/303/303 305/305/305 304/304/304
f 306/306/306 304/304/304 305/305/305
f 305/305/305 307/307/307 306/306/306
f 308/308/308 306/306/306 307/307/307
f 307/307/307 309/309/309 308/308/308
f 310/310/310 308/308/308 309/309/309
f 309/309/309 311/311/311 310/310/310
f 312/312/312 310/310/310 311/311/311
f 311/311/311 313/313/313 312/312/312
f 314/314/314 312/312/312 313/313/313
f 313/313/313 315/315/315 314/314/314
f 316/316/316 314/314/314 315/315/315
f 315/315/315 317/317/317 316/316/316
f 318/318/318 316/316/316 317/317/317
f 317/317/317 319/319/319 318/318/318
f 320/320/320 318/318/318 319/319/319
f 321/321/321 322/322/322 323/323/323
f 324/324/324 321/321/321 323/323/323
f 325/325/325 324/324/324 323/323/323
f 326/326/326 325/325/325 323/323/323
f 327/327/327 326/326/326 323/323/323
f 328/328/328 327/327/327 323/323/323
f 329/329/329 328/328/328 323/323/323
f 330/330/330 329/329/329 323/323/323
f 331/331/331 330/330/330 323/323/323
f 332/332/332 331/331/331 323/323/323
f 333/333/333 332/332/332 323/323/323
f 334/334/334 333/333/333 323/323/323
f 335/335/335 334/334/334 323/323/323
f 336/336/336 335/335/335 323/323/323
f 337/337/337 336/336/336 323/323/323
f 338/338/338 337/337/337 323/323/323
f 339/339/339 338/338/338 323/323/323
f 340/340/340 339/339/339 323/323/323
f 341/341/341 340/340/340 323/323/323
f 342/342/342 341/341/341 323/323/323
f 343/343/343 342/342/342 323/323/323
f 344/344/344 343/343/343 323/323/323
f 345/345/345 344/344/344 323/323/323
f 346/346/346 345/345/345 323/323/323
f 347/347/347 346/346/346 323/323/323
f 348/348/348 347/347/347 323/323/323
f 349/349/349 348/348/348 323/323/323
f 350/350/350 349/349/349 323/323/323
f 351/351/351 350/350/350 323/323/323
f 352/352/352 351/351/351 323/323/323
f 353/353/353 352/352/352 323/323/323
f 354/354/354 353/353/353 323/323/323
f 355/355/355 354/354/354 323/323/323
f 356/356/356 355/355/355 323/323/323
f 357/357/357 356/356/356 323/323/323
f 358/358/358 357/357/357 323/323/323
f 359/359/359 358/358/358 323/323/323
f 360/360/360 359/359/359 323/323/323
f 361/361/361 360/360/360 323/323/323
f 362/362/362 361/361/361 323/323/323
f 363/363/363 362/362/362 323/323/323
f 364/364/364 363/363/363 323/323/323
f 365/365/365 364/364/364 323/323/323
f 366/366/366 365/365/365 323/323/323
f 367/367/367 366/366/366 323/323/323
f 368/368/368 367/367/367 323/323/323
f 369/369/369 368/368/368 323/323/323
f 322/322/322 369/369/369 323/323/323
f 370/370/370 371/371/371 372/372/372
f 372/372/372 373/373/373 370/370/370
f 374/374/374 370/370/370 373/373/373
f 373/373/373 375/375/375 374/374/374
f 376/376/376 374/374/374 375/375/375
f 375/375/375 377/377/377 376/376/376
f 378/378/378 376/376/376 377/377/377
f 377/377/377 379/379/379 378/378/378
f 380/380/380 378/378/378 379/379/379
f 379/379/379 381/381/381 380/380/380
f 382/382/382 380/380/380 381/381/381
f 381/381/381 383/383/383 382/382/382
f 384/384/384 382/382/382 383/383/383
f 383/383/383 385/385/385 384/384/384
f 386/386/386 384/384/384 385/385/385
f 385/385/385 387/387/387 386/386/386
f 388/388/388 386/386/386 387/387/387
f 387/387/387 389/389/389 388/388/388
f 390/390/390 388/388/388 389/389/389
f 389/389/389 391/391/391 390/390/390
f 392/392/392 390/390/390 391/391/391
f 391/391/391 393/393/393 392/392/392
f 394/394/394 392/392/392 393/393/393
f 393/393/393 395/395/395 394/394/394
f 396/396/396 394/394/394 395/395/395
f 395/395/395 397/397/397 396/396/396
f 398/398/398 396/396/396 397/397/397
f 397/397/397 399/399/399 398/398/398
f 400/400/400 398/398/398 399/399/399
f 399/399/399 401/401/401 400/400/400
f 402/402/402 400/400/400 401/401/401
f 401/401/401 403/403/403 402/402/402
f 404/404/404 402/402/402 403/403/403
f 403/403/403 405/405/405 404/404/404
f 406/406/406 404/404/404 405/405/405
f 405/405/405 407/407/407 406/406/406
f 408/408/408 406/406/406 407/407/407
f 407/407/407 409/409/409 408/408/408
f 410/410/410 408/408/408 409/409/409
f 409/409/409 411/411/411 410/410/410
f 412/412/412 410/410/410 411/411/411
f 411/411/411 413/413/413 412/412/412
f 414/414/414 412/412/412 413/413/413
f 413/413/413 415/415/415 414/414/414
f 416/416/416 414/414/414 415/415/415
f 415/415/415 417/417/417 416/416/416
f 418/418/418 416/416/416 417/417/417
f 417/417/417 419/419/419 418/418/418
f 420/420/420 418/418/418 419/419/419
f 419/419/419 421/421/421 420/420/420
f 422/422/422 420/420/420 421/421/421
f 421/421/421 423/423/423 422/422/422
f 424/424/424 422/422/422 423/423/423
f 423/423/423 425/425/425 424/424/424
f 426/426/426 424/424/424 425/425/425
f 425/425/425 427/427/427 426/426/426
f 428/428/428 426/426/426 427/427/427
f 427/427/427 429/429/429 428/428/428
f 430/430/430 428/428/428 429/429/429
f 429/429/429 431/431/431 430/430/430
f 432/432/432 430/430/430 431/431/431
f 431/431/431 433/433/433 432/432/432
f 434/434/434 432/432/432 433/433/433
f 433/433/433 435/435/435 434/434/434
f 436/436/436 434/434/434 435/435/435
f 435/435/435 437/437/437 436/436/436
f 438/438/438 436/436/436 437/437/437
f 437/437/437 439/439/439 438/438/438
f 440/440/440 438/438/438 439/439/439
f 439/439/439 441/441/441 440/440/440
f 442/442/442 440/440/440 441/441/441
f 441/441/441 443/443/443 442/442/442
f 444/444/444 442/442/442 443/443/443
f 443/443/443 445/445/445 444/444/444
f 446/446/446 444/444/444 445/445/445
f 445/445/445 447/447/447 446/446/446
f 448/448/448 446/446/446 447/447/447
f 447/447/447 449/449/449 448/448/448
f 450/450/450 448/448/448 449/449/449
f 449/449/449 451/451/451 450/450/450
f 452/452/452 450/450/450 451/451/451
f 451/451/451 453/453/453 452/452/452
f 454/454/454 452/452/452 453/453/453
f 453/453/453 455/455/455 454/454/454
f 456/456/456 454/454/454 455/455/455
f 455/455/455 457/457/457 456/456/456
f 458/458/458 456/456/456 457/457/457
f 457/457/457 459/459/459 458/458/458
f 460/460/460 458/458/458 459/459/459
f 459/459/459 461/461/461 460/460/460
f 462/462/462 460/460/460 461/461/461
f 461/461/461 463/463/463 462/462/462
f 464/464/464 462/462/462 463/463/463
f 463/463/463 465/465/465 464/464/464
f 371/371/371 464/464/464 465/465/465
f 465/465/465 372/372/372 371/371/371
f 468/468/468 467/467/467 466/466/466
f 466/466/466 469/469/469 468/468/468
f 470/470/470 471/471/471 472/472/472
f 472/472/472 473/473/473 470/470/470
f 474/474/474 475/475/475 476/476/476
f 477/477/477 474/474/474 476/476/476
f 478/478/478 477/477/477 476/476/476
f 479/479/479 478/478/478 476/476/476
f 480/480/480 479/479/479 476/476/476
f 481/481/481 480/480/480 476/476/476
f 482/482/482 481/481/481 476/476/476
f 483/483/483 482/482/482 476/476/476
f 484/484/484 483/483/483 476/476/476
f 485/485/485 484/484/484 476/476/476
f 486/486/486 485/485/485 476/476/476
f 487/487/487 486/486/486 476/476/476
f 488/488/488 487/487/487 476/476/476
f 489/489/489 488/488/488 476/476/476
f 490/490/490 489/489/489 476/476/476
f 491/491/491 490/490/490 476/476/476
f 492/492/492 491/491/491 476/476/476
f 493/493/493 492/492/492 476/476/476
f 494/494/494 493/493/493 476/476/476
f 495/495/495 494/494/494 476/476/476
f 496/496/496 495/495/495 476/476/476
f 497/497/497 496/496/496 476/476/476
f 498/498/498 497/497/497 476/476/476
f 499/499/499 498/498/498 476/476/476
f 500/500/500 499/499/499 476/476/476
f 501/501/501 500/500/500 476/476/476
f 502/502/502 501/501/501 476/476/476
f 503/503/503 502/502/502 476/476/476
f 504/504/504 503/503/503 476/476/476
f 505/505/505 504/504/504 476/476/476
f 506/506/506 505/505/505 476/476/476
f 507/507/507 506/506/506 476/476/476
f 508/508/508 507/507/507 476/476/476
f 509/509/509 508/508/508 476/476/476
f 510/510/510 509/509/509 476/476/476
f 511/511/511 510/510/510 476/476/476
f 512/512/512 511/511/511 476/476/476
f 513/513/513 512/512/512 476/476/476
f 514/514/514 513/513/513 476/476/476
f 515/515/515 514/514/514 476/476/476
f 516/516/516 515/515/515 476/476/476
f 517/517/517 516/516/516 476/476/476
f 518/518/518 517/517/517 476/476/476
f 519/519/519 518/518/518 476/476/476
f 520/520/520 519/519/519 476/476/476
f 521/521/521 520/520/520 476/476/476
f 522/522/522 521/521/521 476/476/476
f 475/475/475 522/522/522 476/476/476
f 523/523/523 524/524/524 525/525/525
f 525/525/525 526/526/526 523/523/523
f 527/527/527 523/523/523 526/526/526
f 526/526/526 528/528/528 527/527/527
f 529/529/529 527/527/527 528/528/528
f 528/528/528 530/530/530 529/529/529
f 531/531/531 529/529/529 530/530/530
f 530/530/530 532/532/532 531/531/531
f 533/533/533 531/531/531 532/532/532
f 532/532/532 534/534/534 533/533/533
f 535/535/535 533/533/533 534/534/534
f 534/534/534 536/536/536 535/535/535
f 537/537/537 535/535/535 536/536/536
f 536/536/536 538/538/538 537/537/537
f 539/539/539 537/537/537 538/538/538
f 538/538/538 540/540/540 539/539/539
f 541/541/541 539/539/539 540/540/540
f 540/540/540 542/542/542 541/541/541
f 543/543/543 541/541/541 542/542/542
f 542/542/542 544/544/544 543/543/543
f 545/545/545 543/543/543 544/544/544
f 544/544/544 546/546/546 545/545/545
f 547/547/547 545/545/545 546/546/546
f 546/546/546 548/548/548 547/547/547
f 549/549/549 547/547/547 548/548/548
f 548/548/548 550/550/550 549/549/549
f 551/551/551 549/549/549 550/550/550
f 550/550/550 552/552/552 551/551/551
f 553/553/553 551/551/551 552/552/552
f 552/552/552 554/554/554 553/553/553
f 555/555/555 553/553/553 554/554/554
f 554/554/554 556/556/556 555/555/555
f 557/557/557 555/555/555 556/556/556
f 556/556/556 558/558/558 557/557/557
f 559/559/559 557/557/557 558/558/558
f 558/558/558 560/560/560 559/559/559
f 561/561/561 559/559/559 560/560/560
f 560/560/560 562/562/562 561/561/561
f 563/563/563 561/561/561 562/562/562
f 562/562/562 564/564/564 563/563/563
f 565/565/565 563/563/563 564/564/564
f 564/564/564 566/566/566 565/565/565
f 567/567/567 565/565/565 566/566/566
f 566/566/566 568/568/568 567/567/567
f 569/569/569 567/567/567 568/568/568
f 568/568/568 570/570/570 569/569/569
f 571/571/571 569/569/569 570/570/570
f 570/570/570 572/572/572 571/571/571
f 573/573/573 571/571/571 572/572/572
f 572/572/572 574/574/574 573/573/573
f 575/575/575 573/573/573 574/574/574
f 574/574/574 576/576/576 575/575/575
f 577/577/577 575/575/575 576/576/576
f 576/576/576 578/578/578 577/577/577
f 579/579/579 577/577/577 578/578/578
f 578/578/578 580/580/580 579/579/579
f 581/581/581 579/579/579 580/580/580
f 580/580/580 582/582/582 581/581/581
f 583/583/583 581/581/581 582/582/582
f 582/582/582 584/584/584 583/583/583
f 585/585/585 583/583/583 584/584/584
f 584/584/584 586/586/586 585/585/585
f 587/587/587 585/585/585 586/586/586
f 586/586/586 588/588/588 587/587/587
f 589/589/589 587/587/587 588/588/588
f 588/588/588 590/590/590 589/589/589
f 591/591/591 589/589/589 590/590/590
f 590/590/590 592/592/592 591/591/591
f 593/593/593 591/591/591 592/592/592
f 592/592/592 594/594/594 593/593/593
f 595/595/595 593/593/593 594/594/594
f 594/594/594 596/596/596 595/595/595
f 597/597/597 595/595/595 596/596/596
f 596/596/596 598/598/598 597/597/597
f 599/599/599 597/597/597 598/598/598
f 598/598/598 600/600/600 599/599/599
f 601/601/601 599/599/599 600/600/600
f 600/600/600 602/602/602 601/601/601
f 603/603/603 601/601/601 602/602/602
f 602/602/602 604/604/604 603/603/603
f 605/605/605 603/603/603 604/604/604
f 604/604/604 606/606/606 605/605/605
f 607/607/607 605/605/605 606/606/606
f 606/606/606 608/608/608 607/607/607
f 609/609/609 607/607/607 608/608/608
f 608/608/608 610/610/610 609/609/609
f 611/611/611 609/609/609 610/610/610
f 610/610/610 612/612/612 611/611/611
f 613/613/613 611/611/611 612/612/612
f 612/612/612 614/614/614 613/613/613
f 615/615/615 613/613/613 614/614/614
f 614/614/614 616/616/616 615/615/615
f 617/617/617 615/615/615 616/616/616
f 616/616/616 618/618/618 617/617/617
f 524/524/524 617/617/617 618/618/618
f 618/618/618 525/525/525 524/524/524
f 621/621/621 620/620/620 619/619/619
f 619/619/619 622/622/622 621/621/621
f 623/623/623 624/624/624 625/625/625
f 625/625/625 626/626/626 623/623/623
f 627/627/627 628/628/628 629/629/629
f 630/630/630 627/627/627 629/629/629
f 631/631/631 630/630/630 629/629/629
f 632/632/632 631/631/631 629/629/629
f 633/633/633 632/632/632 629/629/629
f 634/634/634 633/633/633 629/629/629
f 635/635/635 634/634/634 629/629/629
f 636/636/636 635/635/635 629/629/629
f 637/637/637 636/636/636 629/629/629
f 638/638/638 637/637/637 629/629/629
f 639/639/639 638/638/638 629/629/629
f 640/640/640 639/639/639 629/629/629
f 641/641/641 640/640/640 629/629/629
f 642/642/642 641/641/641 629/629/629
f 643/643/643 642/642/642 629/629/629
f 644/644/644 643/643/643 629/629/629
f 645/645/645 644/644/644 629/629/629
f 646/646/646 645/645/645 629/629/629
f 647/647/647 646/646/646 629/629/629
f 648/648/648 647/647/647 629/629/629
f 649/649/649 648/648/648 629/629/629
f 650/650/650 649/649/649 629/629/629
f 651/651/651 650/650/650 629/629/629
f 652/652/652 651/651/651 629/629/629
f 653/653/653 652/652/652 629/629/629
f 654/654/654 653/653/653 629/629/629
f 655/655/655 654/654/654 629/629/629
f 656/656/656 655/655/655 629/629/629
f 657/657/657 656/656/656 629/629/629
f 658/658/658 657/657/657 629/629/629
f 659/659/659 658/658/658 629/629/629
f 660/660/660 659/659/659 629/629/629
f 661/661/661 660/660/660 629/629/629
f 662/662/662 661/661/661 629/629/629
f 663/663/663 662/662/662 629/629/629
f 664/664/664 663/663/663 629/629/629
f 665/665/665 664/664/664 629/629/629
f 666/666/666 665/665/665 629/629/629
f 667/667/667 666/666/666 629/629/629
f 668/668/668 667/667/667 629/629/629
f 669/669/669 668/668/668 629/629/629
f 670/670/670 669/669/669 629/629/629
f 671/671/671 670/670/670 629/629/629
f 672/672/672 671/671/671 629/629/629
f 673/673/673 672/672/672 629/629/629
f 674/674/674 673/673/673 629/629/629
f 675/675/675 674/674/674 629/629/629
f 628/628/628 675/675/675 629/629/629
f 676/676/676 677/677/677 678/678/678
f 678/678/678 679/679/679 676/676/676
f 680/680/680 676/676/676 679/679/679
f 679/679/679 681/681/681 680/680/680
f 682/682/682 680/680/680 681/681/681
f 681/681/681 683/683/683 682/682/682
f 684/684/684 682/682/682 683/683/683
f 683/683/683 685/685/685 684/684/684
f 686/686/686 684/684/684 685/685/685
f 685/685/685 687/687/687 686/686/686
f 688/688/688 686/686/686 687/687/687
f 687/687/687 689/689/689 688/688/688
f 690/690/690 688/688/688 689/689/689
f 689/689/689 691/691/691 690/690/690
f 692/692/692 690/690/690 691/691/691
f 691/691/691 693/693/693 692/692/692
f 694/694/694 692/692/692 693/693/693
f 693/693/693 695/695/695 694/694/694
f 696/696/696 694/694/694 695/695/695
f 695/695/695 697/697/697 696/696/696
f 698/698/698 696/696/696 697/697/697
f 697/697/697 699/699/699 698/698/698
f 700/700/700 698/698/698 699/699/699
f 699/699/699 701/701/701 700/700/700
f 702/702/702 700/700/700 701/701/701
f 701/701/701 703/703/703 702/702/702
f 704/704/704 702/702/702 703/703/703
f 703/703/703 705/705/705 704/704/704
f 706/706/706 704/704/704 705/705/705
f 705/705/705 707/707/707 706/706/706
f 708/708/708 706/706/706 707/707/707
f 707/707/707 709/709/709 708/708/708
f 710/710/710 708/708/708 709/709/709
f 709/709/709 711/711/711 710/710/710
f 712/712/712 710/710/710 711/711/711
f 711/711/711 713/713/713 712/712/712
f 714/714/714 712/712/712 713/713/713
f 713/713/713 715/715/715 714/714/714
f 716/716/716 714/714/714 715/715/715
f 715/715/715 717/717/717 716/716/716
f 718/718/718 716/716/716 717/717/717
f 717/717/717 719/719/719 718/718/718
f 720/720/720 718/718/718 719/719/719
f 719/719/719 721/721/721 720/720/720
f 722/722/722 720/720/720 721/721/721
f 721/721/721 723/723/723 722/722/722
f 724/724/724 722/722/722 723/723/723
f 723/723/723 725/725/725 724/724/724
f 726/726/726 724/724/724 725/725/725
f 725/725/725 727/727/727 726/726/726
f 728/728/728 726/726/726 727/727/727
f 727/727/727 729/729/729 728/728/728
f 730/730/730 728/728/728 729/729/729
f 729/729/729 731/731/731 730/730/730
f 732/732/732 730/730/730 731/731/731
f 731/731/731 733/733/733 732/732/732
f 734/734/734 732/732/732 733/733/733
f 733/733/733 735/735/735 734/734/734
f 736/736/736 734/734/734 735/735/735
f 735/735/735 737/737/737 736/736/736
f 738/738/738 736/736/736 737/737/737
f 737/737/737 739/739/739 738/738/738
f 740/740/740 738/738/738 739/739/739
f 739/739/739 741/741/741 740/740/740
f 742/742/742 740/740/740 741/741/741
f 741/741/741 743/743/743 742/742/742
f 744/744/744 742/742/742 743/743/743
f 743/743/743 745/745/745 744/744/744
f 746/746/746 744/744/744 745/745/745
f 745/745/745 747/747/747 746/746/746
f 748/748/748 746/746/746 747/747/747
f 747/747/747 749/749/749 748/748/748
f 750/750/750 748/748/748 749/749/749
f 749/749/749 751/751/751 750/750/750
f 752/752/752 750/750/750 751/751/751
f 751/751/751 753/753/753 752/752/752
f 754/754/754 752/752/752 753/753/753
f 753/753/753 755/755/755 754/754/754
f 756/756/756 754/754/754 755/755/755
f 755/755/755 757/757/757 756/756/756
f 758/758/758 756/756/756 757/757/757
f 757/757/757 759/759/759 758/758/758
f 760/760/760 758/758/758 759/759/759
f 759/759/759 761/761/761 760/760/760
f 762/762/762 760/760/760 761/761/761
f 761/761/761 763/763/763 762/762/762
f 764/764/764 762/762/762 763/763/763
f 763/763/763 765/765/765 764/764/764
f 766/766/766 764/764/764 765/765/765
f 765/765/765 767/767/767 766/766/766
f 768/768/768 766/766/766 767/767/767
f 767/767/767 769/769/769 768/768/768
f 770/770/770 768/768/768 769/769/769
f 769/769/769 771/771/771 770/770/770
f 677/677/677 770/770/770 771/771/771
f 771/771/771 678/678/678 677/677/677
f 774/774/774 773/773/773 772/772/772
f 772/772/772 775/775/775 774/774/774
f 776/776/776 777/777/777 778/778/778
f 778/778/778 779/779/779 776/776/776
