mtllib tile_modified1*1_with_clip.mtl
v -8.940697E-06 20.00001 -10.00001
v 7.999992 20.00002 -10.00001
v 8.00001 2.019971E-05 -9.999992
v 8.940697E-06 1.066297E-05 -9.999992
v 8.940697E-06 1.066297E-05 -9.999992
v 8.00001 2.019971E-05 -9.999992
v 8.00001 3.845126E-05 10.00001
v 8.940697E-06 2.891452E-05 10.00001
v 8.940697E-06 2.891452E-05 10.00001
v 8.00001 3.845126E-05 10.00001
v 7.999992 20.00004 9.999994
v -8.940697E-06 20.00003 9.999994
v -8.940697E-06 20.00003 9.999994
v 7.999992 20.00004 9.999994
v 7.999992 20.00002 -10.00001
v -8.940697E-06 20.00001 -10.00001
v 4.000006 4.000031 6.000008
v 3.999995 16.00003 5.999997
v 3.999995 16.00002 -6.000006
v 4.000006 4.00002 -5.999995
v 3.999995 16.00002 -6.000006
v 7.999996 16.00003 -6.000006
v 8.000007 4.000024 -5.999995
v 4.000006 4.00002 -5.999995
v 4.000006 4.00002 -5.999995
v 8.000007 4.000024 -5.999995
v 8.000007 4.000035 6.000008
v 4.000006 4.000031 6.000008
v 4.000006 4.000031 6.000008
v 8.000007 4.000035 6.000008
v 7.999996 16.00004 5.999997
v 3.999995 16.00003 5.999997
v 3.999995 16.00003 5.999997
v 7.999996 16.00004 5.999997
v 7.999996 16.00003 -6.000006
v 3.999995 16.00002 -6.000006
v 8.00001 2.019971E-05 -9.999992
v 8.000007 4.000024 -5.999995
v 7.999996 16.00003 -6.000006
v 7.999992 20.00002 -10.00001
v 8.00001 3.845126E-05 10.00001
v 8.000007 4.000035 6.000008
v 7.999992 20.00004 9.999994
v 7.999996 16.00004 5.999997
v 8.940697E-06 1.066297E-05 -9.999992
v -8.940697E-06 20.00001 -10.00001
v -8.940697E-06 20.00003 9.999994
v 8.940697E-06 2.891452E-05 10.00001
v 8.940697E-06 2.343905E-05 4.000011
v -1.999997 6.000022 4.000005
v -2.000004 14.00002 3.999998
v -8.940697E-06 20.00003 3.999993
v -8.940697E-06 20.00002 -4.000009
v -2.000004 14.00002 -4.000004
v -1.999997 6.000014 -3.999996
v 8.940697E-06 1.613843E-05 -3.999991
v -2 10.00002 -4
v -2.304399 8.469214 -3.999999
v -3.171598 7.171613 -3.999998
v -4.469197 6.304412 -3.999997
v -5.999997 6.00001 -3.999996
v -7.530797 6.304408 -3.999997
v -9.999998 6.000005 -3.999996
v -2.304402 11.53082 -4.000001
v -3.171603 12.82841 -4.000003
v -4.469204 13.69561 -4.000003
v -6.000004 14.00001 -4.000004
v -7.530804 13.69561 -4.000003
v -10 14.00001 -4.000004
v -2 10.00002 4.000002
v -2.304399 8.469222 4.000003
v -3.171598 7.171621 4.000004
v -4.469197 6.304419 4.000005
v -5.999997 6.000017 4.000005
v -7.530797 6.304415 4.000005
v -9.999998 6.000012 4.000005
v -2.304402 11.53082 4
v -3.171603 12.82842 3.999999
v -4.469204 13.69562 3.999999
v -6.000004 14.00002 3.999998
v -7.530804 13.69562 3.999999
v -10 14.00001 3.999998
v -2.0344 9.478023 4.000002
v -2 10.00002 4.000002
v -2 10.00002 -4
v -2.0344 9.478015 -4
v -2.136399 8.964822 4.000003
v -2.136399 8.964814 -3.999999
v -2.304399 8.469222 4.000003
v -2.304399 8.469214 -3.999999
v -2.535999 8.000021 4.000004
v -2.535999 8.000014 -3.999998
v -2.826398 7.564821 4.000004
v -2.826398 7.564814 -3.999998
v -3.171598 7.171621 4.000004
v -3.171598 7.171613 -3.999998
v -3.564798 6.82642 4.000005
v -3.564798 6.826413 -3.999997
v -3.999997 6.536019 4.000005
v -3.999997 6.536012 -3.999997
v -4.469197 6.304419 4.000005
v -4.469197 6.304411 -3.999997
v -4.964797 6.136418 4.000005
v -4.964797 6.136411 -3.999997
v -5.477997 6.034418 4.000005
v -5.477997 6.03441 -3.999996
v -5.999997 6.000017 4.000005
v -5.999997 6.00001 -3.999996
v -6.521997 6.034416 4.000005
v -6.521997 6.034409 -3.999996
v -7.035198 6.136416 4.000005
v -7.035198 6.136408 -3.999997
v -7.530797 6.304415 4.000005
v -7.530797 6.304408 -3.999997
v -2.034401 10.52202 4.000001
v -2.034401 10.52201 -4
v -2.136401 11.03522 4.000001
v -2.136401 11.03522 -4.000001
v -2.304402 11.53082 4
v -2.304402 11.53082 -4.000001
v -2.536002 12.00002 4
v -2.536002 12.00001 -4.000002
v -2.826403 12.43522 4
v -2.826403 12.43521 -4.000002
v -3.171603 12.82842 3.999999
v -3.171603 12.82841 -4.000003
v -3.564803 13.17362 3.999999
v -3.564803 13.17361 -4.000003
v -4.000003 13.46402 3.999999
v -4.000003 13.46401 -4.000003
v -4.469204 13.69562 3.999999
v -4.469204 13.69561 -4.000003
v -4.964804 13.86362 3.999998
v -4.964804 13.86361 -4.000004
v -5.478004 13.96562 3.999998
v -5.478004 13.96561 -4.000004
v -6.000004 14.00002 3.999998
v -6.000004 14.00001 -4.000004
v -6.522004 13.96562 3.999998
v -6.522004 13.96561 -4.000004
v -7.035204 13.86362 3.999998
v -7.035204 13.86361 -4.000004
v -7.530804 13.69562 3.999999
v -7.530804 13.69561 -4.000003
v -9.999998 6.000012 4.000005
v -9.999998 6.000005 -3.999996
v -10 14.00001 -4.000004
v -10 14.00001 3.999998
v -10.00001 18.00001 -4.000007
v -8.940697E-06 20.00002 -4.000009
v -8.940697E-06 20.00003 3.999993
v -10.00001 18.00001 3.999995
v -10 14.00001 3.999998
v -10 14.00001 -4.000004
v -10.00001 18.00001 -4.000007
v -10.00001 18.00001 3.999995
v -9.999994 2.000012 4.000009
v 8.940697E-06 2.343905E-05 4.000011
v 8.940697E-06 1.613843E-05 -3.999991
v -9.999994 2.000005 -3.999993
v -9.999998 6.000005 -3.999996
v -9.999998 6.000012 4.000005
v -9.999994 2.000012 4.000009
v -9.999994 2.000005 -3.999993
v -10.00001 18.00001 3.999995
v -9.999994 2.000012 4.000009
v -10.00001 18.00001 -4.000007
v -9.999994 2.000005 -3.999993
vn 0 -9.125773E-07 -1
vn 0 -9.125773E-07 -1
vn 0 -9.125773E-07 -1
vn 0 -9.125773E-07 -1
vn 8.940697E-07 -1 9.125773E-07
vn 8.940697E-07 -1 9.125773E-07
vn 8.940697E-07 -1 9.125773E-07
vn 8.940697E-07 -1 9.125773E-07
vn 0 9.125773E-07 1
vn 0 9.125773E-07 1
vn 0 9.125773E-07 1
vn 0 9.125773E-07 1
vn -8.940697E-07 1 -9.125773E-07
vn -8.940697E-07 1 -9.125773E-07
vn -8.940697E-07 1 -9.125773E-07
vn -8.940697E-07 1 -9.125773E-07
vn 1 1.192093E-06 -8.621221E-13
vn 1 1.192093E-06 -8.621221E-13
vn 1 1.192093E-06 -8.621221E-13
vn 1 1.192093E-06 -8.621221E-13
vn 0 9.125773E-07 1
vn 0 9.125773E-07 1
vn 0 9.125773E-07 1
vn 0 9.125773E-07 1
vn -8.940697E-07 1 -9.125773E-07
vn -8.940697E-07 1 -9.125773E-07
vn -8.940697E-07 1 -9.125773E-07
vn -8.940697E-07 1 -9.125773E-07
vn 0 -9.125773E-07 -1
vn 0 -9.125773E-07 -1
vn 0 -9.125773E-07 -1
vn 0 -9.125773E-07 -1
vn 8.940697E-07 -1 9.125773E-07
vn 8.940697E-07 -1 9.125773E-07
vn 8.940697E-07 -1 9.125773E-07
vn 8.940697E-07 -1 9.125773E-07
vn 1 1.192093E-06 -8.621221E-13
vn 1 1.192093E-06 -8.621221E-13
vn 1 1.192093E-06 -8.621221E-13
vn 1 1.192093E-06 -8.621221E-13
vn 1 1.192093E-06 -8.621221E-13
vn 1 1.192093E-06 -8.621221E-13
vn 1 1.192093E-06 -8.621221E-13
vn 1 1.192093E-06 -8.621221E-13
vn -1 -1.192093E-06 8.621221E-13
vn -1 -1.192093E-06 8.621221E-13
vn -1 -1.192093E-06 8.621221E-13
vn -1 -1.192093E-06 8.621221E-13
vn 0 9.125773E-07 1
vn 0 9.125773E-07 1
vn 0 9.125773E-07 1
vn 0 9.125773E-07 1
vn 0 -9.125773E-07 -1
vn 0 -9.125773E-07 -1
vn 0 -9.125773E-07 -1
vn 0 -9.125773E-07 -1
vn 0 -9.125773E-07 -1
vn 0 -9.125773E-07 -1
vn 0 -9.125773E-07 -1
vn 0 -9.125773E-07 -1
vn 0 -9.125773E-07 -1
vn 0 -9.125773E-07 -1
vn 0 -9.125773E-07 -1
vn 0 -9.125773E-07 -1
vn 0 -9.125773E-07 -1
vn 0 -9.125773E-07 -1
vn 0 -9.125773E-07 -1
vn 0 -9.125773E-07 -1
vn 0 -9.125773E-07 -1
vn 0 9.125773E-07 1
vn 0 9.125773E-07 1
vn 0 9.125773E-07 1
vn 0 9.125773E-07 1
vn 0 9.125773E-07 1
vn 0 9.125773E-07 1
vn 0 9.125773E-07 1
vn 0 9.125773E-07 1
vn 0 9.125773E-07 1
vn 0 9.125773E-07 1
vn 0 9.125773E-07 1
vn 0 9.125773E-07 1
vn 0 9.125773E-07 1
vn -0.9940386 0.109029 -9.949758E-08
vn -1 -1.192093E-06 8.621221E-13
vn -1 -1.192093E-06 8.621221E-13
vn -0.9883543 0.1521711 -1.388681E-07
vn -0.9714059 0.2374252 -2.16669E-07
vn -0.9601347 0.2795381 -2.551003E-07
vn -0.9320769 0.3622604 -3.305908E-07
vn -0.915259 0.4028659 -3.676465E-07
vn -0.8767227 0.4809963 -4.389465E-07
vn -0.8550507 0.5185441 -4.732117E-07
vn -0.8066003 0.5910972 -5.39422E-07
vn -0.7797722 0.6260634 -5.713313E-07
vn -0.7222599 0.6916218 -6.311585E-07
vn -0.6916233 0.7222584 -6.591167E-07
vn -0.626065 0.7797709 -7.116013E-07
vn -0.5910988 0.8065991 -7.360841E-07
vn -0.5185459 0.8550497 -7.80299E-07
vn -0.4809981 0.8767216 -8.000763E-07
vn -0.4028679 0.9152582 -8.352438E-07
vn -0.3622624 0.9320763 -8.505916E-07
vn -0.2795402 0.960134 -8.761965E-07
vn -0.2374271 0.9714053 -8.864824E-07
vn -0.1521731 0.9883539 -9.019493E-07
vn -0.109031 0.9940384 -9.071368E-07
vn -0.02196239 0.999759 -9.123572E-07
vn 0.0219606 0.999759 -9.123573E-07
vn 0.1090293 0.9940386 -9.07137E-07
vn 0.1521714 0.9883543 -9.019495E-07
vn 0.2374254 0.9714059 -8.864828E-07
vn 0.2795384 0.9601347 -8.76197E-07
vn 0.009130619 0.9999585 -9.125393E-07
vn -0.08085419 0.996726 -9.095895E-07
vn -0.9940384 -0.1090313 9.949929E-08
vn -0.988354 -0.1521735 1.388698E-07
vn -0.9714054 -0.2374275 2.166707E-07
vn -0.9601342 -0.2795404 2.55102E-07
vn -0.9320763 -0.3622626 3.305924E-07
vn -0.9152583 -0.4028681 3.676481E-07
vn -0.8767219 -0.4809984 4.38948E-07
vn -0.8550498 -0.5185461 4.732132E-07
vn -0.8065993 -0.5910991 5.394234E-07
vn -0.779771 -0.6260653 5.713327E-07
vn -0.7222586 -0.6916235 6.311597E-07
vn -0.691622 -0.7222601 6.591179E-07
vn -0.6260636 -0.7797723 7.116024E-07
vn -0.5910974 -0.8066005 7.360852E-07
vn -0.5185443 -0.855051 7.802999E-07
vn -0.4809965 -0.8767228 8.000771E-07
vn -0.4028662 -0.9152591 8.352445E-07
vn -0.3622608 -0.9320771 8.505922E-07
vn -0.2795384 -0.9601347 8.76197E-07
vn -0.2374254 -0.9714059 8.864828E-07
vn -0.1521714 -0.9883543 9.019495E-07
vn -0.1090293 -0.9940386 9.07137E-07
vn -0.0219606 -0.999759 9.123573E-07
vn 0.02196239 -0.999759 9.123572E-07
vn 0.109031 -0.9940384 9.071368E-07
vn 0.1521731 -0.9883539 9.019493E-07
vn 0.2374271 -0.9714053 8.864824E-07
vn 0.2795402 -0.960134 8.761965E-07
vn -0.04595698 -0.9989436 9.116131E-07
vn -0.04595698 -0.9989436 9.116131E-07
vn -0.1223534 0.9924867 -9.057207E-07
vn -0.1223534 0.9924867 -9.057207E-07
vn -0.1223517 -0.9924869 9.057209E-07
vn -0.1223517 -0.9924869 9.057209E-07
vn -0.196117 0.9805806 -8.948555E-07
vn -0.196117 0.9805806 -8.948555E-07
vn -0.196117 0.9805806 -8.948555E-07
vn -0.196117 0.9805806 -8.948555E-07
vn -1 -1.192093E-06 8.621221E-13
vn -1 -1.192093E-06 8.621221E-13
vn -1 -1.192093E-06 8.621221E-13
vn -1 -1.192093E-06 8.621221E-13
vn -0.1961153 -0.980581 8.948559E-07
vn -0.1961153 -0.980581 8.948559E-07
vn -0.1961153 -0.980581 8.948559E-07
vn -0.1961153 -0.980581 8.948559E-07
vn -1 -1.192093E-06 8.621221E-13
vn -1 -1.192093E-06 8.621221E-13
vn -1 -1.192093E-06 8.621221E-13
vn -1 -1.192093E-06 8.621221E-13
vn 0 9.125773E-07 1
vn 0 9.125773E-07 1
vn 0 -9.125773E-07 -1
vn 0 -9.125773E-07 -1
vt -10 0
vt -2 0
vt -2 -20
vt -10 -20
vt -10 -20
vt -2 -20
vt -2 0
vt -10 0
vt 10 0
vt 18 0
vt 18 20
vt 10 20
vt 10 20
vt 18 20
vt 18 0
vt 10 0
vt 10 -2
vt 10 10
vt -2 10
vt -2 -2
vt -2 0
vt 2 0
vt 2 -12
vt -2 -12
vt -2 -12
vt 2 -12
vt 2 0
vt -2 0
vt 10 0
vt 14 0
vt 14 12
vt 10 12
vt 10 12
vt 14 12
vt 14 0
vt 10 0
vt -2 -2
vt 2 2
vt 2 14
vt -2 18
vt 18 -2
vt 14 2
vt 18 18
vt 14 14
vt -10 -10
vt -10 10
vt 10 10
vt 10 -10
vt 4 -6
vt 2 0
vt 2 8
vt 4 14
vt -4 6
vt -6 0
vt -6 -8
vt -4 -14
vt -6 -4
vt -6.3044 -5.5308
vt -7.1716 -6.8284
vt -8.4692 -7.6956
vt -10 -8
vt -11.5308 -7.6956
vt -14 -8
vt -6.3044 -2.4692
vt -7.1716 -1.1716
vt -8.4692 -0.3044002
vt -10 0
vt -11.5308 -0.3044002
vt -14 0
vt 2 4
vt 1.6956 2.4692
vt 0.8283999 1.1716
vt -0.4692001 0.3044002
vt -2 0
vt -3.5308 0.3044002
vt -6 0
vt 1.6956 5.5308
vt 0.8283999 6.8284
vt -0.4692001 7.6956
vt -2 8
vt -3.5308 7.6956
vt -6 8
vt -2.5564 3.478
vt 2 -2
vt -6 -2
vt -2.5564 -4.522
vt -3.1716 2.9648
vt -3.1716 -5.0352
vt -3.8352 2.4692
vt -3.8352 -5.5308
vt -4.536 2
vt -4.536 -6
vt -5.2616 1.5648
vt -5.2616 -6.4352
vt -6 1.1716
vt -6 -6.8284
vt -6.7384 0.8264
vt -6.7384 -7.1736
vt -7.464 0.536
vt -7.464 -7.464
vt -8.164801 0.3044
vt -8.164801 -7.6956
vt -8.8284 0.1364
vt -8.8284 -7.8636
vt -9.4436 0.03439999
vt -9.4436 -7.9656
vt -10 0
vt -10 -8
vt -10.4876 0.03439999
vt -10.4876 -7.9656
vt -10.8988 0.1364
vt -10.8988 -7.8636
vt -11.2264 0.3044
vt -11.2264 -7.6956
vt 1.9656 4.522
vt -6.0344 -3.478
vt 1.8636 5.0352
vt -6.1364 -2.9648
vt 1.6956 5.5308
vt -6.3044 -2.4692
vt 1.464 6
vt -6.536 -2
vt 1.1736 6.4352
vt -6.8264 -1.5648
vt 0.8283999 6.8284
vt -7.1716 -1.1716
vt 0.4352 7.1736
vt -7.5648 -0.8264
vt 0 7.464
vt -8 -0.536
vt -0.4692001 7.6956
vt -8.4692 -0.3044
vt -0.9647999 7.8636
vt -8.9648 -0.1364
vt -1.478 7.9656
vt -9.478001 -0.03439999
vt -2 8
vt -2 0
vt -2.5564 7.9656
vt -2.5564 -0.03439999
vt -3.1716 7.8636
vt -3.1716 -0.1364
vt -3.5308 7.6956
vt -11.5308 -0.3044
vt -14 0
vt -14 -8
vt -14 0
vt -6 8
vt -2 4
vt 10 6
vt 10 14
vt -2 12
vt -6 -6
vt -14 -6
vt -14 -2
vt -6 -2
vt -6 -4
vt 4 -6
vt -4 -14
vt -14 -12
vt -14 -14
vt -6 -14
vt -6 -18
vt -14 -18
vt -6 12
vt -6 -4
vt -14 4
vt -14 -12
usemtl 10
f 1/1/1 2/2/2 3/3/3
f 3/3/3 4/4/4 1/1/1
f 5/5/5 6/6/6 7/7/7
f 7/7/7 8/8/8 5/5/5
f 9/9/9 10/10/10 11/11/11
f 11/11/11 12/12/12 9/9/9
f 13/13/13 14/14/14 15/15/15
f 15/15/15 16/16/16 13/13/13
f 19/19/19 18/18/18 17/17/17
f 17/17/17 20/20/20 19/19/19
f 23/23/23 22/22/22 21/21/21
f 21/21/21 24/24/24 23/23/23
f 27/27/27 26/26/26 25/25/25
f 25/25/25 28/28/28 27/27/27
f 31/31/31 30/30/30 29/29/29
f 29/29/29 32/32/32 31/31/31
f 35/35/35 34/34/34 33/33/33
f 33/33/33 36/36/36 35/35/35
f 39/39/39 38/38/38 37/37/37
f 37/37/37 40/40/40 39/39/39
f 38/38/38 42/42/42 41/41/41
f 41/41/41 37/37/37 38/38/38
f 42/42/42 44/44/44 43/43/43
f 43/43/43 41/41/41 42/42/42
f 44/44/44 39/39/39 40/40/40
f 40/40/40 43/43/43 44/44/44
f 47/47/47 46/46/46 45/45/45
f 45/45/45 48/48/48 47/47/47
f 51/51/51 50/50/50 49/49/49
f 49/49/49 52/52/52 51/51/51
f 55/55/55 54/54/54 53/53/53
f 53/53/53 56/56/56 55/55/55
f 55/55/55 58/58/58 57/57/57
f 55/55/55 59/59/59 58/58/58
f 55/55/55 60/60/60 59/59/59
f 55/55/55 61/61/61 60/60/60
f 63/63/63 62/62/62 61/61/61
f 57/57/57 64/64/64 54/54/54
f 64/64/64 65/65/65 54/54/54
f 65/65/65 66/66/66 54/54/54
f 66/66/66 67/67/67 54/54/54
f 67/67/67 68/68/68 69/69/69
f 70/70/70 71/71/71 50/50/50
f 71/71/71 72/72/72 50/50/50
f 72/72/72 73/73/73 50/50/50
f 73/73/73 74/74/74 50/50/50
f 74/74/74 75/75/75 76/76/76
f 51/51/51 77/77/77 70/70/70
f 51/51/51 78/78/78 77/77/77
f 51/51/51 79/79/79 78/78/78
f 51/51/51 80/80/80 79/79/79
f 82/82/82 81/81/81 80/80/80
f 83/83/83 84/84/84 85/85/85
f 85/85/85 86/86/86 83/83/83
f 87/87/87 83/83/83 86/86/86
f 86/86/86 88/88/88 87/87/87
f 89/89/89 87/87/87 88/88/88
f 88/88/88 90/90/90 89/89/89
f 91/91/91 89/89/89 90/90/90
f 90/90/90 92/92/92 91/91/91
f 93/93/93 91/91/91 92/92/92
f 92/92/92 94/94/94 93/93/93
f 95/95/95 93/93/93 94/94/94
f 94/94/94 96/96/96 95/95/95
f 97/97/97 95/95/95 96/96/96
f 96/96/96 98/98/98 97/97/97
f 99/99/99 97/97/97 98/98/98
f 98/98/98 100/100/100 99/99/99
f 101/101/101 99/99/99 100/100/100
f 100/100/100 102/102/102 101/101/101
f 103/103/103 101/101/101 102/102/102
f 102/102/102 104/104/104 103/103/103
f 105/105/105 103/103/103 104/104/104
f 104/104/104 106/106/106 105/105/105
f 107/107/107 105/105/105 106/106/106
f 106/106/106 108/108/108 107/107/107
f 109/109/109 107/107/107 108/108/108
f 108/108/108 110/110/110 109/109/109
f 111/111/111 109/109/109 110/110/110
f 110/110/110 112/112/112 111/111/111
f 113/113/113 111/111/111 112/112/112
f 112/112/112 114/114/114 113/113/113
f 85/85/85 84/84/84 115/115/115
f 115/115/115 116/116/116 85/85/85
f 116/116/116 115/115/115 117/117/117
f 117/117/117 118/118/118 116/116/116
f 118/118/118 117/117/117 119/119/119
f 119/119/119 120/120/120 118/118/118
f 120/120/120 119/119/119 121/121/121
f 121/121/121 122/122/122 120/120/120
f 122/122/122 121/121/121 123/123/123
f 123/123/123 124/124/124 122/122/122
f 124/124/124 123/123/123 125/125/125
f 125/125/125 126/126/126 124/124/124
f 126/126/126 125/125/125 127/127/127
f 127/127/127 128/128/128 126/126/126
f 128/128/128 127/127/127 129/129/129
f 129/129/129 130/130/130 128/128/128
f 130/130/130 129/129/129 131/131/131
f 131/131/131 132/132/132 130/130/130
f 132/132/132 131/131/131 133/133/133
f 133/133/133 134/134/134 132/132/132
f 134/134/134 133/133/133 135/135/135
f 135/135/135 136/136/136 134/134/134
f 136/136/136 135/135/135 137/137/137
f 137/137/137 138/138/138 136/136/136
f 138/138/138 137/137/137 139/139/139
f 139/139/139 140/140/140 138/138/138
f 140/140/140 139/139/139 141/141/141
f 141/141/141 142/142/142 140/140/140
f 142/142/142 141/141/141 143/143/143
f 143/143/143 144/144/144 142/142/142
f 145/145/145 113/113/113 114/114/114
f 114/114/114 146/146/146 145/145/145
f 147/147/147 144/144/144 143/143/143
f 143/143/143 148/148/148 147/147/147
f 151/151/151 150/150/150 149/149/149
f 149/149/149 152/152/152 151/151/151
f 155/155/155 154/154/154 153/153/153
f 153/153/153 156/156/156 155/155/155
f 159/159/159 158/158/158 157/157/157
f 157/157/157 160/160/160 159/159/159
f 163/163/163 162/162/162 161/161/161
f 161/161/161 164/164/164 163/163/163
f 165/165/165 80/80/80 51/51/51
f 51/51/51 52/52/52 165/165/165
f 82/82/82 80/80/80 165/165/165
f 74/74/74 166/166/166 49/49/49
f 49/49/49 50/50/50 74/74/74
f 166/166/166 74/74/74 76/76/76
f 67/67/67 167/167/167 53/53/53
f 53/53/53 54/54/54 67/67/67
f 167/167/167 67/67/67 69/69/69
f 168/168/168 61/61/61 55/55/55
f 55/55/55 56/56/56 168/168/168
f 63/63/63 61/61/61 168/168/168
