mtllib tile2*3_white.mtl
v 7.000024 3.649057E-05 20.00002
v 2.357628E-05 3.56561E-05 20.00003
v 1.642372E-05 60.00004 19.99998
v 7.000017 60.00004 19.99997
v 7.000017 60.00004 19.99997
v 1.642372E-05 60.00004 19.99998
v -2.357628E-05 60.00001 -20.00002
v 6.999977 60.00001 -20.00003
v 6.999977 60.00001 -20.00003
v -2.357628E-05 60.00001 -20.00002
v -1.642372E-05 -8.469901E-07 -19.99997
v 6.999984 -1.252451E-08 -19.99998
v 6.999984 -1.252451E-08 -19.99998
v -1.642372E-05 -8.469901E-07 -19.99997
v 2.357628E-05 3.56561E-05 20.00003
v 7.000024 3.649057E-05 20.00002
v 8.000024 1.000036 19.00002
v 7.000023 1.000036 19.00002
v 7.000016 59.00004 18.99997
v 8.000016 59.00004 18.99997
v 8.000016 59.00004 18.99997
v 7.000016 59.00004 18.99997
v 6.999979 59.00001 -19.00003
v 7.999979 59.00001 -19.00003
v 7.999979 59.00001 -19.00003
v 6.999979 59.00001 -19.00003
v 6.999985 1.000001 -18.99998
v 7.999985 1.000001 -18.99998
v 7.999985 1.000001 -18.99998
v 6.999985 1.000001 -18.99998
v 7.000023 1.000036 19.00002
v 8.000024 1.000036 19.00002
v 3.999988 4.000004 -15.99998
v 3.999981 56.00001 -16.00002
v 4.000013 56.00004 15.99998
v 4.00002 4.000033 16.00002
v 4.000013 56.00004 15.99998
v 8.000014 56.00004 15.99997
v 8.00002 4.000033 16.00002
v 4.00002 4.000033 16.00002
v 4.00002 4.000033 16.00002
v 8.00002 4.000033 16.00002
v 7.999988 4.000004 -15.99998
v 3.999988 4.000004 -15.99998
v 3.999988 4.000004 -15.99998
v 7.999988 4.000004 -15.99998
v 7.999982 56.00001 -16.00003
v 3.999981 56.00001 -16.00002
v 3.999981 56.00001 -16.00002
v 7.999982 56.00001 -16.00003
v 8.000014 56.00004 15.99997
v 4.000013 56.00004 15.99998
v 6.999984 -1.252451E-08 -19.99998
v 6.999985 1.000001 -18.99998
v 6.999979 59.00001 -19.00003
v 6.999977 60.00001 -20.00003
v 7.000017 60.00004 19.99997
v 7.000016 59.00004 18.99997
v 7.000023 1.000036 19.00002
v 7.000024 3.649057E-05 20.00002
v 7.999985 1.000001 -18.99998
v 7.999988 4.000004 -15.99998
v 7.999982 56.00001 -16.00003
v 7.999979 59.00001 -19.00003
v 8.000016 59.00004 18.99997
v 8.000014 56.00004 15.99997
v 8.00002 4.000033 16.00002
v 8.000024 1.000036 19.00002
v 4.000001 34.05162 0.7829949
v 4 34.00002 -5.027625E-06
v 8 34.00002 -9.027625E-06
v 8.000001 34.05162 0.7829909
v 4.000001 34.20462 1.552795
v 8.000002 34.20462 1.552791
v 4.000002 34.45662 2.296195
v 8.000003 34.45662 2.296191
v 4.000003 34.80402 2.999994
v 8.000004 34.80402 2.99999
v 4.000003 35.23962 3.652794
v 8.000004 35.23963 3.65279
v 4.000004 35.75743 4.242593
v 8.000005 35.75743 4.242589
v 4.000004 36.34723 4.760393
v 8.000005 36.34723 4.760389
v 4.000005 37.00003 5.195992
v 8.000006 37.00003 5.195988
v 4.000005 37.70383 5.543391
v 8.000006 37.70383 5.543387
v 4.000005 38.44723 5.795391
v 8.000006 38.44723 5.795387
v 4.000005 39.21703 5.94839
v 8.000006 39.21703 5.948386
v 4.000005 40.00003 5.99999
v 8.000006 40.00003 5.999986
v 4.000005 40.78303 5.948389
v 8.000006 40.78303 5.948385
v 4.000005 41.55283 5.795388
v 8.000006 41.55283 5.795384
v 4.000005 42.29623 5.543387
v 8.000005 42.29623 5.543383
v 4.000004 43.00003 5.195987
v 8.000005 43.00003 5.195983
v 4.000004 43.65283 4.760386
v 8.000004 43.65283 4.760382
v 4.000003 44.24263 4.242586
v 8.000004 44.24263 4.242581
v 4.000002 44.76043 3.652785
v 8.000003 44.76043 3.652781
v 4.000001 45.19603 2.999985
v 8.000002 45.19603 2.999981
v 4.000001 45.54343 2.296185
v 8.000001 45.54343 2.29618
v 4 45.79543 1.552784
v 8.000001 45.79543 1.55278
v 3.999999 45.94843 0.7829841
v 8 45.94843 0.7829801
v 3.999999 46.00002 -1.597855E-05
v 7.999999 46.00002 -1.997855E-05
v 3.999998 45.94842 -0.7830159
v 7.999998 45.94843 -0.7830199
v 3.999997 45.79542 -1.552816
v 7.999998 45.79542 -1.55282
v 3.999996 45.54342 -2.296216
v 7.999997 45.54342 -2.29622
v 3.999996 45.19602 -3.000015
v 7.999996 45.19602 -3.000019
v 3.999995 44.76042 -3.652815
v 7.999996 44.76042 -3.652819
v 3.999995 44.24262 -4.242614
v 7.999995 44.24262 -4.242619
v 3.999994 43.65282 -4.760414
v 7.999995 43.65282 -4.760417
v 3.999994 43.00002 -5.196013
v 7.999994 43.00002 -5.196017
v 3.999994 42.29622 -5.543412
v 7.999994 42.29622 -5.543417
v 3.999993 41.55282 -5.795412
v 7.999994 41.55282 -5.795416
v 3.999993 40.78302 -5.948411
v 7.999994 40.78302 -5.948415
v 3.999993 40.00002 -6.00001
v 7.999994 40.00002 -6.000014
v 3.999993 39.21702 -5.94841
v 7.999994 39.21702 -5.948414
v 3.999994 38.44722 -5.795409
v 7.999994 38.44722 -5.795413
v 3.999994 37.70382 -5.543408
v 7.999994 37.70382 -5.543412
v 3.999995 37.00002 -5.196008
v 7.999995 37.00002 -5.196012
v 3.999995 36.34722 -4.760407
v 7.999995 36.34722 -4.760411
v 3.999995 35.75742 -4.242607
v 7.999996 35.75742 -4.24261
v 3.999996 35.23962 -3.652806
v 7.999997 35.23962 -3.65281
v 3.999997 34.80402 -3.000006
v 7.999998 34.80402 -3.00001
v 3.999998 34.45662 -2.296206
v 7.999998 34.45662 -2.29621
v 3.999998 34.20462 -1.552805
v 7.999999 34.20462 -1.552809
v 3.999999 34.05162 -0.7830051
v 8 34.05162 -0.7830091
v 4.000001 32.06882 1.043997
v 4 32.00002 -3.20247E-06
v 8.000001 32.00002 -7.20247E-06
v 8.000002 32.06882 1.043993
v 4.000002 32.27282 2.070397
v 8.000003 32.27282 2.070393
v 4.000003 32.60883 3.061596
v 8.000004 32.60883 3.061592
v 4.000004 33.07203 3.999996
v 8.000005 33.07203 3.999992
v 4.000005 33.65283 4.870395
v 8.000006 33.65283 4.870391
v 4.000006 34.34323 5.656795
v 8.000006 34.34323 5.65679
v 4.000006 35.12963 6.347194
v 8.000007 35.12963 6.34719
v 4.000007 36.00003 6.927993
v 8.000008 36.00003 6.927989
v 4.000007 36.93843 7.391192
v 8.000008 36.93843 7.391188
v 4.000007 37.92963 7.727191
v 8.000008 37.92963 7.727188
v 4.000007 38.95603 7.93119
v 8.000008 38.95603 7.931187
v 4.000007 40.00003 7.99999
v 8.000008 40.00003 7.999986
v 4.000007 41.04403 7.931189
v 8.000008 41.04403 7.931185
v 4.000007 42.07043 7.727188
v 8.000008 42.07043 7.727184
v 4.000006 43.06163 7.391187
v 8.000007 43.06163 7.391183
v 4.000006 44.00003 6.927986
v 8.000007 44.00003 6.927982
v 4.000005 44.87043 6.347185
v 8.000006 44.87043 6.347181
v 4.000004 45.65683 5.656784
v 8.000005 45.65683 5.65678
v 4.000003 46.34723 4.870384
v 8.000004 46.34723 4.870379
v 4.000002 46.92803 3.999983
v 8.000003 46.92803 3.999979
v 4.000001 47.39123 3.061583
v 8.000002 47.39123 3.061579
v 4 47.72723 2.070382
v 8.000001 47.72723 2.070379
v 3.999999 47.93122 1.043982
v 8 47.93122 1.043978
v 3.999998 48.00002 -1.780371E-05
v 7.999999 48.00002 -2.180371E-05
v 3.999997 47.93122 -1.044018
v 7.999998 47.93122 -1.044022
v 3.999996 47.72722 -2.070418
v 7.999997 47.72722 -2.070421
v 3.999995 47.39122 -3.061617
v 7.999996 47.39122 -3.061621
v 3.999995 46.92802 -4.000017
v 7.999995 46.92802 -4.000021
v 3.999994 46.34722 -4.870416
v 7.999994 46.34722 -4.87042
v 3.999993 45.65682 -5.656816
v 7.999993 45.65682 -5.656819
v 3.999992 44.87042 -6.347215
v 7.999993 44.87042 -6.347219
v 3.999992 44.00002 -6.928014
v 7.999992 44.00002 -6.928018
v 3.999991 43.06161 -7.391213
v 7.999992 43.06161 -7.391217
v 3.999991 42.07042 -7.727212
v 7.999992 42.07042 -7.727216
v 3.999991 41.04401 -7.931211
v 7.999992 41.04401 -7.931215
v 3.999991 40.00002 -8.00001
v 7.999992 40.00002 -8.000014
v 3.999991 38.95602 -7.93121
v 7.999992 38.95602 -7.931213
v 3.999992 37.92962 -7.727209
v 7.999992 37.92962 -7.727212
v 3.999992 36.93842 -7.391208
v 7.999993 36.93842 -7.391212
v 3.999993 36.00002 -6.928007
v 7.999993 36.00002 -6.928011
v 3.999994 35.12962 -6.347206
v 7.999994 35.12962 -6.34721
v 3.999994 34.34322 -5.656805
v 7.999995 34.34322 -5.656809
v 3.999995 33.65282 -4.870405
v 7.999996 33.65282 -4.870409
v 3.999996 33.07202 -4.000004
v 7.999997 33.07202 -4.000008
v 3.999997 32.60882 -3.061604
v 7.999998 32.60882 -3.061608
v 3.999998 32.27282 -2.070403
v 7.999999 32.27282 -2.070407
v 3.999999 32.06882 -1.044003
v 8 32.06882 -1.044007
v 8 34.00002 -9.027625E-06
v 8.000001 34.05162 0.7829909
v 8.000002 32.06882 1.043993
v 8.000001 32.00002 -7.20247E-06
v 8.000002 34.20462 1.552791
v 8.000003 32.27282 2.070393
v 8.000003 34.45662 2.296191
v 8.000004 32.60883 3.061592
v 8.000004 34.80402 2.99999
v 8.000005 33.07203 3.999992
v 8.000004 35.23963 3.65279
v 8.000006 33.65283 4.870391
v 8.000005 35.75743 4.242589
v 8.000006 34.34323 5.65679
v 8.000005 36.34723 4.760389
v 8.000007 35.12963 6.34719
v 8.000006 37.00003 5.195988
v 8.000008 36.00003 6.927989
v 8.000006 37.70383 5.543387
v 8.000008 36.93843 7.391188
v 8.000006 38.44723 5.795387
v 8.000008 37.92963 7.727188
v 8.000006 39.21703 5.948386
v 8.000008 38.95603 7.931187
v 8.000006 40.00003 5.999986
v 8.000008 40.00003 7.999986
v 8.000006 40.78303 5.948385
v 8.000008 41.04403 7.931185
v 8.000006 41.55283 5.795384
v 8.000008 42.07043 7.727184
v 8.000005 42.29623 5.543383
v 8.000007 43.06163 7.391183
v 8.000005 43.00003 5.195983
v 8.000007 44.00003 6.927982
v 8.000004 43.65283 4.760382
v 8.000006 44.87043 6.347181
v 8.000004 44.24263 4.242581
v 8.000005 45.65683 5.65678
v 8.000003 44.76043 3.652781
v 8.000004 46.34723 4.870379
v 8.000002 45.19603 2.999981
v 8.000003 46.92803 3.999979
v 8.000001 45.54343 2.29618
v 8.000002 47.39123 3.061579
v 8.000001 45.79543 1.55278
v 8.000001 47.72723 2.070379
v 8 45.94843 0.7829801
v 8 47.93122 1.043978
v 7.999999 46.00002 -1.997855E-05
v 7.999999 48.00002 -2.180371E-05
v 7.999998 45.94843 -0.7830199
v 7.999998 47.93122 -1.044022
v 7.999998 45.79542 -1.55282
v 7.999997 47.72722 -2.070421
v 7.999997 45.54342 -2.29622
v 7.999996 47.39122 -3.061621
v 7.999996 45.19602 -3.000019
v 7.999995 46.92802 -4.000021
v 7.999996 44.76042 -3.652819
v 7.999994 46.34722 -4.87042
v 7.999995 44.24262 -4.242619
v 7.999993 45.65682 -5.656819
v 7.999995 43.65282 -4.760417
v 7.999993 44.87042 -6.347219
v 7.999994 43.00002 -5.196017
v 7.999992 44.00002 -6.928018
v 7.999994 42.29622 -5.543417
v 7.999992 43.06161 -7.391217
v 7.999994 41.55282 -5.795416
v 7.999992 42.07042 -7.727216
v 7.999994 40.78302 -5.948415
v 7.999992 41.04401 -7.931215
v 7.999994 40.00002 -6.000014
v 7.999992 40.00002 -8.000014
v 7.999994 39.21702 -5.948414
v 7.999992 38.95602 -7.931213
v 7.999994 38.44722 -5.795413
v 7.999992 37.92962 -7.727212
v 7.999994 37.70382 -5.543412
v 7.999993 36.93842 -7.391212
v 7.999995 37.00002 -5.196012
v 7.999993 36.00002 -6.928011
v 7.999995 36.34722 -4.760411
v 7.999994 35.12962 -6.34721
v 7.999996 35.75742 -4.24261
v 7.999995 34.34322 -5.656809
v 7.999997 35.23962 -3.65281
v 7.999996 33.65282 -4.870409
v 7.999998 34.80402 -3.00001
v 7.999997 33.07202 -4.000008
v 7.999998 34.45662 -2.29621
v 7.999998 32.60882 -3.061608
v 7.999999 34.20462 -1.552809
v 7.999999 32.27282 -2.070407
v 8 34.05162 -0.7830091
v 8 32.06882 -1.044007
v 4.000003 14.05162 0.7830132
v 4.000002 14.00002 1.322392E-05
v 8.000003 14.00002 9.223922E-06
v 8.000004 14.05162 0.7830092
v 4.000004 14.20462 1.552813
v 8.000005 14.20462 1.552809
v 4.000005 14.45662 2.296213
v 8.000005 14.45662 2.296209
v 4.000005 14.80402 3.000012
v 8.000006 14.80402 3.000009
v 4.000006 15.23962 3.652812
v 8.000007 15.23962 3.652808
v 4.000006 15.75742 4.242611
v 8.000007 15.75742 4.242608
v 4.000007 16.34723 4.760411
v 8.000008 16.34723 4.760407
v 4.000007 17.00002 5.196011
v 8.000008 17.00002 5.196007
v 4.000008 17.70382 5.54341
v 8.000008 17.70382 5.543406
v 4.000008 18.44723 5.795409
v 8.000009 18.44723 5.795405
v 4.000008 19.21703 5.948409
v 8.000009 19.21703 5.948404
v 4.000008 20.00002 6.000008
v 8.000009 20.00003 6.000004
v 4.000008 20.78303 5.948407
v 8.000008 20.78303 5.948403
v 4.000007 21.55283 5.795406
v 8.000008 21.55283 5.795403
v 4.000007 22.29622 5.543406
v 8.000008 22.29623 5.543401
v 4.000007 23.00002 5.196005
v 8.000007 23.00003 5.196001
v 4.000006 23.65282 4.760404
v 8.000007 23.65283 4.7604
v 4.000005 24.24262 4.242604
v 8.000006 24.24262 4.2426
v 4.000005 24.76042 3.652803
v 8.000005 24.76042 3.6528
v 4.000004 25.19602 3.000003
v 8.000005 25.19602 2.999999
v 4.000003 25.54342 2.296203
v 8.000004 25.54342 2.296199
v 4.000002 25.79542 1.552802
v 8.000003 25.79542 1.552798
v 4.000002 25.94842 0.7830023
v 8.000002 25.94842 0.7829983
v 4.000001 26.00002 2.272994E-06
v 8.000002 26.00002 -1.727007E-06
v 4 25.94842 -0.7829977
v 8.000001 25.94842 -0.7830017
v 4 25.79542 -1.552797
v 8 25.79542 -1.552801
v 3.999999 25.54342 -2.296197
v 7.999999 25.54342 -2.296201
v 3.999998 25.19602 -2.999997
v 7.999999 25.19602 -3.000001
v 3.999997 24.76042 -3.652797
v 7.999998 24.76042 -3.652801
v 3.999997 24.24262 -4.242596
v 7.999998 24.24262 -4.2426
v 3.999996 23.65282 -4.760396
v 7.999997 23.65282 -4.760399
v 3.999996 23.00002 -5.195995
v 7.999997 23.00002 -5.195999
v 3.999996 22.29622 -5.543394
v 7.999996 22.29622 -5.543398
v 3.999996 21.55281 -5.795394
v 7.999996 21.55282 -5.795398
v 3.999996 20.78301 -5.948393
v 7.999996 20.78302 -5.948397
v 3.999996 20.00002 -5.999992
v 7.999996 20.00002 -5.999996
v 3.999996 19.21701 -5.948391
v 7.999996 19.21701 -5.948396
v 3.999996 18.44721 -5.795391
v 7.999997 18.44722 -5.795395
v 3.999996 17.70382 -5.54339
v 7.999997 17.70382 -5.543394
v 3.999997 17.00002 -5.19599
v 7.999997 17.00002 -5.195993
v 3.999997 16.34722 -4.760389
v 7.999998 16.34722 -4.760393
v 3.999998 15.75742 -4.242589
v 7.999999 15.75742 -4.242592
v 3.999999 15.23962 -3.652788
v 7.999999 15.23962 -3.652792
v 3.999999 14.80402 -2.999988
v 8 14.80402 -2.999991
v 4 14.45662 -2.296187
v 8.000001 14.45662 -2.296191
v 4.000001 14.20462 -1.552787
v 8.000001 14.20462 -1.552791
v 4.000001 14.05162 -0.7829868
v 8.000002 14.05162 -0.7829908
v 4.000004 12.06882 1.044015
v 4.000003 12.00002 1.504908E-05
v 8.000003 12.00002 1.104908E-05
v 8.000004 12.06882 1.044011
v 4.000005 12.27282 2.070415
v 8.000005 12.27282 2.070411
v 4.000006 12.60882 3.061615
v 8.000006 12.60882 3.06161
v 4.000007 13.07202 4.000014
v 8.000007 13.07202 4.00001
v 4.000007 13.65282 4.870413
v 8.000008 13.65282 4.870409
v 4.000008 14.34323 5.656813
v 8.000009 14.34323 5.656809
v 4.000009 15.12963 6.347212
v 8.00001 15.12963 6.347208
v 4.000009 16.00003 6.928011
v 8.00001 16.00003 6.928008
v 4.00001 16.93843 7.391211
v 8.00001 16.93843 7.391207
v 4.00001 17.92963 7.72721
v 8.00001 17.92963 7.727206
v 4.00001 18.95603 7.931209
v 8.00001 18.95603 7.931205
v 4.00001 20.00003 8.000008
v 8.00001 20.00003 8.000004
v 4.00001 21.04403 7.931207
v 8.00001 21.04403 7.931203
v 4.000009 22.07043 7.727206
v 8.00001 22.07043 7.727202
v 4.000009 23.06163 7.391205
v 8.00001 23.06163 7.391201
v 4.000008 24.00003 6.928004
v 8.000009 24.00003 6.928
v 4.000008 24.87043 6.347203
v 8.000008 24.87043 6.347199
v 4.000007 25.65683 5.656802
v 8.000007 25.65683 5.656798
v 4.000006 26.34723 4.870402
v 8.000007 26.34723 4.870398
v 4.000005 26.92802 4.000001
v 8.000006 26.92802 3.999997
v 4.000004 27.39122 3.061601
v 8.000005 27.39122 3.061597
v 4.000003 27.72722 2.070401
v 8.000003 27.72722 2.070397
v 4.000002 27.93122 1.044001
v 8.000002 27.93122 1.043997
v 4.000001 28.00002 4.478393E-07
v 8.000001 28.00002 -3.552161E-06
v 4 27.93122 -1.044
v 8 27.93122 -1.044003
v 3.999999 27.72722 -2.070399
v 7.999999 27.72722 -2.070403
v 3.999998 27.39122 -3.061599
v 7.999998 27.39122 -3.061603
v 3.999997 26.92802 -3.999999
v 7.999997 26.92802 -4.000002
v 3.999996 26.34722 -4.870398
v 7.999997 26.34722 -4.870402
v 3.999995 25.65682 -5.656797
v 7.999996 25.65682 -5.656801
v 3.999995 24.87041 -6.347197
v 7.999995 24.87041 -6.3472
v 3.999994 24.00002 -6.927996
v 7.999995 24.00002 -6.928
v 3.999994 23.06161 -7.391195
v 7.999994 23.06161 -7.391199
v 3.999994 22.07041 -7.727194
v 7.999994 22.07041 -7.727198
v 3.999994 21.04401 -7.931193
v 7.999994 21.04401 -7.931197
v 3.999994 20.00001 -7.999992
v 7.999994 20.00001 -7.999996
v 3.999994 18.95601 -7.931191
v 7.999994 18.95601 -7.931195
v 3.999994 17.92961 -7.72719
v 7.999995 17.92961 -7.727194
v 3.999995 16.93841 -7.39119
v 7.999995 16.93841 -7.391193
v 3.999995 16.00001 -6.927989
v 7.999996 16.00001 -6.927992
v 3.999996 15.12961 -6.347188
v 7.999996 15.12961 -6.347192
v 3.999997 14.34321 -5.656787
v 7.999997 14.34322 -5.656791
v 3.999998 13.65281 -4.870387
v 7.999998 13.65281 -4.87039
v 3.999999 13.07202 -3.999986
v 7.999999 13.07202 -3.99999
v 4 12.60882 -3.061585
v 8 12.60882 -3.061589
v 4 12.27282 -2.070385
v 8.000001 12.27282 -2.070389
v 4.000001 12.06882 -1.043985
v 8.000002 12.06882 -1.043989
v 8.000003 14.00002 9.223922E-06
v 8.000004 14.05162 0.7830092
v 8.000004 12.06882 1.044011
v 8.000003 12.00002 1.104908E-05
v 8.000005 14.20462 1.552809
v 8.000005 12.27282 2.070411
v 8.000005 14.45662 2.296209
v 8.000006 12.60882 3.06161
v 8.000006 14.80402 3.000009
v 8.000007 13.07202 4.00001
v 8.000007 15.23962 3.652808
v 8.000008 13.65282 4.870409
v 8.000007 15.75742 4.242608
v 8.000009 14.34323 5.656809
v 8.000008 16.34723 4.760407
v 8.00001 15.12963 6.347208
v 8.000008 17.00002 5.196007
v 8.00001 16.00003 6.928008
v 8.000008 17.70382 5.543406
v 8.00001 16.93843 7.391207
v 8.000009 18.44723 5.795405
v 8.00001 17.92963 7.727206
v 8.000009 19.21703 5.948404
v 8.00001 18.95603 7.931205
v 8.000009 20.00003 6.000004
v 8.00001 20.00003 8.000004
v 8.000008 20.78303 5.948403
v 8.00001 21.04403 7.931203
v 8.000008 21.55283 5.795403
v 8.00001 22.07043 7.727202
v 8.000008 22.29623 5.543401
v 8.00001 23.06163 7.391201
v 8.000007 23.00003 5.196001
v 8.000009 24.00003 6.928
v 8.000007 23.65283 4.7604
v 8.000008 24.87043 6.347199
v 8.000006 24.24262 4.2426
v 8.000007 25.65683 5.656798
v 8.000005 24.76042 3.6528
v 8.000007 26.34723 4.870398
v 8.000005 25.19602 2.999999
v 8.000006 26.92802 3.999997
v 8.000004 25.54342 2.296199
v 8.000005 27.39122 3.061597
v 8.000003 25.79542 1.552799
v 8.000003 27.72722 2.070397
v 8.000002 25.94842 0.7829983
v 8.000002 27.93122 1.043997
v 8.000002 26.00002 -1.727007E-06
v 8.000001 28.00002 -3.552161E-06
v 8.000001 25.94842 -0.7830017
v 8 27.93122 -1.044003
v 8 25.79542 -1.552802
v 7.999999 27.72722 -2.070403
v 7.999999 25.54342 -2.296201
v 7.999998 27.39122 -3.061603
v 7.999999 25.19602 -3.000001
v 7.999997 26.92802 -4.000002
v 7.999998 24.76042 -3.652801
v 7.999997 26.34722 -4.870402
v 7.999998 24.24262 -4.2426
v 7.999996 25.65682 -5.656801
v 7.999997 23.65282 -4.760399
v 7.999995 24.87041 -6.3472
v 7.999997 23.00002 -5.195999
v 7.999995 24.00002 -6.928
v 7.999996 22.29622 -5.543398
v 7.999994 23.06161 -7.391199
v 7.999996 21.55282 -5.795398
v 7.999994 22.07041 -7.727198
v 7.999996 20.78302 -5.948397
v 7.999994 21.04401 -7.931197
v 7.999996 20.00002 -5.999996
v 7.999994 20.00001 -7.999996
v 7.999996 19.21701 -5.948396
v 7.999994 18.95601 -7.931195
v 7.999997 18.44722 -5.795395
v 7.999995 17.92961 -7.727194
v 7.999997 17.70382 -5.543394
v 7.999995 16.93841 -7.391193
v 7.999997 17.00002 -5.195993
v 7.999996 16.00001 -6.927992
v 7.999998 16.34722 -4.760393
v 7.999996 15.12961 -6.347192
v 7.999999 15.75742 -4.242592
v 7.999997 14.34322 -5.656791
v 7.999999 15.23962 -3.652792
v 7.999998 13.65281 -4.87039
v 8 14.80402 -2.999991
v 7.999999 13.07202 -3.99999
v 8.000001 14.45662 -2.296191
v 8 12.60882 -3.061589
v 8.000001 14.20462 -1.552791
v 8.000001 12.27282 -2.070389
v 8.000002 14.05162 -0.7829908
v 8.000002 12.06882 -1.043989
v -1.642372E-05 -8.469901E-07 -19.99997
v -2.357628E-05 60.00001 -20.00002
v 1.642372E-05 60.00004 19.99998
v 2.357628E-05 3.56561E-05 20.00003
vn 1E-06 9.125773E-07 1
vn 1E-06 9.125773E-07 1
vn 1E-06 9.125773E-07 1
vn 1E-06 9.125773E-07 1
vn -1.192093E-07 1 -9.125773E-07
vn -1.192093E-07 1 -9.125773E-07
vn -1.192093E-07 1 -9.125773E-07
vn -1.192093E-07 1 -9.125773E-07
vn -1E-06 -9.125773E-07 -1
vn -1E-06 -9.125773E-07 -1
vn -1E-06 -9.125773E-07 -1
vn -1E-06 -9.125773E-07 -1
vn 1.192093E-07 -1 9.125773E-07
vn 1.192093E-07 -1 9.125773E-07
vn 1.192093E-07 -1 9.125773E-07
vn 1.192093E-07 -1 9.125773E-07
vn 1E-06 9.125773E-07 1
vn 1E-06 9.125773E-07 1
vn 1E-06 9.125773E-07 1
vn 1E-06 9.125773E-07 1
vn -1.192093E-07 1 -9.125773E-07
vn -1.192093E-07 1 -9.125773E-07
vn -1.192093E-07 1 -9.125773E-07
vn -1.192093E-07 1 -9.125773E-07
vn -1E-06 -9.125773E-07 -1
vn -1E-06 -9.125773E-07 -1
vn -1E-06 -9.125773E-07 -1
vn -1E-06 -9.125773E-07 -1
vn 1.192093E-07 -1 9.125773E-07
vn 1.192093E-07 -1 9.125773E-07
vn 1.192093E-07 -1 9.125773E-07
vn 1.192093E-07 -1 9.125773E-07
vn 1 1.192094E-07 -1E-06
vn 1 1.192094E-07 -1E-06
vn 1 1.192094E-07 -1E-06
vn 1 1.192094E-07 -1E-06
vn -1E-06 -9.125773E-07 -1
vn -1E-06 -9.125773E-07 -1
vn -1E-06 -9.125773E-07 -1
vn -1E-06 -9.125773E-07 -1
vn -1.192093E-07 1 -9.125773E-07
vn -1.192093E-07 1 -9.125773E-07
vn -1.192093E-07 1 -9.125773E-07
vn -1.192093E-07 1 -9.125773E-07
vn 1E-06 9.125773E-07 1
vn 1E-06 9.125773E-07 1
vn 1E-06 9.125773E-07 1
vn 1E-06 9.125773E-07 1
vn 1.192093E-07 -1 9.125773E-07
vn 1.192093E-07 -1 9.125773E-07
vn 1.192093E-07 -1 9.125773E-07
vn 1.192093E-07 -1 9.125773E-07
vn 1 1.192094E-07 -1E-06
vn 1 1.192094E-07 -1E-06
vn 1 1.192094E-07 -1E-06
vn 1 1.192094E-07 -1E-06
vn 1 1.192094E-07 -1E-06
vn 1 1.192094E-07 -1E-06
vn 1 1.192094E-07 -1E-06
vn 1 1.192094E-07 -1E-06
vn 1 1.192094E-07 -1E-06
vn 1 1.192094E-07 -1E-06
vn 1 1.192094E-07 -1E-06
vn 1 1.192094E-07 -1E-06
vn 1 1.192094E-07 -1E-06
vn 1 1.192094E-07 -1E-06
vn 1 1.192094E-07 -1E-06
vn 1 1.192094E-07 -1E-06
vn -2.275287E-07 0.9940385 -0.109031
vn -9.721904E-08 0.9997589 0.02196058
vn -1.41142E-07 0.9997589 -0.0219624
vn -2.699932E-07 0.988354 -0.1521731
vn -3.53227E-07 0.9714054 -0.2374272
vn -3.939963E-07 0.9601341 -0.2795403
vn -4.733738E-07 0.9320763 -0.3622624
vn -5.119742E-07 0.9152584 -0.4028677
vn -5.855106E-07 0.8767218 -0.4809979
vn -6.204751E-07 0.85505 -0.5185459
vn -6.872523E-07 0.8065993 -0.5910988
vn -7.190202E-07 0.7797711 -0.6260649
vn -7.777226E-07 0.7222586 -0.6916232
vn -8.04707E-07 0.6916219 -0.7222598
vn -8.544043E-07 0.6260635 -0.7797722
vn -8.770642E-07 0.5910974 -0.8066003
vn -9.168658E-07 0.5185443 -0.8550507
vn -9.340617E-07 0.4809963 -0.8767227
vn -9.632843E-07 0.4028661 -0.915259
vn -9.752614E-07 0.3622608 -0.9320768
vn -9.934581E-07 0.2795387 -0.9601345
vn -9.997091E-07 0.2374255 -0.9714058
vn -1.006494E-06 0.1521713 -0.9883541
vn -1.007036E-06 0.1090292 -0.9940385
vn -1.002377E-06 0.02196058 -0.9997588
vn -9.971409E-07 -0.0219624 -0.9997588
vn -9.810411E-07 -0.109031 -0.9940383
vn -9.702137E-07 -0.1521731 -0.9883538
vn -9.431022E-07 -0.2374273 -0.9714053
vn -9.268107E-07 -0.2795404 -0.960134
vn -8.888915E-07 -0.3622625 -0.932076
vn -8.672333E-07 -0.4028678 -0.9152583
vn -8.193829E-07 -0.480998 -0.8767217
vn -7.93235E-07 -0.518546 -0.8550498
vn -7.361352E-07 -0.5910991 -0.806599
vn -7.051389E-07 -0.6260651 -0.7797709
vn -6.398115E-07 -0.6916231 -0.7222586
vn -6.055228E-07 -0.7222597 -0.6916221
vn -5.331084E-07 -0.7797719 -0.6260636
vn -4.949441E-07 -0.8066002 -0.5910975
vn -4.166152E-07 -0.8550509 -0.5185443
vn -3.764837E-07 -0.8767227 -0.4809963
vn -2.937597E-07 -0.915259 -0.4028662
vn -2.511498E-07 -0.9320767 -0.3622611
vn -1.650829E-07 -0.9601345 -0.2795389
vn -1.21626E-07 -0.9714059 -0.2374257
vn -3.435104E-08 -0.9883543 -0.1521711
vn 9.468919E-09 -0.9940387 -0.1090288
vn 9.721925E-08 -0.9997589 -0.02196037
vn 1.411418E-07 -0.9997589 0.0219622
vn 2.275283E-07 -0.9940385 0.1090306
vn 2.69993E-07 -0.988354 0.1521729
vn 3.532272E-07 -0.9714054 0.2374274
vn 3.939967E-07 -0.960134 0.2795407
vn 4.733741E-07 -0.932076 0.3622628
vn 5.119744E-07 -0.9152583 0.4028679
vn 5.855106E-07 -0.8767218 0.4809979
vn 6.204751E-07 -0.85505 0.5185459
vn 6.872524E-07 -0.8065991 0.5910989
vn 7.190204E-07 -0.7797708 0.6260651
vn 7.777228E-07 -0.7222584 0.6916234
vn 8.047071E-07 -0.6916218 0.7222599
vn 8.544043E-07 -0.6260636 0.7797721
vn 8.770641E-07 -0.5910976 0.8066001
vn 9.168658E-07 -0.5185445 0.8550507
vn 9.340616E-07 -0.4809964 0.8767226
vn 9.632843E-07 -0.4028661 0.915259
vn 9.752614E-07 -0.3622608 0.9320768
vn 9.934581E-07 -0.2795387 0.9601345
vn 9.997091E-07 -0.2374255 0.9714058
vn 1.006494E-06 -0.1521713 0.9883541
vn 1.007036E-06 -0.1090292 0.9940385
vn 1.002377E-06 -0.02196058 0.9997588
vn 9.971409E-07 0.0219624 0.9997588
vn 9.810411E-07 0.109031 0.9940383
vn 9.702137E-07 0.1521731 0.9883538
vn 9.431022E-07 0.2374273 0.9714053
vn 9.268107E-07 0.2795404 0.960134
vn 8.888915E-07 0.3622625 0.932076
vn 8.672333E-07 0.4028678 0.9152583
vn 8.19383E-07 0.4809979 0.8767219
vn 7.93235E-07 0.5185459 0.8550498
vn 7.361355E-07 0.5910989 0.8065992
vn 7.05139E-07 0.626065 0.779771
vn 6.398114E-07 0.6916232 0.7222585
vn 6.055226E-07 0.7222599 0.6916218
vn 5.331082E-07 0.7797722 0.6260635
vn 4.949439E-07 0.8066004 0.5910974
vn 4.166152E-07 0.8550509 0.5185443
vn 3.764837E-07 0.8767227 0.4809963
vn 2.937596E-07 0.9152591 0.402866
vn 2.511494E-07 0.9320769 0.3622607
vn 1.650825E-07 0.9601346 0.2795385
vn 1.216258E-07 0.9714059 0.2374255
vn 3.435123E-08 0.9883542 0.1521713
vn -9.468509E-09 0.9940387 0.1090292
vn 2.275288E-07 -0.9940384 0.1090311
vn 9.721904E-08 -0.9997589 -0.02196058
vn 1.41142E-07 -0.9997589 0.0219624
vn 2.699933E-07 -0.988354 0.1521732
vn 3.532269E-07 -0.9714054 0.2374272
vn 3.939962E-07 -0.9601342 0.2795401
vn 4.733737E-07 -0.9320763 0.3622623
vn 5.119743E-07 -0.9152583 0.4028678
vn 5.855108E-07 -0.8767218 0.4809981
vn 6.20475E-07 -0.8550498 0.5185458
vn 6.872523E-07 -0.8065993 0.5910988
vn 7.190203E-07 -0.779771 0.626065
vn 7.777226E-07 -0.7222586 0.6916232
vn 8.047071E-07 -0.691622 0.7222598
vn 8.544043E-07 -0.6260636 0.7797721
vn 8.770642E-07 -0.5910974 0.8066003
vn 9.168658E-07 -0.5185443 0.8550507
vn 9.340615E-07 -0.4809965 0.8767225
vn 9.632842E-07 -0.4028662 0.9152589
vn 9.752616E-07 -0.3622608 0.9320769
vn 9.93458E-07 -0.2795384 0.9601345
vn 9.997091E-07 -0.2374254 0.9714057
vn 1.006494E-06 -0.1521714 0.9883541
vn 1.007036E-06 -0.1090292 0.9940385
vn 1.002377E-06 -0.02196059 0.9997588
vn 9.971409E-07 0.02196241 0.9997588
vn 9.810411E-07 0.1090311 0.9940383
vn 9.702137E-07 0.1521732 0.9883538
vn 9.431022E-07 0.2374272 0.9714053
vn 9.268107E-07 0.2795402 0.960134
vn 8.888917E-07 0.3622625 0.9320762
vn 8.672332E-07 0.4028679 0.9152582
vn 8.193829E-07 0.4809982 0.8767217
vn 7.93235E-07 0.518546 0.8550498
vn 7.361353E-07 0.5910991 0.8065991
vn 7.051388E-07 0.6260651 0.7797708
vn 6.398115E-07 0.6916231 0.7222586
vn 6.05523E-07 0.7222595 0.6916222
vn 5.331085E-07 0.7797719 0.6260637
vn 4.949437E-07 0.8066005 0.5910971
vn 4.166151E-07 0.855051 0.5185442
vn 3.764844E-07 0.8767223 0.4809969
vn 2.937601E-07 0.9152588 0.4028665
vn 2.511489E-07 0.9320771 0.3622602
vn 1.650816E-07 0.9601348 0.2795376
vn 1.216256E-07 0.9714059 0.2374253
vn 3.435164E-08 0.9883541 0.1521717
vn -9.468308E-09 0.9940386 0.1090294
vn -9.721904E-08 0.9997589 0.02196058
vn -1.41142E-07 0.9997589 -0.0219624
vn -2.275289E-07 0.9940384 -0.1090312
vn -2.699936E-07 0.9883539 -0.1521735
vn -3.532268E-07 0.9714054 -0.2374271
vn -3.939955E-07 0.9601343 -0.2795393
vn -4.733733E-07 0.9320764 -0.3622619
vn -5.119747E-07 0.9152581 -0.4028682
vn -5.855112E-07 0.8767214 -0.4809985
vn -6.20475E-07 0.85505 -0.5185457
vn -6.872521E-07 0.8065994 -0.5910985
vn -7.190205E-07 0.7797708 -0.6260651
vn -7.777229E-07 0.7222583 -0.6916235
vn -8.047071E-07 0.6916218 -0.7222599
vn -8.544042E-07 0.6260636 -0.779772
vn -8.770641E-07 0.5910976 -0.8066002
vn -9.168658E-07 0.5185445 -0.8550508
vn -9.340616E-07 0.4809966 -0.8767226
vn -9.632842E-07 0.4028662 -0.9152589
vn -9.752616E-07 0.3622608 -0.9320769
vn -9.93458E-07 0.2795384 -0.9601345
vn -9.997091E-07 0.2374254 -0.9714057
vn -1.006494E-06 0.1521714 -0.9883541
vn -1.007036E-06 0.1090292 -0.9940385
vn -1.002377E-06 0.02196059 -0.9997588
vn -9.971409E-07 -0.02196241 -0.9997588
vn -9.810411E-07 -0.1090311 -0.9940383
vn -9.702137E-07 -0.1521732 -0.9883538
vn -9.431022E-07 -0.2374272 -0.9714053
vn -9.268107E-07 -0.2795402 -0.960134
vn -8.888917E-07 -0.3622625 -0.9320762
vn -8.672332E-07 -0.4028679 -0.9152582
vn -8.193829E-07 -0.4809981 -0.8767217
vn -7.93235E-07 -0.5185459 -0.8550498
vn -7.361355E-07 -0.5910989 -0.8065992
vn -7.051389E-07 -0.626065 -0.7797709
vn -6.398114E-07 -0.6916233 -0.7222585
vn -6.055226E-07 -0.7222599 -0.6916219
vn -5.331083E-07 -0.7797722 -0.6260635
vn -4.949439E-07 -0.8066004 -0.5910974
vn -4.166152E-07 -0.8550508 -0.5185443
vn -3.764839E-07 -0.8767227 -0.4809965
vn -2.937597E-07 -0.915259 -0.4028662
vn -2.511493E-07 -0.9320769 -0.3622606
vn -1.650823E-07 -0.9601347 -0.2795384
vn -1.216258E-07 -0.9714059 -0.2374254
vn -3.435133E-08 -0.9883543 -0.1521714
vn 9.468457E-09 -0.9940386 -0.1090292
vn 1 1.192094E-07 -1E-06
vn 1 1.192094E-07 -1E-06
vn 1 1.192094E-07 -1E-06
vn 1 1.192094E-07 -1E-06
vn 1 1.192094E-07 -1E-06
vn 1 1.192094E-07 -1E-06
vn 1 1.192094E-07 -1E-06
vn 1 1.192094E-07 -1E-06
vn 1 1.192094E-07 -1E-06
vn 1 1.192094E-07 -1E-06
vn 1 1.192094E-07 -1E-06
vn 1 1.192094E-07 -1E-06
vn 1 1.192094E-07 -1E-06
vn 1 1.192094E-07 -1E-06
vn 1 1.192094E-07 -1E-06
vn 1 1.192094E-07 -1E-06
vn 1 1.192094E-07 -1E-06
vn 1 1.192094E-07 -1E-06
vn 1 1.192094E-07 -1E-06
vn 1 1.192094E-07 -1E-06
vn 1 1.192094E-07 -1E-06
vn 1 1.192094E-07 -1E-06
vn 1 1.192094E-07 -1E-06
vn 1 1.192094E-07 -1E-06
vn 1 1.192094E-07 -1E-06
vn 1 1.192094E-07 -1E-06
vn 1 1.192094E-07 -1E-06
vn 1 1.192094E-07 -1E-06
vn 1 1.192094E-07 -1E-06
vn 1 1.192094E-07 -1E-06
vn 1 1.192094E-07 -1E-06
vn 1 1.192094E-07 -1E-06
vn 1 1.192094E-07 -1E-06
vn 1 1.192094E-07 -1E-06
vn 1 1.192094E-07 -1E-06
vn 1 1.192094E-07 -1E-06
vn 1 1.192094E-07 -1E-06
vn 1 1.192094E-07 -1E-06
vn 1 1.192094E-07 -1E-06
vn 1 1.192094E-07 -1E-06
vn 1 1.192094E-07 -1E-06
vn 1 1.192094E-07 -1E-06
vn 1 1.192094E-07 -1E-06
vn 1 1.192094E-07 -1E-06
vn 1 1.192094E-07 -1E-06
vn 1 1.192094E-07 -1E-06
vn 1 1.192094E-07 -1E-06
vn 1 1.192094E-07 -1E-06
vn 1 1.192094E-07 -1E-06
vn 1 1.192094E-07 -1E-06
vn 1 1.192094E-07 -1E-06
vn 1 1.192094E-07 -1E-06
vn 1 1.192094E-07 -1E-06
vn 1 1.192094E-07 -1E-06
vn 1 1.192094E-07 -1E-06
vn 1 1.192094E-07 -1E-06
vn 1 1.192094E-07 -1E-06
vn 1 1.192094E-07 -1E-06
vn 1 1.192094E-07 -1E-06
vn 1 1.192094E-07 -1E-06
vn 1 1.192094E-07 -1E-06
vn 1 1.192094E-07 -1E-06
vn 1 1.192094E-07 -1E-06
vn 1 1.192094E-07 -1E-06
vn 1 1.192094E-07 -1E-06
vn 1 1.192094E-07 -1E-06
vn 1 1.192094E-07 -1E-06
vn 1 1.192094E-07 -1E-06
vn 1 1.192094E-07 -1E-06
vn 1 1.192094E-07 -1E-06
vn 1 1.192094E-07 -1E-06
vn 1 1.192094E-07 -1E-06
vn 1 1.192094E-07 -1E-06
vn 1 1.192094E-07 -1E-06
vn 1 1.192094E-07 -1E-06
vn 1 1.192094E-07 -1E-06
vn 1 1.192094E-07 -1E-06
vn 1 1.192094E-07 -1E-06
vn 1 1.192094E-07 -1E-06
vn 1 1.192094E-07 -1E-06
vn 1 1.192094E-07 -1E-06
vn 1 1.192094E-07 -1E-06
vn 1 1.192094E-07 -1E-06
vn 1 1.192094E-07 -1E-06
vn 1 1.192094E-07 -1E-06
vn 1 1.192094E-07 -1E-06
vn 1 1.192094E-07 -1E-06
vn 1 1.192094E-07 -1E-06
vn 1 1.192094E-07 -1E-06
vn 1 1.192094E-07 -1E-06
vn 1 1.192094E-07 -1E-06
vn 1 1.192094E-07 -1E-06
vn 1 1.192094E-07 -1E-06
vn 1 1.192094E-07 -1E-06
vn 1 1.192094E-07 -1E-06
vn 1 1.192094E-07 -1E-06
vn -2.275283E-07 0.9940385 -0.1090306
vn -9.721925E-08 0.9997589 0.02196037
vn -1.411418E-07 0.9997589 -0.0219622
vn -2.69993E-07 0.988354 -0.1521729
vn -3.532272E-07 0.9714054 -0.2374274
vn -3.939967E-07 0.960134 -0.2795407
vn -4.733741E-07 0.932076 -0.3622628
vn -5.119744E-07 0.9152583 -0.4028679
vn -5.855106E-07 0.8767218 -0.4809979
vn -6.204751E-07 0.85505 -0.5185459
vn -6.872524E-07 0.8065991 -0.5910989
vn -7.190204E-07 0.7797708 -0.6260651
vn -7.777228E-07 0.7222584 -0.6916234
vn -8.047071E-07 0.6916218 -0.7222599
vn -8.544043E-07 0.6260636 -0.7797721
vn -8.770641E-07 0.5910976 -0.8066001
vn -9.168658E-07 0.5185445 -0.8550507
vn -9.340616E-07 0.4809964 -0.8767226
vn -9.632843E-07 0.4028661 -0.915259
vn -9.752614E-07 0.3622608 -0.9320768
vn -9.934581E-07 0.2795387 -0.9601345
vn -9.997091E-07 0.2374255 -0.9714058
vn -1.006494E-06 0.1521713 -0.9883541
vn -1.007036E-06 0.1090292 -0.9940385
vn -1.002377E-06 0.02196058 -0.9997588
vn -9.971409E-07 -0.0219624 -0.9997588
vn -9.810411E-07 -0.109031 -0.9940383
vn -9.702137E-07 -0.1521731 -0.9883538
vn -9.431022E-07 -0.2374273 -0.9714053
vn -9.268107E-07 -0.2795404 -0.960134
vn -8.888915E-07 -0.3622625 -0.932076
vn -8.672333E-07 -0.4028678 -0.9152583
vn -8.19383E-07 -0.4809979 -0.8767219
vn -7.93235E-07 -0.5185459 -0.8550498
vn -7.361355E-07 -0.5910989 -0.8065992
vn -7.05139E-07 -0.626065 -0.779771
vn -6.398114E-07 -0.6916232 -0.7222585
vn -6.055226E-07 -0.7222599 -0.6916218
vn -5.331082E-07 -0.7797722 -0.6260635
vn -4.949439E-07 -0.8066004 -0.5910974
vn -4.166152E-07 -0.8550509 -0.5185443
vn -3.764837E-07 -0.8767227 -0.4809963
vn -2.937596E-07 -0.9152591 -0.402866
vn -2.511494E-07 -0.9320769 -0.3622607
vn -1.650825E-07 -0.9601346 -0.2795385
vn -1.216258E-07 -0.9714059 -0.2374255
vn -3.435123E-08 -0.9883542 -0.1521713
vn 9.468509E-09 -0.9940387 -0.1090292
vn 9.721904E-08 -0.9997589 -0.02196058
vn 1.41142E-07 -0.9997589 0.0219624
vn 2.275287E-07 -0.9940385 0.109031
vn 2.699932E-07 -0.988354 0.1521731
vn 3.53227E-07 -0.9714054 0.2374272
vn 3.939963E-07 -0.9601341 0.2795403
vn 4.733738E-07 -0.9320763 0.3622624
vn 5.119742E-07 -0.9152584 0.4028677
vn 5.855106E-07 -0.8767218 0.4809979
vn 6.204751E-07 -0.85505 0.5185459
vn 6.872523E-07 -0.8065993 0.5910988
vn 7.190202E-07 -0.7797711 0.6260649
vn 7.777226E-07 -0.7222586 0.6916232
vn 8.04707E-07 -0.6916219 0.7222598
vn 8.544043E-07 -0.6260635 0.7797722
vn 8.770642E-07 -0.5910974 0.8066003
vn 9.168658E-07 -0.5185443 0.8550507
vn 9.340617E-07 -0.4809963 0.8767227
vn 9.632843E-07 -0.4028661 0.915259
vn 9.752614E-07 -0.3622608 0.9320768
vn 9.934581E-07 -0.2795387 0.9601345
vn 9.997091E-07 -0.2374255 0.9714058
vn 1.006494E-06 -0.1521713 0.9883541
vn 1.007036E-06 -0.1090292 0.9940385
vn 1.002377E-06 -0.02196058 0.9997588
vn 9.971409E-07 0.0219624 0.9997588
vn 9.810411E-07 0.109031 0.9940383
vn 9.702137E-07 0.1521731 0.9883538
vn 9.431022E-07 0.2374273 0.9714053
vn 9.268107E-07 0.2795404 0.960134
vn 8.888915E-07 0.3622625 0.932076
vn 8.672333E-07 0.4028678 0.9152583
vn 8.193829E-07 0.480998 0.8767217
vn 7.93235E-07 0.518546 0.8550498
vn 7.361352E-07 0.5910991 0.806599
vn 7.051389E-07 0.6260651 0.7797709
vn 6.398115E-07 0.6916231 0.7222586
vn 6.055228E-07 0.7222597 0.6916221
vn 5.331084E-07 0.7797719 0.6260636
vn 4.949441E-07 0.8066002 0.5910975
vn 4.166152E-07 0.8550509 0.5185443
vn 3.764837E-07 0.8767227 0.4809963
vn 2.937597E-07 0.915259 0.4028662
vn 2.511498E-07 0.9320767 0.3622611
vn 1.650829E-07 0.9601345 0.2795389
vn 1.21626E-07 0.9714059 0.2374257
vn 3.435104E-08 0.9883543 0.1521711
vn -9.468919E-09 0.9940387 0.1090288
vn 2.275289E-07 -0.9940384 0.1090312
vn 9.721904E-08 -0.9997589 -0.02196058
vn 1.41142E-07 -0.9997589 0.0219624
vn 2.699936E-07 -0.9883539 0.1521735
vn 3.532268E-07 -0.9714054 0.2374271
vn 3.939955E-07 -0.9601343 0.2795393
vn 4.733733E-07 -0.9320764 0.3622619
vn 5.119747E-07 -0.9152581 0.4028682
vn 5.855112E-07 -0.8767214 0.4809985
vn 6.20475E-07 -0.85505 0.5185457
vn 6.872521E-07 -0.8065994 0.5910985
vn 7.190205E-07 -0.7797708 0.6260651
vn 7.777229E-07 -0.7222583 0.6916235
vn 8.047071E-07 -0.6916218 0.7222599
vn 8.544042E-07 -0.6260636 0.779772
vn 8.770641E-07 -0.5910976 0.8066002
vn 9.168658E-07 -0.5185445 0.8550508
vn 9.340616E-07 -0.4809966 0.8767226
vn 9.632842E-07 -0.4028662 0.9152589
vn 9.752616E-07 -0.3622608 0.9320769
vn 9.93458E-07 -0.2795384 0.9601345
vn 9.997091E-07 -0.2374254 0.9714057
vn 1.006494E-06 -0.1521714 0.9883541
vn 1.007036E-06 -0.1090292 0.9940385
vn 1.002377E-06 -0.02196059 0.9997588
vn 9.971409E-07 0.02196241 0.9997588
vn 9.810411E-07 0.1090311 0.9940383
vn 9.702137E-07 0.1521732 0.9883538
vn 9.431022E-07 0.2374272 0.9714053
vn 9.268107E-07 0.2795402 0.960134
vn 8.888917E-07 0.3622625 0.9320762
vn 8.672332E-07 0.4028679 0.9152582
vn 8.193829E-07 0.4809981 0.8767217
vn 7.93235E-07 0.5185459 0.8550498
vn 7.361355E-07 0.5910989 0.8065992
vn 7.051389E-07 0.626065 0.7797709
vn 6.398114E-07 0.6916233 0.7222585
vn 6.055226E-07 0.7222599 0.6916219
vn 5.331083E-07 0.7797722 0.6260635
vn 4.949439E-07 0.8066004 0.5910974
vn 4.166152E-07 0.8550508 0.5185443
vn 3.764839E-07 0.8767227 0.4809965
vn 2.937597E-07 0.915259 0.4028662
vn 2.511493E-07 0.9320769 0.3622606
vn 1.650823E-07 0.9601347 0.2795384
vn 1.216258E-07 0.9714059 0.2374254
vn 3.435133E-08 0.9883543 0.1521714
vn -9.468457E-09 0.9940386 0.1090292
vn -9.721904E-08 0.9997589 0.02196058
vn -1.41142E-07 0.9997589 -0.0219624
vn -2.275288E-07 0.9940384 -0.1090311
vn -2.699933E-07 0.988354 -0.1521732
vn -3.532269E-07 0.9714054 -0.2374272
vn -3.939962E-07 0.9601342 -0.2795401
vn -4.733737E-07 0.9320763 -0.3622623
vn -5.119743E-07 0.9152583 -0.4028678
vn -5.855108E-07 0.8767218 -0.4809981
vn -6.20475E-07 0.8550498 -0.5185458
vn -6.872523E-07 0.8065993 -0.5910988
vn -7.190203E-07 0.779771 -0.626065
vn -7.777226E-07 0.7222586 -0.6916232
vn -8.047071E-07 0.691622 -0.7222598
vn -8.544043E-07 0.6260636 -0.7797721
vn -8.770642E-07 0.5910974 -0.8066003
vn -9.168658E-07 0.5185443 -0.8550507
vn -9.340615E-07 0.4809965 -0.8767225
vn -9.632842E-07 0.4028662 -0.9152589
vn -9.752616E-07 0.3622608 -0.9320769
vn -9.93458E-07 0.2795384 -0.9601345
vn -9.997091E-07 0.2374254 -0.9714057
vn -1.006494E-06 0.1521714 -0.9883541
vn -1.007036E-06 0.1090292 -0.9940385
vn -1.002377E-06 0.02196059 -0.9997588
vn -9.971409E-07 -0.02196241 -0.9997588
vn -9.810411E-07 -0.1090311 -0.9940383
vn -9.702137E-07 -0.1521732 -0.9883538
vn -9.431022E-07 -0.2374272 -0.9714053
vn -9.268107E-07 -0.2795402 -0.960134
vn -8.888917E-07 -0.3622625 -0.9320762
vn -8.672332E-07 -0.4028679 -0.9152582
vn -8.193829E-07 -0.4809982 -0.8767217
vn -7.93235E-07 -0.518546 -0.8550498
vn -7.361353E-07 -0.5910991 -0.8065991
vn -7.051388E-07 -0.6260651 -0.7797708
vn -6.398115E-07 -0.6916231 -0.7222586
vn -6.05523E-07 -0.7222595 -0.6916222
vn -5.331085E-07 -0.7797719 -0.6260637
vn -4.949437E-07 -0.8066005 -0.5910971
vn -4.166151E-07 -0.855051 -0.5185442
vn -3.764844E-07 -0.8767223 -0.4809969
vn -2.937601E-07 -0.9152588 -0.4028665
vn -2.511489E-07 -0.9320771 -0.3622602
vn -1.650816E-07 -0.9601348 -0.2795376
vn -1.216256E-07 -0.9714059 -0.2374253
vn -3.435164E-08 -0.9883541 -0.1521717
vn 9.468308E-09 -0.9940386 -0.1090294
vn 1 1.192094E-07 -1E-06
vn 1 1.192094E-07 -1E-06
vn 1 1.192094E-07 -1E-06
vn 1 1.192094E-07 -1E-06
vn 1 1.192094E-07 -1E-06
vn 1 1.192094E-07 -1E-06
vn 1 1.192094E-07 -1E-06
vn 1 1.192094E-07 -1E-06
vn 1 1.192094E-07 -1E-06
vn 1 1.192094E-07 -1E-06
vn 1 1.192094E-07 -1E-06
vn 1 1.192094E-07 -1E-06
vn 1 1.192094E-07 -1E-06
vn 1 1.192094E-07 -1E-06
vn 1 1.192094E-07 -1E-06
vn 1 1.192094E-07 -1E-06
vn 1 1.192094E-07 -1E-06
vn 1 1.192094E-07 -1E-06
vn 1 1.192094E-07 -1E-06
vn 1 1.192094E-07 -1E-06
vn 1 1.192094E-07 -1E-06
vn 1 1.192094E-07 -1E-06
vn 1 1.192094E-07 -1E-06
vn 1 1.192094E-07 -1E-06
vn 1 1.192094E-07 -1E-06
vn 1 1.192094E-07 -1E-06
vn 1 1.192094E-07 -1E-06
vn 1 1.192094E-07 -1E-06
vn 1 1.192094E-07 -1E-06
vn 1 1.192094E-07 -1E-06
vn 1 1.192094E-07 -1E-06
vn 1 1.192094E-07 -1E-06
vn 1 1.192094E-07 -1E-06
vn 1 1.192094E-07 -1E-06
vn 1 1.192094E-07 -1E-06
vn 1 1.192094E-07 -1E-06
vn 1 1.192094E-07 -1E-06
vn 1 1.192094E-07 -1E-06
vn 1 1.192094E-07 -1E-06
vn 1 1.192094E-07 -1E-06
vn 1 1.192094E-07 -1E-06
vn 1 1.192094E-07 -1E-06
vn 1 1.192094E-07 -1E-06
vn 1 1.192094E-07 -1E-06
vn 1 1.192094E-07 -1E-06
vn 1 1.192094E-07 -1E-06
vn 1 1.192094E-07 -1E-06
vn 1 1.192094E-07 -1E-06
vn 1 1.192094E-07 -1E-06
vn 1 1.192094E-07 -1E-06
vn 1 1.192094E-07 -1E-06
vn 1 1.192094E-07 -1E-06
vn 1 1.192094E-07 -1E-06
vn 1 1.192094E-07 -1E-06
vn 1 1.192094E-07 -1E-06
vn 1 1.192094E-07 -1E-06
vn 1 1.192094E-07 -1E-06
vn 1 1.192094E-07 -1E-06
vn 1 1.192094E-07 -1E-06
vn 1 1.192094E-07 -1E-06
vn 1 1.192094E-07 -1E-06
vn 1 1.192094E-07 -1E-06
vn 1 1.192094E-07 -1E-06
vn 1 1.192094E-07 -1E-06
vn 1 1.192094E-07 -1E-06
vn 1 1.192094E-07 -1E-06
vn 1 1.192094E-07 -1E-06
vn 1 1.192094E-07 -1E-06
vn 1 1.192094E-07 -1E-06
vn 1 1.192094E-07 -1E-06
vn 1 1.192094E-07 -1E-06
vn 1 1.192094E-07 -1E-06
vn 1 1.192094E-07 -1E-06
vn 1 1.192094E-07 -1E-06
vn 1 1.192094E-07 -1E-06
vn 1 1.192094E-07 -1E-06
vn 1 1.192094E-07 -1E-06
vn 1 1.192094E-07 -1E-06
vn 1 1.192094E-07 -1E-06
vn 1 1.192094E-07 -1E-06
vn 1 1.192094E-07 -1E-06
vn 1 1.192094E-07 -1E-06
vn 1 1.192094E-07 -1E-06
vn 1 1.192094E-07 -1E-06
vn 1 1.192094E-07 -1E-06
vn 1 1.192094E-07 -1E-06
vn 1 1.192094E-07 -1E-06
vn 1 1.192094E-07 -1E-06
vn 1 1.192094E-07 -1E-06
vn 1 1.192094E-07 -1E-06
vn 1 1.192094E-07 -1E-06
vn 1 1.192094E-07 -1E-06
vn 1 1.192094E-07 -1E-06
vn 1 1.192094E-07 -1E-06
vn 1 1.192094E-07 -1E-06
vn 1 1.192094E-07 -1E-06
vn -1 -1.192094E-07 1E-06
vn -1 -1.192094E-07 1E-06
vn -1 -1.192094E-07 1E-06
vn -1 -1.192094E-07 1E-06
vt -13 10
vt -20 10
vt -20 -50
vt -13 -50
vt -23 -50
vt -30 -50
vt -30 -10
vt -23 -10
vt 27 -10
vt 20 -10
vt 20 50
vt 27 50
vt 37 50
vt 30 50
vt 30 10
vt 37 10
vt -11 10
vt -12 10
vt -12 -48
vt -11 -48
vt -21 -48
vt -22 -48
vt -22 -10
vt -21 -10
vt 27 -10
vt 26 -10
vt 26 48
vt 27 48
vt 37 48
vt 36 48
vt 36 10
vt 37 10
vt 20 30
vt 20 -22
vt -12 -22
vt -12 30
vt -12 -42
vt -8 -42
vt -8 10
vt -12 10
vt 30 10
vt 34 10
vt 34 42
vt 30 42
vt 20 42
vt 24 42
vt 24 -10
vt 20 -10
vt -22 -10
vt -18 -10
vt -18 -42
vt -22 -42
vt 27 37
vt 26 36
vt 26 -22
vt 27 -23
vt -13 -23
vt -12 -22
vt -12 36
vt -13 37
vt 27 37
vt 24 34
vt 24 -18
vt 27 -21
vt -11 -21
vt -8 -18
vt -8 34
vt -11 37
vt 3.217 -4.8346
vt 0 -4
vt 8 -4
vt 7.217 -4.8346
vt 2.4472 -5.7574
vt 6.4472 -5.7574
vt 1.7038 -6.7528
vt 5.7038 -6.7528
vt 1 -7.804
vt 5 -7.804
vt 0.3471999 -8.892401
vt 4.3472 -8.892401
vt -0.2426 -10
vt 3.7574 -10
vt -0.7603998 -11.1076
vt 3.2396 -11.1076
vt -1.196 -12.196
vt 2.804 -12.196
vt -1.5434 -13.2472
vt 2.4566 -13.2472
vt -1.7954 -14.2426
vt 2.2046 -14.2426
vt -1.9484 -15.1654
vt 2.0516 -15.1654
vt -2 -16
vt 2 -16
vt -1.9484 -16.7314
vt 2.0516 -16.7314
vt -1.7954 -17.3482
vt 2.2046 -17.3482
vt -1.5434 -17.8396
vt 2.4566 -17.8396
vt -1.196 -18.196
vt 2.804 -18.196
vt -0.7603998 -18.4132
vt 3.2396 -18.4132
vt -0.2426 -18.4852
vt -6.242599 -18.4852
vt -10.7604 -18.4132
vt -6.7604 -18.4132
vt -11.196 -18.196
vt -7.196 -18.196
vt -11.5434 -17.8396
vt -7.5434 -17.8396
vt -11.7954 -17.3482
vt -7.795401 -17.3482
vt -11.9484 -16.7314
vt -7.9484 -16.7314
vt -12 -16
vt -8 -16
vt -11.9484 -15.1654
vt -7.9484 -15.1654
vt -11.7954 -14.2426
vt -7.795401 -14.2426
vt -11.5434 -13.2472
vt -7.5434 -13.2472
vt -11.196 -12.196
vt -7.196 -12.196
vt -10.7604 -11.1076
vt -6.7604 -11.1076
vt -10.2426 -10
vt -6.242599 -10
vt -9.6528 -8.8924
vt -5.6528 -8.8924
vt -9 -7.804
vt -5 -7.804
vt -8.2962 -6.7528
vt -4.2962 -6.7528
vt -7.5528 -5.7574
vt -3.5528 -5.7574
vt -6.783 -4.8346
vt -2.783 -4.8346
vt -6 -4
vt 14 -4
vt 9.9484 -3.2686
vt 13.9484 -3.2686
vt 9.795401 -2.6518
vt 13.7954 -2.6518
vt 9.5434 -2.1604
vt 13.5434 -2.1604
vt 9.196 -1.804
vt 13.196 -1.804
vt 8.7604 -1.5868
vt 12.7604 -1.5868
vt 8.242599 -1.5148
vt 2.2426 -1.5148
vt -1.2396 -1.5868
vt 2.7604 -1.5868
vt -0.8039999 -1.804
vt 3.196 -1.804
vt -0.4566002 -2.1604
vt 3.5434 -2.1604
vt -0.2045999 -2.6518
vt 3.7954 -2.6518
vt -0.05159998 -3.2686
vt 3.9484 -3.2686
vt 1.9312 -3.1128
vt 2 -2
vt 6 -2
vt 5.9312 -3.1128
vt 1.7272 -4.3432
vt 5.7272 -4.3432
vt 1.3912 -5.6704
vt 5.3912 -5.6704
vt 0.928 -7.072
vt 4.928 -7.072
vt 0.3471999 -8.5232
vt 4.3472 -8.5232
vt -0.3432002 -10
vt 3.6568 -10
vt -1.1296 -11.4768
vt 2.8704 -11.4768
vt -2 -12.928
vt 2 -12.928
vt -2.9384 -14.3296
vt 1.0616 -14.3296
vt -3.9296 -15.6568
vt 0.07040024 -15.6568
vt -4.956 -16.8872
vt -0.9560003 -16.8872
vt -6 -18
vt 0 -18
vt -3.9312 -18.9752
vt 0.06879997 -18.9752
vt -3.7272 -19.7976
vt 0.2728 -19.7976
vt -3.3912 -20.4528
vt 0.6087999 -20.4528
vt -2.928 -20.928
vt 1.072 -20.928
vt -2.3472 -21.2176
vt 1.6528 -21.2176
vt -1.6568 -21.3136
vt -7.656799 -21.3136
vt -12.3472 -21.2176
vt -8.3472 -21.2176
vt -12.928 -20.928
vt -8.927999 -20.928
vt -13.3912 -20.4528
vt -9.391201 -20.4528
vt -13.7272 -19.7976
vt -9.7272 -19.7976
vt -13.9312 -18.9752
vt -9.9312 -18.9752
vt -14 -18
vt 8 -18
vt 5.044 -16.8872
vt 9.044 -16.8872
vt 6.0704 -15.6568
vt 10.0704 -15.6568
vt 7.0616 -14.3296
vt 11.0616 -14.3296
vt 8 -12.928
vt 12 -12.928
vt 8.870399 -11.4768
vt 12.8704 -11.4768
vt 9.656799 -10
vt 13.6568 -10
vt 10.3472 -8.523199
vt 14.3472 -8.523199
vt 10.928 -7.072
vt 14.928 -7.072
vt 11.3912 -5.6704
vt 15.3912 -5.6704
vt 11.7272 -4.3432
vt 15.7272 -4.3432
vt 11.9312 -3.1128
vt 15.9312 -3.1128
vt 12 -2
vt 16 -2
vt 11.9312 -1.0248
vt 15.9312 -1.0248
vt 11.7272 -0.2023997
vt 15.7272 -0.2023997
vt 11.3912 0.4527998
vt 15.3912 0.4527998
vt 10.928 0.928
vt 14.928 0.928
vt 10.3472 1.2176
vt 14.3472 1.2176
vt 9.656799 1.3136
vt 3.6568 1.3136
vt 0.3471999 1.2176
vt 4.3472 1.2176
vt 0.928 0.928
vt 4.928 0.928
vt 1.3912 0.4528
vt 5.3912 0.4528
vt 1.7272 -0.2024
vt 5.7272 -0.2024
vt 1.9312 -1.0248
vt 5.9312 -1.0248
vt 8 4
vt 7.217 3.9484
vt 6.956 5.9312
vt 8 6
vt 6.4472 3.7954
vt 5.9296 5.7272
vt 5.7038 3.5434
vt 4.9384 5.3912
vt 5 3.196
vt 4 4.928
vt 4.3472 2.7604
vt 3.1296 4.3472
vt 3.7574 2.2426
vt 2.3432 3.6568
vt 3.2396 1.6528
vt 1.6528 2.8704
vt 2.804 1
vt 1.072 2
vt 2.4566 0.2961998
vt 0.6087999 1.0616
vt 2.2046 -0.4471998
vt 0.2728 0.07040024
vt 2.0516 -1.217
vt 0.06879997 -0.9560003
vt 2 -2
vt 0 -2
vt 2.0516 -2.783
vt 0.06879997 -3.044
vt 2.2046 -3.5528
vt 0.2728 -4.0704
vt 2.4566 -4.2962
vt 0.6087999 -5.0616
vt 2.804 -5
vt 1.072 -6
vt 3.2396 -5.6528
vt 1.6528 -6.870399
vt 3.7574 -6.242599
vt 2.3432 -7.656799
vt 4.3472 -6.7604
vt 3.1296 -8.3472
vt 5 -7.196
vt 4 -8.927999
vt 5.7038 -7.5434
vt 4.9384 -9.391201
vt 6.4472 -7.795401
vt 5.9296 -9.7272
vt 7.217 -7.9484
vt 6.956 -9.9312
vt 8 -8
vt 8 -10
vt 8.783 -7.9484
vt 9.044 -9.9312
vt 9.5528 -7.795401
vt 10.0704 -9.7272
vt 10.2962 -7.5434
vt 11.0616 -9.391201
vt 11 -7.196
vt 12 -8.927999
vt 11.6528 -6.7604
vt 12.8704 -8.3472
vt 12.2426 -6.242599
vt 13.6568 -7.656799
vt 12.7604 -5.6528
vt 14.3472 -6.870399
vt 13.196 -5
vt 14.928 -6
vt 13.5434 -4.2962
vt 15.3912 -5.0616
vt 13.7954 -3.5528
vt 15.7272 -4.0704
vt 13.9484 -2.783
vt 15.9312 -3.044
vt 14 -2
vt 16 -2
vt 13.9484 -1.217
vt 15.9312 -0.9560003
vt 13.7954 -0.4471998
vt 15.7272 0.07040024
vt 13.5434 0.2961998
vt 15.3912 1.0616
vt 13.196 1
vt 14.928 2
vt 12.7604 1.6528
vt 14.3472 2.8704
vt 12.2426 2.2426
vt 13.6568 3.6568
vt 11.6528 2.7604
vt 12.8704 4.3472
vt 11 3.196
vt 12 4.928
vt 10.2962 3.5434
vt 11.0616 5.3912
vt 9.5528 3.7954
vt 10.0704 5.7272
vt 8.783 3.9484
vt 9.044 5.9312
vt 3.217 15.1654
vt 20 16
vt 8 16
vt 7.217 15.1654
vt 2.4472 14.2426
vt 6.4472 14.2426
vt 1.7038 13.2472
vt 5.7038 13.2472
vt 1 12.196
vt 5 12.196
vt 0.3471999 11.1076
vt 4.3472 11.1076
vt -0.2426 10
vt 3.7574 10
vt -0.7603998 8.8924
vt 3.2396 8.8924
vt -1.196 7.804
vt 2.804 7.804
vt -1.5434 6.7528
vt 2.4566 6.7528
vt -1.7954 5.7574
vt 2.2046 5.7574
vt -1.9484 4.8346
vt 2.0516 4.8346
vt -2 4
vt 2 4
vt -1.9484 3.2686
vt 2.0516 3.2686
vt -1.7954 2.6518
vt 2.2046 2.6518
vt -1.5434 2.1604
vt 2.4566 2.1604
vt -1.196 1.804
vt 2.804 1.804
vt -0.7603998 1.5868
vt 3.2396 1.5868
vt -0.2426 1.5148
vt 13.7574 1.5148
vt 9.2396 1.5868
vt 13.2396 1.5868
vt 8.804 1.804
vt 12.804 1.804
vt 8.4566 2.1604
vt 12.4566 2.1604
vt 8.204599 2.6518
vt 12.2046 2.6518
vt 8.0516 3.2686
vt 12.0516 3.2686
vt 8 4
vt 12 4
vt 8.0516 4.8346
vt 12.0516 4.8346
vt 8.204599 5.7574
vt 12.2046 5.7574
vt 8.4566 6.7528
vt 12.4566 6.7528
vt 8.804 7.804
vt 12.804 7.804
vt 9.2396 8.892401
vt 13.2396 8.892401
vt 9.757401 10
vt 13.7574 10
vt 10.3472 11.1076
vt 14.3472 11.1076
vt 11 12.196
vt 15 12.196
vt 11.7038 13.2472
vt 15.7038 13.2472
vt 12.4472 14.2426
vt 16.4472 14.2426
vt 13.217 15.1654
vt 17.217 15.1654
vt 14 16
vt 14 16
vt 9.9484 16.7314
vt 13.9484 16.7314
vt 9.795401 17.3482
vt 13.7954 17.3482
vt 9.5434 17.8396
vt 13.5434 17.8396
vt 9.196 18.196
vt 13.196 18.196
vt 8.7604 18.4132
vt 12.7604 18.4132
vt 8.242599 18.4852
vt 22.2426 18.4852
vt 18.7604 18.4132
vt 22.7604 18.4132
vt 19.196 18.196
vt 23.196 18.196
vt 19.5434 17.8396
vt 23.5434 17.8396
vt 19.7954 17.3482
vt 23.7954 17.3482
vt 19.9484 16.7314
vt 23.9484 16.7314
vt 21.9312 16.8872
vt 22 18
vt 26 18
vt 25.9312 16.8872
vt 21.7272 15.6568
vt 25.7272 15.6568
vt 21.3912 14.3296
vt 25.3912 14.3296
vt 20.928 12.928
vt 24.928 12.928
vt 20.3472 11.4768
vt 24.3472 11.4768
vt 19.6568 10
vt 23.6568 10
vt 18.8704 8.523199
vt 22.8704 8.523199
vt 18 7.072
vt 22 7.072
vt 17.0616 5.6704
vt 21.0616 5.6704
vt 16.0704 4.3432
vt 20.0704 4.3432
vt 15.044 3.1128
vt 19.044 3.1128
vt 14 2
vt 0 2
vt -3.9312 1.0248
vt 0.06879997 1.0248
vt -3.7272 0.2023997
vt 0.2728 0.2023997
vt -3.3912 -0.4527998
vt 0.6087999 -0.4527998
vt -2.928 -0.928
vt 1.072 -0.928
vt -2.3472 -1.2176
vt 1.6528 -1.2176
vt -1.6568 -1.3136
vt 12.3432 -1.3136
vt 7.6528 -1.2176
vt 11.6528 -1.2176
vt 7.072 -0.928
vt 11.072 -0.928
vt 6.6088 -0.4528
vt 10.6088 -0.4528
vt 6.2728 0.2024
vt 10.2728 0.2024
vt 6.0688 1.0248
vt 10.0688 1.0248
vt 6 2
vt 8 2
vt 5.044 3.1128
vt 9.044 3.1128
vt 6.0704 4.3432
vt 10.0704 4.3432
vt 7.0616 5.6704
vt 11.0616 5.6704
vt 8 7.072
vt 12 7.072
vt 8.870399 8.5232
vt 12.8704 8.5232
vt 9.656799 10
vt 13.6568 10
vt 10.3472 11.4768
vt 14.3472 11.4768
vt 10.928 12.928
vt 14.928 12.928
vt 11.3912 14.3296
vt 15.3912 14.3296
vt 11.7272 15.6568
vt 15.7272 15.6568
vt 11.9312 16.8872
vt 15.9312 16.8872
vt 12 18
vt 16 18
vt 11.9312 18.9752
vt 15.9312 18.9752
vt 11.7272 19.7976
vt 15.7272 19.7976
vt 11.3912 20.4528
vt 15.3912 20.4528
vt 10.928 20.928
vt 14.928 20.928
vt 10.3472 21.2176
vt 14.3472 21.2176
vt 9.656799 21.3136
vt 23.6568 21.3136
vt 20.3472 21.2176
vt 24.3472 21.2176
vt 20.928 20.928
vt 24.928 20.928
vt 21.3912 20.4528
vt 25.3912 20.4528
vt 21.7272 19.7976
vt 25.7272 19.7976
vt 21.9312 18.9752
vt 25.9312 18.9752
vt 8 24
vt 7.217 23.9484
vt 6.956 25.9312
vt 8 26
vt 6.4472 23.7954
vt 5.9296 25.7272
vt 5.7038 23.5434
vt 4.9384 25.3912
vt 5 23.196
vt 4 24.928
vt 4.3472 22.7604
vt 3.1296 24.3472
vt 3.7574 22.2426
vt 2.3432 23.6568
vt 3.2396 21.6528
vt 1.6528 22.8704
vt 2.804 21
vt 1.072 22
vt 2.4566 20.2962
vt 0.6087999 21.0616
vt 2.2046 19.5528
vt 0.2728 20.0704
vt 2.0516 18.783
vt 0.06879997 19.044
vt 2 18
vt 0 18
vt 2.0516 17.217
vt 0.06879997 16.956
vt 2.2046 16.4472
vt 0.2728 15.9296
vt 2.4566 15.7038
vt 0.6087999 14.9384
vt 2.804 15
vt 1.072 14
vt 3.2396 14.3472
vt 1.6528 13.1296
vt 3.7574 13.7574
vt 2.3432 12.3432
vt 4.3472 13.2396
vt 3.1296 11.6528
vt 5 12.804
vt 4 11.072
vt 5.7038 12.4566
vt 4.9384 10.6088
vt 6.4472 12.2046
vt 5.9296 10.2728
vt 7.217 12.0516
vt 6.956 10.0688
vt 8 12
vt 8 10
vt 8.783 12.0516
vt 9.044 10.0688
vt 9.5528 12.2046
vt 10.0704 10.2728
vt 10.2962 12.4566
vt 11.0616 10.6088
vt 11 12.804
vt 12 11.072
vt 11.6528 13.2396
vt 12.8704 11.6528
vt 12.2426 13.7574
vt 13.6568 12.3432
vt 12.7604 14.3472
vt 14.3472 13.1296
vt 13.196 15
vt 14.928 14
vt 13.5434 15.7038
vt 15.3912 14.9384
vt 13.7954 16.4472
vt 15.7272 15.9296
vt 13.9484 17.217
vt 15.9312 16.956
vt 14 18
vt 16 18
vt 13.9484 18.783
vt 15.9312 19.044
vt 13.7954 19.5528
vt 15.7272 20.0704
vt 13.5434 20.2962
vt 15.3912 21.0616
vt 13.196 21
vt 14.928 22
vt 12.7604 21.6528
vt 14.3472 22.8704
vt 12.2426 22.2426
vt 13.6568 23.6568
vt 11.6528 22.7604
vt 12.8704 24.3472
vt 11 23.196
vt 12 24.928
vt 10.2962 23.5434
vt 11.0616 25.3912
vt 9.5528 23.7954
vt 10.0704 25.7272
vt 8.783 23.9484
vt 9.044 25.9312
vt 20 30
vt 20 -30
vt -20 -30
vt -20 30
usemtl 15
f 3/3/3 2/2/2 1/1/1
f 1/1/1 4/4/4 3/3/3
f 7/7/7 6/6/6 5/5/5
f 5/5/5 8/8/8 7/7/7
f 11/11/11 10/10/10 9/9/9
f 9/9/9 12/12/12 11/11/11
f 15/15/15 14/14/14 13/13/13
f 13/13/13 16/16/16 15/15/15
f 19/19/19 18/18/18 17/17/17
f 17/17/17 20/20/20 19/19/19
f 23/23/23 22/22/22 21/21/21
f 21/21/21 24/24/24 23/23/23
f 27/27/27 26/26/26 25/25/25
f 25/25/25 28/28/28 27/27/27
f 31/31/31 30/30/30 29/29/29
f 29/29/29 32/32/32 31/31/31
f 33/33/33 34/34/34 35/35/35
f 35/35/35 36/36/36 33/33/33
f 37/37/37 38/38/38 39/39/39
f 39/39/39 40/40/40 37/37/37
f 41/41/41 42/42/42 43/43/43
f 43/43/43 44/44/44 41/41/41
f 45/45/45 46/46/46 47/47/47
f 47/47/47 48/48/48 45/45/45
f 49/49/49 50/50/50 51/51/51
f 51/51/51 52/52/52 49/49/49
f 55/55/55 54/54/54 53/53/53
f 53/53/53 56/56/56 55/55/55
f 59/59/59 58/58/58 57/57/57
f 57/57/57 60/60/60 59/59/59
f 57/57/57 58/58/58 55/55/55
f 55/55/55 56/56/56 57/57/57
f 53/53/53 54/54/54 59/59/59
f 59/59/59 60/60/60 53/53/53
f 63/63/63 62/62/62 61/61/61
f 61/61/61 64/64/64 63/63/63
f 67/67/67 66/66/66 65/65/65
f 65/65/65 68/68/68 67/67/67
f 65/65/65 66/66/66 63/63/63
f 63/63/63 64/64/64 65/65/65
f 61/61/61 62/62/62 67/67/67
f 67/67/67 68/68/68 61/61/61
f 71/71/71 70/70/70 69/69/69
f 69/69/69 72/72/72 71/71/71
f 72/72/72 69/69/69 73/73/73
f 73/73/73 74/74/74 72/72/72
f 74/74/74 73/73/73 75/75/75
f 75/75/75 76/76/76 74/74/74
f 76/76/76 75/75/75 77/77/77
f 77/77/77 78/78/78 76/76/76
f 78/78/78 77/77/77 79/79/79
f 79/79/79 80/80/80 78/78/78
f 80/80/80 79/79/79 81/81/81
f 81/81/81 82/82/82 80/80/80
f 82/82/82 81/81/81 83/83/83
f 83/83/83 84/84/84 82/82/82
f 84/84/84 83/83/83 85/85/85
f 85/85/85 86/86/86 84/84/84
f 86/86/86 85/85/85 87/87/87
f 87/87/87 88/88/88 86/86/86
f 88/88/88 87/87/87 89/89/89
f 89/89/89 90/90/90 88/88/88
f 90/90/90 89/89/89 91/91/91
f 91/91/91 92/92/92 90/90/90
f 92/92/92 91/91/91 93/93/93
f 93/93/93 94/94/94 92/92/92
f 94/94/94 93/93/93 95/95/95
f 95/95/95 96/96/96 94/94/94
f 96/96/96 95/95/95 97/97/97
f 97/97/97 98/98/98 96/96/96
f 98/98/98 97/97/97 99/99/99
f 99/99/99 100/100/100 98/98/98
f 100/100/100 99/99/99 101/101/101
f 101/101/101 102/102/102 100/100/100
f 102/102/102 101/101/101 103/103/103
f 103/103/103 104/104/104 102/102/102
f 104/104/104 103/103/103 105/105/105
f 105/105/105 106/106/106 104/104/104
f 106/106/106 105/105/105 107/107/107
f 107/107/107 108/108/108 106/106/106
f 108/108/108 107/107/107 109/109/109
f 109/109/109 110/110/110 108/108/108
f 110/110/110 109/109/109 111/111/111
f 111/111/111 112/112/112 110/110/110
f 112/112/112 111/111/111 113/113/113
f 113/113/113 114/114/114 112/112/112
f 114/114/114 113/113/113 115/115/115
f 115/115/115 116/116/116 114/114/114
f 116/116/116 115/115/115 117/117/117
f 117/117/117 118/118/118 116/116/116
f 118/118/118 117/117/117 119/119/119
f 119/119/119 120/120/120 118/118/118
f 120/120/120 119/119/119 121/121/121
f 121/121/121 122/122/122 120/120/120
f 122/122/122 121/121/121 123/123/123
f 123/123/123 124/124/124 122/122/122
f 124/124/124 123/123/123 125/125/125
f 125/125/125 126/126/126 124/124/124
f 126/126/126 125/125/125 127/127/127
f 127/127/127 128/128/128 126/126/126
f 128/128/128 127/127/127 129/129/129
f 129/129/129 130/130/130 128/128/128
f 130/130/130 129/129/129 131/131/131
f 131/131/131 132/132/132 130/130/130
f 132/132/132 131/131/131 133/133/133
f 133/133/133 134/134/134 132/132/132
f 134/134/134 133/133/133 135/135/135
f 135/135/135 136/136/136 134/134/134
f 136/136/136 135/135/135 137/137/137
f 137/137/137 138/138/138 136/136/136
f 138/138/138 137/137/137 139/139/139
f 139/139/139 140/140/140 138/138/138
f 140/140/140 139/139/139 141/141/141
f 141/141/141 142/142/142 140/140/140
f 142/142/142 141/141/141 143/143/143
f 143/143/143 144/144/144 142/142/142
f 144/144/144 143/143/143 145/145/145
f 145/145/145 146/146/146 144/144/144
f 146/146/146 145/145/145 147/147/147
f 147/147/147 148/148/148 146/146/146
f 148/148/148 147/147/147 149/149/149
f 149/149/149 150/150/150 148/148/148
f 150/150/150 149/149/149 151/151/151
f 151/151/151 152/152/152 150/150/150
f 152/152/152 151/151/151 153/153/153
f 153/153/153 154/154/154 152/152/152
f 154/154/154 153/153/153 155/155/155
f 155/155/155 156/156/156 154/154/154
f 156/156/156 155/155/155 157/157/157
f 157/157/157 158/158/158 156/156/156
f 158/158/158 157/157/157 159/159/159
f 159/159/159 160/160/160 158/158/158
f 160/160/160 159/159/159 161/161/161
f 161/161/161 162/162/162 160/160/160
f 162/162/162 161/161/161 163/163/163
f 163/163/163 164/164/164 162/162/162
f 164/164/164 163/163/163 70/70/70
f 70/70/70 71/71/71 164/164/164
f 165/165/165 166/166/166 167/167/167
f 167/167/167 168/168/168 165/165/165
f 169/169/169 165/165/165 168/168/168
f 168/168/168 170/170/170 169/169/169
f 171/171/171 169/169/169 170/170/170
f 170/170/170 172/172/172 171/171/171
f 173/173/173 171/171/171 172/172/172
f 172/172/172 174/174/174 173/173/173
f 175/175/175 173/173/173 174/174/174
f 174/174/174 176/176/176 175/175/175
f 177/177/177 175/175/175 176/176/176
f 176/176/176 178/178/178 177/177/177
f 179/179/179 177/177/177 178/178/178
f 178/178/178 180/180/180 179/179/179
f 181/181/181 179/179/179 180/180/180
f 180/180/180 182/182/182 181/181/181
f 183/183/183 181/181/181 182/182/182
f 182/182/182 184/184/184 183/183/183
f 185/185/185 183/183/183 184/184/184
f 184/184/184 186/186/186 185/185/185
f 187/187/187 185/185/185 186/186/186
f 186/186/186 188/188/188 187/187/187
f 189/189/189 187/187/187 188/188/188
f 188/188/188 190/190/190 189/189/189
f 191/191/191 189/189/189 190/190/190
f 190/190/190 192/192/192 191/191/191
f 193/193/193 191/191/191 192/192/192
f 192/192/192 194/194/194 193/193/193
f 195/195/195 193/193/193 194/194/194
f 194/194/194 196/196/196 195/195/195
f 197/197/197 195/195/195 196/196/196
f 196/196/196 198/198/198 197/197/197
f 199/199/199 197/197/197 198/198/198
f 198/198/198 200/200/200 199/199/199
f 201/201/201 199/199/199 200/200/200
f 200/200/200 202/202/202 201/201/201
f 203/203/203 201/201/201 202/202/202
f 202/202/202 204/204/204 203/203/203
f 205/205/205 203/203/203 204/204/204
f 204/204/204 206/206/206 205/205/205
f 207/207/207 205/205/205 206/206/206
f 206/206/206 208/208/208 207/207/207
f 209/209/209 207/207/207 208/208/208
f 208/208/208 210/210/210 209/209/209
f 211/211/211 209/209/209 210/210/210
f 210/210/210 212/212/212 211/211/211
f 213/213/213 211/211/211 212/212/212
f 212/212/212 214/214/214 213/213/213
f 215/215/215 213/213/213 214/214/214
f 214/214/214 216/216/216 215/215/215
f 217/217/217 215/215/215 216/216/216
f 216/216/216 218/218/218 217/217/217
f 219/219/219 217/217/217 218/218/218
f 218/218/218 220/220/220 219/219/219
f 221/221/221 219/219/219 220/220/220
f 220/220/220 222/222/222 221/221/221
f 223/223/223 221/221/221 222/222/222
f 222/222/222 224/224/224 223/223/223
f 225/225/225 223/223/223 224/224/224
f 224/224/224 226/226/226 225/225/225
f 227/227/227 225/225/225 226/226/226
f 226/226/226 228/228/228 227/227/227
f 229/229/229 227/227/227 228/228/228
f 228/228/228 230/230/230 229/229/229
f 231/231/231 229/229/229 230/230/230
f 230/230/230 232/232/232 231/231/231
f 233/233/233 231/231/231 232/232/232
f 232/232/232 234/234/234 233/233/233
f 235/235/235 233/233/233 234/234/234
f 234/234/234 236/236/236 235/235/235
f 237/237/237 235/235/235 236/236/236
f 236/236/236 238/238/238 237/237/237
f 239/239/239 237/237/237 238/238/238
f 238/238/238 240/240/240 239/239/239
f 241/241/241 239/239/239 240/240/240
f 240/240/240 242/242/242 241/241/241
f 243/243/243 241/241/241 242/242/242
f 242/242/242 244/244/244 243/243/243
f 245/245/245 243/243/243 244/244/244
f 244/244/244 246/246/246 245/245/245
f 247/247/247 245/245/245 246/246/246
f 246/246/246 248/248/248 247/247/247
f 249/249/249 247/247/247 248/248/248
f 248/248/248 250/250/250 249/249/249
f 251/251/251 249/249/249 250/250/250
f 250/250/250 252/252/252 251/251/251
f 253/253/253 251/251/251 252/252/252
f 252/252/252 254/254/254 253/253/253
f 255/255/255 253/253/253 254/254/254
f 254/254/254 256/256/256 255/255/255
f 257/257/257 255/255/255 256/256/256
f 256/256/256 258/258/258 257/257/257
f 259/259/259 257/257/257 258/258/258
f 258/258/258 260/260/260 259/259/259
f 166/166/166 259/259/259 260/260/260
f 260/260/260 167/167/167 166/166/166
f 261/261/261 262/262/262 263/263/263
f 263/263/263 264/264/264 261/261/261
f 262/262/262 265/265/265 266/266/266
f 266/266/266 263/263/263 262/262/262
f 265/265/265 267/267/267 268/268/268
f 268/268/268 266/266/266 265/265/265
f 267/267/267 269/269/269 270/270/270
f 270/270/270 268/268/268 267/267/267
f 269/269/269 271/271/271 272/272/272
f 272/272/272 270/270/270 269/269/269
f 271/271/271 273/273/273 274/274/274
f 274/274/274 272/272/272 271/271/271
f 273/273/273 275/275/275 276/276/276
f 276/276/276 274/274/274 273/273/273
f 275/275/275 277/277/277 278/278/278
f 278/278/278 276/276/276 275/275/275
f 277/277/277 279/279/279 280/280/280
f 280/280/280 278/278/278 277/277/277
f 279/279/279 281/281/281 282/282/282
f 282/282/282 280/280/280 279/279/279
f 281/281/281 283/283/283 284/284/284
f 284/284/284 282/282/282 281/281/281
f 283/283/283 285/285/285 286/286/286
f 286/286/286 284/284/284 283/283/283
f 285/285/285 287/287/287 288/288/288
f 288/288/288 286/286/286 285/285/285
f 287/287/287 289/289/289 290/290/290
f 290/290/290 288/288/288 287/287/287
f 289/289/289 291/291/291 292/292/292
f 292/292/292 290/290/290 289/289/289
f 291/291/291 293/293/293 294/294/294
f 294/294/294 292/292/292 291/291/291
f 293/293/293 295/295/295 296/296/296
f 296/296/296 294/294/294 293/293/293
f 295/295/295 297/297/297 298/298/298
f 298/298/298 296/296/296 295/295/295
f 297/297/297 299/299/299 300/300/300
f 300/300/300 298/298/298 297/297/297
f 299/299/299 301/301/301 302/302/302
f 302/302/302 300/300/300 299/299/299
f 301/301/301 303/303/303 304/304/304
f 304/304/304 302/302/302 301/301/301
f 303/303/303 305/305/305 306/306/306
f 306/306/306 304/304/304 303/303/303
f 305/305/305 307/307/307 308/308/308
f 308/308/308 306/306/306 305/305/305
f 307/307/307 309/309/309 310/310/310
f 310/310/310 308/308/308 307/307/307
f 309/309/309 311/311/311 312/312/312
f 312/312/312 310/310/310 309/309/309
f 311/311/311 313/313/313 314/314/314
f 314/314/314 312/312/312 311/311/311
f 313/313/313 315/315/315 316/316/316
f 316/316/316 314/314/314 313/313/313
f 315/315/315 317/317/317 318/318/318
f 318/318/318 316/316/316 315/315/315
f 317/317/317 319/319/319 320/320/320
f 320/320/320 318/318/318 317/317/317
f 319/319/319 321/321/321 322/322/322
f 322/322/322 320/320/320 319/319/319
f 321/321/321 323/323/323 324/324/324
f 324/324/324 322/322/322 321/321/321
f 323/323/323 325/325/325 326/326/326
f 326/326/326 324/324/324 323/323/323
f 325/325/325 327/327/327 328/328/328
f 328/328/328 326/326/326 325/325/325
f 327/327/327 329/329/329 330/330/330
f 330/330/330 328/328/328 327/327/327
f 329/329/329 331/331/331 332/332/332
f 332/332/332 330/330/330 329/329/329
f 331/331/331 333/333/333 334/334/334
f 334/334/334 332/332/332 331/331/331
f 333/333/333 335/335/335 336/336/336
f 336/336/336 334/334/334 333/333/333
f 335/335/335 337/337/337 338/338/338
f 338/338/338 336/336/336 335/335/335
f 337/337/337 339/339/339 340/340/340
f 340/340/340 338/338/338 337/337/337
f 339/339/339 341/341/341 342/342/342
f 342/342/342 340/340/340 339/339/339
f 341/341/341 343/343/343 344/344/344
f 344/344/344 342/342/342 341/341/341
f 343/343/343 345/345/345 346/346/346
f 346/346/346 344/344/344 343/343/343
f 345/345/345 347/347/347 348/348/348
f 348/348/348 346/346/346 345/345/345
f 347/347/347 349/349/349 350/350/350
f 350/350/350 348/348/348 347/347/347
f 349/349/349 351/351/351 352/352/352
f 352/352/352 350/350/350 349/349/349
f 351/351/351 353/353/353 354/354/354
f 354/354/354 352/352/352 351/351/351
f 353/353/353 355/355/355 356/356/356
f 356/356/356 354/354/354 353/353/353
f 355/355/355 261/261/261 264/264/264
f 264/264/264 356/356/356 355/355/355
f 359/359/359 358/358/358 357/357/357
f 357/357/357 360/360/360 359/359/359
f 360/360/360 357/357/357 361/361/361
f 361/361/361 362/362/362 360/360/360
f 362/362/362 361/361/361 363/363/363
f 363/363/363 364/364/364 362/362/362
f 364/364/364 363/363/363 365/365/365
f 365/365/365 366/366/366 364/364/364
f 366/366/366 365/365/365 367/367/367
f 367/367/367 368/368/368 366/366/366
f 368/368/368 367/367/367 369/369/369
f 369/369/369 370/370/370 368/368/368
f 370/370/370 369/369/369 371/371/371
f 371/371/371 372/372/372 370/370/370
f 372/372/372 371/371/371 373/373/373
f 373/373/373 374/374/374 372/372/372
f 374/374/374 373/373/373 375/375/375
f 375/375/375 376/376/376 374/374/374
f 376/376/376 375/375/375 377/377/377
f 377/377/377 378/378/378 376/376/376
f 378/378/378 377/377/377 379/379/379
f 379/379/379 380/380/380 378/378/378
f 380/380/380 379/379/379 381/381/381
f 381/381/381 382/382/382 380/380/380
f 382/382/382 381/381/381 383/383/383
f 383/383/383 384/384/384 382/382/382
f 384/384/384 383/383/383 385/385/385
f 385/385/385 386/386/386 384/384/384
f 386/386/386 385/385/385 387/387/387
f 387/387/387 388/388/388 386/386/386
f 388/388/388 387/387/387 389/389/389
f 389/389/389 390/390/390 388/388/388
f 390/390/390 389/389/389 391/391/391
f 391/391/391 392/392/392 390/390/390
f 392/392/392 391/391/391 393/393/393
f 393/393/393 394/394/394 392/392/392
f 394/394/394 393/393/393 395/395/395
f 395/395/395 396/396/396 394/394/394
f 396/396/396 395/395/395 397/397/397
f 397/397/397 398/398/398 396/396/396
f 398/398/398 397/397/397 399/399/399
f 399/399/399 400/400/400 398/398/398
f 400/400/400 399/399/399 401/401/401
f 401/401/401 402/402/402 400/400/400
f 402/402/402 401/401/401 403/403/403
f 403/403/403 404/404/404 402/402/402
f 404/404/404 403/403/403 405/405/405
f 405/405/405 406/406/406 404/404/404
f 406/406/406 405/405/405 407/407/407
f 407/407/407 408/408/408 406/406/406
f 408/408/408 407/407/407 409/409/409
f 409/409/409 410/410/410 408/408/408
f 410/410/410 409/409/409 411/411/411
f 411/411/411 412/412/412 410/410/410
f 412/412/412 411/411/411 413/413/413
f 413/413/413 414/414/414 412/412/412
f 414/414/414 413/413/413 415/415/415
f 415/415/415 416/416/416 414/414/414
f 416/416/416 415/415/415 417/417/417
f 417/417/417 418/418/418 416/416/416
f 418/418/418 417/417/417 419/419/419
f 419/419/419 420/420/420 418/418/418
f 420/420/420 419/419/419 421/421/421
f 421/421/421 422/422/422 420/420/420
f 422/422/422 421/421/421 423/423/423
f 423/423/423 424/424/424 422/422/422
f 424/424/424 423/423/423 425/425/425
f 425/425/425 426/426/426 424/424/424
f 426/426/426 425/425/425 427/427/427
f 427/427/427 428/428/428 426/426/426
f 428/428/428 427/427/427 429/429/429
f 429/429/429 430/430/430 428/428/428
f 430/430/430 429/429/429 431/431/431
f 431/431/431 432/432/432 430/430/430
f 432/432/432 431/431/431 433/433/433
f 433/433/433 434/434/434 432/432/432
f 434/434/434 433/433/433 435/435/435
f 435/435/435 436/436/436 434/434/434
f 436/436/436 435/435/435 437/437/437
f 437/437/437 438/438/438 436/436/436
f 438/438/438 437/437/437 439/439/439
f 439/439/439 440/440/440 438/438/438
f 440/440/440 439/439/439 441/441/441
f 441/441/441 442/442/442 440/440/440
f 442/442/442 441/441/441 443/443/443
f 443/443/443 444/444/444 442/442/442
f 444/444/444 443/443/443 445/445/445
f 445/445/445 446/446/446 444/444/444
f 446/446/446 445/445/445 447/447/447
f 447/447/447 448/448/448 446/446/446
f 448/448/448 447/447/447 449/449/449
f 449/449/449 450/450/450 448/448/448
f 450/450/450 449/449/449 451/451/451
f 451/451/451 452/452/452 450/450/450
f 452/452/452 451/451/451 358/358/358
f 358/358/358 359/359/359 452/452/452
f 453/453/453 454/454/454 455/455/455
f 455/455/455 456/456/456 453/453/453
f 457/457/457 453/453/453 456/456/456
f 456/456/456 458/458/458 457/457/457
f 459/459/459 457/457/457 458/458/458
f 458/458/458 460/460/460 459/459/459
f 461/461/461 459/459/459 460/460/460
f 460/460/460 462/462/462 461/461/461
f 463/463/463 461/461/461 462/462/462
f 462/462/462 464/464/464 463/463/463
f 465/465/465 463/463/463 464/464/464
f 464/464/464 466/466/466 465/465/465
f 467/467/467 465/465/465 466/466/466
f 466/466/466 468/468/468 467/467/467
f 469/469/469 467/467/467 468/468/468
f 468/468/468 470/470/470 469/469/469
f 471/471/471 469/469/469 470/470/470
f 470/470/470 472/472/472 471/471/471
f 473/473/473 471/471/471 472/472/472
f 472/472/472 474/474/474 473/473/473
f 475/475/475 473/473/473 474/474/474
f 474/474/474 476/476/476 475/475/475
f 477/477/477 475/475/475 476/476/476
f 476/476/476 478/478/478 477/477/477
f 479/479/479 477/477/477 478/478/478
f 478/478/478 480/480/480 479/479/479
f 481/481/481 479/479/479 480/480/480
f 480/480/480 482/482/482 481/481/481
f 483/483/483 481/481/481 482/482/482
f 482/482/482 484/484/484 483/483/483
f 485/485/485 483/483/483 484/484/484
f 484/484/484 486/486/486 485/485/485
f 487/487/487 485/485/485 486/486/486
f 486/486/486 488/488/488 487/487/487
f 489/489/489 487/487/487 488/488/488
f 488/488/488 490/490/490 489/489/489
f 491/491/491 489/489/489 490/490/490
f 490/490/490 492/492/492 491/491/491
f 493/493/493 491/491/491 492/492/492
f 492/492/492 494/494/494 493/493/493
f 495/495/495 493/493/493 494/494/494
f 494/494/494 496/496/496 495/495/495
f 497/497/497 495/495/495 496/496/496
f 496/496/496 498/498/498 497/497/497
f 499/499/499 497/497/497 498/498/498
f 498/498/498 500/500/500 499/499/499
f 501/501/501 499/499/499 500/500/500
f 500/500/500 502/502/502 501/501/501
f 503/503/503 501/501/501 502/502/502
f 502/502/502 504/504/504 503/503/503
f 505/505/505 503/503/503 504/504/504
f 504/504/504 506/506/506 505/505/505
f 507/507/507 505/505/505 506/506/506
f 506/506/506 508/508/508 507/507/507
f 509/509/509 507/507/507 508/508/508
f 508/508/508 510/510/510 509/509/509
f 511/511/511 509/509/509 510/510/510
f 510/510/510 512/512/512 511/511/511
f 513/513/513 511/511/511 512/512/512
f 512/512/512 514/514/514 513/513/513
f 515/515/515 513/513/513 514/514/514
f 514/514/514 516/516/516 515/515/515
f 517/517/517 515/515/515 516/516/516
f 516/516/516 518/518/518 517/517/517
f 519/519/519 517/517/517 518/518/518
f 518/518/518 520/520/520 519/519/519
f 521/521/521 519/519/519 520/520/520
f 520/520/520 522/522/522 521/521/521
f 523/523/523 521/521/521 522/522/522
f 522/522/522 524/524/524 523/523/523
f 525/525/525 523/523/523 524/524/524
f 524/524/524 526/526/526 525/525/525
f 527/527/527 525/525/525 526/526/526
f 526/526/526 528/528/528 527/527/527
f 529/529/529 527/527/527 528/528/528
f 528/528/528 530/530/530 529/529/529
f 531/531/531 529/529/529 530/530/530
f 530/530/530 532/532/532 531/531/531
f 533/533/533 531/531/531 532/532/532
f 532/532/532 534/534/534 533/533/533
f 535/535/535 533/533/533 534/534/534
f 534/534/534 536/536/536 535/535/535
f 537/537/537 535/535/535 536/536/536
f 536/536/536 538/538/538 537/537/537
f 539/539/539 537/537/537 538/538/538
f 538/538/538 540/540/540 539/539/539
f 541/541/541 539/539/539 540/540/540
f 540/540/540 542/542/542 541/541/541
f 543/543/543 541/541/541 542/542/542
f 542/542/542 544/544/544 543/543/543
f 545/545/545 543/543/543 544/544/544
f 544/544/544 546/546/546 545/545/545
f 547/547/547 545/545/545 546/546/546
f 546/546/546 548/548/548 547/547/547
f 454/454/454 547/547/547 548/548/548
f 548/548/548 455/455/455 454/454/454
f 549/549/549 550/550/550 551/551/551
f 551/551/551 552/552/552 549/549/549
f 550/550/550 553/553/553 554/554/554
f 554/554/554 551/551/551 550/550/550
f 553/553/553 555/555/555 556/556/556
f 556/556/556 554/554/554 553/553/553
f 555/555/555 557/557/557 558/558/558
f 558/558/558 556/556/556 555/555/555
f 557/557/557 559/559/559 560/560/560
f 560/560/560 558/558/558 557/557/557
f 559/559/559 561/561/561 562/562/562
f 562/562/562 560/560/560 559/559/559
f 561/561/561 563/563/563 564/564/564
f 564/564/564 562/562/562 561/561/561
f 563/563/563 565/565/565 566/566/566
f 566/566/566 564/564/564 563/563/563
f 565/565/565 567/567/567 568/568/568
f 568/568/568 566/566/566 565/565/565
f 567/567/567 569/569/569 570/570/570
f 570/570/570 568/568/568 567/567/567
f 569/569/569 571/571/571 572/572/572
f 572/572/572 570/570/570 569/569/569
f 571/571/571 573/573/573 574/574/574
f 574/574/574 572/572/572 571/571/571
f 573/573/573 575/575/575 576/576/576
f 576/576/576 574/574/574 573/573/573
f 575/575/575 577/577/577 578/578/578
f 578/578/578 576/576/576 575/575/575
f 577/577/577 579/579/579 580/580/580
f 580/580/580 578/578/578 577/577/577
f 579/579/579 581/581/581 582/582/582
f 582/582/582 580/580/580 579/579/579
f 581/581/581 583/583/583 584/584/584
f 584/584/584 582/582/582 581/581/581
f 583/583/583 585/585/585 586/586/586
f 586/586/586 584/584/584 583/583/583
f 585/585/585 587/587/587 588/588/588
f 588/588/588 586/586/586 585/585/585
f 587/587/587 589/589/589 590/590/590
f 590/590/590 588/588/588 587/587/587
f 589/589/589 591/591/591 592/592/592
f 592/592/592 590/590/590 589/589/589
f 591/591/591 593/593/593 594/594/594
f 594/594/594 592/592/592 591/591/591
f 593/593/593 595/595/595 596/596/596
f 596/596/596 594/594/594 593/593/593
f 595/595/595 597/597/597 598/598/598
f 598/598/598 596/596/596 595/595/595
f 597/597/597 599/599/599 600/600/600
f 600/600/600 598/598/598 597/597/597
f 599/599/599 601/601/601 602/602/602
f 602/602/602 600/600/600 599/599/599
f 601/601/601 603/603/603 604/604/604
f 604/604/604 602/602/602 601/601/601
f 603/603/603 605/605/605 606/606/606
f 606/606/606 604/604/604 603/603/603
f 605/605/605 607/607/607 608/608/608
f 608/608/608 606/606/606 605/605/605
f 607/607/607 609/609/609 610/610/610
f 610/610/610 608/608/608 607/607/607
f 609/609/609 611/611/611 612/612/612
f 612/612/612 610/610/610 609/609/609
f 611/611/611 613/613/613 614/614/614
f 614/614/614 612/612/612 611/611/611
f 613/613/613 615/615/615 616/616/616
f 616/616/616 614/614/614 613/613/613
f 615/615/615 617/617/617 618/618/618
f 618/618/618 616/616/616 615/615/615
f 617/617/617 619/619/619 620/620/620
f 620/620/620 618/618/618 617/617/617
f 619/619/619 621/621/621 622/622/622
f 622/622/622 620/620/620 619/619/619
f 621/621/621 623/623/623 624/624/624
f 624/624/624 622/622/622 621/621/621
f 623/623/623 625/625/625 626/626/626
f 626/626/626 624/624/624 623/623/623
f 625/625/625 627/627/627 628/628/628
f 628/628/628 626/626/626 625/625/625
f 627/627/627 629/629/629 630/630/630
f 630/630/630 628/628/628 627/627/627
f 629/629/629 631/631/631 632/632/632
f 632/632/632 630/630/630 629/629/629
f 631/631/631 633/633/633 634/634/634
f 634/634/634 632/632/632 631/631/631
f 633/633/633 635/635/635 636/636/636
f 636/636/636 634/634/634 633/633/633
f 635/635/635 637/637/637 638/638/638
f 638/638/638 636/636/636 635/635/635
f 637/637/637 639/639/639 640/640/640
f 640/640/640 638/638/638 637/637/637
f 639/639/639 641/641/641 642/642/642
f 642/642/642 640/640/640 639/639/639
f 641/641/641 643/643/643 644/644/644
f 644/644/644 642/642/642 641/641/641
f 643/643/643 549/549/549 552/552/552
f 552/552/552 644/644/644 643/643/643
f 647/647/647 646/646/646 645/645/645
f 645/645/645 648/648/648 647/647/647
