mtllib tile1*1_flat_silver.mtl
v 7.000012 1.830489E-05 10
v 1.119209E-05 1.747042E-05 10.00001
v 8.807909E-06 20.00002 9.999991
v 7.00001 20.00002 9.999985
v 7.00001 20.00002 9.999985
v 8.807909E-06 20.00002 9.999991
v -1.119209E-05 20 -10.00001
v 6.99999 20 -10.00002
v 6.99999 20 -10.00002
v -1.119209E-05 20 -10.00001
v -8.807909E-06 -7.811229E-07 -9.99999
v 6.999992 5.334269E-08 -9.999997
v 6.999992 5.334269E-08 -9.999997
v -8.807909E-06 -7.811229E-07 -9.99999
v 1.119209E-05 1.747042E-05 10.00001
v 7.000012 1.830489E-05 10
v 3.999994 16.00001 -6.000009
v 3.999995 4.000004 -5.999998
v 4.000007 4.000015 6.000002
v 4.000006 16.00002 5.999991
v 4.000007 4.000015 6.000002
v 8.000008 4.000015 5.999999
v 8.000007 16.00002 5.999988
v 4.000006 16.00002 5.999991
v 4.000006 16.00002 5.999991
v 8.000007 16.00002 5.999988
v 7.999994 16.00001 -6.000012
v 3.999994 16.00001 -6.000009
v 3.999994 16.00001 -6.000009
v 7.999994 16.00001 -6.000012
v 7.999996 4.000004 -6.000001
v 3.999995 4.000004 -5.999998
v 3.999995 4.000004 -5.999998
v 7.999996 4.000004 -6.000001
v 8.000008 4.000015 5.999999
v 4.000007 4.000015 6.000002
v 8.000011 1.000018 9.000001
v 7.000011 1.000018 9.000002
v 7.000009 19.00002 8.999986
v 8.000009 19.00002 8.999985
v 8.000009 19.00002 8.999985
v 7.000009 19.00002 8.999986
v 6.999991 19 -9.000014
v 7.999991 19 -9.000015
v 7.999991 19 -9.000015
v 6.999991 19 -9.000014
v 6.999993 1.000001 -8.999998
v 7.999993 1.000001 -8.999999
v 7.999993 1.000001 -8.999999
v 6.999993 1.000001 -8.999998
v 7.000011 1.000018 9.000002
v 8.000011 1.000018 9.000001
v 8.000009 19.00002 8.999985
v 8.000007 16.00002 5.999988
v 8.000008 4.000015 5.999999
v 8.000011 1.000018 9.000001
v 7.999991 19 -9.000015
v 7.999994 16.00001 -6.000012
v 7.999993 1.000001 -8.999999
v 7.999996 4.000004 -6.000001
v 7.00001 20.00002 9.999985
v 7.000009 19.00002 8.999986
v 7.000011 1.000018 9.000002
v 7.000012 1.830489E-05 10
v 6.99999 20 -10.00002
v 6.999991 19 -9.000014
v 6.999992 5.334269E-08 -9.999997
v 6.999993 1.000001 -8.999998
v 1.119209E-05 1.747042E-05 10.00001
v -8.807909E-06 -7.811229E-07 -9.99999
v -1.119209E-05 20 -10.00001
v 8.807909E-06 20.00002 9.999991
vn 1E-06 9.125773E-07 1
vn 1E-06 9.125773E-07 1
vn 1E-06 9.125773E-07 1
vn 1E-06 9.125773E-07 1
vn -1.192093E-07 1 -9.125773E-07
vn -1.192093E-07 1 -9.125773E-07
vn -1.192093E-07 1 -9.125773E-07
vn -1.192093E-07 1 -9.125773E-07
vn -1E-06 -9.125773E-07 -1
vn -1E-06 -9.125773E-07 -1
vn -1E-06 -9.125773E-07 -1
vn -1E-06 -9.125773E-07 -1
vn 1.192093E-07 -1 9.125773E-07
vn 1.192093E-07 -1 9.125773E-07
vn 1.192093E-07 -1 9.125773E-07
vn 1.192093E-07 -1 9.125773E-07
vn 1 1.192094E-07 -1E-06
vn 1 1.192094E-07 -1E-06
vn 1 1.192094E-07 -1E-06
vn 1 1.192094E-07 -1E-06
vn -1E-06 -9.125773E-07 -1
vn -1E-06 -9.125773E-07 -1
vn -1E-06 -9.125773E-07 -1
vn -1E-06 -9.125773E-07 -1
vn 1.192093E-07 -1 9.125773E-07
vn 1.192093E-07 -1 9.125773E-07
vn 1.192093E-07 -1 9.125773E-07
vn 1.192093E-07 -1 9.125773E-07
vn 1E-06 9.125773E-07 1
vn 1E-06 9.125773E-07 1
vn 1E-06 9.125773E-07 1
vn 1E-06 9.125773E-07 1
vn -1.192093E-07 1 -9.125773E-07
vn -1.192093E-07 1 -9.125773E-07
vn -1.192093E-07 1 -9.125773E-07
vn -1.192093E-07 1 -9.125773E-07
vn 1E-06 9.125773E-07 1
vn 1E-06 9.125773E-07 1
vn 1E-06 9.125773E-07 1
vn 1E-06 9.125773E-07 1
vn -1.192093E-07 1 -9.125773E-07
vn -1.192093E-07 1 -9.125773E-07
vn -1.192093E-07 1 -9.125773E-07
vn -1.192093E-07 1 -9.125773E-07
vn -1E-06 -9.125773E-07 -1
vn -1E-06 -9.125773E-07 -1
vn -1E-06 -9.125773E-07 -1
vn -1E-06 -9.125773E-07 -1
vn 1.192093E-07 -1 9.125773E-07
vn 1.192093E-07 -1 9.125773E-07
vn 1.192093E-07 -1 9.125773E-07
vn 1.192093E-07 -1 9.125773E-07
vn 1 1.192094E-07 -1E-06
vn 1 1.192094E-07 -1E-06
vn 1 1.192094E-07 -1E-06
vn 1 1.192094E-07 -1E-06
vn 1 1.192094E-07 -1E-06
vn 1 1.192094E-07 -1E-06
vn 1 1.192094E-07 -1E-06
vn 1 1.192094E-07 -1E-06
vn 1 1.192094E-07 -1E-06
vn 1 1.192094E-07 -1E-06
vn 1 1.192094E-07 -1E-06
vn 1 1.192094E-07 -1E-06
vn 1 1.192094E-07 -1E-06
vn 1 1.192094E-07 -1E-06
vn 1 1.192094E-07 -1E-06
vn 1 1.192094E-07 -1E-06
vn -1 -1.192094E-07 1E-06
vn -1 -1.192094E-07 1E-06
vn -1 -1.192094E-07 1E-06
vn -1 -1.192094E-07 1E-06
vt -3 0
vt -10 0
vt -10 -20
vt -3 -20
vt -3 -20
vt -10 -20
vt -10 0
vt -3 0
vt 17 0
vt 10 0
vt 10 20
vt 17 20
vt 17 20
vt 10 20
vt 10 0
vt 17 0
vt 10 -2
vt 10 10
vt -2 10
vt -2 -2
vt -2 0
vt 2 0
vt 2 -12
vt -2 -12
vt -2 -12
vt 2 -12
vt 2 0
vt -2 0
vt 10 0
vt 14 0
vt 14 12
vt 10 12
vt 10 12
vt 14 12
vt 14 0
vt 10 0
vt -1 0
vt -2 0
vt -2 -18
vt -1 -18
vt -1 -18
vt -2 -18
vt -2 0
vt -1 0
vt 17 0
vt 16 0
vt 16 18
vt 17 18
vt 17 18
vt 16 18
vt 16 0
vt 17 0
vt -1 -1
vt 2 2
vt 2 14
vt -1 17
vt 17 -1
vt 14 2
vt 17 17
vt 14 14
vt -3 -3
vt -2 -2
vt -2 16
vt -3 17
vt 17 -3
vt 16 -2
vt 17 17
vt 16 16
vt -10 10
vt 10 10
vt 10 -10
vt -10 -10
usemtl 179
f 3/3/3 2/2/2 1/1/1
f 1/1/1 4/4/4 3/3/3
f 7/7/7 6/6/6 5/5/5
f 5/5/5 8/8/8 7/7/7
f 11/11/11 10/10/10 9/9/9
f 9/9/9 12/12/12 11/11/11
f 15/15/15 14/14/14 13/13/13
f 13/13/13 16/16/16 15/15/15
f 19/19/19 18/18/18 17/17/17
f 17/17/17 20/20/20 19/19/19
f 23/23/23 22/22/22 21/21/21
f 21/21/21 24/24/24 23/23/23
f 27/27/27 26/26/26 25/25/25
f 25/25/25 28/28/28 27/27/27
f 31/31/31 30/30/30 29/29/29
f 29/29/29 32/32/32 31/31/31
f 35/35/35 34/34/34 33/33/33
f 33/33/33 36/36/36 35/35/35
f 39/39/39 38/38/38 37/37/37
f 37/37/37 40/40/40 39/39/39
f 43/43/43 42/42/42 41/41/41
f 41/41/41 44/44/44 43/43/43
f 47/47/47 46/46/46 45/45/45
f 45/45/45 48/48/48 47/47/47
f 51/51/51 50/50/50 49/49/49
f 49/49/49 52/52/52 51/51/51
f 55/55/55 54/54/54 53/53/53
f 53/53/53 56/56/56 55/55/55
f 54/54/54 58/58/58 57/57/57
f 57/57/57 53/53/53 54/54/54
f 58/58/58 60/60/60 59/59/59
f 59/59/59 57/57/57 58/58/58
f 60/60/60 55/55/55 56/56/56
f 56/56/56 59/59/59 60/60/60
f 63/63/63 62/62/62 61/61/61
f 61/61/61 64/64/64 63/63/63
f 62/62/62 66/66/66 65/65/65
f 65/65/65 61/61/61 62/62/62
f 66/66/66 68/68/68 67/67/67
f 67/67/67 65/65/65 66/66/66
f 68/68/68 63/63/63 64/64/64
f 64/64/64 67/67/67 68/68/68
f 71/71/71 70/70/70 69/69/69
f 69/69/69 72/72/72 71/71/71
