mtllib tile1*6_magenta.mtl
v 8 9.477996 43.9656
v 8 9.999996 44
v 8 9.999996 40
v 8 8.964796 43.8636
v 8 8.469196 43.6956
v 8 7.999996 43.464
v 8 7.564796 43.1736
v 8 7.171597 42.8284
v 8 6.826396 42.4352
v 8 6.535996 42
v 8 6.304397 41.5308
v 8 6.136396 41.0352
v 8 6.034397 40.522
v 8 5.999997 40
v 8 6.034397 39.478
v 8 6.136396 38.9648
v 8 6.304397 38.4692
v 8 6.535997 38
v 8 6.826397 37.5648
v 8 7.171597 37.1716
v 8 7.564797 36.8264
v 8 7.999997 36.536
v 8 8.469197 36.3044
v 8 8.964797 36.1364
v 8 9.477997 36.0344
v 8 9.999997 36
v 8 10.522 36.0344
v 8 11.0352 36.1364
v 8 11.5308 36.3044
v 8 12 36.536
v 8 12.4352 36.8264
v 8 12.8284 37.1716
v 8 13.1736 37.5648
v 8 13.464 38
v 8 13.6956 38.4692
v 8 13.8636 38.9648
v 8 13.9656 39.478
v 8 14 40
v 8 13.9656 40.522
v 8 13.8636 41.0352
v 8 13.6956 41.5308
v 8 13.464 42
v 8 13.1736 42.4352
v 8 12.8284 42.8284
v 8 12.4352 43.1736
v 8 12 43.464
v 8 11.5308 43.6956
v 8 11.0352 43.8636
v 8 10.522 43.9656
v 4 9.477996 43.9656
v 4 9.999996 44
v 8 9.999996 44
v 8 9.477996 43.9656
v 4 8.964796 43.8636
v 8 8.964796 43.8636
v 4 8.469196 43.6956
v 8 8.469196 43.6956
v 4 7.999996 43.464
v 8 7.999996 43.464
v 4 7.564796 43.1736
v 8 7.564796 43.1736
v 4 7.171597 42.8284
v 8 7.171597 42.8284
v 4 6.826396 42.4352
v 8 6.826396 42.4352
v 4 6.535996 42
v 8 6.535996 42
v 4 6.304396 41.5308
v 8 6.304396 41.5308
v 4 6.136396 41.0352
v 8 6.136396 41.0352
v 4 6.034397 40.522
v 8 6.034397 40.522
v 4 5.999997 40
v 8 5.999997 40
v 4 6.034397 39.478
v 8 6.034397 39.478
v 4 6.136396 38.9648
v 8 6.136396 38.9648
v 4 6.304397 38.4692
v 8 6.304397 38.4692
v 4 6.535997 38
v 8 6.535997 38
v 4 6.826397 37.5648
v 8 6.826397 37.5648
v 4 7.171597 37.1716
v 8 7.171597 37.1716
v 4 7.564797 36.8264
v 8 7.564797 36.8264
v 4 7.999997 36.536
v 8 7.999997 36.536
v 4 8.469197 36.3044
v 8 8.469197 36.3044
v 4 8.964797 36.1364
v 8 8.964797 36.1364
v 4 9.477997 36.0344
v 8 9.477997 36.0344
v 4 9.999997 36
v 8 9.999997 36
v 4 10.522 36.0344
v 8 10.522 36.0344
v 4 11.0352 36.1364
v 8 11.0352 36.1364
v 4 11.5308 36.3044
v 8 11.5308 36.3044
v 4 12 36.536
v 8 12 36.536
v 4 12.4352 36.8264
v 8 12.4352 36.8264
v 4 12.8284 37.1716
v 8 12.8284 37.1716
v 4 13.1736 37.5648
v 8 13.1736 37.5648
v 4 13.464 38
v 8 13.464 38
v 4 13.6956 38.4692
v 8 13.6956 38.4692
v 4 13.8636 38.9648
v 8 13.8636 38.9648
v 4 13.9656 39.478
v 8 13.9656 39.478
v 4 14 40
v 8 14 40
v 4 13.9656 40.522
v 8 13.9656 40.522
v 4 13.8636 41.0352
v 8 13.8636 41.0352
v 4 13.6956 41.5308
v 8 13.6956 41.5308
v 4 13.464 42
v 8 13.464 42
v 4 13.1736 42.4352
v 8 13.1736 42.4352
v 4 12.8284 42.8284
v 8 12.8284 42.8284
v 4 12.4352 43.1736
v 8 12.4352 43.1736
v 4 12 43.464
v 8 12 43.464
v 4 11.5308 43.6956
v 8 11.5308 43.6956
v 4 11.0352 43.8636
v 8 11.0352 43.8636
v 4 10.522 43.9656
v 8 10.522 43.9656
v 8 9.477998 23.9656
v 8 9.999998 24
v 8 9.999998 20
v 8 8.964798 23.8636
v 8 8.469198 23.6956
v 8 7.999998 23.464
v 8 7.564798 23.1736
v 8 7.171598 22.8284
v 8 6.826398 22.4352
v 8 6.535998 22
v 8 6.304399 21.5308
v 8 6.136398 21.0352
v 8 6.034398 20.522
v 8 5.999998 20
v 8 6.034398 19.478
v 8 6.136398 18.9648
v 8 6.304399 18.4692
v 8 6.535998 18
v 8 6.826398 17.5648
v 8 7.171598 17.1716
v 8 7.564798 16.8264
v 8 7.999999 16.536
v 8 8.469198 16.3044
v 8 8.964799 16.1364
v 8 9.477999 16.0344
v 8 9.999999 16
v 8 10.522 16.0344
v 8 11.0352 16.1364
v 8 11.5308 16.3044
v 8 12 16.536
v 8 12.4352 16.8264
v 8 12.8284 17.1716
v 8 13.1736 17.5648
v 8 13.464 18
v 8 13.6956 18.4692
v 8 13.8636 18.9648
v 8 13.9656 19.478
v 8 14 20
v 8 13.9656 20.522
v 8 13.8636 21.0352
v 8 13.6956 21.5308
v 8 13.464 22
v 8 13.1736 22.4352
v 8 12.8284 22.8284
v 8 12.4352 23.1736
v 8 12 23.464
v 8 11.5308 23.6956
v 8 11.0352 23.8636
v 8 10.522 23.9656
v 4 9.477998 23.9656
v 4 9.999998 24
v 8 9.999998 24
v 8 9.477998 23.9656
v 4 8.964798 23.8636
v 8 8.964798 23.8636
v 4 8.469198 23.6956
v 8 8.469198 23.6956
v 4 7.999998 23.464
v 8 7.999998 23.464
v 4 7.564798 23.1736
v 8 7.564798 23.1736
v 4 7.171598 22.8284
v 8 7.171598 22.8284
v 4 6.826398 22.4352
v 8 6.826398 22.4352
v 4 6.535998 22
v 8 6.535998 22
v 4 6.304398 21.5308
v 8 6.304398 21.5308
v 4 6.136398 21.0352
v 8 6.136398 21.0352
v 4 6.034398 20.522
v 8 6.034398 20.522
v 4 5.999998 20
v 8 5.999998 20
v 4 6.034398 19.478
v 8 6.034398 19.478
v 4 6.136398 18.9648
v 8 6.136398 18.9648
v 4 6.304399 18.4692
v 8 6.304399 18.4692
v 4 6.535998 18
v 8 6.535998 18
v 4 6.826398 17.5648
v 8 6.826398 17.5648
v 4 7.171598 17.1716
v 8 7.171598 17.1716
v 4 7.564798 16.8264
v 8 7.564798 16.8264
v 4 7.999999 16.536
v 8 7.999999 16.536
v 4 8.469198 16.3044
v 8 8.469198 16.3044
v 4 8.964799 16.1364
v 8 8.964799 16.1364
v 4 9.477999 16.0344
v 8 9.477999 16.0344
v 4 9.999999 16
v 8 9.999999 16
v 4 10.522 16.0344
v 8 10.522 16.0344
v 4 11.0352 16.1364
v 8 11.0352 16.1364
v 4 11.5308 16.3044
v 8 11.5308 16.3044
v 4 12 16.536
v 8 12 16.536
v 4 12.4352 16.8264
v 8 12.4352 16.8264
v 4 12.8284 17.1716
v 8 12.8284 17.1716
v 4 13.1736 17.5648
v 8 13.1736 17.5648
v 4 13.464 18
v 8 13.464 18
v 4 13.6956 18.4692
v 8 13.6956 18.4692
v 4 13.8636 18.9648
v 8 13.8636 18.9648
v 4 13.9656 19.478
v 8 13.9656 19.478
v 4 14 20
v 8 14 20
v 4 13.9656 20.522
v 8 13.9656 20.522
v 4 13.8636 21.0352
v 8 13.8636 21.0352
v 4 13.6956 21.5308
v 8 13.6956 21.5308
v 4 13.464 22
v 8 13.464 22
v 4 13.1736 22.4352
v 8 13.1736 22.4352
v 4 12.8284 22.8284
v 8 12.8284 22.8284
v 4 12.4352 23.1736
v 8 12.4352 23.1736
v 4 12 23.464
v 8 12 23.464
v 4 11.5308 23.6956
v 8 11.5308 23.6956
v 4 11.0352 23.8636
v 8 11.0352 23.8636
v 4 10.522 23.9656
v 8 10.522 23.9656
v 8 9.478 3.965601
v 8 10 4.000001
v 8 10 8.742278E-07
v 8 8.9648 3.863601
v 8 8.4692 3.695601
v 8 8 3.464001
v 8 7.5648 3.173601
v 8 7.1716 2.828401
v 8 6.8264 2.435201
v 8 6.536 2
v 8 6.3044 1.530801
v 8 6.1364 1.035201
v 8 6.0344 0.5220006
v 8 6 5.245367E-07
v 8 6.0344 -0.5219995
v 8 6.1364 -1.035199
v 8 6.3044 -1.530799
v 8 6.536 -1.999999
v 8 6.8264 -2.435199
v 8 7.1716 -2.828399
v 8 7.5648 -3.173599
v 8 8 -3.463999
v 8 8.4692 -3.695599
v 8 8.9648 -3.863599
v 8 9.478001 -3.965599
v 8 10 -3.999999
v 8 10.522 -3.965599
v 8 11.0352 -3.863599
v 8 11.5308 -3.695599
v 8 12 -3.463999
v 8 12.4352 -3.173599
v 8 12.8284 -2.828399
v 8 13.1736 -2.435199
v 8 13.464 -1.999999
v 8 13.6956 -1.530799
v 8 13.8636 -1.035199
v 8 13.9656 -0.5219988
v 8 14 1.223919E-06
v 8 13.9656 0.5220012
v 8 13.8636 1.035201
v 8 13.6956 1.530801
v 8 13.464 2.000001
v 8 13.1736 2.435201
v 8 12.8284 2.828401
v 8 12.4352 3.173601
v 8 12 3.464001
v 8 11.5308 3.695601
v 8 11.0352 3.863601
v 8 10.522 3.965601
v 4 9.478 3.965601
v 4 10 4.000001
v 8 10 4.000001
v 8 9.478 3.965601
v 4 8.9648 3.863601
v 8 8.9648 3.863601
v 4 8.4692 3.695601
v 8 8.4692 3.695601
v 4 8 3.464001
v 8 8 3.464001
v 4 7.5648 3.173601
v 8 7.5648 3.173601
v 4 7.1716 2.828401
v 8 7.1716 2.828401
v 4 6.8264 2.435201
v 8 6.8264 2.435201
v 4 6.536 2
v 8 6.536 2
v 4 6.3044 1.530801
v 8 6.3044 1.530801
v 4 6.1364 1.035201
v 8 6.1364 1.035201
v 4 6.0344 0.5220006
v 8 6.0344 0.5220006
v 4 6 5.245367E-07
v 8 6 5.245367E-07
v 4 6.0344 -0.5219995
v 8 6.0344 -0.5219995
v 4 6.1364 -1.035199
v 8 6.1364 -1.035199
v 4 6.3044 -1.530799
v 8 6.3044 -1.530799
v 4 6.536 -1.999999
v 8 6.536 -1.999999
v 4 6.8264 -2.435199
v 8 6.8264 -2.435199
v 4 7.1716 -2.828399
v 8 7.1716 -2.828399
v 4 7.5648 -3.173599
v 8 7.5648 -3.173599
v 4 8 -3.463999
v 8 8 -3.463999
v 4 8.4692 -3.695599
v 8 8.4692 -3.695599
v 4 8.9648 -3.863599
v 8 8.9648 -3.863599
v 4 9.478001 -3.965599
v 8 9.478001 -3.965599
v 4 10 -3.999999
v 8 10 -3.999999
v 4 10.522 -3.965599
v 8 10.522 -3.965599
v 4 11.0352 -3.863599
v 8 11.0352 -3.863599
v 4 11.5308 -3.695599
v 8 11.5308 -3.695599
v 4 12 -3.463999
v 8 12 -3.463999
v 4 12.4352 -3.173599
v 8 12.4352 -3.173599
v 4 12.8284 -2.828399
v 8 12.8284 -2.828399
v 4 13.1736 -2.435199
v 8 13.1736 -2.435199
v 4 13.464 -1.999999
v 8 13.464 -1.999999
v 4 13.6956 -1.530799
v 8 13.6956 -1.530799
v 4 13.8636 -1.035199
v 8 13.8636 -1.035199
v 4 13.9656 -0.5219988
v 8 13.9656 -0.5219988
v 4 14 1.223919E-06
v 8 14 1.223919E-06
v 4 13.9656 0.5220012
v 8 13.9656 0.5220012
v 4 13.8636 1.035201
v 8 13.8636 1.035201
v 4 13.6956 1.530801
v 8 13.6956 1.530801
v 4 13.464 2.000001
v 8 13.464 2.000001
v 4 13.1736 2.435201
v 8 13.1736 2.435201
v 4 12.8284 2.828401
v 8 12.8284 2.828401
v 4 12.4352 3.173601
v 8 12.4352 3.173601
v 4 12 3.464001
v 8 12 3.464001
v 4 11.5308 3.695601
v 8 11.5308 3.695601
v 4 11.0352 3.863601
v 8 11.0352 3.863601
v 4 10.522 3.965601
v 8 10.522 3.965601
v 8 9.478002 -16.0344
v 8 10 -16
v 8 10 -20
v 8 8.964802 -16.1364
v 8 8.469201 -16.3044
v 8 8.000002 -16.536
v 8 7.564802 -16.8264
v 8 7.171602 -17.1716
v 8 6.826402 -17.5648
v 8 6.536002 -18
v 8 6.304402 -18.4692
v 8 6.136402 -18.9648
v 8 6.034402 -19.478
v 8 6.000002 -20
v 8 6.034402 -20.522
v 8 6.136402 -21.0352
v 8 6.304402 -21.5308
v 8 6.536002 -22
v 8 6.826402 -22.4352
v 8 7.171602 -22.8284
v 8 7.564802 -23.1736
v 8 8.000002 -23.464
v 8 8.469202 -23.6956
v 8 8.964802 -23.8636
v 8 9.478003 -23.9656
v 8 10 -24
v 8 10.522 -23.9656
v 8 11.0352 -23.8636
v 8 11.5308 -23.6956
v 8 12 -23.464
v 8 12.4352 -23.1736
v 8 12.8284 -22.8284
v 8 13.1736 -22.4352
v 8 13.464 -22
v 8 13.6956 -21.5308
v 8 13.8636 -21.0352
v 8 13.9656 -20.522
v 8 14 -20
v 8 13.9656 -19.478
v 8 13.8636 -18.9648
v 8 13.6956 -18.4692
v 8 13.464 -18
v 8 13.1736 -17.5648
v 8 12.8284 -17.1716
v 8 12.4352 -16.8264
v 8 12 -16.536
v 8 11.5308 -16.3044
v 8 11.0352 -16.1364
v 8 10.522 -16.0344
v 4 9.478002 -16.0344
v 4 10 -16
v 8 10 -16
v 8 9.478002 -16.0344
v 4 8.964802 -16.1364
v 8 8.964802 -16.1364
v 4 8.469201 -16.3044
v 8 8.469201 -16.3044
v 4 8.000002 -16.536
v 8 8.000002 -16.536
v 4 7.564802 -16.8264
v 8 7.564802 -16.8264
v 4 7.171602 -17.1716
v 8 7.171602 -17.1716
v 4 6.826402 -17.5648
v 8 6.826402 -17.5648
v 4 6.536002 -18
v 8 6.536002 -18
v 4 6.304401 -18.4692
v 8 6.304401 -18.4692
v 4 6.136402 -18.9648
v 8 6.136402 -18.9648
v 4 6.034402 -19.478
v 8 6.034402 -19.478
v 4 6.000002 -20
v 8 6.000002 -20
v 4 6.034402 -20.522
v 8 6.034402 -20.522
v 4 6.136402 -21.0352
v 8 6.136402 -21.0352
v 4 6.304402 -21.5308
v 8 6.304402 -21.5308
v 4 6.536002 -22
v 8 6.536002 -22
v 4 6.826402 -22.4352
v 8 6.826402 -22.4352
v 4 7.171602 -22.8284
v 8 7.171602 -22.8284
v 4 7.564802 -23.1736
v 8 7.564802 -23.1736
v 4 8.000002 -23.464
v 8 8.000002 -23.464
v 4 8.469202 -23.6956
v 8 8.469202 -23.6956
v 4 8.964802 -23.8636
v 8 8.964802 -23.8636
v 4 9.478003 -23.9656
v 8 9.478003 -23.9656
v 4 10 -24
v 8 10 -24
v 4 10.522 -23.9656
v 8 10.522 -23.9656
v 4 11.0352 -23.8636
v 8 11.0352 -23.8636
v 4 11.5308 -23.6956
v 8 11.5308 -23.6956
v 4 12 -23.464
v 8 12 -23.464
v 4 12.4352 -23.1736
v 8 12.4352 -23.1736
v 4 12.8284 -22.8284
v 8 12.8284 -22.8284
v 4 13.1736 -22.4352
v 8 13.1736 -22.4352
v 4 13.464 -22
v 8 13.464 -22
v 4 13.6956 -21.5308
v 8 13.6956 -21.5308
v 4 13.8636 -21.0352
v 8 13.8636 -21.0352
v 4 13.9656 -20.522
v 8 13.9656 -20.522
v 4 14 -20
v 8 14 -20
v 4 13.9656 -19.478
v 8 13.9656 -19.478
v 4 13.8636 -18.9648
v 8 13.8636 -18.9648
v 4 13.6956 -18.4692
v 8 13.6956 -18.4692
v 4 13.464 -18
v 8 13.464 -18
v 4 13.1736 -17.5648
v 8 13.1736 -17.5648
v 4 12.8284 -17.1716
v 8 12.8284 -17.1716
v 4 12.4352 -16.8264
v 8 12.4352 -16.8264
v 4 12 -16.536
v 8 12 -16.536
v 4 11.5308 -16.3044
v 8 11.5308 -16.3044
v 4 11.0352 -16.1364
v 8 11.0352 -16.1364
v 4 10.522 -16.0344
v 8 10.522 -16.0344
v 8 9.478004 -36.0344
v 8 10 -36
v 8 10 -40
v 8 8.964803 -36.1364
v 8 8.469203 -36.3044
v 8 8.000003 -36.536
v 8 7.564803 -36.8264
v 8 7.171603 -37.1716
v 8 6.826403 -37.5648
v 8 6.536003 -38
v 8 6.304404 -38.4692
v 8 6.136404 -38.9648
v 8 6.034403 -39.478
v 8 6.000003 -40
v 8 6.034403 -40.522
v 8 6.136404 -41.0352
v 8 6.304404 -41.5308
v 8 6.536004 -42
v 8 6.826404 -42.4352
v 8 7.171604 -42.8284
v 8 7.564804 -43.1736
v 8 8.000004 -43.464
v 8 8.469204 -43.6956
v 8 8.964804 -43.8636
v 8 9.478004 -43.9656
v 8 10 -44
v 8 10.522 -43.9656
v 8 11.0352 -43.8636
v 8 11.5308 -43.6956
v 8 12 -43.464
v 8 12.4352 -43.1736
v 8 12.8284 -42.8284
v 8 13.1736 -42.4352
v 8 13.464 -42
v 8 13.6956 -41.5308
v 8 13.8636 -41.0352
v 8 13.9656 -40.522
v 8 14 -40
v 8 13.9656 -39.478
v 8 13.8636 -38.9648
v 8 13.6956 -38.4692
v 8 13.464 -38
v 8 13.1736 -37.5648
v 8 12.8284 -37.1716
v 8 12.4352 -36.8264
v 8 12 -36.536
v 8 11.5308 -36.3044
v 8 11.0352 -36.1364
v 8 10.522 -36.0344
v 4 9.478004 -36.0344
v 4 10 -36
v 8 10 -36
v 8 9.478004 -36.0344
v 4 8.964803 -36.1364
v 8 8.964803 -36.1364
v 4 8.469203 -36.3044
v 8 8.469203 -36.3044
v 4 8.000003 -36.536
v 8 8.000003 -36.536
v 4 7.564803 -36.8264
v 8 7.564803 -36.8264
v 4 7.171603 -37.1716
v 8 7.171603 -37.1716
v 4 6.826403 -37.5648
v 8 6.826403 -37.5648
v 4 6.536003 -38
v 8 6.536003 -38
v 4 6.304403 -38.4692
v 8 6.304403 -38.4692
v 4 6.136404 -38.9648
v 8 6.136404 -38.9648
v 4 6.034403 -39.478
v 8 6.034403 -39.478
v 4 6.000003 -40
v 8 6.000003 -40
v 4 6.034403 -40.522
v 8 6.034403 -40.522
v 4 6.136404 -41.0352
v 8 6.136404 -41.0352
v 4 6.304404 -41.5308
v 8 6.304404 -41.5308
v 4 6.536004 -42
v 8 6.536004 -42
v 4 6.826404 -42.4352
v 8 6.826404 -42.4352
v 4 7.171604 -42.8284
v 8 7.171604 -42.8284
v 4 7.564804 -43.1736
v 8 7.564804 -43.1736
v 4 8.000004 -43.464
v 8 8.000004 -43.464
v 4 8.469204 -43.6956
v 8 8.469204 -43.6956
v 4 8.964804 -43.8636
v 8 8.964804 -43.8636
v 4 9.478004 -43.9656
v 8 9.478004 -43.9656
v 4 10 -44
v 8 10 -44
v 4 10.522 -43.9656
v 8 10.522 -43.9656
v 4 11.0352 -43.8636
v 8 11.0352 -43.8636
v 4 11.5308 -43.6956
v 8 11.5308 -43.6956
v 4 12 -43.464
v 8 12 -43.464
v 4 12.4352 -43.1736
v 8 12.4352 -43.1736
v 4 12.8284 -42.8284
v 8 12.8284 -42.8284
v 4 13.1736 -42.4352
v 8 13.1736 -42.4352
v 4 13.464 -42
v 8 13.464 -42
v 4 13.6956 -41.5308
v 8 13.6956 -41.5308
v 4 13.8636 -41.0352
v 8 13.8636 -41.0352
v 4 13.9656 -40.522
v 8 13.9656 -40.522
v 4 14 -40
v 8 14 -40
v 4 13.9656 -39.478
v 8 13.9656 -39.478
v 4 13.8636 -38.9648
v 8 13.8636 -38.9648
v 4 13.6956 -38.4692
v 8 13.6956 -38.4692
v 4 13.464 -38
v 8 13.464 -38
v 4 13.1736 -37.5648
v 8 13.1736 -37.5648
v 4 12.8284 -37.1716
v 8 12.8284 -37.1716
v 4 12.4352 -36.8264
v 8 12.4352 -36.8264
v 4 12 -36.536
v 8 12 -36.536
v 4 11.5308 -36.3044
v 8 11.5308 -36.3044
v 4 11.0352 -36.1364
v 8 11.0352 -36.1364
v 4 10.522 -36.0344
v 8 10.522 -36.0344
v 0 19.99999 60
v 7 19.99999 60
v 7 20.00001 -60
v 0 20.00001 -60
v 0 20.00001 -60
v 7 20.00001 -60
v 7 5.245367E-06 -60
v 0 5.245367E-06 -60
v 0 5.245367E-06 -60
v 7 5.245367E-06 -60
v 7 -5.245367E-06 60
v 0 -5.245367E-06 60
v 0 -5.245367E-06 60
v 7 -5.245367E-06 60
v 7 19.99999 60
v 0 19.99999 60
v 4 4.000005 -56
v 4 3.999995 56
v 4 16 56
v 4 16.00001 -56
v 4 16 56
v 8 16 56
v 8 16.00001 -56
v 4 16.00001 -56
v 4 16.00001 -56
v 8 16.00001 -56
v 8 4.000005 -56
v 4 4.000005 -56
v 4 4.000005 -56
v 8 4.000005 -56
v 8 3.999995 56
v 4 3.999995 56
v 4 3.999995 56
v 8 3.999995 56
v 8 16 56
v 4 16 56
v 8 19.00001 -59
v 8 16.00001 -56
v 8 16 56
v 8 18.99999 59
v 8 1.000005 -59
v 8 4.000005 -56
v 8 0.9999948 59
v 8 3.999995 56
v 7 18.99999 59
v 8 18.99999 59
v 8 19.00001 -59
v 7 19.00001 -59
v 7 19.00001 -59
v 8 19.00001 -59
v 8 1.000005 -59
v 7 1.000005 -59
v 7 1.000005 -59
v 8 1.000005 -59
v 8 0.9999948 59
v 7 0.9999948 59
v 7 0.9999948 59
v 8 0.9999948 59
v 8 18.99999 59
v 7 18.99999 59
v 7 20.00001 -60
v 7 19.00001 -59
v 7 18.99999 59
v 7 19.99999 60
v 7 5.245367E-06 -60
v 7 1.000005 -59
v 7 -5.245367E-06 60
v 7 0.9999948 59
v 0 5.245367E-06 -60
v 0 20.00001 -60
v 0 19.99999 60
v 0 -5.245367E-06 60
vn 1 0 0
vn 1 0 0
vn 1 0 0
vn 1 0 0
vn 1 0 0
vn 1 0 0
vn 1 0 0
vn 1 0 0
vn 1 0 0
vn 1 0 0
vn 0.9999999 0 0
vn 1 0 0
vn 1 0 0
vn 1 0 0
vn 1 0 0
vn 1 0 0
vn 0.9999999 0 0
vn 1 0 0
vn 1 0 0
vn 1 0 0
vn 1 0 0
vn 1 0 0
vn 1 0 0
vn 1 0 0
vn 1 0 0
vn 1 0 0
vn 1 0 0
vn 1 0 0
vn 1 0 0
vn 1 0 0
vn 1 0 0
vn 1 0 0
vn 1 0 0
vn 1 0 0
vn 0.9999999 0 0
vn 1 0 0
vn 1 0 0
vn 1 0 0
vn 1 0 0
vn 1 0 0
vn 0.9999999 0 0
vn 1 0 0
vn 1 0 0
vn 1 0 0
vn 1 0 0
vn 1 0 0
vn 1 0 0
vn 1 0 0
vn 1 0 0
vn 0 -0.1090298 0.9940384
vn 0 0.02196201 0.9997588
vn 0 -0.02196218 0.9997588
vn 0 -0.1521697 0.9883544
vn 0 -0.2374251 0.9714059
vn 0 -0.2795414 0.9601336
vn 0 -0.3622638 0.9320756
vn 0 -0.4028664 0.9152587
vn 0 -0.480996 0.8767228
vn 0 -0.5185455 0.8550501
vn 0 -0.5910991 0.8065989
vn 0 -0.6260645 0.7797712
vn 0 -0.6916223 0.7222593
vn 0 -0.7222591 0.6916227
vn 0 -0.7797714 0.6260642
vn 0 -0.8065997 0.5910982
vn 0 -0.8550504 0.5185452
vn 0 -0.8767222 0.4809972
vn 0 -0.9152589 0.4028665
vn 0 -0.9320769 0.3622606
vn 0 -0.9601344 0.2795388
vn 0 -0.9714056 0.2374263
vn 0 -0.988354 0.1521725
vn 0 -0.9940384 0.1090302
vn 0 -0.9997588 0.02196143
vn 0 -0.9997588 -0.0219616
vn 0 -0.9940384 -0.1090304
vn 0 -0.988354 -0.1521727
vn 0 -0.9714056 -0.2374265
vn 0 -0.9601344 -0.2795389
vn 0 -0.9320768 -0.3622608
vn 0 -0.9152588 -0.4028667
vn 0 -0.8767221 -0.4809974
vn 0 -0.8550503 -0.5185453
vn 0 -0.8065996 -0.5910983
vn 0 -0.7797713 -0.6260644
vn 0 -0.722259 -0.6916229
vn 0 -0.6916221 -0.7222595
vn 0 -0.6260644 -0.7797713
vn 0 -0.591099 -0.806599
vn 0 -0.5185454 -0.8550502
vn 0 -0.4809958 -0.8767229
vn 0 -0.4028662 -0.9152588
vn 0 -0.3622636 -0.9320757
vn 0 -0.2795412 -0.9601336
vn 0 -0.2374249 -0.9714058
vn 0 -0.1521695 -0.9883544
vn 0 -0.1090296 -0.9940384
vn 0 -0.02196201 -0.9997588
vn 0 0.02196218 -0.9997588
vn 0 0.1090298 -0.9940384
vn 0 0.1521697 -0.9883544
vn 0 0.2374251 -0.9714059
vn 0 0.2795414 -0.9601336
vn 0 0.3622638 -0.9320756
vn 0 0.4028664 -0.9152587
vn 0 0.480996 -0.8767228
vn 0 0.5185455 -0.8550501
vn 0 0.5910991 -0.8065989
vn 0 0.6260645 -0.7797712
vn 0 0.6916223 -0.7222593
vn 0 0.7222591 -0.6916227
vn 0 0.7797714 -0.6260642
vn 0 0.8065997 -0.5910982
vn 0 0.8550504 -0.5185452
vn 0 0.8767222 -0.4809972
vn 0 0.9152589 -0.4028665
vn 0 0.9320769 -0.3622606
vn 0 0.9601344 -0.2795388
vn 0 0.9714056 -0.2374263
vn 0 0.988354 -0.1521725
vn 0 0.9940384 -0.1090302
vn 0 0.9997588 -0.02196143
vn 0 0.9997588 0.0219616
vn 0 0.9940384 0.1090304
vn 0 0.988354 0.1521727
vn 0 0.9714056 0.2374265
vn 0 0.9601344 0.2795389
vn 0 0.9320768 0.3622608
vn 0 0.9152588 0.4028667
vn 0 0.8767221 0.4809974
vn 0 0.8550503 0.5185453
vn 0 0.8065996 0.5910983
vn 0 0.7797713 0.6260644
vn 0 0.722259 0.6916229
vn 0 0.6916221 0.7222595
vn 0 0.6260644 0.7797713
vn 0 0.591099 0.806599
vn 0 0.5185454 0.8550502
vn 0 0.4809958 0.8767229
vn 0 0.4028662 0.9152588
vn 0 0.3622636 0.9320757
vn 0 0.2795412 0.9601336
vn 0 0.2374249 0.9714058
vn 0 0.1521695 0.9883544
vn 0 0.1090296 0.9940384
vn 1 0 0
vn 1 0 0
vn 1 0 0
vn 1 0 0
vn 1 0 0
vn 1 0 0
vn 1 0 0
vn 1 0 0
vn 1 0 0
vn 1 0 0
vn 1 0 0
vn 1 0 0
vn 1 0 0
vn 1 0 0
vn 1 0 0
vn 1 0 0
vn 1 0 0
vn 1 0 0
vn 1 0 0
vn 1 0 0
vn 1 0 0
vn 1 0 0
vn 1 0 0
vn 1 0 0
vn 1 0 0
vn 1 0 0
vn 1 0 0
vn 1 0 0
vn 1 0 0
vn 1 0 0
vn 1 0 0
vn 1 0 0
vn 1 0 0
vn 1 0 0
vn 1 0 0
vn 1 0 0
vn 1 0 0
vn 1 0 0
vn 1 0 0
vn 1 0 0
vn 1 0 0
vn 1 0 0
vn 1 0 0
vn 1 0 0
vn 1 0 0
vn 1 0 0
vn 1 0 0
vn 1 0 0
vn 1 0 0
vn 0 -0.109031 0.9940383
vn 0 0.02196201 0.9997588
vn 0 -0.02196218 0.9997588
vn 0 -0.1521721 0.988354
vn 0 -0.2374251 0.9714059
vn 0 -0.279538 0.9601347
vn 0 -0.3622606 0.9320768
vn 0 -0.4028664 0.9152587
vn 0 -0.4809978 0.8767217
vn 0 -0.5185463 0.8550494
vn 0 -0.5910991 0.8065989
vn 0 -0.6260645 0.7797712
vn 0 -0.6916223 0.7222593
vn 0 -0.7222591 0.6916227
vn 0 -0.7797714 0.6260642
vn 0 -0.8065997 0.5910982
vn 0 -0.8550504 0.5185452
vn 0 -0.8767222 0.4809972
vn 0 -0.9152586 0.4028669
vn 0 -0.9320766 0.3622615
vn 0 -0.9601343 0.2795391
vn 0 -0.9714057 0.2374261
vn 0 -0.9883541 0.1521721
vn 0 -0.9940385 0.1090301
vn 0 -0.9997588 0.02196143
vn 0 -0.9997588 -0.0219616
vn 0 -0.9940385 -0.1090303
vn 0 -0.9883541 -0.1521723
vn 0 -0.9714057 -0.2374262
vn 0 -0.9601343 -0.2795393
vn 0 -0.9320765 -0.3622617
vn 0 -0.9152585 -0.4028671
vn 0 -0.8767221 -0.4809974
vn 0 -0.8550503 -0.5185453
vn 0 -0.8065996 -0.5910983
vn 0 -0.7797713 -0.6260644
vn 0 -0.722259 -0.6916229
vn 0 -0.6916221 -0.7222595
vn 0 -0.6260644 -0.7797713
vn 0 -0.591099 -0.806599
vn 0 -0.5185462 -0.8550496
vn 0 -0.4809977 -0.8767219
vn 0 -0.4028662 -0.9152588
vn 0 -0.3622605 -0.9320769
vn 0 -0.2795379 -0.9601347
vn 0 -0.2374249 -0.9714058
vn 0 -0.1521719 -0.988354
vn 0 -0.1090308 -0.9940383
vn 0 -0.02196201 -0.9997588
vn 0 0.02196218 -0.9997588
vn 0 0.109031 -0.9940383
vn 0 0.1521721 -0.988354
vn 0 0.2374251 -0.9714059
vn 0 0.279538 -0.9601347
vn 0 0.3622606 -0.9320768
vn 0 0.4028664 -0.9152587
vn 0 0.4809978 -0.8767217
vn 0 0.5185463 -0.8550494
vn 0 0.5910991 -0.8065989
vn 0 0.6260645 -0.7797712
vn 0 0.6916223 -0.7222593
vn 0 0.7222591 -0.6916227
vn 0 0.7797714 -0.6260642
vn 0 0.8065997 -0.5910982
vn 0 0.8550504 -0.5185452
vn 0 0.8767222 -0.4809972
vn 0 0.9152586 -0.4028669
vn 0 0.9320766 -0.3622615
vn 0 0.9601343 -0.2795391
vn 0 0.9714057 -0.2374261
vn 0 0.9883541 -0.1521721
vn 0 0.9940385 -0.1090301
vn 0 0.9997588 -0.02196143
vn 0 0.9997588 0.0219616
vn 0 0.9940385 0.1090303
vn 0 0.9883541 0.1521723
vn 0 0.9714057 0.2374262
vn 0 0.9601343 0.2795393
vn 0 0.9320765 0.3622617
vn 0 0.9152585 0.4028671
vn 0 0.8767221 0.4809974
vn 0 0.8550503 0.5185453
vn 0 0.8065996 0.5910983
vn 0 0.7797713 0.6260644
vn 0 0.722259 0.6916229
vn 0 0.6916221 0.7222595
vn 0 0.6260644 0.7797713
vn 0 0.591099 0.806599
vn 0 0.5185462 0.8550496
vn 0 0.4809977 0.8767219
vn 0 0.4028662 0.9152588
vn 0 0.3622605 0.9320769
vn 0 0.2795379 0.9601347
vn 0 0.2374249 0.9714058
vn 0 0.1521719 0.988354
vn 0 0.1090308 0.9940383
vn 1 0 0
vn 1 0 0
vn 1 0 0
vn 1 0 0
vn 1 0 0
vn 1 0 0
vn 1 0 0
vn 1 0 0
vn 1 0 0
vn 1 0 0
vn 1 0 0
vn 1 0 0
vn 1 0 0
vn 1 0 0
vn 1 0 0
vn 1 0 0
vn 1 0 0
vn 1 0 0
vn 1 0 0
vn 1 0 0
vn 1 0 0
vn 1 0 0
vn 1 0 0
vn 1 0 0
vn 1 0 0
vn 1 0 0
vn 1 0 0
vn 1 0 0
vn 1 0 0
vn 1 0 0
vn 1 0 0
vn 1 0 0
vn 1 0 0
vn 1 0 0
vn 1 0 0
vn 1 0 0
vn 1 0 0
vn 1 0 0
vn 1 0 0
vn 1 0 0
vn 1 0 0
vn 1 0 0
vn 1 0 0
vn 1 0 0
vn 1 0 0
vn 1 0 0
vn 1 0 0
vn 1 0 0
vn 1 0 0
vn 0 -0.1090302 0.9940384
vn 0 0.0219614 0.9997588
vn 0 -0.02196158 0.9997588
vn 0 -0.1521724 0.988354
vn 0 -0.2374264 0.9714056
vn 0 -0.2795393 0.9601343
vn 0 -0.3622616 0.9320765
vn 0 -0.4028671 0.9152585
vn 0 -0.4809974 0.8767221
vn 0 -0.5185451 0.8550501
vn 0 -0.5910981 0.8065997
vn 0 -0.6260643 0.7797714
vn 0 -0.6916226 0.7222591
vn 0 -0.7222592 0.6916225
vn 0 -0.7797716 0.6260642
vn 0 -0.8065998 0.591098
vn 0 -0.8550503 0.518545
vn 0 -0.8767222 0.4809972
vn 0 -0.9152586 0.4028669
vn 0 -0.9320766 0.3622614
vn 0 -0.9601343 0.2795391
vn 0 -0.9714056 0.2374262
vn 0 -0.988354 0.1521722
vn 0 -0.9940384 0.1090301
vn 0 -0.9997588 0.0219614
vn 0 -0.9997588 -0.02196158
vn 0 -0.9940384 -0.1090302
vn 0 -0.988354 -0.1521724
vn 0 -0.9714056 -0.2374264
vn 0 -0.9601343 -0.2795393
vn 0 -0.9320765 -0.3622616
vn 0 -0.9152585 -0.4028671
vn 0 -0.8767221 -0.4809974
vn 0 -0.8550501 -0.5185451
vn 0 -0.8065997 -0.5910981
vn 0 -0.7797714 -0.6260643
vn 0 -0.7222591 -0.6916226
vn 0 -0.6916225 -0.7222592
vn 0 -0.6260642 -0.7797716
vn 0 -0.591098 -0.8065998
vn 0 -0.518545 -0.8550503
vn 0 -0.4809972 -0.8767222
vn 0 -0.4028669 -0.9152586
vn 0 -0.3622614 -0.9320766
vn 0 -0.2795391 -0.9601343
vn 0 -0.2374262 -0.9714056
vn 0 -0.1521722 -0.988354
vn 0 -0.1090301 -0.9940384
vn 0 -0.0219614 -0.9997588
vn 0 0.02196158 -0.9997588
vn 0 0.1090302 -0.9940384
vn 0 0.1521724 -0.988354
vn 0 0.2374264 -0.9714056
vn 0 0.2795393 -0.9601343
vn 0 0.3622616 -0.9320765
vn 0 0.4028671 -0.9152585
vn 0 0.4809974 -0.8767221
vn 0 0.5185451 -0.8550501
vn 0 0.5910981 -0.8065997
vn 0 0.6260643 -0.7797714
vn 0 0.6916226 -0.7222591
vn 0 0.7222592 -0.6916225
vn 0 0.7797716 -0.6260642
vn 0 0.8065998 -0.591098
vn 0 0.8550503 -0.518545
vn 0 0.8767222 -0.4809972
vn 0 0.9152586 -0.4028669
vn 0 0.9320766 -0.3622614
vn 0 0.9601343 -0.2795391
vn 0 0.9714056 -0.2374262
vn 0 0.988354 -0.1521722
vn 0 0.9940384 -0.1090301
vn 0 0.9997588 -0.0219614
vn 0 0.9997588 0.02196158
vn 0 0.9940384 0.1090302
vn 0 0.988354 0.1521724
vn 0 0.9714056 0.2374264
vn 0 0.9601343 0.2795393
vn 0 0.9320765 0.3622616
vn 0 0.9152585 0.4028671
vn 0 0.8767221 0.4809974
vn 0 0.8550501 0.5185451
vn 0 0.8065997 0.5910981
vn 0 0.7797714 0.6260643
vn 0 0.7222591 0.6916226
vn 0 0.6916225 0.7222592
vn 0 0.6260642 0.7797716
vn 0 0.591098 0.8065998
vn 0 0.518545 0.8550503
vn 0 0.4809972 0.8767222
vn 0 0.4028669 0.9152586
vn 0 0.3622614 0.9320766
vn 0 0.2795391 0.9601343
vn 0 0.2374262 0.9714056
vn 0 0.1521722 0.988354
vn 0 0.1090301 0.9940384
vn 1 0 0
vn 1 0 0
vn 1 0 0
vn 1 0 0
vn 1 0 0
vn 1 0 0
vn 1 0 0
vn 1 0 0
vn 1 0 0
vn 1 0 0
vn 1 0 0
vn 1 0 0
vn 1 0 0
vn 1 0 0
vn 1 0 0
vn 1 0 0
vn 1 0 0
vn 1 0 0
vn 1 0 0
vn 1 0 0
vn 1 0 0
vn 1 0 0
vn 1 0 0
vn 1 0 0
vn 1 0 0
vn 1 0 0
vn 1 0 0
vn 1 0 0
vn 1 0 0
vn 1 0 0
vn 1 0 0
vn 1 0 0
vn 1 0 0
vn 1 0 0
vn 1 0 0
vn 1 0 0
vn 1 0 0
vn 1 0 0
vn 1 0 0
vn 1 0 0
vn 1 0 0
vn 1 0 0
vn 1 0 0
vn 1 0 0
vn 1 0 0
vn 1 0 0
vn 1 0 0
vn 1 0 0
vn 1 0 0
vn 0 -0.109031 0.9940383
vn 0 0.02196201 0.9997588
vn 0 -0.02196218 0.9997588
vn 0 -0.1521721 0.988354
vn 0 -0.2374251 0.9714059
vn 0 -0.279538 0.9601347
vn 0 -0.3622606 0.9320768
vn 0 -0.4028664 0.9152587
vn 0 -0.4809978 0.8767217
vn 0 -0.5185463 0.8550494
vn 0 -0.5910991 0.8065989
vn 0 -0.6260645 0.7797712
vn 0 -0.6916223 0.7222593
vn 0 -0.7222591 0.6916227
vn 0 -0.7797714 0.6260642
vn 0 -0.8065997 0.5910982
vn 0 -0.8550504 0.5185452
vn 0 -0.8767222 0.4809972
vn 0 -0.9152586 0.4028669
vn 0 -0.9320766 0.3622615
vn 0 -0.9601343 0.2795391
vn 0 -0.9714057 0.2374261
vn 0 -0.9883541 0.1521721
vn 0 -0.9940385 0.1090301
vn 0 -0.9997588 0.02196143
vn 0 -0.9997588 -0.0219616
vn 0 -0.9940385 -0.1090303
vn 0 -0.9883541 -0.1521723
vn 0 -0.9714057 -0.2374262
vn 0 -0.9601343 -0.2795393
vn 0 -0.9320765 -0.3622617
vn 0 -0.9152585 -0.4028671
vn 0 -0.8767221 -0.4809974
vn 0 -0.8550503 -0.5185453
vn 0 -0.8065996 -0.5910983
vn 0 -0.7797713 -0.6260644
vn 0 -0.722259 -0.6916229
vn 0 -0.6916221 -0.7222595
vn 0 -0.6260644 -0.7797713
vn 0 -0.591099 -0.806599
vn 0 -0.5185462 -0.8550496
vn 0 -0.4809977 -0.8767219
vn 0 -0.4028662 -0.9152588
vn 0 -0.3622605 -0.9320769
vn 0 -0.2795379 -0.9601347
vn 0 -0.2374249 -0.9714058
vn 0 -0.1521719 -0.988354
vn 0 -0.1090308 -0.9940383
vn 0 -0.02196201 -0.9997588
vn 0 0.02196218 -0.9997588
vn 0 0.109031 -0.9940383
vn 0 0.1521721 -0.988354
vn 0 0.2374251 -0.9714059
vn 0 0.279538 -0.9601347
vn 0 0.3622606 -0.9320768
vn 0 0.4028664 -0.9152587
vn 0 0.4809978 -0.8767217
vn 0 0.5185463 -0.8550494
vn 0 0.5910991 -0.8065989
vn 0 0.6260645 -0.7797712
vn 0 0.6916223 -0.7222593
vn 0 0.7222591 -0.6916227
vn 0 0.7797714 -0.6260642
vn 0 0.8065997 -0.5910982
vn 0 0.8550504 -0.5185452
vn 0 0.8767222 -0.4809972
vn 0 0.9152586 -0.4028669
vn 0 0.9320766 -0.3622615
vn 0 0.9601343 -0.2795391
vn 0 0.9714057 -0.2374261
vn 0 0.9883541 -0.1521721
vn 0 0.9940385 -0.1090301
vn 0 0.9997588 -0.02196143
vn 0 0.9997588 0.0219616
vn 0 0.9940385 0.1090303
vn 0 0.9883541 0.1521723
vn 0 0.9714057 0.2374262
vn 0 0.9601343 0.2795393
vn 0 0.9320765 0.3622617
vn 0 0.9152585 0.4028671
vn 0 0.8767221 0.4809974
vn 0 0.8550503 0.5185453
vn 0 0.8065996 0.5910983
vn 0 0.7797713 0.6260644
vn 0 0.722259 0.6916229
vn 0 0.6916221 0.7222595
vn 0 0.6260644 0.7797713
vn 0 0.591099 0.806599
vn 0 0.5185462 0.8550496
vn 0 0.4809977 0.8767219
vn 0 0.4028662 0.9152588
vn 0 0.3622605 0.9320769
vn 0 0.2795379 0.9601347
vn 0 0.2374249 0.9714058
vn 0 0.1521719 0.988354
vn 0 0.1090308 0.9940383
vn 1 0 0
vn 1 0 0
vn 1 0 0
vn 1 0 0
vn 1 0 0
vn 1 0 0
vn 1 0 0
vn 1 0 0
vn 1 0 0
vn 1 0 0
vn 0.9999999 0 0
vn 1 0 0
vn 1 0 0
vn 1 0 0
vn 1 0 0
vn 1 0 0
vn 0.9999999 0 0
vn 1 0 0
vn 1 0 0
vn 1 0 0
vn 1 0 0
vn 1 0 0
vn 1 0 0
vn 1 0 0
vn 1 0 0
vn 1 0 0
vn 1 0 0
vn 1 0 0
vn 1 0 0
vn 1 0 0
vn 1 0 0
vn 1 0 0
vn 1 0 0
vn 1 0 0
vn 0.9999999 0 0
vn 1 0 0
vn 1 0 0
vn 1 0 0
vn 1 0 0
vn 1 0 0
vn 0.9999999 0 0
vn 1 0 0
vn 1 0 0
vn 1 0 0
vn 1 0 0
vn 1 0 0
vn 1 0 0
vn 1 0 0
vn 1 0 0
vn 0 -0.1090298 0.9940384
vn 0 0.02196201 0.9997588
vn 0 -0.02196218 0.9997588
vn 0 -0.1521697 0.9883544
vn 0 -0.2374251 0.9714059
vn 0 -0.2795414 0.9601336
vn 0 -0.3622638 0.9320756
vn 0 -0.4028664 0.9152587
vn 0 -0.480996 0.8767228
vn 0 -0.5185455 0.8550501
vn 0 -0.5910991 0.8065989
vn 0 -0.6260645 0.7797712
vn 0 -0.6916223 0.7222593
vn 0 -0.7222591 0.6916227
vn 0 -0.7797714 0.6260642
vn 0 -0.8065997 0.5910982
vn 0 -0.8550504 0.5185452
vn 0 -0.8767222 0.4809972
vn 0 -0.9152589 0.4028665
vn 0 -0.9320769 0.3622606
vn 0 -0.9601344 0.2795388
vn 0 -0.9714056 0.2374263
vn 0 -0.988354 0.1521725
vn 0 -0.9940384 0.1090302
vn 0 -0.9997588 0.02196143
vn 0 -0.9997588 -0.0219616
vn 0 -0.9940384 -0.1090304
vn 0 -0.988354 -0.1521727
vn 0 -0.9714056 -0.2374265
vn 0 -0.9601344 -0.2795389
vn 0 -0.9320768 -0.3622608
vn 0 -0.9152588 -0.4028667
vn 0 -0.8767221 -0.4809974
vn 0 -0.8550503 -0.5185453
vn 0 -0.8065996 -0.5910983
vn 0 -0.7797713 -0.6260644
vn 0 -0.722259 -0.6916229
vn 0 -0.6916221 -0.7222595
vn 0 -0.6260644 -0.7797713
vn 0 -0.591099 -0.806599
vn 0 -0.5185454 -0.8550502
vn 0 -0.4809958 -0.8767229
vn 0 -0.4028662 -0.9152588
vn 0 -0.3622636 -0.9320757
vn 0 -0.2795412 -0.9601336
vn 0 -0.2374249 -0.9714058
vn 0 -0.1521695 -0.9883544
vn 0 -0.1090296 -0.9940384
vn 0 -0.02196201 -0.9997588
vn 0 0.02196218 -0.9997588
vn 0 0.1090298 -0.9940384
vn 0 0.1521697 -0.9883544
vn 0 0.2374251 -0.9714059
vn 0 0.2795414 -0.9601336
vn 0 0.3622638 -0.9320756
vn 0 0.4028664 -0.9152587
vn 0 0.480996 -0.8767228
vn 0 0.5185455 -0.8550501
vn 0 0.5910991 -0.8065989
vn 0 0.6260645 -0.7797712
vn 0 0.6916223 -0.7222593
vn 0 0.7222591 -0.6916227
vn 0 0.7797714 -0.6260642
vn 0 0.8065997 -0.5910982
vn 0 0.8550504 -0.5185452
vn 0 0.8767222 -0.4809972
vn 0 0.9152589 -0.4028665
vn 0 0.9320769 -0.3622606
vn 0 0.9601344 -0.2795388
vn 0 0.9714056 -0.2374263
vn 0 0.988354 -0.1521725
vn 0 0.9940384 -0.1090302
vn 0 0.9997588 -0.02196143
vn 0 0.9997588 0.0219616
vn 0 0.9940384 0.1090304
vn 0 0.988354 0.1521727
vn 0 0.9714056 0.2374265
vn 0 0.9601344 0.2795389
vn 0 0.9320768 0.3622608
vn 0 0.9152588 0.4028667
vn 0 0.8767221 0.4809974
vn 0 0.8550503 0.5185453
vn 0 0.8065996 0.5910983
vn 0 0.7797713 0.6260644
vn 0 0.722259 0.6916229
vn 0 0.6916221 0.7222595
vn 0 0.6260644 0.7797713
vn 0 0.591099 0.806599
vn 0 0.5185454 0.8550502
vn 0 0.4809958 0.8767229
vn 0 0.4028662 0.9152588
vn 0 0.3622636 0.9320757
vn 0 0.2795412 0.9601336
vn 0 0.2374249 0.9714058
vn 0 0.1521695 0.9883544
vn 0 0.1090296 0.9940384
vn 0 1 8.742278E-08
vn 0 1 8.742278E-08
vn 0 1 8.742278E-08
vn 0 1 8.742278E-08
vn 0 8.742278E-08 -1
vn 0 8.742278E-08 -1
vn 0 8.742278E-08 -1
vn 0 8.742278E-08 -1
vn 0 -1 -8.742278E-08
vn 0 -1 -8.742278E-08
vn 0 -1 -8.742278E-08
vn 0 -1 -8.742278E-08
vn 0 -8.742278E-08 1
vn 0 -8.742278E-08 1
vn 0 -8.742278E-08 1
vn 0 -8.742278E-08 1
vn 1 0 0
vn 1 0 0
vn 1 0 0
vn 1 0 0
vn 0 -1 -8.742278E-08
vn 0 -1 -8.742278E-08
vn 0 -1 -8.742278E-08
vn 0 -1 -8.742278E-08
vn 0 -8.742278E-08 1
vn 0 -8.742278E-08 1
vn 0 -8.742278E-08 1
vn 0 -8.742278E-08 1
vn 0 1 8.742278E-08
vn 0 1 8.742278E-08
vn 0 1 8.742278E-08
vn 0 1 8.742278E-08
vn 0 8.742278E-08 -1
vn 0 8.742278E-08 -1
vn 0 8.742278E-08 -1
vn 0 8.742278E-08 -1
vn 1 0 0
vn 1 0 0
vn 1 0 0
vn 1 0 0
vn 1 0 0
vn 1 0 0
vn 1 0 0
vn 1 0 0
vn 0 1 8.742278E-08
vn 0 1 8.742278E-08
vn 0 1 8.742278E-08
vn 0 1 8.742278E-08
vn 0 8.742278E-08 -1
vn 0 8.742278E-08 -1
vn 0 8.742278E-08 -1
vn 0 8.742278E-08 -1
vn 0 -1 -8.742278E-08
vn 0 -1 -8.742278E-08
vn 0 -1 -8.742278E-08
vn 0 -1 -8.742278E-08
vn 0 -8.742278E-08 1
vn 0 -8.742278E-08 1
vn 0 -8.742278E-08 1
vn 0 -8.742278E-08 1
vn 1 0 0
vn 1 0 0
vn 1 0 0
vn 1 0 0
vn 1 0 0
vn 1 0 0
vn 1 0 0
vn 1 0 0
vn -1 0 0
vn -1 0 0
vn -1 0 0
vn -1 0 0
vt 8.522 51.9656
vt 8 52
vt 8 48
vt 9.0352 51.8636
vt 9.5308 51.6956
vt 10 51.464
vt 10.4352 51.1736
vt 10.8284 50.8284
vt 11.1736 50.4352
vt 11.464 50
vt 11.6956 49.5308
vt 11.8636 49.0352
vt 11.9656 48.522
vt 12 48
vt 11.9656 47.478
vt 11.8636 46.9648
vt 11.6956 46.4692
vt 11.464 46
vt 11.1736 45.5648
vt 10.8284 45.1716
vt 10.4352 44.8264
vt 10 44.536
vt 9.5308 44.3044
vt 9.0352 44.1364
vt 8.522 44.0344
vt 8 44
vt 7.478 44.0344
vt 6.9648 44.1364
vt 6.4692 44.3044
vt 6 44.536
vt 5.5648 44.8264
vt 5.1716 45.1716
vt 4.8264 45.5648
vt 4.536 46
vt 4.3044 46.4692
vt 4.1364 46.9648
vt 4.0344 47.478
vt 4 48
vt 4.0344 48.522
vt 4.1364 49.0352
vt 4.3044 49.5308
vt 4.536 50
vt 4.8264 50.4352
vt 5.1716 50.8284
vt 5.5648 51.1736
vt 6 51.464
vt 6.4692 51.6956
vt 6.9648 51.8636
vt 7.478 51.9656
vt 47.9656 44.4876
vt 48 44
vt 52 44
vt 51.9656 44.4876
vt 47.8636 44.8988
vt 51.8636 44.8988
vt 47.6956 45.2264
vt 51.6956 45.2264
vt 47.464 45.464
vt 51.464 45.464
vt 47.1736 45.6088
vt 51.1736 45.6088
vt 46.8284 45.6568
vt 10.8284 45.6568
vt 7.1736 45.6088
vt 11.1736 45.6088
vt 7.464 45.464
vt 11.464 45.464
vt 7.6956 45.2264
vt 11.6956 45.2264
vt 7.8636 44.8988
vt 11.8636 44.8988
vt 7.9656 44.4876
vt 11.9656 44.4876
vt 8 44
vt 12 44
vt 7.9656 43.4436
vt 11.9656 43.4436
vt 7.8636 42.8284
vt 11.8636 42.8284
vt 7.6956 42.1648
vt 11.6956 42.1648
vt 7.464 41.464
vt 11.464 41.464
vt 7.1736 40.7384
vt 11.1736 40.7384
vt 6.8284 40
vt 10.8284 40
vt 6.4352 39.2616
vt 10.4352 39.2616
vt 6 38.536
vt 10 38.536
vt 5.5308 37.8352
vt 9.5308 37.8352
vt 5.0352 37.1716
vt 9.0352 37.1716
vt 4.522 36.5564
vt 8.522 36.5564
vt 4 36
vt 44 36
vt 40.0344 35.5124
vt 44.0344 35.5124
vt 40.1364 35.1012
vt 44.1364 35.1012
vt 40.3044 34.7736
vt 44.3044 34.7736
vt 40.536 34.536
vt 44.536 34.536
vt 40.8264 34.3912
vt 44.8264 34.3912
vt 41.1716 34.3432
vt 5.1716 34.3432
vt 0.8264 34.3912
vt 4.8264 34.3912
vt 0.536 34.536
vt 4.536 34.536
vt 0.3044 34.7736
vt 4.3044 34.7736
vt 0.1364 35.1012
vt 4.1364 35.1012
vt 0.03439999 35.5124
vt 4.0344 35.5124
vt 0 36
vt 48 36
vt 44.522 36.5564
vt 48.522 36.5564
vt 45.0352 37.1716
vt 49.0352 37.1716
vt 45.5308 37.8352
vt 49.5308 37.8352
vt 46 38.536
vt 50 38.536
vt 46.4352 39.2616
vt 50.4352 39.2616
vt 46.8284 40
vt 50.8284 40
vt 47.1736 40.7384
vt 51.1736 40.7384
vt 47.464 41.464
vt 51.464 41.464
vt 47.6956 42.1648
vt 51.6956 42.1648
vt 47.8636 42.8284
vt 51.8636 42.8284
vt 47.9656 43.4436
vt 51.9656 43.4436
vt 8.522 31.9656
vt 8 32
vt 8 28
vt 9.0352 31.8636
vt 9.5308 31.6956
vt 10 31.464
vt 10.4352 31.1736
vt 10.8284 30.8284
vt 11.1736 30.4352
vt 11.464 30
vt 11.6956 29.5308
vt 11.8636 29.0352
vt 11.9656 28.522
vt 12 28
vt 11.9656 27.478
vt 11.8636 26.9648
vt 11.6956 26.4692
vt 11.464 26
vt 11.1736 25.5648
vt 10.8284 25.1716
vt 10.4352 24.8264
vt 10 24.536
vt 9.5308 24.3044
vt 9.0352 24.1364
vt 8.522 24.0344
vt 8 24
vt 7.478 24.0344
vt 6.9648 24.1364
vt 6.4692 24.3044
vt 6 24.536
vt 5.5648 24.8264
vt 5.1716 25.1716
vt 4.8264 25.5648
vt 4.536 26
vt 4.3044 26.4692
vt 4.1364 26.9648
vt 4.0344 27.478
vt 4 28
vt 4.0344 28.522
vt 4.1364 29.0352
vt 4.3044 29.5308
vt 4.536 30
vt 4.8264 30.4352
vt 5.1716 30.8284
vt 5.5648 31.1736
vt 6 31.464
vt 6.4692 31.6956
vt 6.9648 31.8636
vt 7.478 31.9656
vt 27.9656 24.4876
vt 28 24
vt 32 24
vt 31.9656 24.4876
vt 27.8636 24.8988
vt 31.8636 24.8988
vt 27.6956 25.2264
vt 31.6956 25.2264
vt 27.464 25.464
vt 31.464 25.464
vt 27.1736 25.6088
vt 31.1736 25.6088
vt 26.8284 25.6568
vt 10.8284 25.6568
vt 7.1736 25.6088
vt 11.1736 25.6088
vt 7.464 25.464
vt 11.464 25.464
vt 7.6956 25.2264
vt 11.6956 25.2264
vt 7.8636 24.8988
vt 11.8636 24.8988
vt 7.9656 24.4876
vt 11.9656 24.4876
vt 8 24
vt 12 24
vt 7.9656 23.4436
vt 11.9656 23.4436
vt 7.8636 22.8284
vt 11.8636 22.8284
vt 7.6956 22.1648
vt 11.6956 22.1648
vt 7.464 21.464
vt 11.464 21.464
vt 7.1736 20.7384
vt 11.1736 20.7384
vt 6.8284 20
vt 10.8284 20
vt 6.4352 19.2616
vt 10.4352 19.2616
vt 6 18.536
vt 10 18.536
vt 5.5308 17.8352
vt 9.5308 17.8352
vt 5.0352 17.1716
vt 9.0352 17.1716
vt 4.522 16.5564
vt 8.522 16.5564
vt 4 16
vt 24 16
vt 20.0344 15.5124
vt 24.0344 15.5124
vt 20.1364 15.1012
vt 24.1364 15.1012
vt 20.3044 14.7736
vt 24.3044 14.7736
vt 20.536 14.536
vt 24.536 14.536
vt 20.8264 14.3912
vt 24.8264 14.3912
vt 21.1716 14.3432
vt 5.1716 14.3432
vt 0.8264 14.3912
vt 4.8264 14.3912
vt 0.536 14.536
vt 4.536 14.536
vt 0.3044 14.7736
vt 4.3044 14.7736
vt 0.1364 15.1012
vt 4.1364 15.1012
vt 0.03439999 15.5124
vt 4.0344 15.5124
vt 0 16
vt 28 16
vt 24.522 16.5564
vt 28.522 16.5564
vt 25.0352 17.1716
vt 29.0352 17.1716
vt 25.5308 17.8352
vt 29.5308 17.8352
vt 26 18.536
vt 30 18.536
vt 26.4352 19.2616
vt 30.4352 19.2616
vt 26.8284 20
vt 30.8284 20
vt 27.1736 20.7384
vt 31.1736 20.7384
vt 27.464 21.464
vt 31.464 21.464
vt 27.6956 22.1648
vt 31.6956 22.1648
vt 27.8636 22.8284
vt 31.8636 22.8284
vt 27.9656 23.4436
vt 31.9656 23.4436
vt 8.522 11.9656
vt 8 12
vt 8 8
vt 9.0352 11.8636
vt 9.5308 11.6956
vt 10 11.464
vt 10.4352 11.1736
vt 10.8284 10.8284
vt 11.1736 10.4352
vt 11.464 10
vt 11.6956 9.5308
vt 11.8636 9.0352
vt 11.9656 8.522
vt 12 8
vt 11.9656 7.478
vt 11.8636 6.9648
vt 11.6956 6.4692
vt 11.464 6
vt 11.1736 5.5648
vt 10.8284 5.1716
vt 10.4352 4.8264
vt 10 4.536
vt 9.5308 4.3044
vt 9.0352 4.1364
vt 8.522 4.0344
vt 8 4
vt 7.478 4.0344
vt 6.9648 4.1364
vt 6.4692 4.3044
vt 6 4.536
vt 5.5648 4.8264
vt 5.1716 5.1716
vt 4.8264 5.5648
vt 4.536 6
vt 4.3044 6.4692
vt 4.1364 6.9648
vt 4.0344 7.478
vt 4 8
vt 4.0344 8.522
vt 4.1364 9.0352
vt 4.3044 9.5308
vt 4.536 10
vt 4.8264 10.4352
vt 5.1716 10.8284
vt 5.5648 11.1736
vt 6 11.464
vt 6.4692 11.6956
vt 6.9648 11.8636
vt 7.478 11.9656
vt 7.9656 4.4876
vt 8 4
vt 12 4
vt 11.9656 4.4876
vt 7.8636 4.8988
vt 11.8636 4.8988
vt 7.6956 5.2264
vt 11.6956 5.2264
vt 7.464 5.464
vt 11.464 5.464
vt 7.1736 5.6088
vt 11.1736 5.6088
vt 6.8284 5.6568
vt 10.8284 5.6568
vt 7.1736 5.6088
vt 11.1736 5.6088
vt 7.464 5.464
vt 11.464 5.464
vt 7.6956 5.2264
vt 11.6956 5.2264
vt 7.8636 4.8988
vt 11.8636 4.8988
vt 7.9656 4.4876
vt 11.9656 4.4876
vt 8 4
vt 12 4
vt 7.9656 3.4436
vt 11.9656 3.4436
vt 7.8636 2.8284
vt 11.8636 2.8284
vt 7.6956 2.1648
vt 11.6956 2.1648
vt 7.464 1.464
vt 11.464 1.464
vt 7.1736 0.7384
vt 11.1736 0.7384
vt 6.8284 0
vt 10.8284 0
vt 6.4352 -0.7384
vt 10.4352 -0.7384
vt 6 -1.464
vt 10 -1.464
vt 5.5308 -2.1648
vt 9.5308 -2.1648
vt 5.0352 -2.8284
vt 9.0352 -2.8284
vt 4.522 -3.4436
vt 8.522 -3.4436
vt 4 -4
vt 4 -4
vt 0.03439999 -4.4876
vt 4.0344 -4.4876
vt 0.1364 -4.8988
vt 4.1364 -4.8988
vt 0.3044 -5.2264
vt 4.3044 -5.2264
vt 0.536 -5.464
vt 4.536 -5.464
vt 0.8264 -5.6088
vt 4.8264 -5.6088
vt 1.1716 -5.6568
vt 5.1716 -5.6568
vt 0.8264 -5.6088
vt 4.8264 -5.6088
vt 0.536 -5.464
vt 4.536 -5.464
vt 0.3044 -5.2264
vt 4.3044 -5.2264
vt 0.1364 -4.8988
vt 4.1364 -4.8988
vt 0.03439999 -4.4876
vt 4.0344 -4.4876
vt 0 -4
vt 8 -4
vt 4.522 -3.4436
vt 8.522 -3.4436
vt 5.0352 -2.8284
vt 9.0352 -2.8284
vt 5.5308 -2.1648
vt 9.5308 -2.1648
vt 6 -1.464
vt 10 -1.464
vt 6.4352 -0.7384
vt 10.4352 -0.7384
vt 6.8284 0
vt 10.8284 0
vt 7.1736 0.7384
vt 11.1736 0.7384
vt 7.464 1.464
vt 11.464 1.464
vt 7.6956 2.1648
vt 11.6956 2.1648
vt 7.8636 2.8284
vt 11.8636 2.8284
vt 7.9656 3.4436
vt 11.9656 3.4436
vt 8.522 -8.034401
vt 8 -8
vt 8 -12
vt 9.0352 -8.1364
vt 9.5308 -8.304399
vt 10 -8.535999
vt 10.4352 -8.826401
vt 10.8284 -9.1716
vt 11.1736 -9.5648
vt 11.464 -10
vt 11.6956 -10.4692
vt 11.8636 -10.9648
vt 11.9656 -11.478
vt 12 -12
vt 11.9656 -12.522
vt 11.8636 -13.0352
vt 11.6956 -13.5308
vt 11.464 -14
vt 11.1736 -14.4352
vt 10.8284 -14.8284
vt 10.4352 -15.1736
vt 10 -15.464
vt 9.5308 -15.6956
vt 9.0352 -15.8636
vt 8.522 -15.9656
vt 8 -16
vt 7.478 -15.9656
vt 6.9648 -15.8636
vt 6.4692 -15.6956
vt 6 -15.464
vt 5.5648 -15.1736
vt 5.1716 -14.8284
vt 4.8264 -14.4352
vt 4.536 -14
vt 4.3044 -13.5308
vt 4.1364 -13.0352
vt 4.0344 -12.522
vt 4 -12
vt 4.0344 -11.478
vt 4.1364 -10.9648
vt 4.3044 -10.4692
vt 4.536 -10
vt 4.8264 -9.5648
vt 5.1716 -9.1716
vt 5.5648 -8.826401
vt 6 -8.535999
vt 6.4692 -8.304399
vt 6.9648 -8.1364
vt 7.478 -8.034401
vt -12.0344 -15.5124
vt -12 -16
vt -8 -16
vt -8.034401 -15.5124
vt -12.1364 -15.1012
vt -8.1364 -15.1012
vt -12.3044 -14.7736
vt -8.304399 -14.7736
vt -12.536 -14.536
vt -8.535999 -14.536
vt -12.8264 -14.3912
vt -8.826401 -14.3912
vt -13.1716 -14.3432
vt 10.8284 -14.3432
vt 7.1736 -14.3912
vt 11.1736 -14.3912
vt 7.464 -14.536
vt 11.464 -14.536
vt 7.6956 -14.7736
vt 11.6956 -14.7736
vt 7.8636 -15.1012
vt 11.8636 -15.1012
vt 7.9656 -15.5124
vt 11.9656 -15.5124
vt 8 -16
vt 12 -16
vt 7.9656 -16.5564
vt 11.9656 -16.5564
vt 7.8636 -17.1716
vt 11.8636 -17.1716
vt 7.6956 -17.8352
vt 11.6956 -17.8352
vt 7.464 -18.536
vt 11.464 -18.536
vt 7.1736 -19.2616
vt 11.1736 -19.2616
vt 6.8284 -20
vt 10.8284 -20
vt 6.4352 -20.7384
vt 10.4352 -20.7384
vt 6 -21.464
vt 10 -21.464
vt 5.5308 -22.1648
vt 9.5308 -22.1648
vt 5.0352 -22.8284
vt 9.0352 -22.8284
vt 4.522 -23.4436
vt 8.522 -23.4436
vt 4 -24
vt -16 -24
vt -19.9656 -24.4876
vt -15.9656 -24.4876
vt -19.8636 -24.8988
vt -15.8636 -24.8988
vt -19.6956 -25.2264
vt -15.6956 -25.2264
vt -19.464 -25.464
vt -15.464 -25.464
vt -19.1736 -25.6088
vt -15.1736 -25.6088
vt -18.8284 -25.6568
vt 5.1716 -25.6568
vt 0.8264 -25.6088
vt 4.8264 -25.6088
vt 0.536 -25.464
vt 4.536 -25.464
vt 0.3044 -25.2264
vt 4.3044 -25.2264
vt 0.1364 -24.8988
vt 4.1364 -24.8988
vt 0.03439999 -24.4876
vt 4.0344 -24.4876
vt 0 -24
vt -12 -24
vt -15.478 -23.4436
vt -11.478 -23.4436
vt -14.9648 -22.8284
vt -10.9648 -22.8284
vt -14.4692 -22.1648
vt -10.4692 -22.1648
vt -14 -21.464
vt -10 -21.464
vt -13.5648 -20.7384
vt -9.5648 -20.7384
vt -13.1716 -20
vt -9.1716 -20
vt -12.8264 -19.2616
vt -8.826401 -19.2616
vt -12.536 -18.536
vt -8.535999 -18.536
vt -12.3044 -17.8352
vt -8.304399 -17.8352
vt -12.1364 -17.1716
vt -8.1364 -17.1716
vt -12.0344 -16.5564
vt -8.034401 -16.5564
vt 8.522 -28.0344
vt 8 -28
vt 8 -32
vt 9.0352 -28.1364
vt 9.5308 -28.3044
vt 10 -28.536
vt 10.4352 -28.8264
vt 10.8284 -29.1716
vt 11.1736 -29.5648
vt 11.464 -30
vt 11.6956 -30.4692
vt 11.8636 -30.9648
vt 11.9656 -31.478
vt 12 -32
vt 11.9656 -32.522
vt 11.8636 -33.0352
vt 11.6956 -33.5308
vt 11.464 -34
vt 11.1736 -34.4352
vt 10.8284 -34.8284
vt 10.4352 -35.1736
vt 10 -35.464
vt 9.5308 -35.6956
vt 9.0352 -35.8636
vt 8.522 -35.9656
vt 8 -36
vt 7.478 -35.9656
vt 6.9648 -35.8636
vt 6.4692 -35.6956
vt 6 -35.464
vt 5.5648 -35.1736
vt 5.1716 -34.8284
vt 4.8264 -34.4352
vt 4.536 -34
vt 4.3044 -33.5308
vt 4.1364 -33.0352
vt 4.0344 -32.522
vt 4 -32
vt 4.0344 -31.478
vt 4.1364 -30.9648
vt 4.3044 -30.4692
vt 4.536 -30
vt 4.8264 -29.5648
vt 5.1716 -29.1716
vt 5.5648 -28.8264
vt 6 -28.536
vt 6.4692 -28.3044
vt 6.9648 -28.1364
vt 7.478 -28.0344
vt -32.0344 -35.5124
vt -32 -36
vt -28 -36
vt -28.0344 -35.5124
vt -32.1364 -35.1012
vt -28.1364 -35.1012
vt -32.3044 -34.7736
vt -28.3044 -34.7736
vt -32.536 -34.536
vt -28.536 -34.536
vt -32.8264 -34.3912
vt -28.8264 -34.3912
vt -33.1716 -34.3432
vt 10.8284 -34.3432
vt 7.1736 -34.3912
vt 11.1736 -34.3912
vt 7.464 -34.536
vt 11.464 -34.536
vt 7.6956 -34.7736
vt 11.6956 -34.7736
vt 7.8636 -35.1012
vt 11.8636 -35.1012
vt 7.9656 -35.5124
vt 11.9656 -35.5124
vt 8 -36
vt 12 -36
vt 7.9656 -36.5564
vt 11.9656 -36.5564
vt 7.8636 -37.1716
vt 11.8636 -37.1716
vt 7.6956 -37.8352
vt 11.6956 -37.8352
vt 7.464 -38.536
vt 11.464 -38.536
vt 7.1736 -39.2616
vt 11.1736 -39.2616
vt 6.8284 -40
vt 10.8284 -40
vt 6.4352 -40.7384
vt 10.4352 -40.7384
vt 6 -41.464
vt 10 -41.464
vt 5.5308 -42.1648
vt 9.5308 -42.1648
vt 5.0352 -42.8284
vt 9.0352 -42.8284
vt 4.522 -43.4436
vt 8.522 -43.4436
vt 4 -44
vt -36 -44
vt -39.9656 -44.4876
vt -35.9656 -44.4876
vt -39.8636 -44.8988
vt -35.8636 -44.8988
vt -39.6956 -45.2264
vt -35.6956 -45.2264
vt -39.464 -45.464
vt -35.464 -45.464
vt -39.1736 -45.6088
vt -35.1736 -45.6088
vt -38.8284 -45.6568
vt 5.1716 -45.6568
vt 0.8264 -45.6088
vt 4.8264 -45.6088
vt 0.536 -45.464
vt 4.536 -45.464
vt 0.3044 -45.2264
vt 4.3044 -45.2264
vt 0.1364 -44.8988
vt 4.1364 -44.8988
vt 0.03439999 -44.4876
vt 4.0344 -44.4876
vt 0 -44
vt -32 -44
vt -35.478 -43.4436
vt -31.478 -43.4436
vt -34.9648 -42.8284
vt -30.9648 -42.8284
vt -34.4692 -42.1648
vt -30.4692 -42.1648
vt -34 -41.464
vt -30 -41.464
vt -33.5648 -40.7384
vt -29.5648 -40.7384
vt -33.1716 -40
vt -29.1716 -40
vt -32.8264 -39.2616
vt -28.8264 -39.2616
vt -32.536 -38.536
vt -28.536 -38.536
vt -32.3044 -37.8352
vt -28.3044 -37.8352
vt -32.1364 -37.1716
vt -28.1364 -37.1716
vt -32.0344 -36.5564
vt -28.0344 -36.5564
vt -10 50
vt -3 50
vt -3 -70
vt -10 -70
vt -60 -70
vt -53 -70
vt -53 -50
vt -60 -50
vt 10 -50
vt 17 -50
vt 17 70
vt 10 70
vt 60 70
vt 67 70
vt 67 50
vt 60 50
vt 10 -52
vt 10 60
vt -2 60
vt -2 -52
vt -2 50
vt 2 50
vt 2 -62
vt -2 -62
vt -52 -62
vt -48 -62
vt -48 -50
vt -52 -50
vt 10 -50
vt 14 -50
vt 14 62
vt 10 62
vt 60 62
vt 64 62
vt 64 50
vt 60 50
vt -1 -51
vt 2 -48
vt 2 64
vt -1 67
vt 17 -51
vt 14 -48
vt 17 67
vt 14 64
vt -2 50
vt -1 50
vt -1 -68
vt -2 -68
vt -52 -68
vt -51 -68
vt -51 -50
vt -52 -50
vt 16 -50
vt 17 -50
vt 17 68
vt 16 68
vt 66 68
vt 67 68
vt 67 50
vt 66 50
vt -3 -53
vt -2 -52
vt -2 66
vt -3 67
vt 17 -53
vt 16 -52
vt 17 67
vt 16 66
vt 10 -60
vt -10 -60
vt -10 60
vt 10 60
usemtl 26
f 3/3/3 2/2/2 1/1/1
f 3/3/3 1/1/1 4/4/4
f 3/3/3 4/4/4 5/5/5
f 3/3/3 5/5/5 6/6/6
f 3/3/3 6/6/6 7/7/7
f 3/3/3 7/7/7 8/8/8
f 3/3/3 8/8/8 9/9/9
f 3/3/3 9/9/9 10/10/10
f 3/3/3 10/10/10 11/11/11
f 3/3/3 11/11/11 12/12/12
f 3/3/3 12/12/12 13/13/13
f 3/3/3 13/13/13 14/14/14
f 3/3/3 14/14/14 15/15/15
f 3/3/3 15/15/15 16/16/16
f 3/3/3 16/16/16 17/17/17
f 3/3/3 17/17/17 18/18/18
f 3/3/3 18/18/18 19/19/19
f 3/3/3 19/19/19 20/20/20
f 3/3/3 20/20/20 21/21/21
f 3/3/3 21/21/21 22/22/22
f 3/3/3 22/22/22 23/23/23
f 3/3/3 23/23/23 24/24/24
f 3/3/3 24/24/24 25/25/25
f 3/3/3 25/25/25 26/26/26
f 3/3/3 26/26/26 27/27/27
f 3/3/3 27/27/27 28/28/28
f 3/3/3 28/28/28 29/29/29
f 3/3/3 29/29/29 30/30/30
f 3/3/3 30/30/30 31/31/31
f 3/3/3 31/31/31 32/32/32
f 3/3/3 32/32/32 33/33/33
f 3/3/3 33/33/33 34/34/34
f 3/3/3 34/34/34 35/35/35
f 3/3/3 35/35/35 36/36/36
f 3/3/3 36/36/36 37/37/37
f 3/3/3 37/37/37 38/38/38
f 3/3/3 38/38/38 39/39/39
f 3/3/3 39/39/39 40/40/40
f 3/3/3 40/40/40 41/41/41
f 3/3/3 41/41/41 42/42/42
f 3/3/3 42/42/42 43/43/43
f 3/3/3 43/43/43 44/44/44
f 3/3/3 44/44/44 45/45/45
f 3/3/3 45/45/45 46/46/46
f 3/3/3 46/46/46 47/47/47
f 3/3/3 47/47/47 48/48/48
f 3/3/3 48/48/48 49/49/49
f 3/3/3 49/49/49 2/2/2
f 52/52/52 51/51/51 50/50/50
f 50/50/50 53/53/53 52/52/52
f 53/53/53 50/50/50 54/54/54
f 54/54/54 55/55/55 53/53/53
f 55/55/55 54/54/54 56/56/56
f 56/56/56 57/57/57 55/55/55
f 57/57/57 56/56/56 58/58/58
f 58/58/58 59/59/59 57/57/57
f 59/59/59 58/58/58 60/60/60
f 60/60/60 61/61/61 59/59/59
f 61/61/61 60/60/60 62/62/62
f 62/62/62 63/63/63 61/61/61
f 63/63/63 62/62/62 64/64/64
f 64/64/64 65/65/65 63/63/63
f 65/65/65 64/64/64 66/66/66
f 66/66/66 67/67/67 65/65/65
f 67/67/67 66/66/66 68/68/68
f 68/68/68 69/69/69 67/67/67
f 69/69/69 68/68/68 70/70/70
f 70/70/70 71/71/71 69/69/69
f 71/71/71 70/70/70 72/72/72
f 72/72/72 73/73/73 71/71/71
f 73/73/73 72/72/72 74/74/74
f 74/74/74 75/75/75 73/73/73
f 75/75/75 74/74/74 76/76/76
f 76/76/76 77/77/77 75/75/75
f 77/77/77 76/76/76 78/78/78
f 78/78/78 79/79/79 77/77/77
f 79/79/79 78/78/78 80/80/80
f 80/80/80 81/81/81 79/79/79
f 81/81/81 80/80/80 82/82/82
f 82/82/82 83/83/83 81/81/81
f 83/83/83 82/82/82 84/84/84
f 84/84/84 85/85/85 83/83/83
f 85/85/85 84/84/84 86/86/86
f 86/86/86 87/87/87 85/85/85
f 87/87/87 86/86/86 88/88/88
f 88/88/88 89/89/89 87/87/87
f 89/89/89 88/88/88 90/90/90
f 90/90/90 91/91/91 89/89/89
f 91/91/91 90/90/90 92/92/92
f 92/92/92 93/93/93 91/91/91
f 93/93/93 92/92/92 94/94/94
f 94/94/94 95/95/95 93/93/93
f 95/95/95 94/94/94 96/96/96
f 96/96/96 97/97/97 95/95/95
f 97/97/97 96/96/96 98/98/98
f 98/98/98 99/99/99 97/97/97
f 99/99/99 98/98/98 100/100/100
f 100/100/100 101/101/101 99/99/99
f 101/101/101 100/100/100 102/102/102
f 102/102/102 103/103/103 101/101/101
f 103/103/103 102/102/102 104/104/104
f 104/104/104 105/105/105 103/103/103
f 105/105/105 104/104/104 106/106/106
f 106/106/106 107/107/107 105/105/105
f 107/107/107 106/106/106 108/108/108
f 108/108/108 109/109/109 107/107/107
f 109/109/109 108/108/108 110/110/110
f 110/110/110 111/111/111 109/109/109
f 111/111/111 110/110/110 112/112/112
f 112/112/112 113/113/113 111/111/111
f 113/113/113 112/112/112 114/114/114
f 114/114/114 115/115/115 113/113/113
f 115/115/115 114/114/114 116/116/116
f 116/116/116 117/117/117 115/115/115
f 117/117/117 116/116/116 118/118/118
f 118/118/118 119/119/119 117/117/117
f 119/119/119 118/118/118 120/120/120
f 120/120/120 121/121/121 119/119/119
f 121/121/121 120/120/120 122/122/122
f 122/122/122 123/123/123 121/121/121
f 123/123/123 122/122/122 124/124/124
f 124/124/124 125/125/125 123/123/123
f 125/125/125 124/124/124 126/126/126
f 126/126/126 127/127/127 125/125/125
f 127/127/127 126/126/126 128/128/128
f 128/128/128 129/129/129 127/127/127
f 129/129/129 128/128/128 130/130/130
f 130/130/130 131/131/131 129/129/129
f 131/131/131 130/130/130 132/132/132
f 132/132/132 133/133/133 131/131/131
f 133/133/133 132/132/132 134/134/134
f 134/134/134 135/135/135 133/133/133
f 135/135/135 134/134/134 136/136/136
f 136/136/136 137/137/137 135/135/135
f 137/137/137 136/136/136 138/138/138
f 138/138/138 139/139/139 137/137/137
f 139/139/139 138/138/138 140/140/140
f 140/140/140 141/141/141 139/139/139
f 141/141/141 140/140/140 142/142/142
f 142/142/142 143/143/143 141/141/141
f 143/143/143 142/142/142 144/144/144
f 144/144/144 145/145/145 143/143/143
f 145/145/145 144/144/144 51/51/51
f 51/51/51 52/52/52 145/145/145
f 148/148/148 147/147/147 146/146/146
f 148/148/148 146/146/146 149/149/149
f 148/148/148 149/149/149 150/150/150
f 148/148/148 150/150/150 151/151/151
f 148/148/148 151/151/151 152/152/152
f 148/148/148 152/152/152 153/153/153
f 148/148/148 153/153/153 154/154/154
f 148/148/148 154/154/154 155/155/155
f 148/148/148 155/155/155 156/156/156
f 148/148/148 156/156/156 157/157/157
f 148/148/148 157/157/157 158/158/158
f 148/148/148 158/158/158 159/159/159
f 148/148/148 159/159/159 160/160/160
f 148/148/148 160/160/160 161/161/161
f 148/148/148 161/161/161 162/162/162
f 148/148/148 162/162/162 163/163/163
f 148/148/148 163/163/163 164/164/164
f 148/148/148 164/164/164 165/165/165
f 148/148/148 165/165/165 166/166/166
f 148/148/148 166/166/166 167/167/167
f 148/148/148 167/167/167 168/168/168
f 148/148/148 168/168/168 169/169/169
f 148/148/148 169/169/169 170/170/170
f 148/148/148 170/170/170 171/171/171
f 148/148/148 171/171/171 172/172/172
f 148/148/148 172/172/172 173/173/173
f 148/148/148 173/173/173 174/174/174
f 148/148/148 174/174/174 175/175/175
f 148/148/148 175/175/175 176/176/176
f 148/148/148 176/176/176 177/177/177
f 148/148/148 177/177/177 178/178/178
f 148/148/148 178/178/178 179/179/179
f 148/148/148 179/179/179 180/180/180
f 148/148/148 180/180/180 181/181/181
f 148/148/148 181/181/181 182/182/182
f 148/148/148 182/182/182 183/183/183
f 148/148/148 183/183/183 184/184/184
f 148/148/148 184/184/184 185/185/185
f 148/148/148 185/185/185 186/186/186
f 148/148/148 186/186/186 187/187/187
f 148/148/148 187/187/187 188/188/188
f 148/148/148 188/188/188 189/189/189
f 148/148/148 189/189/189 190/190/190
f 148/148/148 190/190/190 191/191/191
f 148/148/148 191/191/191 192/192/192
f 148/148/148 192/192/192 193/193/193
f 148/148/148 193/193/193 194/194/194
f 148/148/148 194/194/194 147/147/147
f 197/197/197 196/196/196 195/195/195
f 195/195/195 198/198/198 197/197/197
f 198/198/198 195/195/195 199/199/199
f 199/199/199 200/200/200 198/198/198
f 200/200/200 199/199/199 201/201/201
f 201/201/201 202/202/202 200/200/200
f 202/202/202 201/201/201 203/203/203
f 203/203/203 204/204/204 202/202/202
f 204/204/204 203/203/203 205/205/205
f 205/205/205 206/206/206 204/204/204
f 206/206/206 205/205/205 207/207/207
f 207/207/207 208/208/208 206/206/206
f 208/208/208 207/207/207 209/209/209
f 209/209/209 210/210/210 208/208/208
f 210/210/210 209/209/209 211/211/211
f 211/211/211 212/212/212 210/210/210
f 212/212/212 211/211/211 213/213/213
f 213/213/213 214/214/214 212/212/212
f 214/214/214 213/213/213 215/215/215
f 215/215/215 216/216/216 214/214/214
f 216/216/216 215/215/215 217/217/217
f 217/217/217 218/218/218 216/216/216
f 218/218/218 217/217/217 219/219/219
f 219/219/219 220/220/220 218/218/218
f 220/220/220 219/219/219 221/221/221
f 221/221/221 222/222/222 220/220/220
f 222/222/222 221/221/221 223/223/223
f 223/223/223 224/224/224 222/222/222
f 224/224/224 223/223/223 225/225/225
f 225/225/225 226/226/226 224/224/224
f 226/226/226 225/225/225 227/227/227
f 227/227/227 228/228/228 226/226/226
f 228/228/228 227/227/227 229/229/229
f 229/229/229 230/230/230 228/228/228
f 230/230/230 229/229/229 231/231/231
f 231/231/231 232/232/232 230/230/230
f 232/232/232 231/231/231 233/233/233
f 233/233/233 234/234/234 232/232/232
f 234/234/234 233/233/233 235/235/235
f 235/235/235 236/236/236 234/234/234
f 236/236/236 235/235/235 237/237/237
f 237/237/237 238/238/238 236/236/236
f 238/238/238 237/237/237 239/239/239
f 239/239/239 240/240/240 238/238/238
f 240/240/240 239/239/239 241/241/241
f 241/241/241 242/242/242 240/240/240
f 242/242/242 241/241/241 243/243/243
f 243/243/243 244/244/244 242/242/242
f 244/244/244 243/243/243 245/245/245
f 245/245/245 246/246/246 244/244/244
f 246/246/246 245/245/245 247/247/247
f 247/247/247 248/248/248 246/246/246
f 248/248/248 247/247/247 249/249/249
f 249/249/249 250/250/250 248/248/248
f 250/250/250 249/249/249 251/251/251
f 251/251/251 252/252/252 250/250/250
f 252/252/252 251/251/251 253/253/253
f 253/253/253 254/254/254 252/252/252
f 254/254/254 253/253/253 255/255/255
f 255/255/255 256/256/256 254/254/254
f 256/256/256 255/255/255 257/257/257
f 257/257/257 258/258/258 256/256/256
f 258/258/258 257/257/257 259/259/259
f 259/259/259 260/260/260 258/258/258
f 260/260/260 259/259/259 261/261/261
f 261/261/261 262/262/262 260/260/260
f 262/262/262 261/261/261 263/263/263
f 263/263/263 264/264/264 262/262/262
f 264/264/264 263/263/263 265/265/265
f 265/265/265 266/266/266 264/264/264
f 266/266/266 265/265/265 267/267/267
f 267/267/267 268/268/268 266/266/266
f 268/268/268 267/267/267 269/269/269
f 269/269/269 270/270/270 268/268/268
f 270/270/270 269/269/269 271/271/271
f 271/271/271 272/272/272 270/270/270
f 272/272/272 271/271/271 273/273/273
f 273/273/273 274/274/274 272/272/272
f 274/274/274 273/273/273 275/275/275
f 275/275/275 276/276/276 274/274/274
f 276/276/276 275/275/275 277/277/277
f 277/277/277 278/278/278 276/276/276
f 278/278/278 277/277/277 279/279/279
f 279/279/279 280/280/280 278/278/278
f 280/280/280 279/279/279 281/281/281
f 281/281/281 282/282/282 280/280/280
f 282/282/282 281/281/281 283/283/283
f 283/283/283 284/284/284 282/282/282
f 284/284/284 283/283/283 285/285/285
f 285/285/285 286/286/286 284/284/284
f 286/286/286 285/285/285 287/287/287
f 287/287/287 288/288/288 286/286/286
f 288/288/288 287/287/287 289/289/289
f 289/289/289 290/290/290 288/288/288
f 290/290/290 289/289/289 196/196/196
f 196/196/196 197/197/197 290/290/290
f 293/293/293 292/292/292 291/291/291
f 293/293/293 291/291/291 294/294/294
f 293/293/293 294/294/294 295/295/295
f 293/293/293 295/295/295 296/296/296
f 293/293/293 296/296/296 297/297/297
f 293/293/293 297/297/297 298/298/298
f 293/293/293 298/298/298 299/299/299
f 293/293/293 299/299/299 300/300/300
f 293/293/293 300/300/300 301/301/301
f 293/293/293 301/301/301 302/302/302
f 293/293/293 302/302/302 303/303/303
f 293/293/293 303/303/303 304/304/304
f 293/293/293 304/304/304 305/305/305
f 293/293/293 305/305/305 306/306/306
f 293/293/293 306/306/306 307/307/307
f 293/293/293 307/307/307 308/308/308
f 293/293/293 308/308/308 309/309/309
f 293/293/293 309/309/309 310/310/310
f 293/293/293 310/310/310 311/311/311
f 293/293/293 311/311/311 312/312/312
f 293/293/293 312/312/312 313/313/313
f 293/293/293 313/313/313 314/314/314
f 293/293/293 314/314/314 315/315/315
f 293/293/293 315/315/315 316/316/316
f 293/293/293 316/316/316 317/317/317
f 293/293/293 317/317/317 318/318/318
f 293/293/293 318/318/318 319/319/319
f 293/293/293 319/319/319 320/320/320
f 293/293/293 320/320/320 321/321/321
f 293/293/293 321/321/321 322/322/322
f 293/293/293 322/322/322 323/323/323
f 293/293/293 323/323/323 324/324/324
f 293/293/293 324/324/324 325/325/325
f 293/293/293 325/325/325 326/326/326
f 293/293/293 326/326/326 327/327/327
f 293/293/293 327/327/327 328/328/328
f 293/293/293 328/328/328 329/329/329
f 293/293/293 329/329/329 330/330/330
f 293/293/293 330/330/330 331/331/331
f 293/293/293 331/331/331 332/332/332
f 293/293/293 332/332/332 333/333/333
f 293/293/293 333/333/333 334/334/334
f 293/293/293 334/334/334 335/335/335
f 293/293/293 335/335/335 336/336/336
f 293/293/293 336/336/336 337/337/337
f 293/293/293 337/337/337 338/338/338
f 293/293/293 338/338/338 339/339/339
f 293/293/293 339/339/339 292/292/292
f 342/342/342 341/341/341 340/340/340
f 340/340/340 343/343/343 342/342/342
f 343/343/343 340/340/340 344/344/344
f 344/344/344 345/345/345 343/343/343
f 345/345/345 344/344/344 346/346/346
f 346/346/346 347/347/347 345/345/345
f 347/347/347 346/346/346 348/348/348
f 348/348/348 349/349/349 347/347/347
f 349/349/349 348/348/348 350/350/350
f 350/350/350 351/351/351 349/349/349
f 351/351/351 350/350/350 352/352/352
f 352/352/352 353/353/353 351/351/351
f 353/353/353 352/352/352 354/354/354
f 354/354/354 355/355/355 353/353/353
f 355/355/355 354/354/354 356/356/356
f 356/356/356 357/357/357 355/355/355
f 357/357/357 356/356/356 358/358/358
f 358/358/358 359/359/359 357/357/357
f 359/359/359 358/358/358 360/360/360
f 360/360/360 361/361/361 359/359/359
f 361/361/361 360/360/360 362/362/362
f 362/362/362 363/363/363 361/361/361
f 363/363/363 362/362/362 364/364/364
f 364/364/364 365/365/365 363/363/363
f 365/365/365 364/364/364 366/366/366
f 366/366/366 367/367/367 365/365/365
f 367/367/367 366/366/366 368/368/368
f 368/368/368 369/369/369 367/367/367
f 369/369/369 368/368/368 370/370/370
f 370/370/370 371/371/371 369/369/369
f 371/371/371 370/370/370 372/372/372
f 372/372/372 373/373/373 371/371/371
f 373/373/373 372/372/372 374/374/374
f 374/374/374 375/375/375 373/373/373
f 375/375/375 374/374/374 376/376/376
f 376/376/376 377/377/377 375/375/375
f 377/377/377 376/376/376 378/378/378
f 378/378/378 379/379/379 377/377/377
f 379/379/379 378/378/378 380/380/380
f 380/380/380 381/381/381 379/379/379
f 381/381/381 380/380/380 382/382/382
f 382/382/382 383/383/383 381/381/381
f 383/383/383 382/382/382 384/384/384
f 384/384/384 385/385/385 383/383/383
f 385/385/385 384/384/384 386/386/386
f 386/386/386 387/387/387 385/385/385
f 387/387/387 386/386/386 388/388/388
f 388/388/388 389/389/389 387/387/387
f 389/389/389 388/388/388 390/390/390
f 390/390/390 391/391/391 389/389/389
f 391/391/391 390/390/390 392/392/392
f 392/392/392 393/393/393 391/391/391
f 393/393/393 392/392/392 394/394/394
f 394/394/394 395/395/395 393/393/393
f 395/395/395 394/394/394 396/396/396
f 396/396/396 397/397/397 395/395/395
f 397/397/397 396/396/396 398/398/398
f 398/398/398 399/399/399 397/397/397
f 399/399/399 398/398/398 400/400/400
f 400/400/400 401/401/401 399/399/399
f 401/401/401 400/400/400 402/402/402
f 402/402/402 403/403/403 401/401/401
f 403/403/403 402/402/402 404/404/404
f 404/404/404 405/405/405 403/403/403
f 405/405/405 404/404/404 406/406/406
f 406/406/406 407/407/407 405/405/405
f 407/407/407 406/406/406 408/408/408
f 408/408/408 409/409/409 407/407/407
f 409/409/409 408/408/408 410/410/410
f 410/410/410 411/411/411 409/409/409
f 411/411/411 410/410/410 412/412/412
f 412/412/412 413/413/413 411/411/411
f 413/413/413 412/412/412 414/414/414
f 414/414/414 415/415/415 413/413/413
f 415/415/415 414/414/414 416/416/416
f 416/416/416 417/417/417 415/415/415
f 417/417/417 416/416/416 418/418/418
f 418/418/418 419/419/419 417/417/417
f 419/419/419 418/418/418 420/420/420
f 420/420/420 421/421/421 419/419/419
f 421/421/421 420/420/420 422/422/422
f 422/422/422 423/423/423 421/421/421
f 423/423/423 422/422/422 424/424/424
f 424/424/424 425/425/425 423/423/423
f 425/425/425 424/424/424 426/426/426
f 426/426/426 427/427/427 425/425/425
f 427/427/427 426/426/426 428/428/428
f 428/428/428 429/429/429 427/427/427
f 429/429/429 428/428/428 430/430/430
f 430/430/430 431/431/431 429/429/429
f 431/431/431 430/430/430 432/432/432
f 432/432/432 433/433/433 431/431/431
f 433/433/433 432/432/432 434/434/434
f 434/434/434 435/435/435 433/433/433
f 435/435/435 434/434/434 341/341/341
f 341/341/341 342/342/342 435/435/435
f 438/438/438 437/437/437 436/436/436
f 438/438/438 436/436/436 439/439/439
f 438/438/438 439/439/439 440/440/440
f 438/438/438 440/440/440 441/441/441
f 438/438/438 441/441/441 442/442/442
f 438/438/438 442/442/442 443/443/443
f 438/438/438 443/443/443 444/444/444
f 438/438/438 444/444/444 445/445/445
f 438/438/438 445/445/445 446/446/446
f 438/438/438 446/446/446 447/447/447
f 438/438/438 447/447/447 448/448/448
f 438/438/438 448/448/448 449/449/449
f 438/438/438 449/449/449 450/450/450
f 438/438/438 450/450/450 451/451/451
f 438/438/438 451/451/451 452/452/452
f 438/438/438 452/452/452 453/453/453
f 438/438/438 453/453/453 454/454/454
f 438/438/438 454/454/454 455/455/455
f 438/438/438 455/455/455 456/456/456
f 438/438/438 456/456/456 457/457/457
f 438/438/438 457/457/457 458/458/458
f 438/438/438 458/458/458 459/459/459
f 438/438/438 459/459/459 460/460/460
f 438/438/438 460/460/460 461/461/461
f 438/438/438 461/461/461 462/462/462
f 438/438/438 462/462/462 463/463/463
f 438/438/438 463/463/463 464/464/464
f 438/438/438 464/464/464 465/465/465
f 438/438/438 465/465/465 466/466/466
f 438/438/438 466/466/466 467/467/467
f 438/438/438 467/467/467 468/468/468
f 438/438/438 468/468/468 469/469/469
f 438/438/438 469/469/469 470/470/470
f 438/438/438 470/470/470 471/471/471
f 438/438/438 471/471/471 472/472/472
f 438/438/438 472/472/472 473/473/473
f 438/438/438 473/473/473 474/474/474
f 438/438/438 474/474/474 475/475/475
f 438/438/438 475/475/475 476/476/476
f 438/438/438 476/476/476 477/477/477
f 438/438/438 477/477/477 478/478/478
f 438/438/438 478/478/478 479/479/479
f 438/438/438 479/479/479 480/480/480
f 438/438/438 480/480/480 481/481/481
f 438/438/438 481/481/481 482/482/482
f 438/438/438 482/482/482 483/483/483
f 438/438/438 483/483/483 484/484/484
f 438/438/438 484/484/484 437/437/437
f 487/487/487 486/486/486 485/485/485
f 485/485/485 488/488/488 487/487/487
f 488/488/488 485/485/485 489/489/489
f 489/489/489 490/490/490 488/488/488
f 490/490/490 489/489/489 491/491/491
f 491/491/491 492/492/492 490/490/490
f 492/492/492 491/491/491 493/493/493
f 493/493/493 494/494/494 492/492/492
f 494/494/494 493/493/493 495/495/495
f 495/495/495 496/496/496 494/494/494
f 496/496/496 495/495/495 497/497/497
f 497/497/497 498/498/498 496/496/496
f 498/498/498 497/497/497 499/499/499
f 499/499/499 500/500/500 498/498/498
f 500/500/500 499/499/499 501/501/501
f 501/501/501 502/502/502 500/500/500
f 502/502/502 501/501/501 503/503/503
f 503/503/503 504/504/504 502/502/502
f 504/504/504 503/503/503 505/505/505
f 505/505/505 506/506/506 504/504/504
f 506/506/506 505/505/505 507/507/507
f 507/507/507 508/508/508 506/506/506
f 508/508/508 507/507/507 509/509/509
f 509/509/509 510/510/510 508/508/508
f 510/510/510 509/509/509 511/511/511
f 511/511/511 512/512/512 510/510/510
f 512/512/512 511/511/511 513/513/513
f 513/513/513 514/514/514 512/512/512
f 514/514/514 513/513/513 515/515/515
f 515/515/515 516/516/516 514/514/514
f 516/516/516 515/515/515 517/517/517
f 517/517/517 518/518/518 516/516/516
f 518/518/518 517/517/517 519/519/519
f 519/519/519 520/520/520 518/518/518
f 520/520/520 519/519/519 521/521/521
f 521/521/521 522/522/522 520/520/520
f 522/522/522 521/521/521 523/523/523
f 523/523/523 524/524/524 522/522/522
f 524/524/524 523/523/523 525/525/525
f 525/525/525 526/526/526 524/524/524
f 526/526/526 525/525/525 527/527/527
f 527/527/527 528/528/528 526/526/526
f 528/528/528 527/527/527 529/529/529
f 529/529/529 530/530/530 528/528/528
f 530/530/530 529/529/529 531/531/531
f 531/531/531 532/532/532 530/530/530
f 532/532/532 531/531/531 533/533/533
f 533/533/533 534/534/534 532/532/532
f 534/534/534 533/533/533 535/535/535
f 535/535/535 536/536/536 534/534/534
f 536/536/536 535/535/535 537/537/537
f 537/537/537 538/538/538 536/536/536
f 538/538/538 537/537/537 539/539/539
f 539/539/539 540/540/540 538/538/538
f 540/540/540 539/539/539 541/541/541
f 541/541/541 542/542/542 540/540/540
f 542/542/542 541/541/541 543/543/543
f 543/543/543 544/544/544 542/542/542
f 544/544/544 543/543/543 545/545/545
f 545/545/545 546/546/546 544/544/544
f 546/546/546 545/545/545 547/547/547
f 547/547/547 548/548/548 546/546/546
f 548/548/548 547/547/547 549/549/549
f 549/549/549 550/550/550 548/548/548
f 550/550/550 549/549/549 551/551/551
f 551/551/551 552/552/552 550/550/550
f 552/552/552 551/551/551 553/553/553
f 553/553/553 554/554/554 552/552/552
f 554/554/554 553/553/553 555/555/555
f 555/555/555 556/556/556 554/554/554
f 556/556/556 555/555/555 557/557/557
f 557/557/557 558/558/558 556/556/556
f 558/558/558 557/557/557 559/559/559
f 559/559/559 560/560/560 558/558/558
f 560/560/560 559/559/559 561/561/561
f 561/561/561 562/562/562 560/560/560
f 562/562/562 561/561/561 563/563/563
f 563/563/563 564/564/564 562/562/562
f 564/564/564 563/563/563 565/565/565
f 565/565/565 566/566/566 564/564/564
f 566/566/566 565/565/565 567/567/567
f 567/567/567 568/568/568 566/566/566
f 568/568/568 567/567/567 569/569/569
f 569/569/569 570/570/570 568/568/568
f 570/570/570 569/569/569 571/571/571
f 571/571/571 572/572/572 570/570/570
f 572/572/572 571/571/571 573/573/573
f 573/573/573 574/574/574 572/572/572
f 574/574/574 573/573/573 575/575/575
f 575/575/575 576/576/576 574/574/574
f 576/576/576 575/575/575 577/577/577
f 577/577/577 578/578/578 576/576/576
f 578/578/578 577/577/577 579/579/579
f 579/579/579 580/580/580 578/578/578
f 580/580/580 579/579/579 486/486/486
f 486/486/486 487/487/487 580/580/580
f 583/583/583 582/582/582 581/581/581
f 583/583/583 581/581/581 584/584/584
f 583/583/583 584/584/584 585/585/585
f 583/583/583 585/585/585 586/586/586
f 583/583/583 586/586/586 587/587/587
f 583/583/583 587/587/587 588/588/588
f 583/583/583 588/588/588 589/589/589
f 583/583/583 589/589/589 590/590/590
f 583/583/583 590/590/590 591/591/591
f 583/583/583 591/591/591 592/592/592
f 583/583/583 592/592/592 593/593/593
f 583/583/583 593/593/593 594/594/594
f 583/583/583 594/594/594 595/595/595
f 583/583/583 595/595/595 596/596/596
f 583/583/583 596/596/596 597/597/597
f 583/583/583 597/597/597 598/598/598
f 583/583/583 598/598/598 599/599/599
f 583/583/583 599/599/599 600/600/600
f 583/583/583 600/600/600 601/601/601
f 583/583/583 601/601/601 602/602/602
f 583/583/583 602/602/602 603/603/603
f 583/583/583 603/603/603 604/604/604
f 583/583/583 604/604/604 605/605/605
f 583/583/583 605/605/605 606/606/606
f 583/583/583 606/606/606 607/607/607
f 583/583/583 607/607/607 608/608/608
f 583/583/583 608/608/608 609/609/609
f 583/583/583 609/609/609 610/610/610
f 583/583/583 610/610/610 611/611/611
f 583/583/583 611/611/611 612/612/612
f 583/583/583 612/612/612 613/613/613
f 583/583/583 613/613/613 614/614/614
f 583/583/583 614/614/614 615/615/615
f 583/583/583 615/615/615 616/616/616
f 583/583/583 616/616/616 617/617/617
f 583/583/583 617/617/617 618/618/618
f 583/583/583 618/618/618 619/619/619
f 583/583/583 619/619/619 620/620/620
f 583/583/583 620/620/620 621/621/621
f 583/583/583 621/621/621 622/622/622
f 583/583/583 622/622/622 623/623/623
f 583/583/583 623/623/623 624/624/624
f 583/583/583 624/624/624 625/625/625
f 583/583/583 625/625/625 626/626/626
f 583/583/583 626/626/626 627/627/627
f 583/583/583 627/627/627 628/628/628
f 583/583/583 628/628/628 629/629/629
f 583/583/583 629/629/629 582/582/582
f 632/632/632 631/631/631 630/630/630
f 630/630/630 633/633/633 632/632/632
f 633/633/633 630/630/630 634/634/634
f 634/634/634 635/635/635 633/633/633
f 635/635/635 634/634/634 636/636/636
f 636/636/636 637/637/637 635/635/635
f 637/637/637 636/636/636 638/638/638
f 638/638/638 639/639/639 637/637/637
f 639/639/639 638/638/638 640/640/640
f 640/640/640 641/641/641 639/639/639
f 641/641/641 640/640/640 642/642/642
f 642/642/642 643/643/643 641/641/641
f 643/643/643 642/642/642 644/644/644
f 644/644/644 645/645/645 643/643/643
f 645/645/645 644/644/644 646/646/646
f 646/646/646 647/647/647 645/645/645
f 647/647/647 646/646/646 648/648/648
f 648/648/648 649/649/649 647/647/647
f 649/649/649 648/648/648 650/650/650
f 650/650/650 651/651/651 649/649/649
f 651/651/651 650/650/650 652/652/652
f 652/652/652 653/653/653 651/651/651
f 653/653/653 652/652/652 654/654/654
f 654/654/654 655/655/655 653/653/653
f 655/655/655 654/654/654 656/656/656
f 656/656/656 657/657/657 655/655/655
f 657/657/657 656/656/656 658/658/658
f 658/658/658 659/659/659 657/657/657
f 659/659/659 658/658/658 660/660/660
f 660/660/660 661/661/661 659/659/659
f 661/661/661 660/660/660 662/662/662
f 662/662/662 663/663/663 661/661/661
f 663/663/663 662/662/662 664/664/664
f 664/664/664 665/665/665 663/663/663
f 665/665/665 664/664/664 666/666/666
f 666/666/666 667/667/667 665/665/665
f 667/667/667 666/666/666 668/668/668
f 668/668/668 669/669/669 667/667/667
f 669/669/669 668/668/668 670/670/670
f 670/670/670 671/671/671 669/669/669
f 671/671/671 670/670/670 672/672/672
f 672/672/672 673/673/673 671/671/671
f 673/673/673 672/672/672 674/674/674
f 674/674/674 675/675/675 673/673/673
f 675/675/675 674/674/674 676/676/676
f 676/676/676 677/677/677 675/675/675
f 677/677/677 676/676/676 678/678/678
f 678/678/678 679/679/679 677/677/677
f 679/679/679 678/678/678 680/680/680
f 680/680/680 681/681/681 679/679/679
f 681/681/681 680/680/680 682/682/682
f 682/682/682 683/683/683 681/681/681
f 683/683/683 682/682/682 684/684/684
f 684/684/684 685/685/685 683/683/683
f 685/685/685 684/684/684 686/686/686
f 686/686/686 687/687/687 685/685/685
f 687/687/687 686/686/686 688/688/688
f 688/688/688 689/689/689 687/687/687
f 689/689/689 688/688/688 690/690/690
f 690/690/690 691/691/691 689/689/689
f 691/691/691 690/690/690 692/692/692
f 692/692/692 693/693/693 691/691/691
f 693/693/693 692/692/692 694/694/694
f 694/694/694 695/695/695 693/693/693
f 695/695/695 694/694/694 696/696/696
f 696/696/696 697/697/697 695/695/695
f 697/697/697 696/696/696 698/698/698
f 698/698/698 699/699/699 697/697/697
f 699/699/699 698/698/698 700/700/700
f 700/700/700 701/701/701 699/699/699
f 701/701/701 700/700/700 702/702/702
f 702/702/702 703/703/703 701/701/701
f 703/703/703 702/702/702 704/704/704
f 704/704/704 705/705/705 703/703/703
f 705/705/705 704/704/704 706/706/706
f 706/706/706 707/707/707 705/705/705
f 707/707/707 706/706/706 708/708/708
f 708/708/708 709/709/709 707/707/707
f 709/709/709 708/708/708 710/710/710
f 710/710/710 711/711/711 709/709/709
f 711/711/711 710/710/710 712/712/712
f 712/712/712 713/713/713 711/711/711
f 713/713/713 712/712/712 714/714/714
f 714/714/714 715/715/715 713/713/713
f 715/715/715 714/714/714 716/716/716
f 716/716/716 717/717/717 715/715/715
f 717/717/717 716/716/716 718/718/718
f 718/718/718 719/719/719 717/717/717
f 719/719/719 718/718/718 720/720/720
f 720/720/720 721/721/721 719/719/719
f 721/721/721 720/720/720 722/722/722
f 722/722/722 723/723/723 721/721/721
f 723/723/723 722/722/722 724/724/724
f 724/724/724 725/725/725 723/723/723
f 725/725/725 724/724/724 631/631/631
f 631/631/631 632/632/632 725/725/725
f 726/726/726 727/727/727 728/728/728
f 728/728/728 729/729/729 726/726/726
f 730/730/730 731/731/731 732/732/732
f 732/732/732 733/733/733 730/730/730
f 734/734/734 735/735/735 736/736/736
f 736/736/736 737/737/737 734/734/734
f 738/738/738 739/739/739 740/740/740
f 740/740/740 741/741/741 738/738/738
f 744/744/744 743/743/743 742/742/742
f 742/742/742 745/745/745 744/744/744
f 748/748/748 747/747/747 746/746/746
f 746/746/746 749/749/749 748/748/748
f 752/752/752 751/751/751 750/750/750
f 750/750/750 753/753/753 752/752/752
f 756/756/756 755/755/755 754/754/754
f 754/754/754 757/757/757 756/756/756
f 760/760/760 759/759/759 758/758/758
f 758/758/758 761/761/761 760/760/760
f 764/764/764 763/763/763 762/762/762
f 762/762/762 765/765/765 764/764/764
f 763/763/763 767/767/767 766/766/766
f 766/766/766 762/762/762 763/763/763
f 767/767/767 769/769/769 768/768/768
f 768/768/768 766/766/766 767/767/767
f 769/769/769 764/764/764 765/765/765
f 765/765/765 768/768/768 769/769/769
f 770/770/770 771/771/771 772/772/772
f 772/772/772 773/773/773 770/770/770
f 774/774/774 775/775/775 776/776/776
f 776/776/776 777/777/777 774/774/774
f 778/778/778 779/779/779 780/780/780
f 780/780/780 781/781/781 778/778/778
f 782/782/782 783/783/783 784/784/784
f 784/784/784 785/785/785 782/782/782
f 788/788/788 787/787/787 786/786/786
f 786/786/786 789/789/789 788/788/788
f 787/787/787 791/791/791 790/790/790
f 790/790/790 786/786/786 787/787/787
f 791/791/791 793/793/793 792/792/792
f 792/792/792 790/790/790 791/791/791
f 793/793/793 788/788/788 789/789/789
f 789/789/789 792/792/792 793/793/793
f 796/796/796 795/795/795 794/794/794
f 794/794/794 797/797/797 796/796/796
