mtllib tile1*2_medium_lavender.mtl
v 2.026558E-05 1.700725E-05 -20
v 6.079674E-05 20.00002 -20
v -2.026558E-05 20.00001 20
v -6.079674E-05 1.351033E-05 20
v 6.99998 20 20.00002
v -2.026558E-05 20.00001 20
v 6.079674E-05 20.00002 -20
v 7.000061 20 -19.99998
v 7.000061 20 -19.99998
v 6.079674E-05 20.00002 -20
v 2.026558E-05 1.700725E-05 -20
v 7.00002 2.821338E-06 -19.99999
v 7.00002 2.821338E-06 -19.99999
v 2.026558E-05 1.700725E-05 -20
v -6.079674E-05 1.351033E-05 20
v 6.999939 -6.755735E-07 20.00001
v 6.999939 -6.755735E-07 20.00001
v -6.079674E-05 1.351033E-05 20
v -2.026558E-05 20.00001 20
v 6.99998 20 20.00002
v 7.99998 19 19.00002
v 6.99998 19 19.00002
v 7.000057 19 -18.99998
v 8.000057 19 -18.99998
v 8.000057 19 -18.99998
v 7.000057 19 -18.99998
v 7.00002 1.000003 -18.99999
v 8.00002 1.000001 -18.99998
v 8.00002 1.000001 -18.99998
v 7.00002 1.000003 -18.99999
v 6.999943 0.9999994 19.00001
v 7.999943 0.9999974 19.00002
v 7.999943 0.9999974 19.00002
v 6.999943 0.9999994 19.00001
v 6.99998 19 19.00002
v 7.99998 19 19.00002
v 4.00002 4.000009 -15.99999
v 3.999955 4.000006 16.00001
v 3.99998 16.00001 16.00001
v 4.000045 16.00001 -15.99999
v 3.99998 16.00001 16.00001
v 7.99998 16 16.00002
v 8.000045 16 -15.99998
v 4.000045 16.00001 -15.99999
v 4.000045 16.00001 -15.99999
v 8.000045 16 -15.99998
v 8.00002 4 -15.99998
v 4.00002 4.000009 -15.99999
v 4.00002 4.000009 -15.99999
v 8.00002 4 -15.99998
v 7.999955 3.999998 16.00002
v 3.999955 4.000006 16.00001
v 3.999955 4.000006 16.00001
v 7.999955 3.999998 16.00002
v 7.99998 16 16.00002
v 3.99998 16.00001 16.00001
v 8.00002 1.000001 -18.99998
v 8.00002 4 -15.99998
v 8.000045 16 -15.99998
v 8.000057 19 -18.99998
v 7.99998 19 19.00002
v 7.99998 16 16.00002
v 7.999955 3.999998 16.00002
v 7.999943 0.9999974 19.00002
v 7.00002 2.821338E-06 -19.99999
v 7.00002 1.000003 -18.99999
v 7.000057 19 -18.99998
v 7.000061 20 -19.99998
v 6.99998 20 20.00002
v 6.99998 19 19.00002
v 6.999943 0.9999994 19.00001
v 6.999939 -6.755735E-07 20.00001
vn -1 2.026558E-06 -2.026558E-06
vn -1 2.026558E-06 -2.026558E-06
vn -1 2.026558E-06 -2.026558E-06
vn -1 2.026558E-06 -2.026558E-06
vn 2.026558E-06 1 8.742278E-08
vn 2.026558E-06 1 8.742278E-08
vn 2.026558E-06 1 8.742278E-08
vn 2.026558E-06 1 8.742278E-08
vn 2.026558E-06 8.742278E-08 -1
vn 2.026558E-06 8.742278E-08 -1
vn 2.026558E-06 8.742278E-08 -1
vn 2.026558E-06 8.742278E-08 -1
vn -2.026558E-06 -1 -8.742278E-08
vn -2.026558E-06 -1 -8.742278E-08
vn -2.026558E-06 -1 -8.742278E-08
vn -2.026558E-06 -1 -8.742278E-08
vn -2.026558E-06 -8.742278E-08 1
vn -2.026558E-06 -8.742278E-08 1
vn -2.026558E-06 -8.742278E-08 1
vn -2.026558E-06 -8.742278E-08 1
vn 2.026558E-06 1 8.742278E-08
vn 2.026558E-06 1 8.742278E-08
vn 2.026558E-06 1 8.742278E-08
vn 2.026558E-06 1 8.742278E-08
vn 2.026558E-06 8.742278E-08 -1
vn 2.026558E-06 8.742278E-08 -1
vn 2.026558E-06 8.742278E-08 -1
vn 2.026558E-06 8.742278E-08 -1
vn -2.026558E-06 -1 -8.742278E-08
vn -2.026558E-06 -1 -8.742278E-08
vn -2.026558E-06 -1 -8.742278E-08
vn -2.026558E-06 -1 -8.742278E-08
vn -2.026558E-06 -8.742278E-08 1
vn -2.026558E-06 -8.742278E-08 1
vn -2.026558E-06 -8.742278E-08 1
vn -2.026558E-06 -8.742278E-08 1
vn 1 -2.026558E-06 2.026558E-06
vn 1 -2.026558E-06 2.026558E-06
vn 1 -2.026558E-06 2.026558E-06
vn 1 -2.026558E-06 2.026558E-06
vn -2.026558E-06 -1 -8.742278E-08
vn -2.026558E-06 -1 -8.742278E-08
vn -2.026558E-06 -1 -8.742278E-08
vn -2.026558E-06 -1 -8.742278E-08
vn -2.026558E-06 -8.742278E-08 1
vn -2.026558E-06 -8.742278E-08 1
vn -2.026558E-06 -8.742278E-08 1
vn -2.026558E-06 -8.742278E-08 1
vn 2.026558E-06 1 8.742278E-08
vn 2.026558E-06 1 8.742278E-08
vn 2.026558E-06 1 8.742278E-08
vn 2.026558E-06 1 8.742278E-08
vn 2.026558E-06 8.742278E-08 -1
vn 2.026558E-06 8.742278E-08 -1
vn 2.026558E-06 8.742278E-08 -1
vn 2.026558E-06 8.742278E-08 -1
vn 1 -2.026558E-06 2.026558E-06
vn 0.9999999 -2.026558E-06 2.026557E-06
vn 1 -2.026558E-06 2.026558E-06
vn 1 -2.026558E-06 2.026558E-06
vn 1 -2.026558E-06 2.026558E-06
vn 0.9999999 -2.026558E-06 2.026557E-06
vn 1 -2.026558E-06 2.026558E-06
vn 1 -2.026558E-06 2.026558E-06
vn 1 -2.026558E-06 2.026558E-06
vn 1 -2.026558E-06 2.026558E-06
vn 1 -2.026558E-06 2.026558E-06
vn 1 -2.026558E-06 2.026558E-06
vn 1 -2.026558E-06 2.026558E-06
vn 1 -2.026558E-06 2.026558E-06
vn 1 -2.026558E-06 2.026558E-06
vn 1 -2.026558E-06 2.026558E-06
vt 10 -20
vt -10 -20
vt -10 20
vt 10 20
vt -3 10
vt -10 10
vt -10 -30
vt -3 -30
vt -13 -30
vt -20 -30
vt -20 -10
vt -13 -10
vt 17 -10
vt 10 -10
vt 10 30
vt 17 30
vt 27 30
vt 20 30
vt 20 10
vt 27 10
vt -1 10
vt -2 10
vt -2 -28
vt -1 -28
vt -11 -28
vt -12 -28
vt -12 -10
vt -11 -10
vt 17 -10
vt 16 -10
vt 16 28
vt 17 28
vt 27 28
vt 26 28
vt 26 10
vt 27 10
vt 10 -12
vt 10 20
vt -2 20
vt -2 -12
vt -2 10
vt 2 10
vt 2 -22
vt -2 -22
vt -12 -22
vt -8 -22
vt -8 -10
vt -12 -10
vt 10 -10
vt 14 -10
vt 14 22
vt 10 22
vt 20 22
vt 24 22
vt 24 10
vt 20 10
vt 17 -11
vt 14 -8
vt 2 -8
vt -1 -11
vt -1 27
vt 2 24
vt 14 24
vt 17 27
vt 17 -13
vt 16 -12
vt -2 -12
vt -3 -13
vt -3 27
vt -2 26
vt 16 26
vt 17 27
usemtl 30
f 3/3/3 2/2/2 1/1/1
f 1/1/1 4/4/4 3/3/3
f 7/7/7 6/6/6 5/5/5
f 5/5/5 8/8/8 7/7/7
f 11/11/11 10/10/10 9/9/9
f 9/9/9 12/12/12 11/11/11
f 15/15/15 14/14/14 13/13/13
f 13/13/13 16/16/16 15/15/15
f 19/19/19 18/18/18 17/17/17
f 17/17/17 20/20/20 19/19/19
f 23/23/23 22/22/22 21/21/21
f 21/21/21 24/24/24 23/23/23
f 27/27/27 26/26/26 25/25/25
f 25/25/25 28/28/28 27/27/27
f 31/31/31 30/30/30 29/29/29
f 29/29/29 32/32/32 31/31/31
f 35/35/35 34/34/34 33/33/33
f 33/33/33 36/36/36 35/35/35
f 39/39/39 38/38/38 37/37/37
f 37/37/37 40/40/40 39/39/39
f 43/43/43 42/42/42 41/41/41
f 41/41/41 44/44/44 43/43/43
f 47/47/47 46/46/46 45/45/45
f 45/45/45 48/48/48 47/47/47
f 51/51/51 50/50/50 49/49/49
f 49/49/49 52/52/52 51/51/51
f 55/55/55 54/54/54 53/53/53
f 53/53/53 56/56/56 55/55/55
f 59/59/59 58/58/58 57/57/57
f 57/57/57 60/60/60 59/59/59
f 63/63/63 62/62/62 61/61/61
f 61/61/61 64/64/64 63/63/63
f 62/62/62 59/59/59 60/60/60
f 60/60/60 61/61/61 62/62/62
f 58/58/58 63/63/63 64/64/64
f 64/64/64 57/57/57 58/58/58
f 67/67/67 66/66/66 65/65/65
f 65/65/65 68/68/68 67/67/67
f 71/71/71 70/70/70 69/69/69
f 69/69/69 72/72/72 71/71/71
f 70/70/70 67/67/67 68/68/68
f 68/68/68 69/69/69 70/70/70
f 66/66/66 71/71/71 72/72/72
f 72/72/72 65/65/65 66/66/66
