mtllib tile2*2_white.mtl
v -5.9484 4 0.7830005
v -6 4 5.471245E-07
v -6 6.110827E-07 1.965879E-07
v -5.9484 5.408324E-07 0.7830002
v -5.795401 4 1.552801
v -5.795401 4.694782E-07 1.5528
v -5.5434 4 2.296201
v -5.5434 3.982385E-07 2.2962
v -5.196001 4 3
v -5.196001 3.283589E-07 3
v -4.7604 4 3.652801
v -4.7604 2.610064E-07 3.6528
v -4.2426 4 4.2426
v -4.2426 1.973741E-07 4.2426
v -3.652801 4 4.7604
v -3.652801 1.384846E-07 4.7604
v -3 4 5.196001
v -3 8.54391E-08 5.196
v -2.296201 4 5.5434
v -2.296201 3.903583E-08 5.5434
v -1.5528 4 5.795401
v -1.5528 1.650475E-10 5.7954
v -0.7830003 4 5.9484
v -0.7830005 -3.056012E-08 5.9484
v -3.748576E-07 4 6
v -4.715773E-07 -5.26326E-08 6
v 0.7829996 4 5.9484
v 0.7829995 -6.55982E-08 5.9484
v 1.5528 4 5.795401
v 1.552799 -6.932044E-08 5.7954
v 2.2962 4 5.5434
v 2.2962 -6.37157E-08 5.5434
v 3 4 5.196001
v 3 -4.880643E-08 5.196
v 3.6528 4 4.7604
v 3.6528 -2.497281E-08 4.7604
v 4.242599 4 4.2426
v 4.242599 7.524081E-09 4.2426
v 4.760399 4 3.652801
v 4.760399 4.798556E-08 3.6528
v 5.196 4 3
v 5.196 9.584565E-08 3
v 5.543399 4 2.296201
v 5.543399 1.501796E-07 2.2962
v 5.7954 4 1.552801
v 5.7954 2.101426E-07 1.5528
v 5.9484 4 0.7830006
v 5.9484 2.746503E-07 0.7830002
v 6 4 5.894736E-07
v 6 3.425916E-07 2.38937E-07
v 5.9484 4 -0.7829994
v 5.9484 4.128419E-07 -0.7829998
v 5.7954 4 -1.552799
v 5.7954 4.841962E-07 -1.5528
v 5.543399 4 -2.2962
v 5.543399 5.554358E-07 -2.2962
v 5.196 4 -3
v 5.196 6.253154E-07 -3
v 4.760399 4 -3.6528
v 4.760399 6.92668E-07 -3.6528
v 4.242599 4 -4.242599
v 4.242599 7.563002E-07 -4.2426
v 3.6528 4 -4.760399
v 3.6528 8.151898E-07 -4.7604
v 3 4 -5.196
v 3 8.682352E-07 -5.196
v 2.2962 4 -5.543399
v 2.2962 9.146385E-07 -5.5434
v 1.5528 4 -5.7954
v 1.552799 9.535092E-07 -5.7954
v 0.7829996 4.000001 -5.9484
v 0.7829995 9.842345E-07 -5.9484
v -3.941554E-07 4.000001 -6
v -4.908752E-07 1.006307E-06 -6
v -0.7830004 4.000001 -5.9484
v -0.7830005 1.019273E-06 -5.9484
v -1.5528 4.000001 -5.7954
v -1.5528 1.022995E-06 -5.7954
v -2.296201 4.000001 -5.543399
v -2.296201 1.01739E-06 -5.5434
v -3 4.000001 -5.196
v -3 1.002481E-06 -5.196
v -3.652801 4.000001 -4.760399
v -3.652801 9.786471E-07 -4.7604
v -4.2426 4 -4.242599
v -4.2426 9.461502E-07 -4.2426
v -4.7604 4 -3.6528
v -4.7604 9.056888E-07 -3.6528
v -5.196001 4 -3
v -5.196001 8.578287E-07 -3
v -5.5434 4 -2.2962
v -5.5434 8.034947E-07 -2.2962
v -5.795401 4 -1.552799
v -5.795401 7.435317E-07 -1.5528
v -5.9484 4 -0.7829995
v -5.9484 6.79024E-07 -0.7829998
v -7.931201 4 1.044001
v -8 4 5.400663E-07
v -8.000001 6.558312E-07 1.895297E-07
v -7.931201 5.621641E-07 1.044
v -7.727201 4 2.0704
v -7.727201 4.670251E-07 2.0704
v -7.391201 4 3.0616
v -7.391201 3.72039E-07 3.0616
v -6.928 4 4
v -6.928 2.788662E-07 4
v -6.3472 4 4.8704
v -6.3472 1.890628E-07 4.8704
v -5.6568 4 5.6568
v -5.6568 1.042198E-07 5.6568
v -4.8704 4 6.3472
v -4.8704 2.570033E-08 6.3472
v -4 4 6.928
v -4 -4.50269E-08 6.928
v -3.0616 4 7.391201
v -3.0616 -1.06898E-07 7.3912
v -2.0704 4 7.727201
v -2.0704 -1.587256E-07 7.7272
v -1.044 4 7.931201
v -1.044001 -1.996926E-07 7.9312
v -3.716413E-07 4 8.000001
v -4.68361E-07 -2.291225E-07 8
v 1.044 4 7.931201
v 1.044 -2.4641E-07 7.9312
v 2.0704 4 7.727201
v 2.0704 -2.51373E-07 7.7272
v 3.061599 4 7.391201
v 3.061599 -2.439E-07 7.3912
v 4 4 6.928
v 4 -2.240209E-07 6.928
v 4.870399 4 6.3472
v 4.870399 -1.922428E-07 6.3472
v 5.656799 4 5.6568
v 5.656799 -1.489136E-07 5.6568
v 6.347199 4 4.8704
v 6.347199 -9.496496E-08 4.8704
v 6.927999 4 4
v 6.927999 -3.115152E-08 4
v 7.3912 4 3.0616
v 7.3912 4.12938E-08 3.0616
v 7.7272 4 2.0704
v 7.7272 1.212445E-07 2.0704
v 7.9312 4 1.044001
v 7.9312 2.072547E-07 1.044
v 8 4 5.965318E-07
v 8 2.978431E-07 2.459952E-07
v 7.9312 4 -1.043999
v 7.9312 3.915102E-07 -1.044
v 7.7272 4 -2.0704
v 7.7272 4.866492E-07 -2.0704
v 7.3912 4 -3.061599
v 7.3912 5.816353E-07 -3.0616
v 6.927999 4 -4
v 6.927999 6.748082E-07 -4
v 6.347199 4 -4.870399
v 6.347199 7.646115E-07 -4.870399
v 5.656799 4 -5.656799
v 5.656799 8.494545E-07 -5.6568
v 4.870399 4 -6.347199
v 4.870399 9.27974E-07 -6.3472
v 4 4.000001 -6.927999
v 4 9.987012E-07 -6.928
v 3.061599 4.000001 -7.3912
v 3.061599 1.060572E-06 -7.3912
v 2.0704 4.000001 -7.7272
v 2.0704 1.1124E-06 -7.7272
v 1.044 4.000001 -7.9312
v 1.044 1.153367E-06 -7.9312
v -3.973718E-07 4.000001 -8
v -4.940915E-07 1.182797E-06 -8
v -1.044 4.000001 -7.9312
v -1.044001 1.200084E-06 -7.9312
v -2.0704 4.000001 -7.7272
v -2.0704 1.205047E-06 -7.7272
v -3.0616 4.000001 -7.3912
v -3.0616 1.197574E-06 -7.3912
v -4 4.000001 -6.927999
v -4 1.177695E-06 -6.928
v -4.8704 4.000001 -6.347199
v -4.8704 1.145917E-06 -6.3472
v -5.6568 4.000001 -5.656799
v -5.6568 1.102588E-06 -5.6568
v -6.3472 4.000001 -4.870399
v -6.3472 1.048639E-06 -4.8704
v -6.928 4.000001 -4
v -6.928 9.848259E-07 -4
v -7.391201 4 -3.061599
v -7.391201 9.123805E-07 -3.0616
v -7.727201 4 -2.0704
v -7.727201 8.324299E-07 -2.0704
v -7.931201 4 -1.043999
v -7.931201 7.464196E-07 -1.044
v -6 6.110827E-07 1.965879E-07
v -5.9484 5.408324E-07 0.7830002
v -7.931201 5.621641E-07 1.044
v -8.000001 6.558312E-07 1.895297E-07
v -5.795401 4.694782E-07 1.5528
v -7.727201 4.670251E-07 2.0704
v -5.5434 3.982385E-07 2.2962
v -7.391201 3.72039E-07 3.0616
v -5.196001 3.283589E-07 3
v -6.928 2.788662E-07 4
v -4.7604 2.610064E-07 3.6528
v -6.3472 1.890628E-07 4.8704
v -4.2426 1.973741E-07 4.2426
v -5.6568 1.042198E-07 5.6568
v -3.652801 1.384846E-07 4.7604
v -4.8704 2.570033E-08 6.3472
v -3 8.54391E-08 5.196
v -4 -4.50269E-08 6.928
v -2.296201 3.903583E-08 5.5434
v -3.0616 -1.06898E-07 7.3912
v -1.552801 1.650502E-10 5.7954
v -2.0704 -1.587256E-07 7.7272
v -0.7830005 -3.056012E-08 5.9484
v -1.044001 -1.996926E-07 7.9312
v -4.715773E-07 -5.26326E-08 6
v -4.68361E-07 -2.291225E-07 8
v 0.7829995 -6.55982E-08 5.9484
v 1.044 -2.4641E-07 7.9312
v 1.5528 -6.932044E-08 5.7954
v 2.0704 -2.51373E-07 7.7272
v 2.2962 -6.37157E-08 5.5434
v 3.061599 -2.439E-07 7.3912
v 3 -4.880643E-08 5.196
v 4 -2.240209E-07 6.928
v 3.6528 -2.497281E-08 4.7604
v 4.870399 -1.922428E-07 6.3472
v 4.242599 7.524081E-09 4.2426
v 5.656799 -1.489136E-07 5.6568
v 4.760399 4.798556E-08 3.6528
v 6.347199 -9.496496E-08 4.8704
v 5.196 9.584565E-08 3
v 6.927999 -3.115152E-08 4
v 5.543399 1.501796E-07 2.2962
v 7.3912 4.12938E-08 3.0616
v 5.7954 2.101426E-07 1.5528
v 7.7272 1.212445E-07 2.0704
v 5.9484 2.746503E-07 0.7830002
v 7.9312 2.072547E-07 1.044
v 6 3.425916E-07 2.38937E-07
v 8 2.978431E-07 2.459952E-07
v 5.9484 4.128419E-07 -0.7829998
v 7.9312 3.915102E-07 -1.044
v 5.7954 4.841962E-07 -1.5528
v 7.7272 4.866492E-07 -2.0704
v 5.543399 5.554358E-07 -2.2962
v 7.3912 5.816353E-07 -3.0616
v 5.196 6.253154E-07 -3
v 6.927999 6.748082E-07 -4
v 4.760399 6.92668E-07 -3.6528
v 6.347199 7.646115E-07 -4.870399
v 4.242599 7.563002E-07 -4.2426
v 5.656799 8.494545E-07 -5.6568
v 3.6528 8.151898E-07 -4.7604
v 4.870399 9.27974E-07 -6.3472
v 3 8.682352E-07 -5.196
v 4 9.987012E-07 -6.928
v 2.2962 9.146385E-07 -5.5434
v 3.061599 1.060572E-06 -7.3912
v 1.5528 9.535092E-07 -5.7954
v 2.0704 1.1124E-06 -7.7272
v 0.7829995 9.842345E-07 -5.9484
v 1.044 1.153367E-06 -7.9312
v -4.908752E-07 1.006307E-06 -6
v -4.940915E-07 1.182797E-06 -8
v -0.7830005 1.019273E-06 -5.9484
v -1.044001 1.200084E-06 -7.9312
v -1.552801 1.022995E-06 -5.7954
v -2.0704 1.205047E-06 -7.7272
v -2.296201 1.01739E-06 -5.5434
v -3.0616 1.197574E-06 -7.3912
v -3 1.002481E-06 -5.196
v -4 1.177695E-06 -6.928
v -3.652801 9.786471E-07 -4.7604
v -4.8704 1.145917E-06 -6.3472
v -4.2426 9.461502E-07 -4.2426
v -5.6568 1.102588E-06 -5.6568
v -4.7604 9.056888E-07 -3.6528
v -6.3472 1.048639E-06 -4.8704
v -5.196001 8.578287E-07 -3
v -6.928 9.848259E-07 -4
v -5.5434 8.034947E-07 -2.2962
v -7.391201 9.123805E-07 -3.0616
v -5.795401 7.435317E-07 -1.5528
v -7.727201 8.324299E-07 -2.0704
v -5.9484 6.79024E-07 -0.7829998
v -7.931201 7.464196E-07 -1.044
v 16 4.000001 -16
v -16 4.000002 -16
v -16 3.999999 16
v 16 3.999999 16
v -16 3.999999 16
v -16 -5.770941E-07 16
v 16 -1.29307E-06 16
v 16 3.999999 16
v 16 3.999999 16
v 16 -1.29307E-06 16
v 16 1.530768E-06 -16
v 16 4.000001 -16
v 16 4.000001 -16
v 16 1.530768E-06 -16
v -16 2.246745E-06 -16
v -16 4.000002 -16
v -16 4.000002 -16
v -16 2.246745E-06 -16
v -16 -5.770941E-07 16
v -16 3.999999 16
v 19 -1.624928E-06 19
v 16 -1.29307E-06 16
v -16 -5.770941E-07 16
v -19 -7.747062E-07 19
v 19 1.728381E-06 -19
v 16 1.530768E-06 -16
v -19 2.578602E-06 -19
v -16 2.246745E-06 -16
v -19 0.9999992 19
v -19 -7.747062E-07 19
v 19 -1.624928E-06 19
v 19 0.9999983 19
v 19 0.9999983 19
v 19 -1.624928E-06 19
v 19 1.728381E-06 -19
v 19 1.000002 -19
v 19 1.000002 -19
v 19 1.728381E-06 -19
v -19 2.578602E-06 -19
v -19 1.000003 -19
v -19 1.000003 -19
v -19 2.578602E-06 -19
v -19 -7.747062E-07 19
v -19 0.9999992 19
v 20 0.9999982 20
v 19 0.9999983 19
v -19 0.9999992 19
v -20 0.9999991 20
v 20 1.000002 -20
v 19 1.000002 -19
v -20 1.000003 -20
v -19 1.000003 -19
v -20 7.999999 20
v -20 0.9999991 20
v 20 0.9999982 20
v 20 7.999998 20
v 20 7.999998 20
v 20 0.9999982 20
v 20 1.000002 -20
v 20 8.000001 -20
v 20 8.000001 -20
v 20 1.000002 -20
v -20 1.000003 -20
v -20 8.000002 -20
v -20 8.000002 -20
v -20 1.000003 -20
v -20 0.9999991 20
v -20 7.999999 20
v 20 7.999998 20
v -20 7.999999 20
v -20 8.000002 -20
v 20 8.000001 -20
vn 0.9940385 -1.261951E-08 -0.1090301
vn 0.9997588 -2.430685E-08 0.02196149
vn 0.9997588 -2.043087E-08 -0.02196148
vn 0.988354 -8.685255E-09 -0.1521722
vn 0.9714056 -7.827957E-10 -0.2374264
vn 0.9601342 3.185656E-09 -0.2795394
vn 0.9320765 1.111324E-08 -0.3622616
vn 0.9152586 1.507274E-08 -0.4028669
vn 0.8767222 2.282957E-08 -0.4809971
vn 0.8550503 2.662788E-08 -0.5185451
vn 0.8065997 3.411436E-08 -0.5910981
vn 0.7797716 3.78002E-08 -0.6260642
vn 0.7222592 4.487219E-08 -0.6916225
vn 0.6916225 4.826119E-08 -0.7222592
vn 0.6260642 5.480319E-08 -0.7797716
vn 0.5910981 5.795298E-08 -0.8065997
vn 0.5185451 6.385182E-08 -0.8550503
vn 0.4809971 6.660436E-08 -0.8767222
vn 0.4028669 7.175311E-08 -0.9152586
vn 0.3622616 7.414572E-08 -0.9320765
vn 0.2795394 7.847252E-08 -0.9601342
vn 0.2374264 8.040941E-08 -0.9714056
vn 0.1521722 8.381252E-08 -0.988354
vn 0.1090301 8.527942E-08 -0.9940385
vn 0.02196149 8.77323E-08 -0.9997588
vn -0.02196149 8.871505E-08 -0.9997588
vn -0.1090301 9.015835E-08 -0.9940385
vn -0.1521722 9.0622E-08 -0.988354
vn -0.2374264 9.103388E-08 -0.9714056
vn -0.2795394 9.098149E-08 -0.9601342
vn -0.3622616 9.035639E-08 -0.9320765
vn -0.4028669 8.978081E-08 -0.9152586
vn -0.4809971 8.812826E-08 -0.8767222
vn -0.5185451 8.705594E-08 -0.8550503
vn -0.5910981 8.440374E-08 -0.8065997
vn -0.6260642 8.281863E-08 -0.7797716
vn -0.6916225 7.921027E-08 -0.7222592
vn -0.7222592 7.719221E-08 -0.6916225
vn -0.7797716 7.269382E-08 -0.6260642
vn -0.8065997 7.020849E-08 -0.5910981
vn -0.8550503 6.48901E-08 -0.5185451
vn -0.8767222 6.206157E-08 -0.4809971
vn -0.9152586 5.60292E-08 -0.4028669
vn -0.9320765 5.282228E-08 -0.3622616
vn -0.9601342 4.615023E-08 -0.2795394
vn -0.9714056 4.268616E-08 -0.2374264
vn -0.988354 3.554211E-08 -0.1521722
vn -0.9940385 3.186223E-08 -0.1090301
vn -0.9997588 2.430685E-08 -0.02196149
vn -0.9997588 2.043087E-08 0.02196148
vn -0.9940385 1.261951E-08 0.1090301
vn -0.988354 8.685255E-09 0.1521722
vn -0.9714056 7.827957E-10 0.2374264
vn -0.9601342 -3.185656E-09 0.2795394
vn -0.9320765 -1.111324E-08 0.3622616
vn -0.9152586 -1.507274E-08 0.4028669
vn -0.8767222 -2.282957E-08 0.4809971
vn -0.8550503 -2.662788E-08 0.5185451
vn -0.8065997 -3.411436E-08 0.5910981
vn -0.7797716 -3.78002E-08 0.6260642
vn -0.7222592 -4.487219E-08 0.6916225
vn -0.6916225 -4.826119E-08 0.7222592
vn -0.6260642 -5.480319E-08 0.7797716
vn -0.5910981 -5.795298E-08 0.8065997
vn -0.5185451 -6.385182E-08 0.8550503
vn -0.4809971 -6.660436E-08 0.8767222
vn -0.4028669 -7.175311E-08 0.9152586
vn -0.3622616 -7.414572E-08 0.9320765
vn -0.2795394 -7.847252E-08 0.9601342
vn -0.2374264 -8.040941E-08 0.9714056
vn -0.1521722 -8.381252E-08 0.988354
vn -0.1090301 -8.527942E-08 0.9940385
vn -0.02196149 -8.77323E-08 0.9997588
vn 0.02196149 -8.871505E-08 0.9997588
vn 0.1090301 -9.015835E-08 0.9940385
vn 0.1521722 -9.0622E-08 0.988354
vn 0.2374264 -9.103388E-08 0.9714056
vn 0.2795394 -9.098149E-08 0.9601342
vn 0.3622616 -9.035639E-08 0.9320765
vn 0.4028669 -8.978081E-08 0.9152586
vn 0.4809971 -8.812826E-08 0.8767222
vn 0.5185451 -8.705594E-08 0.8550503
vn 0.5910981 -8.440374E-08 0.8065997
vn 0.6260642 -8.281863E-08 0.7797716
vn 0.6916225 -7.921027E-08 0.7222592
vn 0.7222592 -7.719221E-08 0.6916225
vn 0.7797716 -7.269382E-08 0.6260642
vn 0.8065997 -7.020849E-08 0.5910981
vn 0.8550503 -6.48901E-08 0.5185451
vn 0.8767222 -6.206157E-08 0.4809971
vn 0.9152586 -5.60292E-08 0.4028669
vn 0.9320765 -5.282228E-08 0.3622616
vn 0.9601342 -4.615023E-08 0.2795394
vn 0.9714056 -4.268616E-08 0.2374264
vn 0.988354 -3.554211E-08 0.1521722
vn 0.9940385 -3.186223E-08 0.1090301
vn -0.9940384 1.261951E-08 0.1090301
vn -0.9997588 2.430685E-08 -0.02196149
vn -0.9997588 2.043087E-08 0.02196148
vn -0.988354 8.685247E-09 0.1521723
vn -0.9714056 7.827996E-10 0.2374263
vn -0.9601343 -3.185637E-09 0.2795392
vn -0.9320765 -1.111323E-08 0.3622615
vn -0.9152585 -1.507275E-08 0.402867
vn -0.8767222 -2.282958E-08 0.4809973
vn -0.8550502 -2.662787E-08 0.518545
vn -0.8065997 -3.411436E-08 0.5910981
vn -0.7797715 -3.780021E-08 0.6260642
vn -0.7222592 -4.487219E-08 0.6916226
vn -0.6916226 -4.826119E-08 0.7222592
vn -0.6260642 -5.480318E-08 0.7797715
vn -0.5910981 -5.795298E-08 0.8065997
vn -0.518545 -6.385181E-08 0.8550502
vn -0.4809973 -6.660436E-08 0.8767222
vn -0.402867 -7.17531E-08 0.9152585
vn -0.3622615 -7.414572E-08 0.9320765
vn -0.2795392 -7.847253E-08 0.9601343
vn -0.2374263 -8.040941E-08 0.9714056
vn -0.1521723 -8.381252E-08 0.988354
vn -0.1090301 -8.527941E-08 0.9940384
vn -0.02196149 -8.77323E-08 0.9997588
vn 0.02196149 -8.871505E-08 0.9997588
vn 0.1090301 -9.015834E-08 0.9940384
vn 0.1521723 -9.0622E-08 0.988354
vn 0.2374263 -9.103388E-08 0.9714056
vn 0.2795392 -9.098149E-08 0.9601343
vn 0.3622615 -9.035639E-08 0.9320765
vn 0.402867 -8.97808E-08 0.9152585
vn 0.4809973 -8.812827E-08 0.8767222
vn 0.518545 -8.705593E-08 0.8550502
vn 0.5910981 -8.440374E-08 0.8065997
vn 0.6260642 -8.281862E-08 0.7797715
vn 0.6916226 -7.921027E-08 0.7222592
vn 0.7222592 -7.719222E-08 0.6916226
vn 0.7797715 -7.269382E-08 0.6260642
vn 0.8065997 -7.020849E-08 0.5910981
vn 0.8550502 -6.48901E-08 0.518545
vn 0.8767222 -6.206159E-08 0.4809973
vn 0.9152585 -5.602921E-08 0.402867
vn 0.9320765 -5.282227E-08 0.3622615
vn 0.9601343 -4.615022E-08 0.2795392
vn 0.9714056 -4.268615E-08 0.2374263
vn 0.988354 -3.554212E-08 0.1521723
vn 0.9940384 -3.186223E-08 0.1090301
vn 0.9997588 -2.430685E-08 0.02196149
vn 0.9997588 -2.043087E-08 -0.02196148
vn 0.9940384 -1.261951E-08 -0.1090301
vn 0.988354 -8.685247E-09 -0.1521723
vn 0.9714056 -7.827996E-10 -0.2374263
vn 0.9601343 3.185637E-09 -0.2795392
vn 0.9320765 1.111323E-08 -0.3622615
vn 0.9152585 1.507275E-08 -0.402867
vn 0.8767222 2.282958E-08 -0.4809973
vn 0.8550502 2.662787E-08 -0.518545
vn 0.8065997 3.411436E-08 -0.5910981
vn 0.7797715 3.780021E-08 -0.6260642
vn 0.7222592 4.487219E-08 -0.6916226
vn 0.6916226 4.826119E-08 -0.7222592
vn 0.6260642 5.480318E-08 -0.7797715
vn 0.5910981 5.795298E-08 -0.8065997
vn 0.518545 6.385181E-08 -0.8550502
vn 0.4809973 6.660436E-08 -0.8767222
vn 0.402867 7.17531E-08 -0.9152585
vn 0.3622615 7.414572E-08 -0.9320765
vn 0.2795392 7.847253E-08 -0.9601343
vn 0.2374263 8.040941E-08 -0.9714056
vn 0.1521723 8.381252E-08 -0.988354
vn 0.1090301 8.527941E-08 -0.9940384
vn 0.02196149 8.77323E-08 -0.9997588
vn -0.02196149 8.871505E-08 -0.9997588
vn -0.1090301 9.015834E-08 -0.9940384
vn -0.1521723 9.0622E-08 -0.988354
vn -0.2374263 9.103388E-08 -0.9714056
vn -0.2795392 9.098149E-08 -0.9601343
vn -0.3622615 9.035639E-08 -0.9320765
vn -0.402867 8.97808E-08 -0.9152585
vn -0.4809973 8.812827E-08 -0.8767222
vn -0.518545 8.705593E-08 -0.8550502
vn -0.5910981 8.440374E-08 -0.8065997
vn -0.6260642 8.281862E-08 -0.7797715
vn -0.6916226 7.921027E-08 -0.7222592
vn -0.7222592 7.719222E-08 -0.6916226
vn -0.7797715 7.269382E-08 -0.6260642
vn -0.8065997 7.020849E-08 -0.5910981
vn -0.8550502 6.48901E-08 -0.518545
vn -0.8767222 6.206159E-08 -0.4809973
vn -0.9152585 5.602921E-08 -0.402867
vn -0.9320765 5.282227E-08 -0.3622615
vn -0.9601343 4.615022E-08 -0.2795392
vn -0.9714056 4.268615E-08 -0.2374263
vn -0.988354 3.554212E-08 -0.1521723
vn -0.9940384 3.186223E-08 -0.1090301
vn -2.417992E-08 -0.9999999 -8.763415E-08
vn -2.417992E-08 -0.9999999 -8.763414E-08
vn -2.417992E-08 -0.9999999 -8.763414E-08
vn -2.417992E-08 -0.9999999 -8.763415E-08
vn -2.417992E-08 -0.9999999 -8.763415E-08
vn -2.417992E-08 -0.9999999 -8.763415E-08
vn -2.417992E-08 -0.9999999 -8.763415E-08
vn -2.417992E-08 -0.9999999 -8.763415E-08
vn -2.417992E-08 -0.9999999 -8.763415E-08
vn -2.417992E-08 -0.9999999 -8.763415E-08
vn -2.417992E-08 -0.9999999 -8.763415E-08
vn -2.417992E-08 -0.9999999 -8.763415E-08
vn -2.417992E-08 -0.9999999 -8.763414E-08
vn -2.417992E-08 -0.9999999 -8.763415E-08
vn -2.417992E-08 -0.9999999 -8.763415E-08
vn -2.417992E-08 -0.9999999 -8.763415E-08
vn -2.417992E-08 -0.9999999 -8.763414E-08
vn -2.417992E-08 -0.9999999 -8.763415E-08
vn -2.417992E-08 -0.9999999 -8.763414E-08
vn -2.417992E-08 -0.9999999 -8.763415E-08
vn -2.417992E-08 -0.9999999 -8.763415E-08
vn -2.417992E-08 -0.9999999 -8.763414E-08
vn -2.417992E-08 -0.9999999 -8.763415E-08
vn -2.417992E-08 -0.9999999 -8.763415E-08
vn -2.417992E-08 -0.9999999 -8.763415E-08
vn -2.417992E-08 -0.9999999 -8.763415E-08
vn -2.417992E-08 -0.9999999 -8.763414E-08
vn -2.417992E-08 -0.9999999 -8.763414E-08
vn -2.417992E-08 -0.9999999 -8.763415E-08
vn -2.417992E-08 -0.9999999 -8.763415E-08
vn -2.417992E-08 -0.9999999 -8.763415E-08
vn -2.417992E-08 -0.9999999 -8.763415E-08
vn -2.417992E-08 -0.9999999 -8.763415E-08
vn -2.417992E-08 -0.9999999 -8.763415E-08
vn -2.417992E-08 -0.9999999 -8.763415E-08
vn -2.417992E-08 -0.9999999 -8.763415E-08
vn -2.417992E-08 -0.9999999 -8.763414E-08
vn -2.417992E-08 -0.9999999 -8.763415E-08
vn -2.417992E-08 -0.9999999 -8.763415E-08
vn -2.417992E-08 -0.9999999 -8.763415E-08
vn -2.417992E-08 -0.9999999 -8.763414E-08
vn -2.417992E-08 -0.9999999 -8.763415E-08
vn -2.417992E-08 -0.9999999 -8.763414E-08
vn -2.417992E-08 -0.9999999 -8.763415E-08
vn -2.417992E-08 -0.9999999 -8.763415E-08
vn -2.417992E-08 -0.9999999 -8.763414E-08
vn -2.417992E-08 -0.9999999 -8.763415E-08
vn -2.417992E-08 -0.9999999 -8.763415E-08
vn -2.417992E-08 -0.9999999 -8.763415E-08
vn -2.417992E-08 -0.9999999 -8.763415E-08
vn -2.417992E-08 -0.9999999 -8.763414E-08
vn -2.417992E-08 -0.9999999 -8.763414E-08
vn -2.417992E-08 -0.9999999 -8.763415E-08
vn -2.417992E-08 -0.9999999 -8.763415E-08
vn -2.417992E-08 -0.9999999 -8.763415E-08
vn -2.417992E-08 -0.9999999 -8.763415E-08
vn -2.417992E-08 -0.9999999 -8.763415E-08
vn -2.417992E-08 -0.9999999 -8.763415E-08
vn -2.417992E-08 -0.9999999 -8.763415E-08
vn -2.417992E-08 -0.9999999 -8.763415E-08
vn -2.417992E-08 -0.9999999 -8.763414E-08
vn -2.417992E-08 -0.9999999 -8.763415E-08
vn -2.417992E-08 -0.9999999 -8.763415E-08
vn -2.417992E-08 -0.9999999 -8.763415E-08
vn -2.417992E-08 -0.9999999 -8.763414E-08
vn -2.417992E-08 -0.9999999 -8.763415E-08
vn -2.417992E-08 -0.9999999 -8.763414E-08
vn -2.417992E-08 -0.9999999 -8.763415E-08
vn -2.417992E-08 -0.9999999 -8.763415E-08
vn -2.417992E-08 -0.9999999 -8.763414E-08
vn -2.417992E-08 -0.9999999 -8.763415E-08
vn -2.417992E-08 -0.9999999 -8.763415E-08
vn -2.417992E-08 -0.9999999 -8.763415E-08
vn -2.417992E-08 -0.9999999 -8.763415E-08
vn -2.417992E-08 -0.9999999 -8.763414E-08
vn -2.417992E-08 -0.9999999 -8.763414E-08
vn -2.417992E-08 -0.9999999 -8.763415E-08
vn -2.417992E-08 -0.9999999 -8.763415E-08
vn -2.417992E-08 -0.9999999 -8.763415E-08
vn -2.417992E-08 -0.9999999 -8.763415E-08
vn -2.417992E-08 -0.9999999 -8.763415E-08
vn -2.417992E-08 -0.9999999 -8.763415E-08
vn -2.417992E-08 -0.9999999 -8.763415E-08
vn -2.417992E-08 -0.9999999 -8.763415E-08
vn -2.417992E-08 -0.9999999 -8.763414E-08
vn -2.417992E-08 -0.9999999 -8.763415E-08
vn -2.417992E-08 -0.9999999 -8.763415E-08
vn -2.417992E-08 -0.9999999 -8.763415E-08
vn -2.417992E-08 -0.9999999 -8.763414E-08
vn -2.417992E-08 -0.9999999 -8.763415E-08
vn -2.417992E-08 -0.9999999 -8.763414E-08
vn -2.417992E-08 -0.9999999 -8.763415E-08
vn -2.417992E-08 -0.9999999 -8.763415E-08
vn -2.417992E-08 -0.9999999 -8.763414E-08
vn -2.417992E-08 -0.9999999 -8.763415E-08
vn -2.417992E-08 -0.9999999 -8.763415E-08
vn -2.417992E-08 -0.9999999 -8.763415E-08
vn -2.417992E-08 -0.9999999 -8.763415E-08
vn -2.417992E-08 -0.9999999 -8.763415E-08
vn -2.417992E-08 -0.9999999 -8.763415E-08
vn -1.60815E-09 8.824496E-08 -1
vn -1.60815E-09 8.824496E-08 -1
vn -1.60815E-09 8.824496E-08 -1
vn -1.60815E-09 8.824496E-08 -1
vn -1 2.237426E-08 -3.529096E-09
vn -1 2.237426E-08 -3.529096E-09
vn -1 2.237426E-08 -3.529096E-09
vn -1 2.237426E-08 -3.529096E-09
vn 1.60815E-09 -8.824496E-08 1
vn 1.60815E-09 -8.824496E-08 1
vn 1.60815E-09 -8.824496E-08 1
vn 1.60815E-09 -8.824496E-08 1
vn 1 -2.237426E-08 3.529096E-09
vn 1 -2.237426E-08 3.529096E-09
vn 1 -2.237426E-08 3.529096E-09
vn 1 -2.237426E-08 3.529096E-09
vn -2.417992E-08 -0.9999999 -8.763415E-08
vn -2.417992E-08 -0.9999999 -8.763415E-08
vn -2.417992E-08 -0.9999999 -8.763415E-08
vn -2.417992E-08 -0.9999999 -8.763415E-08
vn -2.417992E-08 -0.9999999 -8.763415E-08
vn -2.417992E-08 -0.9999999 -8.763415E-08
vn -2.417992E-08 -0.9999999 -8.763415E-08
vn -2.417992E-08 -0.9999999 -8.763415E-08
vn 1.60815E-09 -8.824496E-08 1
vn 1.60815E-09 -8.824496E-08 1
vn 1.60815E-09 -8.824496E-08 1
vn 1.60815E-09 -8.824496E-08 1
vn 1 -2.237426E-08 3.529096E-09
vn 1 -2.237426E-08 3.529096E-09
vn 1 -2.237426E-08 3.529096E-09
vn 1 -2.237426E-08 3.529096E-09
vn -1.60815E-09 8.824496E-08 -1
vn -1.60815E-09 8.824496E-08 -1
vn -1.60815E-09 8.824496E-08 -1
vn -1.60815E-09 8.824496E-08 -1
vn -1 2.237426E-08 -3.529096E-09
vn -1 2.237426E-08 -3.529096E-09
vn -1 2.237426E-08 -3.529096E-09
vn -1 2.237426E-08 -3.529096E-09
vn -2.417992E-08 -0.9999999 -8.763415E-08
vn -2.417992E-08 -0.9999999 -8.763415E-08
vn -2.417992E-08 -0.9999999 -8.763415E-08
vn -2.417992E-08 -0.9999999 -8.763415E-08
vn -2.417992E-08 -0.9999999 -8.763415E-08
vn -2.417992E-08 -0.9999999 -8.763415E-08
vn -2.417992E-08 -0.9999999 -8.763415E-08
vn -2.417992E-08 -0.9999999 -8.763415E-08
vn 1.60815E-09 -8.824496E-08 1
vn 1.60815E-09 -8.824496E-08 1
vn 1.60815E-09 -8.824496E-08 1
vn 1.60815E-09 -8.824496E-08 1
vn 1 -2.237426E-08 3.529096E-09
vn 1 -2.237426E-08 3.529096E-09
vn 1 -2.237426E-08 3.529096E-09
vn 1 -2.237426E-08 3.529096E-09
vn -1.60815E-09 8.824496E-08 -1
vn -1.60815E-09 8.824496E-08 -1
vn -1.60815E-09 8.824496E-08 -1
vn -1.60815E-09 8.824496E-08 -1
vn -1 2.237426E-08 -3.529096E-09
vn -1 2.237426E-08 -3.529096E-09
vn -1 2.237426E-08 -3.529096E-09
vn -1 2.237426E-08 -3.529096E-09
vn 2.417992E-08 0.9999999 8.763415E-08
vn 2.417992E-08 0.9999999 8.763415E-08
vn 2.417992E-08 0.9999999 8.763415E-08
vn 2.417992E-08 0.9999999 8.763415E-08
vt 3.217 5.1654
vt 10 6
vt 8 6
vt 7.217 5.1654
vt 2.4472 4.2426
vt 6.4472 4.2426
vt 1.7038 3.2472
vt 5.7038 3.2472
vt 1 2.196
vt 5 2.196
vt 0.3471999 1.1076
vt 4.3472 1.1076
vt -0.2426 0
vt 3.7574 0
vt -0.7603998 -1.1076
vt 3.2396 -1.1076
vt -1.196 -2.196
vt 2.804 -2.196
vt -1.5434 -3.2472
vt 2.4566 -3.2472
vt -1.7954 -4.2426
vt 2.2046 -4.2426
vt -1.9484 -5.1654
vt 2.0516 -5.1654
vt -2 -6
vt 2 -6
vt -1.9484 -6.7314
vt 2.0516 -6.7314
vt -1.7954 -7.3482
vt 2.2046 -7.3482
vt -1.5434 -7.8396
vt 2.4566 -7.8396
vt -1.196 -8.196
vt 2.804 -8.196
vt -0.7603998 -8.4132
vt 3.2396 -8.4132
vt -0.2426 -8.4852
vt 3.7574 -8.4852
vt -0.7603998 -8.4132
vt 3.2396 -8.4132
vt -1.196 -8.196
vt 2.804 -8.196
vt -1.5434 -7.8396
vt 2.4566 -7.8396
vt -1.7954 -7.3482
vt 2.2046 -7.3482
vt -1.9484 -6.7314
vt 2.0516 -6.7314
vt -2 -6
vt 2 -6
vt -1.9484 -5.1654
vt 2.0516 -5.1654
vt -1.7954 -4.2426
vt 2.2046 -4.2426
vt -1.5434 -3.2472
vt 2.4566 -3.2472
vt -1.196 -2.196
vt 2.804 -2.196
vt -0.7603998 -1.1076
vt 3.2396 -1.1076
vt -0.2426 0
vt 3.7574 0
vt 0.3471999 1.1076
vt 4.3472 1.1076
vt 1 2.196
vt 5 2.196
vt 1.7038 3.2472
vt 5.7038 3.2472
vt 2.4472 4.2426
vt 6.4472 4.2426
vt 3.217 5.1654
vt 7.217 5.1654
vt 4 6
vt 14 6
vt 9.9484 6.7314
vt 13.9484 6.7314
vt 9.795401 7.3482
vt 13.7954 7.3482
vt 9.5434 7.8396
vt 13.5434 7.8396
vt 9.196 8.196
vt 13.196 8.196
vt 8.7604 8.4132
vt 12.7604 8.4132
vt 8.242599 8.4852
vt 12.2426 8.4852
vt 8.7604 8.4132
vt 12.7604 8.4132
vt 9.196 8.196
vt 13.196 8.196
vt 9.5434 7.8396
vt 13.5434 7.8396
vt 9.795401 7.3482
vt 13.7954 7.3482
vt 9.9484 6.7314
vt 13.9484 6.7314
vt 11.9312 6.8872
vt 12 8
vt 16 8
vt 15.9312 6.8872
vt 11.7272 5.6568
vt 15.7272 5.6568
vt 11.3912 4.3296
vt 15.3912 4.3296
vt 10.928 2.928
vt 14.928 2.928
vt 10.3472 1.4768
vt 14.3472 1.4768
vt 9.656799 0
vt 13.6568 0
vt 8.870399 -1.4768
vt 12.8704 -1.4768
vt 8 -2.928
vt 12 -2.928
vt 7.0616 -4.3296
vt 11.0616 -4.3296
vt 6.0704 -5.6568
vt 10.0704 -5.6568
vt 5.044 -6.8872
vt 9.044 -6.8872
vt 4 -8
vt 0 -8
vt -3.9312 -8.9752
vt 0.06879997 -8.9752
vt -3.7272 -9.7976
vt 0.2728 -9.7976
vt -3.3912 -10.4528
vt 0.6087999 -10.4528
vt -2.928 -10.928
vt 1.072 -10.928
vt -2.3472 -11.2176
vt 1.6528 -11.2176
vt -1.6568 -11.3136
vt 2.3432 -11.3136
vt -2.3472 -11.2176
vt 1.6528 -11.2176
vt -2.928 -10.928
vt 1.072 -10.928
vt -3.3912 -10.4528
vt 0.6087999 -10.4528
vt -3.7272 -9.7976
vt 0.2728 -9.7976
vt -3.9312 -8.9752
vt 0.06879997 -8.9752
vt -4 -8
vt 8 -8
vt 5.044 -6.8872
vt 9.044 -6.8872
vt 6.0704 -5.6568
vt 10.0704 -5.6568
vt 7.0616 -4.3296
vt 11.0616 -4.3296
vt 8 -2.928
vt 12 -2.928
vt 8.870399 -1.4768
vt 12.8704 -1.4768
vt 9.656799 0
vt 13.6568 0
vt 10.3472 1.4768
vt 14.3472 1.4768
vt 10.928 2.928
vt 14.928 2.928
vt 11.3912 4.3296
vt 15.3912 4.3296
vt 11.7272 5.6568
vt 15.7272 5.6568
vt 11.9312 6.8872
vt 15.9312 6.8872
vt 12 8
vt 16 8
vt 11.9312 8.9752
vt 15.9312 8.9752
vt 11.7272 9.7976
vt 15.7272 9.7976
vt 11.3912 10.4528
vt 15.3912 10.4528
vt 10.928 10.928
vt 14.928 10.928
vt 10.3472 11.2176
vt 14.3472 11.2176
vt 9.656799 11.3136
vt 13.6568 11.3136
vt 10.3472 11.2176
vt 14.3472 11.2176
vt 10.928 10.928
vt 14.928 10.928
vt 11.3912 10.4528
vt 15.3912 10.4528
vt 11.7272 9.7976
vt 15.7272 9.7976
vt 11.9312 8.9752
vt 15.9312 8.9752
vt 8 14
vt 7.217 13.9484
vt 6.956 15.9312
vt 8 16
vt 6.4472 13.7954
vt 5.9296 15.7272
vt 5.7038 13.5434
vt 4.9384 15.3912
vt 5 13.196
vt 4 14.928
vt 4.3472 12.7604
vt 3.1296 14.3472
vt 3.7574 12.2426
vt 2.3432 13.6568
vt 3.2396 11.6528
vt 1.6528 12.8704
vt 2.804 11
vt 1.072 12
vt 2.4566 10.2962
vt 0.6087999 11.0616
vt 2.2046 9.5528
vt 0.2728 10.0704
vt 2.0516 8.783
vt 0.06879997 9.044
vt 2 8
vt 0 8
vt 2.0516 7.217
vt 0.06879997 6.956
vt 2.2046 6.4472
vt 0.2728 5.9296
vt 2.4566 5.7038
vt 0.6087999 4.9384
vt 2.804 5
vt 1.072 4
vt 3.2396 4.3472
vt 1.6528 3.1296
vt 3.7574 3.7574
vt 2.3432 2.3432
vt 4.3472 3.2396
vt 3.1296 1.6528
vt 5 2.804
vt 4 1.072
vt 5.7038 2.4566
vt 4.9384 0.6087999
vt 6.4472 2.2046
vt 5.9296 0.2728
vt 7.217 2.0516
vt 6.956 0.06879997
vt 8 2
vt 8 0
vt 8.783 2.0516
vt 9.044 0.06879997
vt 9.5528 2.2046
vt 10.0704 0.2728
vt 10.2962 2.4566
vt 11.0616 0.6087999
vt 11 2.804
vt 12 1.072
vt 11.6528 3.2396
vt 12.8704 1.6528
vt 12.2426 3.7574
vt 13.6568 2.3432
vt 12.7604 4.3472
vt 14.3472 3.1296
vt 13.196 5
vt 14.928 4
vt 13.5434 5.7038
vt 15.3912 4.9384
vt 13.7954 6.4472
vt 15.7272 5.9296
vt 13.9484 7.217
vt 15.9312 6.956
vt 14 8
vt 16 8
vt 13.9484 8.783
vt 15.9312 9.044
vt 13.7954 9.5528
vt 15.7272 10.0704
vt 13.5434 10.2962
vt 15.3912 11.0616
vt 13.196 11
vt 14.928 12
vt 12.7604 11.6528
vt 14.3472 12.8704
vt 12.2426 12.2426
vt 13.6568 13.6568
vt 11.6528 12.7604
vt 12.8704 14.3472
vt 11 13.196
vt 12 14.928
vt 10.2962 13.5434
vt 11.0616 15.3912
vt 9.5528 13.7954
vt 10.0704 15.7272
vt 8.783 13.9484
vt 9.044 15.9312
vt 20 -12
vt 20 20
vt -12 20
vt -12 -12
vt -12 0
vt -8 0
vt -8 -32
vt -12 -32
vt -12 -32
vt -8 -32
vt -8 0
vt -12 0
vt 20 0
vt 24 0
vt 24 32
vt 20 32
vt 20 32
vt 24 32
vt 24 0
vt 20 0
vt -11 -11
vt -8 -8
vt -8 24
vt -11 27
vt 27 -11
vt 24 -8
vt 27 27
vt 24 24
vt -12 0
vt -11 0
vt -11 -38
vt -12 -38
vt -12 -38
vt -11 -38
vt -11 0
vt -12 0
vt 26 0
vt 27 0
vt 27 38
vt 26 38
vt 26 38
vt 27 38
vt 27 0
vt 26 0
vt -13 -13
vt -12 -12
vt -12 26
vt -13 27
vt 27 -13
vt 26 -12
vt 27 27
vt 26 26
vt -20 0
vt -13 0
vt -13 -40
vt -20 -40
vt -20 -40
vt -13 -40
vt -13 0
vt -20 0
vt 20 0
vt 27 0
vt 27 40
vt 20 40
vt 20 40
vt 27 40
vt 27 0
vt 20 0
vt -20 -20
vt -20 20
vt 20 20
vt 20 -20
usemtl 15
f 3/3/3 2/2/2 1/1/1
f 1/1/1 4/4/4 3/3/3
f 4/4/4 1/1/1 5/5/5
f 5/5/5 6/6/6 4/4/4
f 6/6/6 5/5/5 7/7/7
f 7/7/7 8/8/8 6/6/6
f 8/8/8 7/7/7 9/9/9
f 9/9/9 10/10/10 8/8/8
f 10/10/10 9/9/9 11/11/11
f 11/11/11 12/12/12 10/10/10
f 12/12/12 11/11/11 13/13/13
f 13/13/13 14/14/14 12/12/12
f 14/14/14 13/13/13 15/15/15
f 15/15/15 16/16/16 14/14/14
f 16/16/16 15/15/15 17/17/17
f 17/17/17 18/18/18 16/16/16
f 18/18/18 17/17/17 19/19/19
f 19/19/19 20/20/20 18/18/18
f 20/20/20 19/19/19 21/21/21
f 21/21/21 22/22/22 20/20/20
f 22/22/22 21/21/21 23/23/23
f 23/23/23 24/24/24 22/22/22
f 24/24/24 23/23/23 25/25/25
f 25/25/25 26/26/26 24/24/24
f 26/26/26 25/25/25 27/27/27
f 27/27/27 28/28/28 26/26/26
f 28/28/28 27/27/27 29/29/29
f 29/29/29 30/30/30 28/28/28
f 30/30/30 29/29/29 31/31/31
f 31/31/31 32/32/32 30/30/30
f 32/32/32 31/31/31 33/33/33
f 33/33/33 34/34/34 32/32/32
f 34/34/34 33/33/33 35/35/35
f 35/35/35 36/36/36 34/34/34
f 36/36/36 35/35/35 37/37/37
f 37/37/37 38/38/38 36/36/36
f 38/38/38 37/37/37 39/39/39
f 39/39/39 40/40/40 38/38/38
f 40/40/40 39/39/39 41/41/41
f 41/41/41 42/42/42 40/40/40
f 42/42/42 41/41/41 43/43/43
f 43/43/43 44/44/44 42/42/42
f 44/44/44 43/43/43 45/45/45
f 45/45/45 46/46/46 44/44/44
f 46/46/46 45/45/45 47/47/47
f 47/47/47 48/48/48 46/46/46
f 48/48/48 47/47/47 49/49/49
f 49/49/49 50/50/50 48/48/48
f 50/50/50 49/49/49 51/51/51
f 51/51/51 52/52/52 50/50/50
f 52/52/52 51/51/51 53/53/53
f 53/53/53 54/54/54 52/52/52
f 54/54/54 53/53/53 55/55/55
f 55/55/55 56/56/56 54/54/54
f 56/56/56 55/55/55 57/57/57
f 57/57/57 58/58/58 56/56/56
f 58/58/58 57/57/57 59/59/59
f 59/59/59 60/60/60 58/58/58
f 60/60/60 59/59/59 61/61/61
f 61/61/61 62/62/62 60/60/60
f 62/62/62 61/61/61 63/63/63
f 63/63/63 64/64/64 62/62/62
f 64/64/64 63/63/63 65/65/65
f 65/65/65 66/66/66 64/64/64
f 66/66/66 65/65/65 67/67/67
f 67/67/67 68/68/68 66/66/66
f 68/68/68 67/67/67 69/69/69
f 69/69/69 70/70/70 68/68/68
f 70/70/70 69/69/69 71/71/71
f 71/71/71 72/72/72 70/70/70
f 72/72/72 71/71/71 73/73/73
f 73/73/73 74/74/74 72/72/72
f 74/74/74 73/73/73 75/75/75
f 75/75/75 76/76/76 74/74/74
f 76/76/76 75/75/75 77/77/77
f 77/77/77 78/78/78 76/76/76
f 78/78/78 77/77/77 79/79/79
f 79/79/79 80/80/80 78/78/78
f 80/80/80 79/79/79 81/81/81
f 81/81/81 82/82/82 80/80/80
f 82/82/82 81/81/81 83/83/83
f 83/83/83 84/84/84 82/82/82
f 84/84/84 83/83/83 85/85/85
f 85/85/85 86/86/86 84/84/84
f 86/86/86 85/85/85 87/87/87
f 87/87/87 88/88/88 86/86/86
f 88/88/88 87/87/87 89/89/89
f 89/89/89 90/90/90 88/88/88
f 90/90/90 89/89/89 91/91/91
f 91/91/91 92/92/92 90/90/90
f 92/92/92 91/91/91 93/93/93
f 93/93/93 94/94/94 92/92/92
f 94/94/94 93/93/93 95/95/95
f 95/95/95 96/96/96 94/94/94
f 96/96/96 95/95/95 2/2/2
f 2/2/2 3/3/3 96/96/96
f 97/97/97 98/98/98 99/99/99
f 99/99/99 100/100/100 97/97/97
f 101/101/101 97/97/97 100/100/100
f 100/100/100 102/102/102 101/101/101
f 103/103/103 101/101/101 102/102/102
f 102/102/102 104/104/104 103/103/103
f 105/105/105 103/103/103 104/104/104
f 104/104/104 106/106/106 105/105/105
f 107/107/107 105/105/105 106/106/106
f 106/106/106 108/108/108 107/107/107
f 109/109/109 107/107/107 108/108/108
f 108/108/108 110/110/110 109/109/109
f 111/111/111 109/109/109 110/110/110
f 110/110/110 112/112/112 111/111/111
f 113/113/113 111/111/111 112/112/112
f 112/112/112 114/114/114 113/113/113
f 115/115/115 113/113/113 114/114/114
f 114/114/114 116/116/116 115/115/115
f 117/117/117 115/115/115 116/116/116
f 116/116/116 118/118/118 117/117/117
f 119/119/119 117/117/117 118/118/118
f 118/118/118 120/120/120 119/119/119
f 121/121/121 119/119/119 120/120/120
f 120/120/120 122/122/122 121/121/121
f 123/123/123 121/121/121 122/122/122
f 122/122/122 124/124/124 123/123/123
f 125/125/125 123/123/123 124/124/124
f 124/124/124 126/126/126 125/125/125
f 127/127/127 125/125/125 126/126/126
f 126/126/126 128/128/128 127/127/127
f 129/129/129 127/127/127 128/128/128
f 128/128/128 130/130/130 129/129/129
f 131/131/131 129/129/129 130/130/130
f 130/130/130 132/132/132 131/131/131
f 133/133/133 131/131/131 132/132/132
f 132/132/132 134/134/134 133/133/133
f 135/135/135 133/133/133 134/134/134
f 134/134/134 136/136/136 135/135/135
f 137/137/137 135/135/135 136/136/136
f 136/136/136 138/138/138 137/137/137
f 139/139/139 137/137/137 138/138/138
f 138/138/138 140/140/140 139/139/139
f 141/141/141 139/139/139 140/140/140
f 140/140/140 142/142/142 141/141/141
f 143/143/143 141/141/141 142/142/142
f 142/142/142 144/144/144 143/143/143
f 145/145/145 143/143/143 144/144/144
f 144/144/144 146/146/146 145/145/145
f 147/147/147 145/145/145 146/146/146
f 146/146/146 148/148/148 147/147/147
f 149/149/149 147/147/147 148/148/148
f 148/148/148 150/150/150 149/149/149
f 151/151/151 149/149/149 150/150/150
f 150/150/150 152/152/152 151/151/151
f 153/153/153 151/151/151 152/152/152
f 152/152/152 154/154/154 153/153/153
f 155/155/155 153/153/153 154/154/154
f 154/154/154 156/156/156 155/155/155
f 157/157/157 155/155/155 156/156/156
f 156/156/156 158/158/158 157/157/157
f 159/159/159 157/157/157 158/158/158
f 158/158/158 160/160/160 159/159/159
f 161/161/161 159/159/159 160/160/160
f 160/160/160 162/162/162 161/161/161
f 163/163/163 161/161/161 162/162/162
f 162/162/162 164/164/164 163/163/163
f 165/165/165 163/163/163 164/164/164
f 164/164/164 166/166/166 165/165/165
f 167/167/167 165/165/165 166/166/166
f 166/166/166 168/168/168 167/167/167
f 169/169/169 167/167/167 168/168/168
f 168/168/168 170/170/170 169/169/169
f 171/171/171 169/169/169 170/170/170
f 170/170/170 172/172/172 171/171/171
f 173/173/173 171/171/171 172/172/172
f 172/172/172 174/174/174 173/173/173
f 175/175/175 173/173/173 174/174/174
f 174/174/174 176/176/176 175/175/175
f 177/177/177 175/175/175 176/176/176
f 176/176/176 178/178/178 177/177/177
f 179/179/179 177/177/177 178/178/178
f 178/178/178 180/180/180 179/179/179
f 181/181/181 179/179/179 180/180/180
f 180/180/180 182/182/182 181/181/181
f 183/183/183 181/181/181 182/182/182
f 182/182/182 184/184/184 183/183/183
f 185/185/185 183/183/183 184/184/184
f 184/184/184 186/186/186 185/185/185
f 187/187/187 185/185/185 186/186/186
f 186/186/186 188/188/188 187/187/187
f 189/189/189 187/187/187 188/188/188
f 188/188/188 190/190/190 189/189/189
f 191/191/191 189/189/189 190/190/190
f 190/190/190 192/192/192 191/191/191
f 98/98/98 191/191/191 192/192/192
f 192/192/192 99/99/99 98/98/98
f 193/193/193 194/194/194 195/195/195
f 195/195/195 196/196/196 193/193/193
f 194/194/194 197/197/197 198/198/198
f 198/198/198 195/195/195 194/194/194
f 197/197/197 199/199/199 200/200/200
f 200/200/200 198/198/198 197/197/197
f 199/199/199 201/201/201 202/202/202
f 202/202/202 200/200/200 199/199/199
f 201/201/201 203/203/203 204/204/204
f 204/204/204 202/202/202 201/201/201
f 203/203/203 205/205/205 206/206/206
f 206/206/206 204/204/204 203/203/203
f 205/205/205 207/207/207 208/208/208
f 208/208/208 206/206/206 205/205/205
f 207/207/207 209/209/209 210/210/210
f 210/210/210 208/208/208 207/207/207
f 209/209/209 211/211/211 212/212/212
f 212/212/212 210/210/210 209/209/209
f 211/211/211 213/213/213 214/214/214
f 214/214/214 212/212/212 211/211/211
f 213/213/213 215/215/215 216/216/216
f 216/216/216 214/214/214 213/213/213
f 215/215/215 217/217/217 218/218/218
f 218/218/218 216/216/216 215/215/215
f 217/217/217 219/219/219 220/220/220
f 220/220/220 218/218/218 217/217/217
f 219/219/219 221/221/221 222/222/222
f 222/222/222 220/220/220 219/219/219
f 221/221/221 223/223/223 224/224/224
f 224/224/224 222/222/222 221/221/221
f 223/223/223 225/225/225 226/226/226
f 226/226/226 224/224/224 223/223/223
f 225/225/225 227/227/227 228/228/228
f 228/228/228 226/226/226 225/225/225
f 227/227/227 229/229/229 230/230/230
f 230/230/230 228/228/228 227/227/227
f 229/229/229 231/231/231 232/232/232
f 232/232/232 230/230/230 229/229/229
f 231/231/231 233/233/233 234/234/234
f 234/234/234 232/232/232 231/231/231
f 233/233/233 235/235/235 236/236/236
f 236/236/236 234/234/234 233/233/233
f 235/235/235 237/237/237 238/238/238
f 238/238/238 236/236/236 235/235/235
f 237/237/237 239/239/239 240/240/240
f 240/240/240 238/238/238 237/237/237
f 239/239/239 241/241/241 242/242/242
f 242/242/242 240/240/240 239/239/239
f 241/241/241 243/243/243 244/244/244
f 244/244/244 242/242/242 241/241/241
f 243/243/243 245/245/245 246/246/246
f 246/246/246 244/244/244 243/243/243
f 245/245/245 247/247/247 248/248/248
f 248/248/248 246/246/246 245/245/245
f 247/247/247 249/249/249 250/250/250
f 250/250/250 248/248/248 247/247/247
f 249/249/249 251/251/251 252/252/252
f 252/252/252 250/250/250 249/249/249
f 251/251/251 253/253/253 254/254/254
f 254/254/254 252/252/252 251/251/251
f 253/253/253 255/255/255 256/256/256
f 256/256/256 254/254/254 253/253/253
f 255/255/255 257/257/257 258/258/258
f 258/258/258 256/256/256 255/255/255
f 257/257/257 259/259/259 260/260/260
f 260/260/260 258/258/258 257/257/257
f 259/259/259 261/261/261 262/262/262
f 262/262/262 260/260/260 259/259/259
f 261/261/261 263/263/263 264/264/264
f 264/264/264 262/262/262 261/261/261
f 263/263/263 265/265/265 266/266/266
f 266/266/266 264/264/264 263/263/263
f 265/265/265 267/267/267 268/268/268
f 268/268/268 266/266/266 265/265/265
f 267/267/267 269/269/269 270/270/270
f 270/270/270 268/268/268 267/267/267
f 269/269/269 271/271/271 272/272/272
f 272/272/272 270/270/270 269/269/269
f 271/271/271 273/273/273 274/274/274
f 274/274/274 272/272/272 271/271/271
f 273/273/273 275/275/275 276/276/276
f 276/276/276 274/274/274 273/273/273
f 275/275/275 277/277/277 278/278/278
f 278/278/278 276/276/276 275/275/275
f 277/277/277 279/279/279 280/280/280
f 280/280/280 278/278/278 277/277/277
f 279/279/279 281/281/281 282/282/282
f 282/282/282 280/280/280 279/279/279
f 281/281/281 283/283/283 284/284/284
f 284/284/284 282/282/282 281/281/281
f 283/283/283 285/285/285 286/286/286
f 286/286/286 284/284/284 283/283/283
f 285/285/285 287/287/287 288/288/288
f 288/288/288 286/286/286 285/285/285
f 287/287/287 193/193/193 196/196/196
f 196/196/196 288/288/288 287/287/287
f 291/291/291 290/290/290 289/289/289
f 289/289/289 292/292/292 291/291/291
f 295/295/295 294/294/294 293/293/293
f 293/293/293 296/296/296 295/295/295
f 299/299/299 298/298/298 297/297/297
f 297/297/297 300/300/300 299/299/299
f 303/303/303 302/302/302 301/301/301
f 301/301/301 304/304/304 303/303/303
f 307/307/307 306/306/306 305/305/305
f 305/305/305 308/308/308 307/307/307
f 311/311/311 310/310/310 309/309/309
f 309/309/309 312/312/312 311/311/311
f 310/310/310 314/314/314 313/313/313
f 313/313/313 309/309/309 310/310/310
f 314/314/314 316/316/316 315/315/315
f 315/315/315 313/313/313 314/314/314
f 316/316/316 311/311/311 312/312/312
f 312/312/312 315/315/315 316/316/316
f 317/317/317 318/318/318 319/319/319
f 319/319/319 320/320/320 317/317/317
f 321/321/321 322/322/322 323/323/323
f 323/323/323 324/324/324 321/321/321
f 325/325/325 326/326/326 327/327/327
f 327/327/327 328/328/328 325/325/325
f 329/329/329 330/330/330 331/331/331
f 331/331/331 332/332/332 329/329/329
f 335/335/335 334/334/334 333/333/333
f 333/333/333 336/336/336 335/335/335
f 334/334/334 338/338/338 337/337/337
f 337/337/337 333/333/333 334/334/334
f 338/338/338 340/340/340 339/339/339
f 339/339/339 337/337/337 338/338/338
f 340/340/340 335/335/335 336/336/336
f 336/336/336 339/339/339 340/340/340
f 341/341/341 342/342/342 343/343/343
f 343/343/343 344/344/344 341/341/341
f 345/345/345 346/346/346 347/347/347
f 347/347/347 348/348/348 345/345/345
f 349/349/349 350/350/350 351/351/351
f 351/351/351 352/352/352 349/349/349
f 353/353/353 354/354/354 355/355/355
f 355/355/355 356/356/356 353/353/353
f 359/359/359 358/358/358 357/357/357
f 357/357/357 360/360/360 359/359/359
