mtllib tile_round1*1_quarter_green.mtl
v 7 -8.742279E-07 9.99999
v 7 1.994771E-05 -10.00001
v 0 1.994771E-05 -10.00001
v 0 -8.742279E-07 9.99999
v 0 20 10.00001
v 7 20 10.00001
v 7 -8.742279E-07 9.99999
v 0 -8.742279E-07 9.99999
v 7 1 8.999991
v 7 18.8 9.00001
v 8 18.8 9.00001
v 8 1 8.999991
v 8 1.000019 -8.800008
v 7 1.000019 -8.800008
v 7 1 8.999991
v 8 1 8.999991
v 8 4.000003 5.999995
v 8 4.000015 -5.200005
v 4 4.000015 -5.200005
v 4 4.000003 5.999995
v 4 15.2 6.000006
v 8 15.2 6.000006
v 8 4.000003 5.999995
v 4 4.000003 5.999995
v 4 19.828 7.390011
v 4 20 10.00001
v 0 20 10.00001
v 0 19.828 7.390011
v 4 19.318 4.82401
v 0 19.318 4.82401
v 4 18.47801 2.34601
v 0 18.47801 2.34601
v 4 17.32001 8.495059E-06
v 0 17.32001 8.495059E-06
v 4 15.86801 -2.175993
v 0 15.86801 -2.175993
v 4 14.14201 -4.141994
v 0 14.14201 -4.141994
v 4 12.17601 -5.867997
v 0 12.17601 -5.867997
v 4 10.00002 -7.319999
v 0 10.00002 -7.319999
v 4 7.654018 -8.478003
v 0 7.654018 -8.478003
v 4 5.176019 -9.318005
v 0 5.176019 -9.318005
v 4 2.61002 -9.828006
v 0 2.61002 -9.828006
v 4 1.994771E-05 -10.00001
v 0 1.994771E-05 -10.00001
v 8 16.17351 0.6629072
v 8 17.55451 2.729109
v 7 17.55451 2.729109
v 7 16.17351 0.6629072
v 4 15.82871 0.8615069
v 4 15.54331 2.296507
v 8 15.54331 2.296507
v 8 15.82871 0.8615069
v 8 18.7998 9.00051
v 7 18.7998 9.00051
v 7 19.828 7.390011
v 7 20 10.00001
v 7 19.318 4.82401
v 7 18.47801 2.34601
v 7 18.47801 2.34601
v 7 19.318 4.82401
v 7 19.828 7.390011
v 7 20 10.00001
v 7 2.61002 -9.828006
v 7 1.994771E-05 -10.00001
v 7 5.176019 -9.318005
v 7 7.654018 -8.478003
v 7 7.654018 -8.478003
v 7 5.176019 -9.318005
v 7 2.61002 -9.828006
v 7 1.994771E-05 -10.00001
v 8 7.270517 -7.554202
v 7 7.270517 -7.554202
v 7 0.999519 -8.799809
v 8 0.999519 -8.799809
v 7 9.337116 -6.1735
v 8 9.337116 -6.1735
v 8 9.138515 -5.8287
v 8 7.703516 -5.543301
v 4 7.703516 -5.543301
v 4 9.138515 -5.8287
v 8 14.63441 3.655906
v 4 14.63441 3.655906
v 4 15.1996 6.000106
v 8 15.1996 6.000106
v 8 3.999915 -5.199605
v 4 3.999915 -5.199605
v 4 6.344114 -4.634403
v 8 6.344114 -4.634403
v 8 14.63471 3.655806
v 4 14.63471 3.655806
v 4 6.344214 -4.634703
v 8 6.344214 -4.634703
v 7 9.828517 -7.0243
v 4 9.828517 -7.0243
v 7 17.02431 0.1715081
v 4 17.02431 0.1715081
v 4 4.000003 5.999995
v 4 6.344015 -4.634003
v 4 4.000015 -5.200005
v 8 6.344015 -4.634003
v 8 7.703015 -5.543001
v 8 7.271018 -7.555002
v 8 14.63401 3.656006
v 8 17.55501 2.729009
v 8 15.54301 2.297007
v 4 15.2 6.000006
v 4 14.63401 3.656006
v 4 15.82901 0.8620069
v 8 15.82901 0.8620069
v 8 16.17401 0.6630073
v 7 16.17401 0.6630073
v 4 17.02501 0.1710082
v 7 17.02501 0.1710082
v 8 18.8 9.00001
v 8 15.2 6.000006
v 7 18.8 9.00001
v 7 1 8.999991
v 7 -8.742279E-07 9.99999
v 8 16.17401 0.6630073
v 8 15.82901 0.8620069
v 7 17.02501 0.1710082
v 7 16.17401 0.6630073
v 7 17.55501 2.729009
v 8 1 8.999991
v 8 4.000003 5.999995
v 8 1.000019 -8.800009
v 8 4.000015 -5.200005
v 4 14.14201 -4.141995
v 4 9.829017 -7.025
v 4 9.138016 -5.829
v 4 15.54301 2.297007
v 4 15.82901 0.8620069
v 4 17.02501 0.1710082
v 4 7.703015 -5.543002
v 7 9.829017 -7.025
v 7 9.337016 -6.174
v 4 9.138016 -5.829
v 4 9.829017 -7.025
v 8 9.138016 -5.829
v 8 9.337016 -6.174
v 8 9.337016 -6.174
v 8 9.138016 -5.829
v 7 1.000019 -8.800009
v 7 7.271017 -7.555002
v 7 9.337016 -6.174
v 7 9.829017 -7.025
v 0 19.318 4.82401
v 0 19.828 7.390011
v 0 20 10.00001
v 0 -8.742279E-07 9.99999
v 0 17.32001 8.495059E-06
v 0 18.47801 2.34601
v 0 14.14201 -4.141994
v 0 15.86801 -2.175993
v 0 10.00002 -7.319999
v 0 12.17601 -5.867997
v 0 5.176019 -9.318005
v 0 7.654018 -8.478003
v 0 1.994771E-05 -10.00001
v 0 2.61002 -9.828006
vn 0 -1 -1.041097E-06
vn 0 -1 -1.041097E-06
vn 0 -1 -1.041097E-06
vn 0 -1 -1.041097E-06
vn 0 -1.041097E-06 1
vn 0 -1.041097E-06 1
vn 0 -1.041097E-06 1
vn 0 -1.041097E-06 1
vn 0 -1.041097E-06 1
vn 0 -1.041097E-06 1
vn 0 -1.041097E-06 1
vn 0 -1.041097E-06 1
vn 0 -1 -1.041097E-06
vn 0 -1 -1.041097E-06
vn 0 -1 -1.041097E-06
vn 0 -1 -1.041097E-06
vn 0 1 1.041097E-06
vn 0 1 1.041097E-06
vn 0 1 1.041097E-06
vn 0 1 1.041097E-06
vn 0 1.041097E-06 -1
vn 0 1.041097E-06 -1
vn 0 1.041097E-06 -1
vn 0 1.041097E-06 -1
vn 0 0.9918323 -0.1275488
vn 0 0.9978356 -0.06575704
vn 0 0.9978356 -0.06575704
vn 0 0.9883542 -0.152171
vn 0 0.9668003 -0.2555333
vn 0 0.9601346 -0.2795381
vn 0 0.9103096 -0.413928
vn 0 0.9152589 -0.4028662
vn 0 0.8767225 -0.4809965
vn 0 0.8550508 -0.5185441
vn 0 0.8066003 -0.5910972
vn 0 0.7797721 -0.6260635
vn 0 0.7222598 -0.6916218
vn 0 0.6916233 -0.7222584
vn 0 0.6260652 -0.7797708
vn 0 0.5910989 -0.8065991
vn 0 0.5185459 -0.8550497
vn 0 0.4809983 -0.8767216
vn 0 0.4367274 -0.8995938
vn 0 0.3622626 -0.9320761
vn 0 0.2795401 -0.960134
vn 0 0.237427 -0.9714054
vn 0 0.152173 -0.9883538
vn 0 0.1090312 -0.9940383
vn 0 0.06575912 -0.9978356
vn 0 0.06575911 -0.9978355
vn 0 0.8313943 -0.5556831
vn 0 0.9538004 -0.300441
vn 0 0.9538004 -0.3004411
vn 0 0.8313943 -0.5556831
vn 0 -0.9807902 -0.1950658
vn 0 -0.892199 -0.4516424
vn 0 -0.9439175 -0.3301814
vn 0 -0.9807902 -0.1950658
vn 0 0.98085 -0.1947645
vn 0 0.98085 -0.1947645
vn 0 0.9940385 -0.1090291
vn 0 0.9978356 -0.06575704
vn 0 0.9714059 -0.2374249
vn 0 0.9154913 -0.4023376
vn 1 0 0
vn 1 0 0
vn 1 0 0
vn 1 0 0
vn 0 0.1090312 -0.9940383
vn 0 0.06575911 -0.9978355
vn 0 0.237427 -0.9714054
vn 0 0.4023395 -0.9154905
vn 1 0 0
vn 0.9999999 0 0
vn 1 0 0
vn 1 0 0
vn 0 0.300443 -0.9537998
vn 0 0.300443 -0.9537998
vn 0 0.1948236 -0.9808384
vn 0 0.1948236 -0.9808384
vn 0 0.5555273 -0.8314983
vn 0 0.5555273 -0.8314983
vn 0 0.1950638 0.9807906
vn 0 0.4516405 0.8922
vn 0 0.3301795 0.9439182
vn 0 0.1950638 0.9807906
vn 0 -0.9721431 0.2343881
vn 0 -0.9721431 0.2343881
vn 0 -0.9721431 0.2343881
vn 0 -0.9721431 0.2343881
vn 0 -0.2343901 0.9721426
vn 0 -0.2343901 0.9721426
vn 0 -0.2343901 0.9721426
vn 0 -0.2343901 0.9721426
vn 0 -0.8313718 -0.5557166
vn 0 -0.8313718 -0.5557166
vn 0 0.5557148 0.831373
vn 0 0.5557148 0.831373
vn 0 0.5557683 -0.8313372
vn 0 0.5557683 -0.8313372
vn 0 0.8313384 -0.5557665
vn 0 0.8313384 -0.5557665
vn 1 0 0
vn 0.9999999 0 0
vn 1 0 0
vn 1 0 0
vn 0.9999999 0 0
vn 1 0 0
vn 1 0 0
vn 1 0 0
vn 1 0 0
vn 1 0 0
vn 1 0 0
vn 6.370259E-05 -0.5000649 -0.8659879
vn 0 -0.4996493 -0.8662278
vn 0 -0.4996493 -0.8662278
vn 5.217267E-05 -0.50033 -0.8658348
vn 5.510231E-05 -0.5003682 -0.8658127
vn 0 -0.5005138 -0.8657286
vn 1 0 0
vn 1 0 0
vn 0.9999999 0 0
vn 0.9999999 0 0
vn 1 0 0
vn 0.9999999 0 0
vn 1 0 0
vn 1 0 0
vn 1 0 0
vn 1 0 0
vn 1 0 0
vn 1 0 0
vn 1 0 0
vn 1 0 0
vn 1 0 0
vn 1 0 0
vn 1 0 0
vn 1 0 0
vn 1 0 0
vn 1 0 0
vn 1 0 0
vn 5.510231E-05 0.8658116 0.50037
vn 0.0001167611 0.865787 0.5004128
vn 4.3023E-05 0.8659027 0.5002124
vn 0 0.8658715 0.5002664
vn 1 0 0
vn 0.9999999 0 0
vn 0 0.8662267 0.4996511
vn 0 0.8662267 0.4996511
vn 0.9999999 0 0
vn 1 0 0
vn 1 0 0
vn 0.9999999 0 0
vn -1 0 0
vn -1 0 0
vn -1 0 0
vn -1 0 0
vn -0.9999999 0 0
vn -1 0 0
vn -1 0 0
vn -1 0 0
vn -1 0 0
vn -1 0 0
vn -1 0 0
vn -1 0 0
vn -1 0 0
vn -1 0 0
vt -3 -20
vt -3 0
vt -10 0
vt -10 -20
vt -10 0
vt -3 0
vt -3 -20
vt -10 -20
vt -2 -18
vt -2 -0.2000008
vt -1 -0.2000008
vt -1 -18
vt -1 -0.2000008
vt -2 -0.2000008
vt -2 -18
vt -1 -18
vt 2 -12
vt 2 -0.8000002
vt -2 -0.8000002
vt -2 -12
vt -2 -0.8000002
vt 2 -0.8000002
vt 2 -12
vt -2 -12
vt 13.828 2.437999
vt 14 0
vt 10 0
vt 9.827999 2.437999
vt 13.318 4.494001
vt 9.318001 4.494001
vt 12.478 6.132
vt 8.478001 6.132
vt 11.32 7.32
vt 7.32 7.32
vt 9.868 8.044
vt 5.868 8.044
vt 8.141999 8.283998
vt 4.141999 8.283998
vt 9.868 8.044
vt 5.868 8.044
vt 11.32 7.32
vt 7.32 7.32
vt 12.478 6.132
vt 8.478001 6.132
vt 13.318 4.494001
vt 9.318001 4.494001
vt 13.828 2.437999
vt 9.827999 2.437999
vt 14 0
vt 10 0
vt 14.1735 5.5106
vt 15.5545 4.825399
vt 14.5545 4.825399
vt 13.1735 5.5106
vt 3.1385 4.9672
vt 1.7035 3.2468
vt 5.7035 3.2468
vt 7.1385 4.9672
vt 16.7998 -0.2006998
vt 15.7998 -0.2006998
vt 16.828 2.437999
vt 17 0
vt 16.318 4.494001
vt 15.478 6.132
vt 15.478 4.654
vt 16.318 2.176
vt 16.828 -0.3899999
vt 17 -3
vt 16.828 2.437999
vt 17 0
vt 16.318 4.494001
vt 15.478 6.132
vt 4.654 15.478
vt 2.176 16.318
vt -0.3899999 16.828
vt -3 17
vt 15.5542 4.8247
vt 14.5542 4.8247
vt 15.7998 -0.2006998
vt 16.7998 -0.2006998
vt 13.1735 5.5106
vt 14.1735 5.5106
vt 7.1385 4.9672
vt 5.7035 3.2468
vt 1.7035 3.2468
vt 3.1385 4.9672
vt 12.6344 0.9784999
vt 8.634399 0.9784999
vt 9.1996 -0.8005004
vt 13.1996 -0.8005004
vt 13.1996 -0.8005004
vt 9.1996 -0.8005004
vt 8.634399 0.9784999
vt 12.6344 0.9784999
vt 4.3442 0.9789002
vt 0.3441999 0.9789002
vt 0.3441999 0.9789002
vt 4.3442 0.9789002
vt 14.0243 6.8528
vt 11.0243 6.8528
vt 14.0243 6.8528
vt 11.0243 6.8528
vt -2 -2
vt 0.3440001 8.634
vt -2 9.2
vt 4.344 12.634
vt 5.703 13.543
vt 5.271 15.555
vt 12.634 4.344
vt 15.555 5.271
vt 13.543 5.703
vt 9.2 -2
vt 8.634 0.3440001
vt 3.138 4.967
vt 7.138 4.967
vt 7.337 5.511
vt 6.337 5.511
vt 3.829 6.854
vt 6.829 6.854
vt 16.8 -1
vt 13.2 2
vt 15.8 -2
vt -2 -2
vt -3 -3
vt 14.174 7.337
vt 13.829 7.138
vt 14.025 6.829
vt 13.174 6.337
vt 14.555 4.271
vt -1 -1
vt 2 2
vt -1 16.8
vt 2 13.2
vt 8.142 8.142
vt 3.829 11.025
vt 3.138 9.829
vt 9.543 1.703
vt 9.829 3.138
vt 11.025 3.829
vt 1.703 9.543
vt 6.829 6.854
vt 6.337 5.511
vt 3.138 4.967
vt 3.829 6.854
vt 7.138 13.829
vt 7.337 14.174
vt 7.337 5.511
vt 7.138 4.967
vt -2 15.8
vt 4.271 14.555
vt 6.337 13.174
vt 6.829 14.025
vt 9.318001 -4.824
vt 9.827999 -7.39
vt 10 -10
vt -10 -10
vt 7.32 0
vt 8.478001 -2.346
vt 4.141999 4.141999
vt 5.868 2.176
vt 0 7.32
vt 2.176 5.868
vt -4.824 9.318001
vt -2.346 8.478001
vt -10 10
vt -7.39 9.827999
usemtl 2
f 3/3/3 2/2/2 1/1/1
f 1/1/1 4/4/4 3/3/3
f 7/7/7 6/6/6 5/5/5
f 5/5/5 8/8/8 7/7/7
f 11/11/11 10/10/10 9/9/9
f 9/9/9 12/12/12 11/11/11
f 15/15/15 14/14/14 13/13/13
f 13/13/13 16/16/16 15/15/15
f 17/17/17 18/18/18 19/19/19
f 19/19/19 20/20/20 17/17/17
f 21/21/21 22/22/22 23/23/23
f 23/23/23 24/24/24 21/21/21
f 27/27/27 26/26/26 25/25/25
f 25/25/25 28/28/28 27/27/27
f 28/28/28 25/25/25 29/29/29
f 29/29/29 30/30/30 28/28/28
f 30/30/30 29/29/29 31/31/31
f 31/31/31 32/32/32 30/30/30
f 32/32/32 31/31/31 33/33/33
f 33/33/33 34/34/34 32/32/32
f 34/34/34 33/33/33 35/35/35
f 35/35/35 36/36/36 34/34/34
f 36/36/36 35/35/35 37/37/37
f 37/37/37 38/38/38 36/36/36
f 38/38/38 37/37/37 39/39/39
f 39/39/39 40/40/40 38/38/38
f 40/40/40 39/39/39 41/41/41
f 41/41/41 42/42/42 40/40/40
f 42/42/42 41/41/41 43/43/43
f 43/43/43 44/44/44 42/42/42
f 44/44/44 43/43/43 45/45/45
f 45/45/45 46/46/46 44/44/44
f 46/46/46 45/45/45 47/47/47
f 47/47/47 48/48/48 46/46/46
f 48/48/48 47/47/47 49/49/49
f 49/49/49 50/50/50 48/48/48
f 53/53/53 52/52/52 51/51/51
f 51/51/51 54/54/54 53/53/53
f 57/57/57 56/56/56 55/55/55
f 55/55/55 58/58/58 57/57/57
f 53/53/53 60/60/60 59/59/59
f 59/59/59 52/52/52 53/53/53
f 26/26/26 62/62/62 61/61/61
f 61/61/61 25/25/25 26/26/26
f 25/25/25 61/61/61 63/63/63
f 63/63/63 29/29/29 25/25/25
f 29/29/29 63/63/63 64/64/64
f 64/64/64 31/31/31 29/29/29
f 65/65/65 66/66/66 67/67/67
f 67/67/67 68/68/68 65/65/65
f 69/69/69 70/70/70 49/49/49
f 49/49/49 47/47/47 69/69/69
f 71/71/71 69/69/69 47/47/47
f 47/47/47 45/45/45 71/71/71
f 72/72/72 71/71/71 45/45/45
f 45/45/45 43/43/43 72/72/72
f 75/75/75 74/74/74 73/73/73
f 73/73/73 76/76/76 75/75/75
f 79/79/79 78/78/78 77/77/77
f 77/77/77 80/80/80 79/79/79
f 77/77/77 78/78/78 81/81/81
f 81/81/81 82/82/82 77/77/77
f 85/85/85 84/84/84 83/83/83
f 83/83/83 86/86/86 85/85/85
f 89/89/89 88/88/88 87/87/87
f 87/87/87 90/90/90 89/89/89
f 93/93/93 92/92/92 91/91/91
f 91/91/91 94/94/94 93/93/93
f 56/56/56 57/57/57 95/95/95
f 95/95/95 96/96/96 56/56/56
f 84/84/84 85/85/85 97/97/97
f 97/97/97 98/98/98 84/84/84
f 43/43/43 100/100/100 99/99/99
f 99/99/99 72/72/72 43/43/43
f 31/31/31 64/64/64 101/101/101
f 101/101/101 102/102/102 31/31/31
f 105/105/105 104/104/104 103/103/103
f 108/108/108 107/107/107 106/106/106
f 111/111/111 110/110/110 109/109/109
f 103/103/103 113/113/113 112/112/112
f 116/116/116 115/115/115 114/114/114
f 114/114/114 117/117/117 116/116/116
f 117/117/117 114/114/114 118/118/118
f 118/118/118 119/119/119 117/117/117
f 109/109/109 110/110/110 120/120/120
f 120/120/120 121/121/121 109/109/109
f 123/123/123 122/122/122 68/68/68
f 68/68/68 124/124/124 123/123/123
f 125/125/125 110/110/110 111/111/111
f 111/111/111 126/126/126 125/125/125
f 129/129/129 128/128/128 127/127/127
f 127/127/127 65/65/65 129/129/129
f 65/65/65 68/68/68 122/122/122
f 122/122/122 129/129/129 65/65/65
f 121/121/121 120/120/120 130/130/130
f 130/130/130 131/131/131 121/121/121
f 131/131/131 130/130/130 132/132/132
f 132/132/132 133/133/133 131/131/131
f 136/136/136 135/135/135 134/134/134
f 134/134/134 103/103/103 136/136/136
f 137/137/137 113/113/113 103/103/103
f 103/103/103 138/138/138 137/137/137
f 139/139/139 138/138/138 103/103/103
f 103/103/103 134/134/134 139/139/139
f 104/104/104 140/140/140 136/136/136
f 136/136/136 103/103/103 104/104/104
f 133/133/133 132/132/132 108/108/108
f 108/108/108 106/106/106 133/133/133
f 143/143/143 142/142/142 141/141/141
f 141/141/141 144/144/144 143/143/143
f 146/146/146 145/145/145 107/107/107
f 107/107/107 108/108/108 146/146/146
f 147/147/147 142/142/142 143/143/143
f 143/143/143 148/148/148 147/147/147
f 123/123/123 124/124/124 76/76/76
f 76/76/76 149/149/149 123/123/123
f 151/151/151 150/150/150 73/73/73
f 73/73/73 152/152/152 151/151/151
f 73/73/73 150/150/150 149/149/149
f 149/149/149 76/76/76 73/73/73
f 155/155/155 154/154/154 153/153/153
f 153/153/153 156/156/156 155/155/155
f 153/153/153 158/158/158 157/157/157
f 157/157/157 156/156/156 153/153/153
f 157/157/157 160/160/160 159/159/159
f 159/159/159 156/156/156 157/157/157
f 159/159/159 162/162/162 161/161/161
f 161/161/161 156/156/156 159/159/159
f 161/161/161 164/164/164 163/163/163
f 163/163/163 156/156/156 161/161/161
f 163/163/163 166/166/166 165/165/165
f 165/165/165 156/156/156 163/163/163
