mtllib tile_round_corner2*2_macaroni_medium_azure.mtl
v -13.00002 19.82801 -27.39002
v -13.00002 20.00001 -30.00002
v -20.00002 20 -30.00001
v -20.00002 19.828 -27.39001
v -13.00001 19.31802 -24.82402
v -20.00001 19.31801 -24.82401
v -13.00001 18.47802 -22.34602
v -20.00001 18.47801 -22.34601
v -13.00001 17.32002 -20.00001
v -20.00001 17.32001 -20.00001
v -13 15.86802 -17.82401
v -20 15.86801 -17.82401
v -13 14.14202 -15.85801
v -20 14.14201 -15.858
v -13 12.17602 -14.13201
v -20 12.17601 -14.132
v -12.99999 10.00002 -12.68001
v -19.99999 10.00002 -12.68
v -12.99999 7.654025 -11.522
v -19.99999 7.654017 -11.522
v -12.99999 5.176026 -10.682
v -19.99999 5.176018 -10.68199
v -12.99998 2.610026 -10.172
v -19.99998 2.610018 -10.17199
v -12.99998 2.581508E-05 -9.999995
v -19.99998 1.747043E-05 -9.999989
v -12.00002 20.51543 -26.47229
v -12.00002 20.70981 -29.0227
v -13.00002 20.70981 -29.0227
v -13.00002 20.51543 -26.47229
v -12.00001 19.99144 -23.96143
v -13.00001 19.99144 -23.96143
v -12.00001 19.1461 -21.53316
v -13.00001 19.1461 -21.53316
v -12.00001 17.99156 -19.23056
v -13.00001 17.99156 -19.23056
v -12 16.55165 -17.091
v -13 16.55165 -17.091
v -12 14.84631 -15.15372
v -13 14.84631 -15.15372
v -12 12.90904 -13.44838
v -13 12.90904 -13.44838
v -11.99999 10.76948 -12.00847
v -12.99999 10.76948 -12.00846
v -11.99999 8.466887 -10.85393
v -12.99999 8.466886 -10.85393
v -11.99999 6.038617 -10.00858
v -12.99999 6.038616 -10.00858
v -11.99998 3.527754 -9.484581
v -12.99998 3.527753 -9.48458
v -11.99998 0.9773475 -9.290196
v -12.99998 0.9773463 -9.290195
v -12.00002 20.51543 -26.47229
v -12.00001 20.66954 -25.13818
v -12.00002 20.70981 -29.0227
v -12.00001 19.99144 -23.96143
v -12.00001 19.1461 -21.53316
v -12.00001 17.99156 -19.23056
v -12 17.62265 -17.92813
v -12 16.55165 -17.091
v -12 14.84631 -15.15372
v -12 12.90904 -13.44838
v -11.99999 12.07191 -12.37738
v -11.99999 10.76948 -12.00847
v -11.99999 8.466887 -10.85393
v -11.99999 6.038617 -10.00858
v -11.99998 4.861866 -9.330474
v -11.99998 3.527754 -9.484581
v -11.99998 0.9773475 -9.290196
v -13.00002 20.00001 -30.00002
v -13.00002 19.82801 -27.39002
v -13.00002 20.81941 -27.25952
v -13.00002 21.00001 -30.00002
v -13.00001 19.31802 -24.82402
v -13.00001 20.28391 -24.56522
v -13.00001 18.47802 -22.34602
v -13.00001 19.40192 -21.96332
v -13.00001 17.32002 -20.00001
v -13.00001 18.18602 -19.50002
v -13 15.86802 -17.82401
v -13 16.66142 -17.21521
v -13 14.14202 -15.85801
v -13 14.84912 -15.15091
v -13 12.17602 -14.13201
v -13 12.78482 -13.33861
v -12.99999 10.00002 -12.68001
v -12.99999 10.50003 -11.814
v -12.99999 7.654025 -11.522
v -12.99999 8.036727 -10.5981
v -12.99999 5.176026 -10.682
v -12.99998 5.434827 -9.716101
v -12.99998 2.610026 -10.172
v -12.99998 2.740527 -9.180597
v -12.99998 2.581508E-05 -9.999995
v -12.99998 2.672765E-05 -8.999995
v -20.00004 40 -30.00003
v -20.00003 39.65601 -24.78003
v -13.00003 39.65601 -24.78004
v -13.00004 40.00001 -30.00004
v -20.00002 38.63601 -19.64803
v -13.00002 38.63602 -19.64803
v -20.00002 36.95602 -14.69202
v -13.00002 36.95603 -14.69203
v -20.00001 34.64002 -10.00002
v -13.00001 34.64003 -10.00003
v -13.00003 39.00001 -29.00004
v -13.00003 38.64785 -24.04103
v -12.00003 38.64785 -24.04103
v -12.00003 39.00002 -29.00004
v -13.00002 37.60363 -19.16563
v -12.00002 37.60363 -19.16563
v -13.00002 35.88373 -14.45743
v -12.00002 35.88373 -14.45743
v -13.00001 33.51273 -10.00003
v -12.00001 33.51273 -10.00003
v -12.00002 37.60363 -19.16563
v -12.00003 38.64785 -24.04103
v -12.00003 39.00002 -29.00004
v -12.00001 33.51273 -10.00003
v -12.00002 35.88373 -14.45743
v -13.00004 39.00001 -30.00004
v -13.00003 38.66462 -24.91053
v -13.00003 39.65601 -24.78004
v -13.00004 40.00001 -30.00004
v -13.00002 37.67012 -19.90683
v -13.00002 38.63602 -19.64803
v -13.00002 36.03213 -15.07473
v -13.00002 36.95603 -14.69203
v -13.00001 33.77403 -10.50003
v -13.00001 34.64003 -10.00003
v -13.00001 32.31823 -6.520625
v -16.00001 32.31823 -6.520621
v -20.00001 32.31822 -6.520617
v -16 31.73393 -5.649221
v -20.00001 31.73453 -5.648916
v -19.99999 24.35049 1.734123
v -20 28.28238 -1.716529
v -16 28.28238 -1.716533
v -15.99999 24.3505 1.734119
v -20.00001 31.73293 -5.649919
v -16 31.73293 -5.649923
v -16 31.73293 -5.649923
v -16 28.28238 -1.716533
v -15.99999 24.3505 1.734119
v -15.99999 23.47944 2.318188
v -19.99999 23.47943 2.318192
v -19.99999 24.35123 1.735092
v -15.99999 24.35104 1.734788
v -12.99998 20.00004 4.639989
v -19.99998 20.00003 4.639996
v -12.99999 23.47944 2.318185
v -19.99996 3.572197E-05 10.00002
v -19.99997 5.220037 9.65601
v -12.99997 5.220045 9.656003
v -12.99996 4.406662E-05 10.00001
v -19.99997 10.35204 8.636008
v -12.99997 10.35204 8.636001
v -19.99998 15.30803 6.956003
v -12.99998 15.30804 6.955996
v -20.00004 40 -30.00003
v -20.00002 20 -30.00001
v -13.00002 20.00001 -30.00002
v -13.00004 40.00001 -30.00004
v -19.99996 3.572197E-05 10.00002
v -12.99996 4.406662E-05 10.00001
v -12.99998 2.581508E-05 -9.999995
v -19.99998 1.747043E-05 -9.999989
v -19.99998 2.610018 -10.17199
v -19.99997 5.220037 9.65601
v -19.99996 3.572197E-05 10.00002
v -19.99998 1.747043E-05 -9.999989
v -19.99999 5.176018 -10.68199
v -19.99997 10.35204 8.636008
v -19.99999 7.654017 -11.522
v -19.99998 15.30803 6.956003
v -19.99999 10.00002 -12.68
v -19.99998 20.00003 4.639996
v -20 12.17601 -14.132
v -19.99999 24.35203 1.735992
v -20 14.14201 -15.858
v -20 28.28403 -1.716014
v -20 15.86801 -17.82401
v -20.00001 31.73602 -5.648017
v -20.00001 17.32001 -20.00001
v -20.00001 34.64002 -10.00002
v -20.00001 18.47801 -22.34601
v -20.00002 36.95602 -14.69202
v -20.00001 19.31801 -24.82401
v -20.00002 38.63601 -19.64803
v -20.00002 19.828 -27.39001
v -20.00003 39.65601 -24.78003
v -20.00002 20 -30.00001
v -20.00004 40 -30.00003
v -13.00003 39.00001 -29.00004
v -13.00002 20.70981 -29.02272
v -12.00002 20.70981 -29.02272
v -12.00003 39.00002 -29.00004
v -13.00002 20.80571 -29.02262
v -13.00003 38.93411 -29.00014
v -13.00001 31.61113 -7.227724
v -12.00001 31.61113 -7.227725
v -13.00001 32.31823 -6.520625
v -13.00001 31.61113 -7.227724
v -12.00001 31.61113 -7.227725
v -12.00001 29.44023 -9.398623
v -16.00001 29.44023 -9.398619
v -13.00001 31.61113 -7.227724
v -16.00001 32.31823 -6.520621
v -13.00001 32.31823 -6.520625
v -12.00001 31.61113 -7.227725
v -12.00001 30.87003 -11.64003
v -12.00001 29.44023 -9.398623
v -12.00001 33.14343 -12.44293
v -12.00001 30.44623 -12.44802
v -12.02321 24.09143 -14.01612
v -12 23.99633 -12.46022
v -12.00001 31.58963 -14.00263
v -12 22.50563 -12.06062
v -12 21.29673 -13.27002
v -12.00002 35.54342 -17.70383
v -12.00002 36.00002 -20.00003
v -12.00003 36.00002 -26.00003
v -12.00002 23.21561 -26.02232
v -12.00001 22.27582 -21.52032
v -12 17.50203 -13.60771
v -12.00001 20.81362 -18.52112
v -12.00001 23.99152 -18.51512
v -12.00001 23.99722 -21.51702
v -16 22.50562 -12.06061
v -16 23.99632 -12.46021
v -12 23.99633 -12.46022
v -12 22.50563 -12.06062
v -16.00001 30.44622 -12.44802
v -12.00001 30.44623 -12.44802
v -16.00001 30.87003 -11.64002
v -12.00001 30.87003 -11.64003
v -12.00001 30.44623 -12.44802
v -16.00001 30.44622 -12.44802
v -12.00001 29.44023 -9.398623
v -12.00001 30.87003 -11.64003
v -16.00001 30.87002 -11.64002
v -16.00001 29.44023 -9.39862
v -16.00003 36.00001 -26.00003
v -16.00002 36.00002 -20.00003
v -12.00002 36.00002 -20.00003
v -12.00003 36.00002 -26.00003
v -16.00002 35.54342 -17.70383
v -12.00002 35.54342 -17.70383
v -16.00001 33.14342 -12.44292
v -12.00001 33.14343 -12.44293
v -16.00001 31.58962 -14.00262
v -12.00001 31.58963 -14.00263
v -12.00001 33.14343 -12.44293
v -16.00001 33.14342 -12.44292
v -16.00001 31.58962 -14.00262
v -16.02321 24.09142 -14.01612
v -12.02321 24.09143 -14.01612
v -12.00001 31.58963 -14.00263
v -16 21.29672 -13.27001
v -12 21.29673 -13.27002
v -16 21.29672 -13.27001
v -16 19.56102 -11.54091
v -12 19.56103 -11.54091
v -12 21.29673 -13.27002
v -16 17.50202 -13.60771
v -12 17.50203 -13.60771
v -12 19.56103 -11.54091
v -16 19.56102 -11.54091
v -12.00001 20.81362 -18.52112
v -12 17.50203 -13.60771
v -16 17.50202 -13.60771
v -16.00001 20.81362 -18.52111
v -12.00001 23.99152 -18.51512
v -12.00001 20.81362 -18.52112
v -16.00001 20.81362 -18.52111
v -16.00001 23.99152 -18.51512
v -12.00001 23.99722 -21.51702
v -12.00001 23.99152 -18.51512
v -16.00001 23.99152 -18.51512
v -16.00001 23.99722 -21.51702
v -12.00001 22.27582 -21.52032
v -12.00001 23.99722 -21.51702
v -16.00001 23.99722 -21.51702
v -16.00001 22.27582 -21.52032
v -12.00002 23.21572 -26.02232
v -12.00001 22.27582 -21.52032
v -16.00001 22.27582 -21.52032
v -16.00002 23.21571 -26.02232
v -12.00003 36.00002 -26.00003
v -12.00002 23.21571 -26.02232
v -16.00002 23.21571 -26.02232
v -16.00003 36.00001 -26.00003
v -16.00001 20.81362 -18.52111
v -16 17.50202 -13.60771
v -16 19.56102 -11.54091
v -16 21.29672 -13.27001
v -16.02321 24.09142 -14.01612
v -16.00001 23.99152 -18.51512
v -16 23.99632 -12.46021
v -16.00001 29.44023 -9.398619
v -16.00001 30.87003 -11.64002
v -16.00001 30.44622 -12.44802
v -16.00001 32.31823 -6.520621
v -16.00002 36.00002 -20.00003
v -16.00001 31.58962 -14.00262
v -16.00001 33.14342 -12.44292
v -16.00002 35.54342 -17.70383
v -16.00001 23.99722 -21.51702
v -16.00003 36.00001 -26.00003
v -16.00002 23.21561 -26.02232
v -16.00001 22.27581 -21.52032
v -11.99999 22.77234 1.611085
v -12.99999 22.77234 1.611086
v -15.99999 20.60143 -0.5598083
v -11.99999 20.60144 -0.5598122
v -15.99999 23.47944 2.318188
v -12.99999 23.47944 2.318185
v -11.99999 22.77234 1.611085
v -11.99999 20.60144 -0.5598122
v -11.99999 18.36004 0.8699902
v -11.99998 20.00004 3.512688
v -11.99999 17.55204 0.4461894
v -11.99998 17.55714 3.143391
v -12.02319 15.98393 -5.90861
v -11.99998 15.99744 1.589591
v -11.99999 17.53983 -6.003712
v -11.99999 17.93943 -7.494412
v -11.99999 16.73003 -8.703312
v -11.99998 12.29624 5.543396
v -11.99997 10.00004 5.999998
v -11.99997 4.000042 6.000004
v -11.99996 1.000044 9.000007
v -11.99998 3.977731 -6.7844
v -12 16.39233 -12.49801
v -11.99999 11.47893 -9.186407
v -11.99999 8.47973 -7.724204
v -11.99998 8.483031 -6.002803
v -11.99999 11.48493 -6.008506
v -15.99999 17.93943 -7.494408
v -11.99999 17.93943 -7.494412
v -11.99999 17.53983 -6.003712
v -15.99999 17.53983 -6.003708
v -11.99999 17.55204 0.4461894
v -15.99999 17.55203 0.4461934
v -11.99999 17.55204 0.4461894
v -11.99999 18.36004 0.8699902
v -15.99999 18.36003 0.8699942
v -15.99999 17.55203 0.4461934
v -15.99999 20.60143 -0.5598083
v -15.99999 18.36003 0.8699923
v -11.99999 18.36004 0.8699883
v -11.99999 20.60144 -0.5598122
v -15.99997 4.000037 6.000008
v -11.99997 4.000042 6.000004
v -11.99997 10.00004 5.999998
v -15.99997 10.00004 6.000002
v -11.99998 12.29624 5.543396
v -15.99998 12.29624 5.5434
v -11.99998 17.55714 3.143391
v -15.99998 17.55714 3.143395
v -11.99998 17.55714 3.143391
v -11.99998 15.99744 1.589593
v -15.99998 15.99743 1.589597
v -15.99998 17.55714 3.143395
v -15.99998 15.99743 1.589595
v -11.99998 15.99744 1.589591
v -12.02319 15.98393 -5.90861
v -16.02319 15.98393 -5.908606
v -11.99999 16.73003 -8.703312
v -15.99999 16.73003 -8.703308
v -15.99999 16.73003 -8.703308
v -11.99999 16.73003 -8.703312
v -12 18.45913 -10.43901
v -16 18.45912 -10.43901
v -12 18.45913 -10.43901
v -12 16.39233 -12.49801
v -16 16.39232 -12.49801
v -16 18.45913 -10.43901
v -15.99999 11.47892 -9.186403
v -16 16.39232 -12.49801
v -12 16.39233 -12.49801
v -11.99999 11.47893 -9.186407
v -15.99999 11.48493 -6.008502
v -15.99999 11.47892 -9.186403
v -11.99999 11.47893 -9.186407
v -11.99999 11.48493 -6.008506
v -15.99998 8.483027 -6.002799
v -15.99999 11.48493 -6.008501
v -11.99999 11.48493 -6.008505
v -11.99998 8.483031 -6.002803
v -15.99999 8.479725 -7.724199
v -15.99998 8.483027 -6.002799
v -11.99998 8.483031 -6.002803
v -11.99999 8.47973 -7.724203
v -15.99998 3.977726 -6.784365
v -15.99999 8.479725 -7.724169
v -11.99999 8.47973 -7.724174
v -11.99998 3.977731 -6.784369
v -15.99997 4.000037 6.000078
v -15.99998 3.977726 -6.784325
v -11.99998 3.977731 -6.784429
v -11.99997 4.000042 5.999973
v -15.99999 11.47892 -9.186403
v -15.99999 16.73003 -8.703308
v -16 18.45912 -10.43901
v -16 16.39232 -12.49801
v -16.02319 15.98393 -5.908606
v -15.99999 11.48493 -6.008502
v -15.99999 17.53983 -6.003708
v -15.99999 17.55203 0.4461934
v -15.99999 18.36003 0.8699942
v -15.99999 20.60143 -0.5598083
v -15.99999 23.47944 2.318188
v -15.99999 24.35014 1.732889
v -15.99997 10.00004 6.000002
v -15.99998 12.29624 5.5434
v -15.99998 17.55714 3.143395
v -15.99998 15.99743 1.589595
v -15.99998 8.483027 -6.002799
v -15.99997 4.000037 6.000008
v -15.99998 3.977726 -6.784295
v -15.99999 8.479725 -7.7242
v -12 22.50563 -12.06062
v -11.99999 17.93943 -7.494412
v -15.99999 17.93943 -7.494408
v -16 22.50562 -12.06061
v -16 22.50562 -12.06061
v -15.99999 17.93943 -7.494408
v -12 19.56103 -11.54091
v -12 18.45913 -10.43901
v -12.99996 1.000043 9.000009
v -12.99997 5.959044 8.647835
v -11.99997 5.959045 8.647834
v -11.99996 1.000044 9.000007
v -12.99997 10.83444 7.603602
v -11.99997 10.83444 7.603601
v -12.99998 15.54264 5.883699
v -11.99998 15.54264 5.883698
v -12.99998 20.00004 3.512689
v -11.99998 20.00004 3.512688
v -11.99997 10.83444 7.603601
v -11.99997 5.959045 8.647834
v -11.99998 15.54264 5.883695
v -12.99996 4.315405E-05 9.000009
v -12.99997 5.089543 8.664605
v -12.99997 5.220044 9.656003
v -12.99996 4.406662E-05 10.00001
v -12.99997 10.09324 7.670101
v -12.99997 10.35204 8.636001
v -12.99998 14.92534 6.032095
v -12.99998 15.30804 6.955996
v -12.99998 19.50004 3.773988
v -12.99998 20.00004 4.639989
v -12.99996 0.9999431 8.934108
v -12.99998 0.9774265 -9.194296
v -12.99999 23.47944 2.318185
v -12.99999 22.77234 1.611086
v -12.99998 0.9773272 -9.290195
v -12.99996 1.000043 9.000009
v -11.99996 1.000044 9.000007
v -11.99998 0.9773284 -9.290196
v -11.99999 22.77234 1.611085
v -12.99999 22.77234 1.611086
vn 7.797094E-07 -0.9940387 -0.1090293
vn 8.263765E-07 -0.9978358 -0.06575719
vn 8.263765E-07 -0.9978358 -0.06575719
vn 7.314853E-07 -0.9883542 -0.1521711
vn 6.310783E-07 -0.971406 -0.2374251
vn 5.788878E-07 -0.9601347 -0.2795383
vn 4.710796E-07 -0.9320769 -0.3622609
vn 4.154375E-07 -0.9152589 -0.4028664
vn 3.028531E-07 -0.8767226 -0.4809967
vn 2.459293E-07 -0.8550509 -0.5185444
vn 1.300581E-07 -0.8066004 -0.5910975
vn 7.110554E-08 -0.7797722 -0.6260638
vn -4.587294E-08 -0.7222598 -0.6916221
vn -1.039005E-07 -0.6916233 -0.7222586
vn -2.200265E-07 -0.6260651 -0.779771
vn -2.781172E-07 -0.5910988 -0.8065994
vn -3.914351E-07 -0.5185459 -0.85505
vn -4.466772E-07 -0.4809983 -0.8767219
vn -5.550675E-07 -0.4028681 -0.9152583
vn -6.081897E-07 -0.3622625 -0.9320764
vn -7.102072E-07 -0.27954 -0.9601343
vn -7.591307E-07 -0.2374269 -0.9714057
vn -8.523019E-07 -0.1521729 -0.9883541
vn -8.965582E-07 -0.1090311 -0.9940385
vn -9.390437E-07 -0.065759 -0.9978358
vn -9.390437E-07 -0.065759 -0.9978358
vn 7.686474E-07 -0.992887 -0.1190616
vn 8.154886E-07 -0.9971084 -0.07599468
vn 8.154886E-07 -0.9971084 -0.07599468
vn 7.203666E-07 -0.9868063 -0.1619058
vn 6.20215E-07 -0.9691916 -0.2463086
vn 5.683399E-07 -0.9576668 -0.2878796
vn 4.615299E-07 -0.9292995 -0.3693273
vn 4.065651E-07 -0.9124376 -0.4092163
vn 2.956328E-07 -0.8740532 -0.4858304
vn 2.396648E-07 -0.852579 -0.5225989
vn 1.259289E-07 -0.8047686 -0.5935889
vn 6.813467E-08 -0.7783818 -0.6277915
vn -4.646855E-08 -0.7219524 -0.6919429
vn -1.033063E-07 -0.6919441 -0.7219512
vn -2.170915E-07 -0.6277928 -0.7783808
vn -2.740578E-07 -0.5935904 -0.8047676
vn -3.853383E-07 -0.5226004 -0.8525781
vn -4.396862E-07 -0.4858319 -0.8740525
vn -5.465689E-07 -0.409218 -0.9124369
vn -5.990943E-07 -0.369329 -0.9292989
vn -7.002816E-07 -0.2878813 -0.9576663
vn -7.489738E-07 -0.2463103 -0.9691913
vn -8.420506E-07 -0.1619076 -0.9868062
vn -8.864369E-07 -0.1190634 -0.9928869
vn -9.291632E-07 -0.07599649 -0.9971084
vn -9.291632E-07 -0.07599649 -0.9971084
vn 1 1.192093E-06 -1.000001E-06
vn 1 1.192093E-06 -1.000001E-06
vn 1 1.192093E-06 -1.000001E-06
vn 1 1.192093E-06 -1.000001E-06
vn 1 1.192093E-06 -1.000001E-06
vn 1 1.192093E-06 -1.000001E-06
vn 1 1.192093E-06 -1.000001E-06
vn 1 1.192093E-06 -1.000001E-06
vn 1 1.192093E-06 -1.000001E-06
vn 1 1.192093E-06 -1.000001E-06
vn 1 1.192093E-06 -1.000001E-06
vn 1 1.192093E-06 -1.000001E-06
vn 1 1.192093E-06 -1.000001E-06
vn 1 1.192093E-06 -1.000001E-06
vn 1 1.192093E-06 -1.000001E-06
vn 1 1.192093E-06 -1.000001E-06
vn 1 1.192093E-06 -1.000001E-06
vn 1 1.192093E-06 -1.000001E-06
vn 1 1.192093E-06 -1.000001E-06
vn 1 1.192093E-06 -1.000001E-06
vn 1 1.192093E-06 -1.000001E-06
vn 1 1.192093E-06 -1.000001E-06
vn 1 1.192093E-06 -1.000001E-06
vn 1 1.192093E-06 -1.000001E-06
vn 1 1.192093E-06 -1.000001E-06
vn 1 1.192093E-06 -1.000001E-06
vn 1 1.192093E-06 -1.000001E-06
vn 1 1.192093E-06 -1.000001E-06
vn 1 1.192093E-06 -1.000001E-06
vn 1 1.192093E-06 -1.000001E-06
vn 1 1.192093E-06 -1.000001E-06
vn 1 1.192093E-06 -1.000001E-06
vn 1 1.192093E-06 -1.000001E-06
vn 1 1.192093E-06 -1.000001E-06
vn 1 1.192093E-06 -1.000001E-06
vn 1 1.192093E-06 -1.000001E-06
vn 1 1.192093E-06 -1.000001E-06
vn 1 1.192093E-06 -1.000001E-06
vn 1 1.192093E-06 -1.000001E-06
vn 1 1.192093E-06 -1.000001E-06
vn 1 1.192093E-06 -1.000001E-06
vn 1 1.192093E-06 -1.000001E-06
vn 1 1.192093E-06 -1.000001E-06
vn -8.263765E-07 0.9978358 0.06575719
vn -7.314853E-07 0.9883542 0.1521711
vn -7.797094E-07 0.9940387 0.1090293
vn -8.263765E-07 0.9978358 0.06575719
vn -5.788878E-07 0.9601347 0.2795383
vn -6.310783E-07 0.971406 0.2374251
vn -4.154375E-07 0.9152589 0.4028664
vn -4.710796E-07 0.9320769 0.3622609
vn -2.647354E-07 0.8623687 0.506281
vn -2.977195E-07 0.8748271 0.4844356
vn -8.209858E-07 0.997488 0.07083683
vn -7.18331E-07 0.9865136 0.1636797
vn -7.705069E-07 0.9930871 0.117381
vn -8.209858E-07 0.997488 0.07083683
vn -5.537081E-07 0.9541407 0.2993589
vn -6.098795E-07 0.9670197 0.2547022
vn -3.79231E-07 0.9035096 0.4285682
vn -4.383422E-07 0.9223664 0.3863164
vn -2.6093E-07 0.8609005 0.5087737
vn -2.6093E-07 0.8609005 0.5087737
vn 1 1.192093E-06 -1.000001E-06
vn 1 1.192093E-06 -1.000001E-06
vn 1 1.192093E-06 -1.000001E-06
vn 1 1.192093E-06 -1.000001E-06
vn 1 1.192093E-06 -1.000001E-06
vn 1 1.192093E-06 -1.000001E-06
vn 1 1.192093E-06 -1.000001E-06
vn 1 1.192093E-06 -1.000001E-06
vn 1 1.192093E-06 -1.000001E-06
vn 1 1.192093E-06 -1.000001E-06
vn 1 1.192093E-06 -1.000001E-06
vn 1 1.192093E-06 -1.000001E-06
vn 1 1.192093E-06 -1.000001E-06
vn 1 1.192093E-06 -1.000001E-06
vn 1 1.192093E-06 -1.000001E-06
vn -1.886293E-07 0.831808 0.5550637
vn -1.88431E-07 0.8317251 0.5551878
vn 2.763654E-05 0.831453 0.5555955
vn 8.310722E-05 0.8307441 0.5566549
vn 0.0001664068 0.8309208 0.5563909
vn 1.618659E-07 0.6596137 0.7516052
vn 4.560297E-08 0.7223991 0.6914767
vn 1.038836E-07 0.6916324 0.7222498
vn 1.618659E-07 0.6596137 0.7516052
vn -1.264584E-08 0.7517396 0.6594603
vn -1.264584E-08 0.7517396 0.6594603
vn 1 1.192093E-06 -1.000001E-06
vn 1 1.192093E-06 -1.000001E-06
vn 1 1.192093E-06 -1.000001E-06
vn 1.036519E-05 0.5552949 0.8316537
vn 3.354255E-07 0.5551394 0.8317575
vn 4.536539E-05 0.5560967 0.8311179
vn 9.039663E-05 0.5562394 0.8310224
vn 4.283708E-07 0.4936048 0.8696866
vn 4.283708E-07 0.4936048 0.8696866
vn 3.355415E-07 0.5550652 0.8318071
vn 9.390437E-07 0.065759 0.9978358
vn 8.523019E-07 0.1521729 0.9883541
vn 8.965582E-07 0.1090311 0.9940386
vn 9.390437E-07 0.065759 0.9978358
vn 7.102072E-07 0.27954 0.9601343
vn 7.591307E-07 0.2374269 0.9714057
vn 5.550675E-07 0.4028681 0.9152583
vn 6.081897E-07 0.3622625 0.9320764
vn -1E-06 -9.125774E-07 -1
vn -1E-06 -9.125774E-07 -1
vn -1E-06 -9.125774E-07 -1
vn -1E-06 -9.125774E-07 -1
vn 8.940697E-07 -1 9.125764E-07
vn 8.940697E-07 -1 9.125764E-07
vn 8.940697E-07 -1 9.125764E-07
vn 8.940697E-07 -1 9.125764E-07
vn -1 -1.192093E-06 1.000001E-06
vn -1 -1.192093E-06 1.000001E-06
vn -1 -1.192093E-06 1.000001E-06
vn -1 -1.192093E-06 1.000001E-06
vn -1 -1.192093E-06 1.000001E-06
vn -1 -1.192093E-06 1.000001E-06
vn -1 -1.192093E-06 1.000001E-06
vn -1 -1.192093E-06 1.000001E-06
vn -1 -1.192093E-06 1.000001E-06
vn -1 -1.192093E-06 1.000001E-06
vn -1 -1.192093E-06 1.000001E-06
vn -1 -1.192093E-06 1.000001E-06
vn -1 -1.192093E-06 1.000001E-06
vn -1 -1.192093E-06 1.000001E-06
vn -1 -1.192093E-06 1.000001E-06
vn -1 -1.192093E-06 1.000001E-06
vn -1 -1.192093E-06 1.000001E-06
vn -1 -1.192093E-06 1.000001E-06
vn -1 -1.192093E-06 1.000001E-06
vn -1 -1.192093E-06 1.000001E-06
vn -1 -1.192093E-06 1.000001E-06
vn -1 -1.192093E-06 1.000001E-06
vn -1 -1.192093E-06 1.000001E-06
vn -1 -1.192093E-06 1.000001E-06
vn -1 -1.192093E-06 1.000001E-06
vn -1 -1.192093E-06 1.000001E-06
vn -1.001109E-06 0.001240153 -0.9999994
vn -1.001109E-06 0.001240153 -0.9999994
vn -1.001109E-06 0.001240153 -0.9999994
vn -1.001109E-06 0.001240153 -0.9999994
vn 1 1.192093E-06 -1.000001E-06
vn 1 1.192093E-06 -1.000001E-06
vn -1.716426E-07 0.8246469 0.565648
vn -1.716426E-07 0.8246469 0.565648
vn 1 1.192093E-06 -1.000001E-06
vn 1 1.192093E-06 -1.000001E-06
vn 1.33931E-06 -0.7071064 0.7071074
vn 1.33931E-06 -0.7071064 0.7071074
vn 1.313358E-06 -0.7071064 0.7071074
vn 1.300183E-06 -0.7071064 0.7071075
vn 1.292285E-06 -0.7071063 0.7071075
vn 1.33931E-06 -0.7071062 0.7071076
vn 1 1.192093E-06 -1.000001E-06
vn 1 1.192093E-06 -1.000001E-06
vn 1 1.192093E-06 -1.000001E-06
vn 1 1.192093E-06 -1.000001E-06
vn 0.9999797 -0.001272921 -0.006273482
vn 0.9999643 -0.0005999679 -0.008447079
vn 0.9998881 -0.0007283831 -0.01495493
vn 0.9999962 -0.002271291 -0.001672396
vn 0.9999955 0.0008619939 -0.002870632
vn 0.9999892 0.003313279 -0.003311724
vn 1 1.192093E-06 -1.000001E-06
vn 1 1.192093E-06 -1.000001E-06
vn 1 1.192093E-06 -1.000001E-06
vn 1 1.192093E-06 -1.000001E-06
vn 1 1.192093E-06 -1.000001E-06
vn 1 1.192093E-06 -1.000001E-06
vn 1 1.192093E-06 -1.000001E-06
vn 1 1.192093E-06 -1.000001E-06
vn 1 1.192093E-06 -1.000001E-06
vn 7.344057E-07 0.2589217 0.9658986
vn 9.763577E-07 0.02606484 0.9996606
vn 9.221891E-07 0.08315748 0.9965367
vn 7.344057E-07 0.2589217 0.9658986
vn 1.00169E-06 -0.001890568 0.9999985
vn 1.00169E-06 -0.001890568 0.9999985
vn 1.25626E-06 -0.8855773 0.4644925
vn 1.25626E-06 -0.8855773 0.4644925
vn 1.25626E-06 -0.8855773 0.4644925
vn 1.25626E-06 -0.8855773 0.4644925
vn 2.15966E-07 -0.8430734 -0.5377989
vn 2.15966E-07 -0.8430734 -0.5377989
vn 2.15966E-07 -0.8430734 -0.5377989
vn 2.15966E-07 -0.8430734 -0.5377989
vn 8.940697E-07 -1 9.125764E-07
vn 8.048712E-07 -0.9963045 -0.08589329
vn 8.616917E-07 -0.9994904 -0.03192139
vn 8.940697E-07 -1 9.125764E-07
vn 4.477832E-07 -0.9252214 -0.3794279
vn 5.287266E-07 -0.9478503 -0.3187164
vn 3.983776E-07 -0.9098005 -0.4150461
vn 3.983776E-07 -0.9098005 -0.4150461
vn -1.339165E-06 0.7084452 -0.7057661
vn -1.339165E-06 0.7084452 -0.7057661
vn -1.339165E-06 0.7084452 -0.7057661
vn -1.339165E-06 0.7084452 -0.7057661
vn -1.001608E-06 0.001799482 -0.9999986
vn -8.933004E-07 -0.1122714 -0.9936779
vn -9.630766E-07 -0.04038706 -0.9991844
vn -1.001608E-06 0.001799482 -0.9999986
vn -7.355498E-07 -0.2579368 -0.9661621
vn -7.355498E-07 -0.2579368 -0.9661621
vn -7.745531E-08 -0.7057593 -0.7084519
vn -7.745531E-08 -0.7057593 -0.7084519
vn -7.745531E-08 -0.7057593 -0.7084519
vn -7.745531E-08 -0.7057593 -0.7084519
vn -1.339166E-06 0.7084419 -0.7057694
vn -1.339166E-06 0.7084419 -0.7057694
vn -1.339166E-06 0.7084419 -0.7057694
vn -1.339166E-06 0.7084419 -0.7057694
vn -1.824948E-07 0.8292361 0.5588987
vn -1.824948E-07 0.8292361 0.5588987
vn -1.824948E-07 0.8292361 0.5588987
vn -1.824948E-07 0.8292361 0.5588987
vn 1.001687E-06 -0.001887137 0.9999985
vn 1.001687E-06 -0.001887137 0.9999985
vn 1.001687E-06 -0.001887137 0.9999985
vn 1.001687E-06 -0.001887137 0.9999985
vn -8.921696E-07 0.9999984 0.001897601
vn -8.921696E-07 0.9999984 0.001897601
vn -8.921696E-07 0.9999984 0.001897601
vn -8.921696E-07 0.9999984 0.001897601
vn -1.001712E-06 0.001916101 -0.9999984
vn -1.001712E-06 0.001916101 -0.9999984
vn -1.001712E-06 0.001916101 -0.9999984
vn -1.001712E-06 0.001916101 -0.9999984
vn -6.708322E-07 0.9788945 0.2043666
vn -6.708322E-07 0.9788945 0.2043666
vn -6.708322E-07 0.9788945 0.2043666
vn -6.708322E-07 0.9788945 0.2043666
vn 1.001558E-06 -0.001743394 0.9999987
vn 1.001558E-06 -0.001743394 0.9999987
vn 1.001558E-06 -0.001743394 0.9999987
vn 1.001558E-06 -0.001743394 0.9999987
vn 0.9999972 0.002164763 0.001110586
vn 1 1.192093E-06 -1.000001E-06
vn 1 1.192093E-06 -1.000001E-06
vn 0.9999881 0.004877018 -0.0004495794
vn 0.9999985 0.0001334235 0.001856805
vn 0.9999944 0.0003294885 0.003370151
vn 1 1.192093E-06 -1.000001E-06
vn 1 1.192093E-06 -1.000001E-06
vn 1 1.192093E-06 -1.000001E-06
vn 1 1.192093E-06 -1.000001E-06
vn 1 1.192093E-06 -1.000001E-06
vn 0.9999998 -0.0004608788 0.0007770319
vn 0.9999962 -0.002271329 -0.001672176
vn 1 1.192093E-06 -1.000001E-06
vn 1 1.192093E-06 -1.000001E-06
vn 1 1.192093E-06 -1.000001E-06
vn 1 1.192093E-06 -1.000001E-06
vn 1 1.192093E-06 -1.000001E-06
vn 1 1.192093E-06 -1.000001E-06
vn -1.33931E-06 0.7071061 -0.7071077
vn -1.378437E-06 0.7071061 -0.7071077
vn -1.365261E-06 0.7071061 -0.7071077
vn -1.33931E-06 0.7071061 -0.7071078
vn -1.386334E-06 0.7071061 -0.7071077
vn -1.33931E-06 0.7071062 -0.7071076
vn 1 1.192093E-06 -1.000001E-06
vn 1 1.192093E-06 -1.000001E-06
vn 1 1.192093E-06 -1.000001E-06
vn 1 1.192093E-06 -1.000001E-06
vn 0.9999796 -0.006271291 -0.001275102
vn 1 1.192093E-06 -1.000001E-06
vn 0.9999643 -0.008444888 -0.0006021446
vn 0.9999962 -0.001670208 -0.00227348
vn 0.9998881 -0.01495274 -0.0007305478
vn 0.9999965 -0.002555441 0.0007659168
vn 0.9999892 -0.003309526 0.003311092
vn 1 1.192093E-06 -1.000001E-06
vn 1 1.192093E-06 -1.000001E-06
vn 1 1.192093E-06 -1.000001E-06
vn 1 1.192093E-06 -1.000001E-06
vn 1 1.192093E-06 -1.000001E-06
vn 1 1.192093E-06 -1.000001E-06
vn 1 1.192093E-06 -1.000001E-06
vn 1 1.192093E-06 -1.000001E-06
vn 1 1.192093E-06 -1.000001E-06
vn 1 1.192093E-06 -1.000001E-06
vn -6.046598E-07 0.9658989 0.2589199
vn -6.046598E-07 0.9658989 0.2589199
vn -8.078165E-07 0.9965367 0.08315568
vn -8.677021E-07 0.9996604 0.02606302
vn -8.959595E-07 0.9999983 -0.001892393
vn -8.959595E-07 0.9999983 -0.001892393
vn -1.300866E-06 0.4644909 -0.8855782
vn -1.300866E-06 0.4644909 -0.8855782
vn -1.300866E-06 0.4644909 -0.8855782
vn -1.300866E-06 0.4644909 -0.8855782
vn -3.622428E-07 -0.5378004 -0.8430725
vn -3.622428E-07 -0.5378004 -0.8430725
vn -3.622428E-07 -0.5378004 -0.8430725
vn -3.622428E-07 -0.5378004 -0.8430725
vn -1E-06 -9.125774E-07 -1
vn -1E-06 -9.125774E-07 -1
vn -9.709499E-07 -0.03192321 -0.9994906
vn -9.195093E-07 -0.08589509 -0.9963045
vn -6.628948E-07 -0.3187181 -0.9478498
vn -5.859856E-07 -0.3794295 -0.9252208
vn -5.387195E-07 -0.4150477 -0.9097998
vn -5.387195E-07 -0.4150477 -0.9097998
vn 1.339449E-06 -0.7057647 0.7084466
vn 1.339449E-06 -0.7057647 0.7084466
vn 1.339449E-06 -0.7057647 0.7084466
vn 1.339449E-06 -0.7057647 0.7084466
vn 8.958686E-07 -0.9999985 0.001801307
vn 8.958686E-07 -0.9999985 0.001801307
vn 8.529541E-07 -0.9991844 -0.04038524
vn 7.761466E-07 -0.993678 -0.1122696
vn 6.058803E-07 -0.9661624 -0.257935
vn 6.058803E-07 -0.9661624 -0.257935
vn -7.2353E-08 -0.7084531 -0.7057581
vn -7.2353E-08 -0.7084531 -0.7057581
vn -7.2353E-08 -0.7084531 -0.7057581
vn -7.2353E-08 -0.7084531 -0.7057581
vn 1.339449E-06 -0.705768 0.7084433
vn 1.339449E-06 -0.705768 0.7084433
vn 1.339449E-06 -0.705768 0.7084433
vn 1.339449E-06 -0.705768 0.7084433
vn 3.295408E-07 0.5589002 0.8292352
vn 3.295408E-07 0.5589002 0.8292352
vn 3.295408E-07 0.5589002 0.8292352
vn 3.295408E-07 0.5589002 0.8292352
vn -8.959561E-07 0.9999983 -0.001888962
vn -8.959561E-07 0.9999983 -0.001888962
vn -8.959561E-07 0.9999983 -0.001888962
vn -8.959561E-07 0.9999983 -0.001888962
vn 9.983012E-07 0.001899426 0.9999985
vn 9.983012E-07 0.001899426 0.9999985
vn 9.983012E-07 0.001899426 0.9999985
vn 9.983012E-07 0.001899426 0.9999985
vn 8.95985E-07 -0.9999983 0.001917926
vn 8.95985E-07 -0.9999983 0.001917926
vn 8.95985E-07 -0.9999983 0.001917926
vn 8.95985E-07 -0.9999983 0.001917926
vn 7.961987E-07 0.2043477 0.9788986
vn 7.961987E-07 0.2043477 0.9788986
vn 7.961987E-07 0.2043477 0.9788986
vn 7.961987E-07 0.2043477 0.9788986
vn -9.398129E-07 0.9999985 -0.001745205
vn -9.395216E-07 0.9999986 -0.001745205
vn -9.398129E-07 0.9999985 -0.001745205
vn -9.401043E-07 0.9999985 -0.001745205
vn 0.9999972 0.001112782 0.002162569
vn 0.9999881 -0.0004473784 0.004874828
vn 1 1.192093E-06 -1.000001E-06
vn 1 1.192093E-06 -1.000001E-06
vn 0.9999985 0.001858997 0.0001312281
vn 0.9999944 0.003372343 0.0003272904
vn 1 1.192093E-06 -1.000001E-06
vn 1 1.192093E-06 -1.000001E-06
vn 1 1.192093E-06 -1.000001E-06
vn 1 1.192093E-06 -1.000001E-06
vn 1 1.192093E-06 -1.000001E-06
vn 1 1.192093E-06 -1.000001E-06
vn 0.9999998 0.0007792229 -0.0004630723
vn 1 1.192093E-06 -1.000001E-06
vn 1 1.192093E-06 -1.000001E-06
vn 0.9999962 -0.001669988 -0.002273519
vn 1 1.192093E-06 -1.000001E-06
vn 1 1.192093E-06 -1.000001E-06
vn 1 1.192093E-06 -1.000001E-06
vn 1 1.192093E-06 -1.000001E-06
vn 7.49043E-08 0.7071075 0.7071064
vn 7.49043E-08 0.7071075 0.7071064
vn 7.49043E-08 0.7071075 0.7071064
vn 7.49043E-08 0.7071075 0.7071064
vn 1 1.192093E-06 -1.000001E-06
vn 1 1.192093E-06 -1.000001E-06
vn 1 1.192093E-06 -1.000001E-06
vn 1 1.192093E-06 -1.000001E-06
vn 9.341542E-07 0.07083865 0.997488
vn 8.401718E-07 0.1636815 0.9865134
vn 8.881396E-07 0.1173828 0.993087
vn 9.341542E-07 0.07083865 0.997488
vn 6.864922E-07 0.2993606 0.9541402
vn 7.392974E-07 0.254704 0.9670193
vn 5.203389E-07 0.4285698 0.9035089
vn 5.769718E-07 0.386318 0.9223658
vn 3.812968E-07 0.5252782 0.8509308
vn 4.275138E-07 0.494191 0.8693537
vn 1 1.192093E-06 -1.000001E-06
vn 1 1.192093E-06 -1.000001E-06
vn 1 1.192093E-06 -1.000001E-06
vn 1 1.192093E-06 -1.000001E-06
vn 1 1.192093E-06 -1.000001E-06
vn 1 1.192093E-06 -1.000001E-06
vn 1 1.192093E-06 -1.000001E-06
vn 1 1.192093E-06 -1.000001E-06
vn 1 1.192093E-06 -1.000001E-06
vn 1 1.192093E-06 -1.000001E-06
vn 1 1.192093E-06 -1.000001E-06
vn 1 1.192093E-06 -1.000001E-06
vn 1 1.192093E-06 -1.000001E-06
vn 1 1.192093E-06 -1.000001E-06
vn 1 1.192093E-06 -1.000001E-06
vn 1 1.192093E-06 -1.000001E-06
vn 1 1.192093E-06 -1.000001E-06
vn 8.9531E-07 -0.9999993 0.001241978
vn 8.9531E-07 -0.9999993 0.001241978
vn 8.9531E-07 -0.9999993 0.001241978
vn 8.9531E-07 -0.9999993 0.001241978
vn 3.189174E-07 0.5656494 0.8246461
vn 3.189174E-07 0.5656494 0.8246461
vt 16.828 2.437999
vt 17 0
vt 10 0
vt 9.827999 2.437999
vt 16.318 4.494001
vt 9.318001 4.494001
vt 15.478 6.132
vt 8.478001 6.132
vt 14.32 7.32
vt 7.32 7.32
vt 12.868 8.044
vt 5.868 8.044
vt 11.142 8.283998
vt 4.141999 8.283998
vt 12.868 8.044
vt 5.868 8.044
vt 14.32 7.32
vt 7.32 7.32
vt 15.478 6.132
vt 8.478001 6.132
vt 16.318 4.494001
vt 9.318001 4.494001
vt 16.828 2.437999
vt 9.827999 2.437999
vt 17 0
vt 10 0
vt 18.51542 4.043145
vt 18.7098 1.68712
vt 17.7098 1.68712
vt 17.51542 4.043145
vt 17.99142 6.030014
vt 16.99142 6.030014
vt 17.14608 7.612938
vt 16.14608 7.612938
vt 15.99154 8.760994
vt 14.99154 8.760994
vt 14.55163 9.460649
vt 13.55163 9.460649
vt 12.84629 9.692579
vt 11.84629 9.692579
vt 14.55163 9.460649
vt 13.55163 9.460649
vt 15.99154 8.760994
vt 14.99154 8.760994
vt 17.14608 7.612938
vt 16.14608 7.612938
vt 17.99142 6.030014
vt 16.99142 6.030014
vt 18.51542 4.043145
vt 17.51542 4.043145
vt 18.7098 1.68712
vt 17.7098 1.68712
vt 1.527726 18.51542
vt 2.861837 18.66953
vt -1.02268 18.7098
vt 4.038589 17.99142
vt 6.46686 17.14608
vt 8.769453 15.99154
vt 10.07188 15.62263
vt 10.90902 14.55163
vt 12.84629 12.84629
vt 14.55163 10.90902
vt 15.62263 10.07188
vt 15.99154 8.769453
vt 17.14608 6.46686
vt 17.99142 4.038589
vt 18.66953 2.861837
vt 18.51542 1.527726
vt 18.7098 -1.02268
vt -3 17
vt -0.3900003 16.828
vt -0.2595 17.8194
vt -3 18
vt 2.176 16.318
vt 2.4348 17.2839
vt 4.654 15.478
vt 5.0367 16.4019
vt 7 14.32
vt 7.5 15.186
vt 9.176 12.868
vt 9.7848 13.6614
vt 11.142 11.142
vt 11.8491 11.8491
vt 12.868 9.176
vt 13.6614 9.7848
vt 14.32 7
vt 15.186 7.5
vt 15.478 4.654
vt 16.4019 5.0367
vt 16.318 2.176
vt 17.2839 2.4348
vt 16.828 -0.3900003
vt 17.8194 -0.2595
vt 17 -3
vt 18 -3
vt 30 20
vt 29.656 24.876
vt 36.656 24.876
vt 37 20
vt 28.636 28.988
vt 35.636 28.988
vt 26.956 32.264
vt 33.956 32.264
vt 24.64 34.64
vt 31.64 34.64
vt 36 20
vt 35.64783 24.60683
vt 36.64783 24.60683
vt 37 20
vt 34.6036 28.438
vt 35.6036 28.438
vt 32.88371 31.4263
vt 33.88371 31.4263
vt 30.5127 33.5127
vt 31.5127 33.5127
vt 8.8344 35.6036
vt 3.959 36.64783
vt -1 37
vt 18 31.5127
vt 13.5426 33.8837
vt -3 36
vt 2.0895 35.6646
vt 2.22 36.656
vt -3 37
vt 7.0932 34.6701
vt 7.352 35.636
vt 11.9253 33.0321
vt 12.308 33.956
vt 16.5 30.774
vt 17 31.64
vt 29.3182 35.7976
vt 26.3182 35.7976
vt 22.3182 35.7976
vt 25.7339 36.0847
vt 21.7345 36.0856
vt 21.73413 36.08459
vt 18.28235 36.56583
vt 22.28348 36.56583
vt 25.73413 36.08459
vt 21.7329 36.083
vt 25.7329 36.083
vt 18.3501 25.7329
vt 22.28348 22.28235
vt 25.73413 18.35046
vt 26.3182 35.7976
vt 22.3182 35.7976
vt 21.7351 36.0863
vt 25.7348 36.0858
vt 31.64 34.64
vt 24.64 34.64
vt 29.3182 35.7976
vt 30 20
vt 29.656 24.876
vt 36.656 24.876
vt 37 20
vt 28.636 28.988
vt 35.636 28.988
vt 26.956 32.264
vt 33.956 32.264
vt -10 20
vt -10 0
vt -3 0
vt -3 20
vt -10 20
vt -3 20
vt -3 0
vt -10 0
vt 9.827999 -7.39
vt 29.656 -4.78
vt 30 -10
vt 10 -10
vt 9.318001 -4.824
vt 28.636 0.3520002
vt 8.478001 -2.346
vt 26.956 5.308
vt 7.32 0
vt 24.64 10
vt 5.868 2.176
vt 21.736 14.352
vt 4.141999 4.141999
vt 18.284 18.284
vt 2.176 5.868
vt 14.352 21.736
vt 0 7.32
vt 10 24.64
vt -2.346 8.478001
vt 5.308 26.956
vt -4.824 9.318001
vt 0.3520002 28.636
vt -7.39 9.827999
vt -4.78 29.656
vt -10 10
vt -10 30
vt 36 20
vt 17.7098 1.687101
vt 18.7098 1.687101
vt 37 20
vt -2.0226 17.8057
vt -2.0001 35.9341
vt 28.6111 34.3834
vt 29.6111 34.3834
vt 20.4794 29.3182
vt 19.7723 28.6111
vt 20.7723 34.3834
vt 18.6014 30.0416
vt 14.6014 30.0416
vt 19.7723 34.3834
vt 17.4794 35.7976
vt 20.4794 35.7976
vt 20.7723 29.6111
vt 16.36 28.87
vt 18.6014 27.4402
vt 15.5571 31.1434
vt 15.552 27.9982
vt 13.9607 20.0753
vt 15.5398 21.5361
vt 29.5896 27.587
vt 15.9394 20.445
vt 14.73 18.0267
vt 10.2962 33.5434
vt 8 34
vt 2 34
vt 1.9777 21.2156
vt 6.4797 20.2758
vt 14.3923 15.502
vt 9.4789 18.8136
vt 9.4849 21.9915
vt 6.483 21.9972
vt 11.9394 20.445
vt 11.5398 21.5361
vt 15.5398 21.5361
vt 15.9394 20.445
vt 11.552 27.9982
vt 15.552 27.9982
vt 12.36 29.23
vt 16.36 29.23
vt 15.552 27.9982
vt 11.552 27.9982
vt 27.4402 30.0416
vt 28.87 29.23
vt 24.87 29.23
vt 23.4402 30.0416
vt 30 20
vt 30 26
vt 34 26
vt 34 20
vt 29.5434 27.8396
vt 33.5434 27.8396
vt 27.1434 30.7005
vt 31.1434 30.7005
vt 25.5896 27.587
vt 29.5896 27.587
vt 31.1434 30.7005
vt 27.1434 30.7005
vt 25.5896 27.587
vt 9.9607 20.0753
vt 13.9607 20.0753
vt 29.5896 27.587
vt 10.73 18.0267
vt 14.73 18.0267
vt 10.73 18.0267
vt 12.4591 18.0201
vt 16.4591 18.0201
vt 14.73 18.0267
vt 11.502 13.8943
vt 15.502 13.8943
vt 17.561 18.0201
vt 13.561 18.0201
vt 18.8136 12.2925
vt 15.502 13.8943
vt 11.502 13.8943
vt 14.8136 12.2925
vt 9.4849 15.4764
vt 9.4789 12.2925
vt 5.4789 12.2925
vt 5.4849 15.4764
vt 21.9972 12.4802
vt 21.9915 15.4764
vt 17.9915 15.4764
vt 17.9972 12.4802
vt 20.2758 10.7555
vt 21.9972 12.4802
vt 17.9972 12.4802
vt 16.2758 10.7555
vt 21.2157 7.1934
vt 20.2758 10.7555
vt 16.2758 10.7555
vt 17.2157 7.1934
vt 2 20
vt 1.9777 7.193399
vt -2.0223 7.193399
vt -2 20
vt 5.4789 12.2925
vt 10.3923 11.502
vt 12.4591 13.561
vt 10.73 18.0267
vt 18.0682 20.0753
vt 17.9915 15.4764
vt 11.5398 17.9963
vt 14.6014 23.4402
vt 12.36 24.87
vt 11.552 24.4462
vt 17.4794 26.3182
vt 30 26
vt 25.5896 27.587
vt 11.5571 27.1434
vt 6.2962 29.5434
vt 2.483 17.9972
vt -2 30
vt -2.0223 17.2156
vt 2.4797 16.2758
vt 20.7723 34.3834
vt 19.7723 34.3834
vt 14.6014 30.0416
vt 18.6014 30.0416
vt 17.4794 35.7976
vt 20.4794 35.7976
vt 29.6111 20.7723
vt 27.4402 18.6014
vt 28.87 16.36
vt 31.5127 18
vt 15.552 27.9982
vt 31.1434 15.5571
vt 13.9607 20.0753
vt 29.5896 27.587
vt 15.5398 21.5361
vt 15.9394 20.445
vt 14.73 18.0267
vt 33.5434 10.2962
vt 34 8
vt 34 2
vt 37 -1
vt 21.2156 1.9777
vt 15.502 14.3923
vt 18.8136 9.4789
vt 20.2758 6.4797
vt 21.9972 6.483
vt 21.9915 9.4849
vt 11.9394 20.445
vt 15.9394 20.445
vt 15.5398 21.5361
vt 11.5398 21.5361
vt 15.552 27.9982
vt 11.552 27.9982
vt 15.552 27.9982
vt 16.36 29.23
vt 12.36 29.23
vt 11.552 27.9982
vt 23.4402 30.0416
vt 24.87 29.23
vt 28.87 29.23
vt 27.4402 30.0416
vt 30 20
vt 34 20
vt 34 26
vt 30 26
vt 33.5434 27.8396
vt 29.5434 27.8396
vt 31.1434 30.7005
vt 27.1434 30.7005
vt 31.1434 30.7005
vt 29.5896 27.587
vt 25.5896 27.587
vt 27.1434 30.7005
vt 25.5896 27.587
vt 29.5896 27.587
vt 13.9607 20.0753
vt 9.9607 20.0753
vt 14.73 18.0267
vt 10.73 18.0267
vt 10.73 18.0267
vt 14.73 18.0267
vt 16.4591 18.0201
vt 12.4591 18.0201
vt 17.561 18.0201
vt 15.502 13.8943
vt 11.502 13.8943
vt 13.561 18.0201
vt 14.8136 12.2925
vt 11.502 13.8943
vt 15.502 13.8943
vt 18.8136 12.2925
vt 5.4849 15.4764
vt 5.4789 12.2925
vt 9.4789 12.2925
vt 9.4849 15.4764
vt 17.9972 12.4802
vt 17.9915 15.4764
vt 21.9915 15.4764
vt 21.9972 12.4802
vt 16.2758 10.7555
vt 17.9972 12.4802
vt 21.9972 12.4802
vt 20.2758 10.7555
vt 17.21563 7.193331
vt 16.27583 10.75553
vt 20.27583 10.75553
vt 21.21563 7.193331
vt -2 20.00007
vt -2.0223 7.193371
vt 1.9777 7.193271
vt 2 19.99997
vt 5.4789 12.2925
vt 10.73 18.0267
vt 13.561 12.4591
vt 11.502 10.3923
vt 18.0682 20.0753
vt 17.9915 15.4764
vt 17.9963 11.5398
vt 24.4462 11.552
vt 24.87 12.36
vt 23.4402 14.6014
vt 26.3182 17.4794
vt 25.7329 18.3501
vt 30 26
vt 29.5434 6.2962
vt 27.1434 11.5571
vt 25.5896 27.587
vt 17.9972 2.483
vt 30 -2
vt 17.2157 -2.0223
vt 16.2758 2.4797
vt 15.9394 20.5056
vt 20.5056 15.9394
vt 16.5056 11.9394
vt 11.9394 16.5056
vt 11.9394 16.5056
vt 16.5056 11.9394
vt 16.4591 17.561
vt 17.561 16.4591
vt 36 20
vt 35.64783 24.60683
vt 36.64783 24.60683
vt 37 20
vt 34.6036 28.438
vt 35.6036 28.438
vt 32.88371 31.4263
vt 33.88371 31.4263
vt 30.5127 33.5127
vt 31.5127 33.5127
vt 35.6036 8.8344
vt 36.64783 3.959
vt 33.8837 13.5426
vt 36 -3
vt 35.6646 2.0895
vt 36.656 2.22
vt 37 -3
vt 34.6701 7.0932
vt 35.636 7.352
vt 33.0321 11.9253
vt 33.956 12.308
vt 30.774 16.5
vt 31.64 17
vt 35.9341 -2.0001
vt 17.8057 -2.0226
vt 29.3182 20.4794
vt 28.6111 19.7723
vt 17.7098 1.687101
vt 36 20
vt 37 20
vt 18.7098 1.687101
vt 29.6111 34.3834
vt 28.6111 34.3834
usemtl 322
f 3/3/3 2/2/2 1/1/1
f 1/1/1 4/4/4 3/3/3
f 4/4/4 1/1/1 5/5/5
f 5/5/5 6/6/6 4/4/4
f 6/6/6 5/5/5 7/7/7
f 7/7/7 8/8/8 6/6/6
f 8/8/8 7/7/7 9/9/9
f 9/9/9 10/10/10 8/8/8
f 10/10/10 9/9/9 11/11/11
f 11/11/11 12/12/12 10/10/10
f 12/12/12 11/11/11 13/13/13
f 13/13/13 14/14/14 12/12/12
f 14/14/14 13/13/13 15/15/15
f 15/15/15 16/16/16 14/14/14
f 16/16/16 15/15/15 17/17/17
f 17/17/17 18/18/18 16/16/16
f 18/18/18 17/17/17 19/19/19
f 19/19/19 20/20/20 18/18/18
f 20/20/20 19/19/19 21/21/21
f 21/21/21 22/22/22 20/20/20
f 22/22/22 21/21/21 23/23/23
f 23/23/23 24/24/24 22/22/22
f 24/24/24 23/23/23 25/25/25
f 25/25/25 26/26/26 24/24/24
f 29/29/29 28/28/28 27/27/27
f 27/27/27 30/30/30 29/29/29
f 30/30/30 27/27/27 31/31/31
f 31/31/31 32/32/32 30/30/30
f 32/32/32 31/31/31 33/33/33
f 33/33/33 34/34/34 32/32/32
f 34/34/34 33/33/33 35/35/35
f 35/35/35 36/36/36 34/34/34
f 36/36/36 35/35/35 37/37/37
f 37/37/37 38/38/38 36/36/36
f 38/38/38 37/37/37 39/39/39
f 39/39/39 40/40/40 38/38/38
f 40/40/40 39/39/39 41/41/41
f 41/41/41 42/42/42 40/40/40
f 42/42/42 41/41/41 43/43/43
f 43/43/43 44/44/44 42/42/42
f 44/44/44 43/43/43 45/45/45
f 45/45/45 46/46/46 44/44/44
f 46/46/46 45/45/45 47/47/47
f 47/47/47 48/48/48 46/46/46
f 48/48/48 47/47/47 49/49/49
f 49/49/49 50/50/50 48/48/48
f 50/50/50 49/49/49 51/51/51
f 51/51/51 52/52/52 50/50/50
f 55/55/55 54/54/54 53/53/53
f 53/53/53 54/54/54 56/56/56
f 57/57/57 56/56/56 54/54/54
f 57/57/57 59/59/59 58/58/58
f 58/58/58 59/59/59 60/60/60
f 61/61/61 60/60/60 59/59/59
f 61/61/61 63/63/63 62/62/62
f 62/62/62 63/63/63 64/64/64
f 65/65/65 64/64/64 63/63/63
f 65/65/65 67/67/67 66/66/66
f 66/66/66 67/67/67 68/68/68
f 69/69/69 68/68/68 67/67/67
f 72/72/72 71/71/71 70/70/70
f 70/70/70 73/73/73 72/72/72
f 75/75/75 74/74/74 71/71/71
f 71/71/71 72/72/72 75/75/75
f 77/77/77 76/76/76 74/74/74
f 74/74/74 75/75/75 77/77/77
f 79/79/79 78/78/78 76/76/76
f 76/76/76 77/77/77 79/79/79
f 81/81/81 80/80/80 78/78/78
f 78/78/78 79/79/79 81/81/81
f 83/83/83 82/82/82 80/80/80
f 80/80/80 81/81/81 83/83/83
f 85/85/85 84/84/84 82/82/82
f 82/82/82 83/83/83 85/85/85
f 87/87/87 86/86/86 84/84/84
f 84/84/84 85/85/85 87/87/87
f 89/89/89 88/88/88 86/86/86
f 86/86/86 87/87/87 89/89/89
f 91/91/91 90/90/90 88/88/88
f 88/88/88 89/89/89 91/91/91
f 93/93/93 92/92/92 90/90/90
f 90/90/90 91/91/91 93/93/93
f 95/95/95 94/94/94 92/92/92
f 92/92/92 93/93/93 95/95/95
f 96/96/96 97/97/97 98/98/98
f 98/98/98 99/99/99 96/96/96
f 97/97/97 100/100/100 101/101/101
f 101/101/101 98/98/98 97/97/97
f 100/100/100 102/102/102 103/103/103
f 103/103/103 101/101/101 100/100/100
f 102/102/102 104/104/104 105/105/105
f 105/105/105 103/103/103 102/102/102
f 106/106/106 107/107/107 108/108/108
f 108/108/108 109/109/109 106/106/106
f 107/107/107 110/110/110 111/111/111
f 111/111/111 108/108/108 107/107/107
f 110/110/110 112/112/112 113/113/113
f 113/113/113 111/111/111 110/110/110
f 112/112/112 114/114/114 115/115/115
f 115/115/115 113/113/113 112/112/112
f 118/118/118 117/117/117 116/116/116
f 116/116/116 119/119/119 118/118/118
f 116/116/116 120/120/120 119/119/119
f 123/123/123 122/122/122 121/121/121
f 121/121/121 124/124/124 123/123/123
f 126/126/126 125/125/125 122/122/122
f 122/122/122 123/123/123 126/126/126
f 128/128/128 127/127/127 125/125/125
f 125/125/125 126/126/126 128/128/128
f 130/130/130 129/129/129 127/127/127
f 127/127/127 128/128/128 130/130/130
f 105/105/105 132/132/132 131/131/131
f 104/104/104 133/133/133 132/132/132
f 132/132/132 105/105/105 104/104/104
f 133/133/133 135/135/135 134/134/134
f 134/134/134 132/132/132 133/133/133
f 138/138/138 137/137/137 136/136/136
f 136/136/136 139/139/139 138/138/138
f 141/141/141 140/140/140 137/137/137
f 137/137/137 138/138/138 141/141/141
f 142/142/142 143/143/143 144/144/144
f 147/147/147 146/146/146 145/145/145
f 145/145/145 148/148/148 147/147/147
f 149/149/149 145/145/145 146/146/146
f 146/146/146 150/150/150 149/149/149
f 149/149/149 151/151/151 145/145/145
f 154/154/154 153/153/153 152/152/152
f 152/152/152 155/155/155 154/154/154
f 157/157/157 156/156/156 153/153/153
f 153/153/153 154/154/154 157/157/157
f 159/159/159 158/158/158 156/156/156
f 156/156/156 157/157/157 159/159/159
f 149/149/149 150/150/150 158/158/158
f 158/158/158 159/159/159 149/149/149
f 162/162/162 161/161/161 160/160/160
f 160/160/160 163/163/163 162/162/162
f 166/166/166 165/165/165 164/164/164
f 164/164/164 167/167/167 166/166/166
f 170/170/170 169/169/169 168/168/168
f 168/168/168 171/171/171 170/170/170
f 169/169/169 173/173/173 172/172/172
f 172/172/172 168/168/168 169/169/169
f 173/173/173 175/175/175 174/174/174
f 174/174/174 172/172/172 173/173/173
f 175/175/175 177/177/177 176/176/176
f 176/176/176 174/174/174 175/175/175
f 177/177/177 179/179/179 178/178/178
f 178/178/178 176/176/176 177/177/177
f 179/179/179 181/181/181 180/180/180
f 180/180/180 178/178/178 179/179/179
f 181/181/181 183/183/183 182/182/182
f 182/182/182 180/180/180 181/181/181
f 183/183/183 185/185/185 184/184/184
f 184/184/184 182/182/182 183/183/183
f 185/185/185 187/187/187 186/186/186
f 186/186/186 184/184/184 185/185/185
f 187/187/187 189/189/189 188/188/188
f 188/188/188 186/186/186 187/187/187
f 189/189/189 191/191/191 190/190/190
f 190/190/190 188/188/188 189/189/189
f 191/191/191 193/193/193 192/192/192
f 192/192/192 190/190/190 191/191/191
f 170/170/170 169/169/169 173/173/173
f 173/173/173 175/175/175 170/170/170
f 175/175/175 177/177/177 179/179/179
f 179/179/179 181/181/181 175/175/175
f 181/181/181 183/183/183 185/185/185
f 185/185/185 187/187/187 181/181/181
f 187/187/187 189/189/189 191/191/191
f 191/191/191 193/193/193 187/187/187
f 196/196/196 195/195/195 194/194/194
f 194/194/194 197/197/197 196/196/196
f 199/199/199 198/198/198 73/73/73
f 73/73/73 121/121/121 199/199/199
f 115/115/115 114/114/114 200/200/200
f 200/200/200 201/201/201 115/115/115
f 129/129/129 130/130/130 202/202/202
f 202/202/202 203/203/203 129/129/129
f 206/206/206 205/205/205 204/204/204
f 204/204/204 207/207/207 206/206/206
f 207/207/207 209/209/209 208/208/208
f 208/208/208 206/206/206 207/207/207
f 211/211/211 119/119/119 210/210/210
f 210/210/210 212/212/212 211/211/211
f 213/213/213 119/119/119 211/211/211
f 211/211/211 214/214/214 213/213/213
f 214/214/214 216/216/216 215/215/215
f 215/215/215 217/217/217 214/214/214
f 215/215/215 216/216/216 218/218/218
f 218/218/218 219/219/219 215/215/215
f 214/214/214 217/217/217 213/213/213
f 119/119/119 213/213/213 220/220/220
f 222/222/222 118/118/118 221/221/221
f 119/119/119 220/220/220 118/118/118
f 118/118/118 220/220/220 221/221/221
f 222/222/222 223/223/223 55/55/55
f 55/55/55 118/118/118 222/222/222
f 223/223/223 224/224/224 54/54/54
f 54/54/54 55/55/55 223/223/223
f 57/57/57 226/226/226 225/225/225
f 225/225/225 59/59/59 57/57/57
f 228/228/228 227/227/227 226/226/226
f 226/226/226 224/224/224 228/228/228
f 231/231/231 230/230/230 229/229/229
f 229/229/229 232/232/232 231/231/231
f 234/234/234 233/233/233 230/230/230
f 230/230/230 231/231/231 234/234/234
f 237/237/237 236/236/236 235/235/235
f 235/235/235 238/238/238 237/237/237
f 241/241/241 240/240/240 239/239/239
f 239/239/239 242/242/242 241/241/241
f 245/245/245 244/244/244 243/243/243
f 243/243/243 246/246/246 245/245/245
f 248/248/248 247/247/247 244/244/244
f 244/244/244 245/245/245 248/248/248
f 250/250/250 249/249/249 247/247/247
f 247/247/247 248/248/248 250/250/250
f 253/253/253 252/252/252 251/251/251
f 251/251/251 254/254/254 253/253/253
f 257/257/257 256/256/256 255/255/255
f 255/255/255 258/258/258 257/257/257
f 260/260/260 259/259/259 256/256/256
f 256/256/256 257/257/257 260/260/260
f 263/263/263 262/262/262 261/261/261
f 261/261/261 264/264/264 263/263/263
f 267/267/267 266/266/266 265/265/265
f 265/265/265 268/268/268 267/267/267
f 271/271/271 270/270/270 269/269/269
f 269/269/269 272/272/272 271/271/271
f 275/275/275 274/274/274 273/273/273
f 273/273/273 276/276/276 275/275/275
f 279/279/279 278/278/278 277/277/277
f 277/277/277 280/280/280 279/279/279
f 283/283/283 282/282/282 281/281/281
f 281/281/281 284/284/284 283/283/283
f 287/287/287 286/286/286 285/285/285
f 285/285/285 288/288/288 287/287/287
f 291/291/291 290/290/290 289/289/289
f 289/289/289 292/292/292 291/291/291
f 295/295/295 294/294/294 293/293/293
f 293/293/293 296/296/296 295/295/295
f 293/293/293 298/298/298 297/297/297
f 297/297/297 296/296/296 293/293/293
f 301/301/301 300/300/300 299/299/299
f 299/299/299 302/302/302 301/301/301
f 303/303/303 142/142/142 299/299/299
f 299/299/299 300/300/300 303/303/303
f 306/306/306 305/305/305 304/304/304
f 304/304/304 307/307/307 306/306/306
f 304/304/304 305/305/305 297/297/297
f 297/297/297 298/298/298 304/304/304
f 304/304/304 298/298/298 308/308/308
f 308/308/308 309/309/309 304/304/304
f 308/308/308 311/311/311 310/310/310
f 310/310/310 309/309/309 308/308/308
f 314/314/314 313/313/313 312/312/312
f 312/312/312 315/315/315 314/314/314
f 313/313/313 314/314/314 316/316/316
f 316/316/316 317/317/317 313/313/313
f 320/320/320 319/319/319 318/318/318
f 318/318/318 321/321/321 320/320/320
f 323/323/323 322/322/322 320/320/320
f 320/320/320 321/321/321 323/323/323
f 322/322/322 325/325/325 324/324/324
f 324/324/324 326/326/326 322/322/322
f 324/324/324 328/328/328 327/327/327
f 327/327/327 326/326/326 324/324/324
f 325/325/325 322/322/322 323/323/323
f 323/323/323 321/321/321 329/329/329
f 332/332/332 331/331/331 330/330/330
f 329/329/329 321/321/321 332/332/332
f 329/329/329 332/332/332 330/330/330
f 331/331/331 332/332/332 69/69/69
f 69/69/69 333/333/333 331/331/331
f 65/65/65 63/63/63 334/334/334
f 334/334/334 335/335/335 65/65/65
f 337/337/337 336/336/336 335/335/335
f 335/335/335 338/338/338 337/337/337
f 341/341/341 340/340/340 339/339/339
f 339/339/339 342/342/342 341/341/341
f 343/343/343 341/341/341 342/342/342
f 342/342/342 344/344/344 343/343/343
f 347/347/347 346/346/346 345/345/345
f 345/345/345 348/348/348 347/347/347
f 351/351/351 350/350/350 349/349/349
f 349/349/349 352/352/352 351/351/351
f 355/355/355 354/354/354 353/353/353
f 353/353/353 356/356/356 355/355/355
f 357/357/357 355/355/355 356/356/356
f 356/356/356 358/358/358 357/357/357
f 359/359/359 357/357/357 358/358/358
f 358/358/358 360/360/360 359/359/359
f 363/363/363 362/362/362 361/361/361
f 361/361/361 364/364/364 363/363/363
f 367/367/367 366/366/366 365/365/365
f 365/365/365 368/368/368 367/367/367
f 369/369/369 367/367/367 368/368/368
f 368/368/368 370/370/370 369/369/369
f 373/373/373 372/372/372 371/371/371
f 371/371/371 374/374/374 373/373/373
f 377/377/377 376/376/376 375/375/375
f 375/375/375 378/378/378 377/377/377
f 381/381/381 380/380/380 379/379/379
f 379/379/379 382/382/382 381/381/381
f 385/385/385 384/384/384 383/383/383
f 383/383/383 386/386/386 385/385/385
f 389/389/389 388/388/388 387/387/387
f 387/387/387 390/390/390 389/389/389
f 393/393/393 392/392/392 391/391/391
f 391/391/391 394/394/394 393/393/393
f 397/397/397 396/396/396 395/395/395
f 395/395/395 398/398/398 397/397/397
f 401/401/401 400/400/400 399/399/399
f 399/399/399 402/402/402 401/401/401
f 405/405/405 404/404/404 403/403/403
f 403/403/403 406/406/406 405/405/405
f 403/403/403 404/404/404 407/407/407
f 407/407/407 408/408/408 403/403/403
f 411/411/411 410/410/410 409/409/409
f 409/409/409 412/412/412 411/411/411
f 413/413/413 412/412/412 409/409/409
f 409/409/409 414/414/414 413/413/413
f 417/417/417 416/416/416 415/415/415
f 415/415/415 418/418/418 417/417/417
f 415/415/415 408/408/408 407/407/407
f 407/407/407 418/418/418 415/415/415
f 415/415/415 420/420/420 419/419/419
f 419/419/419 408/408/408 415/415/415
f 419/419/419 420/420/420 421/421/421
f 421/421/421 422/422/422 419/419/419
f 425/425/425 424/424/424 423/423/423
f 423/423/423 426/426/426 425/425/425
f 142/142/142 414/414/414 409/409/409
f 409/409/409 299/299/299 142/142/142
f 409/409/409 428/428/428 427/427/427
f 427/427/427 299/299/299 409/409/409
f 429/429/429 218/218/218 327/327/327
f 327/327/327 430/430/430 429/429/429
f 328/328/328 430/430/430 327/327/327
f 429/429/429 219/219/219 218/218/218
f 59/59/59 225/225/225 334/334/334
f 334/334/334 61/61/61 59/59/59
f 61/61/61 334/334/334 63/63/63
f 334/334/334 225/225/225 429/429/429
f 429/429/429 430/430/430 334/334/334
f 433/433/433 432/432/432 431/431/431
f 431/431/431 434/434/434 433/433/433
f 436/436/436 435/435/435 432/432/432
f 432/432/432 433/433/433 436/436/436
f 438/438/438 437/437/437 435/435/435
f 435/435/435 436/436/436 438/438/438
f 440/440/440 439/439/439 437/437/437
f 437/437/437 438/438/438 440/440/440
f 441/441/441 442/442/442 332/332/332
f 332/332/332 321/321/321 441/441/441
f 321/321/321 443/443/443 441/441/441
f 444/444/444 445/445/445 446/446/446
f 446/446/446 447/447/447 444/444/444
f 445/445/445 448/448/448 449/449/449
f 449/449/449 446/446/446 445/445/445
f 448/448/448 450/450/450 451/451/451
f 451/451/451 449/449/449 448/448/448
f 450/450/450 452/452/452 453/453/453
f 453/453/453 451/451/451 450/450/450
f 454/454/454 444/444/444 95/95/95
f 95/95/95 455/455/455 454/454/454
f 452/452/452 457/457/457 456/456/456
f 456/456/456 453/453/453 452/452/452
f 460/460/460 459/459/459 458/458/458
f 458/458/458 461/461/461 460/460/460
f 439/439/439 440/440/440 462/462/462
f 462/462/462 463/463/463 439/439/439
f 335/335/335 336/336/336 67/67/67
f 67/67/67 65/65/65 335/335/335
f 336/336/336 333/333/333 69/69/69
f 69/69/69 67/67/67 336/336/336
f 57/57/57 54/54/54 224/224/224
f 224/224/224 226/226/226 57/57/57
