# Blender 4.5.2 LTS
# www.blender.org
mtllib torso.mtl
o torso
v 10.000000 2.999998 -18.999998
v 10.000000 2.999998 -18.999998
v -10.000001 2.999998 -18.999998
v -10.000001 2.999998 -18.999998
v 10.000000 -0.000002 -18.999998
v 10.000000 -0.000002 -18.999998
v 10.000000 -0.000002 -18.999998
v -10.000001 -0.000002 -18.999998
v -10.000001 -0.000002 -18.999998
v -10.000001 -0.000002 -18.999998
v 10.000000 18.193996 -16.378002
v -0.000001 18.193996 -16.378002
v -0.000001 18.193996 -16.378002
v -0.000001 18.193996 -16.378002
v -10.000000 18.193996 -16.378002
v 0.653000 18.235996 -16.371002
v -0.653001 18.235996 -16.371002
v 1.294000 18.361996 -16.349003
v -1.294001 18.361996 -16.349003
v 1.914000 18.568996 -16.313002
v -1.914001 18.568996 -16.313002
v 10.000000 18.587996 -16.310001
v 1.900000 18.587996 -16.310001
v -1.900001 18.587996 -16.310001
v -10.000000 18.587996 -16.310001
v 2.500000 18.853996 -16.264002
v -2.500001 18.853996 -16.264002
v 3.044000 19.211996 -16.202002
v -3.044001 19.211996 -16.202002
v 3.536000 19.636995 -16.129002
v 3.536000 19.636995 -16.129002
v -3.536001 19.636995 -16.129002
v -3.536001 19.636995 -16.129002
v 10.000000 19.670996 -16.123001
v 3.500000 19.670996 -16.123001
v -3.500001 19.670996 -16.123001
v -10.000000 19.670996 -16.123001
v 3.967000 20.120996 -16.045002
v -3.967001 20.120996 -16.045002
v 6.000000 8.629999 -16.000000
v 6.000000 8.629999 -16.000000
v -6.000000 8.629999 -16.000000
v -6.000000 8.629999 -16.000000
v 6.000000 -0.000002 -16.000000
v 6.000000 -0.000002 -16.000000
v 6.000000 -0.000002 -16.000000
v -6.000000 -0.000002 -16.000000
v -6.000000 -0.000002 -16.000000
v -6.000000 -0.000002 -16.000000
v 4.330000 20.656996 -15.953004
v -4.330000 20.656996 -15.953004
v 4.620000 21.233995 -15.853004
v -4.620000 21.233995 -15.853004
v 10.000000 21.246996 -15.851004
v 4.600000 21.246996 -15.851004
v -4.600000 21.246996 -15.851004
v -10.000000 21.246996 -15.851004
v 4.830000 21.843998 -15.748004
v -4.830000 21.843998 -15.748004
v 4.957000 22.475998 -15.639004
v -4.957000 22.475998 -15.639004
v 10.000000 23.118996 -15.528004
v 5.000000 23.118996 -15.528004
v 5.000000 23.118996 -15.528004
v 5.000000 23.118996 -15.528004
v -5.000000 23.118996 -15.528004
v -5.000000 23.118996 -15.528004
v -5.000000 23.118996 -15.528004
v -10.000000 23.118996 -15.528004
v 4.957000 23.761997 -15.417005
v -4.957000 23.761997 -15.417005
v 4.830000 24.393997 -15.308005
v -4.830000 24.393997 -15.308005
v 10.000000 24.989998 -15.205005
v 4.600000 24.989998 -15.205005
v -4.600000 24.989998 -15.205005
v -10.000000 24.989998 -15.205005
v 4.620000 25.003998 -15.203005
v -4.620000 25.003998 -15.203005
v 4.330000 25.581997 -15.103004
v -4.330000 25.581997 -15.103004
v 3.967000 26.116997 -15.011004
v -3.967000 26.116997 -15.011004
v 10.000000 26.565998 -14.933005
v 3.500000 26.565998 -14.933005
v -3.500000 26.565998 -14.933005
v -10.000000 26.565998 -14.933005
v 3.536000 26.600998 -14.927005
v 3.536000 26.600998 -14.927005
v -3.536001 26.600998 -14.927005
v -3.536001 26.600998 -14.927005
v 3.044000 27.025997 -14.854005
v -3.044001 27.025997 -14.854005
v 2.500000 27.383999 -14.792005
v -2.500000 27.383999 -14.792005
v 10.000000 27.649998 -14.746005
v 1.900000 27.649998 -14.746005
v -1.900001 27.649998 -14.746005
v -10.000000 27.649998 -14.746005
v 1.914000 27.668999 -14.743005
v -1.914001 27.668999 -14.743005
v 1.294000 27.875996 -14.707005
v -1.294001 27.875996 -14.707005
v 0.653000 28.001999 -14.685005
v -0.653001 28.001999 -14.685005
v 10.000000 28.043999 -14.678005
v -0.000001 28.043999 -14.678005
v -0.000001 28.043999 -14.678005
v -0.000001 28.043999 -14.678005
v -10.000000 28.043999 -14.678005
v 6.000000 17.853996 -14.408003
v 6.000000 17.853996 -14.408003
v -0.000001 17.853996 -14.408003
v -0.000001 17.853996 -14.408003
v -0.000001 17.853996 -14.408003
v -0.000001 17.853996 -14.408003
v -6.000000 17.853996 -14.408003
v -6.000000 17.853996 -14.408003
v 0.653000 17.895996 -14.401003
v -0.653001 17.895996 -14.401003
v 1.294000 18.021996 -14.379003
v -1.294001 18.021996 -14.379003
v 10.000000 29.999996 -14.345005
v 10.000000 29.999996 -14.345005
v 10.000000 29.999996 -14.345005
v -10.000000 29.999996 -14.345005
v -10.000000 29.999996 -14.345005
v -10.000000 29.999996 -14.345005
v 1.914000 18.228996 -14.343003
v -1.914001 18.228996 -14.343003
v 6.000000 18.247995 -14.340003
v 1.900000 18.247995 -14.340003
v -1.900001 18.247995 -14.340003
v -6.000000 18.247995 -14.340003
v 2.500000 18.513996 -14.294003
v -2.500000 18.513996 -14.294003
v 3.044000 18.871996 -14.232003
v -3.044001 18.871996 -14.232003
v 3.536000 19.296997 -14.159004
v 3.536000 19.296997 -14.159004
v -3.536001 19.296997 -14.159004
v -3.536001 19.296997 -14.159004
v 6.000000 19.330997 -14.153004
v 3.500000 19.330997 -14.153004
v -3.500000 19.330997 -14.153004
v -6.000000 19.330997 -14.153004
v 3.967000 19.780998 -14.075004
v -3.967000 19.780998 -14.075004
v 8.000000 31.999996 -14.000006
v 8.000000 31.999996 -14.000006
v 8.000000 31.999996 -14.000006
v -8.000000 31.999996 -14.000006
v -8.000000 31.999996 -14.000006
v -8.000000 31.999996 -14.000006
v 4.330000 20.316998 -13.983004
v -4.330000 20.316998 -13.983004
v 4.620000 20.893997 -13.883004
v -4.620000 20.893997 -13.883004
v 6.000000 20.906998 -13.881003
v 4.600000 20.906998 -13.881003
v -4.600000 20.906998 -13.881003
v -6.000000 20.906998 -13.881003
v 4.830000 21.503998 -13.778004
v -4.830000 21.503998 -13.778004
v 4.957000 22.135998 -13.669003
v -4.957000 22.135998 -13.669003
v 6.000000 22.778996 -13.558004
v 5.000000 22.778996 -13.558004
v 5.000000 22.778996 -13.558004
v 5.000000 22.778996 -13.558004
v -5.000000 22.778996 -13.558004
v -5.000000 22.778996 -13.558004
v -5.000000 22.778996 -13.558004
v -6.000000 22.778996 -13.558004
v 4.957000 23.421997 -13.447003
v -4.957000 23.421997 -13.447003
v 4.830000 24.053997 -13.338005
v -4.830000 24.053997 -13.338005
v 6.000000 24.649998 -13.235004
v 4.600000 24.649998 -13.235004
v -4.600000 24.649998 -13.235004
v -6.000000 24.649998 -13.235004
v 4.620000 24.663998 -13.233005
v -4.620000 24.663998 -13.233005
v 4.330000 25.241997 -13.133005
v -4.330000 25.241997 -13.133005
v 3.967000 25.776997 -13.041005
v -3.967000 25.776997 -13.041005
v 6.000000 26.225998 -12.963005
v 3.500000 26.225998 -12.963005
v -3.500000 26.225998 -12.963005
v -6.000000 26.225998 -12.963005
v 3.536000 26.260998 -12.957005
v 3.536000 26.260998 -12.957005
v -3.536000 26.260998 -12.957005
v -3.536000 26.260998 -12.957005
v 3.044000 26.685997 -12.884005
v -3.044000 26.685997 -12.884005
v 2.500000 27.043999 -12.822004
v -2.500000 27.043999 -12.822004
v 6.000000 27.309998 -12.776005
v 1.900000 27.309998 -12.776005
v -1.900001 27.309998 -12.776005
v -6.000000 27.309998 -12.776005
v 1.914000 27.328999 -12.773005
v -1.914001 27.328999 -12.773005
v 1.294000 27.535995 -12.737005
v -1.294001 27.535995 -12.737005
v 0.653000 27.661999 -12.715005
v -0.653001 27.661999 -12.715005
v 6.000000 27.703999 -12.708005
v 6.000000 27.703999 -12.708005
v -0.000001 27.703999 -12.708005
v -0.000001 27.703999 -12.708005
v -0.000001 27.703999 -12.708005
v -0.000001 27.703999 -12.708005
v -6.000000 27.703999 -12.708005
v -6.000000 27.703999 -12.708005
v 6.000000 29.000000 -12.484005
v 6.000000 29.000000 -12.484005
v 6.000000 29.000000 -12.484005
v -6.000000 29.000000 -12.484005
v -6.000000 29.000000 -12.484005
v -6.000000 29.000000 -12.484005
v 10.000000 32.000000 -12.000006
v 10.000000 32.000000 -12.000006
v 10.000000 32.000000 -12.000006
v -10.000000 32.000000 -12.000006
v -10.000000 32.000000 -12.000006
v -10.000000 32.000000 -12.000006
v 6.000000 29.000000 -6.536004
v -6.000000 29.000000 -6.536001
v 6.000000 0.000000 -6.536001
v 6.000000 0.000000 -6.536001
v -6.000000 0.000000 -6.536000
v -6.000000 0.000000 -6.536000
v 0.000000 44.000000 -6.000003
v 0.000000 44.000000 -6.000003
v 0.000000 44.000000 -6.000003
v 0.000000 36.000000 -6.000004
v 0.000000 36.000000 -6.000004
v 0.000000 32.000000 -6.000002
v 0.000000 32.000000 -6.000002
v 0.783000 44.000000 -5.950003
v -0.783000 44.000000 -5.950002
v 0.783000 36.000000 -5.950003
v -0.783000 36.000000 -5.950003
v 0.783000 44.000000 -5.948003
v -0.783000 44.000000 -5.948003
v 0.783000 36.000000 -5.948004
v -0.783000 36.000000 -5.948004
v 0.783000 32.000000 -5.948002
v -0.783000 32.000000 -5.948002
v 1.553000 44.000000 -5.795004
v 1.553000 44.000000 -5.796003
v -1.552999 44.000000 -5.795004
v -1.552999 44.000000 -5.796003
v 1.553000 36.000000 -5.795004
v -1.552999 36.000000 -5.796004
v 1.553000 32.000000 -5.795003
v -1.552999 32.000000 -5.795003
v 2.296000 44.000000 -5.543004
v 2.296000 44.000000 -5.544003
v -2.296000 44.000000 -5.543002
v -2.296000 44.000000 -5.544003
v 2.296000 36.000000 -5.544004
v -2.296000 36.000000 -5.543003
v 2.296000 32.000000 -5.543003
v -2.296000 32.000000 -5.543001
v 3.000000 44.000000 -5.196004
v 3.000000 44.000000 -5.196004
v -3.000000 44.000000 -5.196004
v -3.000000 44.000000 -5.196004
v 3.000000 36.000000 -5.196004
v -3.000000 36.000000 -5.196003
v 3.000000 32.000000 -5.196004
v -3.000000 32.000000 -5.196003
v 3.653000 44.000000 -4.760004
v 3.653000 44.000000 -4.760004
v -3.652999 44.000000 -4.760002
v -3.652999 44.000000 -4.760002
v 3.653000 36.000000 -4.760004
v -3.652999 36.000000 -4.760003
v 3.653000 32.000000 -4.760003
v -3.652999 32.000000 -4.760001
v 4.243000 44.000000 -4.243004
v 4.243000 44.000000 -4.243004
v -4.243000 44.000000 -4.243004
v -4.243000 44.000000 -4.243004
v 4.243000 36.000000 -4.243004
v -4.243000 36.000000 -4.243003
v 4.243000 32.000000 -4.243003
v -4.243000 32.000000 -4.243003
v 6.000000 29.000000 -4.000003
v 3.464000 29.000000 -4.000003
v 3.464000 29.000000 -4.000003
v -3.463999 29.000000 -4.000002
v -3.463999 29.000000 -4.000002
v -5.999999 29.000000 -4.000002
v 6.000000 0.000000 -4.000001
v 6.000000 0.000000 -4.000001
v 3.464000 0.000000 -4.000001
v 3.464000 0.000000 -4.000001
v 3.464000 0.000000 -4.000001
v -3.463999 0.000000 -4.000000
v -3.463999 0.000000 -4.000000
v -3.463999 0.000000 -4.000000
v -5.999999 0.000000 -4.000000
v -5.999999 0.000000 -4.000000
v 4.760000 44.000000 -3.653003
v 4.760000 44.000000 -3.653003
v -4.759999 44.000000 -3.653002
v -4.759999 44.000000 -3.653002
v 4.760000 36.000000 -3.653004
v -4.759999 36.000000 -3.653003
v 4.760000 32.000000 -3.653003
v -4.759999 32.000000 -3.653001
v 5.196000 44.000000 -3.000004
v 5.196000 44.000000 -3.000004
v -5.195999 44.000000 -3.000002
v -5.195999 44.000000 -3.000002
v 5.196000 36.000000 -3.000005
v -5.195999 36.000000 -3.000003
v 5.196000 32.000000 -3.000003
v -5.195999 32.000000 -3.000002
v 5.543000 44.000000 -2.296004
v 5.544000 44.000000 -2.296004
v -5.542999 44.000000 -2.296002
v -5.543999 44.000000 -2.296002
v 5.543000 36.000000 -2.296005
v -5.543999 36.000000 -2.296003
v 5.543000 32.000000 -2.296003
v -5.542999 32.000000 -2.296002
v 5.795000 44.000000 -1.553004
v 5.796000 44.000000 -1.553004
v -5.794999 44.000000 -1.553003
v -5.795999 44.000000 -1.553003
v 5.796000 36.000000 -1.553005
v -5.795999 36.000000 -1.553003
v 5.795000 32.000000 -1.553003
v -5.794999 32.000000 -1.553002
v 5.950000 44.000000 -0.783004
v 5.948000 44.000000 -0.783004
v -5.947999 44.000000 -0.783003
v -5.949998 44.000000 -0.783003
v 5.950000 36.000000 -0.783004
v 5.948000 36.000000 -0.783004
v -5.947999 36.000000 -0.783003
v -5.949998 36.000000 -0.783003
v 5.948000 32.000000 -0.783003
v -5.947999 32.000000 -0.783002
v 6.000000 44.000000 -0.000004
v 6.000000 44.000000 -0.000004
v 0.000000 44.000000 -0.000004
v -5.999999 44.000000 -0.000003
v -5.999999 44.000000 -0.000003
v 6.000000 36.000000 -0.000004
v -5.999999 36.000000 -0.000003
v 6.000000 32.000000 -0.000004
v -5.999999 32.000000 -0.000002
v 5.950000 44.000000 0.782996
v 5.948000 44.000000 0.782996
v -5.947999 44.000000 0.782997
v -5.949998 44.000000 0.782997
v 5.950000 36.000000 0.782995
v 5.948000 36.000000 0.782995
v -5.947999 36.000000 0.782997
v -5.949998 36.000000 0.782997
v 5.948000 32.000000 0.782996
v -5.947999 32.000000 0.782998
v 5.795000 44.000000 1.552996
v 5.796000 44.000000 1.552996
v -5.794999 44.000000 1.552997
v -5.795999 44.000000 1.552997
v 5.795000 36.000000 1.552995
v -5.795999 36.000000 1.552997
v 5.795000 32.000000 1.552997
v -5.794999 32.000000 1.552998
v 5.543000 44.000000 2.295996
v 5.544000 44.000000 2.295996
v -5.542998 44.000000 2.295997
v -5.543998 44.000000 2.295997
v 5.544000 36.000000 2.295995
v -5.543998 36.000000 2.295996
v 5.543000 32.000000 2.295997
v -5.542998 32.000000 2.295998
v 5.196000 44.000000 2.999996
v 5.196000 44.000000 2.999996
v -5.195999 44.000000 2.999997
v -5.195999 44.000000 2.999997
v 5.196000 36.000000 2.999995
v -5.195999 36.000000 2.999996
v 5.196000 32.000000 2.999997
v -5.195999 32.000000 2.999998
v 4.760000 44.000000 3.652996
v 4.760000 44.000000 3.652996
v -4.759998 44.000000 3.652997
v -4.759998 44.000000 3.652997
v 4.760000 36.000000 3.652995
v -4.759998 36.000000 3.652996
v 4.760000 32.000000 3.652997
v -4.759998 32.000000 3.652998
v 6.000000 29.000000 3.999996
v 3.464000 29.000000 3.999996
v 3.464000 29.000000 3.999996
v -3.463998 29.000000 3.999997
v -3.463998 29.000000 3.999997
v -5.999998 29.000000 3.999998
v 6.000000 0.000000 3.999998
v 6.000000 0.000000 3.999998
v 3.464000 0.000000 3.999998
v 3.464000 0.000000 3.999998
v 3.464000 0.000000 3.999998
v -3.463998 0.000000 3.999999
v -3.463998 0.000000 3.999999
v -3.463998 0.000000 3.999999
v -5.999998 0.000000 3.999999
v -5.999998 0.000000 3.999999
v 4.243000 44.000000 4.242996
v 4.243000 44.000000 4.242996
v -4.242998 44.000000 4.242997
v -4.242998 44.000000 4.242997
v 4.243000 36.000000 4.242995
v -4.242998 36.000000 4.242996
v 4.243000 32.000000 4.242997
v -4.242998 32.000000 4.242998
v 3.653000 44.000000 4.759995
v 3.653000 44.000000 4.759995
v -3.652998 44.000000 4.759997
v -3.652998 44.000000 4.759997
v 3.653000 36.000000 4.759995
v -3.652998 36.000000 4.759996
v 3.653000 32.000000 4.759996
v -3.652998 32.000000 4.759998
v 3.000000 44.000000 5.195996
v 3.000000 44.000000 5.195996
v -2.999998 44.000000 5.195997
v -2.999998 44.000000 5.195997
v 3.000000 36.000000 5.195996
v -2.999998 36.000000 5.195996
v 3.000000 32.000000 5.195997
v -2.999998 32.000000 5.195998
v 2.296000 44.000000 5.542995
v 2.296000 44.000000 5.543996
v -2.295998 44.000000 5.542995
v -2.295998 44.000000 5.543996
v 2.296000 36.000000 5.542995
v -2.295998 36.000000 5.543996
v 2.296000 32.000000 5.542996
v -2.295998 32.000000 5.542996
v 1.553000 44.000000 5.794996
v 1.553000 44.000000 5.795996
v -1.552999 44.000000 5.794996
v -1.552999 44.000000 5.795996
v 1.553000 36.000000 5.794996
v -1.552999 36.000000 5.795996
v 1.553000 32.000000 5.794997
v -1.552999 32.000000 5.794998
v 0.783000 44.000000 5.947996
v -0.782998 44.000000 5.947996
v 0.783000 36.000000 5.947995
v -0.782998 36.000000 5.947996
v 0.783000 32.000000 5.947997
v -0.782998 32.000000 5.947997
v 0.783000 44.000000 5.949996
v -0.782998 44.000000 5.949996
v 0.783000 36.000000 5.949995
v -0.782998 36.000000 5.949996
v 0.000000 44.000000 5.999996
v 0.000000 44.000000 5.999996
v 0.000000 36.000000 5.999995
v 0.000000 32.000000 5.999997
v 6.000000 29.000000 6.535995
v -5.999998 29.000000 6.535997
v 6.000000 0.000000 6.535997
v 6.000000 0.000000 6.535997
v -5.999998 0.000000 6.535999
v -5.999998 0.000000 6.535999
v 10.000000 32.000000 11.999994
v 10.000000 32.000000 11.999994
v 10.000000 32.000000 11.999994
v -9.999997 32.000000 11.999994
v -9.999997 32.000000 11.999994
v -9.999997 32.000000 11.999994
v 6.000000 29.000000 12.483995
v 6.000000 29.000000 12.483995
v 6.000000 29.000000 12.483995
v -5.999997 29.000000 12.483995
v -5.999997 29.000000 12.483995
v -5.999997 29.000000 12.483995
v 6.000000 27.704002 12.707995
v 6.000000 27.704002 12.707995
v 0.000000 27.704002 12.707995
v 0.000000 27.704002 12.707995
v 0.000000 27.704002 12.707995
v 0.000000 27.704002 12.707995
v -5.999997 27.704002 12.707995
v -5.999997 27.704002 12.707995
v 0.653000 27.662003 12.714995
v -0.652997 27.662003 12.714995
v 1.294000 27.536003 12.736996
v -1.293998 27.536003 12.736996
v 1.914000 27.329002 12.772995
v -1.913998 27.329002 12.772995
v 6.000000 27.310001 12.775995
v 1.900000 27.310001 12.775995
v -1.899998 27.310001 12.775995
v -5.999997 27.310001 12.775995
v 2.500000 27.044003 12.821995
v -2.499997 27.044003 12.821995
v 3.044000 26.686005 12.883995
v -3.043997 26.686005 12.883995
v 3.536000 26.261002 12.956995
v 3.536000 26.261002 12.956995
v -3.535997 26.261002 12.956995
v -3.535997 26.261002 12.956995
v 6.000000 26.226002 12.962996
v 3.500000 26.226002 12.962996
v -3.499997 26.226002 12.962996
v -5.999997 26.226002 12.962996
v 3.967000 25.777004 13.040996
v -3.966997 25.777004 13.040996
v 4.330000 25.242004 13.132996
v -4.329997 25.242004 13.132996
v 4.620000 24.664001 13.232995
v -4.619997 24.664001 13.232995
v 6.000000 24.650002 13.234995
v 4.600000 24.650002 13.234995
v -4.599997 24.650002 13.234995
v -5.999997 24.650002 13.234995
v 4.830000 24.054005 13.337996
v -4.829997 24.054005 13.337996
v 4.957000 23.422005 13.446996
v -4.956997 23.422005 13.446996
v 6.000000 22.779003 13.557996
v 5.000000 22.779003 13.557996
v 5.000000 22.779003 13.557996
v 5.000000 22.779003 13.557996
v -4.999997 22.779003 13.557996
v -4.999997 22.779003 13.557996
v -4.999997 22.779003 13.557996
v -5.999997 22.779003 13.557996
v 4.957000 22.136002 13.668996
v -4.956997 22.136002 13.668996
v 4.830000 21.504002 13.777996
v -4.829997 21.504002 13.777996
v 6.000000 20.907001 13.880996
v 4.600000 20.907001 13.880996
v -4.599997 20.907001 13.880996
v -5.999997 20.907001 13.880996
v 4.620000 20.894001 13.882997
v -4.619997 20.894001 13.882997
v 4.330000 20.317001 13.982996
v -4.329997 20.317001 13.982996
v 8.000000 32.000000 13.999994
v 8.000000 32.000000 13.999994
v 8.000000 32.000000 13.999994
v -7.999997 32.000000 13.999994
v -7.999997 32.000000 13.999994
v -7.999997 32.000000 13.999994
v 3.967000 19.781002 14.074996
v -3.966997 19.781002 14.074996
v 6.000000 19.331001 14.152996
v 3.500000 19.331001 14.152996
v -3.499997 19.331001 14.152996
v -5.999997 19.331001 14.152996
v 3.536000 19.297005 14.158996
v 3.536000 19.297005 14.158996
v -3.535997 19.297005 14.158996
v -3.535997 19.297005 14.158996
v 3.044000 18.872004 14.231997
v -3.043997 18.872004 14.231997
v 2.500000 18.514004 14.293997
v -2.499997 18.514004 14.293997
v 6.000000 18.248003 14.339997
v 1.900000 18.248003 14.339997
v -1.899997 18.248003 14.339997
v -5.999997 18.248003 14.339997
v 1.914000 18.229004 14.342998
v -1.913997 18.229004 14.342998
v 10.000000 30.000004 14.344995
v 10.000000 30.000004 14.344995
v 10.000000 30.000004 14.344995
v -9.999997 30.000004 14.344995
v -9.999997 30.000004 14.344995
v -9.999997 30.000004 14.344995
v 1.294000 18.022003 14.378997
v -1.293997 18.022003 14.378997
v 0.653000 17.896004 14.400997
v -0.652997 17.896004 14.400997
v 6.000000 17.854004 14.407997
v 6.000000 17.854004 14.407997
v 0.000000 17.854004 14.407997
v 0.000000 17.854004 14.407997
v 0.000000 17.854004 14.407997
v 0.000000 17.854004 14.407997
v -5.999997 17.854004 14.407997
v -5.999997 17.854004 14.407997
v 10.000000 28.044003 14.677996
v 0.000000 28.044003 14.677996
v 0.000000 28.044003 14.677996
v 0.000000 28.044003 14.677996
v -9.999997 28.044003 14.677996
v 0.653000 28.002003 14.684997
v -0.652997 28.002003 14.684997
v 1.294000 27.876003 14.706995
v -1.293997 27.876003 14.706995
v 1.914000 27.669003 14.742995
v -1.913997 27.669003 14.742995
v 10.000000 27.650002 14.745996
v 1.900000 27.650002 14.745996
v -1.899997 27.650002 14.745996
v -9.999997 27.650002 14.745996
v 2.500000 27.384003 14.791995
v -2.499997 27.384003 14.791995
v 3.044000 27.026001 14.853995
v -3.043997 27.026001 14.853995
v 3.536000 26.601002 14.926995
v 3.536000 26.601002 14.926995
v -3.535997 26.601002 14.926995
v -3.535997 26.601002 14.926995
v 10.000000 26.566002 14.932995
v 3.500000 26.566002 14.932995
v -3.499997 26.566002 14.932995
v -9.999997 26.566002 14.932995
v 3.967000 26.117004 15.010995
v -3.966997 26.117004 15.010995
v 4.330000 25.582005 15.102995
v -4.329997 25.582005 15.102995
v 4.620000 25.004002 15.202995
v -4.619997 25.004002 15.202995
v 10.000000 24.990002 15.204995
v 4.600000 24.990002 15.204995
v -4.599997 24.990002 15.204995
v -9.999996 24.990002 15.204995
v 4.830000 24.394001 15.307995
v -4.829997 24.394001 15.307995
v 4.957000 23.762001 15.416995
v -4.956997 23.762001 15.416995
v 10.000000 23.119003 15.527996
v 5.000000 23.119003 15.527996
v 5.000000 23.119003 15.527996
v 5.000000 23.119003 15.527996
v -4.999997 23.119003 15.527996
v -4.999997 23.119003 15.527996
v -4.999997 23.119003 15.527996
v -9.999996 23.119003 15.527996
v 4.957000 22.476002 15.638996
v -4.956996 22.476002 15.638996
v 4.830000 21.844002 15.747996
v -4.829997 21.844002 15.747996
v 10.000000 21.247004 15.850996
v 4.600000 21.247004 15.850996
v -4.599997 21.247004 15.850996
v -9.999996 21.247004 15.850996
v 4.620000 21.234003 15.852996
v -4.619997 21.234003 15.852996
v 4.330000 20.657003 15.952996
v -4.329997 20.657003 15.952996
v 6.000000 8.630001 15.999997
v 6.000000 8.630001 15.999997
v -5.999997 8.630001 15.999997
v -5.999997 8.630001 15.999997
v 6.000000 0.000002 16.000002
v 6.000000 0.000002 16.000002
v 6.000000 0.000002 16.000002
v -5.999997 0.000002 16.000002
v -5.999997 0.000002 16.000002
v -5.999997 0.000002 16.000002
v 3.967000 20.121004 16.044998
v -3.966997 20.121004 16.044998
v 10.000000 19.671003 16.122997
v 3.500000 19.671003 16.122997
v -3.499997 19.671003 16.122997
v -9.999996 19.671003 16.122997
v 3.536000 19.637003 16.128998
v 3.536000 19.637003 16.128998
v -3.535997 19.637003 16.128998
v -3.535997 19.637003 16.128998
v 3.044000 19.212004 16.201998
v -3.043997 19.212004 16.201998
v 2.500000 18.854004 16.263998
v -2.499997 18.854004 16.263998
v 10.000000 18.588003 16.309998
v 1.900000 18.588003 16.309998
v -1.899997 18.588003 16.309998
v -9.999996 18.588003 16.309998
v 1.914000 18.569004 16.312998
v -1.913997 18.569004 16.312998
v 1.294000 18.362003 16.348999
v -1.293997 18.362003 16.348999
v 0.653000 18.236004 16.370998
v -0.652997 18.236004 16.370998
v 10.000000 18.194004 16.377998
v 0.000000 18.194004 16.377998
v 0.000000 18.194004 16.377998
v 0.000000 18.194004 16.377998
v -9.999996 18.194004 16.377998
v 10.000000 3.000002 19.000002
v 10.000000 3.000002 19.000002
v -9.999996 3.000002 19.000002
v -9.999996 3.000002 19.000002
v 10.000000 0.000002 19.000002
v 10.000000 0.000002 19.000002
v 10.000000 0.000002 19.000002
v -9.999996 0.000002 19.000002
v -9.999996 0.000002 19.000002
v -9.999996 0.000002 19.000002
vn -1.0000 -0.0000 -0.0000
vn 1.0000 -0.0000 -0.0000
vn -0.0000 -1.0000 -0.0000
vn 0.7071 -0.0000 -0.7071
vn -0.0000 -0.0000 1.0000
vn 0.7071 -0.0000 0.7071
vn -0.0000 -0.0000 -1.0000
vn -0.7071 -0.0000 -0.7071
vn -0.7071 -0.0000 0.7071
vn -0.0000 -0.0600 0.9982
vn -0.0000 -0.1168 0.9932
vn -0.0000 -0.0600 -0.9982
vn -0.0000 -0.1168 -0.9932
vn -0.0000 -0.1701 0.9854
vn -0.0000 -0.1703 0.9854
vn -0.0000 -0.1701 -0.9854
vn -0.0000 -0.1703 -0.9854
vn -0.0000 0.1228 0.9924
vn -0.0000 0.1552 0.9879
vn -0.0000 0.1426 -0.9898
vn -0.0000 0.1701 -0.9854
vn -0.0000 0.1678 -0.9858
vn -0.0000 0.1686 -0.9857
vn -0.0000 0.1692 -0.9856
vn -0.0000 0.1700 -0.9854
vn -0.0000 0.1701 0.9854
vn -0.0000 0.1678 0.9858
vn -0.0000 0.1686 0.9857
vn -0.0000 0.1689 0.9856
vn -0.0000 0.1700 0.9854
vn -0.0000 1.0000 -0.0000
vn -0.5444 0.6383 -0.5444
vn -0.5444 0.6383 0.5444
vn 0.5444 0.6383 0.5444
vn 0.5444 0.6383 -0.5444
vn -0.0000 0.1682 0.9857
vn -0.0000 0.1679 0.9858
vn -0.0000 -0.1700 -0.9854
vn -0.0000 0.1681 -0.9858
vn -0.0000 0.1679 -0.9858
vn -0.0000 -0.1700 0.9854
vn 0.0068 -0.0000 1.0000
vn 0.0221 -0.0000 0.9998
vn 0.1093 -0.0000 0.9940
vn 0.1523 -0.0000 0.9883
vn 0.2661 -0.0001 0.9639
vn 0.2796 -0.0000 0.9601
vn 0.3894 -0.0001 0.9211
vn 0.4026 -0.0000 0.9154
vn 0.5060 -0.0000 0.8625
vn 0.5185 -0.0000 0.8551
vn 0.6142 -0.0000 0.7892
vn 0.6256 -0.0000 0.7801
vn 0.7123 -0.0000 0.7019
vn 0.7225 -0.0000 0.6914
vn 0.7980 -0.0000 0.6027
vn 0.8067 -0.0000 0.5910
vn 0.8695 -0.0000 0.4940
vn 0.8767 -0.0001 0.4811
vn 0.9267 -0.0001 0.3758
vn 0.9322 -0.0001 0.3618
vn 0.9677 -0.0001 0.2519
vn 0.9714 -0.0000 0.2375
vn 0.9883 -0.0000 0.1523
vn 0.9940 -0.0000 0.1093
vn 1.0000 -0.0000 -0.0068
vn 0.9998 -0.0000 -0.0221
vn 0.9940 -0.0000 -0.1090
vn 0.9884 -0.0001 -0.1519
vn 0.9639 -0.0001 -0.2661
vn 0.9600 -0.0001 -0.2800
vn 0.9209 -0.0001 -0.3898
vn 0.9154 -0.0000 -0.4026
vn 0.8625 -0.0000 -0.5060
vn 0.8551 -0.0000 -0.5185
vn 0.7891 -0.0000 -0.6142
vn 0.7801 -0.0000 -0.6256
vn 0.7019 -0.0000 -0.7123
vn 0.6914 -0.0000 -0.7225
vn 0.6027 -0.0000 -0.7980
vn 0.5910 -0.0000 -0.8067
vn 0.4940 -0.0000 -0.8695
vn 0.4811 -0.0001 -0.8767
vn 0.3758 -0.0001 -0.9267
vn 0.3618 -0.0001 -0.9322
vn 0.2520 -0.0001 -0.9677
vn 0.2375 -0.0000 -0.9714
vn 0.1523 -0.0000 -0.9883
vn 0.1093 -0.0000 -0.9940
vn 0.0651 -0.0000 -0.9979
vn 0.0663 -0.0000 -0.9978
vn -0.0643 -0.0000 -0.9979
vn -0.0663 -0.0000 -0.9978
vn -0.1089 -0.0000 -0.9941
vn -0.1519 -0.0001 -0.9884
vn -0.2661 -0.0001 -0.9639
vn -0.2800 -0.0001 -0.9600
vn -0.3898 -0.0001 -0.9209
vn -0.4026 -0.0000 -0.9154
vn -0.5060 -0.0000 -0.8625
vn -0.5185 -0.0000 -0.8551
vn -0.6142 -0.0000 -0.7891
vn -0.6256 -0.0000 -0.7801
vn -0.7004 -0.0000 -0.7137
vn -0.7225 -0.0000 -0.6914
vn -0.7801 -0.0000 -0.6256
vn -0.8067 -0.0000 -0.5910
vn -0.8549 -0.0000 -0.5189
vn -0.8767 -0.0001 -0.4811
vn -0.9151 -0.0001 -0.4032
vn -0.9321 -0.0002 -0.3622
vn -0.9601 -0.0001 -0.2797
vn -0.9715 -0.0001 -0.2370
vn -0.9884 -0.0001 -0.1519
vn -0.9940 -0.0000 -0.1093
vn -0.9998 -0.0000 -0.0216
vn -0.9998 -0.0000 0.0221
vn -0.9940 -0.0000 0.1090
vn -0.9884 -0.0001 0.1519
vn -0.9713 -0.0001 0.2378
vn -0.9601 -0.0002 0.2796
vn -0.9320 -0.0001 0.3626
vn -0.9152 -0.0001 0.4029
vn -0.8766 -0.0000 0.4813
vn -0.8551 -0.0000 0.5185
vn -0.8067 -0.0000 0.5910
vn -0.7801 -0.0000 0.6256
vn -0.7113 -0.0000 0.7029
vn -0.6914 -0.0000 0.7225
vn -0.6027 -0.0000 0.7980
vn -0.5910 -0.0000 0.8067
vn -0.4940 -0.0000 0.8695
vn -0.4811 -0.0001 0.8767
vn -0.3761 -0.0001 0.9266
vn -0.3622 -0.0002 0.9321
vn -0.2519 -0.0001 0.9677
vn -0.2370 -0.0001 0.9715
vn -0.1519 -0.0001 0.9884
vn -0.1093 -0.0000 0.9940
vn -0.6256 -0.0000 0.7801
vn -0.5188 -0.0000 0.8549
vn -0.4033 -0.0000 0.9151
vn -0.2800 -0.0000 0.9600
vn -0.1523 -0.0000 0.9883
vn -0.1081 -0.0000 0.9941
vn -0.0212 -0.0000 0.9998
vn 0.1081 -0.0000 0.9941
vn 0.1527 -0.0001 0.9883
vn 0.2386 -0.0001 0.9711
vn 0.3626 -0.0001 0.9320
vn 0.4811 -0.0001 0.8767
vn 0.5910 -0.0000 0.8067
vn 0.6914 -0.0000 0.7225
vn 0.7801 -0.0000 0.6256
vn 0.8549 -0.0000 0.5188
vn 0.9151 -0.0000 0.4033
vn 0.9601 -0.0001 0.2796
vn 0.9883 -0.0001 0.1527
vn 0.9941 -0.0000 0.1085
vn 0.9998 -0.0000 0.0212
vn 0.9941 -0.0000 -0.1081
vn 0.9883 -0.0000 -0.1523
vn 0.9712 -0.0000 -0.2382
vn 0.9318 -0.0001 -0.3629
vn 0.8767 -0.0001 -0.4811
vn 0.8067 -0.0000 -0.5910
vn 0.7225 -0.0000 -0.6914
vn 0.6256 -0.0000 -0.7801
vn 0.5188 -0.0000 -0.8549
vn 0.4033 -0.0000 -0.9151
vn 0.2796 -0.0001 -0.9601
vn 0.1527 -0.0001 -0.9883
vn 0.1085 -0.0000 -0.9941
vn 0.0637 -0.0000 -0.9980
vn 0.0649 -0.0000 -0.9979
vn -0.0637 -0.0000 -0.9980
vn -0.1081 -0.0000 -0.9941
vn -0.1523 -0.0000 -0.9883
vn -0.2382 -0.0000 -0.9712
vn -0.3629 -0.0001 -0.9318
vn -0.4811 -0.0001 -0.8767
vn -0.5910 -0.0000 -0.8067
vn -0.0651 0.9833 -0.1697
vn -0.1088 0.9796 -0.1691
vn -0.1524 0.9739 -0.1681
vn -0.2380 0.9571 -0.1652
vn -0.2797 0.9461 -0.1633
vn -0.3621 0.9186 -0.1585
vn -0.4027 0.9020 -0.1557
vn -0.4811 0.8639 -0.1491
vn -0.5188 0.8424 -0.1454
vn -0.5911 0.7948 -0.1372
vn -0.6258 0.7687 -0.1327
vn -0.6591 0.7411 -0.1279
vn -0.7517 0.6499 -0.1122
vn -0.7799 0.6168 -0.1064
vn -0.8066 0.5825 -0.1005
vn -0.8548 0.5114 -0.0883
vn -0.8763 0.4748 -0.0820
vn -0.9149 0.3978 -0.0686
vn -0.9319 0.3575 -0.0617
vn -0.9602 0.2754 -0.0475
vn -0.9715 0.2336 -0.0403
vn -0.9884 0.1495 -0.0258
vn -0.9941 0.1072 -0.0185
vn -0.9978 0.0648 -0.0112
vn -0.9978 -0.0648 0.0112
vn -0.9941 -0.1072 0.0185
vn -0.9884 -0.1495 0.0258
vn -0.9715 -0.2336 0.0403
vn -0.9602 -0.2754 0.0475
vn -0.9319 -0.3574 0.0617
vn -0.9150 -0.3975 0.0686
vn -0.8764 -0.4746 0.0819
vn -0.8546 -0.5117 0.0883
vn -0.8063 -0.5829 0.1006
vn -0.7797 -0.6171 0.1065
vn -0.7517 -0.6499 0.1122
vn -0.6591 -0.7411 0.1279
vn -0.6258 -0.7687 0.1327
vn -0.5911 -0.7949 0.1372
vn -0.5188 -0.8424 0.1454
vn -0.4811 -0.8639 0.1491
vn -0.4027 -0.9020 0.1557
vn -0.3621 -0.9186 0.1585
vn -0.2797 -0.9461 0.1633
vn -0.2380 -0.9571 0.1652
vn -0.1524 -0.9739 0.1681
vn -0.1088 -0.9796 0.1691
vn -0.0651 -0.9833 0.1697
vn 0.0651 -0.9833 0.1697
vn 0.1088 -0.9796 0.1691
vn 0.1524 -0.9739 0.1681
vn 0.2379 -0.9571 0.1652
vn 0.2798 -0.9461 0.1633
vn 0.3621 -0.9185 0.1585
vn 0.4027 -0.9020 0.1557
vn 0.4811 -0.8639 0.1491
vn 0.5188 -0.8424 0.1454
vn 0.5911 -0.7948 0.1372
vn 0.6257 -0.7687 0.1327
vn 0.6591 -0.7411 0.1279
vn 0.7517 -0.6499 0.1122
vn 0.7797 -0.6171 0.1065
vn 0.8063 -0.5829 0.1006
vn 0.8546 -0.5117 0.0883
vn 0.8764 -0.4746 0.0819
vn 0.9150 -0.3975 0.0686
vn 0.9319 -0.3574 0.0617
vn 0.9602 -0.2754 0.0475
vn 0.9715 -0.2336 0.0403
vn 0.9884 -0.1495 0.0258
vn 0.9941 -0.1072 0.0185
vn 0.9978 -0.0648 0.0112
vn 0.9978 0.0648 -0.0112
vn 0.9941 0.1072 -0.0185
vn 0.9884 0.1495 -0.0258
vn 0.9715 0.2336 -0.0403
vn 0.9602 0.2754 -0.0475
vn 0.9319 0.3575 -0.0617
vn 0.9149 0.3978 -0.0686
vn 0.8763 0.4748 -0.0820
vn 0.8548 0.5114 -0.0883
vn 0.8066 0.5825 -0.1005
vn 0.7799 0.6168 -0.1064
vn 0.7517 0.6499 -0.1122
vn 0.6591 0.7411 -0.1279
vn 0.6257 0.7687 -0.1327
vn 0.5911 0.7948 -0.1372
vn 0.5188 0.8424 -0.1454
vn 0.4811 0.8639 -0.1491
vn 0.4027 0.9020 -0.1557
vn 0.3621 0.9185 -0.1585
vn 0.2798 0.9461 -0.1633
vn 0.2379 0.9571 -0.1652
vn 0.1524 0.9739 -0.1681
vn 0.1088 0.9796 -0.1691
vn 0.0651 0.9833 -0.1697
vn -0.0651 0.9833 0.1697
vn -0.1088 0.9796 0.1691
vn -0.1524 0.9739 0.1681
vn -0.2380 0.9571 0.1652
vn -0.2797 0.9461 0.1633
vn -0.3621 0.9186 0.1585
vn -0.4027 0.9020 0.1557
vn -0.4811 0.8639 0.1491
vn -0.5188 0.8424 0.1454
vn -0.5911 0.7949 0.1372
vn -0.6258 0.7687 0.1327
vn -0.6591 0.7411 0.1279
vn -0.7517 0.6499 0.1122
vn -0.7799 0.6168 0.1065
vn -0.8066 0.5825 0.1005
vn -0.8548 0.5114 0.0883
vn -0.8763 0.4748 0.0819
vn -0.9149 0.3978 0.0687
vn -0.9319 0.3575 0.0617
vn -0.9602 0.2754 0.0475
vn -0.9715 0.2336 0.0403
vn -0.9884 0.1495 0.0258
vn -0.9941 0.1072 0.0185
vn -0.9978 0.0648 0.0112
vn -0.9978 -0.0648 -0.0112
vn -0.9941 -0.1072 -0.0185
vn -0.9884 -0.1495 -0.0258
vn -0.9715 -0.2336 -0.0403
vn -0.9602 -0.2754 -0.0475
vn -0.9319 -0.3574 -0.0617
vn -0.9150 -0.3975 -0.0686
vn -0.8764 -0.4746 -0.0819
vn -0.8546 -0.5117 -0.0883
vn -0.8063 -0.5829 -0.1006
vn -0.7797 -0.6171 -0.1065
vn -0.7517 -0.6499 -0.1122
vn -0.6591 -0.7411 -0.1279
vn -0.6258 -0.7687 -0.1327
vn -0.5911 -0.7949 -0.1372
vn -0.5188 -0.8424 -0.1454
vn -0.4811 -0.8639 -0.1491
vn -0.4027 -0.9020 -0.1557
vn -0.3621 -0.9186 -0.1585
vn -0.2797 -0.9461 -0.1633
vn -0.2380 -0.9571 -0.1652
vn -0.1524 -0.9739 -0.1681
vn -0.1088 -0.9796 -0.1691
vn -0.0651 -0.9833 -0.1697
vn 0.0651 -0.9833 -0.1697
vn 0.1088 -0.9796 -0.1691
vn 0.1524 -0.9739 -0.1681
vn 0.2379 -0.9571 -0.1652
vn 0.2798 -0.9461 -0.1633
vn 0.3621 -0.9186 -0.1585
vn 0.4027 -0.9020 -0.1557
vn 0.4811 -0.8639 -0.1491
vn 0.5188 -0.8424 -0.1454
vn 0.5911 -0.7948 -0.1372
vn 0.6257 -0.7687 -0.1327
vn 0.6591 -0.7411 -0.1279
vn 0.7517 -0.6499 -0.1122
vn 0.7797 -0.6170 -0.1065
vn 0.8063 -0.5829 -0.1006
vn 0.8546 -0.5117 -0.0883
vn 0.8764 -0.4746 -0.0819
vn 0.9150 -0.3975 -0.0686
vn 0.9319 -0.3574 -0.0617
vn 0.9602 -0.2754 -0.0475
vn 0.9715 -0.2336 -0.0403
vn 0.9884 -0.1495 -0.0258
vn 0.9941 -0.1072 -0.0185
vn 0.9978 -0.0648 -0.0112
vn 0.9978 0.0648 0.0112
vn 0.9941 0.1072 0.0185
vn 0.9884 0.1495 0.0258
vn 0.9715 0.2336 0.0403
vn 0.9602 0.2754 0.0475
vn 0.9319 0.3575 0.0617
vn 0.9149 0.3978 0.0687
vn 0.8763 0.4748 0.0819
vn 0.8548 0.5114 0.0883
vn 0.8066 0.5825 0.1005
vn 0.7799 0.6168 0.1065
vn 0.7517 0.6499 0.1122
vn 0.6591 0.7411 0.1279
vn 0.6258 0.7686 0.1327
vn 0.5911 0.7948 0.1372
vn 0.5188 0.8424 0.1454
vn 0.4811 0.8639 0.1491
vn 0.4027 0.9020 0.1557
vn 0.3621 0.9186 0.1585
vn 0.2798 0.9461 0.1633
vn 0.2379 0.9571 0.1652
vn 0.1524 0.9739 0.1681
vn 0.1088 0.9796 0.1691
vn 0.0651 0.9833 0.1697
vn -0.8549 -0.0000 0.5188
vn -0.9151 -0.0000 0.4033
vn -0.9600 -0.0000 0.2800
vn -0.9883 -0.0000 0.1523
vn -0.9941 -0.0000 0.1081
vn -0.9998 -0.0000 0.0213
vn -0.9998 -0.0000 -0.0215
vn -0.9941 -0.0000 -0.1081
vn -0.9883 -0.0000 -0.1523
vn -0.9712 -0.0000 -0.2382
vn -0.9320 -0.0000 -0.3626
vn -0.8765 -0.0000 -0.4814
vt 7.000000 29.000000
vt 7.000000 -9.000000
vt 10.000000 29.000000
vt 10.000000 -9.000000
vt -20.000000 -4.344999
vt -20.000000 24.344999
vt -22.000000 -2.000000
vt -22.000000 22.000000
vt -10.000000 9.000000
vt -10.000000 -29.000000
vt -13.000000 9.000000
vt -13.000000 -29.000000
vt -40.000000 -24.344999
vt -40.000000 4.344999
vt -42.000000 -22.000000
vt -42.000000 2.000000
vt 10.000000 19.000000
vt 10.000000 -19.000000
vt 6.000000 16.000000
vt 6.000000 -16.000000
vt -10.000000 19.000000
vt -6.000000 16.000000
vt -10.000000 -19.000000
vt -6.000000 -16.000000
vt 3.464000 -4.000000
vt 6.000000 -4.000000
vt 6.000000 -6.536000
vt 3.464000 4.000000
vt 6.000000 6.536000
vt 6.000000 4.000000
vt -3.464000 -4.000000
vt -6.000000 -6.536000
vt -6.000000 -4.000000
vt -3.464000 4.000000
vt -6.000000 4.000000
vt -6.000000 6.536000
vt -35.535999 -0.536000
vt -33.000000 -0.536000
vt -6.536000 -0.536000
vt -4.000000 -0.536000
vt -33.000000 2.000000
vt -4.000000 2.000000
vt -22.464001 12.536000
vt 6.536000 12.536000
vt -25.000000 7.464000
vt 4.000000 7.464000
vt -25.000000 10.000000
vt 4.000000 10.000000
vt -35.000000 -12.536000
vt -6.000000 -12.536000
vt -32.464001 -7.464000
vt -3.464000 -7.464000
vt -33.000000 -7.464000
vt -4.000000 -7.464000
vt -33.000000 -10.000000
vt -4.000000 -10.000000
vt -22.464001 0.536000
vt -25.000000 0.536000
vt 6.536000 0.536000
vt 4.000000 0.536000
vt -25.000000 -2.000000
vt 4.000000 -2.000000
vt -16.000000 -22.000000
vt -24.629999 -22.000000
vt -16.000000 -10.000000
vt -24.629999 -10.000000
vt 16.000000 10.000000
vt 16.000000 22.000000
vt 7.370000 10.000000
vt 7.370000 22.000000
vt 6.000000 22.000000
vt 6.000000 -10.000000
vt -2.630000 22.000000
vt -2.630000 -10.000000
vt -6.000000 -22.000000
vt -6.000000 10.000000
vt -14.630000 -22.000000
vt -14.630000 10.000000
vt -32.262001 -20.408001
vt -32.262001 -8.408000
vt -40.411999 -18.708000
vt -41.484001 -18.483999
vt -40.411999 -6.707999
vt -41.484001 -6.483999
vt -3.446000 8.408000
vt -3.446000 20.408001
vt -14.996000 6.707999
vt -14.996000 18.708000
vt -16.516001 6.483999
vt -16.516001 18.483999
vt -23.000000 18.483999
vt -23.000000 -6.483999
vt -35.000000 -18.483999
vt -35.000000 6.483999
vt -23.000000 -16.516001
vt -23.000000 -41.484001
vt -35.000000 -16.516001
vt -35.000000 -41.484001
vt 19.000000 9.000000
vt 16.000000 9.000000
vt 19.000000 29.000000
vt 16.000000 29.000000
vt -19.000000 -9.000000
vt -19.000000 -29.000000
vt -28.194000 -26.378000
vt -8.194000 -6.378000
vt -38.043999 -24.677999
vt -18.044001 -4.677999
vt -40.000000 -22.000000
vt -24.000000 -6.000000
vt -1.816000 6.378000
vt -1.816000 26.378000
vt -13.366000 4.677999
vt -15.655000 4.344999
vt -13.366000 24.677999
vt -15.655000 24.344999
vt -18.000000 6.000000
vt -18.000000 22.000000
vt -22.000000 -44.000000
vt -42.000000 -44.000000
vt -24.000000 -46.000000
vt -40.000000 -46.000000
vt -42.000000 -20.000000
vt -22.000000 -20.000000
vt -40.000000 -18.000000
vt -24.000000 -18.000000
vt -20.000000 -15.655000
vt -20.000000 2.000000
vt -40.000000 -44.345001
vt -2.278000 14.410000
vt -1.816000 16.378000
vt -2.278000 6.309999
vt -3.548000 12.623000
vt -3.548000 6.122999
vt -5.396000 11.251000
vt -5.396000 5.851000
vt -7.591000 10.528000
vt -7.591000 5.528000
vt -9.785000 10.605000
vt -9.785000 5.205000
vt -11.633000 11.433000
vt -11.633000 4.933000
vt -12.904000 12.846000
vt -12.904000 4.745999
vt -13.366000 14.678000
vt -12.904000 16.646000
vt -12.904000 24.746000
vt -11.633000 18.433001
vt -11.633000 24.933001
vt -9.785000 19.805000
vt -9.785000 25.205000
vt -7.591000 20.528000
vt -7.591000 25.528000
vt -5.396000 20.451000
vt -5.396000 25.851000
vt -3.548000 19.622999
vt -3.548000 26.122999
vt -2.278000 18.209999
vt -2.278000 26.309999
vt -3.908000 12.440000
vt -3.908000 8.339999
vt -3.446000 14.408000
vt -5.177999 10.653000
vt -5.177999 8.153000
vt -7.026000 9.281000
vt -7.026000 7.881000
vt -9.221000 8.558000
vt -9.221000 7.558000
vt -11.415000 8.635000
vt -11.415000 7.235000
vt -13.263000 9.462999
vt -13.263000 6.962999
vt -14.534000 10.876000
vt -14.534000 6.776000
vt -14.996000 12.708000
vt -14.534000 14.676000
vt -14.534000 18.775999
vt -13.263000 16.462999
vt -13.263000 18.962999
vt -11.415000 17.834999
vt -11.415000 19.235001
vt -9.221000 18.558001
vt -9.221000 19.558001
vt -7.026000 18.481001
vt -7.026000 19.881001
vt -5.177999 17.653000
vt -5.177999 20.153000
vt -3.908000 16.240000
vt -3.908000 20.340000
vt -20.488001 -18.209999
vt -28.587999 -26.309999
vt -18.194000 -16.378000
vt -23.171000 -19.622999
vt -29.671000 -26.122999
vt -25.847000 -20.451000
vt -31.247000 -25.851000
vt -28.118999 -20.528000
vt -33.118999 -25.528000
vt -29.590000 -19.805000
vt -34.990002 -25.205000
vt -30.066000 -18.433001
vt -36.566002 -24.933001
vt -29.549999 -16.646000
vt -37.650002 -24.746000
vt -28.044001 -14.678000
vt -25.750000 -12.846000
vt -17.650000 -4.745999
vt -23.066000 -11.433000
vt -16.566000 -4.933000
vt -20.389999 -10.605000
vt -14.990000 -5.205000
vt -18.118999 -10.528000
vt -13.119000 -5.528000
vt -16.646999 -11.251000
vt -11.247000 -5.851000
vt -16.171000 -12.623000
vt -9.671000 -6.122999
vt -16.688000 -14.410000
vt -8.587999 -6.309999
vt -32.588001 -16.240000
vt -32.262001 -14.408000
vt -32.588001 -20.340000
vt -33.484001 -17.653000
vt -33.484001 -20.153000
vt -34.787998 -18.481001
vt -34.787998 -19.881001
vt -36.337002 -18.558001
vt -36.337002 -19.558001
vt -37.884998 -17.834999
vt -37.884998 -19.235001
vt -39.188999 -16.462999
vt -39.188999 -18.962999
vt -40.085999 -14.676000
vt -40.085999 -18.775999
vt -40.411999 -12.708000
vt -40.085999 -10.876000
vt -40.085999 -6.776000
vt -39.188999 -9.462999
vt -39.188999 -6.962999
vt -37.884998 -8.635000
vt -37.884998 -7.235000
vt -36.337002 -8.558000
vt -36.337002 -7.558000
vt -34.787998 -9.281000
vt -34.787998 -7.881000
vt -33.484001 -10.653000
vt -33.484001 -8.153000
vt -32.588001 -12.440000
vt -32.588001 -8.339999
vt -30.000000 6.000000
vt -26.000000 6.000000
vt -30.052000 5.165000
vt -26.052000 5.165000
vt -30.205000 4.242000
vt -26.205000 4.242000
vt -30.457001 3.247000
vt -26.457001 3.247000
vt -30.804001 2.196000
vt -26.804001 2.196000
vt -31.240000 1.107000
vt -27.240000 1.107000
vt -31.757000 0.000000
vt -27.757000 0.000000
vt -32.347000 -1.107000
vt -28.347000 -1.107000
vt -33.000000 -2.196000
vt -29.000000 -2.196000
vt -33.703999 -3.248000
vt -29.704000 -3.247000
vt -34.446999 -4.242000
vt -30.447001 -4.242000
vt -35.216999 -5.165000
vt -31.216999 -5.165000
vt -42.000000 -6.000000
vt -38.000000 -6.000000
vt -41.948002 -6.731000
vt -37.948002 -6.731000
vt -41.796001 -7.349000
vt -37.794998 -7.348000
vt -41.542999 -7.839000
vt -37.542999 -7.839000
vt -41.195999 -8.196000
vt -37.195999 -8.196000
vt -40.759998 -8.413000
vt -36.759998 -8.413000
vt -40.243000 -8.486000
vt -36.243000 -8.486000
vt -41.543999 -7.840000
vt -41.794998 -7.348000
vt -36.000000 -6.000000
vt -32.000000 -6.000000
vt -34.446999 -4.243000
vt -33.703999 -3.247000
vt -30.455999 3.248000
vt -30.204000 4.243000
vt -30.052000 6.731000
vt -26.052000 6.731000
vt -30.204000 7.349000
vt -26.205000 7.348000
vt -30.455999 7.840000
vt -26.457001 7.839000
vt -30.804001 8.196000
vt -26.804001 8.196000
vt -31.240000 8.413000
vt -27.240000 8.413000
vt -31.757000 8.486000
vt -27.757000 8.486000
vt -39.757000 -39.757000
vt -39.240002 8.413000
vt -38.804001 8.196000
vt -38.456001 7.840000
vt -38.203999 7.349000
vt -38.049999 6.733000
vt -30.049999 6.733000
vt -38.000000 6.000000
vt -38.049999 5.167000
vt -30.049999 5.167000
vt -38.203999 4.243000
vt -38.456001 3.248000
vt -38.804001 2.196000
vt -39.240002 1.107000
vt -39.757000 0.000000
vt -40.347000 -1.107000
vt -41.000000 -2.196000
vt -41.703999 -3.248000
vt -42.446999 -4.243000
vt -43.216999 -5.167000
vt -35.216999 -5.167000
vt -44.000000 -6.000000
vt -49.950001 -6.733000
vt -41.950001 -6.733000
vt -49.796001 -7.349000
vt -49.543999 -7.840000
vt -49.195999 -8.196000
vt -48.759998 -8.413000
vt -48.243000 -8.486000
vt -50.000000 -6.000000
vt -44.783001 -38.051998
vt -44.000000 -44.000000
vt -44.000000 -38.000000
vt -45.553001 -38.205002
vt -46.296001 -38.457001
vt -47.000000 -38.804001
vt -47.653000 -39.240002
vt -48.243000 -39.757000
vt -48.759998 -40.347000
vt -49.195999 -41.000000
vt -49.542999 -41.703999
vt -49.794998 -42.446999
vt -49.948002 -43.216999
vt -50.000000 -44.000000
vt -49.948002 -44.783001
vt -49.794998 -45.553001
vt -49.542999 -46.296001
vt -49.195999 -47.000000
vt -48.759998 -47.653000
vt -48.243000 -48.243000
vt -47.653000 -48.759998
vt -47.000000 -49.195999
vt -46.296001 -49.542999
vt -45.553001 -49.794998
vt -44.783001 -49.948002
vt -44.000000 -50.000000
vt -43.216999 -49.948002
vt -42.446999 -49.794998
vt -41.703999 -49.542999
vt -41.000000 -49.195999
vt -40.347000 -48.759998
vt -39.757000 -48.243000
vt -39.240002 -47.653000
vt -38.804001 -47.000000
vt -38.457001 -46.296001
vt -38.205002 -45.553001
vt -38.051998 -44.783001
vt -38.000000 -44.000000
vt -38.051998 -43.216999
vt -38.205002 -42.446999
vt -38.457001 -41.703999
vt -38.804001 -41.000000
vt -39.240002 -40.347000
vt -40.347000 -39.240002
vt -41.000000 -38.804001
vt -41.703999 -38.457001
vt -42.446999 -38.205002
vt -43.216999 -38.051998
vt -18.194000 16.378000
vt -18.889000 15.718000
vt -17.854000 14.408000
vt -18.549000 13.748000
vt -19.656000 15.055000
vt -19.316000 13.085000
vt -20.483000 14.399000
vt -20.143000 12.429000
vt -21.354000 13.764000
vt -21.014000 11.794000
vt -22.256001 13.158000
vt -21.916000 11.188000
vt -23.173000 12.593000
vt -22.833000 10.623000
vt -24.087999 12.078000
vt -23.747999 10.108000
vt -24.987000 11.623000
vt -24.646999 9.653000
vt -25.854000 11.233000
vt -25.514000 9.263000
vt -26.674000 10.918000
vt -26.334000 8.948000
vt -27.433001 10.682000
vt -27.093000 8.712000
vt -28.118999 10.528000
vt -27.778999 8.558000
vt -28.719000 10.460000
vt -28.379000 8.490000
vt -29.224001 10.478000
vt -28.884001 8.507999
vt -29.624001 10.583000
vt -29.284000 8.613000
vt -29.912001 10.773000
vt -29.572001 8.802999
vt -30.084000 11.044000
vt -29.743999 9.073999
vt -30.136999 11.391000
vt -29.797001 9.421000
vt -11.674000 11.391000
vt -12.172000 11.810000
vt -13.304000 9.421000
vt -13.802000 9.840000
vt -12.592000 12.292000
vt -14.222000 10.322000
vt -12.926000 12.829000
vt -14.556000 10.859000
vt -13.169000 13.413000
vt -14.799000 11.443000
vt -28.655001 14.032000
vt -28.315001 12.062000
vt -28.044001 14.678000
vt -27.704000 12.708000
vt -27.349001 15.338000
vt -27.009001 13.368000
vt -26.582001 16.000999
vt -26.242001 14.031000
vt -25.754999 16.657000
vt -25.415001 14.687000
vt -24.884001 17.292000
vt -24.544001 15.322000
vt -23.982000 17.898001
vt -23.642000 15.928000
vt -23.065001 18.462999
vt -22.725000 16.493000
vt -22.150000 18.978001
vt -21.809999 17.007999
vt -21.252001 19.433001
vt -20.912001 17.462999
vt -20.384001 19.823000
vt -20.044001 17.853001
vt -19.563999 20.138000
vt -19.224001 18.167999
vt -18.805000 20.374001
vt -18.465000 18.403999
vt -18.118999 20.528000
vt -17.778999 18.558001
vt -6.837000 20.596001
vt -8.467000 18.625999
vt -6.096001 20.577999
vt -7.726000 18.608000
vt -5.381000 20.473000
vt -7.011000 18.503000
vt -4.704000 20.283001
vt -6.334000 18.313000
vt -4.076000 20.011999
vt -5.706000 18.042000
vt -3.507999 19.665001
vt -5.138000 17.695000
vt -3.010000 19.246000
vt -4.640000 17.275999
vt -2.590000 18.764000
vt -4.220000 16.794001
vt -2.256001 18.226999
vt -3.886001 16.257000
vt -2.013000 17.643000
vt -3.643000 15.673000
vt -17.583000 17.024000
vt -17.243000 15.054000
vt -34.571999 -16.378000
vt -34.606998 -17.024000
vt -32.297001 -15.054000
vt -19.656000 -17.643000
vt -19.316000 -15.673000
vt -20.483000 -18.226999
vt -20.143000 -16.257000
vt -21.354000 -18.764000
vt -21.014000 -16.794001
vt -22.256001 -19.246000
vt -21.916000 -17.275999
vt -23.173000 -19.665001
vt -22.833000 -17.695000
vt -24.087999 -20.011999
vt -23.747999 -18.042000
vt -24.987000 -20.283001
vt -24.646999 -18.313000
vt -25.854000 -20.473000
vt -25.514000 -18.503000
vt -26.674000 -20.577999
vt -26.334000 -18.608000
vt -27.433001 -20.596001
vt -27.093000 -18.625999
vt -27.778999 -18.558001
vt -28.719000 -20.374001
vt -28.379000 -18.403999
vt -29.224001 -20.138000
vt -28.884001 -18.167999
vt -29.624001 -19.823000
vt -29.284000 -17.853001
vt -29.912001 -19.433001
vt -29.572001 -17.462999
vt -30.084000 -18.978001
vt -29.743999 -17.007999
vt -30.136999 -18.462999
vt -29.797001 -16.493000
vt -41.528000 -18.462999
vt -39.217999 -16.493000
vt -41.880001 -17.898001
vt -39.570000 -15.928000
vt -42.175999 -17.292000
vt -39.866001 -15.322000
vt -42.411999 -16.657000
vt -40.102001 -14.687000
vt -42.583000 -16.000999
vt -40.272999 -14.031000
vt -42.687000 -15.338000
vt -40.376999 -13.368000
vt -42.722000 -14.678000
vt -42.687000 -14.032000
vt -40.376999 -12.062000
vt -26.582001 -13.413000
vt -26.242001 -11.443000
vt -25.754999 -12.829000
vt -25.415001 -10.859000
vt -24.884001 -12.292000
vt -24.544001 -10.322000
vt -23.982000 -11.810000
vt -23.642000 -9.840000
vt -23.065001 -11.391000
vt -22.725000 -9.421000
vt -22.150000 -11.044000
vt -21.809999 -9.073999
vt -21.252001 -10.773000
vt -20.912001 -8.802999
vt -20.384001 -10.583000
vt -20.044001 -8.613000
vt -19.563999 -10.478000
vt -19.224001 -8.507999
vt -18.805000 -10.460000
vt -18.465000 -8.490000
vt -17.778999 -8.558000
vt -38.646999 -10.528000
vt -38.115002 -10.682000
vt -35.805000 -8.712000
vt -37.591999 -10.918000
vt -35.282001 -8.948000
vt -37.087002 -11.233000
vt -34.777000 -9.263000
vt -36.610001 -11.623000
vt -34.299999 -9.653000
vt -36.166000 -12.078000
vt -33.855999 -10.108000
vt -35.765999 -12.593000
vt -33.456001 -10.623000
vt -35.414001 -13.158000
vt -33.104000 -11.188000
vt -35.118000 -13.764000
vt -32.807999 -11.794000
vt -34.882000 -14.399000
vt -32.571999 -12.429000
vt -34.710999 -15.055000
vt -32.401001 -13.085000
vt -34.606998 -15.718000
vt -32.297001 -13.748000
s 1
usemtl 85
f 701/1/1 3/2/1 707/3/1
f 9/4/1 707/3/1 3/2/1
f 3/2/1 701/1/1 126/5/1
f 584/6/1 126/5/1 701/1/1
f 126/5/1 584/6/1 228/7/1
f 483/8/1 228/7/1 584/6/1
f 704/9/2 7/10/2 699/11/2
f 2/12/2 699/11/2 7/10/2
f 125/13/2 582/14/2 2/12/2
f 699/11/2 2/12/2 582/14/2
f 227/15/2 481/16/2 125/13/2
f 582/14/2 125/13/2 481/16/2
f 706/17/3 8/18/3 668/19/3
f 47/20/3 668/19/3 8/18/3
f 703/21/3 706/17/3 665/22/3
f 668/19/3 665/22/3 706/17/3
f 5/23/3 703/21/3 45/24/3
f 665/22/3 45/24/3 703/21/3
f 8/18/3 5/23/3 47/20/3
f 45/24/3 47/20/3 5/23/3
f 305/25/3 308/26/3 235/27/3
f 414/28/3 477/29/3 417/30/3
f 302/31/3 233/32/3 300/33/3
f 411/34/3 409/35/3 475/36/3
f 232/37/4 297/38/4 236/39/4
f 306/40/4 236/39/4 297/38/4
f 298/38/5 299/41/5 307/40/5
f 309/42/5 307/40/5 299/41/5
f 474/43/6 478/44/6 407/45/6
f 416/46/6 407/45/6 478/44/6
f 406/45/7 415/46/7 408/47/7
f 418/48/7 408/47/7 415/46/7
f 231/49/8 234/50/8 296/51/8
f 304/52/8 296/51/8 234/50/8
f 295/53/5 303/54/5 294/55/5
f 301/56/5 294/55/5 303/54/5
f 473/57/9 404/58/9 476/59/9
f 412/60/9 476/59/9 404/58/9
f 405/58/7 403/61/7 413/60/7
f 410/62/7 413/60/7 403/61/7
f 46/63/5 41/64/10 49/65/5
f 43/66/11 49/65/5 41/64/10
f 666/67/7 667/68/7 661/69/12
f 662/70/13 661/69/12 667/68/7
f 669/71/2 48/72/2 663/73/2
f 42/74/2 663/73/2 48/72/2
f 44/75/1 664/76/1 40/77/1
f 660/78/1 40/77/1 664/76/1
f 41/64/10 112/79/14 43/66/11
f 118/80/14 43/66/11 112/79/14
f 211/81/15 219/82/15 218/83/15
f 222/84/15 218/83/15 219/82/15
f 661/69/12 662/70/13 592/85/16
f 598/86/16 592/85/16 662/70/13
f 492/87/17 498/88/17 486/89/17
f 489/90/17 486/89/17 498/88/17
f 663/73/2 42/74/2 488/91/2
f 223/92/2 488/91/2 42/74/2
f 40/77/1 660/78/1 220/93/1
f 485/94/1 220/93/1 660/78/1
f 490/95/3 224/96/3 487/97/3
f 221/98/3 487/97/3 224/96/3
f 705/99/5 700/100/18 708/101/5
f 702/102/19 708/101/5 700/100/18
f 10/103/7 4/2/20 6/104/7
f 1/12/20 6/104/7 4/2/20
f 1/12/20 4/2/20 11/105/21
f 15/106/21 11/105/21 4/2/20
f 106/107/22 110/108/22 124/13/23
f 128/5/24 124/13/23 110/108/22
f 124/13/23 128/5/24 151/109/25
f 154/110/25 151/109/25 128/5/24
f 700/100/18 694/111/26 702/102/19
f 698/112/26 702/102/19 694/111/26
f 599/113/27 583/114/28 603/115/27
f 586/116/29 603/115/27 583/114/28
f 583/114/28 557/117/30 586/116/29
f 560/118/30 586/116/29 557/117/30
f 229/119/31 226/120/31 153/121/31
f 149/122/31 153/121/31 226/120/31
f 226/120/31 229/119/31 479/123/31
f 482/124/31 479/123/31 229/119/31
f 479/123/31 482/124/31 555/125/31
f 559/126/31 555/125/31 482/124/31
f 152/110/32 127/5/32 230/7/32
f 558/126/33 484/124/33 585/127/33
f 556/117/34 581/114/34 480/128/34
f 150/122/35 225/120/35 123/129/35
f 685/130/26 697/131/26 684/132/26
f 694/111/26 684/132/26 697/131/26
f 673/133/26 685/130/26 672/134/26
f 684/132/26 672/134/26 685/130/26
f 653/135/26 673/133/26 652/136/26
f 672/134/26 652/136/26 673/133/26
f 643/137/26 653/135/26 640/138/26
f 652/136/26 640/138/26 653/135/26
f 633/139/26 643/137/26 632/140/26
f 640/138/26 632/140/26 643/137/26
f 623/141/30 633/139/26 622/142/30
f 632/140/26 622/142/30 633/139/26
f 611/143/26 623/141/30 610/144/30
f 622/142/30 610/144/30 623/141/30
f 602/145/26 611/143/26 599/113/36
f 610/144/30 599/113/36 611/143/26
f 612/146/26 602/145/26 613/147/30
f 603/115/37 613/147/30 602/145/26
f 624/148/30 612/146/26 625/149/30
f 613/147/30 625/149/30 612/146/26
f 634/150/26 624/148/30 635/151/26
f 625/149/30 635/151/26 624/148/30
f 646/152/26 634/150/26 647/153/26
f 635/151/26 647/153/26 634/150/26
f 654/154/26 646/152/26 655/155/26
f 647/153/26 655/155/26 646/152/26
f 674/156/26 654/154/26 675/157/26
f 655/155/26 675/157/26 654/154/26
f 686/158/26 674/156/26 687/159/26
f 675/157/26 687/159/26 674/156/26
f 697/131/26 686/158/26 698/112/26
f 687/159/26 698/112/26 686/158/26
f 576/160/16 575/161/16 593/162/16
f 591/85/16 593/162/16 575/161/16
f 564/163/16 563/164/16 576/160/16
f 575/161/16 576/160/16 563/164/16
f 548/165/16 547/166/16 564/163/16
f 563/164/16 564/163/16 547/166/16
f 536/167/16 535/168/16 548/165/16
f 547/166/16 548/165/16 535/168/16
f 528/169/16 527/170/16 536/167/16
f 535/168/16 536/167/16 527/170/16
f 518/171/38 517/172/38 528/169/16
f 527/170/16 528/169/16 517/172/38
f 506/173/16 505/174/38 518/171/38
f 517/172/38 518/171/38 505/174/38
f 493/175/16 491/87/16 506/173/16
f 505/174/38 506/173/16 491/87/16
f 507/176/16 508/177/38 494/175/16
f 497/88/16 494/175/16 508/177/38
f 519/178/38 520/179/38 507/176/16
f 508/177/38 507/176/16 520/179/38
f 529/180/16 530/181/16 519/178/38
f 520/179/38 519/178/38 530/181/16
f 539/182/16 542/183/16 529/180/16
f 530/181/16 529/180/16 542/183/16
f 549/184/16 550/185/16 539/182/16
f 542/183/16 539/182/16 550/185/16
f 565/186/16 566/187/16 549/184/16
f 550/185/16 549/184/16 566/187/16
f 577/188/16 578/189/16 565/186/16
f 566/187/16 565/186/16 578/189/16
f 594/162/16 597/86/16 577/188/16
f 578/189/16 577/188/16 597/86/16
f 23/190/21 22/191/21 14/192/21
f 11/105/21 14/192/21 22/191/21
f 35/193/21 34/194/21 23/190/21
f 22/191/21 23/190/21 34/194/21
f 55/195/21 54/196/21 35/193/21
f 34/194/21 35/193/21 54/196/21
f 65/197/21 62/198/21 55/195/21
f 54/196/21 55/195/21 62/198/21
f 75/199/21 74/200/21 65/197/21
f 62/198/21 65/197/21 74/200/21
f 85/201/25 84/202/25 75/199/21
f 74/200/21 75/199/21 84/202/25
f 97/203/21 96/204/25 85/201/25
f 84/202/25 85/201/25 96/204/25
f 109/205/21 106/107/39 97/203/21
f 96/204/25 97/203/21 106/107/39
f 98/206/21 99/207/25 109/205/21
f 110/108/40 109/205/21 99/207/25
f 86/208/25 87/209/25 98/206/21
f 99/207/25 98/206/21 87/209/25
f 76/210/21 77/211/21 86/208/25
f 87/209/25 86/208/25 77/211/21
f 68/212/21 69/213/21 76/210/21
f 77/211/21 76/210/21 69/213/21
f 56/214/21 57/215/21 68/212/21
f 69/213/21 68/212/21 57/215/21
f 36/216/21 37/217/21 56/214/21
f 57/215/21 56/214/21 37/217/21
f 24/218/21 25/219/21 36/216/21
f 37/217/21 36/216/21 25/219/21
f 14/192/21 15/106/21 24/218/21
f 25/219/21 24/218/21 15/106/21
f 132/220/14 114/221/14 131/222/14
f 111/79/14 131/222/14 114/221/14
f 144/223/14 132/220/14 143/224/14
f 131/222/14 143/224/14 132/220/14
f 160/225/14 144/223/14 159/226/14
f 143/224/14 159/226/14 144/223/14
f 168/227/14 160/225/14 167/228/14
f 159/226/14 167/228/14 160/225/14
f 180/229/14 168/227/14 179/230/14
f 167/228/14 179/230/14 168/227/14
f 190/231/41 180/229/14 189/232/41
f 179/230/14 189/232/41 180/229/14
f 202/233/14 190/231/41 201/234/41
f 189/232/41 201/234/41 190/231/41
f 214/235/14 202/233/14 212/81/14
f 201/234/41 212/81/14 202/233/14
f 203/236/14 213/235/14 204/237/41
f 217/83/14 204/237/41 213/235/14
f 191/238/41 203/236/14 192/239/41
f 204/237/41 192/239/41 203/236/14
f 181/240/14 191/238/41 182/241/14
f 192/239/41 182/241/14 191/238/41
f 171/242/14 181/240/14 174/243/14
f 182/241/14 174/243/14 181/240/14
f 161/244/14 171/242/14 162/245/14
f 174/243/14 162/245/14 171/242/14
f 145/246/14 161/244/14 146/247/14
f 162/245/14 146/247/14 161/244/14
f 133/248/14 145/246/14 134/249/14
f 146/247/14 134/249/14 145/246/14
f 113/221/14 133/248/14 117/80/14
f 134/249/14 117/80/14 133/248/14
f 471/250/42 472/251/43 461/252/44
f 463/253/45 461/252/44 472/251/43
f 461/252/44 463/253/45 455/254/46
f 457/255/47 455/254/46 463/253/45
f 455/254/46 457/255/47 447/256/48
f 449/257/49 447/256/48 457/255/47
f 447/256/48 449/257/49 439/258/50
f 441/259/51 439/258/50 449/257/49
f 439/258/50 441/259/51 431/260/52
f 433/261/53 431/260/52 441/259/51
f 431/260/52 433/261/53 423/262/54
f 425/263/55 423/262/54 433/261/53
f 423/262/54 425/263/55 399/264/56
f 401/265/57 399/264/56 425/263/55
f 399/264/56 401/265/57 391/266/58
f 393/267/59 391/266/58 401/265/57
f 391/266/58 393/267/59 383/268/60
f 385/269/61 383/268/60 393/267/59
f 383/268/60 385/269/61 375/270/62
f 377/271/63 375/270/62 385/269/61
f 375/270/62 377/271/63 366/272/64
f 369/273/65 366/272/64 377/271/63
f 366/272/64 369/273/65 357/274/66
f 359/275/67 357/274/66 369/273/65
f 357/274/66 359/275/67 347/276/68
f 350/277/69 347/276/68 359/275/67
f 347/276/68 350/277/69 338/278/70
f 340/279/71 338/278/70 350/277/69
f 338/278/70 340/279/71 330/280/72
f 332/281/73 330/280/72 340/279/71
f 330/280/72 332/281/73 322/282/74
f 324/283/75 322/282/74 332/281/73
f 322/282/74 324/283/75 314/284/76
f 316/285/77 314/284/76 324/283/75
f 314/284/76 316/285/77 290/286/78
f 292/287/79 290/286/78 316/285/77
f 290/286/78 292/287/79 282/284/80
f 284/285/81 282/284/80 292/287/79
f 282/284/80 284/285/81 274/282/82
f 276/283/83 274/282/82 284/285/81
f 274/282/82 276/283/83 266/288/84
f 268/281/85 266/288/84 276/283/83
f 266/288/84 268/281/85 258/289/86
f 260/279/87 258/289/86 268/281/85
f 258/289/86 260/279/87 250/276/88
f 252/277/89 250/276/88 260/279/87
f 250/276/88 252/277/89 241/274/90
f 243/275/91 241/274/90 252/277/89
f 240/290/92 242/291/93 251/272/94
f 253/273/95 251/272/94 242/291/93
f 251/272/94 253/273/95 259/292/96
f 261/271/97 259/292/96 253/273/95
f 259/292/96 261/271/97 267/293/98
f 269/269/99 267/293/98 261/271/97
f 267/293/98 269/269/99 275/266/100
f 277/267/101 275/266/100 269/269/99
f 275/266/100 277/267/101 283/264/102
f 285/265/103 283/264/102 277/267/101
f 283/264/102 285/265/103 291/262/104
f 293/263/105 291/262/104 285/265/103
f 291/262/104 293/263/105 315/260/106
f 317/261/107 315/260/106 293/263/105
f 315/260/106 317/261/107 323/258/108
f 325/259/109 323/258/108 317/261/107
f 323/258/108 325/259/109 331/294/110
f 333/257/111 331/294/110 325/259/109
f 331/294/110 333/257/111 339/295/112
f 341/255/113 339/295/112 333/257/111
f 339/295/112 341/255/113 348/252/114
f 351/253/115 348/252/114 341/255/113
f 348/252/114 351/253/115 358/250/116
f 360/251/117 358/250/116 351/253/115
f 358/250/116 360/251/117 367/296/118
f 370/297/119 367/296/118 360/251/117
f 367/296/118 370/297/119 376/298/120
f 378/299/121 376/298/120 370/297/119
f 376/298/120 378/299/121 384/300/122
f 386/301/123 384/300/122 378/299/121
f 384/300/122 386/301/123 392/302/124
f 394/303/125 392/302/124 386/301/123
f 392/302/124 394/303/125 400/304/126
f 402/305/127 400/304/126 394/303/125
f 400/304/126 402/305/127 424/306/128
f 426/307/129 424/306/128 402/305/127
f 424/306/128 426/307/129 432/304/130
f 434/305/131 432/304/130 426/307/129
f 432/304/130 434/305/131 440/302/132
f 442/303/133 440/302/132 434/305/131
f 440/302/132 442/303/133 448/300/134
f 450/301/135 448/300/134 442/303/133
f 448/300/134 450/301/135 456/298/136
f 458/299/137 456/298/136 450/301/135
f 456/298/136 458/299/137 462/296/138
f 464/297/139 462/296/138 458/299/137
f 462/296/138 464/297/139 471/250/42
f 472/251/43 471/250/42 464/297/139
f 422/308/9 424/306/128 430/309/140
f 432/304/130 430/309/140 424/306/128
f 430/309/140 432/304/130 438/310/141
f 440/302/132 438/310/141 432/304/130
f 438/310/141 440/302/132 446/311/142
f 448/300/134 446/311/142 440/302/132
f 446/311/142 448/300/134 454/312/143
f 456/298/136 454/312/143 448/300/134
f 454/312/143 456/298/136 466/313/144
f 468/314/145 466/313/144 456/298/136
f 466/313/144 468/314/145 470/315/146
f 471/250/42 470/315/146 468/314/145
f 470/315/146 471/250/42 465/316/147
f 467/317/148 465/316/147 471/250/42
f 465/316/147 467/317/148 452/318/149
f 455/254/46 452/318/149 467/317/148
f 452/318/149 455/254/46 444/319/150
f 447/256/48 444/319/150 455/254/46
f 444/319/150 447/256/48 436/320/151
f 439/258/50 436/320/151 447/256/48
f 436/320/151 439/258/50 428/321/152
f 431/260/52 428/321/152 439/258/50
f 428/321/152 431/260/52 420/322/153
f 423/262/54 420/322/153 431/260/52
f 420/322/153 423/262/54 396/323/154
f 399/264/56 396/323/154 423/262/54
f 396/323/154 399/264/56 388/324/155
f 391/266/58 388/324/155 399/264/56
f 388/324/155 391/266/58 380/325/156
f 383/268/60 380/325/156 391/266/58
f 380/325/156 383/268/60 372/326/157
f 375/270/62 372/326/157 383/268/60
f 372/326/157 375/270/62 361/327/158
f 365/328/159 361/327/158 375/270/62
f 361/327/158 365/328/159 353/329/160
f 357/274/66 353/329/160 365/328/159
f 353/329/160 357/274/66 342/330/161
f 346/331/162 342/330/161 357/274/66
f 342/330/161 346/331/162 335/332/163
f 338/278/70 335/332/163 346/331/162
f 335/332/163 338/278/70 327/333/164
f 330/280/72 327/333/164 338/278/70
f 327/333/164 330/280/72 319/334/165
f 322/282/74 319/334/165 330/280/72
f 319/334/165 322/282/74 311/335/166
f 314/284/76 311/335/166 322/282/74
f 311/335/166 314/284/76 287/336/167
f 290/286/78 287/336/167 314/284/76
f 287/336/167 290/286/78 279/335/168
f 282/284/80 279/335/168 290/286/78
f 279/335/168 282/284/80 271/334/169
f 274/282/82 271/334/169 282/284/80
f 271/334/169 274/282/82 263/333/170
f 266/288/84 263/333/170 274/282/82
f 263/333/170 266/288/84 255/332/171
f 258/289/86 255/332/171 266/288/84
f 255/332/171 258/289/86 244/330/172
f 246/331/173 244/330/172 258/289/86
f 244/330/172 246/331/173 239/337/174
f 241/274/175 239/337/174 246/331/173
f 238/329/176 240/290/176 245/327/177
f 247/328/178 245/327/177 240/290/176
f 245/327/177 247/328/178 257/326/179
f 259/292/96 257/326/179 247/328/178
f 257/326/179 259/292/96 265/325/180
f 267/293/98 265/325/180 259/292/96
f 265/325/180 267/293/98 273/324/181
f 275/266/100 273/324/181 267/293/98
f 273/324/181 275/266/100 281/323/182
f 283/264/102 281/323/182 275/266/100
f 281/323/182 283/264/102 289/322/8
f 291/262/104 289/322/8 283/264/102
f 459/338/31 354/339/31 469/340/31
f 451/341/31 354/339/31 459/338/31
f 443/342/31 354/339/31 451/341/31
f 435/343/31 354/339/31 443/342/31
f 427/344/31 354/339/31 435/343/31
f 419/345/31 354/339/31 427/344/31
f 395/346/31 354/339/31 419/345/31
f 387/347/31 354/339/31 395/346/31
f 379/348/31 354/339/31 387/347/31
f 371/349/31 354/339/31 379/348/31
f 362/350/31 354/339/31 371/349/31
f 352/351/31 354/339/31 362/350/31
f 343/352/31 354/339/31 352/351/31
f 334/353/31 354/339/31 343/352/31
f 326/354/31 354/339/31 334/353/31
f 318/355/31 354/339/31 326/354/31
f 310/356/31 354/339/31 318/355/31
f 286/357/31 354/339/31 310/356/31
f 278/358/31 354/339/31 286/357/31
f 270/359/31 354/339/31 278/358/31
f 262/360/31 354/339/31 270/359/31
f 254/361/31 354/339/31 262/360/31
f 248/362/31 354/339/31 254/361/31
f 237/363/31 354/339/31 248/362/31
f 249/364/31 354/339/31 237/363/31
f 256/365/31 354/339/31 249/364/31
f 264/366/31 354/339/31 256/365/31
f 272/367/31 354/339/31 264/366/31
f 280/368/31 354/339/31 272/367/31
f 288/369/31 354/339/31 280/368/31
f 312/370/31 354/339/31 288/369/31
f 320/371/31 354/339/31 312/370/31
f 328/372/31 354/339/31 320/371/31
f 336/373/31 354/339/31 328/372/31
f 344/374/31 354/339/31 336/373/31
f 355/375/31 354/339/31 344/374/31
f 363/376/31 354/339/31 355/375/31
f 373/377/31 354/339/31 363/376/31
f 381/378/31 354/339/31 373/377/31
f 389/379/31 354/339/31 381/378/31
f 397/380/31 354/339/31 389/379/31
f 421/308/31 354/339/31 397/380/31
f 429/381/31 354/339/31 421/308/31
f 437/382/31 354/339/31 429/381/31
f 445/383/31 354/339/31 437/382/31
f 453/384/31 354/339/31 445/383/31
f 460/385/31 354/339/31 453/384/31
f 469/340/31 354/339/31 460/385/31
f 695/386/183 692/387/184 595/388/183
f 589/389/185 595/388/183 692/387/184
f 692/387/184 690/390/186 589/389/185
f 587/391/187 589/389/185 690/390/186
f 690/390/186 688/392/188 587/391/187
f 579/393/189 587/391/187 688/392/188
f 688/392/188 682/394/190 579/393/189
f 573/395/191 579/393/189 682/394/190
f 682/394/190 680/396/192 573/395/191
f 571/397/193 573/395/191 680/396/192
f 680/396/192 676/398/194 571/397/193
f 567/399/194 571/397/193 676/398/194
f 677/398/195 670/400/196 568/399/195
f 561/401/197 568/399/195 670/400/196
f 670/400/196 658/402/198 561/401/197
f 553/403/199 561/401/197 658/402/198
f 658/402/198 656/404/200 553/403/199
f 551/405/201 553/403/199 656/404/200
f 656/404/200 650/406/202 551/405/201
f 545/407/203 551/405/201 650/406/202
f 650/406/202 648/408/204 545/407/203
f 543/409/205 545/407/203 648/408/204
f 648/408/204 642/410/206 543/409/205
f 538/411/206 543/409/205 642/410/206
f 641/410/207 638/412/208 537/411/207
f 533/413/209 537/411/207 638/412/208
f 638/412/208 636/414/210 533/413/209
f 531/415/211 533/413/209 636/414/210
f 636/414/210 630/416/212 531/415/211
f 525/417/213 531/415/211 630/416/212
f 630/416/212 628/418/214 525/417/213
f 523/419/215 525/417/213 628/418/214
f 628/418/214 626/420/216 523/419/215
f 521/421/217 523/419/215 626/420/216
f 626/420/216 619/422/218 521/421/217
f 514/423/218 521/421/217 619/422/218
f 618/424/219 616/425/220 513/426/219
f 511/427/221 513/426/219 616/425/220
f 616/425/220 614/428/222 511/427/221
f 509/429/223 511/427/221 614/428/222
f 614/428/222 608/430/224 509/429/223
f 503/431/225 509/429/223 608/430/224
f 608/430/224 606/432/226 503/431/225
f 501/433/227 503/431/225 606/432/226
f 606/432/226 604/434/228 501/433/227
f 499/435/229 501/433/227 604/434/228
f 604/434/228 600/436/230 499/435/229
f 495/437/230 499/435/229 600/436/230
f 601/436/231 605/438/232 496/437/231
f 500/439/233 496/437/231 605/438/232
f 605/438/232 607/440/234 500/439/233
f 502/441/235 500/439/233 607/440/234
f 607/440/234 609/442/236 502/441/235
f 504/443/237 502/441/235 609/442/236
f 609/442/236 615/444/238 504/443/237
f 510/445/239 504/443/237 615/444/238
f 615/444/238 617/446/240 510/445/239
f 512/447/241 510/445/239 617/446/240
f 617/446/240 620/448/242 512/447/241
f 515/449/242 512/447/241 620/448/242
f 621/448/243 627/450/244 516/449/243
f 522/451/245 516/449/243 627/450/244
f 627/450/244 629/452/246 522/451/245
f 524/453/247 522/451/245 629/452/246
f 629/452/246 631/454/248 524/453/247
f 526/455/249 524/453/247 631/454/248
f 631/454/248 637/456/250 526/455/249
f 532/457/251 526/455/249 637/456/250
f 637/456/250 639/458/252 532/457/251
f 534/459/253 532/457/251 639/458/252
f 639/458/252 644/460/254 534/459/253
f 540/461/254 534/459/253 644/460/254
f 645/152/255 649/462/256 541/182/255
f 544/463/257 541/182/255 649/462/256
f 649/462/256 651/464/258 544/463/257
f 546/465/259 544/463/257 651/464/258
f 651/464/258 657/466/260 546/465/259
f 552/467/261 546/465/259 657/466/260
f 657/466/260 659/468/262 552/467/261
f 554/469/263 552/467/261 659/468/262
f 659/468/262 671/470/264 554/469/263
f 562/471/265 554/469/263 671/470/264
f 671/470/264 679/472/266 562/471/265
f 570/473/266 562/471/265 679/472/266
f 678/472/267 681/474/268 569/473/267
f 572/475/269 569/473/267 681/474/268
f 681/474/268 683/476/270 572/475/269
f 574/477/271 572/475/269 683/476/270
f 683/476/270 689/478/272 574/477/271
f 580/479/273 574/477/271 689/478/272
f 689/478/272 691/480/274 580/479/273
f 588/481/275 580/479/273 691/480/274
f 691/480/274 693/482/276 588/481/275
f 590/483/277 588/481/275 693/482/276
f 693/482/276 696/386/278 590/483/277
f 596/388/278 590/483/277 696/386/278
f 12/484/279 115/221/279 16/485/280
f 119/486/281 16/485/280 115/221/279
f 16/485/280 119/486/281 18/487/282
f 121/488/283 18/487/282 119/486/281
f 18/487/282 121/488/283 20/489/284
f 129/490/285 20/489/284 121/488/283
f 20/489/284 129/490/285 26/491/286
f 135/492/287 26/491/286 129/490/285
f 26/491/286 135/492/287 28/493/288
f 137/494/289 28/493/288 135/492/287
f 28/493/288 137/494/289 30/495/290
f 139/496/290 30/495/290 137/494/289
f 31/495/291 140/496/291 38/497/292
f 147/498/293 38/497/292 140/496/291
f 38/497/292 147/498/293 50/499/294
f 155/500/295 50/499/294 147/498/293
f 50/499/294 155/500/295 52/501/296
f 157/502/297 52/501/296 155/500/295
f 52/501/296 157/502/297 58/503/298
f 163/504/299 58/503/298 157/502/297
f 58/503/298 163/504/299 60/505/300
f 165/506/301 60/505/300 163/504/299
f 60/505/300 165/506/301 63/197/302
f 169/507/302 63/197/302 165/506/301
f 64/197/303 170/507/303 70/508/304
f 175/509/305 70/508/304 170/507/303
f 70/508/304 175/509/305 72/510/306
f 177/511/307 72/510/306 175/509/305
f 72/510/306 177/511/307 78/512/308
f 183/513/309 78/512/308 177/511/307
f 78/512/308 183/513/309 80/514/310
f 185/515/311 80/514/310 183/513/309
f 80/514/310 185/515/311 82/516/312
f 187/517/313 82/516/312 185/515/311
f 82/516/312 187/517/313 89/518/314
f 194/519/314 89/518/314 187/517/313
f 88/520/315 193/521/315 92/522/316
f 197/523/317 92/522/316 193/521/315
f 92/522/316 197/523/317 94/524/318
f 199/525/319 94/524/318 197/523/317
f 94/524/318 199/525/319 100/526/320
f 205/527/321 100/526/320 199/525/319
f 100/526/320 205/527/321 102/528/322
f 207/529/323 102/528/322 205/527/321
f 102/528/322 207/529/323 104/530/324
f 209/531/325 104/530/324 207/529/323
f 104/530/324 209/531/325 107/532/326
f 215/235/326 107/532/326 209/531/325
f 108/532/327 216/235/327 105/533/328
f 210/534/329 105/533/328 216/235/327
f 105/533/328 210/534/329 103/535/330
f 208/536/331 103/535/330 210/534/329
f 103/535/330 208/536/331 101/537/332
f 206/538/333 101/537/332 208/536/331
f 101/537/332 206/538/333 95/539/334
f 200/540/335 95/539/334 206/538/333
f 95/539/334 200/540/335 93/541/336
f 198/542/337 93/541/336 200/540/335
f 93/541/336 198/542/337 90/543/338
f 195/544/338 90/543/338 198/542/337
f 91/543/339 196/544/339 83/545/340
f 188/546/341 83/545/340 196/544/339
f 83/545/340 188/546/341 81/547/342
f 186/548/343 81/547/342 188/546/341
f 81/547/342 186/548/343 79/549/344
f 184/550/345 79/549/344 186/548/343
f 79/549/344 184/550/345 73/551/346
f 178/552/347 73/551/346 184/550/345
f 73/551/346 178/552/347 71/553/348
f 176/554/349 71/553/348 178/552/347
f 71/553/348 176/554/349 66/212/350
f 172/555/350 66/212/350 176/554/349
f 67/556/351 173/242/351 61/557/352
f 166/558/353 61/557/352 173/242/351
f 61/557/352 166/558/353 59/559/354
f 164/560/355 59/559/354 166/558/353
f 59/559/354 164/560/355 53/561/356
f 158/562/357 53/561/356 164/560/355
f 53/561/356 158/562/357 51/563/358
f 156/564/359 51/563/358 158/562/357
f 51/563/358 156/564/359 39/565/360
f 148/566/361 39/565/360 156/564/359
f 39/565/360 148/566/361 32/567/362
f 141/568/362 32/567/362 148/566/361
f 33/567/363 142/568/363 29/569/364
f 138/570/365 29/569/364 142/568/363
f 29/569/364 138/570/365 27/571/366
f 136/572/367 27/571/366 138/570/365
f 27/571/366 136/572/367 21/573/368
f 130/574/369 21/573/368 136/572/367
f 21/573/368 130/574/369 19/575/370
f 122/576/371 19/575/370 130/574/369
f 19/575/370 122/576/371 17/577/372
f 120/578/373 17/577/372 122/576/371
f 17/577/372 120/578/373 13/484/374
f 116/221/374 13/484/374 120/578/373
f 422/308/9 398/309/127 424/306/128
f 400/304/126 424/306/128 398/309/127
f 398/309/127 390/310/375 400/304/126
f 392/302/124 400/304/126 390/310/375
f 390/310/375 382/311/376 392/302/124
f 384/300/122 392/302/124 382/311/376
f 382/311/376 374/312/377 384/300/122
f 376/298/120 384/300/122 374/312/377
f 374/312/377 364/313/378 376/298/120
f 368/314/379 376/298/120 364/313/378
f 364/313/378 356/315/380 368/314/379
f 358/250/381 368/314/379 356/315/380
f 356/315/380 345/316/382 358/250/381
f 349/317/383 358/250/381 345/316/382
f 345/316/382 337/318/384 349/317/383
f 339/295/112 349/317/383 337/318/384
f 337/318/384 329/319/385 339/295/112
f 331/294/110 339/295/112 329/319/385
f 329/319/385 321/320/386 331/294/110
f 323/258/108 331/294/110 321/320/386
f 321/320/386 313/321/107 323/258/108
f 315/260/106 323/258/108 313/321/107
f 313/321/107 289/322/8 315/260/106
f 291/262/104 315/260/106 289/322/8
